# Modelo original generado para Caelum Argenteum.
# Ejes OBJ: X ancho, Y altura, Z profundidad.
o ca_hazard_boulder
v 0.000000 -48.000000 0.000000
v 11.772585 -47.420553 3.154455
v 12.320892 -47.268905 0.000000
v 12.320892 -47.268905 0.000000
v 11.772585 -47.420553 3.154455
v 23.165640 -40.467950 6.207215
v 24.528795 -41.893618 0.000000
v 24.528795 -41.893618 0.000000
v 23.165640 -40.467950 6.207215
v 32.542079 -34.161225 8.719624
v 34.806403 -34.887190 0.000000
v 34.806403 -34.887190 0.000000
v 32.542079 -34.161225 8.719624
v 39.438160 -24.821890 10.567423
v 41.527154 -24.073121 0.000000
v 41.527154 -24.073121 0.000000
v 39.438160 -24.821890 10.567423
v 45.433059 -12.818497 12.173752
v 46.940783 -12.546240 0.000000
v 46.940783 -12.546240 0.000000
v 45.433059 -12.818497 12.173752
v 46.306230 0.000000 12.407717
v 48.327392 0.000000 0.000000
v 48.327392 0.000000 0.000000
v 46.306230 0.000000 12.407717
v 44.450969 12.114460 11.910601
v 46.040964 12.827682 0.000000
v 46.040964 12.827682 0.000000
v 44.450969 12.114460 11.910601
v 40.894411 23.208587 10.957624
v 42.613106 24.637871 0.000000
v 42.613106 24.637871 0.000000
v 40.894411 23.208587 10.957624
v 32.505739 34.057245 8.709887
v 33.338414 33.862831 0.000000
v 33.338414 33.862831 0.000000
v 32.505739 34.057245 8.709887
v 23.162771 42.854195 6.206446
v 24.565803 42.968273 0.000000
v 24.565803 42.968273 0.000000
v 23.162771 42.854195 6.206446
v 12.251578 47.986803 3.282800
v 12.550547 46.139388 0.000000
v 0.000000 48.000000 0.000000
v 12.550547 46.139388 0.000000
v 12.251578 47.986803 3.282800
v 0.000000 -48.000000 0.000000
v 10.564321 -46.846438 6.099314
v 11.772585 -47.420553 3.154455
v 11.772585 -47.420553 3.154455
v 10.564321 -46.846438 6.099314
v 20.297191 -42.931625 11.718589
v 23.165640 -40.467950 6.207215
v 23.165640 -40.467950 6.207215
v 20.297191 -42.931625 11.718589
v 28.788317 -34.124938 16.620942
v 32.542079 -34.161225 8.719624
v 32.542079 -34.161225 8.719624
v 28.788317 -34.124938 16.620942
v 35.152408 -23.422488 20.295252
v 39.438160 -24.821890 10.567423
v 39.438160 -24.821890 10.567423
v 35.152408 -23.422488 20.295252
v 39.605537 -12.174646 22.866267
v 45.433059 -12.818497 12.173752
v 45.433059 -12.818497 12.173752
v 39.605537 -12.174646 22.866267
v 40.136740 0.000000 23.172957
v 46.306230 0.000000 12.407717
v 46.306230 0.000000 12.407717
v 40.136740 0.000000 23.172957
v 40.686618 12.788749 23.490430
v 44.450969 12.114460 11.910601
v 44.450969 12.114460 11.910601
v 40.686618 12.788749 23.490430
v 37.032121 24.143858 21.380505
v 40.894411 23.208587 10.957624
v 40.894411 23.208587 10.957624
v 37.032121 24.143858 21.380505
v 30.261929 33.014617 17.471733
v 32.505739 34.057245 8.709887
v 32.505739 34.057245 8.709887
v 30.261929 33.014617 17.471733
v 20.362521 42.906421 11.756307
v 23.162771 42.854195 6.206446
v 23.162771 42.854195 6.206446
v 20.362521 42.906421 11.756307
v 11.015259 47.244020 6.359663
v 12.251578 47.986803 3.282800
v 0.000000 48.000000 0.000000
v 12.251578 47.986803 3.282800
v 11.015259 47.244020 6.359663
v 0.000000 -48.000000 0.000000
v 8.696404 -46.575507 8.696404
v 10.564321 -46.846438 6.099314
v 10.564321 -46.846438 6.099314
v 8.696404 -46.575507 8.696404
v 16.700468 -41.579473 16.700468
v 20.297191 -42.931625 11.718589
v 20.297191 -42.931625 11.718589
v 16.700468 -41.579473 16.700468
v 24.461623 -33.841360 24.461623
v 28.788317 -34.124938 16.620942
v 28.788317 -34.124938 16.620942
v 24.461623 -33.841360 24.461623
v 29.263990 -24.631996 29.263990
v 35.152408 -23.422488 20.295252
v 35.152408 -23.422488 20.295252
v 29.263990 -24.631996 29.263990
v 33.567464 -12.580010 33.567464
v 39.605537 -12.174646 22.866267
v 39.605537 -12.174646 22.866267
v 33.567464 -12.580010 33.567464
v 34.396360 0.000000 34.396360
v 40.136740 0.000000 23.172957
v 40.136740 0.000000 23.172957
v 34.396360 0.000000 34.396360
v 33.544400 12.724234 33.544400
v 40.686618 12.788749 23.490430
v 40.686618 12.788749 23.490430
v 33.544400 12.724234 33.544400
v 28.833505 23.421848 28.833505
v 37.032121 24.143858 21.380505
v 37.032121 24.143858 21.380505
v 28.833505 23.421848 28.833505
v 23.667127 35.067952 23.667127
v 30.261929 33.014617 17.471733
v 30.261929 33.014617 17.471733
v 23.667127 35.067952 23.667127
v 17.338106 40.217528 17.338106
v 20.362521 42.906421 11.756307
v 20.362521 42.906421 11.756307
v 17.338106 40.217528 17.338106
v 8.716900 46.449212 8.716900
v 11.015259 47.244020 6.359663
v 0.000000 48.000000 0.000000
v 11.015259 47.244020 6.359663
v 8.716900 46.449212 8.716900
v 0.000000 -48.000000 0.000000
v 6.330326 -46.792678 10.964446
v 8.696404 -46.575507 8.696404
v 8.696404 -46.575507 8.696404
v 6.330326 -46.792678 10.964446
v 11.791639 -42.700657 20.423718
v 16.700468 -41.579473 16.700468
v 16.700468 -41.579473 16.700468
v 11.791639 -42.700657 20.423718
v 17.191655 -34.343937 29.776821
v 24.461623 -33.841360 24.461623
v 24.461623 -33.841360 24.461623
v 17.191655 -34.343937 29.776821
v 21.289742 -23.969549 36.874914
v 29.263990 -24.631996 29.263990
v 29.263990 -24.631996 29.263990
v 21.289742 -23.969549 36.874914
v 23.052539 -12.817026 39.928169
v 33.567464 -12.580010 33.567464
v 33.567464 -12.580010 33.567464
v 23.052539 -12.817026 39.928169
v 24.614352 0.000000 42.633307
v 34.396360 0.000000 34.396360
v 34.396360 0.000000 34.396360
v 24.614352 0.000000 42.633307
v 23.060830 12.269184 39.942529
v 33.544400 12.724234 33.544400
v 33.544400 12.724234 33.544400
v 23.060830 12.269184 39.942529
v 21.417314 24.102731 37.095876
v 28.833505 23.421848 28.833505
v 28.833505 23.421848 28.833505
v 21.417314 24.102731 37.095876
v 17.029233 34.708579 29.495497
v 23.667127 35.067952 23.667127
v 23.667127 35.067952 23.667127
v 17.029233 34.708579 29.495497
v 11.600239 42.780632 20.092203
v 17.338106 40.217528 17.338106
v 17.338106 40.217528 17.338106
v 11.600239 42.780632 20.092203
v 6.101859 45.124042 10.568729
v 8.716900 46.449212 8.716900
v 0.000000 48.000000 0.000000
v 8.716900 46.449212 8.716900
v 6.101859 45.124042 10.568729
v 0.000000 -48.000000 0.000000
v 3.203520 -44.859328 11.955700
v 6.330326 -46.792678 10.964446
v 6.330326 -46.792678 10.964446
v 3.203520 -44.859328 11.955700
v 6.184629 -41.047426 23.081350
v 11.791639 -42.700657 20.423718
v 11.791639 -42.700657 20.423718
v 6.184629 -41.047426 23.081350
v 9.053844 -33.952508 33.789404
v 17.191655 -34.343937 29.776821
v 17.191655 -34.343937 29.776821
v 9.053844 -33.952508 33.789404
v 10.754286 -23.570106 40.135542
v 21.289742 -23.969549 36.874914
v 21.289742 -23.969549 36.874914
v 10.754286 -23.570106 40.135542
v 11.982645 -12.635947 44.719840
v 23.052539 -12.817026 39.928169
v 23.052539 -12.817026 39.928169
v 11.982645 -12.635947 44.719840
v 12.523520 0.000000 46.738412
v 24.614352 0.000000 42.633307
v 24.614352 0.000000 42.633307
v 12.523520 0.000000 46.738412
v 12.193139 12.777048 45.505412
v 23.060830 12.269184 39.942529
v 23.060830 12.269184 39.942529
v 12.193139 12.777048 45.505412
v 10.500204 23.897144 39.187296
v 21.417314 24.102731 37.095876
v 21.417314 24.102731 37.095876
v 10.500204 23.897144 39.187296
v 8.553431 34.343934 31.921839
v 17.029233 34.708579 29.495497
v 17.029233 34.708579 29.495497
v 8.553431 34.343934 31.921839
v 6.027166 41.057295 22.493691
v 11.600239 42.780632 20.092203
v 11.600239 42.780632 20.092203
v 6.027166 41.057295 22.493691
v 3.311053 45.476430 12.357019
v 6.101859 45.124042 10.568729
v 0.000000 48.000000 0.000000
v 6.101859 45.124042 10.568729
v 3.311053 45.476430 12.357019
v 0.000000 -48.000000 0.000000
v 0.000000 -44.765753 12.444058
v 3.203520 -44.859328 11.955700
v 3.203520 -44.859328 11.955700
v 0.000000 -44.765753 12.444058
v 0.000000 -42.956001 23.253877
v 6.184629 -41.047426 23.081350
v 6.184629 -41.047426 23.081350
v 0.000000 -42.956001 23.253877
v 0.000000 -34.184903 35.046192
v 9.053844 -33.952508 33.789404
v 9.053844 -33.952508 33.789404
v 0.000000 -34.184903 35.046192
v 0.000000 -24.760045 42.106017
v 10.754286 -23.570106 40.135542
v 10.754286 -23.570106 40.135542
v 0.000000 -24.760045 42.106017
v 0.000000 -12.401347 46.863092
v 11.982645 -12.635947 44.719840
v 11.982645 -12.635947 44.719840
v 0.000000 -12.401347 46.863092
v 0.000000 0.000000 47.779280
v 12.523520 0.000000 46.738412
v 12.523520 0.000000 46.738412
v 0.000000 0.000000 47.779280
v 0.000000 12.108743 44.958357
v 12.193139 12.777048 45.505412
v 12.193139 12.777048 45.505412
v 0.000000 12.108743 44.958357
v 0.000000 23.908799 42.922399
v 10.500204 23.897144 39.187296
v 10.500204 23.897144 39.187296
v 0.000000 23.908799 42.922399
v 0.000000 34.014400 33.595710
v 8.553431 34.343934 31.921839
v 8.553431 34.343934 31.921839
v 0.000000 34.014400 33.595710
v 0.000000 41.903742 24.454952
v 6.027166 41.057295 22.493691
v 6.027166 41.057295 22.493691
v 0.000000 41.903742 24.454952
v 0.000000 45.815911 12.177272
v 3.311053 45.476430 12.357019
v 0.000000 48.000000 0.000000
v 3.311053 45.476430 12.357019
v 0.000000 45.815911 12.177272
v 0.000000 -48.000000 0.000000
v -3.289627 -47.901425 12.277055
v 0.000000 -44.765753 12.444058
v 0.000000 -44.765753 12.444058
v -3.289627 -47.901425 12.277055
v -6.290923 -42.451723 23.478043
v 0.000000 -42.956001 23.253877
v 0.000000 -42.956001 23.253877
v -6.290923 -42.451723 23.478043
v -8.897329 -35.124401 33.205285
v 0.000000 -34.184903 35.046192
v 0.000000 -34.184903 35.046192
v -8.897329 -35.124401 33.205285
v -10.509369 -23.911894 39.221498
v 0.000000 -24.760045 42.106017
v 0.000000 -24.760045 42.106017
v -10.509369 -23.911894 39.221498
v -11.715201 -12.851664 43.721727
v 0.000000 -12.401347 46.863092
v 0.000000 -12.401347 46.863092
v -11.715201 -12.851664 43.721727
v -12.722304 0.000000 47.480285
v 0.000000 0.000000 47.779280
v 0.000000 0.000000 47.779280
v -12.722304 0.000000 47.480285
v -11.928650 12.763545 44.518326
v 0.000000 12.108743 44.958357
v 0.000000 12.108743 44.958357
v -11.928650 12.763545 44.518326
v -11.080275 24.635535 41.352150
v 0.000000 23.908799 42.922399
v 0.000000 23.908799 42.922399
v -11.080275 24.635535 41.352150
v -8.572394 35.012148 31.992609
v 0.000000 34.014400 33.595710
v 0.000000 34.014400 33.595710
v -8.572394 35.012148 31.992609
v -6.225234 41.858846 23.232889
v 0.000000 41.903742 24.454952
v 0.000000 41.903742 24.454952
v -6.225234 41.858846 23.232889
v -3.283503 46.242708 12.254202
v 0.000000 45.815911 12.177272
v 0.000000 48.000000 0.000000
v 0.000000 45.815911 12.177272
v -3.283503 46.242708 12.254202
v 0.000000 -48.000000 0.000000
v -6.204369 -46.392962 10.746281
v -3.289627 -47.901425 12.277055
v -3.289627 -47.901425 12.277055
v -6.204369 -46.392962 10.746281
v -12.175235 -40.366400 21.088125
v -6.290923 -42.451723 23.478043
v -6.290923 -42.451723 23.478043
v -12.175235 -40.366400 21.088125
v -17.380528 -34.124455 30.103958
v -8.897329 -35.124401 33.205285
v -8.897329 -35.124401 33.205285
v -17.380528 -34.124455 30.103958
v -20.204124 -24.688857 34.994570
v -10.509369 -23.911894 39.221498
v -10.509369 -23.911894 39.221498
v -20.204124 -24.688857 34.994570
v -22.457905 -12.104048 38.898232
v -11.715201 -12.851664 43.721727
v -11.715201 -12.851664 43.721727
v -22.457905 -12.104048 38.898232
v -23.927306 0.000000 41.443309
v -12.722304 0.000000 47.480285
v -12.722304 0.000000 47.480285
v -23.927306 0.000000 41.443309
v -23.451704 12.183675 40.619544
v -11.928650 12.763545 44.518326
v -11.928650 12.763545 44.518326
v -23.451704 12.183675 40.619544
v -21.003246 23.526745 36.378690
v -11.080275 24.635535 41.352150
v -11.080275 24.635535 41.352150
v -21.003246 23.526745 36.378690
v -16.548739 34.663656 28.663256
v -8.572394 35.012148 31.992609
v -8.572394 35.012148 31.992609
v -16.548739 34.663656 28.663256
v -11.673411 42.774347 20.218942
v -6.225234 41.858846 23.232889
v -6.225234 41.858846 23.232889
v -11.673411 42.774347 20.218942
v -6.015943 47.766602 10.419919
v -3.283503 46.242708 12.254202
v 0.000000 48.000000 0.000000
v -3.283503 46.242708 12.254202
v -6.015943 47.766602 10.419919
v 0.000000 -48.000000 0.000000
v -8.592729 -46.897854 8.592729
v -6.204369 -46.392962 10.746281
v -6.204369 -46.392962 10.746281
v -8.592729 -46.897854 8.592729
v -17.481757 -40.216291 17.481757
v -12.175235 -40.366400 21.088125
v -12.175235 -40.366400 21.088125
v -17.481757 -40.216291 17.481757
v -24.651356 -33.988415 24.651356
v -17.380528 -34.124455 30.103958
v -17.380528 -34.124455 30.103958
v -24.651356 -33.988415 24.651356
v -29.332615 -23.492988 29.332615
v -20.204124 -24.688857 34.994570
v -20.204124 -24.688857 34.994570
v -29.332615 -23.492988 29.332615
v -32.806661 -12.250765 32.806661
v -22.457905 -12.104048 38.898232
v -22.457905 -12.104048 38.898232
v -32.806661 -12.250765 32.806661
v -34.503790 0.000000 34.503790
v -23.927306 0.000000 41.443309
v -23.927306 0.000000 41.443309
v -34.503790 0.000000 34.503790
v -33.618459 12.809083 33.618459
v -23.451704 12.183675 40.619544
v -23.451704 12.183675 40.619544
v -33.618459 12.809083 33.618459
v -29.528299 23.171478 29.528299
v -21.003246 23.526745 36.378690
v -21.003246 23.526745 36.378690
v -29.528299 23.171478 29.528299
v -23.926684 33.474017 23.926684
v -16.548739 34.663656 28.663256
v -16.548739 34.663656 28.663256
v -23.926684 33.474017 23.926684
v -17.538811 42.442434 17.538811
v -11.673411 42.774347 20.218942
v -11.673411 42.774347 20.218942
v -17.538811 42.442434 17.538811
v -8.691208 44.876770 8.691208
v -6.015943 47.766602 10.419919
v 0.000000 48.000000 0.000000
v -6.015943 47.766602 10.419919
v -8.691208 44.876770 8.691208
v 0.000000 -48.000000 0.000000
v -11.112908 -47.338445 6.416041
v -8.592729 -46.897854 8.592729
v -8.592729 -46.897854 8.592729
v -11.112908 -47.338445 6.416041
v -20.566000 -42.325732 11.873786
v -17.481757 -40.216291 17.481757
v -17.481757 -40.216291 17.481757
v -20.566000 -42.325732 11.873786
v -28.394517 -34.156953 16.393582
v -24.651356 -33.988415 24.651356
v -24.651356 -33.988415 24.651356
v -28.394517 -34.156953 16.393582
v -36.944698 -23.830431 21.330031
v -29.332615 -23.492988 29.332615
v -29.332615 -23.492988 29.332615
v -36.944698 -23.830431 21.330031
v -41.383883 -12.373296 23.892996
v -32.806661 -12.250765 32.806661
v -32.806661 -12.250765 32.806661
v -41.383883 -12.373296 23.892996
v -40.444710 0.000000 23.350764
v -34.503790 0.000000 34.503790
v -34.503790 0.000000 34.503790
v -40.444710 0.000000 23.350764
v -39.333522 12.154712 22.709219
v -33.618459 12.809083 33.618459
v -33.618459 12.809083 33.618459
v -39.333522 12.154712 22.709219
v -36.827575 24.754298 21.262410
v -29.528299 23.171478 29.528299
v -29.528299 23.171478 29.528299
v -36.827575 24.754298 21.262410
v -28.804346 34.990425 16.630197
v -23.926684 33.474017 23.926684
v -23.926684 33.474017 23.926684
v -28.804346 34.990425 16.630197
v -21.116833 40.833042 12.191809
v -17.538811 42.442434 17.538811
v -17.538811 42.442434 17.538811
v -21.116833 40.833042 12.191809
v -10.825083 46.257398 6.249865
v -8.691208 44.876770 8.691208
v 0.000000 48.000000 0.000000
v -8.691208 44.876770 8.691208
v -10.825083 46.257398 6.249865
v 0.000000 -48.000000 0.000000
v -11.983502 -45.914950 3.210970
v -11.112908 -47.338445 6.416041
v -11.112908 -47.338445 6.416041
v -11.983502 -45.914950 3.210970
v -23.735665 -40.259587 6.359952
v -20.566000 -42.325732 11.873786
v -20.566000 -42.325732 11.873786
v -23.735665 -40.259587 6.359952
v -32.279229 -34.623472 8.649193
v -28.394517 -34.156953 16.393582
v -28.394517 -34.156953 16.393582
v -32.279229 -34.623472 8.649193
v -39.333918 -23.787595 10.539492
v -36.944698 -23.830431 21.330031
v -36.944698 -23.830431 21.330031
v -39.333918 -23.787595 10.539492
v -45.940727 -12.091447 12.309781
v -41.383883 -12.373296 23.892996
v -41.383883 -12.373296 23.892996
v -45.940727 -12.091447 12.309781
v -45.206497 0.000000 12.113044
v -40.444710 0.000000 23.350764
v -40.444710 0.000000 23.350764
v -45.206497 0.000000 12.113044
v -45.557671 12.561427 12.207141
v -39.333522 12.154712 22.709219
v -39.333522 12.154712 22.709219
v -45.557671 12.561427 12.207141
v -39.973307 24.797779 10.710815
v -36.827575 24.754298 21.262410
v -36.827575 24.754298 21.262410
v -39.973307 24.797779 10.710815
v -32.659919 34.106994 8.751199
v -28.804346 34.990425 16.630197
v -28.804346 34.990425 16.630197
v -32.659919 34.106994 8.751199
v -23.001112 42.973059 6.163129
v -21.116833 40.833042 12.191809
v -21.116833 40.833042 12.191809
v -23.001112 42.973059 6.163129
v -12.130098 46.854994 3.250250
v -10.825083 46.257398 6.249865
v 0.000000 48.000000 0.000000
v -10.825083 46.257398 6.249865
v -12.130098 46.854994 3.250250
v 0.000000 -48.000000 0.000000
v -12.855707 -47.603643 0.000000
v -11.983502 -45.914950 3.210970
v -11.983502 -45.914950 3.210970
v -12.855707 -47.603643 0.000000
v -23.851683 -42.905350 0.000000
v -23.735665 -40.259587 6.359952
v -23.735665 -40.259587 6.359952
v -23.851683 -42.905350 0.000000
v -33.119751 -34.239057 0.000000
v -32.279229 -34.623472 8.649193
v -32.279229 -34.623472 8.649193
v -33.119751 -34.239057 0.000000
v -42.192695 -24.098259 0.000000
v -39.333918 -23.787595 10.539492
v -39.333918 -23.787595 10.539492
v -42.192695 -24.098259 0.000000
v -47.971071 -12.668974 0.000000
v -45.940727 -12.091447 12.309781
v -45.940727 -12.091447 12.309781
v -47.971071 -12.668974 0.000000
v -48.447778 0.000000 0.000000
v -45.206497 0.000000 12.113044
v -45.206497 0.000000 12.113044
v -48.447778 0.000000 0.000000
v -44.919138 12.112543 0.000000
v -45.557671 12.561427 12.207141
v -45.557671 12.561427 12.207141
v -44.919138 12.112543 0.000000
v -40.586015 24.433742 0.000000
v -39.973307 24.797779 10.710815
v -39.973307 24.797779 10.710815
v -40.586015 24.433742 0.000000
v -33.373606 34.235541 0.000000
v -32.659919 34.106994 8.751199
v -32.659919 34.106994 8.751199
v -33.373606 34.235541 0.000000
v -23.726840 40.621180 0.000000
v -23.001112 42.973059 6.163129
v -23.001112 42.973059 6.163129
v -23.726840 40.621180 0.000000
v -12.114060 46.092964 0.000000
v -12.130098 46.854994 3.250250
v 0.000000 48.000000 0.000000
v -12.130098 46.854994 3.250250
v -12.114060 46.092964 0.000000
v 0.000000 -48.000000 0.000000
v -11.650234 -45.622810 -3.121671
v -12.855707 -47.603643 0.000000
v -12.855707 -47.603643 0.000000
v -11.650234 -45.622810 -3.121671
v -23.177451 -41.653605 -6.210379
v -23.851683 -42.905350 0.000000
v -23.851683 -42.905350 0.000000
v -23.177451 -41.653605 -6.210379
v -31.793839 -33.165315 -8.519134
v -33.119751 -34.239057 0.000000
v -33.119751 -34.239057 0.000000
v -31.793839 -33.165315 -8.519134
v -40.271326 -24.783152 -10.790669
v -42.192695 -24.098259 0.000000
v -42.192695 -24.098259 0.000000
v -40.271326 -24.783152 -10.790669
v -46.161029 -12.554807 -12.368810
v -47.971071 -12.668974 0.000000
v -47.971071 -12.668974 0.000000
v -46.161029 -12.554807 -12.368810
v -44.899459 0.000000 -12.030774
v -48.447778 0.000000 0.000000
v -48.447778 0.000000 0.000000
v -44.899459 0.000000 -12.030774
v -44.895355 12.784292 -12.029674
v -44.919138 12.112543 0.000000
v -44.919138 12.112543 0.000000
v -44.895355 12.784292 -12.029674
v -40.129175 23.899829 -10.752580
v -40.586015 24.433742 0.000000
v -40.586015 24.433742 0.000000
v -40.129175 23.899829 -10.752580
v -33.674361 33.829077 -9.023018
v -33.373606 34.235541 0.000000
v -33.373606 34.235541 0.000000
v -33.674361 33.829077 -9.023018
v -23.652456 41.929270 -6.337656
v -23.726840 40.621180 0.000000
v -23.726840 40.621180 0.000000
v -23.652456 41.929270 -6.337656
v -11.677725 46.124749 -3.129037
v -12.114060 46.092964 0.000000
v 0.000000 48.000000 0.000000
v -12.114060 46.092964 0.000000
v -11.677725 46.124749 -3.129037
v 0.000000 -48.000000 0.000000
v -10.711658 -47.217770 -6.184378
v -11.650234 -45.622810 -3.121671
v -11.650234 -45.622810 -3.121671
v -10.711658 -47.217770 -6.184378
v -20.666802 -41.663924 -11.931984
v -23.177451 -41.653605 -6.210379
v -23.177451 -41.653605 -6.210379
v -20.666802 -41.663924 -11.931984
v -28.770422 -33.752626 -16.610611
v -31.793839 -33.165315 -8.519134
v -31.793839 -33.165315 -8.519134
v -28.770422 -33.752626 -16.610611
v -35.125499 -24.569961 -20.279717
v -40.271326 -24.783152 -10.790669
v -40.271326 -24.783152 -10.790669
v -35.125499 -24.569961 -20.279717
v -40.653088 -12.330291 -23.471071
v -46.161029 -12.554807 -12.368810
v -46.161029 -12.554807 -12.368810
v -40.653088 -12.330291 -23.471071
v -40.526888 0.000000 -23.398210
v -44.899459 0.000000 -12.030774
v -44.899459 0.000000 -12.030774
v -40.526888 0.000000 -23.398210
v -40.607996 12.612848 -23.445038
v -44.895355 12.784292 -12.029674
v -44.895355 12.784292 -12.029674
v -40.607996 12.612848 -23.445038
v -36.361448 23.967807 -20.993292
v -40.129175 23.899829 -10.752580
v -40.129175 23.899829 -10.752580
v -36.361448 23.967807 -20.993292
v -29.282341 33.510917 -16.906167
v -33.674361 33.829077 -9.023018
v -33.674361 33.829077 -9.023018
v -29.282341 33.510917 -16.906167
v -21.233978 42.715593 -12.259443
v -23.652456 41.929270 -6.337656
v -23.652456 41.929270 -6.337656
v -21.233978 42.715593 -12.259443
v -10.774878 47.449904 -6.220879
v -11.677725 46.124749 -3.129037
v 0.000000 48.000000 0.000000
v -11.677725 46.124749 -3.129037
v -10.774878 47.449904 -6.220879
v 0.000000 -48.000000 0.000000
v -8.583564 -46.530641 -8.583564
v -10.711658 -47.217770 -6.184378
v -10.711658 -47.217770 -6.184378
v -8.583564 -46.530641 -8.583564
v -17.144099 -40.835784 -17.144099
v -20.666802 -41.663924 -11.931984
v -20.666802 -41.663924 -11.931984
v -17.144099 -40.835784 -17.144099
v -24.179397 -32.907441 -24.179397
v -28.770422 -33.752626 -16.610611
v -28.770422 -33.752626 -16.610611
v -24.179397 -32.907441 -24.179397
v -29.908527 -24.287675 -29.908527
v -35.125499 -24.569961 -20.279717
v -35.125499 -24.569961 -20.279717
v -29.908527 -24.287675 -29.908527
v -32.484816 -12.156834 -32.484816
v -40.653088 -12.330291 -23.471071
v -40.653088 -12.330291 -23.471071
v -32.484816 -12.156834 -32.484816
v -34.956701 0.000000 -34.956701
v -40.526888 0.000000 -23.398210
v -40.526888 0.000000 -23.398210
v -34.956701 0.000000 -34.956701
v -32.236654 12.666714 -32.236654
v -40.607996 12.612848 -23.445038
v -40.607996 12.612848 -23.445038
v -32.236654 12.666714 -32.236654
v -29.916179 24.640271 -29.916179
v -36.361448 23.967807 -20.993292
v -36.361448 23.967807 -20.993292
v -29.916179 24.640271 -29.916179
v -24.739993 34.346481 -24.739993
v -29.282341 33.510917 -16.906167
v -29.282341 33.510917 -16.906167
v -24.739993 34.346481 -24.739993
v -17.219565 42.585562 -17.219565
v -21.233978 42.715593 -12.259443
v -21.233978 42.715593 -12.259443
v -17.219565 42.585562 -17.219565
v -8.566611 47.318021 -8.566611
v -10.774878 47.449904 -6.220879
v 0.000000 48.000000 0.000000
v -10.774878 47.449904 -6.220879
v -8.566611 47.318021 -8.566611
v 0.000000 -48.000000 0.000000
v -6.251067 -45.039400 -10.827166
v -8.583564 -46.530641 -8.583564
v -8.583564 -46.530641 -8.583564
v -6.251067 -45.039400 -10.827166
v -11.695105 -41.526882 -20.256516
v -17.144099 -40.835784 -17.144099
v -17.144099 -40.835784 -17.144099
v -11.695105 -41.526882 -20.256516
v -17.540702 -34.444599 -30.381387
v -24.179397 -32.907441 -24.179397
v -24.179397 -32.907441 -24.179397
v -17.540702 -34.444599 -30.381387
v -20.361168 -23.770682 -35.266577
v -29.908527 -24.287675 -29.908527
v -29.908527 -24.287675 -29.908527
v -20.361168 -23.770682 -35.266577
v -22.608495 -12.521659 -39.159063
v -32.484816 -12.156834 -32.484816
v -32.484816 -12.156834 -32.484816
v -22.608495 -12.521659 -39.159063
v -23.261243 0.000000 -40.289655
v -34.956701 0.000000 -34.956701
v -34.956701 0.000000 -34.956701
v -23.261243 0.000000 -40.289655
v -23.135655 12.794453 -40.072131
v -32.236654 12.666714 -32.236654
v -32.236654 12.666714 -32.236654
v -23.135655 12.794453 -40.072131
v -20.262378 24.530957 -35.095468
v -29.916179 24.640271 -29.916179
v -29.916179 24.640271 -29.916179
v -20.262378 24.530957 -35.095468
v -16.666880 32.948975 -28.867883
v -24.739993 34.346481 -24.739993
v -24.739993 34.346481 -24.739993
v -16.666880 32.948975 -28.867883
v -12.269800 42.991885 -21.251918
v -17.219565 42.585562 -17.219565
v -17.219565 42.585562 -17.219565
v -12.269800 42.991885 -21.251918
v -6.022728 45.953299 -10.431671
v -8.566611 47.318021 -8.566611
v 0.000000 48.000000 0.000000
v -8.566611 47.318021 -8.566611
v -6.022728 45.953299 -10.431671
v 0.000000 -48.000000 0.000000
v -3.206259 -45.758100 -11.965921
v -6.251067 -45.039400 -10.827166
v -6.251067 -45.039400 -10.827166
v -3.206259 -45.758100 -11.965921
v -6.382608 -40.913644 -23.820219
v -11.695105 -41.526882 -20.256516
v -11.695105 -41.526882 -20.256516
v -6.382608 -40.913644 -23.820219
v -8.713044 -32.889805 -32.517523
v -17.540702 -34.444599 -30.381387
v -17.540702 -34.444599 -30.381387
v -8.713044 -32.889805 -32.517523
v -10.652697 -24.779889 -39.756408
v -20.361168 -23.770682 -35.266577
v -20.361168 -23.770682 -35.266577
v -10.652697 -24.779889 -39.756408
v -12.085304 -12.230877 -45.102970
v -22.608495 -12.521659 -39.159063
v -22.608495 -12.521659 -39.159063
v -12.085304 -12.230877 -45.102970
v -12.010382 0.000000 -44.823357
v -23.261243 0.000000 -40.289655
v -23.261243 0.000000 -40.289655
v -12.010382 0.000000 -44.823357
v -11.972900 12.589466 -44.683470
v -23.135655 12.794453 -40.072131
v -23.135655 12.794453 -40.072131
v -11.972900 12.589466 -44.683470
v -10.938034 23.246188 -40.821300
v -20.262378 24.530957 -35.095468
v -20.262378 24.530957 -35.095468
v -10.938034 23.246188 -40.821300
v -8.514874 35.094068 -31.777941
v -16.666880 32.948975 -28.867883
v -16.666880 32.948975 -28.867883
v -8.514874 35.094068 -31.777941
v -6.129874 42.116461 -22.877002
v -12.269800 42.991885 -21.251918
v -12.269800 42.991885 -21.251918
v -6.129874 42.116461 -22.877002
v -3.162352 45.042839 -11.802058
v -6.022728 45.953299 -10.431671
v 0.000000 48.000000 0.000000
v -6.022728 45.953299 -10.431671
v -3.162352 45.042839 -11.802058
v 0.000000 -48.000000 0.000000
v -0.000000 -45.523861 -12.782554
v -3.206259 -45.758100 -11.965921
v -3.206259 -45.758100 -11.965921
v -0.000000 -45.523861 -12.782554
v -0.000000 -42.171927 -24.384593
v -6.382608 -40.913644 -23.820219
v -6.382608 -40.913644 -23.820219
v -0.000000 -42.171927 -24.384593
v -0.000000 -33.278818 -34.887830
v -8.713044 -32.889805 -32.517523
v -8.713044 -32.889805 -32.517523
v -0.000000 -33.278818 -34.887830
v -0.000000 -24.027853 -41.749115
v -10.652697 -24.779889 -39.756408
v -10.652697 -24.779889 -39.756408
v -0.000000 -24.027853 -41.749115
v -0.000000 -12.687807 -45.322245
v -12.085304 -12.230877 -45.102970
v -12.085304 -12.230877 -45.102970
v -0.000000 -12.687807 -45.322245
v -0.000000 0.000000 -47.552267
v -12.010382 0.000000 -44.823357
v -12.010382 0.000000 -44.823357
v -0.000000 0.000000 -47.552267
v -0.000000 12.345666 -46.737371
v -11.972900 12.589466 -44.683470
v -11.972900 12.589466 -44.683470
v -0.000000 12.345666 -46.737371
v -0.000000 24.020534 -40.920677
v -10.938034 23.246188 -40.821300
v -10.938034 23.246188 -40.821300
v -0.000000 24.020534 -40.920677
v -0.000000 34.518579 -34.924068
v -8.514874 35.094068 -31.777941
v -8.514874 35.094068 -31.777941
v -0.000000 34.518579 -34.924068
v -0.000000 42.645582 -23.691243
v -6.129874 42.116461 -22.877002
v -6.129874 42.116461 -22.877002
v -0.000000 42.645582 -23.691243
v -0.000000 45.572001 -12.723053
v -3.162352 45.042839 -11.802058
v 0.000000 48.000000 0.000000
v -3.162352 45.042839 -11.802058
v -0.000000 45.572001 -12.723053
v 0.000000 -48.000000 0.000000
v 3.302457 -45.562956 -12.324936
v -0.000000 -45.523861 -12.782554
v -0.000000 -45.523861 -12.782554
v 3.302457 -45.562956 -12.324936
v 6.109719 -40.487108 -22.801780
v -0.000000 -42.171927 -24.384593
v -0.000000 -42.171927 -24.384593
v 6.109719 -40.487108 -22.801780
v 8.791403 -34.052628 -32.809963
v -0.000000 -33.278818 -34.887830
v -0.000000 -33.278818 -34.887830
v 8.791403 -34.052628 -32.809963
v 10.792387 -23.307689 -40.277736
v -0.000000 -24.027853 -41.749115
v -0.000000 -24.027853 -41.749115
v 10.792387 -23.307689 -40.277736
v 12.275256 -12.413236 -45.811880
v -0.000000 -12.687807 -45.322245
v -0.000000 -12.687807 -45.322245
v 12.275256 -12.413236 -45.811880
v 12.600831 0.000000 -47.026941
v -0.000000 0.000000 -47.552267
v -0.000000 0.000000 -47.552267
v 12.600831 0.000000 -47.026941
v 11.721647 12.208335 -43.745781
v -0.000000 12.345666 -46.737371
v -0.000000 12.345666 -46.737371
v 11.721647 12.208335 -43.745781
v 10.408298 23.548999 -38.844299
v -0.000000 24.020534 -40.920677
v -0.000000 24.020534 -40.920677
v 10.408298 23.548999 -38.844299
v 8.748076 33.939580 -32.648263
v -0.000000 34.518579 -34.924068
v -0.000000 34.518579 -34.924068
v 8.748076 33.939580 -32.648263
v 6.230956 40.186490 -23.254246
v -0.000000 42.645582 -23.691243
v -0.000000 42.645582 -23.691243
v 6.230956 40.186490 -23.254246
v 3.281778 45.831061 -12.247763
v -0.000000 45.572001 -12.723053
v 0.000000 48.000000 0.000000
v -0.000000 45.572001 -12.723053
v 3.281778 45.831061 -12.247763
v 0.000000 -48.000000 0.000000
v 6.159730 -47.636477 -10.668966
v 3.302457 -45.562956 -12.324936
v 3.302457 -45.562956 -12.324936
v 6.159730 -47.636477 -10.668966
v 12.221895 -40.127394 -21.168944
v 6.109719 -40.487108 -22.801780
v 6.109719 -40.487108 -22.801780
v 12.221895 -40.127394 -21.168944
v 16.586321 -34.314871 -28.728351
v 8.791403 -34.052628 -32.809963
v 8.791403 -34.052628 -32.809963
v 16.586321 -34.314871 -28.728351
v 20.341630 -24.039718 -35.232737
v 10.792387 -23.307689 -40.277736
v 10.792387 -23.307689 -40.277736
v 20.341630 -24.039718 -35.232737
v 23.780182 -12.305258 -41.188484
v 12.275256 -12.413236 -45.811880
v 12.275256 -12.413236 -45.811880
v 23.780182 -12.305258 -41.188484
v 23.751405 0.000000 -41.138640
v 12.600831 0.000000 -47.026941
v 12.600831 0.000000 -47.026941
v 23.751405 0.000000 -41.138640
v 22.779747 12.039258 -39.455680
v 11.721647 12.208335 -43.745781
v 11.721647 12.208335 -43.745781
v 22.779747 12.039258 -39.455680
v 20.424781 24.347643 -35.376758
v 10.408298 23.548999 -38.844299
v 10.408298 23.548999 -38.844299
v 20.424781 24.347643 -35.376758
v 17.101464 34.883838 -29.620605
v 8.748076 33.939580 -32.648263
v 8.748076 33.939580 -32.648263
v 17.101464 34.883838 -29.620605
v 11.840017 40.205678 -20.507512
v 6.230956 40.186490 -23.254246
v 6.230956 40.186490 -23.254246
v 11.840017 40.205678 -20.507512
v 6.135551 45.746697 -10.627085
v 3.281778 45.831061 -12.247763
v 0.000000 48.000000 0.000000
v 3.281778 45.831061 -12.247763
v 6.135551 45.746697 -10.627085
v 0.000000 -48.000000 0.000000
v 8.924455 -46.962116 -8.924455
v 6.159730 -47.636477 -10.668966
v 6.159730 -47.636477 -10.668966
v 8.924455 -46.962116 -8.924455
v 17.011618 -42.769407 -17.011618
v 12.221895 -40.127394 -21.168944
v 12.221895 -40.127394 -21.168944
v 17.011618 -42.769407 -17.011618
v 23.314549 -33.561187 -23.314549
v 16.586321 -34.314871 -28.728351
v 16.586321 -34.314871 -28.728351
v 23.314549 -33.561187 -23.314549
v 29.114065 -23.571701 -29.114065
v 20.341630 -24.039718 -35.232737
v 20.341630 -24.039718 -35.232737
v 29.114065 -23.571701 -29.114065
v 33.189570 -12.328380 -33.189570
v 23.780182 -12.305258 -41.188484
v 23.780182 -12.305258 -41.188484
v 33.189570 -12.328380 -33.189570
v 34.221138 0.000000 -34.221138
v 23.751405 0.000000 -41.138640
v 23.751405 0.000000 -41.138640
v 34.221138 0.000000 -34.221138
v 33.924034 12.000703 -33.924034
v 22.779747 12.039258 -39.455680
v 22.779747 12.039258 -39.455680
v 33.924034 12.000703 -33.924034
v 30.244407 23.583091 -30.244407
v 20.424781 24.347643 -35.376758
v 20.424781 24.347643 -35.376758
v 30.244407 23.583091 -30.244407
v 23.764813 34.631335 -23.764813
v 17.101464 34.883838 -29.620605
v 17.101464 34.883838 -29.620605
v 23.764813 34.631335 -23.764813
v 17.163052 42.917032 -17.163052
v 11.840017 40.205678 -20.507512
v 11.840017 40.205678 -20.507512
v 17.163052 42.917032 -17.163052
v 8.502990 46.055040 -8.502990
v 6.135551 45.746697 -10.627085
v 0.000000 48.000000 0.000000
v 6.135551 45.746697 -10.627085
v 8.502990 46.055040 -8.502990
v 0.000000 -48.000000 0.000000
v 10.885071 -46.844941 -6.284499
v 8.924455 -46.962116 -8.924455
v 8.924455 -46.962116 -8.924455
v 10.885071 -46.844941 -6.284499
v 21.289025 -40.569411 -12.291224
v 17.011618 -42.769407 -17.011618
v 17.011618 -42.769407 -17.011618
v 21.289025 -40.569411 -12.291224
v 30.208873 -33.318505 -17.441101
v 23.314549 -33.561187 -23.314549
v 23.314549 -33.561187 -23.314549
v 30.208873 -33.318505 -17.441101
v 34.838792 -23.240281 -20.114186
v 29.114065 -23.571701 -29.114065
v 29.114065 -23.571701 -29.114065
v 34.838792 -23.240281 -20.114186
v 40.758361 -12.727336 -23.531851
v 33.189570 -12.328380 -33.189570
v 33.189570 -12.328380 -33.189570
v 40.758361 -12.727336 -23.531851
v 42.986305 0.000000 -24.818155
v 34.221138 0.000000 -34.221138
v 34.221138 0.000000 -34.221138
v 42.986305 0.000000 -24.818155
v 40.083430 12.634866 -23.142179
v 33.924034 12.000703 -33.924034
v 33.924034 12.000703 -33.924034
v 40.083430 12.634866 -23.142179
v 37.048187 23.213704 -21.389781
v 30.244407 23.583091 -30.244407
v 30.244407 23.583091 -30.244407
v 37.048187 23.213704 -21.389781
v 30.179355 32.772430 -17.424059
v 23.764813 34.631335 -23.764813
v 23.764813 34.631335 -23.764813
v 30.179355 32.772430 -17.424059
v 20.604519 40.743568 -11.896024
v 17.163052 42.917032 -17.163052
v 17.163052 42.917032 -17.163052
v 20.604519 40.743568 -11.896024
v 11.100041 45.354734 -6.408612
v 8.502990 46.055040 -8.502990
v 0.000000 48.000000 0.000000
v 8.502990 46.055040 -8.502990
v 11.100041 45.354734 -6.408612
v 0.000000 -48.000000 0.000000
v 12.042027 -45.077227 -3.226651
v 10.885071 -46.844941 -6.284499
v 10.885071 -46.844941 -6.284499
v 12.042027 -45.077227 -3.226651
v 23.926362 -41.018084 -6.411049
v 21.289025 -40.569411 -12.291224
v 21.289025 -40.569411 -12.291224
v 23.926362 -41.018084 -6.411049
v 33.323998 -33.622475 -8.929138
v 30.208873 -33.318505 -17.441101
v 30.208873 -33.318505 -17.441101
v 33.323998 -33.622475 -8.929138
v 39.956448 -24.587507 -10.706298
v 34.838792 -23.240281 -20.114186
v 34.838792 -23.240281 -20.114186
v 39.956448 -24.587507 -10.706298
v 44.536429 -12.816230 -11.933500
v 40.758361 -12.727336 -23.531851
v 40.758361 -12.727336 -23.531851
v 44.536429 -12.816230 -11.933500
v 45.212549 0.000000 -12.114666
v 42.986305 0.000000 -24.818155
v 42.986305 0.000000 -24.818155
v 45.212549 0.000000 -12.114666
v 44.323742 12.416619 -11.876511
v 40.083430 12.634866 -23.142179
v 40.083430 12.634866 -23.142179
v 44.323742 12.416619 -11.876511
v 40.142997 23.327501 -10.756283
v 37.048187 23.213704 -21.389781
v 37.048187 23.213704 -21.389781
v 40.142997 23.327501 -10.756283
v 32.977332 33.407931 -8.836250
v 30.179355 32.772430 -17.424059
v 30.179355 32.772430 -17.424059
v 32.977332 33.407931 -8.836250
v 23.625762 40.956395 -6.330504
v 20.604519 40.743568 -11.896024
v 20.604519 40.743568 -11.896024
v 23.625762 40.956395 -6.330504
v 11.877278 46.796057 -3.182507
v 11.100041 45.354734 -6.408612
v 0.000000 48.000000 0.000000
v 11.100041 45.354734 -6.408612
v 11.877278 46.796057 -3.182507
v 0.000000 -48.000000 0.000000
v 12.320892 -47.268905 0.000000
v 12.042027 -45.077227 -3.226651
v 12.042027 -45.077227 -3.226651
v 12.320892 -47.268905 0.000000
v 24.528795 -41.893618 0.000000
v 23.926362 -41.018084 -6.411049
v 23.926362 -41.018084 -6.411049
v 24.528795 -41.893618 0.000000
v 34.806403 -34.887190 0.000000
v 33.323998 -33.622475 -8.929138
v 33.323998 -33.622475 -8.929138
v 34.806403 -34.887190 0.000000
v 41.527154 -24.073121 0.000000
v 39.956448 -24.587507 -10.706298
v 39.956448 -24.587507 -10.706298
v 41.527154 -24.073121 0.000000
v 46.940783 -12.546240 0.000000
v 44.536429 -12.816230 -11.933500
v 44.536429 -12.816230 -11.933500
v 46.940783 -12.546240 0.000000
v 48.327392 0.000000 0.000000
v 45.212549 0.000000 -12.114666
v 45.212549 0.000000 -12.114666
v 48.327392 0.000000 0.000000
v 46.040964 12.827682 0.000000
v 44.323742 12.416619 -11.876511
v 44.323742 12.416619 -11.876511
v 46.040964 12.827682 0.000000
v 42.613106 24.637871 0.000000
v 40.142997 23.327501 -10.756283
v 40.142997 23.327501 -10.756283
v 42.613106 24.637871 0.000000
v 33.338414 33.862831 0.000000
v 32.977332 33.407931 -8.836250
v 32.977332 33.407931 -8.836250
v 33.338414 33.862831 0.000000
v 24.565803 42.968273 0.000000
v 23.625762 40.956395 -6.330504
v 23.625762 40.956395 -6.330504
v 24.565803 42.968273 0.000000
v 12.550547 46.139388 0.000000
v 11.877278 46.796057 -3.182507
v 0.000000 48.000000 0.000000
v 11.877278 46.796057 -3.182507
v 12.550547 46.139388 0.000000
vt 0.500000 0.000000
vt 0.541667 0.049510
vt 0.500000 0.055627
vt 0.500000 0.055627
vt 0.541667 0.049510
vt 0.541667 0.180739
vt 0.500000 0.162312
vt 0.500000 0.162312
vt 0.541667 0.180739
vt 0.541667 0.247929
vt 0.500000 0.240999
vt 0.500000 0.240999
vt 0.541667 0.247929
vt 0.541667 0.327003
vt 0.500000 0.332773
vt 0.500000 0.332773
vt 0.541667 0.327003
vt 0.541667 0.413950
vt 0.500000 0.415822
vt 0.500000 0.415822
vt 0.541667 0.413950
vt 0.541667 0.500000
vt 0.500000 0.500000
vt 0.500000 0.500000
vt 0.541667 0.500000
vt 0.541667 0.581215
vt 0.500000 0.586113
vt 0.500000 0.586113
vt 0.541667 0.581215
vt 0.541667 0.660639
vt 0.500000 0.671573
vt 0.500000 0.671573
vt 0.541667 0.660639
vt 0.541667 0.751091
vt 0.500000 0.749267
vt 0.500000 0.749267
vt 0.541667 0.751091
vt 0.541667 0.851259
vt 0.500000 0.852948
vt 0.500000 0.852948
vt 0.541667 0.851259
vt 0.541667 0.992536
vt 0.500000 0.911083
vt 0.500000 1.000000
vt 0.500000 0.911083
vt 0.541667 0.992536
vt 0.500000 0.000000
vt 0.583333 0.069926
vt 0.541667 0.049510
vt 0.541667 0.049510
vt 0.583333 0.069926
vt 0.583333 0.147597
vt 0.541667 0.180739
vt 0.541667 0.180739
vt 0.583333 0.147597
vt 0.583333 0.248271
vt 0.541667 0.247929
vt 0.541667 0.247929
vt 0.583333 0.248271
vt 0.583333 0.337738
vt 0.541667 0.327003
vt 0.541667 0.327003
vt 0.583333 0.337738
vt 0.583333 0.418373
vt 0.541667 0.413950
vt 0.541667 0.413950
vt 0.583333 0.418373
vt 0.583333 0.500000
vt 0.541667 0.500000
vt 0.541667 0.500000
vt 0.583333 0.500000
vt 0.583333 0.585845
vt 0.541667 0.581215
vt 0.541667 0.581215
vt 0.583333 0.585845
vt 0.583333 0.667769
vt 0.541667 0.660639
vt 0.541667 0.660639
vt 0.583333 0.667769
vt 0.583333 0.741425
vt 0.541667 0.751091
vt 0.541667 0.751091
vt 0.583333 0.741425
vt 0.583333 0.852030
vt 0.541667 0.851259
vt 0.541667 0.851259
vt 0.583333 0.852030
vt 0.583333 0.943432
vt 0.541667 0.992536
vt 0.500000 1.000000
vt 0.541667 0.992536
vt 0.583333 0.943432
vt 0.500000 0.000000
vt 0.625000 0.077742
vt 0.583333 0.069926
vt 0.583333 0.069926
vt 0.625000 0.077742
vt 0.625000 0.166531
vt 0.583333 0.147597
vt 0.583333 0.147597
vt 0.625000 0.166531
vt 0.625000 0.250934
vt 0.583333 0.248271
vt 0.583333 0.248271
vt 0.625000 0.250934
vt 0.625000 0.328472
vt 0.583333 0.337738
vt 0.583333 0.337738
vt 0.625000 0.328472
vt 0.625000 0.415590
vt 0.583333 0.418373
vt 0.583333 0.418373
vt 0.625000 0.415590
vt 0.625000 0.500000
vt 0.583333 0.500000
vt 0.583333 0.500000
vt 0.625000 0.500000
vt 0.625000 0.585401
vt 0.583333 0.585845
vt 0.583333 0.585845
vt 0.625000 0.585401
vt 0.625000 0.662257
vt 0.583333 0.667769
vt 0.583333 0.667769
vt 0.625000 0.662257
vt 0.625000 0.760751
vt 0.583333 0.741425
vt 0.583333 0.741425
vt 0.625000 0.760751
vt 0.625000 0.816196
vt 0.583333 0.852030
vt 0.583333 0.852030
vt 0.625000 0.816196
vt 0.625000 0.918867
vt 0.583333 0.943432
vt 0.500000 1.000000
vt 0.583333 0.943432
vt 0.625000 0.918867
vt 0.500000 0.000000
vt 0.666667 0.071544
vt 0.625000 0.077742
vt 0.625000 0.077742
vt 0.666667 0.071544
vt 0.666667 0.150985
vt 0.625000 0.166531
vt 0.625000 0.166531
vt 0.666667 0.150985
vt 0.666667 0.246200
vt 0.625000 0.250934
vt 0.625000 0.250934
vt 0.666667 0.246200
vt 0.666667 0.333566
vt 0.625000 0.328472
vt 0.625000 0.328472
vt 0.666667 0.333566
vt 0.666667 0.413961
vt 0.625000 0.415590
vt 0.625000 0.415590
vt 0.666667 0.413961
vt 0.666667 0.500000
vt 0.625000 0.500000
vt 0.625000 0.500000
vt 0.666667 0.500000
vt 0.666667 0.582276
vt 0.625000 0.585401
vt 0.625000 0.585401
vt 0.666667 0.582276
vt 0.666667 0.667454
vt 0.625000 0.662257
vt 0.625000 0.662257
vt 0.666667 0.667454
vt 0.666667 0.757281
vt 0.625000 0.760751
vt 0.625000 0.760751
vt 0.666667 0.757281
vt 0.666667 0.850180
vt 0.625000 0.816196
vt 0.625000 0.816196
vt 0.666667 0.850180
vt 0.666667 0.889254
vt 0.625000 0.918867
vt 0.500000 1.000000
vt 0.625000 0.918867
vt 0.666667 0.889254
vt 0.500000 0.000000
vt 0.708333 0.115785
vt 0.666667 0.071544
vt 0.666667 0.071544
vt 0.708333 0.115785
vt 0.708333 0.173462
vt 0.666667 0.150985
vt 0.666667 0.150985
vt 0.708333 0.173462
vt 0.708333 0.249893
vt 0.666667 0.246200
vt 0.666667 0.246200
vt 0.708333 0.249893
vt 0.708333 0.336615
vt 0.666667 0.333566
vt 0.666667 0.333566
vt 0.708333 0.336615
vt 0.708333 0.415206
vt 0.666667 0.413961
vt 0.666667 0.413961
vt 0.708333 0.415206
vt 0.708333 0.500000
vt 0.666667 0.500000
vt 0.666667 0.500000
vt 0.708333 0.500000
vt 0.708333 0.585764
vt 0.666667 0.582276
vt 0.666667 0.582276
vt 0.708333 0.585764
vt 0.708333 0.665880
vt 0.666667 0.667454
vt 0.666667 0.667454
vt 0.708333 0.665880
vt 0.708333 0.753800
vt 0.666667 0.757281
vt 0.666667 0.757281
vt 0.708333 0.753800
vt 0.708333 0.826664
vt 0.666667 0.850180
vt 0.666667 0.850180
vt 0.708333 0.826664
vt 0.708333 0.896325
vt 0.666667 0.889254
vt 0.500000 1.000000
vt 0.666667 0.889254
vt 0.708333 0.896325
vt 0.500000 0.000000
vt 0.750000 0.117517
vt 0.708333 0.115785
vt 0.708333 0.115785
vt 0.750000 0.117517
vt 0.750000 0.147235
vt 0.708333 0.173462
vt 0.708333 0.173462
vt 0.750000 0.147235
vt 0.750000 0.247705
vt 0.708333 0.249893
vt 0.708333 0.249893
vt 0.750000 0.247705
vt 0.750000 0.327482
vt 0.708333 0.336615
vt 0.708333 0.336615
vt 0.750000 0.327482
vt 0.750000 0.416817
vt 0.708333 0.415206
vt 0.708333 0.415206
vt 0.750000 0.416817
vt 0.750000 0.500000
vt 0.708333 0.500000
vt 0.708333 0.500000
vt 0.750000 0.500000
vt 0.750000 0.581176
vt 0.708333 0.585764
vt 0.708333 0.585764
vt 0.750000 0.581176
vt 0.750000 0.665969
vt 0.708333 0.665880
vt 0.708333 0.665880
vt 0.750000 0.665969
vt 0.750000 0.750688
vt 0.708333 0.753800
vt 0.708333 0.753800
vt 0.750000 0.750688
vt 0.750000 0.837825
vt 0.708333 0.826664
vt 0.708333 0.826664
vt 0.750000 0.837825
vt 0.750000 0.903608
vt 0.708333 0.896325
vt 0.500000 1.000000
vt 0.708333 0.896325
vt 0.750000 0.903608
vt 0.500000 0.000000
vt 0.791667 0.020403
vt 0.750000 0.117517
vt 0.750000 0.117517
vt 0.791667 0.020403
vt 0.791667 0.154560
vt 0.750000 0.147235
vt 0.750000 0.147235
vt 0.791667 0.154560
vt 0.791667 0.238700
vt 0.750000 0.247705
vt 0.750000 0.247705
vt 0.791667 0.238700
vt 0.791667 0.334008
vt 0.750000 0.327482
vt 0.750000 0.327482
vt 0.791667 0.334008
vt 0.791667 0.413722
vt 0.750000 0.416817
vt 0.750000 0.416817
vt 0.791667 0.413722
vt 0.791667 0.500000
vt 0.750000 0.500000
vt 0.750000 0.500000
vt 0.791667 0.500000
vt 0.791667 0.585671
vt 0.750000 0.581176
vt 0.750000 0.581176
vt 0.791667 0.585671
vt 0.791667 0.671555
vt 0.750000 0.665969
vt 0.750000 0.665969
vt 0.791667 0.671555
vt 0.791667 0.760210
vt 0.750000 0.750688
vt 0.750000 0.750688
vt 0.791667 0.760210
vt 0.791667 0.837216
vt 0.750000 0.837825
vt 0.750000 0.837825
vt 0.791667 0.837216
vt 0.791667 0.913603
vt 0.750000 0.903608
vt 0.500000 1.000000
vt 0.750000 0.903608
vt 0.791667 0.913603
vt 0.500000 0.000000
vt 0.833333 0.082599
vt 0.791667 0.020403
vt 0.791667 0.020403
vt 0.833333 0.082599
vt 0.833333 0.181987
vt 0.791667 0.154560
vt 0.791667 0.154560
vt 0.833333 0.181987
vt 0.833333 0.248276
vt 0.791667 0.238700
vt 0.791667 0.238700
vt 0.833333 0.248276
vt 0.833333 0.328033
vt 0.791667 0.334008
vt 0.791667 0.334008
vt 0.833333 0.328033
vt 0.833333 0.418857
vt 0.791667 0.413722
vt 0.791667 0.413722
vt 0.833333 0.418857
vt 0.833333 0.500000
vt 0.791667 0.500000
vt 0.791667 0.500000
vt 0.833333 0.500000
vt 0.833333 0.581689
vt 0.791667 0.585671
vt 0.791667 0.585671
vt 0.833333 0.581689
vt 0.833333 0.663055
vt 0.791667 0.671555
vt 0.791667 0.671555
vt 0.833333 0.663055
vt 0.833333 0.756850
vt 0.791667 0.760210
vt 0.791667 0.760210
vt 0.833333 0.756850
vt 0.833333 0.850088
vt 0.791667 0.837216
vt 0.791667 0.837216
vt 0.833333 0.850088
vt 0.833333 0.968597
vt 0.791667 0.913603
vt 0.500000 1.000000
vt 0.791667 0.913603
vt 0.833333 0.968597
vt 0.500000 0.000000
vt 0.875000 0.068344
vt 0.833333 0.082599
vt 0.833333 0.082599
vt 0.875000 0.068344
vt 0.875000 0.183819
vt 0.833333 0.181987
vt 0.833333 0.181987
vt 0.875000 0.183819
vt 0.875000 0.249556
vt 0.833333 0.248276
vt 0.833333 0.248276
vt 0.875000 0.249556
vt 0.875000 0.337202
vt 0.833333 0.328033
vt 0.833333 0.328033
vt 0.875000 0.337202
vt 0.875000 0.417851
vt 0.833333 0.418857
vt 0.833333 0.418857
vt 0.875000 0.417851
vt 0.875000 0.500000
vt 0.833333 0.500000
vt 0.833333 0.500000
vt 0.875000 0.500000
vt 0.875000 0.585985
vt 0.833333 0.581689
vt 0.833333 0.581689
vt 0.875000 0.585985
vt 0.875000 0.660358
vt 0.833333 0.663055
vt 0.833333 0.663055
vt 0.875000 0.660358
vt 0.875000 0.745649
vt 0.833333 0.756850
vt 0.833333 0.756850
vt 0.875000 0.745649
vt 0.875000 0.845308
vt 0.833333 0.850088
vt 0.833333 0.850088
vt 0.875000 0.845308
vt 0.875000 0.884540
vt 0.833333 0.968597
vt 0.500000 1.000000
vt 0.833333 0.968597
vt 0.875000 0.884540
vt 0.500000 0.000000
vt 0.916667 0.052909
vt 0.875000 0.068344
vt 0.875000 0.068344
vt 0.916667 0.052909
vt 0.916667 0.156341
vt 0.875000 0.183819
vt 0.875000 0.183819
vt 0.916667 0.156341
vt 0.916667 0.247969
vt 0.875000 0.249556
vt 0.875000 0.249556
vt 0.916667 0.247969
vt 0.916667 0.334630
vt 0.875000 0.337202
vt 0.875000 0.337202
vt 0.916667 0.334630
vt 0.916667 0.417010
vt 0.875000 0.417851
vt 0.875000 0.417851
vt 0.916667 0.417010
vt 0.916667 0.500000
vt 0.875000 0.500000
vt 0.875000 0.500000
vt 0.916667 0.500000
vt 0.916667 0.581491
vt 0.875000 0.585985
vt 0.875000 0.585985
vt 0.916667 0.581491
vt 0.916667 0.672473
vt 0.875000 0.660358
vt 0.875000 0.660358
vt 0.916667 0.672473
vt 0.916667 0.759999
vt 0.875000 0.745649
vt 0.875000 0.745649
vt 0.916667 0.759999
vt 0.916667 0.823815
vt 0.875000 0.845308
vt 0.875000 0.845308
vt 0.916667 0.823815
vt 0.916667 0.913967
vt 0.875000 0.884540
vt 0.500000 1.000000
vt 0.875000 0.884540
vt 0.916667 0.913967
vt 0.500000 0.000000
vt 0.958333 0.094165
vt 0.916667 0.052909
vt 0.916667 0.052909
vt 0.958333 0.094165
vt 0.958333 0.183292
vt 0.916667 0.156341
vt 0.916667 0.156341
vt 0.958333 0.183292
vt 0.958333 0.243535
vt 0.916667 0.247969
vt 0.916667 0.247969
vt 0.958333 0.243535
vt 0.958333 0.334957
vt 0.916667 0.334630
vt 0.916667 0.334630
vt 0.958333 0.334957
vt 0.958333 0.418943
vt 0.916667 0.417010
vt 0.916667 0.417010
vt 0.958333 0.418943
vt 0.958333 0.500000
vt 0.916667 0.500000
vt 0.916667 0.500000
vt 0.958333 0.500000
vt 0.958333 0.584282
vt 0.916667 0.581491
vt 0.916667 0.581491
vt 0.958333 0.584282
vt 0.958333 0.672810
vt 0.916667 0.672473
vt 0.916667 0.672473
vt 0.958333 0.672810
vt 0.958333 0.751559
vt 0.916667 0.759999
vt 0.916667 0.759999
vt 0.958333 0.751559
vt 0.958333 0.853019
vt 0.916667 0.823815
vt 0.916667 0.823815
vt 0.958333 0.853019
vt 0.958333 0.930335
vt 0.916667 0.913967
vt 0.500000 1.000000
vt 0.916667 0.913967
vt 0.958333 0.930335
vt 0.500000 0.000000
vt 1.000000 0.040934
vt 0.958333 0.094165
vt 0.958333 0.094165
vt 1.000000 0.040934
vt 1.000000 0.147986
vt 0.958333 0.183292
vt 0.958333 0.183292
vt 1.000000 0.147986
vt 1.000000 0.247194
vt 0.958333 0.243535
vt 0.958333 0.243535
vt 1.000000 0.247194
vt 1.000000 0.332580
vt 0.958333 0.334957
vt 0.958333 0.334957
vt 1.000000 0.332580
vt 1.000000 0.414979
vt 0.958333 0.418943
vt 0.958333 0.418943
vt 1.000000 0.414979
vt 1.000000 0.500000
vt 0.958333 0.500000
vt 0.958333 0.500000
vt 1.000000 0.500000
vt 1.000000 0.581202
vt 0.958333 0.584282
vt 0.958333 0.584282
vt 1.000000 0.581202
vt 1.000000 0.669998
vt 0.958333 0.672810
vt 0.958333 0.672810
vt 1.000000 0.669998
vt 1.000000 0.752773
vt 0.958333 0.751559
vt 0.958333 0.751559
vt 1.000000 0.752773
vt 1.000000 0.821160
vt 0.958333 0.853019
vt 0.958333 0.853019
vt 1.000000 0.821160
vt 1.000000 0.909973
vt 0.958333 0.930335
vt 0.500000 1.000000
vt 0.958333 0.930335
vt 1.000000 0.909973
vt 0.500000 0.000000
vt 1.041667 0.100597
vt 1.000000 0.040934
vt 1.000000 0.040934
vt 1.041667 0.100597
vt 1.041667 0.165544
vt 1.000000 0.147986
vt 1.000000 0.147986
vt 1.041667 0.165544
vt 1.041667 0.257195
vt 1.000000 0.247194
vt 1.000000 0.247194
vt 1.041667 0.257195
vt 1.041667 0.327303
vt 1.000000 0.332580
vt 1.000000 0.332580
vt 1.041667 0.327303
vt 1.041667 0.415764
vt 1.000000 0.414979
vt 1.000000 0.414979
vt 1.041667 0.415764
vt 1.041667 0.500000
vt 1.000000 0.500000
vt 1.000000 0.500000
vt 1.041667 0.500000
vt 1.041667 0.585814
vt 1.000000 0.581202
vt 1.000000 0.581202
vt 1.041667 0.585814
vt 1.041667 0.665900
vt 1.000000 0.669998
vt 1.000000 0.669998
vt 1.041667 0.665900
vt 1.041667 0.748951
vt 1.000000 0.752773
vt 1.000000 0.752773
vt 1.041667 0.748951
vt 1.041667 0.838173
vt 1.000000 0.821160
vt 1.000000 0.821160
vt 1.041667 0.838173
vt 1.041667 0.910731
vt 1.000000 0.909973
vt 0.500000 1.000000
vt 1.000000 0.909973
vt 1.041667 0.910731
vt 0.500000 0.000000
vt 0.083333 0.057544
vt 0.041667 0.100597
vt 0.041667 0.100597
vt 0.083333 0.057544
vt 0.083333 0.165406
vt 0.041667 0.165544
vt 0.041667 0.165544
vt 0.083333 0.165406
vt 0.083333 0.251763
vt 0.041667 0.257195
vt 0.041667 0.257195
vt 0.083333 0.251763
vt 0.083333 0.328951
vt 0.041667 0.327303
vt 0.041667 0.327303
vt 0.083333 0.328951
vt 0.083333 0.417305
vt 0.041667 0.415764
vt 0.041667 0.415764
vt 0.083333 0.417305
vt 0.083333 0.500000
vt 0.041667 0.500000
vt 0.041667 0.500000
vt 0.083333 0.500000
vt 0.083333 0.584635
vt 0.041667 0.585814
vt 0.041667 0.585814
vt 0.083333 0.584635
vt 0.083333 0.666420
vt 0.041667 0.665900
vt 0.041667 0.665900
vt 0.083333 0.666420
vt 0.083333 0.745991
vt 0.041667 0.748951
vt 0.041667 0.748951
vt 0.083333 0.745991
vt 0.083333 0.849232
vt 0.041667 0.838173
vt 0.041667 0.838173
vt 0.083333 0.849232
vt 0.083333 0.951763
vt 0.041667 0.910731
vt 0.500000 1.000000
vt 0.041667 0.910731
vt 0.083333 0.951763
vt 0.500000 0.000000
vt 0.125000 0.078963
vt 0.083333 0.057544
vt 0.083333 0.057544
vt 0.125000 0.078963
vt 0.125000 0.176151
vt 0.083333 0.165406
vt 0.083333 0.165406
vt 0.125000 0.176151
vt 0.125000 0.259552
vt 0.083333 0.251763
vt 0.083333 0.251763
vt 0.125000 0.259552
vt 0.125000 0.331126
vt 0.083333 0.328951
vt 0.083333 0.328951
vt 0.125000 0.331126
vt 0.125000 0.418495
vt 0.083333 0.417305
vt 0.083333 0.417305
vt 0.125000 0.418495
vt 0.125000 0.500000
vt 0.083333 0.500000
vt 0.083333 0.500000
vt 0.125000 0.500000
vt 0.125000 0.585006
vt 0.083333 0.584635
vt 0.083333 0.584635
vt 0.125000 0.585006
vt 0.125000 0.671592
vt 0.083333 0.666420
vt 0.083333 0.666420
vt 0.125000 0.671592
vt 0.125000 0.753825
vt 0.083333 0.745991
vt 0.083333 0.745991
vt 0.125000 0.753825
vt 0.125000 0.847352
vt 0.083333 0.849232
vt 0.083333 0.849232
vt 0.125000 0.847352
vt 0.125000 0.946279
vt 0.083333 0.951763
vt 0.500000 1.000000
vt 0.083333 0.951763
vt 0.125000 0.946279
vt 0.500000 0.000000
vt 0.166667 0.112381
vt 0.125000 0.078963
vt 0.125000 0.078963
vt 0.166667 0.112381
vt 0.166667 0.167227
vt 0.125000 0.176151
vt 0.125000 0.176151
vt 0.166667 0.167227
vt 0.166667 0.245243
vt 0.125000 0.259552
vt 0.125000 0.259552
vt 0.166667 0.245243
vt 0.166667 0.335087
vt 0.125000 0.331126
vt 0.125000 0.331126
vt 0.166667 0.335087
vt 0.166667 0.415991
vt 0.125000 0.418495
vt 0.125000 0.418495
vt 0.166667 0.415991
vt 0.166667 0.500000
vt 0.125000 0.500000
vt 0.125000 0.500000
vt 0.166667 0.500000
vt 0.166667 0.585884
vt 0.125000 0.585006
vt 0.125000 0.585006
vt 0.166667 0.585884
vt 0.166667 0.670748
vt 0.125000 0.671592
vt 0.125000 0.671592
vt 0.166667 0.670748
vt 0.166667 0.740826
vt 0.125000 0.753825
vt 0.125000 0.753825
vt 0.166667 0.740826
vt 0.166667 0.853299
vt 0.125000 0.847352
vt 0.125000 0.847352
vt 0.166667 0.853299
vt 0.166667 0.906712
vt 0.125000 0.946279
vt 0.500000 1.000000
vt 0.125000 0.946279
vt 0.166667 0.906712
vt 0.500000 0.000000
vt 0.208333 0.097669
vt 0.166667 0.112381
vt 0.166667 0.112381
vt 0.208333 0.097669
vt 0.208333 0.175166
vt 0.166667 0.167227
vt 0.166667 0.167227
vt 0.208333 0.175166
vt 0.208333 0.259713
vt 0.166667 0.245243
vt 0.166667 0.245243
vt 0.208333 0.259713
vt 0.208333 0.327328
vt 0.166667 0.335087
vt 0.166667 0.335087
vt 0.208333 0.327328
vt 0.208333 0.417987
vt 0.166667 0.415991
vt 0.166667 0.415991
vt 0.208333 0.417987
vt 0.208333 0.500000
vt 0.166667 0.500000
vt 0.166667 0.500000
vt 0.208333 0.500000
vt 0.208333 0.584475
vt 0.166667 0.585884
vt 0.166667 0.585884
vt 0.208333 0.584475
vt 0.208333 0.660924
vt 0.166667 0.670748
vt 0.166667 0.670748
vt 0.208333 0.660924
vt 0.208333 0.761005
vt 0.166667 0.740826
vt 0.166667 0.740826
vt 0.208333 0.761005
vt 0.208333 0.840741
vt 0.166667 0.853299
vt 0.166667 0.853299
vt 0.208333 0.840741
vt 0.208333 0.887685
vt 0.166667 0.906712
vt 0.500000 1.000000
vt 0.166667 0.906712
vt 0.208333 0.887685
vt 0.500000 0.000000
vt 0.250000 0.102687
vt 0.208333 0.097669
vt 0.208333 0.097669
vt 0.250000 0.102687
vt 0.250000 0.158490
vt 0.208333 0.175166
vt 0.208333 0.175166
vt 0.250000 0.158490
vt 0.250000 0.256152
vt 0.208333 0.259713
vt 0.208333 0.259713
vt 0.250000 0.256152
vt 0.250000 0.333120
vt 0.208333 0.327328
vt 0.208333 0.327328
vt 0.250000 0.333120
vt 0.250000 0.414849
vt 0.208333 0.417987
vt 0.208333 0.417987
vt 0.250000 0.414849
vt 0.250000 0.500000
vt 0.208333 0.500000
vt 0.208333 0.500000
vt 0.250000 0.500000
vt 0.250000 0.582800
vt 0.208333 0.584475
vt 0.208333 0.584475
vt 0.250000 0.582800
vt 0.250000 0.666824
vt 0.208333 0.660924
vt 0.208333 0.660924
vt 0.250000 0.666824
vt 0.250000 0.755463
vt 0.208333 0.761005
vt 0.208333 0.761005
vt 0.250000 0.755463
vt 0.250000 0.848217
vt 0.208333 0.840741
vt 0.208333 0.840741
vt 0.250000 0.848217
vt 0.250000 0.898324
vt 0.208333 0.887685
vt 0.500000 1.000000
vt 0.208333 0.887685
vt 0.250000 0.898324
vt 0.500000 0.000000
vt 0.291667 0.101866
vt 0.250000 0.102687
vt 0.250000 0.102687
vt 0.291667 0.101866
vt 0.291667 0.180502
vt 0.250000 0.158490
vt 0.250000 0.158490
vt 0.291667 0.180502
vt 0.291667 0.248953
vt 0.250000 0.256152
vt 0.250000 0.256152
vt 0.291667 0.248953
vt 0.291667 0.338610
vt 0.250000 0.333120
vt 0.250000 0.333120
vt 0.291667 0.338610
vt 0.291667 0.416736
vt 0.250000 0.414849
vt 0.250000 0.414849
vt 0.291667 0.416736
vt 0.291667 0.500000
vt 0.250000 0.500000
vt 0.250000 0.500000
vt 0.291667 0.500000
vt 0.291667 0.581858
vt 0.250000 0.582800
vt 0.250000 0.582800
vt 0.291667 0.581858
vt 0.291667 0.663224
vt 0.250000 0.666824
vt 0.250000 0.666824
vt 0.291667 0.663224
vt 0.291667 0.749986
vt 0.250000 0.755463
vt 0.250000 0.755463
vt 0.291667 0.749986
vt 0.291667 0.815820
vt 0.250000 0.848217
vt 0.250000 0.848217
vt 0.291667 0.815820
vt 0.291667 0.903946
vt 0.250000 0.898324
vt 0.500000 1.000000
vt 0.250000 0.898324
vt 0.291667 0.903946
vt 0.500000 0.000000
vt 0.333333 0.039200
vt 0.291667 0.101866
vt 0.291667 0.101866
vt 0.333333 0.039200
vt 0.333333 0.184896
vt 0.291667 0.180502
vt 0.291667 0.180502
vt 0.333333 0.184896
vt 0.333333 0.246475
vt 0.291667 0.248953
vt 0.291667 0.248953
vt 0.333333 0.246475
vt 0.333333 0.333029
vt 0.291667 0.338610
vt 0.291667 0.338610
vt 0.333333 0.333029
vt 0.333333 0.417477
vt 0.291667 0.416736
vt 0.291667 0.416736
vt 0.333333 0.417477
vt 0.333333 0.500000
vt 0.291667 0.500000
vt 0.291667 0.500000
vt 0.333333 0.500000
vt 0.333333 0.580700
vt 0.291667 0.581858
vt 0.291667 0.581858
vt 0.333333 0.580700
vt 0.333333 0.669335
vt 0.291667 0.663224
vt 0.291667 0.663224
vt 0.333333 0.669335
vt 0.333333 0.758969
vt 0.291667 0.749986
vt 0.291667 0.749986
vt 0.333333 0.758969
vt 0.333333 0.816053
vt 0.291667 0.815820
vt 0.291667 0.815820
vt 0.333333 0.816053
vt 0.333333 0.902081
vt 0.291667 0.903946
vt 0.500000 1.000000
vt 0.291667 0.903946
vt 0.333333 0.902081
vt 0.500000 0.000000
vt 0.375000 0.066314
vt 0.333333 0.039200
vt 0.333333 0.039200
vt 0.375000 0.066314
vt 0.375000 0.149984
vt 0.333333 0.184896
vt 0.333333 0.184896
vt 0.375000 0.149984
vt 0.375000 0.253544
vt 0.333333 0.246475
vt 0.333333 0.246475
vt 0.375000 0.253544
vt 0.375000 0.336603
vt 0.333333 0.333029
vt 0.333333 0.333029
vt 0.375000 0.336603
vt 0.375000 0.417318
vt 0.333333 0.417477
vt 0.333333 0.417477
vt 0.375000 0.417318
vt 0.375000 0.500000
vt 0.333333 0.500000
vt 0.333333 0.500000
vt 0.375000 0.500000
vt 0.375000 0.580435
vt 0.333333 0.580700
vt 0.333333 0.580700
vt 0.375000 0.580435
vt 0.375000 0.663483
vt 0.333333 0.669335
vt 0.333333 0.669335
vt 0.375000 0.663483
vt 0.375000 0.756541
vt 0.333333 0.758969
vt 0.333333 0.758969
vt 0.375000 0.756541
vt 0.375000 0.852187
vt 0.333333 0.816053
vt 0.333333 0.816053
vt 0.375000 0.852187
vt 0.375000 0.909076
vt 0.333333 0.902081
vt 0.500000 1.000000
vt 0.333333 0.902081
vt 0.375000 0.909076
vt 0.500000 0.000000
vt 0.416667 0.069972
vt 0.375000 0.066314
vt 0.375000 0.066314
vt 0.416667 0.069972
vt 0.416667 0.179484
vt 0.375000 0.149984
vt 0.375000 0.149984
vt 0.416667 0.179484
vt 0.416667 0.255787
vt 0.375000 0.253544
vt 0.375000 0.253544
vt 0.416667 0.255787
vt 0.416667 0.339121
vt 0.375000 0.336603
vt 0.375000 0.336603
vt 0.416667 0.339121
vt 0.416667 0.414578
vt 0.375000 0.417318
vt 0.375000 0.417318
vt 0.416667 0.414578
vt 0.416667 0.500000
vt 0.375000 0.500000
vt 0.375000 0.500000
vt 0.416667 0.500000
vt 0.416667 0.584787
vt 0.375000 0.580435
vt 0.375000 0.580435
vt 0.416667 0.584787
vt 0.416667 0.660678
vt 0.375000 0.663483
vt 0.375000 0.663483
vt 0.416667 0.660678
vt 0.416667 0.739220
vt 0.375000 0.756541
vt 0.375000 0.756541
vt 0.416667 0.739220
vt 0.416667 0.822689
vt 0.375000 0.852187
vt 0.375000 0.852187
vt 0.416667 0.822689
vt 0.416667 0.893832
vt 0.375000 0.909076
vt 0.500000 1.000000
vt 0.375000 0.909076
vt 0.416667 0.893832
vt 0.500000 0.000000
vt 0.458333 0.111653
vt 0.416667 0.069972
vt 0.416667 0.069972
vt 0.458333 0.111653
vt 0.458333 0.173837
vt 0.416667 0.179484
vt 0.416667 0.179484
vt 0.458333 0.173837
vt 0.458333 0.252975
vt 0.416667 0.255787
vt 0.416667 0.255787
vt 0.458333 0.252975
vt 0.458333 0.328816
vt 0.416667 0.339121
vt 0.416667 0.339121
vt 0.458333 0.328816
vt 0.458333 0.413966
vt 0.416667 0.414578
vt 0.416667 0.414578
vt 0.458333 0.413966
vt 0.458333 0.500000
vt 0.416667 0.500000
vt 0.416667 0.500000
vt 0.458333 0.500000
vt 0.458333 0.583287
vt 0.416667 0.584787
vt 0.416667 0.584787
vt 0.458333 0.583287
vt 0.458333 0.661541
vt 0.416667 0.660678
vt 0.416667 0.660678
vt 0.458333 0.661541
vt 0.458333 0.745038
vt 0.416667 0.739220
vt 0.416667 0.739220
vt 0.458333 0.745038
vt 0.458333 0.825377
vt 0.416667 0.822689
vt 0.416667 0.822689
vt 0.458333 0.825377
vt 0.458333 0.928557
vt 0.416667 0.893832
vt 0.500000 1.000000
vt 0.416667 0.893832
vt 0.458333 0.928557
vt 0.500000 0.000000
vt 0.500000 0.055627
vt 0.458333 0.111653
vt 0.458333 0.111653
vt 0.500000 0.055627
vt 0.500000 0.162312
vt 0.458333 0.173837
vt 0.458333 0.173837
vt 0.500000 0.162312
vt 0.500000 0.240999
vt 0.458333 0.252975
vt 0.458333 0.252975
vt 0.500000 0.240999
vt 0.500000 0.332773
vt 0.458333 0.328816
vt 0.458333 0.328816
vt 0.500000 0.332773
vt 0.500000 0.415822
vt 0.458333 0.413966
vt 0.458333 0.413966
vt 0.500000 0.415822
vt 0.500000 0.500000
vt 0.458333 0.500000
vt 0.458333 0.500000
vt 0.500000 0.500000
vt 0.500000 0.586113
vt 0.458333 0.583287
vt 0.458333 0.583287
vt 0.500000 0.586113
vt 0.500000 0.671573
vt 0.458333 0.661541
vt 0.458333 0.661541
vt 0.500000 0.671573
vt 0.500000 0.749267
vt 0.458333 0.745038
vt 0.458333 0.745038
vt 0.500000 0.749267
vt 0.500000 0.852948
vt 0.458333 0.825377
vt 0.458333 0.825377
vt 0.500000 0.852948
vt 0.500000 0.911083
vt 0.458333 0.928557
vt 0.500000 1.000000
vt 0.458333 0.928557
vt 0.500000 0.911083
s 1
usemtl models/caelum/world/environment/rock_granite.png
f 1/1 2/2 3/3
f 4/4 5/5 6/6 7/7
f 8/8 9/9 10/10 11/11
f 12/12 13/13 14/14 15/15
f 16/16 17/17 18/18 19/19
f 20/20 21/21 22/22 23/23
f 24/24 25/25 26/26 27/27
f 28/28 29/29 30/30 31/31
f 32/32 33/33 34/34 35/35
f 36/36 37/37 38/38 39/39
f 40/40 41/41 42/42 43/43
f 44/44 45/45 46/46
f 47/47 48/48 49/49
f 50/50 51/51 52/52 53/53
f 54/54 55/55 56/56 57/57
f 58/58 59/59 60/60 61/61
f 62/62 63/63 64/64 65/65
f 66/66 67/67 68/68 69/69
f 70/70 71/71 72/72 73/73
f 74/74 75/75 76/76 77/77
f 78/78 79/79 80/80 81/81
f 82/82 83/83 84/84 85/85
f 86/86 87/87 88/88 89/89
f 90/90 91/91 92/92
f 93/93 94/94 95/95
f 96/96 97/97 98/98 99/99
f 100/100 101/101 102/102 103/103
f 104/104 105/105 106/106 107/107
f 108/108 109/109 110/110 111/111
f 112/112 113/113 114/114 115/115
f 116/116 117/117 118/118 119/119
f 120/120 121/121 122/122 123/123
f 124/124 125/125 126/126 127/127
f 128/128 129/129 130/130 131/131
f 132/132 133/133 134/134 135/135
f 136/136 137/137 138/138
f 139/139 140/140 141/141
f 142/142 143/143 144/144 145/145
f 146/146 147/147 148/148 149/149
f 150/150 151/151 152/152 153/153
f 154/154 155/155 156/156 157/157
f 158/158 159/159 160/160 161/161
f 162/162 163/163 164/164 165/165
f 166/166 167/167 168/168 169/169
f 170/170 171/171 172/172 173/173
f 174/174 175/175 176/176 177/177
f 178/178 179/179 180/180 181/181
f 182/182 183/183 184/184
f 185/185 186/186 187/187
f 188/188 189/189 190/190 191/191
f 192/192 193/193 194/194 195/195
f 196/196 197/197 198/198 199/199
f 200/200 201/201 202/202 203/203
f 204/204 205/205 206/206 207/207
f 208/208 209/209 210/210 211/211
f 212/212 213/213 214/214 215/215
f 216/216 217/217 218/218 219/219
f 220/220 221/221 222/222 223/223
f 224/224 225/225 226/226 227/227
f 228/228 229/229 230/230
f 231/231 232/232 233/233
f 234/234 235/235 236/236 237/237
f 238/238 239/239 240/240 241/241
f 242/242 243/243 244/244 245/245
f 246/246 247/247 248/248 249/249
f 250/250 251/251 252/252 253/253
f 254/254 255/255 256/256 257/257
f 258/258 259/259 260/260 261/261
f 262/262 263/263 264/264 265/265
f 266/266 267/267 268/268 269/269
f 270/270 271/271 272/272 273/273
f 274/274 275/275 276/276
f 277/277 278/278 279/279
f 280/280 281/281 282/282 283/283
f 284/284 285/285 286/286 287/287
f 288/288 289/289 290/290 291/291
f 292/292 293/293 294/294 295/295
f 296/296 297/297 298/298 299/299
f 300/300 301/301 302/302 303/303
f 304/304 305/305 306/306 307/307
f 308/308 309/309 310/310 311/311
f 312/312 313/313 314/314 315/315
f 316/316 317/317 318/318 319/319
f 320/320 321/321 322/322
f 323/323 324/324 325/325
f 326/326 327/327 328/328 329/329
f 330/330 331/331 332/332 333/333
f 334/334 335/335 336/336 337/337
f 338/338 339/339 340/340 341/341
f 342/342 343/343 344/344 345/345
f 346/346 347/347 348/348 349/349
f 350/350 351/351 352/352 353/353
f 354/354 355/355 356/356 357/357
f 358/358 359/359 360/360 361/361
f 362/362 363/363 364/364 365/365
f 366/366 367/367 368/368
f 369/369 370/370 371/371
f 372/372 373/373 374/374 375/375
f 376/376 377/377 378/378 379/379
f 380/380 381/381 382/382 383/383
f 384/384 385/385 386/386 387/387
f 388/388 389/389 390/390 391/391
f 392/392 393/393 394/394 395/395
f 396/396 397/397 398/398 399/399
f 400/400 401/401 402/402 403/403
f 404/404 405/405 406/406 407/407
f 408/408 409/409 410/410 411/411
f 412/412 413/413 414/414
f 415/415 416/416 417/417
f 418/418 419/419 420/420 421/421
f 422/422 423/423 424/424 425/425
f 426/426 427/427 428/428 429/429
f 430/430 431/431 432/432 433/433
f 434/434 435/435 436/436 437/437
f 438/438 439/439 440/440 441/441
f 442/442 443/443 444/444 445/445
f 446/446 447/447 448/448 449/449
f 450/450 451/451 452/452 453/453
f 454/454 455/455 456/456 457/457
f 458/458 459/459 460/460
f 461/461 462/462 463/463
f 464/464 465/465 466/466 467/467
f 468/468 469/469 470/470 471/471
f 472/472 473/473 474/474 475/475
f 476/476 477/477 478/478 479/479
f 480/480 481/481 482/482 483/483
f 484/484 485/485 486/486 487/487
f 488/488 489/489 490/490 491/491
f 492/492 493/493 494/494 495/495
f 496/496 497/497 498/498 499/499
f 500/500 501/501 502/502 503/503
f 504/504 505/505 506/506
f 507/507 508/508 509/509
f 510/510 511/511 512/512 513/513
f 514/514 515/515 516/516 517/517
f 518/518 519/519 520/520 521/521
f 522/522 523/523 524/524 525/525
f 526/526 527/527 528/528 529/529
f 530/530 531/531 532/532 533/533
f 534/534 535/535 536/536 537/537
f 538/538 539/539 540/540 541/541
f 542/542 543/543 544/544 545/545
f 546/546 547/547 548/548 549/549
f 550/550 551/551 552/552
f 553/553 554/554 555/555
f 556/556 557/557 558/558 559/559
f 560/560 561/561 562/562 563/563
f 564/564 565/565 566/566 567/567
f 568/568 569/569 570/570 571/571
f 572/572 573/573 574/574 575/575
f 576/576 577/577 578/578 579/579
f 580/580 581/581 582/582 583/583
f 584/584 585/585 586/586 587/587
f 588/588 589/589 590/590 591/591
f 592/592 593/593 594/594 595/595
f 596/596 597/597 598/598
f 599/599 600/600 601/601
f 602/602 603/603 604/604 605/605
f 606/606 607/607 608/608 609/609
f 610/610 611/611 612/612 613/613
f 614/614 615/615 616/616 617/617
f 618/618 619/619 620/620 621/621
f 622/622 623/623 624/624 625/625
f 626/626 627/627 628/628 629/629
f 630/630 631/631 632/632 633/633
f 634/634 635/635 636/636 637/637
f 638/638 639/639 640/640 641/641
f 642/642 643/643 644/644
f 645/645 646/646 647/647
f 648/648 649/649 650/650 651/651
f 652/652 653/653 654/654 655/655
f 656/656 657/657 658/658 659/659
f 660/660 661/661 662/662 663/663
f 664/664 665/665 666/666 667/667
f 668/668 669/669 670/670 671/671
f 672/672 673/673 674/674 675/675
f 676/676 677/677 678/678 679/679
f 680/680 681/681 682/682 683/683
f 684/684 685/685 686/686 687/687
f 688/688 689/689 690/690
f 691/691 692/692 693/693
f 694/694 695/695 696/696 697/697
f 698/698 699/699 700/700 701/701
f 702/702 703/703 704/704 705/705
f 706/706 707/707 708/708 709/709
f 710/710 711/711 712/712 713/713
f 714/714 715/715 716/716 717/717
f 718/718 719/719 720/720 721/721
f 722/722 723/723 724/724 725/725
f 726/726 727/727 728/728 729/729
f 730/730 731/731 732/732 733/733
f 734/734 735/735 736/736
f 737/737 738/738 739/739
f 740/740 741/741 742/742 743/743
f 744/744 745/745 746/746 747/747
f 748/748 749/749 750/750 751/751
f 752/752 753/753 754/754 755/755
f 756/756 757/757 758/758 759/759
f 760/760 761/761 762/762 763/763
f 764/764 765/765 766/766 767/767
f 768/768 769/769 770/770 771/771
f 772/772 773/773 774/774 775/775
f 776/776 777/777 778/778 779/779
f 780/780 781/781 782/782
f 783/783 784/784 785/785
f 786/786 787/787 788/788 789/789
f 790/790 791/791 792/792 793/793
f 794/794 795/795 796/796 797/797
f 798/798 799/799 800/800 801/801
f 802/802 803/803 804/804 805/805
f 806/806 807/807 808/808 809/809
f 810/810 811/811 812/812 813/813
f 814/814 815/815 816/816 817/817
f 818/818 819/819 820/820 821/821
f 822/822 823/823 824/824 825/825
f 826/826 827/827 828/828
f 829/829 830/830 831/831
f 832/832 833/833 834/834 835/835
f 836/836 837/837 838/838 839/839
f 840/840 841/841 842/842 843/843
f 844/844 845/845 846/846 847/847
f 848/848 849/849 850/850 851/851
f 852/852 853/853 854/854 855/855
f 856/856 857/857 858/858 859/859
f 860/860 861/861 862/862 863/863
f 864/864 865/865 866/866 867/867
f 868/868 869/869 870/870 871/871
f 872/872 873/873 874/874
f 875/875 876/876 877/877
f 878/878 879/879 880/880 881/881
f 882/882 883/883 884/884 885/885
f 886/886 887/887 888/888 889/889
f 890/890 891/891 892/892 893/893
f 894/894 895/895 896/896 897/897
f 898/898 899/899 900/900 901/901
f 902/902 903/903 904/904 905/905
f 906/906 907/907 908/908 909/909
f 910/910 911/911 912/912 913/913
f 914/914 915/915 916/916 917/917
f 918/918 919/919 920/920
f 921/921 922/922 923/923
f 924/924 925/925 926/926 927/927
f 928/928 929/929 930/930 931/931
f 932/932 933/933 934/934 935/935
f 936/936 937/937 938/938 939/939
f 940/940 941/941 942/942 943/943
f 944/944 945/945 946/946 947/947
f 948/948 949/949 950/950 951/951
f 952/952 953/953 954/954 955/955
f 956/956 957/957 958/958 959/959
f 960/960 961/961 962/962 963/963
f 964/964 965/965 966/966
f 967/967 968/968 969/969
f 970/970 971/971 972/972 973/973
f 974/974 975/975 976/976 977/977
f 978/978 979/979 980/980 981/981
f 982/982 983/983 984/984 985/985
f 986/986 987/987 988/988 989/989
f 990/990 991/991 992/992 993/993
f 994/994 995/995 996/996 997/997
f 998/998 999/999 1000/1000 1001/1001
f 1002/1002 1003/1003 1004/1004 1005/1005
f 1006/1006 1007/1007 1008/1008 1009/1009
f 1010/1010 1011/1011 1012/1012
f 1013/1013 1014/1014 1015/1015
f 1016/1016 1017/1017 1018/1018 1019/1019
f 1020/1020 1021/1021 1022/1022 1023/1023
f 1024/1024 1025/1025 1026/1026 1027/1027
f 1028/1028 1029/1029 1030/1030 1031/1031
f 1032/1032 1033/1033 1034/1034 1035/1035
f 1036/1036 1037/1037 1038/1038 1039/1039
f 1040/1040 1041/1041 1042/1042 1043/1043
f 1044/1044 1045/1045 1046/1046 1047/1047
f 1048/1048 1049/1049 1050/1050 1051/1051
f 1052/1052 1053/1053 1054/1054 1055/1055
f 1056/1056 1057/1057 1058/1058
f 1059/1059 1060/1060 1061/1061
f 1062/1062 1063/1063 1064/1064 1065/1065
f 1066/1066 1067/1067 1068/1068 1069/1069
f 1070/1070 1071/1071 1072/1072 1073/1073
f 1074/1074 1075/1075 1076/1076 1077/1077
f 1078/1078 1079/1079 1080/1080 1081/1081
f 1082/1082 1083/1083 1084/1084 1085/1085
f 1086/1086 1087/1087 1088/1088 1089/1089
f 1090/1090 1091/1091 1092/1092 1093/1093
f 1094/1094 1095/1095 1096/1096 1097/1097
f 1098/1098 1099/1099 1100/1100 1101/1101
f 1102/1102 1103/1103 1104/1104
