# Modelo original generado para Caelum Argenteum.
# Ejes OBJ: X ancho, Y altura, Z profundidad.
o ca_rock_coastal3
v -18.000000 0.000000 5.000000
v 10.782043 -0.514828 5.000000
v 10.394901 0.326264 21.927264
v 10.782043 -0.514828 5.000000
v 18.766767 10.408678 5.000000
v 10.203493 10.604708 21.813159
v 10.394901 0.326264 21.927264
v 18.766767 10.408678 5.000000
v 11.799173 20.865236 5.000000
v 6.635120 21.371847 19.685918
v 10.203493 10.604708 21.813159
v -14.256135 30.000000 -3.002989
v 6.635120 21.371847 19.685918
v 11.799173 20.865236 5.000000
v -18.000000 0.000000 5.000000
v 10.394901 0.326264 21.927264
v -9.018035 -0.604832 27.681965
v 10.394901 0.326264 21.927264
v 10.203493 10.604708 21.813159
v -4.182088 9.496714 39.894081
v -9.018035 -0.604832 27.681965
v 10.203493 10.604708 21.813159
v 6.635120 21.371847 19.685918
v -7.850926 20.899352 30.629242
v -4.182088 9.496714 39.894081
v -14.256135 30.000000 -3.002989
v -7.850926 20.899352 30.629242
v 6.635120 21.371847 19.685918
v -18.000000 0.000000 5.000000
v -9.018035 -0.604832 27.681965
v -29.567972 -0.169270 34.212353
v -9.018035 -0.604832 27.681965
v -4.182088 9.496714 39.894081
v -28.265665 9.265138 30.923667
v -29.567972 -0.169270 34.212353
v -4.182088 9.496714 39.894081
v -7.850926 20.899352 30.629242
v -26.965454 20.761409 27.640270
v -28.265665 9.265138 30.923667
v -14.256135 30.000000 -3.002989
v -26.965454 20.761409 27.640270
v -7.850926 20.899352 30.629242
v -18.000000 0.000000 5.000000
v -29.567972 -0.169270 34.212353
v -46.064686 -0.804217 21.730410
v -29.567972 -0.169270 34.212353
v -28.265665 9.265138 30.923667
v -50.830642 9.695954 24.571575
v -46.064686 -0.804217 21.730410
v -28.265665 9.265138 30.923667
v -26.965454 20.761409 27.640270
v -44.347376 19.475583 20.706658
v -50.830642 9.695954 24.571575
v -14.256135 30.000000 -3.002989
v -44.347376 19.475583 20.706658
v -26.965454 20.761409 27.640270
v -18.000000 0.000000 5.000000
v -46.064686 -0.804217 21.730410
v -56.340528 -0.630288 5.000000
v -46.064686 -0.804217 21.730410
v -50.830642 9.695954 24.571575
v -60.743174 9.104518 5.000000
v -56.340528 -0.630288 5.000000
v -50.830642 9.695954 24.571575
v -44.347376 19.475583 20.706658
v -41.833935 19.895713 5.000000
v -60.743174 9.104518 5.000000
v -14.256135 30.000000 -3.002989
v -41.833935 19.895713 5.000000
v -44.347376 19.475583 20.706658
v -18.000000 0.000000 5.000000
v -56.340528 -0.630288 5.000000
v -43.848904 0.811906 -10.409500
v -56.340528 -0.630288 5.000000
v -60.743174 9.104518 5.000000
v -47.149343 10.014147 -12.377015
v -43.848904 0.811906 -10.409500
v -60.743174 9.104518 5.000000
v -41.833935 19.895713 5.000000
v -41.770377 20.831348 -9.170412
v -47.149343 10.014147 -12.377015
v -14.256135 30.000000 -3.002989
v -41.770377 20.831348 -9.170412
v -41.833935 19.895713 5.000000
v -18.000000 0.000000 5.000000
v -43.848904 0.811906 -10.409500
v -27.917213 0.230929 -20.043729
v -43.848904 0.811906 -10.409500
v -47.149343 10.014147 -12.377015
v -32.168960 10.075817 -30.780573
v -27.917213 0.230929 -20.043729
v -47.149343 10.014147 -12.377015
v -41.770377 20.831348 -9.170412
v -26.044179 19.591937 -15.313793
v -32.168960 10.075817 -30.780573
v -14.256135 30.000000 -3.002989
v -26.044179 19.591937 -15.313793
v -41.770377 20.831348 -9.170412
v -18.000000 0.000000 5.000000
v -27.917213 0.230929 -20.043729
v -6.151062 -0.416299 -24.921873
v -27.917213 0.230929 -20.043729
v -32.168960 10.075817 -30.780573
v -3.974080 8.859392 -30.419358
v -6.151062 -0.416299 -24.921873
v -32.168960 10.075817 -30.780573
v -26.044179 19.591937 -15.313793
v -10.526218 20.643475 -13.873382
v -3.974080 8.859392 -30.419358
v -14.256135 30.000000 -3.002989
v -10.526218 20.643475 -13.873382
v -26.044179 19.591937 -15.313793
v -18.000000 0.000000 5.000000
v -6.151062 -0.416299 -24.921873
v 12.109856 -0.060777 -12.949613
v -6.151062 -0.416299 -24.921873
v -3.974080 8.859392 -30.419358
v 9.644140 8.962150 -11.479708
v 12.109856 -0.060777 -12.949613
v -3.974080 8.859392 -30.419358
v -10.526218 20.643475 -13.873382
v 2.223925 21.151524 -7.056239
v 9.644140 8.962150 -11.479708
v -14.256135 30.000000 -3.002989
v 2.223925 21.151524 -7.056239
v -10.526218 20.643475 -13.873382
v -18.000000 0.000000 5.000000
v 12.109856 -0.060777 -12.949613
v 10.782043 -0.514828 5.000000
v 12.109856 -0.060777 -12.949613
v 9.644140 8.962150 -11.479708
v 18.766767 10.408678 5.000000
v 10.782043 -0.514828 5.000000
v 9.644140 8.962150 -11.479708
v 2.223925 21.151524 -7.056239
v 11.799173 20.865236 5.000000
v 18.766767 10.408678 5.000000
v -14.256135 30.000000 -3.002989
v 11.799173 20.865236 5.000000
v 2.223925 21.151524 -7.056239
v 29.000000 0.000000 -7.000000
v 49.523847 -0.569569 -7.000000
v 43.992313 -0.777502 3.978948
v 49.523847 -0.569569 -7.000000
v 58.613629 7.634739 -7.000000
v 51.900729 7.126297 9.770321
v 43.992313 -0.777502 3.978948
v 58.613629 7.634739 -7.000000
v 46.513448 17.130177 -7.000000
v 46.710648 16.797547 5.969598
v 51.900729 7.126297 9.770321
v 35.960659 24.000000 -11.486238
v 46.710648 16.797547 5.969598
v 46.513448 17.130177 -7.000000
v 29.000000 0.000000 -7.000000
v 43.992313 -0.777502 3.978948
v 32.407164 0.535725 9.863696
v 43.992313 -0.777502 3.978948
v 51.900729 7.126297 9.770321
v 33.088450 7.199776 13.235710
v 32.407164 0.535725 9.863696
v 51.900729 7.126297 9.770321
v 46.710648 16.797547 5.969598
v 31.966157 16.720211 7.680941
v 33.088450 7.199776 13.235710
v 35.960659 24.000000 -11.486238
v 31.966157 16.720211 7.680941
v 46.710648 16.797547 5.969598
v 29.000000 0.000000 -7.000000
v 32.407164 0.535725 9.863696
v 18.387149 0.212128 9.042471
v 32.407164 0.535725 9.863696
v 33.088450 7.199776 13.235710
v 17.701564 7.313796 10.078806
v 18.387149 0.212128 9.042471
v 33.088450 7.199776 13.235710
v 31.966157 16.720211 7.680941
v 18.143325 16.133742 9.411037
v 17.701564 7.313796 10.078806
v 35.960659 24.000000 -11.486238
v 18.143325 16.133742 9.411037
v 31.966157 16.720211 7.680941
v 29.000000 0.000000 -7.000000
v 18.387149 0.212128 9.042471
v 9.884875 -0.087034 -0.928143
v 18.387149 0.212128 9.042471
v 17.701564 7.313796 10.078806
v 1.945796 7.613318 1.593680
v 9.884875 -0.087034 -0.928143
v 17.701564 7.313796 10.078806
v 18.143325 16.133742 9.411037
v 11.873777 15.516125 -1.559911
v 1.945796 7.613318 1.593680
v 35.960659 24.000000 -11.486238
v 11.873777 15.516125 -1.559911
v 18.143325 16.133742 9.411037
v 29.000000 0.000000 -7.000000
v 9.884875 -0.087034 -0.928143
v 10.471534 -0.672554 -12.885507
v 9.884875 -0.087034 -0.928143
v 1.945796 7.613318 1.593680
v -1.235207 7.806224 -16.604115
v 10.471534 -0.672554 -12.885507
v 1.945796 7.613318 1.593680
v 11.873777 15.516125 -1.559911
v 8.529115 16.678888 -13.502510
v -1.235207 7.806224 -16.604115
v 35.960659 24.000000 -11.486238
v 8.529115 16.678888 -13.502510
v 11.873777 15.516125 -1.559911
v 29.000000 0.000000 -7.000000
v 10.471534 -0.672554 -12.885507
v 17.836097 0.672232 -23.875445
v 10.471534 -0.672554 -12.885507
v -1.235207 7.806224 -16.604115
v 15.882669 8.274295 -26.828263
v 17.836097 0.672232 -23.875445
v -1.235207 7.806224 -16.604115
v 8.529115 16.678888 -13.502510
v 18.056758 15.783758 -23.541891
v 15.882669 8.274295 -26.828263
v 35.960659 24.000000 -11.486238
v 18.056758 15.783758 -23.541891
v 8.529115 16.678888 -13.502510
v 29.000000 0.000000 -7.000000
v 17.836097 0.672232 -23.875445
v 32.883931 -0.802154 -26.223449
v 17.836097 0.672232 -23.875445
v 15.882669 8.274295 -26.828263
v 33.699939 8.475276 -30.262265
v 32.883931 -0.802154 -26.223449
v 15.882669 8.274295 -26.828263
v 18.056758 15.783758 -23.541891
v 32.845800 16.004729 -26.034719
v 33.699939 8.475276 -30.262265
v 35.960659 24.000000 -11.486238
v 32.845800 16.004729 -26.034719
v 18.056758 15.783758 -23.541891
v 29.000000 0.000000 -7.000000
v 32.883931 -0.802154 -26.223449
v 45.627932 -0.163656 -19.176720
v 32.883931 -0.802154 -26.223449
v 33.699939 8.475276 -30.262265
v 49.536263 7.417121 -22.038811
v 45.627932 -0.163656 -19.176720
v 33.699939 8.475276 -30.262265
v 32.845800 16.004729 -26.034719
v 43.742458 16.535366 -17.795977
v 49.536263 7.417121 -22.038811
v 35.960659 24.000000 -11.486238
v 43.742458 16.535366 -17.795977
v 32.845800 16.004729 -26.034719
v 29.000000 0.000000 -7.000000
v 45.627932 -0.163656 -19.176720
v 49.523847 -0.569569 -7.000000
v 45.627932 -0.163656 -19.176720
v 49.536263 7.417121 -22.038811
v 58.613629 7.634739 -7.000000
v 49.523847 -0.569569 -7.000000
v 49.536263 7.417121 -22.038811
v 43.742458 16.535366 -17.795977
v 46.513448 17.130177 -7.000000
v 58.613629 7.634739 -7.000000
v 35.960659 24.000000 -11.486238
v 46.513448 17.130177 -7.000000
v 43.742458 16.535366 -17.795977
v 4.000000 9.000000 9.000000
v 29.409682 8.628929 9.000000
v 25.346554 9.200032 23.975511
v 29.409682 8.628929 9.000000
v 30.398295 17.286441 9.000000
v 26.970667 16.302682 25.114895
v 25.346554 9.200032 23.975511
v 30.398295 17.286441 9.000000
v 26.786817 26.539246 9.000000
v 21.812421 25.705914 21.496167
v 26.970667 16.302682 25.114895
v 5.979348 34.000000 8.324354
v 21.812421 25.705914 21.496167
v 26.786817 26.539246 9.000000
v 4.000000 9.000000 9.000000
v 25.346554 9.200032 23.975511
v 8.068437 9.292766 28.290751
v 25.346554 9.200032 23.975511
v 26.970667 16.302682 25.114895
v 10.083914 17.296747 37.847266
v 8.068437 9.292766 28.290751
v 26.970667 16.302682 25.114895
v 21.812421 25.705914 21.496167
v 7.735805 25.305753 26.713557
v 10.083914 17.296747 37.847266
v 5.979348 34.000000 8.324354
v 7.735805 25.305753 26.713557
v 21.812421 25.705914 21.496167
v 4.000000 9.000000 9.000000
v 8.068437 9.292766 28.290751
v -10.194172 8.807793 29.554694
v 8.068437 9.292766 28.290751
v 10.083914 17.296747 37.847266
v -11.346069 17.150615 31.222767
v -10.194172 8.807793 29.554694
v 10.083914 17.296747 37.847266
v 7.735805 25.305753 26.713557
v -7.332060 25.787468 25.410047
v -11.346069 17.150615 31.222767
v 5.979348 34.000000 8.324354
v -7.332060 25.787468 25.410047
v 7.735805 25.305753 26.713557
v 4.000000 9.000000 9.000000
v -10.194172 8.807793 29.554694
v -21.475823 8.163943 16.752369
v -10.194172 8.807793 29.554694
v -11.346069 17.150615 31.222767
v -24.588617 17.037167 17.699601
v -21.475823 8.163943 16.752369
v -11.346069 17.150615 31.222767
v -7.332060 25.787468 25.410047
v -18.077475 25.584570 15.718242
v -24.588617 17.037167 17.699601
v 5.979348 34.000000 8.324354
v -18.077475 25.584570 15.718242
v -7.332060 25.787468 25.410047
v 4.000000 9.000000 9.000000
v -21.475823 8.163943 16.752369
v -16.448486 9.069062 2.777465
v -21.475823 8.163943 16.752369
v -24.588617 17.037167 17.699601
v -25.290902 16.245725 0.086691
v -16.448486 9.069062 2.777465
v -24.588617 17.037167 17.699601
v -18.077475 25.584570 15.718242
v -15.593854 25.214638 3.037532
v -25.290902 16.245725 0.086691
v 5.979348 34.000000 8.324354
v -15.593854 25.214638 3.037532
v -18.077475 25.584570 15.718242
v 4.000000 9.000000 9.000000
v -16.448486 9.069062 2.777465
v -9.962627 9.808552 -11.219392
v -16.448486 9.069062 2.777465
v -25.290902 16.245725 0.086691
v -9.978105 17.162978 -11.241807
v -9.962627 9.808552 -11.219392
v -25.290902 16.245725 0.086691
v -15.593854 25.214638 3.037532
v -6.148075 25.457164 -5.695509
v -9.978105 17.162978 -11.241807
v 5.979348 34.000000 8.324354
v -6.148075 25.457164 -5.695509
v -15.593854 25.214638 3.037532
v 4.000000 9.000000 9.000000
v -9.962627 9.808552 -11.219392
v 8.282386 9.850416 -11.305207
v -9.962627 9.808552 -11.219392
v -9.978105 17.162978 -11.241807
v 9.100205 17.443567 -15.182948
v 8.282386 9.850416 -11.305207
v -9.978105 17.162978 -11.241807
v -6.148075 25.457164 -5.695509
v 7.414801 26.663442 -7.191495
v 9.100205 17.443567 -15.182948
v 5.979348 34.000000 8.324354
v 7.414801 26.663442 -7.191495
v -6.148075 25.457164 -5.695509
v 4.000000 9.000000 9.000000
v 8.282386 9.850416 -11.305207
v 20.608617 9.198725 -2.651648
v 8.282386 9.850416 -11.305207
v 9.100205 17.443567 -15.182948
v 24.426406 16.637751 -5.329988
v 20.608617 9.198725 -2.651648
v 9.100205 17.443567 -15.182948
v 7.414801 26.663442 -7.191495
v 23.031268 26.337412 -4.351240
v 24.426406 16.637751 -5.329988
v 5.979348 34.000000 8.324354
v 23.031268 26.337412 -4.351240
v 7.414801 26.663442 -7.191495
v 4.000000 9.000000 9.000000
v 20.608617 9.198725 -2.651648
v 29.409682 8.628929 9.000000
v 20.608617 9.198725 -2.651648
v 24.426406 16.637751 -5.329988
v 30.398295 17.286441 9.000000
v 29.409682 8.628929 9.000000
v 24.426406 16.637751 -5.329988
v 23.031268 26.337412 -4.351240
v 26.786817 26.539246 9.000000
v 30.398295 17.286441 9.000000
v 5.979348 34.000000 8.324354
v 26.786817 26.539246 9.000000
v 23.031268 26.337412 -4.351240
vt 0.500000 1.000000
vt 0.000000 0.000000
vt 1.000000 0.000000
vt 0.000000 0.000000
vt 1.000000 0.000000
vt 1.000000 1.000000
vt 0.000000 1.000000
vt 0.000000 0.000000
vt 1.000000 0.000000
vt 1.000000 1.000000
vt 0.000000 1.000000
vt 0.500000 1.000000
vt 0.000000 0.000000
vt 1.000000 0.000000
vt 0.500000 1.000000
vt 0.000000 0.000000
vt 1.000000 0.000000
vt 0.000000 0.000000
vt 1.000000 0.000000
vt 1.000000 1.000000
vt 0.000000 1.000000
vt 0.000000 0.000000
vt 1.000000 0.000000
vt 1.000000 1.000000
vt 0.000000 1.000000
vt 0.500000 1.000000
vt 0.000000 0.000000
vt 1.000000 0.000000
vt 0.500000 1.000000
vt 0.000000 0.000000
vt 1.000000 0.000000
vt 0.000000 0.000000
vt 1.000000 0.000000
vt 1.000000 1.000000
vt 0.000000 1.000000
vt 0.000000 0.000000
vt 1.000000 0.000000
vt 1.000000 1.000000
vt 0.000000 1.000000
vt 0.500000 1.000000
vt 0.000000 0.000000
vt 1.000000 0.000000
vt 0.500000 1.000000
vt 0.000000 0.000000
vt 1.000000 0.000000
vt 0.000000 0.000000
vt 1.000000 0.000000
vt 1.000000 1.000000
vt 0.000000 1.000000
vt 0.000000 0.000000
vt 1.000000 0.000000
vt 1.000000 1.000000
vt 0.000000 1.000000
vt 0.500000 1.000000
vt 0.000000 0.000000
vt 1.000000 0.000000
vt 0.500000 1.000000
vt 0.000000 0.000000
vt 1.000000 0.000000
vt 0.000000 0.000000
vt 1.000000 0.000000
vt 1.000000 1.000000
vt 0.000000 1.000000
vt 0.000000 0.000000
vt 1.000000 0.000000
vt 1.000000 1.000000
vt 0.000000 1.000000
vt 0.500000 1.000000
vt 0.000000 0.000000
vt 1.000000 0.000000
vt 0.500000 1.000000
vt 0.000000 0.000000
vt 1.000000 0.000000
vt 0.000000 0.000000
vt 1.000000 0.000000
vt 1.000000 1.000000
vt 0.000000 1.000000
vt 0.000000 0.000000
vt 1.000000 0.000000
vt 1.000000 1.000000
vt 0.000000 1.000000
vt 0.500000 1.000000
vt 0.000000 0.000000
vt 1.000000 0.000000
vt 0.500000 1.000000
vt 0.000000 0.000000
vt 1.000000 0.000000
vt 0.000000 0.000000
vt 1.000000 0.000000
vt 1.000000 1.000000
vt 0.000000 1.000000
vt 0.000000 0.000000
vt 1.000000 0.000000
vt 1.000000 1.000000
vt 0.000000 1.000000
vt 0.500000 1.000000
vt 0.000000 0.000000
vt 1.000000 0.000000
vt 0.500000 1.000000
vt 0.000000 0.000000
vt 1.000000 0.000000
vt 0.000000 0.000000
vt 1.000000 0.000000
vt 1.000000 1.000000
vt 0.000000 1.000000
vt 0.000000 0.000000
vt 1.000000 0.000000
vt 1.000000 1.000000
vt 0.000000 1.000000
vt 0.500000 1.000000
vt 0.000000 0.000000
vt 1.000000 0.000000
vt 0.500000 1.000000
vt 0.000000 0.000000
vt 1.000000 0.000000
vt 0.000000 0.000000
vt 1.000000 0.000000
vt 1.000000 1.000000
vt 0.000000 1.000000
vt 0.000000 0.000000
vt 1.000000 0.000000
vt 1.000000 1.000000
vt 0.000000 1.000000
vt 0.500000 1.000000
vt 0.000000 0.000000
vt 1.000000 0.000000
vt 0.500000 1.000000
vt 0.000000 0.000000
vt 1.000000 0.000000
vt 0.000000 0.000000
vt 1.000000 0.000000
vt 1.000000 1.000000
vt 0.000000 1.000000
vt 0.000000 0.000000
vt 1.000000 0.000000
vt 1.000000 1.000000
vt 0.000000 1.000000
vt 0.500000 1.000000
vt 0.000000 0.000000
vt 1.000000 0.000000
vt 0.500000 1.000000
vt 0.000000 0.000000
vt 1.000000 0.000000
vt 0.000000 0.000000
vt 1.000000 0.000000
vt 1.000000 1.000000
vt 0.000000 1.000000
vt 0.000000 0.000000
vt 1.000000 0.000000
vt 1.000000 1.000000
vt 0.000000 1.000000
vt 0.500000 1.000000
vt 0.000000 0.000000
vt 1.000000 0.000000
vt 0.500000 1.000000
vt 0.000000 0.000000
vt 1.000000 0.000000
vt 0.000000 0.000000
vt 1.000000 0.000000
vt 1.000000 1.000000
vt 0.000000 1.000000
vt 0.000000 0.000000
vt 1.000000 0.000000
vt 1.000000 1.000000
vt 0.000000 1.000000
vt 0.500000 1.000000
vt 0.000000 0.000000
vt 1.000000 0.000000
vt 0.500000 1.000000
vt 0.000000 0.000000
vt 1.000000 0.000000
vt 0.000000 0.000000
vt 1.000000 0.000000
vt 1.000000 1.000000
vt 0.000000 1.000000
vt 0.000000 0.000000
vt 1.000000 0.000000
vt 1.000000 1.000000
vt 0.000000 1.000000
vt 0.500000 1.000000
vt 0.000000 0.000000
vt 1.000000 0.000000
vt 0.500000 1.000000
vt 0.000000 0.000000
vt 1.000000 0.000000
vt 0.000000 0.000000
vt 1.000000 0.000000
vt 1.000000 1.000000
vt 0.000000 1.000000
vt 0.000000 0.000000
vt 1.000000 0.000000
vt 1.000000 1.000000
vt 0.000000 1.000000
vt 0.500000 1.000000
vt 0.000000 0.000000
vt 1.000000 0.000000
vt 0.500000 1.000000
vt 0.000000 0.000000
vt 1.000000 0.000000
vt 0.000000 0.000000
vt 1.000000 0.000000
vt 1.000000 1.000000
vt 0.000000 1.000000
vt 0.000000 0.000000
vt 1.000000 0.000000
vt 1.000000 1.000000
vt 0.000000 1.000000
vt 0.500000 1.000000
vt 0.000000 0.000000
vt 1.000000 0.000000
vt 0.500000 1.000000
vt 0.000000 0.000000
vt 1.000000 0.000000
vt 0.000000 0.000000
vt 1.000000 0.000000
vt 1.000000 1.000000
vt 0.000000 1.000000
vt 0.000000 0.000000
vt 1.000000 0.000000
vt 1.000000 1.000000
vt 0.000000 1.000000
vt 0.500000 1.000000
vt 0.000000 0.000000
vt 1.000000 0.000000
vt 0.500000 1.000000
vt 0.000000 0.000000
vt 1.000000 0.000000
vt 0.000000 0.000000
vt 1.000000 0.000000
vt 1.000000 1.000000
vt 0.000000 1.000000
vt 0.000000 0.000000
vt 1.000000 0.000000
vt 1.000000 1.000000
vt 0.000000 1.000000
vt 0.500000 1.000000
vt 0.000000 0.000000
vt 1.000000 0.000000
vt 0.500000 1.000000
vt 0.000000 0.000000
vt 1.000000 0.000000
vt 0.000000 0.000000
vt 1.000000 0.000000
vt 1.000000 1.000000
vt 0.000000 1.000000
vt 0.000000 0.000000
vt 1.000000 0.000000
vt 1.000000 1.000000
vt 0.000000 1.000000
vt 0.500000 1.000000
vt 0.000000 0.000000
vt 1.000000 0.000000
vt 0.500000 1.000000
vt 0.000000 0.000000
vt 1.000000 0.000000
vt 0.000000 0.000000
vt 1.000000 0.000000
vt 1.000000 1.000000
vt 0.000000 1.000000
vt 0.000000 0.000000
vt 1.000000 0.000000
vt 1.000000 1.000000
vt 0.000000 1.000000
vt 0.500000 1.000000
vt 0.000000 0.000000
vt 1.000000 0.000000
vt 0.500000 1.000000
vt 0.000000 0.000000
vt 1.000000 0.000000
vt 0.000000 0.000000
vt 1.000000 0.000000
vt 1.000000 1.000000
vt 0.000000 1.000000
vt 0.000000 0.000000
vt 1.000000 0.000000
vt 1.000000 1.000000
vt 0.000000 1.000000
vt 0.500000 1.000000
vt 0.000000 0.000000
vt 1.000000 0.000000
vt 0.500000 1.000000
vt 0.000000 0.000000
vt 1.000000 0.000000
vt 0.000000 0.000000
vt 1.000000 0.000000
vt 1.000000 1.000000
vt 0.000000 1.000000
vt 0.000000 0.000000
vt 1.000000 0.000000
vt 1.000000 1.000000
vt 0.000000 1.000000
vt 0.500000 1.000000
vt 0.000000 0.000000
vt 1.000000 0.000000
vt 0.500000 1.000000
vt 0.000000 0.000000
vt 1.000000 0.000000
vt 0.000000 0.000000
vt 1.000000 0.000000
vt 1.000000 1.000000
vt 0.000000 1.000000
vt 0.000000 0.000000
vt 1.000000 0.000000
vt 1.000000 1.000000
vt 0.000000 1.000000
vt 0.500000 1.000000
vt 0.000000 0.000000
vt 1.000000 0.000000
vt 0.500000 1.000000
vt 0.000000 0.000000
vt 1.000000 0.000000
vt 0.000000 0.000000
vt 1.000000 0.000000
vt 1.000000 1.000000
vt 0.000000 1.000000
vt 0.000000 0.000000
vt 1.000000 0.000000
vt 1.000000 1.000000
vt 0.000000 1.000000
vt 0.500000 1.000000
vt 0.000000 0.000000
vt 1.000000 0.000000
vt 0.500000 1.000000
vt 0.000000 0.000000
vt 1.000000 0.000000
vt 0.000000 0.000000
vt 1.000000 0.000000
vt 1.000000 1.000000
vt 0.000000 1.000000
vt 0.000000 0.000000
vt 1.000000 0.000000
vt 1.000000 1.000000
vt 0.000000 1.000000
vt 0.500000 1.000000
vt 0.000000 0.000000
vt 1.000000 0.000000
vt 0.500000 1.000000
vt 0.000000 0.000000
vt 1.000000 0.000000
vt 0.000000 0.000000
vt 1.000000 0.000000
vt 1.000000 1.000000
vt 0.000000 1.000000
vt 0.000000 0.000000
vt 1.000000 0.000000
vt 1.000000 1.000000
vt 0.000000 1.000000
vt 0.500000 1.000000
vt 0.000000 0.000000
vt 1.000000 0.000000
vt 0.500000 1.000000
vt 0.000000 0.000000
vt 1.000000 0.000000
vt 0.000000 0.000000
vt 1.000000 0.000000
vt 1.000000 1.000000
vt 0.000000 1.000000
vt 0.000000 0.000000
vt 1.000000 0.000000
vt 1.000000 1.000000
vt 0.000000 1.000000
vt 0.500000 1.000000
vt 0.000000 0.000000
vt 1.000000 0.000000
vt 0.500000 1.000000
vt 0.000000 0.000000
vt 1.000000 0.000000
vt 0.000000 0.000000
vt 1.000000 0.000000
vt 1.000000 1.000000
vt 0.000000 1.000000
vt 0.000000 0.000000
vt 1.000000 0.000000
vt 1.000000 1.000000
vt 0.000000 1.000000
vt 0.500000 1.000000
vt 0.000000 0.000000
vt 1.000000 0.000000
vt 0.500000 1.000000
vt 0.000000 0.000000
vt 1.000000 0.000000
vt 0.000000 0.000000
vt 1.000000 0.000000
vt 1.000000 1.000000
vt 0.000000 1.000000
vt 0.000000 0.000000
vt 1.000000 0.000000
vt 1.000000 1.000000
vt 0.000000 1.000000
vt 0.500000 1.000000
vt 0.000000 0.000000
vt 1.000000 0.000000
s 1
usemtl models/caelum/world/environment/rock_coastal.png
f 1/1 2/2 3/3
f 4/4 5/5 6/6 7/7
f 8/8 9/9 10/10 11/11
f 12/12 13/13 14/14
f 15/15 16/16 17/17
f 18/18 19/19 20/20 21/21
f 22/22 23/23 24/24 25/25
f 26/26 27/27 28/28
f 29/29 30/30 31/31
f 32/32 33/33 34/34 35/35
f 36/36 37/37 38/38 39/39
f 40/40 41/41 42/42
f 43/43 44/44 45/45
f 46/46 47/47 48/48 49/49
f 50/50 51/51 52/52 53/53
f 54/54 55/55 56/56
f 57/57 58/58 59/59
f 60/60 61/61 62/62 63/63
f 64/64 65/65 66/66 67/67
f 68/68 69/69 70/70
f 71/71 72/72 73/73
f 74/74 75/75 76/76 77/77
f 78/78 79/79 80/80 81/81
f 82/82 83/83 84/84
f 85/85 86/86 87/87
f 88/88 89/89 90/90 91/91
f 92/92 93/93 94/94 95/95
f 96/96 97/97 98/98
f 99/99 100/100 101/101
f 102/102 103/103 104/104 105/105
f 106/106 107/107 108/108 109/109
f 110/110 111/111 112/112
f 113/113 114/114 115/115
f 116/116 117/117 118/118 119/119
f 120/120 121/121 122/122 123/123
f 124/124 125/125 126/126
f 127/127 128/128 129/129
f 130/130 131/131 132/132 133/133
f 134/134 135/135 136/136 137/137
f 138/138 139/139 140/140
f 141/141 142/142 143/143
f 144/144 145/145 146/146 147/147
f 148/148 149/149 150/150 151/151
f 152/152 153/153 154/154
f 155/155 156/156 157/157
f 158/158 159/159 160/160 161/161
f 162/162 163/163 164/164 165/165
f 166/166 167/167 168/168
f 169/169 170/170 171/171
f 172/172 173/173 174/174 175/175
f 176/176 177/177 178/178 179/179
f 180/180 181/181 182/182
f 183/183 184/184 185/185
f 186/186 187/187 188/188 189/189
f 190/190 191/191 192/192 193/193
f 194/194 195/195 196/196
f 197/197 198/198 199/199
f 200/200 201/201 202/202 203/203
f 204/204 205/205 206/206 207/207
f 208/208 209/209 210/210
f 211/211 212/212 213/213
f 214/214 215/215 216/216 217/217
f 218/218 219/219 220/220 221/221
f 222/222 223/223 224/224
f 225/225 226/226 227/227
f 228/228 229/229 230/230 231/231
f 232/232 233/233 234/234 235/235
f 236/236 237/237 238/238
f 239/239 240/240 241/241
f 242/242 243/243 244/244 245/245
f 246/246 247/247 248/248 249/249
f 250/250 251/251 252/252
f 253/253 254/254 255/255
f 256/256 257/257 258/258 259/259
f 260/260 261/261 262/262 263/263
f 264/264 265/265 266/266
f 267/267 268/268 269/269
f 270/270 271/271 272/272 273/273
f 274/274 275/275 276/276 277/277
f 278/278 279/279 280/280
f 281/281 282/282 283/283
f 284/284 285/285 286/286 287/287
f 288/288 289/289 290/290 291/291
f 292/292 293/293 294/294
f 295/295 296/296 297/297
f 298/298 299/299 300/300 301/301
f 302/302 303/303 304/304 305/305
f 306/306 307/307 308/308
f 309/309 310/310 311/311
f 312/312 313/313 314/314 315/315
f 316/316 317/317 318/318 319/319
f 320/320 321/321 322/322
f 323/323 324/324 325/325
f 326/326 327/327 328/328 329/329
f 330/330 331/331 332/332 333/333
f 334/334 335/335 336/336
f 337/337 338/338 339/339
f 340/340 341/341 342/342 343/343
f 344/344 345/345 346/346 347/347
f 348/348 349/349 350/350
f 351/351 352/352 353/353
f 354/354 355/355 356/356 357/357
f 358/358 359/359 360/360 361/361
f 362/362 363/363 364/364
f 365/365 366/366 367/367
f 368/368 369/369 370/370 371/371
f 372/372 373/373 374/374 375/375
f 376/376 377/377 378/378
f 379/379 380/380 381/381
f 382/382 383/383 384/384 385/385
f 386/386 387/387 388/388 389/389
f 390/390 391/391 392/392
