# Modelo original generado para Caelum Argenteum.
# Ejes OBJ: X ancho, Y altura, Z profundidad.
o ca_rock_basalt3
v -15.867445 0.000000 -14.240371
v -30.634043 0.219556 -5.713929
v -27.028701 63.896031 -4.179170
v -14.920091 63.715995 -11.170852
v -15.867445 0.000000 2.812512
v -30.634043 0.219556 -5.713929
v -15.867445 0.000000 -14.240371
v -14.920091 63.715995 2.812512
v -14.920091 63.715995 -11.170852
v -27.028701 63.896031 -4.179170
v -30.634043 0.219556 -5.713929
v -30.634043 0.219556 11.338954
v -27.028701 63.896031 9.804194
v -27.028701 63.896031 -4.179170
v -15.867445 0.000000 2.812512
v -30.634043 0.219556 11.338954
v -30.634043 0.219556 -5.713929
v -14.920091 63.715995 2.812512
v -27.028701 63.896031 -4.179170
v -27.028701 63.896031 9.804194
v -30.634043 0.219556 11.338954
v -15.867445 0.000000 19.865395
v -14.920091 63.715995 16.795876
v -27.028701 63.896031 9.804194
v -15.867445 0.000000 2.812512
v -15.867445 0.000000 19.865395
v -30.634043 0.219556 11.338954
v -14.920091 63.715995 2.812512
v -27.028701 63.896031 9.804194
v -14.920091 63.715995 16.795876
v -15.867445 0.000000 19.865395
v -1.100847 -0.219556 11.338954
v -2.811481 63.535960 9.804194
v -14.920091 63.715995 16.795876
v -15.867445 0.000000 2.812512
v -1.100847 -0.219556 11.338954
v -15.867445 0.000000 19.865395
v -14.920091 63.715995 2.812512
v -14.920091 63.715995 16.795876
v -2.811481 63.535960 9.804194
v -1.100847 -0.219556 11.338954
v -1.100847 -0.219556 -5.713929
v -2.811481 63.535960 -4.179170
v -2.811481 63.535960 9.804194
v -15.867445 0.000000 2.812512
v -1.100847 -0.219556 -5.713929
v -1.100847 -0.219556 11.338954
v -14.920091 63.715995 2.812512
v -2.811481 63.535960 9.804194
v -2.811481 63.535960 -4.179170
v -1.100847 -0.219556 -5.713929
v -15.867445 0.000000 -14.240371
v -14.920091 63.715995 -11.170852
v -2.811481 63.535960 -4.179170
v -15.867445 0.000000 2.812512
v -15.867445 0.000000 -14.240371
v -1.100847 -0.219556 -5.713929
v -14.920091 63.715995 2.812512
v -2.811481 63.535960 -4.179170
v -14.920091 63.715995 -11.170852
v -2.496060 0.091505 -17.044244
v -18.140568 0.702962 -5.299515
v -11.512311 87.332850 -3.915941
v 1.316186 86.831455 -13.546619
v -0.154840 0.000000 2.387007
v -18.140568 0.702962 -5.299515
v -2.496060 0.091505 -17.044244
v 3.235986 86.756421 2.387007
v 1.316186 86.831455 -13.546619
v -11.512311 87.332850 -3.915941
v -18.140568 0.702962 -5.299515
v -15.799349 0.611457 14.131736
v -9.592511 87.257815 12.017685
v -11.512311 87.332850 -3.915941
v -0.154840 0.000000 2.387007
v -15.799349 0.611457 14.131736
v -18.140568 0.702962 -5.299515
v 3.235986 86.756421 2.387007
v -11.512311 87.332850 -3.915941
v -9.592511 87.257815 12.017685
v -15.799349 0.611457 14.131736
v 2.186380 -0.091505 21.818258
v 5.155787 86.681386 18.320633
v -9.592511 87.257815 12.017685
v -0.154840 0.000000 2.387007
v 2.186380 -0.091505 21.818258
v -15.799349 0.611457 14.131736
v 3.235986 86.756421 2.387007
v -9.592511 87.257815 12.017685
v 5.155787 86.681386 18.320633
v 2.186380 -0.091505 21.818258
v 17.830888 -0.702962 10.073529
v 17.984284 86.179992 8.689955
v 5.155787 86.681386 18.320633
v -0.154840 0.000000 2.387007
v 17.830888 -0.702962 10.073529
v 2.186380 -0.091505 21.818258
v 3.235986 86.756421 2.387007
v 5.155787 86.681386 18.320633
v 17.984284 86.179992 8.689955
v 17.830888 -0.702962 10.073529
v 15.489669 -0.611457 -9.357722
v 16.064483 86.255026 -7.243671
v 17.984284 86.179992 8.689955
v -0.154840 0.000000 2.387007
v 15.489669 -0.611457 -9.357722
v 17.830888 -0.702962 10.073529
v 3.235986 86.756421 2.387007
v 17.984284 86.179992 8.689955
v 16.064483 86.255026 -7.243671
v 15.489669 -0.611457 -9.357722
v -2.496060 0.091505 -17.044244
v 1.316186 86.831455 -13.546619
v 16.064483 86.255026 -7.243671
v -0.154840 0.000000 2.387007
v -2.496060 0.091505 -17.044244
v 15.489669 -0.611457 -9.357722
v 3.235986 86.756421 2.387007
v 16.064483 86.255026 -7.243671
v 1.316186 86.831455 -13.546619
v 20.375337 -0.114436 -20.377216
v 10.082518 -0.462196 -10.518024
v 10.681321 54.777999 -9.799944
v 19.121432 55.063162 -17.884482
v 23.762369 0.000000 -6.528692
v 10.082518 -0.462196 -10.518024
v 20.375337 -0.114436 -20.377216
v 21.898799 55.157000 -6.528692
v 19.121432 55.063162 -17.884482
v 10.681321 54.777999 -9.799944
v 10.082518 -0.462196 -10.518024
v 13.469551 -0.347760 3.330501
v 13.458688 54.871837 1.555846
v 10.681321 54.777999 -9.799944
v 23.762369 0.000000 -6.528692
v 13.469551 -0.347760 3.330501
v 10.082518 -0.462196 -10.518024
v 21.898799 55.157000 -6.528692
v 10.681321 54.777999 -9.799944
v 13.458688 54.871837 1.555846
v 13.469551 -0.347760 3.330501
v 27.149402 0.114436 7.319833
v 24.676166 55.250838 4.827099
v 13.458688 54.871837 1.555846
v 23.762369 0.000000 -6.528692
v 27.149402 0.114436 7.319833
v 13.469551 -0.347760 3.330501
v 21.898799 55.157000 -6.528692
v 13.458688 54.871837 1.555846
v 24.676166 55.250838 4.827099
v 27.149402 0.114436 7.319833
v 37.442221 0.462196 -2.539359
v 33.116277 55.536001 -3.257439
v 24.676166 55.250838 4.827099
v 23.762369 0.000000 -6.528692
v 37.442221 0.462196 -2.539359
v 27.149402 0.114436 7.319833
v 21.898799 55.157000 -6.528692
v 24.676166 55.250838 4.827099
v 33.116277 55.536001 -3.257439
v 37.442221 0.462196 -2.539359
v 34.055188 0.347760 -16.387884
v 30.338911 55.442163 -14.613229
v 33.116277 55.536001 -3.257439
v 23.762369 0.000000 -6.528692
v 34.055188 0.347760 -16.387884
v 37.442221 0.462196 -2.539359
v 21.898799 55.157000 -6.528692
v 33.116277 55.536001 -3.257439
v 30.338911 55.442163 -14.613229
v 34.055188 0.347760 -16.387884
v 20.375337 -0.114436 -20.377216
v 19.121432 55.063162 -17.884482
v 30.338911 55.442163 -14.613229
v 23.762369 0.000000 -6.528692
v 20.375337 -0.114436 -20.377216
v 34.055188 0.347760 -16.387884
v 21.898799 55.157000 -6.528692
v 30.338911 55.442163 -14.613229
v 19.121432 55.063162 -17.884482
v -8.469280 0.044931 2.227277
v -17.454491 0.125844 13.176809
v -14.454471 53.912571 13.592064
v -7.086598 53.846223 4.613447
v -3.479696 0.000000 15.483780
v -17.454491 0.125844 13.176809
v -8.469280 0.044931 2.227277
v -2.995140 53.809379 15.483780
v -7.086598 53.846223 4.613447
v -14.454471 53.912571 13.592064
v -17.454491 0.125844 13.176809
v -12.464908 0.080912 26.433312
v -10.363013 53.875728 24.462397
v -14.454471 53.912571 13.592064
v -3.479696 0.000000 15.483780
v -12.464908 0.080912 26.433312
v -17.454491 0.125844 13.176809
v -2.995140 53.809379 15.483780
v -14.454471 53.912571 13.592064
v -10.363013 53.875728 24.462397
v -12.464908 0.080912 26.433312
v 1.509887 -0.044931 28.740283
v 1.096318 53.772536 26.354112
v -10.363013 53.875728 24.462397
v -3.479696 0.000000 15.483780
v 1.509887 -0.044931 28.740283
v -12.464908 0.080912 26.433312
v -2.995140 53.809379 15.483780
v -10.363013 53.875728 24.462397
v 1.096318 53.772536 26.354112
v 1.509887 -0.044931 28.740283
v 10.495098 -0.125844 17.790750
v 8.464191 53.706188 17.375496
v 1.096318 53.772536 26.354112
v -3.479696 0.000000 15.483780
v 10.495098 -0.125844 17.790750
v 1.509887 -0.044931 28.740283
v -2.995140 53.809379 15.483780
v 1.096318 53.772536 26.354112
v 8.464191 53.706188 17.375496
v 10.495098 -0.125844 17.790750
v 5.505515 -0.080912 4.534247
v 4.372733 53.743031 6.505163
v 8.464191 53.706188 17.375496
v -3.479696 0.000000 15.483780
v 5.505515 -0.080912 4.534247
v 10.495098 -0.125844 17.790750
v -2.995140 53.809379 15.483780
v 8.464191 53.706188 17.375496
v 4.372733 53.743031 6.505163
v 5.505515 -0.080912 4.534247
v -8.469280 0.044931 2.227277
v -7.086598 53.846223 4.613447
v 4.372733 53.743031 6.505163
v -3.479696 0.000000 15.483780
v -8.469280 0.044931 2.227277
v 5.505515 -0.080912 4.534247
v -2.995140 53.809379 15.483780
v 4.372733 53.743031 6.505163
v -7.086598 53.846223 4.613447
vt 0.000000 0.000000
vt 1.000000 0.000000
vt 1.000000 1.000000
vt 0.000000 1.000000
vt 0.500000 1.000000
vt 0.000000 0.000000
vt 1.000000 0.000000
vt 0.500000 1.000000
vt 0.000000 0.000000
vt 1.000000 0.000000
vt 0.000000 0.000000
vt 1.000000 0.000000
vt 1.000000 1.000000
vt 0.000000 1.000000
vt 0.500000 1.000000
vt 0.000000 0.000000
vt 1.000000 0.000000
vt 0.500000 1.000000
vt 0.000000 0.000000
vt 1.000000 0.000000
vt 0.000000 0.000000
vt 1.000000 0.000000
vt 1.000000 1.000000
vt 0.000000 1.000000
vt 0.500000 1.000000
vt 0.000000 0.000000
vt 1.000000 0.000000
vt 0.500000 1.000000
vt 0.000000 0.000000
vt 1.000000 0.000000
vt 0.000000 0.000000
vt 1.000000 0.000000
vt 1.000000 1.000000
vt 0.000000 1.000000
vt 0.500000 1.000000
vt 0.000000 0.000000
vt 1.000000 0.000000
vt 0.500000 1.000000
vt 0.000000 0.000000
vt 1.000000 0.000000
vt 0.000000 0.000000
vt 1.000000 0.000000
vt 1.000000 1.000000
vt 0.000000 1.000000
vt 0.500000 1.000000
vt 0.000000 0.000000
vt 1.000000 0.000000
vt 0.500000 1.000000
vt 0.000000 0.000000
vt 1.000000 0.000000
vt 0.000000 0.000000
vt 1.000000 0.000000
vt 1.000000 1.000000
vt 0.000000 1.000000
vt 0.500000 1.000000
vt 0.000000 0.000000
vt 1.000000 0.000000
vt 0.500000 1.000000
vt 0.000000 0.000000
vt 1.000000 0.000000
vt 0.000000 0.000000
vt 1.000000 0.000000
vt 1.000000 1.000000
vt 0.000000 1.000000
vt 0.500000 1.000000
vt 0.000000 0.000000
vt 1.000000 0.000000
vt 0.500000 1.000000
vt 0.000000 0.000000
vt 1.000000 0.000000
vt 0.000000 0.000000
vt 1.000000 0.000000
vt 1.000000 1.000000
vt 0.000000 1.000000
vt 0.500000 1.000000
vt 0.000000 0.000000
vt 1.000000 0.000000
vt 0.500000 1.000000
vt 0.000000 0.000000
vt 1.000000 0.000000
vt 0.000000 0.000000
vt 1.000000 0.000000
vt 1.000000 1.000000
vt 0.000000 1.000000
vt 0.500000 1.000000
vt 0.000000 0.000000
vt 1.000000 0.000000
vt 0.500000 1.000000
vt 0.000000 0.000000
vt 1.000000 0.000000
vt 0.000000 0.000000
vt 1.000000 0.000000
vt 1.000000 1.000000
vt 0.000000 1.000000
vt 0.500000 1.000000
vt 0.000000 0.000000
vt 1.000000 0.000000
vt 0.500000 1.000000
vt 0.000000 0.000000
vt 1.000000 0.000000
vt 0.000000 0.000000
vt 1.000000 0.000000
vt 1.000000 1.000000
vt 0.000000 1.000000
vt 0.500000 1.000000
vt 0.000000 0.000000
vt 1.000000 0.000000
vt 0.500000 1.000000
vt 0.000000 0.000000
vt 1.000000 0.000000
vt 0.000000 0.000000
vt 1.000000 0.000000
vt 1.000000 1.000000
vt 0.000000 1.000000
vt 0.500000 1.000000
vt 0.000000 0.000000
vt 1.000000 0.000000
vt 0.500000 1.000000
vt 0.000000 0.000000
vt 1.000000 0.000000
vt 0.000000 0.000000
vt 1.000000 0.000000
vt 1.000000 1.000000
vt 0.000000 1.000000
vt 0.500000 1.000000
vt 0.000000 0.000000
vt 1.000000 0.000000
vt 0.500000 1.000000
vt 0.000000 0.000000
vt 1.000000 0.000000
vt 0.000000 0.000000
vt 1.000000 0.000000
vt 1.000000 1.000000
vt 0.000000 1.000000
vt 0.500000 1.000000
vt 0.000000 0.000000
vt 1.000000 0.000000
vt 0.500000 1.000000
vt 0.000000 0.000000
vt 1.000000 0.000000
vt 0.000000 0.000000
vt 1.000000 0.000000
vt 1.000000 1.000000
vt 0.000000 1.000000
vt 0.500000 1.000000
vt 0.000000 0.000000
vt 1.000000 0.000000
vt 0.500000 1.000000
vt 0.000000 0.000000
vt 1.000000 0.000000
vt 0.000000 0.000000
vt 1.000000 0.000000
vt 1.000000 1.000000
vt 0.000000 1.000000
vt 0.500000 1.000000
vt 0.000000 0.000000
vt 1.000000 0.000000
vt 0.500000 1.000000
vt 0.000000 0.000000
vt 1.000000 0.000000
vt 0.000000 0.000000
vt 1.000000 0.000000
vt 1.000000 1.000000
vt 0.000000 1.000000
vt 0.500000 1.000000
vt 0.000000 0.000000
vt 1.000000 0.000000
vt 0.500000 1.000000
vt 0.000000 0.000000
vt 1.000000 0.000000
vt 0.000000 0.000000
vt 1.000000 0.000000
vt 1.000000 1.000000
vt 0.000000 1.000000
vt 0.500000 1.000000
vt 0.000000 0.000000
vt 1.000000 0.000000
vt 0.500000 1.000000
vt 0.000000 0.000000
vt 1.000000 0.000000
vt 0.000000 0.000000
vt 1.000000 0.000000
vt 1.000000 1.000000
vt 0.000000 1.000000
vt 0.500000 1.000000
vt 0.000000 0.000000
vt 1.000000 0.000000
vt 0.500000 1.000000
vt 0.000000 0.000000
vt 1.000000 0.000000
vt 0.000000 0.000000
vt 1.000000 0.000000
vt 1.000000 1.000000
vt 0.000000 1.000000
vt 0.500000 1.000000
vt 0.000000 0.000000
vt 1.000000 0.000000
vt 0.500000 1.000000
vt 0.000000 0.000000
vt 1.000000 0.000000
vt 0.000000 0.000000
vt 1.000000 0.000000
vt 1.000000 1.000000
vt 0.000000 1.000000
vt 0.500000 1.000000
vt 0.000000 0.000000
vt 1.000000 0.000000
vt 0.500000 1.000000
vt 0.000000 0.000000
vt 1.000000 0.000000
vt 0.000000 0.000000
vt 1.000000 0.000000
vt 1.000000 1.000000
vt 0.000000 1.000000
vt 0.500000 1.000000
vt 0.000000 0.000000
vt 1.000000 0.000000
vt 0.500000 1.000000
vt 0.000000 0.000000
vt 1.000000 0.000000
vt 0.000000 0.000000
vt 1.000000 0.000000
vt 1.000000 1.000000
vt 0.000000 1.000000
vt 0.500000 1.000000
vt 0.000000 0.000000
vt 1.000000 0.000000
vt 0.500000 1.000000
vt 0.000000 0.000000
vt 1.000000 0.000000
vt 0.000000 0.000000
vt 1.000000 0.000000
vt 1.000000 1.000000
vt 0.000000 1.000000
vt 0.500000 1.000000
vt 0.000000 0.000000
vt 1.000000 0.000000
vt 0.500000 1.000000
vt 0.000000 0.000000
vt 1.000000 0.000000
s 1
usemtl models/caelum/world/environment/rock_basalt.png
f 1/1 2/2 3/3 4/4
f 5/5 6/6 7/7
f 8/8 9/9 10/10
f 11/11 12/12 13/13 14/14
f 15/15 16/16 17/17
f 18/18 19/19 20/20
f 21/21 22/22 23/23 24/24
f 25/25 26/26 27/27
f 28/28 29/29 30/30
f 31/31 32/32 33/33 34/34
f 35/35 36/36 37/37
f 38/38 39/39 40/40
f 41/41 42/42 43/43 44/44
f 45/45 46/46 47/47
f 48/48 49/49 50/50
f 51/51 52/52 53/53 54/54
f 55/55 56/56 57/57
f 58/58 59/59 60/60
f 61/61 62/62 63/63 64/64
f 65/65 66/66 67/67
f 68/68 69/69 70/70
f 71/71 72/72 73/73 74/74
f 75/75 76/76 77/77
f 78/78 79/79 80/80
f 81/81 82/82 83/83 84/84
f 85/85 86/86 87/87
f 88/88 89/89 90/90
f 91/91 92/92 93/93 94/94
f 95/95 96/96 97/97
f 98/98 99/99 100/100
f 101/101 102/102 103/103 104/104
f 105/105 106/106 107/107
f 108/108 109/109 110/110
f 111/111 112/112 113/113 114/114
f 115/115 116/116 117/117
f 118/118 119/119 120/120
f 121/121 122/122 123/123 124/124
f 125/125 126/126 127/127
f 128/128 129/129 130/130
f 131/131 132/132 133/133 134/134
f 135/135 136/136 137/137
f 138/138 139/139 140/140
f 141/141 142/142 143/143 144/144
f 145/145 146/146 147/147
f 148/148 149/149 150/150
f 151/151 152/152 153/153 154/154
f 155/155 156/156 157/157
f 158/158 159/159 160/160
f 161/161 162/162 163/163 164/164
f 165/165 166/166 167/167
f 168/168 169/169 170/170
f 171/171 172/172 173/173 174/174
f 175/175 176/176 177/177
f 178/178 179/179 180/180
f 181/181 182/182 183/183 184/184
f 185/185 186/186 187/187
f 188/188 189/189 190/190
f 191/191 192/192 193/193 194/194
f 195/195 196/196 197/197
f 198/198 199/199 200/200
f 201/201 202/202 203/203 204/204
f 205/205 206/206 207/207
f 208/208 209/209 210/210
f 211/211 212/212 213/213 214/214
f 215/215 216/216 217/217
f 218/218 219/219 220/220
f 221/221 222/222 223/223 224/224
f 225/225 226/226 227/227
f 228/228 229/229 230/230
f 231/231 232/232 233/233 234/234
f 235/235 236/236 237/237
f 238/238 239/239 240/240
