# Modelo original generado para Caelum Argenteum.
# Ejes OBJ: X ancho, Y altura, Z profundidad.
o ca_rock_coastal2
v -18.000000 0.000000 5.000000
v 16.273526 -0.295848 5.000000
v 3.845588 -0.644148 18.022973
v 16.273526 -0.295848 5.000000
v 18.510869 8.779275 5.000000
v 13.686939 9.598293 23.889771
v 3.845588 -0.644148 18.022973
v 18.510869 8.779275 5.000000
v 12.380987 20.717122 5.000000
v 8.739234 20.040705 20.940259
v 13.686939 9.598293 23.889771
v -25.554612 30.000000 3.808900
v 8.739234 20.040705 20.940259
v 12.380987 20.717122 5.000000
v -18.000000 0.000000 5.000000
v 3.845588 -0.644148 18.022973
v -7.406183 -0.977193 31.752342
v 3.845588 -0.644148 18.022973
v 13.686939 9.598293 23.889771
v -5.521018 9.884595 36.512909
v -7.406183 -0.977193 31.752342
v 13.686939 9.598293 23.889771
v 8.739234 20.040705 20.940259
v -10.094173 20.289110 24.964417
v -5.521018 9.884595 36.512909
v -25.554612 30.000000 3.808900
v -10.094173 20.289110 24.964417
v 8.739234 20.040705 20.940259
v -18.000000 0.000000 5.000000
v -7.406183 -0.977193 31.752342
v -28.259193 -0.078356 30.907324
v -7.406183 -0.977193 31.752342
v -5.521018 9.884595 36.512909
v -31.647044 10.184315 39.462591
v -28.259193 -0.078356 30.907324
v -5.521018 9.884595 36.512909
v -10.094173 20.289110 24.964417
v -27.113214 19.428806 28.013407
v -31.647044 10.184315 39.462591
v -25.554612 30.000000 3.808900
v -27.113214 19.428806 28.013407
v -10.094173 20.289110 24.964417
v -18.000000 0.000000 5.000000
v -28.259193 -0.078356 30.907324
v -42.150177 0.645495 19.396825
v -28.259193 -0.078356 30.907324
v -31.647044 10.184315 39.462591
v -53.768975 9.189371 26.323226
v -42.150177 0.645495 19.396825
v -31.647044 10.184315 39.462591
v -27.113214 19.428806 28.013407
v -42.119629 21.427335 19.378614
v -53.768975 9.189371 26.323226
v -25.554612 30.000000 3.808900
v -42.119629 21.427335 19.378614
v -27.113214 19.428806 28.013407
v -18.000000 0.000000 5.000000
v -42.150177 0.645495 19.396825
v -48.122480 0.590194 5.000000
v -42.150177 0.645495 19.396825
v -53.768975 9.189371 26.323226
v -52.305246 8.698489 5.000000
v -48.122480 0.590194 5.000000
v -53.768975 9.189371 26.323226
v -42.119629 21.427335 19.378614
v -43.214801 19.629086 5.000000
v -52.305246 8.698489 5.000000
v -25.554612 30.000000 3.808900
v -43.214801 19.629086 5.000000
v -42.119629 21.427335 19.378614
v -18.000000 0.000000 5.000000
v -48.122480 0.590194 5.000000
v -49.046806 0.339284 -13.508164
v -48.122480 0.590194 5.000000
v -52.305246 8.698489 5.000000
v -49.090110 10.550848 -13.533979
v -49.046806 0.339284 -13.508164
v -52.305246 8.698489 5.000000
v -43.214801 19.629086 5.000000
v -42.031896 19.833270 -9.326313
v -49.090110 10.550848 -13.533979
v -25.554612 30.000000 3.808900
v -42.031896 19.833270 -9.326313
v -43.214801 19.629086 5.000000
v -18.000000 0.000000 5.000000
v -49.046806 0.339284 -13.508164
v -29.772605 0.135589 -24.729110
v -49.046806 0.339284 -13.508164
v -49.090110 10.550848 -13.533979
v -30.005355 9.570050 -25.316870
v -29.772605 0.135589 -24.729110
v -49.090110 10.550848 -13.533979
v -42.031896 19.833270 -9.326313
v -28.498126 20.506481 -21.510695
v -30.005355 9.570050 -25.316870
v -25.554612 30.000000 3.808900
v -28.498126 20.506481 -21.510695
v -42.031896 19.833270 -9.326313
v -18.000000 0.000000 5.000000
v -29.772605 0.135589 -24.729110
v -9.349443 -1.003758 -16.845069
v -29.772605 0.135589 -24.729110
v -30.005355 9.570050 -25.316870
v -4.956006 9.448936 -27.939723
v -9.349443 -1.003758 -16.845069
v -30.005355 9.570050 -25.316870
v -28.498126 20.506481 -21.510695
v -9.954358 19.484734 -15.317490
v -4.956006 9.448936 -27.939723
v -25.554612 30.000000 3.808900
v -9.954358 19.484734 -15.317490
v -28.498126 20.506481 -21.510695
v -18.000000 0.000000 5.000000
v -9.349443 -1.003758 -16.845069
v 11.454254 0.825275 -12.558784
v -9.349443 -1.003758 -16.845069
v -4.956006 9.448936 -27.939723
v 9.479257 10.527264 -11.381415
v 11.454254 0.825275 -12.558784
v -4.956006 9.448936 -27.939723
v -9.954358 19.484734 -15.317490
v 1.849686 20.869358 -6.833141
v 9.479257 10.527264 -11.381415
v -25.554612 30.000000 3.808900
v 1.849686 20.869358 -6.833141
v -9.954358 19.484734 -15.317490
v -18.000000 0.000000 5.000000
v 11.454254 0.825275 -12.558784
v 16.273526 -0.295848 5.000000
v 11.454254 0.825275 -12.558784
v 9.479257 10.527264 -11.381415
v 18.510869 8.779275 5.000000
v 16.273526 -0.295848 5.000000
v 9.479257 10.527264 -11.381415
v 1.849686 20.869358 -6.833141
v 12.380987 20.717122 5.000000
v 18.510869 8.779275 5.000000
v -25.554612 30.000000 3.808900
v 12.380987 20.717122 5.000000
v 1.849686 20.869358 -6.833141
v 29.000000 0.000000 -7.000000
v 49.236376 -0.394638 -7.000000
v 48.322372 0.807750 7.149872
v 49.236376 -0.394638 -7.000000
v 57.102903 7.250243 -7.000000
v 50.496945 7.495825 8.742323
v 48.322372 0.807750 7.149872
v 57.102903 7.250243 -7.000000
v 49.470911 15.872559 -7.000000
v 46.232420 15.774224 5.619389
v 50.496945 7.495825 8.742323
v 23.778088 24.000000 -10.523808
v 46.232420 15.774224 5.619389
v 49.470911 15.872559 -7.000000
v 29.000000 0.000000 -7.000000
v 48.322372 0.807750 7.149872
v 33.510162 -0.243423 15.322969
v 48.322372 0.807750 7.149872
v 50.496945 7.495825 8.742323
v 34.060440 7.022554 18.046559
v 33.510162 -0.243423 15.322969
v 50.496945 7.495825 8.742323
v 46.232420 15.774224 5.619389
v 32.691784 16.921084 11.272418
v 34.060440 7.022554 18.046559
v 23.778088 24.000000 -10.523808
v 32.691784 16.921084 11.272418
v 46.232420 15.774224 5.619389
v 29.000000 0.000000 -7.000000
v 33.510162 -0.243423 15.322969
v 19.039378 -0.073759 8.056556
v 33.510162 -0.243423 15.322969
v 34.060440 7.022554 18.046559
v 16.271653 8.044362 12.240270
v 19.039378 -0.073759 8.056556
v 34.060440 7.022554 18.046559
v 32.691784 16.921084 11.272418
v 17.609988 16.382616 10.217232
v 16.271653 8.044362 12.240270
v 23.778088 24.000000 -10.523808
v 17.609988 16.382616 10.217232
v 32.691784 16.921084 11.272418
v 29.000000 0.000000 -7.000000
v 19.039378 -0.073759 8.056556
v 10.816444 0.244058 -1.224053
v 19.039378 -0.073759 8.056556
v 16.271653 8.044362 12.240270
v 1.782738 8.008979 1.645475
v 10.816444 0.244058 -1.224053
v 16.271653 8.044362 12.240270
v 17.609988 16.382616 10.217232
v 10.381657 16.480538 -1.085944
v 1.782738 8.008979 1.645475
v 23.778088 24.000000 -10.523808
v 10.381657 16.480538 -1.085944
v 17.609988 16.382616 10.217232
v 29.000000 0.000000 -7.000000
v 10.816444 0.244058 -1.224053
v 6.315687 -0.062229 -14.205598
v 10.816444 0.244058 -1.224053
v 1.782738 8.008979 1.645475
v 4.675178 7.134903 -14.726701
v 6.315687 -0.062229 -14.205598
v 1.782738 8.008979 1.645475
v 10.381657 16.480538 -1.085944
v 13.246445 16.345656 -12.004066
v 4.675178 7.134903 -14.726701
v 23.778088 24.000000 -10.523808
v 13.246445 16.345656 -12.004066
v 10.381657 16.480538 -1.085944
v 29.000000 0.000000 -7.000000
v 6.315687 -0.062229 -14.205598
v 17.292956 0.111150 -24.696461
v 6.315687 -0.062229 -14.205598
v 4.675178 7.134903 -14.726701
v 14.828918 7.336869 -28.421121
v 17.292956 0.111150 -24.696461
v 4.675178 7.134903 -14.726701
v 13.246445 16.345656 -12.004066
v 18.677322 16.722441 -22.603843
v 14.828918 7.336869 -28.421121
v 23.778088 24.000000 -10.523808
v 18.677322 16.722441 -22.603843
v 13.246445 16.345656 -12.004066
v 29.000000 0.000000 -7.000000
v 17.292956 0.111150 -24.696461
v 33.409647 -0.521731 -28.825471
v 17.292956 0.111150 -24.696461
v 14.828918 7.336869 -28.421121
v 34.253407 8.069875 -33.001644
v 33.409647 -0.521731 -28.825471
v 14.828918 7.336869 -28.421121
v 18.677322 16.722441 -22.603843
v 33.059146 17.049697 -27.090670
v 34.253407 8.069875 -33.001644
v 23.778088 24.000000 -10.523808
v 33.059146 17.049697 -27.090670
v 18.677322 16.722441 -22.603843
v 29.000000 0.000000 -7.000000
v 33.409647 -0.521731 -28.825471
v 49.392156 0.656923 -21.933281
v 33.409647 -0.521731 -28.825471
v 34.253407 8.069875 -33.001644
v 50.500800 7.173604 -22.745146
v 49.392156 0.656923 -21.933281
v 34.253407 8.069875 -33.001644
v 33.059146 17.049697 -27.090670
v 43.640222 16.906067 -17.721110
v 50.500800 7.173604 -22.745146
v 23.778088 24.000000 -10.523808
v 43.640222 16.906067 -17.721110
v 33.059146 17.049697 -27.090670
v 29.000000 0.000000 -7.000000
v 49.392156 0.656923 -21.933281
v 49.236376 -0.394638 -7.000000
v 49.392156 0.656923 -21.933281
v 50.500800 7.173604 -22.745146
v 57.102903 7.250243 -7.000000
v 49.236376 -0.394638 -7.000000
v 50.500800 7.173604 -22.745146
v 43.640222 16.906067 -17.721110
v 49.470911 15.872559 -7.000000
v 57.102903 7.250243 -7.000000
v 23.778088 24.000000 -10.523808
v 49.470911 15.872559 -7.000000
v 43.640222 16.906067 -17.721110
v 4.000000 9.000000 9.000000
v 32.066007 8.683407 9.000000
v 22.027784 8.261645 21.647253
v 32.066007 8.683407 9.000000
v 31.355269 16.882481 9.000000
v 26.351851 16.168229 24.680769
v 22.027784 8.261645 21.647253
v 31.355269 16.882481 9.000000
v 25.218762 25.193479 9.000000
v 22.755088 25.589649 22.157488
v 26.351851 16.168229 24.680769
v -0.249389 34.000000 11.882338
v 22.755088 25.589649 22.157488
v 25.218762 25.193479 9.000000
v 4.000000 9.000000 9.000000
v 22.027784 8.261645 21.647253
v 9.021840 9.870882 32.811375
v 22.027784 8.261645 21.647253
v 26.351851 16.168229 24.680769
v 9.488083 17.777318 35.022093
v 9.021840 9.870882 32.811375
v 26.351851 16.168229 24.680769
v 22.755088 25.589649 22.157488
v 8.609259 25.433724 30.855094
v 9.488083 17.777318 35.022093
v -0.249389 34.000000 11.882338
v 8.609259 25.433724 30.855094
v 22.755088 25.589649 22.157488
v 4.000000 9.000000 9.000000
v 9.021840 9.870882 32.811375
v -8.513446 8.162105 27.120823
v 9.021840 9.870882 32.811375
v 9.488083 17.777318 35.022093
v -13.663488 16.988887 34.578639
v -8.513446 8.162105 27.120823
v 9.488083 17.777318 35.022093
v 8.609259 25.433724 30.855094
v -8.849275 26.591237 27.607139
v -13.663488 16.988887 34.578639
v -0.249389 34.000000 11.882338
v -8.849275 26.591237 27.607139
v 8.609259 25.433724 30.855094
v 4.000000 9.000000 9.000000
v -8.513446 8.162105 27.120823
v -24.107580 8.619723 17.553220
v -8.513446 8.162105 27.120823
v -13.663488 16.988887 34.578639
v -19.545245 16.200847 16.164888
v -24.107580 8.619723 17.553220
v -13.663488 16.988887 34.578639
v -8.849275 26.591237 27.607139
v -20.872768 26.596541 16.568858
v -19.545245 16.200847 16.164888
v -0.249389 34.000000 11.882338
v -20.872768 26.596541 16.568858
v -8.849275 26.591237 27.607139
v 4.000000 9.000000 9.000000
v -24.107580 8.619723 17.553220
v -18.270524 9.625949 2.223013
v -24.107580 8.619723 17.553220
v -19.545245 16.200847 16.164888
v -21.810981 16.197229 1.145641
v -18.270524 9.625949 2.223013
v -19.545245 16.200847 16.164888
v -20.872768 26.596541 16.568858
v -19.951917 25.822785 1.711360
v -21.810981 16.197229 1.145641
v -0.249389 34.000000 11.882338
v -19.951917 25.822785 1.711360
v -20.872768 26.596541 16.568858
v 4.000000 9.000000 9.000000
v -18.270524 9.625949 2.223013
v -8.994898 9.800924 -9.818016
v -18.270524 9.625949 2.223013
v -21.810981 16.197229 1.145641
v -9.544017 17.500758 -10.613199
v -8.994898 9.800924 -9.818016
v -21.810981 16.197229 1.145641
v -19.951917 25.822785 1.711360
v -8.899748 25.345420 -9.680228
v -9.544017 17.500758 -10.613199
v -0.249389 34.000000 11.882338
v -8.899748 25.345420 -9.680228
v -19.951917 25.822785 1.711360
v 4.000000 9.000000 9.000000
v -8.994898 9.800924 -9.818016
v 8.592303 9.212242 -12.774695
v -8.994898 9.800924 -9.818016
v -9.544017 17.500758 -10.613199
v 9.880567 16.451446 -18.883083
v 8.592303 9.212242 -12.774695
v -9.544017 17.500758 -10.613199
v -8.899748 25.345420 -9.680228
v 7.898077 25.707541 -9.482979
v 9.880567 16.451446 -18.883083
v -0.249389 34.000000 11.882338
v 7.898077 25.707541 -9.482979
v -8.899748 25.345420 -9.680228
v 4.000000 9.000000 9.000000
v 8.592303 9.212242 -12.774695
v 21.691376 9.411978 -3.411249
v 8.592303 9.212242 -12.774695
v 9.880567 16.451446 -18.883083
v 26.743975 16.651896 -6.955861
v 21.691376 9.411978 -3.411249
v 9.880567 16.451446 -18.883083
v 7.898077 25.707541 -9.482979
v 18.987820 26.378365 -1.514590
v 26.743975 16.651896 -6.955861
v -0.249389 34.000000 11.882338
v 18.987820 26.378365 -1.514590
v 7.898077 25.707541 -9.482979
v 4.000000 9.000000 9.000000
v 21.691376 9.411978 -3.411249
v 32.066007 8.683407 9.000000
v 21.691376 9.411978 -3.411249
v 26.743975 16.651896 -6.955861
v 31.355269 16.882481 9.000000
v 32.066007 8.683407 9.000000
v 26.743975 16.651896 -6.955861
v 18.987820 26.378365 -1.514590
v 25.218762 25.193479 9.000000
v 31.355269 16.882481 9.000000
v -0.249389 34.000000 11.882338
v 25.218762 25.193479 9.000000
v 18.987820 26.378365 -1.514590
vt 0.500000 1.000000
vt 0.000000 0.000000
vt 1.000000 0.000000
vt 0.000000 0.000000
vt 1.000000 0.000000
vt 1.000000 1.000000
vt 0.000000 1.000000
vt 0.000000 0.000000
vt 1.000000 0.000000
vt 1.000000 1.000000
vt 0.000000 1.000000
vt 0.500000 1.000000
vt 0.000000 0.000000
vt 1.000000 0.000000
vt 0.500000 1.000000
vt 0.000000 0.000000
vt 1.000000 0.000000
vt 0.000000 0.000000
vt 1.000000 0.000000
vt 1.000000 1.000000
vt 0.000000 1.000000
vt 0.000000 0.000000
vt 1.000000 0.000000
vt 1.000000 1.000000
vt 0.000000 1.000000
vt 0.500000 1.000000
vt 0.000000 0.000000
vt 1.000000 0.000000
vt 0.500000 1.000000
vt 0.000000 0.000000
vt 1.000000 0.000000
vt 0.000000 0.000000
vt 1.000000 0.000000
vt 1.000000 1.000000
vt 0.000000 1.000000
vt 0.000000 0.000000
vt 1.000000 0.000000
vt 1.000000 1.000000
vt 0.000000 1.000000
vt 0.500000 1.000000
vt 0.000000 0.000000
vt 1.000000 0.000000
vt 0.500000 1.000000
vt 0.000000 0.000000
vt 1.000000 0.000000
vt 0.000000 0.000000
vt 1.000000 0.000000
vt 1.000000 1.000000
vt 0.000000 1.000000
vt 0.000000 0.000000
vt 1.000000 0.000000
vt 1.000000 1.000000
vt 0.000000 1.000000
vt 0.500000 1.000000
vt 0.000000 0.000000
vt 1.000000 0.000000
vt 0.500000 1.000000
vt 0.000000 0.000000
vt 1.000000 0.000000
vt 0.000000 0.000000
vt 1.000000 0.000000
vt 1.000000 1.000000
vt 0.000000 1.000000
vt 0.000000 0.000000
vt 1.000000 0.000000
vt 1.000000 1.000000
vt 0.000000 1.000000
vt 0.500000 1.000000
vt 0.000000 0.000000
vt 1.000000 0.000000
vt 0.500000 1.000000
vt 0.000000 0.000000
vt 1.000000 0.000000
vt 0.000000 0.000000
vt 1.000000 0.000000
vt 1.000000 1.000000
vt 0.000000 1.000000
vt 0.000000 0.000000
vt 1.000000 0.000000
vt 1.000000 1.000000
vt 0.000000 1.000000
vt 0.500000 1.000000
vt 0.000000 0.000000
vt 1.000000 0.000000
vt 0.500000 1.000000
vt 0.000000 0.000000
vt 1.000000 0.000000
vt 0.000000 0.000000
vt 1.000000 0.000000
vt 1.000000 1.000000
vt 0.000000 1.000000
vt 0.000000 0.000000
vt 1.000000 0.000000
vt 1.000000 1.000000
vt 0.000000 1.000000
vt 0.500000 1.000000
vt 0.000000 0.000000
vt 1.000000 0.000000
vt 0.500000 1.000000
vt 0.000000 0.000000
vt 1.000000 0.000000
vt 0.000000 0.000000
vt 1.000000 0.000000
vt 1.000000 1.000000
vt 0.000000 1.000000
vt 0.000000 0.000000
vt 1.000000 0.000000
vt 1.000000 1.000000
vt 0.000000 1.000000
vt 0.500000 1.000000
vt 0.000000 0.000000
vt 1.000000 0.000000
vt 0.500000 1.000000
vt 0.000000 0.000000
vt 1.000000 0.000000
vt 0.000000 0.000000
vt 1.000000 0.000000
vt 1.000000 1.000000
vt 0.000000 1.000000
vt 0.000000 0.000000
vt 1.000000 0.000000
vt 1.000000 1.000000
vt 0.000000 1.000000
vt 0.500000 1.000000
vt 0.000000 0.000000
vt 1.000000 0.000000
vt 0.500000 1.000000
vt 0.000000 0.000000
vt 1.000000 0.000000
vt 0.000000 0.000000
vt 1.000000 0.000000
vt 1.000000 1.000000
vt 0.000000 1.000000
vt 0.000000 0.000000
vt 1.000000 0.000000
vt 1.000000 1.000000
vt 0.000000 1.000000
vt 0.500000 1.000000
vt 0.000000 0.000000
vt 1.000000 0.000000
vt 0.500000 1.000000
vt 0.000000 0.000000
vt 1.000000 0.000000
vt 0.000000 0.000000
vt 1.000000 0.000000
vt 1.000000 1.000000
vt 0.000000 1.000000
vt 0.000000 0.000000
vt 1.000000 0.000000
vt 1.000000 1.000000
vt 0.000000 1.000000
vt 0.500000 1.000000
vt 0.000000 0.000000
vt 1.000000 0.000000
vt 0.500000 1.000000
vt 0.000000 0.000000
vt 1.000000 0.000000
vt 0.000000 0.000000
vt 1.000000 0.000000
vt 1.000000 1.000000
vt 0.000000 1.000000
vt 0.000000 0.000000
vt 1.000000 0.000000
vt 1.000000 1.000000
vt 0.000000 1.000000
vt 0.500000 1.000000
vt 0.000000 0.000000
vt 1.000000 0.000000
vt 0.500000 1.000000
vt 0.000000 0.000000
vt 1.000000 0.000000
vt 0.000000 0.000000
vt 1.000000 0.000000
vt 1.000000 1.000000
vt 0.000000 1.000000
vt 0.000000 0.000000
vt 1.000000 0.000000
vt 1.000000 1.000000
vt 0.000000 1.000000
vt 0.500000 1.000000
vt 0.000000 0.000000
vt 1.000000 0.000000
vt 0.500000 1.000000
vt 0.000000 0.000000
vt 1.000000 0.000000
vt 0.000000 0.000000
vt 1.000000 0.000000
vt 1.000000 1.000000
vt 0.000000 1.000000
vt 0.000000 0.000000
vt 1.000000 0.000000
vt 1.000000 1.000000
vt 0.000000 1.000000
vt 0.500000 1.000000
vt 0.000000 0.000000
vt 1.000000 0.000000
vt 0.500000 1.000000
vt 0.000000 0.000000
vt 1.000000 0.000000
vt 0.000000 0.000000
vt 1.000000 0.000000
vt 1.000000 1.000000
vt 0.000000 1.000000
vt 0.000000 0.000000
vt 1.000000 0.000000
vt 1.000000 1.000000
vt 0.000000 1.000000
vt 0.500000 1.000000
vt 0.000000 0.000000
vt 1.000000 0.000000
vt 0.500000 1.000000
vt 0.000000 0.000000
vt 1.000000 0.000000
vt 0.000000 0.000000
vt 1.000000 0.000000
vt 1.000000 1.000000
vt 0.000000 1.000000
vt 0.000000 0.000000
vt 1.000000 0.000000
vt 1.000000 1.000000
vt 0.000000 1.000000
vt 0.500000 1.000000
vt 0.000000 0.000000
vt 1.000000 0.000000
vt 0.500000 1.000000
vt 0.000000 0.000000
vt 1.000000 0.000000
vt 0.000000 0.000000
vt 1.000000 0.000000
vt 1.000000 1.000000
vt 0.000000 1.000000
vt 0.000000 0.000000
vt 1.000000 0.000000
vt 1.000000 1.000000
vt 0.000000 1.000000
vt 0.500000 1.000000
vt 0.000000 0.000000
vt 1.000000 0.000000
vt 0.500000 1.000000
vt 0.000000 0.000000
vt 1.000000 0.000000
vt 0.000000 0.000000
vt 1.000000 0.000000
vt 1.000000 1.000000
vt 0.000000 1.000000
vt 0.000000 0.000000
vt 1.000000 0.000000
vt 1.000000 1.000000
vt 0.000000 1.000000
vt 0.500000 1.000000
vt 0.000000 0.000000
vt 1.000000 0.000000
vt 0.500000 1.000000
vt 0.000000 0.000000
vt 1.000000 0.000000
vt 0.000000 0.000000
vt 1.000000 0.000000
vt 1.000000 1.000000
vt 0.000000 1.000000
vt 0.000000 0.000000
vt 1.000000 0.000000
vt 1.000000 1.000000
vt 0.000000 1.000000
vt 0.500000 1.000000
vt 0.000000 0.000000
vt 1.000000 0.000000
vt 0.500000 1.000000
vt 0.000000 0.000000
vt 1.000000 0.000000
vt 0.000000 0.000000
vt 1.000000 0.000000
vt 1.000000 1.000000
vt 0.000000 1.000000
vt 0.000000 0.000000
vt 1.000000 0.000000
vt 1.000000 1.000000
vt 0.000000 1.000000
vt 0.500000 1.000000
vt 0.000000 0.000000
vt 1.000000 0.000000
vt 0.500000 1.000000
vt 0.000000 0.000000
vt 1.000000 0.000000
vt 0.000000 0.000000
vt 1.000000 0.000000
vt 1.000000 1.000000
vt 0.000000 1.000000
vt 0.000000 0.000000
vt 1.000000 0.000000
vt 1.000000 1.000000
vt 0.000000 1.000000
vt 0.500000 1.000000
vt 0.000000 0.000000
vt 1.000000 0.000000
vt 0.500000 1.000000
vt 0.000000 0.000000
vt 1.000000 0.000000
vt 0.000000 0.000000
vt 1.000000 0.000000
vt 1.000000 1.000000
vt 0.000000 1.000000
vt 0.000000 0.000000
vt 1.000000 0.000000
vt 1.000000 1.000000
vt 0.000000 1.000000
vt 0.500000 1.000000
vt 0.000000 0.000000
vt 1.000000 0.000000
vt 0.500000 1.000000
vt 0.000000 0.000000
vt 1.000000 0.000000
vt 0.000000 0.000000
vt 1.000000 0.000000
vt 1.000000 1.000000
vt 0.000000 1.000000
vt 0.000000 0.000000
vt 1.000000 0.000000
vt 1.000000 1.000000
vt 0.000000 1.000000
vt 0.500000 1.000000
vt 0.000000 0.000000
vt 1.000000 0.000000
vt 0.500000 1.000000
vt 0.000000 0.000000
vt 1.000000 0.000000
vt 0.000000 0.000000
vt 1.000000 0.000000
vt 1.000000 1.000000
vt 0.000000 1.000000
vt 0.000000 0.000000
vt 1.000000 0.000000
vt 1.000000 1.000000
vt 0.000000 1.000000
vt 0.500000 1.000000
vt 0.000000 0.000000
vt 1.000000 0.000000
vt 0.500000 1.000000
vt 0.000000 0.000000
vt 1.000000 0.000000
vt 0.000000 0.000000
vt 1.000000 0.000000
vt 1.000000 1.000000
vt 0.000000 1.000000
vt 0.000000 0.000000
vt 1.000000 0.000000
vt 1.000000 1.000000
vt 0.000000 1.000000
vt 0.500000 1.000000
vt 0.000000 0.000000
vt 1.000000 0.000000
vt 0.500000 1.000000
vt 0.000000 0.000000
vt 1.000000 0.000000
vt 0.000000 0.000000
vt 1.000000 0.000000
vt 1.000000 1.000000
vt 0.000000 1.000000
vt 0.000000 0.000000
vt 1.000000 0.000000
vt 1.000000 1.000000
vt 0.000000 1.000000
vt 0.500000 1.000000
vt 0.000000 0.000000
vt 1.000000 0.000000
vt 0.500000 1.000000
vt 0.000000 0.000000
vt 1.000000 0.000000
vt 0.000000 0.000000
vt 1.000000 0.000000
vt 1.000000 1.000000
vt 0.000000 1.000000
vt 0.000000 0.000000
vt 1.000000 0.000000
vt 1.000000 1.000000
vt 0.000000 1.000000
vt 0.500000 1.000000
vt 0.000000 0.000000
vt 1.000000 0.000000
vt 0.500000 1.000000
vt 0.000000 0.000000
vt 1.000000 0.000000
vt 0.000000 0.000000
vt 1.000000 0.000000
vt 1.000000 1.000000
vt 0.000000 1.000000
vt 0.000000 0.000000
vt 1.000000 0.000000
vt 1.000000 1.000000
vt 0.000000 1.000000
vt 0.500000 1.000000
vt 0.000000 0.000000
vt 1.000000 0.000000
s 1
usemtl models/caelum/world/environment/rock_coastal.png
f 1/1 2/2 3/3
f 4/4 5/5 6/6 7/7
f 8/8 9/9 10/10 11/11
f 12/12 13/13 14/14
f 15/15 16/16 17/17
f 18/18 19/19 20/20 21/21
f 22/22 23/23 24/24 25/25
f 26/26 27/27 28/28
f 29/29 30/30 31/31
f 32/32 33/33 34/34 35/35
f 36/36 37/37 38/38 39/39
f 40/40 41/41 42/42
f 43/43 44/44 45/45
f 46/46 47/47 48/48 49/49
f 50/50 51/51 52/52 53/53
f 54/54 55/55 56/56
f 57/57 58/58 59/59
f 60/60 61/61 62/62 63/63
f 64/64 65/65 66/66 67/67
f 68/68 69/69 70/70
f 71/71 72/72 73/73
f 74/74 75/75 76/76 77/77
f 78/78 79/79 80/80 81/81
f 82/82 83/83 84/84
f 85/85 86/86 87/87
f 88/88 89/89 90/90 91/91
f 92/92 93/93 94/94 95/95
f 96/96 97/97 98/98
f 99/99 100/100 101/101
f 102/102 103/103 104/104 105/105
f 106/106 107/107 108/108 109/109
f 110/110 111/111 112/112
f 113/113 114/114 115/115
f 116/116 117/117 118/118 119/119
f 120/120 121/121 122/122 123/123
f 124/124 125/125 126/126
f 127/127 128/128 129/129
f 130/130 131/131 132/132 133/133
f 134/134 135/135 136/136 137/137
f 138/138 139/139 140/140
f 141/141 142/142 143/143
f 144/144 145/145 146/146 147/147
f 148/148 149/149 150/150 151/151
f 152/152 153/153 154/154
f 155/155 156/156 157/157
f 158/158 159/159 160/160 161/161
f 162/162 163/163 164/164 165/165
f 166/166 167/167 168/168
f 169/169 170/170 171/171
f 172/172 173/173 174/174 175/175
f 176/176 177/177 178/178 179/179
f 180/180 181/181 182/182
f 183/183 184/184 185/185
f 186/186 187/187 188/188 189/189
f 190/190 191/191 192/192 193/193
f 194/194 195/195 196/196
f 197/197 198/198 199/199
f 200/200 201/201 202/202 203/203
f 204/204 205/205 206/206 207/207
f 208/208 209/209 210/210
f 211/211 212/212 213/213
f 214/214 215/215 216/216 217/217
f 218/218 219/219 220/220 221/221
f 222/222 223/223 224/224
f 225/225 226/226 227/227
f 228/228 229/229 230/230 231/231
f 232/232 233/233 234/234 235/235
f 236/236 237/237 238/238
f 239/239 240/240 241/241
f 242/242 243/243 244/244 245/245
f 246/246 247/247 248/248 249/249
f 250/250 251/251 252/252
f 253/253 254/254 255/255
f 256/256 257/257 258/258 259/259
f 260/260 261/261 262/262 263/263
f 264/264 265/265 266/266
f 267/267 268/268 269/269
f 270/270 271/271 272/272 273/273
f 274/274 275/275 276/276 277/277
f 278/278 279/279 280/280
f 281/281 282/282 283/283
f 284/284 285/285 286/286 287/287
f 288/288 289/289 290/290 291/291
f 292/292 293/293 294/294
f 295/295 296/296 297/297
f 298/298 299/299 300/300 301/301
f 302/302 303/303 304/304 305/305
f 306/306 307/307 308/308
f 309/309 310/310 311/311
f 312/312 313/313 314/314 315/315
f 316/316 317/317 318/318 319/319
f 320/320 321/321 322/322
f 323/323 324/324 325/325
f 326/326 327/327 328/328 329/329
f 330/330 331/331 332/332 333/333
f 334/334 335/335 336/336
f 337/337 338/338 339/339
f 340/340 341/341 342/342 343/343
f 344/344 345/345 346/346 347/347
f 348/348 349/349 350/350
f 351/351 352/352 353/353
f 354/354 355/355 356/356 357/357
f 358/358 359/359 360/360 361/361
f 362/362 363/363 364/364
f 365/365 366/366 367/367
f 368/368 369/369 370/370 371/371
f 372/372 373/373 374/374 375/375
f 376/376 377/377 378/378
f 379/379 380/380 381/381
f 382/382 383/383 384/384 385/385
f 386/386 387/387 388/388 389/389
f 390/390 391/391 392/392
