# Modelo original generado para Caelum Argenteum.
# Ejes OBJ: X ancho, Y altura, Z profundidad.
o ca_rock_quartz2
v 0.000000 0.000000 0.000000
v 30.996663 0.734813 0.000000
v 25.695693 -0.966223 19.165552
v 30.996663 0.734813 0.000000
v 38.600808 9.184672 0.000000
v 27.360340 9.459933 20.407156
v 25.695693 -0.966223 19.165552
v 38.600808 9.184672 0.000000
v 22.279164 19.508456 0.000000
v 19.749985 18.135508 14.730849
v 27.360340 9.459933 20.407156
v 4.946205 28.000000 4.035585
v 19.749985 18.135508 14.730849
v 22.279164 19.508456 0.000000
v 0.000000 0.000000 0.000000
v 25.695693 -0.966223 19.165552
v 4.910502 0.543447 24.754528
v 25.695693 -0.966223 19.165552
v 27.360340 9.459933 20.407156
v 7.114945 8.708465 35.867430
v 4.910502 0.543447 24.754528
v 27.360340 9.459933 20.407156
v 19.749985 18.135508 14.730849
v 4.601127 19.634992 23.194922
v 7.114945 8.708465 35.867430
v 4.946205 28.000000 4.035585
v 4.601127 19.634992 23.194922
v 19.749985 18.135508 14.730849
v 0.000000 0.000000 0.000000
v 4.910502 0.543447 24.754528
v -14.442579 -0.663280 22.235805
v 4.910502 0.543447 24.754528
v 7.114945 8.708465 35.867430
v -15.745563 8.713686 24.241880
v -14.442579 -0.663280 22.235805
v 7.114945 8.708465 35.867430
v 4.601127 19.634992 23.194922
v -15.096303 19.296856 23.242279
v -15.745563 8.713686 24.241880
v 4.946205 28.000000 4.035585
v -15.096303 19.296856 23.242279
v 4.601127 19.634992 23.194922
v 0.000000 0.000000 0.000000
v -14.442579 -0.663280 22.235805
v -29.707624 -0.029943 9.611281
v -14.442579 -0.663280 22.235805
v -15.745563 8.713686 24.241880
v -31.379220 8.857426 10.152091
v -29.707624 -0.029943 9.611281
v -15.745563 8.713686 24.241880
v -15.096303 19.296856 23.242279
v -22.179359 19.526469 7.175668
v -31.379220 8.857426 10.152091
v 4.946205 28.000000 4.035585
v -22.179359 19.526469 7.175668
v -15.096303 19.296856 23.242279
v 0.000000 0.000000 0.000000
v -29.707624 -0.029943 9.611281
v -24.167669 -0.134070 -7.818944
v -29.707624 -0.029943 9.611281
v -31.379220 8.857426 10.152091
v -34.302782 9.255325 -11.097948
v -24.167669 -0.134070 -7.818944
v -31.379220 8.857426 10.152091
v -22.179359 19.526469 7.175668
v -27.592200 19.854729 -8.926879
v -34.302782 9.255325 -11.097948
v 4.946205 28.000000 4.035585
v -27.592200 19.854729 -8.926879
v -22.179359 19.526469 7.175668
v 0.000000 0.000000 0.000000
v -24.167669 -0.134070 -7.818944
v -15.258692 0.067110 -23.492293
v -24.167669 -0.134070 -7.818944
v -34.302782 9.255325 -11.097948
v -20.586311 9.256569 -31.694699
v -15.258692 0.067110 -23.492293
v -34.302782 9.255325 -11.097948
v -27.592200 19.854729 -8.926879
v -15.566313 18.850273 -23.965907
v -20.586311 9.256569 -31.694699
v 4.946205 28.000000 4.035585
v -15.566313 18.850273 -23.965907
v -27.592200 19.854729 -8.926879
v 0.000000 0.000000 0.000000
v -15.258692 0.067110 -23.492293
v 4.370788 0.969584 -22.033752
v -15.258692 0.067110 -23.492293
v -20.586311 9.256569 -31.694699
v 5.344728 9.326062 -26.943517
v 4.370788 0.969584 -22.033752
v -20.586311 9.256569 -31.694699
v -15.566313 18.850273 -23.965907
v 4.143907 18.913264 -20.890014
v 5.344728 9.326062 -26.943517
v 4.946205 28.000000 4.035585
v 4.143907 18.913264 -20.890014
v -15.566313 18.850273 -23.965907
v 0.000000 0.000000 0.000000
v 4.370788 0.969584 -22.033752
v 19.981607 0.012991 -14.903608
v 4.370788 0.969584 -22.033752
v 5.344728 9.326062 -26.943517
v 23.148523 8.163028 -17.265704
v 19.981607 0.012991 -14.903608
v 5.344728 9.326062 -26.943517
v 4.143907 18.913264 -20.890014
v 19.712683 19.938339 -14.703027
v 23.148523 8.163028 -17.265704
v 4.946205 28.000000 4.035585
v 19.712683 19.938339 -14.703027
v 4.143907 18.913264 -20.890014
v 0.000000 0.000000 0.000000
v 19.981607 0.012991 -14.903608
v 30.996663 0.734813 0.000000
v 19.981607 0.012991 -14.903608
v 23.148523 8.163028 -17.265704
v 38.600808 9.184672 0.000000
v 30.996663 0.734813 0.000000
v 23.148523 8.163028 -17.265704
v 19.712683 19.938339 -14.703027
v 22.279164 19.508456 0.000000
v 38.600808 9.184672 0.000000
v 4.946205 28.000000 4.035585
v 22.279164 19.508456 0.000000
v 19.712683 19.938339 -14.703027
v -16.487776 11.780527 -6.002698
v -22.286835 11.349842 -2.624232
v -20.227431 44.614341 -0.746186
v -19.537603 44.665573 -1.148072
v -16.487776 12.000000 0.718942
v -22.286835 11.349842 -2.624232
v -16.487776 11.780527 -6.002698
v -19.537603 44.691681 -0.348498
v -19.537603 44.665573 -1.148072
v -20.227431 44.614341 -0.746186
v -22.286835 11.349842 -2.624232
v -22.286835 11.569315 4.097407
v -20.227431 44.640449 0.053388
v -20.227431 44.614341 -0.746186
v -16.487776 12.000000 0.718942
v -22.286835 11.569315 4.097407
v -22.286835 11.349842 -2.624232
v -19.537603 44.691681 -0.348498
v -20.227431 44.614341 -0.746186
v -20.227431 44.640449 0.053388
v -22.286835 11.569315 4.097407
v -16.487776 12.219473 7.440581
v -19.537603 44.717788 0.451076
v -20.227431 44.640449 0.053388
v -16.487776 12.000000 0.718942
v -16.487776 12.219473 7.440581
v -22.286835 11.569315 4.097407
v -19.537603 44.691681 -0.348498
v -20.227431 44.640449 0.053388
v -19.537603 44.717788 0.451076
v -16.487776 12.219473 7.440581
v -10.688716 12.650158 4.062116
v -18.847775 44.769020 0.049190
v -19.537603 44.717788 0.451076
v -16.487776 12.000000 0.718942
v -10.688716 12.650158 4.062116
v -16.487776 12.219473 7.440581
v -19.537603 44.691681 -0.348498
v -19.537603 44.717788 0.451076
v -18.847775 44.769020 0.049190
v -10.688716 12.650158 4.062116
v -10.688716 12.430685 -2.659524
v -18.847775 44.742913 -0.750384
v -18.847775 44.769020 0.049190
v -16.487776 12.000000 0.718942
v -10.688716 12.430685 -2.659524
v -10.688716 12.650158 4.062116
v -19.537603 44.691681 -0.348498
v -18.847775 44.769020 0.049190
v -18.847775 44.742913 -0.750384
v -10.688716 12.430685 -2.659524
v -16.487776 11.780527 -6.002698
v -19.537603 44.665573 -1.148072
v -18.847775 44.742913 -0.750384
v -16.487776 12.000000 0.718942
v -16.487776 11.780527 -6.002698
v -10.688716 12.430685 -2.659524
v -19.537603 44.691681 -0.348498
v -18.847775 44.742913 -0.750384
v -19.537603 44.665573 -1.148072
v -2.737553 12.141064 -2.424167
v -9.615949 12.285474 3.416302
v -0.051204 73.094884 6.822936
v 0.558539 73.082082 6.305201
v -1.122594 12.000000 6.453686
v -9.615949 12.285474 3.416302
v -2.737553 12.141064 -2.424167
v 0.701699 73.069578 7.092188
v 0.558539 73.082082 6.305201
v -0.051204 73.094884 6.822936
v -9.615949 12.285474 3.416302
v -8.000990 12.144410 12.294155
v 0.091956 73.082379 7.609923
v -0.051204 73.094884 6.822936
v -1.122594 12.000000 6.453686
v -8.000990 12.144410 12.294155
v -9.615949 12.285474 3.416302
v 0.701699 73.069578 7.092188
v -0.051204 73.094884 6.822936
v 0.091956 73.082379 7.609923
v -8.000990 12.144410 12.294155
v 0.492364 11.858936 15.331539
v 0.844859 73.057073 7.879176
v 0.091956 73.082379 7.609923
v -1.122594 12.000000 6.453686
v 0.492364 11.858936 15.331539
v -8.000990 12.144410 12.294155
v 0.701699 73.069578 7.092188
v 0.091956 73.082379 7.609923
v 0.844859 73.057073 7.879176
v 0.492364 11.858936 15.331539
v 7.370760 11.714526 9.491070
v 1.454602 73.044272 7.361441
v 0.844859 73.057073 7.879176
v -1.122594 12.000000 6.453686
v 7.370760 11.714526 9.491070
v 0.492364 11.858936 15.331539
v 0.701699 73.069578 7.092188
v 0.844859 73.057073 7.879176
v 1.454602 73.044272 7.361441
v 7.370760 11.714526 9.491070
v 5.755802 11.855590 0.613217
v 1.311442 73.056776 6.574454
v 1.454602 73.044272 7.361441
v -1.122594 12.000000 6.453686
v 5.755802 11.855590 0.613217
v 7.370760 11.714526 9.491070
v 0.701699 73.069578 7.092188
v 1.454602 73.044272 7.361441
v 1.311442 73.056776 6.574454
v 5.755802 11.855590 0.613217
v -2.737553 12.141064 -2.424167
v 0.558539 73.082082 6.305201
v 1.311442 73.056776 6.574454
v -1.122594 12.000000 6.453686
v -2.737553 12.141064 -2.424167
v 5.755802 11.855590 0.613217
v 0.701699 73.069578 7.092188
v 1.311442 73.056776 6.574454
v 0.558539 73.082082 6.305201
v 13.030312 13.144242 -12.644216
v 8.365903 13.735432 -6.750908
v 21.657685 42.140868 -3.390778
v 22.152645 42.078135 -4.016141
v 15.620508 12.000000 -5.657164
v 8.365903 13.735432 -6.750908
v 13.030312 13.144242 -12.644216
v 22.427501 41.956714 -3.274716
v 22.152645 42.078135 -4.016141
v 21.657685 42.140868 -3.390778
v 8.365903 13.735432 -6.750908
v 10.956099 12.591190 0.236144
v 21.932541 42.019448 -2.649353
v 21.657685 42.140868 -3.390778
v 15.620508 12.000000 -5.657164
v 10.956099 12.591190 0.236144
v 8.365903 13.735432 -6.750908
v 22.427501 41.956714 -3.274716
v 21.657685 42.140868 -3.390778
v 21.932541 42.019448 -2.649353
v 10.956099 12.591190 0.236144
v 18.210704 10.855758 1.329888
v 22.702358 41.835294 -2.533291
v 21.932541 42.019448 -2.649353
v 15.620508 12.000000 -5.657164
v 18.210704 10.855758 1.329888
v 10.956099 12.591190 0.236144
v 22.427501 41.956714 -3.274716
v 21.932541 42.019448 -2.649353
v 22.702358 41.835294 -2.533291
v 18.210704 10.855758 1.329888
v 22.875114 10.264568 -4.563420
v 23.197317 41.772561 -3.158655
v 22.702358 41.835294 -2.533291
v 15.620508 12.000000 -5.657164
v 22.875114 10.264568 -4.563420
v 18.210704 10.855758 1.329888
v 22.427501 41.956714 -3.274716
v 22.702358 41.835294 -2.533291
v 23.197317 41.772561 -3.158655
v 22.875114 10.264568 -4.563420
v 20.284918 11.408810 -11.550472
v 22.922461 41.893981 -3.900080
v 23.197317 41.772561 -3.158655
v 15.620508 12.000000 -5.657164
v 20.284918 11.408810 -11.550472
v 22.875114 10.264568 -4.563420
v 22.427501 41.956714 -3.274716
v 23.197317 41.772561 -3.158655
v 22.922461 41.893981 -3.900080
v 20.284918 11.408810 -11.550472
v 13.030312 13.144242 -12.644216
v 22.152645 42.078135 -4.016141
v 22.922461 41.893981 -3.900080
v 15.620508 12.000000 -5.657164
v 13.030312 13.144242 -12.644216
v 20.284918 11.408810 -11.550472
v 22.427501 41.956714 -3.274716
v 22.922461 41.893981 -3.900080
v 22.152645 42.078135 -4.016141
v 20.603993 11.257912 8.675091
v 18.270343 11.100764 12.968556
v 18.133122 33.822795 11.397318
v 18.514966 33.848508 10.694799
v 23.074119 12.000000 12.828672
v 18.270343 11.100764 12.968556
v 20.603993 11.257912 8.675091
v 18.919141 33.969933 11.374430
v 18.514966 33.848508 10.694799
v 18.133122 33.822795 11.397318
v 18.270343 11.100764 12.968556
v 20.740469 11.842852 17.122137
v 18.537297 33.944220 12.076949
v 18.133122 33.822795 11.397318
v 23.074119 12.000000 12.828672
v 20.740469 11.842852 17.122137
v 18.270343 11.100764 12.968556
v 18.919141 33.969933 11.374430
v 18.133122 33.822795 11.397318
v 18.537297 33.944220 12.076949
v 20.740469 11.842852 17.122137
v 25.544245 12.742088 16.982253
v 19.323316 34.091357 12.054061
v 18.537297 33.944220 12.076949
v 23.074119 12.000000 12.828672
v 25.544245 12.742088 16.982253
v 20.740469 11.842852 17.122137
v 18.919141 33.969933 11.374430
v 18.537297 33.944220 12.076949
v 19.323316 34.091357 12.054061
v 25.544245 12.742088 16.982253
v 27.877894 12.899236 12.688788
v 19.705161 34.117071 11.351541
v 19.323316 34.091357 12.054061
v 23.074119 12.000000 12.828672
v 27.877894 12.899236 12.688788
v 25.544245 12.742088 16.982253
v 18.919141 33.969933 11.374430
v 19.323316 34.091357 12.054061
v 19.705161 34.117071 11.351541
v 27.877894 12.899236 12.688788
v 25.407768 12.157148 8.535207
v 19.300985 33.995646 10.671910
v 19.705161 34.117071 11.351541
v 23.074119 12.000000 12.828672
v 25.407768 12.157148 8.535207
v 27.877894 12.899236 12.688788
v 18.919141 33.969933 11.374430
v 19.705161 34.117071 11.351541
v 19.300985 33.995646 10.671910
v 25.407768 12.157148 8.535207
v 20.603993 11.257912 8.675091
v 18.514966 33.848508 10.694799
v 19.300985 33.995646 10.671910
v 23.074119 12.000000 12.828672
v 20.603993 11.257912 8.675091
v 25.407768 12.157148 8.535207
v 18.919141 33.969933 11.374430
v 19.300985 33.995646 10.671910
v 18.514966 33.848508 10.694799
v -8.726791 12.898800 -21.355076
v -10.801866 12.884973 -15.164277
v -1.549519 36.620497 -15.031311
v -1.295272 36.622191 -15.789833
v -4.469439 12.000000 -16.486891
v -10.801866 12.884973 -15.164277
v -8.726791 12.898800 -21.355076
v -0.773644 36.512066 -15.193363
v -1.295272 36.622191 -15.789833
v -1.549519 36.620497 -15.031311
v -10.801866 12.884973 -15.164277
v -6.544514 11.986173 -10.296092
v -1.027890 36.510372 -14.434841
v -1.549519 36.620497 -15.031311
v -4.469439 12.000000 -16.486891
v -6.544514 11.986173 -10.296092
v -10.801866 12.884973 -15.164277
v -0.773644 36.512066 -15.193363
v -1.549519 36.620497 -15.031311
v -1.027890 36.510372 -14.434841
v -6.544514 11.986173 -10.296092
v -0.212086 11.101200 -11.618706
v -0.252015 36.401942 -14.596893
v -1.027890 36.510372 -14.434841
v -4.469439 12.000000 -16.486891
v -0.212086 11.101200 -11.618706
v -6.544514 11.986173 -10.296092
v -0.773644 36.512066 -15.193363
v -1.027890 36.510372 -14.434841
v -0.252015 36.401942 -14.596893
v -0.212086 11.101200 -11.618706
v 1.862988 11.115027 -17.809504
v 0.002231 36.403636 -15.355415
v -0.252015 36.401942 -14.596893
v -4.469439 12.000000 -16.486891
v 1.862988 11.115027 -17.809504
v -0.212086 11.101200 -11.618706
v -0.773644 36.512066 -15.193363
v -0.252015 36.401942 -14.596893
v 0.002231 36.403636 -15.355415
v 1.862988 11.115027 -17.809504
v -2.394364 12.013827 -22.677690
v -0.519397 36.513760 -15.951885
v 0.002231 36.403636 -15.355415
v -4.469439 12.000000 -16.486891
v -2.394364 12.013827 -22.677690
v 1.862988 11.115027 -17.809504
v -0.773644 36.512066 -15.193363
v 0.002231 36.403636 -15.355415
v -0.519397 36.513760 -15.951885
v -2.394364 12.013827 -22.677690
v -8.726791 12.898800 -21.355076
v -1.295272 36.622191 -15.789833
v -0.519397 36.513760 -15.951885
v -4.469439 12.000000 -16.486891
v -8.726791 12.898800 -21.355076
v -2.394364 12.013827 -22.677690
v -0.773644 36.512066 -15.193363
v -0.519397 36.513760 -15.951885
v -1.295272 36.622191 -15.789833
vt 0.500000 1.000000
vt 0.000000 0.000000
vt 1.000000 0.000000
vt 0.000000 0.000000
vt 1.000000 0.000000
vt 1.000000 1.000000
vt 0.000000 1.000000
vt 0.000000 0.000000
vt 1.000000 0.000000
vt 1.000000 1.000000
vt 0.000000 1.000000
vt 0.500000 1.000000
vt 0.000000 0.000000
vt 1.000000 0.000000
vt 0.500000 1.000000
vt 0.000000 0.000000
vt 1.000000 0.000000
vt 0.000000 0.000000
vt 1.000000 0.000000
vt 1.000000 1.000000
vt 0.000000 1.000000
vt 0.000000 0.000000
vt 1.000000 0.000000
vt 1.000000 1.000000
vt 0.000000 1.000000
vt 0.500000 1.000000
vt 0.000000 0.000000
vt 1.000000 0.000000
vt 0.500000 1.000000
vt 0.000000 0.000000
vt 1.000000 0.000000
vt 0.000000 0.000000
vt 1.000000 0.000000
vt 1.000000 1.000000
vt 0.000000 1.000000
vt 0.000000 0.000000
vt 1.000000 0.000000
vt 1.000000 1.000000
vt 0.000000 1.000000
vt 0.500000 1.000000
vt 0.000000 0.000000
vt 1.000000 0.000000
vt 0.500000 1.000000
vt 0.000000 0.000000
vt 1.000000 0.000000
vt 0.000000 0.000000
vt 1.000000 0.000000
vt 1.000000 1.000000
vt 0.000000 1.000000
vt 0.000000 0.000000
vt 1.000000 0.000000
vt 1.000000 1.000000
vt 0.000000 1.000000
vt 0.500000 1.000000
vt 0.000000 0.000000
vt 1.000000 0.000000
vt 0.500000 1.000000
vt 0.000000 0.000000
vt 1.000000 0.000000
vt 0.000000 0.000000
vt 1.000000 0.000000
vt 1.000000 1.000000
vt 0.000000 1.000000
vt 0.000000 0.000000
vt 1.000000 0.000000
vt 1.000000 1.000000
vt 0.000000 1.000000
vt 0.500000 1.000000
vt 0.000000 0.000000
vt 1.000000 0.000000
vt 0.500000 1.000000
vt 0.000000 0.000000
vt 1.000000 0.000000
vt 0.000000 0.000000
vt 1.000000 0.000000
vt 1.000000 1.000000
vt 0.000000 1.000000
vt 0.000000 0.000000
vt 1.000000 0.000000
vt 1.000000 1.000000
vt 0.000000 1.000000
vt 0.500000 1.000000
vt 0.000000 0.000000
vt 1.000000 0.000000
vt 0.500000 1.000000
vt 0.000000 0.000000
vt 1.000000 0.000000
vt 0.000000 0.000000
vt 1.000000 0.000000
vt 1.000000 1.000000
vt 0.000000 1.000000
vt 0.000000 0.000000
vt 1.000000 0.000000
vt 1.000000 1.000000
vt 0.000000 1.000000
vt 0.500000 1.000000
vt 0.000000 0.000000
vt 1.000000 0.000000
vt 0.500000 1.000000
vt 0.000000 0.000000
vt 1.000000 0.000000
vt 0.000000 0.000000
vt 1.000000 0.000000
vt 1.000000 1.000000
vt 0.000000 1.000000
vt 0.000000 0.000000
vt 1.000000 0.000000
vt 1.000000 1.000000
vt 0.000000 1.000000
vt 0.500000 1.000000
vt 0.000000 0.000000
vt 1.000000 0.000000
vt 0.500000 1.000000
vt 0.000000 0.000000
vt 1.000000 0.000000
vt 0.000000 0.000000
vt 1.000000 0.000000
vt 1.000000 1.000000
vt 0.000000 1.000000
vt 0.000000 0.000000
vt 1.000000 0.000000
vt 1.000000 1.000000
vt 0.000000 1.000000
vt 0.500000 1.000000
vt 0.000000 0.000000
vt 1.000000 0.000000
vt 0.000000 0.000000
vt 1.000000 0.000000
vt 1.000000 1.000000
vt 0.000000 1.000000
vt 0.500000 1.000000
vt 0.000000 0.000000
vt 1.000000 0.000000
vt 0.500000 1.000000
vt 0.000000 0.000000
vt 1.000000 0.000000
vt 0.000000 0.000000
vt 1.000000 0.000000
vt 1.000000 1.000000
vt 0.000000 1.000000
vt 0.500000 1.000000
vt 0.000000 0.000000
vt 1.000000 0.000000
vt 0.500000 1.000000
vt 0.000000 0.000000
vt 1.000000 0.000000
vt 0.000000 0.000000
vt 1.000000 0.000000
vt 1.000000 1.000000
vt 0.000000 1.000000
vt 0.500000 1.000000
vt 0.000000 0.000000
vt 1.000000 0.000000
vt 0.500000 1.000000
vt 0.000000 0.000000
vt 1.000000 0.000000
vt 0.000000 0.000000
vt 1.000000 0.000000
vt 1.000000 1.000000
vt 0.000000 1.000000
vt 0.500000 1.000000
vt 0.000000 0.000000
vt 1.000000 0.000000
vt 0.500000 1.000000
vt 0.000000 0.000000
vt 1.000000 0.000000
vt 0.000000 0.000000
vt 1.000000 0.000000
vt 1.000000 1.000000
vt 0.000000 1.000000
vt 0.500000 1.000000
vt 0.000000 0.000000
vt 1.000000 0.000000
vt 0.500000 1.000000
vt 0.000000 0.000000
vt 1.000000 0.000000
vt 0.000000 0.000000
vt 1.000000 0.000000
vt 1.000000 1.000000
vt 0.000000 1.000000
vt 0.500000 1.000000
vt 0.000000 0.000000
vt 1.000000 0.000000
vt 0.500000 1.000000
vt 0.000000 0.000000
vt 1.000000 0.000000
vt 0.000000 0.000000
vt 1.000000 0.000000
vt 1.000000 1.000000
vt 0.000000 1.000000
vt 0.500000 1.000000
vt 0.000000 0.000000
vt 1.000000 0.000000
vt 0.500000 1.000000
vt 0.000000 0.000000
vt 1.000000 0.000000
vt 0.000000 0.000000
vt 1.000000 0.000000
vt 1.000000 1.000000
vt 0.000000 1.000000
vt 0.500000 1.000000
vt 0.000000 0.000000
vt 1.000000 0.000000
vt 0.500000 1.000000
vt 0.000000 0.000000
vt 1.000000 0.000000
vt 0.000000 0.000000
vt 1.000000 0.000000
vt 1.000000 1.000000
vt 0.000000 1.000000
vt 0.500000 1.000000
vt 0.000000 0.000000
vt 1.000000 0.000000
vt 0.500000 1.000000
vt 0.000000 0.000000
vt 1.000000 0.000000
vt 0.000000 0.000000
vt 1.000000 0.000000
vt 1.000000 1.000000
vt 0.000000 1.000000
vt 0.500000 1.000000
vt 0.000000 0.000000
vt 1.000000 0.000000
vt 0.500000 1.000000
vt 0.000000 0.000000
vt 1.000000 0.000000
vt 0.000000 0.000000
vt 1.000000 0.000000
vt 1.000000 1.000000
vt 0.000000 1.000000
vt 0.500000 1.000000
vt 0.000000 0.000000
vt 1.000000 0.000000
vt 0.500000 1.000000
vt 0.000000 0.000000
vt 1.000000 0.000000
vt 0.000000 0.000000
vt 1.000000 0.000000
vt 1.000000 1.000000
vt 0.000000 1.000000
vt 0.500000 1.000000
vt 0.000000 0.000000
vt 1.000000 0.000000
vt 0.500000 1.000000
vt 0.000000 0.000000
vt 1.000000 0.000000
vt 0.000000 0.000000
vt 1.000000 0.000000
vt 1.000000 1.000000
vt 0.000000 1.000000
vt 0.500000 1.000000
vt 0.000000 0.000000
vt 1.000000 0.000000
vt 0.500000 1.000000
vt 0.000000 0.000000
vt 1.000000 0.000000
vt 0.000000 0.000000
vt 1.000000 0.000000
vt 1.000000 1.000000
vt 0.000000 1.000000
vt 0.500000 1.000000
vt 0.000000 0.000000
vt 1.000000 0.000000
vt 0.500000 1.000000
vt 0.000000 0.000000
vt 1.000000 0.000000
vt 0.000000 0.000000
vt 1.000000 0.000000
vt 1.000000 1.000000
vt 0.000000 1.000000
vt 0.500000 1.000000
vt 0.000000 0.000000
vt 1.000000 0.000000
vt 0.500000 1.000000
vt 0.000000 0.000000
vt 1.000000 0.000000
vt 0.000000 0.000000
vt 1.000000 0.000000
vt 1.000000 1.000000
vt 0.000000 1.000000
vt 0.500000 1.000000
vt 0.000000 0.000000
vt 1.000000 0.000000
vt 0.500000 1.000000
vt 0.000000 0.000000
vt 1.000000 0.000000
vt 0.000000 0.000000
vt 1.000000 0.000000
vt 1.000000 1.000000
vt 0.000000 1.000000
vt 0.500000 1.000000
vt 0.000000 0.000000
vt 1.000000 0.000000
vt 0.500000 1.000000
vt 0.000000 0.000000
vt 1.000000 0.000000
vt 0.000000 0.000000
vt 1.000000 0.000000
vt 1.000000 1.000000
vt 0.000000 1.000000
vt 0.500000 1.000000
vt 0.000000 0.000000
vt 1.000000 0.000000
vt 0.500000 1.000000
vt 0.000000 0.000000
vt 1.000000 0.000000
vt 0.000000 0.000000
vt 1.000000 0.000000
vt 1.000000 1.000000
vt 0.000000 1.000000
vt 0.500000 1.000000
vt 0.000000 0.000000
vt 1.000000 0.000000
vt 0.500000 1.000000
vt 0.000000 0.000000
vt 1.000000 0.000000
vt 0.000000 0.000000
vt 1.000000 0.000000
vt 1.000000 1.000000
vt 0.000000 1.000000
vt 0.500000 1.000000
vt 0.000000 0.000000
vt 1.000000 0.000000
vt 0.500000 1.000000
vt 0.000000 0.000000
vt 1.000000 0.000000
vt 0.000000 0.000000
vt 1.000000 0.000000
vt 1.000000 1.000000
vt 0.000000 1.000000
vt 0.500000 1.000000
vt 0.000000 0.000000
vt 1.000000 0.000000
vt 0.500000 1.000000
vt 0.000000 0.000000
vt 1.000000 0.000000
vt 0.000000 0.000000
vt 1.000000 0.000000
vt 1.000000 1.000000
vt 0.000000 1.000000
vt 0.500000 1.000000
vt 0.000000 0.000000
vt 1.000000 0.000000
vt 0.500000 1.000000
vt 0.000000 0.000000
vt 1.000000 0.000000
vt 0.000000 0.000000
vt 1.000000 0.000000
vt 1.000000 1.000000
vt 0.000000 1.000000
vt 0.500000 1.000000
vt 0.000000 0.000000
vt 1.000000 0.000000
vt 0.500000 1.000000
vt 0.000000 0.000000
vt 1.000000 0.000000
vt 0.000000 0.000000
vt 1.000000 0.000000
vt 1.000000 1.000000
vt 0.000000 1.000000
vt 0.500000 1.000000
vt 0.000000 0.000000
vt 1.000000 0.000000
vt 0.500000 1.000000
vt 0.000000 0.000000
vt 1.000000 0.000000
vt 0.000000 0.000000
vt 1.000000 0.000000
vt 1.000000 1.000000
vt 0.000000 1.000000
vt 0.500000 1.000000
vt 0.000000 0.000000
vt 1.000000 0.000000
vt 0.500000 1.000000
vt 0.000000 0.000000
vt 1.000000 0.000000
vt 0.000000 0.000000
vt 1.000000 0.000000
vt 1.000000 1.000000
vt 0.000000 1.000000
vt 0.500000 1.000000
vt 0.000000 0.000000
vt 1.000000 0.000000
vt 0.500000 1.000000
vt 0.000000 0.000000
vt 1.000000 0.000000
vt 0.000000 0.000000
vt 1.000000 0.000000
vt 1.000000 1.000000
vt 0.000000 1.000000
vt 0.500000 1.000000
vt 0.000000 0.000000
vt 1.000000 0.000000
vt 0.500000 1.000000
vt 0.000000 0.000000
vt 1.000000 0.000000
vt 0.000000 0.000000
vt 1.000000 0.000000
vt 1.000000 1.000000
vt 0.000000 1.000000
vt 0.500000 1.000000
vt 0.000000 0.000000
vt 1.000000 0.000000
vt 0.500000 1.000000
vt 0.000000 0.000000
vt 1.000000 0.000000
vt 0.000000 0.000000
vt 1.000000 0.000000
vt 1.000000 1.000000
vt 0.000000 1.000000
vt 0.500000 1.000000
vt 0.000000 0.000000
vt 1.000000 0.000000
vt 0.500000 1.000000
vt 0.000000 0.000000
vt 1.000000 0.000000
vt 0.000000 0.000000
vt 1.000000 0.000000
vt 1.000000 1.000000
vt 0.000000 1.000000
vt 0.500000 1.000000
vt 0.000000 0.000000
vt 1.000000 0.000000
vt 0.500000 1.000000
vt 0.000000 0.000000
vt 1.000000 0.000000
s 1
usemtl models/caelum/world/environment/rock_quartz.png
f 1/1 2/2 3/3
f 4/4 5/5 6/6 7/7
f 8/8 9/9 10/10 11/11
f 12/12 13/13 14/14
f 15/15 16/16 17/17
f 18/18 19/19 20/20 21/21
f 22/22 23/23 24/24 25/25
f 26/26 27/27 28/28
f 29/29 30/30 31/31
f 32/32 33/33 34/34 35/35
f 36/36 37/37 38/38 39/39
f 40/40 41/41 42/42
f 43/43 44/44 45/45
f 46/46 47/47 48/48 49/49
f 50/50 51/51 52/52 53/53
f 54/54 55/55 56/56
f 57/57 58/58 59/59
f 60/60 61/61 62/62 63/63
f 64/64 65/65 66/66 67/67
f 68/68 69/69 70/70
f 71/71 72/72 73/73
f 74/74 75/75 76/76 77/77
f 78/78 79/79 80/80 81/81
f 82/82 83/83 84/84
f 85/85 86/86 87/87
f 88/88 89/89 90/90 91/91
f 92/92 93/93 94/94 95/95
f 96/96 97/97 98/98
f 99/99 100/100 101/101
f 102/102 103/103 104/104 105/105
f 106/106 107/107 108/108 109/109
f 110/110 111/111 112/112
f 113/113 114/114 115/115
f 116/116 117/117 118/118 119/119
f 120/120 121/121 122/122 123/123
f 124/124 125/125 126/126
f 127/127 128/128 129/129 130/130
f 131/131 132/132 133/133
f 134/134 135/135 136/136
f 137/137 138/138 139/139 140/140
f 141/141 142/142 143/143
f 144/144 145/145 146/146
f 147/147 148/148 149/149 150/150
f 151/151 152/152 153/153
f 154/154 155/155 156/156
f 157/157 158/158 159/159 160/160
f 161/161 162/162 163/163
f 164/164 165/165 166/166
f 167/167 168/168 169/169 170/170
f 171/171 172/172 173/173
f 174/174 175/175 176/176
f 177/177 178/178 179/179 180/180
f 181/181 182/182 183/183
f 184/184 185/185 186/186
f 187/187 188/188 189/189 190/190
f 191/191 192/192 193/193
f 194/194 195/195 196/196
f 197/197 198/198 199/199 200/200
f 201/201 202/202 203/203
f 204/204 205/205 206/206
f 207/207 208/208 209/209 210/210
f 211/211 212/212 213/213
f 214/214 215/215 216/216
f 217/217 218/218 219/219 220/220
f 221/221 222/222 223/223
f 224/224 225/225 226/226
f 227/227 228/228 229/229 230/230
f 231/231 232/232 233/233
f 234/234 235/235 236/236
f 237/237 238/238 239/239 240/240
f 241/241 242/242 243/243
f 244/244 245/245 246/246
f 247/247 248/248 249/249 250/250
f 251/251 252/252 253/253
f 254/254 255/255 256/256
f 257/257 258/258 259/259 260/260
f 261/261 262/262 263/263
f 264/264 265/265 266/266
f 267/267 268/268 269/269 270/270
f 271/271 272/272 273/273
f 274/274 275/275 276/276
f 277/277 278/278 279/279 280/280
f 281/281 282/282 283/283
f 284/284 285/285 286/286
f 287/287 288/288 289/289 290/290
f 291/291 292/292 293/293
f 294/294 295/295 296/296
f 297/297 298/298 299/299 300/300
f 301/301 302/302 303/303
f 304/304 305/305 306/306
f 307/307 308/308 309/309 310/310
f 311/311 312/312 313/313
f 314/314 315/315 316/316
f 317/317 318/318 319/319 320/320
f 321/321 322/322 323/323
f 324/324 325/325 326/326
f 327/327 328/328 329/329 330/330
f 331/331 332/332 333/333
f 334/334 335/335 336/336
f 337/337 338/338 339/339 340/340
f 341/341 342/342 343/343
f 344/344 345/345 346/346
f 347/347 348/348 349/349 350/350
f 351/351 352/352 353/353
f 354/354 355/355 356/356
f 357/357 358/358 359/359 360/360
f 361/361 362/362 363/363
f 364/364 365/365 366/366
f 367/367 368/368 369/369 370/370
f 371/371 372/372 373/373
f 374/374 375/375 376/376
f 377/377 378/378 379/379 380/380
f 381/381 382/382 383/383
f 384/384 385/385 386/386
f 387/387 388/388 389/389 390/390
f 391/391 392/392 393/393
f 394/394 395/395 396/396
f 397/397 398/398 399/399 400/400
f 401/401 402/402 403/403
f 404/404 405/405 406/406
f 407/407 408/408 409/409 410/410
f 411/411 412/412 413/413
f 414/414 415/415 416/416
f 417/417 418/418 419/419 420/420
f 421/421 422/422 423/423
f 424/424 425/425 426/426
