# Modelo original generado para Caelum Argenteum.
# Ejes OBJ: X ancho, Y altura, Z profundidad.
o ca_rock_basalt2
v -16.667637 0.000000 -17.058595
v -32.428386 -0.219398 -7.958241
v -30.433090 60.280284 -6.320177
v -17.509276 60.460190 -13.782467
v -16.667637 0.000000 1.142113
v -32.428386 -0.219398 -7.958241
v -16.667637 0.000000 -17.058595
v -17.509276 60.460190 1.142113
v -17.509276 60.460190 -13.782467
v -30.433090 60.280284 -6.320177
v -32.428386 -0.219398 -7.958241
v -32.428386 -0.219398 10.242468
v -30.433090 60.280284 8.604404
v -30.433090 60.280284 -6.320177
v -16.667637 0.000000 1.142113
v -32.428386 -0.219398 10.242468
v -32.428386 -0.219398 -7.958241
v -17.509276 60.460190 1.142113
v -30.433090 60.280284 -6.320177
v -30.433090 60.280284 8.604404
v -32.428386 -0.219398 10.242468
v -16.667637 -0.000000 19.342822
v -17.509276 60.460190 16.066694
v -30.433090 60.280284 8.604404
v -16.667637 0.000000 1.142113
v -16.667637 -0.000000 19.342822
v -32.428386 -0.219398 10.242468
v -17.509276 60.460190 1.142113
v -30.433090 60.280284 8.604404
v -17.509276 60.460190 16.066694
v -16.667637 -0.000000 19.342822
v -0.906889 0.219398 10.242468
v -4.585462 60.640097 8.604404
v -17.509276 60.460190 16.066694
v -16.667637 0.000000 1.142113
v -0.906889 0.219398 10.242468
v -16.667637 -0.000000 19.342822
v -17.509276 60.460190 1.142113
v -17.509276 60.460190 16.066694
v -4.585462 60.640097 8.604404
v -0.906889 0.219398 10.242468
v -0.906889 0.219398 -7.958241
v -4.585462 60.640097 -6.320177
v -4.585462 60.640097 8.604404
v -16.667637 0.000000 1.142113
v -0.906889 0.219398 -7.958241
v -0.906889 0.219398 10.242468
v -17.509276 60.460190 1.142113
v -4.585462 60.640097 8.604404
v -4.585462 60.640097 -6.320177
v -0.906889 0.219398 -7.958241
v -16.667637 0.000000 -17.058595
v -17.509276 60.460190 -13.782467
v -4.585462 60.640097 -6.320177
v -16.667637 0.000000 1.142113
v -16.667637 0.000000 -17.058595
v -0.906889 0.219398 -7.958241
v -17.509276 60.460190 1.142113
v -4.585462 60.640097 -6.320177
v -17.509276 60.460190 -13.782467
v -0.439215 0.031634 -19.567012
v -16.314702 0.243017 -7.656918
v -11.886466 86.042480 -6.253864
v 1.131433 85.869147 -16.020141
v 1.936572 0.000000 0.137829
v -16.314702 0.243017 -7.656918
v -0.439215 0.031634 -19.567012
v 3.079578 85.843207 0.137829
v 1.131433 85.869147 -16.020141
v -11.886466 86.042480 -6.253864
v -16.314702 0.243017 -7.656918
v -13.938916 0.211383 12.047923
v -9.938321 86.016541 9.904106
v -11.886466 86.042480 -6.253864
v 1.936572 0.000000 0.137829
v -13.938916 0.211383 12.047923
v -16.314702 0.243017 -7.656918
v 3.079578 85.843207 0.137829
v -11.886466 86.042480 -6.253864
v -9.938321 86.016541 9.904106
v -13.938916 0.211383 12.047923
v 4.312358 -0.031634 19.842670
v 5.027723 85.817267 16.295798
v -9.938321 86.016541 9.904106
v 1.936572 0.000000 0.137829
v 4.312358 -0.031634 19.842670
v -13.938916 0.211383 12.047923
v 3.079578 85.843207 0.137829
v -9.938321 86.016541 9.904106
v 5.027723 85.817267 16.295798
v 4.312358 -0.031634 19.842670
v 20.187845 -0.243017 7.932576
v 18.045622 85.643933 6.529521
v 5.027723 85.817267 16.295798
v 1.936572 0.000000 0.137829
v 20.187845 -0.243017 7.932576
v 4.312358 -0.031634 19.842670
v 3.079578 85.843207 0.137829
v 5.027723 85.817267 16.295798
v 18.045622 85.643933 6.529521
v 20.187845 -0.243017 7.932576
v 17.812059 -0.211383 -11.772265
v 16.097477 85.669873 -9.628448
v 18.045622 85.643933 6.529521
v 1.936572 0.000000 0.137829
v 17.812059 -0.211383 -11.772265
v 20.187845 -0.243017 7.932576
v 3.079578 85.843207 0.137829
v 18.045622 85.643933 6.529521
v 16.097477 85.669873 -9.628448
v 17.812059 -0.211383 -11.772265
v -0.439215 0.031634 -19.567012
v 1.131433 85.869147 -16.020141
v 16.097477 85.669873 -9.628448
v 1.936572 0.000000 0.137829
v -0.439215 0.031634 -19.567012
v 17.812059 -0.211383 -11.772265
v 3.079578 85.843207 0.137829
v 16.097477 85.669873 -9.628448
v 1.131433 85.869147 -16.020141
v 15.978557 -0.098396 -21.300555
v 4.544804 -0.397413 -10.350998
v 5.831900 55.051236 -9.553503
v 15.207578 55.296429 -18.532140
v 19.741034 0.000000 -5.920471
v 4.544804 -0.397413 -10.350998
v 15.978557 -0.098396 -21.300555
v 18.292809 55.377114 -5.920471
v 15.207578 55.296429 -18.532140
v 5.831900 55.051236 -9.553503
v 4.544804 -0.397413 -10.350998
v 8.307281 -0.299016 5.029086
v 8.917132 55.131921 3.058166
v 5.831900 55.051236 -9.553503
v 19.741034 0.000000 -5.920471
v 8.307281 -0.299016 5.029086
v 4.544804 -0.397413 -10.350998
v 18.292809 55.377114 -5.920471
v 5.831900 55.051236 -9.553503
v 8.917132 55.131921 3.058166
v 8.307281 -0.299016 5.029086
v 23.503511 0.098396 9.459614
v 21.378040 55.457800 6.691199
v 8.917132 55.131921 3.058166
v 19.741034 0.000000 -5.920471
v 23.503511 0.098396 9.459614
v 8.307281 -0.299016 5.029086
v 18.292809 55.377114 -5.920471
v 8.917132 55.131921 3.058166
v 21.378040 55.457800 6.691199
v 23.503511 0.098396 9.459614
v 34.937264 0.397413 -1.489943
v 30.753717 55.702993 -2.287438
v 21.378040 55.457800 6.691199
v 19.741034 0.000000 -5.920471
v 34.937264 0.397413 -1.489943
v 23.503511 0.098396 9.459614
v 18.292809 55.377114 -5.920471
v 21.378040 55.457800 6.691199
v 30.753717 55.702993 -2.287438
v 34.937264 0.397413 -1.489943
v 31.174787 0.299016 -16.870028
v 27.668486 55.622308 -14.899107
v 30.753717 55.702993 -2.287438
v 19.741034 0.000000 -5.920471
v 31.174787 0.299016 -16.870028
v 34.937264 0.397413 -1.489943
v 18.292809 55.377114 -5.920471
v 30.753717 55.702993 -2.287438
v 27.668486 55.622308 -14.899107
v 31.174787 0.299016 -16.870028
v 15.978557 -0.098396 -21.300555
v 15.207578 55.296429 -18.532140
v 27.668486 55.622308 -14.899107
v 19.741034 0.000000 -5.920471
v 15.978557 -0.098396 -21.300555
v 31.174787 0.299016 -16.870028
v 18.292809 55.377114 -5.920471
v 27.668486 55.622308 -14.899107
v 15.207578 55.296429 -18.532140
v -7.944330 0.127640 4.815878
v -17.549352 0.357493 16.523598
v -13.631984 51.624475 16.967607
v -5.755866 51.435996 7.367276
v -2.610559 0.000000 18.990312
v -17.549352 0.357493 16.523598
v -7.944330 0.127640 4.815878
v -1.382174 51.331331 18.990312
v -5.755866 51.435996 7.367276
v -13.631984 51.624475 16.967607
v -17.549352 0.357493 16.523598
v -12.215581 0.229853 30.698033
v -9.258292 51.519811 28.590643
v -13.631984 51.624475 16.967607
v -2.610559 0.000000 18.990312
v -12.215581 0.229853 30.698033
v -17.549352 0.357493 16.523598
v -1.382174 51.331331 18.990312
v -13.631984 51.624475 16.967607
v -9.258292 51.519811 28.590643
v -12.215581 0.229853 30.698033
v 2.723211 -0.127640 33.164747
v 2.991518 51.226666 30.613349
v -9.258292 51.519811 28.590643
v -2.610559 0.000000 18.990312
v 2.723211 -0.127640 33.164747
v -12.215581 0.229853 30.698033
v -1.382174 51.331331 18.990312
v -9.258292 51.519811 28.590643
v 2.991518 51.226666 30.613349
v 2.723211 -0.127640 33.164747
v 12.328233 -0.357493 21.457026
v 10.867636 51.038187 21.013018
v 2.991518 51.226666 30.613349
v -2.610559 0.000000 18.990312
v 12.328233 -0.357493 21.457026
v 2.723211 -0.127640 33.164747
v -1.382174 51.331331 18.990312
v 2.991518 51.226666 30.613349
v 10.867636 51.038187 21.013018
v 12.328233 -0.357493 21.457026
v 6.994463 -0.229853 7.282592
v 6.493944 51.142852 9.389981
v 10.867636 51.038187 21.013018
v -2.610559 0.000000 18.990312
v 6.994463 -0.229853 7.282592
v 12.328233 -0.357493 21.457026
v -1.382174 51.331331 18.990312
v 10.867636 51.038187 21.013018
v 6.493944 51.142852 9.389981
v 6.994463 -0.229853 7.282592
v -7.944330 0.127640 4.815878
v -5.755866 51.435996 7.367276
v 6.493944 51.142852 9.389981
v -2.610559 0.000000 18.990312
v -7.944330 0.127640 4.815878
v 6.994463 -0.229853 7.282592
v -1.382174 51.331331 18.990312
v 6.493944 51.142852 9.389981
v -5.755866 51.435996 7.367276
vt 0.000000 0.000000
vt 1.000000 0.000000
vt 1.000000 1.000000
vt 0.000000 1.000000
vt 0.500000 1.000000
vt 0.000000 0.000000
vt 1.000000 0.000000
vt 0.500000 1.000000
vt 0.000000 0.000000
vt 1.000000 0.000000
vt 0.000000 0.000000
vt 1.000000 0.000000
vt 1.000000 1.000000
vt 0.000000 1.000000
vt 0.500000 1.000000
vt 0.000000 0.000000
vt 1.000000 0.000000
vt 0.500000 1.000000
vt 0.000000 0.000000
vt 1.000000 0.000000
vt 0.000000 0.000000
vt 1.000000 0.000000
vt 1.000000 1.000000
vt 0.000000 1.000000
vt 0.500000 1.000000
vt 0.000000 0.000000
vt 1.000000 0.000000
vt 0.500000 1.000000
vt 0.000000 0.000000
vt 1.000000 0.000000
vt 0.000000 0.000000
vt 1.000000 0.000000
vt 1.000000 1.000000
vt 0.000000 1.000000
vt 0.500000 1.000000
vt 0.000000 0.000000
vt 1.000000 0.000000
vt 0.500000 1.000000
vt 0.000000 0.000000
vt 1.000000 0.000000
vt 0.000000 0.000000
vt 1.000000 0.000000
vt 1.000000 1.000000
vt 0.000000 1.000000
vt 0.500000 1.000000
vt 0.000000 0.000000
vt 1.000000 0.000000
vt 0.500000 1.000000
vt 0.000000 0.000000
vt 1.000000 0.000000
vt 0.000000 0.000000
vt 1.000000 0.000000
vt 1.000000 1.000000
vt 0.000000 1.000000
vt 0.500000 1.000000
vt 0.000000 0.000000
vt 1.000000 0.000000
vt 0.500000 1.000000
vt 0.000000 0.000000
vt 1.000000 0.000000
vt 0.000000 0.000000
vt 1.000000 0.000000
vt 1.000000 1.000000
vt 0.000000 1.000000
vt 0.500000 1.000000
vt 0.000000 0.000000
vt 1.000000 0.000000
vt 0.500000 1.000000
vt 0.000000 0.000000
vt 1.000000 0.000000
vt 0.000000 0.000000
vt 1.000000 0.000000
vt 1.000000 1.000000
vt 0.000000 1.000000
vt 0.500000 1.000000
vt 0.000000 0.000000
vt 1.000000 0.000000
vt 0.500000 1.000000
vt 0.000000 0.000000
vt 1.000000 0.000000
vt 0.000000 0.000000
vt 1.000000 0.000000
vt 1.000000 1.000000
vt 0.000000 1.000000
vt 0.500000 1.000000
vt 0.000000 0.000000
vt 1.000000 0.000000
vt 0.500000 1.000000
vt 0.000000 0.000000
vt 1.000000 0.000000
vt 0.000000 0.000000
vt 1.000000 0.000000
vt 1.000000 1.000000
vt 0.000000 1.000000
vt 0.500000 1.000000
vt 0.000000 0.000000
vt 1.000000 0.000000
vt 0.500000 1.000000
vt 0.000000 0.000000
vt 1.000000 0.000000
vt 0.000000 0.000000
vt 1.000000 0.000000
vt 1.000000 1.000000
vt 0.000000 1.000000
vt 0.500000 1.000000
vt 0.000000 0.000000
vt 1.000000 0.000000
vt 0.500000 1.000000
vt 0.000000 0.000000
vt 1.000000 0.000000
vt 0.000000 0.000000
vt 1.000000 0.000000
vt 1.000000 1.000000
vt 0.000000 1.000000
vt 0.500000 1.000000
vt 0.000000 0.000000
vt 1.000000 0.000000
vt 0.500000 1.000000
vt 0.000000 0.000000
vt 1.000000 0.000000
vt 0.000000 0.000000
vt 1.000000 0.000000
vt 1.000000 1.000000
vt 0.000000 1.000000
vt 0.500000 1.000000
vt 0.000000 0.000000
vt 1.000000 0.000000
vt 0.500000 1.000000
vt 0.000000 0.000000
vt 1.000000 0.000000
vt 0.000000 0.000000
vt 1.000000 0.000000
vt 1.000000 1.000000
vt 0.000000 1.000000
vt 0.500000 1.000000
vt 0.000000 0.000000
vt 1.000000 0.000000
vt 0.500000 1.000000
vt 0.000000 0.000000
vt 1.000000 0.000000
vt 0.000000 0.000000
vt 1.000000 0.000000
vt 1.000000 1.000000
vt 0.000000 1.000000
vt 0.500000 1.000000
vt 0.000000 0.000000
vt 1.000000 0.000000
vt 0.500000 1.000000
vt 0.000000 0.000000
vt 1.000000 0.000000
vt 0.000000 0.000000
vt 1.000000 0.000000
vt 1.000000 1.000000
vt 0.000000 1.000000
vt 0.500000 1.000000
vt 0.000000 0.000000
vt 1.000000 0.000000
vt 0.500000 1.000000
vt 0.000000 0.000000
vt 1.000000 0.000000
vt 0.000000 0.000000
vt 1.000000 0.000000
vt 1.000000 1.000000
vt 0.000000 1.000000
vt 0.500000 1.000000
vt 0.000000 0.000000
vt 1.000000 0.000000
vt 0.500000 1.000000
vt 0.000000 0.000000
vt 1.000000 0.000000
vt 0.000000 0.000000
vt 1.000000 0.000000
vt 1.000000 1.000000
vt 0.000000 1.000000
vt 0.500000 1.000000
vt 0.000000 0.000000
vt 1.000000 0.000000
vt 0.500000 1.000000
vt 0.000000 0.000000
vt 1.000000 0.000000
vt 0.000000 0.000000
vt 1.000000 0.000000
vt 1.000000 1.000000
vt 0.000000 1.000000
vt 0.500000 1.000000
vt 0.000000 0.000000
vt 1.000000 0.000000
vt 0.500000 1.000000
vt 0.000000 0.000000
vt 1.000000 0.000000
vt 0.000000 0.000000
vt 1.000000 0.000000
vt 1.000000 1.000000
vt 0.000000 1.000000
vt 0.500000 1.000000
vt 0.000000 0.000000
vt 1.000000 0.000000
vt 0.500000 1.000000
vt 0.000000 0.000000
vt 1.000000 0.000000
vt 0.000000 0.000000
vt 1.000000 0.000000
vt 1.000000 1.000000
vt 0.000000 1.000000
vt 0.500000 1.000000
vt 0.000000 0.000000
vt 1.000000 0.000000
vt 0.500000 1.000000
vt 0.000000 0.000000
vt 1.000000 0.000000
vt 0.000000 0.000000
vt 1.000000 0.000000
vt 1.000000 1.000000
vt 0.000000 1.000000
vt 0.500000 1.000000
vt 0.000000 0.000000
vt 1.000000 0.000000
vt 0.500000 1.000000
vt 0.000000 0.000000
vt 1.000000 0.000000
vt 0.000000 0.000000
vt 1.000000 0.000000
vt 1.000000 1.000000
vt 0.000000 1.000000
vt 0.500000 1.000000
vt 0.000000 0.000000
vt 1.000000 0.000000
vt 0.500000 1.000000
vt 0.000000 0.000000
vt 1.000000 0.000000
vt 0.000000 0.000000
vt 1.000000 0.000000
vt 1.000000 1.000000
vt 0.000000 1.000000
vt 0.500000 1.000000
vt 0.000000 0.000000
vt 1.000000 0.000000
vt 0.500000 1.000000
vt 0.000000 0.000000
vt 1.000000 0.000000
s 1
usemtl models/caelum/world/environment/rock_basalt.png
f 1/1 2/2 3/3 4/4
f 5/5 6/6 7/7
f 8/8 9/9 10/10
f 11/11 12/12 13/13 14/14
f 15/15 16/16 17/17
f 18/18 19/19 20/20
f 21/21 22/22 23/23 24/24
f 25/25 26/26 27/27
f 28/28 29/29 30/30
f 31/31 32/32 33/33 34/34
f 35/35 36/36 37/37
f 38/38 39/39 40/40
f 41/41 42/42 43/43 44/44
f 45/45 46/46 47/47
f 48/48 49/49 50/50
f 51/51 52/52 53/53 54/54
f 55/55 56/56 57/57
f 58/58 59/59 60/60
f 61/61 62/62 63/63 64/64
f 65/65 66/66 67/67
f 68/68 69/69 70/70
f 71/71 72/72 73/73 74/74
f 75/75 76/76 77/77
f 78/78 79/79 80/80
f 81/81 82/82 83/83 84/84
f 85/85 86/86 87/87
f 88/88 89/89 90/90
f 91/91 92/92 93/93 94/94
f 95/95 96/96 97/97
f 98/98 99/99 100/100
f 101/101 102/102 103/103 104/104
f 105/105 106/106 107/107
f 108/108 109/109 110/110
f 111/111 112/112 113/113 114/114
f 115/115 116/116 117/117
f 118/118 119/119 120/120
f 121/121 122/122 123/123 124/124
f 125/125 126/126 127/127
f 128/128 129/129 130/130
f 131/131 132/132 133/133 134/134
f 135/135 136/136 137/137
f 138/138 139/139 140/140
f 141/141 142/142 143/143 144/144
f 145/145 146/146 147/147
f 148/148 149/149 150/150
f 151/151 152/152 153/153 154/154
f 155/155 156/156 157/157
f 158/158 159/159 160/160
f 161/161 162/162 163/163 164/164
f 165/165 166/166 167/167
f 168/168 169/169 170/170
f 171/171 172/172 173/173 174/174
f 175/175 176/176 177/177
f 178/178 179/179 180/180
f 181/181 182/182 183/183 184/184
f 185/185 186/186 187/187
f 188/188 189/189 190/190
f 191/191 192/192 193/193 194/194
f 195/195 196/196 197/197
f 198/198 199/199 200/200
f 201/201 202/202 203/203 204/204
f 205/205 206/206 207/207
f 208/208 209/209 210/210
f 211/211 212/212 213/213 214/214
f 215/215 216/216 217/217
f 218/218 219/219 220/220
f 221/221 222/222 223/223 224/224
f 225/225 226/226 227/227
f 228/228 229/229 230/230
f 231/231 232/232 233/233 234/234
f 235/235 236/236 237/237
f 238/238 239/239 240/240
