# Modelo original generado para Caelum Argenteum.
# Ejes OBJ: X ancho, Y altura, Z profundidad.
o ca_rock_sandstone2
v 0.000000 0.000000 0.000000
v 33.641430 0.182017 0.000000
v 28.683719 -0.718796 14.950393
v 33.641430 0.182017 0.000000
v 40.920103 7.408429 0.000000
v 31.151799 6.766633 16.236794
v 28.683719 -0.718796 14.950393
v 40.920103 7.408429 0.000000
v 29.559063 14.695116 0.000000
v 27.347463 14.328282 14.253916
v 31.151799 6.766633 16.236794
v 9.727776 22.000000 -1.435185
v 27.347463 14.328282 14.253916
v 29.559063 14.695116 0.000000
v 0.000000 0.000000 0.000000
v 28.683719 -0.718796 14.950393
v 11.080003 0.244504 24.463576
v 28.683719 -0.718796 14.950393
v 31.151799 6.766633 16.236794
v 13.335132 7.058533 29.442684
v 11.080003 0.244504 24.463576
v 31.151799 6.766633 16.236794
v 27.347463 14.328282 14.253916
v 8.752526 15.358500 19.324732
v 13.335132 7.058533 29.442684
v 9.727776 22.000000 -1.435185
v 8.752526 15.358500 19.324732
v 27.347463 14.328282 14.253916
v 0.000000 0.000000 0.000000
v 11.080003 0.244504 24.463576
v -10.413561 0.003229 22.992136
v 11.080003 0.244504 24.463576
v 13.335132 7.058533 29.442684
v -13.490105 7.211518 29.784848
v -10.413561 0.003229 22.992136
v 13.335132 7.058533 29.442684
v 8.752526 15.358500 19.324732
v -9.673502 14.614791 21.358158
v -13.490105 7.211518 29.784848
v 9.727776 22.000000 -1.435185
v -9.673502 14.614791 21.358158
v 8.752526 15.358500 19.324732
v 0.000000 0.000000 0.000000
v -10.413561 0.003229 22.992136
v -29.386282 0.700244 15.316579
v -10.413561 0.003229 22.992136
v -13.490105 7.211518 29.784848
v -32.545969 6.884586 16.963457
v -29.386282 0.700244 15.316579
v -13.490105 7.211518 29.784848
v -9.673502 14.614791 21.358158
v -26.125274 15.699488 13.616892
v -32.545969 6.884586 16.963457
v 9.727776 22.000000 -1.435185
v -26.125274 15.699488 13.616892
v -9.673502 14.614791 21.358158
v 0.000000 0.000000 0.000000
v -29.386282 0.700244 15.316579
v -38.752260 -0.328351 0.000000
v -29.386282 0.700244 15.316579
v -32.545969 6.884586 16.963457
v -50.461535 6.703680 0.000000
v -38.752260 -0.328351 0.000000
v -32.545969 6.884586 16.963457
v -26.125274 15.699488 13.616892
v -28.255870 14.784263 0.000000
v -50.461535 6.703680 0.000000
v 9.727776 22.000000 -1.435185
v -28.255870 14.784263 0.000000
v -26.125274 15.699488 13.616892
v 0.000000 0.000000 0.000000
v -38.752260 -0.328351 0.000000
v -34.735971 0.437724 -18.104919
v -38.752260 -0.328351 0.000000
v -50.461535 6.703680 0.000000
v -37.950219 6.282500 -19.780235
v -34.735971 0.437724 -18.104919
v -50.461535 6.703680 0.000000
v -28.255870 14.784263 0.000000
v -30.266419 14.560181 -15.775320
v -37.950219 6.282500 -19.780235
v 9.727776 22.000000 -1.435185
v -30.266419 14.560181 -15.775320
v -28.255870 14.784263 0.000000
v 0.000000 0.000000 0.000000
v -34.735971 0.437724 -18.104919
v -10.732701 0.532988 -23.696767
v -34.735971 0.437724 -18.104919
v -37.950219 6.282500 -19.780235
v -15.566356 6.966699 -34.369010
v -10.732701 0.532988 -23.696767
v -37.950219 6.282500 -19.780235
v -30.266419 14.560181 -15.775320
v -12.306258 14.915602 -27.171029
v -15.566356 6.966699 -34.369010
v 9.727776 22.000000 -1.435185
v -12.306258 14.915602 -27.171029
v -30.266419 14.560181 -15.775320
v 0.000000 0.000000 0.000000
v -10.732701 0.532988 -23.696767
v 12.746060 0.230485 -28.142068
v -10.732701 0.532988 -23.696767
v -15.566356 6.966699 -34.369010
v 14.426998 6.734607 -31.853418
v 12.746060 0.230485 -28.142068
v -15.566356 6.966699 -34.369010
v -12.306258 14.915602 -27.171029
v 9.815212 14.742624 -21.671040
v 14.426998 6.734607 -31.853418
v 9.727776 22.000000 -1.435185
v 9.815212 14.742624 -21.671040
v -12.306258 14.915602 -27.171029
v 0.000000 0.000000 0.000000
v 12.746060 0.230485 -28.142068
v 32.689897 -0.753472 -17.038474
v 12.746060 0.230485 -28.142068
v 14.426998 6.734607 -31.853418
v 33.739722 6.541486 -17.585659
v 32.689897 -0.753472 -17.038474
v 14.426998 6.734607 -31.853418
v 9.815212 14.742624 -21.671040
v 27.486991 15.012589 -14.326640
v 33.739722 6.541486 -17.585659
v 9.727776 22.000000 -1.435185
v 27.486991 15.012589 -14.326640
v 9.815212 14.742624 -21.671040
v 0.000000 0.000000 0.000000
v 32.689897 -0.753472 -17.038474
v 33.641430 0.182017 0.000000
v 32.689897 -0.753472 -17.038474
v 33.739722 6.541486 -17.585659
v 40.920103 7.408429 0.000000
v 33.641430 0.182017 0.000000
v 33.739722 6.541486 -17.585659
v 27.486991 15.012589 -14.326640
v 29.559063 14.695116 0.000000
v 40.920103 7.408429 0.000000
v 9.727776 22.000000 -1.435185
v 29.559063 14.695116 0.000000
v 27.486991 15.012589 -14.326640
v -13.000000 17.000000 3.000000
v 17.399004 17.231642 3.000000
v 8.306444 17.196001 17.142480
v 17.399004 17.231642 3.000000
v 18.454069 24.021607 3.000000
v 14.862788 24.302525 21.494354
v 8.306444 17.196001 17.142480
v 18.454069 24.021607 3.000000
v 13.569335 31.302381 3.000000
v 3.427515 31.821839 13.904016
v 14.862788 24.302525 21.494354
v -15.748371 38.000000 5.352743
v 3.427515 31.821839 13.904016
v 13.569335 31.302381 3.000000
v -13.000000 17.000000 3.000000
v 8.306444 17.196001 17.142480
v -7.349759 17.084087 28.348324
v 8.306444 17.196001 17.142480
v 14.862788 24.302525 21.494354
v -7.901487 23.544089 25.873142
v -7.349759 17.084087 28.348324
v 14.862788 24.302525 21.494354
v 3.427515 31.821839 13.904016
v -9.056355 31.447483 20.692131
v -7.901487 23.544089 25.873142
v -15.748371 38.000000 5.352743
v -9.056355 31.447483 20.692131
v 3.427515 31.821839 13.904016
v -13.000000 17.000000 3.000000
v -7.349759 17.084087 28.348324
v -29.268878 17.255355 25.290473
v -7.349759 17.084087 28.348324
v -7.901487 23.544089 25.873142
v -30.706946 23.473884 27.260813
v -29.268878 17.255355 25.290473
v -7.901487 23.544089 25.873142
v -9.056355 31.447483 20.692131
v -25.985243 30.778236 20.791468
v -30.706946 23.473884 27.260813
v -15.748371 38.000000 5.352743
v -25.985243 30.778236 20.791468
v -9.056355 31.447483 20.692131
v -13.000000 17.000000 3.000000
v -29.268878 17.255355 25.290473
v -36.255030 16.845127 9.695513
v -29.268878 17.255355 25.290473
v -30.706946 23.473884 27.260813
v -44.389767 23.727111 12.037640
v -36.255030 16.845127 9.695513
v -30.706946 23.473884 27.260813
v -25.985243 30.778236 20.791468
v -39.262094 31.374530 10.561297
v -44.389767 23.727111 12.037640
v -15.748371 38.000000 5.352743
v -39.262094 31.374530 10.561297
v -25.985243 30.778236 20.791468
v -13.000000 17.000000 3.000000
v -36.255030 16.845127 9.695513
v -43.803466 16.879084 -5.868834
v -36.255030 16.845127 9.695513
v -44.389767 23.727111 12.037640
v -40.188028 23.221761 -4.827889
v -43.803466 16.879084 -5.868834
v -44.389767 23.727111 12.037640
v -39.262094 31.374530 10.561297
v -36.797325 31.995750 -3.851648
v -40.188028 23.221761 -4.827889
v -15.748371 38.000000 5.352743
v -36.797325 31.995750 -3.851648
v -39.262094 31.374530 10.561297
v -13.000000 17.000000 3.000000
v -43.803466 16.879084 -5.868834
v -28.806620 17.466760 -18.657121
v -43.803466 16.879084 -5.868834
v -40.188028 23.221761 -4.827889
v -32.732116 24.100507 -24.035560
v -28.806620 17.466760 -18.657121
v -40.188028 23.221761 -4.827889
v -36.797325 31.995750 -3.851648
v -25.551177 31.119032 -14.196741
v -32.732116 24.100507 -24.035560
v -15.748371 38.000000 5.352743
v -25.551177 31.119032 -14.196741
v -36.797325 31.995750 -3.851648
v -13.000000 17.000000 3.000000
v -28.806620 17.466760 -18.657121
v -8.847292 17.094349 -15.630036
v -28.806620 17.466760 -18.657121
v -32.732116 24.100507 -24.035560
v -7.888211 24.338647 -19.932699
v -8.847292 17.094349 -15.630036
v -32.732116 24.100507 -24.035560
v -25.551177 31.119032 -14.196741
v -9.391613 30.703047 -13.188081
v -7.888211 24.338647 -19.932699
v -15.748371 38.000000 5.352743
v -9.391613 30.703047 -13.188081
v -25.551177 31.119032 -14.196741
v -13.000000 17.000000 3.000000
v -8.847292 17.094349 -15.630036
v 7.025537 16.544956 -10.292258
v -8.847292 17.094349 -15.630036
v -7.888211 24.338647 -19.932699
v 15.113659 23.334295 -15.660873
v 7.025537 16.544956 -10.292258
v -7.888211 24.338647 -19.932699
v -9.391613 30.703047 -13.188081
v 3.991565 31.505756 -8.278413
v 15.113659 23.334295 -15.660873
v -15.748371 38.000000 5.352743
v 3.991565 31.505756 -8.278413
v -9.391613 30.703047 -13.188081
v -13.000000 17.000000 3.000000
v 7.025537 16.544956 -10.292258
v 17.399004 17.231642 3.000000
v 7.025537 16.544956 -10.292258
v 15.113659 23.334295 -15.660873
v 18.454069 24.021607 3.000000
v 17.399004 17.231642 3.000000
v 15.113659 23.334295 -15.660873
v 3.991565 31.505756 -8.278413
v 13.569335 31.302381 3.000000
v 18.454069 24.021607 3.000000
v -15.748371 38.000000 5.352743
v 13.569335 31.302381 3.000000
v 3.991565 31.505756 -8.278413
vt 0.500000 1.000000
vt 0.000000 0.000000
vt 1.000000 0.000000
vt 0.000000 0.000000
vt 1.000000 0.000000
vt 1.000000 1.000000
vt 0.000000 1.000000
vt 0.000000 0.000000
vt 1.000000 0.000000
vt 1.000000 1.000000
vt 0.000000 1.000000
vt 0.500000 1.000000
vt 0.000000 0.000000
vt 1.000000 0.000000
vt 0.500000 1.000000
vt 0.000000 0.000000
vt 1.000000 0.000000
vt 0.000000 0.000000
vt 1.000000 0.000000
vt 1.000000 1.000000
vt 0.000000 1.000000
vt 0.000000 0.000000
vt 1.000000 0.000000
vt 1.000000 1.000000
vt 0.000000 1.000000
vt 0.500000 1.000000
vt 0.000000 0.000000
vt 1.000000 0.000000
vt 0.500000 1.000000
vt 0.000000 0.000000
vt 1.000000 0.000000
vt 0.000000 0.000000
vt 1.000000 0.000000
vt 1.000000 1.000000
vt 0.000000 1.000000
vt 0.000000 0.000000
vt 1.000000 0.000000
vt 1.000000 1.000000
vt 0.000000 1.000000
vt 0.500000 1.000000
vt 0.000000 0.000000
vt 1.000000 0.000000
vt 0.500000 1.000000
vt 0.000000 0.000000
vt 1.000000 0.000000
vt 0.000000 0.000000
vt 1.000000 0.000000
vt 1.000000 1.000000
vt 0.000000 1.000000
vt 0.000000 0.000000
vt 1.000000 0.000000
vt 1.000000 1.000000
vt 0.000000 1.000000
vt 0.500000 1.000000
vt 0.000000 0.000000
vt 1.000000 0.000000
vt 0.500000 1.000000
vt 0.000000 0.000000
vt 1.000000 0.000000
vt 0.000000 0.000000
vt 1.000000 0.000000
vt 1.000000 1.000000
vt 0.000000 1.000000
vt 0.000000 0.000000
vt 1.000000 0.000000
vt 1.000000 1.000000
vt 0.000000 1.000000
vt 0.500000 1.000000
vt 0.000000 0.000000
vt 1.000000 0.000000
vt 0.500000 1.000000
vt 0.000000 0.000000
vt 1.000000 0.000000
vt 0.000000 0.000000
vt 1.000000 0.000000
vt 1.000000 1.000000
vt 0.000000 1.000000
vt 0.000000 0.000000
vt 1.000000 0.000000
vt 1.000000 1.000000
vt 0.000000 1.000000
vt 0.500000 1.000000
vt 0.000000 0.000000
vt 1.000000 0.000000
vt 0.500000 1.000000
vt 0.000000 0.000000
vt 1.000000 0.000000
vt 0.000000 0.000000
vt 1.000000 0.000000
vt 1.000000 1.000000
vt 0.000000 1.000000
vt 0.000000 0.000000
vt 1.000000 0.000000
vt 1.000000 1.000000
vt 0.000000 1.000000
vt 0.500000 1.000000
vt 0.000000 0.000000
vt 1.000000 0.000000
vt 0.500000 1.000000
vt 0.000000 0.000000
vt 1.000000 0.000000
vt 0.000000 0.000000
vt 1.000000 0.000000
vt 1.000000 1.000000
vt 0.000000 1.000000
vt 0.000000 0.000000
vt 1.000000 0.000000
vt 1.000000 1.000000
vt 0.000000 1.000000
vt 0.500000 1.000000
vt 0.000000 0.000000
vt 1.000000 0.000000
vt 0.500000 1.000000
vt 0.000000 0.000000
vt 1.000000 0.000000
vt 0.000000 0.000000
vt 1.000000 0.000000
vt 1.000000 1.000000
vt 0.000000 1.000000
vt 0.000000 0.000000
vt 1.000000 0.000000
vt 1.000000 1.000000
vt 0.000000 1.000000
vt 0.500000 1.000000
vt 0.000000 0.000000
vt 1.000000 0.000000
vt 0.500000 1.000000
vt 0.000000 0.000000
vt 1.000000 0.000000
vt 0.000000 0.000000
vt 1.000000 0.000000
vt 1.000000 1.000000
vt 0.000000 1.000000
vt 0.000000 0.000000
vt 1.000000 0.000000
vt 1.000000 1.000000
vt 0.000000 1.000000
vt 0.500000 1.000000
vt 0.000000 0.000000
vt 1.000000 0.000000
vt 0.500000 1.000000
vt 0.000000 0.000000
vt 1.000000 0.000000
vt 0.000000 0.000000
vt 1.000000 0.000000
vt 1.000000 1.000000
vt 0.000000 1.000000
vt 0.000000 0.000000
vt 1.000000 0.000000
vt 1.000000 1.000000
vt 0.000000 1.000000
vt 0.500000 1.000000
vt 0.000000 0.000000
vt 1.000000 0.000000
vt 0.500000 1.000000
vt 0.000000 0.000000
vt 1.000000 0.000000
vt 0.000000 0.000000
vt 1.000000 0.000000
vt 1.000000 1.000000
vt 0.000000 1.000000
vt 0.000000 0.000000
vt 1.000000 0.000000
vt 1.000000 1.000000
vt 0.000000 1.000000
vt 0.500000 1.000000
vt 0.000000 0.000000
vt 1.000000 0.000000
vt 0.500000 1.000000
vt 0.000000 0.000000
vt 1.000000 0.000000
vt 0.000000 0.000000
vt 1.000000 0.000000
vt 1.000000 1.000000
vt 0.000000 1.000000
vt 0.000000 0.000000
vt 1.000000 0.000000
vt 1.000000 1.000000
vt 0.000000 1.000000
vt 0.500000 1.000000
vt 0.000000 0.000000
vt 1.000000 0.000000
vt 0.500000 1.000000
vt 0.000000 0.000000
vt 1.000000 0.000000
vt 0.000000 0.000000
vt 1.000000 0.000000
vt 1.000000 1.000000
vt 0.000000 1.000000
vt 0.000000 0.000000
vt 1.000000 0.000000
vt 1.000000 1.000000
vt 0.000000 1.000000
vt 0.500000 1.000000
vt 0.000000 0.000000
vt 1.000000 0.000000
vt 0.500000 1.000000
vt 0.000000 0.000000
vt 1.000000 0.000000
vt 0.000000 0.000000
vt 1.000000 0.000000
vt 1.000000 1.000000
vt 0.000000 1.000000
vt 0.000000 0.000000
vt 1.000000 0.000000
vt 1.000000 1.000000
vt 0.000000 1.000000
vt 0.500000 1.000000
vt 0.000000 0.000000
vt 1.000000 0.000000
vt 0.500000 1.000000
vt 0.000000 0.000000
vt 1.000000 0.000000
vt 0.000000 0.000000
vt 1.000000 0.000000
vt 1.000000 1.000000
vt 0.000000 1.000000
vt 0.000000 0.000000
vt 1.000000 0.000000
vt 1.000000 1.000000
vt 0.000000 1.000000
vt 0.500000 1.000000
vt 0.000000 0.000000
vt 1.000000 0.000000
vt 0.500000 1.000000
vt 0.000000 0.000000
vt 1.000000 0.000000
vt 0.000000 0.000000
vt 1.000000 0.000000
vt 1.000000 1.000000
vt 0.000000 1.000000
vt 0.000000 0.000000
vt 1.000000 0.000000
vt 1.000000 1.000000
vt 0.000000 1.000000
vt 0.500000 1.000000
vt 0.000000 0.000000
vt 1.000000 0.000000
vt 0.500000 1.000000
vt 0.000000 0.000000
vt 1.000000 0.000000
vt 0.000000 0.000000
vt 1.000000 0.000000
vt 1.000000 1.000000
vt 0.000000 1.000000
vt 0.000000 0.000000
vt 1.000000 0.000000
vt 1.000000 1.000000
vt 0.000000 1.000000
vt 0.500000 1.000000
vt 0.000000 0.000000
vt 1.000000 0.000000
vt 0.500000 1.000000
vt 0.000000 0.000000
vt 1.000000 0.000000
vt 0.000000 0.000000
vt 1.000000 0.000000
vt 1.000000 1.000000
vt 0.000000 1.000000
vt 0.000000 0.000000
vt 1.000000 0.000000
vt 1.000000 1.000000
vt 0.000000 1.000000
vt 0.500000 1.000000
vt 0.000000 0.000000
vt 1.000000 0.000000
s 1
usemtl models/caelum/world/environment/rock_sandstone.png
f 1/1 2/2 3/3
f 4/4 5/5 6/6 7/7
f 8/8 9/9 10/10 11/11
f 12/12 13/13 14/14
f 15/15 16/16 17/17
f 18/18 19/19 20/20 21/21
f 22/22 23/23 24/24 25/25
f 26/26 27/27 28/28
f 29/29 30/30 31/31
f 32/32 33/33 34/34 35/35
f 36/36 37/37 38/38 39/39
f 40/40 41/41 42/42
f 43/43 44/44 45/45
f 46/46 47/47 48/48 49/49
f 50/50 51/51 52/52 53/53
f 54/54 55/55 56/56
f 57/57 58/58 59/59
f 60/60 61/61 62/62 63/63
f 64/64 65/65 66/66 67/67
f 68/68 69/69 70/70
f 71/71 72/72 73/73
f 74/74 75/75 76/76 77/77
f 78/78 79/79 80/80 81/81
f 82/82 83/83 84/84
f 85/85 86/86 87/87
f 88/88 89/89 90/90 91/91
f 92/92 93/93 94/94 95/95
f 96/96 97/97 98/98
f 99/99 100/100 101/101
f 102/102 103/103 104/104 105/105
f 106/106 107/107 108/108 109/109
f 110/110 111/111 112/112
f 113/113 114/114 115/115
f 116/116 117/117 118/118 119/119
f 120/120 121/121 122/122 123/123
f 124/124 125/125 126/126
f 127/127 128/128 129/129
f 130/130 131/131 132/132 133/133
f 134/134 135/135 136/136 137/137
f 138/138 139/139 140/140
f 141/141 142/142 143/143
f 144/144 145/145 146/146 147/147
f 148/148 149/149 150/150 151/151
f 152/152 153/153 154/154
f 155/155 156/156 157/157
f 158/158 159/159 160/160 161/161
f 162/162 163/163 164/164 165/165
f 166/166 167/167 168/168
f 169/169 170/170 171/171
f 172/172 173/173 174/174 175/175
f 176/176 177/177 178/178 179/179
f 180/180 181/181 182/182
f 183/183 184/184 185/185
f 186/186 187/187 188/188 189/189
f 190/190 191/191 192/192 193/193
f 194/194 195/195 196/196
f 197/197 198/198 199/199
f 200/200 201/201 202/202 203/203
f 204/204 205/205 206/206 207/207
f 208/208 209/209 210/210
f 211/211 212/212 213/213
f 214/214 215/215 216/216 217/217
f 218/218 219/219 220/220 221/221
f 222/222 223/223 224/224
f 225/225 226/226 227/227
f 228/228 229/229 230/230 231/231
f 232/232 233/233 234/234 235/235
f 236/236 237/237 238/238
f 239/239 240/240 241/241
f 242/242 243/243 244/244 245/245
f 246/246 247/247 248/248 249/249
f 250/250 251/251 252/252
f 253/253 254/254 255/255
f 256/256 257/257 258/258 259/259
f 260/260 261/261 262/262 263/263
f 264/264 265/265 266/266
