# Modelo original generado para Caelum Argenteum.
# Ejes OBJ: X ancho, Y altura, Z profundidad.
o ca_rock_quartz3
v 0.000000 0.000000 0.000000
v 30.480601 -0.206368 0.000000
v 25.483720 -0.145250 19.007449
v 30.480601 -0.206368 0.000000
v 31.719598 9.874678 0.000000
v 31.152222 9.072842 23.235394
v 25.483720 -0.145250 19.007449
v 31.719598 9.874678 0.000000
v 26.805011 18.078156 0.000000
v 22.715403 19.839749 16.942655
v 31.152222 9.072842 23.235394
v 3.121547 28.000000 6.312221
v 22.715403 19.839749 16.942655
v 26.805011 18.078156 0.000000
v 0.000000 0.000000 0.000000
v 25.483720 -0.145250 19.007449
v 4.783166 0.614532 24.112608
v 25.483720 -0.145250 19.007449
v 31.152222 9.072842 23.235394
v 5.379213 9.518259 27.117364
v 4.783166 0.614532 24.112608
v 31.152222 9.072842 23.235394
v 22.715403 19.839749 16.942655
v 4.088070 18.391713 20.608533
v 5.379213 9.518259 27.117364
v 3.121547 28.000000 6.312221
v 4.088070 18.391713 20.608533
v 22.715403 19.839749 16.942655
v 0.000000 0.000000 0.000000
v 4.783166 0.614532 24.112608
v -14.580757 0.946186 22.448543
v 4.783166 0.614532 24.112608
v 5.379213 9.518259 27.117364
v -20.553457 9.571105 31.644118
v -14.580757 0.946186 22.448543
v 5.379213 9.518259 27.117364
v 4.088070 18.391713 20.608533
v -13.494686 18.884442 20.776429
v -20.553457 9.571105 31.644118
v 3.121547 28.000000 6.312221
v -13.494686 18.884442 20.776429
v 4.088070 18.391713 20.608533
v 0.000000 0.000000 0.000000
v -14.580757 0.946186 22.448543
v -28.173875 -0.795744 9.115068
v -14.580757 0.946186 22.448543
v -20.553457 9.571105 31.644118
v -32.453599 8.704584 10.499684
v -28.173875 -0.795744 9.115068
v -20.553457 9.571105 31.644118
v -13.494686 18.884442 20.776429
v -23.306063 19.698269 7.540190
v -32.453599 8.704584 10.499684
v 3.121547 28.000000 6.312221
v -23.306063 19.698269 7.540190
v -13.494686 18.884442 20.776429
v 0.000000 0.000000 0.000000
v -28.173875 -0.795744 9.115068
v -29.420095 -0.164624 -9.518257
v -28.173875 -0.795744 9.115068
v -32.453599 8.704584 10.499684
v -28.775821 9.721856 -9.309815
v -29.420095 -0.164624 -9.518257
v -32.453599 8.704584 10.499684
v -23.306063 19.698269 7.540190
v -27.400461 19.445037 -8.864847
v -28.775821 9.721856 -9.309815
v 3.121547 28.000000 6.312221
v -27.400461 19.445037 -8.864847
v -23.306063 19.698269 7.540190
v 0.000000 0.000000 0.000000
v -29.420095 -0.164624 -9.518257
v -16.759144 0.131977 -25.802390
v -29.420095 -0.164624 -9.518257
v -28.775821 9.721856 -9.309815
v -20.203006 8.778134 -31.104563
v -16.759144 0.131977 -25.802390
v -28.775821 9.721856 -9.309815
v -27.400461 19.445037 -8.864847
v -12.533701 19.582080 -19.296896
v -20.203006 8.778134 -31.104563
v 3.121547 28.000000 6.312221
v -12.533701 19.582080 -19.296896
v -27.400461 19.445037 -8.864847
v 0.000000 0.000000 0.000000
v -16.759144 0.131977 -25.802390
v 5.282458 0.737351 -26.629608
v -16.759144 0.131977 -25.802390
v -20.203006 8.778134 -31.104563
v 6.380380 8.343869 -32.164385
v 5.282458 0.737351 -26.629608
v -20.203006 8.778134 -31.104563
v -12.533701 19.582080 -19.296896
v 4.121350 19.668388 -20.776301
v 6.380380 8.343869 -32.164385
v 3.121547 28.000000 6.312221
v 4.121350 19.668388 -20.776301
v -12.533701 19.582080 -19.296896
v 0.000000 0.000000 0.000000
v 5.282458 0.737351 -26.629608
v 21.994533 -0.803641 -16.404982
v 5.282458 0.737351 -26.629608
v 6.380380 8.343869 -32.164385
v 23.410921 9.229617 -17.461418
v 21.994533 -0.803641 -16.404982
v 6.380380 8.343869 -32.164385
v 4.121350 19.668388 -20.776301
v 18.113127 19.898947 -13.509972
v 23.410921 9.229617 -17.461418
v 3.121547 28.000000 6.312221
v 18.113127 19.898947 -13.509972
v 4.121350 19.668388 -20.776301
v 0.000000 0.000000 0.000000
v 21.994533 -0.803641 -16.404982
v 30.480601 -0.206368 0.000000
v 21.994533 -0.803641 -16.404982
v 23.410921 9.229617 -17.461418
v 31.719598 9.874678 0.000000
v 30.480601 -0.206368 0.000000
v 23.410921 9.229617 -17.461418
v 18.113127 19.898947 -13.509972
v 26.805011 18.078156 0.000000
v 31.719598 9.874678 0.000000
v 3.121547 28.000000 6.312221
v 26.805011 18.078156 0.000000
v 18.113127 19.898947 -13.509972
v -21.674870 11.665367 -9.734926
v -27.683045 11.013230 -6.198710
v -27.513348 49.575311 -4.939180
v -26.826897 49.649819 -5.343203
v -21.674870 12.000000 -2.740908
v -27.683045 11.013230 -6.198710
v -21.674870 11.665367 -9.734926
v -26.826897 49.688052 -4.544117
v -26.826897 49.649819 -5.343203
v -27.513348 49.575311 -4.939180
v -27.683045 11.013230 -6.198710
v -27.683045 11.347864 0.795309
v -27.513348 49.613543 -4.140094
v -27.513348 49.575311 -4.939180
v -21.674870 12.000000 -2.740908
v -27.683045 11.347864 0.795309
v -27.683045 11.013230 -6.198710
v -26.826897 49.688052 -4.544117
v -27.513348 49.575311 -4.939180
v -27.513348 49.613543 -4.140094
v -27.683045 11.347864 0.795309
v -21.674870 12.334633 4.253111
v -26.826897 49.726285 -3.745031
v -27.513348 49.613543 -4.140094
v -21.674870 12.000000 -2.740908
v -21.674870 12.334633 4.253111
v -27.683045 11.347864 0.795309
v -26.826897 49.688052 -4.544117
v -27.513348 49.613543 -4.140094
v -26.826897 49.726285 -3.745031
v -21.674870 12.334633 4.253111
v -15.666695 12.986770 0.716895
v -26.140447 49.800793 -4.149054
v -26.826897 49.726285 -3.745031
v -21.674870 12.000000 -2.740908
v -15.666695 12.986770 0.716895
v -21.674870 12.334633 4.253111
v -26.826897 49.688052 -4.544117
v -26.826897 49.726285 -3.745031
v -26.140447 49.800793 -4.149054
v -15.666695 12.986770 0.716895
v -15.666695 12.652136 -6.277124
v -26.140447 49.762560 -4.948139
v -26.140447 49.800793 -4.149054
v -21.674870 12.000000 -2.740908
v -15.666695 12.652136 -6.277124
v -15.666695 12.986770 0.716895
v -26.826897 49.688052 -4.544117
v -26.140447 49.800793 -4.149054
v -26.140447 49.762560 -4.948139
v -15.666695 12.652136 -6.277124
v -21.674870 11.665367 -9.734926
v -26.826897 49.649819 -5.343203
v -26.140447 49.762560 -4.948139
v -21.674870 12.000000 -2.740908
v -21.674870 11.665367 -9.734926
v -15.666695 12.652136 -6.277124
v -26.826897 49.688052 -4.544117
v -26.140447 49.762560 -4.948139
v -26.826897 49.649819 -5.343203
v -1.717673 12.389207 -6.909871
v -8.903476 12.786369 -0.780853
v 3.829511 70.587412 3.729230
v 4.437643 70.553800 3.210534
v -0.030540 12.000000 2.383162
v -8.903476 12.786369 -0.780853
v -1.717673 12.389207 -6.909871
v 4.580425 70.520862 3.996999
v 4.437643 70.553800 3.210534
v 3.829511 70.587412 3.729230
v -8.903476 12.786369 -0.780853
v -7.216342 12.397162 8.512180
v 3.972293 70.554474 4.515696
v 3.829511 70.587412 3.729230
v -0.030540 12.000000 2.383162
v -7.216342 12.397162 8.512180
v -8.903476 12.786369 -0.780853
v 4.580425 70.520862 3.996999
v 3.829511 70.587412 3.729230
v 3.972293 70.554474 4.515696
v -7.216342 12.397162 8.512180
v 1.656594 11.610793 11.676195
v 4.723206 70.487924 4.783465
v 3.972293 70.554474 4.515696
v -0.030540 12.000000 2.383162
v 1.656594 11.610793 11.676195
v -7.216342 12.397162 8.512180
v 4.580425 70.520862 3.996999
v 3.972293 70.554474 4.515696
v 4.723206 70.487924 4.783465
v 1.656594 11.610793 11.676195
v 8.842397 11.213631 5.547176
v 5.331338 70.454312 4.264769
v 4.723206 70.487924 4.783465
v -0.030540 12.000000 2.383162
v 8.842397 11.213631 5.547176
v 1.656594 11.610793 11.676195
v 4.580425 70.520862 3.996999
v 4.723206 70.487924 4.783465
v 5.331338 70.454312 4.264769
v 8.842397 11.213631 5.547176
v 7.155263 11.602838 -3.745856
v 5.188556 70.487250 3.478303
v 5.331338 70.454312 4.264769
v -0.030540 12.000000 2.383162
v 7.155263 11.602838 -3.745856
v 8.842397 11.213631 5.547176
v 4.580425 70.520862 3.996999
v 5.331338 70.454312 4.264769
v 5.188556 70.487250 3.478303
v 7.155263 11.602838 -3.745856
v -1.717673 12.389207 -6.909871
v 4.437643 70.553800 3.210534
v 5.188556 70.487250 3.478303
v -0.030540 12.000000 2.383162
v -1.717673 12.389207 -6.909871
v 7.155263 11.602838 -3.745856
v 4.580425 70.520862 3.996999
v 5.188556 70.487250 3.478303
v 4.437643 70.553800 3.210534
v 16.849235 12.806692 -15.500161
v 12.579794 13.229395 -10.182392
v 24.459973 46.425939 -7.158609
v 24.959858 46.376447 -7.781237
v 19.220102 12.000000 -9.142982
v 12.579794 13.229395 -10.182392
v 16.849235 12.806692 -15.500161
v 25.237449 46.281996 -7.036911
v 24.959858 46.376447 -7.781237
v 24.459973 46.425939 -7.158609
v 12.579794 13.229395 -10.182392
v 14.950660 12.422703 -3.825214
v 24.737564 46.331488 -6.414283
v 24.459973 46.425939 -7.158609
v 19.220102 12.000000 -9.142982
v 14.950660 12.422703 -3.825214
v 12.579794 13.229395 -10.182392
v 25.237449 46.281996 -7.036911
v 24.459973 46.425939 -7.158609
v 24.737564 46.331488 -6.414283
v 14.950660 12.422703 -3.825214
v 21.590968 11.193308 -2.785804
v 25.515041 46.187545 -6.292584
v 24.737564 46.331488 -6.414283
v 19.220102 12.000000 -9.142982
v 21.590968 11.193308 -2.785804
v 14.950660 12.422703 -3.825214
v 25.237449 46.281996 -7.036911
v 24.737564 46.331488 -6.414283
v 25.515041 46.187545 -6.292584
v 21.590968 11.193308 -2.785804
v 25.860410 10.770605 -8.103573
v 26.014926 46.138053 -6.915212
v 25.515041 46.187545 -6.292584
v 19.220102 12.000000 -9.142982
v 25.860410 10.770605 -8.103573
v 21.590968 11.193308 -2.785804
v 25.237449 46.281996 -7.036911
v 25.515041 46.187545 -6.292584
v 26.014926 46.138053 -6.915212
v 25.860410 10.770605 -8.103573
v 23.489543 11.577297 -14.460751
v 25.737334 46.232504 -7.659539
v 26.014926 46.138053 -6.915212
v 19.220102 12.000000 -9.142982
v 23.489543 11.577297 -14.460751
v 25.860410 10.770605 -8.103573
v 25.237449 46.281996 -7.036911
v 26.014926 46.138053 -6.915212
v 25.737334 46.232504 -7.659539
v 23.489543 11.577297 -14.460751
v 16.849235 12.806692 -15.500161
v 24.959858 46.376447 -7.781237
v 25.737334 46.232504 -7.659539
v 19.220102 12.000000 -9.142982
v 16.849235 12.806692 -15.500161
v 23.489543 11.577297 -14.460751
v 25.237449 46.281996 -7.036911
v 25.737334 46.232504 -7.659539
v 24.959858 46.376447 -7.781237
v 18.795367 11.940909 10.706028
v 16.334639 11.927866 15.134881
v 20.260797 35.684060 14.945813
v 20.649340 35.686120 14.246506
v 21.400004 12.000000 15.051424
v 16.334639 11.927866 15.134881
v 18.795367 11.940909 10.706028
v 21.060607 35.695450 14.932635
v 20.649340 35.686120 14.246506
v 20.260797 35.684060 14.945813
v 16.334639 11.927866 15.134881
v 18.939276 11.986957 19.480277
v 20.672063 35.693391 15.631942
v 20.260797 35.684060 14.945813
v 21.400004 12.000000 15.051424
v 18.939276 11.986957 19.480277
v 16.334639 11.927866 15.134881
v 21.060607 35.695450 14.932635
v 20.260797 35.684060 14.945813
v 20.672063 35.693391 15.631942
v 18.939276 11.986957 19.480277
v 24.004641 12.059091 19.396820
v 21.471874 35.704781 15.618764
v 20.672063 35.693391 15.631942
v 21.400004 12.000000 15.051424
v 24.004641 12.059091 19.396820
v 18.939276 11.986957 19.480277
v 21.060607 35.695450 14.932635
v 20.672063 35.693391 15.631942
v 21.471874 35.704781 15.618764
v 24.004641 12.059091 19.396820
v 26.465369 12.072134 14.967967
v 21.860417 35.706840 14.919458
v 21.471874 35.704781 15.618764
v 21.400004 12.000000 15.051424
v 26.465369 12.072134 14.967967
v 24.004641 12.059091 19.396820
v 21.060607 35.695450 14.932635
v 21.471874 35.704781 15.618764
v 21.860417 35.706840 14.919458
v 26.465369 12.072134 14.967967
v 23.860732 12.013043 10.622571
v 21.449151 35.697510 14.233329
v 21.860417 35.706840 14.919458
v 21.400004 12.000000 15.051424
v 23.860732 12.013043 10.622571
v 26.465369 12.072134 14.967967
v 21.060607 35.695450 14.932635
v 21.860417 35.706840 14.919458
v 21.449151 35.697510 14.233329
v 23.860732 12.013043 10.622571
v 18.795367 11.940909 10.706028
v 20.649340 35.686120 14.246506
v 21.449151 35.697510 14.233329
v 21.400004 12.000000 15.051424
v 18.795367 11.940909 10.706028
v 23.860732 12.013043 10.622571
v 21.060607 35.695450 14.932635
v 21.449151 35.697510 14.233329
v 20.649340 35.686120 14.246506
v -7.470817 12.557729 -25.617978
v -9.428682 12.550566 -19.817786
v -1.327891 41.372807 -19.856122
v -1.072033 41.373743 -20.614104
v -3.453940 12.000000 -21.032222
v -9.428682 12.550566 -19.817786
v -7.470817 12.557729 -25.617978
v -0.547099 41.300857 -20.014827
v -1.072033 41.373743 -20.614104
v -1.327891 41.372807 -19.856122
v -9.428682 12.550566 -19.817786
v -5.411805 11.992837 -15.232030
v -0.802957 41.299921 -19.256846
v -1.327891 41.372807 -19.856122
v -3.453940 12.000000 -21.032222
v -5.411805 11.992837 -15.232030
v -9.428682 12.550566 -19.817786
v -0.547099 41.300857 -20.014827
v -1.327891 41.372807 -19.856122
v -0.802957 41.299921 -19.256846
v -5.411805 11.992837 -15.232030
v 0.562936 11.442271 -16.446466
v -0.022165 41.227972 -19.415551
v -0.802957 41.299921 -19.256846
v -3.453940 12.000000 -21.032222
v 0.562936 11.442271 -16.446466
v -5.411805 11.992837 -15.232030
v -0.547099 41.300857 -20.014827
v -0.802957 41.299921 -19.256846
v -0.022165 41.227972 -19.415551
v 0.562936 11.442271 -16.446466
v 2.520801 11.449434 -22.246659
v 0.233693 41.228908 -20.173533
v -0.022165 41.227972 -19.415551
v -3.453940 12.000000 -21.032222
v 2.520801 11.449434 -22.246659
v 0.562936 11.442271 -16.446466
v -0.547099 41.300857 -20.014827
v -0.022165 41.227972 -19.415551
v 0.233693 41.228908 -20.173533
v 2.520801 11.449434 -22.246659
v -1.496075 12.007163 -26.832414
v -0.291241 41.301794 -20.772809
v 0.233693 41.228908 -20.173533
v -3.453940 12.000000 -21.032222
v -1.496075 12.007163 -26.832414
v 2.520801 11.449434 -22.246659
v -0.547099 41.300857 -20.014827
v 0.233693 41.228908 -20.173533
v -0.291241 41.301794 -20.772809
v -1.496075 12.007163 -26.832414
v -7.470817 12.557729 -25.617978
v -1.072033 41.373743 -20.614104
v -0.291241 41.301794 -20.772809
v -3.453940 12.000000 -21.032222
v -7.470817 12.557729 -25.617978
v -1.496075 12.007163 -26.832414
v -0.547099 41.300857 -20.014827
v -0.291241 41.301794 -20.772809
v -1.072033 41.373743 -20.614104
vt 0.500000 1.000000
vt 0.000000 0.000000
vt 1.000000 0.000000
vt 0.000000 0.000000
vt 1.000000 0.000000
vt 1.000000 1.000000
vt 0.000000 1.000000
vt 0.000000 0.000000
vt 1.000000 0.000000
vt 1.000000 1.000000
vt 0.000000 1.000000
vt 0.500000 1.000000
vt 0.000000 0.000000
vt 1.000000 0.000000
vt 0.500000 1.000000
vt 0.000000 0.000000
vt 1.000000 0.000000
vt 0.000000 0.000000
vt 1.000000 0.000000
vt 1.000000 1.000000
vt 0.000000 1.000000
vt 0.000000 0.000000
vt 1.000000 0.000000
vt 1.000000 1.000000
vt 0.000000 1.000000
vt 0.500000 1.000000
vt 0.000000 0.000000
vt 1.000000 0.000000
vt 0.500000 1.000000
vt 0.000000 0.000000
vt 1.000000 0.000000
vt 0.000000 0.000000
vt 1.000000 0.000000
vt 1.000000 1.000000
vt 0.000000 1.000000
vt 0.000000 0.000000
vt 1.000000 0.000000
vt 1.000000 1.000000
vt 0.000000 1.000000
vt 0.500000 1.000000
vt 0.000000 0.000000
vt 1.000000 0.000000
vt 0.500000 1.000000
vt 0.000000 0.000000
vt 1.000000 0.000000
vt 0.000000 0.000000
vt 1.000000 0.000000
vt 1.000000 1.000000
vt 0.000000 1.000000
vt 0.000000 0.000000
vt 1.000000 0.000000
vt 1.000000 1.000000
vt 0.000000 1.000000
vt 0.500000 1.000000
vt 0.000000 0.000000
vt 1.000000 0.000000
vt 0.500000 1.000000
vt 0.000000 0.000000
vt 1.000000 0.000000
vt 0.000000 0.000000
vt 1.000000 0.000000
vt 1.000000 1.000000
vt 0.000000 1.000000
vt 0.000000 0.000000
vt 1.000000 0.000000
vt 1.000000 1.000000
vt 0.000000 1.000000
vt 0.500000 1.000000
vt 0.000000 0.000000
vt 1.000000 0.000000
vt 0.500000 1.000000
vt 0.000000 0.000000
vt 1.000000 0.000000
vt 0.000000 0.000000
vt 1.000000 0.000000
vt 1.000000 1.000000
vt 0.000000 1.000000
vt 0.000000 0.000000
vt 1.000000 0.000000
vt 1.000000 1.000000
vt 0.000000 1.000000
vt 0.500000 1.000000
vt 0.000000 0.000000
vt 1.000000 0.000000
vt 0.500000 1.000000
vt 0.000000 0.000000
vt 1.000000 0.000000
vt 0.000000 0.000000
vt 1.000000 0.000000
vt 1.000000 1.000000
vt 0.000000 1.000000
vt 0.000000 0.000000
vt 1.000000 0.000000
vt 1.000000 1.000000
vt 0.000000 1.000000
vt 0.500000 1.000000
vt 0.000000 0.000000
vt 1.000000 0.000000
vt 0.500000 1.000000
vt 0.000000 0.000000
vt 1.000000 0.000000
vt 0.000000 0.000000
vt 1.000000 0.000000
vt 1.000000 1.000000
vt 0.000000 1.000000
vt 0.000000 0.000000
vt 1.000000 0.000000
vt 1.000000 1.000000
vt 0.000000 1.000000
vt 0.500000 1.000000
vt 0.000000 0.000000
vt 1.000000 0.000000
vt 0.500000 1.000000
vt 0.000000 0.000000
vt 1.000000 0.000000
vt 0.000000 0.000000
vt 1.000000 0.000000
vt 1.000000 1.000000
vt 0.000000 1.000000
vt 0.000000 0.000000
vt 1.000000 0.000000
vt 1.000000 1.000000
vt 0.000000 1.000000
vt 0.500000 1.000000
vt 0.000000 0.000000
vt 1.000000 0.000000
vt 0.000000 0.000000
vt 1.000000 0.000000
vt 1.000000 1.000000
vt 0.000000 1.000000
vt 0.500000 1.000000
vt 0.000000 0.000000
vt 1.000000 0.000000
vt 0.500000 1.000000
vt 0.000000 0.000000
vt 1.000000 0.000000
vt 0.000000 0.000000
vt 1.000000 0.000000
vt 1.000000 1.000000
vt 0.000000 1.000000
vt 0.500000 1.000000
vt 0.000000 0.000000
vt 1.000000 0.000000
vt 0.500000 1.000000
vt 0.000000 0.000000
vt 1.000000 0.000000
vt 0.000000 0.000000
vt 1.000000 0.000000
vt 1.000000 1.000000
vt 0.000000 1.000000
vt 0.500000 1.000000
vt 0.000000 0.000000
vt 1.000000 0.000000
vt 0.500000 1.000000
vt 0.000000 0.000000
vt 1.000000 0.000000
vt 0.000000 0.000000
vt 1.000000 0.000000
vt 1.000000 1.000000
vt 0.000000 1.000000
vt 0.500000 1.000000
vt 0.000000 0.000000
vt 1.000000 0.000000
vt 0.500000 1.000000
vt 0.000000 0.000000
vt 1.000000 0.000000
vt 0.000000 0.000000
vt 1.000000 0.000000
vt 1.000000 1.000000
vt 0.000000 1.000000
vt 0.500000 1.000000
vt 0.000000 0.000000
vt 1.000000 0.000000
vt 0.500000 1.000000
vt 0.000000 0.000000
vt 1.000000 0.000000
vt 0.000000 0.000000
vt 1.000000 0.000000
vt 1.000000 1.000000
vt 0.000000 1.000000
vt 0.500000 1.000000
vt 0.000000 0.000000
vt 1.000000 0.000000
vt 0.500000 1.000000
vt 0.000000 0.000000
vt 1.000000 0.000000
vt 0.000000 0.000000
vt 1.000000 0.000000
vt 1.000000 1.000000
vt 0.000000 1.000000
vt 0.500000 1.000000
vt 0.000000 0.000000
vt 1.000000 0.000000
vt 0.500000 1.000000
vt 0.000000 0.000000
vt 1.000000 0.000000
vt 0.000000 0.000000
vt 1.000000 0.000000
vt 1.000000 1.000000
vt 0.000000 1.000000
vt 0.500000 1.000000
vt 0.000000 0.000000
vt 1.000000 0.000000
vt 0.500000 1.000000
vt 0.000000 0.000000
vt 1.000000 0.000000
vt 0.000000 0.000000
vt 1.000000 0.000000
vt 1.000000 1.000000
vt 0.000000 1.000000
vt 0.500000 1.000000
vt 0.000000 0.000000
vt 1.000000 0.000000
vt 0.500000 1.000000
vt 0.000000 0.000000
vt 1.000000 0.000000
vt 0.000000 0.000000
vt 1.000000 0.000000
vt 1.000000 1.000000
vt 0.000000 1.000000
vt 0.500000 1.000000
vt 0.000000 0.000000
vt 1.000000 0.000000
vt 0.500000 1.000000
vt 0.000000 0.000000
vt 1.000000 0.000000
vt 0.000000 0.000000
vt 1.000000 0.000000
vt 1.000000 1.000000
vt 0.000000 1.000000
vt 0.500000 1.000000
vt 0.000000 0.000000
vt 1.000000 0.000000
vt 0.500000 1.000000
vt 0.000000 0.000000
vt 1.000000 0.000000
vt 0.000000 0.000000
vt 1.000000 0.000000
vt 1.000000 1.000000
vt 0.000000 1.000000
vt 0.500000 1.000000
vt 0.000000 0.000000
vt 1.000000 0.000000
vt 0.500000 1.000000
vt 0.000000 0.000000
vt 1.000000 0.000000
vt 0.000000 0.000000
vt 1.000000 0.000000
vt 1.000000 1.000000
vt 0.000000 1.000000
vt 0.500000 1.000000
vt 0.000000 0.000000
vt 1.000000 0.000000
vt 0.500000 1.000000
vt 0.000000 0.000000
vt 1.000000 0.000000
vt 0.000000 0.000000
vt 1.000000 0.000000
vt 1.000000 1.000000
vt 0.000000 1.000000
vt 0.500000 1.000000
vt 0.000000 0.000000
vt 1.000000 0.000000
vt 0.500000 1.000000
vt 0.000000 0.000000
vt 1.000000 0.000000
vt 0.000000 0.000000
vt 1.000000 0.000000
vt 1.000000 1.000000
vt 0.000000 1.000000
vt 0.500000 1.000000
vt 0.000000 0.000000
vt 1.000000 0.000000
vt 0.500000 1.000000
vt 0.000000 0.000000
vt 1.000000 0.000000
vt 0.000000 0.000000
vt 1.000000 0.000000
vt 1.000000 1.000000
vt 0.000000 1.000000
vt 0.500000 1.000000
vt 0.000000 0.000000
vt 1.000000 0.000000
vt 0.500000 1.000000
vt 0.000000 0.000000
vt 1.000000 0.000000
vt 0.000000 0.000000
vt 1.000000 0.000000
vt 1.000000 1.000000
vt 0.000000 1.000000
vt 0.500000 1.000000
vt 0.000000 0.000000
vt 1.000000 0.000000
vt 0.500000 1.000000
vt 0.000000 0.000000
vt 1.000000 0.000000
vt 0.000000 0.000000
vt 1.000000 0.000000
vt 1.000000 1.000000
vt 0.000000 1.000000
vt 0.500000 1.000000
vt 0.000000 0.000000
vt 1.000000 0.000000
vt 0.500000 1.000000
vt 0.000000 0.000000
vt 1.000000 0.000000
vt 0.000000 0.000000
vt 1.000000 0.000000
vt 1.000000 1.000000
vt 0.000000 1.000000
vt 0.500000 1.000000
vt 0.000000 0.000000
vt 1.000000 0.000000
vt 0.500000 1.000000
vt 0.000000 0.000000
vt 1.000000 0.000000
vt 0.000000 0.000000
vt 1.000000 0.000000
vt 1.000000 1.000000
vt 0.000000 1.000000
vt 0.500000 1.000000
vt 0.000000 0.000000
vt 1.000000 0.000000
vt 0.500000 1.000000
vt 0.000000 0.000000
vt 1.000000 0.000000
vt 0.000000 0.000000
vt 1.000000 0.000000
vt 1.000000 1.000000
vt 0.000000 1.000000
vt 0.500000 1.000000
vt 0.000000 0.000000
vt 1.000000 0.000000
vt 0.500000 1.000000
vt 0.000000 0.000000
vt 1.000000 0.000000
vt 0.000000 0.000000
vt 1.000000 0.000000
vt 1.000000 1.000000
vt 0.000000 1.000000
vt 0.500000 1.000000
vt 0.000000 0.000000
vt 1.000000 0.000000
vt 0.500000 1.000000
vt 0.000000 0.000000
vt 1.000000 0.000000
vt 0.000000 0.000000
vt 1.000000 0.000000
vt 1.000000 1.000000
vt 0.000000 1.000000
vt 0.500000 1.000000
vt 0.000000 0.000000
vt 1.000000 0.000000
vt 0.500000 1.000000
vt 0.000000 0.000000
vt 1.000000 0.000000
vt 0.000000 0.000000
vt 1.000000 0.000000
vt 1.000000 1.000000
vt 0.000000 1.000000
vt 0.500000 1.000000
vt 0.000000 0.000000
vt 1.000000 0.000000
vt 0.500000 1.000000
vt 0.000000 0.000000
vt 1.000000 0.000000
vt 0.000000 0.000000
vt 1.000000 0.000000
vt 1.000000 1.000000
vt 0.000000 1.000000
vt 0.500000 1.000000
vt 0.000000 0.000000
vt 1.000000 0.000000
vt 0.500000 1.000000
vt 0.000000 0.000000
vt 1.000000 0.000000
vt 0.000000 0.000000
vt 1.000000 0.000000
vt 1.000000 1.000000
vt 0.000000 1.000000
vt 0.500000 1.000000
vt 0.000000 0.000000
vt 1.000000 0.000000
vt 0.500000 1.000000
vt 0.000000 0.000000
vt 1.000000 0.000000
vt 0.000000 0.000000
vt 1.000000 0.000000
vt 1.000000 1.000000
vt 0.000000 1.000000
vt 0.500000 1.000000
vt 0.000000 0.000000
vt 1.000000 0.000000
vt 0.500000 1.000000
vt 0.000000 0.000000
vt 1.000000 0.000000
vt 0.000000 0.000000
vt 1.000000 0.000000
vt 1.000000 1.000000
vt 0.000000 1.000000
vt 0.500000 1.000000
vt 0.000000 0.000000
vt 1.000000 0.000000
vt 0.500000 1.000000
vt 0.000000 0.000000
vt 1.000000 0.000000
vt 0.000000 0.000000
vt 1.000000 0.000000
vt 1.000000 1.000000
vt 0.000000 1.000000
vt 0.500000 1.000000
vt 0.000000 0.000000
vt 1.000000 0.000000
vt 0.500000 1.000000
vt 0.000000 0.000000
vt 1.000000 0.000000
vt 0.000000 0.000000
vt 1.000000 0.000000
vt 1.000000 1.000000
vt 0.000000 1.000000
vt 0.500000 1.000000
vt 0.000000 0.000000
vt 1.000000 0.000000
vt 0.500000 1.000000
vt 0.000000 0.000000
vt 1.000000 0.000000
s 1
usemtl models/caelum/world/environment/rock_quartz.png
f 1/1 2/2 3/3
f 4/4 5/5 6/6 7/7
f 8/8 9/9 10/10 11/11
f 12/12 13/13 14/14
f 15/15 16/16 17/17
f 18/18 19/19 20/20 21/21
f 22/22 23/23 24/24 25/25
f 26/26 27/27 28/28
f 29/29 30/30 31/31
f 32/32 33/33 34/34 35/35
f 36/36 37/37 38/38 39/39
f 40/40 41/41 42/42
f 43/43 44/44 45/45
f 46/46 47/47 48/48 49/49
f 50/50 51/51 52/52 53/53
f 54/54 55/55 56/56
f 57/57 58/58 59/59
f 60/60 61/61 62/62 63/63
f 64/64 65/65 66/66 67/67
f 68/68 69/69 70/70
f 71/71 72/72 73/73
f 74/74 75/75 76/76 77/77
f 78/78 79/79 80/80 81/81
f 82/82 83/83 84/84
f 85/85 86/86 87/87
f 88/88 89/89 90/90 91/91
f 92/92 93/93 94/94 95/95
f 96/96 97/97 98/98
f 99/99 100/100 101/101
f 102/102 103/103 104/104 105/105
f 106/106 107/107 108/108 109/109
f 110/110 111/111 112/112
f 113/113 114/114 115/115
f 116/116 117/117 118/118 119/119
f 120/120 121/121 122/122 123/123
f 124/124 125/125 126/126
f 127/127 128/128 129/129 130/130
f 131/131 132/132 133/133
f 134/134 135/135 136/136
f 137/137 138/138 139/139 140/140
f 141/141 142/142 143/143
f 144/144 145/145 146/146
f 147/147 148/148 149/149 150/150
f 151/151 152/152 153/153
f 154/154 155/155 156/156
f 157/157 158/158 159/159 160/160
f 161/161 162/162 163/163
f 164/164 165/165 166/166
f 167/167 168/168 169/169 170/170
f 171/171 172/172 173/173
f 174/174 175/175 176/176
f 177/177 178/178 179/179 180/180
f 181/181 182/182 183/183
f 184/184 185/185 186/186
f 187/187 188/188 189/189 190/190
f 191/191 192/192 193/193
f 194/194 195/195 196/196
f 197/197 198/198 199/199 200/200
f 201/201 202/202 203/203
f 204/204 205/205 206/206
f 207/207 208/208 209/209 210/210
f 211/211 212/212 213/213
f 214/214 215/215 216/216
f 217/217 218/218 219/219 220/220
f 221/221 222/222 223/223
f 224/224 225/225 226/226
f 227/227 228/228 229/229 230/230
f 231/231 232/232 233/233
f 234/234 235/235 236/236
f 237/237 238/238 239/239 240/240
f 241/241 242/242 243/243
f 244/244 245/245 246/246
f 247/247 248/248 249/249 250/250
f 251/251 252/252 253/253
f 254/254 255/255 256/256
f 257/257 258/258 259/259 260/260
f 261/261 262/262 263/263
f 264/264 265/265 266/266
f 267/267 268/268 269/269 270/270
f 271/271 272/272 273/273
f 274/274 275/275 276/276
f 277/277 278/278 279/279 280/280
f 281/281 282/282 283/283
f 284/284 285/285 286/286
f 287/287 288/288 289/289 290/290
f 291/291 292/292 293/293
f 294/294 295/295 296/296
f 297/297 298/298 299/299 300/300
f 301/301 302/302 303/303
f 304/304 305/305 306/306
f 307/307 308/308 309/309 310/310
f 311/311 312/312 313/313
f 314/314 315/315 316/316
f 317/317 318/318 319/319 320/320
f 321/321 322/322 323/323
f 324/324 325/325 326/326
f 327/327 328/328 329/329 330/330
f 331/331 332/332 333/333
f 334/334 335/335 336/336
f 337/337 338/338 339/339 340/340
f 341/341 342/342 343/343
f 344/344 345/345 346/346
f 347/347 348/348 349/349 350/350
f 351/351 352/352 353/353
f 354/354 355/355 356/356
f 357/357 358/358 359/359 360/360
f 361/361 362/362 363/363
f 364/364 365/365 366/366
f 367/367 368/368 369/369 370/370
f 371/371 372/372 373/373
f 374/374 375/375 376/376
f 377/377 378/378 379/379 380/380
f 381/381 382/382 383/383
f 384/384 385/385 386/386
f 387/387 388/388 389/389 390/390
f 391/391 392/392 393/393
f 394/394 395/395 396/396
f 397/397 398/398 399/399 400/400
f 401/401 402/402 403/403
f 404/404 405/405 406/406
f 407/407 408/408 409/409 410/410
f 411/411 412/412 413/413
f 414/414 415/415 416/416
f 417/417 418/418 419/419 420/420
f 421/421 422/422 423/423
f 424/424 425/425 426/426
