# Modelo original generado para Caelum Argenteum.
# Ejes OBJ: X ancho, Y altura, Z profundidad.
o ca_rock_granite2
v 0.000000 0.000000 0.000000
v 24.936644 0.883362 0.000000
v 16.860631 0.136608 10.982727
v 24.936644 0.883362 0.000000
v 25.151355 12.847032 0.000000
v 23.899610 12.362187 15.567799
v 16.860631 0.136608 10.982727
v 25.151355 12.847032 0.000000
v 21.238507 28.229430 0.000000
v 14.540178 27.256383 9.471224
v 23.899610 12.362187 15.567799
v -0.864771 42.000000 -5.419307
v 14.540178 27.256383 9.471224
v 21.238507 28.229430 0.000000
v 0.000000 0.000000 0.000000
v 16.860631 0.136608 10.982727
v 6.831348 -1.272500 18.849757
v 16.860631 0.136608 10.982727
v 23.899610 12.362187 15.567799
v 9.926867 13.718471 27.391228
v 6.831348 -1.272500 18.849757
v 23.899610 12.362187 15.567799
v 14.540178 27.256383 9.471224
v 6.019396 27.290523 16.609335
v 9.926867 13.718471 27.391228
v -0.864771 42.000000 -5.419307
v 6.019396 27.290523 16.609335
v 14.540178 27.256383 9.471224
v 0.000000 0.000000 0.000000
v 6.831348 -1.272500 18.849757
v -6.741250 1.376374 18.601147
v 6.831348 -1.272500 18.849757
v 9.926867 13.718471 27.391228
v -9.479991 12.774761 26.158164
v -6.741250 1.376374 18.601147
v 9.926867 13.718471 27.391228
v 6.019396 27.290523 16.609335
v -7.395781 29.255859 20.407196
v -9.479991 12.774761 26.158164
v -0.864771 42.000000 -5.419307
v -7.395781 29.255859 20.407196
v 6.019396 27.290523 16.609335
v 0.000000 0.000000 0.000000
v -6.741250 1.376374 18.601147
v -20.137303 1.344794 13.117096
v -6.741250 1.376374 18.601147
v -9.479991 12.774761 26.158164
v -26.878827 14.167622 17.508410
v -20.137303 1.344794 13.117096
v -9.479991 12.774761 26.158164
v -7.395781 29.255859 20.407196
v -14.469509 27.098820 9.425192
v -26.878827 14.167622 17.508410
v -0.864771 42.000000 -5.419307
v -14.469509 27.098820 9.425192
v -7.395781 29.255859 20.407196
v 0.000000 0.000000 0.000000
v -20.137303 1.344794 13.117096
v -24.337429 -1.336400 0.000000
v -20.137303 1.344794 13.117096
v -26.878827 14.167622 17.508410
v -26.004402 13.160474 0.000000
v -24.337429 -1.336400 0.000000
v -26.878827 14.167622 17.508410
v -14.469509 27.098820 9.425192
v -19.782976 29.677711 0.000000
v -26.004402 13.160474 0.000000
v -0.864771 42.000000 -5.419307
v -19.782976 29.677711 0.000000
v -14.469509 27.098820 9.425192
v 0.000000 0.000000 0.000000
v -24.337429 -1.336400 0.000000
v -22.884035 -0.244508 -14.906270
v -24.337429 -1.336400 0.000000
v -26.004402 13.160474 0.000000
v -25.437530 14.040990 -16.569573
v -22.884035 -0.244508 -14.906270
v -26.004402 13.160474 0.000000
v -19.782976 29.677711 0.000000
v -14.967070 29.861836 -9.749294
v -25.437530 14.040990 -16.569573
v -0.864771 42.000000 -5.419307
v -14.967070 29.861836 -9.749294
v -19.782976 29.677711 0.000000
v 0.000000 0.000000 0.000000
v -22.884035 -0.244508 -14.906270
v -6.536478 -0.849388 -18.036120
v -22.884035 -0.244508 -14.906270
v -25.437530 14.040990 -16.569573
v -10.506401 11.976580 -28.990340
v -6.536478 -0.849388 -18.036120
v -25.437530 14.040990 -16.569573
v -14.967070 29.861836 -9.749294
v -7.055168 29.186212 -19.467343
v -10.506401 11.976580 -28.990340
v -0.864771 42.000000 -5.419307
v -7.055168 29.186212 -19.467343
v -14.967070 29.861836 -9.749294
v 0.000000 0.000000 0.000000
v -6.536478 -0.849388 -18.036120
v 8.121486 -1.031164 -22.409636
v -6.536478 -0.849388 -18.036120
v -10.506401 11.976580 -28.990340
v 7.689706 13.530837 -21.218225
v 8.121486 -1.031164 -22.409636
v -10.506401 11.976580 -28.990340
v -7.055168 29.186212 -19.467343
v 5.454109 29.935178 -15.049537
v 7.689706 13.530837 -21.218225
v -0.864771 42.000000 -5.419307
v 5.454109 29.935178 -15.049537
v -7.055168 29.186212 -19.467343
v 0.000000 0.000000 0.000000
v 8.121486 -1.031164 -22.409636
v 20.588105 1.032160 -13.410741
v 8.121486 -1.031164 -22.409636
v 7.689706 13.530837 -21.218225
v 20.712621 13.601871 -13.491848
v 20.588105 1.032160 -13.410741
v 7.689706 13.530837 -21.218225
v 5.454109 29.935178 -15.049537
v 17.702788 27.537029 -11.531294
v 20.712621 13.601871 -13.491848
v -0.864771 42.000000 -5.419307
v 17.702788 27.537029 -11.531294
v 5.454109 29.935178 -15.049537
v 0.000000 0.000000 0.000000
v 20.588105 1.032160 -13.410741
v 24.936644 0.883362 0.000000
v 20.588105 1.032160 -13.410741
v 20.712621 13.601871 -13.491848
v 25.151355 12.847032 0.000000
v 24.936644 0.883362 0.000000
v 20.712621 13.601871 -13.491848
v 17.702788 27.537029 -11.531294
v 21.238507 28.229430 0.000000
v 25.151355 12.847032 0.000000
v -0.864771 42.000000 -5.419307
v 21.238507 28.229430 0.000000
v 17.702788 27.537029 -11.531294
vt 0.500000 1.000000
vt 0.000000 0.000000
vt 1.000000 0.000000
vt 0.000000 0.000000
vt 1.000000 0.000000
vt 1.000000 1.000000
vt 0.000000 1.000000
vt 0.000000 0.000000
vt 1.000000 0.000000
vt 1.000000 1.000000
vt 0.000000 1.000000
vt 0.500000 1.000000
vt 0.000000 0.000000
vt 1.000000 0.000000
vt 0.500000 1.000000
vt 0.000000 0.000000
vt 1.000000 0.000000
vt 0.000000 0.000000
vt 1.000000 0.000000
vt 1.000000 1.000000
vt 0.000000 1.000000
vt 0.000000 0.000000
vt 1.000000 0.000000
vt 1.000000 1.000000
vt 0.000000 1.000000
vt 0.500000 1.000000
vt 0.000000 0.000000
vt 1.000000 0.000000
vt 0.500000 1.000000
vt 0.000000 0.000000
vt 1.000000 0.000000
vt 0.000000 0.000000
vt 1.000000 0.000000
vt 1.000000 1.000000
vt 0.000000 1.000000
vt 0.000000 0.000000
vt 1.000000 0.000000
vt 1.000000 1.000000
vt 0.000000 1.000000
vt 0.500000 1.000000
vt 0.000000 0.000000
vt 1.000000 0.000000
vt 0.500000 1.000000
vt 0.000000 0.000000
vt 1.000000 0.000000
vt 0.000000 0.000000
vt 1.000000 0.000000
vt 1.000000 1.000000
vt 0.000000 1.000000
vt 0.000000 0.000000
vt 1.000000 0.000000
vt 1.000000 1.000000
vt 0.000000 1.000000
vt 0.500000 1.000000
vt 0.000000 0.000000
vt 1.000000 0.000000
vt 0.500000 1.000000
vt 0.000000 0.000000
vt 1.000000 0.000000
vt 0.000000 0.000000
vt 1.000000 0.000000
vt 1.000000 1.000000
vt 0.000000 1.000000
vt 0.000000 0.000000
vt 1.000000 0.000000
vt 1.000000 1.000000
vt 0.000000 1.000000
vt 0.500000 1.000000
vt 0.000000 0.000000
vt 1.000000 0.000000
vt 0.500000 1.000000
vt 0.000000 0.000000
vt 1.000000 0.000000
vt 0.000000 0.000000
vt 1.000000 0.000000
vt 1.000000 1.000000
vt 0.000000 1.000000
vt 0.000000 0.000000
vt 1.000000 0.000000
vt 1.000000 1.000000
vt 0.000000 1.000000
vt 0.500000 1.000000
vt 0.000000 0.000000
vt 1.000000 0.000000
vt 0.500000 1.000000
vt 0.000000 0.000000
vt 1.000000 0.000000
vt 0.000000 0.000000
vt 1.000000 0.000000
vt 1.000000 1.000000
vt 0.000000 1.000000
vt 0.000000 0.000000
vt 1.000000 0.000000
vt 1.000000 1.000000
vt 0.000000 1.000000
vt 0.500000 1.000000
vt 0.000000 0.000000
vt 1.000000 0.000000
vt 0.500000 1.000000
vt 0.000000 0.000000
vt 1.000000 0.000000
vt 0.000000 0.000000
vt 1.000000 0.000000
vt 1.000000 1.000000
vt 0.000000 1.000000
vt 0.000000 0.000000
vt 1.000000 0.000000
vt 1.000000 1.000000
vt 0.000000 1.000000
vt 0.500000 1.000000
vt 0.000000 0.000000
vt 1.000000 0.000000
vt 0.500000 1.000000
vt 0.000000 0.000000
vt 1.000000 0.000000
vt 0.000000 0.000000
vt 1.000000 0.000000
vt 1.000000 1.000000
vt 0.000000 1.000000
vt 0.000000 0.000000
vt 1.000000 0.000000
vt 1.000000 1.000000
vt 0.000000 1.000000
vt 0.500000 1.000000
vt 0.000000 0.000000
vt 1.000000 0.000000
vt 0.500000 1.000000
vt 0.000000 0.000000
vt 1.000000 0.000000
vt 0.000000 0.000000
vt 1.000000 0.000000
vt 1.000000 1.000000
vt 0.000000 1.000000
vt 0.000000 0.000000
vt 1.000000 0.000000
vt 1.000000 1.000000
vt 0.000000 1.000000
vt 0.500000 1.000000
vt 0.000000 0.000000
vt 1.000000 0.000000
s 1
usemtl models/caelum/world/environment/rock_granite.png
f 1/1 2/2 3/3
f 4/4 5/5 6/6 7/7
f 8/8 9/9 10/10 11/11
f 12/12 13/13 14/14
f 15/15 16/16 17/17
f 18/18 19/19 20/20 21/21
f 22/22 23/23 24/24 25/25
f 26/26 27/27 28/28
f 29/29 30/30 31/31
f 32/32 33/33 34/34 35/35
f 36/36 37/37 38/38 39/39
f 40/40 41/41 42/42
f 43/43 44/44 45/45
f 46/46 47/47 48/48 49/49
f 50/50 51/51 52/52 53/53
f 54/54 55/55 56/56
f 57/57 58/58 59/59
f 60/60 61/61 62/62 63/63
f 64/64 65/65 66/66 67/67
f 68/68 69/69 70/70
f 71/71 72/72 73/73
f 74/74 75/75 76/76 77/77
f 78/78 79/79 80/80 81/81
f 82/82 83/83 84/84
f 85/85 86/86 87/87
f 88/88 89/89 90/90 91/91
f 92/92 93/93 94/94 95/95
f 96/96 97/97 98/98
f 99/99 100/100 101/101
f 102/102 103/103 104/104 105/105
f 106/106 107/107 108/108 109/109
f 110/110 111/111 112/112
f 113/113 114/114 115/115
f 116/116 117/117 118/118 119/119
f 120/120 121/121 122/122 123/123
f 124/124 125/125 126/126
f 127/127 128/128 129/129
f 130/130 131/131 132/132 133/133
f 134/134 135/135 136/136 137/137
f 138/138 139/139 140/140
