# Modelo original generado para Caelum Argenteum.
# Ejes OBJ: X ancho, Y altura, Z profundidad.
o ca_rock_coastal
v -18.000000 0.000000 5.000000
v 11.371657 0.641659 5.000000
v 11.051406 -0.840218 22.318631
v 11.371657 0.641659 5.000000
v 15.582905 9.412207 5.000000
v 15.890954 9.367523 25.203667
v 11.051406 -0.840218 22.318631
v 15.582905 9.412207 5.000000
v 14.158620 19.808993 5.000000
v 5.490854 20.076711 19.003778
v 15.890954 9.367523 25.203667
v -26.949615 30.000000 -1.199263
v 5.490854 20.076711 19.003778
v 14.158620 19.808993 5.000000
v -18.000000 0.000000 5.000000
v 11.051406 -0.840218 22.318631
v -7.064182 -0.344009 32.615989
v 11.051406 -0.840218 22.318631
v 15.890954 9.367523 25.203667
v -7.924857 9.797305 30.442545
v -7.064182 -0.344009 32.615989
v 15.890954 9.367523 25.203667
v 5.490854 20.076711 19.003778
v -7.685536 20.300184 31.046898
v -7.924857 9.797305 30.442545
v -26.949615 30.000000 -1.199263
v -7.685536 20.300184 31.046898
v 5.490854 20.076711 19.003778
v -18.000000 0.000000 5.000000
v -7.064182 -0.344009 32.615989
v -26.756192 -0.092383 27.111826
v -7.064182 -0.344009 32.615989
v -7.924857 9.797305 30.442545
v -31.452595 9.576001 38.971553
v -26.756192 -0.092383 27.111826
v -7.924857 9.797305 30.442545
v -7.685536 20.300184 31.046898
v -26.073713 20.817649 25.388376
v -31.452595 9.576001 38.971553
v -26.949615 30.000000 -1.199263
v -26.073713 20.817649 25.388376
v -7.685536 20.300184 31.046898
v -18.000000 0.000000 5.000000
v -26.756192 -0.092383 27.111826
v -42.442024 0.232523 19.570806
v -26.756192 -0.092383 27.111826
v -31.452595 9.576001 38.971553
v -51.999330 9.407612 25.268274
v -42.442024 0.232523 19.570806
v -31.452595 9.576001 38.971553
v -26.073713 20.817649 25.388376
v -44.422274 20.126051 20.751307
v -51.999330 9.407612 25.268274
v -26.949615 30.000000 -1.199263
v -44.422274 20.126051 20.751307
v -26.073713 20.817649 25.388376
v -18.000000 0.000000 5.000000
v -42.442024 0.232523 19.570806
v -48.100139 -0.057295 5.000000
v -42.442024 0.232523 19.570806
v -51.999330 9.407612 25.268274
v -50.447973 9.763594 5.000000
v -48.100139 -0.057295 5.000000
v -51.999330 9.407612 25.268274
v -44.422274 20.126051 20.751307
v -44.830595 20.835550 5.000000
v -50.447973 9.763594 5.000000
v -26.949615 30.000000 -1.199263
v -44.830595 20.835550 5.000000
v -44.422274 20.126051 20.751307
v -18.000000 0.000000 5.000000
v -48.100139 -0.057295 5.000000
v -48.080779 0.903541 -12.932279
v -48.100139 -0.057295 5.000000
v -50.447973 9.763594 5.000000
v -48.935095 9.190720 -13.441569
v -48.080779 0.903541 -12.932279
v -50.447973 9.763594 5.000000
v -44.830595 20.835550 5.000000
v -41.691739 19.381609 -9.123533
v -48.935095 9.190720 -13.441569
v -26.949615 30.000000 -1.199263
v -41.691739 19.381609 -9.123533
v -44.830595 20.835550 5.000000
v -18.000000 0.000000 5.000000
v -48.080779 0.903541 -12.932279
v -28.184297 -0.211762 -20.718189
v -48.080779 0.903541 -12.932279
v -48.935095 9.190720 -13.441569
v -28.107390 9.365795 -20.523976
v -28.184297 -0.211762 -20.718189
v -48.935095 9.190720 -13.441569
v -41.691739 19.381609 -9.123533
v -27.868553 20.068728 -19.920848
v -28.107390 9.365795 -20.523976
v -26.949615 30.000000 -1.199263
v -27.868553 20.068728 -19.920848
v -41.691739 19.381609 -9.123533
v -18.000000 0.000000 5.000000
v -28.184297 -0.211762 -20.718189
v -9.621208 0.438192 -16.158786
v -28.184297 -0.211762 -20.718189
v -28.107390 9.365795 -20.523976
v -5.801770 9.930891 -25.803931
v -9.621208 0.438192 -16.158786
v -28.107390 9.365795 -20.523976
v -27.868553 20.068728 -19.920848
v -7.783983 19.659020 -20.798291
v -5.801770 9.930891 -25.803931
v -26.949615 30.000000 -1.199263
v -7.783983 19.659020 -20.798291
v -27.868553 20.068728 -19.920848
v -18.000000 0.000000 5.000000
v -9.621208 0.438192 -16.158786
v 4.755034 -0.256052 -8.565128
v -9.621208 0.438192 -16.158786
v -5.801770 9.930891 -25.803931
v 15.280274 9.620808 -14.839618
v 4.755034 -0.256052 -8.565128
v -5.801770 9.930891 -25.803931
v -7.783983 19.659020 -20.798291
v 3.466888 20.919141 -7.797216
v 15.280274 9.620808 -14.839618
v -26.949615 30.000000 -1.199263
v 3.466888 20.919141 -7.797216
v -7.783983 19.659020 -20.798291
v -18.000000 0.000000 5.000000
v 4.755034 -0.256052 -8.565128
v 11.371657 0.641659 5.000000
v 4.755034 -0.256052 -8.565128
v 15.280274 9.620808 -14.839618
v 15.582905 9.412207 5.000000
v 11.371657 0.641659 5.000000
v 15.280274 9.620808 -14.839618
v 3.466888 20.919141 -7.797216
v 14.158620 19.808993 5.000000
v 15.582905 9.412207 5.000000
v -26.949615 30.000000 -1.199263
v 14.158620 19.808993 5.000000
v 3.466888 20.919141 -7.797216
v 29.000000 0.000000 -7.000000
v 53.592485 0.562119 -7.000000
v 46.283662 -0.308413 5.656915
v 53.592485 0.562119 -7.000000
v 55.926028 6.895822 -7.000000
v 52.074493 8.381523 9.897569
v 46.283662 -0.308413 5.656915
v 55.926028 6.895822 -7.000000
v 49.555198 16.111504 -7.000000
v 44.129976 16.098585 4.079759
v 52.074493 8.381523 9.897569
v 26.740930 24.000000 -3.957368
v 44.129976 16.098585 4.079759
v 49.555198 16.111504 -7.000000
v 29.000000 0.000000 -7.000000
v 46.283662 -0.308413 5.656915
v 33.224978 -0.258094 13.911452
v 46.283662 -0.308413 5.656915
v 52.074493 8.381523 9.897569
v 33.974280 7.157516 17.620113
v 33.224978 -0.258094 13.911452
v 52.074493 8.381523 9.897569
v 44.129976 16.098585 4.079759
v 32.713866 15.871915 11.381716
v 33.974280 7.157516 17.620113
v 26.740930 24.000000 -3.957368
v 32.713866 15.871915 11.381716
v 44.129976 16.098585 4.079759
v 29.000000 0.000000 -7.000000
v 33.224978 -0.258094 13.911452
v 17.934010 0.510948 9.727438
v 33.224978 -0.258094 13.911452
v 33.974280 7.157516 17.620113
v 13.405013 7.852822 16.573506
v 17.934010 0.510948 9.727438
v 33.974280 7.157516 17.620113
v 32.713866 15.871915 11.381716
v 19.933902 16.877408 6.704385
v 13.405013 7.852822 16.573506
v 26.740930 24.000000 -3.957368
v 19.933902 16.877408 6.704385
v 32.713866 15.871915 11.381716
v 29.000000 0.000000 -7.000000
v 17.934010 0.510948 9.727438
v 7.874238 -0.657610 -0.289470
v 17.934010 0.510948 9.727438
v 13.405013 7.852822 16.573506
v 3.584308 7.089939 1.073212
v 7.874238 -0.657610 -0.289470
v 13.405013 7.852822 16.573506
v 19.933902 16.877408 6.704385
v 6.570174 15.928776 0.124761
v 3.584308 7.089939 1.073212
v 26.740930 24.000000 -3.957368
v 6.570174 15.928776 0.124761
v 19.933902 16.877408 6.704385
v 29.000000 0.000000 -7.000000
v 7.874238 -0.657610 -0.289470
v 7.249197 0.620157 -13.909072
v 7.874238 -0.657610 -0.289470
v 3.584308 7.089939 1.073212
v 5.710552 8.222170 -14.397817
v 7.249197 0.620157 -13.909072
v 3.584308 7.089939 1.073212
v 6.570174 15.928776 0.124761
v 12.808977 15.862411 -12.143026
v 5.710552 8.222170 -14.397817
v 26.740930 24.000000 -3.957368
v 12.808977 15.862411 -12.143026
v 6.570174 15.928776 0.124761
v 29.000000 0.000000 -7.000000
v 7.249197 0.620157 -13.909072
v 19.502259 -0.180878 -21.356861
v 7.249197 0.620157 -13.909072
v 5.710552 8.222170 -14.397817
v 14.347161 8.411130 -29.149348
v 19.502259 -0.180878 -21.356861
v 5.710552 8.222170 -14.397817
v 12.808977 15.862411 -12.143026
v 18.205202 15.749046 -23.317502
v 14.347161 8.411130 -29.149348
v 26.740930 24.000000 -3.957368
v 18.205202 15.749046 -23.317502
v 12.808977 15.862411 -12.143026
v 29.000000 0.000000 -7.000000
v 19.502259 -0.180878 -21.356861
v 33.574715 0.564781 -29.642472
v 19.502259 -0.180878 -21.356861
v 14.347161 8.411130 -29.149348
v 33.287142 7.310547 -28.219133
v 33.574715 0.564781 -29.642472
v 14.347161 8.411130 -29.149348
v 18.205202 15.749046 -23.317502
v 32.457747 16.462987 -24.114058
v 33.287142 7.310547 -28.219133
v 26.740930 24.000000 -3.957368
v 32.457747 16.462987 -24.114058
v 18.205202 15.749046 -23.317502
v 29.000000 0.000000 -7.000000
v 33.574715 0.564781 -29.642472
v 46.458350 -0.592447 -19.784839
v 33.574715 0.564781 -29.642472
v 33.287142 7.310547 -28.219133
v 49.160154 7.439997 -21.763384
v 46.458350 -0.592447 -19.784839
v 33.287142 7.310547 -28.219133
v 32.457747 16.462987 -24.114058
v 44.115061 16.193699 -18.068837
v 49.160154 7.439997 -21.763384
v 26.740930 24.000000 -3.957368
v 44.115061 16.193699 -18.068837
v 32.457747 16.462987 -24.114058
v 29.000000 0.000000 -7.000000
v 46.458350 -0.592447 -19.784839
v 53.592485 0.562119 -7.000000
v 46.458350 -0.592447 -19.784839
v 49.160154 7.439997 -21.763384
v 55.926028 6.895822 -7.000000
v 53.592485 0.562119 -7.000000
v 49.160154 7.439997 -21.763384
v 44.115061 16.193699 -18.068837
v 49.555198 16.111504 -7.000000
v 55.926028 6.895822 -7.000000
v 26.740930 24.000000 -3.957368
v 49.555198 16.111504 -7.000000
v 44.115061 16.193699 -18.068837
v 4.000000 9.000000 9.000000
v 25.290113 9.658304 9.000000
v 26.972961 9.264616 25.116504
v 25.290113 9.658304 9.000000
v 38.835400 16.966841 9.000000
v 27.925995 16.609916 25.785098
v 26.972961 9.264616 25.116504
v 38.835400 16.966841 9.000000
v 27.943434 26.747685 9.000000
v 24.113572 25.432815 23.110522
v 27.925995 16.609916 25.785098
v 6.980546 34.000000 14.213497
v 24.113572 25.432815 23.110522
v 27.943434 26.747685 9.000000
v 4.000000 9.000000 9.000000
v 26.972961 9.264616 25.116504
v 9.175254 9.279975 33.538797
v 26.972961 9.264616 25.116504
v 27.925995 16.609916 25.785098
v 8.377627 16.899141 29.756796
v 9.175254 9.279975 33.538797
v 27.925995 16.609916 25.785098
v 24.113572 25.432815 23.110522
v 7.698840 25.591376 26.538286
v 8.377627 16.899141 29.756796
v 6.980546 34.000000 14.213497
v 7.698840 25.591376 26.538286
v 24.113572 25.432815 23.110522
v 4.000000 9.000000 9.000000
v 9.175254 9.279975 33.538797
v -7.967431 8.482430 26.330134
v 9.175254 9.279975 33.538797
v 8.377627 16.899141 29.756796
v -9.858475 16.332662 29.068570
v -7.967431 8.482430 26.330134
v 8.377627 16.899141 29.756796
v 7.698840 25.591376 26.538286
v -6.625184 26.512053 24.386414
v -9.858475 16.332662 29.068570
v 6.980546 34.000000 14.213497
v -6.625184 26.512053 24.386414
v 7.698840 25.591376 26.538286
v 4.000000 9.000000 9.000000
v -7.967431 8.482430 26.330134
v -16.657541 8.786224 15.286151
v -7.967431 8.482430 26.330134
v -9.858475 16.332662 29.068570
v -22.600582 16.997945 17.094636
v -16.657541 8.786224 15.286151
v -9.858475 16.332662 29.068570
v -6.625184 26.512053 24.386414
v -17.011255 26.196764 15.393788
v -22.600582 16.997945 17.094636
v 6.980546 34.000000 14.213497
v -17.011255 26.196764 15.393788
v -6.625184 26.512053 24.386414
v 4.000000 9.000000 9.000000
v -16.657541 8.786224 15.286151
v -17.820818 8.676993 2.359860
v -16.657541 8.786224 15.286151
v -22.600582 16.997945 17.094636
v -26.419103 16.162739 -0.256624
v -17.820818 8.676993 2.359860
v -22.600582 16.997945 17.094636
v -17.011255 26.196764 15.393788
v -15.411153 25.386127 3.093128
v -26.419103 16.162739 -0.256624
v 6.980546 34.000000 14.213497
v -15.411153 25.386127 3.093128
v -17.011255 26.196764 15.393788
v 4.000000 9.000000 9.000000
v -17.820818 8.676993 2.359860
v -6.870414 9.778029 -6.741534
v -17.820818 8.676993 2.359860
v -26.419103 16.162739 -0.256624
v -12.192145 17.396981 -14.447975
v -6.870414 9.778029 -6.741534
v -26.419103 16.162739 -0.256624
v -15.411153 25.386127 3.093128
v -6.496239 26.499729 -6.199689
v -12.192145 17.396981 -14.447975
v 6.980546 34.000000 14.213497
v -6.496239 26.499729 -6.199689
v -15.411153 25.386127 3.093128
v 4.000000 9.000000 9.000000
v -6.870414 9.778029 -6.741534
v 7.653195 9.042962 -8.321856
v -6.870414 9.778029 -6.741534
v -12.192145 17.396981 -14.447975
v 8.359728 16.835124 -11.671925
v 7.653195 9.042962 -8.321856
v -12.192145 17.396981 -14.447975
v -6.496239 26.499729 -6.199689
v 8.539943 26.868694 -12.526426
v 8.359728 16.835124 -11.671925
v 6.980546 34.000000 14.213497
v 8.539943 26.868694 -12.526426
v -6.496239 26.499729 -6.199689
v 4.000000 9.000000 9.000000
v 7.653195 9.042962 -8.321856
v 22.656568 9.077492 -4.088372
v 7.653195 9.042962 -8.321856
v 8.359728 16.835124 -11.671925
v 27.652508 16.447298 -7.593235
v 22.656568 9.077492 -4.088372
v 8.359728 16.835124 -11.671925
v 8.539943 26.868694 -12.526426
v 21.515550 25.128603 -3.287899
v 27.652508 16.447298 -7.593235
v 6.980546 34.000000 14.213497
v 21.515550 25.128603 -3.287899
v 8.539943 26.868694 -12.526426
v 4.000000 9.000000 9.000000
v 22.656568 9.077492 -4.088372
v 25.290113 9.658304 9.000000
v 22.656568 9.077492 -4.088372
v 27.652508 16.447298 -7.593235
v 38.835400 16.966841 9.000000
v 25.290113 9.658304 9.000000
v 27.652508 16.447298 -7.593235
v 21.515550 25.128603 -3.287899
v 27.943434 26.747685 9.000000
v 38.835400 16.966841 9.000000
v 6.980546 34.000000 14.213497
v 27.943434 26.747685 9.000000
v 21.515550 25.128603 -3.287899
vt 0.500000 1.000000
vt 0.000000 0.000000
vt 1.000000 0.000000
vt 0.000000 0.000000
vt 1.000000 0.000000
vt 1.000000 1.000000
vt 0.000000 1.000000
vt 0.000000 0.000000
vt 1.000000 0.000000
vt 1.000000 1.000000
vt 0.000000 1.000000
vt 0.500000 1.000000
vt 0.000000 0.000000
vt 1.000000 0.000000
vt 0.500000 1.000000
vt 0.000000 0.000000
vt 1.000000 0.000000
vt 0.000000 0.000000
vt 1.000000 0.000000
vt 1.000000 1.000000
vt 0.000000 1.000000
vt 0.000000 0.000000
vt 1.000000 0.000000
vt 1.000000 1.000000
vt 0.000000 1.000000
vt 0.500000 1.000000
vt 0.000000 0.000000
vt 1.000000 0.000000
vt 0.500000 1.000000
vt 0.000000 0.000000
vt 1.000000 0.000000
vt 0.000000 0.000000
vt 1.000000 0.000000
vt 1.000000 1.000000
vt 0.000000 1.000000
vt 0.000000 0.000000
vt 1.000000 0.000000
vt 1.000000 1.000000
vt 0.000000 1.000000
vt 0.500000 1.000000
vt 0.000000 0.000000
vt 1.000000 0.000000
vt 0.500000 1.000000
vt 0.000000 0.000000
vt 1.000000 0.000000
vt 0.000000 0.000000
vt 1.000000 0.000000
vt 1.000000 1.000000
vt 0.000000 1.000000
vt 0.000000 0.000000
vt 1.000000 0.000000
vt 1.000000 1.000000
vt 0.000000 1.000000
vt 0.500000 1.000000
vt 0.000000 0.000000
vt 1.000000 0.000000
vt 0.500000 1.000000
vt 0.000000 0.000000
vt 1.000000 0.000000
vt 0.000000 0.000000
vt 1.000000 0.000000
vt 1.000000 1.000000
vt 0.000000 1.000000
vt 0.000000 0.000000
vt 1.000000 0.000000
vt 1.000000 1.000000
vt 0.000000 1.000000
vt 0.500000 1.000000
vt 0.000000 0.000000
vt 1.000000 0.000000
vt 0.500000 1.000000
vt 0.000000 0.000000
vt 1.000000 0.000000
vt 0.000000 0.000000
vt 1.000000 0.000000
vt 1.000000 1.000000
vt 0.000000 1.000000
vt 0.000000 0.000000
vt 1.000000 0.000000
vt 1.000000 1.000000
vt 0.000000 1.000000
vt 0.500000 1.000000
vt 0.000000 0.000000
vt 1.000000 0.000000
vt 0.500000 1.000000
vt 0.000000 0.000000
vt 1.000000 0.000000
vt 0.000000 0.000000
vt 1.000000 0.000000
vt 1.000000 1.000000
vt 0.000000 1.000000
vt 0.000000 0.000000
vt 1.000000 0.000000
vt 1.000000 1.000000
vt 0.000000 1.000000
vt 0.500000 1.000000
vt 0.000000 0.000000
vt 1.000000 0.000000
vt 0.500000 1.000000
vt 0.000000 0.000000
vt 1.000000 0.000000
vt 0.000000 0.000000
vt 1.000000 0.000000
vt 1.000000 1.000000
vt 0.000000 1.000000
vt 0.000000 0.000000
vt 1.000000 0.000000
vt 1.000000 1.000000
vt 0.000000 1.000000
vt 0.500000 1.000000
vt 0.000000 0.000000
vt 1.000000 0.000000
vt 0.500000 1.000000
vt 0.000000 0.000000
vt 1.000000 0.000000
vt 0.000000 0.000000
vt 1.000000 0.000000
vt 1.000000 1.000000
vt 0.000000 1.000000
vt 0.000000 0.000000
vt 1.000000 0.000000
vt 1.000000 1.000000
vt 0.000000 1.000000
vt 0.500000 1.000000
vt 0.000000 0.000000
vt 1.000000 0.000000
vt 0.500000 1.000000
vt 0.000000 0.000000
vt 1.000000 0.000000
vt 0.000000 0.000000
vt 1.000000 0.000000
vt 1.000000 1.000000
vt 0.000000 1.000000
vt 0.000000 0.000000
vt 1.000000 0.000000
vt 1.000000 1.000000
vt 0.000000 1.000000
vt 0.500000 1.000000
vt 0.000000 0.000000
vt 1.000000 0.000000
vt 0.500000 1.000000
vt 0.000000 0.000000
vt 1.000000 0.000000
vt 0.000000 0.000000
vt 1.000000 0.000000
vt 1.000000 1.000000
vt 0.000000 1.000000
vt 0.000000 0.000000
vt 1.000000 0.000000
vt 1.000000 1.000000
vt 0.000000 1.000000
vt 0.500000 1.000000
vt 0.000000 0.000000
vt 1.000000 0.000000
vt 0.500000 1.000000
vt 0.000000 0.000000
vt 1.000000 0.000000
vt 0.000000 0.000000
vt 1.000000 0.000000
vt 1.000000 1.000000
vt 0.000000 1.000000
vt 0.000000 0.000000
vt 1.000000 0.000000
vt 1.000000 1.000000
vt 0.000000 1.000000
vt 0.500000 1.000000
vt 0.000000 0.000000
vt 1.000000 0.000000
vt 0.500000 1.000000
vt 0.000000 0.000000
vt 1.000000 0.000000
vt 0.000000 0.000000
vt 1.000000 0.000000
vt 1.000000 1.000000
vt 0.000000 1.000000
vt 0.000000 0.000000
vt 1.000000 0.000000
vt 1.000000 1.000000
vt 0.000000 1.000000
vt 0.500000 1.000000
vt 0.000000 0.000000
vt 1.000000 0.000000
vt 0.500000 1.000000
vt 0.000000 0.000000
vt 1.000000 0.000000
vt 0.000000 0.000000
vt 1.000000 0.000000
vt 1.000000 1.000000
vt 0.000000 1.000000
vt 0.000000 0.000000
vt 1.000000 0.000000
vt 1.000000 1.000000
vt 0.000000 1.000000
vt 0.500000 1.000000
vt 0.000000 0.000000
vt 1.000000 0.000000
vt 0.500000 1.000000
vt 0.000000 0.000000
vt 1.000000 0.000000
vt 0.000000 0.000000
vt 1.000000 0.000000
vt 1.000000 1.000000
vt 0.000000 1.000000
vt 0.000000 0.000000
vt 1.000000 0.000000
vt 1.000000 1.000000
vt 0.000000 1.000000
vt 0.500000 1.000000
vt 0.000000 0.000000
vt 1.000000 0.000000
vt 0.500000 1.000000
vt 0.000000 0.000000
vt 1.000000 0.000000
vt 0.000000 0.000000
vt 1.000000 0.000000
vt 1.000000 1.000000
vt 0.000000 1.000000
vt 0.000000 0.000000
vt 1.000000 0.000000
vt 1.000000 1.000000
vt 0.000000 1.000000
vt 0.500000 1.000000
vt 0.000000 0.000000
vt 1.000000 0.000000
vt 0.500000 1.000000
vt 0.000000 0.000000
vt 1.000000 0.000000
vt 0.000000 0.000000
vt 1.000000 0.000000
vt 1.000000 1.000000
vt 0.000000 1.000000
vt 0.000000 0.000000
vt 1.000000 0.000000
vt 1.000000 1.000000
vt 0.000000 1.000000
vt 0.500000 1.000000
vt 0.000000 0.000000
vt 1.000000 0.000000
vt 0.500000 1.000000
vt 0.000000 0.000000
vt 1.000000 0.000000
vt 0.000000 0.000000
vt 1.000000 0.000000
vt 1.000000 1.000000
vt 0.000000 1.000000
vt 0.000000 0.000000
vt 1.000000 0.000000
vt 1.000000 1.000000
vt 0.000000 1.000000
vt 0.500000 1.000000
vt 0.000000 0.000000
vt 1.000000 0.000000
vt 0.500000 1.000000
vt 0.000000 0.000000
vt 1.000000 0.000000
vt 0.000000 0.000000
vt 1.000000 0.000000
vt 1.000000 1.000000
vt 0.000000 1.000000
vt 0.000000 0.000000
vt 1.000000 0.000000
vt 1.000000 1.000000
vt 0.000000 1.000000
vt 0.500000 1.000000
vt 0.000000 0.000000
vt 1.000000 0.000000
vt 0.500000 1.000000
vt 0.000000 0.000000
vt 1.000000 0.000000
vt 0.000000 0.000000
vt 1.000000 0.000000
vt 1.000000 1.000000
vt 0.000000 1.000000
vt 0.000000 0.000000
vt 1.000000 0.000000
vt 1.000000 1.000000
vt 0.000000 1.000000
vt 0.500000 1.000000
vt 0.000000 0.000000
vt 1.000000 0.000000
vt 0.500000 1.000000
vt 0.000000 0.000000
vt 1.000000 0.000000
vt 0.000000 0.000000
vt 1.000000 0.000000
vt 1.000000 1.000000
vt 0.000000 1.000000
vt 0.000000 0.000000
vt 1.000000 0.000000
vt 1.000000 1.000000
vt 0.000000 1.000000
vt 0.500000 1.000000
vt 0.000000 0.000000
vt 1.000000 0.000000
vt 0.500000 1.000000
vt 0.000000 0.000000
vt 1.000000 0.000000
vt 0.000000 0.000000
vt 1.000000 0.000000
vt 1.000000 1.000000
vt 0.000000 1.000000
vt 0.000000 0.000000
vt 1.000000 0.000000
vt 1.000000 1.000000
vt 0.000000 1.000000
vt 0.500000 1.000000
vt 0.000000 0.000000
vt 1.000000 0.000000
vt 0.500000 1.000000
vt 0.000000 0.000000
vt 1.000000 0.000000
vt 0.000000 0.000000
vt 1.000000 0.000000
vt 1.000000 1.000000
vt 0.000000 1.000000
vt 0.000000 0.000000
vt 1.000000 0.000000
vt 1.000000 1.000000
vt 0.000000 1.000000
vt 0.500000 1.000000
vt 0.000000 0.000000
vt 1.000000 0.000000
vt 0.500000 1.000000
vt 0.000000 0.000000
vt 1.000000 0.000000
vt 0.000000 0.000000
vt 1.000000 0.000000
vt 1.000000 1.000000
vt 0.000000 1.000000
vt 0.000000 0.000000
vt 1.000000 0.000000
vt 1.000000 1.000000
vt 0.000000 1.000000
vt 0.500000 1.000000
vt 0.000000 0.000000
vt 1.000000 0.000000
vt 0.500000 1.000000
vt 0.000000 0.000000
vt 1.000000 0.000000
vt 0.000000 0.000000
vt 1.000000 0.000000
vt 1.000000 1.000000
vt 0.000000 1.000000
vt 0.000000 0.000000
vt 1.000000 0.000000
vt 1.000000 1.000000
vt 0.000000 1.000000
vt 0.500000 1.000000
vt 0.000000 0.000000
vt 1.000000 0.000000
vt 0.500000 1.000000
vt 0.000000 0.000000
vt 1.000000 0.000000
vt 0.000000 0.000000
vt 1.000000 0.000000
vt 1.000000 1.000000
vt 0.000000 1.000000
vt 0.000000 0.000000
vt 1.000000 0.000000
vt 1.000000 1.000000
vt 0.000000 1.000000
vt 0.500000 1.000000
vt 0.000000 0.000000
vt 1.000000 0.000000
vt 0.500000 1.000000
vt 0.000000 0.000000
vt 1.000000 0.000000
vt 0.000000 0.000000
vt 1.000000 0.000000
vt 1.000000 1.000000
vt 0.000000 1.000000
vt 0.000000 0.000000
vt 1.000000 0.000000
vt 1.000000 1.000000
vt 0.000000 1.000000
vt 0.500000 1.000000
vt 0.000000 0.000000
vt 1.000000 0.000000
vt 0.500000 1.000000
vt 0.000000 0.000000
vt 1.000000 0.000000
vt 0.000000 0.000000
vt 1.000000 0.000000
vt 1.000000 1.000000
vt 0.000000 1.000000
vt 0.000000 0.000000
vt 1.000000 0.000000
vt 1.000000 1.000000
vt 0.000000 1.000000
vt 0.500000 1.000000
vt 0.000000 0.000000
vt 1.000000 0.000000
s 1
usemtl models/caelum/world/environment/rock_coastal.png
f 1/1 2/2 3/3
f 4/4 5/5 6/6 7/7
f 8/8 9/9 10/10 11/11
f 12/12 13/13 14/14
f 15/15 16/16 17/17
f 18/18 19/19 20/20 21/21
f 22/22 23/23 24/24 25/25
f 26/26 27/27 28/28
f 29/29 30/30 31/31
f 32/32 33/33 34/34 35/35
f 36/36 37/37 38/38 39/39
f 40/40 41/41 42/42
f 43/43 44/44 45/45
f 46/46 47/47 48/48 49/49
f 50/50 51/51 52/52 53/53
f 54/54 55/55 56/56
f 57/57 58/58 59/59
f 60/60 61/61 62/62 63/63
f 64/64 65/65 66/66 67/67
f 68/68 69/69 70/70
f 71/71 72/72 73/73
f 74/74 75/75 76/76 77/77
f 78/78 79/79 80/80 81/81
f 82/82 83/83 84/84
f 85/85 86/86 87/87
f 88/88 89/89 90/90 91/91
f 92/92 93/93 94/94 95/95
f 96/96 97/97 98/98
f 99/99 100/100 101/101
f 102/102 103/103 104/104 105/105
f 106/106 107/107 108/108 109/109
f 110/110 111/111 112/112
f 113/113 114/114 115/115
f 116/116 117/117 118/118 119/119
f 120/120 121/121 122/122 123/123
f 124/124 125/125 126/126
f 127/127 128/128 129/129
f 130/130 131/131 132/132 133/133
f 134/134 135/135 136/136 137/137
f 138/138 139/139 140/140
f 141/141 142/142 143/143
f 144/144 145/145 146/146 147/147
f 148/148 149/149 150/150 151/151
f 152/152 153/153 154/154
f 155/155 156/156 157/157
f 158/158 159/159 160/160 161/161
f 162/162 163/163 164/164 165/165
f 166/166 167/167 168/168
f 169/169 170/170 171/171
f 172/172 173/173 174/174 175/175
f 176/176 177/177 178/178 179/179
f 180/180 181/181 182/182
f 183/183 184/184 185/185
f 186/186 187/187 188/188 189/189
f 190/190 191/191 192/192 193/193
f 194/194 195/195 196/196
f 197/197 198/198 199/199
f 200/200 201/201 202/202 203/203
f 204/204 205/205 206/206 207/207
f 208/208 209/209 210/210
f 211/211 212/212 213/213
f 214/214 215/215 216/216 217/217
f 218/218 219/219 220/220 221/221
f 222/222 223/223 224/224
f 225/225 226/226 227/227
f 228/228 229/229 230/230 231/231
f 232/232 233/233 234/234 235/235
f 236/236 237/237 238/238
f 239/239 240/240 241/241
f 242/242 243/243 244/244 245/245
f 246/246 247/247 248/248 249/249
f 250/250 251/251 252/252
f 253/253 254/254 255/255
f 256/256 257/257 258/258 259/259
f 260/260 261/261 262/262 263/263
f 264/264 265/265 266/266
f 267/267 268/268 269/269
f 270/270 271/271 272/272 273/273
f 274/274 275/275 276/276 277/277
f 278/278 279/279 280/280
f 281/281 282/282 283/283
f 284/284 285/285 286/286 287/287
f 288/288 289/289 290/290 291/291
f 292/292 293/293 294/294
f 295/295 296/296 297/297
f 298/298 299/299 300/300 301/301
f 302/302 303/303 304/304 305/305
f 306/306 307/307 308/308
f 309/309 310/310 311/311
f 312/312 313/313 314/314 315/315
f 316/316 317/317 318/318 319/319
f 320/320 321/321 322/322
f 323/323 324/324 325/325
f 326/326 327/327 328/328 329/329
f 330/330 331/331 332/332 333/333
f 334/334 335/335 336/336
f 337/337 338/338 339/339
f 340/340 341/341 342/342 343/343
f 344/344 345/345 346/346 347/347
f 348/348 349/349 350/350
f 351/351 352/352 353/353
f 354/354 355/355 356/356 357/357
f 358/358 359/359 360/360 361/361
f 362/362 363/363 364/364
f 365/365 366/366 367/367
f 368/368 369/369 370/370 371/371
f 372/372 373/373 374/374 375/375
f 376/376 377/377 378/378
f 379/379 380/380 381/381
f 382/382 383/383 384/384 385/385
f 386/386 387/387 388/388 389/389
f 390/390 391/391 392/392
