# Modelo original generado para Caelum Argenteum.
# Ejes OBJ: X ancho, Y altura, Z profundidad.
o ca_rock_quartz
v 0.000000 0.000000 0.000000
v 35.177202 -0.608759 0.000000
v 21.880427 -0.783998 16.319874
v 35.177202 -0.608759 0.000000
v 31.594061 9.489166 0.000000
v 31.852103 8.900750 23.757412
v 21.880427 -0.783998 16.319874
v 31.594061 9.489166 0.000000
v 26.006559 18.686901 0.000000
v 23.470790 18.578596 17.506073
v 31.852103 8.900750 23.757412
v 0.370930 28.000000 6.647080
v 23.470790 18.578596 17.506073
v 26.006559 18.686901 0.000000
v 0.000000 0.000000 0.000000
v 21.880427 -0.783998 16.319874
v 5.961843 -0.749895 30.054481
v 21.880427 -0.783998 16.319874
v 31.852103 8.900750 23.757412
v 5.430836 8.096964 27.377601
v 5.961843 -0.749895 30.054481
v 31.852103 8.900750 23.757412
v 23.470790 18.578596 17.506073
v 5.307571 18.388258 26.756204
v 5.430836 8.096964 27.377601
v 0.370930 28.000000 6.647080
v 5.307571 18.388258 26.756204
v 23.470790 18.578596 17.506073
v 0.000000 0.000000 0.000000
v 5.961843 -0.749895 30.054481
v -15.628972 0.499271 24.062376
v 5.961843 -0.749895 30.054481
v 5.430836 8.096964 27.377601
v -14.863870 9.855763 22.884426
v -15.628972 0.499271 24.062376
v 5.430836 8.096964 27.377601
v 5.307571 18.388258 26.756204
v -11.929270 18.494269 18.366313
v -14.863870 9.855763 22.884426
v 0.370930 28.000000 6.647080
v -11.929270 18.494269 18.366313
v 5.307571 18.388258 26.756204
v 0.000000 0.000000 0.000000
v -15.628972 0.499271 24.062376
v -29.100117 0.658457 9.414735
v -15.628972 0.499271 24.062376
v -14.863870 9.855763 22.884426
v -31.822998 8.351941 10.295666
v -29.100117 0.658457 9.414735
v -14.863870 9.855763 22.884426
v -11.929270 18.494269 18.366313
v -28.034420 18.779118 9.069951
v -31.822998 8.351941 10.295666
v 0.370930 28.000000 6.647080
v -28.034420 18.779118 9.069951
v -11.929270 18.494269 18.366313
v 0.000000 0.000000 0.000000
v -29.100117 0.658457 9.414735
v -28.816489 -0.734664 -9.322973
v -29.100117 0.658457 9.414735
v -31.822998 8.351941 10.295666
v -32.432792 8.929707 -10.492952
v -28.816489 -0.734664 -9.322973
v -31.822998 8.351941 10.295666
v -28.034420 18.779118 9.069951
v -29.060010 18.562074 -9.401759
v -32.432792 8.929707 -10.492952
v 0.370930 28.000000 6.647080
v -29.060010 18.562074 -9.401759
v -28.034420 18.779118 9.069951
v 0.000000 0.000000 0.000000
v -28.816489 -0.734664 -9.322973
v -15.605903 0.839792 -24.026859
v -28.816489 -0.734664 -9.322973
v -32.432792 8.929707 -10.492952
v -17.331855 9.373421 -26.684137
v -15.605903 0.839792 -24.026859
v -32.432792 8.929707 -10.492952
v -29.060010 18.562074 -9.401759
v -11.166975 19.617418 -17.192683
v -17.331855 9.373421 -26.684137
v 0.370930 28.000000 6.647080
v -11.166975 19.617418 -17.192683
v -29.060010 18.562074 -9.401759
v 0.000000 0.000000 0.000000
v -15.605903 0.839792 -24.026859
v 4.643831 -0.651692 -23.410200
v -15.605903 0.839792 -24.026859
v -17.331855 9.373421 -26.684137
v 6.459354 8.887277 -32.562505
v 4.643831 -0.651692 -23.410200
v -17.331855 9.373421 -26.684137
v -11.166975 19.617418 -17.192683
v 4.171342 19.733371 -21.028316
v 6.459354 8.887277 -32.562505
v 0.370930 28.000000 6.647080
v 4.171342 19.733371 -21.028316
v -11.166975 19.617418 -17.192683
v 0.000000 0.000000 0.000000
v 4.643831 -0.651692 -23.410200
v 19.931957 -0.189486 -14.866576
v 4.643831 -0.651692 -23.410200
v 6.459354 8.887277 -32.562505
v 23.765735 9.318474 -17.726061
v 19.931957 -0.189486 -14.866576
v 6.459354 8.887277 -32.562505
v 4.171342 19.733371 -21.028316
v 19.908992 19.092589 -14.849447
v 23.765735 9.318474 -17.726061
v 0.370930 28.000000 6.647080
v 19.908992 19.092589 -14.849447
v 4.171342 19.733371 -21.028316
v 0.000000 0.000000 0.000000
v 19.931957 -0.189486 -14.866576
v 35.177202 -0.608759 0.000000
v 19.931957 -0.189486 -14.866576
v 23.765735 9.318474 -17.726061
v 31.594061 9.489166 0.000000
v 35.177202 -0.608759 0.000000
v 23.765735 9.318474 -17.726061
v 19.908992 19.092589 -14.849447
v 26.006559 18.686901 0.000000
v 31.594061 9.489166 0.000000
v 0.370930 28.000000 6.647080
v 26.006559 18.686901 0.000000
v 19.908992 19.092589 -14.849447
v -19.000000 11.727983 -6.994713
v -25.025155 11.195541 -3.471361
v -23.688589 47.908062 -1.796727
v -23.000000 47.968912 -2.199396
v -19.000000 12.000000 0.000000
v -25.025155 11.195541 -3.471361
v -19.000000 11.727983 -6.994713
v -23.000000 48.000000 -1.400000
v -23.000000 47.968912 -2.199396
v -23.688589 47.908062 -1.796727
v -25.025155 11.195541 -3.471361
v -25.025155 11.467558 3.523352
v -23.688589 47.939149 -0.997331
v -23.688589 47.908062 -1.796727
v -19.000000 12.000000 0.000000
v -25.025155 11.467558 3.523352
v -25.025155 11.195541 -3.471361
v -23.000000 48.000000 -1.400000
v -23.688589 47.908062 -1.796727
v -23.688589 47.939149 -0.997331
v -25.025155 11.467558 3.523352
v -19.000000 12.272017 6.994713
v -23.000000 48.031088 -0.600604
v -23.688589 47.939149 -0.997331
v -19.000000 12.000000 0.000000
v -19.000000 12.272017 6.994713
v -25.025155 11.467558 3.523352
v -23.000000 48.000000 -1.400000
v -23.688589 47.939149 -0.997331
v -23.000000 48.031088 -0.600604
v -19.000000 12.272017 6.994713
v -12.974845 12.804459 3.471361
v -22.311411 48.091938 -1.003273
v -23.000000 48.031088 -0.600604
v -19.000000 12.000000 0.000000
v -12.974845 12.804459 3.471361
v -19.000000 12.272017 6.994713
v -23.000000 48.000000 -1.400000
v -23.000000 48.031088 -0.600604
v -22.311411 48.091938 -1.003273
v -12.974845 12.804459 3.471361
v -12.974845 12.532442 -3.523352
v -22.311411 48.060851 -1.802669
v -22.311411 48.091938 -1.003273
v -19.000000 12.000000 0.000000
v -12.974845 12.532442 -3.523352
v -12.974845 12.804459 3.471361
v -23.000000 48.000000 -1.400000
v -22.311411 48.091938 -1.003273
v -22.311411 48.060851 -1.802669
v -12.974845 12.532442 -3.523352
v -19.000000 11.727983 -6.994713
v -23.000000 47.968912 -2.199396
v -22.311411 48.060851 -1.802669
v -19.000000 12.000000 0.000000
v -19.000000 11.727983 -6.994713
v -12.974845 12.532442 -3.523352
v -23.000000 48.000000 -1.400000
v -22.311411 48.060851 -1.802669
v -23.000000 47.968912 -2.199396
v -0.787639 12.285263 -5.834784
v -8.401514 12.576924 0.641623
v 3.247879 67.046154 4.781330
v 3.856989 67.022821 4.263217
v 1.000000 12.000000 4.000000
v -8.401514 12.576924 0.641623
v -0.787639 12.285263 -5.834784
v 4.000000 67.000000 5.050000
v 3.856989 67.022821 4.263217
v 3.247879 67.046154 4.781330
v -8.401514 12.576924 0.641623
v -6.613875 12.291662 10.476407
v 3.390890 67.023333 5.568113
v 3.247879 67.046154 4.781330
v 1.000000 12.000000 4.000000
v -6.613875 12.291662 10.476407
v -8.401514 12.576924 0.641623
v 4.000000 67.000000 5.050000
v 3.247879 67.046154 4.781330
v 3.390890 67.023333 5.568113
v -6.613875 12.291662 10.476407
v 2.787639 11.714737 13.834784
v 4.143011 66.977179 5.836783
v 3.390890 67.023333 5.568113
v 1.000000 12.000000 4.000000
v 2.787639 11.714737 13.834784
v -6.613875 12.291662 10.476407
v 4.000000 67.000000 5.050000
v 3.390890 67.023333 5.568113
v 4.143011 66.977179 5.836783
v 2.787639 11.714737 13.834784
v 10.401514 11.423076 7.358377
v 4.752121 66.953846 5.318670
v 4.143011 66.977179 5.836783
v 1.000000 12.000000 4.000000
v 10.401514 11.423076 7.358377
v 2.787639 11.714737 13.834784
v 4.000000 67.000000 5.050000
v 4.143011 66.977179 5.836783
v 4.752121 66.953846 5.318670
v 10.401514 11.423076 7.358377
v 8.613875 11.708338 -2.476407
v 4.609110 66.976667 4.531887
v 4.752121 66.953846 5.318670
v 1.000000 12.000000 4.000000
v 8.613875 11.708338 -2.476407
v 10.401514 11.423076 7.358377
v 4.000000 67.000000 5.050000
v 4.752121 66.953846 5.318670
v 4.609110 66.976667 4.531887
v 8.613875 11.708338 -2.476407
v -0.787639 12.285263 -5.834784
v 3.856989 67.022821 4.263217
v 4.609110 66.976667 4.531887
v 1.000000 12.000000 4.000000
v -0.787639 12.285263 -5.834784
v 8.613875 11.708338 -2.476407
v 4.000000 67.000000 5.050000
v 4.609110 66.976667 4.531887
v 3.856989 67.022821 4.263217
v 15.594279 13.056008 -14.488247
v 11.262070 13.601848 -9.017047
v 24.229951 43.183068 -5.666234
v 24.725060 43.120687 -6.291514
v 18.000000 12.000000 -8.000000
v 11.262070 13.601848 -9.017047
v 15.594279 13.056008 -14.488247
v 25.000000 43.000000 -5.550000
v 24.725060 43.120687 -6.291514
v 24.229951 43.183068 -5.666234
v 11.262070 13.601848 -9.017047
v 13.667791 12.545839 -2.528800
v 24.504890 43.062382 -4.924720
v 24.229951 43.183068 -5.666234
v 18.000000 12.000000 -8.000000
v 13.667791 12.545839 -2.528800
v 11.262070 13.601848 -9.017047
v 25.000000 43.000000 -5.550000
v 24.229951 43.183068 -5.666234
v 24.504890 43.062382 -4.924720
v 13.667791 12.545839 -2.528800
v 20.405721 10.943992 -1.511753
v 25.274940 42.879313 -4.808486
v 24.504890 43.062382 -4.924720
v 18.000000 12.000000 -8.000000
v 20.405721 10.943992 -1.511753
v 13.667791 12.545839 -2.528800
v 25.000000 43.000000 -5.550000
v 24.504890 43.062382 -4.924720
v 25.274940 42.879313 -4.808486
v 20.405721 10.943992 -1.511753
v 24.737930 10.398152 -6.982953
v 25.770049 42.816932 -5.433766
v 25.274940 42.879313 -4.808486
v 18.000000 12.000000 -8.000000
v 24.737930 10.398152 -6.982953
v 20.405721 10.943992 -1.511753
v 25.000000 43.000000 -5.550000
v 25.274940 42.879313 -4.808486
v 25.770049 42.816932 -5.433766
v 24.737930 10.398152 -6.982953
v 22.332209 11.454161 -13.471200
v 25.495110 42.937618 -6.175280
v 25.770049 42.816932 -5.433766
v 18.000000 12.000000 -8.000000
v 22.332209 11.454161 -13.471200
v 24.737930 10.398152 -6.982953
v 25.000000 43.000000 -5.550000
v 25.770049 42.816932 -5.433766
v 25.495110 42.937618 -6.175280
v 22.332209 11.454161 -13.471200
v 15.594279 13.056008 -14.488247
v 24.725060 43.120687 -6.291514
v 25.495110 42.937618 -6.175280
v 18.000000 12.000000 -8.000000
v 15.594279 13.056008 -14.488247
v 22.332209 11.454161 -13.471200
v 25.000000 43.000000 -5.550000
v 25.495110 42.937618 -6.175280
v 24.725060 43.120687 -6.291514
v 19.439867 11.631111 8.721024
v 17.021183 11.550446 13.096348
v 19.203389 33.928071 12.315416
v 19.590379 33.940978 11.615364
v 22.000000 12.000000 13.000000
v 17.021183 11.550446 13.096348
v 19.439867 11.631111 8.721024
v 20.000000 34.000000 12.300000
v 19.590379 33.940978 11.615364
v 19.203389 33.928071 12.315416
v 17.021183 11.550446 13.096348
v 19.581316 11.919335 17.375324
v 19.613011 33.987094 13.000052
v 19.203389 33.928071 12.315416
v 22.000000 12.000000 13.000000
v 19.581316 11.919335 17.375324
v 17.021183 11.550446 13.096348
v 20.000000 34.000000 12.300000
v 19.203389 33.928071 12.315416
v 19.613011 33.987094 13.000052
v 19.581316 11.919335 17.375324
v 24.560133 12.368889 17.278976
v 20.409621 34.059022 12.984636
v 19.613011 33.987094 13.000052
v 22.000000 12.000000 13.000000
v 24.560133 12.368889 17.278976
v 19.581316 11.919335 17.375324
v 20.000000 34.000000 12.300000
v 19.613011 33.987094 13.000052
v 20.409621 34.059022 12.984636
v 24.560133 12.368889 17.278976
v 26.978817 12.449554 12.903652
v 20.796611 34.071929 12.284584
v 20.409621 34.059022 12.984636
v 22.000000 12.000000 13.000000
v 26.978817 12.449554 12.903652
v 24.560133 12.368889 17.278976
v 20.000000 34.000000 12.300000
v 20.409621 34.059022 12.984636
v 20.796611 34.071929 12.284584
v 26.978817 12.449554 12.903652
v 24.418684 12.080665 8.624676
v 20.386989 34.012906 11.599948
v 20.796611 34.071929 12.284584
v 22.000000 12.000000 13.000000
v 24.418684 12.080665 8.624676
v 26.978817 12.449554 12.903652
v 20.000000 34.000000 12.300000
v 20.796611 34.071929 12.284584
v 20.386989 34.012906 11.599948
v 24.418684 12.080665 8.624676
v 19.439867 11.631111 8.721024
v 19.590379 33.940978 11.615364
v 20.386989 34.012906 11.599948
v 22.000000 12.000000 13.000000
v 19.439867 11.631111 8.721024
v 24.418684 12.080665 8.624676
v 20.000000 34.000000 12.300000
v 20.386989 34.012906 11.599948
v 19.590379 33.940978 11.615364
v -7.890436 13.009194 -23.454889
v -9.786673 12.991394 -17.762440
v 0.228444 39.132186 -17.084992
v 0.481275 39.134559 -17.843985
v -4.000000 12.000000 -19.000000
v -9.786673 12.991394 -17.762440
v -7.890436 13.009194 -23.454889
v 1.000000 39.000000 -17.250000
v 0.481275 39.134559 -17.843985
v 0.228444 39.132186 -17.084992
v -9.786673 12.991394 -17.762440
v -5.896237 11.982200 -13.307552
v 0.747168 38.997627 -16.491007
v 0.228444 39.132186 -17.084992
v -4.000000 12.000000 -19.000000
v -5.896237 11.982200 -13.307552
v -9.786673 12.991394 -17.762440
v 1.000000 39.000000 -17.250000
v 0.228444 39.132186 -17.084992
v 0.747168 38.997627 -16.491007
v -5.896237 11.982200 -13.307552
v -0.109564 10.990806 -14.545111
v 1.518725 38.865441 -16.656015
v 0.747168 38.997627 -16.491007
v -4.000000 12.000000 -19.000000
v -0.109564 10.990806 -14.545111
v -5.896237 11.982200 -13.307552
v 1.000000 39.000000 -17.250000
v 0.747168 38.997627 -16.491007
v 1.518725 38.865441 -16.656015
v -0.109564 10.990806 -14.545111
v 1.786673 11.008606 -20.237560
v 1.771556 38.867814 -17.415008
v 1.518725 38.865441 -16.656015
v -4.000000 12.000000 -19.000000
v 1.786673 11.008606 -20.237560
v -0.109564 10.990806 -14.545111
v 1.000000 39.000000 -17.250000
v 1.518725 38.865441 -16.656015
v 1.771556 38.867814 -17.415008
v 1.786673 11.008606 -20.237560
v -2.103763 12.017800 -24.692448
v 1.252832 39.002373 -18.008993
v 1.771556 38.867814 -17.415008
v -4.000000 12.000000 -19.000000
v -2.103763 12.017800 -24.692448
v 1.786673 11.008606 -20.237560
v 1.000000 39.000000 -17.250000
v 1.771556 38.867814 -17.415008
v 1.252832 39.002373 -18.008993
v -2.103763 12.017800 -24.692448
v -7.890436 13.009194 -23.454889
v 0.481275 39.134559 -17.843985
v 1.252832 39.002373 -18.008993
v -4.000000 12.000000 -19.000000
v -7.890436 13.009194 -23.454889
v -2.103763 12.017800 -24.692448
v 1.000000 39.000000 -17.250000
v 1.252832 39.002373 -18.008993
v 0.481275 39.134559 -17.843985
vt 0.500000 1.000000
vt 0.000000 0.000000
vt 1.000000 0.000000
vt 0.000000 0.000000
vt 1.000000 0.000000
vt 1.000000 1.000000
vt 0.000000 1.000000
vt 0.000000 0.000000
vt 1.000000 0.000000
vt 1.000000 1.000000
vt 0.000000 1.000000
vt 0.500000 1.000000
vt 0.000000 0.000000
vt 1.000000 0.000000
vt 0.500000 1.000000
vt 0.000000 0.000000
vt 1.000000 0.000000
vt 0.000000 0.000000
vt 1.000000 0.000000
vt 1.000000 1.000000
vt 0.000000 1.000000
vt 0.000000 0.000000
vt 1.000000 0.000000
vt 1.000000 1.000000
vt 0.000000 1.000000
vt 0.500000 1.000000
vt 0.000000 0.000000
vt 1.000000 0.000000
vt 0.500000 1.000000
vt 0.000000 0.000000
vt 1.000000 0.000000
vt 0.000000 0.000000
vt 1.000000 0.000000
vt 1.000000 1.000000
vt 0.000000 1.000000
vt 0.000000 0.000000
vt 1.000000 0.000000
vt 1.000000 1.000000
vt 0.000000 1.000000
vt 0.500000 1.000000
vt 0.000000 0.000000
vt 1.000000 0.000000
vt 0.500000 1.000000
vt 0.000000 0.000000
vt 1.000000 0.000000
vt 0.000000 0.000000
vt 1.000000 0.000000
vt 1.000000 1.000000
vt 0.000000 1.000000
vt 0.000000 0.000000
vt 1.000000 0.000000
vt 1.000000 1.000000
vt 0.000000 1.000000
vt 0.500000 1.000000
vt 0.000000 0.000000
vt 1.000000 0.000000
vt 0.500000 1.000000
vt 0.000000 0.000000
vt 1.000000 0.000000
vt 0.000000 0.000000
vt 1.000000 0.000000
vt 1.000000 1.000000
vt 0.000000 1.000000
vt 0.000000 0.000000
vt 1.000000 0.000000
vt 1.000000 1.000000
vt 0.000000 1.000000
vt 0.500000 1.000000
vt 0.000000 0.000000
vt 1.000000 0.000000
vt 0.500000 1.000000
vt 0.000000 0.000000
vt 1.000000 0.000000
vt 0.000000 0.000000
vt 1.000000 0.000000
vt 1.000000 1.000000
vt 0.000000 1.000000
vt 0.000000 0.000000
vt 1.000000 0.000000
vt 1.000000 1.000000
vt 0.000000 1.000000
vt 0.500000 1.000000
vt 0.000000 0.000000
vt 1.000000 0.000000
vt 0.500000 1.000000
vt 0.000000 0.000000
vt 1.000000 0.000000
vt 0.000000 0.000000
vt 1.000000 0.000000
vt 1.000000 1.000000
vt 0.000000 1.000000
vt 0.000000 0.000000
vt 1.000000 0.000000
vt 1.000000 1.000000
vt 0.000000 1.000000
vt 0.500000 1.000000
vt 0.000000 0.000000
vt 1.000000 0.000000
vt 0.500000 1.000000
vt 0.000000 0.000000
vt 1.000000 0.000000
vt 0.000000 0.000000
vt 1.000000 0.000000
vt 1.000000 1.000000
vt 0.000000 1.000000
vt 0.000000 0.000000
vt 1.000000 0.000000
vt 1.000000 1.000000
vt 0.000000 1.000000
vt 0.500000 1.000000
vt 0.000000 0.000000
vt 1.000000 0.000000
vt 0.500000 1.000000
vt 0.000000 0.000000
vt 1.000000 0.000000
vt 0.000000 0.000000
vt 1.000000 0.000000
vt 1.000000 1.000000
vt 0.000000 1.000000
vt 0.000000 0.000000
vt 1.000000 0.000000
vt 1.000000 1.000000
vt 0.000000 1.000000
vt 0.500000 1.000000
vt 0.000000 0.000000
vt 1.000000 0.000000
vt 0.000000 0.000000
vt 1.000000 0.000000
vt 1.000000 1.000000
vt 0.000000 1.000000
vt 0.500000 1.000000
vt 0.000000 0.000000
vt 1.000000 0.000000
vt 0.500000 1.000000
vt 0.000000 0.000000
vt 1.000000 0.000000
vt 0.000000 0.000000
vt 1.000000 0.000000
vt 1.000000 1.000000
vt 0.000000 1.000000
vt 0.500000 1.000000
vt 0.000000 0.000000
vt 1.000000 0.000000
vt 0.500000 1.000000
vt 0.000000 0.000000
vt 1.000000 0.000000
vt 0.000000 0.000000
vt 1.000000 0.000000
vt 1.000000 1.000000
vt 0.000000 1.000000
vt 0.500000 1.000000
vt 0.000000 0.000000
vt 1.000000 0.000000
vt 0.500000 1.000000
vt 0.000000 0.000000
vt 1.000000 0.000000
vt 0.000000 0.000000
vt 1.000000 0.000000
vt 1.000000 1.000000
vt 0.000000 1.000000
vt 0.500000 1.000000
vt 0.000000 0.000000
vt 1.000000 0.000000
vt 0.500000 1.000000
vt 0.000000 0.000000
vt 1.000000 0.000000
vt 0.000000 0.000000
vt 1.000000 0.000000
vt 1.000000 1.000000
vt 0.000000 1.000000
vt 0.500000 1.000000
vt 0.000000 0.000000
vt 1.000000 0.000000
vt 0.500000 1.000000
vt 0.000000 0.000000
vt 1.000000 0.000000
vt 0.000000 0.000000
vt 1.000000 0.000000
vt 1.000000 1.000000
vt 0.000000 1.000000
vt 0.500000 1.000000
vt 0.000000 0.000000
vt 1.000000 0.000000
vt 0.500000 1.000000
vt 0.000000 0.000000
vt 1.000000 0.000000
vt 0.000000 0.000000
vt 1.000000 0.000000
vt 1.000000 1.000000
vt 0.000000 1.000000
vt 0.500000 1.000000
vt 0.000000 0.000000
vt 1.000000 0.000000
vt 0.500000 1.000000
vt 0.000000 0.000000
vt 1.000000 0.000000
vt 0.000000 0.000000
vt 1.000000 0.000000
vt 1.000000 1.000000
vt 0.000000 1.000000
vt 0.500000 1.000000
vt 0.000000 0.000000
vt 1.000000 0.000000
vt 0.500000 1.000000
vt 0.000000 0.000000
vt 1.000000 0.000000
vt 0.000000 0.000000
vt 1.000000 0.000000
vt 1.000000 1.000000
vt 0.000000 1.000000
vt 0.500000 1.000000
vt 0.000000 0.000000
vt 1.000000 0.000000
vt 0.500000 1.000000
vt 0.000000 0.000000
vt 1.000000 0.000000
vt 0.000000 0.000000
vt 1.000000 0.000000
vt 1.000000 1.000000
vt 0.000000 1.000000
vt 0.500000 1.000000
vt 0.000000 0.000000
vt 1.000000 0.000000
vt 0.500000 1.000000
vt 0.000000 0.000000
vt 1.000000 0.000000
vt 0.000000 0.000000
vt 1.000000 0.000000
vt 1.000000 1.000000
vt 0.000000 1.000000
vt 0.500000 1.000000
vt 0.000000 0.000000
vt 1.000000 0.000000
vt 0.500000 1.000000
vt 0.000000 0.000000
vt 1.000000 0.000000
vt 0.000000 0.000000
vt 1.000000 0.000000
vt 1.000000 1.000000
vt 0.000000 1.000000
vt 0.500000 1.000000
vt 0.000000 0.000000
vt 1.000000 0.000000
vt 0.500000 1.000000
vt 0.000000 0.000000
vt 1.000000 0.000000
vt 0.000000 0.000000
vt 1.000000 0.000000
vt 1.000000 1.000000
vt 0.000000 1.000000
vt 0.500000 1.000000
vt 0.000000 0.000000
vt 1.000000 0.000000
vt 0.500000 1.000000
vt 0.000000 0.000000
vt 1.000000 0.000000
vt 0.000000 0.000000
vt 1.000000 0.000000
vt 1.000000 1.000000
vt 0.000000 1.000000
vt 0.500000 1.000000
vt 0.000000 0.000000
vt 1.000000 0.000000
vt 0.500000 1.000000
vt 0.000000 0.000000
vt 1.000000 0.000000
vt 0.000000 0.000000
vt 1.000000 0.000000
vt 1.000000 1.000000
vt 0.000000 1.000000
vt 0.500000 1.000000
vt 0.000000 0.000000
vt 1.000000 0.000000
vt 0.500000 1.000000
vt 0.000000 0.000000
vt 1.000000 0.000000
vt 0.000000 0.000000
vt 1.000000 0.000000
vt 1.000000 1.000000
vt 0.000000 1.000000
vt 0.500000 1.000000
vt 0.000000 0.000000
vt 1.000000 0.000000
vt 0.500000 1.000000
vt 0.000000 0.000000
vt 1.000000 0.000000
vt 0.000000 0.000000
vt 1.000000 0.000000
vt 1.000000 1.000000
vt 0.000000 1.000000
vt 0.500000 1.000000
vt 0.000000 0.000000
vt 1.000000 0.000000
vt 0.500000 1.000000
vt 0.000000 0.000000
vt 1.000000 0.000000
vt 0.000000 0.000000
vt 1.000000 0.000000
vt 1.000000 1.000000
vt 0.000000 1.000000
vt 0.500000 1.000000
vt 0.000000 0.000000
vt 1.000000 0.000000
vt 0.500000 1.000000
vt 0.000000 0.000000
vt 1.000000 0.000000
vt 0.000000 0.000000
vt 1.000000 0.000000
vt 1.000000 1.000000
vt 0.000000 1.000000
vt 0.500000 1.000000
vt 0.000000 0.000000
vt 1.000000 0.000000
vt 0.500000 1.000000
vt 0.000000 0.000000
vt 1.000000 0.000000
vt 0.000000 0.000000
vt 1.000000 0.000000
vt 1.000000 1.000000
vt 0.000000 1.000000
vt 0.500000 1.000000
vt 0.000000 0.000000
vt 1.000000 0.000000
vt 0.500000 1.000000
vt 0.000000 0.000000
vt 1.000000 0.000000
vt 0.000000 0.000000
vt 1.000000 0.000000
vt 1.000000 1.000000
vt 0.000000 1.000000
vt 0.500000 1.000000
vt 0.000000 0.000000
vt 1.000000 0.000000
vt 0.500000 1.000000
vt 0.000000 0.000000
vt 1.000000 0.000000
vt 0.000000 0.000000
vt 1.000000 0.000000
vt 1.000000 1.000000
vt 0.000000 1.000000
vt 0.500000 1.000000
vt 0.000000 0.000000
vt 1.000000 0.000000
vt 0.500000 1.000000
vt 0.000000 0.000000
vt 1.000000 0.000000
vt 0.000000 0.000000
vt 1.000000 0.000000
vt 1.000000 1.000000
vt 0.000000 1.000000
vt 0.500000 1.000000
vt 0.000000 0.000000
vt 1.000000 0.000000
vt 0.500000 1.000000
vt 0.000000 0.000000
vt 1.000000 0.000000
vt 0.000000 0.000000
vt 1.000000 0.000000
vt 1.000000 1.000000
vt 0.000000 1.000000
vt 0.500000 1.000000
vt 0.000000 0.000000
vt 1.000000 0.000000
vt 0.500000 1.000000
vt 0.000000 0.000000
vt 1.000000 0.000000
vt 0.000000 0.000000
vt 1.000000 0.000000
vt 1.000000 1.000000
vt 0.000000 1.000000
vt 0.500000 1.000000
vt 0.000000 0.000000
vt 1.000000 0.000000
vt 0.500000 1.000000
vt 0.000000 0.000000
vt 1.000000 0.000000
vt 0.000000 0.000000
vt 1.000000 0.000000
vt 1.000000 1.000000
vt 0.000000 1.000000
vt 0.500000 1.000000
vt 0.000000 0.000000
vt 1.000000 0.000000
vt 0.500000 1.000000
vt 0.000000 0.000000
vt 1.000000 0.000000
vt 0.000000 0.000000
vt 1.000000 0.000000
vt 1.000000 1.000000
vt 0.000000 1.000000
vt 0.500000 1.000000
vt 0.000000 0.000000
vt 1.000000 0.000000
vt 0.500000 1.000000
vt 0.000000 0.000000
vt 1.000000 0.000000
vt 0.000000 0.000000
vt 1.000000 0.000000
vt 1.000000 1.000000
vt 0.000000 1.000000
vt 0.500000 1.000000
vt 0.000000 0.000000
vt 1.000000 0.000000
vt 0.500000 1.000000
vt 0.000000 0.000000
vt 1.000000 0.000000
vt 0.000000 0.000000
vt 1.000000 0.000000
vt 1.000000 1.000000
vt 0.000000 1.000000
vt 0.500000 1.000000
vt 0.000000 0.000000
vt 1.000000 0.000000
vt 0.500000 1.000000
vt 0.000000 0.000000
vt 1.000000 0.000000
vt 0.000000 0.000000
vt 1.000000 0.000000
vt 1.000000 1.000000
vt 0.000000 1.000000
vt 0.500000 1.000000
vt 0.000000 0.000000
vt 1.000000 0.000000
vt 0.500000 1.000000
vt 0.000000 0.000000
vt 1.000000 0.000000
s 1
usemtl models/caelum/world/environment/rock_quartz.png
f 1/1 2/2 3/3
f 4/4 5/5 6/6 7/7
f 8/8 9/9 10/10 11/11
f 12/12 13/13 14/14
f 15/15 16/16 17/17
f 18/18 19/19 20/20 21/21
f 22/22 23/23 24/24 25/25
f 26/26 27/27 28/28
f 29/29 30/30 31/31
f 32/32 33/33 34/34 35/35
f 36/36 37/37 38/38 39/39
f 40/40 41/41 42/42
f 43/43 44/44 45/45
f 46/46 47/47 48/48 49/49
f 50/50 51/51 52/52 53/53
f 54/54 55/55 56/56
f 57/57 58/58 59/59
f 60/60 61/61 62/62 63/63
f 64/64 65/65 66/66 67/67
f 68/68 69/69 70/70
f 71/71 72/72 73/73
f 74/74 75/75 76/76 77/77
f 78/78 79/79 80/80 81/81
f 82/82 83/83 84/84
f 85/85 86/86 87/87
f 88/88 89/89 90/90 91/91
f 92/92 93/93 94/94 95/95
f 96/96 97/97 98/98
f 99/99 100/100 101/101
f 102/102 103/103 104/104 105/105
f 106/106 107/107 108/108 109/109
f 110/110 111/111 112/112
f 113/113 114/114 115/115
f 116/116 117/117 118/118 119/119
f 120/120 121/121 122/122 123/123
f 124/124 125/125 126/126
f 127/127 128/128 129/129 130/130
f 131/131 132/132 133/133
f 134/134 135/135 136/136
f 137/137 138/138 139/139 140/140
f 141/141 142/142 143/143
f 144/144 145/145 146/146
f 147/147 148/148 149/149 150/150
f 151/151 152/152 153/153
f 154/154 155/155 156/156
f 157/157 158/158 159/159 160/160
f 161/161 162/162 163/163
f 164/164 165/165 166/166
f 167/167 168/168 169/169 170/170
f 171/171 172/172 173/173
f 174/174 175/175 176/176
f 177/177 178/178 179/179 180/180
f 181/181 182/182 183/183
f 184/184 185/185 186/186
f 187/187 188/188 189/189 190/190
f 191/191 192/192 193/193
f 194/194 195/195 196/196
f 197/197 198/198 199/199 200/200
f 201/201 202/202 203/203
f 204/204 205/205 206/206
f 207/207 208/208 209/209 210/210
f 211/211 212/212 213/213
f 214/214 215/215 216/216
f 217/217 218/218 219/219 220/220
f 221/221 222/222 223/223
f 224/224 225/225 226/226
f 227/227 228/228 229/229 230/230
f 231/231 232/232 233/233
f 234/234 235/235 236/236
f 237/237 238/238 239/239 240/240
f 241/241 242/242 243/243
f 244/244 245/245 246/246
f 247/247 248/248 249/249 250/250
f 251/251 252/252 253/253
f 254/254 255/255 256/256
f 257/257 258/258 259/259 260/260
f 261/261 262/262 263/263
f 264/264 265/265 266/266
f 267/267 268/268 269/269 270/270
f 271/271 272/272 273/273
f 274/274 275/275 276/276
f 277/277 278/278 279/279 280/280
f 281/281 282/282 283/283
f 284/284 285/285 286/286
f 287/287 288/288 289/289 290/290
f 291/291 292/292 293/293
f 294/294 295/295 296/296
f 297/297 298/298 299/299 300/300
f 301/301 302/302 303/303
f 304/304 305/305 306/306
f 307/307 308/308 309/309 310/310
f 311/311 312/312 313/313
f 314/314 315/315 316/316
f 317/317 318/318 319/319 320/320
f 321/321 322/322 323/323
f 324/324 325/325 326/326
f 327/327 328/328 329/329 330/330
f 331/331 332/332 333/333
f 334/334 335/335 336/336
f 337/337 338/338 339/339 340/340
f 341/341 342/342 343/343
f 344/344 345/345 346/346
f 347/347 348/348 349/349 350/350
f 351/351 352/352 353/353
f 354/354 355/355 356/356
f 357/357 358/358 359/359 360/360
f 361/361 362/362 363/363
f 364/364 365/365 366/366
f 367/367 368/368 369/369 370/370
f 371/371 372/372 373/373
f 374/374 375/375 376/376
f 377/377 378/378 379/379 380/380
f 381/381 382/382 383/383
f 384/384 385/385 386/386
f 387/387 388/388 389/389 390/390
f 391/391 392/392 393/393
f 394/394 395/395 396/396
f 397/397 398/398 399/399 400/400
f 401/401 402/402 403/403
f 404/404 405/405 406/406
f 407/407 408/408 409/409 410/410
f 411/411 412/412 413/413
f 414/414 415/415 416/416
f 417/417 418/418 419/419 420/420
f 421/421 422/422 423/423
f 424/424 425/425 426/426
