# Modelo original generado para Caelum Argenteum.
# Ejes OBJ: X ancho, Y altura, Z profundidad.
o ca_rock_sandstone3
v 0.000000 0.000000 0.000000
v 39.679716 -0.650119 0.000000
v 31.591265 0.312080 16.465850
v 39.679716 -0.650119 0.000000
v 50.994120 7.456526 0.000000
v 33.014128 7.465471 17.207468
v 31.591265 0.312080 16.465850
v 50.994120 7.456526 0.000000
v 38.537682 14.664064 0.000000
v 30.977470 15.500898 16.145931
v 33.014128 7.465471 17.207468
v 2.422641 22.000000 2.524139
v 30.977470 15.500898 16.145931
v 38.537682 14.664064 0.000000
v 0.000000 0.000000 0.000000
v 31.591265 0.312080 16.465850
v 13.919447 -0.197381 30.732795
v 31.591265 0.312080 16.465850
v 33.014128 7.465471 17.207468
v 13.629666 6.931658 30.092985
v 13.919447 -0.197381 30.732795
v 33.014128 7.465471 17.207468
v 30.977470 15.500898 16.145931
v 11.516224 15.720324 25.426709
v 13.629666 6.931658 30.092985
v 2.422641 22.000000 2.524139
v 11.516224 15.720324 25.426709
v 30.977470 15.500898 16.145931
v 0.000000 0.000000 0.000000
v 13.919447 -0.197381 30.732795
v -10.707962 0.702953 23.642146
v 13.919447 -0.197381 30.732795
v 13.629666 6.931658 30.092985
v -16.636566 6.700789 36.731931
v -10.707962 0.702953 23.642146
v 13.629666 6.931658 30.092985
v 11.516224 15.720324 25.426709
v -10.579157 15.164717 23.357758
v -16.636566 6.700789 36.731931
v 2.422641 22.000000 2.524139
v -10.579157 15.164717 23.357758
v 11.516224 15.720324 25.426709
v 0.000000 0.000000 0.000000
v -10.707962 0.702953 23.642146
v -29.060269 -0.276081 15.146656
v -10.707962 0.702953 23.642146
v -16.636566 6.700789 36.731931
v -37.948004 7.648295 19.779080
v -29.060269 -0.276081 15.146656
v -16.636566 6.700789 36.731931
v -10.579157 15.164717 23.357758
v -22.872964 15.354620 11.921738
v -37.948004 7.648295 19.779080
v 2.422641 22.000000 2.524139
v -22.872964 15.354620 11.921738
v -10.579157 15.164717 23.357758
v 0.000000 0.000000 0.000000
v -29.060269 -0.276081 15.146656
v -44.705996 -0.003052 0.000000
v -29.060269 -0.276081 15.146656
v -37.948004 7.648295 19.779080
v -44.464933 7.704356 0.000000
v -44.705996 -0.003052 0.000000
v -37.948004 7.648295 19.779080
v -22.872964 15.354620 11.921738
v -37.421808 15.007762 0.000000
v -44.464933 7.704356 0.000000
v 2.422641 22.000000 2.524139
v -37.421808 15.007762 0.000000
v -22.872964 15.354620 11.921738
v 0.000000 0.000000 0.000000
v -44.705996 -0.003052 0.000000
v -35.982955 0.568642 -18.754867
v -44.705996 -0.003052 0.000000
v -44.464933 7.704356 0.000000
v -40.053352 6.986330 -20.876419
v -35.982955 0.568642 -18.754867
v -44.464933 7.704356 0.000000
v -37.421808 15.007762 0.000000
v -32.444076 14.897265 -16.910349
v -40.053352 6.986330 -20.876419
v 2.422641 22.000000 2.524139
v -32.444076 14.897265 -16.910349
v -37.421808 15.007762 0.000000
v 0.000000 0.000000 0.000000
v -35.982955 0.568642 -18.754867
v -12.086147 -0.160092 -26.685046
v -35.982955 0.568642 -18.754867
v -40.053352 6.986330 -20.876419
v -15.162298 6.524316 -33.476889
v -12.086147 -0.160092 -26.685046
v -40.053352 6.986330 -20.876419
v -32.444076 14.897265 -16.910349
v -11.191281 15.246543 -24.709268
v -15.162298 6.524316 -33.476889
v 2.422641 22.000000 2.524139
v -11.191281 15.246543 -24.709268
v -32.444076 14.897265 -16.910349
v 0.000000 0.000000 0.000000
v -12.086147 -0.160092 -26.685046
v 10.623060 -0.643531 -23.454690
v -12.086147 -0.160092 -26.685046
v -15.162298 6.524316 -33.476889
v 15.749280 7.158546 -34.772888
v 10.623060 -0.643531 -23.454690
v -15.162298 6.524316 -33.476889
v -11.191281 15.246543 -24.709268
v 11.102599 15.020214 -24.513466
v 15.749280 7.158546 -34.772888
v 2.422641 22.000000 2.524139
v 11.102599 15.020214 -24.513466
v -11.191281 15.246543 -24.709268
v 0.000000 0.000000 0.000000
v 10.623060 -0.643531 -23.454690
v 36.529211 0.659492 -19.039583
v 10.623060 -0.643531 -23.454690
v 15.749280 7.158546 -34.772888
v 34.187853 6.772449 -17.819232
v 36.529211 0.659492 -19.039583
v 15.749280 7.158546 -34.772888
v 11.102599 15.020214 -24.513466
v 25.175277 14.621777 -13.121739
v 34.187853 6.772449 -17.819232
v 2.422641 22.000000 2.524139
v 25.175277 14.621777 -13.121739
v 11.102599 15.020214 -24.513466
v 0.000000 0.000000 0.000000
v 36.529211 0.659492 -19.039583
v 39.679716 -0.650119 0.000000
v 36.529211 0.659492 -19.039583
v 34.187853 6.772449 -17.819232
v 50.994120 7.456526 0.000000
v 39.679716 -0.650119 0.000000
v 34.187853 6.772449 -17.819232
v 25.175277 14.621777 -13.121739
v 38.537682 14.664064 0.000000
v 50.994120 7.456526 0.000000
v 2.422641 22.000000 2.524139
v 38.537682 14.664064 0.000000
v 25.175277 14.621777 -13.121739
v -13.000000 17.000000 3.000000
v 16.936257 17.133686 3.000000
v 9.116862 16.691048 17.680407
v 16.936257 17.133686 3.000000
v 22.743200 23.921820 3.000000
v 13.486569 23.805131 20.580867
v 9.116862 16.691048 17.680407
v 22.743200 23.921820 3.000000
v 7.880861 30.610450 3.000000
v 7.233853 30.700841 16.430531
v 13.486569 23.805131 20.580867
v -19.624434 38.000000 9.620221
v 7.233853 30.700841 16.430531
v 7.880861 30.610450 3.000000
v -13.000000 17.000000 3.000000
v 9.116862 16.691048 17.680407
v -7.494269 16.894580 27.700021
v 9.116862 16.691048 17.680407
v 13.486569 23.805131 20.580867
v -6.694149 23.716099 31.289549
v -7.494269 16.894580 27.700021
v 13.486569 23.805131 20.580867
v 7.233853 30.700841 16.430531
v -8.300593 31.432117 24.082657
v -6.694149 23.716099 31.289549
v -19.624434 38.000000 9.620221
v -8.300593 31.432117 24.082657
v 7.233853 30.700841 16.430531
v -13.000000 17.000000 3.000000
v -7.494269 16.894580 27.700021
v -28.201287 16.834508 23.827736
v -7.494269 16.894580 27.700021
v -6.694149 23.716099 31.289549
v -31.241447 24.123501 27.993149
v -28.201287 16.834508 23.827736
v -6.694149 23.716099 31.289549
v -8.300593 31.432117 24.082657
v -27.493193 30.748938 22.857555
v -31.241447 24.123501 27.993149
v -19.624434 38.000000 9.620221
v -27.493193 30.748938 22.857555
v -8.300593 31.432117 24.082657
v -13.000000 17.000000 3.000000
v -28.201287 16.834508 23.827736
v -37.119651 16.378548 9.944452
v -28.201287 16.834508 23.827736
v -31.241447 24.123501 27.993149
v -49.411699 24.177677 13.483538
v -37.119651 16.378548 9.944452
v -31.241447 24.123501 27.993149
v -27.493193 30.748938 22.857555
v -35.862900 31.862939 9.582612
v -49.411699 24.177677 13.483538
v -19.624434 38.000000 9.620221
v -35.862900 31.862939 9.582612
v -27.493193 30.748938 22.857555
v -13.000000 17.000000 3.000000
v -37.119651 16.378548 9.944452
v -37.187342 16.703325 -3.963941
v -37.119651 16.378548 9.944452
v -49.411699 24.177677 13.483538
v -46.957958 24.203932 -6.777065
v -37.187342 16.703325 -3.963941
v -49.411699 24.177677 13.483538
v -35.862900 31.862939 9.582612
v -33.627586 31.074170 -2.939028
v -46.957958 24.203932 -6.777065
v -19.624434 38.000000 9.620221
v -33.627586 31.074170 -2.939028
v -35.862900 31.862939 9.582612
v -13.000000 17.000000 3.000000
v -37.187342 16.703325 -3.963941
v -28.967455 16.424879 -18.877485
v -37.187342 16.703325 -3.963941
v -46.957958 24.203932 -6.777065
v -28.879336 23.171646 -18.756750
v -28.967455 16.424879 -18.877485
v -46.957958 24.203932 -6.777065
v -33.627586 31.074170 -2.939028
v -25.536162 30.779479 -14.176168
v -28.879336 23.171646 -18.756750
v -19.624434 38.000000 9.620221
v -25.536162 30.779479 -14.176168
v -33.627586 31.074170 -2.939028
v -13.000000 17.000000 3.000000
v -28.967455 16.424879 -18.877485
v -8.304801 16.319499 -18.063781
v -28.967455 16.424879 -18.877485
v -28.879336 23.171646 -18.756750
v -6.315701 23.490936 -26.987354
v -8.304801 16.319499 -18.063781
v -28.879336 23.171646 -18.756750
v -25.536162 30.779479 -14.176168
v -9.233857 30.643608 -13.895812
v -6.315701 23.490936 -26.987354
v -19.624434 38.000000 9.620221
v -9.233857 30.643608 -13.895812
v -25.536162 30.779479 -14.176168
v -13.000000 17.000000 3.000000
v -8.304801 16.319499 -18.063781
v 8.212915 17.647015 -11.080398
v -8.304801 16.319499 -18.063781
v -6.315701 23.490936 -26.987354
v 9.442324 23.107199 -11.896437
v 8.212915 17.647015 -11.080398
v -6.315701 23.490936 -26.987354
v -9.233857 30.643608 -13.895812
v 4.858410 30.693170 -8.853794
v 9.442324 23.107199 -11.896437
v -19.624434 38.000000 9.620221
v 4.858410 30.693170 -8.853794
v -9.233857 30.643608 -13.895812
v -13.000000 17.000000 3.000000
v 8.212915 17.647015 -11.080398
v 16.936257 17.133686 3.000000
v 8.212915 17.647015 -11.080398
v 9.442324 23.107199 -11.896437
v 22.743200 23.921820 3.000000
v 16.936257 17.133686 3.000000
v 9.442324 23.107199 -11.896437
v 4.858410 30.693170 -8.853794
v 7.880861 30.610450 3.000000
v 22.743200 23.921820 3.000000
v -19.624434 38.000000 9.620221
v 7.880861 30.610450 3.000000
v 4.858410 30.693170 -8.853794
vt 0.500000 1.000000
vt 0.000000 0.000000
vt 1.000000 0.000000
vt 0.000000 0.000000
vt 1.000000 0.000000
vt 1.000000 1.000000
vt 0.000000 1.000000
vt 0.000000 0.000000
vt 1.000000 0.000000
vt 1.000000 1.000000
vt 0.000000 1.000000
vt 0.500000 1.000000
vt 0.000000 0.000000
vt 1.000000 0.000000
vt 0.500000 1.000000
vt 0.000000 0.000000
vt 1.000000 0.000000
vt 0.000000 0.000000
vt 1.000000 0.000000
vt 1.000000 1.000000
vt 0.000000 1.000000
vt 0.000000 0.000000
vt 1.000000 0.000000
vt 1.000000 1.000000
vt 0.000000 1.000000
vt 0.500000 1.000000
vt 0.000000 0.000000
vt 1.000000 0.000000
vt 0.500000 1.000000
vt 0.000000 0.000000
vt 1.000000 0.000000
vt 0.000000 0.000000
vt 1.000000 0.000000
vt 1.000000 1.000000
vt 0.000000 1.000000
vt 0.000000 0.000000
vt 1.000000 0.000000
vt 1.000000 1.000000
vt 0.000000 1.000000
vt 0.500000 1.000000
vt 0.000000 0.000000
vt 1.000000 0.000000
vt 0.500000 1.000000
vt 0.000000 0.000000
vt 1.000000 0.000000
vt 0.000000 0.000000
vt 1.000000 0.000000
vt 1.000000 1.000000
vt 0.000000 1.000000
vt 0.000000 0.000000
vt 1.000000 0.000000
vt 1.000000 1.000000
vt 0.000000 1.000000
vt 0.500000 1.000000
vt 0.000000 0.000000
vt 1.000000 0.000000
vt 0.500000 1.000000
vt 0.000000 0.000000
vt 1.000000 0.000000
vt 0.000000 0.000000
vt 1.000000 0.000000
vt 1.000000 1.000000
vt 0.000000 1.000000
vt 0.000000 0.000000
vt 1.000000 0.000000
vt 1.000000 1.000000
vt 0.000000 1.000000
vt 0.500000 1.000000
vt 0.000000 0.000000
vt 1.000000 0.000000
vt 0.500000 1.000000
vt 0.000000 0.000000
vt 1.000000 0.000000
vt 0.000000 0.000000
vt 1.000000 0.000000
vt 1.000000 1.000000
vt 0.000000 1.000000
vt 0.000000 0.000000
vt 1.000000 0.000000
vt 1.000000 1.000000
vt 0.000000 1.000000
vt 0.500000 1.000000
vt 0.000000 0.000000
vt 1.000000 0.000000
vt 0.500000 1.000000
vt 0.000000 0.000000
vt 1.000000 0.000000
vt 0.000000 0.000000
vt 1.000000 0.000000
vt 1.000000 1.000000
vt 0.000000 1.000000
vt 0.000000 0.000000
vt 1.000000 0.000000
vt 1.000000 1.000000
vt 0.000000 1.000000
vt 0.500000 1.000000
vt 0.000000 0.000000
vt 1.000000 0.000000
vt 0.500000 1.000000
vt 0.000000 0.000000
vt 1.000000 0.000000
vt 0.000000 0.000000
vt 1.000000 0.000000
vt 1.000000 1.000000
vt 0.000000 1.000000
vt 0.000000 0.000000
vt 1.000000 0.000000
vt 1.000000 1.000000
vt 0.000000 1.000000
vt 0.500000 1.000000
vt 0.000000 0.000000
vt 1.000000 0.000000
vt 0.500000 1.000000
vt 0.000000 0.000000
vt 1.000000 0.000000
vt 0.000000 0.000000
vt 1.000000 0.000000
vt 1.000000 1.000000
vt 0.000000 1.000000
vt 0.000000 0.000000
vt 1.000000 0.000000
vt 1.000000 1.000000
vt 0.000000 1.000000
vt 0.500000 1.000000
vt 0.000000 0.000000
vt 1.000000 0.000000
vt 0.500000 1.000000
vt 0.000000 0.000000
vt 1.000000 0.000000
vt 0.000000 0.000000
vt 1.000000 0.000000
vt 1.000000 1.000000
vt 0.000000 1.000000
vt 0.000000 0.000000
vt 1.000000 0.000000
vt 1.000000 1.000000
vt 0.000000 1.000000
vt 0.500000 1.000000
vt 0.000000 0.000000
vt 1.000000 0.000000
vt 0.500000 1.000000
vt 0.000000 0.000000
vt 1.000000 0.000000
vt 0.000000 0.000000
vt 1.000000 0.000000
vt 1.000000 1.000000
vt 0.000000 1.000000
vt 0.000000 0.000000
vt 1.000000 0.000000
vt 1.000000 1.000000
vt 0.000000 1.000000
vt 0.500000 1.000000
vt 0.000000 0.000000
vt 1.000000 0.000000
vt 0.500000 1.000000
vt 0.000000 0.000000
vt 1.000000 0.000000
vt 0.000000 0.000000
vt 1.000000 0.000000
vt 1.000000 1.000000
vt 0.000000 1.000000
vt 0.000000 0.000000
vt 1.000000 0.000000
vt 1.000000 1.000000
vt 0.000000 1.000000
vt 0.500000 1.000000
vt 0.000000 0.000000
vt 1.000000 0.000000
vt 0.500000 1.000000
vt 0.000000 0.000000
vt 1.000000 0.000000
vt 0.000000 0.000000
vt 1.000000 0.000000
vt 1.000000 1.000000
vt 0.000000 1.000000
vt 0.000000 0.000000
vt 1.000000 0.000000
vt 1.000000 1.000000
vt 0.000000 1.000000
vt 0.500000 1.000000
vt 0.000000 0.000000
vt 1.000000 0.000000
vt 0.500000 1.000000
vt 0.000000 0.000000
vt 1.000000 0.000000
vt 0.000000 0.000000
vt 1.000000 0.000000
vt 1.000000 1.000000
vt 0.000000 1.000000
vt 0.000000 0.000000
vt 1.000000 0.000000
vt 1.000000 1.000000
vt 0.000000 1.000000
vt 0.500000 1.000000
vt 0.000000 0.000000
vt 1.000000 0.000000
vt 0.500000 1.000000
vt 0.000000 0.000000
vt 1.000000 0.000000
vt 0.000000 0.000000
vt 1.000000 0.000000
vt 1.000000 1.000000
vt 0.000000 1.000000
vt 0.000000 0.000000
vt 1.000000 0.000000
vt 1.000000 1.000000
vt 0.000000 1.000000
vt 0.500000 1.000000
vt 0.000000 0.000000
vt 1.000000 0.000000
vt 0.500000 1.000000
vt 0.000000 0.000000
vt 1.000000 0.000000
vt 0.000000 0.000000
vt 1.000000 0.000000
vt 1.000000 1.000000
vt 0.000000 1.000000
vt 0.000000 0.000000
vt 1.000000 0.000000
vt 1.000000 1.000000
vt 0.000000 1.000000
vt 0.500000 1.000000
vt 0.000000 0.000000
vt 1.000000 0.000000
vt 0.500000 1.000000
vt 0.000000 0.000000
vt 1.000000 0.000000
vt 0.000000 0.000000
vt 1.000000 0.000000
vt 1.000000 1.000000
vt 0.000000 1.000000
vt 0.000000 0.000000
vt 1.000000 0.000000
vt 1.000000 1.000000
vt 0.000000 1.000000
vt 0.500000 1.000000
vt 0.000000 0.000000
vt 1.000000 0.000000
vt 0.500000 1.000000
vt 0.000000 0.000000
vt 1.000000 0.000000
vt 0.000000 0.000000
vt 1.000000 0.000000
vt 1.000000 1.000000
vt 0.000000 1.000000
vt 0.000000 0.000000
vt 1.000000 0.000000
vt 1.000000 1.000000
vt 0.000000 1.000000
vt 0.500000 1.000000
vt 0.000000 0.000000
vt 1.000000 0.000000
vt 0.500000 1.000000
vt 0.000000 0.000000
vt 1.000000 0.000000
vt 0.000000 0.000000
vt 1.000000 0.000000
vt 1.000000 1.000000
vt 0.000000 1.000000
vt 0.000000 0.000000
vt 1.000000 0.000000
vt 1.000000 1.000000
vt 0.000000 1.000000
vt 0.500000 1.000000
vt 0.000000 0.000000
vt 1.000000 0.000000
s 1
usemtl models/caelum/world/environment/rock_sandstone.png
f 1/1 2/2 3/3
f 4/4 5/5 6/6 7/7
f 8/8 9/9 10/10 11/11
f 12/12 13/13 14/14
f 15/15 16/16 17/17
f 18/18 19/19 20/20 21/21
f 22/22 23/23 24/24 25/25
f 26/26 27/27 28/28
f 29/29 30/30 31/31
f 32/32 33/33 34/34 35/35
f 36/36 37/37 38/38 39/39
f 40/40 41/41 42/42
f 43/43 44/44 45/45
f 46/46 47/47 48/48 49/49
f 50/50 51/51 52/52 53/53
f 54/54 55/55 56/56
f 57/57 58/58 59/59
f 60/60 61/61 62/62 63/63
f 64/64 65/65 66/66 67/67
f 68/68 69/69 70/70
f 71/71 72/72 73/73
f 74/74 75/75 76/76 77/77
f 78/78 79/79 80/80 81/81
f 82/82 83/83 84/84
f 85/85 86/86 87/87
f 88/88 89/89 90/90 91/91
f 92/92 93/93 94/94 95/95
f 96/96 97/97 98/98
f 99/99 100/100 101/101
f 102/102 103/103 104/104 105/105
f 106/106 107/107 108/108 109/109
f 110/110 111/111 112/112
f 113/113 114/114 115/115
f 116/116 117/117 118/118 119/119
f 120/120 121/121 122/122 123/123
f 124/124 125/125 126/126
f 127/127 128/128 129/129
f 130/130 131/131 132/132 133/133
f 134/134 135/135 136/136 137/137
f 138/138 139/139 140/140
f 141/141 142/142 143/143
f 144/144 145/145 146/146 147/147
f 148/148 149/149 150/150 151/151
f 152/152 153/153 154/154
f 155/155 156/156 157/157
f 158/158 159/159 160/160 161/161
f 162/162 163/163 164/164 165/165
f 166/166 167/167 168/168
f 169/169 170/170 171/171
f 172/172 173/173 174/174 175/175
f 176/176 177/177 178/178 179/179
f 180/180 181/181 182/182
f 183/183 184/184 185/185
f 186/186 187/187 188/188 189/189
f 190/190 191/191 192/192 193/193
f 194/194 195/195 196/196
f 197/197 198/198 199/199
f 200/200 201/201 202/202 203/203
f 204/204 205/205 206/206 207/207
f 208/208 209/209 210/210
f 211/211 212/212 213/213
f 214/214 215/215 216/216 217/217
f 218/218 219/219 220/220 221/221
f 222/222 223/223 224/224
f 225/225 226/226 227/227
f 228/228 229/229 230/230 231/231
f 232/232 233/233 234/234 235/235
f 236/236 237/237 238/238
f 239/239 240/240 241/241
f 242/242 243/243 244/244 245/245
f 246/246 247/247 248/248 249/249
f 250/250 251/251 252/252
f 253/253 254/254 255/255
f 256/256 257/257 258/258 259/259
f 260/260 261/261 262/262 263/263
f 264/264 265/265 266/266
