# Modelo original generado para Caelum Argenteum.
# Ejes OBJ: X ancho, Y altura, Z profundidad.
o ca_rock_basalt
v -16.000000 0.000000 -17.000000
v -30.722432 0.000000 -8.500000
v -28.072394 66.000000 -6.970000
v -16.000000 66.000000 -13.940000
v -16.000000 0.000000 0.000000
v -30.722432 0.000000 -8.500000
v -16.000000 0.000000 -17.000000
v -16.000000 66.000000 0.000000
v -16.000000 66.000000 -13.940000
v -28.072394 66.000000 -6.970000
v -30.722432 0.000000 -8.500000
v -30.722432 0.000000 8.500000
v -28.072394 66.000000 6.970000
v -28.072394 66.000000 -6.970000
v -16.000000 0.000000 0.000000
v -30.722432 0.000000 8.500000
v -30.722432 0.000000 -8.500000
v -16.000000 66.000000 0.000000
v -28.072394 66.000000 -6.970000
v -28.072394 66.000000 6.970000
v -30.722432 0.000000 8.500000
v -16.000000 0.000000 17.000000
v -16.000000 66.000000 13.940000
v -28.072394 66.000000 6.970000
v -16.000000 0.000000 0.000000
v -16.000000 0.000000 17.000000
v -30.722432 0.000000 8.500000
v -16.000000 66.000000 0.000000
v -28.072394 66.000000 6.970000
v -16.000000 66.000000 13.940000
v -16.000000 0.000000 17.000000
v -1.277568 0.000000 8.500000
v -3.927606 66.000000 6.970000
v -16.000000 66.000000 13.940000
v -16.000000 0.000000 0.000000
v -1.277568 0.000000 8.500000
v -16.000000 0.000000 17.000000
v -16.000000 66.000000 0.000000
v -16.000000 66.000000 13.940000
v -3.927606 66.000000 6.970000
v -1.277568 0.000000 8.500000
v -1.277568 0.000000 -8.500000
v -3.927606 66.000000 -6.970000
v -3.927606 66.000000 6.970000
v -16.000000 0.000000 0.000000
v -1.277568 0.000000 -8.500000
v -1.277568 0.000000 8.500000
v -16.000000 66.000000 0.000000
v -3.927606 66.000000 6.970000
v -3.927606 66.000000 -6.970000
v -1.277568 0.000000 -8.500000
v -16.000000 0.000000 -17.000000
v -16.000000 66.000000 -13.940000
v -3.927606 66.000000 -6.970000
v -16.000000 0.000000 0.000000
v -16.000000 0.000000 -17.000000
v -1.277568 0.000000 -8.500000
v -16.000000 66.000000 0.000000
v -3.927606 66.000000 -6.970000
v -16.000000 66.000000 -13.940000
v 0.606468 0.058379 -15.856173
v -15.387604 0.448478 -3.854610
v -10.077835 82.367752 -2.440780
v 3.037304 82.047871 -12.282062
v 3.000000 0.000000 4.000000
v -15.387604 0.448478 -3.854610
v 0.606468 0.058379 -15.856173
v 5.000000 82.000000 4.000000
v 3.037304 82.047871 -12.282062
v -10.077835 82.367752 -2.440780
v -15.387604 0.448478 -3.854610
v -12.994071 0.390099 16.001563
v -8.115138 82.319881 13.841281
v -10.077835 82.367752 -2.440780
v 3.000000 0.000000 4.000000
v -12.994071 0.390099 16.001563
v -15.387604 0.448478 -3.854610
v 5.000000 82.000000 4.000000
v -10.077835 82.367752 -2.440780
v -8.115138 82.319881 13.841281
v -12.994071 0.390099 16.001563
v 5.393532 -0.058379 23.856173
v 6.962696 81.952129 20.282062
v -8.115138 82.319881 13.841281
v 3.000000 0.000000 4.000000
v 5.393532 -0.058379 23.856173
v -12.994071 0.390099 16.001563
v 5.000000 82.000000 4.000000
v -8.115138 82.319881 13.841281
v 6.962696 81.952129 20.282062
v 5.393532 -0.058379 23.856173
v 21.387604 -0.448478 11.854610
v 20.077835 81.632248 10.440780
v 6.962696 81.952129 20.282062
v 3.000000 0.000000 4.000000
v 21.387604 -0.448478 11.854610
v 5.393532 -0.058379 23.856173
v 5.000000 82.000000 4.000000
v 6.962696 81.952129 20.282062
v 20.077835 81.632248 10.440780
v 21.387604 -0.448478 11.854610
v 18.994071 -0.390099 -8.001563
v 18.115138 81.680119 -5.841281
v 20.077835 81.632248 10.440780
v 3.000000 0.000000 4.000000
v 18.994071 -0.390099 -8.001563
v 21.387604 -0.448478 11.854610
v 5.000000 82.000000 4.000000
v 20.077835 81.632248 10.440780
v 18.115138 81.680119 -5.841281
v 18.994071 -0.390099 -8.001563
v 0.606468 0.058379 -15.856173
v 3.037304 82.047871 -12.282062
v 18.115138 81.680119 -5.841281
v 3.000000 0.000000 4.000000
v 0.606468 0.058379 -15.856173
v 18.994071 -0.390099 -8.001563
v 5.000000 82.000000 4.000000
v 18.115138 81.680119 -5.841281
v 3.037304 82.047871 -12.282062
v 16.434461 0.000000 -17.570070
v 5.599180 0.000000 -7.197187
v 8.191327 58.000000 -6.441693
v 17.076258 58.000000 -14.947457
v 20.000000 0.000000 -3.000000
v 5.599180 0.000000 -7.197187
v 16.434461 0.000000 -17.570070
v 20.000000 58.000000 -3.000000
v 17.076258 58.000000 -14.947457
v 8.191327 58.000000 -6.441693
v 5.599180 0.000000 -7.197187
v 9.164719 0.000000 7.372883
v 11.115070 58.000000 5.505764
v 8.191327 58.000000 -6.441693
v 20.000000 0.000000 -3.000000
v 9.164719 0.000000 7.372883
v 5.599180 0.000000 -7.197187
v 20.000000 58.000000 -3.000000
v 8.191327 58.000000 -6.441693
v 11.115070 58.000000 5.505764
v 9.164719 0.000000 7.372883
v 23.565539 0.000000 11.570070
v 22.923742 58.000000 8.947457
v 11.115070 58.000000 5.505764
v 20.000000 0.000000 -3.000000
v 23.565539 0.000000 11.570070
v 9.164719 0.000000 7.372883
v 20.000000 58.000000 -3.000000
v 11.115070 58.000000 5.505764
v 22.923742 58.000000 8.947457
v 23.565539 0.000000 11.570070
v 34.400820 0.000000 1.197187
v 31.808673 58.000000 0.441693
v 22.923742 58.000000 8.947457
v 20.000000 0.000000 -3.000000
v 34.400820 0.000000 1.197187
v 23.565539 0.000000 11.570070
v 20.000000 58.000000 -3.000000
v 22.923742 58.000000 8.947457
v 31.808673 58.000000 0.441693
v 34.400820 0.000000 1.197187
v 30.835281 0.000000 -13.372883
v 28.884930 58.000000 -11.505764
v 31.808673 58.000000 0.441693
v 20.000000 0.000000 -3.000000
v 30.835281 0.000000 -13.372883
v 34.400820 0.000000 1.197187
v 20.000000 58.000000 -3.000000
v 31.808673 58.000000 0.441693
v 28.884930 58.000000 -11.505764
v 30.835281 0.000000 -13.372883
v 16.434461 0.000000 -17.570070
v 17.076258 58.000000 -14.947457
v 28.884930 58.000000 -11.505764
v 20.000000 0.000000 -3.000000
v 16.434461 0.000000 -17.570070
v 30.835281 0.000000 -13.372883
v 20.000000 58.000000 -3.000000
v 28.884930 58.000000 -11.505764
v 17.076258 58.000000 -14.947457
v -6.928195 0.189546 3.897444
v -15.802860 0.530879 14.719820
v -11.318345 52.435321 15.130253
v -4.041120 52.155428 6.255904
v -2.000000 0.000000 17.000000
v -15.802860 0.530879 14.719820
v -6.928195 0.189546 3.897444
v 0.000000 52.000000 17.000000
v -4.041120 52.155428 6.255904
v -11.318345 52.435321 15.130253
v -15.802860 0.530879 14.719820
v -10.874665 0.341333 27.822376
v -7.277225 52.279893 25.874348
v -11.318345 52.435321 15.130253
v -2.000000 0.000000 17.000000
v -10.874665 0.341333 27.822376
v -15.802860 0.530879 14.719820
v 0.000000 52.000000 17.000000
v -11.318345 52.435321 15.130253
v -7.277225 52.279893 25.874348
v -10.874665 0.341333 27.822376
v 2.928195 -0.189546 30.102556
v 4.041120 51.844572 27.744096
v -7.277225 52.279893 25.874348
v -2.000000 0.000000 17.000000
v 2.928195 -0.189546 30.102556
v -10.874665 0.341333 27.822376
v 0.000000 52.000000 17.000000
v -7.277225 52.279893 25.874348
v 4.041120 51.844572 27.744096
v 2.928195 -0.189546 30.102556
v 11.802860 -0.530879 19.280180
v 11.318345 51.564679 18.869747
v 4.041120 51.844572 27.744096
v -2.000000 0.000000 17.000000
v 11.802860 -0.530879 19.280180
v 2.928195 -0.189546 30.102556
v 0.000000 52.000000 17.000000
v 4.041120 51.844572 27.744096
v 11.318345 51.564679 18.869747
v 11.802860 -0.530879 19.280180
v 6.874665 -0.341333 6.177624
v 7.277225 51.720107 8.125652
v 11.318345 51.564679 18.869747
v -2.000000 0.000000 17.000000
v 6.874665 -0.341333 6.177624
v 11.802860 -0.530879 19.280180
v 0.000000 52.000000 17.000000
v 11.318345 51.564679 18.869747
v 7.277225 51.720107 8.125652
v 6.874665 -0.341333 6.177624
v -6.928195 0.189546 3.897444
v -4.041120 52.155428 6.255904
v 7.277225 51.720107 8.125652
v -2.000000 0.000000 17.000000
v -6.928195 0.189546 3.897444
v 6.874665 -0.341333 6.177624
v 0.000000 52.000000 17.000000
v 7.277225 51.720107 8.125652
v -4.041120 52.155428 6.255904
vt 0.000000 0.000000
vt 1.000000 0.000000
vt 1.000000 1.000000
vt 0.000000 1.000000
vt 0.500000 1.000000
vt 0.000000 0.000000
vt 1.000000 0.000000
vt 0.500000 1.000000
vt 0.000000 0.000000
vt 1.000000 0.000000
vt 0.000000 0.000000
vt 1.000000 0.000000
vt 1.000000 1.000000
vt 0.000000 1.000000
vt 0.500000 1.000000
vt 0.000000 0.000000
vt 1.000000 0.000000
vt 0.500000 1.000000
vt 0.000000 0.000000
vt 1.000000 0.000000
vt 0.000000 0.000000
vt 1.000000 0.000000
vt 1.000000 1.000000
vt 0.000000 1.000000
vt 0.500000 1.000000
vt 0.000000 0.000000
vt 1.000000 0.000000
vt 0.500000 1.000000
vt 0.000000 0.000000
vt 1.000000 0.000000
vt 0.000000 0.000000
vt 1.000000 0.000000
vt 1.000000 1.000000
vt 0.000000 1.000000
vt 0.500000 1.000000
vt 0.000000 0.000000
vt 1.000000 0.000000
vt 0.500000 1.000000
vt 0.000000 0.000000
vt 1.000000 0.000000
vt 0.000000 0.000000
vt 1.000000 0.000000
vt 1.000000 1.000000
vt 0.000000 1.000000
vt 0.500000 1.000000
vt 0.000000 0.000000
vt 1.000000 0.000000
vt 0.500000 1.000000
vt 0.000000 0.000000
vt 1.000000 0.000000
vt 0.000000 0.000000
vt 1.000000 0.000000
vt 1.000000 1.000000
vt 0.000000 1.000000
vt 0.500000 1.000000
vt 0.000000 0.000000
vt 1.000000 0.000000
vt 0.500000 1.000000
vt 0.000000 0.000000
vt 1.000000 0.000000
vt 0.000000 0.000000
vt 1.000000 0.000000
vt 1.000000 1.000000
vt 0.000000 1.000000
vt 0.500000 1.000000
vt 0.000000 0.000000
vt 1.000000 0.000000
vt 0.500000 1.000000
vt 0.000000 0.000000
vt 1.000000 0.000000
vt 0.000000 0.000000
vt 1.000000 0.000000
vt 1.000000 1.000000
vt 0.000000 1.000000
vt 0.500000 1.000000
vt 0.000000 0.000000
vt 1.000000 0.000000
vt 0.500000 1.000000
vt 0.000000 0.000000
vt 1.000000 0.000000
vt 0.000000 0.000000
vt 1.000000 0.000000
vt 1.000000 1.000000
vt 0.000000 1.000000
vt 0.500000 1.000000
vt 0.000000 0.000000
vt 1.000000 0.000000
vt 0.500000 1.000000
vt 0.000000 0.000000
vt 1.000000 0.000000
vt 0.000000 0.000000
vt 1.000000 0.000000
vt 1.000000 1.000000
vt 0.000000 1.000000
vt 0.500000 1.000000
vt 0.000000 0.000000
vt 1.000000 0.000000
vt 0.500000 1.000000
vt 0.000000 0.000000
vt 1.000000 0.000000
vt 0.000000 0.000000
vt 1.000000 0.000000
vt 1.000000 1.000000
vt 0.000000 1.000000
vt 0.500000 1.000000
vt 0.000000 0.000000
vt 1.000000 0.000000
vt 0.500000 1.000000
vt 0.000000 0.000000
vt 1.000000 0.000000
vt 0.000000 0.000000
vt 1.000000 0.000000
vt 1.000000 1.000000
vt 0.000000 1.000000
vt 0.500000 1.000000
vt 0.000000 0.000000
vt 1.000000 0.000000
vt 0.500000 1.000000
vt 0.000000 0.000000
vt 1.000000 0.000000
vt 0.000000 0.000000
vt 1.000000 0.000000
vt 1.000000 1.000000
vt 0.000000 1.000000
vt 0.500000 1.000000
vt 0.000000 0.000000
vt 1.000000 0.000000
vt 0.500000 1.000000
vt 0.000000 0.000000
vt 1.000000 0.000000
vt 0.000000 0.000000
vt 1.000000 0.000000
vt 1.000000 1.000000
vt 0.000000 1.000000
vt 0.500000 1.000000
vt 0.000000 0.000000
vt 1.000000 0.000000
vt 0.500000 1.000000
vt 0.000000 0.000000
vt 1.000000 0.000000
vt 0.000000 0.000000
vt 1.000000 0.000000
vt 1.000000 1.000000
vt 0.000000 1.000000
vt 0.500000 1.000000
vt 0.000000 0.000000
vt 1.000000 0.000000
vt 0.500000 1.000000
vt 0.000000 0.000000
vt 1.000000 0.000000
vt 0.000000 0.000000
vt 1.000000 0.000000
vt 1.000000 1.000000
vt 0.000000 1.000000
vt 0.500000 1.000000
vt 0.000000 0.000000
vt 1.000000 0.000000
vt 0.500000 1.000000
vt 0.000000 0.000000
vt 1.000000 0.000000
vt 0.000000 0.000000
vt 1.000000 0.000000
vt 1.000000 1.000000
vt 0.000000 1.000000
vt 0.500000 1.000000
vt 0.000000 0.000000
vt 1.000000 0.000000
vt 0.500000 1.000000
vt 0.000000 0.000000
vt 1.000000 0.000000
vt 0.000000 0.000000
vt 1.000000 0.000000
vt 1.000000 1.000000
vt 0.000000 1.000000
vt 0.500000 1.000000
vt 0.000000 0.000000
vt 1.000000 0.000000
vt 0.500000 1.000000
vt 0.000000 0.000000
vt 1.000000 0.000000
vt 0.000000 0.000000
vt 1.000000 0.000000
vt 1.000000 1.000000
vt 0.000000 1.000000
vt 0.500000 1.000000
vt 0.000000 0.000000
vt 1.000000 0.000000
vt 0.500000 1.000000
vt 0.000000 0.000000
vt 1.000000 0.000000
vt 0.000000 0.000000
vt 1.000000 0.000000
vt 1.000000 1.000000
vt 0.000000 1.000000
vt 0.500000 1.000000
vt 0.000000 0.000000
vt 1.000000 0.000000
vt 0.500000 1.000000
vt 0.000000 0.000000
vt 1.000000 0.000000
vt 0.000000 0.000000
vt 1.000000 0.000000
vt 1.000000 1.000000
vt 0.000000 1.000000
vt 0.500000 1.000000
vt 0.000000 0.000000
vt 1.000000 0.000000
vt 0.500000 1.000000
vt 0.000000 0.000000
vt 1.000000 0.000000
vt 0.000000 0.000000
vt 1.000000 0.000000
vt 1.000000 1.000000
vt 0.000000 1.000000
vt 0.500000 1.000000
vt 0.000000 0.000000
vt 1.000000 0.000000
vt 0.500000 1.000000
vt 0.000000 0.000000
vt 1.000000 0.000000
vt 0.000000 0.000000
vt 1.000000 0.000000
vt 1.000000 1.000000
vt 0.000000 1.000000
vt 0.500000 1.000000
vt 0.000000 0.000000
vt 1.000000 0.000000
vt 0.500000 1.000000
vt 0.000000 0.000000
vt 1.000000 0.000000
vt 0.000000 0.000000
vt 1.000000 0.000000
vt 1.000000 1.000000
vt 0.000000 1.000000
vt 0.500000 1.000000
vt 0.000000 0.000000
vt 1.000000 0.000000
vt 0.500000 1.000000
vt 0.000000 0.000000
vt 1.000000 0.000000
s 1
usemtl models/caelum/world/environment/rock_basalt.png
f 1/1 2/2 3/3 4/4
f 5/5 6/6 7/7
f 8/8 9/9 10/10
f 11/11 12/12 13/13 14/14
f 15/15 16/16 17/17
f 18/18 19/19 20/20
f 21/21 22/22 23/23 24/24
f 25/25 26/26 27/27
f 28/28 29/29 30/30
f 31/31 32/32 33/33 34/34
f 35/35 36/36 37/37
f 38/38 39/39 40/40
f 41/41 42/42 43/43 44/44
f 45/45 46/46 47/47
f 48/48 49/49 50/50
f 51/51 52/52 53/53 54/54
f 55/55 56/56 57/57
f 58/58 59/59 60/60
f 61/61 62/62 63/63 64/64
f 65/65 66/66 67/67
f 68/68 69/69 70/70
f 71/71 72/72 73/73 74/74
f 75/75 76/76 77/77
f 78/78 79/79 80/80
f 81/81 82/82 83/83 84/84
f 85/85 86/86 87/87
f 88/88 89/89 90/90
f 91/91 92/92 93/93 94/94
f 95/95 96/96 97/97
f 98/98 99/99 100/100
f 101/101 102/102 103/103 104/104
f 105/105 106/106 107/107
f 108/108 109/109 110/110
f 111/111 112/112 113/113 114/114
f 115/115 116/116 117/117
f 118/118 119/119 120/120
f 121/121 122/122 123/123 124/124
f 125/125 126/126 127/127
f 128/128 129/129 130/130
f 131/131 132/132 133/133 134/134
f 135/135 136/136 137/137
f 138/138 139/139 140/140
f 141/141 142/142 143/143 144/144
f 145/145 146/146 147/147
f 148/148 149/149 150/150
f 151/151 152/152 153/153 154/154
f 155/155 156/156 157/157
f 158/158 159/159 160/160
f 161/161 162/162 163/163 164/164
f 165/165 166/166 167/167
f 168/168 169/169 170/170
f 171/171 172/172 173/173 174/174
f 175/175 176/176 177/177
f 178/178 179/179 180/180
f 181/181 182/182 183/183 184/184
f 185/185 186/186 187/187
f 188/188 189/189 190/190
f 191/191 192/192 193/193 194/194
f 195/195 196/196 197/197
f 198/198 199/199 200/200
f 201/201 202/202 203/203 204/204
f 205/205 206/206 207/207
f 208/208 209/209 210/210
f 211/211 212/212 213/213 214/214
f 215/215 216/216 217/217
f 218/218 219/219 220/220
f 221/221 222/222 223/223 224/224
f 225/225 226/226 227/227
f 228/228 229/229 230/230
f 231/231 232/232 233/233 234/234
f 235/235 236/236 237/237
f 238/238 239/239 240/240
