# Modelo original generado para Caelum Argenteum.
# Ejes OBJ: X ancho, Y altura, Z profundidad.
o ca_rock_granite3
v 0.000000 0.000000 0.000000
v 22.556766 1.210603 0.000000
v 18.292481 -0.281894 11.915411
v 22.556766 1.210603 0.000000
v 33.569298 14.540695 0.000000
v 20.682979 12.824476 13.472540
v 18.292481 -0.281894 11.915411
v 33.569298 14.540695 0.000000
v 23.930684 30.000565 0.000000
v 19.466783 29.065853 12.680331
v 20.682979 12.824476 13.472540
v -5.658185 42.000000 3.208110
v 19.466783 29.065853 12.680331
v 23.930684 30.000565 0.000000
v 0.000000 0.000000 0.000000
v 18.292481 -0.281894 11.915411
v 7.724742 0.998616 21.314900
v 18.292481 -0.281894 11.915411
v 20.682979 12.824476 13.472540
v 8.750205 13.806705 24.144461
v 7.724742 0.998616 21.314900
v 20.682979 12.824476 13.472540
v 19.466783 29.065853 12.680331
v 7.558039 27.781101 20.854915
v 8.750205 13.806705 24.144461
v -5.658185 42.000000 3.208110
v 7.558039 27.781101 20.854915
v 19.466783 29.065853 12.680331
v 0.000000 0.000000 0.000000
v 7.724742 0.998616 21.314900
v -7.066315 -0.681692 19.498101
v 7.724742 0.998616 21.314900
v 8.750205 13.806705 24.144461
v -9.768510 13.746360 26.954273
v -7.066315 -0.681692 19.498101
v 8.750205 13.806705 24.144461
v 7.558039 27.781101 20.854915
v -7.301743 27.295813 20.147719
v -9.768510 13.746360 26.954273
v -5.658185 42.000000 3.208110
v -7.301743 27.295813 20.147719
v 7.558039 27.781101 20.854915
v 0.000000 0.000000 0.000000
v -7.066315 -0.681692 19.498101
v -21.451677 -0.312448 13.973257
v -7.066315 -0.681692 19.498101
v -9.768510 13.746360 26.954273
v -20.443760 14.568399 13.316717
v -21.451677 -0.312448 13.973257
v -9.768510 13.746360 26.954273
v -7.301743 27.295813 20.147719
v -20.028745 28.782658 13.046383
v -20.443760 14.568399 13.316717
v -5.658185 42.000000 3.208110
v -20.028745 28.782658 13.046383
v -7.301743 27.295813 20.147719
v 0.000000 0.000000 0.000000
v -21.451677 -0.312448 13.973257
v -22.393273 -0.785613 0.000000
v -21.451677 -0.312448 13.973257
v -20.443760 14.568399 13.316717
v -31.377930 13.638256 0.000000
v -22.393273 -0.785613 0.000000
v -20.443760 14.568399 13.316717
v -20.028745 28.782658 13.046383
v -20.905093 28.438886 0.000000
v -31.377930 13.638256 0.000000
v -5.658185 42.000000 3.208110
v -20.905093 28.438886 0.000000
v -20.028745 28.782658 13.046383
v 0.000000 0.000000 0.000000
v -22.393273 -0.785613 0.000000
v -20.506400 0.060800 -13.357519
v -22.393273 -0.785613 0.000000
v -31.377930 13.638256 0.000000
v -24.258862 14.017106 -15.801809
v -20.506400 0.060800 -13.357519
v -31.377930 13.638256 0.000000
v -20.905093 28.438886 0.000000
v -14.898578 27.475622 -9.704680
v -24.258862 14.017106 -15.801809
v -5.658185 42.000000 3.208110
v -14.898578 27.475622 -9.704680
v -20.905093 28.438886 0.000000
v 0.000000 0.000000 0.000000
v -20.506400 0.060800 -13.357519
v -7.841235 0.081044 -21.636339
v -20.506400 0.060800 -13.357519
v -24.258862 14.017106 -15.801809
v -10.109860 13.489010 -27.896163
v -7.841235 0.081044 -21.636339
v -24.258862 14.017106 -15.801809
v -14.898578 27.475622 -9.704680
v -7.158096 29.592029 -19.751352
v -10.109860 13.489010 -27.896163
v -5.658185 42.000000 3.208110
v -7.158096 29.592029 -19.751352
v -14.898578 27.475622 -9.704680
v 0.000000 0.000000 0.000000
v -7.841235 0.081044 -21.636339
v 8.731013 0.795260 -24.091506
v -7.841235 0.081044 -21.636339
v -10.109860 13.489010 -27.896163
v 8.110188 14.603512 -22.378463
v 8.731013 0.795260 -24.091506
v -10.109860 13.489010 -27.896163
v -7.158096 29.592029 -19.751352
v 5.481768 28.836577 -15.125855
v 8.110188 14.603512 -22.378463
v -5.658185 42.000000 3.208110
v 5.481768 28.836577 -15.125855
v -7.158096 29.592029 -19.751352
v 0.000000 0.000000 0.000000
v 8.731013 0.795260 -24.091506
v 18.372859 0.431488 -11.967767
v 8.731013 0.795260 -24.091506
v 8.110188 14.603512 -22.378463
v 25.413164 12.578186 -16.553702
v 18.372859 0.431488 -11.967767
v 8.110188 14.603512 -22.378463
v 5.481768 28.836577 -15.125855
v 16.563758 27.460714 -10.789350
v 25.413164 12.578186 -16.553702
v -5.658185 42.000000 3.208110
v 16.563758 27.460714 -10.789350
v 5.481768 28.836577 -15.125855
v 0.000000 0.000000 0.000000
v 18.372859 0.431488 -11.967767
v 22.556766 1.210603 0.000000
v 18.372859 0.431488 -11.967767
v 25.413164 12.578186 -16.553702
v 33.569298 14.540695 0.000000
v 22.556766 1.210603 0.000000
v 25.413164 12.578186 -16.553702
v 16.563758 27.460714 -10.789350
v 23.930684 30.000565 0.000000
v 33.569298 14.540695 0.000000
v -5.658185 42.000000 3.208110
v 23.930684 30.000565 0.000000
v 16.563758 27.460714 -10.789350
vt 0.500000 1.000000
vt 0.000000 0.000000
vt 1.000000 0.000000
vt 0.000000 0.000000
vt 1.000000 0.000000
vt 1.000000 1.000000
vt 0.000000 1.000000
vt 0.000000 0.000000
vt 1.000000 0.000000
vt 1.000000 1.000000
vt 0.000000 1.000000
vt 0.500000 1.000000
vt 0.000000 0.000000
vt 1.000000 0.000000
vt 0.500000 1.000000
vt 0.000000 0.000000
vt 1.000000 0.000000
vt 0.000000 0.000000
vt 1.000000 0.000000
vt 1.000000 1.000000
vt 0.000000 1.000000
vt 0.000000 0.000000
vt 1.000000 0.000000
vt 1.000000 1.000000
vt 0.000000 1.000000
vt 0.500000 1.000000
vt 0.000000 0.000000
vt 1.000000 0.000000
vt 0.500000 1.000000
vt 0.000000 0.000000
vt 1.000000 0.000000
vt 0.000000 0.000000
vt 1.000000 0.000000
vt 1.000000 1.000000
vt 0.000000 1.000000
vt 0.000000 0.000000
vt 1.000000 0.000000
vt 1.000000 1.000000
vt 0.000000 1.000000
vt 0.500000 1.000000
vt 0.000000 0.000000
vt 1.000000 0.000000
vt 0.500000 1.000000
vt 0.000000 0.000000
vt 1.000000 0.000000
vt 0.000000 0.000000
vt 1.000000 0.000000
vt 1.000000 1.000000
vt 0.000000 1.000000
vt 0.000000 0.000000
vt 1.000000 0.000000
vt 1.000000 1.000000
vt 0.000000 1.000000
vt 0.500000 1.000000
vt 0.000000 0.000000
vt 1.000000 0.000000
vt 0.500000 1.000000
vt 0.000000 0.000000
vt 1.000000 0.000000
vt 0.000000 0.000000
vt 1.000000 0.000000
vt 1.000000 1.000000
vt 0.000000 1.000000
vt 0.000000 0.000000
vt 1.000000 0.000000
vt 1.000000 1.000000
vt 0.000000 1.000000
vt 0.500000 1.000000
vt 0.000000 0.000000
vt 1.000000 0.000000
vt 0.500000 1.000000
vt 0.000000 0.000000
vt 1.000000 0.000000
vt 0.000000 0.000000
vt 1.000000 0.000000
vt 1.000000 1.000000
vt 0.000000 1.000000
vt 0.000000 0.000000
vt 1.000000 0.000000
vt 1.000000 1.000000
vt 0.000000 1.000000
vt 0.500000 1.000000
vt 0.000000 0.000000
vt 1.000000 0.000000
vt 0.500000 1.000000
vt 0.000000 0.000000
vt 1.000000 0.000000
vt 0.000000 0.000000
vt 1.000000 0.000000
vt 1.000000 1.000000
vt 0.000000 1.000000
vt 0.000000 0.000000
vt 1.000000 0.000000
vt 1.000000 1.000000
vt 0.000000 1.000000
vt 0.500000 1.000000
vt 0.000000 0.000000
vt 1.000000 0.000000
vt 0.500000 1.000000
vt 0.000000 0.000000
vt 1.000000 0.000000
vt 0.000000 0.000000
vt 1.000000 0.000000
vt 1.000000 1.000000
vt 0.000000 1.000000
vt 0.000000 0.000000
vt 1.000000 0.000000
vt 1.000000 1.000000
vt 0.000000 1.000000
vt 0.500000 1.000000
vt 0.000000 0.000000
vt 1.000000 0.000000
vt 0.500000 1.000000
vt 0.000000 0.000000
vt 1.000000 0.000000
vt 0.000000 0.000000
vt 1.000000 0.000000
vt 1.000000 1.000000
vt 0.000000 1.000000
vt 0.000000 0.000000
vt 1.000000 0.000000
vt 1.000000 1.000000
vt 0.000000 1.000000
vt 0.500000 1.000000
vt 0.000000 0.000000
vt 1.000000 0.000000
vt 0.500000 1.000000
vt 0.000000 0.000000
vt 1.000000 0.000000
vt 0.000000 0.000000
vt 1.000000 0.000000
vt 1.000000 1.000000
vt 0.000000 1.000000
vt 0.000000 0.000000
vt 1.000000 0.000000
vt 1.000000 1.000000
vt 0.000000 1.000000
vt 0.500000 1.000000
vt 0.000000 0.000000
vt 1.000000 0.000000
s 1
usemtl models/caelum/world/environment/rock_granite.png
f 1/1 2/2 3/3
f 4/4 5/5 6/6 7/7
f 8/8 9/9 10/10 11/11
f 12/12 13/13 14/14
f 15/15 16/16 17/17
f 18/18 19/19 20/20 21/21
f 22/22 23/23 24/24 25/25
f 26/26 27/27 28/28
f 29/29 30/30 31/31
f 32/32 33/33 34/34 35/35
f 36/36 37/37 38/38 39/39
f 40/40 41/41 42/42
f 43/43 44/44 45/45
f 46/46 47/47 48/48 49/49
f 50/50 51/51 52/52 53/53
f 54/54 55/55 56/56
f 57/57 58/58 59/59
f 60/60 61/61 62/62 63/63
f 64/64 65/65 66/66 67/67
f 68/68 69/69 70/70
f 71/71 72/72 73/73
f 74/74 75/75 76/76 77/77
f 78/78 79/79 80/80 81/81
f 82/82 83/83 84/84
f 85/85 86/86 87/87
f 88/88 89/89 90/90 91/91
f 92/92 93/93 94/94 95/95
f 96/96 97/97 98/98
f 99/99 100/100 101/101
f 102/102 103/103 104/104 105/105
f 106/106 107/107 108/108 109/109
f 110/110 111/111 112/112
f 113/113 114/114 115/115
f 116/116 117/117 118/118 119/119
f 120/120 121/121 122/122 123/123
f 124/124 125/125 126/126
f 127/127 128/128 129/129
f 130/130 131/131 132/132 133/133
f 134/134 135/135 136/136 137/137
f 138/138 139/139 140/140
