# Modelo original generado para Caelum Argenteum.
# Ejes OBJ: X ancho, Y altura, Z profundidad.
o ca_rock_sandstone
v 0.000000 0.000000 0.000000
v 34.694430 0.460715 0.000000
v 33.668524 -0.311791 17.548550
v 34.694430 0.460715 0.000000
v 49.772793 7.552062 0.000000
v 31.429090 7.525933 16.381322
v 33.668524 -0.311791 17.548550
v 49.772793 7.552062 0.000000
v 32.281639 14.284390 0.000000
v 25.015275 15.712159 13.038344
v 31.429090 7.525933 16.381322
v -11.027280 22.000000 -4.096918
v 25.015275 15.712159 13.038344
v 32.281639 14.284390 0.000000
v 0.000000 0.000000 0.000000
v 33.668524 -0.311791 17.548550
v 12.487297 -0.559443 27.570746
v 33.668524 -0.311791 17.548550
v 31.429090 7.525933 16.381322
v 14.388745 6.850936 31.768959
v 12.487297 -0.559443 27.570746
v 31.429090 7.525933 16.381322
v 25.015275 15.712159 13.038344
v 10.762662 14.623018 23.762917
v 14.388745 6.850936 31.768959
v -11.027280 22.000000 -4.096918
v 10.762662 14.623018 23.762917
v 25.015275 15.712159 13.038344
v 0.000000 0.000000 0.000000
v 12.487297 -0.559443 27.570746
v -11.785307 -0.407355 26.020820
v 12.487297 -0.559443 27.570746
v 14.388745 6.850936 31.768959
v -15.269600 7.331730 33.713801
v -11.785307 -0.407355 26.020820
v 14.388745 6.850936 31.768959
v 10.762662 14.623018 23.762917
v -10.013446 15.568203 22.108722
v -15.269600 7.331730 33.713801
v -11.027280 22.000000 -4.096918
v -10.013446 15.568203 22.108722
v 10.762662 14.623018 23.762917
v 0.000000 0.000000 0.000000
v -11.785307 -0.407355 26.020820
v -35.629991 0.151410 18.570896
v -11.785307 -0.407355 26.020820
v -15.269600 7.331730 33.713801
v -41.265646 6.610306 21.508286
v -35.629991 0.151410 18.570896
v -15.269600 7.331730 33.713801
v -10.013446 15.568203 22.108722
v -30.982496 15.104391 16.148551
v -41.265646 6.610306 21.508286
v -11.027280 22.000000 -4.096918
v -30.982496 15.104391 16.148551
v -10.013446 15.568203 22.108722
v 0.000000 0.000000 0.000000
v -35.629991 0.151410 18.570896
v -35.852276 0.512569 0.000000
v -35.629991 0.151410 18.570896
v -41.265646 6.610306 21.508286
v -52.417267 7.492465 0.000000
v -35.852276 0.512569 0.000000
v -41.265646 6.610306 21.508286
v -30.982496 15.104391 16.148551
v -35.106465 14.249421 0.000000
v -52.417267 7.492465 0.000000
v -11.027280 22.000000 -4.096918
v -35.106465 14.249421 0.000000
v -30.982496 15.104391 16.148551
v 0.000000 0.000000 0.000000
v -35.852276 0.512569 0.000000
v -27.220262 0.574400 -14.187617
v -35.852276 0.512569 0.000000
v -52.417267 7.492465 0.000000
v -38.054426 6.740233 -19.834549
v -27.220262 0.574400 -14.187617
v -52.417267 7.492465 0.000000
v -35.106465 14.249421 0.000000
v -25.950160 14.314491 -13.525620
v -38.054426 6.740233 -19.834549
v -11.027280 22.000000 -4.096918
v -25.950160 14.314491 -13.525620
v -35.106465 14.249421 0.000000
v 0.000000 0.000000 0.000000
v -27.220262 0.574400 -14.187617
v -10.726501 0.316148 -23.683078
v -27.220262 0.574400 -14.187617
v -38.054426 6.740233 -19.834549
v -16.497518 7.128251 -36.424926
v -10.726501 0.316148 -23.683078
v -38.054426 6.740233 -19.834549
v -25.950160 14.314491 -13.525620
v -10.196265 14.889381 -22.512367
v -16.497518 7.128251 -36.424926
v -11.027280 22.000000 -4.096918
v -10.196265 14.889381 -22.512367
v -25.950160 14.314491 -13.525620
v 0.000000 0.000000 0.000000
v -10.726501 0.316148 -23.683078
v 10.498636 -0.314075 -23.179974
v -10.726501 0.316148 -23.683078
v -16.497518 7.128251 -36.424926
v 14.369792 7.075263 -31.727113
v 10.498636 -0.314075 -23.179974
v -16.497518 7.128251 -36.424926
v -10.196265 14.889381 -22.512367
v 10.402039 15.337114 -22.966698
v 14.369792 7.075263 -31.727113
v -11.027280 22.000000 -4.096918
v 10.402039 15.337114 -22.966698
v -10.196265 14.889381 -22.512367
v 0.000000 0.000000 0.000000
v 10.498636 -0.314075 -23.179974
v 27.382598 -0.570959 -14.272229
v 10.498636 -0.314075 -23.179974
v 14.369792 7.075263 -31.727113
v 32.869831 6.678741 -17.132258
v 27.382598 -0.570959 -14.272229
v 14.369792 7.075263 -31.727113
v 10.402039 15.337114 -22.966698
v 25.283347 15.020033 -13.178067
v 32.869831 6.678741 -17.132258
v -11.027280 22.000000 -4.096918
v 25.283347 15.020033 -13.178067
v 10.402039 15.337114 -22.966698
v 0.000000 0.000000 0.000000
v 27.382598 -0.570959 -14.272229
v 34.694430 0.460715 0.000000
v 27.382598 -0.570959 -14.272229
v 32.869831 6.678741 -17.132258
v 49.772793 7.552062 0.000000
v 34.694430 0.460715 0.000000
v 32.869831 6.678741 -17.132258
v 25.283347 15.020033 -13.178067
v 32.281639 14.284390 0.000000
v 49.772793 7.552062 0.000000
v -11.027280 22.000000 -4.096918
v 32.281639 14.284390 0.000000
v 25.283347 15.020033 -13.178067
v -13.000000 17.000000 3.000000
v 13.801369 16.601489 3.000000
v 5.839246 17.432686 15.504839
v 13.801369 16.601489 3.000000
v 25.461981 23.263985 3.000000
v 9.137366 23.721423 17.694017
v 5.839246 17.432686 15.504839
v 25.461981 23.263985 3.000000
v 14.688419 30.645137 3.000000
v 8.323016 31.810984 17.153480
v 9.137366 23.721423 17.694017
v -15.667808 38.000000 8.451623
v 8.323016 31.810984 17.153480
v 14.688419 30.645137 3.000000
v -13.000000 17.000000 3.000000
v 5.839246 17.432686 15.504839
v -8.474534 17.445652 23.302318
v 5.839246 17.432686 15.504839
v 9.137366 23.721423 17.694017
v -7.462981 23.715046 27.840383
v -8.474534 17.445652 23.302318
v 9.137366 23.721423 17.694017
v 8.323016 31.810984 17.153480
v -8.312959 31.017371 24.027182
v -7.462981 23.715046 27.840383
v -15.667808 38.000000 8.451623
v -8.312959 31.017371 24.027182
v 8.323016 31.810984 17.153480
v -13.000000 17.000000 3.000000
v -8.474534 17.445652 23.302318
v -27.375075 16.736614 22.695718
v -8.474534 17.445652 23.302318
v -7.462981 23.715046 27.840383
v -29.533060 24.250754 25.652438
v -27.375075 16.736614 22.695718
v -7.462981 23.715046 27.840383
v -8.312959 31.017371 24.027182
v -27.189546 31.828285 22.441518
v -29.533060 24.250754 25.652438
v -15.667808 38.000000 8.451623
v -27.189546 31.828285 22.441518
v -8.312959 31.017371 24.027182
v -13.000000 17.000000 3.000000
v -27.375075 16.736614 22.695718
v -37.966981 16.460943 10.188412
v -27.375075 16.736614 22.695718
v -29.533060 24.250754 25.652438
v -40.310556 24.419957 10.863166
v -37.966981 16.460943 10.188412
v -29.533060 24.250754 25.652438
v -27.189546 31.828285 22.441518
v -33.259815 31.001546 8.833140
v -40.310556 24.419957 10.863166
v -15.667808 38.000000 8.451623
v -33.259815 31.001546 8.833140
v -27.189546 31.828285 22.441518
v -13.000000 17.000000 3.000000
v -37.966981 16.460943 10.188412
v -40.304662 17.665195 -4.861470
v -37.966981 16.460943 10.188412
v -40.310556 24.419957 10.863166
v -39.783227 23.583749 -4.711340
v -40.304662 17.665195 -4.861470
v -40.310556 24.419957 10.863166
v -33.259815 31.001546 8.833140
v -40.380354 30.641942 -4.883263
v -39.783227 23.583749 -4.711340
v -15.667808 38.000000 8.451623
v -40.380354 30.641942 -4.883263
v -33.259815 31.001546 8.833140
v -13.000000 17.000000 3.000000
v -40.304662 17.665195 -4.861470
v -25.332815 17.462703 -13.897556
v -40.304662 17.665195 -4.861470
v -39.783227 23.583749 -4.711340
v -31.564082 23.802363 -22.435200
v -25.332815 17.462703 -13.897556
v -39.783227 23.583749 -4.711340
v -40.380354 30.641942 -4.883263
v -24.283448 31.598599 -12.459787
v -31.564082 23.802363 -22.435200
v -15.667808 38.000000 8.451623
v -24.283448 31.598599 -12.459787
v -40.380354 30.641942 -4.883263
v -13.000000 17.000000 3.000000
v -25.332815 17.462703 -13.897556
v -7.267205 16.615035 -22.718683
v -25.332815 17.462703 -13.897556
v -31.564082 23.802363 -22.435200
v -8.139679 23.590349 -18.804555
v -7.267205 16.615035 -22.718683
v -31.564082 23.802363 -22.435200
v -24.283448 31.598599 -12.459787
v -8.083721 30.662055 -19.055595
v -8.139679 23.590349 -18.804555
v -15.667808 38.000000 8.451623
v -8.083721 30.662055 -19.055595
v -24.283448 31.598599 -12.459787
v -13.000000 17.000000 3.000000
v -7.267205 16.615035 -22.718683
v 8.643855 17.226819 -11.366442
v -7.267205 16.615035 -22.718683
v -8.139679 23.590349 -18.804555
v 10.922450 23.390272 -12.878894
v 8.643855 17.226819 -11.366442
v -8.139679 23.590349 -18.804555
v -8.083721 30.662055 -19.055595
v 8.835253 31.161721 -11.493485
v 10.922450 23.390272 -12.878894
v -15.667808 38.000000 8.451623
v 8.835253 31.161721 -11.493485
v -8.083721 30.662055 -19.055595
v -13.000000 17.000000 3.000000
v 8.643855 17.226819 -11.366442
v 13.801369 16.601489 3.000000
v 8.643855 17.226819 -11.366442
v 10.922450 23.390272 -12.878894
v 25.461981 23.263985 3.000000
v 13.801369 16.601489 3.000000
v 10.922450 23.390272 -12.878894
v 8.835253 31.161721 -11.493485
v 14.688419 30.645137 3.000000
v 25.461981 23.263985 3.000000
v -15.667808 38.000000 8.451623
v 14.688419 30.645137 3.000000
v 8.835253 31.161721 -11.493485
vt 0.500000 1.000000
vt 0.000000 0.000000
vt 1.000000 0.000000
vt 0.000000 0.000000
vt 1.000000 0.000000
vt 1.000000 1.000000
vt 0.000000 1.000000
vt 0.000000 0.000000
vt 1.000000 0.000000
vt 1.000000 1.000000
vt 0.000000 1.000000
vt 0.500000 1.000000
vt 0.000000 0.000000
vt 1.000000 0.000000
vt 0.500000 1.000000
vt 0.000000 0.000000
vt 1.000000 0.000000
vt 0.000000 0.000000
vt 1.000000 0.000000
vt 1.000000 1.000000
vt 0.000000 1.000000
vt 0.000000 0.000000
vt 1.000000 0.000000
vt 1.000000 1.000000
vt 0.000000 1.000000
vt 0.500000 1.000000
vt 0.000000 0.000000
vt 1.000000 0.000000
vt 0.500000 1.000000
vt 0.000000 0.000000
vt 1.000000 0.000000
vt 0.000000 0.000000
vt 1.000000 0.000000
vt 1.000000 1.000000
vt 0.000000 1.000000
vt 0.000000 0.000000
vt 1.000000 0.000000
vt 1.000000 1.000000
vt 0.000000 1.000000
vt 0.500000 1.000000
vt 0.000000 0.000000
vt 1.000000 0.000000
vt 0.500000 1.000000
vt 0.000000 0.000000
vt 1.000000 0.000000
vt 0.000000 0.000000
vt 1.000000 0.000000
vt 1.000000 1.000000
vt 0.000000 1.000000
vt 0.000000 0.000000
vt 1.000000 0.000000
vt 1.000000 1.000000
vt 0.000000 1.000000
vt 0.500000 1.000000
vt 0.000000 0.000000
vt 1.000000 0.000000
vt 0.500000 1.000000
vt 0.000000 0.000000
vt 1.000000 0.000000
vt 0.000000 0.000000
vt 1.000000 0.000000
vt 1.000000 1.000000
vt 0.000000 1.000000
vt 0.000000 0.000000
vt 1.000000 0.000000
vt 1.000000 1.000000
vt 0.000000 1.000000
vt 0.500000 1.000000
vt 0.000000 0.000000
vt 1.000000 0.000000
vt 0.500000 1.000000
vt 0.000000 0.000000
vt 1.000000 0.000000
vt 0.000000 0.000000
vt 1.000000 0.000000
vt 1.000000 1.000000
vt 0.000000 1.000000
vt 0.000000 0.000000
vt 1.000000 0.000000
vt 1.000000 1.000000
vt 0.000000 1.000000
vt 0.500000 1.000000
vt 0.000000 0.000000
vt 1.000000 0.000000
vt 0.500000 1.000000
vt 0.000000 0.000000
vt 1.000000 0.000000
vt 0.000000 0.000000
vt 1.000000 0.000000
vt 1.000000 1.000000
vt 0.000000 1.000000
vt 0.000000 0.000000
vt 1.000000 0.000000
vt 1.000000 1.000000
vt 0.000000 1.000000
vt 0.500000 1.000000
vt 0.000000 0.000000
vt 1.000000 0.000000
vt 0.500000 1.000000
vt 0.000000 0.000000
vt 1.000000 0.000000
vt 0.000000 0.000000
vt 1.000000 0.000000
vt 1.000000 1.000000
vt 0.000000 1.000000
vt 0.000000 0.000000
vt 1.000000 0.000000
vt 1.000000 1.000000
vt 0.000000 1.000000
vt 0.500000 1.000000
vt 0.000000 0.000000
vt 1.000000 0.000000
vt 0.500000 1.000000
vt 0.000000 0.000000
vt 1.000000 0.000000
vt 0.000000 0.000000
vt 1.000000 0.000000
vt 1.000000 1.000000
vt 0.000000 1.000000
vt 0.000000 0.000000
vt 1.000000 0.000000
vt 1.000000 1.000000
vt 0.000000 1.000000
vt 0.500000 1.000000
vt 0.000000 0.000000
vt 1.000000 0.000000
vt 0.500000 1.000000
vt 0.000000 0.000000
vt 1.000000 0.000000
vt 0.000000 0.000000
vt 1.000000 0.000000
vt 1.000000 1.000000
vt 0.000000 1.000000
vt 0.000000 0.000000
vt 1.000000 0.000000
vt 1.000000 1.000000
vt 0.000000 1.000000
vt 0.500000 1.000000
vt 0.000000 0.000000
vt 1.000000 0.000000
vt 0.500000 1.000000
vt 0.000000 0.000000
vt 1.000000 0.000000
vt 0.000000 0.000000
vt 1.000000 0.000000
vt 1.000000 1.000000
vt 0.000000 1.000000
vt 0.000000 0.000000
vt 1.000000 0.000000
vt 1.000000 1.000000
vt 0.000000 1.000000
vt 0.500000 1.000000
vt 0.000000 0.000000
vt 1.000000 0.000000
vt 0.500000 1.000000
vt 0.000000 0.000000
vt 1.000000 0.000000
vt 0.000000 0.000000
vt 1.000000 0.000000
vt 1.000000 1.000000
vt 0.000000 1.000000
vt 0.000000 0.000000
vt 1.000000 0.000000
vt 1.000000 1.000000
vt 0.000000 1.000000
vt 0.500000 1.000000
vt 0.000000 0.000000
vt 1.000000 0.000000
vt 0.500000 1.000000
vt 0.000000 0.000000
vt 1.000000 0.000000
vt 0.000000 0.000000
vt 1.000000 0.000000
vt 1.000000 1.000000
vt 0.000000 1.000000
vt 0.000000 0.000000
vt 1.000000 0.000000
vt 1.000000 1.000000
vt 0.000000 1.000000
vt 0.500000 1.000000
vt 0.000000 0.000000
vt 1.000000 0.000000
vt 0.500000 1.000000
vt 0.000000 0.000000
vt 1.000000 0.000000
vt 0.000000 0.000000
vt 1.000000 0.000000
vt 1.000000 1.000000
vt 0.000000 1.000000
vt 0.000000 0.000000
vt 1.000000 0.000000
vt 1.000000 1.000000
vt 0.000000 1.000000
vt 0.500000 1.000000
vt 0.000000 0.000000
vt 1.000000 0.000000
vt 0.500000 1.000000
vt 0.000000 0.000000
vt 1.000000 0.000000
vt 0.000000 0.000000
vt 1.000000 0.000000
vt 1.000000 1.000000
vt 0.000000 1.000000
vt 0.000000 0.000000
vt 1.000000 0.000000
vt 1.000000 1.000000
vt 0.000000 1.000000
vt 0.500000 1.000000
vt 0.000000 0.000000
vt 1.000000 0.000000
vt 0.500000 1.000000
vt 0.000000 0.000000
vt 1.000000 0.000000
vt 0.000000 0.000000
vt 1.000000 0.000000
vt 1.000000 1.000000
vt 0.000000 1.000000
vt 0.000000 0.000000
vt 1.000000 0.000000
vt 1.000000 1.000000
vt 0.000000 1.000000
vt 0.500000 1.000000
vt 0.000000 0.000000
vt 1.000000 0.000000
vt 0.500000 1.000000
vt 0.000000 0.000000
vt 1.000000 0.000000
vt 0.000000 0.000000
vt 1.000000 0.000000
vt 1.000000 1.000000
vt 0.000000 1.000000
vt 0.000000 0.000000
vt 1.000000 0.000000
vt 1.000000 1.000000
vt 0.000000 1.000000
vt 0.500000 1.000000
vt 0.000000 0.000000
vt 1.000000 0.000000
vt 0.500000 1.000000
vt 0.000000 0.000000
vt 1.000000 0.000000
vt 0.000000 0.000000
vt 1.000000 0.000000
vt 1.000000 1.000000
vt 0.000000 1.000000
vt 0.000000 0.000000
vt 1.000000 0.000000
vt 1.000000 1.000000
vt 0.000000 1.000000
vt 0.500000 1.000000
vt 0.000000 0.000000
vt 1.000000 0.000000
vt 0.500000 1.000000
vt 0.000000 0.000000
vt 1.000000 0.000000
vt 0.000000 0.000000
vt 1.000000 0.000000
vt 1.000000 1.000000
vt 0.000000 1.000000
vt 0.000000 0.000000
vt 1.000000 0.000000
vt 1.000000 1.000000
vt 0.000000 1.000000
vt 0.500000 1.000000
vt 0.000000 0.000000
vt 1.000000 0.000000
s 1
usemtl models/caelum/world/environment/rock_sandstone.png
f 1/1 2/2 3/3
f 4/4 5/5 6/6 7/7
f 8/8 9/9 10/10 11/11
f 12/12 13/13 14/14
f 15/15 16/16 17/17
f 18/18 19/19 20/20 21/21
f 22/22 23/23 24/24 25/25
f 26/26 27/27 28/28
f 29/29 30/30 31/31
f 32/32 33/33 34/34 35/35
f 36/36 37/37 38/38 39/39
f 40/40 41/41 42/42
f 43/43 44/44 45/45
f 46/46 47/47 48/48 49/49
f 50/50 51/51 52/52 53/53
f 54/54 55/55 56/56
f 57/57 58/58 59/59
f 60/60 61/61 62/62 63/63
f 64/64 65/65 66/66 67/67
f 68/68 69/69 70/70
f 71/71 72/72 73/73
f 74/74 75/75 76/76 77/77
f 78/78 79/79 80/80 81/81
f 82/82 83/83 84/84
f 85/85 86/86 87/87
f 88/88 89/89 90/90 91/91
f 92/92 93/93 94/94 95/95
f 96/96 97/97 98/98
f 99/99 100/100 101/101
f 102/102 103/103 104/104 105/105
f 106/106 107/107 108/108 109/109
f 110/110 111/111 112/112
f 113/113 114/114 115/115
f 116/116 117/117 118/118 119/119
f 120/120 121/121 122/122 123/123
f 124/124 125/125 126/126
f 127/127 128/128 129/129
f 130/130 131/131 132/132 133/133
f 134/134 135/135 136/136 137/137
f 138/138 139/139 140/140
f 141/141 142/142 143/143
f 144/144 145/145 146/146 147/147
f 148/148 149/149 150/150 151/151
f 152/152 153/153 154/154
f 155/155 156/156 157/157
f 158/158 159/159 160/160 161/161
f 162/162 163/163 164/164 165/165
f 166/166 167/167 168/168
f 169/169 170/170 171/171
f 172/172 173/173 174/174 175/175
f 176/176 177/177 178/178 179/179
f 180/180 181/181 182/182
f 183/183 184/184 185/185
f 186/186 187/187 188/188 189/189
f 190/190 191/191 192/192 193/193
f 194/194 195/195 196/196
f 197/197 198/198 199/199
f 200/200 201/201 202/202 203/203
f 204/204 205/205 206/206 207/207
f 208/208 209/209 210/210
f 211/211 212/212 213/213
f 214/214 215/215 216/216 217/217
f 218/218 219/219 220/220 221/221
f 222/222 223/223 224/224
f 225/225 226/226 227/227
f 228/228 229/229 230/230 231/231
f 232/232 233/233 234/234 235/235
f 236/236 237/237 238/238
f 239/239 240/240 241/241
f 242/242 243/243 244/244 245/245
f 246/246 247/247 248/248 249/249
f 250/250 251/251 252/252
f 253/253 254/254 255/255
f 256/256 257/257 258/258 259/259
f 260/260 261/261 262/262 263/263
f 264/264 265/265 266/266
