# Modelo original generado para Caelum Argenteum.
# Ejes OBJ: X ancho, Y altura, Z profundidad.
o ca_rock_granite
v 0.000000 0.000000 0.000000
v 27.995351 0.597000 0.000000
v 17.929285 0.548991 11.678831
v 27.995351 0.597000 0.000000
v 28.705799 13.362495 0.000000
v 20.070950 12.158267 13.073875
v 17.929285 0.548991 11.678831
v 28.705799 13.362495 0.000000
v 24.002177 27.119189 0.000000
v 18.125495 28.169408 11.806639
v 20.070950 12.158267 13.073875
v -5.379108 42.000000 -4.072635
v 18.125495 28.169408 11.806639
v 24.002177 27.119189 0.000000
v 0.000000 0.000000 0.000000
v 17.929285 0.548991 11.678831
v 8.257240 -0.331288 22.784223
v 17.929285 0.548991 11.678831
v 20.070950 12.158267 13.073875
v 8.869788 13.518379 24.474428
v 8.257240 -0.331288 22.784223
v 20.070950 12.158267 13.073875
v 18.125495 28.169408 11.806639
v 6.207891 29.304826 17.129448
v 8.869788 13.518379 24.474428
v -5.379108 42.000000 -4.072635
v 6.207891 29.304826 17.129448
v 18.125495 28.169408 11.806639
v 0.000000 0.000000 0.000000
v 8.257240 -0.331288 22.784223
v -7.036964 -0.612356 19.417113
v 8.257240 -0.331288 22.784223
v 8.869788 13.518379 24.474428
v -9.864965 13.132928 27.220423
v -7.036964 -0.612356 19.417113
v 8.869788 13.518379 24.474428
v 6.207891 29.304826 17.129448
v -5.438824 28.457207 15.007362
v -9.864965 13.132928 27.220423
v -5.379108 42.000000 -4.072635
v -5.438824 28.457207 15.007362
v 6.207891 29.304826 17.129448
v 0.000000 0.000000 0.000000
v -7.036964 -0.612356 19.417113
v -22.529179 -0.435722 14.675123
v -7.036964 -0.612356 19.417113
v -9.864965 13.132928 27.220423
v -26.707793 12.191371 17.397001
v -22.529179 -0.435722 14.675123
v -9.864965 13.132928 27.220423
v -5.438824 28.457207 15.007362
v -16.135024 28.620869 10.510079
v -26.707793 12.191371 17.397001
v -5.379108 42.000000 -4.072635
v -16.135024 28.620869 10.510079
v -5.438824 28.457207 15.007362
v 0.000000 0.000000 0.000000
v -22.529179 -0.435722 14.675123
v -25.406608 -0.890253 0.000000
v -22.529179 -0.435722 14.675123
v -26.707793 12.191371 17.397001
v -31.712858 14.280453 0.000000
v -25.406608 -0.890253 0.000000
v -26.707793 12.191371 17.397001
v -16.135024 28.620869 10.510079
v -24.409525 28.868581 0.000000
v -31.712858 14.280453 0.000000
v -5.379108 42.000000 -4.072635
v -24.409525 28.868581 0.000000
v -16.135024 28.620869 10.510079
v 0.000000 0.000000 0.000000
v -25.406608 -0.890253 0.000000
v -22.976409 0.401431 -14.966441
v -25.406608 -0.890253 0.000000
v -31.712858 14.280453 0.000000
v -21.907642 13.460361 -14.270265
v -22.976409 0.401431 -14.966441
v -31.712858 14.280453 0.000000
v -24.409525 28.868581 0.000000
v -15.651272 27.680810 -10.194972
v -21.907642 13.460361 -14.270265
v -5.379108 42.000000 -4.072635
v -15.651272 27.680810 -10.194972
v -24.409525 28.868581 0.000000
v 0.000000 0.000000 0.000000
v -22.976409 0.401431 -14.966441
v -8.380400 0.861492 -23.124058
v -22.976409 0.401431 -14.966441
v -21.907642 13.460361 -14.270265
v -10.039045 14.206486 -27.700762
v -8.380400 0.861492 -23.124058
v -21.907642 13.460361 -14.270265
v -15.651272 27.680810 -10.194972
v -7.789967 29.012681 -21.494874
v -10.039045 14.206486 -27.700762
v -5.379108 42.000000 -4.072635
v -7.789967 29.012681 -21.494874
v -15.651272 27.680810 -10.194972
v 0.000000 0.000000 0.000000
v -8.380400 0.861492 -23.124058
v 8.817197 0.938419 -24.329315
v -8.380400 0.861492 -23.124058
v -10.039045 14.206486 -27.700762
v 8.457199 14.452495 -23.335970
v 8.817197 0.938419 -24.329315
v -10.039045 14.206486 -27.700762
v -7.789967 29.012681 -21.494874
v 5.911919 28.023663 -16.312772
v 8.457199 14.452495 -23.335970
v -5.379108 42.000000 -4.072635
v 5.911919 28.023663 -16.312772
v -7.789967 29.012681 -21.494874
v 0.000000 0.000000 0.000000
v 8.817197 0.938419 -24.329315
v 20.619077 0.236688 -13.430915
v 8.817197 0.938419 -24.329315
v 8.457199 14.452495 -23.335970
v 21.264769 12.863815 -13.851508
v 20.619077 0.236688 -13.430915
v 8.457199 14.452495 -23.335970
v 5.911919 28.023663 -16.312772
v 17.975180 29.491740 -11.708726
v 21.264769 12.863815 -13.851508
v -5.379108 42.000000 -4.072635
v 17.975180 29.491740 -11.708726
v 5.911919 28.023663 -16.312772
v 0.000000 0.000000 0.000000
v 20.619077 0.236688 -13.430915
v 27.995351 0.597000 0.000000
v 20.619077 0.236688 -13.430915
v 21.264769 12.863815 -13.851508
v 28.705799 13.362495 0.000000
v 27.995351 0.597000 0.000000
v 21.264769 12.863815 -13.851508
v 17.975180 29.491740 -11.708726
v 24.002177 27.119189 0.000000
v 28.705799 13.362495 0.000000
v -5.379108 42.000000 -4.072635
v 24.002177 27.119189 0.000000
v 17.975180 29.491740 -11.708726
vt 0.500000 1.000000
vt 0.000000 0.000000
vt 1.000000 0.000000
vt 0.000000 0.000000
vt 1.000000 0.000000
vt 1.000000 1.000000
vt 0.000000 1.000000
vt 0.000000 0.000000
vt 1.000000 0.000000
vt 1.000000 1.000000
vt 0.000000 1.000000
vt 0.500000 1.000000
vt 0.000000 0.000000
vt 1.000000 0.000000
vt 0.500000 1.000000
vt 0.000000 0.000000
vt 1.000000 0.000000
vt 0.000000 0.000000
vt 1.000000 0.000000
vt 1.000000 1.000000
vt 0.000000 1.000000
vt 0.000000 0.000000
vt 1.000000 0.000000
vt 1.000000 1.000000
vt 0.000000 1.000000
vt 0.500000 1.000000
vt 0.000000 0.000000
vt 1.000000 0.000000
vt 0.500000 1.000000
vt 0.000000 0.000000
vt 1.000000 0.000000
vt 0.000000 0.000000
vt 1.000000 0.000000
vt 1.000000 1.000000
vt 0.000000 1.000000
vt 0.000000 0.000000
vt 1.000000 0.000000
vt 1.000000 1.000000
vt 0.000000 1.000000
vt 0.500000 1.000000
vt 0.000000 0.000000
vt 1.000000 0.000000
vt 0.500000 1.000000
vt 0.000000 0.000000
vt 1.000000 0.000000
vt 0.000000 0.000000
vt 1.000000 0.000000
vt 1.000000 1.000000
vt 0.000000 1.000000
vt 0.000000 0.000000
vt 1.000000 0.000000
vt 1.000000 1.000000
vt 0.000000 1.000000
vt 0.500000 1.000000
vt 0.000000 0.000000
vt 1.000000 0.000000
vt 0.500000 1.000000
vt 0.000000 0.000000
vt 1.000000 0.000000
vt 0.000000 0.000000
vt 1.000000 0.000000
vt 1.000000 1.000000
vt 0.000000 1.000000
vt 0.000000 0.000000
vt 1.000000 0.000000
vt 1.000000 1.000000
vt 0.000000 1.000000
vt 0.500000 1.000000
vt 0.000000 0.000000
vt 1.000000 0.000000
vt 0.500000 1.000000
vt 0.000000 0.000000
vt 1.000000 0.000000
vt 0.000000 0.000000
vt 1.000000 0.000000
vt 1.000000 1.000000
vt 0.000000 1.000000
vt 0.000000 0.000000
vt 1.000000 0.000000
vt 1.000000 1.000000
vt 0.000000 1.000000
vt 0.500000 1.000000
vt 0.000000 0.000000
vt 1.000000 0.000000
vt 0.500000 1.000000
vt 0.000000 0.000000
vt 1.000000 0.000000
vt 0.000000 0.000000
vt 1.000000 0.000000
vt 1.000000 1.000000
vt 0.000000 1.000000
vt 0.000000 0.000000
vt 1.000000 0.000000
vt 1.000000 1.000000
vt 0.000000 1.000000
vt 0.500000 1.000000
vt 0.000000 0.000000
vt 1.000000 0.000000
vt 0.500000 1.000000
vt 0.000000 0.000000
vt 1.000000 0.000000
vt 0.000000 0.000000
vt 1.000000 0.000000
vt 1.000000 1.000000
vt 0.000000 1.000000
vt 0.000000 0.000000
vt 1.000000 0.000000
vt 1.000000 1.000000
vt 0.000000 1.000000
vt 0.500000 1.000000
vt 0.000000 0.000000
vt 1.000000 0.000000
vt 0.500000 1.000000
vt 0.000000 0.000000
vt 1.000000 0.000000
vt 0.000000 0.000000
vt 1.000000 0.000000
vt 1.000000 1.000000
vt 0.000000 1.000000
vt 0.000000 0.000000
vt 1.000000 0.000000
vt 1.000000 1.000000
vt 0.000000 1.000000
vt 0.500000 1.000000
vt 0.000000 0.000000
vt 1.000000 0.000000
vt 0.500000 1.000000
vt 0.000000 0.000000
vt 1.000000 0.000000
vt 0.000000 0.000000
vt 1.000000 0.000000
vt 1.000000 1.000000
vt 0.000000 1.000000
vt 0.000000 0.000000
vt 1.000000 0.000000
vt 1.000000 1.000000
vt 0.000000 1.000000
vt 0.500000 1.000000
vt 0.000000 0.000000
vt 1.000000 0.000000
s 1
usemtl models/caelum/world/environment/rock_granite.png
f 1/1 2/2 3/3
f 4/4 5/5 6/6 7/7
f 8/8 9/9 10/10 11/11
f 12/12 13/13 14/14
f 15/15 16/16 17/17
f 18/18 19/19 20/20 21/21
f 22/22 23/23 24/24 25/25
f 26/26 27/27 28/28
f 29/29 30/30 31/31
f 32/32 33/33 34/34 35/35
f 36/36 37/37 38/38 39/39
f 40/40 41/41 42/42
f 43/43 44/44 45/45
f 46/46 47/47 48/48 49/49
f 50/50 51/51 52/52 53/53
f 54/54 55/55 56/56
f 57/57 58/58 59/59
f 60/60 61/61 62/62 63/63
f 64/64 65/65 66/66 67/67
f 68/68 69/69 70/70
f 71/71 72/72 73/73
f 74/74 75/75 76/76 77/77
f 78/78 79/79 80/80 81/81
f 82/82 83/83 84/84
f 85/85 86/86 87/87
f 88/88 89/89 90/90 91/91
f 92/92 93/93 94/94 95/95
f 96/96 97/97 98/98
f 99/99 100/100 101/101
f 102/102 103/103 104/104 105/105
f 106/106 107/107 108/108 109/109
f 110/110 111/111 112/112
f 113/113 114/114 115/115
f 116/116 117/117 118/118 119/119
f 120/120 121/121 122/122 123/123
f 124/124 125/125 126/126
f 127/127 128/128 129/129
f 130/130 131/131 132/132 133/133
f 134/134 135/135 136/136 137/137
f 138/138 139/139 140/140
