# Modelo original generado para Caelum Argenteum.
# Ejes OBJ: X ancho, Y altura, Z profundidad.
o ca_tree_tundra_guindo
v 0.000000 0.000000 -10.000000
v -6.427876 0.000000 -7.660444
v -1.478412 113.300000 -1.761902
v 0.000000 113.300000 -2.300000
v 0.000000 0.000000 0.000000
v -6.427876 0.000000 -7.660444
v 0.000000 0.000000 -10.000000
v -6.427876 0.000000 -7.660444
v -9.848078 0.000000 -1.736482
v -2.265058 113.300000 -0.399391
v -1.478412 113.300000 -1.761902
v 0.000000 0.000000 0.000000
v -9.848078 0.000000 -1.736482
v -6.427876 0.000000 -7.660444
v -9.848078 0.000000 -1.736482
v -8.660254 0.000000 5.000000
v -1.991858 113.300000 1.150000
v -2.265058 113.300000 -0.399391
v 0.000000 0.000000 0.000000
v -8.660254 0.000000 5.000000
v -9.848078 0.000000 -1.736482
v -8.660254 0.000000 5.000000
v -3.420201 0.000000 9.396926
v -0.786646 113.300000 2.161293
v -1.991858 113.300000 1.150000
v 0.000000 0.000000 0.000000
v -3.420201 0.000000 9.396926
v -8.660254 0.000000 5.000000
v -3.420201 0.000000 9.396926
v 3.420201 0.000000 9.396926
v 0.786646 113.300000 2.161293
v -0.786646 113.300000 2.161293
v 0.000000 0.000000 0.000000
v 3.420201 0.000000 9.396926
v -3.420201 0.000000 9.396926
v 3.420201 0.000000 9.396926
v 8.660254 0.000000 5.000000
v 1.991858 113.300000 1.150000
v 0.786646 113.300000 2.161293
v 0.000000 0.000000 0.000000
v 8.660254 0.000000 5.000000
v 3.420201 0.000000 9.396926
v 8.660254 0.000000 5.000000
v 9.848078 0.000000 -1.736482
v 2.265058 113.300000 -0.399391
v 1.991858 113.300000 1.150000
v 0.000000 0.000000 0.000000
v 9.848078 0.000000 -1.736482
v 8.660254 0.000000 5.000000
v 9.848078 0.000000 -1.736482
v 6.427876 0.000000 -7.660444
v 1.478412 113.300000 -1.761902
v 2.265058 113.300000 -0.399391
v 0.000000 0.000000 0.000000
v 6.427876 0.000000 -7.660444
v 9.848078 0.000000 -1.736482
v 6.427876 0.000000 -7.660444
v 0.000000 0.000000 -10.000000
v 0.000000 113.300000 -2.300000
v 1.478412 113.300000 -1.761902
v 0.000000 0.000000 0.000000
v 0.000000 0.000000 -10.000000
v 6.427876 0.000000 -7.660444
v -0.275338 113.300000 -2.283460
v -1.678701 113.300000 -1.572248
v 3.941298 206.000000 3.691364
v 0.646446 206.000000 5.361167
v 0.000000 206.000000 0.000000
v 0.646446 206.000000 5.361167
v 3.941298 206.000000 3.691364
v -1.678701 113.300000 -1.572248
v -2.296581 113.300000 -0.125364
v 5.391973 206.000000 0.294332
v 3.941298 206.000000 3.691364
v 0.000000 206.000000 0.000000
v 3.941298 206.000000 3.691364
v 5.391973 206.000000 0.294332
v -2.296581 113.300000 -0.125364
v -1.839865 113.300000 1.380180
v 4.319684 206.000000 -3.240422
v 5.391973 206.000000 0.294332
v 0.000000 206.000000 0.000000
v 5.391973 206.000000 0.294332
v 4.319684 206.000000 -3.240422
v -1.839865 113.300000 1.380180
v -0.522256 113.300000 2.239922
v 1.226167 206.000000 -5.258946
v 4.319684 206.000000 -3.240422
v 0.000000 206.000000 0.000000
v 4.319684 206.000000 -3.240422
v 1.226167 206.000000 -5.258946
v -0.522256 113.300000 2.239922
v 1.039722 113.300000 2.051579
v -2.441087 206.000000 -4.816751
v 1.226167 206.000000 -5.258946
v 0.000000 206.000000 0.000000
v 1.226167 206.000000 -5.258946
v -2.441087 206.000000 -4.816751
v 1.039722 113.300000 2.051579
v 2.115203 113.300000 0.903280
v -4.966129 206.000000 -2.120745
v -2.441087 206.000000 -4.816751
v 0.000000 206.000000 0.000000
v -2.441087 206.000000 -4.816751
v -4.966129 206.000000 -2.120745
v 2.115203 113.300000 0.903280
v 2.200957 113.300000 -0.667674
v -5.167464 206.000000 1.567582
v -4.966129 206.000000 -2.120745
v 0.000000 206.000000 0.000000
v -4.966129 206.000000 -2.120745
v -5.167464 206.000000 1.567582
v 2.200957 113.300000 -0.667674
v 1.256859 113.300000 -1.926216
v -2.950885 206.000000 4.522419
v -5.167464 206.000000 1.567582
v 0.000000 206.000000 0.000000
v -5.167464 206.000000 1.567582
v -2.950885 206.000000 4.522419
v 1.256859 113.300000 -1.926216
v -0.275338 113.300000 -2.283460
v 0.646446 206.000000 5.361167
v -2.950885 206.000000 4.522419
v 0.000000 206.000000 0.000000
v -2.950885 206.000000 4.522419
v 0.646446 206.000000 5.361167
v 0.000000 42.230000 -57.000000
v -33.503759 42.230000 -46.113969
v -2.680301 70.040000 -3.689117
v 0.000000 70.040000 -4.560000
v 0.000000 42.230000 0.000000
v -33.503759 42.230000 -46.113969
v 0.000000 42.230000 -57.000000
v 0.000000 70.040000 0.000000
v 0.000000 70.040000 -4.560000
v -2.680301 70.040000 -3.689117
v -33.503759 42.230000 -46.113969
v -54.210221 42.230000 -17.613969
v -4.336818 70.040000 -1.409117
v -2.680301 70.040000 -3.689117
v 0.000000 42.230000 0.000000
v -54.210221 42.230000 -17.613969
v -33.503759 42.230000 -46.113969
v 0.000000 70.040000 0.000000
v -2.680301 70.040000 -3.689117
v -4.336818 70.040000 -1.409117
v -54.210221 42.230000 -17.613969
v -54.210221 42.230000 17.613969
v -4.336818 70.040000 1.409117
v -4.336818 70.040000 -1.409117
v 0.000000 42.230000 0.000000
v -54.210221 42.230000 17.613969
v -54.210221 42.230000 -17.613969
v 0.000000 70.040000 0.000000
v -4.336818 70.040000 -1.409117
v -4.336818 70.040000 1.409117
v -54.210221 42.230000 17.613969
v -33.503759 42.230000 46.113969
v -2.680301 70.040000 3.689117
v -4.336818 70.040000 1.409117
v 0.000000 42.230000 0.000000
v -33.503759 42.230000 46.113969
v -54.210221 42.230000 17.613969
v 0.000000 70.040000 0.000000
v -4.336818 70.040000 1.409117
v -2.680301 70.040000 3.689117
v -33.503759 42.230000 46.113969
v -0.000000 42.230000 57.000000
v -0.000000 70.040000 4.560000
v -2.680301 70.040000 3.689117
v 0.000000 42.230000 0.000000
v -0.000000 42.230000 57.000000
v -33.503759 42.230000 46.113969
v 0.000000 70.040000 0.000000
v -2.680301 70.040000 3.689117
v -0.000000 70.040000 4.560000
v -0.000000 42.230000 57.000000
v 33.503759 42.230000 46.113969
v 2.680301 70.040000 3.689117
v -0.000000 70.040000 4.560000
v 0.000000 42.230000 0.000000
v 33.503759 42.230000 46.113969
v -0.000000 42.230000 57.000000
v 0.000000 70.040000 0.000000
v -0.000000 70.040000 4.560000
v 2.680301 70.040000 3.689117
v 33.503759 42.230000 46.113969
v 54.210221 42.230000 17.613969
v 4.336818 70.040000 1.409117
v 2.680301 70.040000 3.689117
v 0.000000 42.230000 0.000000
v 54.210221 42.230000 17.613969
v 33.503759 42.230000 46.113969
v 0.000000 70.040000 0.000000
v 2.680301 70.040000 3.689117
v 4.336818 70.040000 1.409117
v 54.210221 42.230000 17.613969
v 54.210221 42.230000 -17.613969
v 4.336818 70.040000 -1.409117
v 4.336818 70.040000 1.409117
v 0.000000 42.230000 0.000000
v 54.210221 42.230000 -17.613969
v 54.210221 42.230000 17.613969
v 0.000000 70.040000 0.000000
v 4.336818 70.040000 1.409117
v 4.336818 70.040000 -1.409117
v 54.210221 42.230000 -17.613969
v 33.503759 42.230000 -46.113969
v 2.680301 70.040000 -3.689117
v 4.336818 70.040000 -1.409117
v 0.000000 42.230000 0.000000
v 33.503759 42.230000 -46.113969
v 54.210221 42.230000 -17.613969
v 0.000000 70.040000 0.000000
v 4.336818 70.040000 -1.409117
v 2.680301 70.040000 -3.689117
v 33.503759 42.230000 -46.113969
v 0.000000 42.230000 -57.000000
v 0.000000 70.040000 -4.560000
v 2.680301 70.040000 -3.689117
v 0.000000 42.230000 0.000000
v 0.000000 42.230000 -57.000000
v 33.503759 42.230000 -46.113969
v 0.000000 70.040000 0.000000
v 2.680301 70.040000 -3.689117
v 0.000000 70.040000 -4.560000
v -9.130508 56.238000 -50.176028
v -36.879466 56.238000 -35.226482
v -2.950357 84.048000 -2.818119
v -0.730441 84.048000 -4.014082
v 0.000000 56.238000 0.000000
v -36.879466 56.238000 -35.226482
v -9.130508 56.238000 -50.176028
v 0.000000 84.048000 0.000000
v -0.730441 84.048000 -4.014082
v -2.950357 84.048000 -2.818119
v -36.879466 56.238000 -35.226482
v -50.541721 56.238000 -6.821616
v -4.043338 84.048000 -0.545729
v -2.950357 84.048000 -2.818119
v 0.000000 56.238000 0.000000
v -50.541721 56.238000 -6.821616
v -36.879466 56.238000 -35.226482
v 0.000000 84.048000 0.000000
v -2.950357 84.048000 -2.818119
v -4.043338 84.048000 -0.545729
v -50.541721 56.238000 -6.821616
v -44.898756 56.238000 24.188875
v -3.591901 84.048000 1.935110
v -4.043338 84.048000 -0.545729
v 0.000000 56.238000 0.000000
v -44.898756 56.238000 24.188875
v -50.541721 56.238000 -6.821616
v 0.000000 84.048000 0.000000
v -4.043338 84.048000 -0.545729
v -3.591901 84.048000 1.935110
v -44.898756 56.238000 24.188875
v -22.105993 56.238000 45.960038
v -1.768479 84.048000 3.676803
v -3.591901 84.048000 1.935110
v 0.000000 56.238000 0.000000
v -22.105993 56.238000 45.960038
v -44.898756 56.238000 24.188875
v 0.000000 84.048000 0.000000
v -3.591901 84.048000 1.935110
v -1.768479 84.048000 3.676803
v -22.105993 56.238000 45.960038
v 9.130508 56.238000 50.176028
v 0.730441 84.048000 4.014082
v -1.768479 84.048000 3.676803
v 0.000000 56.238000 0.000000
v 9.130508 56.238000 50.176028
v -22.105993 56.238000 45.960038
v 0.000000 84.048000 0.000000
v -1.768479 84.048000 3.676803
v 0.730441 84.048000 4.014082
v 9.130508 56.238000 50.176028
v 36.879466 56.238000 35.226482
v 2.950357 84.048000 2.818119
v 0.730441 84.048000 4.014082
v 0.000000 56.238000 0.000000
v 36.879466 56.238000 35.226482
v 9.130508 56.238000 50.176028
v 0.000000 84.048000 0.000000
v 0.730441 84.048000 4.014082
v 2.950357 84.048000 2.818119
v 36.879466 56.238000 35.226482
v 50.541721 56.238000 6.821616
v 4.043338 84.048000 0.545729
v 2.950357 84.048000 2.818119
v 0.000000 56.238000 0.000000
v 50.541721 56.238000 6.821616
v 36.879466 56.238000 35.226482
v 0.000000 84.048000 0.000000
v 2.950357 84.048000 2.818119
v 4.043338 84.048000 0.545729
v 50.541721 56.238000 6.821616
v 44.898756 56.238000 -24.188875
v 3.591901 84.048000 -1.935110
v 4.043338 84.048000 0.545729
v 0.000000 56.238000 0.000000
v 44.898756 56.238000 -24.188875
v 50.541721 56.238000 6.821616
v 0.000000 84.048000 0.000000
v 4.043338 84.048000 0.545729
v 3.591901 84.048000 -1.935110
v 44.898756 56.238000 -24.188875
v 22.105993 56.238000 -45.960038
v 1.768479 84.048000 -3.676803
v 3.591901 84.048000 -1.935110
v 0.000000 56.238000 0.000000
v 22.105993 56.238000 -45.960038
v 44.898756 56.238000 -24.188875
v 0.000000 84.048000 0.000000
v 3.591901 84.048000 -1.935110
v 1.768479 84.048000 -3.676803
v 22.105993 56.238000 -45.960038
v -9.130508 56.238000 -50.176028
v -0.730441 84.048000 -4.014082
v 1.768479 84.048000 -3.676803
v 0.000000 56.238000 0.000000
v -9.130508 56.238000 -50.176028
v 22.105993 56.238000 -45.960038
v 0.000000 84.048000 0.000000
v 1.768479 84.048000 -3.676803
v -0.730441 84.048000 -4.014082
v -15.852340 70.246000 -42.115357
v -37.579599 70.246000 -24.754268
v -3.006368 98.056000 -1.980341
v -1.268187 98.056000 -3.369229
v 0.000000 70.246000 0.000000
v -37.579599 70.246000 -24.754268
v -15.852340 70.246000 -42.115357
v 0.000000 98.056000 0.000000
v -1.268187 98.056000 -3.369229
v -3.006368 98.056000 -1.980341
v -37.579599 70.246000 -24.754268
v -44.952727 70.246000 2.062111
v -3.596218 98.056000 0.164969
v -3.006368 98.056000 -1.980341
v 0.000000 70.246000 0.000000
v -44.952727 70.246000 2.062111
v -37.579599 70.246000 -24.754268
v 0.000000 98.056000 0.000000
v -3.006368 98.056000 -1.980341
v -3.596218 98.056000 0.164969
v -44.952727 70.246000 2.062111
v -35.155442 70.246000 28.090833
v -2.812435 98.056000 2.247267
v -3.596218 98.056000 0.164969
v 0.000000 70.246000 0.000000
v -35.155442 70.246000 28.090833
v -44.952727 70.246000 2.062111
v 0.000000 98.056000 0.000000
v -3.596218 98.056000 0.164969
v -2.812435 98.056000 2.247267
v -35.155442 70.246000 28.090833
v -11.929973 70.246000 43.389812
v -0.954398 98.056000 3.471185
v -2.812435 98.056000 2.247267
v 0.000000 70.246000 0.000000
v -11.929973 70.246000 43.389812
v -35.155442 70.246000 28.090833
v 0.000000 98.056000 0.000000
v -2.812435 98.056000 2.247267
v -0.954398 98.056000 3.471185
v -11.929973 70.246000 43.389812
v 15.852340 70.246000 42.115357
v 1.268187 98.056000 3.369229
v -0.954398 98.056000 3.471185
v 0.000000 70.246000 0.000000
v 15.852340 70.246000 42.115357
v -11.929973 70.246000 43.389812
v 0.000000 98.056000 0.000000
v -0.954398 98.056000 3.471185
v 1.268187 98.056000 3.369229
v 15.852340 70.246000 42.115357
v 37.579599 70.246000 24.754268
v 3.006368 98.056000 1.980341
v 1.268187 98.056000 3.369229
v 0.000000 70.246000 0.000000
v 37.579599 70.246000 24.754268
v 15.852340 70.246000 42.115357
v 0.000000 98.056000 0.000000
v 1.268187 98.056000 3.369229
v 3.006368 98.056000 1.980341
v 37.579599 70.246000 24.754268
v 44.952727 70.246000 -2.062111
v 3.596218 98.056000 -0.164969
v 3.006368 98.056000 1.980341
v 0.000000 70.246000 0.000000
v 44.952727 70.246000 -2.062111
v 37.579599 70.246000 24.754268
v 0.000000 98.056000 0.000000
v 3.006368 98.056000 1.980341
v 3.596218 98.056000 -0.164969
v 44.952727 70.246000 -2.062111
v 35.155442 70.246000 -28.090833
v 2.812435 98.056000 -2.247267
v 3.596218 98.056000 -0.164969
v 0.000000 70.246000 0.000000
v 35.155442 70.246000 -28.090833
v 44.952727 70.246000 -2.062111
v 0.000000 98.056000 0.000000
v 3.596218 98.056000 -0.164969
v 2.812435 98.056000 -2.247267
v 35.155442 70.246000 -28.090833
v 11.929973 70.246000 -43.389812
v 0.954398 98.056000 -3.471185
v 2.812435 98.056000 -2.247267
v 0.000000 70.246000 0.000000
v 11.929973 70.246000 -43.389812
v 35.155442 70.246000 -28.090833
v 0.000000 98.056000 0.000000
v 2.812435 98.056000 -2.247267
v 0.954398 98.056000 -3.471185
v 11.929973 70.246000 -43.389812
v -15.852340 70.246000 -42.115357
v -1.268187 98.056000 -3.369229
v 0.954398 98.056000 -3.471185
v 0.000000 70.246000 0.000000
v -15.852340 70.246000 -42.115357
v 11.929973 70.246000 -43.389812
v 0.000000 98.056000 0.000000
v 0.954398 98.056000 -3.471185
v -1.268187 98.056000 -3.369229
v -20.051304 84.254000 -33.450639
v -35.883637 84.254000 -15.276274
v -2.870691 112.064000 -1.222102
v -1.604104 112.064000 -2.676051
v 0.000000 84.254000 0.000000
v -35.883637 84.254000 -15.276274
v -20.051304 84.254000 -33.450639
v 0.000000 112.064000 0.000000
v -1.604104 112.064000 -2.676051
v -2.870691 112.064000 -1.222102
v -35.883637 84.254000 -15.276274
v -38.009641 84.254000 8.733107
v -3.040771 112.064000 0.698649
v -2.870691 112.064000 -1.222102
v 0.000000 84.254000 0.000000
v -38.009641 84.254000 8.733107
v -35.883637 84.254000 -15.276274
v 0.000000 112.064000 0.000000
v -2.870691 112.064000 -1.222102
v -3.040771 112.064000 0.698649
v -38.009641 84.254000 8.733107
v -25.617254 84.254000 29.406739
v -2.049380 112.064000 2.352539
v -3.040771 112.064000 0.698649
v 0.000000 84.254000 0.000000
v -25.617254 84.254000 29.406739
v -38.009641 84.254000 8.733107
v 0.000000 112.064000 0.000000
v -3.040771 112.064000 0.698649
v -2.049380 112.064000 2.352539
v -25.617254 84.254000 29.406739
v -3.439947 84.254000 38.847996
v -0.275196 112.064000 3.107840
v -2.049380 112.064000 2.352539
v 0.000000 84.254000 0.000000
v -3.439947 84.254000 38.847996
v -25.617254 84.254000 29.406739
v 0.000000 112.064000 0.000000
v -2.049380 112.064000 2.352539
v -0.275196 112.064000 3.107840
v -3.439947 84.254000 38.847996
v 20.051304 84.254000 33.450639
v 1.604104 112.064000 2.676051
v -0.275196 112.064000 3.107840
v 0.000000 84.254000 0.000000
v 20.051304 84.254000 33.450639
v -3.439947 84.254000 38.847996
v 0.000000 112.064000 0.000000
v -0.275196 112.064000 3.107840
v 1.604104 112.064000 2.676051
v 20.051304 84.254000 33.450639
v 35.883637 84.254000 15.276274
v 2.870691 112.064000 1.222102
v 1.604104 112.064000 2.676051
v 0.000000 84.254000 0.000000
v 35.883637 84.254000 15.276274
v 20.051304 84.254000 33.450639
v 0.000000 112.064000 0.000000
v 1.604104 112.064000 2.676051
v 2.870691 112.064000 1.222102
v 35.883637 84.254000 15.276274
v 38.009641 84.254000 -8.733107
v 3.040771 112.064000 -0.698649
v 2.870691 112.064000 1.222102
v 0.000000 84.254000 0.000000
v 38.009641 84.254000 -8.733107
v 35.883637 84.254000 15.276274
v 0.000000 112.064000 0.000000
v 2.870691 112.064000 1.222102
v 3.040771 112.064000 -0.698649
v 38.009641 84.254000 -8.733107
v 25.617254 84.254000 -29.406739
v 2.049380 112.064000 -2.352539
v 3.040771 112.064000 -0.698649
v 0.000000 84.254000 0.000000
v 25.617254 84.254000 -29.406739
v 38.009641 84.254000 -8.733107
v 0.000000 112.064000 0.000000
v 3.040771 112.064000 -0.698649
v 2.049380 112.064000 -2.352539
v 25.617254 84.254000 -29.406739
v 3.439947 84.254000 -38.847996
v 0.275196 112.064000 -3.107840
v 2.049380 112.064000 -2.352539
v 0.000000 84.254000 0.000000
v 3.439947 84.254000 -38.847996
v 25.617254 84.254000 -29.406739
v 0.000000 112.064000 0.000000
v 2.049380 112.064000 -2.352539
v 0.275196 112.064000 -3.107840
v 3.439947 84.254000 -38.847996
v -20.051304 84.254000 -33.450639
v -1.604104 112.064000 -2.676051
v 0.275196 112.064000 -3.107840
v 0.000000 84.254000 0.000000
v -20.051304 84.254000 -33.450639
v 3.439947 84.254000 -38.847996
v 0.000000 112.064000 0.000000
v 0.275196 112.064000 -3.107840
v -1.604104 112.064000 -2.676051
v -21.759694 98.262000 -24.809589
v -32.186673 98.262000 -7.281352
v -2.574934 126.072000 -0.582508
v -1.740776 126.072000 -1.984767
v 0.000000 98.262000 0.000000
v -32.186673 98.262000 -7.281352
v -21.759694 98.262000 -24.809589
v 0.000000 126.072000 0.000000
v -1.740776 126.072000 -1.984767
v -2.574934 126.072000 -0.582508
v -32.186673 98.262000 -7.281352
v -30.319437 98.262000 13.028114
v -2.425555 126.072000 1.042249
v -2.574934 126.072000 -0.582508
v 0.000000 98.262000 0.000000
v -30.319437 98.262000 13.028114
v -32.186673 98.262000 -7.281352
v 0.000000 126.072000 0.000000
v -2.574934 126.072000 -0.582508
v -2.425555 126.072000 1.042249
v -30.319437 98.262000 13.028114
v -16.871206 98.262000 28.361284
v -1.349696 126.072000 2.268903
v -2.425555 126.072000 1.042249
v 0.000000 98.262000 0.000000
v -16.871206 98.262000 28.361284
v -30.319437 98.262000 13.028114
v 0.000000 126.072000 0.000000
v -2.425555 126.072000 1.042249
v -1.349696 126.072000 2.268903
v -16.871206 98.262000 28.361284
v 3.021252 98.262000 32.861407
v 0.241700 126.072000 2.628913
v -1.349696 126.072000 2.268903
v 0.000000 98.262000 0.000000
v 3.021252 98.262000 32.861407
v -16.871206 98.262000 28.361284
v 0.000000 126.072000 0.000000
v -1.349696 126.072000 2.268903
v 0.241700 126.072000 2.628913
v 3.021252 98.262000 32.861407
v 21.759694 98.262000 24.809589
v 1.740776 126.072000 1.984767
v 0.241700 126.072000 2.628913
v 0.000000 98.262000 0.000000
v 21.759694 98.262000 24.809589
v 3.021252 98.262000 32.861407
v 0.000000 126.072000 0.000000
v 0.241700 126.072000 2.628913
v 1.740776 126.072000 1.984767
v 21.759694 98.262000 24.809589
v 32.186673 98.262000 7.281352
v 2.574934 126.072000 0.582508
v 1.740776 126.072000 1.984767
v 0.000000 98.262000 0.000000
v 32.186673 98.262000 7.281352
v 21.759694 98.262000 24.809589
v 0.000000 126.072000 0.000000
v 1.740776 126.072000 1.984767
v 2.574934 126.072000 0.582508
v 32.186673 98.262000 7.281352
v 30.319437 98.262000 -13.028114
v 2.425555 126.072000 -1.042249
v 2.574934 126.072000 0.582508
v 0.000000 98.262000 0.000000
v 30.319437 98.262000 -13.028114
v 32.186673 98.262000 7.281352
v 0.000000 126.072000 0.000000
v 2.574934 126.072000 0.582508
v 2.425555 126.072000 -1.042249
v 30.319437 98.262000 -13.028114
v 16.871206 98.262000 -28.361284
v 1.349696 126.072000 -2.268903
v 2.425555 126.072000 -1.042249
v 0.000000 98.262000 0.000000
v 16.871206 98.262000 -28.361284
v 30.319437 98.262000 -13.028114
v 0.000000 126.072000 0.000000
v 2.425555 126.072000 -1.042249
v 1.349696 126.072000 -2.268903
v 16.871206 98.262000 -28.361284
v -3.021252 98.262000 -32.861407
v -0.241700 126.072000 -2.628913
v 1.349696 126.072000 -2.268903
v 0.000000 98.262000 0.000000
v -3.021252 98.262000 -32.861407
v 16.871206 98.262000 -28.361284
v 0.000000 126.072000 0.000000
v 1.349696 126.072000 -2.268903
v -0.241700 126.072000 -2.628913
v -3.021252 98.262000 -32.861407
v -21.759694 98.262000 -24.809589
v -1.740776 126.072000 -1.984767
v -0.241700 126.072000 -2.628913
v 0.000000 98.262000 0.000000
v -21.759694 98.262000 -24.809589
v -3.021252 98.262000 -32.861407
v 0.000000 126.072000 0.000000
v -0.241700 126.072000 -2.628913
v -1.740776 126.072000 -1.984767
v -21.149827 112.270000 -16.783469
v -26.975645 112.270000 -1.146556
v -2.158052 140.080000 -0.091724
v -1.691986 140.080000 -1.342678
v 0.000000 112.270000 0.000000
v -26.975645 112.270000 -1.146556
v -21.149827 112.270000 -16.783469
v 0.000000 140.080000 0.000000
v -1.691986 140.080000 -1.342678
v -2.158052 140.080000 -0.091724
v -26.975645 112.270000 -1.146556
v -22.497684 112.270000 14.928303
v -1.799815 140.080000 1.194264
v -2.158052 140.080000 -0.091724
v 0.000000 112.270000 0.000000
v -22.497684 112.270000 14.928303
v -26.975645 112.270000 -1.146556
v 0.000000 140.080000 0.000000
v -2.158052 140.080000 -0.091724
v -1.799815 140.080000 1.194264
v -22.497684 112.270000 14.928303
v -9.426372 112.270000 25.301058
v -0.754110 140.080000 2.024085
v -1.799815 140.080000 1.194264
v 0.000000 112.270000 0.000000
v -9.426372 112.270000 25.301058
v -22.497684 112.270000 14.928303
v 0.000000 140.080000 0.000000
v -1.799815 140.080000 1.194264
v -0.754110 140.080000 2.024085
v -9.426372 112.270000 25.301058
v 7.245493 112.270000 26.009668
v 0.579639 140.080000 2.080773
v -0.754110 140.080000 2.024085
v 0.000000 112.270000 0.000000
v 7.245493 112.270000 26.009668
v -9.426372 112.270000 25.301058
v 0.000000 140.080000 0.000000
v -0.754110 140.080000 2.024085
v 0.579639 140.080000 2.080773
v 7.245493 112.270000 26.009668
v 21.149827 112.270000 16.783469
v 1.691986 140.080000 1.342678
v 0.579639 140.080000 2.080773
v 0.000000 112.270000 0.000000
v 21.149827 112.270000 16.783469
v 7.245493 112.270000 26.009668
v 0.000000 140.080000 0.000000
v 0.579639 140.080000 2.080773
v 1.691986 140.080000 1.342678
v 21.149827 112.270000 16.783469
v 26.975645 112.270000 1.146556
v 2.158052 140.080000 0.091724
v 1.691986 140.080000 1.342678
v 0.000000 112.270000 0.000000
v 26.975645 112.270000 1.146556
v 21.149827 112.270000 16.783469
v 0.000000 140.080000 0.000000
v 1.691986 140.080000 1.342678
v 2.158052 140.080000 0.091724
v 26.975645 112.270000 1.146556
v 22.497684 112.270000 -14.928303
v 1.799815 140.080000 -1.194264
v 2.158052 140.080000 0.091724
v 0.000000 112.270000 0.000000
v 22.497684 112.270000 -14.928303
v 26.975645 112.270000 1.146556
v 0.000000 140.080000 0.000000
v 2.158052 140.080000 0.091724
v 1.799815 140.080000 -1.194264
v 22.497684 112.270000 -14.928303
v 9.426372 112.270000 -25.301058
v 0.754110 140.080000 -2.024085
v 1.799815 140.080000 -1.194264
v 0.000000 112.270000 0.000000
v 9.426372 112.270000 -25.301058
v 22.497684 112.270000 -14.928303
v 0.000000 140.080000 0.000000
v 1.799815 140.080000 -1.194264
v 0.754110 140.080000 -2.024085
v 9.426372 112.270000 -25.301058
v -7.245493 112.270000 -26.009668
v -0.579639 140.080000 -2.080773
v 0.754110 140.080000 -2.024085
v 0.000000 112.270000 0.000000
v -7.245493 112.270000 -26.009668
v 9.426372 112.270000 -25.301058
v 0.000000 140.080000 0.000000
v 0.754110 140.080000 -2.024085
v -0.579639 140.080000 -2.080773
v -7.245493 112.270000 -26.009668
v -21.149827 112.270000 -16.783469
v -1.691986 140.080000 -1.342678
v -0.579639 140.080000 -2.080773
v 0.000000 112.270000 0.000000
v -21.149827 112.270000 -16.783469
v -7.245493 112.270000 -26.009668
v 0.000000 140.080000 0.000000
v -0.579639 140.080000 -2.080773
v -1.691986 140.080000 -1.342678
v -18.521114 126.278000 -9.897896
v -20.801733 126.278000 2.878872
v -1.664139 154.088000 0.230310
v -1.481689 154.088000 -0.791832
v 0.000000 126.278000 0.000000
v -20.801733 126.278000 2.878872
v -18.521114 126.278000 -9.897896
v 0.000000 154.088000 0.000000
v -1.481689 154.088000 -0.791832
v -1.664139 154.088000 0.230310
v -20.801733 126.278000 2.878872
v -15.136797 126.278000 14.556008
v -1.210944 154.088000 1.164481
v -1.664139 154.088000 0.230310
v 0.000000 126.278000 0.000000
v -15.136797 126.278000 14.556008
v -20.801733 126.278000 2.878872
v 0.000000 154.088000 0.000000
v -1.664139 154.088000 0.230310
v -1.210944 154.088000 1.164481
v -15.136797 126.278000 14.556008
v -3.690119 126.278000 20.673244
v -0.295210 154.088000 1.653860
v -1.210944 154.088000 1.164481
v 0.000000 126.278000 0.000000
v -3.690119 126.278000 20.673244
v -15.136797 126.278000 14.556008
v 0.000000 154.088000 0.000000
v -1.210944 154.088000 1.164481
v -0.295210 154.088000 1.653860
v -3.690119 126.278000 20.673244
v 9.166059 126.278000 18.894003
v 0.733285 154.088000 1.511520
v -0.295210 154.088000 1.653860
v 0.000000 126.278000 0.000000
v 9.166059 126.278000 18.894003
v -3.690119 126.278000 20.673244
v 0.000000 154.088000 0.000000
v -0.295210 154.088000 1.653860
v 0.733285 154.088000 1.511520
v 9.166059 126.278000 18.894003
v 18.521114 126.278000 9.897896
v 1.481689 154.088000 0.791832
v 0.733285 154.088000 1.511520
v 0.000000 126.278000 0.000000
v 18.521114 126.278000 9.897896
v 9.166059 126.278000 18.894003
v 0.000000 154.088000 0.000000
v 0.733285 154.088000 1.511520
v 1.481689 154.088000 0.791832
v 18.521114 126.278000 9.897896
v 20.801733 126.278000 -2.878872
v 1.664139 154.088000 -0.230310
v 1.481689 154.088000 0.791832
v 0.000000 126.278000 0.000000
v 20.801733 126.278000 -2.878872
v 18.521114 126.278000 9.897896
v 0.000000 154.088000 0.000000
v 1.481689 154.088000 0.791832
v 1.664139 154.088000 -0.230310
v 20.801733 126.278000 -2.878872
v 15.136797 126.278000 -14.556008
v 1.210944 154.088000 -1.164481
v 1.664139 154.088000 -0.230310
v 0.000000 126.278000 0.000000
v 15.136797 126.278000 -14.556008
v 20.801733 126.278000 -2.878872
v 0.000000 154.088000 0.000000
v 1.664139 154.088000 -0.230310
v 1.210944 154.088000 -1.164481
v 15.136797 126.278000 -14.556008
v 3.690119 126.278000 -20.673244
v 0.295210 154.088000 -1.653860
v 1.210944 154.088000 -1.164481
v 0.000000 126.278000 0.000000
v 3.690119 126.278000 -20.673244
v 15.136797 126.278000 -14.556008
v 0.000000 154.088000 0.000000
v 1.210944 154.088000 -1.164481
v 0.295210 154.088000 -1.653860
v 3.690119 126.278000 -20.673244
v -9.166059 126.278000 -18.894003
v -0.733285 154.088000 -1.511520
v 0.295210 154.088000 -1.653860
v 0.000000 126.278000 0.000000
v -9.166059 126.278000 -18.894003
v 3.690119 126.278000 -20.673244
v 0.000000 154.088000 0.000000
v 0.295210 154.088000 -1.653860
v -0.733285 154.088000 -1.511520
v -9.166059 126.278000 -18.894003
v -18.521114 126.278000 -9.897896
v -1.481689 154.088000 -0.791832
v -0.733285 154.088000 -1.511520
v 0.000000 126.278000 0.000000
v -18.521114 126.278000 -9.897896
v -9.166059 126.278000 -18.894003
v 0.000000 154.088000 0.000000
v -0.733285 154.088000 -1.511520
v -1.481689 154.088000 -0.791832
v -14.281355 140.286000 -4.587254
v -14.250179 140.286000 4.683204
v -1.140014 168.096000 0.374656
v -1.142508 168.096000 -0.366980
v 0.000000 140.286000 0.000000
v -14.250179 140.286000 4.683204
v -14.281355 140.286000 -4.587254
v 0.000000 168.096000 0.000000
v -1.142508 168.096000 -0.366980
v -1.140014 168.096000 0.374656
v -14.250179 140.286000 4.683204
v -8.775919 140.286000 12.164837
v -0.702074 168.096000 0.973187
v -1.140014 168.096000 0.374656
v 0.000000 140.286000 0.000000
v -8.775919 140.286000 12.164837
v -14.250179 140.286000 4.683204
v 0.000000 168.096000 0.000000
v -1.140014 168.096000 0.374656
v -0.702074 168.096000 0.973187
v -8.775919 140.286000 12.164837
v 0.050444 140.286000 14.999915
v 0.004036 168.096000 1.199993
v -0.702074 168.096000 0.973187
v 0.000000 140.286000 0.000000
v 0.050444 140.286000 14.999915
v -8.775919 140.286000 12.164837
v 0.000000 168.096000 0.000000
v -0.702074 168.096000 0.973187
v 0.004036 168.096000 1.199993
v 0.050444 140.286000 14.999915
v 8.857539 140.286000 12.105536
v 0.708603 168.096000 0.968443
v 0.004036 168.096000 1.199993
v 0.000000 140.286000 0.000000
v 8.857539 140.286000 12.105536
v 0.050444 140.286000 14.999915
v 0.000000 168.096000 0.000000
v 0.004036 168.096000 1.199993
v 0.708603 168.096000 0.968443
v 8.857539 140.286000 12.105536
v 14.281355 140.286000 4.587254
v 1.142508 168.096000 0.366980
v 0.708603 168.096000 0.968443
v 0.000000 140.286000 0.000000
v 14.281355 140.286000 4.587254
v 8.857539 140.286000 12.105536
v 0.000000 168.096000 0.000000
v 0.708603 168.096000 0.968443
v 1.142508 168.096000 0.366980
v 14.281355 140.286000 4.587254
v 14.250179 140.286000 -4.683204
v 1.140014 168.096000 -0.374656
v 1.142508 168.096000 0.366980
v 0.000000 140.286000 0.000000
v 14.250179 140.286000 -4.683204
v 14.281355 140.286000 4.587254
v 0.000000 168.096000 0.000000
v 1.142508 168.096000 0.366980
v 1.140014 168.096000 -0.374656
v 14.250179 140.286000 -4.683204
v 8.775919 140.286000 -12.164837
v 0.702074 168.096000 -0.973187
v 1.140014 168.096000 -0.374656
v 0.000000 140.286000 0.000000
v 8.775919 140.286000 -12.164837
v 14.250179 140.286000 -4.683204
v 0.000000 168.096000 0.000000
v 1.140014 168.096000 -0.374656
v 0.702074 168.096000 -0.973187
v 8.775919 140.286000 -12.164837
v -0.050444 140.286000 -14.999915
v -0.004036 168.096000 -1.199993
v 0.702074 168.096000 -0.973187
v 0.000000 140.286000 0.000000
v -0.050444 140.286000 -14.999915
v 8.775919 140.286000 -12.164837
v 0.000000 168.096000 0.000000
v 0.702074 168.096000 -0.973187
v -0.004036 168.096000 -1.199993
v -0.050444 140.286000 -14.999915
v -8.857539 140.286000 -12.105536
v -0.708603 168.096000 -0.968443
v -0.004036 168.096000 -1.199993
v 0.000000 140.286000 0.000000
v -8.857539 140.286000 -12.105536
v -0.050444 140.286000 -14.999915
v 0.000000 168.096000 0.000000
v -0.004036 168.096000 -1.199993
v -0.708603 168.096000 -0.968443
v -8.857539 140.286000 -12.105536
v -14.281355 140.286000 -4.587254
v -1.142508 168.096000 -0.366980
v -0.708603 168.096000 -0.968443
v 0.000000 140.286000 0.000000
v -14.281355 140.286000 -4.587254
v -8.857539 140.286000 -12.105536
v 0.000000 168.096000 0.000000
v -0.708603 168.096000 -0.968443
v -1.142508 168.096000 -0.366980
vt 0.000000 0.000000
vt 1.000000 0.000000
vt 1.000000 1.000000
vt 0.000000 1.000000
vt 0.500000 1.000000
vt 0.000000 0.000000
vt 1.000000 0.000000
vt 0.000000 0.000000
vt 1.000000 0.000000
vt 1.000000 1.000000
vt 0.000000 1.000000
vt 0.500000 1.000000
vt 0.000000 0.000000
vt 1.000000 0.000000
vt 0.000000 0.000000
vt 1.000000 0.000000
vt 1.000000 1.000000
vt 0.000000 1.000000
vt 0.500000 1.000000
vt 0.000000 0.000000
vt 1.000000 0.000000
vt 0.000000 0.000000
vt 1.000000 0.000000
vt 1.000000 1.000000
vt 0.000000 1.000000
vt 0.500000 1.000000
vt 0.000000 0.000000
vt 1.000000 0.000000
vt 0.000000 0.000000
vt 1.000000 0.000000
vt 1.000000 1.000000
vt 0.000000 1.000000
vt 0.500000 1.000000
vt 0.000000 0.000000
vt 1.000000 0.000000
vt 0.000000 0.000000
vt 1.000000 0.000000
vt 1.000000 1.000000
vt 0.000000 1.000000
vt 0.500000 1.000000
vt 0.000000 0.000000
vt 1.000000 0.000000
vt 0.000000 0.000000
vt 1.000000 0.000000
vt 1.000000 1.000000
vt 0.000000 1.000000
vt 0.500000 1.000000
vt 0.000000 0.000000
vt 1.000000 0.000000
vt 0.000000 0.000000
vt 1.000000 0.000000
vt 1.000000 1.000000
vt 0.000000 1.000000
vt 0.500000 1.000000
vt 0.000000 0.000000
vt 1.000000 0.000000
vt 0.000000 0.000000
vt 1.000000 0.000000
vt 1.000000 1.000000
vt 0.000000 1.000000
vt 0.500000 1.000000
vt 0.000000 0.000000
vt 1.000000 0.000000
vt 0.000000 0.000000
vt 1.000000 0.000000
vt 1.000000 1.000000
vt 0.000000 1.000000
vt 0.500000 1.000000
vt 0.000000 0.000000
vt 1.000000 0.000000
vt 0.000000 0.000000
vt 1.000000 0.000000
vt 1.000000 1.000000
vt 0.000000 1.000000
vt 0.500000 1.000000
vt 0.000000 0.000000
vt 1.000000 0.000000
vt 0.000000 0.000000
vt 1.000000 0.000000
vt 1.000000 1.000000
vt 0.000000 1.000000
vt 0.500000 1.000000
vt 0.000000 0.000000
vt 1.000000 0.000000
vt 0.000000 0.000000
vt 1.000000 0.000000
vt 1.000000 1.000000
vt 0.000000 1.000000
vt 0.500000 1.000000
vt 0.000000 0.000000
vt 1.000000 0.000000
vt 0.000000 0.000000
vt 1.000000 0.000000
vt 1.000000 1.000000
vt 0.000000 1.000000
vt 0.500000 1.000000
vt 0.000000 0.000000
vt 1.000000 0.000000
vt 0.000000 0.000000
vt 1.000000 0.000000
vt 1.000000 1.000000
vt 0.000000 1.000000
vt 0.500000 1.000000
vt 0.000000 0.000000
vt 1.000000 0.000000
vt 0.000000 0.000000
vt 1.000000 0.000000
vt 1.000000 1.000000
vt 0.000000 1.000000
vt 0.500000 1.000000
vt 0.000000 0.000000
vt 1.000000 0.000000
vt 0.000000 0.000000
vt 1.000000 0.000000
vt 1.000000 1.000000
vt 0.000000 1.000000
vt 0.500000 1.000000
vt 0.000000 0.000000
vt 1.000000 0.000000
vt 0.000000 0.000000
vt 1.000000 0.000000
vt 1.000000 1.000000
vt 0.000000 1.000000
vt 0.500000 1.000000
vt 0.000000 0.000000
vt 1.000000 0.000000
vt 0.000000 0.000000
vt 1.000000 0.000000
vt 1.000000 1.000000
vt 0.000000 1.000000
vt 0.500000 1.000000
vt 0.000000 0.000000
vt 1.000000 0.000000
vt 0.500000 1.000000
vt 0.000000 0.000000
vt 1.000000 0.000000
vt 0.000000 0.000000
vt 1.000000 0.000000
vt 1.000000 1.000000
vt 0.000000 1.000000
vt 0.500000 1.000000
vt 0.000000 0.000000
vt 1.000000 0.000000
vt 0.500000 1.000000
vt 0.000000 0.000000
vt 1.000000 0.000000
vt 0.000000 0.000000
vt 1.000000 0.000000
vt 1.000000 1.000000
vt 0.000000 1.000000
vt 0.500000 1.000000
vt 0.000000 0.000000
vt 1.000000 0.000000
vt 0.500000 1.000000
vt 0.000000 0.000000
vt 1.000000 0.000000
vt 0.000000 0.000000
vt 1.000000 0.000000
vt 1.000000 1.000000
vt 0.000000 1.000000
vt 0.500000 1.000000
vt 0.000000 0.000000
vt 1.000000 0.000000
vt 0.500000 1.000000
vt 0.000000 0.000000
vt 1.000000 0.000000
vt 0.000000 0.000000
vt 1.000000 0.000000
vt 1.000000 1.000000
vt 0.000000 1.000000
vt 0.500000 1.000000
vt 0.000000 0.000000
vt 1.000000 0.000000
vt 0.500000 1.000000
vt 0.000000 0.000000
vt 1.000000 0.000000
vt 0.000000 0.000000
vt 1.000000 0.000000
vt 1.000000 1.000000
vt 0.000000 1.000000
vt 0.500000 1.000000
vt 0.000000 0.000000
vt 1.000000 0.000000
vt 0.500000 1.000000
vt 0.000000 0.000000
vt 1.000000 0.000000
vt 0.000000 0.000000
vt 1.000000 0.000000
vt 1.000000 1.000000
vt 0.000000 1.000000
vt 0.500000 1.000000
vt 0.000000 0.000000
vt 1.000000 0.000000
vt 0.500000 1.000000
vt 0.000000 0.000000
vt 1.000000 0.000000
vt 0.000000 0.000000
vt 1.000000 0.000000
vt 1.000000 1.000000
vt 0.000000 1.000000
vt 0.500000 1.000000
vt 0.000000 0.000000
vt 1.000000 0.000000
vt 0.500000 1.000000
vt 0.000000 0.000000
vt 1.000000 0.000000
vt 0.000000 0.000000
vt 1.000000 0.000000
vt 1.000000 1.000000
vt 0.000000 1.000000
vt 0.500000 1.000000
vt 0.000000 0.000000
vt 1.000000 0.000000
vt 0.500000 1.000000
vt 0.000000 0.000000
vt 1.000000 0.000000
vt 0.000000 0.000000
vt 1.000000 0.000000
vt 1.000000 1.000000
vt 0.000000 1.000000
vt 0.500000 1.000000
vt 0.000000 0.000000
vt 1.000000 0.000000
vt 0.500000 1.000000
vt 0.000000 0.000000
vt 1.000000 0.000000
vt 0.000000 0.000000
vt 1.000000 0.000000
vt 1.000000 1.000000
vt 0.000000 1.000000
vt 0.500000 1.000000
vt 0.000000 0.000000
vt 1.000000 0.000000
vt 0.500000 1.000000
vt 0.000000 0.000000
vt 1.000000 0.000000
vt 0.000000 0.000000
vt 1.000000 0.000000
vt 1.000000 1.000000
vt 0.000000 1.000000
vt 0.500000 1.000000
vt 0.000000 0.000000
vt 1.000000 0.000000
vt 0.500000 1.000000
vt 0.000000 0.000000
vt 1.000000 0.000000
vt 0.000000 0.000000
vt 1.000000 0.000000
vt 1.000000 1.000000
vt 0.000000 1.000000
vt 0.500000 1.000000
vt 0.000000 0.000000
vt 1.000000 0.000000
vt 0.500000 1.000000
vt 0.000000 0.000000
vt 1.000000 0.000000
vt 0.000000 0.000000
vt 1.000000 0.000000
vt 1.000000 1.000000
vt 0.000000 1.000000
vt 0.500000 1.000000
vt 0.000000 0.000000
vt 1.000000 0.000000
vt 0.500000 1.000000
vt 0.000000 0.000000
vt 1.000000 0.000000
vt 0.000000 0.000000
vt 1.000000 0.000000
vt 1.000000 1.000000
vt 0.000000 1.000000
vt 0.500000 1.000000
vt 0.000000 0.000000
vt 1.000000 0.000000
vt 0.500000 1.000000
vt 0.000000 0.000000
vt 1.000000 0.000000
vt 0.000000 0.000000
vt 1.000000 0.000000
vt 1.000000 1.000000
vt 0.000000 1.000000
vt 0.500000 1.000000
vt 0.000000 0.000000
vt 1.000000 0.000000
vt 0.500000 1.000000
vt 0.000000 0.000000
vt 1.000000 0.000000
vt 0.000000 0.000000
vt 1.000000 0.000000
vt 1.000000 1.000000
vt 0.000000 1.000000
vt 0.500000 1.000000
vt 0.000000 0.000000
vt 1.000000 0.000000
vt 0.500000 1.000000
vt 0.000000 0.000000
vt 1.000000 0.000000
vt 0.000000 0.000000
vt 1.000000 0.000000
vt 1.000000 1.000000
vt 0.000000 1.000000
vt 0.500000 1.000000
vt 0.000000 0.000000
vt 1.000000 0.000000
vt 0.500000 1.000000
vt 0.000000 0.000000
vt 1.000000 0.000000
vt 0.000000 0.000000
vt 1.000000 0.000000
vt 1.000000 1.000000
vt 0.000000 1.000000
vt 0.500000 1.000000
vt 0.000000 0.000000
vt 1.000000 0.000000
vt 0.500000 1.000000
vt 0.000000 0.000000
vt 1.000000 0.000000
vt 0.000000 0.000000
vt 1.000000 0.000000
vt 1.000000 1.000000
vt 0.000000 1.000000
vt 0.500000 1.000000
vt 0.000000 0.000000
vt 1.000000 0.000000
vt 0.500000 1.000000
vt 0.000000 0.000000
vt 1.000000 0.000000
vt 0.000000 0.000000
vt 1.000000 0.000000
vt 1.000000 1.000000
vt 0.000000 1.000000
vt 0.500000 1.000000
vt 0.000000 0.000000
vt 1.000000 0.000000
vt 0.500000 1.000000
vt 0.000000 0.000000
vt 1.000000 0.000000
vt 0.000000 0.000000
vt 1.000000 0.000000
vt 1.000000 1.000000
vt 0.000000 1.000000
vt 0.500000 1.000000
vt 0.000000 0.000000
vt 1.000000 0.000000
vt 0.500000 1.000000
vt 0.000000 0.000000
vt 1.000000 0.000000
vt 0.000000 0.000000
vt 1.000000 0.000000
vt 1.000000 1.000000
vt 0.000000 1.000000
vt 0.500000 1.000000
vt 0.000000 0.000000
vt 1.000000 0.000000
vt 0.500000 1.000000
vt 0.000000 0.000000
vt 1.000000 0.000000
vt 0.000000 0.000000
vt 1.000000 0.000000
vt 1.000000 1.000000
vt 0.000000 1.000000
vt 0.500000 1.000000
vt 0.000000 0.000000
vt 1.000000 0.000000
vt 0.500000 1.000000
vt 0.000000 0.000000
vt 1.000000 0.000000
vt 0.000000 0.000000
vt 1.000000 0.000000
vt 1.000000 1.000000
vt 0.000000 1.000000
vt 0.500000 1.000000
vt 0.000000 0.000000
vt 1.000000 0.000000
vt 0.500000 1.000000
vt 0.000000 0.000000
vt 1.000000 0.000000
vt 0.000000 0.000000
vt 1.000000 0.000000
vt 1.000000 1.000000
vt 0.000000 1.000000
vt 0.500000 1.000000
vt 0.000000 0.000000
vt 1.000000 0.000000
vt 0.500000 1.000000
vt 0.000000 0.000000
vt 1.000000 0.000000
vt 0.000000 0.000000
vt 1.000000 0.000000
vt 1.000000 1.000000
vt 0.000000 1.000000
vt 0.500000 1.000000
vt 0.000000 0.000000
vt 1.000000 0.000000
vt 0.500000 1.000000
vt 0.000000 0.000000
vt 1.000000 0.000000
vt 0.000000 0.000000
vt 1.000000 0.000000
vt 1.000000 1.000000
vt 0.000000 1.000000
vt 0.500000 1.000000
vt 0.000000 0.000000
vt 1.000000 0.000000
vt 0.500000 1.000000
vt 0.000000 0.000000
vt 1.000000 0.000000
vt 0.000000 0.000000
vt 1.000000 0.000000
vt 1.000000 1.000000
vt 0.000000 1.000000
vt 0.500000 1.000000
vt 0.000000 0.000000
vt 1.000000 0.000000
vt 0.500000 1.000000
vt 0.000000 0.000000
vt 1.000000 0.000000
vt 0.000000 0.000000
vt 1.000000 0.000000
vt 1.000000 1.000000
vt 0.000000 1.000000
vt 0.500000 1.000000
vt 0.000000 0.000000
vt 1.000000 0.000000
vt 0.500000 1.000000
vt 0.000000 0.000000
vt 1.000000 0.000000
vt 0.000000 0.000000
vt 1.000000 0.000000
vt 1.000000 1.000000
vt 0.000000 1.000000
vt 0.500000 1.000000
vt 0.000000 0.000000
vt 1.000000 0.000000
vt 0.500000 1.000000
vt 0.000000 0.000000
vt 1.000000 0.000000
vt 0.000000 0.000000
vt 1.000000 0.000000
vt 1.000000 1.000000
vt 0.000000 1.000000
vt 0.500000 1.000000
vt 0.000000 0.000000
vt 1.000000 0.000000
vt 0.500000 1.000000
vt 0.000000 0.000000
vt 1.000000 0.000000
vt 0.000000 0.000000
vt 1.000000 0.000000
vt 1.000000 1.000000
vt 0.000000 1.000000
vt 0.500000 1.000000
vt 0.000000 0.000000
vt 1.000000 0.000000
vt 0.500000 1.000000
vt 0.000000 0.000000
vt 1.000000 0.000000
vt 0.000000 0.000000
vt 1.000000 0.000000
vt 1.000000 1.000000
vt 0.000000 1.000000
vt 0.500000 1.000000
vt 0.000000 0.000000
vt 1.000000 0.000000
vt 0.500000 1.000000
vt 0.000000 0.000000
vt 1.000000 0.000000
vt 0.000000 0.000000
vt 1.000000 0.000000
vt 1.000000 1.000000
vt 0.000000 1.000000
vt 0.500000 1.000000
vt 0.000000 0.000000
vt 1.000000 0.000000
vt 0.500000 1.000000
vt 0.000000 0.000000
vt 1.000000 0.000000
vt 0.000000 0.000000
vt 1.000000 0.000000
vt 1.000000 1.000000
vt 0.000000 1.000000
vt 0.500000 1.000000
vt 0.000000 0.000000
vt 1.000000 0.000000
vt 0.500000 1.000000
vt 0.000000 0.000000
vt 1.000000 0.000000
vt 0.000000 0.000000
vt 1.000000 0.000000
vt 1.000000 1.000000
vt 0.000000 1.000000
vt 0.500000 1.000000
vt 0.000000 0.000000
vt 1.000000 0.000000
vt 0.500000 1.000000
vt 0.000000 0.000000
vt 1.000000 0.000000
vt 0.000000 0.000000
vt 1.000000 0.000000
vt 1.000000 1.000000
vt 0.000000 1.000000
vt 0.500000 1.000000
vt 0.000000 0.000000
vt 1.000000 0.000000
vt 0.500000 1.000000
vt 0.000000 0.000000
vt 1.000000 0.000000
vt 0.000000 0.000000
vt 1.000000 0.000000
vt 1.000000 1.000000
vt 0.000000 1.000000
vt 0.500000 1.000000
vt 0.000000 0.000000
vt 1.000000 0.000000
vt 0.500000 1.000000
vt 0.000000 0.000000
vt 1.000000 0.000000
vt 0.000000 0.000000
vt 1.000000 0.000000
vt 1.000000 1.000000
vt 0.000000 1.000000
vt 0.500000 1.000000
vt 0.000000 0.000000
vt 1.000000 0.000000
vt 0.500000 1.000000
vt 0.000000 0.000000
vt 1.000000 0.000000
vt 0.000000 0.000000
vt 1.000000 0.000000
vt 1.000000 1.000000
vt 0.000000 1.000000
vt 0.500000 1.000000
vt 0.000000 0.000000
vt 1.000000 0.000000
vt 0.500000 1.000000
vt 0.000000 0.000000
vt 1.000000 0.000000
vt 0.000000 0.000000
vt 1.000000 0.000000
vt 1.000000 1.000000
vt 0.000000 1.000000
vt 0.500000 1.000000
vt 0.000000 0.000000
vt 1.000000 0.000000
vt 0.500000 1.000000
vt 0.000000 0.000000
vt 1.000000 0.000000
vt 0.000000 0.000000
vt 1.000000 0.000000
vt 1.000000 1.000000
vt 0.000000 1.000000
vt 0.500000 1.000000
vt 0.000000 0.000000
vt 1.000000 0.000000
vt 0.500000 1.000000
vt 0.000000 0.000000
vt 1.000000 0.000000
vt 0.000000 0.000000
vt 1.000000 0.000000
vt 1.000000 1.000000
vt 0.000000 1.000000
vt 0.500000 1.000000
vt 0.000000 0.000000
vt 1.000000 0.000000
vt 0.500000 1.000000
vt 0.000000 0.000000
vt 1.000000 0.000000
vt 0.000000 0.000000
vt 1.000000 0.000000
vt 1.000000 1.000000
vt 0.000000 1.000000
vt 0.500000 1.000000
vt 0.000000 0.000000
vt 1.000000 0.000000
vt 0.500000 1.000000
vt 0.000000 0.000000
vt 1.000000 0.000000
vt 0.000000 0.000000
vt 1.000000 0.000000
vt 1.000000 1.000000
vt 0.000000 1.000000
vt 0.500000 1.000000
vt 0.000000 0.000000
vt 1.000000 0.000000
vt 0.500000 1.000000
vt 0.000000 0.000000
vt 1.000000 0.000000
vt 0.000000 0.000000
vt 1.000000 0.000000
vt 1.000000 1.000000
vt 0.000000 1.000000
vt 0.500000 1.000000
vt 0.000000 0.000000
vt 1.000000 0.000000
vt 0.500000 1.000000
vt 0.000000 0.000000
vt 1.000000 0.000000
vt 0.000000 0.000000
vt 1.000000 0.000000
vt 1.000000 1.000000
vt 0.000000 1.000000
vt 0.500000 1.000000
vt 0.000000 0.000000
vt 1.000000 0.000000
vt 0.500000 1.000000
vt 0.000000 0.000000
vt 1.000000 0.000000
vt 0.000000 0.000000
vt 1.000000 0.000000
vt 1.000000 1.000000
vt 0.000000 1.000000
vt 0.500000 1.000000
vt 0.000000 0.000000
vt 1.000000 0.000000
vt 0.500000 1.000000
vt 0.000000 0.000000
vt 1.000000 0.000000
vt 0.000000 0.000000
vt 1.000000 0.000000
vt 1.000000 1.000000
vt 0.000000 1.000000
vt 0.500000 1.000000
vt 0.000000 0.000000
vt 1.000000 0.000000
vt 0.500000 1.000000
vt 0.000000 0.000000
vt 1.000000 0.000000
vt 0.000000 0.000000
vt 1.000000 0.000000
vt 1.000000 1.000000
vt 0.000000 1.000000
vt 0.500000 1.000000
vt 0.000000 0.000000
vt 1.000000 0.000000
vt 0.500000 1.000000
vt 0.000000 0.000000
vt 1.000000 0.000000
vt 0.000000 0.000000
vt 1.000000 0.000000
vt 1.000000 1.000000
vt 0.000000 1.000000
vt 0.500000 1.000000
vt 0.000000 0.000000
vt 1.000000 0.000000
vt 0.500000 1.000000
vt 0.000000 0.000000
vt 1.000000 0.000000
vt 0.000000 0.000000
vt 1.000000 0.000000
vt 1.000000 1.000000
vt 0.000000 1.000000
vt 0.500000 1.000000
vt 0.000000 0.000000
vt 1.000000 0.000000
vt 0.500000 1.000000
vt 0.000000 0.000000
vt 1.000000 0.000000
vt 0.000000 0.000000
vt 1.000000 0.000000
vt 1.000000 1.000000
vt 0.000000 1.000000
vt 0.500000 1.000000
vt 0.000000 0.000000
vt 1.000000 0.000000
vt 0.500000 1.000000
vt 0.000000 0.000000
vt 1.000000 0.000000
vt 0.000000 0.000000
vt 1.000000 0.000000
vt 1.000000 1.000000
vt 0.000000 1.000000
vt 0.500000 1.000000
vt 0.000000 0.000000
vt 1.000000 0.000000
vt 0.500000 1.000000
vt 0.000000 0.000000
vt 1.000000 0.000000
vt 0.000000 0.000000
vt 1.000000 0.000000
vt 1.000000 1.000000
vt 0.000000 1.000000
vt 0.500000 1.000000
vt 0.000000 0.000000
vt 1.000000 0.000000
vt 0.500000 1.000000
vt 0.000000 0.000000
vt 1.000000 0.000000
vt 0.000000 0.000000
vt 1.000000 0.000000
vt 1.000000 1.000000
vt 0.000000 1.000000
vt 0.500000 1.000000
vt 0.000000 0.000000
vt 1.000000 0.000000
vt 0.500000 1.000000
vt 0.000000 0.000000
vt 1.000000 0.000000
vt 0.000000 0.000000
vt 1.000000 0.000000
vt 1.000000 1.000000
vt 0.000000 1.000000
vt 0.500000 1.000000
vt 0.000000 0.000000
vt 1.000000 0.000000
vt 0.500000 1.000000
vt 0.000000 0.000000
vt 1.000000 0.000000
vt 0.000000 0.000000
vt 1.000000 0.000000
vt 1.000000 1.000000
vt 0.000000 1.000000
vt 0.500000 1.000000
vt 0.000000 0.000000
vt 1.000000 0.000000
vt 0.500000 1.000000
vt 0.000000 0.000000
vt 1.000000 0.000000
vt 0.000000 0.000000
vt 1.000000 0.000000
vt 1.000000 1.000000
vt 0.000000 1.000000
vt 0.500000 1.000000
vt 0.000000 0.000000
vt 1.000000 0.000000
vt 0.500000 1.000000
vt 0.000000 0.000000
vt 1.000000 0.000000
vt 0.000000 0.000000
vt 1.000000 0.000000
vt 1.000000 1.000000
vt 0.000000 1.000000
vt 0.500000 1.000000
vt 0.000000 0.000000
vt 1.000000 0.000000
vt 0.500000 1.000000
vt 0.000000 0.000000
vt 1.000000 0.000000
vt 0.000000 0.000000
vt 1.000000 0.000000
vt 1.000000 1.000000
vt 0.000000 1.000000
vt 0.500000 1.000000
vt 0.000000 0.000000
vt 1.000000 0.000000
vt 0.500000 1.000000
vt 0.000000 0.000000
vt 1.000000 0.000000
vt 0.000000 0.000000
vt 1.000000 0.000000
vt 1.000000 1.000000
vt 0.000000 1.000000
vt 0.500000 1.000000
vt 0.000000 0.000000
vt 1.000000 0.000000
vt 0.500000 1.000000
vt 0.000000 0.000000
vt 1.000000 0.000000
vt 0.000000 0.000000
vt 1.000000 0.000000
vt 1.000000 1.000000
vt 0.000000 1.000000
vt 0.500000 1.000000
vt 0.000000 0.000000
vt 1.000000 0.000000
vt 0.500000 1.000000
vt 0.000000 0.000000
vt 1.000000 0.000000
vt 0.000000 0.000000
vt 1.000000 0.000000
vt 1.000000 1.000000
vt 0.000000 1.000000
vt 0.500000 1.000000
vt 0.000000 0.000000
vt 1.000000 0.000000
vt 0.500000 1.000000
vt 0.000000 0.000000
vt 1.000000 0.000000
vt 0.000000 0.000000
vt 1.000000 0.000000
vt 1.000000 1.000000
vt 0.000000 1.000000
vt 0.500000 1.000000
vt 0.000000 0.000000
vt 1.000000 0.000000
vt 0.500000 1.000000
vt 0.000000 0.000000
vt 1.000000 0.000000
vt 0.000000 0.000000
vt 1.000000 0.000000
vt 1.000000 1.000000
vt 0.000000 1.000000
vt 0.500000 1.000000
vt 0.000000 0.000000
vt 1.000000 0.000000
vt 0.500000 1.000000
vt 0.000000 0.000000
vt 1.000000 0.000000
vt 0.000000 0.000000
vt 1.000000 0.000000
vt 1.000000 1.000000
vt 0.000000 1.000000
vt 0.500000 1.000000
vt 0.000000 0.000000
vt 1.000000 0.000000
vt 0.500000 1.000000
vt 0.000000 0.000000
vt 1.000000 0.000000
vt 0.000000 0.000000
vt 1.000000 0.000000
vt 1.000000 1.000000
vt 0.000000 1.000000
vt 0.500000 1.000000
vt 0.000000 0.000000
vt 1.000000 0.000000
vt 0.500000 1.000000
vt 0.000000 0.000000
vt 1.000000 0.000000
vt 0.000000 0.000000
vt 1.000000 0.000000
vt 1.000000 1.000000
vt 0.000000 1.000000
vt 0.500000 1.000000
vt 0.000000 0.000000
vt 1.000000 0.000000
vt 0.500000 1.000000
vt 0.000000 0.000000
vt 1.000000 0.000000
vt 0.000000 0.000000
vt 1.000000 0.000000
vt 1.000000 1.000000
vt 0.000000 1.000000
vt 0.500000 1.000000
vt 0.000000 0.000000
vt 1.000000 0.000000
vt 0.500000 1.000000
vt 0.000000 0.000000
vt 1.000000 0.000000
vt 0.000000 0.000000
vt 1.000000 0.000000
vt 1.000000 1.000000
vt 0.000000 1.000000
vt 0.500000 1.000000
vt 0.000000 0.000000
vt 1.000000 0.000000
vt 0.500000 1.000000
vt 0.000000 0.000000
vt 1.000000 0.000000
vt 0.000000 0.000000
vt 1.000000 0.000000
vt 1.000000 1.000000
vt 0.000000 1.000000
vt 0.500000 1.000000
vt 0.000000 0.000000
vt 1.000000 0.000000
vt 0.500000 1.000000
vt 0.000000 0.000000
vt 1.000000 0.000000
vt 0.000000 0.000000
vt 1.000000 0.000000
vt 1.000000 1.000000
vt 0.000000 1.000000
vt 0.500000 1.000000
vt 0.000000 0.000000
vt 1.000000 0.000000
vt 0.500000 1.000000
vt 0.000000 0.000000
vt 1.000000 0.000000
vt 0.000000 0.000000
vt 1.000000 0.000000
vt 1.000000 1.000000
vt 0.000000 1.000000
vt 0.500000 1.000000
vt 0.000000 0.000000
vt 1.000000 0.000000
vt 0.500000 1.000000
vt 0.000000 0.000000
vt 1.000000 0.000000
vt 0.000000 0.000000
vt 1.000000 0.000000
vt 1.000000 1.000000
vt 0.000000 1.000000
vt 0.500000 1.000000
vt 0.000000 0.000000
vt 1.000000 0.000000
vt 0.500000 1.000000
vt 0.000000 0.000000
vt 1.000000 0.000000
vt 0.000000 0.000000
vt 1.000000 0.000000
vt 1.000000 1.000000
vt 0.000000 1.000000
vt 0.500000 1.000000
vt 0.000000 0.000000
vt 1.000000 0.000000
vt 0.500000 1.000000
vt 0.000000 0.000000
vt 1.000000 0.000000
vt 0.000000 0.000000
vt 1.000000 0.000000
vt 1.000000 1.000000
vt 0.000000 1.000000
vt 0.500000 1.000000
vt 0.000000 0.000000
vt 1.000000 0.000000
vt 0.500000 1.000000
vt 0.000000 0.000000
vt 1.000000 0.000000
vt 0.000000 0.000000
vt 1.000000 0.000000
vt 1.000000 1.000000
vt 0.000000 1.000000
vt 0.500000 1.000000
vt 0.000000 0.000000
vt 1.000000 0.000000
vt 0.500000 1.000000
vt 0.000000 0.000000
vt 1.000000 0.000000
vt 0.000000 0.000000
vt 1.000000 0.000000
vt 1.000000 1.000000
vt 0.000000 1.000000
vt 0.500000 1.000000
vt 0.000000 0.000000
vt 1.000000 0.000000
vt 0.500000 1.000000
vt 0.000000 0.000000
vt 1.000000 0.000000
s 1
usemtl models/caelum/world/environment/bark_tundra.png
f 1/1 2/2 3/3 4/4
f 5/5 6/6 7/7
f 8/8 9/9 10/10 11/11
f 12/12 13/13 14/14
f 15/15 16/16 17/17 18/18
f 19/19 20/20 21/21
f 22/22 23/23 24/24 25/25
f 26/26 27/27 28/28
f 29/29 30/30 31/31 32/32
f 33/33 34/34 35/35
f 36/36 37/37 38/38 39/39
f 40/40 41/41 42/42
f 43/43 44/44 45/45 46/46
f 47/47 48/48 49/49
f 50/50 51/51 52/52 53/53
f 54/54 55/55 56/56
f 57/57 58/58 59/59 60/60
f 61/61 62/62 63/63
f 64/64 65/65 66/66 67/67
f 68/68 69/69 70/70
f 71/71 72/72 73/73 74/74
f 75/75 76/76 77/77
f 78/78 79/79 80/80 81/81
f 82/82 83/83 84/84
f 85/85 86/86 87/87 88/88
f 89/89 90/90 91/91
f 92/92 93/93 94/94 95/95
f 96/96 97/97 98/98
f 99/99 100/100 101/101 102/102
f 103/103 104/104 105/105
f 106/106 107/107 108/108 109/109
f 110/110 111/111 112/112
f 113/113 114/114 115/115 116/116
f 117/117 118/118 119/119
f 120/120 121/121 122/122 123/123
f 124/124 125/125 126/126
usemtl models/caelum/world/environment/foliage_tundra.png
f 127/127 128/128 129/129 130/130
f 131/131 132/132 133/133
f 134/134 135/135 136/136
f 137/137 138/138 139/139 140/140
f 141/141 142/142 143/143
f 144/144 145/145 146/146
f 147/147 148/148 149/149 150/150
f 151/151 152/152 153/153
f 154/154 155/155 156/156
f 157/157 158/158 159/159 160/160
f 161/161 162/162 163/163
f 164/164 165/165 166/166
f 167/167 168/168 169/169 170/170
f 171/171 172/172 173/173
f 174/174 175/175 176/176
f 177/177 178/178 179/179 180/180
f 181/181 182/182 183/183
f 184/184 185/185 186/186
f 187/187 188/188 189/189 190/190
f 191/191 192/192 193/193
f 194/194 195/195 196/196
f 197/197 198/198 199/199 200/200
f 201/201 202/202 203/203
f 204/204 205/205 206/206
f 207/207 208/208 209/209 210/210
f 211/211 212/212 213/213
f 214/214 215/215 216/216
f 217/217 218/218 219/219 220/220
f 221/221 222/222 223/223
f 224/224 225/225 226/226
f 227/227 228/228 229/229 230/230
f 231/231 232/232 233/233
f 234/234 235/235 236/236
f 237/237 238/238 239/239 240/240
f 241/241 242/242 243/243
f 244/244 245/245 246/246
f 247/247 248/248 249/249 250/250
f 251/251 252/252 253/253
f 254/254 255/255 256/256
f 257/257 258/258 259/259 260/260
f 261/261 262/262 263/263
f 264/264 265/265 266/266
f 267/267 268/268 269/269 270/270
f 271/271 272/272 273/273
f 274/274 275/275 276/276
f 277/277 278/278 279/279 280/280
f 281/281 282/282 283/283
f 284/284 285/285 286/286
f 287/287 288/288 289/289 290/290
f 291/291 292/292 293/293
f 294/294 295/295 296/296
f 297/297 298/298 299/299 300/300
f 301/301 302/302 303/303
f 304/304 305/305 306/306
f 307/307 308/308 309/309 310/310
f 311/311 312/312 313/313
f 314/314 315/315 316/316
f 317/317 318/318 319/319 320/320
f 321/321 322/322 323/323
f 324/324 325/325 326/326
f 327/327 328/328 329/329 330/330
f 331/331 332/332 333/333
f 334/334 335/335 336/336
f 337/337 338/338 339/339 340/340
f 341/341 342/342 343/343
f 344/344 345/345 346/346
f 347/347 348/348 349/349 350/350
f 351/351 352/352 353/353
f 354/354 355/355 356/356
f 357/357 358/358 359/359 360/360
f 361/361 362/362 363/363
f 364/364 365/365 366/366
f 367/367 368/368 369/369 370/370
f 371/371 372/372 373/373
f 374/374 375/375 376/376
f 377/377 378/378 379/379 380/380
f 381/381 382/382 383/383
f 384/384 385/385 386/386
f 387/387 388/388 389/389 390/390
f 391/391 392/392 393/393
f 394/394 395/395 396/396
f 397/397 398/398 399/399 400/400
f 401/401 402/402 403/403
f 404/404 405/405 406/406
f 407/407 408/408 409/409 410/410
f 411/411 412/412 413/413
f 414/414 415/415 416/416
f 417/417 418/418 419/419 420/420
f 421/421 422/422 423/423
f 424/424 425/425 426/426
f 427/427 428/428 429/429 430/430
f 431/431 432/432 433/433
f 434/434 435/435 436/436
f 437/437 438/438 439/439 440/440
f 441/441 442/442 443/443
f 444/444 445/445 446/446
f 447/447 448/448 449/449 450/450
f 451/451 452/452 453/453
f 454/454 455/455 456/456
f 457/457 458/458 459/459 460/460
f 461/461 462/462 463/463
f 464/464 465/465 466/466
f 467/467 468/468 469/469 470/470
f 471/471 472/472 473/473
f 474/474 475/475 476/476
f 477/477 478/478 479/479 480/480
f 481/481 482/482 483/483
f 484/484 485/485 486/486
f 487/487 488/488 489/489 490/490
f 491/491 492/492 493/493
f 494/494 495/495 496/496
f 497/497 498/498 499/499 500/500
f 501/501 502/502 503/503
f 504/504 505/505 506/506
f 507/507 508/508 509/509 510/510
f 511/511 512/512 513/513
f 514/514 515/515 516/516
f 517/517 518/518 519/519 520/520
f 521/521 522/522 523/523
f 524/524 525/525 526/526
f 527/527 528/528 529/529 530/530
f 531/531 532/532 533/533
f 534/534 535/535 536/536
f 537/537 538/538 539/539 540/540
f 541/541 542/542 543/543
f 544/544 545/545 546/546
f 547/547 548/548 549/549 550/550
f 551/551 552/552 553/553
f 554/554 555/555 556/556
f 557/557 558/558 559/559 560/560
f 561/561 562/562 563/563
f 564/564 565/565 566/566
f 567/567 568/568 569/569 570/570
f 571/571 572/572 573/573
f 574/574 575/575 576/576
f 577/577 578/578 579/579 580/580
f 581/581 582/582 583/583
f 584/584 585/585 586/586
f 587/587 588/588 589/589 590/590
f 591/591 592/592 593/593
f 594/594 595/595 596/596
f 597/597 598/598 599/599 600/600
f 601/601 602/602 603/603
f 604/604 605/605 606/606
f 607/607 608/608 609/609 610/610
f 611/611 612/612 613/613
f 614/614 615/615 616/616
f 617/617 618/618 619/619 620/620
f 621/621 622/622 623/623
f 624/624 625/625 626/626
f 627/627 628/628 629/629 630/630
f 631/631 632/632 633/633
f 634/634 635/635 636/636
f 637/637 638/638 639/639 640/640
f 641/641 642/642 643/643
f 644/644 645/645 646/646
f 647/647 648/648 649/649 650/650
f 651/651 652/652 653/653
f 654/654 655/655 656/656
f 657/657 658/658 659/659 660/660
f 661/661 662/662 663/663
f 664/664 665/665 666/666
f 667/667 668/668 669/669 670/670
f 671/671 672/672 673/673
f 674/674 675/675 676/676
f 677/677 678/678 679/679 680/680
f 681/681 682/682 683/683
f 684/684 685/685 686/686
f 687/687 688/688 689/689 690/690
f 691/691 692/692 693/693
f 694/694 695/695 696/696
f 697/697 698/698 699/699 700/700
f 701/701 702/702 703/703
f 704/704 705/705 706/706
f 707/707 708/708 709/709 710/710
f 711/711 712/712 713/713
f 714/714 715/715 716/716
f 717/717 718/718 719/719 720/720
f 721/721 722/722 723/723
f 724/724 725/725 726/726
f 727/727 728/728 729/729 730/730
f 731/731 732/732 733/733
f 734/734 735/735 736/736
f 737/737 738/738 739/739 740/740
f 741/741 742/742 743/743
f 744/744 745/745 746/746
f 747/747 748/748 749/749 750/750
f 751/751 752/752 753/753
f 754/754 755/755 756/756
f 757/757 758/758 759/759 760/760
f 761/761 762/762 763/763
f 764/764 765/765 766/766
f 767/767 768/768 769/769 770/770
f 771/771 772/772 773/773
f 774/774 775/775 776/776
f 777/777 778/778 779/779 780/780
f 781/781 782/782 783/783
f 784/784 785/785 786/786
f 787/787 788/788 789/789 790/790
f 791/791 792/792 793/793
f 794/794 795/795 796/796
f 797/797 798/798 799/799 800/800
f 801/801 802/802 803/803
f 804/804 805/805 806/806
f 807/807 808/808 809/809 810/810
f 811/811 812/812 813/813
f 814/814 815/815 816/816
f 817/817 818/818 819/819 820/820
f 821/821 822/822 823/823
f 824/824 825/825 826/826
f 827/827 828/828 829/829 830/830
f 831/831 832/832 833/833
f 834/834 835/835 836/836
f 837/837 838/838 839/839 840/840
f 841/841 842/842 843/843
f 844/844 845/845 846/846
f 847/847 848/848 849/849 850/850
f 851/851 852/852 853/853
f 854/854 855/855 856/856
f 857/857 858/858 859/859 860/860
f 861/861 862/862 863/863
f 864/864 865/865 866/866
f 867/867 868/868 869/869 870/870
f 871/871 872/872 873/873
f 874/874 875/875 876/876
f 877/877 878/878 879/879 880/880
f 881/881 882/882 883/883
f 884/884 885/885 886/886
f 887/887 888/888 889/889 890/890
f 891/891 892/892 893/893
f 894/894 895/895 896/896
f 897/897 898/898 899/899 900/900
f 901/901 902/902 903/903
f 904/904 905/905 906/906
f 907/907 908/908 909/909 910/910
f 911/911 912/912 913/913
f 914/914 915/915 916/916
f 917/917 918/918 919/919 920/920
f 921/921 922/922 923/923
f 924/924 925/925 926/926
