# Modelo original generado para Caelum Argenteum.
# Ejes OBJ: X ancho, Y altura, Z profundidad.
o ca_tree_desert_churqui3
v 0.000000 -0.049829 -6.999823
v -4.498703 0.047223 -5.362783
v -2.476905 33.072584 -3.935520
v 0.627200 33.005618 -5.065078
v 0.000000 0.000000 0.000000
v -4.498703 0.047223 -5.362783
v 0.000000 -0.049829 -6.999823
v -4.498703 0.047223 -5.362783
v -6.892413 0.122180 -1.216438
v -4.128565 33.124304 -1.074542
v -2.476905 33.072584 -3.935520
v 0.000000 0.000000 0.000000
v -6.892413 0.122180 -1.216438
v -4.498703 0.047223 -5.362783
v -6.892413 0.122180 -1.216438
v -6.061086 0.139967 3.499092
v -3.554949 33.136577 2.179174
v -4.128565 33.124304 -1.074542
v 0.000000 0.000000 0.000000
v -6.061086 0.139967 3.499092
v -6.892413 0.122180 -1.216438
v -6.061086 0.139967 3.499092
v -2.393710 0.092262 6.577358
v -1.024460 33.103661 4.303177
v -3.554949 33.136577 2.179174
v 0.000000 0.000000 0.000000
v -2.393710 0.092262 6.577358
v -6.061086 0.139967 3.499092
v -2.393710 0.092262 6.577358
v 2.393710 0.001387 6.578005
v 2.278860 33.040957 4.303624
v -1.024460 33.103661 4.303177
v 0.000000 0.000000 0.000000
v 2.393710 0.001387 6.578005
v -2.393710 0.092262 6.577358
v 2.393710 0.001387 6.578005
v 6.061086 -0.090137 3.500730
v 4.809349 32.977805 2.180304
v 2.278860 33.040957 4.303624
v 0.000000 0.000000 0.000000
v 6.061086 -0.090137 3.500730
v 2.393710 0.001387 6.578005
v 6.061086 -0.090137 3.500730
v 6.892413 -0.139485 -1.214575
v 5.382965 32.943755 -1.073257
v 4.809349 32.977805 2.180304
v 0.000000 0.000000 0.000000
v 6.892413 -0.139485 -1.214575
v 6.061086 -0.090137 3.500730
v 6.892413 -0.139485 -1.214575
v 4.498703 -0.123566 -5.361567
v 3.731305 32.954739 -3.934681
v 5.382965 32.943755 -1.073257
v 0.000000 0.000000 0.000000
v 4.498703 -0.123566 -5.361567
v 6.892413 -0.139485 -1.214575
v 4.498703 -0.123566 -5.361567
v 0.000000 -0.049829 -6.999823
v 0.627200 33.005618 -5.065078
v 3.731305 32.954739 -3.934681
v 0.000000 0.000000 0.000000
v 0.000000 -0.049829 -6.999823
v 4.498703 -0.123566 -5.361567
v 0.049838 32.973791 -5.030111
v -2.892900 33.163702 -3.540119
v 0.224594 61.428126 -2.631300
v 1.845233 61.323537 -3.451876
v -2.892900 33.163702 -3.540119
v -4.188545 33.295732 -0.503719
v -0.488949 61.500838 -0.959080
v 0.224594 61.428126 -2.631300
v -4.188545 33.295732 -0.503719
v -3.230849 33.308101 2.658324
v 0.038477 61.507650 0.782335
v -0.488949 61.500838 -0.959080
v -3.230849 33.308101 2.658324
v -0.467929 33.195024 4.466455
v 1.560086 61.445375 1.778117
v 0.038477 61.507650 0.782335
v -0.467929 33.195024 4.466455
v 2.807414 33.009409 4.074630
v 3.363898 61.343153 1.562329
v 1.560086 61.445375 1.778117
v 2.807414 33.009409 4.074630
v 5.062611 32.838108 1.666187
v 4.605890 61.248813 0.235941
v 3.363898 61.343153 1.562329
v 5.062611 32.838108 1.666187
v 5.242429 32.761274 -1.631936
v 4.704920 61.206499 -1.580417
v 4.605890 61.248813 0.235941
v 5.242429 32.761274 -1.631936
v 3.262731 32.814860 -4.276510
v 3.614652 61.236010 -3.036849
v 4.704920 61.206499 -1.580417
v 3.262731 32.814860 -4.276510
v 0.049838 32.973791 -5.030111
v 1.845233 61.323537 -3.451876
v 3.614652 61.236010 -3.036849
v 1.533061 61.331968 -3.395332
v 0.025324 61.487896 -2.388770
v 3.526181 82.623560 -1.760605
v 3.803922 82.594836 -1.946024
v 3.920000 82.600000 -1.470000
v 3.803922 82.594836 -1.946024
v 3.526181 82.623560 -1.760605
v 0.025324 61.487896 -2.388770
v -0.482077 61.583980 -0.644045
v 3.432712 82.641260 -1.439208
v 3.526181 82.623560 -1.760605
v 3.920000 82.600000 -1.470000
v 3.526181 82.623560 -1.760605
v 3.432712 82.641260 -1.439208
v -0.482077 61.583980 -0.644045
v 0.248276 61.575262 1.022466
v 3.567251 82.639653 -1.132219
v 3.432712 82.641260 -1.439208
v 3.920000 82.600000 -1.470000
v 3.432712 82.641260 -1.439208
v 3.567251 82.639653 -1.132219
v 0.248276 61.575262 1.022466
v 1.874644 61.465819 1.830984
v 3.866845 82.619493 -0.983282
v 3.567251 82.639653 -1.132219
v 3.920000 82.600000 -1.470000
v 3.567251 82.639653 -1.132219
v 3.866845 82.619493 -0.983282
v 1.874644 61.465819 1.830984
v 3.636030 61.306863 1.403195
v 4.191311 82.590212 -1.062085
v 3.866845 82.619493 -0.983282
v 3.920000 82.600000 -1.470000
v 3.866845 82.619493 -0.983282
v 4.191311 82.590212 -1.062085
v 3.636030 61.306863 1.403195
v 4.708263 61.172770 -0.060734
v 4.388827 82.565510 -1.331756
v 4.191311 82.590212 -1.062085
v 3.920000 82.600000 -1.470000
v 4.191311 82.590212 -1.062085
v 4.388827 82.565510 -1.331756
v 4.708263 61.172770 -0.060734
v 4.589632 61.126284 -1.875814
v 4.366974 82.556947 -1.666113
v 4.388827 82.565510 -1.331756
v 3.920000 82.600000 -1.470000
v 4.388827 82.565510 -1.331756
v 4.366974 82.556947 -1.666113
v 4.589632 61.126284 -1.875814
v 3.335647 61.189156 -3.192750
v 4.135977 82.568529 -1.908707
v 4.366974 82.556947 -1.666113
v 3.920000 82.600000 -1.470000
v 4.366974 82.556947 -1.666113
v 4.135977 82.568529 -1.908707
v 3.335647 61.189156 -3.192750
v 1.533061 61.331968 -3.395332
v 3.803922 82.594836 -1.946024
v 4.135977 82.568529 -1.908707
v 3.920000 82.600000 -1.470000
v 4.135977 82.568529 -1.908707
v 3.803922 82.594836 -1.946024
v 1.957589 58.520482 -2.226638
v 0.806218 59.044330 -1.420458
v 13.040053 80.481245 1.215122
v 13.443033 80.297898 0.932959
v 1.957589 58.371091 -0.734096
v 0.806218 59.044330 -1.420458
v 1.957589 58.520482 -2.226638
v 0.806218 59.044330 -1.420458
v 0.806218 58.894940 0.072084
v 13.040053 80.428958 1.737512
v 13.040053 80.481245 1.215122
v 1.957589 58.371091 -0.734096
v 0.806218 58.894940 0.072084
v 0.806218 59.044330 -1.420458
v 0.806218 58.894940 0.072084
v 1.957589 58.221701 0.758446
v 13.443033 80.193325 1.977739
v 13.040053 80.428958 1.737512
v 1.957589 58.371091 -0.734096
v 1.957589 58.221701 0.758446
v 0.806218 58.894940 0.072084
v 1.957589 58.221701 0.758446
v 3.108961 57.697853 -0.047734
v 13.846013 80.009978 1.695576
v 13.443033 80.193325 1.977739
v 1.957589 58.371091 -0.734096
v 3.108961 57.697853 -0.047734
v 1.957589 58.221701 0.758446
v 3.108961 57.697853 -0.047734
v 3.108961 57.847243 -1.540276
v 13.846013 80.062264 1.173186
v 13.846013 80.009978 1.695576
v 1.957589 58.371091 -0.734096
v 3.108961 57.847243 -1.540276
v 3.108961 57.697853 -0.047734
v 3.108961 57.847243 -1.540276
v 1.957589 58.520482 -2.226638
v 13.443033 80.297898 0.932959
v 13.846013 80.062264 1.173186
v 1.957589 58.371091 -0.734096
v 1.957589 58.520482 -2.226638
v 3.108961 57.847243 -1.540276
v 13.387037 80.322724 0.939071
v 13.012866 80.483164 1.270551
v 26.417443 104.666295 3.924471
v 26.096724 104.803815 4.208597
v 26.048729 104.869911 3.766073
v 26.096724 104.803815 4.208597
v 26.417443 104.666295 3.924471
v 13.012866 80.483164 1.270551
v 13.068861 80.406052 1.786830
v 26.369447 104.732391 3.481946
v 26.417443 104.666295 3.924471
v 26.048729 104.869911 3.766073
v 26.417443 104.666295 3.924471
v 26.369447 104.732391 3.481946
v 13.068861 80.406052 1.786830
v 13.499028 80.168499 1.971627
v 26.000733 104.936008 3.323549
v 26.369447 104.732391 3.481946
v 26.048729 104.869911 3.766073
v 26.369447 104.732391 3.481946
v 26.000733 104.936008 3.323549
v 13.499028 80.168499 1.971627
v 13.873200 80.008059 1.640146
v 25.680014 105.073528 3.607675
v 26.000733 104.936008 3.323549
v 26.048729 104.869911 3.766073
v 26.000733 104.936008 3.323549
v 25.680014 105.073528 3.607675
v 13.873200 80.008059 1.640146
v 13.817204 80.085171 1.123868
v 25.728010 105.007432 4.050199
v 25.680014 105.073528 3.607675
v 26.048729 104.869911 3.766073
v 25.680014 105.073528 3.607675
v 25.728010 105.007432 4.050199
v 13.817204 80.085171 1.123868
v 13.387037 80.322724 0.939071
v 26.096724 104.803815 4.208597
v 25.728010 105.007432 4.050199
v 26.048729 104.869911 3.766073
v 25.728010 105.007432 4.050199
v 26.096724 104.803815 4.208597
v 2.540042 67.732458 -1.793185
v 1.271092 67.267101 -1.142640
v 6.024690 76.813837 13.834743
v 6.468822 76.976712 13.607053
v 2.540042 66.490172 -0.952516
v 1.271092 67.267101 -1.142640
v 2.540042 67.732458 -1.793185
v 1.271092 67.267101 -1.142640
v 1.271092 66.024815 -0.301970
v 6.024690 76.379037 14.128978
v 6.024690 76.813837 13.834743
v 2.540042 66.490172 -0.952516
v 1.271092 66.024815 -0.301970
v 1.271092 67.267101 -1.142640
v 1.271092 66.024815 -0.301970
v 2.540042 65.247886 -0.111846
v 6.468822 76.107112 14.195521
v 6.024690 76.379037 14.128978
v 2.540042 66.490172 -0.952516
v 2.540042 65.247886 -0.111846
v 1.271092 66.024815 -0.301970
v 2.540042 65.247886 -0.111846
v 3.808992 65.713243 -0.762392
v 6.912954 76.269987 13.967830
v 6.468822 76.107112 14.195521
v 2.540042 66.490172 -0.952516
v 3.808992 65.713243 -0.762392
v 2.540042 65.247886 -0.111846
v 3.808992 65.713243 -0.762392
v 3.808992 66.955529 -1.603061
v 6.912954 76.704787 13.673596
v 6.912954 76.269987 13.967830
v 2.540042 66.490172 -0.952516
v 3.808992 66.955529 -1.603061
v 3.808992 65.713243 -0.762392
v 3.808992 66.955529 -1.603061
v 2.540042 67.732458 -1.793185
v 6.468822 76.976712 13.607053
v 6.912954 76.704787 13.673596
v 2.540042 66.490172 -0.952516
v 2.540042 67.732458 -1.793185
v 3.808992 66.955529 -1.603061
v 6.407790 77.008147 13.667782
v 5.999959 76.778083 13.905204
v 11.338553 84.943775 29.910172
v 10.988984 84.746577 30.113677
v 10.936671 85.146207 29.913530
v 10.988984 84.746577 30.113677
v 11.338553 84.943775 29.910172
v 5.999959 76.778083 13.905204
v 6.060991 76.311848 14.138709
v 11.286240 85.343405 29.710025
v 11.338553 84.943775 29.910172
v 10.936671 85.146207 29.913530
v 11.338553 84.943775 29.910172
v 11.286240 85.343405 29.710025
v 6.060991 76.311848 14.138709
v 6.529854 76.075676 14.134792
v 10.884357 85.545838 29.713383
v 11.286240 85.343405 29.710025
v 10.936671 85.146207 29.913530
v 11.286240 85.343405 29.710025
v 10.884357 85.545838 29.713383
v 6.529854 76.075676 14.134792
v 6.937685 76.305741 13.897370
v 10.534788 85.348640 29.916888
v 10.884357 85.545838 29.713383
v 10.936671 85.146207 29.913530
v 10.884357 85.545838 29.713383
v 10.534788 85.348640 29.916888
v 6.937685 76.305741 13.897370
v 6.876653 76.771976 13.663864
v 10.587101 84.949010 30.117035
v 10.534788 85.348640 29.916888
v 10.936671 85.146207 29.913530
v 10.534788 85.348640 29.916888
v 10.587101 84.949010 30.117035
v 6.876653 76.771976 13.663864
v 6.407790 77.008147 13.667782
v 10.988984 84.746577 30.113677
v 10.587101 84.949010 30.117035
v 10.936671 85.146207 29.913530
v 10.587101 84.949010 30.117035
v 10.988984 84.746577 30.113677
v 2.105597 61.572040 -2.295861
v 0.657718 60.528289 -1.904330
v -6.718816 76.076764 9.495045
v -6.212058 76.442077 9.358009
v 2.105597 60.537517 -0.789599
v 0.657718 60.528289 -1.904330
v 2.105597 61.572040 -2.295861
v 0.657718 60.528289 -1.904330
v 0.657718 59.493766 -0.398068
v -6.718816 75.714681 10.022237
v -6.718816 76.076764 9.495045
v 2.105597 60.537517 -0.789599
v 0.657718 59.493766 -0.398068
v 0.657718 60.528289 -1.904330
v 0.657718 59.493766 -0.398068
v 2.105597 59.502994 0.716664
v -6.212058 75.717911 10.412393
v -6.718816 75.714681 10.022237
v 2.105597 60.537517 -0.789599
v 2.105597 59.502994 0.716664
v 0.657718 59.493766 -0.398068
v 2.105597 59.502994 0.716664
v 3.553475 60.546744 0.325133
v -5.705301 76.083224 10.275357
v -6.212058 75.717911 10.412393
v 2.105597 60.537517 -0.789599
v 3.553475 60.546744 0.325133
v 2.105597 59.502994 0.716664
v 3.553475 60.546744 0.325133
v 3.553475 61.581267 -1.181130
v -5.705301 76.445307 9.748165
v -5.705301 76.083224 10.275357
v 2.105597 60.537517 -0.789599
v 3.553475 61.581267 -1.181130
v 3.553475 60.546744 0.325133
v 3.553475 61.581267 -1.181130
v 2.105597 61.572040 -2.295861
v -6.212058 76.442077 9.358009
v -5.705301 76.445307 9.748165
v 2.105597 60.537517 -0.789599
v 2.105597 61.572040 -2.295861
v 3.553475 61.581267 -1.181130
v -6.282113 76.419068 9.347468
v -6.750235 76.029789 9.543323
v -14.586090 92.532975 21.676805
v -14.987338 92.199307 21.844680
v -15.047385 92.489942 21.383767
v -14.987338 92.199307 21.844680
v -14.586090 92.532975 21.676805
v -6.750235 76.029789 9.543323
v -6.680180 75.690715 10.081055
v -14.646137 92.823610 21.215892
v -14.586090 92.532975 21.676805
v -15.047385 92.489942 21.383767
v -14.586090 92.532975 21.676805
v -14.646137 92.823610 21.215892
v -6.680180 75.690715 10.081055
v -6.142003 75.740919 10.422933
v -15.107432 92.780577 20.922853
v -14.646137 92.823610 21.215892
v -15.047385 92.489942 21.383767
v -14.646137 92.823610 21.215892
v -15.107432 92.780577 20.922853
v -6.142003 75.740919 10.422933
v -5.673881 76.130199 10.227079
v -15.508679 92.446909 21.090729
v -15.107432 92.780577 20.922853
v -15.047385 92.489942 21.383767
v -15.107432 92.780577 20.922853
v -15.508679 92.446909 21.090729
v -5.673881 76.130199 10.227079
v -5.743936 76.469273 9.689346
v -15.448632 92.156274 21.551642
v -15.508679 92.446909 21.090729
v -15.047385 92.489942 21.383767
v -15.508679 92.446909 21.090729
v -15.448632 92.156274 21.551642
v -5.743936 76.469273 9.689346
v -6.282113 76.419068 9.347468
v -14.987338 92.199307 21.844680
v -15.448632 92.156274 21.551642
v -15.047385 92.489942 21.383767
v -15.448632 92.156274 21.551642
v -14.987338 92.199307 21.844680
v 2.070374 59.607336 -2.814688
v 0.642851 58.740310 -1.572538
v -11.653164 76.372638 -4.529678
v -11.153532 76.676097 -4.964431
v 2.070374 60.029038 -0.776390
v 0.642851 58.740310 -1.572538
v 2.070374 59.607336 -2.814688
v 0.642851 58.740310 -1.572538
v 0.642851 59.162012 0.465760
v -11.653164 76.520234 -3.816274
v -11.653164 76.372638 -4.529678
v 2.070374 60.029038 -0.776390
v 0.642851 59.162012 0.465760
v 0.642851 58.740310 -1.572538
v 0.642851 59.162012 0.465760
v 2.070374 60.450741 1.261908
v -11.153532 76.971288 -3.537622
v -11.653164 76.520234 -3.816274
v 2.070374 60.029038 -0.776390
v 2.070374 60.450741 1.261908
v 0.642851 59.162012 0.465760
v 2.070374 60.450741 1.261908
v 3.497896 61.317766 0.019757
v -10.653899 77.274747 -3.972375
v -11.153532 76.971288 -3.537622
v 2.070374 60.029038 -0.776390
v 3.497896 61.317766 0.019757
v 2.070374 60.450741 1.261908
v 3.497896 61.317766 0.019757
v 3.497896 60.896064 -2.018540
v -10.653899 77.127152 -4.685779
v -10.653899 77.274747 -3.972375
v 2.070374 60.029038 -0.776390
v 3.497896 60.896064 -2.018540
v 3.497896 61.317766 0.019757
v 3.497896 60.896064 -2.018540
v 2.070374 59.607336 -2.814688
v -11.153532 76.676097 -4.964431
v -10.653899 77.127152 -4.685779
v 2.070374 60.029038 -0.776390
v 2.070374 59.607336 -2.814688
v 3.497896 60.896064 -2.018540
v -11.222610 76.620831 -4.947306
v -11.684202 76.364054 -4.445581
v -24.852037 95.178984 -7.913153
v -25.247688 94.958889 -7.483103
v -25.306898 94.785008 -8.079915
v -25.247688 94.958889 -7.483103
v -24.852037 95.178984 -7.913153
v -11.684202 76.364054 -4.445581
v -11.615124 76.566916 -3.749301
v -24.911247 95.005102 -8.509965
v -24.852037 95.178984 -7.913153
v -25.306898 94.785008 -8.079915
v -24.852037 95.178984 -7.913153
v -24.911247 95.005102 -8.509965
v -11.615124 76.566916 -3.749301
v -11.084454 77.026554 -3.554747
v -25.366108 94.611127 -8.676726
v -24.911247 95.005102 -8.509965
v -25.306898 94.785008 -8.079915
v -24.911247 95.005102 -8.509965
v -25.366108 94.611127 -8.676726
v -11.084454 77.026554 -3.554747
v -10.622861 77.283331 -4.056472
v -25.761759 94.391032 -8.246676
v -25.366108 94.611127 -8.676726
v -25.306898 94.785008 -8.079915
v -25.366108 94.611127 -8.676726
v -25.761759 94.391032 -8.246676
v -10.622861 77.283331 -4.056472
v -10.691939 77.080469 -4.752751
v -25.702549 94.564914 -7.649865
v -25.761759 94.391032 -8.246676
v -25.306898 94.785008 -8.079915
v -25.761759 94.391032 -8.246676
v -25.702549 94.564914 -7.649865
v -10.691939 77.080469 -4.752751
v -11.222610 76.620831 -4.947306
v -25.247688 94.958889 -7.483103
v -25.702549 94.564914 -7.649865
v -25.306898 94.785008 -8.079915
v -25.702549 94.564914 -7.649865
v -25.247688 94.958889 -7.483103
v 1.901396 56.528760 -2.011369
v 0.601482 56.578040 -1.016182
v -9.672486 77.380637 -16.342211
v -9.217516 77.363389 -16.690527
v 1.901396 57.527209 -0.713024
v 0.601482 56.578040 -1.016182
v 1.901396 56.528760 -2.011369
v 0.601482 56.578040 -1.016182
v 0.601482 57.576489 0.282164
v -9.672486 77.730094 -15.887790
v -9.672486 77.380637 -16.342211
v 1.901396 57.527209 -0.713024
v 0.601482 57.576489 0.282164
v 0.601482 56.578040 -1.016182
v 0.601482 57.576489 0.282164
v 1.901396 58.525658 0.585322
v -9.217516 78.062304 -15.781685
v -9.672486 77.730094 -15.887790
v 1.901396 57.527209 -0.713024
v 1.901396 58.525658 0.585322
v 0.601482 57.576489 0.282164
v 1.901396 58.525658 0.585322
v 3.201310 58.476378 -0.409865
v -8.762547 78.045056 -16.130000
v -9.217516 78.062304 -15.781685
v 1.901396 57.527209 -0.713024
v 3.201310 58.476378 -0.409865
v 1.901396 58.525658 0.585322
v 3.201310 58.476378 -0.409865
v 3.201310 57.477929 -1.708211
v -8.762547 77.695598 -16.584421
v -8.762547 78.045056 -16.130000
v 1.901396 57.527209 -0.713024
v 3.201310 57.477929 -1.708211
v 3.201310 58.476378 -0.409865
v 3.201310 57.477929 -1.708211
v 1.901396 56.528760 -2.011369
v -9.217516 77.363389 -16.690527
v -8.762547 77.695598 -16.584421
v 1.901396 57.527209 -0.713024
v 1.901396 56.528760 -2.011369
v 3.201310 57.477929 -1.708211
v -9.280272 77.333706 -16.661468
v -9.699621 77.405436 -16.277254
v -20.691323 98.877425 -33.076927
v -21.050764 98.938907 -32.747600
v -21.104555 98.613930 -33.112197
v -21.050764 98.938907 -32.747600
v -20.691323 98.877425 -33.076927
v -9.699621 77.405436 -16.277254
v -9.636865 77.784576 -15.851891
v -20.745114 98.552447 -33.441523
v -20.691323 98.877425 -33.076927
v -21.104555 98.613930 -33.112197
v -20.691323 98.877425 -33.076927
v -20.745114 98.552447 -33.441523
v -9.636865 77.784576 -15.851891
v -9.154760 78.091987 -15.810743
v -21.158346 98.288953 -33.476793
v -20.745114 98.552447 -33.441523
v -21.104555 98.613930 -33.112197
v -20.745114 98.552447 -33.441523
v -21.158346 98.288953 -33.476793
v -9.154760 78.091987 -15.810743
v -8.735412 78.020257 -16.194958
v -21.517787 98.350435 -33.147467
v -21.158346 98.288953 -33.476793
v -21.104555 98.613930 -33.112197
v -21.158346 98.288953 -33.476793
v -21.517787 98.350435 -33.147467
v -8.735412 78.020257 -16.194958
v -8.798168 77.641117 -16.620320
v -21.463997 98.675413 -32.782870
v -21.517787 98.350435 -33.147467
v -21.104555 98.613930 -33.112197
v -21.517787 98.350435 -33.147467
v -21.463997 98.675413 -32.782870
v -8.798168 77.641117 -16.620320
v -9.280272 77.333706 -16.661468
v -21.050764 98.938907 -32.747600
v -21.463997 98.675413 -32.782870
v -21.104555 98.613930 -33.112197
v -21.463997 98.675413 -32.782870
v -21.050764 98.938907 -32.747600
v 2.713012 67.155815 -2.457347
v 0.904502 68.163122 -1.983243
v 6.481229 84.656420 -18.844616
v 7.114207 84.303862 -19.010552
v 2.713012 68.716790 -1.017379
v 0.904502 68.163122 -1.983243
v 2.713012 67.155815 -2.457347
v 0.904502 68.163122 -1.983243
v 0.904502 69.724097 -0.543276
v 6.481229 85.202761 -18.340627
v 6.481229 84.656420 -18.844616
v 2.713012 68.716790 -1.017379
v 0.904502 69.724097 -0.543276
v 0.904502 68.163122 -1.983243
v 0.904502 69.724097 -0.543276
v 2.713012 70.277765 0.422588
v 7.114207 85.396545 -18.002575
v 6.481229 85.202761 -18.340627
v 2.713012 68.716790 -1.017379
v 2.713012 70.277765 0.422588
v 0.904502 69.724097 -0.543276
v 2.713012 70.277765 0.422588
v 4.521521 69.270458 -0.051516
v 7.747186 85.043987 -18.168512
v 7.114207 85.396545 -18.002575
v 2.713012 68.716790 -1.017379
v 4.521521 69.270458 -0.051516
v 2.713012 70.277765 0.422588
v 4.521521 69.270458 -0.051516
v 4.521521 67.709484 -1.491483
v 7.747186 84.497646 -18.672500
v 7.747186 85.043987 -18.168512
v 2.713012 68.716790 -1.017379
v 4.521521 67.709484 -1.491483
v 4.521521 69.270458 -0.051516
v 4.521521 67.709484 -1.491483
v 2.713012 67.155815 -2.457347
v 7.114207 84.303862 -19.010552
v 7.747186 84.497646 -18.672500
v 2.713012 68.716790 -1.017379
v 2.713012 67.155815 -2.457347
v 4.521521 67.709484 -1.491483
v 7.026976 84.295230 -18.993275
v 6.444079 84.712742 -18.797297
v 12.682649 100.873593 -37.288762
v 12.183023 101.231460 -37.120780
v 12.108253 100.755769 -37.537962
v 12.183023 101.231460 -37.120780
v 12.682649 100.873593 -37.288762
v 6.444079 84.712742 -18.797297
v 6.531310 85.267716 -18.310585
v 12.607879 100.397901 -37.705944
v 12.682649 100.873593 -37.288762
v 12.108253 100.755769 -37.537962
v 12.682649 100.873593 -37.288762
v 12.607879 100.397901 -37.705944
v 6.531310 85.267716 -18.310585
v 7.201439 85.405177 -18.019852
v 12.033484 100.280077 -37.955143
v 12.607879 100.397901 -37.705944
v 12.108253 100.755769 -37.537962
v 12.607879 100.397901 -37.705944
v 12.033484 100.280077 -37.955143
v 7.201439 85.405177 -18.019852
v 7.784336 84.987665 -18.215831
v 11.533858 100.637945 -37.787161
v 12.033484 100.280077 -37.955143
v 12.108253 100.755769 -37.537962
v 12.033484 100.280077 -37.955143
v 11.533858 100.637945 -37.787161
v 7.784336 84.987665 -18.215831
v 7.697104 84.432691 -18.702543
v 11.608627 101.113636 -37.369980
v 11.533858 100.637945 -37.787161
v 12.108253 100.755769 -37.537962
v 11.533858 100.637945 -37.787161
v 11.608627 101.113636 -37.369980
v 7.697104 84.432691 -18.702543
v 7.026976 84.295230 -18.993275
v 12.183023 101.231460 -37.120780
v 11.608627 101.113636 -37.369980
v 12.108253 100.755769 -37.537962
v 11.608627 101.113636 -37.369980
v 12.183023 101.231460 -37.120780
v 26.048729 99.114849 3.766073
v 30.780585 100.601351 7.627844
v 33.767771 101.297975 3.766073
v 33.767771 101.297975 3.766073
v 30.780585 100.601351 7.627844
v 34.400227 105.885511 10.581913
v 36.066807 105.885511 3.766073
v 36.066807 105.885511 3.766073
v 34.400227 105.885511 10.581913
v 31.665197 110.590957 8.349795
v 33.314762 110.159364 3.766073
v 26.048729 112.656172 3.766073
v 33.314762 110.159364 3.766073
v 31.665197 110.590957 8.349795
v 26.048729 99.114849 3.766073
v 26.048729 101.460312 9.665785
v 30.780585 100.601351 7.627844
v 30.780585 100.601351 7.627844
v 26.048729 101.460312 9.665785
v 26.048729 105.885511 11.372891
v 34.400227 105.885511 10.581913
v 34.400227 105.885511 10.581913
v 26.048729 105.885511 11.372891
v 26.048729 110.560481 9.634996
v 31.665197 110.590957 8.349795
v 26.048729 112.656172 3.766073
v 31.665197 110.590957 8.349795
v 26.048729 110.560481 9.634996
v 26.048729 99.114849 3.766073
v 21.043284 100.904852 7.851126
v 26.048729 101.460312 9.665785
v 26.048729 101.460312 9.665785
v 21.043284 100.904852 7.851126
v 17.875616 105.885511 10.436329
v 26.048729 105.885511 11.372891
v 26.048729 105.885511 11.372891
v 17.875616 105.885511 10.436329
v 20.566780 110.331360 8.240011
v 26.048729 110.560481 9.634996
v 26.048729 112.656172 3.766073
v 26.048729 110.560481 9.634996
v 20.566780 110.331360 8.240011
v 26.048729 99.114849 3.766073
v 18.197734 100.724611 3.766073
v 21.043284 100.904852 7.851126
v 21.043284 100.904852 7.851126
v 18.197734 100.724611 3.766073
v 14.644214 105.885511 3.766073
v 17.875616 105.885511 10.436329
v 17.875616 105.885511 10.436329
v 14.644214 105.885511 3.766073
v 17.912372 110.418561 3.766073
v 20.566780 110.331360 8.240011
v 26.048729 112.656172 3.766073
v 20.566780 110.331360 8.240011
v 17.912372 110.418561 3.766073
v 26.048729 99.114849 3.766073
v 20.253919 100.857210 -0.963198
v 18.197734 100.724611 3.766073
v 18.197734 100.724611 3.766073
v 20.253919 100.857210 -0.963198
v 17.565992 105.885511 -3.156874
v 14.644214 105.885511 3.766073
v 14.644214 105.885511 3.766073
v 17.565992 105.885511 -3.156874
v 20.497329 110.820308 -0.764546
v 17.912372 110.418561 3.766073
v 26.048729 112.656172 3.766073
v 17.912372 110.418561 3.766073
v 20.497329 110.820308 -0.764546
v 26.048729 99.114849 3.766073
v 26.048729 101.258051 -2.573698
v 20.253919 100.857210 -0.963198
v 20.253919 100.857210 -0.963198
v 26.048729 101.258051 -2.573698
v 26.048729 105.885511 -5.646477
v 17.565992 105.885511 -3.156874
v 17.565992 105.885511 -3.156874
v 26.048729 105.885511 -5.646477
v 26.048729 110.411673 -2.266951
v 20.497329 110.820308 -0.764546
v 26.048729 112.656172 3.766073
v 20.497329 110.820308 -0.764546
v 26.048729 110.411673 -2.266951
v 26.048729 99.114849 3.766073
v 31.201712 101.835303 -0.439390
v 26.048729 101.258051 -2.573698
v 26.048729 101.258051 -2.573698
v 31.201712 101.835303 -0.439390
v 32.742810 105.885511 -1.697114
v 26.048729 105.885511 -5.646477
v 26.048729 105.885511 -5.646477
v 32.742810 105.885511 -1.697114
v 30.703434 111.399117 -0.032734
v 26.048729 110.411673 -2.266951
v 26.048729 112.656172 3.766073
v 26.048729 110.411673 -2.266951
v 30.703434 111.399117 -0.032734
v 26.048729 99.114849 3.766073
v 33.767771 101.297975 3.766073
v 31.201712 101.835303 -0.439390
v 31.201712 101.835303 -0.439390
v 33.767771 101.297975 3.766073
v 36.066807 105.885511 3.766073
v 32.742810 105.885511 -1.697114
v 32.742810 105.885511 -1.697114
v 36.066807 105.885511 3.766073
v 33.314762 110.159364 3.766073
v 30.703434 111.399117 -0.032734
v 26.048729 112.656172 3.766073
v 30.703434 111.399117 -0.032734
v 33.314762 110.159364 3.766073
v 10.936671 77.798034 29.913530
v 17.345138 80.568113 36.168970
v 20.074527 79.858976 29.913530
v 20.074527 79.858976 29.913530
v 17.345138 80.568113 36.168970
v 19.826018 86.442944 38.590609
v 23.929008 86.442944 29.913530
v 23.929008 86.442944 29.913530
v 19.826018 86.442944 38.590609
v 18.902893 92.599096 37.689527
v 20.789310 92.421661 29.913530
v 10.936671 95.087853 29.913530
v 20.789310 92.421661 29.913530
v 18.902893 92.599096 37.689527
v 10.936671 77.798034 29.913530
v 10.936671 79.409557 40.662227
v 17.345138 80.568113 36.168970
v 17.345138 80.568113 36.168970
v 10.936671 79.409557 40.662227
v 10.936671 86.442944 44.891002
v 19.826018 86.442944 38.590609
v 19.826018 86.442944 38.590609
v 10.936671 86.442944 44.891002
v 10.936671 93.188799 40.993222
v 18.902893 92.599096 37.689527
v 10.936671 95.087853 29.913530
v 18.902893 92.599096 37.689527
v 10.936671 93.188799 40.993222
v 10.936671 77.798034 29.913530
v 3.628321 80.593336 37.047364
v 10.936671 79.409557 40.662227
v 10.936671 79.409557 40.662227
v 3.628321 80.593336 37.047364
v 1.057957 86.442944 39.556350
v 10.936671 86.442944 44.891002
v 10.936671 86.442944 44.891002
v 1.057957 86.442944 39.556350
v 4.275662 92.045965 36.415480
v 10.936671 93.188799 40.993222
v 10.936671 95.087853 29.913530
v 10.936671 93.188799 40.993222
v 4.275662 92.045965 36.415480
v 10.936671 77.798034 29.913530
v 0.482666 80.227474 29.913530
v 3.628321 80.593336 37.047364
v 3.628321 80.593336 37.047364
v 0.482666 80.227474 29.913530
v -1.944123 86.442944 29.913530
v 1.057957 86.442944 39.556350
v 1.057957 86.442944 39.556350
v -1.944123 86.442944 29.913530
v -0.280349 92.756725 29.913530
v 4.275662 92.045965 36.415480
v 10.936671 95.087853 29.913530
v 4.275662 92.045965 36.415480
v -0.280349 92.756725 29.913530
v 10.936671 77.798034 29.913530
v 4.928208 79.779353 24.048543
v 0.482666 80.227474 29.913530
v 0.482666 80.227474 29.913530
v 4.928208 79.779353 24.048543
v 0.486582 86.442944 19.712979
v -1.944123 86.442944 29.913530
v -1.944123 86.442944 29.913530
v 0.486582 86.442944 19.712979
v 5.079946 93.521770 24.196659
v -0.280349 92.756725 29.913530
v 10.936671 95.087853 29.913530
v -0.280349 92.756725 29.913530
v 5.079946 93.521770 24.196659
v 10.936671 77.798034 29.913530
v 10.936671 80.725217 19.396122
v 4.928208 79.779353 24.048543
v 4.928208 79.779353 24.048543
v 10.936671 80.725217 19.396122
v 10.936671 86.442944 14.852955
v 0.486582 86.442944 19.712979
v 0.486582 86.442944 19.712979
v 10.936671 86.442944 14.852955
v 10.936671 92.485198 20.278859
v 5.079946 93.521770 24.196659
v 10.936671 95.087853 29.913530
v 5.079946 93.521770 24.196659
v 10.936671 92.485198 20.278859
v 10.936671 77.798034 29.913530
v 18.859398 80.365705 22.179989
v 10.936671 80.725217 19.396122
v 10.936671 80.725217 19.396122
v 18.859398 80.365705 22.179989
v 19.988386 86.442944 21.077961
v 10.936671 86.442944 14.852955
v 10.936671 86.442944 14.852955
v 19.988386 86.442944 21.077961
v 17.914148 92.940782 23.102667
v 10.936671 92.485198 20.278859
v 10.936671 95.087853 29.913530
v 10.936671 92.485198 20.278859
v 17.914148 92.940782 23.102667
v 10.936671 77.798034 29.913530
v 20.074527 79.858976 29.913530
v 18.859398 80.365705 22.179989
v 18.859398 80.365705 22.179989
v 20.074527 79.858976 29.913530
v 23.929008 86.442944 29.913530
v 19.988386 86.442944 21.077961
v 19.988386 86.442944 21.077961
v 23.929008 86.442944 29.913530
v 20.789310 92.421661 29.913530
v 17.914148 92.940782 23.102667
v 10.936671 95.087853 29.913530
v 17.914148 92.940782 23.102667
v 20.789310 92.421661 29.913530
v -15.047385 85.686501 21.383767
v -9.232288 88.514736 27.456270
v -4.774182 87.771855 21.383767
v -4.774182 87.771855 21.383767
v -9.232288 88.514736 27.456270
v -6.379172 93.690549 30.435679
v -0.727201 93.690549 21.383767
v -0.727201 93.690549 21.383767
v -6.379172 93.690549 30.435679
v -8.327190 99.034362 28.401431
v -6.347464 99.574532 21.383767
v -15.047385 101.694597 21.383767
v -6.347464 99.574532 21.383767
v -8.327190 99.034362 28.401431
v -15.047385 85.686501 21.383767
v -15.047385 87.537685 29.660121
v -9.232288 88.514736 27.456270
v -9.232288 88.514736 27.456270
v -15.047385 87.537685 29.660121
v -15.047385 93.690549 33.158729
v -6.379172 93.690549 30.435679
v -6.379172 93.690549 30.435679
v -15.047385 93.690549 33.158729
v -15.047385 99.294984 30.348049
v -8.327190 99.034362 28.401431
v -15.047385 101.694597 21.383767
v -8.327190 99.034362 28.401431
v -15.047385 99.294984 30.348049
v -15.047385 85.686501 21.383767
v -21.514672 88.547034 28.137329
v -15.047385 87.537685 29.660121
v -15.047385 87.537685 29.660121
v -21.514672 88.547034 28.137329
v -25.544613 93.690549 32.345656
v -15.047385 93.690549 33.158729
v -15.047385 93.690549 33.158729
v -25.544613 93.690549 32.345656
v -21.288241 100.206158 27.900875
v -15.047385 99.294984 30.348049
v -15.047385 101.694597 21.383767
v -15.047385 99.294984 30.348049
v -21.288241 100.206158 27.900875
v -15.047385 85.686501 21.383767
v -24.055976 88.108069 21.383767
v -21.514672 88.547034 28.137329
v -21.514672 88.547034 28.137329
v -24.055976 88.108069 21.383767
v -26.299043 93.690549 21.383767
v -25.544613 93.690549 32.345656
v -25.544613 93.690549 32.345656
v -26.299043 93.690549 21.383767
v -24.480150 99.070675 21.383767
v -21.288241 100.206158 27.900875
v -15.047385 101.694597 21.383767
v -21.288241 100.206158 27.900875
v -24.480150 99.070675 21.383767
v -15.047385 85.686501 21.383767
v -20.640258 88.843472 15.543325
v -24.055976 88.108069 21.383767
v -24.055976 88.108069 21.383767
v -20.640258 88.843472 15.543325
v -23.434670 93.690549 12.625218
v -26.299043 93.690549 21.383767
v -26.299043 93.690549 21.383767
v -23.434670 93.690549 12.625218
v -21.512045 98.631059 14.632948
v -24.480150 99.070675 21.383767
v -15.047385 101.694597 21.383767
v -24.480150 99.070675 21.383767
v -21.512045 98.631059 14.632948
v -15.047385 85.686501 21.383767
v -15.047385 88.620184 11.831125
v -20.640258 88.843472 15.543325
v -20.640258 88.843472 15.543325
v -15.047385 88.620184 11.831125
v -15.047385 93.690549 6.017924
v -23.434670 93.690549 12.625218
v -23.434670 93.690549 12.625218
v -15.047385 93.690549 6.017924
v -15.047385 98.796741 11.365956
v -21.512045 98.631059 14.632948
v -15.047385 101.694597 21.383767
v -21.512045 98.631059 14.632948
v -15.047385 98.796741 11.365956
v -15.047385 85.686501 21.383767
v -9.202483 88.761526 15.280140
v -15.047385 88.620184 11.831125
v -15.047385 88.620184 11.831125
v -9.202483 88.761526 15.280140
v -5.712920 93.690549 11.636112
v -15.047385 93.690549 6.017924
v -15.047385 93.690549 6.017924
v -5.712920 93.690549 11.636112
v -8.432698 100.125438 14.476280
v -15.047385 98.796741 11.365956
v -15.047385 101.694597 21.383767
v -15.047385 98.796741 11.365956
v -8.432698 100.125438 14.476280
v -15.047385 85.686501 21.383767
v -4.774182 87.771855 21.383767
v -9.202483 88.761526 15.280140
v -9.202483 88.761526 15.280140
v -4.774182 87.771855 21.383767
v -0.727201 93.690549 21.383767
v -5.712920 93.690549 11.636112
v -5.712920 93.690549 11.636112
v -0.727201 93.690549 21.383767
v -6.347464 99.574532 21.383767
v -8.432698 100.125438 14.476280
v -15.047385 101.694597 21.383767
v -8.432698 100.125438 14.476280
v -6.347464 99.574532 21.383767
v -25.306898 88.914371 -8.079915
v -19.823782 91.450152 -3.441808
v -17.867332 90.854382 -8.079915
v -17.867332 90.854382 -8.079915
v -19.823782 91.450152 -3.441808
v -18.438071 95.821003 -2.269651
v -12.706813 95.821003 -8.079915
v -12.706813 95.821003 -8.079915
v -18.438071 95.821003 -2.269651
v -19.289821 101.473800 -2.990137
v -18.279947 100.629885 -8.079915
v -25.306898 102.727634 -8.079915
v -18.279947 100.629885 -8.079915
v -19.289821 101.473800 -2.990137
v -25.306898 88.914371 -8.079915
v -25.306898 91.596424 -1.756264
v -19.823782 91.450152 -3.441808
v -19.823782 91.450152 -3.441808
v -25.306898 91.596424 -1.756264
v -25.306898 95.821003 1.567308
v -18.438071 95.821003 -2.269651
v -18.438071 95.821003 -2.269651
v -25.306898 95.821003 1.567308
v -25.306898 100.089641 -1.881126
v -19.289821 101.473800 -2.990137
v -25.306898 102.727634 -8.079915
v -19.289821 101.473800 -2.990137
v -25.306898 100.089641 -1.881126
v -25.306898 88.914371 -8.079915
v -31.436471 90.329646 -2.894977
v -25.306898 91.596424 -1.756264
v -25.306898 91.596424 -1.756264
v -31.436471 90.329646 -2.894977
v -33.401444 95.821003 -1.232829
v -25.306898 95.821003 1.567308
v -25.306898 95.821003 1.567308
v -33.401444 95.821003 -1.232829
v -30.332468 101.167363 -3.828842
v -25.306898 100.089641 -1.881126
v -25.306898 102.727634 -8.079915
v -25.306898 100.089641 -1.881126
v -30.332468 101.167363 -3.828842
v -25.306898 88.914371 -8.079915
v -32.163434 90.752132 -8.079915
v -31.436471 90.329646 -2.894977
v -31.436471 90.329646 -2.894977
v -32.163434 90.752132 -8.079915
v -37.454576 95.821003 -8.079915
v -33.401444 95.821003 -1.232829
v -33.401444 95.821003 -1.232829
v -37.454576 95.821003 -8.079915
v -32.962527 100.880591 -8.079915
v -30.332468 101.167363 -3.828842
v -25.306898 102.727634 -8.079915
v -30.332468 101.167363 -3.828842
v -32.962527 100.880591 -8.079915
v -25.306898 88.914371 -8.079915
v -31.593767 91.176584 -13.397907
v -32.163434 90.752132 -8.079915
v -32.163434 90.752132 -8.079915
v -31.593767 91.176584 -13.397907
v -34.094969 95.821003 -15.513645
v -37.454576 95.821003 -8.079915
v -37.454576 95.821003 -8.079915
v -34.094969 95.821003 -15.513645
v -31.075996 100.377817 -12.959930
v -32.962527 100.880591 -8.079915
v -25.306898 102.727634 -8.079915
v -32.962527 100.880591 -8.079915
v -31.075996 100.377817 -12.959930
v -25.306898 88.914371 -8.079915
v -25.306898 91.375531 -15.123450
v -31.593767 91.176584 -13.397907
v -31.593767 91.176584 -13.397907
v -25.306898 91.375531 -15.123450
v -25.306898 95.821003 -17.795693
v -34.094969 95.821003 -15.513645
v -34.094969 95.821003 -15.513645
v -25.306898 95.821003 -17.795693
v -25.306898 100.244647 -15.113644
v -31.075996 100.377817 -12.959930
v -25.306898 102.727634 -8.079915
v -31.075996 100.377817 -12.959930
v -25.306898 100.244647 -15.113644
v -25.306898 88.914371 -8.079915
v -18.907583 90.903476 -13.493023
v -25.306898 91.375531 -15.123450
v -25.306898 91.375531 -15.123450
v -18.907583 90.903476 -13.493023
v -18.125760 95.821003 -14.154359
v -25.306898 95.821003 -17.795693
v -25.306898 95.821003 -17.795693
v -18.125760 95.821003 -14.154359
v -20.171297 101.040274 -12.424062
v -25.306898 100.244647 -15.113644
v -25.306898 102.727634 -8.079915
v -25.306898 100.244647 -15.113644
v -20.171297 101.040274 -12.424062
v -25.306898 88.914371 -8.079915
v -17.867332 90.854382 -8.079915
v -18.907583 90.903476 -13.493023
v -18.907583 90.903476 -13.493023
v -17.867332 90.854382 -8.079915
v -12.706813 95.821003 -8.079915
v -18.125760 95.821003 -14.154359
v -18.125760 95.821003 -14.154359
v -12.706813 95.821003 -8.079915
v -18.279947 100.629885 -8.079915
v -20.171297 101.040274 -12.424062
v -25.306898 102.727634 -8.079915
v -20.171297 101.040274 -12.424062
v -18.279947 100.629885 -8.079915
v -21.104555 92.160154 -33.112197
v -14.326409 95.042941 -26.230783
v -13.042865 95.000618 -33.112197
v -13.042865 95.000618 -33.112197
v -14.326409 95.042941 -26.230783
v -13.459934 99.752832 -25.351108
v -9.788902 99.752832 -33.112197
v -9.788902 99.752832 -33.112197
v -13.459934 99.752832 -25.351108
v -15.014755 105.016848 -26.929617
v -13.048439 105.581950 -33.112197
v -21.104555 107.345509 -33.112197
v -13.048439 105.581950 -33.112197
v -15.014755 105.016848 -26.929617
v -21.104555 92.160154 -33.112197
v -21.104555 94.164585 -25.183908
v -14.326409 95.042941 -26.230783
v -14.326409 95.042941 -26.230783
v -21.104555 94.164585 -25.183908
v -21.104555 99.752832 -21.658766
v -13.459934 99.752832 -25.351108
v -13.459934 99.752832 -25.351108
v -21.104555 99.752832 -21.658766
v -21.104555 105.204561 -23.018769
v -15.014755 105.016848 -26.929617
v -21.104555 107.345509 -33.112197
v -15.014755 105.016848 -26.929617
v -21.104555 105.204561 -23.018769
v -21.104555 92.160154 -33.112197
v -27.433566 94.713595 -26.686762
v -21.104555 94.164585 -25.183908
v -21.104555 94.164585 -25.183908
v -27.433566 94.713595 -26.686762
v -28.751491 99.752832 -25.348758
v -21.104555 99.752832 -21.658766
v -21.104555 99.752832 -21.658766
v -28.751491 99.752832 -25.348758
v -28.190507 104.844043 -25.918289
v -21.104555 105.204561 -23.018769
v -21.104555 107.345509 -33.112197
v -21.104555 105.204561 -23.018769
v -28.190507 104.844043 -25.918289
v -21.104555 92.160154 -33.112197
v -30.039419 94.758971 -33.112197
v -27.433566 94.713595 -26.686762
v -27.433566 94.713595 -26.686762
v -30.039419 94.758971 -33.112197
v -34.098363 99.752832 -33.112197
v -28.751491 99.752832 -25.348758
v -28.751491 99.752832 -25.348758
v -34.098363 99.752832 -33.112197
v -29.016730 104.926666 -33.112197
v -28.190507 104.844043 -25.918289
v -21.104555 107.345509 -33.112197
v -28.190507 104.844043 -25.918289
v -29.016730 104.926666 -33.112197
v -21.104555 92.160154 -33.112197
v -27.054564 94.058250 -39.152856
v -30.039419 94.758971 -33.112197
v -30.039419 94.758971 -33.112197
v -27.054564 94.058250 -39.152856
v -29.024914 99.752832 -41.153224
v -34.098363 99.752832 -33.112197
v -34.098363 99.752832 -33.112197
v -29.024914 99.752832 -41.153224
v -26.871479 105.382559 -38.966981
v -29.016730 104.926666 -33.112197
v -21.104555 107.345509 -33.112197
v -29.016730 104.926666 -33.112197
v -26.871479 105.382559 -38.966981
v -21.104555 92.160154 -33.112197
v -21.104555 93.938419 -41.984710
v -27.054564 94.058250 -39.152856
v -27.054564 94.058250 -39.152856
v -21.104555 93.938419 -41.984710
v -21.104555 99.752832 -44.332915
v -29.024914 99.752832 -41.153224
v -29.024914 99.752832 -41.153224
v -21.104555 99.752832 -44.332915
v -21.104555 105.162995 -41.899176
v -26.871479 105.382559 -38.966981
v -21.104555 107.345509 -33.112197
v -26.871479 105.382559 -38.966981
v -21.104555 105.162995 -41.899176
v -21.104555 92.160154 -33.112197
v -14.228352 93.732143 -40.093160
v -21.104555 93.938419 -41.984710
v -21.104555 93.938419 -41.984710
v -14.228352 93.732143 -40.093160
v -12.996326 99.752832 -41.343957
v -21.104555 99.752832 -44.332915
v -21.104555 99.752832 -44.332915
v -12.996326 99.752832 -41.343957
v -14.084565 105.505787 -40.239139
v -21.104555 105.162995 -41.899176
v -21.104555 107.345509 -33.112197
v -21.104555 105.162995 -41.899176
v -14.084565 105.505787 -40.239139
v -21.104555 92.160154 -33.112197
v -13.042865 95.000618 -33.112197
v -14.228352 93.732143 -40.093160
v -14.228352 93.732143 -40.093160
v -13.042865 95.000618 -33.112197
v -9.788902 99.752832 -33.112197
v -12.996326 99.752832 -41.343957
v -12.996326 99.752832 -41.343957
v -9.788902 99.752832 -33.112197
v -13.048439 105.581950 -33.112197
v -14.084565 105.505787 -40.239139
v -21.104555 107.345509 -33.112197
v -14.084565 105.505787 -40.239139
v -13.048439 105.581950 -33.112197
v 12.108253 93.514347 -37.537962
v 18.674280 96.234390 -32.441710
v 22.222800 95.556679 -37.537962
v 22.222800 95.556679 -37.537962
v 18.674280 96.234390 -32.441710
v 22.946801 102.033666 -29.125574
v 25.882817 102.033666 -37.537962
v 25.882817 102.033666 -37.537962
v 22.946801 102.033666 -29.125574
v 18.900560 108.092105 -32.266082
v 21.956973 108.681331 -37.537962
v 12.108253 110.552986 -37.537962
v 21.956973 108.681331 -37.537962
v 18.900560 108.092105 -32.266082
v 12.108253 93.514347 -37.537962
v 12.108253 95.434032 -29.339818
v 18.674280 96.234390 -32.441710
v 18.674280 96.234390 -32.441710
v 12.108253 95.434032 -29.339818
v 12.108253 102.033666 -27.610632
v 22.946801 102.033666 -29.125574
v 22.946801 102.033666 -29.125574
v 12.108253 102.033666 -27.610632
v 12.108253 108.529970 -31.109156
v 18.900560 108.092105 -32.266082
v 12.108253 110.552986 -37.537962
v 18.900560 108.092105 -32.266082
v 12.108253 108.529970 -31.109156
v 12.108253 93.514347 -37.537962
v 5.029352 96.570613 -32.043640
v 12.108253 95.434032 -29.339818
v 12.108253 95.434032 -29.339818
v 5.029352 96.570613 -32.043640
v 2.521719 102.033666 -30.097330
v 12.108253 102.033666 -27.610632
v 12.108253 102.033666 -27.610632
v 2.521719 102.033666 -30.097330
v 5.314845 107.272439 -32.265227
v 12.108253 108.529970 -31.109156
v 12.108253 110.552986 -37.537962
v 12.108253 108.529970 -31.109156
v 5.314845 107.272439 -32.265227
v 12.108253 93.514347 -37.537962
v 2.747966 96.440550 -37.537962
v 5.029352 96.570613 -32.043640
v 5.029352 96.570613 -32.043640
v 2.747966 96.440550 -37.537962
v -0.754662 102.033666 -37.537962
v 2.521719 102.033666 -30.097330
v 2.521719 102.033666 -30.097330
v -0.754662 102.033666 -37.537962
v 2.659895 107.618759 -37.537962
v 5.314845 107.272439 -32.265227
v 12.108253 110.552986 -37.537962
v 5.314845 107.272439 -32.265227
v 2.659895 107.618759 -37.537962
v 12.108253 93.514347 -37.537962
v 5.424656 96.722854 -42.725466
v 2.747966 96.440550 -37.537962
v 2.747966 96.440550 -37.537962
v 5.424656 96.722854 -42.725466
v 1.876963 102.033666 -45.479025
v -0.754662 102.033666 -37.537962
v -0.754662 102.033666 -37.537962
v 1.876963 102.033666 -45.479025
v 4.760834 108.786328 -43.240694
v 2.659895 107.618759 -37.537962
v 12.108253 110.552986 -37.537962
v 2.659895 107.618759 -37.537962
v 4.760834 108.786328 -43.240694
v 12.108253 93.514347 -37.537962
v 12.108253 95.561470 -44.164463
v 5.424656 96.722854 -42.725466
v 5.424656 96.722854 -42.725466
v 12.108253 95.561470 -44.164463
v 12.108253 102.033666 -49.182344
v 1.876963 102.033666 -45.479025
v 1.876963 102.033666 -45.479025
v 12.108253 102.033666 -49.182344
v 12.108253 108.693988 -43.975257
v 4.760834 108.786328 -43.240694
v 12.108253 110.552986 -37.537962
v 4.760834 108.786328 -43.240694
v 12.108253 108.693988 -43.975257
v 12.108253 93.514347 -37.537962
v 18.977645 95.476974 -42.869672
v 12.108253 95.561470 -44.164463
v 12.108253 95.561470 -44.164463
v 18.977645 95.476974 -42.869672
v 21.274094 102.033666 -44.652070
v 12.108253 102.033666 -49.182344
v 12.108253 102.033666 -49.182344
v 21.274094 102.033666 -44.652070
v 18.287839 108.268108 -42.334276
v 12.108253 108.693988 -43.975257
v 12.108253 110.552986 -37.537962
v 12.108253 108.693988 -43.975257
v 18.287839 108.268108 -42.334276
v 12.108253 93.514347 -37.537962
v 22.222800 95.556679 -37.537962
v 18.977645 95.476974 -42.869672
v 18.977645 95.476974 -42.869672
v 22.222800 95.556679 -37.537962
v 25.882817 102.033666 -37.537962
v 21.274094 102.033666 -44.652070
v 21.274094 102.033666 -44.652070
v 25.882817 102.033666 -37.537962
v 21.956973 108.681331 -37.537962
v 18.287839 108.268108 -42.334276
v 12.108253 110.552986 -37.537962
v 18.287839 108.268108 -42.334276
v 21.956973 108.681331 -37.537962
v 5.916800 95.450617 -2.218800
v 11.506389 97.811459 1.955380
v 13.772809 97.779315 -2.218800
v 13.772809 97.779315 -2.218800
v 11.506389 97.811459 1.955380
v 14.031160 102.544009 3.840823
v 17.406396 102.544009 -2.218800
v 17.406396 102.544009 -2.218800
v 14.031160 102.544009 3.840823
v 11.933411 106.776889 2.274271
v 15.106254 106.810852 -2.218800
v 5.916800 109.637401 -2.218800
v 15.106254 106.810852 -2.218800
v 11.933411 106.776889 2.274271
v 5.916800 95.450617 -2.218800
v 5.916800 98.106032 4.085241
v 11.506389 97.811459 1.955380
v 11.506389 97.811459 1.955380
v 5.916800 98.106032 4.085241
v 5.916800 102.544009 5.130913
v 14.031160 102.544009 3.840823
v 14.031160 102.544009 3.840823
v 5.916800 102.544009 5.130913
v 5.916800 106.982074 3.692902
v 11.933411 106.776889 2.274271
v 5.916800 109.637401 -2.218800
v 11.933411 106.776889 2.274271
v 5.916800 106.982074 3.692902
v 5.916800 95.450617 -2.218800
v 0.601409 98.080260 1.750615
v 5.916800 98.106032 4.085241
v 5.916800 98.106032 4.085241
v 0.601409 98.080260 1.750615
v -1.939793 102.544009 3.648328
v 5.916800 102.544009 5.130913
v 5.916800 102.544009 5.130913
v -1.939793 102.544009 3.648328
v 0.709120 108.196411 1.670179
v 5.916800 106.982074 3.692902
v 5.916800 109.637401 -2.218800
v 5.916800 106.982074 3.692902
v 0.709120 108.196411 1.670179
v 5.916800 95.450617 -2.218800
v -1.287889 97.434800 -2.218800
v 0.601409 98.080260 1.750615
v 0.601409 98.080260 1.750615
v -1.287889 97.434800 -2.218800
v -3.893508 102.544009 -2.218800
v -1.939793 102.544009 3.648328
v -1.939793 102.544009 3.648328
v -3.893508 102.544009 -2.218800
v -3.217588 106.981907 -2.218800
v 0.709120 108.196411 1.670179
v 5.916800 109.637401 -2.218800
v 0.709120 108.196411 1.670179
v -3.217588 106.981907 -2.218800
v 5.916800 95.450617 -2.218800
v -0.527775 97.499383 -7.031464
v -1.287889 97.434800 -2.218800
v -1.287889 97.434800 -2.218800
v -0.527775 97.499383 -7.031464
v -1.520184 102.544009 -7.772573
v -3.893508 102.544009 -2.218800
v -3.893508 102.544009 -2.218800
v -1.520184 102.544009 -7.772573
v -0.347261 107.355564 -6.896661
v -3.217588 106.981907 -2.218800
v 5.916800 109.637401 -2.218800
v -3.217588 106.981907 -2.218800
v -0.347261 107.355564 -6.896661
v 5.916800 95.450617 -2.218800
v 5.916800 97.087231 -7.923657
v -0.527775 97.499383 -7.031464
v -0.527775 97.499383 -7.031464
v 5.916800 97.087231 -7.923657
v 5.916800 102.544009 -10.384439
v -1.520184 102.544009 -7.772573
v -1.520184 102.544009 -7.772573
v 5.916800 102.544009 -10.384439
v 5.916800 107.700846 -7.749608
v -0.347261 107.355564 -6.896661
v 5.916800 109.637401 -2.218800
v -0.347261 107.355564 -6.896661
v 5.916800 107.700846 -7.749608
v 5.916800 95.450617 -2.218800
v 12.432478 97.430027 -7.084563
v 5.916800 97.087231 -7.923657
v 5.916800 97.087231 -7.923657
v 12.432478 97.430027 -7.084563
v 12.745988 102.544009 -7.318685
v 5.916800 102.544009 -10.384439
v 5.916800 102.544009 -10.384439
v 12.745988 102.544009 -7.318685
v 11.672918 107.459026 -6.517340
v 5.916800 107.700846 -7.749608
v 5.916800 109.637401 -2.218800
v 5.916800 107.700846 -7.749608
v 11.672918 107.459026 -6.517340
v 5.916800 95.450617 -2.218800
v 13.772809 97.779315 -2.218800
v 12.432478 97.430027 -7.084563
v 12.432478 97.430027 -7.084563
v 13.772809 97.779315 -2.218800
v 17.406396 102.544009 -2.218800
v 12.745988 102.544009 -7.318685
v 12.745988 102.544009 -7.318685
v 17.406396 102.544009 -2.218800
v 15.106254 106.810852 -2.218800
v 11.672918 107.459026 -6.517340
v 5.916800 109.637401 -2.218800
v 11.672918 107.459026 -6.517340
v 15.106254 106.810852 -2.218800
vt 0.000000 0.000000
vt 1.000000 0.000000
vt 1.000000 1.000000
vt 0.000000 1.000000
vt 0.500000 1.000000
vt 0.000000 0.000000
vt 1.000000 0.000000
vt 0.000000 0.000000
vt 1.000000 0.000000
vt 1.000000 1.000000
vt 0.000000 1.000000
vt 0.500000 1.000000
vt 0.000000 0.000000
vt 1.000000 0.000000
vt 0.000000 0.000000
vt 1.000000 0.000000
vt 1.000000 1.000000
vt 0.000000 1.000000
vt 0.500000 1.000000
vt 0.000000 0.000000
vt 1.000000 0.000000
vt 0.000000 0.000000
vt 1.000000 0.000000
vt 1.000000 1.000000
vt 0.000000 1.000000
vt 0.500000 1.000000
vt 0.000000 0.000000
vt 1.000000 0.000000
vt 0.000000 0.000000
vt 1.000000 0.000000
vt 1.000000 1.000000
vt 0.000000 1.000000
vt 0.500000 1.000000
vt 0.000000 0.000000
vt 1.000000 0.000000
vt 0.000000 0.000000
vt 1.000000 0.000000
vt 1.000000 1.000000
vt 0.000000 1.000000
vt 0.500000 1.000000
vt 0.000000 0.000000
vt 1.000000 0.000000
vt 0.000000 0.000000
vt 1.000000 0.000000
vt 1.000000 1.000000
vt 0.000000 1.000000
vt 0.500000 1.000000
vt 0.000000 0.000000
vt 1.000000 0.000000
vt 0.000000 0.000000
vt 1.000000 0.000000
vt 1.000000 1.000000
vt 0.000000 1.000000
vt 0.500000 1.000000
vt 0.000000 0.000000
vt 1.000000 0.000000
vt 0.000000 0.000000
vt 1.000000 0.000000
vt 1.000000 1.000000
vt 0.000000 1.000000
vt 0.500000 1.000000
vt 0.000000 0.000000
vt 1.000000 0.000000
vt 0.000000 0.000000
vt 1.000000 0.000000
vt 1.000000 1.000000
vt 0.000000 1.000000
vt 0.000000 0.000000
vt 1.000000 0.000000
vt 1.000000 1.000000
vt 0.000000 1.000000
vt 0.000000 0.000000
vt 1.000000 0.000000
vt 1.000000 1.000000
vt 0.000000 1.000000
vt 0.000000 0.000000
vt 1.000000 0.000000
vt 1.000000 1.000000
vt 0.000000 1.000000
vt 0.000000 0.000000
vt 1.000000 0.000000
vt 1.000000 1.000000
vt 0.000000 1.000000
vt 0.000000 0.000000
vt 1.000000 0.000000
vt 1.000000 1.000000
vt 0.000000 1.000000
vt 0.000000 0.000000
vt 1.000000 0.000000
vt 1.000000 1.000000
vt 0.000000 1.000000
vt 0.000000 0.000000
vt 1.000000 0.000000
vt 1.000000 1.000000
vt 0.000000 1.000000
vt 0.000000 0.000000
vt 1.000000 0.000000
vt 1.000000 1.000000
vt 0.000000 1.000000
vt 0.000000 0.000000
vt 1.000000 0.000000
vt 1.000000 1.000000
vt 0.000000 1.000000
vt 0.500000 1.000000
vt 0.000000 0.000000
vt 1.000000 0.000000
vt 0.000000 0.000000
vt 1.000000 0.000000
vt 1.000000 1.000000
vt 0.000000 1.000000
vt 0.500000 1.000000
vt 0.000000 0.000000
vt 1.000000 0.000000
vt 0.000000 0.000000
vt 1.000000 0.000000
vt 1.000000 1.000000
vt 0.000000 1.000000
vt 0.500000 1.000000
vt 0.000000 0.000000
vt 1.000000 0.000000
vt 0.000000 0.000000
vt 1.000000 0.000000
vt 1.000000 1.000000
vt 0.000000 1.000000
vt 0.500000 1.000000
vt 0.000000 0.000000
vt 1.000000 0.000000
vt 0.000000 0.000000
vt 1.000000 0.000000
vt 1.000000 1.000000
vt 0.000000 1.000000
vt 0.500000 1.000000
vt 0.000000 0.000000
vt 1.000000 0.000000
vt 0.000000 0.000000
vt 1.000000 0.000000
vt 1.000000 1.000000
vt 0.000000 1.000000
vt 0.500000 1.000000
vt 0.000000 0.000000
vt 1.000000 0.000000
vt 0.000000 0.000000
vt 1.000000 0.000000
vt 1.000000 1.000000
vt 0.000000 1.000000
vt 0.500000 1.000000
vt 0.000000 0.000000
vt 1.000000 0.000000
vt 0.000000 0.000000
vt 1.000000 0.000000
vt 1.000000 1.000000
vt 0.000000 1.000000
vt 0.500000 1.000000
vt 0.000000 0.000000
vt 1.000000 0.000000
vt 0.000000 0.000000
vt 1.000000 0.000000
vt 1.000000 1.000000
vt 0.000000 1.000000
vt 0.500000 1.000000
vt 0.000000 0.000000
vt 1.000000 0.000000
vt 0.000000 0.000000
vt 1.000000 0.000000
vt 1.000000 1.000000
vt 0.000000 1.000000
vt 0.500000 1.000000
vt 0.000000 0.000000
vt 1.000000 0.000000
vt 0.000000 0.000000
vt 1.000000 0.000000
vt 1.000000 1.000000
vt 0.000000 1.000000
vt 0.500000 1.000000
vt 0.000000 0.000000
vt 1.000000 0.000000
vt 0.000000 0.000000
vt 1.000000 0.000000
vt 1.000000 1.000000
vt 0.000000 1.000000
vt 0.500000 1.000000
vt 0.000000 0.000000
vt 1.000000 0.000000
vt 0.000000 0.000000
vt 1.000000 0.000000
vt 1.000000 1.000000
vt 0.000000 1.000000
vt 0.500000 1.000000
vt 0.000000 0.000000
vt 1.000000 0.000000
vt 0.000000 0.000000
vt 1.000000 0.000000
vt 1.000000 1.000000
vt 0.000000 1.000000
vt 0.500000 1.000000
vt 0.000000 0.000000
vt 1.000000 0.000000
vt 0.000000 0.000000
vt 1.000000 0.000000
vt 1.000000 1.000000
vt 0.000000 1.000000
vt 0.500000 1.000000
vt 0.000000 0.000000
vt 1.000000 0.000000
vt 0.000000 0.000000
vt 1.000000 0.000000
vt 1.000000 1.000000
vt 0.000000 1.000000
vt 0.500000 1.000000
vt 0.000000 0.000000
vt 1.000000 0.000000
vt 0.000000 0.000000
vt 1.000000 0.000000
vt 1.000000 1.000000
vt 0.000000 1.000000
vt 0.500000 1.000000
vt 0.000000 0.000000
vt 1.000000 0.000000
vt 0.000000 0.000000
vt 1.000000 0.000000
vt 1.000000 1.000000
vt 0.000000 1.000000
vt 0.500000 1.000000
vt 0.000000 0.000000
vt 1.000000 0.000000
vt 0.000000 0.000000
vt 1.000000 0.000000
vt 1.000000 1.000000
vt 0.000000 1.000000
vt 0.500000 1.000000
vt 0.000000 0.000000
vt 1.000000 0.000000
vt 0.000000 0.000000
vt 1.000000 0.000000
vt 1.000000 1.000000
vt 0.000000 1.000000
vt 0.500000 1.000000
vt 0.000000 0.000000
vt 1.000000 0.000000
vt 0.000000 0.000000
vt 1.000000 0.000000
vt 1.000000 1.000000
vt 0.000000 1.000000
vt 0.500000 1.000000
vt 0.000000 0.000000
vt 1.000000 0.000000
vt 0.000000 0.000000
vt 1.000000 0.000000
vt 1.000000 1.000000
vt 0.000000 1.000000
vt 0.500000 1.000000
vt 0.000000 0.000000
vt 1.000000 0.000000
vt 0.000000 0.000000
vt 1.000000 0.000000
vt 1.000000 1.000000
vt 0.000000 1.000000
vt 0.500000 1.000000
vt 0.000000 0.000000
vt 1.000000 0.000000
vt 0.000000 0.000000
vt 1.000000 0.000000
vt 1.000000 1.000000
vt 0.000000 1.000000
vt 0.500000 1.000000
vt 0.000000 0.000000
vt 1.000000 0.000000
vt 0.000000 0.000000
vt 1.000000 0.000000
vt 1.000000 1.000000
vt 0.000000 1.000000
vt 0.500000 1.000000
vt 0.000000 0.000000
vt 1.000000 0.000000
vt 0.000000 0.000000
vt 1.000000 0.000000
vt 1.000000 1.000000
vt 0.000000 1.000000
vt 0.500000 1.000000
vt 0.000000 0.000000
vt 1.000000 0.000000
vt 0.000000 0.000000
vt 1.000000 0.000000
vt 1.000000 1.000000
vt 0.000000 1.000000
vt 0.500000 1.000000
vt 0.000000 0.000000
vt 1.000000 0.000000
vt 0.000000 0.000000
vt 1.000000 0.000000
vt 1.000000 1.000000
vt 0.000000 1.000000
vt 0.500000 1.000000
vt 0.000000 0.000000
vt 1.000000 0.000000
vt 0.000000 0.000000
vt 1.000000 0.000000
vt 1.000000 1.000000
vt 0.000000 1.000000
vt 0.500000 1.000000
vt 0.000000 0.000000
vt 1.000000 0.000000
vt 0.000000 0.000000
vt 1.000000 0.000000
vt 1.000000 1.000000
vt 0.000000 1.000000
vt 0.500000 1.000000
vt 0.000000 0.000000
vt 1.000000 0.000000
vt 0.000000 0.000000
vt 1.000000 0.000000
vt 1.000000 1.000000
vt 0.000000 1.000000
vt 0.500000 1.000000
vt 0.000000 0.000000
vt 1.000000 0.000000
vt 0.000000 0.000000
vt 1.000000 0.000000
vt 1.000000 1.000000
vt 0.000000 1.000000
vt 0.500000 1.000000
vt 0.000000 0.000000
vt 1.000000 0.000000
vt 0.000000 0.000000
vt 1.000000 0.000000
vt 1.000000 1.000000
vt 0.000000 1.000000
vt 0.500000 1.000000
vt 0.000000 0.000000
vt 1.000000 0.000000
vt 0.000000 0.000000
vt 1.000000 0.000000
vt 1.000000 1.000000
vt 0.000000 1.000000
vt 0.500000 1.000000
vt 0.000000 0.000000
vt 1.000000 0.000000
vt 0.000000 0.000000
vt 1.000000 0.000000
vt 1.000000 1.000000
vt 0.000000 1.000000
vt 0.500000 1.000000
vt 0.000000 0.000000
vt 1.000000 0.000000
vt 0.000000 0.000000
vt 1.000000 0.000000
vt 1.000000 1.000000
vt 0.000000 1.000000
vt 0.500000 1.000000
vt 0.000000 0.000000
vt 1.000000 0.000000
vt 0.000000 0.000000
vt 1.000000 0.000000
vt 1.000000 1.000000
vt 0.000000 1.000000
vt 0.500000 1.000000
vt 0.000000 0.000000
vt 1.000000 0.000000
vt 0.000000 0.000000
vt 1.000000 0.000000
vt 1.000000 1.000000
vt 0.000000 1.000000
vt 0.500000 1.000000
vt 0.000000 0.000000
vt 1.000000 0.000000
vt 0.000000 0.000000
vt 1.000000 0.000000
vt 1.000000 1.000000
vt 0.000000 1.000000
vt 0.500000 1.000000
vt 0.000000 0.000000
vt 1.000000 0.000000
vt 0.000000 0.000000
vt 1.000000 0.000000
vt 1.000000 1.000000
vt 0.000000 1.000000
vt 0.500000 1.000000
vt 0.000000 0.000000
vt 1.000000 0.000000
vt 0.000000 0.000000
vt 1.000000 0.000000
vt 1.000000 1.000000
vt 0.000000 1.000000
vt 0.500000 1.000000
vt 0.000000 0.000000
vt 1.000000 0.000000
vt 0.000000 0.000000
vt 1.000000 0.000000
vt 1.000000 1.000000
vt 0.000000 1.000000
vt 0.500000 1.000000
vt 0.000000 0.000000
vt 1.000000 0.000000
vt 0.000000 0.000000
vt 1.000000 0.000000
vt 1.000000 1.000000
vt 0.000000 1.000000
vt 0.500000 1.000000
vt 0.000000 0.000000
vt 1.000000 0.000000
vt 0.000000 0.000000
vt 1.000000 0.000000
vt 1.000000 1.000000
vt 0.000000 1.000000
vt 0.500000 1.000000
vt 0.000000 0.000000
vt 1.000000 0.000000
vt 0.000000 0.000000
vt 1.000000 0.000000
vt 1.000000 1.000000
vt 0.000000 1.000000
vt 0.500000 1.000000
vt 0.000000 0.000000
vt 1.000000 0.000000
vt 0.000000 0.000000
vt 1.000000 0.000000
vt 1.000000 1.000000
vt 0.000000 1.000000
vt 0.500000 1.000000
vt 0.000000 0.000000
vt 1.000000 0.000000
vt 0.000000 0.000000
vt 1.000000 0.000000
vt 1.000000 1.000000
vt 0.000000 1.000000
vt 0.500000 1.000000
vt 0.000000 0.000000
vt 1.000000 0.000000
vt 0.000000 0.000000
vt 1.000000 0.000000
vt 1.000000 1.000000
vt 0.000000 1.000000
vt 0.500000 1.000000
vt 0.000000 0.000000
vt 1.000000 0.000000
vt 0.000000 0.000000
vt 1.000000 0.000000
vt 1.000000 1.000000
vt 0.000000 1.000000
vt 0.500000 1.000000
vt 0.000000 0.000000
vt 1.000000 0.000000
vt 0.000000 0.000000
vt 1.000000 0.000000
vt 1.000000 1.000000
vt 0.000000 1.000000
vt 0.500000 1.000000
vt 0.000000 0.000000
vt 1.000000 0.000000
vt 0.000000 0.000000
vt 1.000000 0.000000
vt 1.000000 1.000000
vt 0.000000 1.000000
vt 0.500000 1.000000
vt 0.000000 0.000000
vt 1.000000 0.000000
vt 0.000000 0.000000
vt 1.000000 0.000000
vt 1.000000 1.000000
vt 0.000000 1.000000
vt 0.500000 1.000000
vt 0.000000 0.000000
vt 1.000000 0.000000
vt 0.000000 0.000000
vt 1.000000 0.000000
vt 1.000000 1.000000
vt 0.000000 1.000000
vt 0.500000 1.000000
vt 0.000000 0.000000
vt 1.000000 0.000000
vt 0.000000 0.000000
vt 1.000000 0.000000
vt 1.000000 1.000000
vt 0.000000 1.000000
vt 0.500000 1.000000
vt 0.000000 0.000000
vt 1.000000 0.000000
vt 0.000000 0.000000
vt 1.000000 0.000000
vt 1.000000 1.000000
vt 0.000000 1.000000
vt 0.500000 1.000000
vt 0.000000 0.000000
vt 1.000000 0.000000
vt 0.000000 0.000000
vt 1.000000 0.000000
vt 1.000000 1.000000
vt 0.000000 1.000000
vt 0.500000 1.000000
vt 0.000000 0.000000
vt 1.000000 0.000000
vt 0.000000 0.000000
vt 1.000000 0.000000
vt 1.000000 1.000000
vt 0.000000 1.000000
vt 0.500000 1.000000
vt 0.000000 0.000000
vt 1.000000 0.000000
vt 0.000000 0.000000
vt 1.000000 0.000000
vt 1.000000 1.000000
vt 0.000000 1.000000
vt 0.500000 1.000000
vt 0.000000 0.000000
vt 1.000000 0.000000
vt 0.000000 0.000000
vt 1.000000 0.000000
vt 1.000000 1.000000
vt 0.000000 1.000000
vt 0.500000 1.000000
vt 0.000000 0.000000
vt 1.000000 0.000000
vt 0.000000 0.000000
vt 1.000000 0.000000
vt 1.000000 1.000000
vt 0.000000 1.000000
vt 0.500000 1.000000
vt 0.000000 0.000000
vt 1.000000 0.000000
vt 0.000000 0.000000
vt 1.000000 0.000000
vt 1.000000 1.000000
vt 0.000000 1.000000
vt 0.500000 1.000000
vt 0.000000 0.000000
vt 1.000000 0.000000
vt 0.000000 0.000000
vt 1.000000 0.000000
vt 1.000000 1.000000
vt 0.000000 1.000000
vt 0.500000 1.000000
vt 0.000000 0.000000
vt 1.000000 0.000000
vt 0.000000 0.000000
vt 1.000000 0.000000
vt 1.000000 1.000000
vt 0.000000 1.000000
vt 0.500000 1.000000
vt 0.000000 0.000000
vt 1.000000 0.000000
vt 0.000000 0.000000
vt 1.000000 0.000000
vt 1.000000 1.000000
vt 0.000000 1.000000
vt 0.500000 1.000000
vt 0.000000 0.000000
vt 1.000000 0.000000
vt 0.000000 0.000000
vt 1.000000 0.000000
vt 1.000000 1.000000
vt 0.000000 1.000000
vt 0.500000 1.000000
vt 0.000000 0.000000
vt 1.000000 0.000000
vt 0.000000 0.000000
vt 1.000000 0.000000
vt 1.000000 1.000000
vt 0.000000 1.000000
vt 0.500000 1.000000
vt 0.000000 0.000000
vt 1.000000 0.000000
vt 0.000000 0.000000
vt 1.000000 0.000000
vt 1.000000 1.000000
vt 0.000000 1.000000
vt 0.500000 1.000000
vt 0.000000 0.000000
vt 1.000000 0.000000
vt 0.000000 0.000000
vt 1.000000 0.000000
vt 1.000000 1.000000
vt 0.000000 1.000000
vt 0.500000 1.000000
vt 0.000000 0.000000
vt 1.000000 0.000000
vt 0.000000 0.000000
vt 1.000000 0.000000
vt 1.000000 1.000000
vt 0.000000 1.000000
vt 0.500000 1.000000
vt 0.000000 0.000000
vt 1.000000 0.000000
vt 0.000000 0.000000
vt 1.000000 0.000000
vt 1.000000 1.000000
vt 0.000000 1.000000
vt 0.500000 1.000000
vt 0.000000 0.000000
vt 1.000000 0.000000
vt 0.000000 0.000000
vt 1.000000 0.000000
vt 1.000000 1.000000
vt 0.000000 1.000000
vt 0.500000 1.000000
vt 0.000000 0.000000
vt 1.000000 0.000000
vt 0.000000 0.000000
vt 1.000000 0.000000
vt 1.000000 1.000000
vt 0.000000 1.000000
vt 0.500000 1.000000
vt 0.000000 0.000000
vt 1.000000 0.000000
vt 0.000000 0.000000
vt 1.000000 0.000000
vt 1.000000 1.000000
vt 0.000000 1.000000
vt 0.500000 1.000000
vt 0.000000 0.000000
vt 1.000000 0.000000
vt 0.000000 0.000000
vt 1.000000 0.000000
vt 1.000000 1.000000
vt 0.000000 1.000000
vt 0.500000 1.000000
vt 0.000000 0.000000
vt 1.000000 0.000000
vt 0.000000 0.000000
vt 1.000000 0.000000
vt 1.000000 1.000000
vt 0.000000 1.000000
vt 0.500000 1.000000
vt 0.000000 0.000000
vt 1.000000 0.000000
vt 0.000000 0.000000
vt 1.000000 0.000000
vt 1.000000 1.000000
vt 0.000000 1.000000
vt 0.500000 1.000000
vt 0.000000 0.000000
vt 1.000000 0.000000
vt 0.000000 0.000000
vt 1.000000 0.000000
vt 1.000000 1.000000
vt 0.000000 1.000000
vt 0.500000 1.000000
vt 0.000000 0.000000
vt 1.000000 0.000000
vt 0.000000 0.000000
vt 1.000000 0.000000
vt 1.000000 1.000000
vt 0.000000 1.000000
vt 0.500000 1.000000
vt 0.000000 0.000000
vt 1.000000 0.000000
vt 0.000000 0.000000
vt 1.000000 0.000000
vt 1.000000 1.000000
vt 0.000000 1.000000
vt 0.500000 1.000000
vt 0.000000 0.000000
vt 1.000000 0.000000
vt 0.000000 0.000000
vt 1.000000 0.000000
vt 1.000000 1.000000
vt 0.000000 1.000000
vt 0.500000 1.000000
vt 0.000000 0.000000
vt 1.000000 0.000000
vt 0.000000 0.000000
vt 1.000000 0.000000
vt 1.000000 1.000000
vt 0.000000 1.000000
vt 0.500000 1.000000
vt 0.000000 0.000000
vt 1.000000 0.000000
vt 0.500000 1.000000
vt 0.000000 0.000000
vt 1.000000 0.000000
vt 0.000000 0.000000
vt 1.000000 0.000000
vt 1.000000 1.000000
vt 0.000000 1.000000
vt 0.000000 0.000000
vt 1.000000 0.000000
vt 1.000000 1.000000
vt 0.000000 1.000000
vt 0.500000 1.000000
vt 0.000000 0.000000
vt 1.000000 0.000000
vt 0.500000 1.000000
vt 0.000000 0.000000
vt 1.000000 0.000000
vt 0.000000 0.000000
vt 1.000000 0.000000
vt 1.000000 1.000000
vt 0.000000 1.000000
vt 0.000000 0.000000
vt 1.000000 0.000000
vt 1.000000 1.000000
vt 0.000000 1.000000
vt 0.500000 1.000000
vt 0.000000 0.000000
vt 1.000000 0.000000
vt 0.500000 1.000000
vt 0.000000 0.000000
vt 1.000000 0.000000
vt 0.000000 0.000000
vt 1.000000 0.000000
vt 1.000000 1.000000
vt 0.000000 1.000000
vt 0.000000 0.000000
vt 1.000000 0.000000
vt 1.000000 1.000000
vt 0.000000 1.000000
vt 0.500000 1.000000
vt 0.000000 0.000000
vt 1.000000 0.000000
vt 0.500000 1.000000
vt 0.000000 0.000000
vt 1.000000 0.000000
vt 0.000000 0.000000
vt 1.000000 0.000000
vt 1.000000 1.000000
vt 0.000000 1.000000
vt 0.000000 0.000000
vt 1.000000 0.000000
vt 1.000000 1.000000
vt 0.000000 1.000000
vt 0.500000 1.000000
vt 0.000000 0.000000
vt 1.000000 0.000000
vt 0.500000 1.000000
vt 0.000000 0.000000
vt 1.000000 0.000000
vt 0.000000 0.000000
vt 1.000000 0.000000
vt 1.000000 1.000000
vt 0.000000 1.000000
vt 0.000000 0.000000
vt 1.000000 0.000000
vt 1.000000 1.000000
vt 0.000000 1.000000
vt 0.500000 1.000000
vt 0.000000 0.000000
vt 1.000000 0.000000
vt 0.500000 1.000000
vt 0.000000 0.000000
vt 1.000000 0.000000
vt 0.000000 0.000000
vt 1.000000 0.000000
vt 1.000000 1.000000
vt 0.000000 1.000000
vt 0.000000 0.000000
vt 1.000000 0.000000
vt 1.000000 1.000000
vt 0.000000 1.000000
vt 0.500000 1.000000
vt 0.000000 0.000000
vt 1.000000 0.000000
vt 0.500000 1.000000
vt 0.000000 0.000000
vt 1.000000 0.000000
vt 0.000000 0.000000
vt 1.000000 0.000000
vt 1.000000 1.000000
vt 0.000000 1.000000
vt 0.000000 0.000000
vt 1.000000 0.000000
vt 1.000000 1.000000
vt 0.000000 1.000000
vt 0.500000 1.000000
vt 0.000000 0.000000
vt 1.000000 0.000000
vt 0.500000 1.000000
vt 0.000000 0.000000
vt 1.000000 0.000000
vt 0.000000 0.000000
vt 1.000000 0.000000
vt 1.000000 1.000000
vt 0.000000 1.000000
vt 0.000000 0.000000
vt 1.000000 0.000000
vt 1.000000 1.000000
vt 0.000000 1.000000
vt 0.500000 1.000000
vt 0.000000 0.000000
vt 1.000000 0.000000
vt 0.500000 1.000000
vt 0.000000 0.000000
vt 1.000000 0.000000
vt 0.000000 0.000000
vt 1.000000 0.000000
vt 1.000000 1.000000
vt 0.000000 1.000000
vt 0.000000 0.000000
vt 1.000000 0.000000
vt 1.000000 1.000000
vt 0.000000 1.000000
vt 0.500000 1.000000
vt 0.000000 0.000000
vt 1.000000 0.000000
vt 0.500000 1.000000
vt 0.000000 0.000000
vt 1.000000 0.000000
vt 0.000000 0.000000
vt 1.000000 0.000000
vt 1.000000 1.000000
vt 0.000000 1.000000
vt 0.000000 0.000000
vt 1.000000 0.000000
vt 1.000000 1.000000
vt 0.000000 1.000000
vt 0.500000 1.000000
vt 0.000000 0.000000
vt 1.000000 0.000000
vt 0.500000 1.000000
vt 0.000000 0.000000
vt 1.000000 0.000000
vt 0.000000 0.000000
vt 1.000000 0.000000
vt 1.000000 1.000000
vt 0.000000 1.000000
vt 0.000000 0.000000
vt 1.000000 0.000000
vt 1.000000 1.000000
vt 0.000000 1.000000
vt 0.500000 1.000000
vt 0.000000 0.000000
vt 1.000000 0.000000
vt 0.500000 1.000000
vt 0.000000 0.000000
vt 1.000000 0.000000
vt 0.000000 0.000000
vt 1.000000 0.000000
vt 1.000000 1.000000
vt 0.000000 1.000000
vt 0.000000 0.000000
vt 1.000000 0.000000
vt 1.000000 1.000000
vt 0.000000 1.000000
vt 0.500000 1.000000
vt 0.000000 0.000000
vt 1.000000 0.000000
vt 0.500000 1.000000
vt 0.000000 0.000000
vt 1.000000 0.000000
vt 0.000000 0.000000
vt 1.000000 0.000000
vt 1.000000 1.000000
vt 0.000000 1.000000
vt 0.000000 0.000000
vt 1.000000 0.000000
vt 1.000000 1.000000
vt 0.000000 1.000000
vt 0.500000 1.000000
vt 0.000000 0.000000
vt 1.000000 0.000000
vt 0.500000 1.000000
vt 0.000000 0.000000
vt 1.000000 0.000000
vt 0.000000 0.000000
vt 1.000000 0.000000
vt 1.000000 1.000000
vt 0.000000 1.000000
vt 0.000000 0.000000
vt 1.000000 0.000000
vt 1.000000 1.000000
vt 0.000000 1.000000
vt 0.500000 1.000000
vt 0.000000 0.000000
vt 1.000000 0.000000
vt 0.500000 1.000000
vt 0.000000 0.000000
vt 1.000000 0.000000
vt 0.000000 0.000000
vt 1.000000 0.000000
vt 1.000000 1.000000
vt 0.000000 1.000000
vt 0.000000 0.000000
vt 1.000000 0.000000
vt 1.000000 1.000000
vt 0.000000 1.000000
vt 0.500000 1.000000
vt 0.000000 0.000000
vt 1.000000 0.000000
vt 0.500000 1.000000
vt 0.000000 0.000000
vt 1.000000 0.000000
vt 0.000000 0.000000
vt 1.000000 0.000000
vt 1.000000 1.000000
vt 0.000000 1.000000
vt 0.000000 0.000000
vt 1.000000 0.000000
vt 1.000000 1.000000
vt 0.000000 1.000000
vt 0.500000 1.000000
vt 0.000000 0.000000
vt 1.000000 0.000000
vt 0.500000 1.000000
vt 0.000000 0.000000
vt 1.000000 0.000000
vt 0.000000 0.000000
vt 1.000000 0.000000
vt 1.000000 1.000000
vt 0.000000 1.000000
vt 0.000000 0.000000
vt 1.000000 0.000000
vt 1.000000 1.000000
vt 0.000000 1.000000
vt 0.500000 1.000000
vt 0.000000 0.000000
vt 1.000000 0.000000
vt 0.500000 1.000000
vt 0.000000 0.000000
vt 1.000000 0.000000
vt 0.000000 0.000000
vt 1.000000 0.000000
vt 1.000000 1.000000
vt 0.000000 1.000000
vt 0.000000 0.000000
vt 1.000000 0.000000
vt 1.000000 1.000000
vt 0.000000 1.000000
vt 0.500000 1.000000
vt 0.000000 0.000000
vt 1.000000 0.000000
vt 0.500000 1.000000
vt 0.000000 0.000000
vt 1.000000 0.000000
vt 0.000000 0.000000
vt 1.000000 0.000000
vt 1.000000 1.000000
vt 0.000000 1.000000
vt 0.000000 0.000000
vt 1.000000 0.000000
vt 1.000000 1.000000
vt 0.000000 1.000000
vt 0.500000 1.000000
vt 0.000000 0.000000
vt 1.000000 0.000000
vt 0.500000 1.000000
vt 0.000000 0.000000
vt 1.000000 0.000000
vt 0.000000 0.000000
vt 1.000000 0.000000
vt 1.000000 1.000000
vt 0.000000 1.000000
vt 0.000000 0.000000
vt 1.000000 0.000000
vt 1.000000 1.000000
vt 0.000000 1.000000
vt 0.500000 1.000000
vt 0.000000 0.000000
vt 1.000000 0.000000
vt 0.500000 1.000000
vt 0.000000 0.000000
vt 1.000000 0.000000
vt 0.000000 0.000000
vt 1.000000 0.000000
vt 1.000000 1.000000
vt 0.000000 1.000000
vt 0.000000 0.000000
vt 1.000000 0.000000
vt 1.000000 1.000000
vt 0.000000 1.000000
vt 0.500000 1.000000
vt 0.000000 0.000000
vt 1.000000 0.000000
vt 0.500000 1.000000
vt 0.000000 0.000000
vt 1.000000 0.000000
vt 0.000000 0.000000
vt 1.000000 0.000000
vt 1.000000 1.000000
vt 0.000000 1.000000
vt 0.000000 0.000000
vt 1.000000 0.000000
vt 1.000000 1.000000
vt 0.000000 1.000000
vt 0.500000 1.000000
vt 0.000000 0.000000
vt 1.000000 0.000000
vt 0.500000 1.000000
vt 0.000000 0.000000
vt 1.000000 0.000000
vt 0.000000 0.000000
vt 1.000000 0.000000
vt 1.000000 1.000000
vt 0.000000 1.000000
vt 0.000000 0.000000
vt 1.000000 0.000000
vt 1.000000 1.000000
vt 0.000000 1.000000
vt 0.500000 1.000000
vt 0.000000 0.000000
vt 1.000000 0.000000
vt 0.500000 1.000000
vt 0.000000 0.000000
vt 1.000000 0.000000
vt 0.000000 0.000000
vt 1.000000 0.000000
vt 1.000000 1.000000
vt 0.000000 1.000000
vt 0.000000 0.000000
vt 1.000000 0.000000
vt 1.000000 1.000000
vt 0.000000 1.000000
vt 0.500000 1.000000
vt 0.000000 0.000000
vt 1.000000 0.000000
vt 0.500000 1.000000
vt 0.000000 0.000000
vt 1.000000 0.000000
vt 0.000000 0.000000
vt 1.000000 0.000000
vt 1.000000 1.000000
vt 0.000000 1.000000
vt 0.000000 0.000000
vt 1.000000 0.000000
vt 1.000000 1.000000
vt 0.000000 1.000000
vt 0.500000 1.000000
vt 0.000000 0.000000
vt 1.000000 0.000000
vt 0.500000 1.000000
vt 0.000000 0.000000
vt 1.000000 0.000000
vt 0.000000 0.000000
vt 1.000000 0.000000
vt 1.000000 1.000000
vt 0.000000 1.000000
vt 0.000000 0.000000
vt 1.000000 0.000000
vt 1.000000 1.000000
vt 0.000000 1.000000
vt 0.500000 1.000000
vt 0.000000 0.000000
vt 1.000000 0.000000
vt 0.500000 1.000000
vt 0.000000 0.000000
vt 1.000000 0.000000
vt 0.000000 0.000000
vt 1.000000 0.000000
vt 1.000000 1.000000
vt 0.000000 1.000000
vt 0.000000 0.000000
vt 1.000000 0.000000
vt 1.000000 1.000000
vt 0.000000 1.000000
vt 0.500000 1.000000
vt 0.000000 0.000000
vt 1.000000 0.000000
vt 0.500000 1.000000
vt 0.000000 0.000000
vt 1.000000 0.000000
vt 0.000000 0.000000
vt 1.000000 0.000000
vt 1.000000 1.000000
vt 0.000000 1.000000
vt 0.000000 0.000000
vt 1.000000 0.000000
vt 1.000000 1.000000
vt 0.000000 1.000000
vt 0.500000 1.000000
vt 0.000000 0.000000
vt 1.000000 0.000000
vt 0.500000 1.000000
vt 0.000000 0.000000
vt 1.000000 0.000000
vt 0.000000 0.000000
vt 1.000000 0.000000
vt 1.000000 1.000000
vt 0.000000 1.000000
vt 0.000000 0.000000
vt 1.000000 0.000000
vt 1.000000 1.000000
vt 0.000000 1.000000
vt 0.500000 1.000000
vt 0.000000 0.000000
vt 1.000000 0.000000
vt 0.500000 1.000000
vt 0.000000 0.000000
vt 1.000000 0.000000
vt 0.000000 0.000000
vt 1.000000 0.000000
vt 1.000000 1.000000
vt 0.000000 1.000000
vt 0.000000 0.000000
vt 1.000000 0.000000
vt 1.000000 1.000000
vt 0.000000 1.000000
vt 0.500000 1.000000
vt 0.000000 0.000000
vt 1.000000 0.000000
vt 0.500000 1.000000
vt 0.000000 0.000000
vt 1.000000 0.000000
vt 0.000000 0.000000
vt 1.000000 0.000000
vt 1.000000 1.000000
vt 0.000000 1.000000
vt 0.000000 0.000000
vt 1.000000 0.000000
vt 1.000000 1.000000
vt 0.000000 1.000000
vt 0.500000 1.000000
vt 0.000000 0.000000
vt 1.000000 0.000000
vt 0.500000 1.000000
vt 0.000000 0.000000
vt 1.000000 0.000000
vt 0.000000 0.000000
vt 1.000000 0.000000
vt 1.000000 1.000000
vt 0.000000 1.000000
vt 0.000000 0.000000
vt 1.000000 0.000000
vt 1.000000 1.000000
vt 0.000000 1.000000
vt 0.500000 1.000000
vt 0.000000 0.000000
vt 1.000000 0.000000
vt 0.500000 1.000000
vt 0.000000 0.000000
vt 1.000000 0.000000
vt 0.000000 0.000000
vt 1.000000 0.000000
vt 1.000000 1.000000
vt 0.000000 1.000000
vt 0.000000 0.000000
vt 1.000000 0.000000
vt 1.000000 1.000000
vt 0.000000 1.000000
vt 0.500000 1.000000
vt 0.000000 0.000000
vt 1.000000 0.000000
vt 0.500000 1.000000
vt 0.000000 0.000000
vt 1.000000 0.000000
vt 0.000000 0.000000
vt 1.000000 0.000000
vt 1.000000 1.000000
vt 0.000000 1.000000
vt 0.000000 0.000000
vt 1.000000 0.000000
vt 1.000000 1.000000
vt 0.000000 1.000000
vt 0.500000 1.000000
vt 0.000000 0.000000
vt 1.000000 0.000000
vt 0.500000 1.000000
vt 0.000000 0.000000
vt 1.000000 0.000000
vt 0.000000 0.000000
vt 1.000000 0.000000
vt 1.000000 1.000000
vt 0.000000 1.000000
vt 0.000000 0.000000
vt 1.000000 0.000000
vt 1.000000 1.000000
vt 0.000000 1.000000
vt 0.500000 1.000000
vt 0.000000 0.000000
vt 1.000000 0.000000
vt 0.500000 1.000000
vt 0.000000 0.000000
vt 1.000000 0.000000
vt 0.000000 0.000000
vt 1.000000 0.000000
vt 1.000000 1.000000
vt 0.000000 1.000000
vt 0.000000 0.000000
vt 1.000000 0.000000
vt 1.000000 1.000000
vt 0.000000 1.000000
vt 0.500000 1.000000
vt 0.000000 0.000000
vt 1.000000 0.000000
vt 0.500000 1.000000
vt 0.000000 0.000000
vt 1.000000 0.000000
vt 0.000000 0.000000
vt 1.000000 0.000000
vt 1.000000 1.000000
vt 0.000000 1.000000
vt 0.000000 0.000000
vt 1.000000 0.000000
vt 1.000000 1.000000
vt 0.000000 1.000000
vt 0.500000 1.000000
vt 0.000000 0.000000
vt 1.000000 0.000000
vt 0.500000 1.000000
vt 0.000000 0.000000
vt 1.000000 0.000000
vt 0.000000 0.000000
vt 1.000000 0.000000
vt 1.000000 1.000000
vt 0.000000 1.000000
vt 0.000000 0.000000
vt 1.000000 0.000000
vt 1.000000 1.000000
vt 0.000000 1.000000
vt 0.500000 1.000000
vt 0.000000 0.000000
vt 1.000000 0.000000
vt 0.500000 1.000000
vt 0.000000 0.000000
vt 1.000000 0.000000
vt 0.000000 0.000000
vt 1.000000 0.000000
vt 1.000000 1.000000
vt 0.000000 1.000000
vt 0.000000 0.000000
vt 1.000000 0.000000
vt 1.000000 1.000000
vt 0.000000 1.000000
vt 0.500000 1.000000
vt 0.000000 0.000000
vt 1.000000 0.000000
vt 0.500000 1.000000
vt 0.000000 0.000000
vt 1.000000 0.000000
vt 0.000000 0.000000
vt 1.000000 0.000000
vt 1.000000 1.000000
vt 0.000000 1.000000
vt 0.000000 0.000000
vt 1.000000 0.000000
vt 1.000000 1.000000
vt 0.000000 1.000000
vt 0.500000 1.000000
vt 0.000000 0.000000
vt 1.000000 0.000000
vt 0.500000 1.000000
vt 0.000000 0.000000
vt 1.000000 0.000000
vt 0.000000 0.000000
vt 1.000000 0.000000
vt 1.000000 1.000000
vt 0.000000 1.000000
vt 0.000000 0.000000
vt 1.000000 0.000000
vt 1.000000 1.000000
vt 0.000000 1.000000
vt 0.500000 1.000000
vt 0.000000 0.000000
vt 1.000000 0.000000
vt 0.500000 1.000000
vt 0.000000 0.000000
vt 1.000000 0.000000
vt 0.000000 0.000000
vt 1.000000 0.000000
vt 1.000000 1.000000
vt 0.000000 1.000000
vt 0.000000 0.000000
vt 1.000000 0.000000
vt 1.000000 1.000000
vt 0.000000 1.000000
vt 0.500000 1.000000
vt 0.000000 0.000000
vt 1.000000 0.000000
vt 0.500000 1.000000
vt 0.000000 0.000000
vt 1.000000 0.000000
vt 0.000000 0.000000
vt 1.000000 0.000000
vt 1.000000 1.000000
vt 0.000000 1.000000
vt 0.000000 0.000000
vt 1.000000 0.000000
vt 1.000000 1.000000
vt 0.000000 1.000000
vt 0.500000 1.000000
vt 0.000000 0.000000
vt 1.000000 0.000000
vt 0.500000 1.000000
vt 0.000000 0.000000
vt 1.000000 0.000000
vt 0.000000 0.000000
vt 1.000000 0.000000
vt 1.000000 1.000000
vt 0.000000 1.000000
vt 0.000000 0.000000
vt 1.000000 0.000000
vt 1.000000 1.000000
vt 0.000000 1.000000
vt 0.500000 1.000000
vt 0.000000 0.000000
vt 1.000000 0.000000
vt 0.500000 1.000000
vt 0.000000 0.000000
vt 1.000000 0.000000
vt 0.000000 0.000000
vt 1.000000 0.000000
vt 1.000000 1.000000
vt 0.000000 1.000000
vt 0.000000 0.000000
vt 1.000000 0.000000
vt 1.000000 1.000000
vt 0.000000 1.000000
vt 0.500000 1.000000
vt 0.000000 0.000000
vt 1.000000 0.000000
vt 0.500000 1.000000
vt 0.000000 0.000000
vt 1.000000 0.000000
vt 0.000000 0.000000
vt 1.000000 0.000000
vt 1.000000 1.000000
vt 0.000000 1.000000
vt 0.000000 0.000000
vt 1.000000 0.000000
vt 1.000000 1.000000
vt 0.000000 1.000000
vt 0.500000 1.000000
vt 0.000000 0.000000
vt 1.000000 0.000000
vt 0.500000 1.000000
vt 0.000000 0.000000
vt 1.000000 0.000000
vt 0.000000 0.000000
vt 1.000000 0.000000
vt 1.000000 1.000000
vt 0.000000 1.000000
vt 0.000000 0.000000
vt 1.000000 0.000000
vt 1.000000 1.000000
vt 0.000000 1.000000
vt 0.500000 1.000000
vt 0.000000 0.000000
vt 1.000000 0.000000
vt 0.500000 1.000000
vt 0.000000 0.000000
vt 1.000000 0.000000
vt 0.000000 0.000000
vt 1.000000 0.000000
vt 1.000000 1.000000
vt 0.000000 1.000000
vt 0.000000 0.000000
vt 1.000000 0.000000
vt 1.000000 1.000000
vt 0.000000 1.000000
vt 0.500000 1.000000
vt 0.000000 0.000000
vt 1.000000 0.000000
vt 0.500000 1.000000
vt 0.000000 0.000000
vt 1.000000 0.000000
vt 0.000000 0.000000
vt 1.000000 0.000000
vt 1.000000 1.000000
vt 0.000000 1.000000
vt 0.000000 0.000000
vt 1.000000 0.000000
vt 1.000000 1.000000
vt 0.000000 1.000000
vt 0.500000 1.000000
vt 0.000000 0.000000
vt 1.000000 0.000000
vt 0.500000 1.000000
vt 0.000000 0.000000
vt 1.000000 0.000000
vt 0.000000 0.000000
vt 1.000000 0.000000
vt 1.000000 1.000000
vt 0.000000 1.000000
vt 0.000000 0.000000
vt 1.000000 0.000000
vt 1.000000 1.000000
vt 0.000000 1.000000
vt 0.500000 1.000000
vt 0.000000 0.000000
vt 1.000000 0.000000
vt 0.500000 1.000000
vt 0.000000 0.000000
vt 1.000000 0.000000
vt 0.000000 0.000000
vt 1.000000 0.000000
vt 1.000000 1.000000
vt 0.000000 1.000000
vt 0.000000 0.000000
vt 1.000000 0.000000
vt 1.000000 1.000000
vt 0.000000 1.000000
vt 0.500000 1.000000
vt 0.000000 0.000000
vt 1.000000 0.000000
vt 0.500000 1.000000
vt 0.000000 0.000000
vt 1.000000 0.000000
vt 0.000000 0.000000
vt 1.000000 0.000000
vt 1.000000 1.000000
vt 0.000000 1.000000
vt 0.000000 0.000000
vt 1.000000 0.000000
vt 1.000000 1.000000
vt 0.000000 1.000000
vt 0.500000 1.000000
vt 0.000000 0.000000
vt 1.000000 0.000000
vt 0.500000 1.000000
vt 0.000000 0.000000
vt 1.000000 0.000000
vt 0.000000 0.000000
vt 1.000000 0.000000
vt 1.000000 1.000000
vt 0.000000 1.000000
vt 0.000000 0.000000
vt 1.000000 0.000000
vt 1.000000 1.000000
vt 0.000000 1.000000
vt 0.500000 1.000000
vt 0.000000 0.000000
vt 1.000000 0.000000
vt 0.500000 1.000000
vt 0.000000 0.000000
vt 1.000000 0.000000
vt 0.000000 0.000000
vt 1.000000 0.000000
vt 1.000000 1.000000
vt 0.000000 1.000000
vt 0.000000 0.000000
vt 1.000000 0.000000
vt 1.000000 1.000000
vt 0.000000 1.000000
vt 0.500000 1.000000
vt 0.000000 0.000000
vt 1.000000 0.000000
vt 0.500000 1.000000
vt 0.000000 0.000000
vt 1.000000 0.000000
vt 0.000000 0.000000
vt 1.000000 0.000000
vt 1.000000 1.000000
vt 0.000000 1.000000
vt 0.000000 0.000000
vt 1.000000 0.000000
vt 1.000000 1.000000
vt 0.000000 1.000000
vt 0.500000 1.000000
vt 0.000000 0.000000
vt 1.000000 0.000000
vt 0.500000 1.000000
vt 0.000000 0.000000
vt 1.000000 0.000000
vt 0.000000 0.000000
vt 1.000000 0.000000
vt 1.000000 1.000000
vt 0.000000 1.000000
vt 0.000000 0.000000
vt 1.000000 0.000000
vt 1.000000 1.000000
vt 0.000000 1.000000
vt 0.500000 1.000000
vt 0.000000 0.000000
vt 1.000000 0.000000
s 1
usemtl models/caelum/world/environment/bark_desert.png
f 1/1 2/2 3/3 4/4
f 5/5 6/6 7/7
f 8/8 9/9 10/10 11/11
f 12/12 13/13 14/14
f 15/15 16/16 17/17 18/18
f 19/19 20/20 21/21
f 22/22 23/23 24/24 25/25
f 26/26 27/27 28/28
f 29/29 30/30 31/31 32/32
f 33/33 34/34 35/35
f 36/36 37/37 38/38 39/39
f 40/40 41/41 42/42
f 43/43 44/44 45/45 46/46
f 47/47 48/48 49/49
f 50/50 51/51 52/52 53/53
f 54/54 55/55 56/56
f 57/57 58/58 59/59 60/60
f 61/61 62/62 63/63
f 64/64 65/65 66/66 67/67
f 68/68 69/69 70/70 71/71
f 72/72 73/73 74/74 75/75
f 76/76 77/77 78/78 79/79
f 80/80 81/81 82/82 83/83
f 84/84 85/85 86/86 87/87
f 88/88 89/89 90/90 91/91
f 92/92 93/93 94/94 95/95
f 96/96 97/97 98/98 99/99
f 100/100 101/101 102/102 103/103
f 104/104 105/105 106/106
f 107/107 108/108 109/109 110/110
f 111/111 112/112 113/113
f 114/114 115/115 116/116 117/117
f 118/118 119/119 120/120
f 121/121 122/122 123/123 124/124
f 125/125 126/126 127/127
f 128/128 129/129 130/130 131/131
f 132/132 133/133 134/134
f 135/135 136/136 137/137 138/138
f 139/139 140/140 141/141
f 142/142 143/143 144/144 145/145
f 146/146 147/147 148/148
f 149/149 150/150 151/151 152/152
f 153/153 154/154 155/155
f 156/156 157/157 158/158 159/159
f 160/160 161/161 162/162
f 163/163 164/164 165/165 166/166
f 167/167 168/168 169/169
f 170/170 171/171 172/172 173/173
f 174/174 175/175 176/176
f 177/177 178/178 179/179 180/180
f 181/181 182/182 183/183
f 184/184 185/185 186/186 187/187
f 188/188 189/189 190/190
f 191/191 192/192 193/193 194/194
f 195/195 196/196 197/197
f 198/198 199/199 200/200 201/201
f 202/202 203/203 204/204
f 205/205 206/206 207/207 208/208
f 209/209 210/210 211/211
f 212/212 213/213 214/214 215/215
f 216/216 217/217 218/218
f 219/219 220/220 221/221 222/222
f 223/223 224/224 225/225
f 226/226 227/227 228/228 229/229
f 230/230 231/231 232/232
f 233/233 234/234 235/235 236/236
f 237/237 238/238 239/239
f 240/240 241/241 242/242 243/243
f 244/244 245/245 246/246
f 247/247 248/248 249/249 250/250
f 251/251 252/252 253/253
f 254/254 255/255 256/256 257/257
f 258/258 259/259 260/260
f 261/261 262/262 263/263 264/264
f 265/265 266/266 267/267
f 268/268 269/269 270/270 271/271
f 272/272 273/273 274/274
f 275/275 276/276 277/277 278/278
f 279/279 280/280 281/281
f 282/282 283/283 284/284 285/285
f 286/286 287/287 288/288
f 289/289 290/290 291/291 292/292
f 293/293 294/294 295/295
f 296/296 297/297 298/298 299/299
f 300/300 301/301 302/302
f 303/303 304/304 305/305 306/306
f 307/307 308/308 309/309
f 310/310 311/311 312/312 313/313
f 314/314 315/315 316/316
f 317/317 318/318 319/319 320/320
f 321/321 322/322 323/323
f 324/324 325/325 326/326 327/327
f 328/328 329/329 330/330
f 331/331 332/332 333/333 334/334
f 335/335 336/336 337/337
f 338/338 339/339 340/340 341/341
f 342/342 343/343 344/344
f 345/345 346/346 347/347 348/348
f 349/349 350/350 351/351
f 352/352 353/353 354/354 355/355
f 356/356 357/357 358/358
f 359/359 360/360 361/361 362/362
f 363/363 364/364 365/365
f 366/366 367/367 368/368 369/369
f 370/370 371/371 372/372
f 373/373 374/374 375/375 376/376
f 377/377 378/378 379/379
f 380/380 381/381 382/382 383/383
f 384/384 385/385 386/386
f 387/387 388/388 389/389 390/390
f 391/391 392/392 393/393
f 394/394 395/395 396/396 397/397
f 398/398 399/399 400/400
f 401/401 402/402 403/403 404/404
f 405/405 406/406 407/407
f 408/408 409/409 410/410 411/411
f 412/412 413/413 414/414
f 415/415 416/416 417/417 418/418
f 419/419 420/420 421/421
f 422/422 423/423 424/424 425/425
f 426/426 427/427 428/428
f 429/429 430/430 431/431 432/432
f 433/433 434/434 435/435
f 436/436 437/437 438/438 439/439
f 440/440 441/441 442/442
f 443/443 444/444 445/445 446/446
f 447/447 448/448 449/449
f 450/450 451/451 452/452 453/453
f 454/454 455/455 456/456
f 457/457 458/458 459/459 460/460
f 461/461 462/462 463/463
f 464/464 465/465 466/466 467/467
f 468/468 469/469 470/470
f 471/471 472/472 473/473 474/474
f 475/475 476/476 477/477
f 478/478 479/479 480/480 481/481
f 482/482 483/483 484/484
f 485/485 486/486 487/487 488/488
f 489/489 490/490 491/491
f 492/492 493/493 494/494 495/495
f 496/496 497/497 498/498
f 499/499 500/500 501/501 502/502
f 503/503 504/504 505/505
f 506/506 507/507 508/508 509/509
f 510/510 511/511 512/512
f 513/513 514/514 515/515 516/516
f 517/517 518/518 519/519
f 520/520 521/521 522/522 523/523
f 524/524 525/525 526/526
f 527/527 528/528 529/529 530/530
f 531/531 532/532 533/533
f 534/534 535/535 536/536 537/537
f 538/538 539/539 540/540
f 541/541 542/542 543/543 544/544
f 545/545 546/546 547/547
f 548/548 549/549 550/550 551/551
f 552/552 553/553 554/554
f 555/555 556/556 557/557 558/558
f 559/559 560/560 561/561
f 562/562 563/563 564/564 565/565
f 566/566 567/567 568/568
f 569/569 570/570 571/571 572/572
f 573/573 574/574 575/575
f 576/576 577/577 578/578 579/579
f 580/580 581/581 582/582
f 583/583 584/584 585/585 586/586
f 587/587 588/588 589/589
f 590/590 591/591 592/592 593/593
f 594/594 595/595 596/596
f 597/597 598/598 599/599 600/600
f 601/601 602/602 603/603
f 604/604 605/605 606/606 607/607
f 608/608 609/609 610/610
f 611/611 612/612 613/613 614/614
f 615/615 616/616 617/617
f 618/618 619/619 620/620 621/621
f 622/622 623/623 624/624
f 625/625 626/626 627/627 628/628
f 629/629 630/630 631/631
f 632/632 633/633 634/634 635/635
f 636/636 637/637 638/638
f 639/639 640/640 641/641 642/642
f 643/643 644/644 645/645
f 646/646 647/647 648/648 649/649
f 650/650 651/651 652/652
f 653/653 654/654 655/655 656/656
f 657/657 658/658 659/659
f 660/660 661/661 662/662 663/663
f 664/664 665/665 666/666
usemtl models/caelum/world/environment/foliage_desert.png
f 667/667 668/668 669/669
f 670/670 671/671 672/672 673/673
f 674/674 675/675 676/676 677/677
f 678/678 679/679 680/680
f 681/681 682/682 683/683
f 684/684 685/685 686/686 687/687
f 688/688 689/689 690/690 691/691
f 692/692 693/693 694/694
f 695/695 696/696 697/697
f 698/698 699/699 700/700 701/701
f 702/702 703/703 704/704 705/705
f 706/706 707/707 708/708
f 709/709 710/710 711/711
f 712/712 713/713 714/714 715/715
f 716/716 717/717 718/718 719/719
f 720/720 721/721 722/722
f 723/723 724/724 725/725
f 726/726 727/727 728/728 729/729
f 730/730 731/731 732/732 733/733
f 734/734 735/735 736/736
f 737/737 738/738 739/739
f 740/740 741/741 742/742 743/743
f 744/744 745/745 746/746 747/747
f 748/748 749/749 750/750
f 751/751 752/752 753/753
f 754/754 755/755 756/756 757/757
f 758/758 759/759 760/760 761/761
f 762/762 763/763 764/764
f 765/765 766/766 767/767
f 768/768 769/769 770/770 771/771
f 772/772 773/773 774/774 775/775
f 776/776 777/777 778/778
f 779/779 780/780 781/781
f 782/782 783/783 784/784 785/785
f 786/786 787/787 788/788 789/789
f 790/790 791/791 792/792
f 793/793 794/794 795/795
f 796/796 797/797 798/798 799/799
f 800/800 801/801 802/802 803/803
f 804/804 805/805 806/806
f 807/807 808/808 809/809
f 810/810 811/811 812/812 813/813
f 814/814 815/815 816/816 817/817
f 818/818 819/819 820/820
f 821/821 822/822 823/823
f 824/824 825/825 826/826 827/827
f 828/828 829/829 830/830 831/831
f 832/832 833/833 834/834
f 835/835 836/836 837/837
f 838/838 839/839 840/840 841/841
f 842/842 843/843 844/844 845/845
f 846/846 847/847 848/848
f 849/849 850/850 851/851
f 852/852 853/853 854/854 855/855
f 856/856 857/857 858/858 859/859
f 860/860 861/861 862/862
f 863/863 864/864 865/865
f 866/866 867/867 868/868 869/869
f 870/870 871/871 872/872 873/873
f 874/874 875/875 876/876
f 877/877 878/878 879/879
f 880/880 881/881 882/882 883/883
f 884/884 885/885 886/886 887/887
f 888/888 889/889 890/890
f 891/891 892/892 893/893
f 894/894 895/895 896/896 897/897
f 898/898 899/899 900/900 901/901
f 902/902 903/903 904/904
f 905/905 906/906 907/907
f 908/908 909/909 910/910 911/911
f 912/912 913/913 914/914 915/915
f 916/916 917/917 918/918
f 919/919 920/920 921/921
f 922/922 923/923 924/924 925/925
f 926/926 927/927 928/928 929/929
f 930/930 931/931 932/932
f 933/933 934/934 935/935
f 936/936 937/937 938/938 939/939
f 940/940 941/941 942/942 943/943
f 944/944 945/945 946/946
f 947/947 948/948 949/949
f 950/950 951/951 952/952 953/953
f 954/954 955/955 956/956 957/957
f 958/958 959/959 960/960
f 961/961 962/962 963/963
f 964/964 965/965 966/966 967/967
f 968/968 969/969 970/970 971/971
f 972/972 973/973 974/974
f 975/975 976/976 977/977
f 978/978 979/979 980/980 981/981
f 982/982 983/983 984/984 985/985
f 986/986 987/987 988/988
f 989/989 990/990 991/991
f 992/992 993/993 994/994 995/995
f 996/996 997/997 998/998 999/999
f 1000/1000 1001/1001 1002/1002
f 1003/1003 1004/1004 1005/1005
f 1006/1006 1007/1007 1008/1008 1009/1009
f 1010/1010 1011/1011 1012/1012 1013/1013
f 1014/1014 1015/1015 1016/1016
f 1017/1017 1018/1018 1019/1019
f 1020/1020 1021/1021 1022/1022 1023/1023
f 1024/1024 1025/1025 1026/1026 1027/1027
f 1028/1028 1029/1029 1030/1030
f 1031/1031 1032/1032 1033/1033
f 1034/1034 1035/1035 1036/1036 1037/1037
f 1038/1038 1039/1039 1040/1040 1041/1041
f 1042/1042 1043/1043 1044/1044
f 1045/1045 1046/1046 1047/1047
f 1048/1048 1049/1049 1050/1050 1051/1051
f 1052/1052 1053/1053 1054/1054 1055/1055
f 1056/1056 1057/1057 1058/1058
f 1059/1059 1060/1060 1061/1061
f 1062/1062 1063/1063 1064/1064 1065/1065
f 1066/1066 1067/1067 1068/1068 1069/1069
f 1070/1070 1071/1071 1072/1072
f 1073/1073 1074/1074 1075/1075
f 1076/1076 1077/1077 1078/1078 1079/1079
f 1080/1080 1081/1081 1082/1082 1083/1083
f 1084/1084 1085/1085 1086/1086
f 1087/1087 1088/1088 1089/1089
f 1090/1090 1091/1091 1092/1092 1093/1093
f 1094/1094 1095/1095 1096/1096 1097/1097
f 1098/1098 1099/1099 1100/1100
f 1101/1101 1102/1102 1103/1103
f 1104/1104 1105/1105 1106/1106 1107/1107
f 1108/1108 1109/1109 1110/1110 1111/1111
f 1112/1112 1113/1113 1114/1114
f 1115/1115 1116/1116 1117/1117
f 1118/1118 1119/1119 1120/1120 1121/1121
f 1122/1122 1123/1123 1124/1124 1125/1125
f 1126/1126 1127/1127 1128/1128
f 1129/1129 1130/1130 1131/1131
f 1132/1132 1133/1133 1134/1134 1135/1135
f 1136/1136 1137/1137 1138/1138 1139/1139
f 1140/1140 1141/1141 1142/1142
f 1143/1143 1144/1144 1145/1145
f 1146/1146 1147/1147 1148/1148 1149/1149
f 1150/1150 1151/1151 1152/1152 1153/1153
f 1154/1154 1155/1155 1156/1156
f 1157/1157 1158/1158 1159/1159
f 1160/1160 1161/1161 1162/1162 1163/1163
f 1164/1164 1165/1165 1166/1166 1167/1167
f 1168/1168 1169/1169 1170/1170
f 1171/1171 1172/1172 1173/1173
f 1174/1174 1175/1175 1176/1176 1177/1177
f 1178/1178 1179/1179 1180/1180 1181/1181
f 1182/1182 1183/1183 1184/1184
f 1185/1185 1186/1186 1187/1187
f 1188/1188 1189/1189 1190/1190 1191/1191
f 1192/1192 1193/1193 1194/1194 1195/1195
f 1196/1196 1197/1197 1198/1198
f 1199/1199 1200/1200 1201/1201
f 1202/1202 1203/1203 1204/1204 1205/1205
f 1206/1206 1207/1207 1208/1208 1209/1209
f 1210/1210 1211/1211 1212/1212
f 1213/1213 1214/1214 1215/1215
f 1216/1216 1217/1217 1218/1218 1219/1219
f 1220/1220 1221/1221 1222/1222 1223/1223
f 1224/1224 1225/1225 1226/1226
f 1227/1227 1228/1228 1229/1229
f 1230/1230 1231/1231 1232/1232 1233/1233
f 1234/1234 1235/1235 1236/1236 1237/1237
f 1238/1238 1239/1239 1240/1240
f 1241/1241 1242/1242 1243/1243
f 1244/1244 1245/1245 1246/1246 1247/1247
f 1248/1248 1249/1249 1250/1250 1251/1251
f 1252/1252 1253/1253 1254/1254
f 1255/1255 1256/1256 1257/1257
f 1258/1258 1259/1259 1260/1260 1261/1261
f 1262/1262 1263/1263 1264/1264 1265/1265
f 1266/1266 1267/1267 1268/1268
f 1269/1269 1270/1270 1271/1271
f 1272/1272 1273/1273 1274/1274 1275/1275
f 1276/1276 1277/1277 1278/1278 1279/1279
f 1280/1280 1281/1281 1282/1282
f 1283/1283 1284/1284 1285/1285
f 1286/1286 1287/1287 1288/1288 1289/1289
f 1290/1290 1291/1291 1292/1292 1293/1293
f 1294/1294 1295/1295 1296/1296
f 1297/1297 1298/1298 1299/1299
f 1300/1300 1301/1301 1302/1302 1303/1303
f 1304/1304 1305/1305 1306/1306 1307/1307
f 1308/1308 1309/1309 1310/1310
f 1311/1311 1312/1312 1313/1313
f 1314/1314 1315/1315 1316/1316 1317/1317
f 1318/1318 1319/1319 1320/1320 1321/1321
f 1322/1322 1323/1323 1324/1324
f 1325/1325 1326/1326 1327/1327
f 1328/1328 1329/1329 1330/1330 1331/1331
f 1332/1332 1333/1333 1334/1334 1335/1335
f 1336/1336 1337/1337 1338/1338
f 1339/1339 1340/1340 1341/1341
f 1342/1342 1343/1343 1344/1344 1345/1345
f 1346/1346 1347/1347 1348/1348 1349/1349
f 1350/1350 1351/1351 1352/1352
f 1353/1353 1354/1354 1355/1355
f 1356/1356 1357/1357 1358/1358 1359/1359
f 1360/1360 1361/1361 1362/1362 1363/1363
f 1364/1364 1365/1365 1366/1366
f 1367/1367 1368/1368 1369/1369
f 1370/1370 1371/1371 1372/1372 1373/1373
f 1374/1374 1375/1375 1376/1376 1377/1377
f 1378/1378 1379/1379 1380/1380
f 1381/1381 1382/1382 1383/1383
f 1384/1384 1385/1385 1386/1386 1387/1387
f 1388/1388 1389/1389 1390/1390 1391/1391
f 1392/1392 1393/1393 1394/1394
f 1395/1395 1396/1396 1397/1397
f 1398/1398 1399/1399 1400/1400 1401/1401
f 1402/1402 1403/1403 1404/1404 1405/1405
f 1406/1406 1407/1407 1408/1408
f 1409/1409 1410/1410 1411/1411
f 1412/1412 1413/1413 1414/1414 1415/1415
f 1416/1416 1417/1417 1418/1418 1419/1419
f 1420/1420 1421/1421 1422/1422
f 1423/1423 1424/1424 1425/1425
f 1426/1426 1427/1427 1428/1428 1429/1429
f 1430/1430 1431/1431 1432/1432 1433/1433
f 1434/1434 1435/1435 1436/1436
f 1437/1437 1438/1438 1439/1439
f 1440/1440 1441/1441 1442/1442 1443/1443
f 1444/1444 1445/1445 1446/1446 1447/1447
f 1448/1448 1449/1449 1450/1450
