# Modelo original generado para Caelum Argenteum.
# Ejes OBJ: X ancho, Y altura, Z profundidad.
o ca_tree_desert_cardon3
v 0.000000 0.000000 -15.000000
v -7.500000 0.000000 -12.990381
v -5.400000 220.000000 -9.353074
v 0.000000 220.000000 -10.800000
v 0.000000 0.000000 0.000000
v -7.500000 0.000000 -12.990381
v 0.000000 0.000000 -15.000000
v 0.000000 220.000000 0.000000
v 0.000000 220.000000 -10.800000
v -5.400000 220.000000 -9.353074
v -7.500000 0.000000 -12.990381
v -12.990381 0.000000 -7.500000
v -9.353074 220.000000 -5.400000
v -5.400000 220.000000 -9.353074
v 0.000000 0.000000 0.000000
v -12.990381 0.000000 -7.500000
v -7.500000 0.000000 -12.990381
v 0.000000 220.000000 0.000000
v -5.400000 220.000000 -9.353074
v -9.353074 220.000000 -5.400000
v -12.990381 0.000000 -7.500000
v -15.000000 0.000000 -0.000000
v -10.800000 220.000000 -0.000000
v -9.353074 220.000000 -5.400000
v 0.000000 0.000000 0.000000
v -15.000000 0.000000 -0.000000
v -12.990381 0.000000 -7.500000
v 0.000000 220.000000 0.000000
v -9.353074 220.000000 -5.400000
v -10.800000 220.000000 -0.000000
v -15.000000 0.000000 -0.000000
v -12.990381 0.000000 7.500000
v -9.353074 220.000000 5.400000
v -10.800000 220.000000 -0.000000
v 0.000000 0.000000 0.000000
v -12.990381 0.000000 7.500000
v -15.000000 0.000000 -0.000000
v 0.000000 220.000000 0.000000
v -10.800000 220.000000 -0.000000
v -9.353074 220.000000 5.400000
v -12.990381 0.000000 7.500000
v -7.500000 0.000000 12.990381
v -5.400000 220.000000 9.353074
v -9.353074 220.000000 5.400000
v 0.000000 0.000000 0.000000
v -7.500000 0.000000 12.990381
v -12.990381 0.000000 7.500000
v 0.000000 220.000000 0.000000
v -9.353074 220.000000 5.400000
v -5.400000 220.000000 9.353074
v -7.500000 0.000000 12.990381
v -0.000000 0.000000 15.000000
v -0.000000 220.000000 10.800000
v -5.400000 220.000000 9.353074
v 0.000000 0.000000 0.000000
v -0.000000 0.000000 15.000000
v -7.500000 0.000000 12.990381
v 0.000000 220.000000 0.000000
v -5.400000 220.000000 9.353074
v -0.000000 220.000000 10.800000
v -0.000000 0.000000 15.000000
v 7.500000 0.000000 12.990381
v 5.400000 220.000000 9.353074
v -0.000000 220.000000 10.800000
v 0.000000 0.000000 0.000000
v 7.500000 0.000000 12.990381
v -0.000000 0.000000 15.000000
v 0.000000 220.000000 0.000000
v -0.000000 220.000000 10.800000
v 5.400000 220.000000 9.353074
v 7.500000 0.000000 12.990381
v 12.990381 0.000000 7.500000
v 9.353074 220.000000 5.400000
v 5.400000 220.000000 9.353074
v 0.000000 0.000000 0.000000
v 12.990381 0.000000 7.500000
v 7.500000 0.000000 12.990381
v 0.000000 220.000000 0.000000
v 5.400000 220.000000 9.353074
v 9.353074 220.000000 5.400000
v 12.990381 0.000000 7.500000
v 15.000000 0.000000 0.000000
v 10.800000 220.000000 0.000000
v 9.353074 220.000000 5.400000
v 0.000000 0.000000 0.000000
v 15.000000 0.000000 0.000000
v 12.990381 0.000000 7.500000
v 0.000000 220.000000 0.000000
v 9.353074 220.000000 5.400000
v 10.800000 220.000000 0.000000
v 15.000000 0.000000 0.000000
v 12.990381 0.000000 -7.500000
v 9.353074 220.000000 -5.400000
v 10.800000 220.000000 0.000000
v 0.000000 0.000000 0.000000
v 12.990381 0.000000 -7.500000
v 15.000000 0.000000 0.000000
v 0.000000 220.000000 0.000000
v 10.800000 220.000000 0.000000
v 9.353074 220.000000 -5.400000
v 12.990381 0.000000 -7.500000
v 7.500000 0.000000 -12.990381
v 5.400000 220.000000 -9.353074
v 9.353074 220.000000 -5.400000
v 0.000000 0.000000 0.000000
v 7.500000 0.000000 -12.990381
v 12.990381 0.000000 -7.500000
v 0.000000 220.000000 0.000000
v 9.353074 220.000000 -5.400000
v 5.400000 220.000000 -9.353074
v 7.500000 0.000000 -12.990381
v 0.000000 0.000000 -15.000000
v 0.000000 220.000000 -10.800000
v 5.400000 220.000000 -9.353074
v 0.000000 0.000000 0.000000
v 0.000000 0.000000 -15.000000
v 7.500000 0.000000 -12.990381
v 0.000000 220.000000 0.000000
v 5.400000 220.000000 -9.353074
v 0.000000 220.000000 -10.800000
v 0.470363 88.470415 -7.184620
v 0.380532 84.238362 -5.812479
v -22.240746 84.767368 -6.563776
v -22.162143 88.470415 -7.764398
v 0.000000 88.470415 0.000000
v 0.380532 84.238362 -5.812479
v 0.470363 88.470415 -7.184620
v -22.573711 88.470415 -1.477856
v -22.162143 88.470415 -7.764398
v -22.240746 84.767368 -6.563776
v 0.380532 84.238362 -5.812479
v 0.145350 81.622808 -2.220170
v -22.446529 82.478759 -3.420504
v -22.240746 84.767368 -6.563776
v 0.000000 88.470415 0.000000
v 0.145350 81.622808 -2.220170
v 0.380532 84.238362 -5.812479
v -22.573711 88.470415 -1.477856
v -22.240746 84.767368 -6.563776
v -22.446529 82.478759 -3.420504
v 0.145350 81.622808 -2.220170
v -0.145350 81.622808 2.220170
v -22.700892 82.478759 0.464792
v -22.446529 82.478759 -3.420504
v 0.000000 88.470415 0.000000
v -0.145350 81.622808 2.220170
v 0.145350 81.622808 -2.220170
v -22.573711 88.470415 -1.477856
v -22.446529 82.478759 -3.420504
v -22.700892 82.478759 0.464792
v -0.145350 81.622808 2.220170
v -0.380532 84.238362 5.812479
v -22.906676 84.767368 3.608063
v -22.700892 82.478759 0.464792
v 0.000000 88.470415 0.000000
v -0.380532 84.238362 5.812479
v -0.145350 81.622808 2.220170
v -22.573711 88.470415 -1.477856
v -22.700892 82.478759 0.464792
v -22.906676 84.767368 3.608063
v -0.380532 84.238362 5.812479
v -0.470363 88.470415 7.184620
v -22.985278 88.470415 4.808686
v -22.906676 84.767368 3.608063
v 0.000000 88.470415 0.000000
v -0.470363 88.470415 7.184620
v -0.380532 84.238362 5.812479
v -22.573711 88.470415 -1.477856
v -22.906676 84.767368 3.608063
v -22.985278 88.470415 4.808686
v -0.470363 88.470415 7.184620
v -0.380532 92.702469 5.812479
v -22.906676 92.173462 3.608063
v -22.985278 88.470415 4.808686
v 0.000000 88.470415 0.000000
v -0.380532 92.702469 5.812479
v -0.470363 88.470415 7.184620
v -22.573711 88.470415 -1.477856
v -22.985278 88.470415 4.808686
v -22.906676 92.173462 3.608063
v -0.380532 92.702469 5.812479
v -0.145350 95.318022 2.220170
v -22.700892 94.462071 0.464792
v -22.906676 92.173462 3.608063
v 0.000000 88.470415 0.000000
v -0.145350 95.318022 2.220170
v -0.380532 92.702469 5.812479
v -22.573711 88.470415 -1.477856
v -22.906676 92.173462 3.608063
v -22.700892 94.462071 0.464792
v -0.145350 95.318022 2.220170
v 0.145350 95.318022 -2.220170
v -22.446529 94.462071 -3.420504
v -22.700892 94.462071 0.464792
v 0.000000 88.470415 0.000000
v 0.145350 95.318022 -2.220170
v -0.145350 95.318022 2.220170
v -22.573711 88.470415 -1.477856
v -22.700892 94.462071 0.464792
v -22.446529 94.462071 -3.420504
v 0.145350 95.318022 -2.220170
v 0.380532 92.702469 -5.812479
v -22.240746 92.173462 -6.563776
v -22.446529 94.462071 -3.420504
v 0.000000 88.470415 0.000000
v 0.380532 92.702469 -5.812479
v 0.145350 95.318022 -2.220170
v -22.573711 88.470415 -1.477856
v -22.446529 94.462071 -3.420504
v -22.240746 92.173462 -6.563776
v 0.380532 92.702469 -5.812479
v 0.470363 88.470415 -7.184620
v -22.162143 88.470415 -7.764398
v -22.240746 92.173462 -6.563776
v 0.000000 88.470415 0.000000
v 0.470363 88.470415 -7.184620
v 0.380532 92.702469 -5.812479
v -22.573711 88.470415 -1.477856
v -22.240746 92.173462 -6.563776
v -22.162143 88.470415 -7.764398
v -22.573711 88.470415 -8.077856
v -26.453093 88.470415 -6.817368
v -25.306912 147.449372 -5.239785
v -22.573711 147.449372 -6.127856
v -22.573711 88.470415 -1.477856
v -26.453093 88.470415 -6.817368
v -22.573711 88.470415 -8.077856
v -22.573711 147.449372 -1.477856
v -22.573711 147.449372 -6.127856
v -25.306912 147.449372 -5.239785
v -26.453093 88.470415 -6.817368
v -28.850684 88.470415 -3.517368
v -26.996123 147.449372 -2.914785
v -25.306912 147.449372 -5.239785
v -22.573711 88.470415 -1.477856
v -28.850684 88.470415 -3.517368
v -26.453093 88.470415 -6.817368
v -22.573711 147.449372 -1.477856
v -25.306912 147.449372 -5.239785
v -26.996123 147.449372 -2.914785
v -28.850684 88.470415 -3.517368
v -28.850684 88.470415 0.561656
v -26.996123 147.449372 -0.040927
v -26.996123 147.449372 -2.914785
v -22.573711 88.470415 -1.477856
v -28.850684 88.470415 0.561656
v -28.850684 88.470415 -3.517368
v -22.573711 147.449372 -1.477856
v -26.996123 147.449372 -2.914785
v -26.996123 147.449372 -0.040927
v -28.850684 88.470415 0.561656
v -26.453093 88.470415 3.861656
v -25.306912 147.449372 2.284073
v -26.996123 147.449372 -0.040927
v -22.573711 88.470415 -1.477856
v -26.453093 88.470415 3.861656
v -28.850684 88.470415 0.561656
v -22.573711 147.449372 -1.477856
v -26.996123 147.449372 -0.040927
v -25.306912 147.449372 2.284073
v -26.453093 88.470415 3.861656
v -22.573711 88.470415 5.122144
v -22.573711 147.449372 3.172144
v -25.306912 147.449372 2.284073
v -22.573711 88.470415 -1.477856
v -22.573711 88.470415 5.122144
v -26.453093 88.470415 3.861656
v -22.573711 147.449372 -1.477856
v -25.306912 147.449372 2.284073
v -22.573711 147.449372 3.172144
v -22.573711 88.470415 5.122144
v -18.694328 88.470415 3.861656
v -19.840509 147.449372 2.284073
v -22.573711 147.449372 3.172144
v -22.573711 88.470415 -1.477856
v -18.694328 88.470415 3.861656
v -22.573711 88.470415 5.122144
v -22.573711 147.449372 -1.477856
v -22.573711 147.449372 3.172144
v -19.840509 147.449372 2.284073
v -18.694328 88.470415 3.861656
v -16.296738 88.470415 0.561656
v -18.151298 147.449372 -0.040927
v -19.840509 147.449372 2.284073
v -22.573711 88.470415 -1.477856
v -16.296738 88.470415 0.561656
v -18.694328 88.470415 3.861656
v -22.573711 147.449372 -1.477856
v -19.840509 147.449372 2.284073
v -18.151298 147.449372 -0.040927
v -16.296738 88.470415 0.561656
v -16.296738 88.470415 -3.517368
v -18.151298 147.449372 -2.914785
v -18.151298 147.449372 -0.040927
v -22.573711 88.470415 -1.477856
v -16.296738 88.470415 -3.517368
v -16.296738 88.470415 0.561656
v -22.573711 147.449372 -1.477856
v -18.151298 147.449372 -0.040927
v -18.151298 147.449372 -2.914785
v -16.296738 88.470415 -3.517368
v -18.694328 88.470415 -6.817368
v -19.840509 147.449372 -5.239785
v -18.151298 147.449372 -2.914785
v -22.573711 88.470415 -1.477856
v -18.694328 88.470415 -6.817368
v -16.296738 88.470415 -3.517368
v -22.573711 147.449372 -1.477856
v -18.151298 147.449372 -2.914785
v -19.840509 147.449372 -5.239785
v -18.694328 88.470415 -6.817368
v -22.573711 88.470415 -8.077856
v -22.573711 147.449372 -6.127856
v -19.840509 147.449372 -5.239785
v -22.573711 88.470415 -1.477856
v -22.573711 88.470415 -8.077856
v -18.694328 88.470415 -6.817368
v -22.573711 147.449372 -1.477856
v -19.840509 147.449372 -5.239785
v -22.573711 147.449372 -6.127856
v 2.259408 112.909164 6.836306
v 1.827900 108.677110 5.530687
v 29.213972 109.206117 -4.287297
v 29.591542 112.909164 -3.144881
v 0.000000 112.909164 0.000000
v 1.827900 108.677110 5.530687
v 2.259408 112.909164 6.836306
v 27.614560 112.909164 -9.126649
v 29.591542 112.909164 -3.144881
v 29.213972 109.206117 -4.287297
v 1.827900 108.677110 5.530687
v 0.698196 106.061557 2.112535
v 28.225481 106.917508 -7.278181
v 29.213972 109.206117 -4.287297
v 0.000000 112.909164 0.000000
v 0.698196 106.061557 2.112535
v 1.827900 108.677110 5.530687
v 27.614560 112.909164 -9.126649
v 29.213972 109.206117 -4.287297
v 28.225481 106.917508 -7.278181
v 0.698196 106.061557 2.112535
v -0.698196 106.061557 -2.112535
v 27.003639 106.917508 -10.975117
v 28.225481 106.917508 -7.278181
v 0.000000 112.909164 0.000000
v -0.698196 106.061557 -2.112535
v 0.698196 106.061557 2.112535
v 27.614560 112.909164 -9.126649
v 28.225481 106.917508 -7.278181
v 27.003639 106.917508 -10.975117
v -0.698196 106.061557 -2.112535
v -1.827900 108.677110 -5.530687
v 26.015147 109.206117 -13.966000
v 27.003639 106.917508 -10.975117
v 0.000000 112.909164 0.000000
v -1.827900 108.677110 -5.530687
v -0.698196 106.061557 -2.112535
v 27.614560 112.909164 -9.126649
v 27.003639 106.917508 -10.975117
v 26.015147 109.206117 -13.966000
v -1.827900 108.677110 -5.530687
v -2.259408 112.909164 -6.836306
v 25.637578 112.909164 -15.108416
v 26.015147 109.206117 -13.966000
v 0.000000 112.909164 0.000000
v -2.259408 112.909164 -6.836306
v -1.827900 108.677110 -5.530687
v 27.614560 112.909164 -9.126649
v 26.015147 109.206117 -13.966000
v 25.637578 112.909164 -15.108416
v -2.259408 112.909164 -6.836306
v -1.827900 117.141218 -5.530687
v 26.015147 116.612211 -13.966000
v 25.637578 112.909164 -15.108416
v 0.000000 112.909164 0.000000
v -1.827900 117.141218 -5.530687
v -2.259408 112.909164 -6.836306
v 27.614560 112.909164 -9.126649
v 25.637578 112.909164 -15.108416
v 26.015147 116.612211 -13.966000
v -1.827900 117.141218 -5.530687
v -0.698196 119.756771 -2.112535
v 27.003639 118.900820 -10.975117
v 26.015147 116.612211 -13.966000
v 0.000000 112.909164 0.000000
v -0.698196 119.756771 -2.112535
v -1.827900 117.141218 -5.530687
v 27.614560 112.909164 -9.126649
v 26.015147 116.612211 -13.966000
v 27.003639 118.900820 -10.975117
v -0.698196 119.756771 -2.112535
v 0.698196 119.756771 2.112535
v 28.225481 118.900820 -7.278181
v 27.003639 118.900820 -10.975117
v 0.000000 112.909164 0.000000
v 0.698196 119.756771 2.112535
v -0.698196 119.756771 -2.112535
v 27.614560 112.909164 -9.126649
v 27.003639 118.900820 -10.975117
v 28.225481 118.900820 -7.278181
v 0.698196 119.756771 2.112535
v 1.827900 117.141218 5.530687
v 29.213972 116.612211 -4.287297
v 28.225481 118.900820 -7.278181
v 0.000000 112.909164 0.000000
v 1.827900 117.141218 5.530687
v 0.698196 119.756771 2.112535
v 27.614560 112.909164 -9.126649
v 28.225481 118.900820 -7.278181
v 29.213972 116.612211 -4.287297
v 1.827900 117.141218 5.530687
v 2.259408 112.909164 6.836306
v 29.591542 112.909164 -3.144881
v 29.213972 116.612211 -4.287297
v 0.000000 112.909164 0.000000
v 2.259408 112.909164 6.836306
v 1.827900 117.141218 5.530687
v 27.614560 112.909164 -9.126649
v 29.213972 116.612211 -4.287297
v 29.591542 112.909164 -3.144881
v 27.614560 112.909164 -15.726649
v 23.735177 112.909164 -14.466161
v 24.881358 187.405863 -12.888578
v 27.614560 187.405863 -13.776649
v 27.614560 112.909164 -9.126649
v 23.735177 112.909164 -14.466161
v 27.614560 112.909164 -15.726649
v 27.614560 187.405863 -9.126649
v 27.614560 187.405863 -13.776649
v 24.881358 187.405863 -12.888578
v 23.735177 112.909164 -14.466161
v 21.337587 112.909164 -11.166161
v 23.192147 187.405863 -10.563578
v 24.881358 187.405863 -12.888578
v 27.614560 112.909164 -9.126649
v 21.337587 112.909164 -11.166161
v 23.735177 112.909164 -14.466161
v 27.614560 187.405863 -9.126649
v 24.881358 187.405863 -12.888578
v 23.192147 187.405863 -10.563578
v 21.337587 112.909164 -11.166161
v 21.337587 112.909164 -7.087137
v 23.192147 187.405863 -7.689720
v 23.192147 187.405863 -10.563578
v 27.614560 112.909164 -9.126649
v 21.337587 112.909164 -7.087137
v 21.337587 112.909164 -11.166161
v 27.614560 187.405863 -9.126649
v 23.192147 187.405863 -10.563578
v 23.192147 187.405863 -7.689720
v 21.337587 112.909164 -7.087137
v 23.735177 112.909164 -3.787137
v 24.881358 187.405863 -5.364720
v 23.192147 187.405863 -7.689720
v 27.614560 112.909164 -9.126649
v 23.735177 112.909164 -3.787137
v 21.337587 112.909164 -7.087137
v 27.614560 187.405863 -9.126649
v 23.192147 187.405863 -7.689720
v 24.881358 187.405863 -5.364720
v 23.735177 112.909164 -3.787137
v 27.614560 112.909164 -2.526649
v 27.614560 187.405863 -4.476649
v 24.881358 187.405863 -5.364720
v 27.614560 112.909164 -9.126649
v 27.614560 112.909164 -2.526649
v 23.735177 112.909164 -3.787137
v 27.614560 187.405863 -9.126649
v 24.881358 187.405863 -5.364720
v 27.614560 187.405863 -4.476649
v 27.614560 112.909164 -2.526649
v 31.493942 112.909164 -3.787137
v 30.347761 187.405863 -5.364720
v 27.614560 187.405863 -4.476649
v 27.614560 112.909164 -9.126649
v 31.493942 112.909164 -3.787137
v 27.614560 112.909164 -2.526649
v 27.614560 187.405863 -9.126649
v 27.614560 187.405863 -4.476649
v 30.347761 187.405863 -5.364720
v 31.493942 112.909164 -3.787137
v 33.891533 112.909164 -7.087137
v 32.036972 187.405863 -7.689720
v 30.347761 187.405863 -5.364720
v 27.614560 112.909164 -9.126649
v 33.891533 112.909164 -7.087137
v 31.493942 112.909164 -3.787137
v 27.614560 187.405863 -9.126649
v 30.347761 187.405863 -5.364720
v 32.036972 187.405863 -7.689720
v 33.891533 112.909164 -7.087137
v 33.891533 112.909164 -11.166161
v 32.036972 187.405863 -10.563578
v 32.036972 187.405863 -7.689720
v 27.614560 112.909164 -9.126649
v 33.891533 112.909164 -11.166161
v 33.891533 112.909164 -7.087137
v 27.614560 187.405863 -9.126649
v 32.036972 187.405863 -7.689720
v 32.036972 187.405863 -10.563578
v 33.891533 112.909164 -11.166161
v 31.493942 112.909164 -14.466161
v 30.347761 187.405863 -12.888578
v 32.036972 187.405863 -10.563578
v 27.614560 112.909164 -9.126649
v 31.493942 112.909164 -14.466161
v 33.891533 112.909164 -11.166161
v 27.614560 187.405863 -9.126649
v 32.036972 187.405863 -10.563578
v 30.347761 187.405863 -12.888578
v 31.493942 112.909164 -14.466161
v 27.614560 112.909164 -15.726649
v 27.614560 187.405863 -13.776649
v 30.347761 187.405863 -12.888578
v 27.614560 112.909164 -9.126649
v 27.614560 112.909164 -15.726649
v 31.493942 112.909164 -14.466161
v 27.614560 187.405863 -9.126649
v 30.347761 187.405863 -12.888578
v 27.614560 187.405863 -13.776649
v 0.000000 135.858152 0.000000
v -2.750567 137.233229 3.216311
v -21.512828 137.961345 -13.525118
v -19.106082 136.758152 -16.339390
v 0.000000 143.058152 0.000000
v -2.750567 137.233229 3.216311
v 0.000000 135.858152 0.000000
v -19.106082 143.058152 -16.339390
v -19.106082 136.758152 -16.339390
v -21.512828 137.961345 -13.525118
v -2.750567 137.233229 3.216311
v -4.450511 140.833229 5.204101
v -23.000279 141.111345 -11.785801
v -21.512828 137.961345 -13.525118
v 0.000000 143.058152 0.000000
v -4.450511 140.833229 5.204101
v -2.750567 137.233229 3.216311
v -19.106082 143.058152 -16.339390
v -21.512828 137.961345 -13.525118
v -23.000279 141.111345 -11.785801
v -4.450511 140.833229 5.204101
v -4.450511 145.283074 5.204101
v -23.000279 145.004959 -11.785801
v -23.000279 141.111345 -11.785801
v 0.000000 143.058152 0.000000
v -4.450511 145.283074 5.204101
v -4.450511 140.833229 5.204101
v -19.106082 143.058152 -16.339390
v -23.000279 141.111345 -11.785801
v -23.000279 145.004959 -11.785801
v -4.450511 145.283074 5.204101
v -2.750567 148.883074 3.216311
v -21.512828 148.154959 -13.525118
v -23.000279 145.004959 -11.785801
v 0.000000 143.058152 0.000000
v -2.750567 148.883074 3.216311
v -4.450511 145.283074 5.204101
v -19.106082 143.058152 -16.339390
v -23.000279 145.004959 -11.785801
v -21.512828 148.154959 -13.525118
v -2.750567 148.883074 3.216311
v -0.000000 150.258152 0.000000
v -19.106082 149.358152 -16.339390
v -21.512828 148.154959 -13.525118
v 0.000000 143.058152 0.000000
v -0.000000 150.258152 0.000000
v -2.750567 148.883074 3.216311
v -19.106082 143.058152 -16.339390
v -21.512828 148.154959 -13.525118
v -19.106082 149.358152 -16.339390
v -0.000000 150.258152 0.000000
v 2.750567 148.883074 -3.216311
v -16.699335 148.154959 -19.153662
v -19.106082 149.358152 -16.339390
v 0.000000 143.058152 0.000000
v 2.750567 148.883074 -3.216311
v -0.000000 150.258152 0.000000
v -19.106082 143.058152 -16.339390
v -19.106082 149.358152 -16.339390
v -16.699335 148.154959 -19.153662
v 2.750567 148.883074 -3.216311
v 4.450511 145.283074 -5.204101
v -15.211884 145.004959 -20.892978
v -16.699335 148.154959 -19.153662
v 0.000000 143.058152 0.000000
v 4.450511 145.283074 -5.204101
v 2.750567 148.883074 -3.216311
v -19.106082 143.058152 -16.339390
v -16.699335 148.154959 -19.153662
v -15.211884 145.004959 -20.892978
v 4.450511 145.283074 -5.204101
v 4.450511 140.833229 -5.204101
v -15.211884 141.111345 -20.892978
v -15.211884 145.004959 -20.892978
v 0.000000 143.058152 0.000000
v 4.450511 140.833229 -5.204101
v 4.450511 145.283074 -5.204101
v -19.106082 143.058152 -16.339390
v -15.211884 145.004959 -20.892978
v -15.211884 141.111345 -20.892978
v 4.450511 140.833229 -5.204101
v 2.750567 137.233229 -3.216311
v -16.699335 137.961345 -19.153662
v -15.211884 141.111345 -20.892978
v 0.000000 143.058152 0.000000
v 2.750567 137.233229 -3.216311
v 4.450511 140.833229 -5.204101
v -19.106082 143.058152 -16.339390
v -15.211884 141.111345 -20.892978
v -16.699335 137.961345 -19.153662
v 2.750567 137.233229 -3.216311
v 0.000000 135.858152 0.000000
v -19.106082 136.758152 -16.339390
v -16.699335 137.961345 -19.153662
v 0.000000 143.058152 0.000000
v 0.000000 135.858152 0.000000
v 2.750567 137.233229 -3.216311
v -19.106082 143.058152 -16.339390
v -16.699335 137.961345 -19.153662
v -19.106082 136.758152 -16.339390
v -19.106082 143.058152 -22.939390
v -22.985465 143.058152 -21.678902
v -21.839283 188.456228 -20.101319
v -19.106082 188.456228 -20.989390
v -19.106082 143.058152 -16.339390
v -22.985465 143.058152 -21.678902
v -19.106082 143.058152 -22.939390
v -19.106082 188.456228 -16.339390
v -19.106082 188.456228 -20.989390
v -21.839283 188.456228 -20.101319
v -22.985465 143.058152 -21.678902
v -25.383055 143.058152 -18.378902
v -23.528495 188.456228 -17.776319
v -21.839283 188.456228 -20.101319
v -19.106082 143.058152 -16.339390
v -25.383055 143.058152 -18.378902
v -22.985465 143.058152 -21.678902
v -19.106082 188.456228 -16.339390
v -21.839283 188.456228 -20.101319
v -23.528495 188.456228 -17.776319
v -25.383055 143.058152 -18.378902
v -25.383055 143.058152 -14.299878
v -23.528495 188.456228 -14.902461
v -23.528495 188.456228 -17.776319
v -19.106082 143.058152 -16.339390
v -25.383055 143.058152 -14.299878
v -25.383055 143.058152 -18.378902
v -19.106082 188.456228 -16.339390
v -23.528495 188.456228 -17.776319
v -23.528495 188.456228 -14.902461
v -25.383055 143.058152 -14.299878
v -22.985465 143.058152 -10.999878
v -21.839283 188.456228 -12.577461
v -23.528495 188.456228 -14.902461
v -19.106082 143.058152 -16.339390
v -22.985465 143.058152 -10.999878
v -25.383055 143.058152 -14.299878
v -19.106082 188.456228 -16.339390
v -23.528495 188.456228 -14.902461
v -21.839283 188.456228 -12.577461
v -22.985465 143.058152 -10.999878
v -19.106082 143.058152 -9.739390
v -19.106082 188.456228 -11.689390
v -21.839283 188.456228 -12.577461
v -19.106082 143.058152 -16.339390
v -19.106082 143.058152 -9.739390
v -22.985465 143.058152 -10.999878
v -19.106082 188.456228 -16.339390
v -21.839283 188.456228 -12.577461
v -19.106082 188.456228 -11.689390
v -19.106082 143.058152 -9.739390
v -15.226699 143.058152 -10.999878
v -16.372880 188.456228 -12.577461
v -19.106082 188.456228 -11.689390
v -19.106082 143.058152 -16.339390
v -15.226699 143.058152 -10.999878
v -19.106082 143.058152 -9.739390
v -19.106082 188.456228 -16.339390
v -19.106082 188.456228 -11.689390
v -16.372880 188.456228 -12.577461
v -15.226699 143.058152 -10.999878
v -12.829109 143.058152 -14.299878
v -14.683669 188.456228 -14.902461
v -16.372880 188.456228 -12.577461
v -19.106082 143.058152 -16.339390
v -12.829109 143.058152 -14.299878
v -15.226699 143.058152 -10.999878
v -19.106082 188.456228 -16.339390
v -16.372880 188.456228 -12.577461
v -14.683669 188.456228 -14.902461
v -12.829109 143.058152 -14.299878
v -12.829109 143.058152 -18.378902
v -14.683669 188.456228 -17.776319
v -14.683669 188.456228 -14.902461
v -19.106082 143.058152 -16.339390
v -12.829109 143.058152 -18.378902
v -12.829109 143.058152 -14.299878
v -19.106082 188.456228 -16.339390
v -14.683669 188.456228 -14.902461
v -14.683669 188.456228 -17.776319
v -12.829109 143.058152 -18.378902
v -15.226699 143.058152 -21.678902
v -16.372880 188.456228 -20.101319
v -14.683669 188.456228 -17.776319
v -19.106082 143.058152 -16.339390
v -15.226699 143.058152 -21.678902
v -12.829109 143.058152 -18.378902
v -19.106082 188.456228 -16.339390
v -14.683669 188.456228 -17.776319
v -16.372880 188.456228 -20.101319
v -15.226699 143.058152 -21.678902
v -19.106082 143.058152 -22.939390
v -19.106082 188.456228 -20.989390
v -16.372880 188.456228 -20.101319
v -19.106082 143.058152 -16.339390
v -19.106082 143.058152 -22.939390
v -15.226699 143.058152 -21.678902
v -19.106082 188.456228 -16.339390
v -16.372880 188.456228 -20.101319
v -19.106082 188.456228 -20.989390
vt 0.000000 0.000000
vt 1.000000 0.000000
vt 1.000000 1.000000
vt 0.000000 1.000000
vt 0.500000 1.000000
vt 0.000000 0.000000
vt 1.000000 0.000000
vt 0.500000 1.000000
vt 0.000000 0.000000
vt 1.000000 0.000000
vt 0.000000 0.000000
vt 1.000000 0.000000
vt 1.000000 1.000000
vt 0.000000 1.000000
vt 0.500000 1.000000
vt 0.000000 0.000000
vt 1.000000 0.000000
vt 0.500000 1.000000
vt 0.000000 0.000000
vt 1.000000 0.000000
vt 0.000000 0.000000
vt 1.000000 0.000000
vt 1.000000 1.000000
vt 0.000000 1.000000
vt 0.500000 1.000000
vt 0.000000 0.000000
vt 1.000000 0.000000
vt 0.500000 1.000000
vt 0.000000 0.000000
vt 1.000000 0.000000
vt 0.000000 0.000000
vt 1.000000 0.000000
vt 1.000000 1.000000
vt 0.000000 1.000000
vt 0.500000 1.000000
vt 0.000000 0.000000
vt 1.000000 0.000000
vt 0.500000 1.000000
vt 0.000000 0.000000
vt 1.000000 0.000000
vt 0.000000 0.000000
vt 1.000000 0.000000
vt 1.000000 1.000000
vt 0.000000 1.000000
vt 0.500000 1.000000
vt 0.000000 0.000000
vt 1.000000 0.000000
vt 0.500000 1.000000
vt 0.000000 0.000000
vt 1.000000 0.000000
vt 0.000000 0.000000
vt 1.000000 0.000000
vt 1.000000 1.000000
vt 0.000000 1.000000
vt 0.500000 1.000000
vt 0.000000 0.000000
vt 1.000000 0.000000
vt 0.500000 1.000000
vt 0.000000 0.000000
vt 1.000000 0.000000
vt 0.000000 0.000000
vt 1.000000 0.000000
vt 1.000000 1.000000
vt 0.000000 1.000000
vt 0.500000 1.000000
vt 0.000000 0.000000
vt 1.000000 0.000000
vt 0.500000 1.000000
vt 0.000000 0.000000
vt 1.000000 0.000000
vt 0.000000 0.000000
vt 1.000000 0.000000
vt 1.000000 1.000000
vt 0.000000 1.000000
vt 0.500000 1.000000
vt 0.000000 0.000000
vt 1.000000 0.000000
vt 0.500000 1.000000
vt 0.000000 0.000000
vt 1.000000 0.000000
vt 0.000000 0.000000
vt 1.000000 0.000000
vt 1.000000 1.000000
vt 0.000000 1.000000
vt 0.500000 1.000000
vt 0.000000 0.000000
vt 1.000000 0.000000
vt 0.500000 1.000000
vt 0.000000 0.000000
vt 1.000000 0.000000
vt 0.000000 0.000000
vt 1.000000 0.000000
vt 1.000000 1.000000
vt 0.000000 1.000000
vt 0.500000 1.000000
vt 0.000000 0.000000
vt 1.000000 0.000000
vt 0.500000 1.000000
vt 0.000000 0.000000
vt 1.000000 0.000000
vt 0.000000 0.000000
vt 1.000000 0.000000
vt 1.000000 1.000000
vt 0.000000 1.000000
vt 0.500000 1.000000
vt 0.000000 0.000000
vt 1.000000 0.000000
vt 0.500000 1.000000
vt 0.000000 0.000000
vt 1.000000 0.000000
vt 0.000000 0.000000
vt 1.000000 0.000000
vt 1.000000 1.000000
vt 0.000000 1.000000
vt 0.500000 1.000000
vt 0.000000 0.000000
vt 1.000000 0.000000
vt 0.500000 1.000000
vt 0.000000 0.000000
vt 1.000000 0.000000
vt 0.000000 0.000000
vt 1.000000 0.000000
vt 1.000000 1.000000
vt 0.000000 1.000000
vt 0.500000 1.000000
vt 0.000000 0.000000
vt 1.000000 0.000000
vt 0.500000 1.000000
vt 0.000000 0.000000
vt 1.000000 0.000000
vt 0.000000 0.000000
vt 1.000000 0.000000
vt 1.000000 1.000000
vt 0.000000 1.000000
vt 0.500000 1.000000
vt 0.000000 0.000000
vt 1.000000 0.000000
vt 0.500000 1.000000
vt 0.000000 0.000000
vt 1.000000 0.000000
vt 0.000000 0.000000
vt 1.000000 0.000000
vt 1.000000 1.000000
vt 0.000000 1.000000
vt 0.500000 1.000000
vt 0.000000 0.000000
vt 1.000000 0.000000
vt 0.500000 1.000000
vt 0.000000 0.000000
vt 1.000000 0.000000
vt 0.000000 0.000000
vt 1.000000 0.000000
vt 1.000000 1.000000
vt 0.000000 1.000000
vt 0.500000 1.000000
vt 0.000000 0.000000
vt 1.000000 0.000000
vt 0.500000 1.000000
vt 0.000000 0.000000
vt 1.000000 0.000000
vt 0.000000 0.000000
vt 1.000000 0.000000
vt 1.000000 1.000000
vt 0.000000 1.000000
vt 0.500000 1.000000
vt 0.000000 0.000000
vt 1.000000 0.000000
vt 0.500000 1.000000
vt 0.000000 0.000000
vt 1.000000 0.000000
vt 0.000000 0.000000
vt 1.000000 0.000000
vt 1.000000 1.000000
vt 0.000000 1.000000
vt 0.500000 1.000000
vt 0.000000 0.000000
vt 1.000000 0.000000
vt 0.500000 1.000000
vt 0.000000 0.000000
vt 1.000000 0.000000
vt 0.000000 0.000000
vt 1.000000 0.000000
vt 1.000000 1.000000
vt 0.000000 1.000000
vt 0.500000 1.000000
vt 0.000000 0.000000
vt 1.000000 0.000000
vt 0.500000 1.000000
vt 0.000000 0.000000
vt 1.000000 0.000000
vt 0.000000 0.000000
vt 1.000000 0.000000
vt 1.000000 1.000000
vt 0.000000 1.000000
vt 0.500000 1.000000
vt 0.000000 0.000000
vt 1.000000 0.000000
vt 0.500000 1.000000
vt 0.000000 0.000000
vt 1.000000 0.000000
vt 0.000000 0.000000
vt 1.000000 0.000000
vt 1.000000 1.000000
vt 0.000000 1.000000
vt 0.500000 1.000000
vt 0.000000 0.000000
vt 1.000000 0.000000
vt 0.500000 1.000000
vt 0.000000 0.000000
vt 1.000000 0.000000
vt 0.000000 0.000000
vt 1.000000 0.000000
vt 1.000000 1.000000
vt 0.000000 1.000000
vt 0.500000 1.000000
vt 0.000000 0.000000
vt 1.000000 0.000000
vt 0.500000 1.000000
vt 0.000000 0.000000
vt 1.000000 0.000000
vt 0.000000 0.000000
vt 1.000000 0.000000
vt 1.000000 1.000000
vt 0.000000 1.000000
vt 0.500000 1.000000
vt 0.000000 0.000000
vt 1.000000 0.000000
vt 0.500000 1.000000
vt 0.000000 0.000000
vt 1.000000 0.000000
vt 0.000000 0.000000
vt 1.000000 0.000000
vt 1.000000 1.000000
vt 0.000000 1.000000
vt 0.500000 1.000000
vt 0.000000 0.000000
vt 1.000000 0.000000
vt 0.500000 1.000000
vt 0.000000 0.000000
vt 1.000000 0.000000
vt 0.000000 0.000000
vt 1.000000 0.000000
vt 1.000000 1.000000
vt 0.000000 1.000000
vt 0.500000 1.000000
vt 0.000000 0.000000
vt 1.000000 0.000000
vt 0.500000 1.000000
vt 0.000000 0.000000
vt 1.000000 0.000000
vt 0.000000 0.000000
vt 1.000000 0.000000
vt 1.000000 1.000000
vt 0.000000 1.000000
vt 0.500000 1.000000
vt 0.000000 0.000000
vt 1.000000 0.000000
vt 0.500000 1.000000
vt 0.000000 0.000000
vt 1.000000 0.000000
vt 0.000000 0.000000
vt 1.000000 0.000000
vt 1.000000 1.000000
vt 0.000000 1.000000
vt 0.500000 1.000000
vt 0.000000 0.000000
vt 1.000000 0.000000
vt 0.500000 1.000000
vt 0.000000 0.000000
vt 1.000000 0.000000
vt 0.000000 0.000000
vt 1.000000 0.000000
vt 1.000000 1.000000
vt 0.000000 1.000000
vt 0.500000 1.000000
vt 0.000000 0.000000
vt 1.000000 0.000000
vt 0.500000 1.000000
vt 0.000000 0.000000
vt 1.000000 0.000000
vt 0.000000 0.000000
vt 1.000000 0.000000
vt 1.000000 1.000000
vt 0.000000 1.000000
vt 0.500000 1.000000
vt 0.000000 0.000000
vt 1.000000 0.000000
vt 0.500000 1.000000
vt 0.000000 0.000000
vt 1.000000 0.000000
vt 0.000000 0.000000
vt 1.000000 0.000000
vt 1.000000 1.000000
vt 0.000000 1.000000
vt 0.500000 1.000000
vt 0.000000 0.000000
vt 1.000000 0.000000
vt 0.500000 1.000000
vt 0.000000 0.000000
vt 1.000000 0.000000
vt 0.000000 0.000000
vt 1.000000 0.000000
vt 1.000000 1.000000
vt 0.000000 1.000000
vt 0.500000 1.000000
vt 0.000000 0.000000
vt 1.000000 0.000000
vt 0.500000 1.000000
vt 0.000000 0.000000
vt 1.000000 0.000000
vt 0.000000 0.000000
vt 1.000000 0.000000
vt 1.000000 1.000000
vt 0.000000 1.000000
vt 0.500000 1.000000
vt 0.000000 0.000000
vt 1.000000 0.000000
vt 0.500000 1.000000
vt 0.000000 0.000000
vt 1.000000 0.000000
vt 0.000000 0.000000
vt 1.000000 0.000000
vt 1.000000 1.000000
vt 0.000000 1.000000
vt 0.500000 1.000000
vt 0.000000 0.000000
vt 1.000000 0.000000
vt 0.500000 1.000000
vt 0.000000 0.000000
vt 1.000000 0.000000
vt 0.000000 0.000000
vt 1.000000 0.000000
vt 1.000000 1.000000
vt 0.000000 1.000000
vt 0.500000 1.000000
vt 0.000000 0.000000
vt 1.000000 0.000000
vt 0.500000 1.000000
vt 0.000000 0.000000
vt 1.000000 0.000000
vt 0.000000 0.000000
vt 1.000000 0.000000
vt 1.000000 1.000000
vt 0.000000 1.000000
vt 0.500000 1.000000
vt 0.000000 0.000000
vt 1.000000 0.000000
vt 0.500000 1.000000
vt 0.000000 0.000000
vt 1.000000 0.000000
vt 0.000000 0.000000
vt 1.000000 0.000000
vt 1.000000 1.000000
vt 0.000000 1.000000
vt 0.500000 1.000000
vt 0.000000 0.000000
vt 1.000000 0.000000
vt 0.500000 1.000000
vt 0.000000 0.000000
vt 1.000000 0.000000
vt 0.000000 0.000000
vt 1.000000 0.000000
vt 1.000000 1.000000
vt 0.000000 1.000000
vt 0.500000 1.000000
vt 0.000000 0.000000
vt 1.000000 0.000000
vt 0.500000 1.000000
vt 0.000000 0.000000
vt 1.000000 0.000000
vt 0.000000 0.000000
vt 1.000000 0.000000
vt 1.000000 1.000000
vt 0.000000 1.000000
vt 0.500000 1.000000
vt 0.000000 0.000000
vt 1.000000 0.000000
vt 0.500000 1.000000
vt 0.000000 0.000000
vt 1.000000 0.000000
vt 0.000000 0.000000
vt 1.000000 0.000000
vt 1.000000 1.000000
vt 0.000000 1.000000
vt 0.500000 1.000000
vt 0.000000 0.000000
vt 1.000000 0.000000
vt 0.500000 1.000000
vt 0.000000 0.000000
vt 1.000000 0.000000
vt 0.000000 0.000000
vt 1.000000 0.000000
vt 1.000000 1.000000
vt 0.000000 1.000000
vt 0.500000 1.000000
vt 0.000000 0.000000
vt 1.000000 0.000000
vt 0.500000 1.000000
vt 0.000000 0.000000
vt 1.000000 0.000000
vt 0.000000 0.000000
vt 1.000000 0.000000
vt 1.000000 1.000000
vt 0.000000 1.000000
vt 0.500000 1.000000
vt 0.000000 0.000000
vt 1.000000 0.000000
vt 0.500000 1.000000
vt 0.000000 0.000000
vt 1.000000 0.000000
vt 0.000000 0.000000
vt 1.000000 0.000000
vt 1.000000 1.000000
vt 0.000000 1.000000
vt 0.500000 1.000000
vt 0.000000 0.000000
vt 1.000000 0.000000
vt 0.500000 1.000000
vt 0.000000 0.000000
vt 1.000000 0.000000
vt 0.000000 0.000000
vt 1.000000 0.000000
vt 1.000000 1.000000
vt 0.000000 1.000000
vt 0.500000 1.000000
vt 0.000000 0.000000
vt 1.000000 0.000000
vt 0.500000 1.000000
vt 0.000000 0.000000
vt 1.000000 0.000000
vt 0.000000 0.000000
vt 1.000000 0.000000
vt 1.000000 1.000000
vt 0.000000 1.000000
vt 0.500000 1.000000
vt 0.000000 0.000000
vt 1.000000 0.000000
vt 0.500000 1.000000
vt 0.000000 0.000000
vt 1.000000 0.000000
vt 0.000000 0.000000
vt 1.000000 0.000000
vt 1.000000 1.000000
vt 0.000000 1.000000
vt 0.500000 1.000000
vt 0.000000 0.000000
vt 1.000000 0.000000
vt 0.500000 1.000000
vt 0.000000 0.000000
vt 1.000000 0.000000
vt 0.000000 0.000000
vt 1.000000 0.000000
vt 1.000000 1.000000
vt 0.000000 1.000000
vt 0.500000 1.000000
vt 0.000000 0.000000
vt 1.000000 0.000000
vt 0.500000 1.000000
vt 0.000000 0.000000
vt 1.000000 0.000000
vt 0.000000 0.000000
vt 1.000000 0.000000
vt 1.000000 1.000000
vt 0.000000 1.000000
vt 0.500000 1.000000
vt 0.000000 0.000000
vt 1.000000 0.000000
vt 0.500000 1.000000
vt 0.000000 0.000000
vt 1.000000 0.000000
vt 0.000000 0.000000
vt 1.000000 0.000000
vt 1.000000 1.000000
vt 0.000000 1.000000
vt 0.500000 1.000000
vt 0.000000 0.000000
vt 1.000000 0.000000
vt 0.500000 1.000000
vt 0.000000 0.000000
vt 1.000000 0.000000
vt 0.000000 0.000000
vt 1.000000 0.000000
vt 1.000000 1.000000
vt 0.000000 1.000000
vt 0.500000 1.000000
vt 0.000000 0.000000
vt 1.000000 0.000000
vt 0.500000 1.000000
vt 0.000000 0.000000
vt 1.000000 0.000000
vt 0.000000 0.000000
vt 1.000000 0.000000
vt 1.000000 1.000000
vt 0.000000 1.000000
vt 0.500000 1.000000
vt 0.000000 0.000000
vt 1.000000 0.000000
vt 0.500000 1.000000
vt 0.000000 0.000000
vt 1.000000 0.000000
vt 0.000000 0.000000
vt 1.000000 0.000000
vt 1.000000 1.000000
vt 0.000000 1.000000
vt 0.500000 1.000000
vt 0.000000 0.000000
vt 1.000000 0.000000
vt 0.500000 1.000000
vt 0.000000 0.000000
vt 1.000000 0.000000
vt 0.000000 0.000000
vt 1.000000 0.000000
vt 1.000000 1.000000
vt 0.000000 1.000000
vt 0.500000 1.000000
vt 0.000000 0.000000
vt 1.000000 0.000000
vt 0.500000 1.000000
vt 0.000000 0.000000
vt 1.000000 0.000000
vt 0.000000 0.000000
vt 1.000000 0.000000
vt 1.000000 1.000000
vt 0.000000 1.000000
vt 0.500000 1.000000
vt 0.000000 0.000000
vt 1.000000 0.000000
vt 0.500000 1.000000
vt 0.000000 0.000000
vt 1.000000 0.000000
vt 0.000000 0.000000
vt 1.000000 0.000000
vt 1.000000 1.000000
vt 0.000000 1.000000
vt 0.500000 1.000000
vt 0.000000 0.000000
vt 1.000000 0.000000
vt 0.500000 1.000000
vt 0.000000 0.000000
vt 1.000000 0.000000
vt 0.000000 0.000000
vt 1.000000 0.000000
vt 1.000000 1.000000
vt 0.000000 1.000000
vt 0.500000 1.000000
vt 0.000000 0.000000
vt 1.000000 0.000000
vt 0.500000 1.000000
vt 0.000000 0.000000
vt 1.000000 0.000000
vt 0.000000 0.000000
vt 1.000000 0.000000
vt 1.000000 1.000000
vt 0.000000 1.000000
vt 0.500000 1.000000
vt 0.000000 0.000000
vt 1.000000 0.000000
vt 0.500000 1.000000
vt 0.000000 0.000000
vt 1.000000 0.000000
vt 0.000000 0.000000
vt 1.000000 0.000000
vt 1.000000 1.000000
vt 0.000000 1.000000
vt 0.500000 1.000000
vt 0.000000 0.000000
vt 1.000000 0.000000
vt 0.500000 1.000000
vt 0.000000 0.000000
vt 1.000000 0.000000
vt 0.000000 0.000000
vt 1.000000 0.000000
vt 1.000000 1.000000
vt 0.000000 1.000000
vt 0.500000 1.000000
vt 0.000000 0.000000
vt 1.000000 0.000000
vt 0.500000 1.000000
vt 0.000000 0.000000
vt 1.000000 0.000000
vt 0.000000 0.000000
vt 1.000000 0.000000
vt 1.000000 1.000000
vt 0.000000 1.000000
vt 0.500000 1.000000
vt 0.000000 0.000000
vt 1.000000 0.000000
vt 0.500000 1.000000
vt 0.000000 0.000000
vt 1.000000 0.000000
vt 0.000000 0.000000
vt 1.000000 0.000000
vt 1.000000 1.000000
vt 0.000000 1.000000
vt 0.500000 1.000000
vt 0.000000 0.000000
vt 1.000000 0.000000
vt 0.500000 1.000000
vt 0.000000 0.000000
vt 1.000000 0.000000
vt 0.000000 0.000000
vt 1.000000 0.000000
vt 1.000000 1.000000
vt 0.000000 1.000000
vt 0.500000 1.000000
vt 0.000000 0.000000
vt 1.000000 0.000000
vt 0.500000 1.000000
vt 0.000000 0.000000
vt 1.000000 0.000000
vt 0.000000 0.000000
vt 1.000000 0.000000
vt 1.000000 1.000000
vt 0.000000 1.000000
vt 0.500000 1.000000
vt 0.000000 0.000000
vt 1.000000 0.000000
vt 0.500000 1.000000
vt 0.000000 0.000000
vt 1.000000 0.000000
vt 0.000000 0.000000
vt 1.000000 0.000000
vt 1.000000 1.000000
vt 0.000000 1.000000
vt 0.500000 1.000000
vt 0.000000 0.000000
vt 1.000000 0.000000
vt 0.500000 1.000000
vt 0.000000 0.000000
vt 1.000000 0.000000
vt 0.000000 0.000000
vt 1.000000 0.000000
vt 1.000000 1.000000
vt 0.000000 1.000000
vt 0.500000 1.000000
vt 0.000000 0.000000
vt 1.000000 0.000000
vt 0.500000 1.000000
vt 0.000000 0.000000
vt 1.000000 0.000000
vt 0.000000 0.000000
vt 1.000000 0.000000
vt 1.000000 1.000000
vt 0.000000 1.000000
vt 0.500000 1.000000
vt 0.000000 0.000000
vt 1.000000 0.000000
vt 0.500000 1.000000
vt 0.000000 0.000000
vt 1.000000 0.000000
vt 0.000000 0.000000
vt 1.000000 0.000000
vt 1.000000 1.000000
vt 0.000000 1.000000
vt 0.500000 1.000000
vt 0.000000 0.000000
vt 1.000000 0.000000
vt 0.500000 1.000000
vt 0.000000 0.000000
vt 1.000000 0.000000
vt 0.000000 0.000000
vt 1.000000 0.000000
vt 1.000000 1.000000
vt 0.000000 1.000000
vt 0.500000 1.000000
vt 0.000000 0.000000
vt 1.000000 0.000000
vt 0.500000 1.000000
vt 0.000000 0.000000
vt 1.000000 0.000000
vt 0.000000 0.000000
vt 1.000000 0.000000
vt 1.000000 1.000000
vt 0.000000 1.000000
vt 0.500000 1.000000
vt 0.000000 0.000000
vt 1.000000 0.000000
vt 0.500000 1.000000
vt 0.000000 0.000000
vt 1.000000 0.000000
vt 0.000000 0.000000
vt 1.000000 0.000000
vt 1.000000 1.000000
vt 0.000000 1.000000
vt 0.500000 1.000000
vt 0.000000 0.000000
vt 1.000000 0.000000
vt 0.500000 1.000000
vt 0.000000 0.000000
vt 1.000000 0.000000
vt 0.000000 0.000000
vt 1.000000 0.000000
vt 1.000000 1.000000
vt 0.000000 1.000000
vt 0.500000 1.000000
vt 0.000000 0.000000
vt 1.000000 0.000000
vt 0.500000 1.000000
vt 0.000000 0.000000
vt 1.000000 0.000000
vt 0.000000 0.000000
vt 1.000000 0.000000
vt 1.000000 1.000000
vt 0.000000 1.000000
vt 0.500000 1.000000
vt 0.000000 0.000000
vt 1.000000 0.000000
vt 0.500000 1.000000
vt 0.000000 0.000000
vt 1.000000 0.000000
vt 0.000000 0.000000
vt 1.000000 0.000000
vt 1.000000 1.000000
vt 0.000000 1.000000
vt 0.500000 1.000000
vt 0.000000 0.000000
vt 1.000000 0.000000
vt 0.500000 1.000000
vt 0.000000 0.000000
vt 1.000000 0.000000
s 1
usemtl models/caelum/world/environment/cactus_desert.png
f 1/1 2/2 3/3 4/4
f 5/5 6/6 7/7
f 8/8 9/9 10/10
f 11/11 12/12 13/13 14/14
f 15/15 16/16 17/17
f 18/18 19/19 20/20
f 21/21 22/22 23/23 24/24
f 25/25 26/26 27/27
f 28/28 29/29 30/30
f 31/31 32/32 33/33 34/34
f 35/35 36/36 37/37
f 38/38 39/39 40/40
f 41/41 42/42 43/43 44/44
f 45/45 46/46 47/47
f 48/48 49/49 50/50
f 51/51 52/52 53/53 54/54
f 55/55 56/56 57/57
f 58/58 59/59 60/60
f 61/61 62/62 63/63 64/64
f 65/65 66/66 67/67
f 68/68 69/69 70/70
f 71/71 72/72 73/73 74/74
f 75/75 76/76 77/77
f 78/78 79/79 80/80
f 81/81 82/82 83/83 84/84
f 85/85 86/86 87/87
f 88/88 89/89 90/90
f 91/91 92/92 93/93 94/94
f 95/95 96/96 97/97
f 98/98 99/99 100/100
f 101/101 102/102 103/103 104/104
f 105/105 106/106 107/107
f 108/108 109/109 110/110
f 111/111 112/112 113/113 114/114
f 115/115 116/116 117/117
f 118/118 119/119 120/120
f 121/121 122/122 123/123 124/124
f 125/125 126/126 127/127
f 128/128 129/129 130/130
f 131/131 132/132 133/133 134/134
f 135/135 136/136 137/137
f 138/138 139/139 140/140
f 141/141 142/142 143/143 144/144
f 145/145 146/146 147/147
f 148/148 149/149 150/150
f 151/151 152/152 153/153 154/154
f 155/155 156/156 157/157
f 158/158 159/159 160/160
f 161/161 162/162 163/163 164/164
f 165/165 166/166 167/167
f 168/168 169/169 170/170
f 171/171 172/172 173/173 174/174
f 175/175 176/176 177/177
f 178/178 179/179 180/180
f 181/181 182/182 183/183 184/184
f 185/185 186/186 187/187
f 188/188 189/189 190/190
f 191/191 192/192 193/193 194/194
f 195/195 196/196 197/197
f 198/198 199/199 200/200
f 201/201 202/202 203/203 204/204
f 205/205 206/206 207/207
f 208/208 209/209 210/210
f 211/211 212/212 213/213 214/214
f 215/215 216/216 217/217
f 218/218 219/219 220/220
f 221/221 222/222 223/223 224/224
f 225/225 226/226 227/227
f 228/228 229/229 230/230
f 231/231 232/232 233/233 234/234
f 235/235 236/236 237/237
f 238/238 239/239 240/240
f 241/241 242/242 243/243 244/244
f 245/245 246/246 247/247
f 248/248 249/249 250/250
f 251/251 252/252 253/253 254/254
f 255/255 256/256 257/257
f 258/258 259/259 260/260
f 261/261 262/262 263/263 264/264
f 265/265 266/266 267/267
f 268/268 269/269 270/270
f 271/271 272/272 273/273 274/274
f 275/275 276/276 277/277
f 278/278 279/279 280/280
f 281/281 282/282 283/283 284/284
f 285/285 286/286 287/287
f 288/288 289/289 290/290
f 291/291 292/292 293/293 294/294
f 295/295 296/296 297/297
f 298/298 299/299 300/300
f 301/301 302/302 303/303 304/304
f 305/305 306/306 307/307
f 308/308 309/309 310/310
f 311/311 312/312 313/313 314/314
f 315/315 316/316 317/317
f 318/318 319/319 320/320
f 321/321 322/322 323/323 324/324
f 325/325 326/326 327/327
f 328/328 329/329 330/330
f 331/331 332/332 333/333 334/334
f 335/335 336/336 337/337
f 338/338 339/339 340/340
f 341/341 342/342 343/343 344/344
f 345/345 346/346 347/347
f 348/348 349/349 350/350
f 351/351 352/352 353/353 354/354
f 355/355 356/356 357/357
f 358/358 359/359 360/360
f 361/361 362/362 363/363 364/364
f 365/365 366/366 367/367
f 368/368 369/369 370/370
f 371/371 372/372 373/373 374/374
f 375/375 376/376 377/377
f 378/378 379/379 380/380
f 381/381 382/382 383/383 384/384
f 385/385 386/386 387/387
f 388/388 389/389 390/390
f 391/391 392/392 393/393 394/394
f 395/395 396/396 397/397
f 398/398 399/399 400/400
f 401/401 402/402 403/403 404/404
f 405/405 406/406 407/407
f 408/408 409/409 410/410
f 411/411 412/412 413/413 414/414
f 415/415 416/416 417/417
f 418/418 419/419 420/420
f 421/421 422/422 423/423 424/424
f 425/425 426/426 427/427
f 428/428 429/429 430/430
f 431/431 432/432 433/433 434/434
f 435/435 436/436 437/437
f 438/438 439/439 440/440
f 441/441 442/442 443/443 444/444
f 445/445 446/446 447/447
f 448/448 449/449 450/450
f 451/451 452/452 453/453 454/454
f 455/455 456/456 457/457
f 458/458 459/459 460/460
f 461/461 462/462 463/463 464/464
f 465/465 466/466 467/467
f 468/468 469/469 470/470
f 471/471 472/472 473/473 474/474
f 475/475 476/476 477/477
f 478/478 479/479 480/480
f 481/481 482/482 483/483 484/484
f 485/485 486/486 487/487
f 488/488 489/489 490/490
f 491/491 492/492 493/493 494/494
f 495/495 496/496 497/497
f 498/498 499/499 500/500
f 501/501 502/502 503/503 504/504
f 505/505 506/506 507/507
f 508/508 509/509 510/510
f 511/511 512/512 513/513 514/514
f 515/515 516/516 517/517
f 518/518 519/519 520/520
f 521/521 522/522 523/523 524/524
f 525/525 526/526 527/527
f 528/528 529/529 530/530
f 531/531 532/532 533/533 534/534
f 535/535 536/536 537/537
f 538/538 539/539 540/540
f 541/541 542/542 543/543 544/544
f 545/545 546/546 547/547
f 548/548 549/549 550/550
f 551/551 552/552 553/553 554/554
f 555/555 556/556 557/557
f 558/558 559/559 560/560
f 561/561 562/562 563/563 564/564
f 565/565 566/566 567/567
f 568/568 569/569 570/570
f 571/571 572/572 573/573 574/574
f 575/575 576/576 577/577
f 578/578 579/579 580/580
f 581/581 582/582 583/583 584/584
f 585/585 586/586 587/587
f 588/588 589/589 590/590
f 591/591 592/592 593/593 594/594
f 595/595 596/596 597/597
f 598/598 599/599 600/600
f 601/601 602/602 603/603 604/604
f 605/605 606/606 607/607
f 608/608 609/609 610/610
f 611/611 612/612 613/613 614/614
f 615/615 616/616 617/617
f 618/618 619/619 620/620
f 621/621 622/622 623/623 624/624
f 625/625 626/626 627/627
f 628/628 629/629 630/630
f 631/631 632/632 633/633 634/634
f 635/635 636/636 637/637
f 638/638 639/639 640/640
f 641/641 642/642 643/643 644/644
f 645/645 646/646 647/647
f 648/648 649/649 650/650
f 651/651 652/652 653/653 654/654
f 655/655 656/656 657/657
f 658/658 659/659 660/660
f 661/661 662/662 663/663 664/664
f 665/665 666/666 667/667
f 668/668 669/669 670/670
f 671/671 672/672 673/673 674/674
f 675/675 676/676 677/677
f 678/678 679/679 680/680
f 681/681 682/682 683/683 684/684
f 685/685 686/686 687/687
f 688/688 689/689 690/690
f 691/691 692/692 693/693 694/694
f 695/695 696/696 697/697
f 698/698 699/699 700/700
f 701/701 702/702 703/703 704/704
f 705/705 706/706 707/707
f 708/708 709/709 710/710
f 711/711 712/712 713/713 714/714
f 715/715 716/716 717/717
f 718/718 719/719 720/720
