# Modelo original generado para Caelum Argenteum.
# Ejes OBJ: X ancho, Y altura, Z profundidad.
o ca_tree_mountain_cypress2
v 0.000000 0.048672 -9.999882
v -6.427400 -0.040923 -7.660734
v -2.990802 124.290588 -1.156969
v -1.512500 124.311195 -1.694973
v 0.000000 0.000000 0.000000
v -6.427400 -0.040923 -7.660734
v 0.000000 0.048672 -9.999882
v -6.427400 -0.040923 -7.660734
v -9.847349 -0.111369 -1.737044
v -3.777390 124.274385 0.205480
v -2.990802 124.290588 -1.156969
v 0.000000 0.000000 0.000000
v -9.847349 -0.111369 -1.737044
v -6.427400 -0.040923 -7.660734
v -9.847349 -0.111369 -1.737044
v -8.659613 -0.129705 4.999428
v -3.504211 124.270168 1.754868
v -3.777390 124.274385 0.205480
v 0.000000 0.000000 0.000000
v -8.659613 -0.129705 4.999428
v -9.847349 -0.111369 -1.737044
v -8.659613 -0.129705 4.999428
v -3.419948 -0.087350 9.396612
v -2.299088 124.279909 2.766221
v -3.504211 124.270168 1.754868
v 0.000000 0.000000 0.000000
v -3.419948 -0.087350 9.396612
v -8.659613 -0.129705 4.999428
v -3.419948 -0.087350 9.396612
v 3.419948 -0.004123 9.397017
v -0.725912 124.299052 2.766314
v -2.299088 124.279909 2.766221
v 0.000000 0.000000 0.000000
v 3.419948 -0.004123 9.397017
v -3.419948 -0.087350 9.396612
v 3.419948 -0.004123 9.397017
v 8.659613 0.081033 5.000454
v 0.479211 124.318638 1.755104
v -0.725912 124.299052 2.766314
v 0.000000 0.000000 0.000000
v 8.659613 0.081033 5.000454
v 3.419948 -0.004123 9.397017
v 8.659613 0.081033 5.000454
v 9.847349 0.128273 -1.735878
v 0.752390 124.329503 0.205748
v 0.479211 124.318638 1.755104
v 0.000000 0.000000 0.000000
v 9.847349 0.128273 -1.735878
v 8.659613 0.081033 5.000454
v 9.847349 0.128273 -1.735878
v 6.427400 0.115493 -7.659973
v -0.034198 124.326563 -1.156794
v 0.752390 124.329503 0.205748
v 0.000000 0.000000 0.000000
v 6.427400 0.115493 -7.659973
v 9.847349 0.128273 -1.735878
v 6.427400 0.115493 -7.659973
v 0.000000 0.048672 -9.999882
v -1.512500 124.311195 -1.694973
v -0.034198 124.326563 -1.156794
v 0.000000 0.000000 0.000000
v 0.000000 0.048672 -9.999882
v 6.427400 0.115493 -7.659973
v -1.787706 124.319794 -1.678390
v -3.190394 124.267469 -0.967772
v 0.309883 192.628377 5.144404
v -2.983385 192.505527 6.812811
v -3.629520 192.552000 1.451808
v -2.983385 192.505527 6.812811
v 0.309883 192.628377 5.144404
v -3.190394 124.267469 -0.967772
v -3.807977 124.230366 0.478763
v 1.759861 192.715489 1.748191
v 0.309883 192.628377 5.144404
v -3.629520 192.552000 1.451808
v 0.309883 192.628377 5.144404
v 1.759861 192.715489 1.748191
v -3.807977 124.230366 0.478763
v -3.351481 124.225845 1.984366
v 0.688087 192.726103 -1.786703
v 1.759861 192.715489 1.748191
v -3.629520 192.552000 1.451808
v 1.759861 192.715489 1.748191
v 0.688087 192.726103 -1.786703
v -3.351481 124.225845 1.984366
v -2.034505 124.256022 2.844548
v -2.403943 192.655252 -3.806262
v 0.688087 192.726103 -1.786703
v -3.629520 192.552000 1.451808
v 0.688087 192.726103 -1.786703
v -2.403943 192.655252 -3.806262
v -2.034505 124.256022 2.844548
v -0.473277 124.306777 2.656821
v -6.069434 192.536088 -3.365511
v -2.403943 192.655252 -3.806262
v -3.629520 192.552000 1.451808
v -2.403943 192.655252 -3.806262
v -6.069434 192.536088 -3.365511
v -0.473277 124.306777 2.656821
v 0.601687 124.354361 1.509024
v -8.593263 192.424370 -0.670683
v -6.069434 192.536088 -3.365511
v -3.629520 192.552000 1.451808
v -6.069434 192.536088 -3.365511
v -8.593263 192.424370 -0.670683
v 0.601687 124.354361 1.509024
v 0.687399 124.376509 -0.061776
v -8.794501 192.372371 3.017282
v -8.593263 192.424370 -0.670683
v -3.629520 192.552000 1.451808
v -8.593263 192.424370 -0.670683
v -8.794501 192.372371 3.017282
v 0.687399 124.376509 -0.061776
v -0.256246 124.362857 -1.320584
v -6.578987 192.404423 5.972744
v -8.794501 192.372371 3.017282
v -3.629520 192.552000 1.451808
v -8.794501 192.372371 3.017282
v -6.578987 192.404423 5.972744
v -0.256246 124.362857 -1.320584
v -1.787706 124.319794 -1.678390
v -2.983385 192.505527 6.812811
v -6.578987 192.404423 5.972744
v -3.629520 192.552000 1.451808
v -6.578987 192.404423 5.972744
v -2.983385 192.505527 6.812811
v 0.269155 45.181194 -32.984398
v -19.379854 45.181194 -26.600048
v -1.302766 75.691194 -1.719071
v 0.269155 75.691194 -2.229819
v 0.269155 45.181194 0.444493
v -19.379854 45.181194 -26.600048
v 0.269155 45.181194 -32.984398
v 0.269155 75.691194 0.444493
v 0.269155 75.691194 -2.229819
v -1.302766 75.691194 -1.719071
v -19.379854 45.181194 -26.600048
v -31.523609 45.181194 -9.885603
v -2.274266 75.691194 -0.381915
v -1.302766 75.691194 -1.719071
v 0.269155 45.181194 0.444493
v -31.523609 45.181194 -9.885603
v -19.379854 45.181194 -26.600048
v 0.269155 75.691194 0.444493
v -1.302766 75.691194 -1.719071
v -2.274266 75.691194 -0.381915
v -31.523609 45.181194 -9.885603
v -31.523609 45.181194 10.774588
v -2.274266 75.691194 1.270900
v -2.274266 75.691194 -0.381915
v 0.269155 45.181194 0.444493
v -31.523609 45.181194 10.774588
v -31.523609 45.181194 -9.885603
v 0.269155 75.691194 0.444493
v -2.274266 75.691194 -0.381915
v -2.274266 75.691194 1.270900
v -31.523609 45.181194 10.774588
v -19.379854 45.181194 27.489033
v -1.302766 75.691194 2.608056
v -2.274266 75.691194 1.270900
v 0.269155 45.181194 0.444493
v -19.379854 45.181194 27.489033
v -31.523609 45.181194 10.774588
v 0.269155 75.691194 0.444493
v -2.274266 75.691194 1.270900
v -1.302766 75.691194 2.608056
v -19.379854 45.181194 27.489033
v 0.269155 45.181194 33.873383
v 0.269155 75.691194 3.118804
v -1.302766 75.691194 2.608056
v 0.269155 45.181194 0.444493
v 0.269155 45.181194 33.873383
v -19.379854 45.181194 27.489033
v 0.269155 75.691194 0.444493
v -1.302766 75.691194 2.608056
v 0.269155 75.691194 3.118804
v 0.269155 45.181194 33.873383
v 19.918164 45.181194 27.489033
v 1.841076 75.691194 2.608056
v 0.269155 75.691194 3.118804
v 0.269155 45.181194 0.444493
v 19.918164 45.181194 27.489033
v 0.269155 45.181194 33.873383
v 0.269155 75.691194 0.444493
v 0.269155 75.691194 3.118804
v 1.841076 75.691194 2.608056
v 19.918164 45.181194 27.489033
v 32.061919 45.181194 10.774588
v 2.812576 75.691194 1.270900
v 1.841076 75.691194 2.608056
v 0.269155 45.181194 0.444493
v 32.061919 45.181194 10.774588
v 19.918164 45.181194 27.489033
v 0.269155 75.691194 0.444493
v 1.841076 75.691194 2.608056
v 2.812576 75.691194 1.270900
v 32.061919 45.181194 10.774588
v 32.061919 45.181194 -9.885603
v 2.812576 75.691194 -0.381915
v 2.812576 75.691194 1.270900
v 0.269155 45.181194 0.444493
v 32.061919 45.181194 -9.885603
v 32.061919 45.181194 10.774588
v 0.269155 75.691194 0.444493
v 2.812576 75.691194 1.270900
v 2.812576 75.691194 -0.381915
v 32.061919 45.181194 -9.885603
v 19.918164 45.181194 -26.600048
v 1.841076 75.691194 -1.719071
v 2.812576 75.691194 -0.381915
v 0.269155 45.181194 0.444493
v 19.918164 45.181194 -26.600048
v 32.061919 45.181194 -9.885603
v 0.269155 75.691194 0.444493
v 2.812576 75.691194 -0.381915
v 1.841076 75.691194 -1.719071
v 19.918164 45.181194 -26.600048
v 0.269155 45.181194 -32.984398
v 0.269155 75.691194 -2.229819
v 1.841076 75.691194 -1.719071
v 0.269155 45.181194 0.444493
v 0.269155 45.181194 -32.984398
v 19.918164 45.181194 -26.600048
v 0.269155 75.691194 0.444493
v 1.841076 75.691194 -1.719071
v 0.269155 75.691194 -2.229819
v -7.363968 60.794879 -31.308940
v -24.325246 60.794879 -22.171176
v -3.586411 91.304879 -2.361882
v -2.229509 91.304879 -3.092903
v -1.783034 60.794879 -0.639335
v -24.325246 60.794879 -22.171176
v -7.363968 60.794879 -31.308940
v -1.783034 91.304879 -0.639335
v -2.229509 91.304879 -3.092903
v -3.586411 91.304879 -2.361882
v -24.325246 60.794879 -22.171176
v -32.676166 60.794879 -4.808981
v -4.254485 91.304879 -0.972907
v -3.586411 91.304879 -2.361882
v -1.783034 60.794879 -0.639335
v -32.676166 60.794879 -4.808981
v -24.325246 60.794879 -22.171176
v -1.783034 91.304879 -0.639335
v -3.586411 91.304879 -2.361882
v -4.254485 91.304879 -0.972907
v -32.676166 60.794879 -4.808981
v -29.226959 60.794879 14.145878
v -3.978548 91.304879 0.543482
v -4.254485 91.304879 -0.972907
v -1.783034 60.794879 -0.639335
v -29.226959 60.794879 14.145878
v -32.676166 60.794879 -4.808981
v -1.783034 91.304879 -0.639335
v -4.254485 91.304879 -0.972907
v -3.978548 91.304879 0.543482
v -29.226959 60.794879 14.145878
v -15.295106 60.794879 27.453288
v -2.864000 91.304879 1.608075
v -3.978548 91.304879 0.543482
v -1.783034 60.794879 -0.639335
v -15.295106 60.794879 27.453288
v -29.226959 60.794879 14.145878
v -1.783034 91.304879 -0.639335
v -3.978548 91.304879 0.543482
v -2.864000 91.304879 1.608075
v -15.295106 60.794879 27.453288
v 3.797899 60.794879 30.030271
v -1.336559 91.304879 1.814234
v -2.864000 91.304879 1.608075
v -1.783034 60.794879 -0.639335
v 3.797899 60.794879 30.030271
v -15.295106 60.794879 27.453288
v -1.783034 91.304879 -0.639335
v -2.864000 91.304879 1.608075
v -1.336559 91.304879 1.814234
v 3.797899 60.794879 30.030271
v 20.759178 60.794879 20.892507
v 0.020343 91.304879 1.083212
v -1.336559 91.304879 1.814234
v -1.783034 60.794879 -0.639335
v 20.759178 60.794879 20.892507
v 3.797899 60.794879 30.030271
v -1.783034 91.304879 -0.639335
v -1.336559 91.304879 1.814234
v 0.020343 91.304879 1.083212
v 20.759178 60.794879 20.892507
v 29.110097 60.794879 3.530311
v 0.688416 91.304879 -0.305763
v 0.020343 91.304879 1.083212
v -1.783034 60.794879 -0.639335
v 29.110097 60.794879 3.530311
v 20.759178 60.794879 20.892507
v -1.783034 91.304879 -0.639335
v 0.020343 91.304879 1.083212
v 0.688416 91.304879 -0.305763
v 29.110097 60.794879 3.530311
v 25.660891 60.794879 -15.424547
v 0.412480 91.304879 -1.822152
v 0.688416 91.304879 -0.305763
v -1.783034 60.794879 -0.639335
v 25.660891 60.794879 -15.424547
v 29.110097 60.794879 3.530311
v -1.783034 91.304879 -0.639335
v 0.688416 91.304879 -0.305763
v 0.412480 91.304879 -1.822152
v 25.660891 60.794879 -15.424547
v 11.729037 60.794879 -28.731957
v -0.702068 91.304879 -2.886745
v 0.412480 91.304879 -1.822152
v -1.783034 60.794879 -0.639335
v 11.729037 60.794879 -28.731957
v 25.660891 60.794879 -15.424547
v -1.783034 91.304879 -0.639335
v 0.412480 91.304879 -1.822152
v -0.702068 91.304879 -2.886745
v 11.729037 60.794879 -28.731957
v -7.363968 60.794879 -31.308940
v -2.229509 91.304879 -3.092903
v -0.702068 91.304879 -2.886745
v -1.783034 60.794879 -0.639335
v -7.363968 60.794879 -31.308940
v 11.729037 60.794879 -28.731957
v -1.783034 91.304879 -0.639335
v -0.702068 91.304879 -2.886745
v -2.229509 91.304879 -3.092903
v -7.918514 78.681023 -23.759840
v -19.666516 78.681023 -14.372640
v -0.972653 109.191023 -2.058701
v -0.032813 109.191023 -2.809677
v 0.652900 78.681023 -0.987924
v -19.666516 78.681023 -14.372640
v -7.918514 78.681023 -23.759840
v 0.652900 109.191023 -0.987924
v -0.032813 109.191023 -2.809677
v -0.972653 109.191023 -2.058701
v -19.666516 78.681023 -14.372640
v -23.653192 78.681023 0.127066
v -1.291587 109.191023 -0.898725
v -0.972653 109.191023 -2.058701
v 0.652900 78.681023 -0.987924
v -23.653192 78.681023 0.127066
v -19.666516 78.681023 -14.372640
v 0.652900 109.191023 -0.987924
v -0.972653 109.191023 -2.058701
v -1.291587 109.191023 -0.898725
v -23.653192 78.681023 0.127066
v -18.355766 78.681023 14.200884
v -0.867793 109.191023 0.227181
v -1.291587 109.191023 -0.898725
v 0.652900 78.681023 -0.987924
v -18.355766 78.681023 14.200884
v -23.653192 78.681023 0.127066
v 0.652900 109.191023 -0.987924
v -1.291587 109.191023 -0.898725
v -0.867793 109.191023 0.227181
v -18.355766 78.681023 14.200884
v -5.797677 78.681023 22.473094
v 0.136854 109.191023 0.888958
v -0.867793 109.191023 0.227181
v 0.652900 78.681023 -0.987924
v -5.797677 78.681023 22.473094
v -18.355766 78.681023 14.200884
v 0.652900 109.191023 -0.987924
v -0.867793 109.191023 0.227181
v 0.136854 109.191023 0.888958
v -5.797677 78.681023 22.473094
v 9.224314 78.681023 21.783992
v 1.338613 109.191023 0.833829
v 0.136854 109.191023 0.888958
v 0.652900 78.681023 -0.987924
v 9.224314 78.681023 21.783992
v -5.797677 78.681023 22.473094
v 0.652900 109.191023 -0.987924
v 0.136854 109.191023 0.888958
v 1.338613 109.191023 0.833829
v 9.224314 78.681023 21.783992
v 20.972316 78.681023 12.396792
v 2.278453 109.191023 0.082853
v 1.338613 109.191023 0.833829
v 0.652900 78.681023 -0.987924
v 20.972316 78.681023 12.396792
v 9.224314 78.681023 21.783992
v 0.652900 109.191023 -0.987924
v 1.338613 109.191023 0.833829
v 2.278453 109.191023 0.082853
v 20.972316 78.681023 12.396792
v 24.958992 78.681023 -2.102914
v 2.597387 109.191023 -1.077123
v 2.278453 109.191023 0.082853
v 0.652900 78.681023 -0.987924
v 24.958992 78.681023 -2.102914
v 20.972316 78.681023 12.396792
v 0.652900 109.191023 -0.987924
v 2.278453 109.191023 0.082853
v 2.597387 109.191023 -1.077123
v 24.958992 78.681023 -2.102914
v 19.661567 78.681023 -16.176732
v 2.173593 109.191023 -2.203028
v 2.597387 109.191023 -1.077123
v 0.652900 78.681023 -0.987924
v 19.661567 78.681023 -16.176732
v 24.958992 78.681023 -2.102914
v 0.652900 109.191023 -0.987924
v 2.597387 109.191023 -1.077123
v 2.173593 109.191023 -2.203028
v 19.661567 78.681023 -16.176732
v 7.103477 78.681023 -24.448942
v 1.168946 109.191023 -2.864805
v 2.173593 109.191023 -2.203028
v 0.652900 78.681023 -0.987924
v 7.103477 78.681023 -24.448942
v 19.661567 78.681023 -16.176732
v 0.652900 109.191023 -0.987924
v 2.173593 109.191023 -2.203028
v 1.168946 109.191023 -2.864805
v 7.103477 78.681023 -24.448942
v -7.918514 78.681023 -23.759840
v -0.032813 109.191023 -2.809677
v 1.168946 109.191023 -2.864805
v 0.652900 78.681023 -0.987924
v -7.918514 78.681023 -23.759840
v 7.103477 78.681023 -24.448942
v 0.652900 109.191023 -0.987924
v 1.168946 109.191023 -2.864805
v -0.032813 109.191023 -2.809677
v -14.419233 91.416082 -20.039229
v -23.906668 91.416082 -9.148346
v -4.123849 121.926082 -0.726463
v -3.364854 121.926082 -1.597734
v -2.403604 91.416082 0.005874
v -23.906668 91.416082 -9.148346
v -14.419233 91.416082 -20.039229
v -2.403604 121.926082 0.005874
v -3.364854 121.926082 -1.597734
v -4.123849 121.926082 -0.726463
v -23.906668 91.416082 -9.148346
v -25.180664 91.416082 5.239139
v -4.225769 121.926082 0.424535
v -4.123849 121.926082 -0.726463
v -2.403604 91.416082 0.005874
v -25.180664 91.416082 5.239139
v -23.906668 91.416082 -9.148346
v -2.403604 121.926082 0.005874
v -4.123849 121.926082 -0.726463
v -4.225769 121.926082 0.424535
v -25.180664 91.416082 5.239139
v -17.754597 91.416082 17.627694
v -3.631683 121.926082 1.415620
v -4.225769 121.926082 0.424535
v -2.403604 91.416082 0.005874
v -17.754597 91.416082 17.627694
v -25.180664 91.416082 5.239139
v -2.403604 121.926082 0.005874
v -4.225769 121.926082 0.424535
v -3.631683 121.926082 1.415620
v -17.754597 91.416082 17.627694
v -4.464972 91.416082 23.285313
v -2.568513 121.926082 1.868229
v -3.631683 121.926082 1.415620
v -2.403604 91.416082 0.005874
v -4.464972 91.416082 23.285313
v -17.754597 91.416082 17.627694
v -2.403604 121.926082 0.005874
v -3.631683 121.926082 1.415620
v -2.568513 121.926082 1.868229
v -4.464972 91.416082 23.285313
v 9.612025 91.416082 20.050978
v -1.442354 121.926082 1.609482
v -2.568513 121.926082 1.868229
v -2.403604 91.416082 0.005874
v 9.612025 91.416082 20.050978
v -4.464972 91.416082 23.285313
v -2.403604 121.926082 0.005874
v -2.568513 121.926082 1.868229
v -1.442354 121.926082 1.609482
v 9.612025 91.416082 20.050978
v 19.099460 91.416082 9.160094
v -0.683359 121.926082 0.738212
v -1.442354 121.926082 1.609482
v -2.403604 91.416082 0.005874
v 19.099460 91.416082 9.160094
v 9.612025 91.416082 20.050978
v -2.403604 121.926082 0.005874
v -1.442354 121.926082 1.609482
v -0.683359 121.926082 0.738212
v 19.099460 91.416082 9.160094
v 20.373456 91.416082 -5.227390
v -0.581439 121.926082 -0.412787
v -0.683359 121.926082 0.738212
v -2.403604 91.416082 0.005874
v 20.373456 91.416082 -5.227390
v 19.099460 91.416082 9.160094
v -2.403604 121.926082 0.005874
v -0.683359 121.926082 0.738212
v -0.581439 121.926082 -0.412787
v 20.373456 91.416082 -5.227390
v 12.947389 91.416082 -17.615945
v -1.175524 121.926082 -1.403871
v -0.581439 121.926082 -0.412787
v -2.403604 91.416082 0.005874
v 12.947389 91.416082 -17.615945
v 20.373456 91.416082 -5.227390
v -2.403604 121.926082 0.005874
v -0.581439 121.926082 -0.412787
v -1.175524 121.926082 -1.403871
v 12.947389 91.416082 -17.615945
v -0.342236 91.416082 -23.273564
v -2.238694 121.926082 -1.856481
v -1.175524 121.926082 -1.403871
v -2.403604 91.416082 0.005874
v -0.342236 91.416082 -23.273564
v 12.947389 91.416082 -17.615945
v -2.403604 121.926082 0.005874
v -1.175524 121.926082 -1.403871
v -2.238694 121.926082 -1.856481
v -0.342236 91.416082 -23.273564
v -14.419233 91.416082 -20.039229
v -3.364854 121.926082 -1.597734
v -2.238694 121.926082 -1.856481
v -2.403604 91.416082 0.005874
v -14.419233 91.416082 -20.039229
v -0.342236 91.416082 -23.273564
v -2.403604 121.926082 0.005874
v -2.238694 121.926082 -1.856481
v -3.364854 121.926082 -1.597734
v -15.086191 107.368637 -13.744696
v -21.438521 107.368637 -3.066135
v -3.398442 137.878637 1.014938
v -2.890256 137.878637 0.160653
v -1.829740 107.368637 1.369814
v -21.438521 107.368637 -3.066135
v -15.086191 107.368637 -13.744696
v -1.829740 137.878637 1.369814
v -2.890256 137.878637 0.160653
v -3.398442 137.878637 1.014938
v -21.438521 107.368637 -3.066135
v -20.300962 107.368637 9.306808
v -3.307438 137.878637 2.004773
v -3.398442 137.878637 1.014938
v -1.829740 107.368637 1.369814
v -20.300962 107.368637 9.306808
v -21.438521 107.368637 -3.066135
v -1.829740 137.878637 1.369814
v -3.398442 137.878637 1.014938
v -3.307438 137.878637 2.004773
v -20.300962 107.368637 9.306808
v -12.108024 107.368637 18.648089
v -2.652003 137.878637 2.752076
v -3.307438 137.878637 2.004773
v -1.829740 107.368637 1.369814
v -12.108024 107.368637 18.648089
v -20.300962 107.368637 9.306808
v -1.829740 137.878637 1.369814
v -3.307438 137.878637 2.004773
v -2.652003 137.878637 2.752076
v -12.108024 107.368637 18.648089
v 0.010869 107.368637 21.389656
v -1.682491 137.878637 2.971401
v -2.652003 137.878637 2.752076
v -1.829740 107.368637 1.369814
v 0.010869 107.368637 21.389656
v -12.108024 107.368637 18.648089
v -1.829740 137.878637 1.369814
v -2.652003 137.878637 2.752076
v -1.682491 137.878637 2.971401
v 0.010869 107.368637 21.389656
v 11.426712 107.368637 16.484324
v -0.769224 137.878637 2.578975
v -1.682491 137.878637 2.971401
v -1.829740 107.368637 1.369814
v 11.426712 107.368637 16.484324
v 0.010869 107.368637 21.389656
v -1.829740 137.878637 1.369814
v -1.682491 137.878637 2.971401
v -0.769224 137.878637 2.578975
v 11.426712 107.368637 16.484324
v 17.779041 107.368637 5.805763
v -0.261037 137.878637 1.724690
v -0.769224 137.878637 2.578975
v -1.829740 107.368637 1.369814
v 17.779041 107.368637 5.805763
v 11.426712 107.368637 16.484324
v -1.829740 137.878637 1.369814
v -0.769224 137.878637 2.578975
v -0.261037 137.878637 1.724690
v 17.779041 107.368637 5.805763
v 16.641482 107.368637 -6.567180
v -0.352042 137.878637 0.734854
v -0.261037 137.878637 1.724690
v -1.829740 107.368637 1.369814
v 16.641482 107.368637 -6.567180
v 17.779041 107.368637 5.805763
v -1.829740 137.878637 1.369814
v -0.261037 137.878637 1.724690
v -0.352042 137.878637 0.734854
v 16.641482 107.368637 -6.567180
v 8.448545 107.368637 -15.908461
v -1.007477 137.878637 -0.012448
v -0.352042 137.878637 0.734854
v -1.829740 107.368637 1.369814
v 8.448545 107.368637 -15.908461
v 16.641482 107.368637 -6.567180
v -1.829740 137.878637 1.369814
v -0.352042 137.878637 0.734854
v -1.007477 137.878637 -0.012448
v 8.448545 107.368637 -15.908461
v -3.670348 107.368637 -18.650028
v -1.976989 137.878637 -0.231773
v -1.007477 137.878637 -0.012448
v -1.829740 107.368637 1.369814
v -3.670348 107.368637 -18.650028
v 8.448545 107.368637 -15.908461
v -1.829740 137.878637 1.369814
v -1.007477 137.878637 -0.012448
v -1.976989 137.878637 -0.231773
v -3.670348 107.368637 -18.650028
v -15.086191 107.368637 -13.744696
v -2.890256 137.878637 0.160653
v -1.976989 137.878637 -0.231773
v -1.829740 107.368637 1.369814
v -15.086191 107.368637 -13.744696
v -3.670348 107.368637 -18.650028
v -1.829740 137.878637 1.369814
v -1.976989 137.878637 -0.231773
v -2.890256 137.878637 0.160653
v -15.279675 121.557808 -10.736085
v -19.224402 121.557808 -0.148154
v -2.420130 152.067808 0.566084
v -2.104551 152.067808 -0.280951
v -0.958889 121.557808 0.628191
v -19.224402 121.557808 -0.148154
v -15.279675 121.557808 -10.736085
v -0.958889 152.067808 0.628191
v -2.104551 152.067808 -0.280951
v -2.420130 152.067808 0.566084
v -19.224402 121.557808 -0.148154
v -16.192324 121.557808 10.736314
v -2.177563 152.067808 1.436841
v -2.420130 152.067808 0.566084
v -0.958889 121.557808 0.628191
v -16.192324 121.557808 10.736314
v -19.224402 121.557808 -0.148154
v -0.958889 152.067808 0.628191
v -2.420130 152.067808 0.566084
v -2.177563 152.067808 1.436841
v -16.192324 121.557808 10.736314
v -7.341591 121.557808 17.759823
v -1.469505 152.067808 1.998722
v -2.177563 152.067808 1.436841
v -0.958889 121.557808 0.628191
v -7.341591 121.557808 17.759823
v -16.192324 121.557808 10.736314
v -0.958889 152.067808 0.628191
v -2.177563 152.067808 1.436841
v -1.469505 152.067808 1.998722
v -7.341591 121.557808 17.759823
v 3.947117 121.557808 18.239631
v -0.566408 152.067808 2.037107
v -1.469505 152.067808 1.998722
v -0.958889 121.557808 0.628191
v 3.947117 121.557808 18.239631
v -7.341591 121.557808 17.759823
v -0.958889 152.067808 0.628191
v -1.469505 152.067808 1.998722
v -0.566408 152.067808 2.037107
v 3.947117 121.557808 18.239631
v 13.361898 121.557808 11.992468
v 0.186774 152.067808 1.537334
v -0.566408 152.067808 2.037107
v -0.958889 121.557808 0.628191
v 13.361898 121.557808 11.992468
v 3.947117 121.557808 18.239631
v -0.958889 152.067808 0.628191
v -0.566408 152.067808 2.037107
v 0.186774 152.067808 1.537334
v 13.361898 121.557808 11.992468
v 17.306625 121.557808 1.404537
v 0.502353 152.067808 0.690299
v 0.186774 152.067808 1.537334
v -0.958889 121.557808 0.628191
v 17.306625 121.557808 1.404537
v 13.361898 121.557808 11.992468
v -0.958889 152.067808 0.628191
v 0.186774 152.067808 1.537334
v 0.502353 152.067808 0.690299
v 17.306625 121.557808 1.404537
v 14.274547 121.557808 -9.479931
v 0.259786 152.067808 -0.180458
v 0.502353 152.067808 0.690299
v -0.958889 121.557808 0.628191
v 14.274547 121.557808 -9.479931
v 17.306625 121.557808 1.404537
v -0.958889 152.067808 0.628191
v 0.502353 152.067808 0.690299
v 0.259786 152.067808 -0.180458
v 14.274547 121.557808 -9.479931
v 5.423814 121.557808 -16.503441
v -0.448272 152.067808 -0.742339
v 0.259786 152.067808 -0.180458
v -0.958889 121.557808 0.628191
v 5.423814 121.557808 -16.503441
v 14.274547 121.557808 -9.479931
v -0.958889 152.067808 0.628191
v 0.259786 152.067808 -0.180458
v -0.448272 152.067808 -0.742339
v 5.423814 121.557808 -16.503441
v -5.864894 121.557808 -16.983249
v -1.351369 152.067808 -0.780724
v -0.448272 152.067808 -0.742339
v -0.958889 121.557808 0.628191
v -5.864894 121.557808 -16.983249
v 5.423814 121.557808 -16.503441
v -0.958889 152.067808 0.628191
v -0.448272 152.067808 -0.742339
v -1.351369 152.067808 -0.780724
v -5.864894 121.557808 -16.983249
v -15.279675 121.557808 -10.736085
v -2.104551 152.067808 -0.280951
v -1.351369 152.067808 -0.780724
v -0.958889 121.557808 0.628191
v -15.279675 121.557808 -10.736085
v -5.864894 121.557808 -16.983249
v -0.958889 152.067808 0.628191
v -1.351369 152.067808 -0.780724
v -2.104551 152.067808 -0.280951
v -15.778369 138.876430 -4.677656
v -17.410912 138.876430 4.468381
v -3.711583 169.386430 2.572452
v -3.580980 169.386430 1.840769
v -2.520337 138.876430 2.407588
v -17.410912 138.876430 4.468381
v -15.778369 138.876430 -4.677656
v -2.520337 169.386430 2.407588
v -3.580980 169.386430 1.840769
v -3.711583 169.386430 2.572452
v -17.410912 138.876430 4.468381
v -13.355762 138.876430 12.827265
v -3.387171 169.386430 3.241162
v -3.711583 169.386430 2.572452
v -2.520337 138.876430 2.407588
v -13.355762 138.876430 12.827265
v -17.410912 138.876430 4.468381
v -2.520337 169.386430 2.407588
v -3.711583 169.386430 2.572452
v -3.387171 169.386430 3.241162
v -13.355762 138.876430 12.827265
v -5.161848 138.876430 17.206186
v -2.731658 169.386430 3.591476
v -3.387171 169.386430 3.241162
v -2.520337 138.876430 2.407588
v -5.161848 138.876430 17.206186
v -13.355762 138.876430 12.827265
v -2.520337 169.386430 2.407588
v -3.387171 169.386430 3.241162
v -2.731658 169.386430 3.591476
v -5.161848 138.876430 17.206186
v 4.041033 138.876430 15.932547
v -1.995428 169.386430 3.489585
v -2.731658 169.386430 3.591476
v -2.520337 138.876430 2.407588
v 4.041033 138.876430 15.932547
v -5.161848 138.876430 17.206186
v -2.520337 169.386430 2.407588
v -2.731658 169.386430 3.591476
v -1.995428 169.386430 3.489585
v 4.041033 138.876430 15.932547
v 10.737694 138.876430 9.492832
v -1.459695 169.386430 2.974408
v -1.995428 169.386430 3.489585
v -2.520337 138.876430 2.407588
v 10.737694 138.876430 9.492832
v 4.041033 138.876430 15.932547
v -2.520337 169.386430 2.407588
v -1.995428 169.386430 3.489585
v -1.459695 169.386430 2.974408
v 10.737694 138.876430 9.492832
v 12.370237 138.876430 0.346796
v -1.329091 169.386430 2.242725
v -1.459695 169.386430 2.974408
v -2.520337 138.876430 2.407588
v 12.370237 138.876430 0.346796
v 10.737694 138.876430 9.492832
v -2.520337 169.386430 2.407588
v -1.459695 169.386430 2.974408
v -1.329091 169.386430 2.242725
v 12.370237 138.876430 0.346796
v 8.315087 138.876430 -8.012088
v -1.653504 169.386430 1.574014
v -1.329091 169.386430 2.242725
v -2.520337 138.876430 2.407588
v 8.315087 138.876430 -8.012088
v 12.370237 138.876430 0.346796
v -2.520337 169.386430 2.407588
v -1.329091 169.386430 2.242725
v -1.653504 169.386430 1.574014
v 8.315087 138.876430 -8.012088
v 0.121173 138.876430 -12.391010
v -2.309017 169.386430 1.223701
v -1.653504 169.386430 1.574014
v -2.520337 138.876430 2.407588
v 0.121173 138.876430 -12.391010
v 8.315087 138.876430 -8.012088
v -2.520337 169.386430 2.407588
v -1.653504 169.386430 1.574014
v -2.309017 169.386430 1.223701
v 0.121173 138.876430 -12.391010
v -9.081708 138.876430 -11.117370
v -3.045247 169.386430 1.325592
v -2.309017 169.386430 1.223701
v -2.520337 138.876430 2.407588
v -9.081708 138.876430 -11.117370
v 0.121173 138.876430 -12.391010
v -2.520337 169.386430 2.407588
v -2.309017 169.386430 1.223701
v -3.045247 169.386430 1.325592
v -9.081708 138.876430 -11.117370
v -15.778369 138.876430 -4.677656
v -3.580980 169.386430 1.840769
v -3.045247 169.386430 1.325592
v -2.520337 138.876430 2.407588
v -15.778369 138.876430 -4.677656
v -9.081708 138.876430 -11.117370
v -2.520337 169.386430 2.407588
v -3.045247 169.386430 1.325592
v -3.580980 169.386430 1.840769
v -16.684972 153.405017 -4.362925
v -16.657495 153.405017 3.807340
v -5.103209 183.915017 0.010119
v -5.105407 183.915017 -0.643502
v -4.098489 153.405017 -0.320074
v -16.657495 153.405017 3.807340
v -16.684972 153.405017 -4.362925
v -4.098489 183.915017 -0.320074
v -5.105407 183.915017 -0.643502
v -5.103209 183.915017 0.010119
v -16.657495 153.405017 3.807340
v -11.832905 153.405017 10.401073
v -4.717242 183.915017 0.537618
v -5.103209 183.915017 0.010119
v -4.098489 153.405017 -0.320074
v -11.832905 153.405017 10.401073
v -16.657495 153.405017 3.807340
v -4.098489 183.915017 -0.320074
v -5.103209 183.915017 0.010119
v -4.717242 183.915017 0.537618
v -11.832905 153.405017 10.401073
v -4.054031 153.405017 12.899692
v -4.094932 183.915017 0.737507
v -4.717242 183.915017 0.537618
v -4.098489 153.405017 -0.320074
v -4.054031 153.405017 12.899692
v -11.832905 153.405017 10.401073
v -4.098489 183.915017 -0.320074
v -4.717242 183.915017 0.537618
v -4.094932 183.915017 0.737507
v -4.054031 153.405017 12.899692
v 3.707862 153.405017 10.348810
v -3.473981 183.915017 0.533437
v -4.094932 183.915017 0.737507
v -4.098489 153.405017 -0.320074
v 3.707862 153.405017 10.348810
v -4.054031 153.405017 12.899692
v -4.098489 183.915017 -0.320074
v -4.094932 183.915017 0.737507
v -3.473981 183.915017 0.533437
v 3.707862 153.405017 10.348810
v 8.487994 153.405017 3.722777
v -3.091570 183.915017 0.003354
v -3.473981 183.915017 0.533437
v -4.098489 153.405017 -0.320074
v 8.487994 153.405017 3.722777
v 3.707862 153.405017 10.348810
v -4.098489 183.915017 -0.320074
v -3.473981 183.915017 0.533437
v -3.091570 183.915017 0.003354
v 8.487994 153.405017 3.722777
v 8.460518 153.405017 -4.447488
v -3.093768 183.915017 -0.650267
v -3.091570 183.915017 0.003354
v -4.098489 153.405017 -0.320074
v 8.460518 153.405017 -4.447488
v 8.487994 153.405017 3.722777
v -4.098489 183.915017 -0.320074
v -3.091570 183.915017 0.003354
v -3.093768 183.915017 -0.650267
v 8.460518 153.405017 -4.447488
v 3.635928 153.405017 -11.041221
v -3.479735 183.915017 -1.177766
v -3.093768 183.915017 -0.650267
v -4.098489 153.405017 -0.320074
v 3.635928 153.405017 -11.041221
v 8.460518 153.405017 -4.447488
v -4.098489 183.915017 -0.320074
v -3.093768 183.915017 -0.650267
v -3.479735 183.915017 -1.177766
v 3.635928 153.405017 -11.041221
v -4.142946 153.405017 -13.539840
v -4.102045 183.915017 -1.377655
v -3.479735 183.915017 -1.177766
v -4.098489 153.405017 -0.320074
v -4.142946 153.405017 -13.539840
v 3.635928 153.405017 -11.041221
v -4.098489 183.915017 -0.320074
v -3.479735 183.915017 -1.177766
v -4.102045 183.915017 -1.377655
v -4.142946 153.405017 -13.539840
v -11.904839 153.405017 -10.988958
v -4.722997 183.915017 -1.173585
v -4.102045 183.915017 -1.377655
v -4.098489 153.405017 -0.320074
v -11.904839 153.405017 -10.988958
v -4.142946 153.405017 -13.539840
v -4.098489 183.915017 -0.320074
v -4.102045 183.915017 -1.377655
v -4.722997 183.915017 -1.173585
v -11.904839 153.405017 -10.988958
v -16.684972 153.405017 -4.362925
v -5.105407 183.915017 -0.643502
v -4.722997 183.915017 -1.173585
v -4.098489 153.405017 -0.320074
v -16.684972 153.405017 -4.362925
v -11.904839 153.405017 -10.988958
v -4.098489 183.915017 -0.320074
v -4.722997 183.915017 -1.173585
v -5.105407 183.915017 -0.643502
v -12.359047 168.146729 -1.050693
v -11.343295 168.146729 4.426652
v -4.301171 198.656729 0.602148
v -4.413861 198.656729 -0.005525
v -3.422403 168.146729 0.124898
v -11.343295 168.146729 4.426652
v -12.359047 168.146729 -1.050693
v -3.422403 198.656729 0.124898
v -4.413861 198.656729 -0.005525
v -4.301171 198.656729 0.602148
v -11.343295 168.146729 4.426652
v -7.302032 168.146729 8.260874
v -3.852821 198.656729 1.027528
v -4.301171 198.656729 0.602148
v -3.422403 168.146729 0.124898
v -7.302032 168.146729 8.260874
v -11.343295 168.146729 4.426652
v -3.422403 198.656729 0.124898
v -4.301171 198.656729 0.602148
v -3.852821 198.656729 1.027528
v -7.302032 168.146729 8.260874
v -1.778882 168.146729 8.987430
v -3.240066 198.656729 1.108134
v -3.852821 198.656729 1.027528
v -3.422403 168.146729 0.124898
v -1.778882 168.146729 8.987430
v -7.302032 168.146729 8.260874
v -3.422403 198.656729 0.124898
v -3.852821 198.656729 1.027528
v -3.240066 198.656729 1.108134
v -1.778882 168.146729 8.987430
v 3.116499 168.146729 6.328800
v -2.696957 198.656729 0.813178
v -3.240066 198.656729 1.108134
v -3.422403 168.146729 0.124898
v 3.116499 168.146729 6.328800
v -1.778882 168.146729 8.987430
v -3.422403 198.656729 0.124898
v -3.240066 198.656729 1.108134
v -2.696957 198.656729 0.813178
v 3.116499 168.146729 6.328800
v 5.514241 168.146729 1.300490
v -2.430944 198.656729 0.255322
v -2.696957 198.656729 0.813178
v -3.422403 168.146729 0.124898
v 5.514241 168.146729 1.300490
v 3.116499 168.146729 6.328800
v -3.422403 198.656729 0.124898
v -2.696957 198.656729 0.813178
v -2.430944 198.656729 0.255322
v 5.514241 168.146729 1.300490
v 4.498490 168.146729 -4.176856
v -2.543635 198.656729 -0.352351
v -2.430944 198.656729 0.255322
v -3.422403 168.146729 0.124898
v 4.498490 168.146729 -4.176856
v 5.514241 168.146729 1.300490
v -3.422403 198.656729 0.124898
v -2.430944 198.656729 0.255322
v -2.543635 198.656729 -0.352351
v 4.498490 168.146729 -4.176856
v 0.457226 168.146729 -8.011078
v -2.991985 198.656729 -0.777731
v -2.543635 198.656729 -0.352351
v -3.422403 168.146729 0.124898
v 0.457226 168.146729 -8.011078
v 4.498490 168.146729 -4.176856
v -3.422403 198.656729 0.124898
v -2.543635 198.656729 -0.352351
v -2.991985 198.656729 -0.777731
v 0.457226 168.146729 -8.011078
v -5.065923 168.146729 -8.737633
v -3.604740 198.656729 -0.858338
v -2.991985 198.656729 -0.777731
v -3.422403 168.146729 0.124898
v -5.065923 168.146729 -8.737633
v 0.457226 168.146729 -8.011078
v -3.422403 198.656729 0.124898
v -2.991985 198.656729 -0.777731
v -3.604740 198.656729 -0.858338
v -5.065923 168.146729 -8.737633
v -9.961304 168.146729 -6.079003
v -4.147848 198.656729 -0.563381
v -3.604740 198.656729 -0.858338
v -3.422403 168.146729 0.124898
v -9.961304 168.146729 -6.079003
v -5.065923 168.146729 -8.737633
v -3.422403 198.656729 0.124898
v -3.604740 198.656729 -0.858338
v -4.147848 198.656729 -0.563381
v -9.961304 168.146729 -6.079003
v -12.359047 168.146729 -1.050693
v -4.413861 198.656729 -0.005525
v -4.147848 198.656729 -0.563381
v -3.422403 168.146729 0.124898
v -12.359047 168.146729 -1.050693
v -9.961304 168.146729 -6.079003
v -3.422403 198.656729 0.124898
v -4.147848 198.656729 -0.563381
v -4.413861 198.656729 -0.005525
v -9.358359 182.966749 2.082099
v -7.918127 182.966749 5.869721
v -3.588820 213.476749 2.386484
v -3.808482 213.476749 1.808804
v -2.809692 182.966749 1.759620
v -7.918127 182.966749 5.869721
v -9.358359 182.966749 2.082099
v -2.809692 213.476749 1.759620
v -3.808482 213.476749 1.808804
v -3.588820 213.476749 2.386484
v -7.918127 182.966749 5.869721
v -4.526646 182.966749 8.087424
v -3.071558 213.476749 2.724724
v -3.588820 213.476749 2.386484
v -2.809692 182.966749 1.759620
v -4.526646 182.966749 8.087424
v -7.918127 182.966749 5.869721
v -2.809692 213.476749 1.759620
v -3.588820 213.476749 2.386484
v -3.071558 213.476749 2.724724
v -4.526646 182.966749 8.087424
v -0.479347 182.966749 7.888121
v -2.454272 213.476749 2.694327
v -3.071558 213.476749 2.724724
v -2.809692 182.966749 1.759620
v -0.479347 182.966749 7.888121
v -4.526646 182.966749 8.087424
v -2.809692 213.476749 1.759620
v -3.071558 213.476749 2.724724
v -2.454272 213.476749 2.694327
v -0.479347 182.966749 7.888121
v 2.677839 182.966749 5.347939
v -1.972745 213.476749 2.306903
v -2.454272 213.476749 2.694327
v -2.809692 182.966749 1.759620
v 2.677839 182.966749 5.347939
v -0.479347 182.966749 7.888121
v -2.809692 213.476749 1.759620
v -2.454272 213.476749 2.694327
v -1.972745 213.476749 2.306903
v 2.677839 182.966749 5.347939
v 3.738975 182.966749 1.437141
v -1.810902 213.476749 1.710436
v -1.972745 213.476749 2.306903
v -2.809692 182.966749 1.759620
v 3.738975 182.966749 1.437141
v 2.677839 182.966749 5.347939
v -2.809692 213.476749 1.759620
v -1.972745 213.476749 2.306903
v -1.810902 213.476749 1.710436
v 3.738975 182.966749 1.437141
v 2.298743 182.966749 -2.350481
v -2.030564 213.476749 1.132755
v -1.810902 213.476749 1.710436
v -2.809692 182.966749 1.759620
v 2.298743 182.966749 -2.350481
v 3.738975 182.966749 1.437141
v -2.809692 213.476749 1.759620
v -1.810902 213.476749 1.710436
v -2.030564 213.476749 1.132755
v 2.298743 182.966749 -2.350481
v -1.092738 182.966749 -4.568184
v -2.547826 213.476749 0.794516
v -2.030564 213.476749 1.132755
v -2.809692 182.966749 1.759620
v -1.092738 182.966749 -4.568184
v 2.298743 182.966749 -2.350481
v -2.809692 213.476749 1.759620
v -2.030564 213.476749 1.132755
v -2.547826 213.476749 0.794516
v -1.092738 182.966749 -4.568184
v -5.140037 182.966749 -4.368881
v -3.165112 213.476749 0.824913
v -2.547826 213.476749 0.794516
v -2.809692 182.966749 1.759620
v -5.140037 182.966749 -4.368881
v -1.092738 182.966749 -4.568184
v -2.809692 213.476749 1.759620
v -2.547826 213.476749 0.794516
v -3.165112 213.476749 0.824913
v -5.140037 182.966749 -4.368881
v -8.297224 182.966749 -1.828699
v -3.646639 213.476749 1.212337
v -3.165112 213.476749 0.824913
v -2.809692 182.966749 1.759620
v -8.297224 182.966749 -1.828699
v -5.140037 182.966749 -4.368881
v -2.809692 213.476749 1.759620
v -3.165112 213.476749 0.824913
v -3.646639 213.476749 1.212337
v -8.297224 182.966749 -1.828699
v -9.358359 182.966749 2.082099
v -3.808482 213.476749 1.808804
v -3.646639 213.476749 1.212337
v -2.809692 182.966749 1.759620
v -9.358359 182.966749 2.082099
v -8.297224 182.966749 -1.828699
v -2.809692 213.476749 1.759620
v -3.646639 213.476749 1.212337
v -3.808482 213.476749 1.808804
vt 0.000000 0.000000
vt 1.000000 0.000000
vt 1.000000 1.000000
vt 0.000000 1.000000
vt 0.500000 1.000000
vt 0.000000 0.000000
vt 1.000000 0.000000
vt 0.000000 0.000000
vt 1.000000 0.000000
vt 1.000000 1.000000
vt 0.000000 1.000000
vt 0.500000 1.000000
vt 0.000000 0.000000
vt 1.000000 0.000000
vt 0.000000 0.000000
vt 1.000000 0.000000
vt 1.000000 1.000000
vt 0.000000 1.000000
vt 0.500000 1.000000
vt 0.000000 0.000000
vt 1.000000 0.000000
vt 0.000000 0.000000
vt 1.000000 0.000000
vt 1.000000 1.000000
vt 0.000000 1.000000
vt 0.500000 1.000000
vt 0.000000 0.000000
vt 1.000000 0.000000
vt 0.000000 0.000000
vt 1.000000 0.000000
vt 1.000000 1.000000
vt 0.000000 1.000000
vt 0.500000 1.000000
vt 0.000000 0.000000
vt 1.000000 0.000000
vt 0.000000 0.000000
vt 1.000000 0.000000
vt 1.000000 1.000000
vt 0.000000 1.000000
vt 0.500000 1.000000
vt 0.000000 0.000000
vt 1.000000 0.000000
vt 0.000000 0.000000
vt 1.000000 0.000000
vt 1.000000 1.000000
vt 0.000000 1.000000
vt 0.500000 1.000000
vt 0.000000 0.000000
vt 1.000000 0.000000
vt 0.000000 0.000000
vt 1.000000 0.000000
vt 1.000000 1.000000
vt 0.000000 1.000000
vt 0.500000 1.000000
vt 0.000000 0.000000
vt 1.000000 0.000000
vt 0.000000 0.000000
vt 1.000000 0.000000
vt 1.000000 1.000000
vt 0.000000 1.000000
vt 0.500000 1.000000
vt 0.000000 0.000000
vt 1.000000 0.000000
vt 0.000000 0.000000
vt 1.000000 0.000000
vt 1.000000 1.000000
vt 0.000000 1.000000
vt 0.500000 1.000000
vt 0.000000 0.000000
vt 1.000000 0.000000
vt 0.000000 0.000000
vt 1.000000 0.000000
vt 1.000000 1.000000
vt 0.000000 1.000000
vt 0.500000 1.000000
vt 0.000000 0.000000
vt 1.000000 0.000000
vt 0.000000 0.000000
vt 1.000000 0.000000
vt 1.000000 1.000000
vt 0.000000 1.000000
vt 0.500000 1.000000
vt 0.000000 0.000000
vt 1.000000 0.000000
vt 0.000000 0.000000
vt 1.000000 0.000000
vt 1.000000 1.000000
vt 0.000000 1.000000
vt 0.500000 1.000000
vt 0.000000 0.000000
vt 1.000000 0.000000
vt 0.000000 0.000000
vt 1.000000 0.000000
vt 1.000000 1.000000
vt 0.000000 1.000000
vt 0.500000 1.000000
vt 0.000000 0.000000
vt 1.000000 0.000000
vt 0.000000 0.000000
vt 1.000000 0.000000
vt 1.000000 1.000000
vt 0.000000 1.000000
vt 0.500000 1.000000
vt 0.000000 0.000000
vt 1.000000 0.000000
vt 0.000000 0.000000
vt 1.000000 0.000000
vt 1.000000 1.000000
vt 0.000000 1.000000
vt 0.500000 1.000000
vt 0.000000 0.000000
vt 1.000000 0.000000
vt 0.000000 0.000000
vt 1.000000 0.000000
vt 1.000000 1.000000
vt 0.000000 1.000000
vt 0.500000 1.000000
vt 0.000000 0.000000
vt 1.000000 0.000000
vt 0.000000 0.000000
vt 1.000000 0.000000
vt 1.000000 1.000000
vt 0.000000 1.000000
vt 0.500000 1.000000
vt 0.000000 0.000000
vt 1.000000 0.000000
vt 0.000000 0.000000
vt 1.000000 0.000000
vt 1.000000 1.000000
vt 0.000000 1.000000
vt 0.500000 1.000000
vt 0.000000 0.000000
vt 1.000000 0.000000
vt 0.500000 1.000000
vt 0.000000 0.000000
vt 1.000000 0.000000
vt 0.000000 0.000000
vt 1.000000 0.000000
vt 1.000000 1.000000
vt 0.000000 1.000000
vt 0.500000 1.000000
vt 0.000000 0.000000
vt 1.000000 0.000000
vt 0.500000 1.000000
vt 0.000000 0.000000
vt 1.000000 0.000000
vt 0.000000 0.000000
vt 1.000000 0.000000
vt 1.000000 1.000000
vt 0.000000 1.000000
vt 0.500000 1.000000
vt 0.000000 0.000000
vt 1.000000 0.000000
vt 0.500000 1.000000
vt 0.000000 0.000000
vt 1.000000 0.000000
vt 0.000000 0.000000
vt 1.000000 0.000000
vt 1.000000 1.000000
vt 0.000000 1.000000
vt 0.500000 1.000000
vt 0.000000 0.000000
vt 1.000000 0.000000
vt 0.500000 1.000000
vt 0.000000 0.000000
vt 1.000000 0.000000
vt 0.000000 0.000000
vt 1.000000 0.000000
vt 1.000000 1.000000
vt 0.000000 1.000000
vt 0.500000 1.000000
vt 0.000000 0.000000
vt 1.000000 0.000000
vt 0.500000 1.000000
vt 0.000000 0.000000
vt 1.000000 0.000000
vt 0.000000 0.000000
vt 1.000000 0.000000
vt 1.000000 1.000000
vt 0.000000 1.000000
vt 0.500000 1.000000
vt 0.000000 0.000000
vt 1.000000 0.000000
vt 0.500000 1.000000
vt 0.000000 0.000000
vt 1.000000 0.000000
vt 0.000000 0.000000
vt 1.000000 0.000000
vt 1.000000 1.000000
vt 0.000000 1.000000
vt 0.500000 1.000000
vt 0.000000 0.000000
vt 1.000000 0.000000
vt 0.500000 1.000000
vt 0.000000 0.000000
vt 1.000000 0.000000
vt 0.000000 0.000000
vt 1.000000 0.000000
vt 1.000000 1.000000
vt 0.000000 1.000000
vt 0.500000 1.000000
vt 0.000000 0.000000
vt 1.000000 0.000000
vt 0.500000 1.000000
vt 0.000000 0.000000
vt 1.000000 0.000000
vt 0.000000 0.000000
vt 1.000000 0.000000
vt 1.000000 1.000000
vt 0.000000 1.000000
vt 0.500000 1.000000
vt 0.000000 0.000000
vt 1.000000 0.000000
vt 0.500000 1.000000
vt 0.000000 0.000000
vt 1.000000 0.000000
vt 0.000000 0.000000
vt 1.000000 0.000000
vt 1.000000 1.000000
vt 0.000000 1.000000
vt 0.500000 1.000000
vt 0.000000 0.000000
vt 1.000000 0.000000
vt 0.500000 1.000000
vt 0.000000 0.000000
vt 1.000000 0.000000
vt 0.000000 0.000000
vt 1.000000 0.000000
vt 1.000000 1.000000
vt 0.000000 1.000000
vt 0.500000 1.000000
vt 0.000000 0.000000
vt 1.000000 0.000000
vt 0.500000 1.000000
vt 0.000000 0.000000
vt 1.000000 0.000000
vt 0.000000 0.000000
vt 1.000000 0.000000
vt 1.000000 1.000000
vt 0.000000 1.000000
vt 0.500000 1.000000
vt 0.000000 0.000000
vt 1.000000 0.000000
vt 0.500000 1.000000
vt 0.000000 0.000000
vt 1.000000 0.000000
vt 0.000000 0.000000
vt 1.000000 0.000000
vt 1.000000 1.000000
vt 0.000000 1.000000
vt 0.500000 1.000000
vt 0.000000 0.000000
vt 1.000000 0.000000
vt 0.500000 1.000000
vt 0.000000 0.000000
vt 1.000000 0.000000
vt 0.000000 0.000000
vt 1.000000 0.000000
vt 1.000000 1.000000
vt 0.000000 1.000000
vt 0.500000 1.000000
vt 0.000000 0.000000
vt 1.000000 0.000000
vt 0.500000 1.000000
vt 0.000000 0.000000
vt 1.000000 0.000000
vt 0.000000 0.000000
vt 1.000000 0.000000
vt 1.000000 1.000000
vt 0.000000 1.000000
vt 0.500000 1.000000
vt 0.000000 0.000000
vt 1.000000 0.000000
vt 0.500000 1.000000
vt 0.000000 0.000000
vt 1.000000 0.000000
vt 0.000000 0.000000
vt 1.000000 0.000000
vt 1.000000 1.000000
vt 0.000000 1.000000
vt 0.500000 1.000000
vt 0.000000 0.000000
vt 1.000000 0.000000
vt 0.500000 1.000000
vt 0.000000 0.000000
vt 1.000000 0.000000
vt 0.000000 0.000000
vt 1.000000 0.000000
vt 1.000000 1.000000
vt 0.000000 1.000000
vt 0.500000 1.000000
vt 0.000000 0.000000
vt 1.000000 0.000000
vt 0.500000 1.000000
vt 0.000000 0.000000
vt 1.000000 0.000000
vt 0.000000 0.000000
vt 1.000000 0.000000
vt 1.000000 1.000000
vt 0.000000 1.000000
vt 0.500000 1.000000
vt 0.000000 0.000000
vt 1.000000 0.000000
vt 0.500000 1.000000
vt 0.000000 0.000000
vt 1.000000 0.000000
vt 0.000000 0.000000
vt 1.000000 0.000000
vt 1.000000 1.000000
vt 0.000000 1.000000
vt 0.500000 1.000000
vt 0.000000 0.000000
vt 1.000000 0.000000
vt 0.500000 1.000000
vt 0.000000 0.000000
vt 1.000000 0.000000
vt 0.000000 0.000000
vt 1.000000 0.000000
vt 1.000000 1.000000
vt 0.000000 1.000000
vt 0.500000 1.000000
vt 0.000000 0.000000
vt 1.000000 0.000000
vt 0.500000 1.000000
vt 0.000000 0.000000
vt 1.000000 0.000000
vt 0.000000 0.000000
vt 1.000000 0.000000
vt 1.000000 1.000000
vt 0.000000 1.000000
vt 0.500000 1.000000
vt 0.000000 0.000000
vt 1.000000 0.000000
vt 0.500000 1.000000
vt 0.000000 0.000000
vt 1.000000 0.000000
vt 0.000000 0.000000
vt 1.000000 0.000000
vt 1.000000 1.000000
vt 0.000000 1.000000
vt 0.500000 1.000000
vt 0.000000 0.000000
vt 1.000000 0.000000
vt 0.500000 1.000000
vt 0.000000 0.000000
vt 1.000000 0.000000
vt 0.000000 0.000000
vt 1.000000 0.000000
vt 1.000000 1.000000
vt 0.000000 1.000000
vt 0.500000 1.000000
vt 0.000000 0.000000
vt 1.000000 0.000000
vt 0.500000 1.000000
vt 0.000000 0.000000
vt 1.000000 0.000000
vt 0.000000 0.000000
vt 1.000000 0.000000
vt 1.000000 1.000000
vt 0.000000 1.000000
vt 0.500000 1.000000
vt 0.000000 0.000000
vt 1.000000 0.000000
vt 0.500000 1.000000
vt 0.000000 0.000000
vt 1.000000 0.000000
vt 0.000000 0.000000
vt 1.000000 0.000000
vt 1.000000 1.000000
vt 0.000000 1.000000
vt 0.500000 1.000000
vt 0.000000 0.000000
vt 1.000000 0.000000
vt 0.500000 1.000000
vt 0.000000 0.000000
vt 1.000000 0.000000
vt 0.000000 0.000000
vt 1.000000 0.000000
vt 1.000000 1.000000
vt 0.000000 1.000000
vt 0.500000 1.000000
vt 0.000000 0.000000
vt 1.000000 0.000000
vt 0.500000 1.000000
vt 0.000000 0.000000
vt 1.000000 0.000000
vt 0.000000 0.000000
vt 1.000000 0.000000
vt 1.000000 1.000000
vt 0.000000 1.000000
vt 0.500000 1.000000
vt 0.000000 0.000000
vt 1.000000 0.000000
vt 0.500000 1.000000
vt 0.000000 0.000000
vt 1.000000 0.000000
vt 0.000000 0.000000
vt 1.000000 0.000000
vt 1.000000 1.000000
vt 0.000000 1.000000
vt 0.500000 1.000000
vt 0.000000 0.000000
vt 1.000000 0.000000
vt 0.500000 1.000000
vt 0.000000 0.000000
vt 1.000000 0.000000
vt 0.000000 0.000000
vt 1.000000 0.000000
vt 1.000000 1.000000
vt 0.000000 1.000000
vt 0.500000 1.000000
vt 0.000000 0.000000
vt 1.000000 0.000000
vt 0.500000 1.000000
vt 0.000000 0.000000
vt 1.000000 0.000000
vt 0.000000 0.000000
vt 1.000000 0.000000
vt 1.000000 1.000000
vt 0.000000 1.000000
vt 0.500000 1.000000
vt 0.000000 0.000000
vt 1.000000 0.000000
vt 0.500000 1.000000
vt 0.000000 0.000000
vt 1.000000 0.000000
vt 0.000000 0.000000
vt 1.000000 0.000000
vt 1.000000 1.000000
vt 0.000000 1.000000
vt 0.500000 1.000000
vt 0.000000 0.000000
vt 1.000000 0.000000
vt 0.500000 1.000000
vt 0.000000 0.000000
vt 1.000000 0.000000
vt 0.000000 0.000000
vt 1.000000 0.000000
vt 1.000000 1.000000
vt 0.000000 1.000000
vt 0.500000 1.000000
vt 0.000000 0.000000
vt 1.000000 0.000000
vt 0.500000 1.000000
vt 0.000000 0.000000
vt 1.000000 0.000000
vt 0.000000 0.000000
vt 1.000000 0.000000
vt 1.000000 1.000000
vt 0.000000 1.000000
vt 0.500000 1.000000
vt 0.000000 0.000000
vt 1.000000 0.000000
vt 0.500000 1.000000
vt 0.000000 0.000000
vt 1.000000 0.000000
vt 0.000000 0.000000
vt 1.000000 0.000000
vt 1.000000 1.000000
vt 0.000000 1.000000
vt 0.500000 1.000000
vt 0.000000 0.000000
vt 1.000000 0.000000
vt 0.500000 1.000000
vt 0.000000 0.000000
vt 1.000000 0.000000
vt 0.000000 0.000000
vt 1.000000 0.000000
vt 1.000000 1.000000
vt 0.000000 1.000000
vt 0.500000 1.000000
vt 0.000000 0.000000
vt 1.000000 0.000000
vt 0.500000 1.000000
vt 0.000000 0.000000
vt 1.000000 0.000000
vt 0.000000 0.000000
vt 1.000000 0.000000
vt 1.000000 1.000000
vt 0.000000 1.000000
vt 0.500000 1.000000
vt 0.000000 0.000000
vt 1.000000 0.000000
vt 0.500000 1.000000
vt 0.000000 0.000000
vt 1.000000 0.000000
vt 0.000000 0.000000
vt 1.000000 0.000000
vt 1.000000 1.000000
vt 0.000000 1.000000
vt 0.500000 1.000000
vt 0.000000 0.000000
vt 1.000000 0.000000
vt 0.500000 1.000000
vt 0.000000 0.000000
vt 1.000000 0.000000
vt 0.000000 0.000000
vt 1.000000 0.000000
vt 1.000000 1.000000
vt 0.000000 1.000000
vt 0.500000 1.000000
vt 0.000000 0.000000
vt 1.000000 0.000000
vt 0.500000 1.000000
vt 0.000000 0.000000
vt 1.000000 0.000000
vt 0.000000 0.000000
vt 1.000000 0.000000
vt 1.000000 1.000000
vt 0.000000 1.000000
vt 0.500000 1.000000
vt 0.000000 0.000000
vt 1.000000 0.000000
vt 0.500000 1.000000
vt 0.000000 0.000000
vt 1.000000 0.000000
vt 0.000000 0.000000
vt 1.000000 0.000000
vt 1.000000 1.000000
vt 0.000000 1.000000
vt 0.500000 1.000000
vt 0.000000 0.000000
vt 1.000000 0.000000
vt 0.500000 1.000000
vt 0.000000 0.000000
vt 1.000000 0.000000
vt 0.000000 0.000000
vt 1.000000 0.000000
vt 1.000000 1.000000
vt 0.000000 1.000000
vt 0.500000 1.000000
vt 0.000000 0.000000
vt 1.000000 0.000000
vt 0.500000 1.000000
vt 0.000000 0.000000
vt 1.000000 0.000000
vt 0.000000 0.000000
vt 1.000000 0.000000
vt 1.000000 1.000000
vt 0.000000 1.000000
vt 0.500000 1.000000
vt 0.000000 0.000000
vt 1.000000 0.000000
vt 0.500000 1.000000
vt 0.000000 0.000000
vt 1.000000 0.000000
vt 0.000000 0.000000
vt 1.000000 0.000000
vt 1.000000 1.000000
vt 0.000000 1.000000
vt 0.500000 1.000000
vt 0.000000 0.000000
vt 1.000000 0.000000
vt 0.500000 1.000000
vt 0.000000 0.000000
vt 1.000000 0.000000
vt 0.000000 0.000000
vt 1.000000 0.000000
vt 1.000000 1.000000
vt 0.000000 1.000000
vt 0.500000 1.000000
vt 0.000000 0.000000
vt 1.000000 0.000000
vt 0.500000 1.000000
vt 0.000000 0.000000
vt 1.000000 0.000000
vt 0.000000 0.000000
vt 1.000000 0.000000
vt 1.000000 1.000000
vt 0.000000 1.000000
vt 0.500000 1.000000
vt 0.000000 0.000000
vt 1.000000 0.000000
vt 0.500000 1.000000
vt 0.000000 0.000000
vt 1.000000 0.000000
vt 0.000000 0.000000
vt 1.000000 0.000000
vt 1.000000 1.000000
vt 0.000000 1.000000
vt 0.500000 1.000000
vt 0.000000 0.000000
vt 1.000000 0.000000
vt 0.500000 1.000000
vt 0.000000 0.000000
vt 1.000000 0.000000
vt 0.000000 0.000000
vt 1.000000 0.000000
vt 1.000000 1.000000
vt 0.000000 1.000000
vt 0.500000 1.000000
vt 0.000000 0.000000
vt 1.000000 0.000000
vt 0.500000 1.000000
vt 0.000000 0.000000
vt 1.000000 0.000000
vt 0.000000 0.000000
vt 1.000000 0.000000
vt 1.000000 1.000000
vt 0.000000 1.000000
vt 0.500000 1.000000
vt 0.000000 0.000000
vt 1.000000 0.000000
vt 0.500000 1.000000
vt 0.000000 0.000000
vt 1.000000 0.000000
vt 0.000000 0.000000
vt 1.000000 0.000000
vt 1.000000 1.000000
vt 0.000000 1.000000
vt 0.500000 1.000000
vt 0.000000 0.000000
vt 1.000000 0.000000
vt 0.500000 1.000000
vt 0.000000 0.000000
vt 1.000000 0.000000
vt 0.000000 0.000000
vt 1.000000 0.000000
vt 1.000000 1.000000
vt 0.000000 1.000000
vt 0.500000 1.000000
vt 0.000000 0.000000
vt 1.000000 0.000000
vt 0.500000 1.000000
vt 0.000000 0.000000
vt 1.000000 0.000000
vt 0.000000 0.000000
vt 1.000000 0.000000
vt 1.000000 1.000000
vt 0.000000 1.000000
vt 0.500000 1.000000
vt 0.000000 0.000000
vt 1.000000 0.000000
vt 0.500000 1.000000
vt 0.000000 0.000000
vt 1.000000 0.000000
vt 0.000000 0.000000
vt 1.000000 0.000000
vt 1.000000 1.000000
vt 0.000000 1.000000
vt 0.500000 1.000000
vt 0.000000 0.000000
vt 1.000000 0.000000
vt 0.500000 1.000000
vt 0.000000 0.000000
vt 1.000000 0.000000
vt 0.000000 0.000000
vt 1.000000 0.000000
vt 1.000000 1.000000
vt 0.000000 1.000000
vt 0.500000 1.000000
vt 0.000000 0.000000
vt 1.000000 0.000000
vt 0.500000 1.000000
vt 0.000000 0.000000
vt 1.000000 0.000000
vt 0.000000 0.000000
vt 1.000000 0.000000
vt 1.000000 1.000000
vt 0.000000 1.000000
vt 0.500000 1.000000
vt 0.000000 0.000000
vt 1.000000 0.000000
vt 0.500000 1.000000
vt 0.000000 0.000000
vt 1.000000 0.000000
vt 0.000000 0.000000
vt 1.000000 0.000000
vt 1.000000 1.000000
vt 0.000000 1.000000
vt 0.500000 1.000000
vt 0.000000 0.000000
vt 1.000000 0.000000
vt 0.500000 1.000000
vt 0.000000 0.000000
vt 1.000000 0.000000
vt 0.000000 0.000000
vt 1.000000 0.000000
vt 1.000000 1.000000
vt 0.000000 1.000000
vt 0.500000 1.000000
vt 0.000000 0.000000
vt 1.000000 0.000000
vt 0.500000 1.000000
vt 0.000000 0.000000
vt 1.000000 0.000000
vt 0.000000 0.000000
vt 1.000000 0.000000
vt 1.000000 1.000000
vt 0.000000 1.000000
vt 0.500000 1.000000
vt 0.000000 0.000000
vt 1.000000 0.000000
vt 0.500000 1.000000
vt 0.000000 0.000000
vt 1.000000 0.000000
vt 0.000000 0.000000
vt 1.000000 0.000000
vt 1.000000 1.000000
vt 0.000000 1.000000
vt 0.500000 1.000000
vt 0.000000 0.000000
vt 1.000000 0.000000
vt 0.500000 1.000000
vt 0.000000 0.000000
vt 1.000000 0.000000
vt 0.000000 0.000000
vt 1.000000 0.000000
vt 1.000000 1.000000
vt 0.000000 1.000000
vt 0.500000 1.000000
vt 0.000000 0.000000
vt 1.000000 0.000000
vt 0.500000 1.000000
vt 0.000000 0.000000
vt 1.000000 0.000000
vt 0.000000 0.000000
vt 1.000000 0.000000
vt 1.000000 1.000000
vt 0.000000 1.000000
vt 0.500000 1.000000
vt 0.000000 0.000000
vt 1.000000 0.000000
vt 0.500000 1.000000
vt 0.000000 0.000000
vt 1.000000 0.000000
vt 0.000000 0.000000
vt 1.000000 0.000000
vt 1.000000 1.000000
vt 0.000000 1.000000
vt 0.500000 1.000000
vt 0.000000 0.000000
vt 1.000000 0.000000
vt 0.500000 1.000000
vt 0.000000 0.000000
vt 1.000000 0.000000
vt 0.000000 0.000000
vt 1.000000 0.000000
vt 1.000000 1.000000
vt 0.000000 1.000000
vt 0.500000 1.000000
vt 0.000000 0.000000
vt 1.000000 0.000000
vt 0.500000 1.000000
vt 0.000000 0.000000
vt 1.000000 0.000000
vt 0.000000 0.000000
vt 1.000000 0.000000
vt 1.000000 1.000000
vt 0.000000 1.000000
vt 0.500000 1.000000
vt 0.000000 0.000000
vt 1.000000 0.000000
vt 0.500000 1.000000
vt 0.000000 0.000000
vt 1.000000 0.000000
vt 0.000000 0.000000
vt 1.000000 0.000000
vt 1.000000 1.000000
vt 0.000000 1.000000
vt 0.500000 1.000000
vt 0.000000 0.000000
vt 1.000000 0.000000
vt 0.500000 1.000000
vt 0.000000 0.000000
vt 1.000000 0.000000
vt 0.000000 0.000000
vt 1.000000 0.000000
vt 1.000000 1.000000
vt 0.000000 1.000000
vt 0.500000 1.000000
vt 0.000000 0.000000
vt 1.000000 0.000000
vt 0.500000 1.000000
vt 0.000000 0.000000
vt 1.000000 0.000000
vt 0.000000 0.000000
vt 1.000000 0.000000
vt 1.000000 1.000000
vt 0.000000 1.000000
vt 0.500000 1.000000
vt 0.000000 0.000000
vt 1.000000 0.000000
vt 0.500000 1.000000
vt 0.000000 0.000000
vt 1.000000 0.000000
vt 0.000000 0.000000
vt 1.000000 0.000000
vt 1.000000 1.000000
vt 0.000000 1.000000
vt 0.500000 1.000000
vt 0.000000 0.000000
vt 1.000000 0.000000
vt 0.500000 1.000000
vt 0.000000 0.000000
vt 1.000000 0.000000
vt 0.000000 0.000000
vt 1.000000 0.000000
vt 1.000000 1.000000
vt 0.000000 1.000000
vt 0.500000 1.000000
vt 0.000000 0.000000
vt 1.000000 0.000000
vt 0.500000 1.000000
vt 0.000000 0.000000
vt 1.000000 0.000000
vt 0.000000 0.000000
vt 1.000000 0.000000
vt 1.000000 1.000000
vt 0.000000 1.000000
vt 0.500000 1.000000
vt 0.000000 0.000000
vt 1.000000 0.000000
vt 0.500000 1.000000
vt 0.000000 0.000000
vt 1.000000 0.000000
vt 0.000000 0.000000
vt 1.000000 0.000000
vt 1.000000 1.000000
vt 0.000000 1.000000
vt 0.500000 1.000000
vt 0.000000 0.000000
vt 1.000000 0.000000
vt 0.500000 1.000000
vt 0.000000 0.000000
vt 1.000000 0.000000
vt 0.000000 0.000000
vt 1.000000 0.000000
vt 1.000000 1.000000
vt 0.000000 1.000000
vt 0.500000 1.000000
vt 0.000000 0.000000
vt 1.000000 0.000000
vt 0.500000 1.000000
vt 0.000000 0.000000
vt 1.000000 0.000000
vt 0.000000 0.000000
vt 1.000000 0.000000
vt 1.000000 1.000000
vt 0.000000 1.000000
vt 0.500000 1.000000
vt 0.000000 0.000000
vt 1.000000 0.000000
vt 0.500000 1.000000
vt 0.000000 0.000000
vt 1.000000 0.000000
vt 0.000000 0.000000
vt 1.000000 0.000000
vt 1.000000 1.000000
vt 0.000000 1.000000
vt 0.500000 1.000000
vt 0.000000 0.000000
vt 1.000000 0.000000
vt 0.500000 1.000000
vt 0.000000 0.000000
vt 1.000000 0.000000
vt 0.000000 0.000000
vt 1.000000 0.000000
vt 1.000000 1.000000
vt 0.000000 1.000000
vt 0.500000 1.000000
vt 0.000000 0.000000
vt 1.000000 0.000000
vt 0.500000 1.000000
vt 0.000000 0.000000
vt 1.000000 0.000000
vt 0.000000 0.000000
vt 1.000000 0.000000
vt 1.000000 1.000000
vt 0.000000 1.000000
vt 0.500000 1.000000
vt 0.000000 0.000000
vt 1.000000 0.000000
vt 0.500000 1.000000
vt 0.000000 0.000000
vt 1.000000 0.000000
vt 0.000000 0.000000
vt 1.000000 0.000000
vt 1.000000 1.000000
vt 0.000000 1.000000
vt 0.500000 1.000000
vt 0.000000 0.000000
vt 1.000000 0.000000
vt 0.500000 1.000000
vt 0.000000 0.000000
vt 1.000000 0.000000
vt 0.000000 0.000000
vt 1.000000 0.000000
vt 1.000000 1.000000
vt 0.000000 1.000000
vt 0.500000 1.000000
vt 0.000000 0.000000
vt 1.000000 0.000000
vt 0.500000 1.000000
vt 0.000000 0.000000
vt 1.000000 0.000000
vt 0.000000 0.000000
vt 1.000000 0.000000
vt 1.000000 1.000000
vt 0.000000 1.000000
vt 0.500000 1.000000
vt 0.000000 0.000000
vt 1.000000 0.000000
vt 0.500000 1.000000
vt 0.000000 0.000000
vt 1.000000 0.000000
vt 0.000000 0.000000
vt 1.000000 0.000000
vt 1.000000 1.000000
vt 0.000000 1.000000
vt 0.500000 1.000000
vt 0.000000 0.000000
vt 1.000000 0.000000
vt 0.500000 1.000000
vt 0.000000 0.000000
vt 1.000000 0.000000
vt 0.000000 0.000000
vt 1.000000 0.000000
vt 1.000000 1.000000
vt 0.000000 1.000000
vt 0.500000 1.000000
vt 0.000000 0.000000
vt 1.000000 0.000000
vt 0.500000 1.000000
vt 0.000000 0.000000
vt 1.000000 0.000000
vt 0.000000 0.000000
vt 1.000000 0.000000
vt 1.000000 1.000000
vt 0.000000 1.000000
vt 0.500000 1.000000
vt 0.000000 0.000000
vt 1.000000 0.000000
vt 0.500000 1.000000
vt 0.000000 0.000000
vt 1.000000 0.000000
vt 0.000000 0.000000
vt 1.000000 0.000000
vt 1.000000 1.000000
vt 0.000000 1.000000
vt 0.500000 1.000000
vt 0.000000 0.000000
vt 1.000000 0.000000
vt 0.500000 1.000000
vt 0.000000 0.000000
vt 1.000000 0.000000
vt 0.000000 0.000000
vt 1.000000 0.000000
vt 1.000000 1.000000
vt 0.000000 1.000000
vt 0.500000 1.000000
vt 0.000000 0.000000
vt 1.000000 0.000000
vt 0.500000 1.000000
vt 0.000000 0.000000
vt 1.000000 0.000000
vt 0.000000 0.000000
vt 1.000000 0.000000
vt 1.000000 1.000000
vt 0.000000 1.000000
vt 0.500000 1.000000
vt 0.000000 0.000000
vt 1.000000 0.000000
vt 0.500000 1.000000
vt 0.000000 0.000000
vt 1.000000 0.000000
vt 0.000000 0.000000
vt 1.000000 0.000000
vt 1.000000 1.000000
vt 0.000000 1.000000
vt 0.500000 1.000000
vt 0.000000 0.000000
vt 1.000000 0.000000
vt 0.500000 1.000000
vt 0.000000 0.000000
vt 1.000000 0.000000
vt 0.000000 0.000000
vt 1.000000 0.000000
vt 1.000000 1.000000
vt 0.000000 1.000000
vt 0.500000 1.000000
vt 0.000000 0.000000
vt 1.000000 0.000000
vt 0.500000 1.000000
vt 0.000000 0.000000
vt 1.000000 0.000000
vt 0.000000 0.000000
vt 1.000000 0.000000
vt 1.000000 1.000000
vt 0.000000 1.000000
vt 0.500000 1.000000
vt 0.000000 0.000000
vt 1.000000 0.000000
vt 0.500000 1.000000
vt 0.000000 0.000000
vt 1.000000 0.000000
vt 0.000000 0.000000
vt 1.000000 0.000000
vt 1.000000 1.000000
vt 0.000000 1.000000
vt 0.500000 1.000000
vt 0.000000 0.000000
vt 1.000000 0.000000
vt 0.500000 1.000000
vt 0.000000 0.000000
vt 1.000000 0.000000
vt 0.000000 0.000000
vt 1.000000 0.000000
vt 1.000000 1.000000
vt 0.000000 1.000000
vt 0.500000 1.000000
vt 0.000000 0.000000
vt 1.000000 0.000000
vt 0.500000 1.000000
vt 0.000000 0.000000
vt 1.000000 0.000000
vt 0.000000 0.000000
vt 1.000000 0.000000
vt 1.000000 1.000000
vt 0.000000 1.000000
vt 0.500000 1.000000
vt 0.000000 0.000000
vt 1.000000 0.000000
vt 0.500000 1.000000
vt 0.000000 0.000000
vt 1.000000 0.000000
vt 0.000000 0.000000
vt 1.000000 0.000000
vt 1.000000 1.000000
vt 0.000000 1.000000
vt 0.500000 1.000000
vt 0.000000 0.000000
vt 1.000000 0.000000
vt 0.500000 1.000000
vt 0.000000 0.000000
vt 1.000000 0.000000
vt 0.000000 0.000000
vt 1.000000 0.000000
vt 1.000000 1.000000
vt 0.000000 1.000000
vt 0.500000 1.000000
vt 0.000000 0.000000
vt 1.000000 0.000000
vt 0.500000 1.000000
vt 0.000000 0.000000
vt 1.000000 0.000000
vt 0.000000 0.000000
vt 1.000000 0.000000
vt 1.000000 1.000000
vt 0.000000 1.000000
vt 0.500000 1.000000
vt 0.000000 0.000000
vt 1.000000 0.000000
vt 0.500000 1.000000
vt 0.000000 0.000000
vt 1.000000 0.000000
vt 0.000000 0.000000
vt 1.000000 0.000000
vt 1.000000 1.000000
vt 0.000000 1.000000
vt 0.500000 1.000000
vt 0.000000 0.000000
vt 1.000000 0.000000
vt 0.500000 1.000000
vt 0.000000 0.000000
vt 1.000000 0.000000
vt 0.000000 0.000000
vt 1.000000 0.000000
vt 1.000000 1.000000
vt 0.000000 1.000000
vt 0.500000 1.000000
vt 0.000000 0.000000
vt 1.000000 0.000000
vt 0.500000 1.000000
vt 0.000000 0.000000
vt 1.000000 0.000000
vt 0.000000 0.000000
vt 1.000000 0.000000
vt 1.000000 1.000000
vt 0.000000 1.000000
vt 0.500000 1.000000
vt 0.000000 0.000000
vt 1.000000 0.000000
vt 0.500000 1.000000
vt 0.000000 0.000000
vt 1.000000 0.000000
vt 0.000000 0.000000
vt 1.000000 0.000000
vt 1.000000 1.000000
vt 0.000000 1.000000
vt 0.500000 1.000000
vt 0.000000 0.000000
vt 1.000000 0.000000
vt 0.500000 1.000000
vt 0.000000 0.000000
vt 1.000000 0.000000
vt 0.000000 0.000000
vt 1.000000 0.000000
vt 1.000000 1.000000
vt 0.000000 1.000000
vt 0.500000 1.000000
vt 0.000000 0.000000
vt 1.000000 0.000000
vt 0.500000 1.000000
vt 0.000000 0.000000
vt 1.000000 0.000000
vt 0.000000 0.000000
vt 1.000000 0.000000
vt 1.000000 1.000000
vt 0.000000 1.000000
vt 0.500000 1.000000
vt 0.000000 0.000000
vt 1.000000 0.000000
vt 0.500000 1.000000
vt 0.000000 0.000000
vt 1.000000 0.000000
vt 0.000000 0.000000
vt 1.000000 0.000000
vt 1.000000 1.000000
vt 0.000000 1.000000
vt 0.500000 1.000000
vt 0.000000 0.000000
vt 1.000000 0.000000
vt 0.500000 1.000000
vt 0.000000 0.000000
vt 1.000000 0.000000
s 1
usemtl models/caelum/world/environment/bark_mountain.png
f 1/1 2/2 3/3 4/4
f 5/5 6/6 7/7
f 8/8 9/9 10/10 11/11
f 12/12 13/13 14/14
f 15/15 16/16 17/17 18/18
f 19/19 20/20 21/21
f 22/22 23/23 24/24 25/25
f 26/26 27/27 28/28
f 29/29 30/30 31/31 32/32
f 33/33 34/34 35/35
f 36/36 37/37 38/38 39/39
f 40/40 41/41 42/42
f 43/43 44/44 45/45 46/46
f 47/47 48/48 49/49
f 50/50 51/51 52/52 53/53
f 54/54 55/55 56/56
f 57/57 58/58 59/59 60/60
f 61/61 62/62 63/63
f 64/64 65/65 66/66 67/67
f 68/68 69/69 70/70
f 71/71 72/72 73/73 74/74
f 75/75 76/76 77/77
f 78/78 79/79 80/80 81/81
f 82/82 83/83 84/84
f 85/85 86/86 87/87 88/88
f 89/89 90/90 91/91
f 92/92 93/93 94/94 95/95
f 96/96 97/97 98/98
f 99/99 100/100 101/101 102/102
f 103/103 104/104 105/105
f 106/106 107/107 108/108 109/109
f 110/110 111/111 112/112
f 113/113 114/114 115/115 116/116
f 117/117 118/118 119/119
f 120/120 121/121 122/122 123/123
f 124/124 125/125 126/126
usemtl models/caelum/world/environment/foliage_mountain.png
f 127/127 128/128 129/129 130/130
f 131/131 132/132 133/133
f 134/134 135/135 136/136
f 137/137 138/138 139/139 140/140
f 141/141 142/142 143/143
f 144/144 145/145 146/146
f 147/147 148/148 149/149 150/150
f 151/151 152/152 153/153
f 154/154 155/155 156/156
f 157/157 158/158 159/159 160/160
f 161/161 162/162 163/163
f 164/164 165/165 166/166
f 167/167 168/168 169/169 170/170
f 171/171 172/172 173/173
f 174/174 175/175 176/176
f 177/177 178/178 179/179 180/180
f 181/181 182/182 183/183
f 184/184 185/185 186/186
f 187/187 188/188 189/189 190/190
f 191/191 192/192 193/193
f 194/194 195/195 196/196
f 197/197 198/198 199/199 200/200
f 201/201 202/202 203/203
f 204/204 205/205 206/206
f 207/207 208/208 209/209 210/210
f 211/211 212/212 213/213
f 214/214 215/215 216/216
f 217/217 218/218 219/219 220/220
f 221/221 222/222 223/223
f 224/224 225/225 226/226
f 227/227 228/228 229/229 230/230
f 231/231 232/232 233/233
f 234/234 235/235 236/236
f 237/237 238/238 239/239 240/240
f 241/241 242/242 243/243
f 244/244 245/245 246/246
f 247/247 248/248 249/249 250/250
f 251/251 252/252 253/253
f 254/254 255/255 256/256
f 257/257 258/258 259/259 260/260
f 261/261 262/262 263/263
f 264/264 265/265 266/266
f 267/267 268/268 269/269 270/270
f 271/271 272/272 273/273
f 274/274 275/275 276/276
f 277/277 278/278 279/279 280/280
f 281/281 282/282 283/283
f 284/284 285/285 286/286
f 287/287 288/288 289/289 290/290
f 291/291 292/292 293/293
f 294/294 295/295 296/296
f 297/297 298/298 299/299 300/300
f 301/301 302/302 303/303
f 304/304 305/305 306/306
f 307/307 308/308 309/309 310/310
f 311/311 312/312 313/313
f 314/314 315/315 316/316
f 317/317 318/318 319/319 320/320
f 321/321 322/322 323/323
f 324/324 325/325 326/326
f 327/327 328/328 329/329 330/330
f 331/331 332/332 333/333
f 334/334 335/335 336/336
f 337/337 338/338 339/339 340/340
f 341/341 342/342 343/343
f 344/344 345/345 346/346
f 347/347 348/348 349/349 350/350
f 351/351 352/352 353/353
f 354/354 355/355 356/356
f 357/357 358/358 359/359 360/360
f 361/361 362/362 363/363
f 364/364 365/365 366/366
f 367/367 368/368 369/369 370/370
f 371/371 372/372 373/373
f 374/374 375/375 376/376
f 377/377 378/378 379/379 380/380
f 381/381 382/382 383/383
f 384/384 385/385 386/386
f 387/387 388/388 389/389 390/390
f 391/391 392/392 393/393
f 394/394 395/395 396/396
f 397/397 398/398 399/399 400/400
f 401/401 402/402 403/403
f 404/404 405/405 406/406
f 407/407 408/408 409/409 410/410
f 411/411 412/412 413/413
f 414/414 415/415 416/416
f 417/417 418/418 419/419 420/420
f 421/421 422/422 423/423
f 424/424 425/425 426/426
f 427/427 428/428 429/429 430/430
f 431/431 432/432 433/433
f 434/434 435/435 436/436
f 437/437 438/438 439/439 440/440
f 441/441 442/442 443/443
f 444/444 445/445 446/446
f 447/447 448/448 449/449 450/450
f 451/451 452/452 453/453
f 454/454 455/455 456/456
f 457/457 458/458 459/459 460/460
f 461/461 462/462 463/463
f 464/464 465/465 466/466
f 467/467 468/468 469/469 470/470
f 471/471 472/472 473/473
f 474/474 475/475 476/476
f 477/477 478/478 479/479 480/480
f 481/481 482/482 483/483
f 484/484 485/485 486/486
f 487/487 488/488 489/489 490/490
f 491/491 492/492 493/493
f 494/494 495/495 496/496
f 497/497 498/498 499/499 500/500
f 501/501 502/502 503/503
f 504/504 505/505 506/506
f 507/507 508/508 509/509 510/510
f 511/511 512/512 513/513
f 514/514 515/515 516/516
f 517/517 518/518 519/519 520/520
f 521/521 522/522 523/523
f 524/524 525/525 526/526
f 527/527 528/528 529/529 530/530
f 531/531 532/532 533/533
f 534/534 535/535 536/536
f 537/537 538/538 539/539 540/540
f 541/541 542/542 543/543
f 544/544 545/545 546/546
f 547/547 548/548 549/549 550/550
f 551/551 552/552 553/553
f 554/554 555/555 556/556
f 557/557 558/558 559/559 560/560
f 561/561 562/562 563/563
f 564/564 565/565 566/566
f 567/567 568/568 569/569 570/570
f 571/571 572/572 573/573
f 574/574 575/575 576/576
f 577/577 578/578 579/579 580/580
f 581/581 582/582 583/583
f 584/584 585/585 586/586
f 587/587 588/588 589/589 590/590
f 591/591 592/592 593/593
f 594/594 595/595 596/596
f 597/597 598/598 599/599 600/600
f 601/601 602/602 603/603
f 604/604 605/605 606/606
f 607/607 608/608 609/609 610/610
f 611/611 612/612 613/613
f 614/614 615/615 616/616
f 617/617 618/618 619/619 620/620
f 621/621 622/622 623/623
f 624/624 625/625 626/626
f 627/627 628/628 629/629 630/630
f 631/631 632/632 633/633
f 634/634 635/635 636/636
f 637/637 638/638 639/639 640/640
f 641/641 642/642 643/643
f 644/644 645/645 646/646
f 647/647 648/648 649/649 650/650
f 651/651 652/652 653/653
f 654/654 655/655 656/656
f 657/657 658/658 659/659 660/660
f 661/661 662/662 663/663
f 664/664 665/665 666/666
f 667/667 668/668 669/669 670/670
f 671/671 672/672 673/673
f 674/674 675/675 676/676
f 677/677 678/678 679/679 680/680
f 681/681 682/682 683/683
f 684/684 685/685 686/686
f 687/687 688/688 689/689 690/690
f 691/691 692/692 693/693
f 694/694 695/695 696/696
f 697/697 698/698 699/699 700/700
f 701/701 702/702 703/703
f 704/704 705/705 706/706
f 707/707 708/708 709/709 710/710
f 711/711 712/712 713/713
f 714/714 715/715 716/716
f 717/717 718/718 719/719 720/720
f 721/721 722/722 723/723
f 724/724 725/725 726/726
f 727/727 728/728 729/729 730/730
f 731/731 732/732 733/733
f 734/734 735/735 736/736
f 737/737 738/738 739/739 740/740
f 741/741 742/742 743/743
f 744/744 745/745 746/746
f 747/747 748/748 749/749 750/750
f 751/751 752/752 753/753
f 754/754 755/755 756/756
f 757/757 758/758 759/759 760/760
f 761/761 762/762 763/763
f 764/764 765/765 766/766
f 767/767 768/768 769/769 770/770
f 771/771 772/772 773/773
f 774/774 775/775 776/776
f 777/777 778/778 779/779 780/780
f 781/781 782/782 783/783
f 784/784 785/785 786/786
f 787/787 788/788 789/789 790/790
f 791/791 792/792 793/793
f 794/794 795/795 796/796
f 797/797 798/798 799/799 800/800
f 801/801 802/802 803/803
f 804/804 805/805 806/806
f 807/807 808/808 809/809 810/810
f 811/811 812/812 813/813
f 814/814 815/815 816/816
f 817/817 818/818 819/819 820/820
f 821/821 822/822 823/823
f 824/824 825/825 826/826
f 827/827 828/828 829/829 830/830
f 831/831 832/832 833/833
f 834/834 835/835 836/836
f 837/837 838/838 839/839 840/840
f 841/841 842/842 843/843
f 844/844 845/845 846/846
f 847/847 848/848 849/849 850/850
f 851/851 852/852 853/853
f 854/854 855/855 856/856
f 857/857 858/858 859/859 860/860
f 861/861 862/862 863/863
f 864/864 865/865 866/866
f 867/867 868/868 869/869 870/870
f 871/871 872/872 873/873
f 874/874 875/875 876/876
f 877/877 878/878 879/879 880/880
f 881/881 882/882 883/883
f 884/884 885/885 886/886
f 887/887 888/888 889/889 890/890
f 891/891 892/892 893/893
f 894/894 895/895 896/896
f 897/897 898/898 899/899 900/900
f 901/901 902/902 903/903
f 904/904 905/905 906/906
f 907/907 908/908 909/909 910/910
f 911/911 912/912 913/913
f 914/914 915/915 916/916
f 917/917 918/918 919/919 920/920
f 921/921 922/922 923/923
f 924/924 925/925 926/926
f 927/927 928/928 929/929 930/930
f 931/931 932/932 933/933
f 934/934 935/935 936/936
f 937/937 938/938 939/939 940/940
f 941/941 942/942 943/943
f 944/944 945/945 946/946
f 947/947 948/948 949/949 950/950
f 951/951 952/952 953/953
f 954/954 955/955 956/956
f 957/957 958/958 959/959 960/960
f 961/961 962/962 963/963
f 964/964 965/965 966/966
f 967/967 968/968 969/969 970/970
f 971/971 972/972 973/973
f 974/974 975/975 976/976
f 977/977 978/978 979/979 980/980
f 981/981 982/982 983/983
f 984/984 985/985 986/986
f 987/987 988/988 989/989 990/990
f 991/991 992/992 993/993
f 994/994 995/995 996/996
f 997/997 998/998 999/999 1000/1000
f 1001/1001 1002/1002 1003/1003
f 1004/1004 1005/1005 1006/1006
f 1007/1007 1008/1008 1009/1009 1010/1010
f 1011/1011 1012/1012 1013/1013
f 1014/1014 1015/1015 1016/1016
f 1017/1017 1018/1018 1019/1019 1020/1020
f 1021/1021 1022/1022 1023/1023
f 1024/1024 1025/1025 1026/1026
f 1027/1027 1028/1028 1029/1029 1030/1030
f 1031/1031 1032/1032 1033/1033
f 1034/1034 1035/1035 1036/1036
f 1037/1037 1038/1038 1039/1039 1040/1040
f 1041/1041 1042/1042 1043/1043
f 1044/1044 1045/1045 1046/1046
f 1047/1047 1048/1048 1049/1049 1050/1050
f 1051/1051 1052/1052 1053/1053
f 1054/1054 1055/1055 1056/1056
f 1057/1057 1058/1058 1059/1059 1060/1060
f 1061/1061 1062/1062 1063/1063
f 1064/1064 1065/1065 1066/1066
f 1067/1067 1068/1068 1069/1069 1070/1070
f 1071/1071 1072/1072 1073/1073
f 1074/1074 1075/1075 1076/1076
f 1077/1077 1078/1078 1079/1079 1080/1080
f 1081/1081 1082/1082 1083/1083
f 1084/1084 1085/1085 1086/1086
f 1087/1087 1088/1088 1089/1089 1090/1090
f 1091/1091 1092/1092 1093/1093
f 1094/1094 1095/1095 1096/1096
f 1097/1097 1098/1098 1099/1099 1100/1100
f 1101/1101 1102/1102 1103/1103
f 1104/1104 1105/1105 1106/1106
f 1107/1107 1108/1108 1109/1109 1110/1110
f 1111/1111 1112/1112 1113/1113
f 1114/1114 1115/1115 1116/1116
f 1117/1117 1118/1118 1119/1119 1120/1120
f 1121/1121 1122/1122 1123/1123
f 1124/1124 1125/1125 1126/1126
