# Modelo original generado para Caelum Argenteum.
# Ejes OBJ: X ancho, Y altura, Z profundidad.
o ca_tree_mountain_cypress
v 0.000000 0.072404 -9.999738
v -6.426823 -0.060864 -7.661086
v -3.728169 124.286001 -0.862050
v -2.250000 124.316653 -1.399940
v 0.000000 0.000000 0.000000
v -6.426823 -0.060864 -7.661086
v 0.000000 0.072404 -9.999738
v -6.426823 -0.060864 -7.661086
v -9.846465 -0.165652 -1.737727
v -4.514687 124.261900 0.500323
v -3.728169 124.286001 -0.862050
v 0.000000 0.000000 0.000000
v -9.846465 -0.165652 -1.737727
v -6.426823 -0.060864 -7.661086
v -9.846465 -0.165652 -1.737727
v -8.658836 -0.192930 4.998734
v -4.241532 124.255626 2.049709
v -4.514687 124.261900 0.500323
v 0.000000 0.000000 0.000000
v -8.658836 -0.192930 4.998734
v -9.846465 -0.165652 -1.737727
v -8.658836 -0.192930 4.998734
v -3.419641 -0.129934 9.396232
v -3.036517 124.270115 3.061133
v -4.241532 124.255626 2.049709
v 0.000000 0.000000 0.000000
v -3.419641 -0.129934 9.396232
v -8.658836 -0.192930 4.998734
v -3.419641 -0.129934 9.396232
v 3.419641 -0.006140 9.397128
v -1.463483 124.298588 3.061339
v -3.036517 124.270115 3.061133
v 0.000000 0.000000 0.000000
v 3.419641 -0.006140 9.397128
v -3.419641 -0.129934 9.396232
v 3.419641 -0.006140 9.397128
v 8.658836 0.120527 5.001004
v -0.258468 124.327721 2.050231
v -1.463483 124.298588 3.061339
v 0.000000 0.000000 0.000000
v 8.658836 0.120527 5.001004
v 3.419641 -0.006140 9.397128
v 8.658836 0.120527 5.001004
v 9.846465 0.190798 -1.735146
v 0.014687 124.343884 0.500916
v -0.258468 124.327721 2.050231
v 0.000000 0.000000 0.000000
v 9.846465 0.190798 -1.735146
v 8.658836 0.120527 5.001004
v 9.846465 0.190798 -1.735146
v 6.426823 0.171793 -7.659401
v -0.771831 124.339512 -0.861662
v 0.014687 124.343884 0.500916
v 0.000000 0.000000 0.000000
v 6.426823 0.171793 -7.659401
v 9.846465 0.190798 -1.735146
v 6.426823 0.171793 -7.659401
v 0.000000 0.072404 -9.999738
v -2.250000 124.316653 -1.399940
v -0.771831 124.339512 -0.861662
v 0.000000 0.000000 0.000000
v 0.000000 0.072404 -9.999738
v 6.426823 0.171793 -7.659401
v -2.525237 124.317255 -1.383407
v -3.928088 124.271634 -0.672647
v -1.060142 226.066599 5.692301
v -4.353790 225.959488 7.361042
v -5.000000 226.000000 2.000000
v -4.353790 225.959488 7.361042
v -1.060142 226.066599 5.692301
v -3.928088 124.271634 -0.672647
v -4.545742 124.239286 0.773972
v 0.390003 226.142547 2.295891
v -1.060142 226.066599 5.692301
v -5.000000 226.000000 2.000000
v -1.060142 226.066599 5.692301
v 0.390003 226.142547 2.295891
v -4.545742 124.239286 0.773972
v -4.089193 124.235346 2.279561
v -0.681895 226.151796 -1.238970
v 0.390003 226.142547 2.295891
v -5.000000 226.000000 2.000000
v 0.390003 226.142547 2.295891
v -0.681895 226.151796 -1.238970
v -4.089193 124.235346 2.279561
v -2.772065 124.261659 3.139638
v -3.774281 226.090018 -3.258280
v -0.681895 226.151796 -1.238970
v -5.000000 226.000000 2.000000
v -0.681895 226.151796 -1.238970
v -3.774281 226.090018 -3.258280
v -2.772065 124.261659 3.139638
v -1.210657 124.305912 2.951763
v -7.440196 225.986120 -2.817183
v -3.774281 226.090018 -3.258280
v -5.000000 226.000000 2.000000
v -3.774281 226.090018 -3.258280
v -7.440196 225.986120 -2.817183
v -1.210657 124.305912 2.951763
v -0.135569 124.347399 1.803846
v -9.964315 225.888716 -0.122072
v -7.440196 225.986120 -2.817183
v -5.000000 226.000000 2.000000
v -7.440196 225.986120 -2.817183
v -9.964315 225.888716 -0.122072
v -0.135569 124.347399 1.803846
v -0.049847 124.366707 0.233009
v -10.165576 225.843383 3.565979
v -9.964315 225.888716 -0.122072
v -5.000000 226.000000 2.000000
v -9.964315 225.888716 -0.122072
v -10.165576 225.843383 3.565979
v -0.049847 124.366707 0.233009
v -0.993601 124.354802 -1.025736
v -7.949807 225.871333 6.521292
v -10.165576 225.843383 3.565979
v -5.000000 226.000000 2.000000
v -10.165576 225.843383 3.565979
v -7.949807 225.871333 6.521292
v -0.993601 124.354802 -1.025736
v -2.525237 124.317255 -1.383407
v -4.353790 225.959488 7.361042
v -7.949807 225.871333 6.521292
v -5.000000 226.000000 2.000000
v -7.949807 225.871333 6.521292
v -4.353790 225.959488 7.361042
v -0.288000 46.330000 -31.564800
v -18.909037 46.330000 -25.514458
v -1.777683 76.840000 -1.935173
v -0.288000 76.840000 -2.419200
v -0.288000 46.330000 0.115200
v -18.909037 46.330000 -25.514458
v -0.288000 46.330000 -31.564800
v -0.288000 76.840000 0.115200
v -0.288000 76.840000 -2.419200
v -1.777683 76.840000 -1.935173
v -18.909037 46.330000 -25.514458
v -30.417470 46.330000 -9.674458
v -2.698358 76.840000 -0.667973
v -1.777683 76.840000 -1.935173
v -0.288000 46.330000 0.115200
v -30.417470 46.330000 -9.674458
v -18.909037 46.330000 -25.514458
v -0.288000 76.840000 0.115200
v -1.777683 76.840000 -1.935173
v -2.698358 76.840000 -0.667973
v -30.417470 46.330000 -9.674458
v -30.417470 46.330000 9.904858
v -2.698358 76.840000 0.898373
v -2.698358 76.840000 -0.667973
v -0.288000 46.330000 0.115200
v -30.417470 46.330000 9.904858
v -30.417470 46.330000 -9.674458
v -0.288000 76.840000 0.115200
v -2.698358 76.840000 -0.667973
v -2.698358 76.840000 0.898373
v -30.417470 46.330000 9.904858
v -18.909037 46.330000 25.744858
v -1.777683 76.840000 2.165573
v -2.698358 76.840000 0.898373
v -0.288000 46.330000 0.115200
v -18.909037 46.330000 25.744858
v -30.417470 46.330000 9.904858
v -0.288000 76.840000 0.115200
v -2.698358 76.840000 0.898373
v -1.777683 76.840000 2.165573
v -18.909037 46.330000 25.744858
v -0.288000 46.330000 31.795200
v -0.288000 76.840000 2.649600
v -1.777683 76.840000 2.165573
v -0.288000 46.330000 0.115200
v -0.288000 46.330000 31.795200
v -18.909037 46.330000 25.744858
v -0.288000 76.840000 0.115200
v -1.777683 76.840000 2.165573
v -0.288000 76.840000 2.649600
v -0.288000 46.330000 31.795200
v 18.333037 46.330000 25.744858
v 1.201683 76.840000 2.165573
v -0.288000 76.840000 2.649600
v -0.288000 46.330000 0.115200
v 18.333037 46.330000 25.744858
v -0.288000 46.330000 31.795200
v -0.288000 76.840000 0.115200
v -0.288000 76.840000 2.649600
v 1.201683 76.840000 2.165573
v 18.333037 46.330000 25.744858
v 29.841470 46.330000 9.904858
v 2.122358 76.840000 0.898373
v 1.201683 76.840000 2.165573
v -0.288000 46.330000 0.115200
v 29.841470 46.330000 9.904858
v 18.333037 46.330000 25.744858
v -0.288000 76.840000 0.115200
v 1.201683 76.840000 2.165573
v 2.122358 76.840000 0.898373
v 29.841470 46.330000 9.904858
v 29.841470 46.330000 -9.674458
v 2.122358 76.840000 -0.667973
v 2.122358 76.840000 0.898373
v -0.288000 46.330000 0.115200
v 29.841470 46.330000 -9.674458
v 29.841470 46.330000 9.904858
v -0.288000 76.840000 0.115200
v 2.122358 76.840000 0.898373
v 2.122358 76.840000 -0.667973
v 29.841470 46.330000 -9.674458
v 18.333037 46.330000 -25.514458
v 1.201683 76.840000 -1.935173
v 2.122358 76.840000 -0.667973
v -0.288000 46.330000 0.115200
v 18.333037 46.330000 -25.514458
v 29.841470 46.330000 -9.674458
v -0.288000 76.840000 0.115200
v 2.122358 76.840000 -0.667973
v 1.201683 76.840000 -1.935173
v 18.333037 46.330000 -25.514458
v -0.288000 46.330000 -31.564800
v -0.288000 76.840000 -2.419200
v 1.201683 76.840000 -1.935173
v -0.288000 46.330000 0.115200
v -0.288000 46.330000 -31.564800
v 18.333037 46.330000 -25.514458
v -0.288000 76.840000 0.115200
v 1.201683 76.840000 -1.935173
v -0.288000 76.840000 -2.419200
v -5.652789 61.698000 -28.268165
v -21.390919 61.698000 -19.789363
v -2.147648 92.208000 -1.408599
v -0.888598 92.208000 -2.086903
v -0.474320 61.698000 0.189728
v -21.390919 61.698000 -19.789363
v -5.652789 61.698000 -28.268165
v -0.474320 92.208000 0.189728
v -0.888598 92.208000 -2.086903
v -2.147648 92.208000 -1.408599
v -21.390919 61.698000 -19.789363
v -29.139619 61.698000 -3.679227
v -2.767544 92.208000 -0.119788
v -2.147648 92.208000 -1.408599
v -0.474320 61.698000 0.189728
v -29.139619 61.698000 -3.679227
v -21.390919 61.698000 -19.789363
v -0.474320 92.208000 0.189728
v -2.147648 92.208000 -1.408599
v -2.767544 92.208000 -0.119788
v -29.139619 61.698000 -3.679227
v -25.939149 61.698000 13.908717
v -2.511506 92.208000 1.287247
v -2.767544 92.208000 -0.119788
v -0.474320 61.698000 0.189728
v -25.939149 61.698000 13.908717
v -29.139619 61.698000 -3.679227
v -0.474320 92.208000 0.189728
v -2.767544 92.208000 -0.119788
v -2.511506 92.208000 1.287247
v -25.939149 61.698000 13.908717
v -13.011980 61.698000 26.256475
v -1.477333 92.208000 2.275068
v -2.511506 92.208000 1.287247
v -0.474320 61.698000 0.189728
v -13.011980 61.698000 26.256475
v -25.939149 61.698000 13.908717
v -0.474320 92.208000 0.189728
v -2.511506 92.208000 1.287247
v -1.477333 92.208000 2.275068
v -13.011980 61.698000 26.256475
v 4.704149 61.698000 28.647621
v -0.060042 92.208000 2.466359
v -1.477333 92.208000 2.275068
v -0.474320 61.698000 0.189728
v 4.704149 61.698000 28.647621
v -13.011980 61.698000 26.256475
v -0.474320 92.208000 0.189728
v -1.477333 92.208000 2.275068
v -0.060042 92.208000 2.466359
v 4.704149 61.698000 28.647621
v 20.442279 61.698000 20.168819
v 1.199008 92.208000 1.788055
v -0.060042 92.208000 2.466359
v -0.474320 61.698000 0.189728
v 20.442279 61.698000 20.168819
v 4.704149 61.698000 28.647621
v -0.474320 92.208000 0.189728
v -0.060042 92.208000 2.466359
v 1.199008 92.208000 1.788055
v 20.442279 61.698000 20.168819
v 28.190979 61.698000 4.058683
v 1.818904 92.208000 0.499244
v 1.199008 92.208000 1.788055
v -0.474320 61.698000 0.189728
v 28.190979 61.698000 4.058683
v 20.442279 61.698000 20.168819
v -0.474320 92.208000 0.189728
v 1.199008 92.208000 1.788055
v 1.818904 92.208000 0.499244
v 28.190979 61.698000 4.058683
v 24.990509 61.698000 -13.529261
v 1.562866 92.208000 -0.907791
v 1.818904 92.208000 0.499244
v -0.474320 61.698000 0.189728
v 24.990509 61.698000 -13.529261
v 28.190979 61.698000 4.058683
v -0.474320 92.208000 0.189728
v 1.818904 92.208000 0.499244
v 1.562866 92.208000 -0.907791
v 24.990509 61.698000 -13.529261
v 12.063340 61.698000 -25.877019
v 0.528693 92.208000 -1.895612
v 1.562866 92.208000 -0.907791
v -0.474320 61.698000 0.189728
v 12.063340 61.698000 -25.877019
v 24.990509 61.698000 -13.529261
v -0.474320 92.208000 0.189728
v 1.562866 92.208000 -0.907791
v 0.528693 92.208000 -1.895612
v 12.063340 61.698000 -25.877019
v -5.652789 61.698000 -28.268165
v -0.888598 92.208000 -2.086903
v 0.528693 92.208000 -1.895612
v -0.474320 61.698000 0.189728
v -5.652789 61.698000 -28.268165
v 12.063340 61.698000 -25.877019
v -0.474320 92.208000 0.189728
v 0.528693 92.208000 -1.895612
v -0.888598 92.208000 -2.086903
v -9.926050 77.066000 -24.210075
v -22.561867 77.066000 -14.113469
v -2.455279 107.576000 -0.868946
v -1.444414 107.576000 -1.676674
v -0.706880 77.066000 0.282752
v -22.561867 77.066000 -14.113469
v -9.926050 77.066000 -24.210075
v -0.706880 107.576000 0.282752
v -1.444414 107.576000 -1.676674
v -2.455279 107.576000 -0.868946
v -22.561867 77.066000 -14.113469
v -26.849823 77.066000 1.482004
v -2.798315 107.576000 0.378692
v -2.455279 107.576000 -0.868946
v -0.706880 77.066000 0.282752
v -26.849823 77.066000 1.482004
v -22.561867 77.066000 -14.113469
v -0.706880 107.576000 0.282752
v -2.455279 107.576000 -0.868946
v -2.798315 107.576000 0.378692
v -26.849823 77.066000 1.482004
v -21.152062 77.066000 16.619403
v -2.342495 107.576000 1.589684
v -2.798315 107.576000 0.378692
v -0.706880 77.066000 0.282752
v -21.152062 77.066000 16.619403
v -26.849823 77.066000 1.482004
v -0.706880 107.576000 0.282752
v -2.798315 107.576000 0.378692
v -2.342495 107.576000 1.589684
v -21.152062 77.066000 16.619403
v -7.644937 77.066000 25.516757
v -1.261925 107.576000 2.301472
v -2.342495 107.576000 1.589684
v -0.706880 77.066000 0.282752
v -7.644937 77.066000 25.516757
v -21.152062 77.066000 16.619403
v -0.706880 107.576000 0.282752
v -2.342495 107.576000 1.589684
v -1.261925 107.576000 2.301472
v -7.644937 77.066000 25.516757
v 8.512290 77.066000 24.775579
v 0.030654 107.576000 2.242178
v -1.261925 107.576000 2.301472
v -0.706880 77.066000 0.282752
v 8.512290 77.066000 24.775579
v -7.644937 77.066000 25.516757
v -0.706880 107.576000 0.282752
v -1.261925 107.576000 2.301472
v 0.030654 107.576000 2.242178
v 8.512290 77.066000 24.775579
v 21.148107 77.066000 14.678973
v 1.041519 107.576000 1.434450
v 0.030654 107.576000 2.242178
v -0.706880 77.066000 0.282752
v 21.148107 77.066000 14.678973
v 8.512290 77.066000 24.775579
v -0.706880 107.576000 0.282752
v 0.030654 107.576000 2.242178
v 1.041519 107.576000 1.434450
v 21.148107 77.066000 14.678973
v 25.436063 77.066000 -0.916500
v 1.384555 107.576000 0.186812
v 1.041519 107.576000 1.434450
v -0.706880 77.066000 0.282752
v 25.436063 77.066000 -0.916500
v 21.148107 77.066000 14.678973
v -0.706880 107.576000 0.282752
v 1.041519 107.576000 1.434450
v 1.384555 107.576000 0.186812
v 25.436063 77.066000 -0.916500
v 19.738302 77.066000 -16.053899
v 0.928735 107.576000 -1.024180
v 1.384555 107.576000 0.186812
v -0.706880 77.066000 0.282752
v 19.738302 77.066000 -16.053899
v 25.436063 77.066000 -0.916500
v -0.706880 107.576000 0.282752
v 1.384555 107.576000 0.186812
v 0.928735 107.576000 -1.024180
v 19.738302 77.066000 -16.053899
v 6.231177 77.066000 -24.951253
v -0.151835 107.576000 -1.735968
v 0.928735 107.576000 -1.024180
v -0.706880 77.066000 0.282752
v 6.231177 77.066000 -24.951253
v 19.738302 77.066000 -16.053899
v -0.706880 107.576000 0.282752
v 0.928735 107.576000 -1.024180
v -0.151835 107.576000 -1.735968
v 6.231177 77.066000 -24.951253
v -9.926050 77.066000 -24.210075
v -1.444414 107.576000 -1.676674
v -0.151835 107.576000 -1.735968
v -0.706880 77.066000 0.282752
v -9.926050 77.066000 -24.210075
v 6.231177 77.066000 -24.951253
v -0.706880 107.576000 0.282752
v -0.151835 107.576000 -1.735968
v -1.444414 107.576000 -1.676674
v -13.024510 92.434000 -19.689536
v -22.530264 92.434000 -8.777624
v -2.709247 122.944000 -0.339480
v -1.948786 122.944000 -1.212433
v -0.985680 92.434000 0.394272
v -22.530264 92.434000 -8.777624
v -13.024510 92.434000 -19.689536
v -0.985680 122.944000 0.394272
v -1.948786 122.944000 -1.212433
v -2.709247 122.944000 -0.339480
v -22.530264 92.434000 -8.777624
v -23.806720 92.434000 5.637641
v -2.811363 122.944000 0.813742
v -2.709247 122.944000 -0.339480
v -0.985680 92.434000 0.394272
v -23.806720 92.434000 5.637641
v -22.530264 92.434000 -8.777624
v -0.985680 122.944000 0.394272
v -2.709247 122.944000 -0.339480
v -2.811363 122.944000 0.813742
v -23.806720 92.434000 5.637641
v -16.366314 92.434000 18.050117
v -2.216131 122.944000 1.806740
v -2.811363 122.944000 0.813742
v -0.985680 92.434000 0.394272
v -16.366314 92.434000 18.050117
v -23.806720 92.434000 5.637641
v -0.985680 122.944000 0.394272
v -2.811363 122.944000 0.813742
v -2.216131 122.944000 1.806740
v -16.366314 92.434000 18.050117
v -3.051029 92.434000 23.718661
v -1.150908 122.944000 2.260223
v -2.216131 122.944000 1.806740
v -0.985680 92.434000 0.394272
v -3.051029 92.434000 23.718661
v -16.366314 92.434000 18.050117
v -0.985680 122.944000 0.394272
v -2.216131 122.944000 1.806740
v -1.150908 122.944000 2.260223
v -3.051029 92.434000 23.718661
v 11.053150 92.434000 20.478080
v -0.022574 122.944000 2.000977
v -1.150908 122.944000 2.260223
v -0.985680 92.434000 0.394272
v 11.053150 92.434000 20.478080
v -3.051029 92.434000 23.718661
v -0.985680 122.944000 0.394272
v -1.150908 122.944000 2.260223
v -0.022574 122.944000 2.000977
v 11.053150 92.434000 20.478080
v 20.558904 92.434000 9.566168
v 0.737887 122.944000 1.128024
v -0.022574 122.944000 2.000977
v -0.985680 92.434000 0.394272
v 20.558904 92.434000 9.566168
v 11.053150 92.434000 20.478080
v -0.985680 122.944000 0.394272
v -0.022574 122.944000 2.000977
v 0.737887 122.944000 1.128024
v 20.558904 92.434000 9.566168
v 21.835360 92.434000 -4.849097
v 0.840003 122.944000 -0.025198
v 0.737887 122.944000 1.128024
v -0.985680 92.434000 0.394272
v 21.835360 92.434000 -4.849097
v 20.558904 92.434000 9.566168
v -0.985680 122.944000 0.394272
v 0.737887 122.944000 1.128024
v 0.840003 122.944000 -0.025198
v 21.835360 92.434000 -4.849097
v 14.394954 92.434000 -17.261573
v 0.244771 122.944000 -1.018196
v 0.840003 122.944000 -0.025198
v -0.985680 92.434000 0.394272
v 14.394954 92.434000 -17.261573
v 21.835360 92.434000 -4.849097
v -0.985680 122.944000 0.394272
v 0.840003 122.944000 -0.025198
v 0.244771 122.944000 -1.018196
v 14.394954 92.434000 -17.261573
v 1.079669 92.434000 -22.930117
v -0.820452 122.944000 -1.471679
v 0.244771 122.944000 -1.018196
v -0.985680 92.434000 0.394272
v 1.079669 92.434000 -22.930117
v 14.394954 92.434000 -17.261573
v -0.985680 122.944000 0.394272
v 0.244771 122.944000 -1.018196
v -0.820452 122.944000 -1.471679
v 1.079669 92.434000 -22.930117
v -13.024510 92.434000 -19.689536
v -1.948786 122.944000 -1.212433
v -0.820452 122.944000 -1.471679
v -0.985680 92.434000 0.394272
v -13.024510 92.434000 -19.689536
v 1.079669 92.434000 -22.930117
v -0.985680 122.944000 0.394272
v -0.820452 122.944000 -1.471679
v -1.948786 122.944000 -1.212433
v -14.934181 107.802000 -15.008672
v -21.462376 107.802000 -4.034471
v -2.922852 138.312000 0.159587
v -2.400597 138.312000 -0.718349
v -1.310720 107.802000 0.524288
v -21.462376 107.802000 -4.034471
v -14.934181 107.802000 -15.008672
v -1.310720 138.312000 0.524288
v -2.400597 138.312000 -0.718349
v -2.922852 138.312000 0.159587
v -21.462376 107.802000 -4.034471
v -20.293324 107.802000 8.681020
v -2.829328 138.312000 1.176827
v -2.922852 138.312000 0.159587
v -1.310720 107.802000 0.524288
v -20.293324 107.802000 8.681020
v -21.462376 107.802000 -4.034471
v -1.310720 138.312000 0.524288
v -2.922852 138.312000 0.159587
v -2.829328 138.312000 1.176827
v -20.293324 107.802000 8.681020
v -11.873562 107.802000 18.280918
v -2.155747 138.312000 1.944818
v -2.829328 138.312000 1.176827
v -1.310720 107.802000 0.524288
v -11.873562 107.802000 18.280918
v -20.293324 107.802000 8.681020
v -1.310720 138.312000 0.524288
v -2.829328 138.312000 1.176827
v -2.155747 138.312000 1.944818
v -11.873562 107.802000 18.280918
v 0.580846 107.802000 21.098386
v -1.159395 138.312000 2.170216
v -2.155747 138.312000 1.944818
v -1.310720 107.802000 0.524288
v 0.580846 107.802000 21.098386
v -11.873562 107.802000 18.280918
v -1.310720 138.312000 0.524288
v -2.155747 138.312000 1.944818
v -1.159395 138.312000 2.170216
v 0.580846 107.802000 21.098386
v 12.312741 107.802000 16.057248
v -0.220843 138.312000 1.766925
v -1.159395 138.312000 2.170216
v -1.310720 107.802000 0.524288
v 12.312741 107.802000 16.057248
v 0.580846 107.802000 21.098386
v -1.310720 138.312000 0.524288
v -1.159395 138.312000 2.170216
v -0.220843 138.312000 1.766925
v 12.312741 107.802000 16.057248
v 18.840936 107.802000 5.083047
v 0.301412 138.312000 0.888989
v -0.220843 138.312000 1.766925
v -1.310720 107.802000 0.524288
v 18.840936 107.802000 5.083047
v 12.312741 107.802000 16.057248
v -1.310720 138.312000 0.524288
v -0.220843 138.312000 1.766925
v 0.301412 138.312000 0.888989
v 18.840936 107.802000 5.083047
v 17.671884 107.802000 -7.632444
v 0.207888 138.312000 -0.128251
v 0.301412 138.312000 0.888989
v -1.310720 107.802000 0.524288
v 17.671884 107.802000 -7.632444
v 18.840936 107.802000 5.083047
v -1.310720 138.312000 0.524288
v 0.301412 138.312000 0.888989
v 0.207888 138.312000 -0.128251
v 17.671884 107.802000 -7.632444
v 9.252122 107.802000 -17.232342
v -0.465693 138.312000 -0.896242
v 0.207888 138.312000 -0.128251
v -1.310720 107.802000 0.524288
v 9.252122 107.802000 -17.232342
v 17.671884 107.802000 -7.632444
v -1.310720 138.312000 0.524288
v 0.207888 138.312000 -0.128251
v -0.465693 138.312000 -0.896242
v 9.252122 107.802000 -17.232342
v -3.202286 107.802000 -20.049810
v -1.462045 138.312000 -1.121640
v -0.465693 138.312000 -0.896242
v -1.310720 107.802000 0.524288
v -3.202286 107.802000 -20.049810
v 9.252122 107.802000 -17.232342
v -1.310720 138.312000 0.524288
v -0.465693 138.312000 -0.896242
v -1.462045 138.312000 -1.121640
v -3.202286 107.802000 -20.049810
v -14.934181 107.802000 -15.008672
v -2.400597 138.312000 -0.718349
v -1.462045 138.312000 -1.121640
v -1.310720 107.802000 0.524288
v -14.934181 107.802000 -15.008672
v -3.202286 107.802000 -20.049810
v -1.310720 138.312000 0.524288
v -1.462045 138.312000 -1.121640
v -2.400597 138.312000 -0.718349
v -15.708320 123.170000 -10.457802
v -19.571935 123.170000 -0.087582
v -3.113195 153.680000 0.611969
v -2.804106 153.680000 -0.217648
v -1.682000 123.170000 0.672800
v -19.571935 123.170000 -0.087582
v -15.708320 123.170000 -10.457802
v -1.682000 153.680000 0.672800
v -2.804106 153.680000 -0.217648
v -3.113195 153.680000 0.611969
v -19.571935 123.170000 -0.087582
v -16.602203 123.170000 10.573078
v -2.875616 153.680000 1.464822
v -3.113195 153.680000 0.611969
v -1.682000 123.170000 0.672800
v -16.602203 123.170000 10.573078
v -19.571935 123.170000 -0.087582
v -1.682000 153.680000 0.672800
v -3.113195 153.680000 0.611969
v -2.875616 153.680000 1.464822
v -16.602203 123.170000 10.573078
v -7.933461 123.170000 17.452168
v -2.182117 153.680000 2.015149
v -2.875616 153.680000 1.464822
v -1.682000 123.170000 0.672800
v -7.933461 123.170000 17.452168
v -16.602203 123.170000 10.573078
v -1.682000 153.680000 0.672800
v -2.875616 153.680000 1.464822
v -2.182117 153.680000 2.015149
v -7.933461 123.170000 17.452168
v 3.123127 123.170000 17.922110
v -1.297590 153.680000 2.052745
v -2.182117 153.680000 2.015149
v -1.682000 123.170000 0.672800
v 3.123127 123.170000 17.922110
v -7.933461 123.170000 17.452168
v -1.682000 153.680000 0.672800
v -2.182117 153.680000 2.015149
v -1.297590 153.680000 2.052745
v 3.123127 123.170000 17.922110
v 12.344320 123.170000 11.803402
v -0.559894 153.680000 1.563248
v -1.297590 153.680000 2.052745
v -1.682000 123.170000 0.672800
v 12.344320 123.170000 11.803402
v 3.123127 123.170000 17.922110
v -1.682000 153.680000 0.672800
v -1.297590 153.680000 2.052745
v -0.559894 153.680000 1.563248
v 12.344320 123.170000 11.803402
v 16.207935 123.170000 1.433182
v -0.250805 153.680000 0.733631
v -0.559894 153.680000 1.563248
v -1.682000 123.170000 0.672800
v 16.207935 123.170000 1.433182
v 12.344320 123.170000 11.803402
v -1.682000 153.680000 0.672800
v -0.559894 153.680000 1.563248
v -0.250805 153.680000 0.733631
v 16.207935 123.170000 1.433182
v 13.238203 123.170000 -9.227478
v -0.488384 153.680000 -0.119222
v -0.250805 153.680000 0.733631
v -1.682000 123.170000 0.672800
v 13.238203 123.170000 -9.227478
v 16.207935 123.170000 1.433182
v -1.682000 153.680000 0.672800
v -0.250805 153.680000 0.733631
v -0.488384 153.680000 -0.119222
v 13.238203 123.170000 -9.227478
v 4.569461 123.170000 -16.106568
v -1.181883 153.680000 -0.669549
v -0.488384 153.680000 -0.119222
v -1.682000 123.170000 0.672800
v 4.569461 123.170000 -16.106568
v 13.238203 123.170000 -9.227478
v -1.682000 153.680000 0.672800
v -0.488384 153.680000 -0.119222
v -1.181883 153.680000 -0.669549
v 4.569461 123.170000 -16.106568
v -6.487127 123.170000 -16.576510
v -2.066410 153.680000 -0.707145
v -1.181883 153.680000 -0.669549
v -1.682000 123.170000 0.672800
v -6.487127 123.170000 -16.576510
v 4.569461 123.170000 -16.106568
v -1.682000 153.680000 0.672800
v -1.181883 153.680000 -0.669549
v -2.066410 153.680000 -0.707145
v -6.487127 123.170000 -16.576510
v -15.708320 123.170000 -10.457802
v -2.804106 153.680000 -0.217648
v -2.066410 153.680000 -0.707145
v -1.682000 123.170000 0.672800
v -15.708320 123.170000 -10.457802
v -6.487127 123.170000 -16.576510
v -1.682000 153.680000 0.672800
v -2.066410 153.680000 -0.707145
v -2.804106 153.680000 -0.217648
v -15.462331 138.538000 -6.301431
v -17.107777 138.538000 2.916887
v -3.300181 169.048000 1.005974
v -3.168545 169.048000 0.268509
v -2.099520 138.538000 0.839808
v -17.107777 138.538000 2.916887
v -15.462331 138.538000 -6.301431
v -2.099520 169.048000 0.839808
v -3.168545 169.048000 0.268509
v -3.300181 169.048000 1.005974
v -17.107777 138.538000 2.916887
v -13.020578 138.538000 11.341832
v -2.973205 169.048000 1.679970
v -3.300181 169.048000 1.005974
v -2.099520 138.538000 0.839808
v -13.020578 138.538000 11.341832
v -17.107777 138.538000 2.916887
v -2.099520 169.048000 0.839808
v -3.300181 169.048000 1.005974
v -2.973205 169.048000 1.679970
v -13.020578 138.538000 11.341832
v -4.761907 138.538000 15.755361
v -2.312511 169.048000 2.033052
v -2.973205 169.048000 1.679970
v -2.099520 138.538000 0.839808
v -4.761907 138.538000 15.755361
v -13.020578 138.538000 11.341832
v -2.099520 169.048000 0.839808
v -2.973205 169.048000 1.679970
v -2.312511 169.048000 2.033052
v -4.761907 138.538000 15.755361
v 4.513706 138.538000 14.471655
v -1.570462 169.048000 1.930356
v -2.312511 169.048000 2.033052
v -2.099520 138.538000 0.839808
v 4.513706 138.538000 14.471655
v -4.761907 138.538000 15.755361
v -2.099520 169.048000 0.839808
v -2.312511 169.048000 2.033052
v -1.570462 169.048000 1.930356
v 4.513706 138.538000 14.471655
v 11.263291 138.538000 7.981047
v -1.030495 169.048000 1.411107
v -1.570462 169.048000 1.930356
v -2.099520 138.538000 0.839808
v 11.263291 138.538000 7.981047
v 4.513706 138.538000 14.471655
v -2.099520 169.048000 0.839808
v -1.570462 169.048000 1.930356
v -1.030495 169.048000 1.411107
v 11.263291 138.538000 7.981047
v 12.908737 138.538000 -1.237271
v -0.898859 169.048000 0.673642
v -1.030495 169.048000 1.411107
v -2.099520 138.538000 0.839808
v 12.908737 138.538000 -1.237271
v 11.263291 138.538000 7.981047
v -2.099520 169.048000 0.839808
v -1.030495 169.048000 1.411107
v -0.898859 169.048000 0.673642
v 12.908737 138.538000 -1.237271
v 8.821538 138.538000 -9.662216
v -1.225835 169.048000 -0.000354
v -0.898859 169.048000 0.673642
v -2.099520 138.538000 0.839808
v 8.821538 138.538000 -9.662216
v 12.908737 138.538000 -1.237271
v -2.099520 169.048000 0.839808
v -0.898859 169.048000 0.673642
v -1.225835 169.048000 -0.000354
v 8.821538 138.538000 -9.662216
v 0.562867 138.538000 -14.075745
v -1.886529 169.048000 -0.353436
v -1.225835 169.048000 -0.000354
v -2.099520 138.538000 0.839808
v 0.562867 138.538000 -14.075745
v 8.821538 138.538000 -9.662216
v -2.099520 169.048000 0.839808
v -1.225835 169.048000 -0.000354
v -1.886529 169.048000 -0.353436
v 0.562867 138.538000 -14.075745
v -8.712746 138.538000 -12.792039
v -2.628578 169.048000 -0.250740
v -1.886529 169.048000 -0.353436
v -2.099520 138.538000 0.839808
v -8.712746 138.538000 -12.792039
v 0.562867 138.538000 -14.075745
v -2.099520 169.048000 0.839808
v -1.886529 169.048000 -0.353436
v -2.628578 169.048000 -0.250740
v -8.712746 138.538000 -12.792039
v -15.462331 138.538000 -6.301431
v -3.168545 169.048000 0.268509
v -2.628578 169.048000 -0.250740
v -2.099520 138.538000 0.839808
v -15.462331 138.538000 -6.301431
v -8.712746 138.538000 -12.792039
v -2.099520 169.048000 0.839808
v -2.628578 169.048000 -0.250740
v -3.168545 169.048000 0.268509
v -14.365889 153.906000 -2.765754
v -14.340124 153.906000 4.895675
v -3.513292 184.416000 1.337526
v -3.515370 184.416000 0.719495
v -2.563280 153.906000 1.025312
v -14.340124 153.906000 4.895675
v -14.365889 153.906000 -2.765754
v -2.563280 184.416000 1.025312
v -3.515370 184.416000 0.719495
v -3.513292 184.416000 1.337526
v -14.340124 153.906000 4.895675
v -9.816005 153.906000 11.078756
v -3.148341 184.416000 1.836301
v -3.513292 184.416000 1.337526
v -2.563280 153.906000 1.025312
v -9.816005 153.906000 11.078756
v -14.340124 153.906000 4.895675
v -2.563280 184.416000 1.025312
v -3.513292 184.416000 1.337526
v -3.148341 184.416000 1.836301
v -9.816005 153.906000 11.078756
v -2.521591 153.906000 13.421764
v -2.559917 184.416000 2.025306
v -3.148341 184.416000 1.836301
v -2.563280 153.906000 1.025312
v -2.521591 153.906000 13.421764
v -9.816005 153.906000 11.078756
v -2.563280 184.416000 1.025312
v -3.148341 184.416000 1.836301
v -2.559917 184.416000 2.025306
v -2.521591 153.906000 13.421764
v 4.756898 153.906000 11.029748
v -1.972777 184.416000 1.832348
v -2.559917 184.416000 2.025306
v -2.563280 153.906000 1.025312
v 4.756898 153.906000 11.029748
v -2.521591 153.906000 13.421764
v -2.563280 184.416000 1.025312
v -2.559917 184.416000 2.025306
v -1.972777 184.416000 1.832348
v 4.756898 153.906000 11.029748
v 9.239329 153.906000 4.816378
v -1.611190 184.416000 1.331129
v -1.972777 184.416000 1.832348
v -2.563280 153.906000 1.025312
v 9.239329 153.906000 4.816378
v 4.756898 153.906000 11.029748
v -2.563280 184.416000 1.025312
v -1.972777 184.416000 1.832348
v -1.611190 184.416000 1.331129
v 9.239329 153.906000 4.816378
v 9.213564 153.906000 -2.845051
v -1.613268 184.416000 0.713098
v -1.611190 184.416000 1.331129
v -2.563280 153.906000 1.025312
v 9.213564 153.906000 -2.845051
v 9.239329 153.906000 4.816378
v -2.563280 184.416000 1.025312
v -1.611190 184.416000 1.331129
v -1.613268 184.416000 0.713098
v 9.213564 153.906000 -2.845051
v 4.689445 153.906000 -9.028132
v -1.978219 184.416000 0.214323
v -1.613268 184.416000 0.713098
v -2.563280 153.906000 1.025312
v 4.689445 153.906000 -9.028132
v 9.213564 153.906000 -2.845051
v -2.563280 184.416000 1.025312
v -1.613268 184.416000 0.713098
v -1.978219 184.416000 0.214323
v 4.689445 153.906000 -9.028132
v -2.604969 153.906000 -11.371140
v -2.566643 184.416000 0.025318
v -1.978219 184.416000 0.214323
v -2.563280 153.906000 1.025312
v -2.604969 153.906000 -11.371140
v 4.689445 153.906000 -9.028132
v -2.563280 184.416000 1.025312
v -1.978219 184.416000 0.214323
v -2.566643 184.416000 0.025318
v -2.604969 153.906000 -11.371140
v -9.883458 153.906000 -8.979124
v -3.153783 184.416000 0.218276
v -2.566643 184.416000 0.025318
v -2.563280 153.906000 1.025312
v -9.883458 153.906000 -8.979124
v -2.604969 153.906000 -11.371140
v -2.563280 184.416000 1.025312
v -2.566643 184.416000 0.025318
v -3.153783 184.416000 0.218276
v -9.883458 153.906000 -8.979124
v -14.365889 153.906000 -2.765754
v -3.515370 184.416000 0.719495
v -3.153783 184.416000 0.218276
v -2.563280 153.906000 1.025312
v -14.365889 153.906000 -2.765754
v -9.883458 153.906000 -8.979124
v -2.563280 184.416000 1.025312
v -3.153783 184.416000 0.218276
v -3.515370 184.416000 0.719495
v -12.632663 169.274000 -0.028199
v -11.546130 169.274000 5.830828
v -3.952048 199.784000 1.706562
v -4.064738 199.784000 1.098888
v -3.073280 169.274000 1.229312
v -11.546130 169.274000 5.830828
v -12.632663 169.274000 -0.028199
v -3.073280 199.784000 1.229312
v -4.064738 199.784000 1.098888
v -3.952048 199.784000 1.706562
v -11.546130 169.274000 5.830828
v -7.223256 169.274000 9.932233
v -3.503698 199.784000 2.131942
v -3.952048 199.784000 1.706562
v -3.073280 169.274000 1.229312
v -7.223256 169.274000 9.932233
v -11.546130 169.274000 5.830828
v -3.073280 199.784000 1.229312
v -3.952048 199.784000 1.706562
v -3.503698 199.784000 2.131942
v -7.223256 169.274000 9.932233
v -1.315233 169.274000 10.709418
v -2.890943 199.784000 2.212548
v -3.503698 199.784000 2.131942
v -3.073280 169.274000 1.229312
v -1.315233 169.274000 10.709418
v -7.223256 169.274000 9.932233
v -3.073280 199.784000 1.229312
v -3.503698 199.784000 2.131942
v -2.890943 199.784000 2.212548
v -1.315233 169.274000 10.709418
v 3.921276 169.274000 7.865524
v -2.347834 199.784000 1.917592
v -2.890943 199.784000 2.212548
v -3.073280 169.274000 1.229312
v 3.921276 169.274000 7.865524
v -1.315233 169.274000 10.709418
v -3.073280 199.784000 1.229312
v -2.890943 199.784000 2.212548
v -2.347834 199.784000 1.917592
v 3.921276 169.274000 7.865524
v 6.486103 169.274000 2.486823
v -2.081822 199.784000 1.359736
v -2.347834 199.784000 1.917592
v -3.073280 169.274000 1.229312
v 6.486103 169.274000 2.486823
v 3.921276 169.274000 7.865524
v -3.073280 199.784000 1.229312
v -2.347834 199.784000 1.917592
v -2.081822 199.784000 1.359736
v 6.486103 169.274000 2.486823
v 5.399570 169.274000 -3.372204
v -2.194512 199.784000 0.752062
v -2.081822 199.784000 1.359736
v -3.073280 169.274000 1.229312
v 5.399570 169.274000 -3.372204
v 6.486103 169.274000 2.486823
v -3.073280 199.784000 1.229312
v -2.081822 199.784000 1.359736
v -2.194512 199.784000 0.752062
v 5.399570 169.274000 -3.372204
v 1.076696 169.274000 -7.473609
v -2.642862 199.784000 0.326682
v -2.194512 199.784000 0.752062
v -3.073280 169.274000 1.229312
v 1.076696 169.274000 -7.473609
v 5.399570 169.274000 -3.372204
v -3.073280 199.784000 1.229312
v -2.194512 199.784000 0.752062
v -2.642862 199.784000 0.326682
v 1.076696 169.274000 -7.473609
v -4.831327 169.274000 -8.250794
v -3.255617 199.784000 0.246076
v -2.642862 199.784000 0.326682
v -3.073280 169.274000 1.229312
v -4.831327 169.274000 -8.250794
v 1.076696 169.274000 -7.473609
v -3.073280 199.784000 1.229312
v -2.642862 199.784000 0.326682
v -3.255617 199.784000 0.246076
v -4.831327 169.274000 -8.250794
v -10.067836 169.274000 -5.406900
v -3.798726 199.784000 0.541032
v -3.255617 199.784000 0.246076
v -3.073280 169.274000 1.229312
v -10.067836 169.274000 -5.406900
v -4.831327 169.274000 -8.250794
v -3.073280 199.784000 1.229312
v -3.255617 199.784000 0.246076
v -3.798726 199.784000 0.541032
v -10.067836 169.274000 -5.406900
v -12.632663 169.274000 -0.028199
v -4.064738 199.784000 1.098888
v -3.798726 199.784000 0.541032
v -3.073280 169.274000 1.229312
v -12.632663 169.274000 -0.028199
v -10.067836 169.274000 -5.406900
v -3.073280 199.784000 1.229312
v -3.798726 199.784000 0.541032
v -4.064738 199.784000 1.098888
v -10.508142 184.642000 1.790535
v -8.995343 184.642000 5.768996
v -4.408648 215.152000 2.078672
v -4.628310 215.152000 1.500992
v -3.629520 184.642000 1.451808
v -8.995343 184.642000 5.768996
v -10.508142 184.642000 1.790535
v -3.629520 215.152000 1.451808
v -4.628310 215.152000 1.500992
v -4.408648 215.152000 2.078672
v -8.995343 184.642000 5.768996
v -5.432983 184.642000 8.098438
v -3.891386 215.152000 2.416912
v -4.408648 215.152000 2.078672
v -3.629520 184.642000 1.451808
v -5.432983 184.642000 8.098438
v -8.995343 184.642000 5.768996
v -3.629520 215.152000 1.451808
v -4.408648 215.152000 2.078672
v -3.891386 215.152000 2.416912
v -5.432983 184.642000 8.098438
v -1.181761 184.642000 7.889093
v -3.274100 215.152000 2.386515
v -3.891386 215.152000 2.416912
v -3.629520 184.642000 1.451808
v -1.181761 184.642000 7.889093
v -5.432983 184.642000 8.098438
v -3.629520 215.152000 1.451808
v -3.891386 215.152000 2.416912
v -3.274100 215.152000 2.386515
v -1.181761 184.642000 7.889093
v 2.134500 184.642000 5.220925
v -2.792573 215.152000 1.999091
v -3.274100 215.152000 2.386515
v -3.629520 184.642000 1.451808
v 2.134500 184.642000 5.220925
v -1.181761 184.642000 7.889093
v -3.629520 215.152000 1.451808
v -3.274100 215.152000 2.386515
v -2.792573 215.152000 1.999091
v 2.134500 184.642000 5.220925
v 3.249102 184.642000 1.113081
v -2.630730 215.152000 1.402624
v -2.792573 215.152000 1.999091
v -3.629520 184.642000 1.451808
v 3.249102 184.642000 1.113081
v 2.134500 184.642000 5.220925
v -3.629520 215.152000 1.451808
v -2.792573 215.152000 1.999091
v -2.630730 215.152000 1.402624
v 3.249102 184.642000 1.113081
v 1.736303 184.642000 -2.865380
v -2.850392 215.152000 0.824944
v -2.630730 215.152000 1.402624
v -3.629520 184.642000 1.451808
v 1.736303 184.642000 -2.865380
v 3.249102 184.642000 1.113081
v -3.629520 215.152000 1.451808
v -2.630730 215.152000 1.402624
v -2.850392 215.152000 0.824944
v 1.736303 184.642000 -2.865380
v -1.826057 184.642000 -5.194822
v -3.367654 215.152000 0.486704
v -2.850392 215.152000 0.824944
v -3.629520 184.642000 1.451808
v -1.826057 184.642000 -5.194822
v 1.736303 184.642000 -2.865380
v -3.629520 215.152000 1.451808
v -2.850392 215.152000 0.824944
v -3.367654 215.152000 0.486704
v -1.826057 184.642000 -5.194822
v -6.077279 184.642000 -4.985477
v -3.984940 215.152000 0.517101
v -3.367654 215.152000 0.486704
v -3.629520 184.642000 1.451808
v -6.077279 184.642000 -4.985477
v -1.826057 184.642000 -5.194822
v -3.629520 215.152000 1.451808
v -3.367654 215.152000 0.486704
v -3.984940 215.152000 0.517101
v -6.077279 184.642000 -4.985477
v -9.393540 184.642000 -2.317309
v -4.466467 215.152000 0.904525
v -3.984940 215.152000 0.517101
v -3.629520 184.642000 1.451808
v -9.393540 184.642000 -2.317309
v -6.077279 184.642000 -4.985477
v -3.629520 215.152000 1.451808
v -3.984940 215.152000 0.517101
v -4.466467 215.152000 0.904525
v -9.393540 184.642000 -2.317309
v -10.508142 184.642000 1.790535
v -4.628310 215.152000 1.500992
v -4.466467 215.152000 0.904525
v -3.629520 184.642000 1.451808
v -10.508142 184.642000 1.790535
v -9.393540 184.642000 -2.317309
v -3.629520 215.152000 1.451808
v -4.466467 215.152000 0.904525
v -4.628310 215.152000 1.500992
vt 0.000000 0.000000
vt 1.000000 0.000000
vt 1.000000 1.000000
vt 0.000000 1.000000
vt 0.500000 1.000000
vt 0.000000 0.000000
vt 1.000000 0.000000
vt 0.000000 0.000000
vt 1.000000 0.000000
vt 1.000000 1.000000
vt 0.000000 1.000000
vt 0.500000 1.000000
vt 0.000000 0.000000
vt 1.000000 0.000000
vt 0.000000 0.000000
vt 1.000000 0.000000
vt 1.000000 1.000000
vt 0.000000 1.000000
vt 0.500000 1.000000
vt 0.000000 0.000000
vt 1.000000 0.000000
vt 0.000000 0.000000
vt 1.000000 0.000000
vt 1.000000 1.000000
vt 0.000000 1.000000
vt 0.500000 1.000000
vt 0.000000 0.000000
vt 1.000000 0.000000
vt 0.000000 0.000000
vt 1.000000 0.000000
vt 1.000000 1.000000
vt 0.000000 1.000000
vt 0.500000 1.000000
vt 0.000000 0.000000
vt 1.000000 0.000000
vt 0.000000 0.000000
vt 1.000000 0.000000
vt 1.000000 1.000000
vt 0.000000 1.000000
vt 0.500000 1.000000
vt 0.000000 0.000000
vt 1.000000 0.000000
vt 0.000000 0.000000
vt 1.000000 0.000000
vt 1.000000 1.000000
vt 0.000000 1.000000
vt 0.500000 1.000000
vt 0.000000 0.000000
vt 1.000000 0.000000
vt 0.000000 0.000000
vt 1.000000 0.000000
vt 1.000000 1.000000
vt 0.000000 1.000000
vt 0.500000 1.000000
vt 0.000000 0.000000
vt 1.000000 0.000000
vt 0.000000 0.000000
vt 1.000000 0.000000
vt 1.000000 1.000000
vt 0.000000 1.000000
vt 0.500000 1.000000
vt 0.000000 0.000000
vt 1.000000 0.000000
vt 0.000000 0.000000
vt 1.000000 0.000000
vt 1.000000 1.000000
vt 0.000000 1.000000
vt 0.500000 1.000000
vt 0.000000 0.000000
vt 1.000000 0.000000
vt 0.000000 0.000000
vt 1.000000 0.000000
vt 1.000000 1.000000
vt 0.000000 1.000000
vt 0.500000 1.000000
vt 0.000000 0.000000
vt 1.000000 0.000000
vt 0.000000 0.000000
vt 1.000000 0.000000
vt 1.000000 1.000000
vt 0.000000 1.000000
vt 0.500000 1.000000
vt 0.000000 0.000000
vt 1.000000 0.000000
vt 0.000000 0.000000
vt 1.000000 0.000000
vt 1.000000 1.000000
vt 0.000000 1.000000
vt 0.500000 1.000000
vt 0.000000 0.000000
vt 1.000000 0.000000
vt 0.000000 0.000000
vt 1.000000 0.000000
vt 1.000000 1.000000
vt 0.000000 1.000000
vt 0.500000 1.000000
vt 0.000000 0.000000
vt 1.000000 0.000000
vt 0.000000 0.000000
vt 1.000000 0.000000
vt 1.000000 1.000000
vt 0.000000 1.000000
vt 0.500000 1.000000
vt 0.000000 0.000000
vt 1.000000 0.000000
vt 0.000000 0.000000
vt 1.000000 0.000000
vt 1.000000 1.000000
vt 0.000000 1.000000
vt 0.500000 1.000000
vt 0.000000 0.000000
vt 1.000000 0.000000
vt 0.000000 0.000000
vt 1.000000 0.000000
vt 1.000000 1.000000
vt 0.000000 1.000000
vt 0.500000 1.000000
vt 0.000000 0.000000
vt 1.000000 0.000000
vt 0.000000 0.000000
vt 1.000000 0.000000
vt 1.000000 1.000000
vt 0.000000 1.000000
vt 0.500000 1.000000
vt 0.000000 0.000000
vt 1.000000 0.000000
vt 0.000000 0.000000
vt 1.000000 0.000000
vt 1.000000 1.000000
vt 0.000000 1.000000
vt 0.500000 1.000000
vt 0.000000 0.000000
vt 1.000000 0.000000
vt 0.500000 1.000000
vt 0.000000 0.000000
vt 1.000000 0.000000
vt 0.000000 0.000000
vt 1.000000 0.000000
vt 1.000000 1.000000
vt 0.000000 1.000000
vt 0.500000 1.000000
vt 0.000000 0.000000
vt 1.000000 0.000000
vt 0.500000 1.000000
vt 0.000000 0.000000
vt 1.000000 0.000000
vt 0.000000 0.000000
vt 1.000000 0.000000
vt 1.000000 1.000000
vt 0.000000 1.000000
vt 0.500000 1.000000
vt 0.000000 0.000000
vt 1.000000 0.000000
vt 0.500000 1.000000
vt 0.000000 0.000000
vt 1.000000 0.000000
vt 0.000000 0.000000
vt 1.000000 0.000000
vt 1.000000 1.000000
vt 0.000000 1.000000
vt 0.500000 1.000000
vt 0.000000 0.000000
vt 1.000000 0.000000
vt 0.500000 1.000000
vt 0.000000 0.000000
vt 1.000000 0.000000
vt 0.000000 0.000000
vt 1.000000 0.000000
vt 1.000000 1.000000
vt 0.000000 1.000000
vt 0.500000 1.000000
vt 0.000000 0.000000
vt 1.000000 0.000000
vt 0.500000 1.000000
vt 0.000000 0.000000
vt 1.000000 0.000000
vt 0.000000 0.000000
vt 1.000000 0.000000
vt 1.000000 1.000000
vt 0.000000 1.000000
vt 0.500000 1.000000
vt 0.000000 0.000000
vt 1.000000 0.000000
vt 0.500000 1.000000
vt 0.000000 0.000000
vt 1.000000 0.000000
vt 0.000000 0.000000
vt 1.000000 0.000000
vt 1.000000 1.000000
vt 0.000000 1.000000
vt 0.500000 1.000000
vt 0.000000 0.000000
vt 1.000000 0.000000
vt 0.500000 1.000000
vt 0.000000 0.000000
vt 1.000000 0.000000
vt 0.000000 0.000000
vt 1.000000 0.000000
vt 1.000000 1.000000
vt 0.000000 1.000000
vt 0.500000 1.000000
vt 0.000000 0.000000
vt 1.000000 0.000000
vt 0.500000 1.000000
vt 0.000000 0.000000
vt 1.000000 0.000000
vt 0.000000 0.000000
vt 1.000000 0.000000
vt 1.000000 1.000000
vt 0.000000 1.000000
vt 0.500000 1.000000
vt 0.000000 0.000000
vt 1.000000 0.000000
vt 0.500000 1.000000
vt 0.000000 0.000000
vt 1.000000 0.000000
vt 0.000000 0.000000
vt 1.000000 0.000000
vt 1.000000 1.000000
vt 0.000000 1.000000
vt 0.500000 1.000000
vt 0.000000 0.000000
vt 1.000000 0.000000
vt 0.500000 1.000000
vt 0.000000 0.000000
vt 1.000000 0.000000
vt 0.000000 0.000000
vt 1.000000 0.000000
vt 1.000000 1.000000
vt 0.000000 1.000000
vt 0.500000 1.000000
vt 0.000000 0.000000
vt 1.000000 0.000000
vt 0.500000 1.000000
vt 0.000000 0.000000
vt 1.000000 0.000000
vt 0.000000 0.000000
vt 1.000000 0.000000
vt 1.000000 1.000000
vt 0.000000 1.000000
vt 0.500000 1.000000
vt 0.000000 0.000000
vt 1.000000 0.000000
vt 0.500000 1.000000
vt 0.000000 0.000000
vt 1.000000 0.000000
vt 0.000000 0.000000
vt 1.000000 0.000000
vt 1.000000 1.000000
vt 0.000000 1.000000
vt 0.500000 1.000000
vt 0.000000 0.000000
vt 1.000000 0.000000
vt 0.500000 1.000000
vt 0.000000 0.000000
vt 1.000000 0.000000
vt 0.000000 0.000000
vt 1.000000 0.000000
vt 1.000000 1.000000
vt 0.000000 1.000000
vt 0.500000 1.000000
vt 0.000000 0.000000
vt 1.000000 0.000000
vt 0.500000 1.000000
vt 0.000000 0.000000
vt 1.000000 0.000000
vt 0.000000 0.000000
vt 1.000000 0.000000
vt 1.000000 1.000000
vt 0.000000 1.000000
vt 0.500000 1.000000
vt 0.000000 0.000000
vt 1.000000 0.000000
vt 0.500000 1.000000
vt 0.000000 0.000000
vt 1.000000 0.000000
vt 0.000000 0.000000
vt 1.000000 0.000000
vt 1.000000 1.000000
vt 0.000000 1.000000
vt 0.500000 1.000000
vt 0.000000 0.000000
vt 1.000000 0.000000
vt 0.500000 1.000000
vt 0.000000 0.000000
vt 1.000000 0.000000
vt 0.000000 0.000000
vt 1.000000 0.000000
vt 1.000000 1.000000
vt 0.000000 1.000000
vt 0.500000 1.000000
vt 0.000000 0.000000
vt 1.000000 0.000000
vt 0.500000 1.000000
vt 0.000000 0.000000
vt 1.000000 0.000000
vt 0.000000 0.000000
vt 1.000000 0.000000
vt 1.000000 1.000000
vt 0.000000 1.000000
vt 0.500000 1.000000
vt 0.000000 0.000000
vt 1.000000 0.000000
vt 0.500000 1.000000
vt 0.000000 0.000000
vt 1.000000 0.000000
vt 0.000000 0.000000
vt 1.000000 0.000000
vt 1.000000 1.000000
vt 0.000000 1.000000
vt 0.500000 1.000000
vt 0.000000 0.000000
vt 1.000000 0.000000
vt 0.500000 1.000000
vt 0.000000 0.000000
vt 1.000000 0.000000
vt 0.000000 0.000000
vt 1.000000 0.000000
vt 1.000000 1.000000
vt 0.000000 1.000000
vt 0.500000 1.000000
vt 0.000000 0.000000
vt 1.000000 0.000000
vt 0.500000 1.000000
vt 0.000000 0.000000
vt 1.000000 0.000000
vt 0.000000 0.000000
vt 1.000000 0.000000
vt 1.000000 1.000000
vt 0.000000 1.000000
vt 0.500000 1.000000
vt 0.000000 0.000000
vt 1.000000 0.000000
vt 0.500000 1.000000
vt 0.000000 0.000000
vt 1.000000 0.000000
vt 0.000000 0.000000
vt 1.000000 0.000000
vt 1.000000 1.000000
vt 0.000000 1.000000
vt 0.500000 1.000000
vt 0.000000 0.000000
vt 1.000000 0.000000
vt 0.500000 1.000000
vt 0.000000 0.000000
vt 1.000000 0.000000
vt 0.000000 0.000000
vt 1.000000 0.000000
vt 1.000000 1.000000
vt 0.000000 1.000000
vt 0.500000 1.000000
vt 0.000000 0.000000
vt 1.000000 0.000000
vt 0.500000 1.000000
vt 0.000000 0.000000
vt 1.000000 0.000000
vt 0.000000 0.000000
vt 1.000000 0.000000
vt 1.000000 1.000000
vt 0.000000 1.000000
vt 0.500000 1.000000
vt 0.000000 0.000000
vt 1.000000 0.000000
vt 0.500000 1.000000
vt 0.000000 0.000000
vt 1.000000 0.000000
vt 0.000000 0.000000
vt 1.000000 0.000000
vt 1.000000 1.000000
vt 0.000000 1.000000
vt 0.500000 1.000000
vt 0.000000 0.000000
vt 1.000000 0.000000
vt 0.500000 1.000000
vt 0.000000 0.000000
vt 1.000000 0.000000
vt 0.000000 0.000000
vt 1.000000 0.000000
vt 1.000000 1.000000
vt 0.000000 1.000000
vt 0.500000 1.000000
vt 0.000000 0.000000
vt 1.000000 0.000000
vt 0.500000 1.000000
vt 0.000000 0.000000
vt 1.000000 0.000000
vt 0.000000 0.000000
vt 1.000000 0.000000
vt 1.000000 1.000000
vt 0.000000 1.000000
vt 0.500000 1.000000
vt 0.000000 0.000000
vt 1.000000 0.000000
vt 0.500000 1.000000
vt 0.000000 0.000000
vt 1.000000 0.000000
vt 0.000000 0.000000
vt 1.000000 0.000000
vt 1.000000 1.000000
vt 0.000000 1.000000
vt 0.500000 1.000000
vt 0.000000 0.000000
vt 1.000000 0.000000
vt 0.500000 1.000000
vt 0.000000 0.000000
vt 1.000000 0.000000
vt 0.000000 0.000000
vt 1.000000 0.000000
vt 1.000000 1.000000
vt 0.000000 1.000000
vt 0.500000 1.000000
vt 0.000000 0.000000
vt 1.000000 0.000000
vt 0.500000 1.000000
vt 0.000000 0.000000
vt 1.000000 0.000000
vt 0.000000 0.000000
vt 1.000000 0.000000
vt 1.000000 1.000000
vt 0.000000 1.000000
vt 0.500000 1.000000
vt 0.000000 0.000000
vt 1.000000 0.000000
vt 0.500000 1.000000
vt 0.000000 0.000000
vt 1.000000 0.000000
vt 0.000000 0.000000
vt 1.000000 0.000000
vt 1.000000 1.000000
vt 0.000000 1.000000
vt 0.500000 1.000000
vt 0.000000 0.000000
vt 1.000000 0.000000
vt 0.500000 1.000000
vt 0.000000 0.000000
vt 1.000000 0.000000
vt 0.000000 0.000000
vt 1.000000 0.000000
vt 1.000000 1.000000
vt 0.000000 1.000000
vt 0.500000 1.000000
vt 0.000000 0.000000
vt 1.000000 0.000000
vt 0.500000 1.000000
vt 0.000000 0.000000
vt 1.000000 0.000000
vt 0.000000 0.000000
vt 1.000000 0.000000
vt 1.000000 1.000000
vt 0.000000 1.000000
vt 0.500000 1.000000
vt 0.000000 0.000000
vt 1.000000 0.000000
vt 0.500000 1.000000
vt 0.000000 0.000000
vt 1.000000 0.000000
vt 0.000000 0.000000
vt 1.000000 0.000000
vt 1.000000 1.000000
vt 0.000000 1.000000
vt 0.500000 1.000000
vt 0.000000 0.000000
vt 1.000000 0.000000
vt 0.500000 1.000000
vt 0.000000 0.000000
vt 1.000000 0.000000
vt 0.000000 0.000000
vt 1.000000 0.000000
vt 1.000000 1.000000
vt 0.000000 1.000000
vt 0.500000 1.000000
vt 0.000000 0.000000
vt 1.000000 0.000000
vt 0.500000 1.000000
vt 0.000000 0.000000
vt 1.000000 0.000000
vt 0.000000 0.000000
vt 1.000000 0.000000
vt 1.000000 1.000000
vt 0.000000 1.000000
vt 0.500000 1.000000
vt 0.000000 0.000000
vt 1.000000 0.000000
vt 0.500000 1.000000
vt 0.000000 0.000000
vt 1.000000 0.000000
vt 0.000000 0.000000
vt 1.000000 0.000000
vt 1.000000 1.000000
vt 0.000000 1.000000
vt 0.500000 1.000000
vt 0.000000 0.000000
vt 1.000000 0.000000
vt 0.500000 1.000000
vt 0.000000 0.000000
vt 1.000000 0.000000
vt 0.000000 0.000000
vt 1.000000 0.000000
vt 1.000000 1.000000
vt 0.000000 1.000000
vt 0.500000 1.000000
vt 0.000000 0.000000
vt 1.000000 0.000000
vt 0.500000 1.000000
vt 0.000000 0.000000
vt 1.000000 0.000000
vt 0.000000 0.000000
vt 1.000000 0.000000
vt 1.000000 1.000000
vt 0.000000 1.000000
vt 0.500000 1.000000
vt 0.000000 0.000000
vt 1.000000 0.000000
vt 0.500000 1.000000
vt 0.000000 0.000000
vt 1.000000 0.000000
vt 0.000000 0.000000
vt 1.000000 0.000000
vt 1.000000 1.000000
vt 0.000000 1.000000
vt 0.500000 1.000000
vt 0.000000 0.000000
vt 1.000000 0.000000
vt 0.500000 1.000000
vt 0.000000 0.000000
vt 1.000000 0.000000
vt 0.000000 0.000000
vt 1.000000 0.000000
vt 1.000000 1.000000
vt 0.000000 1.000000
vt 0.500000 1.000000
vt 0.000000 0.000000
vt 1.000000 0.000000
vt 0.500000 1.000000
vt 0.000000 0.000000
vt 1.000000 0.000000
vt 0.000000 0.000000
vt 1.000000 0.000000
vt 1.000000 1.000000
vt 0.000000 1.000000
vt 0.500000 1.000000
vt 0.000000 0.000000
vt 1.000000 0.000000
vt 0.500000 1.000000
vt 0.000000 0.000000
vt 1.000000 0.000000
vt 0.000000 0.000000
vt 1.000000 0.000000
vt 1.000000 1.000000
vt 0.000000 1.000000
vt 0.500000 1.000000
vt 0.000000 0.000000
vt 1.000000 0.000000
vt 0.500000 1.000000
vt 0.000000 0.000000
vt 1.000000 0.000000
vt 0.000000 0.000000
vt 1.000000 0.000000
vt 1.000000 1.000000
vt 0.000000 1.000000
vt 0.500000 1.000000
vt 0.000000 0.000000
vt 1.000000 0.000000
vt 0.500000 1.000000
vt 0.000000 0.000000
vt 1.000000 0.000000
vt 0.000000 0.000000
vt 1.000000 0.000000
vt 1.000000 1.000000
vt 0.000000 1.000000
vt 0.500000 1.000000
vt 0.000000 0.000000
vt 1.000000 0.000000
vt 0.500000 1.000000
vt 0.000000 0.000000
vt 1.000000 0.000000
vt 0.000000 0.000000
vt 1.000000 0.000000
vt 1.000000 1.000000
vt 0.000000 1.000000
vt 0.500000 1.000000
vt 0.000000 0.000000
vt 1.000000 0.000000
vt 0.500000 1.000000
vt 0.000000 0.000000
vt 1.000000 0.000000
vt 0.000000 0.000000
vt 1.000000 0.000000
vt 1.000000 1.000000
vt 0.000000 1.000000
vt 0.500000 1.000000
vt 0.000000 0.000000
vt 1.000000 0.000000
vt 0.500000 1.000000
vt 0.000000 0.000000
vt 1.000000 0.000000
vt 0.000000 0.000000
vt 1.000000 0.000000
vt 1.000000 1.000000
vt 0.000000 1.000000
vt 0.500000 1.000000
vt 0.000000 0.000000
vt 1.000000 0.000000
vt 0.500000 1.000000
vt 0.000000 0.000000
vt 1.000000 0.000000
vt 0.000000 0.000000
vt 1.000000 0.000000
vt 1.000000 1.000000
vt 0.000000 1.000000
vt 0.500000 1.000000
vt 0.000000 0.000000
vt 1.000000 0.000000
vt 0.500000 1.000000
vt 0.000000 0.000000
vt 1.000000 0.000000
vt 0.000000 0.000000
vt 1.000000 0.000000
vt 1.000000 1.000000
vt 0.000000 1.000000
vt 0.500000 1.000000
vt 0.000000 0.000000
vt 1.000000 0.000000
vt 0.500000 1.000000
vt 0.000000 0.000000
vt 1.000000 0.000000
vt 0.000000 0.000000
vt 1.000000 0.000000
vt 1.000000 1.000000
vt 0.000000 1.000000
vt 0.500000 1.000000
vt 0.000000 0.000000
vt 1.000000 0.000000
vt 0.500000 1.000000
vt 0.000000 0.000000
vt 1.000000 0.000000
vt 0.000000 0.000000
vt 1.000000 0.000000
vt 1.000000 1.000000
vt 0.000000 1.000000
vt 0.500000 1.000000
vt 0.000000 0.000000
vt 1.000000 0.000000
vt 0.500000 1.000000
vt 0.000000 0.000000
vt 1.000000 0.000000
vt 0.000000 0.000000
vt 1.000000 0.000000
vt 1.000000 1.000000
vt 0.000000 1.000000
vt 0.500000 1.000000
vt 0.000000 0.000000
vt 1.000000 0.000000
vt 0.500000 1.000000
vt 0.000000 0.000000
vt 1.000000 0.000000
vt 0.000000 0.000000
vt 1.000000 0.000000
vt 1.000000 1.000000
vt 0.000000 1.000000
vt 0.500000 1.000000
vt 0.000000 0.000000
vt 1.000000 0.000000
vt 0.500000 1.000000
vt 0.000000 0.000000
vt 1.000000 0.000000
vt 0.000000 0.000000
vt 1.000000 0.000000
vt 1.000000 1.000000
vt 0.000000 1.000000
vt 0.500000 1.000000
vt 0.000000 0.000000
vt 1.000000 0.000000
vt 0.500000 1.000000
vt 0.000000 0.000000
vt 1.000000 0.000000
vt 0.000000 0.000000
vt 1.000000 0.000000
vt 1.000000 1.000000
vt 0.000000 1.000000
vt 0.500000 1.000000
vt 0.000000 0.000000
vt 1.000000 0.000000
vt 0.500000 1.000000
vt 0.000000 0.000000
vt 1.000000 0.000000
vt 0.000000 0.000000
vt 1.000000 0.000000
vt 1.000000 1.000000
vt 0.000000 1.000000
vt 0.500000 1.000000
vt 0.000000 0.000000
vt 1.000000 0.000000
vt 0.500000 1.000000
vt 0.000000 0.000000
vt 1.000000 0.000000
vt 0.000000 0.000000
vt 1.000000 0.000000
vt 1.000000 1.000000
vt 0.000000 1.000000
vt 0.500000 1.000000
vt 0.000000 0.000000
vt 1.000000 0.000000
vt 0.500000 1.000000
vt 0.000000 0.000000
vt 1.000000 0.000000
vt 0.000000 0.000000
vt 1.000000 0.000000
vt 1.000000 1.000000
vt 0.000000 1.000000
vt 0.500000 1.000000
vt 0.000000 0.000000
vt 1.000000 0.000000
vt 0.500000 1.000000
vt 0.000000 0.000000
vt 1.000000 0.000000
vt 0.000000 0.000000
vt 1.000000 0.000000
vt 1.000000 1.000000
vt 0.000000 1.000000
vt 0.500000 1.000000
vt 0.000000 0.000000
vt 1.000000 0.000000
vt 0.500000 1.000000
vt 0.000000 0.000000
vt 1.000000 0.000000
vt 0.000000 0.000000
vt 1.000000 0.000000
vt 1.000000 1.000000
vt 0.000000 1.000000
vt 0.500000 1.000000
vt 0.000000 0.000000
vt 1.000000 0.000000
vt 0.500000 1.000000
vt 0.000000 0.000000
vt 1.000000 0.000000
vt 0.000000 0.000000
vt 1.000000 0.000000
vt 1.000000 1.000000
vt 0.000000 1.000000
vt 0.500000 1.000000
vt 0.000000 0.000000
vt 1.000000 0.000000
vt 0.500000 1.000000
vt 0.000000 0.000000
vt 1.000000 0.000000
vt 0.000000 0.000000
vt 1.000000 0.000000
vt 1.000000 1.000000
vt 0.000000 1.000000
vt 0.500000 1.000000
vt 0.000000 0.000000
vt 1.000000 0.000000
vt 0.500000 1.000000
vt 0.000000 0.000000
vt 1.000000 0.000000
vt 0.000000 0.000000
vt 1.000000 0.000000
vt 1.000000 1.000000
vt 0.000000 1.000000
vt 0.500000 1.000000
vt 0.000000 0.000000
vt 1.000000 0.000000
vt 0.500000 1.000000
vt 0.000000 0.000000
vt 1.000000 0.000000
vt 0.000000 0.000000
vt 1.000000 0.000000
vt 1.000000 1.000000
vt 0.000000 1.000000
vt 0.500000 1.000000
vt 0.000000 0.000000
vt 1.000000 0.000000
vt 0.500000 1.000000
vt 0.000000 0.000000
vt 1.000000 0.000000
vt 0.000000 0.000000
vt 1.000000 0.000000
vt 1.000000 1.000000
vt 0.000000 1.000000
vt 0.500000 1.000000
vt 0.000000 0.000000
vt 1.000000 0.000000
vt 0.500000 1.000000
vt 0.000000 0.000000
vt 1.000000 0.000000
vt 0.000000 0.000000
vt 1.000000 0.000000
vt 1.000000 1.000000
vt 0.000000 1.000000
vt 0.500000 1.000000
vt 0.000000 0.000000
vt 1.000000 0.000000
vt 0.500000 1.000000
vt 0.000000 0.000000
vt 1.000000 0.000000
vt 0.000000 0.000000
vt 1.000000 0.000000
vt 1.000000 1.000000
vt 0.000000 1.000000
vt 0.500000 1.000000
vt 0.000000 0.000000
vt 1.000000 0.000000
vt 0.500000 1.000000
vt 0.000000 0.000000
vt 1.000000 0.000000
vt 0.000000 0.000000
vt 1.000000 0.000000
vt 1.000000 1.000000
vt 0.000000 1.000000
vt 0.500000 1.000000
vt 0.000000 0.000000
vt 1.000000 0.000000
vt 0.500000 1.000000
vt 0.000000 0.000000
vt 1.000000 0.000000
vt 0.000000 0.000000
vt 1.000000 0.000000
vt 1.000000 1.000000
vt 0.000000 1.000000
vt 0.500000 1.000000
vt 0.000000 0.000000
vt 1.000000 0.000000
vt 0.500000 1.000000
vt 0.000000 0.000000
vt 1.000000 0.000000
vt 0.000000 0.000000
vt 1.000000 0.000000
vt 1.000000 1.000000
vt 0.000000 1.000000
vt 0.500000 1.000000
vt 0.000000 0.000000
vt 1.000000 0.000000
vt 0.500000 1.000000
vt 0.000000 0.000000
vt 1.000000 0.000000
vt 0.000000 0.000000
vt 1.000000 0.000000
vt 1.000000 1.000000
vt 0.000000 1.000000
vt 0.500000 1.000000
vt 0.000000 0.000000
vt 1.000000 0.000000
vt 0.500000 1.000000
vt 0.000000 0.000000
vt 1.000000 0.000000
vt 0.000000 0.000000
vt 1.000000 0.000000
vt 1.000000 1.000000
vt 0.000000 1.000000
vt 0.500000 1.000000
vt 0.000000 0.000000
vt 1.000000 0.000000
vt 0.500000 1.000000
vt 0.000000 0.000000
vt 1.000000 0.000000
vt 0.000000 0.000000
vt 1.000000 0.000000
vt 1.000000 1.000000
vt 0.000000 1.000000
vt 0.500000 1.000000
vt 0.000000 0.000000
vt 1.000000 0.000000
vt 0.500000 1.000000
vt 0.000000 0.000000
vt 1.000000 0.000000
vt 0.000000 0.000000
vt 1.000000 0.000000
vt 1.000000 1.000000
vt 0.000000 1.000000
vt 0.500000 1.000000
vt 0.000000 0.000000
vt 1.000000 0.000000
vt 0.500000 1.000000
vt 0.000000 0.000000
vt 1.000000 0.000000
vt 0.000000 0.000000
vt 1.000000 0.000000
vt 1.000000 1.000000
vt 0.000000 1.000000
vt 0.500000 1.000000
vt 0.000000 0.000000
vt 1.000000 0.000000
vt 0.500000 1.000000
vt 0.000000 0.000000
vt 1.000000 0.000000
vt 0.000000 0.000000
vt 1.000000 0.000000
vt 1.000000 1.000000
vt 0.000000 1.000000
vt 0.500000 1.000000
vt 0.000000 0.000000
vt 1.000000 0.000000
vt 0.500000 1.000000
vt 0.000000 0.000000
vt 1.000000 0.000000
vt 0.000000 0.000000
vt 1.000000 0.000000
vt 1.000000 1.000000
vt 0.000000 1.000000
vt 0.500000 1.000000
vt 0.000000 0.000000
vt 1.000000 0.000000
vt 0.500000 1.000000
vt 0.000000 0.000000
vt 1.000000 0.000000
vt 0.000000 0.000000
vt 1.000000 0.000000
vt 1.000000 1.000000
vt 0.000000 1.000000
vt 0.500000 1.000000
vt 0.000000 0.000000
vt 1.000000 0.000000
vt 0.500000 1.000000
vt 0.000000 0.000000
vt 1.000000 0.000000
vt 0.000000 0.000000
vt 1.000000 0.000000
vt 1.000000 1.000000
vt 0.000000 1.000000
vt 0.500000 1.000000
vt 0.000000 0.000000
vt 1.000000 0.000000
vt 0.500000 1.000000
vt 0.000000 0.000000
vt 1.000000 0.000000
vt 0.000000 0.000000
vt 1.000000 0.000000
vt 1.000000 1.000000
vt 0.000000 1.000000
vt 0.500000 1.000000
vt 0.000000 0.000000
vt 1.000000 0.000000
vt 0.500000 1.000000
vt 0.000000 0.000000
vt 1.000000 0.000000
vt 0.000000 0.000000
vt 1.000000 0.000000
vt 1.000000 1.000000
vt 0.000000 1.000000
vt 0.500000 1.000000
vt 0.000000 0.000000
vt 1.000000 0.000000
vt 0.500000 1.000000
vt 0.000000 0.000000
vt 1.000000 0.000000
vt 0.000000 0.000000
vt 1.000000 0.000000
vt 1.000000 1.000000
vt 0.000000 1.000000
vt 0.500000 1.000000
vt 0.000000 0.000000
vt 1.000000 0.000000
vt 0.500000 1.000000
vt 0.000000 0.000000
vt 1.000000 0.000000
vt 0.000000 0.000000
vt 1.000000 0.000000
vt 1.000000 1.000000
vt 0.000000 1.000000
vt 0.500000 1.000000
vt 0.000000 0.000000
vt 1.000000 0.000000
vt 0.500000 1.000000
vt 0.000000 0.000000
vt 1.000000 0.000000
vt 0.000000 0.000000
vt 1.000000 0.000000
vt 1.000000 1.000000
vt 0.000000 1.000000
vt 0.500000 1.000000
vt 0.000000 0.000000
vt 1.000000 0.000000
vt 0.500000 1.000000
vt 0.000000 0.000000
vt 1.000000 0.000000
vt 0.000000 0.000000
vt 1.000000 0.000000
vt 1.000000 1.000000
vt 0.000000 1.000000
vt 0.500000 1.000000
vt 0.000000 0.000000
vt 1.000000 0.000000
vt 0.500000 1.000000
vt 0.000000 0.000000
vt 1.000000 0.000000
vt 0.000000 0.000000
vt 1.000000 0.000000
vt 1.000000 1.000000
vt 0.000000 1.000000
vt 0.500000 1.000000
vt 0.000000 0.000000
vt 1.000000 0.000000
vt 0.500000 1.000000
vt 0.000000 0.000000
vt 1.000000 0.000000
vt 0.000000 0.000000
vt 1.000000 0.000000
vt 1.000000 1.000000
vt 0.000000 1.000000
vt 0.500000 1.000000
vt 0.000000 0.000000
vt 1.000000 0.000000
vt 0.500000 1.000000
vt 0.000000 0.000000
vt 1.000000 0.000000
vt 0.000000 0.000000
vt 1.000000 0.000000
vt 1.000000 1.000000
vt 0.000000 1.000000
vt 0.500000 1.000000
vt 0.000000 0.000000
vt 1.000000 0.000000
vt 0.500000 1.000000
vt 0.000000 0.000000
vt 1.000000 0.000000
vt 0.000000 0.000000
vt 1.000000 0.000000
vt 1.000000 1.000000
vt 0.000000 1.000000
vt 0.500000 1.000000
vt 0.000000 0.000000
vt 1.000000 0.000000
vt 0.500000 1.000000
vt 0.000000 0.000000
vt 1.000000 0.000000
vt 0.000000 0.000000
vt 1.000000 0.000000
vt 1.000000 1.000000
vt 0.000000 1.000000
vt 0.500000 1.000000
vt 0.000000 0.000000
vt 1.000000 0.000000
vt 0.500000 1.000000
vt 0.000000 0.000000
vt 1.000000 0.000000
vt 0.000000 0.000000
vt 1.000000 0.000000
vt 1.000000 1.000000
vt 0.000000 1.000000
vt 0.500000 1.000000
vt 0.000000 0.000000
vt 1.000000 0.000000
vt 0.500000 1.000000
vt 0.000000 0.000000
vt 1.000000 0.000000
vt 0.000000 0.000000
vt 1.000000 0.000000
vt 1.000000 1.000000
vt 0.000000 1.000000
vt 0.500000 1.000000
vt 0.000000 0.000000
vt 1.000000 0.000000
vt 0.500000 1.000000
vt 0.000000 0.000000
vt 1.000000 0.000000
vt 0.000000 0.000000
vt 1.000000 0.000000
vt 1.000000 1.000000
vt 0.000000 1.000000
vt 0.500000 1.000000
vt 0.000000 0.000000
vt 1.000000 0.000000
vt 0.500000 1.000000
vt 0.000000 0.000000
vt 1.000000 0.000000
vt 0.000000 0.000000
vt 1.000000 0.000000
vt 1.000000 1.000000
vt 0.000000 1.000000
vt 0.500000 1.000000
vt 0.000000 0.000000
vt 1.000000 0.000000
vt 0.500000 1.000000
vt 0.000000 0.000000
vt 1.000000 0.000000
vt 0.000000 0.000000
vt 1.000000 0.000000
vt 1.000000 1.000000
vt 0.000000 1.000000
vt 0.500000 1.000000
vt 0.000000 0.000000
vt 1.000000 0.000000
vt 0.500000 1.000000
vt 0.000000 0.000000
vt 1.000000 0.000000
vt 0.000000 0.000000
vt 1.000000 0.000000
vt 1.000000 1.000000
vt 0.000000 1.000000
vt 0.500000 1.000000
vt 0.000000 0.000000
vt 1.000000 0.000000
vt 0.500000 1.000000
vt 0.000000 0.000000
vt 1.000000 0.000000
vt 0.000000 0.000000
vt 1.000000 0.000000
vt 1.000000 1.000000
vt 0.000000 1.000000
vt 0.500000 1.000000
vt 0.000000 0.000000
vt 1.000000 0.000000
vt 0.500000 1.000000
vt 0.000000 0.000000
vt 1.000000 0.000000
vt 0.000000 0.000000
vt 1.000000 0.000000
vt 1.000000 1.000000
vt 0.000000 1.000000
vt 0.500000 1.000000
vt 0.000000 0.000000
vt 1.000000 0.000000
vt 0.500000 1.000000
vt 0.000000 0.000000
vt 1.000000 0.000000
vt 0.000000 0.000000
vt 1.000000 0.000000
vt 1.000000 1.000000
vt 0.000000 1.000000
vt 0.500000 1.000000
vt 0.000000 0.000000
vt 1.000000 0.000000
vt 0.500000 1.000000
vt 0.000000 0.000000
vt 1.000000 0.000000
s 1
usemtl models/caelum/world/environment/bark_mountain.png
f 1/1 2/2 3/3 4/4
f 5/5 6/6 7/7
f 8/8 9/9 10/10 11/11
f 12/12 13/13 14/14
f 15/15 16/16 17/17 18/18
f 19/19 20/20 21/21
f 22/22 23/23 24/24 25/25
f 26/26 27/27 28/28
f 29/29 30/30 31/31 32/32
f 33/33 34/34 35/35
f 36/36 37/37 38/38 39/39
f 40/40 41/41 42/42
f 43/43 44/44 45/45 46/46
f 47/47 48/48 49/49
f 50/50 51/51 52/52 53/53
f 54/54 55/55 56/56
f 57/57 58/58 59/59 60/60
f 61/61 62/62 63/63
f 64/64 65/65 66/66 67/67
f 68/68 69/69 70/70
f 71/71 72/72 73/73 74/74
f 75/75 76/76 77/77
f 78/78 79/79 80/80 81/81
f 82/82 83/83 84/84
f 85/85 86/86 87/87 88/88
f 89/89 90/90 91/91
f 92/92 93/93 94/94 95/95
f 96/96 97/97 98/98
f 99/99 100/100 101/101 102/102
f 103/103 104/104 105/105
f 106/106 107/107 108/108 109/109
f 110/110 111/111 112/112
f 113/113 114/114 115/115 116/116
f 117/117 118/118 119/119
f 120/120 121/121 122/122 123/123
f 124/124 125/125 126/126
usemtl models/caelum/world/environment/foliage_mountain.png
f 127/127 128/128 129/129 130/130
f 131/131 132/132 133/133
f 134/134 135/135 136/136
f 137/137 138/138 139/139 140/140
f 141/141 142/142 143/143
f 144/144 145/145 146/146
f 147/147 148/148 149/149 150/150
f 151/151 152/152 153/153
f 154/154 155/155 156/156
f 157/157 158/158 159/159 160/160
f 161/161 162/162 163/163
f 164/164 165/165 166/166
f 167/167 168/168 169/169 170/170
f 171/171 172/172 173/173
f 174/174 175/175 176/176
f 177/177 178/178 179/179 180/180
f 181/181 182/182 183/183
f 184/184 185/185 186/186
f 187/187 188/188 189/189 190/190
f 191/191 192/192 193/193
f 194/194 195/195 196/196
f 197/197 198/198 199/199 200/200
f 201/201 202/202 203/203
f 204/204 205/205 206/206
f 207/207 208/208 209/209 210/210
f 211/211 212/212 213/213
f 214/214 215/215 216/216
f 217/217 218/218 219/219 220/220
f 221/221 222/222 223/223
f 224/224 225/225 226/226
f 227/227 228/228 229/229 230/230
f 231/231 232/232 233/233
f 234/234 235/235 236/236
f 237/237 238/238 239/239 240/240
f 241/241 242/242 243/243
f 244/244 245/245 246/246
f 247/247 248/248 249/249 250/250
f 251/251 252/252 253/253
f 254/254 255/255 256/256
f 257/257 258/258 259/259 260/260
f 261/261 262/262 263/263
f 264/264 265/265 266/266
f 267/267 268/268 269/269 270/270
f 271/271 272/272 273/273
f 274/274 275/275 276/276
f 277/277 278/278 279/279 280/280
f 281/281 282/282 283/283
f 284/284 285/285 286/286
f 287/287 288/288 289/289 290/290
f 291/291 292/292 293/293
f 294/294 295/295 296/296
f 297/297 298/298 299/299 300/300
f 301/301 302/302 303/303
f 304/304 305/305 306/306
f 307/307 308/308 309/309 310/310
f 311/311 312/312 313/313
f 314/314 315/315 316/316
f 317/317 318/318 319/319 320/320
f 321/321 322/322 323/323
f 324/324 325/325 326/326
f 327/327 328/328 329/329 330/330
f 331/331 332/332 333/333
f 334/334 335/335 336/336
f 337/337 338/338 339/339 340/340
f 341/341 342/342 343/343
f 344/344 345/345 346/346
f 347/347 348/348 349/349 350/350
f 351/351 352/352 353/353
f 354/354 355/355 356/356
f 357/357 358/358 359/359 360/360
f 361/361 362/362 363/363
f 364/364 365/365 366/366
f 367/367 368/368 369/369 370/370
f 371/371 372/372 373/373
f 374/374 375/375 376/376
f 377/377 378/378 379/379 380/380
f 381/381 382/382 383/383
f 384/384 385/385 386/386
f 387/387 388/388 389/389 390/390
f 391/391 392/392 393/393
f 394/394 395/395 396/396
f 397/397 398/398 399/399 400/400
f 401/401 402/402 403/403
f 404/404 405/405 406/406
f 407/407 408/408 409/409 410/410
f 411/411 412/412 413/413
f 414/414 415/415 416/416
f 417/417 418/418 419/419 420/420
f 421/421 422/422 423/423
f 424/424 425/425 426/426
f 427/427 428/428 429/429 430/430
f 431/431 432/432 433/433
f 434/434 435/435 436/436
f 437/437 438/438 439/439 440/440
f 441/441 442/442 443/443
f 444/444 445/445 446/446
f 447/447 448/448 449/449 450/450
f 451/451 452/452 453/453
f 454/454 455/455 456/456
f 457/457 458/458 459/459 460/460
f 461/461 462/462 463/463
f 464/464 465/465 466/466
f 467/467 468/468 469/469 470/470
f 471/471 472/472 473/473
f 474/474 475/475 476/476
f 477/477 478/478 479/479 480/480
f 481/481 482/482 483/483
f 484/484 485/485 486/486
f 487/487 488/488 489/489 490/490
f 491/491 492/492 493/493
f 494/494 495/495 496/496
f 497/497 498/498 499/499 500/500
f 501/501 502/502 503/503
f 504/504 505/505 506/506
f 507/507 508/508 509/509 510/510
f 511/511 512/512 513/513
f 514/514 515/515 516/516
f 517/517 518/518 519/519 520/520
f 521/521 522/522 523/523
f 524/524 525/525 526/526
f 527/527 528/528 529/529 530/530
f 531/531 532/532 533/533
f 534/534 535/535 536/536
f 537/537 538/538 539/539 540/540
f 541/541 542/542 543/543
f 544/544 545/545 546/546
f 547/547 548/548 549/549 550/550
f 551/551 552/552 553/553
f 554/554 555/555 556/556
f 557/557 558/558 559/559 560/560
f 561/561 562/562 563/563
f 564/564 565/565 566/566
f 567/567 568/568 569/569 570/570
f 571/571 572/572 573/573
f 574/574 575/575 576/576
f 577/577 578/578 579/579 580/580
f 581/581 582/582 583/583
f 584/584 585/585 586/586
f 587/587 588/588 589/589 590/590
f 591/591 592/592 593/593
f 594/594 595/595 596/596
f 597/597 598/598 599/599 600/600
f 601/601 602/602 603/603
f 604/604 605/605 606/606
f 607/607 608/608 609/609 610/610
f 611/611 612/612 613/613
f 614/614 615/615 616/616
f 617/617 618/618 619/619 620/620
f 621/621 622/622 623/623
f 624/624 625/625 626/626
f 627/627 628/628 629/629 630/630
f 631/631 632/632 633/633
f 634/634 635/635 636/636
f 637/637 638/638 639/639 640/640
f 641/641 642/642 643/643
f 644/644 645/645 646/646
f 647/647 648/648 649/649 650/650
f 651/651 652/652 653/653
f 654/654 655/655 656/656
f 657/657 658/658 659/659 660/660
f 661/661 662/662 663/663
f 664/664 665/665 666/666
f 667/667 668/668 669/669 670/670
f 671/671 672/672 673/673
f 674/674 675/675 676/676
f 677/677 678/678 679/679 680/680
f 681/681 682/682 683/683
f 684/684 685/685 686/686
f 687/687 688/688 689/689 690/690
f 691/691 692/692 693/693
f 694/694 695/695 696/696
f 697/697 698/698 699/699 700/700
f 701/701 702/702 703/703
f 704/704 705/705 706/706
f 707/707 708/708 709/709 710/710
f 711/711 712/712 713/713
f 714/714 715/715 716/716
f 717/717 718/718 719/719 720/720
f 721/721 722/722 723/723
f 724/724 725/725 726/726
f 727/727 728/728 729/729 730/730
f 731/731 732/732 733/733
f 734/734 735/735 736/736
f 737/737 738/738 739/739 740/740
f 741/741 742/742 743/743
f 744/744 745/745 746/746
f 747/747 748/748 749/749 750/750
f 751/751 752/752 753/753
f 754/754 755/755 756/756
f 757/757 758/758 759/759 760/760
f 761/761 762/762 763/763
f 764/764 765/765 766/766
f 767/767 768/768 769/769 770/770
f 771/771 772/772 773/773
f 774/774 775/775 776/776
f 777/777 778/778 779/779 780/780
f 781/781 782/782 783/783
f 784/784 785/785 786/786
f 787/787 788/788 789/789 790/790
f 791/791 792/792 793/793
f 794/794 795/795 796/796
f 797/797 798/798 799/799 800/800
f 801/801 802/802 803/803
f 804/804 805/805 806/806
f 807/807 808/808 809/809 810/810
f 811/811 812/812 813/813
f 814/814 815/815 816/816
f 817/817 818/818 819/819 820/820
f 821/821 822/822 823/823
f 824/824 825/825 826/826
f 827/827 828/828 829/829 830/830
f 831/831 832/832 833/833
f 834/834 835/835 836/836
f 837/837 838/838 839/839 840/840
f 841/841 842/842 843/843
f 844/844 845/845 846/846
f 847/847 848/848 849/849 850/850
f 851/851 852/852 853/853
f 854/854 855/855 856/856
f 857/857 858/858 859/859 860/860
f 861/861 862/862 863/863
f 864/864 865/865 866/866
f 867/867 868/868 869/869 870/870
f 871/871 872/872 873/873
f 874/874 875/875 876/876
f 877/877 878/878 879/879 880/880
f 881/881 882/882 883/883
f 884/884 885/885 886/886
f 887/887 888/888 889/889 890/890
f 891/891 892/892 893/893
f 894/894 895/895 896/896
f 897/897 898/898 899/899 900/900
f 901/901 902/902 903/903
f 904/904 905/905 906/906
f 907/907 908/908 909/909 910/910
f 911/911 912/912 913/913
f 914/914 915/915 916/916
f 917/917 918/918 919/919 920/920
f 921/921 922/922 923/923
f 924/924 925/925 926/926
f 927/927 928/928 929/929 930/930
f 931/931 932/932 933/933
f 934/934 935/935 936/936
f 937/937 938/938 939/939 940/940
f 941/941 942/942 943/943
f 944/944 945/945 946/946
f 947/947 948/948 949/949 950/950
f 951/951 952/952 953/953
f 954/954 955/955 956/956
f 957/957 958/958 959/959 960/960
f 961/961 962/962 963/963
f 964/964 965/965 966/966
f 967/967 968/968 969/969 970/970
f 971/971 972/972 973/973
f 974/974 975/975 976/976
f 977/977 978/978 979/979 980/980
f 981/981 982/982 983/983
f 984/984 985/985 986/986
f 987/987 988/988 989/989 990/990
f 991/991 992/992 993/993
f 994/994 995/995 996/996
f 997/997 998/998 999/999 1000/1000
f 1001/1001 1002/1002 1003/1003
f 1004/1004 1005/1005 1006/1006
f 1007/1007 1008/1008 1009/1009 1010/1010
f 1011/1011 1012/1012 1013/1013
f 1014/1014 1015/1015 1016/1016
f 1017/1017 1018/1018 1019/1019 1020/1020
f 1021/1021 1022/1022 1023/1023
f 1024/1024 1025/1025 1026/1026
f 1027/1027 1028/1028 1029/1029 1030/1030
f 1031/1031 1032/1032 1033/1033
f 1034/1034 1035/1035 1036/1036
f 1037/1037 1038/1038 1039/1039 1040/1040
f 1041/1041 1042/1042 1043/1043
f 1044/1044 1045/1045 1046/1046
f 1047/1047 1048/1048 1049/1049 1050/1050
f 1051/1051 1052/1052 1053/1053
f 1054/1054 1055/1055 1056/1056
f 1057/1057 1058/1058 1059/1059 1060/1060
f 1061/1061 1062/1062 1063/1063
f 1064/1064 1065/1065 1066/1066
f 1067/1067 1068/1068 1069/1069 1070/1070
f 1071/1071 1072/1072 1073/1073
f 1074/1074 1075/1075 1076/1076
f 1077/1077 1078/1078 1079/1079 1080/1080
f 1081/1081 1082/1082 1083/1083
f 1084/1084 1085/1085 1086/1086
f 1087/1087 1088/1088 1089/1089 1090/1090
f 1091/1091 1092/1092 1093/1093
f 1094/1094 1095/1095 1096/1096
f 1097/1097 1098/1098 1099/1099 1100/1100
f 1101/1101 1102/1102 1103/1103
f 1104/1104 1105/1105 1106/1106
f 1107/1107 1108/1108 1109/1109 1110/1110
f 1111/1111 1112/1112 1113/1113
f 1114/1114 1115/1115 1116/1116
f 1117/1117 1118/1118 1119/1119 1120/1120
f 1121/1121 1122/1122 1123/1123
f 1124/1124 1125/1125 1126/1126
