# Modelo original generado para Caelum Argenteum.
# Ejes OBJ: X ancho, Y altura, Z profundidad.
o ca_tree_desert_churqui
v 0.000000 -0.049829 -6.999823
v -4.498703 0.047223 -5.362783
v -2.476905 33.072584 -3.935520
v 0.627200 33.005618 -5.065078
v 0.000000 0.000000 0.000000
v -4.498703 0.047223 -5.362783
v 0.000000 -0.049829 -6.999823
v -4.498703 0.047223 -5.362783
v -6.892413 0.122180 -1.216438
v -4.128565 33.124304 -1.074542
v -2.476905 33.072584 -3.935520
v 0.000000 0.000000 0.000000
v -6.892413 0.122180 -1.216438
v -4.498703 0.047223 -5.362783
v -6.892413 0.122180 -1.216438
v -6.061086 0.139967 3.499092
v -3.554949 33.136577 2.179174
v -4.128565 33.124304 -1.074542
v 0.000000 0.000000 0.000000
v -6.061086 0.139967 3.499092
v -6.892413 0.122180 -1.216438
v -6.061086 0.139967 3.499092
v -2.393710 0.092262 6.577358
v -1.024460 33.103661 4.303177
v -3.554949 33.136577 2.179174
v 0.000000 0.000000 0.000000
v -2.393710 0.092262 6.577358
v -6.061086 0.139967 3.499092
v -2.393710 0.092262 6.577358
v 2.393710 0.001387 6.578005
v 2.278860 33.040957 4.303624
v -1.024460 33.103661 4.303177
v 0.000000 0.000000 0.000000
v 2.393710 0.001387 6.578005
v -2.393710 0.092262 6.577358
v 2.393710 0.001387 6.578005
v 6.061086 -0.090137 3.500730
v 4.809349 32.977805 2.180304
v 2.278860 33.040957 4.303624
v 0.000000 0.000000 0.000000
v 6.061086 -0.090137 3.500730
v 2.393710 0.001387 6.578005
v 6.061086 -0.090137 3.500730
v 6.892413 -0.139485 -1.214575
v 5.382965 32.943755 -1.073257
v 4.809349 32.977805 2.180304
v 0.000000 0.000000 0.000000
v 6.892413 -0.139485 -1.214575
v 6.061086 -0.090137 3.500730
v 6.892413 -0.139485 -1.214575
v 4.498703 -0.123566 -5.361567
v 3.731305 32.954739 -3.934681
v 5.382965 32.943755 -1.073257
v 0.000000 0.000000 0.000000
v 4.498703 -0.123566 -5.361567
v 6.892413 -0.139485 -1.214575
v 4.498703 -0.123566 -5.361567
v 0.000000 -0.049829 -6.999823
v 0.627200 33.005618 -5.065078
v 3.731305 32.954739 -3.934681
v 0.000000 0.000000 0.000000
v 0.000000 -0.049829 -6.999823
v 4.498703 -0.123566 -5.361567
v 0.049838 32.973791 -5.030111
v -2.892900 33.163702 -3.540119
v 0.224594 61.428126 -2.631300
v 1.845233 61.323537 -3.451876
v -2.892900 33.163702 -3.540119
v -4.188545 33.295732 -0.503719
v -0.488949 61.500838 -0.959080
v 0.224594 61.428126 -2.631300
v -4.188545 33.295732 -0.503719
v -3.230849 33.308101 2.658324
v 0.038477 61.507650 0.782335
v -0.488949 61.500838 -0.959080
v -3.230849 33.308101 2.658324
v -0.467929 33.195024 4.466455
v 1.560086 61.445375 1.778117
v 0.038477 61.507650 0.782335
v -0.467929 33.195024 4.466455
v 2.807414 33.009409 4.074630
v 3.363898 61.343153 1.562329
v 1.560086 61.445375 1.778117
v 2.807414 33.009409 4.074630
v 5.062611 32.838108 1.666187
v 4.605890 61.248813 0.235941
v 3.363898 61.343153 1.562329
v 5.062611 32.838108 1.666187
v 5.242429 32.761274 -1.631936
v 4.704920 61.206499 -1.580417
v 4.605890 61.248813 0.235941
v 5.242429 32.761274 -1.631936
v 3.262731 32.814860 -4.276510
v 3.614652 61.236010 -3.036849
v 4.704920 61.206499 -1.580417
v 3.262731 32.814860 -4.276510
v 0.049838 32.973791 -5.030111
v 1.845233 61.323537 -3.451876
v 3.614652 61.236010 -3.036849
v 1.533061 61.331968 -3.395332
v 0.025324 61.487896 -2.388770
v 3.526181 82.623560 -1.760605
v 3.803922 82.594836 -1.946024
v 3.920000 82.600000 -1.470000
v 3.803922 82.594836 -1.946024
v 3.526181 82.623560 -1.760605
v 0.025324 61.487896 -2.388770
v -0.482077 61.583980 -0.644045
v 3.432712 82.641260 -1.439208
v 3.526181 82.623560 -1.760605
v 3.920000 82.600000 -1.470000
v 3.526181 82.623560 -1.760605
v 3.432712 82.641260 -1.439208
v -0.482077 61.583980 -0.644045
v 0.248276 61.575262 1.022466
v 3.567251 82.639653 -1.132219
v 3.432712 82.641260 -1.439208
v 3.920000 82.600000 -1.470000
v 3.432712 82.641260 -1.439208
v 3.567251 82.639653 -1.132219
v 0.248276 61.575262 1.022466
v 1.874644 61.465819 1.830984
v 3.866845 82.619493 -0.983282
v 3.567251 82.639653 -1.132219
v 3.920000 82.600000 -1.470000
v 3.567251 82.639653 -1.132219
v 3.866845 82.619493 -0.983282
v 1.874644 61.465819 1.830984
v 3.636030 61.306863 1.403195
v 4.191311 82.590212 -1.062085
v 3.866845 82.619493 -0.983282
v 3.920000 82.600000 -1.470000
v 3.866845 82.619493 -0.983282
v 4.191311 82.590212 -1.062085
v 3.636030 61.306863 1.403195
v 4.708263 61.172770 -0.060734
v 4.388827 82.565510 -1.331756
v 4.191311 82.590212 -1.062085
v 3.920000 82.600000 -1.470000
v 4.191311 82.590212 -1.062085
v 4.388827 82.565510 -1.331756
v 4.708263 61.172770 -0.060734
v 4.589632 61.126284 -1.875814
v 4.366974 82.556947 -1.666113
v 4.388827 82.565510 -1.331756
v 3.920000 82.600000 -1.470000
v 4.388827 82.565510 -1.331756
v 4.366974 82.556947 -1.666113
v 4.589632 61.126284 -1.875814
v 3.335647 61.189156 -3.192750
v 4.135977 82.568529 -1.908707
v 4.366974 82.556947 -1.666113
v 3.920000 82.600000 -1.470000
v 4.366974 82.556947 -1.666113
v 4.135977 82.568529 -1.908707
v 3.335647 61.189156 -3.192750
v 1.533061 61.331968 -3.395332
v 3.803922 82.594836 -1.946024
v 4.135977 82.568529 -1.908707
v 3.920000 82.600000 -1.470000
v 4.135977 82.568529 -1.908707
v 3.803922 82.594836 -1.946024
v 2.774601 72.238888 0.407744
v 3.406522 71.005307 -0.282378
v 18.101474 78.249039 1.354222
v 17.880302 78.680793 1.595764
v 2.998252 72.238888 -1.124344
v 3.406522 71.005307 -0.282378
v 2.774601 72.238888 0.407744
v 3.406522 71.005307 -0.282378
v 3.630173 71.005307 -1.814466
v 18.179752 78.249039 0.817991
v 18.101474 78.249039 1.354222
v 2.998252 72.238888 -1.124344
v 3.630173 71.005307 -1.814466
v 3.406522 71.005307 -0.282378
v 3.630173 71.005307 -1.814466
v 3.221903 72.238888 -2.656433
v 18.036858 78.680793 0.523302
v 18.179752 78.249039 0.817991
v 2.998252 72.238888 -1.124344
v 3.221903 72.238888 -2.656433
v 3.630173 71.005307 -1.814466
v 3.221903 72.238888 -2.656433
v 2.589981 73.472469 -1.966311
v 17.815685 79.112546 0.764845
v 18.036858 78.680793 0.523302
v 2.998252 72.238888 -1.124344
v 2.589981 73.472469 -1.966311
v 3.221903 72.238888 -2.656433
v 2.589981 73.472469 -1.966311
v 2.366330 73.472469 -0.434223
v 17.737407 79.112546 1.301076
v 17.815685 79.112546 0.764845
v 2.998252 72.238888 -1.124344
v 2.366330 73.472469 -0.434223
v 2.589981 73.472469 -1.966311
v 2.366330 73.472469 -0.434223
v 2.774601 72.238888 0.407744
v 17.880302 78.680793 1.595764
v 17.737407 79.112546 1.301076
v 2.998252 72.238888 -1.124344
v 2.774601 72.238888 0.407744
v 2.366330 73.472469 -0.434223
v 17.898277 78.617320 1.594328
v 18.031507 78.193180 1.284447
v 34.352947 82.608077 3.138922
v 34.467144 82.244529 2.873309
v 34.415456 82.190123 3.331705
v 34.467144 82.244529 2.873309
v 34.352947 82.608077 3.138922
v 18.031507 78.193180 1.284447
v 18.091810 78.256653 0.749652
v 34.301259 82.553672 3.597317
v 34.352947 82.608077 3.138922
v 34.415456 82.190123 3.331705
v 34.352947 82.608077 3.138922
v 34.301259 82.553672 3.597317
v 18.091810 78.256653 0.749652
v 18.018883 78.744266 0.524738
v 34.363768 82.135718 3.790101
v 34.301259 82.553672 3.597317
v 34.415456 82.190123 3.331705
v 34.301259 82.553672 3.597317
v 34.363768 82.135718 3.790101
v 18.018883 78.744266 0.524738
v 17.885653 79.168405 0.834619
v 34.477965 81.772169 3.524489
v 34.363768 82.135718 3.790101
v 34.415456 82.190123 3.331705
v 34.363768 82.135718 3.790101
v 34.477965 81.772169 3.524489
v 17.885653 79.168405 0.834619
v 17.825350 79.104932 1.369414
v 34.529653 81.826575 3.066093
v 34.477965 81.772169 3.524489
v 34.415456 82.190123 3.331705
v 34.477965 81.772169 3.524489
v 34.529653 81.826575 3.066093
v 17.825350 79.104932 1.369414
v 17.898277 78.617320 1.594328
v 34.467144 82.244529 2.873309
v 34.529653 81.826575 3.066093
v 34.415456 82.190123 3.331705
v 34.529653 81.826575 3.066093
v 34.467144 82.244529 2.873309
v 2.101607 61.997418 -2.122818
v 0.508675 61.717470 -0.911295
v 9.922452 73.076096 12.995307
v 10.479979 73.174078 12.571273
v 2.101607 60.480142 -0.788103
v 0.508675 61.717470 -0.911295
v 2.101607 61.997418 -2.122818
v 0.508675 61.717470 -0.911295
v 0.508675 60.200194 0.423420
v 9.922452 72.545049 13.462457
v 9.922452 73.076096 12.995307
v 2.101607 60.480142 -0.788103
v 0.508675 60.200194 0.423420
v 0.508675 61.717470 -0.911295
v 0.508675 60.200194 0.423420
v 2.101607 58.962865 0.546612
v 10.479979 72.111984 13.505574
v 9.922452 72.545049 13.462457
v 2.101607 60.480142 -0.788103
v 2.101607 58.962865 0.546612
v 0.508675 60.200194 0.423420
v 2.101607 58.962865 0.546612
v 3.694540 59.242813 -0.664911
v 11.037505 72.209966 13.081541
v 10.479979 72.111984 13.505574
v 2.101607 60.480142 -0.788103
v 3.694540 59.242813 -0.664911
v 2.101607 58.962865 0.546612
v 3.694540 59.242813 -0.664911
v 3.694540 60.760090 -1.999626
v 11.037505 72.741013 12.614391
v 11.037505 72.209966 13.081541
v 2.101607 60.480142 -0.788103
v 3.694540 60.760090 -1.999626
v 3.694540 59.242813 -0.664911
v 3.694540 60.760090 -1.999626
v 2.101607 61.997418 -2.122818
v 10.479979 73.174078 12.571273
v 11.037505 72.741013 12.614391
v 2.101607 60.480142 -0.788103
v 2.101607 61.997418 -2.122818
v 3.694540 60.760090 -1.999626
v 10.404125 73.226964 12.646622
v 9.897253 73.038705 13.102560
v 20.231160 83.511926 27.896511
v 19.796699 83.350561 28.287316
v 19.731682 83.851075 27.951485
v 19.796699 83.350561 28.287316
v 20.231160 83.511926 27.896511
v 9.897253 73.038705 13.102560
v 9.973107 72.454772 13.494362
v 20.166143 84.012440 27.560681
v 20.231160 83.511926 27.896511
v 19.731682 83.851075 27.951485
v 20.231160 83.511926 27.896511
v 20.166143 84.012440 27.560681
v 9.973107 72.454772 13.494362
v 10.555833 72.059098 13.430226
v 19.666664 84.351589 27.615655
v 20.166143 84.012440 27.560681
v 19.731682 83.851075 27.951485
v 20.166143 84.012440 27.560681
v 19.666664 84.351589 27.615655
v 10.555833 72.059098 13.430226
v 11.062704 72.247357 12.974287
v 19.232203 84.190224 28.006460
v 19.666664 84.351589 27.615655
v 19.731682 83.851075 27.951485
v 19.666664 84.351589 27.615655
v 19.232203 84.190224 28.006460
v 11.062704 72.247357 12.974287
v 10.986850 72.831290 12.582485
v 19.297220 83.689710 28.342290
v 19.232203 84.190224 28.006460
v 19.731682 83.851075 27.951485
v 19.232203 84.190224 28.006460
v 19.297220 83.689710 28.342290
v 10.986850 72.831290 12.582485
v 10.404125 73.226964 12.646622
v 19.796699 83.350561 28.287316
v 19.297220 83.689710 28.342290
v 19.731682 83.851075 27.951485
v 19.297220 83.689710 28.342290
v 19.796699 83.350561 28.287316
v 3.386942 78.016346 -2.117627
v 2.186384 77.117206 -2.103225
v -5.082822 87.902637 14.509304
v -4.662627 88.217336 14.504263
v 3.386942 76.778726 -1.270103
v 2.186384 77.117206 -2.103225
v 3.386942 78.016346 -2.117627
v 2.186384 77.117206 -2.103225
v 2.186384 75.879586 -1.255701
v -5.082822 87.469470 14.805937
v -5.082822 87.902637 14.509304
v 3.386942 76.778726 -1.270103
v 2.186384 75.879586 -1.255701
v 2.186384 77.117206 -2.103225
v 2.186384 75.879586 -1.255701
v 3.386942 75.541106 -0.422579
v -4.662627 87.351002 15.097530
v -5.082822 87.469470 14.805937
v 3.386942 76.778726 -1.270103
v 3.386942 75.541106 -0.422579
v 2.186384 75.879586 -1.255701
v 3.386942 75.541106 -0.422579
v 4.587500 76.440246 -0.436982
v -4.242432 87.665701 15.092489
v -4.662627 87.351002 15.097530
v 3.386942 76.778726 -1.270103
v 4.587500 76.440246 -0.436982
v 3.386942 75.541106 -0.422579
v 4.587500 76.440246 -0.436982
v 4.587500 77.677866 -1.284506
v -4.242432 88.098868 14.795855
v -4.242432 87.665701 15.092489
v 3.386942 76.778726 -1.270103
v 4.587500 77.677866 -1.284506
v 4.587500 76.440246 -0.436982
v 4.587500 77.677866 -1.284506
v 3.386942 78.016346 -2.117627
v -4.662627 88.217336 14.504263
v -4.242432 88.098868 14.795855
v 3.386942 76.778726 -1.270103
v 3.386942 78.016346 -2.117627
v 4.587500 77.677866 -1.284506
v -4.720321 88.234444 14.537174
v -5.105845 87.878081 14.535635
v -12.720847 96.757528 32.332671
v -13.051296 96.452075 32.331351
v -13.100748 96.838024 32.105304
v -13.051296 96.452075 32.331351
v -12.720847 96.757528 32.332671
v -5.105845 87.878081 14.535635
v -5.048150 87.427807 14.799357
v -12.770299 97.143478 32.106623
v -12.720847 96.757528 32.332671
v -13.100748 96.838024 32.105304
v -12.720847 96.757528 32.332671
v -12.770299 97.143478 32.106623
v -5.048150 87.427807 14.799357
v -4.604933 87.333895 15.064618
v -13.150200 97.223974 31.879256
v -12.770299 97.143478 32.106623
v -13.100748 96.838024 32.105304
v -12.770299 97.143478 32.106623
v -13.150200 97.223974 31.879256
v -4.604933 87.333895 15.064618
v -4.219409 87.690257 15.066158
v -13.480649 96.918521 31.877937
v -13.150200 97.223974 31.879256
v -13.100748 96.838024 32.105304
v -13.150200 97.223974 31.879256
v -13.480649 96.918521 31.877937
v -4.219409 87.690257 15.066158
v -4.277103 88.140532 14.802436
v -13.431197 96.532571 32.103984
v -13.480649 96.918521 31.877937
v -13.100748 96.838024 32.105304
v -13.480649 96.918521 31.877937
v -13.431197 96.532571 32.103984
v -4.277103 88.140532 14.802436
v -4.720321 88.234444 14.537174
v -13.051296 96.452075 32.331351
v -13.431197 96.532571 32.103984
v -13.100748 96.838024 32.105304
v -13.431197 96.532571 32.103984
v -13.051296 96.452075 32.331351
v 1.918305 58.228635 -2.240725
v 1.050897 56.984207 -1.779594
v -14.376366 70.008484 2.577336
v -14.072773 70.444034 2.415940
v 1.918305 57.782428 -0.719364
v 1.050897 56.984207 -1.779594
v 1.918305 58.228635 -2.240725
v 1.050897 56.984207 -1.779594
v 1.050897 56.538000 -0.258233
v -14.376366 69.852311 3.109812
v -14.376366 70.008484 2.577336
v 1.918305 57.782428 -0.719364
v 1.050897 56.538000 -0.258233
v 1.050897 56.984207 -1.779594
v 1.050897 56.538000 -0.258233
v 1.918305 57.336220 0.801997
v -14.072773 70.131688 3.480893
v -14.376366 69.852311 3.109812
v 1.918305 57.782428 -0.719364
v 1.918305 57.336220 0.801997
v 1.050897 56.538000 -0.258233
v 1.918305 57.336220 0.801997
v 2.785712 58.580649 0.340866
v -13.769180 70.567238 3.319497
v -14.072773 70.131688 3.480893
v 1.918305 57.782428 -0.719364
v 2.785712 58.580649 0.340866
v 1.918305 57.336220 0.801997
v 2.785712 58.580649 0.340866
v 2.785712 59.026856 -1.180495
v -13.769180 70.723411 2.787021
v -13.769180 70.567238 3.319497
v 1.918305 57.782428 -0.719364
v 2.785712 59.026856 -1.180495
v 2.785712 58.580649 0.340866
v 2.785712 59.026856 -1.180495
v 1.918305 58.228635 -2.240725
v -14.072773 70.444034 2.415940
v -13.769180 70.723411 2.787021
v 1.918305 57.782428 -0.719364
v 1.918305 58.228635 -2.240725
v 2.785712 59.026856 -1.180495
v -14.111396 70.412416 2.409051
v -14.369482 69.963894 2.609403
v -30.982259 82.189991 7.152482
v -31.203476 81.805544 7.324212
v -31.236581 81.912305 6.861899
v -31.203476 81.805544 7.324212
v -30.982259 82.189991 7.152482
v -14.369482 69.963894 2.609403
v -14.330859 69.839339 3.148768
v -31.015365 82.296752 6.690169
v -30.982259 82.189991 7.152482
v -31.236581 81.912305 6.861899
v -30.982259 82.189991 7.152482
v -31.015365 82.296752 6.690169
v -14.330859 69.839339 3.148768
v -14.034150 70.163306 3.487782
v -31.269687 82.019066 6.399585
v -31.015365 82.296752 6.690169
v -31.236581 81.912305 6.861899
v -31.015365 82.296752 6.690169
v -31.269687 82.019066 6.399585
v -14.034150 70.163306 3.487782
v -13.776064 70.611828 3.287430
v -31.490903 81.634619 6.571316
v -31.269687 82.019066 6.399585
v -31.236581 81.912305 6.861899
v -31.269687 82.019066 6.399585
v -31.490903 81.634619 6.571316
v -13.776064 70.611828 3.287430
v -13.814687 70.736382 2.748065
v -31.457798 81.527858 7.033629
v -31.490903 81.634619 6.571316
v -31.236581 81.912305 6.861899
v -31.490903 81.634619 6.571316
v -31.457798 81.527858 7.033629
v -13.814687 70.736382 2.748065
v -14.111396 70.412416 2.409051
v -31.203476 81.805544 7.324212
v -31.457798 81.527858 7.033629
v -31.236581 81.912305 6.861899
v -31.457798 81.527858 7.033629
v -31.203476 81.805544 7.324212
v 1.902255 56.806478 -2.433860
v 0.390167 56.638972 -1.345718
v -6.164383 75.271169 -8.630681
v -5.635152 75.329797 -9.011531
v 1.902255 57.540203 -0.713346
v 0.390167 56.638972 -1.345718
v 1.902255 56.806478 -2.433860
v 0.390167 56.638972 -1.345718
v 0.390167 57.372697 0.374796
v -6.164383 75.527973 -8.028501
v -6.164383 75.271169 -8.630681
v 1.902255 57.540203 -0.713346
v 0.390167 57.372697 0.374796
v 0.390167 56.638972 -1.345718
v 0.390167 57.372697 0.374796
v 1.902255 58.273927 1.007169
v -5.635152 75.843404 -7.807171
v -6.164383 75.527973 -8.028501
v 1.902255 57.540203 -0.713346
v 1.902255 58.273927 1.007169
v 0.390167 57.372697 0.374796
v 1.902255 58.273927 1.007169
v 3.414343 58.441433 -0.080973
v -5.105922 75.902031 -8.188021
v -5.635152 75.843404 -7.807171
v 1.902255 57.540203 -0.713346
v 3.414343 58.441433 -0.080973
v 1.902255 58.273927 1.007169
v 3.414343 58.441433 -0.080973
v 3.414343 57.707708 -1.801488
v -5.105922 75.645227 -8.790201
v -5.105922 75.902031 -8.188021
v 1.902255 57.540203 -0.713346
v 3.414343 57.707708 -1.801488
v 3.414343 58.441433 -0.080973
v 3.414343 57.707708 -1.801488
v 1.902255 56.806478 -2.433860
v -5.635152 75.329797 -9.011531
v -5.105922 75.645227 -8.790201
v 1.902255 57.540203 -0.713346
v 1.902255 56.806478 -2.433860
v 3.414343 57.707708 -1.801488
v -5.708721 75.311444 -8.998796
v -6.200321 75.296120 -8.566751
v -13.157726 95.964209 -16.671221
v -13.579097 95.951075 -16.300897
v -13.642156 95.715227 -16.806135
v -13.579097 95.951075 -16.300897
v -13.157726 95.964209 -16.671221
v -6.200321 75.296120 -8.566751
v -6.126753 75.571276 -7.977305
v -13.220785 95.728362 -17.176460
v -13.157726 95.964209 -16.671221
v -13.642156 95.715227 -16.806135
v -13.157726 95.964209 -16.671221
v -13.220785 95.728362 -17.176460
v -6.126753 75.571276 -7.977305
v -5.561584 75.861756 -7.819906
v -13.705215 95.479379 -17.311374
v -13.220785 95.728362 -17.176460
v -13.642156 95.715227 -16.806135
v -13.220785 95.728362 -17.176460
v -13.705215 95.479379 -17.311374
v -5.561584 75.861756 -7.819906
v -5.069984 75.877080 -8.251951
v -14.126586 95.466244 -16.941050
v -13.705215 95.479379 -17.311374
v -13.642156 95.715227 -16.806135
v -13.705215 95.479379 -17.311374
v -14.126586 95.466244 -16.941050
v -5.069984 75.877080 -8.251951
v -5.143552 75.601924 -8.841396
v -14.063528 95.702092 -16.435811
v -14.126586 95.466244 -16.941050
v -13.642156 95.715227 -16.806135
v -14.126586 95.466244 -16.941050
v -14.063528 95.702092 -16.435811
v -5.143552 75.601924 -8.841396
v -5.708721 75.311444 -8.998796
v -13.579097 95.951075 -16.300897
v -14.063528 95.702092 -16.435811
v -13.642156 95.715227 -16.806135
v -14.063528 95.702092 -16.435811
v -13.579097 95.951075 -16.300897
v 1.609035 52.155328 -1.975243
v 0.377053 53.041137 -1.569951
v 13.456137 75.884971 -13.718650
v 13.887330 75.574938 -13.860502
v 1.609035 52.919994 -0.603388
v 0.377053 53.041137 -1.569951
v 1.609035 52.155328 -1.975243
v 0.377053 53.041137 -1.569951
v 0.377053 53.805804 -0.198097
v 13.456137 76.152605 -13.238501
v 13.456137 75.884971 -13.718650
v 1.609035 52.919994 -0.603388
v 0.377053 53.805804 -0.198097
v 0.377053 53.041137 -1.569951
v 0.377053 53.805804 -0.198097
v 1.609035 53.684661 0.768466
v 13.887330 76.110205 -12.900204
v 13.456137 76.152605 -13.238501
v 1.609035 52.919994 -0.603388
v 1.609035 53.684661 0.768466
v 0.377053 53.805804 -0.198097
v 1.609035 53.684661 0.768466
v 2.841017 52.798852 0.363175
v 14.318524 75.800172 -13.042056
v 13.887330 76.110205 -12.900204
v 1.609035 52.919994 -0.603388
v 2.841017 52.798852 0.363175
v 1.609035 53.684661 0.768466
v 2.841017 52.798852 0.363175
v 2.841017 52.034185 -1.008680
v 14.318524 75.532538 -13.522205
v 14.318524 75.800172 -13.042056
v 1.609035 52.919994 -0.603388
v 2.841017 52.034185 -1.008680
v 2.841017 52.798852 0.363175
v 2.841017 52.034185 -1.008680
v 1.609035 52.155328 -1.975243
v 13.887330 75.574938 -13.860502
v 14.318524 75.532538 -13.522205
v 1.609035 52.919994 -0.603388
v 1.609035 52.155328 -1.975243
v 2.841017 52.034185 -1.008680
v 13.827870 75.599595 -13.869840
v 13.430540 75.925505 -13.674692
v 27.714438 100.469625 -27.020058
v 27.373870 100.748976 -26.852787
v 27.322903 100.540710 -27.272348
v 27.373870 100.748976 -26.852787
v 27.714438 100.469625 -27.020058
v 13.430540 75.925505 -13.674692
v 13.490001 76.168481 -13.185205
v 27.663472 100.261359 -27.439618
v 27.714438 100.469625 -27.020058
v 27.322903 100.540710 -27.272348
v 27.714438 100.469625 -27.020058
v 27.663472 100.261359 -27.439618
v 13.490001 76.168481 -13.185205
v 13.946791 76.085548 -12.890866
v 27.271937 100.332445 -27.691908
v 27.663472 100.261359 -27.439618
v 27.322903 100.540710 -27.272348
v 27.663472 100.261359 -27.439618
v 27.271937 100.332445 -27.691908
v 13.946791 76.085548 -12.890866
v 14.344121 75.759638 -13.086015
v 26.931369 100.611796 -27.524638
v 27.271937 100.332445 -27.691908
v 27.322903 100.540710 -27.272348
v 27.271937 100.332445 -27.691908
v 26.931369 100.611796 -27.524638
v 14.344121 75.759638 -13.086015
v 14.284660 75.516662 -13.575502
v 26.982335 100.820061 -27.105078
v 26.931369 100.611796 -27.524638
v 27.322903 100.540710 -27.272348
v 26.931369 100.611796 -27.524638
v 26.982335 100.820061 -27.105078
v 14.284660 75.516662 -13.575502
v 13.827870 75.599595 -13.869840
v 27.373870 100.748976 -26.852787
v 26.982335 100.820061 -27.105078
v 27.322903 100.540710 -27.272348
v 26.982335 100.820061 -27.105078
v 27.373870 100.748976 -26.852787
v 34.415456 75.352333 3.331705
v 41.935855 78.503915 9.334967
v 43.313183 77.240267 3.331705
v 43.313183 77.240267 3.331705
v 41.935855 78.503915 9.334967
v 44.234815 83.396792 11.170144
v 48.834612 83.396792 3.331705
v 48.834612 83.396792 3.331705
v 44.234815 83.396792 11.170144
v 41.652680 88.720454 9.108918
v 43.283581 88.225398 3.331705
v 34.415456 91.441251 3.331705
v 43.283581 88.225398 3.331705
v 41.652680 88.720454 9.108918
v 34.415456 75.352333 3.331705
v 34.415456 78.137895 9.658858
v 41.935855 78.503915 9.334967
v 41.935855 78.503915 9.334967
v 34.415456 78.137895 9.658858
v 34.415456 83.396792 14.146388
v 44.234815 83.396792 11.170144
v 44.234815 83.396792 11.170144
v 34.415456 83.396792 14.146388
v 34.415456 88.523295 11.116437
v 41.652680 88.720454 9.108918
v 34.415456 91.441251 3.331705
v 41.652680 88.720454 9.108918
v 34.415456 88.523295 11.116437
v 34.415456 75.352333 3.331705
v 28.090026 77.835535 8.381067
v 34.415456 78.137895 9.658858
v 34.415456 78.137895 9.658858
v 28.090026 77.835535 8.381067
v 23.807489 83.396792 11.799660
v 34.415456 83.396792 14.146388
v 34.415456 83.396792 14.146388
v 23.807489 83.396792 11.799660
v 27.224232 88.262450 9.072198
v 34.415456 88.523295 11.116437
v 34.415456 91.441251 3.331705
v 34.415456 88.523295 11.116437
v 27.224232 88.262450 9.072198
v 34.415456 75.352333 3.331705
v 25.066145 77.394482 3.331705
v 28.090026 77.835535 8.381067
v 28.090026 77.835535 8.381067
v 25.066145 77.394482 3.331705
v 20.521563 83.396792 3.331705
v 23.807489 83.396792 11.799660
v 23.807489 83.396792 11.799660
v 20.521563 83.396792 3.331705
v 24.476415 89.584325 3.331705
v 27.224232 88.262450 9.072198
v 34.415456 91.441251 3.331705
v 27.224232 88.262450 9.072198
v 24.476415 89.584325 3.331705
v 34.415456 75.352333 3.331705
v 28.195202 77.403527 -1.633698
v 25.066145 77.394482 3.331705
v 25.066145 77.394482 3.331705
v 28.195202 77.403527 -1.633698
v 26.010400 83.396792 -3.377746
v 20.521563 83.396792 3.331705
v 20.521563 83.396792 3.331705
v 26.010400 83.396792 -3.377746
v 28.070458 88.856758 -1.733277
v 24.476415 89.584325 3.331705
v 34.415456 91.441251 3.331705
v 24.476415 89.584325 3.331705
v 28.070458 88.856758 -1.733277
v 34.415456 75.352333 3.331705
v 34.415456 78.585505 -3.921696
v 28.195202 77.403527 -1.633698
v 28.195202 77.403527 -1.633698
v 34.415456 78.585505 -3.921696
v 34.415456 83.396792 -6.243130
v 26.010400 83.396792 -3.377746
v 26.010400 83.396792 -3.377746
v 34.415456 83.396792 -6.243130
v 34.415456 88.991208 -4.496089
v 28.070458 88.856758 -1.733277
v 34.415456 91.441251 3.331705
v 28.070458 88.856758 -1.733277
v 34.415456 88.991208 -4.496089
v 34.415456 75.352333 3.331705
v 41.261169 78.574279 -2.132979
v 34.415456 78.585505 -3.921696
v 34.415456 78.585505 -3.921696
v 41.261169 78.574279 -2.132979
v 42.661849 83.396792 -3.251091
v 34.415456 83.396792 -6.243130
v 34.415456 83.396792 -6.243130
v 42.661849 83.396792 -3.251091
v 41.688825 89.690419 -2.474362
v 34.415456 88.991208 -4.496089
v 34.415456 91.441251 3.331705
v 34.415456 88.991208 -4.496089
v 41.688825 89.690419 -2.474362
v 34.415456 75.352333 3.331705
v 43.313183 77.240267 3.331705
v 41.261169 78.574279 -2.132979
v 41.261169 78.574279 -2.132979
v 43.313183 77.240267 3.331705
v 48.834612 83.396792 3.331705
v 42.661849 83.396792 -3.251091
v 42.661849 83.396792 -3.251091
v 48.834612 83.396792 3.331705
v 43.283581 88.225398 3.331705
v 41.688825 89.690419 -2.474362
v 34.415456 91.441251 3.331705
v 41.688825 89.690419 -2.474362
v 43.283581 88.225398 3.331705
v 19.731682 77.919783 27.951485
v 24.788793 80.123163 33.160860
v 27.776074 79.637423 27.951485
v 27.776074 79.637423 27.951485
v 24.788793 80.123163 33.160860
v 28.899448 84.897773 37.395282
v 31.071521 84.897773 27.951485
v 31.071521 84.897773 27.951485
v 28.899448 84.897773 37.395282
v 24.782428 89.133180 33.154304
v 28.297166 90.359167 27.951485
v 19.731682 91.875763 27.951485
v 28.297166 90.359167 27.951485
v 24.782428 89.133180 33.154304
v 19.731682 77.919783 27.951485
v 19.731682 79.522276 36.507678
v 24.788793 80.123163 33.160860
v 24.788793 80.123163 33.160860
v 19.731682 79.522276 36.507678
v 19.731682 84.897773 38.438778
v 28.899448 84.897773 37.395282
v 28.899448 84.897773 37.395282
v 19.731682 84.897773 38.438778
v 19.731682 89.177874 36.906417
v 24.782428 89.133180 33.154304
v 19.731682 91.875763 27.951485
v 24.782428 89.133180 33.154304
v 19.731682 89.177874 36.906417
v 19.731682 77.919783 27.951485
v 13.766893 79.763412 34.095867
v 19.731682 79.522276 36.507678
v 19.731682 79.522276 36.507678
v 13.766893 79.763412 34.095867
v 11.607882 84.897773 36.319884
v 19.731682 84.897773 38.438778
v 19.731682 84.897773 38.438778
v 11.607882 84.897773 36.319884
v 14.979487 90.426888 32.846764
v 19.731682 89.177874 36.906417
v 19.731682 91.875763 27.951485
v 19.731682 89.177874 36.906417
v 14.979487 90.426888 32.846764
v 19.731682 77.919783 27.951485
v 12.340218 79.718885 27.951485
v 13.766893 79.763412 34.095867
v 13.766893 79.763412 34.095867
v 12.340218 79.718885 27.951485
v 8.959354 84.897773 27.951485
v 11.607882 84.897773 36.319884
v 11.607882 84.897773 36.319884
v 8.959354 84.897773 27.951485
v 10.941994 90.006543 27.951485
v 14.979487 90.426888 32.846764
v 19.731682 91.875763 27.951485
v 14.979487 90.426888 32.846764
v 10.941994 90.006543 27.951485
v 19.731682 77.919783 27.951485
v 14.184933 79.213223 22.237730
v 12.340218 79.718885 27.951485
v 12.340218 79.718885 27.951485
v 14.184933 79.213223 22.237730
v 12.011964 84.897773 19.999336
v 8.959354 84.897773 27.951485
v 8.959354 84.897773 27.951485
v 12.011964 84.897773 19.999336
v 14.724073 89.530580 22.793104
v 10.941994 90.006543 27.951485
v 19.731682 91.875763 27.951485
v 10.941994 90.006543 27.951485
v 14.724073 89.530580 22.793104
v 19.731682 77.919783 27.951485
v 19.731682 79.785361 20.097213
v 14.184933 79.213223 22.237730
v 14.184933 79.213223 22.237730
v 19.731682 79.785361 20.097213
v 19.731682 84.897773 14.668203
v 12.011964 84.897773 19.999336
v 12.011964 84.897773 19.999336
v 19.731682 84.897773 14.668203
v 19.731682 90.274884 20.198830
v 14.724073 89.530580 22.793104
v 19.731682 91.875763 27.951485
v 14.724073 89.530580 22.793104
v 19.731682 90.274884 20.198830
v 19.731682 77.919783 27.951485
v 26.146019 79.737537 21.344019
v 19.731682 79.785361 20.097213
v 19.731682 79.785361 20.097213
v 26.146019 79.737537 21.344019
v 28.379894 84.897773 19.042885
v 19.731682 84.897773 14.668203
v 19.731682 84.897773 14.668203
v 28.379894 84.897773 19.042885
v 25.288959 90.483894 22.226885
v 19.731682 90.274884 20.198830
v 19.731682 91.875763 27.951485
v 19.731682 90.274884 20.198830
v 25.288959 90.483894 22.226885
v 19.731682 77.919783 27.951485
v 27.776074 79.637423 27.951485
v 26.146019 79.737537 21.344019
v 26.146019 79.737537 21.344019
v 27.776074 79.637423 27.951485
v 31.071521 84.897773 27.951485
v 28.379894 84.897773 19.042885
v 28.379894 84.897773 19.042885
v 31.071521 84.897773 27.951485
v 28.297166 90.359167 27.951485
v 25.288959 90.483894 22.226885
v 19.731682 91.875763 27.951485
v 25.288959 90.483894 22.226885
v 28.297166 90.359167 27.951485
v -13.100748 91.644892 32.105304
v -8.208580 92.895126 36.354098
v -7.149603 93.466739 32.105304
v -7.149603 93.466739 32.105304
v -8.208580 92.895126 36.354098
v -7.018861 97.754460 37.387357
v -3.177783 97.754460 32.105304
v -3.177783 97.754460 32.105304
v -7.018861 97.754460 37.387357
v -8.808015 101.817423 35.833496
v -5.306784 101.563889 32.105304
v -13.100748 103.864027 32.105304
v -5.306784 101.563889 32.105304
v -8.808015 101.817423 35.833496
v -13.100748 91.644892 32.105304
v -13.100748 92.817036 37.622674
v -8.208580 92.895126 36.354098
v -8.208580 92.895126 36.354098
v -13.100748 92.817036 37.622674
v -13.100748 97.754460 40.611672
v -7.018861 97.754460 37.387357
v -7.018861 97.754460 37.387357
v -13.100748 97.754460 40.611672
v -13.100748 101.707199 38.960318
v -8.808015 101.817423 35.833496
v -13.100748 103.864027 32.105304
v -8.808015 101.817423 35.833496
v -13.100748 101.707199 38.960318
v -13.100748 91.644892 32.105304
v -17.275558 93.514929 35.731081
v -13.100748 92.817036 37.622674
v -13.100748 92.817036 37.622674
v -17.275558 93.514929 35.731081
v -20.170960 97.754460 38.245706
v -13.100748 97.754460 40.611672
v -13.100748 97.754460 40.611672
v -20.170960 97.754460 38.245706
v -18.732282 101.486737 36.996230
v -13.100748 101.707199 38.960318
v -13.100748 103.864027 32.105304
v -13.100748 101.707199 38.960318
v -18.732282 101.486737 36.996230
v -13.100748 91.644892 32.105304
v -20.076857 93.013027 32.105304
v -17.275558 93.514929 35.731081
v -17.275558 93.514929 35.731081
v -20.076857 93.013027 32.105304
v -21.510336 97.754460 32.105304
v -20.170960 97.754460 38.245706
v -20.170960 97.754460 38.245706
v -21.510336 97.754460 32.105304
v -19.966402 101.782621 32.105304
v -18.732282 101.486737 36.996230
v -13.100748 103.864027 32.105304
v -18.732282 101.486737 36.996230
v -19.966402 101.782621 32.105304
v -13.100748 91.644892 32.105304
v -18.008652 93.265972 27.842842
v -20.076857 93.013027 32.105304
v -20.076857 93.013027 32.105304
v -18.008652 93.265972 27.842842
v -21.039362 97.754460 25.210703
v -21.510336 97.754460 32.105304
v -21.510336 97.754460 32.105304
v -21.039362 97.754460 25.210703
v -18.418446 101.458097 27.486941
v -19.966402 101.782621 32.105304
v -13.100748 103.864027 32.105304
v -19.966402 101.782621 32.105304
v -18.418446 101.458097 27.486941
v -13.100748 91.644892 32.105304
v -13.100748 94.110630 25.591302
v -18.008652 93.265972 27.842842
v -18.008652 93.265972 27.842842
v -13.100748 94.110630 25.591302
v -13.100748 97.754460 24.000651
v -21.039362 97.754460 25.210703
v -21.039362 97.754460 25.210703
v -13.100748 97.754460 24.000651
v -13.100748 101.457690 25.958150
v -18.418446 101.458097 27.486941
v -13.100748 103.864027 32.105304
v -18.418446 101.458097 27.486941
v -13.100748 101.457690 25.958150
v -13.100748 91.644892 32.105304
v -8.558512 93.740355 28.160421
v -13.100748 94.110630 25.591302
v -13.100748 94.110630 25.591302
v -8.558512 93.740355 28.160421
v -6.326557 97.754460 26.221992
v -13.100748 97.754460 24.000651
v -13.100748 97.754460 24.000651
v -6.326557 97.754460 26.221992
v -7.419238 101.590805 27.170974
v -13.100748 101.457690 25.958150
v -13.100748 103.864027 32.105304
v -13.100748 101.457690 25.958150
v -7.419238 101.590805 27.170974
v -13.100748 91.644892 32.105304
v -7.149603 93.466739 32.105304
v -8.558512 93.740355 28.160421
v -8.558512 93.740355 28.160421
v -7.149603 93.466739 32.105304
v -3.177783 97.754460 32.105304
v -6.326557 97.754460 26.221992
v -6.326557 97.754460 26.221992
v -3.177783 97.754460 32.105304
v -5.306784 101.563889 32.105304
v -7.419238 101.590805 27.170974
v -13.100748 103.864027 32.105304
v -7.419238 101.590805 27.170974
v -5.306784 101.563889 32.105304
v -31.236581 74.342463 6.861899
v -24.135703 76.911311 13.946232
v -22.271327 76.920570 6.861899
v -22.271327 76.920570 6.861899
v -24.135703 76.911311 13.946232
v -21.360298 83.248160 16.715171
v -17.862557 83.248160 6.861899
v -17.862557 83.248160 6.861899
v -21.360298 83.248160 16.715171
v -23.075257 90.211706 15.004208
v -20.725571 88.821903 6.861899
v -31.236581 92.153856 6.861899
v -20.725571 88.821903 6.861899
v -23.075257 90.211706 15.004208
v -31.236581 74.342463 6.861899
v -31.236581 76.981973 15.847927
v -24.135703 76.911311 13.946232
v -24.135703 76.911311 13.946232
v -31.236581 76.981973 15.847927
v -31.236581 83.248160 21.893012
v -21.360298 83.248160 16.715171
v -21.360298 83.248160 16.715171
v -31.236581 83.248160 21.893012
v -31.236581 90.495644 18.469313
v -23.075257 90.211706 15.004208
v -31.236581 92.153856 6.861899
v -23.075257 90.211706 15.004208
v -31.236581 90.495644 18.469313
v -31.236581 74.342463 6.861899
v -39.275930 77.480679 14.882516
v -31.236581 76.981973 15.847927
v -31.236581 76.981973 15.847927
v -39.275930 77.480679 14.882516
v -41.241491 83.248160 16.843497
v -31.236581 83.248160 21.893012
v -31.236581 83.248160 21.893012
v -41.241491 83.248160 16.843497
v -38.220583 89.616098 13.829628
v -31.236581 90.495644 18.469313
v -31.236581 92.153856 6.861899
v -31.236581 90.495644 18.469313
v -38.220583 89.616098 13.829628
v -31.236581 74.342463 6.861899
v -42.053681 76.300177 6.861899
v -39.275930 77.480679 14.882516
v -39.275930 77.480679 14.882516
v -42.053681 76.300177 6.861899
v -44.479058 83.248160 6.861899
v -41.241491 83.248160 16.843497
v -41.241491 83.248160 16.843497
v -44.479058 83.248160 6.861899
v -41.150156 88.730674 6.861899
v -38.220583 89.616098 13.829628
v -31.236581 92.153856 6.861899
v -38.220583 89.616098 13.829628
v -41.150156 88.730674 6.861899
v -31.236581 74.342463 6.861899
v -38.844891 77.756380 -0.728684
v -42.053681 76.300177 6.861899
v -42.053681 76.300177 6.861899
v -38.844891 77.756380 -0.728684
v -42.497445 83.248160 -4.372728
v -44.479058 83.248160 6.861899
v -44.479058 83.248160 6.861899
v -42.497445 83.248160 -4.372728
v -38.889312 90.298512 -0.773001
v -41.150156 88.730674 6.861899
v -31.236581 92.153856 6.861899
v -41.150156 88.730674 6.861899
v -38.889312 90.298512 -0.773001
v -31.236581 74.342463 6.861899
v -31.236581 75.970948 -4.351825
v -38.844891 77.756380 -0.728684
v -38.844891 77.756380 -0.728684
v -31.236581 75.970948 -4.351825
v -31.236581 83.248160 -5.207360
v -42.497445 83.248160 -4.372728
v -42.497445 83.248160 -4.372728
v -31.236581 83.248160 -5.207360
v -31.236581 88.703639 -3.006753
v -38.889312 90.298512 -0.773001
v -31.236581 92.153856 6.861899
v -38.889312 90.298512 -0.773001
v -31.236581 88.703639 -3.006753
v -31.236581 74.342463 6.861899
v -24.121273 75.984766 -0.236831
v -31.236581 75.970948 -4.351825
v -31.236581 75.970948 -4.351825
v -24.121273 75.984766 -0.236831
v -20.634995 83.248160 -3.714986
v -31.236581 83.248160 -5.207360
v -31.236581 83.248160 -5.207360
v -20.634995 83.248160 -3.714986
v -23.181533 89.831434 -1.174382
v -31.236581 88.703639 -3.006753
v -31.236581 92.153856 6.861899
v -31.236581 88.703639 -3.006753
v -23.181533 89.831434 -1.174382
v -31.236581 74.342463 6.861899
v -22.271327 76.920570 6.861899
v -24.121273 75.984766 -0.236831
v -24.121273 75.984766 -0.236831
v -22.271327 76.920570 6.861899
v -17.862557 83.248160 6.861899
v -20.634995 83.248160 -3.714986
v -20.634995 83.248160 -3.714986
v -17.862557 83.248160 6.861899
v -20.725571 88.821903 6.861899
v -23.181533 89.831434 -1.174382
v -31.236581 92.153856 6.861899
v -23.181533 89.831434 -1.174382
v -20.725571 88.821903 6.861899
v -13.642156 88.431192 -16.806135
v -7.225970 90.429692 -11.417149
v -4.858472 91.568034 -16.806135
v -4.858472 91.568034 -16.806135
v -7.225970 90.429692 -11.417149
v -3.074747 97.000645 -7.930517
v 1.677442 97.000645 -16.806135
v 1.677442 97.000645 -16.806135
v -3.074747 97.000645 -7.930517
v -6.768956 102.315921 -11.033301
v -2.646287 102.899112 -16.806135
v -13.642156 105.570097 -16.806135
v -2.646287 102.899112 -16.806135
v -6.768956 102.315921 -11.033301
v -13.642156 88.431192 -16.806135
v -13.642156 91.908511 -8.847419
v -7.225970 90.429692 -11.417149
v -7.225970 90.429692 -11.417149
v -13.642156 91.908511 -8.847419
v -13.642156 97.000645 -6.067063
v -3.074747 97.000645 -7.930517
v -3.074747 97.000645 -7.930517
v -13.642156 97.000645 -6.067063
v -13.642156 103.250493 -9.461311
v -6.768956 102.315921 -11.033301
v -13.642156 105.570097 -16.806135
v -6.768956 102.315921 -11.033301
v -13.642156 103.250493 -9.461311
v -13.642156 88.431192 -16.806135
v -19.529182 90.019103 -11.861593
v -13.642156 91.908511 -8.847419
v -13.642156 91.908511 -8.847419
v -19.529182 90.019103 -11.861593
v -22.511747 97.000645 -9.356523
v -13.642156 97.000645 -6.067063
v -13.642156 97.000645 -6.067063
v -22.511747 97.000645 -9.356523
v -20.273302 102.747458 -11.236603
v -13.642156 103.250493 -9.461311
v -13.642156 105.570097 -16.806135
v -13.642156 103.250493 -9.461311
v -20.273302 102.747458 -11.236603
v -13.642156 88.431192 -16.806135
v -24.350713 91.048750 -16.806135
v -19.529182 90.019103 -11.861593
v -19.529182 90.019103 -11.861593
v -24.350713 91.048750 -16.806135
v -27.235101 97.000645 -16.806135
v -22.511747 97.000645 -9.356523
v -22.511747 97.000645 -9.356523
v -27.235101 97.000645 -16.806135
v -22.982942 103.465615 -16.806135
v -20.273302 102.747458 -11.236603
v -13.642156 105.570097 -16.806135
v -20.273302 102.747458 -11.236603
v -22.982942 103.465615 -16.806135
v -13.642156 88.431192 -16.806135
v -21.396664 90.155691 -23.319185
v -24.350713 91.048750 -16.806135
v -24.350713 91.048750 -16.806135
v -21.396664 90.155691 -23.319185
v -22.535065 97.000645 -24.275333
v -27.235101 97.000645 -16.806135
v -27.235101 97.000645 -16.806135
v -22.535065 97.000645 -24.275333
v -19.860960 102.611402 -22.029339
v -22.982942 103.465615 -16.806135
v -13.642156 105.570097 -16.806135
v -22.982942 103.465615 -16.806135
v -19.860960 102.611402 -22.029339
v -13.642156 88.431192 -16.806135
v -13.642156 91.514036 -25.487420
v -21.396664 90.155691 -23.319185
v -21.396664 90.155691 -23.319185
v -13.642156 91.514036 -25.487420
v -13.642156 97.000645 -29.158880
v -22.535065 97.000645 -24.275333
v -22.535065 97.000645 -24.275333
v -13.642156 97.000645 -29.158880
v -13.642156 102.654982 -24.481077
v -19.860960 102.611402 -22.029339
v -13.642156 105.570097 -16.806135
v -19.860960 102.611402 -22.029339
v -13.642156 102.654982 -24.481077
v -13.642156 88.431192 -16.806135
v -7.621160 91.166676 -21.863199
v -13.642156 91.514036 -25.487420
v -13.642156 91.514036 -25.487420
v -7.621160 91.166676 -21.863199
v -5.116953 97.000645 -23.966495
v -13.642156 97.000645 -29.158880
v -13.642156 97.000645 -29.158880
v -5.116953 97.000645 -23.966495
v -7.645907 102.426557 -21.842415
v -13.642156 102.654982 -24.481077
v -13.642156 105.570097 -16.806135
v -13.642156 102.654982 -24.481077
v -7.645907 102.426557 -21.842415
v -13.642156 88.431192 -16.806135
v -4.858472 91.568034 -16.806135
v -7.621160 91.166676 -21.863199
v -7.621160 91.166676 -21.863199
v -4.858472 91.568034 -16.806135
v 1.677442 97.000645 -16.806135
v -5.116953 97.000645 -23.966495
v -5.116953 97.000645 -23.966495
v 1.677442 97.000645 -16.806135
v -2.646287 102.899112 -16.806135
v -7.645907 102.426557 -21.842415
v -13.642156 105.570097 -16.806135
v -7.645907 102.426557 -21.842415
v -2.646287 102.899112 -16.806135
v 27.322903 95.534402 -27.272348
v 32.658869 97.226652 -22.259796
v 34.602768 97.103271 -27.272348
v 34.602768 97.103271 -27.272348
v 32.658869 97.226652 -22.259796
v 34.455350 101.424177 -20.572199
v 37.670599 101.424177 -27.272348
v 37.670599 101.424177 -27.272348
v 34.455350 101.424177 -20.572199
v 31.953510 106.043637 -22.922403
v 33.200770 105.276085 -27.272348
v 27.322903 107.313951 -27.272348
v 33.200770 105.276085 -27.272348
v 31.953510 106.043637 -22.922403
v 27.322903 95.534402 -27.272348
v 27.322903 97.871160 -20.040803
v 32.658869 97.226652 -22.259796
v 32.658869 97.226652 -22.259796
v 27.322903 97.871160 -20.040803
v 27.322903 101.424177 -18.705168
v 34.455350 101.424177 -20.572199
v 34.455350 101.424177 -20.572199
v 27.322903 101.424177 -18.705168
v 27.322903 106.131603 -20.946382
v 31.953510 106.043637 -22.922403
v 27.322903 107.313951 -27.272348
v 31.953510 106.043637 -22.922403
v 27.322903 106.131603 -20.946382
v 27.322903 95.534402 -27.272348
v 23.184685 96.902762 -23.384947
v 27.322903 97.871160 -20.040803
v 27.322903 97.871160 -20.040803
v 23.184685 96.902762 -23.384947
v 20.254799 101.424177 -20.632642
v 27.322903 101.424177 -18.705168
v 27.322903 101.424177 -18.705168
v 20.254799 101.424177 -20.632642
v 22.450020 106.221732 -22.694811
v 27.322903 106.131603 -20.946382
v 27.322903 107.313951 -27.272348
v 27.322903 106.131603 -20.946382
v 22.450020 106.221732 -22.694811
v 27.322903 95.534402 -27.272348
v 19.684376 97.638443 -27.272348
v 23.184685 96.902762 -23.384947
v 23.184685 96.902762 -23.384947
v 19.684376 97.638443 -27.272348
v 16.455745 101.424177 -27.272348
v 20.254799 101.424177 -20.632642
v 20.254799 101.424177 -20.632642
v 16.455745 101.424177 -27.272348
v 21.357440 105.454263 -27.272348
v 22.450020 106.221732 -22.694811
v 27.322903 107.313951 -27.272348
v 22.450020 106.221732 -22.694811
v 21.357440 105.454263 -27.272348
v 27.322903 95.534402 -27.272348
v 23.308308 97.514645 -31.043618
v 19.684376 97.638443 -27.272348
v 19.684376 97.638443 -27.272348
v 23.308308 97.514645 -31.043618
v 20.265544 101.424177 -33.901960
v 16.455745 101.424177 -27.272348
v 16.455745 101.424177 -27.272348
v 20.265544 101.424177 -33.901960
v 21.991383 104.958294 -32.280724
v 21.357440 105.454263 -27.272348
v 27.322903 107.313951 -27.272348
v 21.357440 105.454263 -27.272348
v 21.991383 104.958294 -32.280724
v 27.322903 95.534402 -27.272348
v 27.322903 96.806380 -34.012654
v 23.308308 97.514645 -31.043618
v 23.308308 97.514645 -31.043618
v 27.322903 96.806380 -34.012654
v 27.322903 101.424177 -35.717003
v 20.265544 101.424177 -33.901960
v 20.265544 101.424177 -33.901960
v 27.322903 101.424177 -35.717003
v 27.322903 105.419986 -34.176934
v 21.991383 104.958294 -32.280724
v 27.322903 107.313951 -27.272348
v 21.991383 104.958294 -32.280724
v 27.322903 105.419986 -34.176934
v 27.322903 95.534402 -27.272348
v 32.372326 97.064826 -32.015724
v 27.322903 96.806380 -34.012654
v 27.322903 96.806380 -34.012654
v 32.372326 97.064826 -32.015724
v 33.126718 101.424177 -32.724393
v 27.322903 101.424177 -35.717003
v 27.322903 101.424177 -35.717003
v 33.126718 101.424177 -32.724393
v 32.688008 106.113790 -32.312273
v 27.322903 105.419986 -34.176934
v 27.322903 107.313951 -27.272348
v 27.322903 105.419986 -34.176934
v 32.688008 106.113790 -32.312273
v 27.322903 95.534402 -27.272348
v 34.602768 97.103271 -27.272348
v 32.372326 97.064826 -32.015724
v 32.372326 97.064826 -32.015724
v 34.602768 97.103271 -27.272348
v 37.670599 101.424177 -27.272348
v 33.126718 101.424177 -32.724393
v 33.126718 101.424177 -32.724393
v 37.670599 101.424177 -27.272348
v 33.200770 105.276085 -27.272348
v 32.688008 106.113790 -32.312273
v 27.322903 107.313951 -27.272348
v 32.688008 106.113790 -32.312273
v 33.200770 105.276085 -27.272348
v 5.916800 95.308295 -2.218800
v 11.473610 98.159825 3.522094
v 14.934081 96.805456 -2.218800
v 14.934081 96.805456 -2.218800
v 11.473610 98.159825 3.522094
v 12.918080 102.569124 5.014416
v 19.483939 102.569124 -2.218800
v 19.483939 102.569124 -2.218800
v 12.918080 102.569124 5.014416
v 11.297417 107.453090 3.340064
v 13.831196 106.916370 -2.218800
v 5.916800 109.829954 -2.218800
v 13.831196 106.916370 -2.218800
v 11.297417 107.453090 3.340064
v 5.916800 95.308295 -2.218800
v 5.916800 98.002612 7.324880
v 11.473610 98.159825 3.522094
v 11.473610 98.159825 3.522094
v 5.916800 98.002612 7.324880
v 5.916800 102.569124 10.823724
v 12.918080 102.569124 5.014416
v 12.918080 102.569124 5.014416
v 5.916800 102.569124 10.823724
v 5.916800 107.243873 6.027911
v 11.297417 107.453090 3.340064
v 5.916800 109.829954 -2.218800
v 11.297417 107.453090 3.340064
v 5.916800 107.243873 6.027911
v 5.916800 95.308295 -2.218800
v 0.077668 96.778235 3.813769
v 5.916800 98.002612 7.324880
v 5.916800 98.002612 7.324880
v 0.077668 96.778235 3.813769
v -1.530790 102.569124 5.475512
v 5.916800 102.569124 10.823724
v 5.916800 102.569124 10.823724
v -1.530790 102.569124 5.475512
v 0.979053 107.406102 2.882523
v 5.916800 107.243873 6.027911
v 5.916800 109.829954 -2.218800
v 5.916800 107.243873 6.027911
v 0.979053 107.406102 2.882523
v 5.916800 95.308295 -2.218800
v -3.612520 97.548639 -2.218800
v 0.077668 96.778235 3.813769
v 0.077668 96.778235 3.813769
v -3.612520 97.548639 -2.218800
v -5.667623 102.569124 -2.218800
v -1.530790 102.569124 5.475512
v -1.530790 102.569124 5.475512
v -5.667623 102.569124 -2.218800
v -3.515286 108.082124 -2.218800
v 0.979053 107.406102 2.882523
v 5.916800 109.829954 -2.218800
v 0.979053 107.406102 2.882523
v -3.515286 108.082124 -2.218800
v 5.916800 95.308295 -2.218800
v 0.926517 98.095537 -7.374399
v -3.612520 97.548639 -2.218800
v -3.612520 97.548639 -2.218800
v 0.926517 98.095537 -7.374399
v -2.293834 102.569124 -10.701433
v -5.667623 102.569124 -2.218800
v -5.667623 102.569124 -2.218800
v -2.293834 102.569124 -10.701433
v -0.802355 108.522592 -9.160545
v -3.515286 108.082124 -2.218800
v 5.916800 109.829954 -2.218800
v -3.515286 108.082124 -2.218800
v -0.802355 108.522592 -9.160545
v 5.916800 95.308295 -2.218800
v 5.916800 97.228007 -11.386069
v 0.926517 98.095537 -7.374399
v 0.926517 98.095537 -7.374399
v 5.916800 97.228007 -11.386069
v 5.916800 102.569124 -15.247448
v -2.293834 102.569124 -10.701433
v -2.293834 102.569124 -10.701433
v 5.916800 102.569124 -15.247448
v 5.916800 107.672201 -11.322269
v -0.802355 108.522592 -9.160545
v 5.916800 109.829954 -2.218800
v -0.802355 108.522592 -9.160545
v 5.916800 107.672201 -11.322269
v 5.916800 95.308295 -2.218800
v 12.459185 97.550276 -8.977918
v 5.916800 97.228007 -11.386069
v 5.916800 97.228007 -11.386069
v 12.459185 97.550276 -8.977918
v 14.231052 102.569124 -10.808483
v 5.916800 102.569124 -15.247448
v 5.916800 102.569124 -15.247448
v 14.231052 102.569124 -10.808483
v 12.516523 107.775721 -9.037156
v 5.916800 107.672201 -11.322269
v 5.916800 109.829954 -2.218800
v 5.916800 107.672201 -11.322269
v 12.516523 107.775721 -9.037156
v 5.916800 95.308295 -2.218800
v 14.934081 96.805456 -2.218800
v 12.459185 97.550276 -8.977918
v 12.459185 97.550276 -8.977918
v 14.934081 96.805456 -2.218800
v 19.483939 102.569124 -2.218800
v 14.231052 102.569124 -10.808483
v 14.231052 102.569124 -10.808483
v 19.483939 102.569124 -2.218800
v 13.831196 106.916370 -2.218800
v 12.516523 107.775721 -9.037156
v 5.916800 109.829954 -2.218800
v 12.516523 107.775721 -9.037156
v 13.831196 106.916370 -2.218800
vt 0.000000 0.000000
vt 1.000000 0.000000
vt 1.000000 1.000000
vt 0.000000 1.000000
vt 0.500000 1.000000
vt 0.000000 0.000000
vt 1.000000 0.000000
vt 0.000000 0.000000
vt 1.000000 0.000000
vt 1.000000 1.000000
vt 0.000000 1.000000
vt 0.500000 1.000000
vt 0.000000 0.000000
vt 1.000000 0.000000
vt 0.000000 0.000000
vt 1.000000 0.000000
vt 1.000000 1.000000
vt 0.000000 1.000000
vt 0.500000 1.000000
vt 0.000000 0.000000
vt 1.000000 0.000000
vt 0.000000 0.000000
vt 1.000000 0.000000
vt 1.000000 1.000000
vt 0.000000 1.000000
vt 0.500000 1.000000
vt 0.000000 0.000000
vt 1.000000 0.000000
vt 0.000000 0.000000
vt 1.000000 0.000000
vt 1.000000 1.000000
vt 0.000000 1.000000
vt 0.500000 1.000000
vt 0.000000 0.000000
vt 1.000000 0.000000
vt 0.000000 0.000000
vt 1.000000 0.000000
vt 1.000000 1.000000
vt 0.000000 1.000000
vt 0.500000 1.000000
vt 0.000000 0.000000
vt 1.000000 0.000000
vt 0.000000 0.000000
vt 1.000000 0.000000
vt 1.000000 1.000000
vt 0.000000 1.000000
vt 0.500000 1.000000
vt 0.000000 0.000000
vt 1.000000 0.000000
vt 0.000000 0.000000
vt 1.000000 0.000000
vt 1.000000 1.000000
vt 0.000000 1.000000
vt 0.500000 1.000000
vt 0.000000 0.000000
vt 1.000000 0.000000
vt 0.000000 0.000000
vt 1.000000 0.000000
vt 1.000000 1.000000
vt 0.000000 1.000000
vt 0.500000 1.000000
vt 0.000000 0.000000
vt 1.000000 0.000000
vt 0.000000 0.000000
vt 1.000000 0.000000
vt 1.000000 1.000000
vt 0.000000 1.000000
vt 0.000000 0.000000
vt 1.000000 0.000000
vt 1.000000 1.000000
vt 0.000000 1.000000
vt 0.000000 0.000000
vt 1.000000 0.000000
vt 1.000000 1.000000
vt 0.000000 1.000000
vt 0.000000 0.000000
vt 1.000000 0.000000
vt 1.000000 1.000000
vt 0.000000 1.000000
vt 0.000000 0.000000
vt 1.000000 0.000000
vt 1.000000 1.000000
vt 0.000000 1.000000
vt 0.000000 0.000000
vt 1.000000 0.000000
vt 1.000000 1.000000
vt 0.000000 1.000000
vt 0.000000 0.000000
vt 1.000000 0.000000
vt 1.000000 1.000000
vt 0.000000 1.000000
vt 0.000000 0.000000
vt 1.000000 0.000000
vt 1.000000 1.000000
vt 0.000000 1.000000
vt 0.000000 0.000000
vt 1.000000 0.000000
vt 1.000000 1.000000
vt 0.000000 1.000000
vt 0.000000 0.000000
vt 1.000000 0.000000
vt 1.000000 1.000000
vt 0.000000 1.000000
vt 0.500000 1.000000
vt 0.000000 0.000000
vt 1.000000 0.000000
vt 0.000000 0.000000
vt 1.000000 0.000000
vt 1.000000 1.000000
vt 0.000000 1.000000
vt 0.500000 1.000000
vt 0.000000 0.000000
vt 1.000000 0.000000
vt 0.000000 0.000000
vt 1.000000 0.000000
vt 1.000000 1.000000
vt 0.000000 1.000000
vt 0.500000 1.000000
vt 0.000000 0.000000
vt 1.000000 0.000000
vt 0.000000 0.000000
vt 1.000000 0.000000
vt 1.000000 1.000000
vt 0.000000 1.000000
vt 0.500000 1.000000
vt 0.000000 0.000000
vt 1.000000 0.000000
vt 0.000000 0.000000
vt 1.000000 0.000000
vt 1.000000 1.000000
vt 0.000000 1.000000
vt 0.500000 1.000000
vt 0.000000 0.000000
vt 1.000000 0.000000
vt 0.000000 0.000000
vt 1.000000 0.000000
vt 1.000000 1.000000
vt 0.000000 1.000000
vt 0.500000 1.000000
vt 0.000000 0.000000
vt 1.000000 0.000000
vt 0.000000 0.000000
vt 1.000000 0.000000
vt 1.000000 1.000000
vt 0.000000 1.000000
vt 0.500000 1.000000
vt 0.000000 0.000000
vt 1.000000 0.000000
vt 0.000000 0.000000
vt 1.000000 0.000000
vt 1.000000 1.000000
vt 0.000000 1.000000
vt 0.500000 1.000000
vt 0.000000 0.000000
vt 1.000000 0.000000
vt 0.000000 0.000000
vt 1.000000 0.000000
vt 1.000000 1.000000
vt 0.000000 1.000000
vt 0.500000 1.000000
vt 0.000000 0.000000
vt 1.000000 0.000000
vt 0.000000 0.000000
vt 1.000000 0.000000
vt 1.000000 1.000000
vt 0.000000 1.000000
vt 0.500000 1.000000
vt 0.000000 0.000000
vt 1.000000 0.000000
vt 0.000000 0.000000
vt 1.000000 0.000000
vt 1.000000 1.000000
vt 0.000000 1.000000
vt 0.500000 1.000000
vt 0.000000 0.000000
vt 1.000000 0.000000
vt 0.000000 0.000000
vt 1.000000 0.000000
vt 1.000000 1.000000
vt 0.000000 1.000000
vt 0.500000 1.000000
vt 0.000000 0.000000
vt 1.000000 0.000000
vt 0.000000 0.000000
vt 1.000000 0.000000
vt 1.000000 1.000000
vt 0.000000 1.000000
vt 0.500000 1.000000
vt 0.000000 0.000000
vt 1.000000 0.000000
vt 0.000000 0.000000
vt 1.000000 0.000000
vt 1.000000 1.000000
vt 0.000000 1.000000
vt 0.500000 1.000000
vt 0.000000 0.000000
vt 1.000000 0.000000
vt 0.000000 0.000000
vt 1.000000 0.000000
vt 1.000000 1.000000
vt 0.000000 1.000000
vt 0.500000 1.000000
vt 0.000000 0.000000
vt 1.000000 0.000000
vt 0.000000 0.000000
vt 1.000000 0.000000
vt 1.000000 1.000000
vt 0.000000 1.000000
vt 0.500000 1.000000
vt 0.000000 0.000000
vt 1.000000 0.000000
vt 0.000000 0.000000
vt 1.000000 0.000000
vt 1.000000 1.000000
vt 0.000000 1.000000
vt 0.500000 1.000000
vt 0.000000 0.000000
vt 1.000000 0.000000
vt 0.000000 0.000000
vt 1.000000 0.000000
vt 1.000000 1.000000
vt 0.000000 1.000000
vt 0.500000 1.000000
vt 0.000000 0.000000
vt 1.000000 0.000000
vt 0.000000 0.000000
vt 1.000000 0.000000
vt 1.000000 1.000000
vt 0.000000 1.000000
vt 0.500000 1.000000
vt 0.000000 0.000000
vt 1.000000 0.000000
vt 0.000000 0.000000
vt 1.000000 0.000000
vt 1.000000 1.000000
vt 0.000000 1.000000
vt 0.500000 1.000000
vt 0.000000 0.000000
vt 1.000000 0.000000
vt 0.000000 0.000000
vt 1.000000 0.000000
vt 1.000000 1.000000
vt 0.000000 1.000000
vt 0.500000 1.000000
vt 0.000000 0.000000
vt 1.000000 0.000000
vt 0.000000 0.000000
vt 1.000000 0.000000
vt 1.000000 1.000000
vt 0.000000 1.000000
vt 0.500000 1.000000
vt 0.000000 0.000000
vt 1.000000 0.000000
vt 0.000000 0.000000
vt 1.000000 0.000000
vt 1.000000 1.000000
vt 0.000000 1.000000
vt 0.500000 1.000000
vt 0.000000 0.000000
vt 1.000000 0.000000
vt 0.000000 0.000000
vt 1.000000 0.000000
vt 1.000000 1.000000
vt 0.000000 1.000000
vt 0.500000 1.000000
vt 0.000000 0.000000
vt 1.000000 0.000000
vt 0.000000 0.000000
vt 1.000000 0.000000
vt 1.000000 1.000000
vt 0.000000 1.000000
vt 0.500000 1.000000
vt 0.000000 0.000000
vt 1.000000 0.000000
vt 0.000000 0.000000
vt 1.000000 0.000000
vt 1.000000 1.000000
vt 0.000000 1.000000
vt 0.500000 1.000000
vt 0.000000 0.000000
vt 1.000000 0.000000
vt 0.000000 0.000000
vt 1.000000 0.000000
vt 1.000000 1.000000
vt 0.000000 1.000000
vt 0.500000 1.000000
vt 0.000000 0.000000
vt 1.000000 0.000000
vt 0.000000 0.000000
vt 1.000000 0.000000
vt 1.000000 1.000000
vt 0.000000 1.000000
vt 0.500000 1.000000
vt 0.000000 0.000000
vt 1.000000 0.000000
vt 0.000000 0.000000
vt 1.000000 0.000000
vt 1.000000 1.000000
vt 0.000000 1.000000
vt 0.500000 1.000000
vt 0.000000 0.000000
vt 1.000000 0.000000
vt 0.000000 0.000000
vt 1.000000 0.000000
vt 1.000000 1.000000
vt 0.000000 1.000000
vt 0.500000 1.000000
vt 0.000000 0.000000
vt 1.000000 0.000000
vt 0.000000 0.000000
vt 1.000000 0.000000
vt 1.000000 1.000000
vt 0.000000 1.000000
vt 0.500000 1.000000
vt 0.000000 0.000000
vt 1.000000 0.000000
vt 0.000000 0.000000
vt 1.000000 0.000000
vt 1.000000 1.000000
vt 0.000000 1.000000
vt 0.500000 1.000000
vt 0.000000 0.000000
vt 1.000000 0.000000
vt 0.000000 0.000000
vt 1.000000 0.000000
vt 1.000000 1.000000
vt 0.000000 1.000000
vt 0.500000 1.000000
vt 0.000000 0.000000
vt 1.000000 0.000000
vt 0.000000 0.000000
vt 1.000000 0.000000
vt 1.000000 1.000000
vt 0.000000 1.000000
vt 0.500000 1.000000
vt 0.000000 0.000000
vt 1.000000 0.000000
vt 0.000000 0.000000
vt 1.000000 0.000000
vt 1.000000 1.000000
vt 0.000000 1.000000
vt 0.500000 1.000000
vt 0.000000 0.000000
vt 1.000000 0.000000
vt 0.000000 0.000000
vt 1.000000 0.000000
vt 1.000000 1.000000
vt 0.000000 1.000000
vt 0.500000 1.000000
vt 0.000000 0.000000
vt 1.000000 0.000000
vt 0.000000 0.000000
vt 1.000000 0.000000
vt 1.000000 1.000000
vt 0.000000 1.000000
vt 0.500000 1.000000
vt 0.000000 0.000000
vt 1.000000 0.000000
vt 0.000000 0.000000
vt 1.000000 0.000000
vt 1.000000 1.000000
vt 0.000000 1.000000
vt 0.500000 1.000000
vt 0.000000 0.000000
vt 1.000000 0.000000
vt 0.000000 0.000000
vt 1.000000 0.000000
vt 1.000000 1.000000
vt 0.000000 1.000000
vt 0.500000 1.000000
vt 0.000000 0.000000
vt 1.000000 0.000000
vt 0.000000 0.000000
vt 1.000000 0.000000
vt 1.000000 1.000000
vt 0.000000 1.000000
vt 0.500000 1.000000
vt 0.000000 0.000000
vt 1.000000 0.000000
vt 0.000000 0.000000
vt 1.000000 0.000000
vt 1.000000 1.000000
vt 0.000000 1.000000
vt 0.500000 1.000000
vt 0.000000 0.000000
vt 1.000000 0.000000
vt 0.000000 0.000000
vt 1.000000 0.000000
vt 1.000000 1.000000
vt 0.000000 1.000000
vt 0.500000 1.000000
vt 0.000000 0.000000
vt 1.000000 0.000000
vt 0.000000 0.000000
vt 1.000000 0.000000
vt 1.000000 1.000000
vt 0.000000 1.000000
vt 0.500000 1.000000
vt 0.000000 0.000000
vt 1.000000 0.000000
vt 0.000000 0.000000
vt 1.000000 0.000000
vt 1.000000 1.000000
vt 0.000000 1.000000
vt 0.500000 1.000000
vt 0.000000 0.000000
vt 1.000000 0.000000
vt 0.000000 0.000000
vt 1.000000 0.000000
vt 1.000000 1.000000
vt 0.000000 1.000000
vt 0.500000 1.000000
vt 0.000000 0.000000
vt 1.000000 0.000000
vt 0.000000 0.000000
vt 1.000000 0.000000
vt 1.000000 1.000000
vt 0.000000 1.000000
vt 0.500000 1.000000
vt 0.000000 0.000000
vt 1.000000 0.000000
vt 0.000000 0.000000
vt 1.000000 0.000000
vt 1.000000 1.000000
vt 0.000000 1.000000
vt 0.500000 1.000000
vt 0.000000 0.000000
vt 1.000000 0.000000
vt 0.000000 0.000000
vt 1.000000 0.000000
vt 1.000000 1.000000
vt 0.000000 1.000000
vt 0.500000 1.000000
vt 0.000000 0.000000
vt 1.000000 0.000000
vt 0.000000 0.000000
vt 1.000000 0.000000
vt 1.000000 1.000000
vt 0.000000 1.000000
vt 0.500000 1.000000
vt 0.000000 0.000000
vt 1.000000 0.000000
vt 0.000000 0.000000
vt 1.000000 0.000000
vt 1.000000 1.000000
vt 0.000000 1.000000
vt 0.500000 1.000000
vt 0.000000 0.000000
vt 1.000000 0.000000
vt 0.000000 0.000000
vt 1.000000 0.000000
vt 1.000000 1.000000
vt 0.000000 1.000000
vt 0.500000 1.000000
vt 0.000000 0.000000
vt 1.000000 0.000000
vt 0.000000 0.000000
vt 1.000000 0.000000
vt 1.000000 1.000000
vt 0.000000 1.000000
vt 0.500000 1.000000
vt 0.000000 0.000000
vt 1.000000 0.000000
vt 0.000000 0.000000
vt 1.000000 0.000000
vt 1.000000 1.000000
vt 0.000000 1.000000
vt 0.500000 1.000000
vt 0.000000 0.000000
vt 1.000000 0.000000
vt 0.000000 0.000000
vt 1.000000 0.000000
vt 1.000000 1.000000
vt 0.000000 1.000000
vt 0.500000 1.000000
vt 0.000000 0.000000
vt 1.000000 0.000000
vt 0.000000 0.000000
vt 1.000000 0.000000
vt 1.000000 1.000000
vt 0.000000 1.000000
vt 0.500000 1.000000
vt 0.000000 0.000000
vt 1.000000 0.000000
vt 0.000000 0.000000
vt 1.000000 0.000000
vt 1.000000 1.000000
vt 0.000000 1.000000
vt 0.500000 1.000000
vt 0.000000 0.000000
vt 1.000000 0.000000
vt 0.000000 0.000000
vt 1.000000 0.000000
vt 1.000000 1.000000
vt 0.000000 1.000000
vt 0.500000 1.000000
vt 0.000000 0.000000
vt 1.000000 0.000000
vt 0.000000 0.000000
vt 1.000000 0.000000
vt 1.000000 1.000000
vt 0.000000 1.000000
vt 0.500000 1.000000
vt 0.000000 0.000000
vt 1.000000 0.000000
vt 0.000000 0.000000
vt 1.000000 0.000000
vt 1.000000 1.000000
vt 0.000000 1.000000
vt 0.500000 1.000000
vt 0.000000 0.000000
vt 1.000000 0.000000
vt 0.000000 0.000000
vt 1.000000 0.000000
vt 1.000000 1.000000
vt 0.000000 1.000000
vt 0.500000 1.000000
vt 0.000000 0.000000
vt 1.000000 0.000000
vt 0.000000 0.000000
vt 1.000000 0.000000
vt 1.000000 1.000000
vt 0.000000 1.000000
vt 0.500000 1.000000
vt 0.000000 0.000000
vt 1.000000 0.000000
vt 0.000000 0.000000
vt 1.000000 0.000000
vt 1.000000 1.000000
vt 0.000000 1.000000
vt 0.500000 1.000000
vt 0.000000 0.000000
vt 1.000000 0.000000
vt 0.000000 0.000000
vt 1.000000 0.000000
vt 1.000000 1.000000
vt 0.000000 1.000000
vt 0.500000 1.000000
vt 0.000000 0.000000
vt 1.000000 0.000000
vt 0.000000 0.000000
vt 1.000000 0.000000
vt 1.000000 1.000000
vt 0.000000 1.000000
vt 0.500000 1.000000
vt 0.000000 0.000000
vt 1.000000 0.000000
vt 0.000000 0.000000
vt 1.000000 0.000000
vt 1.000000 1.000000
vt 0.000000 1.000000
vt 0.500000 1.000000
vt 0.000000 0.000000
vt 1.000000 0.000000
vt 0.000000 0.000000
vt 1.000000 0.000000
vt 1.000000 1.000000
vt 0.000000 1.000000
vt 0.500000 1.000000
vt 0.000000 0.000000
vt 1.000000 0.000000
vt 0.000000 0.000000
vt 1.000000 0.000000
vt 1.000000 1.000000
vt 0.000000 1.000000
vt 0.500000 1.000000
vt 0.000000 0.000000
vt 1.000000 0.000000
vt 0.000000 0.000000
vt 1.000000 0.000000
vt 1.000000 1.000000
vt 0.000000 1.000000
vt 0.500000 1.000000
vt 0.000000 0.000000
vt 1.000000 0.000000
vt 0.000000 0.000000
vt 1.000000 0.000000
vt 1.000000 1.000000
vt 0.000000 1.000000
vt 0.500000 1.000000
vt 0.000000 0.000000
vt 1.000000 0.000000
vt 0.000000 0.000000
vt 1.000000 0.000000
vt 1.000000 1.000000
vt 0.000000 1.000000
vt 0.500000 1.000000
vt 0.000000 0.000000
vt 1.000000 0.000000
vt 0.000000 0.000000
vt 1.000000 0.000000
vt 1.000000 1.000000
vt 0.000000 1.000000
vt 0.500000 1.000000
vt 0.000000 0.000000
vt 1.000000 0.000000
vt 0.000000 0.000000
vt 1.000000 0.000000
vt 1.000000 1.000000
vt 0.000000 1.000000
vt 0.500000 1.000000
vt 0.000000 0.000000
vt 1.000000 0.000000
vt 0.000000 0.000000
vt 1.000000 0.000000
vt 1.000000 1.000000
vt 0.000000 1.000000
vt 0.500000 1.000000
vt 0.000000 0.000000
vt 1.000000 0.000000
vt 0.000000 0.000000
vt 1.000000 0.000000
vt 1.000000 1.000000
vt 0.000000 1.000000
vt 0.500000 1.000000
vt 0.000000 0.000000
vt 1.000000 0.000000
vt 0.000000 0.000000
vt 1.000000 0.000000
vt 1.000000 1.000000
vt 0.000000 1.000000
vt 0.500000 1.000000
vt 0.000000 0.000000
vt 1.000000 0.000000
vt 0.000000 0.000000
vt 1.000000 0.000000
vt 1.000000 1.000000
vt 0.000000 1.000000
vt 0.500000 1.000000
vt 0.000000 0.000000
vt 1.000000 0.000000
vt 0.000000 0.000000
vt 1.000000 0.000000
vt 1.000000 1.000000
vt 0.000000 1.000000
vt 0.500000 1.000000
vt 0.000000 0.000000
vt 1.000000 0.000000
vt 0.000000 0.000000
vt 1.000000 0.000000
vt 1.000000 1.000000
vt 0.000000 1.000000
vt 0.500000 1.000000
vt 0.000000 0.000000
vt 1.000000 0.000000
vt 0.000000 0.000000
vt 1.000000 0.000000
vt 1.000000 1.000000
vt 0.000000 1.000000
vt 0.500000 1.000000
vt 0.000000 0.000000
vt 1.000000 0.000000
vt 0.000000 0.000000
vt 1.000000 0.000000
vt 1.000000 1.000000
vt 0.000000 1.000000
vt 0.500000 1.000000
vt 0.000000 0.000000
vt 1.000000 0.000000
vt 0.000000 0.000000
vt 1.000000 0.000000
vt 1.000000 1.000000
vt 0.000000 1.000000
vt 0.500000 1.000000
vt 0.000000 0.000000
vt 1.000000 0.000000
vt 0.500000 1.000000
vt 0.000000 0.000000
vt 1.000000 0.000000
vt 0.000000 0.000000
vt 1.000000 0.000000
vt 1.000000 1.000000
vt 0.000000 1.000000
vt 0.000000 0.000000
vt 1.000000 0.000000
vt 1.000000 1.000000
vt 0.000000 1.000000
vt 0.500000 1.000000
vt 0.000000 0.000000
vt 1.000000 0.000000
vt 0.500000 1.000000
vt 0.000000 0.000000
vt 1.000000 0.000000
vt 0.000000 0.000000
vt 1.000000 0.000000
vt 1.000000 1.000000
vt 0.000000 1.000000
vt 0.000000 0.000000
vt 1.000000 0.000000
vt 1.000000 1.000000
vt 0.000000 1.000000
vt 0.500000 1.000000
vt 0.000000 0.000000
vt 1.000000 0.000000
vt 0.500000 1.000000
vt 0.000000 0.000000
vt 1.000000 0.000000
vt 0.000000 0.000000
vt 1.000000 0.000000
vt 1.000000 1.000000
vt 0.000000 1.000000
vt 0.000000 0.000000
vt 1.000000 0.000000
vt 1.000000 1.000000
vt 0.000000 1.000000
vt 0.500000 1.000000
vt 0.000000 0.000000
vt 1.000000 0.000000
vt 0.500000 1.000000
vt 0.000000 0.000000
vt 1.000000 0.000000
vt 0.000000 0.000000
vt 1.000000 0.000000
vt 1.000000 1.000000
vt 0.000000 1.000000
vt 0.000000 0.000000
vt 1.000000 0.000000
vt 1.000000 1.000000
vt 0.000000 1.000000
vt 0.500000 1.000000
vt 0.000000 0.000000
vt 1.000000 0.000000
vt 0.500000 1.000000
vt 0.000000 0.000000
vt 1.000000 0.000000
vt 0.000000 0.000000
vt 1.000000 0.000000
vt 1.000000 1.000000
vt 0.000000 1.000000
vt 0.000000 0.000000
vt 1.000000 0.000000
vt 1.000000 1.000000
vt 0.000000 1.000000
vt 0.500000 1.000000
vt 0.000000 0.000000
vt 1.000000 0.000000
vt 0.500000 1.000000
vt 0.000000 0.000000
vt 1.000000 0.000000
vt 0.000000 0.000000
vt 1.000000 0.000000
vt 1.000000 1.000000
vt 0.000000 1.000000
vt 0.000000 0.000000
vt 1.000000 0.000000
vt 1.000000 1.000000
vt 0.000000 1.000000
vt 0.500000 1.000000
vt 0.000000 0.000000
vt 1.000000 0.000000
vt 0.500000 1.000000
vt 0.000000 0.000000
vt 1.000000 0.000000
vt 0.000000 0.000000
vt 1.000000 0.000000
vt 1.000000 1.000000
vt 0.000000 1.000000
vt 0.000000 0.000000
vt 1.000000 0.000000
vt 1.000000 1.000000
vt 0.000000 1.000000
vt 0.500000 1.000000
vt 0.000000 0.000000
vt 1.000000 0.000000
vt 0.500000 1.000000
vt 0.000000 0.000000
vt 1.000000 0.000000
vt 0.000000 0.000000
vt 1.000000 0.000000
vt 1.000000 1.000000
vt 0.000000 1.000000
vt 0.000000 0.000000
vt 1.000000 0.000000
vt 1.000000 1.000000
vt 0.000000 1.000000
vt 0.500000 1.000000
vt 0.000000 0.000000
vt 1.000000 0.000000
vt 0.500000 1.000000
vt 0.000000 0.000000
vt 1.000000 0.000000
vt 0.000000 0.000000
vt 1.000000 0.000000
vt 1.000000 1.000000
vt 0.000000 1.000000
vt 0.000000 0.000000
vt 1.000000 0.000000
vt 1.000000 1.000000
vt 0.000000 1.000000
vt 0.500000 1.000000
vt 0.000000 0.000000
vt 1.000000 0.000000
vt 0.500000 1.000000
vt 0.000000 0.000000
vt 1.000000 0.000000
vt 0.000000 0.000000
vt 1.000000 0.000000
vt 1.000000 1.000000
vt 0.000000 1.000000
vt 0.000000 0.000000
vt 1.000000 0.000000
vt 1.000000 1.000000
vt 0.000000 1.000000
vt 0.500000 1.000000
vt 0.000000 0.000000
vt 1.000000 0.000000
vt 0.500000 1.000000
vt 0.000000 0.000000
vt 1.000000 0.000000
vt 0.000000 0.000000
vt 1.000000 0.000000
vt 1.000000 1.000000
vt 0.000000 1.000000
vt 0.000000 0.000000
vt 1.000000 0.000000
vt 1.000000 1.000000
vt 0.000000 1.000000
vt 0.500000 1.000000
vt 0.000000 0.000000
vt 1.000000 0.000000
vt 0.500000 1.000000
vt 0.000000 0.000000
vt 1.000000 0.000000
vt 0.000000 0.000000
vt 1.000000 0.000000
vt 1.000000 1.000000
vt 0.000000 1.000000
vt 0.000000 0.000000
vt 1.000000 0.000000
vt 1.000000 1.000000
vt 0.000000 1.000000
vt 0.500000 1.000000
vt 0.000000 0.000000
vt 1.000000 0.000000
vt 0.500000 1.000000
vt 0.000000 0.000000
vt 1.000000 0.000000
vt 0.000000 0.000000
vt 1.000000 0.000000
vt 1.000000 1.000000
vt 0.000000 1.000000
vt 0.000000 0.000000
vt 1.000000 0.000000
vt 1.000000 1.000000
vt 0.000000 1.000000
vt 0.500000 1.000000
vt 0.000000 0.000000
vt 1.000000 0.000000
vt 0.500000 1.000000
vt 0.000000 0.000000
vt 1.000000 0.000000
vt 0.000000 0.000000
vt 1.000000 0.000000
vt 1.000000 1.000000
vt 0.000000 1.000000
vt 0.000000 0.000000
vt 1.000000 0.000000
vt 1.000000 1.000000
vt 0.000000 1.000000
vt 0.500000 1.000000
vt 0.000000 0.000000
vt 1.000000 0.000000
vt 0.500000 1.000000
vt 0.000000 0.000000
vt 1.000000 0.000000
vt 0.000000 0.000000
vt 1.000000 0.000000
vt 1.000000 1.000000
vt 0.000000 1.000000
vt 0.000000 0.000000
vt 1.000000 0.000000
vt 1.000000 1.000000
vt 0.000000 1.000000
vt 0.500000 1.000000
vt 0.000000 0.000000
vt 1.000000 0.000000
vt 0.500000 1.000000
vt 0.000000 0.000000
vt 1.000000 0.000000
vt 0.000000 0.000000
vt 1.000000 0.000000
vt 1.000000 1.000000
vt 0.000000 1.000000
vt 0.000000 0.000000
vt 1.000000 0.000000
vt 1.000000 1.000000
vt 0.000000 1.000000
vt 0.500000 1.000000
vt 0.000000 0.000000
vt 1.000000 0.000000
vt 0.500000 1.000000
vt 0.000000 0.000000
vt 1.000000 0.000000
vt 0.000000 0.000000
vt 1.000000 0.000000
vt 1.000000 1.000000
vt 0.000000 1.000000
vt 0.000000 0.000000
vt 1.000000 0.000000
vt 1.000000 1.000000
vt 0.000000 1.000000
vt 0.500000 1.000000
vt 0.000000 0.000000
vt 1.000000 0.000000
vt 0.500000 1.000000
vt 0.000000 0.000000
vt 1.000000 0.000000
vt 0.000000 0.000000
vt 1.000000 0.000000
vt 1.000000 1.000000
vt 0.000000 1.000000
vt 0.000000 0.000000
vt 1.000000 0.000000
vt 1.000000 1.000000
vt 0.000000 1.000000
vt 0.500000 1.000000
vt 0.000000 0.000000
vt 1.000000 0.000000
vt 0.500000 1.000000
vt 0.000000 0.000000
vt 1.000000 0.000000
vt 0.000000 0.000000
vt 1.000000 0.000000
vt 1.000000 1.000000
vt 0.000000 1.000000
vt 0.000000 0.000000
vt 1.000000 0.000000
vt 1.000000 1.000000
vt 0.000000 1.000000
vt 0.500000 1.000000
vt 0.000000 0.000000
vt 1.000000 0.000000
vt 0.500000 1.000000
vt 0.000000 0.000000
vt 1.000000 0.000000
vt 0.000000 0.000000
vt 1.000000 0.000000
vt 1.000000 1.000000
vt 0.000000 1.000000
vt 0.000000 0.000000
vt 1.000000 0.000000
vt 1.000000 1.000000
vt 0.000000 1.000000
vt 0.500000 1.000000
vt 0.000000 0.000000
vt 1.000000 0.000000
vt 0.500000 1.000000
vt 0.000000 0.000000
vt 1.000000 0.000000
vt 0.000000 0.000000
vt 1.000000 0.000000
vt 1.000000 1.000000
vt 0.000000 1.000000
vt 0.000000 0.000000
vt 1.000000 0.000000
vt 1.000000 1.000000
vt 0.000000 1.000000
vt 0.500000 1.000000
vt 0.000000 0.000000
vt 1.000000 0.000000
vt 0.500000 1.000000
vt 0.000000 0.000000
vt 1.000000 0.000000
vt 0.000000 0.000000
vt 1.000000 0.000000
vt 1.000000 1.000000
vt 0.000000 1.000000
vt 0.000000 0.000000
vt 1.000000 0.000000
vt 1.000000 1.000000
vt 0.000000 1.000000
vt 0.500000 1.000000
vt 0.000000 0.000000
vt 1.000000 0.000000
vt 0.500000 1.000000
vt 0.000000 0.000000
vt 1.000000 0.000000
vt 0.000000 0.000000
vt 1.000000 0.000000
vt 1.000000 1.000000
vt 0.000000 1.000000
vt 0.000000 0.000000
vt 1.000000 0.000000
vt 1.000000 1.000000
vt 0.000000 1.000000
vt 0.500000 1.000000
vt 0.000000 0.000000
vt 1.000000 0.000000
vt 0.500000 1.000000
vt 0.000000 0.000000
vt 1.000000 0.000000
vt 0.000000 0.000000
vt 1.000000 0.000000
vt 1.000000 1.000000
vt 0.000000 1.000000
vt 0.000000 0.000000
vt 1.000000 0.000000
vt 1.000000 1.000000
vt 0.000000 1.000000
vt 0.500000 1.000000
vt 0.000000 0.000000
vt 1.000000 0.000000
vt 0.500000 1.000000
vt 0.000000 0.000000
vt 1.000000 0.000000
vt 0.000000 0.000000
vt 1.000000 0.000000
vt 1.000000 1.000000
vt 0.000000 1.000000
vt 0.000000 0.000000
vt 1.000000 0.000000
vt 1.000000 1.000000
vt 0.000000 1.000000
vt 0.500000 1.000000
vt 0.000000 0.000000
vt 1.000000 0.000000
vt 0.500000 1.000000
vt 0.000000 0.000000
vt 1.000000 0.000000
vt 0.000000 0.000000
vt 1.000000 0.000000
vt 1.000000 1.000000
vt 0.000000 1.000000
vt 0.000000 0.000000
vt 1.000000 0.000000
vt 1.000000 1.000000
vt 0.000000 1.000000
vt 0.500000 1.000000
vt 0.000000 0.000000
vt 1.000000 0.000000
vt 0.500000 1.000000
vt 0.000000 0.000000
vt 1.000000 0.000000
vt 0.000000 0.000000
vt 1.000000 0.000000
vt 1.000000 1.000000
vt 0.000000 1.000000
vt 0.000000 0.000000
vt 1.000000 0.000000
vt 1.000000 1.000000
vt 0.000000 1.000000
vt 0.500000 1.000000
vt 0.000000 0.000000
vt 1.000000 0.000000
vt 0.500000 1.000000
vt 0.000000 0.000000
vt 1.000000 0.000000
vt 0.000000 0.000000
vt 1.000000 0.000000
vt 1.000000 1.000000
vt 0.000000 1.000000
vt 0.000000 0.000000
vt 1.000000 0.000000
vt 1.000000 1.000000
vt 0.000000 1.000000
vt 0.500000 1.000000
vt 0.000000 0.000000
vt 1.000000 0.000000
vt 0.500000 1.000000
vt 0.000000 0.000000
vt 1.000000 0.000000
vt 0.000000 0.000000
vt 1.000000 0.000000
vt 1.000000 1.000000
vt 0.000000 1.000000
vt 0.000000 0.000000
vt 1.000000 0.000000
vt 1.000000 1.000000
vt 0.000000 1.000000
vt 0.500000 1.000000
vt 0.000000 0.000000
vt 1.000000 0.000000
vt 0.500000 1.000000
vt 0.000000 0.000000
vt 1.000000 0.000000
vt 0.000000 0.000000
vt 1.000000 0.000000
vt 1.000000 1.000000
vt 0.000000 1.000000
vt 0.000000 0.000000
vt 1.000000 0.000000
vt 1.000000 1.000000
vt 0.000000 1.000000
vt 0.500000 1.000000
vt 0.000000 0.000000
vt 1.000000 0.000000
vt 0.500000 1.000000
vt 0.000000 0.000000
vt 1.000000 0.000000
vt 0.000000 0.000000
vt 1.000000 0.000000
vt 1.000000 1.000000
vt 0.000000 1.000000
vt 0.000000 0.000000
vt 1.000000 0.000000
vt 1.000000 1.000000
vt 0.000000 1.000000
vt 0.500000 1.000000
vt 0.000000 0.000000
vt 1.000000 0.000000
vt 0.500000 1.000000
vt 0.000000 0.000000
vt 1.000000 0.000000
vt 0.000000 0.000000
vt 1.000000 0.000000
vt 1.000000 1.000000
vt 0.000000 1.000000
vt 0.000000 0.000000
vt 1.000000 0.000000
vt 1.000000 1.000000
vt 0.000000 1.000000
vt 0.500000 1.000000
vt 0.000000 0.000000
vt 1.000000 0.000000
vt 0.500000 1.000000
vt 0.000000 0.000000
vt 1.000000 0.000000
vt 0.000000 0.000000
vt 1.000000 0.000000
vt 1.000000 1.000000
vt 0.000000 1.000000
vt 0.000000 0.000000
vt 1.000000 0.000000
vt 1.000000 1.000000
vt 0.000000 1.000000
vt 0.500000 1.000000
vt 0.000000 0.000000
vt 1.000000 0.000000
vt 0.500000 1.000000
vt 0.000000 0.000000
vt 1.000000 0.000000
vt 0.000000 0.000000
vt 1.000000 0.000000
vt 1.000000 1.000000
vt 0.000000 1.000000
vt 0.000000 0.000000
vt 1.000000 0.000000
vt 1.000000 1.000000
vt 0.000000 1.000000
vt 0.500000 1.000000
vt 0.000000 0.000000
vt 1.000000 0.000000
vt 0.500000 1.000000
vt 0.000000 0.000000
vt 1.000000 0.000000
vt 0.000000 0.000000
vt 1.000000 0.000000
vt 1.000000 1.000000
vt 0.000000 1.000000
vt 0.000000 0.000000
vt 1.000000 0.000000
vt 1.000000 1.000000
vt 0.000000 1.000000
vt 0.500000 1.000000
vt 0.000000 0.000000
vt 1.000000 0.000000
vt 0.500000 1.000000
vt 0.000000 0.000000
vt 1.000000 0.000000
vt 0.000000 0.000000
vt 1.000000 0.000000
vt 1.000000 1.000000
vt 0.000000 1.000000
vt 0.000000 0.000000
vt 1.000000 0.000000
vt 1.000000 1.000000
vt 0.000000 1.000000
vt 0.500000 1.000000
vt 0.000000 0.000000
vt 1.000000 0.000000
vt 0.500000 1.000000
vt 0.000000 0.000000
vt 1.000000 0.000000
vt 0.000000 0.000000
vt 1.000000 0.000000
vt 1.000000 1.000000
vt 0.000000 1.000000
vt 0.000000 0.000000
vt 1.000000 0.000000
vt 1.000000 1.000000
vt 0.000000 1.000000
vt 0.500000 1.000000
vt 0.000000 0.000000
vt 1.000000 0.000000
vt 0.500000 1.000000
vt 0.000000 0.000000
vt 1.000000 0.000000
vt 0.000000 0.000000
vt 1.000000 0.000000
vt 1.000000 1.000000
vt 0.000000 1.000000
vt 0.000000 0.000000
vt 1.000000 0.000000
vt 1.000000 1.000000
vt 0.000000 1.000000
vt 0.500000 1.000000
vt 0.000000 0.000000
vt 1.000000 0.000000
vt 0.500000 1.000000
vt 0.000000 0.000000
vt 1.000000 0.000000
vt 0.000000 0.000000
vt 1.000000 0.000000
vt 1.000000 1.000000
vt 0.000000 1.000000
vt 0.000000 0.000000
vt 1.000000 0.000000
vt 1.000000 1.000000
vt 0.000000 1.000000
vt 0.500000 1.000000
vt 0.000000 0.000000
vt 1.000000 0.000000
vt 0.500000 1.000000
vt 0.000000 0.000000
vt 1.000000 0.000000
vt 0.000000 0.000000
vt 1.000000 0.000000
vt 1.000000 1.000000
vt 0.000000 1.000000
vt 0.000000 0.000000
vt 1.000000 0.000000
vt 1.000000 1.000000
vt 0.000000 1.000000
vt 0.500000 1.000000
vt 0.000000 0.000000
vt 1.000000 0.000000
vt 0.500000 1.000000
vt 0.000000 0.000000
vt 1.000000 0.000000
vt 0.000000 0.000000
vt 1.000000 0.000000
vt 1.000000 1.000000
vt 0.000000 1.000000
vt 0.000000 0.000000
vt 1.000000 0.000000
vt 1.000000 1.000000
vt 0.000000 1.000000
vt 0.500000 1.000000
vt 0.000000 0.000000
vt 1.000000 0.000000
vt 0.500000 1.000000
vt 0.000000 0.000000
vt 1.000000 0.000000
vt 0.000000 0.000000
vt 1.000000 0.000000
vt 1.000000 1.000000
vt 0.000000 1.000000
vt 0.000000 0.000000
vt 1.000000 0.000000
vt 1.000000 1.000000
vt 0.000000 1.000000
vt 0.500000 1.000000
vt 0.000000 0.000000
vt 1.000000 0.000000
vt 0.500000 1.000000
vt 0.000000 0.000000
vt 1.000000 0.000000
vt 0.000000 0.000000
vt 1.000000 0.000000
vt 1.000000 1.000000
vt 0.000000 1.000000
vt 0.000000 0.000000
vt 1.000000 0.000000
vt 1.000000 1.000000
vt 0.000000 1.000000
vt 0.500000 1.000000
vt 0.000000 0.000000
vt 1.000000 0.000000
vt 0.500000 1.000000
vt 0.000000 0.000000
vt 1.000000 0.000000
vt 0.000000 0.000000
vt 1.000000 0.000000
vt 1.000000 1.000000
vt 0.000000 1.000000
vt 0.000000 0.000000
vt 1.000000 0.000000
vt 1.000000 1.000000
vt 0.000000 1.000000
vt 0.500000 1.000000
vt 0.000000 0.000000
vt 1.000000 0.000000
vt 0.500000 1.000000
vt 0.000000 0.000000
vt 1.000000 0.000000
vt 0.000000 0.000000
vt 1.000000 0.000000
vt 1.000000 1.000000
vt 0.000000 1.000000
vt 0.000000 0.000000
vt 1.000000 0.000000
vt 1.000000 1.000000
vt 0.000000 1.000000
vt 0.500000 1.000000
vt 0.000000 0.000000
vt 1.000000 0.000000
vt 0.500000 1.000000
vt 0.000000 0.000000
vt 1.000000 0.000000
vt 0.000000 0.000000
vt 1.000000 0.000000
vt 1.000000 1.000000
vt 0.000000 1.000000
vt 0.000000 0.000000
vt 1.000000 0.000000
vt 1.000000 1.000000
vt 0.000000 1.000000
vt 0.500000 1.000000
vt 0.000000 0.000000
vt 1.000000 0.000000
vt 0.500000 1.000000
vt 0.000000 0.000000
vt 1.000000 0.000000
vt 0.000000 0.000000
vt 1.000000 0.000000
vt 1.000000 1.000000
vt 0.000000 1.000000
vt 0.000000 0.000000
vt 1.000000 0.000000
vt 1.000000 1.000000
vt 0.000000 1.000000
vt 0.500000 1.000000
vt 0.000000 0.000000
vt 1.000000 0.000000
vt 0.500000 1.000000
vt 0.000000 0.000000
vt 1.000000 0.000000
vt 0.000000 0.000000
vt 1.000000 0.000000
vt 1.000000 1.000000
vt 0.000000 1.000000
vt 0.000000 0.000000
vt 1.000000 0.000000
vt 1.000000 1.000000
vt 0.000000 1.000000
vt 0.500000 1.000000
vt 0.000000 0.000000
vt 1.000000 0.000000
vt 0.500000 1.000000
vt 0.000000 0.000000
vt 1.000000 0.000000
vt 0.000000 0.000000
vt 1.000000 0.000000
vt 1.000000 1.000000
vt 0.000000 1.000000
vt 0.000000 0.000000
vt 1.000000 0.000000
vt 1.000000 1.000000
vt 0.000000 1.000000
vt 0.500000 1.000000
vt 0.000000 0.000000
vt 1.000000 0.000000
vt 0.500000 1.000000
vt 0.000000 0.000000
vt 1.000000 0.000000
vt 0.000000 0.000000
vt 1.000000 0.000000
vt 1.000000 1.000000
vt 0.000000 1.000000
vt 0.000000 0.000000
vt 1.000000 0.000000
vt 1.000000 1.000000
vt 0.000000 1.000000
vt 0.500000 1.000000
vt 0.000000 0.000000
vt 1.000000 0.000000
vt 0.500000 1.000000
vt 0.000000 0.000000
vt 1.000000 0.000000
vt 0.000000 0.000000
vt 1.000000 0.000000
vt 1.000000 1.000000
vt 0.000000 1.000000
vt 0.000000 0.000000
vt 1.000000 0.000000
vt 1.000000 1.000000
vt 0.000000 1.000000
vt 0.500000 1.000000
vt 0.000000 0.000000
vt 1.000000 0.000000
vt 0.500000 1.000000
vt 0.000000 0.000000
vt 1.000000 0.000000
vt 0.000000 0.000000
vt 1.000000 0.000000
vt 1.000000 1.000000
vt 0.000000 1.000000
vt 0.000000 0.000000
vt 1.000000 0.000000
vt 1.000000 1.000000
vt 0.000000 1.000000
vt 0.500000 1.000000
vt 0.000000 0.000000
vt 1.000000 0.000000
vt 0.500000 1.000000
vt 0.000000 0.000000
vt 1.000000 0.000000
vt 0.000000 0.000000
vt 1.000000 0.000000
vt 1.000000 1.000000
vt 0.000000 1.000000
vt 0.000000 0.000000
vt 1.000000 0.000000
vt 1.000000 1.000000
vt 0.000000 1.000000
vt 0.500000 1.000000
vt 0.000000 0.000000
vt 1.000000 0.000000
vt 0.500000 1.000000
vt 0.000000 0.000000
vt 1.000000 0.000000
vt 0.000000 0.000000
vt 1.000000 0.000000
vt 1.000000 1.000000
vt 0.000000 1.000000
vt 0.000000 0.000000
vt 1.000000 0.000000
vt 1.000000 1.000000
vt 0.000000 1.000000
vt 0.500000 1.000000
vt 0.000000 0.000000
vt 1.000000 0.000000
vt 0.500000 1.000000
vt 0.000000 0.000000
vt 1.000000 0.000000
vt 0.000000 0.000000
vt 1.000000 0.000000
vt 1.000000 1.000000
vt 0.000000 1.000000
vt 0.000000 0.000000
vt 1.000000 0.000000
vt 1.000000 1.000000
vt 0.000000 1.000000
vt 0.500000 1.000000
vt 0.000000 0.000000
vt 1.000000 0.000000
vt 0.500000 1.000000
vt 0.000000 0.000000
vt 1.000000 0.000000
vt 0.000000 0.000000
vt 1.000000 0.000000
vt 1.000000 1.000000
vt 0.000000 1.000000
vt 0.000000 0.000000
vt 1.000000 0.000000
vt 1.000000 1.000000
vt 0.000000 1.000000
vt 0.500000 1.000000
vt 0.000000 0.000000
vt 1.000000 0.000000
s 1
usemtl models/caelum/world/environment/bark_desert.png
f 1/1 2/2 3/3 4/4
f 5/5 6/6 7/7
f 8/8 9/9 10/10 11/11
f 12/12 13/13 14/14
f 15/15 16/16 17/17 18/18
f 19/19 20/20 21/21
f 22/22 23/23 24/24 25/25
f 26/26 27/27 28/28
f 29/29 30/30 31/31 32/32
f 33/33 34/34 35/35
f 36/36 37/37 38/38 39/39
f 40/40 41/41 42/42
f 43/43 44/44 45/45 46/46
f 47/47 48/48 49/49
f 50/50 51/51 52/52 53/53
f 54/54 55/55 56/56
f 57/57 58/58 59/59 60/60
f 61/61 62/62 63/63
f 64/64 65/65 66/66 67/67
f 68/68 69/69 70/70 71/71
f 72/72 73/73 74/74 75/75
f 76/76 77/77 78/78 79/79
f 80/80 81/81 82/82 83/83
f 84/84 85/85 86/86 87/87
f 88/88 89/89 90/90 91/91
f 92/92 93/93 94/94 95/95
f 96/96 97/97 98/98 99/99
f 100/100 101/101 102/102 103/103
f 104/104 105/105 106/106
f 107/107 108/108 109/109 110/110
f 111/111 112/112 113/113
f 114/114 115/115 116/116 117/117
f 118/118 119/119 120/120
f 121/121 122/122 123/123 124/124
f 125/125 126/126 127/127
f 128/128 129/129 130/130 131/131
f 132/132 133/133 134/134
f 135/135 136/136 137/137 138/138
f 139/139 140/140 141/141
f 142/142 143/143 144/144 145/145
f 146/146 147/147 148/148
f 149/149 150/150 151/151 152/152
f 153/153 154/154 155/155
f 156/156 157/157 158/158 159/159
f 160/160 161/161 162/162
f 163/163 164/164 165/165 166/166
f 167/167 168/168 169/169
f 170/170 171/171 172/172 173/173
f 174/174 175/175 176/176
f 177/177 178/178 179/179 180/180
f 181/181 182/182 183/183
f 184/184 185/185 186/186 187/187
f 188/188 189/189 190/190
f 191/191 192/192 193/193 194/194
f 195/195 196/196 197/197
f 198/198 199/199 200/200 201/201
f 202/202 203/203 204/204
f 205/205 206/206 207/207 208/208
f 209/209 210/210 211/211
f 212/212 213/213 214/214 215/215
f 216/216 217/217 218/218
f 219/219 220/220 221/221 222/222
f 223/223 224/224 225/225
f 226/226 227/227 228/228 229/229
f 230/230 231/231 232/232
f 233/233 234/234 235/235 236/236
f 237/237 238/238 239/239
f 240/240 241/241 242/242 243/243
f 244/244 245/245 246/246
f 247/247 248/248 249/249 250/250
f 251/251 252/252 253/253
f 254/254 255/255 256/256 257/257
f 258/258 259/259 260/260
f 261/261 262/262 263/263 264/264
f 265/265 266/266 267/267
f 268/268 269/269 270/270 271/271
f 272/272 273/273 274/274
f 275/275 276/276 277/277 278/278
f 279/279 280/280 281/281
f 282/282 283/283 284/284 285/285
f 286/286 287/287 288/288
f 289/289 290/290 291/291 292/292
f 293/293 294/294 295/295
f 296/296 297/297 298/298 299/299
f 300/300 301/301 302/302
f 303/303 304/304 305/305 306/306
f 307/307 308/308 309/309
f 310/310 311/311 312/312 313/313
f 314/314 315/315 316/316
f 317/317 318/318 319/319 320/320
f 321/321 322/322 323/323
f 324/324 325/325 326/326 327/327
f 328/328 329/329 330/330
f 331/331 332/332 333/333 334/334
f 335/335 336/336 337/337
f 338/338 339/339 340/340 341/341
f 342/342 343/343 344/344
f 345/345 346/346 347/347 348/348
f 349/349 350/350 351/351
f 352/352 353/353 354/354 355/355
f 356/356 357/357 358/358
f 359/359 360/360 361/361 362/362
f 363/363 364/364 365/365
f 366/366 367/367 368/368 369/369
f 370/370 371/371 372/372
f 373/373 374/374 375/375 376/376
f 377/377 378/378 379/379
f 380/380 381/381 382/382 383/383
f 384/384 385/385 386/386
f 387/387 388/388 389/389 390/390
f 391/391 392/392 393/393
f 394/394 395/395 396/396 397/397
f 398/398 399/399 400/400
f 401/401 402/402 403/403 404/404
f 405/405 406/406 407/407
f 408/408 409/409 410/410 411/411
f 412/412 413/413 414/414
f 415/415 416/416 417/417 418/418
f 419/419 420/420 421/421
f 422/422 423/423 424/424 425/425
f 426/426 427/427 428/428
f 429/429 430/430 431/431 432/432
f 433/433 434/434 435/435
f 436/436 437/437 438/438 439/439
f 440/440 441/441 442/442
f 443/443 444/444 445/445 446/446
f 447/447 448/448 449/449
f 450/450 451/451 452/452 453/453
f 454/454 455/455 456/456
f 457/457 458/458 459/459 460/460
f 461/461 462/462 463/463
f 464/464 465/465 466/466 467/467
f 468/468 469/469 470/470
f 471/471 472/472 473/473 474/474
f 475/475 476/476 477/477
f 478/478 479/479 480/480 481/481
f 482/482 483/483 484/484
f 485/485 486/486 487/487 488/488
f 489/489 490/490 491/491
f 492/492 493/493 494/494 495/495
f 496/496 497/497 498/498
f 499/499 500/500 501/501 502/502
f 503/503 504/504 505/505
f 506/506 507/507 508/508 509/509
f 510/510 511/511 512/512
f 513/513 514/514 515/515 516/516
f 517/517 518/518 519/519
f 520/520 521/521 522/522 523/523
f 524/524 525/525 526/526
f 527/527 528/528 529/529 530/530
f 531/531 532/532 533/533
f 534/534 535/535 536/536 537/537
f 538/538 539/539 540/540
f 541/541 542/542 543/543 544/544
f 545/545 546/546 547/547
f 548/548 549/549 550/550 551/551
f 552/552 553/553 554/554
f 555/555 556/556 557/557 558/558
f 559/559 560/560 561/561
f 562/562 563/563 564/564 565/565
f 566/566 567/567 568/568
f 569/569 570/570 571/571 572/572
f 573/573 574/574 575/575
f 576/576 577/577 578/578 579/579
f 580/580 581/581 582/582
f 583/583 584/584 585/585 586/586
f 587/587 588/588 589/589
f 590/590 591/591 592/592 593/593
f 594/594 595/595 596/596
f 597/597 598/598 599/599 600/600
f 601/601 602/602 603/603
f 604/604 605/605 606/606 607/607
f 608/608 609/609 610/610
f 611/611 612/612 613/613 614/614
f 615/615 616/616 617/617
f 618/618 619/619 620/620 621/621
f 622/622 623/623 624/624
f 625/625 626/626 627/627 628/628
f 629/629 630/630 631/631
f 632/632 633/633 634/634 635/635
f 636/636 637/637 638/638
f 639/639 640/640 641/641 642/642
f 643/643 644/644 645/645
f 646/646 647/647 648/648 649/649
f 650/650 651/651 652/652
f 653/653 654/654 655/655 656/656
f 657/657 658/658 659/659
f 660/660 661/661 662/662 663/663
f 664/664 665/665 666/666
usemtl models/caelum/world/environment/foliage_desert.png
f 667/667 668/668 669/669
f 670/670 671/671 672/672 673/673
f 674/674 675/675 676/676 677/677
f 678/678 679/679 680/680
f 681/681 682/682 683/683
f 684/684 685/685 686/686 687/687
f 688/688 689/689 690/690 691/691
f 692/692 693/693 694/694
f 695/695 696/696 697/697
f 698/698 699/699 700/700 701/701
f 702/702 703/703 704/704 705/705
f 706/706 707/707 708/708
f 709/709 710/710 711/711
f 712/712 713/713 714/714 715/715
f 716/716 717/717 718/718 719/719
f 720/720 721/721 722/722
f 723/723 724/724 725/725
f 726/726 727/727 728/728 729/729
f 730/730 731/731 732/732 733/733
f 734/734 735/735 736/736
f 737/737 738/738 739/739
f 740/740 741/741 742/742 743/743
f 744/744 745/745 746/746 747/747
f 748/748 749/749 750/750
f 751/751 752/752 753/753
f 754/754 755/755 756/756 757/757
f 758/758 759/759 760/760 761/761
f 762/762 763/763 764/764
f 765/765 766/766 767/767
f 768/768 769/769 770/770 771/771
f 772/772 773/773 774/774 775/775
f 776/776 777/777 778/778
f 779/779 780/780 781/781
f 782/782 783/783 784/784 785/785
f 786/786 787/787 788/788 789/789
f 790/790 791/791 792/792
f 793/793 794/794 795/795
f 796/796 797/797 798/798 799/799
f 800/800 801/801 802/802 803/803
f 804/804 805/805 806/806
f 807/807 808/808 809/809
f 810/810 811/811 812/812 813/813
f 814/814 815/815 816/816 817/817
f 818/818 819/819 820/820
f 821/821 822/822 823/823
f 824/824 825/825 826/826 827/827
f 828/828 829/829 830/830 831/831
f 832/832 833/833 834/834
f 835/835 836/836 837/837
f 838/838 839/839 840/840 841/841
f 842/842 843/843 844/844 845/845
f 846/846 847/847 848/848
f 849/849 850/850 851/851
f 852/852 853/853 854/854 855/855
f 856/856 857/857 858/858 859/859
f 860/860 861/861 862/862
f 863/863 864/864 865/865
f 866/866 867/867 868/868 869/869
f 870/870 871/871 872/872 873/873
f 874/874 875/875 876/876
f 877/877 878/878 879/879
f 880/880 881/881 882/882 883/883
f 884/884 885/885 886/886 887/887
f 888/888 889/889 890/890
f 891/891 892/892 893/893
f 894/894 895/895 896/896 897/897
f 898/898 899/899 900/900 901/901
f 902/902 903/903 904/904
f 905/905 906/906 907/907
f 908/908 909/909 910/910 911/911
f 912/912 913/913 914/914 915/915
f 916/916 917/917 918/918
f 919/919 920/920 921/921
f 922/922 923/923 924/924 925/925
f 926/926 927/927 928/928 929/929
f 930/930 931/931 932/932
f 933/933 934/934 935/935
f 936/936 937/937 938/938 939/939
f 940/940 941/941 942/942 943/943
f 944/944 945/945 946/946
f 947/947 948/948 949/949
f 950/950 951/951 952/952 953/953
f 954/954 955/955 956/956 957/957
f 958/958 959/959 960/960
f 961/961 962/962 963/963
f 964/964 965/965 966/966 967/967
f 968/968 969/969 970/970 971/971
f 972/972 973/973 974/974
f 975/975 976/976 977/977
f 978/978 979/979 980/980 981/981
f 982/982 983/983 984/984 985/985
f 986/986 987/987 988/988
f 989/989 990/990 991/991
f 992/992 993/993 994/994 995/995
f 996/996 997/997 998/998 999/999
f 1000/1000 1001/1001 1002/1002
f 1003/1003 1004/1004 1005/1005
f 1006/1006 1007/1007 1008/1008 1009/1009
f 1010/1010 1011/1011 1012/1012 1013/1013
f 1014/1014 1015/1015 1016/1016
f 1017/1017 1018/1018 1019/1019
f 1020/1020 1021/1021 1022/1022 1023/1023
f 1024/1024 1025/1025 1026/1026 1027/1027
f 1028/1028 1029/1029 1030/1030
f 1031/1031 1032/1032 1033/1033
f 1034/1034 1035/1035 1036/1036 1037/1037
f 1038/1038 1039/1039 1040/1040 1041/1041
f 1042/1042 1043/1043 1044/1044
f 1045/1045 1046/1046 1047/1047
f 1048/1048 1049/1049 1050/1050 1051/1051
f 1052/1052 1053/1053 1054/1054 1055/1055
f 1056/1056 1057/1057 1058/1058
f 1059/1059 1060/1060 1061/1061
f 1062/1062 1063/1063 1064/1064 1065/1065
f 1066/1066 1067/1067 1068/1068 1069/1069
f 1070/1070 1071/1071 1072/1072
f 1073/1073 1074/1074 1075/1075
f 1076/1076 1077/1077 1078/1078 1079/1079
f 1080/1080 1081/1081 1082/1082 1083/1083
f 1084/1084 1085/1085 1086/1086
f 1087/1087 1088/1088 1089/1089
f 1090/1090 1091/1091 1092/1092 1093/1093
f 1094/1094 1095/1095 1096/1096 1097/1097
f 1098/1098 1099/1099 1100/1100
f 1101/1101 1102/1102 1103/1103
f 1104/1104 1105/1105 1106/1106 1107/1107
f 1108/1108 1109/1109 1110/1110 1111/1111
f 1112/1112 1113/1113 1114/1114
f 1115/1115 1116/1116 1117/1117
f 1118/1118 1119/1119 1120/1120 1121/1121
f 1122/1122 1123/1123 1124/1124 1125/1125
f 1126/1126 1127/1127 1128/1128
f 1129/1129 1130/1130 1131/1131
f 1132/1132 1133/1133 1134/1134 1135/1135
f 1136/1136 1137/1137 1138/1138 1139/1139
f 1140/1140 1141/1141 1142/1142
f 1143/1143 1144/1144 1145/1145
f 1146/1146 1147/1147 1148/1148 1149/1149
f 1150/1150 1151/1151 1152/1152 1153/1153
f 1154/1154 1155/1155 1156/1156
f 1157/1157 1158/1158 1159/1159
f 1160/1160 1161/1161 1162/1162 1163/1163
f 1164/1164 1165/1165 1166/1166 1167/1167
f 1168/1168 1169/1169 1170/1170
f 1171/1171 1172/1172 1173/1173
f 1174/1174 1175/1175 1176/1176 1177/1177
f 1178/1178 1179/1179 1180/1180 1181/1181
f 1182/1182 1183/1183 1184/1184
f 1185/1185 1186/1186 1187/1187
f 1188/1188 1189/1189 1190/1190 1191/1191
f 1192/1192 1193/1193 1194/1194 1195/1195
f 1196/1196 1197/1197 1198/1198
f 1199/1199 1200/1200 1201/1201
f 1202/1202 1203/1203 1204/1204 1205/1205
f 1206/1206 1207/1207 1208/1208 1209/1209
f 1210/1210 1211/1211 1212/1212
f 1213/1213 1214/1214 1215/1215
f 1216/1216 1217/1217 1218/1218 1219/1219
f 1220/1220 1221/1221 1222/1222 1223/1223
f 1224/1224 1225/1225 1226/1226
f 1227/1227 1228/1228 1229/1229
f 1230/1230 1231/1231 1232/1232 1233/1233
f 1234/1234 1235/1235 1236/1236 1237/1237
f 1238/1238 1239/1239 1240/1240
f 1241/1241 1242/1242 1243/1243
f 1244/1244 1245/1245 1246/1246 1247/1247
f 1248/1248 1249/1249 1250/1250 1251/1251
f 1252/1252 1253/1253 1254/1254
f 1255/1255 1256/1256 1257/1257
f 1258/1258 1259/1259 1260/1260 1261/1261
f 1262/1262 1263/1263 1264/1264 1265/1265
f 1266/1266 1267/1267 1268/1268
f 1269/1269 1270/1270 1271/1271
f 1272/1272 1273/1273 1274/1274 1275/1275
f 1276/1276 1277/1277 1278/1278 1279/1279
f 1280/1280 1281/1281 1282/1282
f 1283/1283 1284/1284 1285/1285
f 1286/1286 1287/1287 1288/1288 1289/1289
f 1290/1290 1291/1291 1292/1292 1293/1293
f 1294/1294 1295/1295 1296/1296
f 1297/1297 1298/1298 1299/1299
f 1300/1300 1301/1301 1302/1302 1303/1303
f 1304/1304 1305/1305 1306/1306 1307/1307
f 1308/1308 1309/1309 1310/1310
f 1311/1311 1312/1312 1313/1313
f 1314/1314 1315/1315 1316/1316 1317/1317
f 1318/1318 1319/1319 1320/1320 1321/1321
f 1322/1322 1323/1323 1324/1324
f 1325/1325 1326/1326 1327/1327
f 1328/1328 1329/1329 1330/1330 1331/1331
f 1332/1332 1333/1333 1334/1334 1335/1335
f 1336/1336 1337/1337 1338/1338
f 1339/1339 1340/1340 1341/1341
f 1342/1342 1343/1343 1344/1344 1345/1345
f 1346/1346 1347/1347 1348/1348 1349/1349
f 1350/1350 1351/1351 1352/1352
f 1353/1353 1354/1354 1355/1355
f 1356/1356 1357/1357 1358/1358 1359/1359
f 1360/1360 1361/1361 1362/1362 1363/1363
f 1364/1364 1365/1365 1366/1366
f 1367/1367 1368/1368 1369/1369
f 1370/1370 1371/1371 1372/1372 1373/1373
f 1374/1374 1375/1375 1376/1376 1377/1377
f 1378/1378 1379/1379 1380/1380
f 1381/1381 1382/1382 1383/1383
f 1384/1384 1385/1385 1386/1386 1387/1387
f 1388/1388 1389/1389 1390/1390 1391/1391
f 1392/1392 1393/1393 1394/1394
f 1395/1395 1396/1396 1397/1397
f 1398/1398 1399/1399 1400/1400 1401/1401
f 1402/1402 1403/1403 1404/1404 1405/1405
f 1406/1406 1407/1407 1408/1408
f 1409/1409 1410/1410 1411/1411
f 1412/1412 1413/1413 1414/1414 1415/1415
f 1416/1416 1417/1417 1418/1418 1419/1419
f 1420/1420 1421/1421 1422/1422
f 1423/1423 1424/1424 1425/1425
f 1426/1426 1427/1427 1428/1428 1429/1429
f 1430/1430 1431/1431 1432/1432 1433/1433
f 1434/1434 1435/1435 1436/1436
f 1437/1437 1438/1438 1439/1439
f 1440/1440 1441/1441 1442/1442 1443/1443
f 1444/1444 1445/1445 1446/1446 1447/1447
f 1448/1448 1449/1449 1450/1450
