# Modelo original generado para Caelum Argenteum.
# Ejes OBJ: X ancho, Y altura, Z profundidad.
o ca_tree_mountain_cypress3
v 0.000000 0.048672 -9.999882
v -6.427400 -0.040923 -7.660734
v -2.990802 124.290588 -1.156969
v -1.512500 124.311195 -1.694973
v 0.000000 0.000000 0.000000
v -6.427400 -0.040923 -7.660734
v 0.000000 0.048672 -9.999882
v -6.427400 -0.040923 -7.660734
v -9.847349 -0.111369 -1.737044
v -3.777390 124.274385 0.205480
v -2.990802 124.290588 -1.156969
v 0.000000 0.000000 0.000000
v -9.847349 -0.111369 -1.737044
v -6.427400 -0.040923 -7.660734
v -9.847349 -0.111369 -1.737044
v -8.659613 -0.129705 4.999428
v -3.504211 124.270168 1.754868
v -3.777390 124.274385 0.205480
v 0.000000 0.000000 0.000000
v -8.659613 -0.129705 4.999428
v -9.847349 -0.111369 -1.737044
v -8.659613 -0.129705 4.999428
v -3.419948 -0.087350 9.396612
v -2.299088 124.279909 2.766221
v -3.504211 124.270168 1.754868
v 0.000000 0.000000 0.000000
v -3.419948 -0.087350 9.396612
v -8.659613 -0.129705 4.999428
v -3.419948 -0.087350 9.396612
v 3.419948 -0.004123 9.397017
v -0.725912 124.299052 2.766314
v -2.299088 124.279909 2.766221
v 0.000000 0.000000 0.000000
v 3.419948 -0.004123 9.397017
v -3.419948 -0.087350 9.396612
v 3.419948 -0.004123 9.397017
v 8.659613 0.081033 5.000454
v 0.479211 124.318638 1.755104
v -0.725912 124.299052 2.766314
v 0.000000 0.000000 0.000000
v 8.659613 0.081033 5.000454
v 3.419948 -0.004123 9.397017
v 8.659613 0.081033 5.000454
v 9.847349 0.128273 -1.735878
v 0.752390 124.329503 0.205748
v 0.479211 124.318638 1.755104
v 0.000000 0.000000 0.000000
v 9.847349 0.128273 -1.735878
v 8.659613 0.081033 5.000454
v 9.847349 0.128273 -1.735878
v 6.427400 0.115493 -7.659973
v -0.034198 124.326563 -1.156794
v 0.752390 124.329503 0.205748
v 0.000000 0.000000 0.000000
v 6.427400 0.115493 -7.659973
v 9.847349 0.128273 -1.735878
v 6.427400 0.115493 -7.659973
v 0.000000 0.048672 -9.999882
v -1.512500 124.311195 -1.694973
v -0.034198 124.326563 -1.156794
v 0.000000 0.000000 0.000000
v 0.000000 0.048672 -9.999882
v 6.427400 0.115493 -7.659973
v -1.787706 124.319794 -1.678390
v -3.190394 124.267469 -0.967772
v 0.309883 192.628377 5.144404
v -2.983385 192.505527 6.812811
v -3.629520 192.552000 1.451808
v -2.983385 192.505527 6.812811
v 0.309883 192.628377 5.144404
v -3.190394 124.267469 -0.967772
v -3.807977 124.230366 0.478763
v 1.759861 192.715489 1.748191
v 0.309883 192.628377 5.144404
v -3.629520 192.552000 1.451808
v 0.309883 192.628377 5.144404
v 1.759861 192.715489 1.748191
v -3.807977 124.230366 0.478763
v -3.351481 124.225845 1.984366
v 0.688087 192.726103 -1.786703
v 1.759861 192.715489 1.748191
v -3.629520 192.552000 1.451808
v 1.759861 192.715489 1.748191
v 0.688087 192.726103 -1.786703
v -3.351481 124.225845 1.984366
v -2.034505 124.256022 2.844548
v -2.403943 192.655252 -3.806262
v 0.688087 192.726103 -1.786703
v -3.629520 192.552000 1.451808
v 0.688087 192.726103 -1.786703
v -2.403943 192.655252 -3.806262
v -2.034505 124.256022 2.844548
v -0.473277 124.306777 2.656821
v -6.069434 192.536088 -3.365511
v -2.403943 192.655252 -3.806262
v -3.629520 192.552000 1.451808
v -2.403943 192.655252 -3.806262
v -6.069434 192.536088 -3.365511
v -0.473277 124.306777 2.656821
v 0.601687 124.354361 1.509024
v -8.593263 192.424370 -0.670683
v -6.069434 192.536088 -3.365511
v -3.629520 192.552000 1.451808
v -6.069434 192.536088 -3.365511
v -8.593263 192.424370 -0.670683
v 0.601687 124.354361 1.509024
v 0.687399 124.376509 -0.061776
v -8.794501 192.372371 3.017282
v -8.593263 192.424370 -0.670683
v -3.629520 192.552000 1.451808
v -8.593263 192.424370 -0.670683
v -8.794501 192.372371 3.017282
v 0.687399 124.376509 -0.061776
v -0.256246 124.362857 -1.320584
v -6.578987 192.404423 5.972744
v -8.794501 192.372371 3.017282
v -3.629520 192.552000 1.451808
v -8.794501 192.372371 3.017282
v -6.578987 192.404423 5.972744
v -0.256246 124.362857 -1.320584
v -1.787706 124.319794 -1.678390
v -2.983385 192.505527 6.812811
v -6.578987 192.404423 5.972744
v -3.629520 192.552000 1.451808
v -6.578987 192.404423 5.972744
v -2.983385 192.505527 6.812811
v -1.581082 47.327781 -31.900310
v -21.266331 47.327781 -25.504185
v -3.155902 77.837781 -0.577318
v -1.581082 77.837781 -1.089008
v -1.581082 47.327781 1.590236
v -21.266331 47.327781 -25.504185
v -1.581082 47.327781 -31.900310
v -1.581082 77.837781 1.590236
v -1.581082 77.837781 -1.089008
v -3.155902 77.837781 -0.577318
v -21.266331 47.327781 -25.504185
v -33.432484 47.327781 -8.758912
v -4.129194 77.837781 0.762304
v -3.155902 77.837781 -0.577318
v -1.581082 47.327781 1.590236
v -33.432484 47.327781 -8.758912
v -21.266331 47.327781 -25.504185
v -1.581082 77.837781 1.590236
v -3.155902 77.837781 -0.577318
v -4.129194 77.837781 0.762304
v -33.432484 47.327781 -8.758912
v -33.432484 47.327781 11.939384
v -4.129194 77.837781 2.418168
v -4.129194 77.837781 0.762304
v -1.581082 47.327781 1.590236
v -33.432484 47.327781 11.939384
v -33.432484 47.327781 -8.758912
v -1.581082 77.837781 1.590236
v -4.129194 77.837781 0.762304
v -4.129194 77.837781 2.418168
v -33.432484 47.327781 11.939384
v -21.266331 47.327781 28.684657
v -3.155902 77.837781 3.757790
v -4.129194 77.837781 2.418168
v -1.581082 47.327781 1.590236
v -21.266331 47.327781 28.684657
v -33.432484 47.327781 11.939384
v -1.581082 77.837781 1.590236
v -4.129194 77.837781 2.418168
v -3.155902 77.837781 3.757790
v -21.266331 47.327781 28.684657
v -1.581082 47.327781 35.080782
v -1.581082 77.837781 4.269480
v -3.155902 77.837781 3.757790
v -1.581082 47.327781 1.590236
v -1.581082 47.327781 35.080782
v -21.266331 47.327781 28.684657
v -1.581082 77.837781 1.590236
v -3.155902 77.837781 3.757790
v -1.581082 77.837781 4.269480
v -1.581082 47.327781 35.080782
v 18.104167 47.327781 28.684657
v -0.006262 77.837781 3.757790
v -1.581082 77.837781 4.269480
v -1.581082 47.327781 1.590236
v 18.104167 47.327781 28.684657
v -1.581082 47.327781 35.080782
v -1.581082 77.837781 1.590236
v -1.581082 77.837781 4.269480
v -0.006262 77.837781 3.757790
v 18.104167 47.327781 28.684657
v 30.270320 47.327781 11.939384
v 0.967031 77.837781 2.418168
v -0.006262 77.837781 3.757790
v -1.581082 47.327781 1.590236
v 30.270320 47.327781 11.939384
v 18.104167 47.327781 28.684657
v -1.581082 77.837781 1.590236
v -0.006262 77.837781 3.757790
v 0.967031 77.837781 2.418168
v 30.270320 47.327781 11.939384
v 30.270320 47.327781 -8.758912
v 0.967031 77.837781 0.762304
v 0.967031 77.837781 2.418168
v -1.581082 47.327781 1.590236
v 30.270320 47.327781 -8.758912
v 30.270320 47.327781 11.939384
v -1.581082 77.837781 1.590236
v 0.967031 77.837781 2.418168
v 0.967031 77.837781 0.762304
v 30.270320 47.327781 -8.758912
v 18.104167 47.327781 -25.504185
v -0.006262 77.837781 -0.577318
v 0.967031 77.837781 0.762304
v -1.581082 47.327781 1.590236
v 18.104167 47.327781 -25.504185
v 30.270320 47.327781 -8.758912
v -1.581082 77.837781 1.590236
v 0.967031 77.837781 0.762304
v -0.006262 77.837781 -0.577318
v 18.104167 47.327781 -25.504185
v -1.581082 47.327781 -31.900310
v -1.581082 77.837781 -1.089008
v -0.006262 77.837781 -0.577318
v -1.581082 47.327781 1.590236
v -1.581082 47.327781 -31.900310
v 18.104167 47.327781 -25.504185
v -1.581082 77.837781 1.590236
v -0.006262 77.837781 -0.577318
v -1.581082 77.837781 -1.089008
v -6.708779 61.467300 -28.599684
v -22.542130 61.467300 -20.069583
v -3.182430 91.977300 -1.577609
v -1.915762 91.977300 -2.260017
v -1.498978 61.467300 0.030389
v -22.542130 61.467300 -20.069583
v -6.708779 61.467300 -28.599684
v -1.498978 91.977300 0.030389
v -1.915762 91.977300 -2.260017
v -3.182430 91.977300 -1.577609
v -22.542130 61.467300 -20.069583
v -30.337712 61.467300 -3.861975
v -3.806077 91.977300 -0.281000
v -3.182430 91.977300 -1.577609
v -1.498978 61.467300 0.030389
v -30.337712 61.467300 -3.861975
v -22.542130 61.467300 -20.069583
v -1.498978 91.977300 0.030389
v -3.182430 91.977300 -1.577609
v -3.806077 91.977300 -0.281000
v -30.337712 61.467300 -3.861975
v -27.117878 61.467300 13.832383
v -3.548490 91.977300 1.134549
v -3.806077 91.977300 -0.281000
v -1.498978 61.467300 0.030389
v -27.117878 61.467300 13.832383
v -30.337712 61.467300 -3.861975
v -1.498978 91.977300 0.030389
v -3.806077 91.977300 -0.281000
v -3.548490 91.977300 1.134549
v -27.117878 61.467300 13.832383
v -14.112495 61.467300 26.254849
v -2.508059 91.977300 2.128346
v -3.548490 91.977300 1.134549
v -1.498978 61.467300 0.030389
v -14.112495 61.467300 26.254849
v -27.117878 61.467300 13.832383
v -1.498978 91.977300 0.030389
v -3.548490 91.977300 1.134549
v -2.508059 91.977300 2.128346
v -14.112495 61.467300 26.254849
v 3.710823 61.467300 28.660462
v -1.082194 91.977300 2.320795
v -2.508059 91.977300 2.128346
v -1.498978 61.467300 0.030389
v 3.710823 61.467300 28.660462
v -14.112495 61.467300 26.254849
v -1.498978 91.977300 0.030389
v -2.508059 91.977300 2.128346
v -1.082194 91.977300 2.320795
v 3.710823 61.467300 28.660462
v 19.544174 61.467300 20.130361
v 0.184474 91.977300 1.638387
v -1.082194 91.977300 2.320795
v -1.498978 61.467300 0.030389
v 19.544174 61.467300 20.130361
v 3.710823 61.467300 28.660462
v -1.498978 91.977300 0.030389
v -1.082194 91.977300 2.320795
v 0.184474 91.977300 1.638387
v 19.544174 61.467300 20.130361
v 27.339757 61.467300 3.922753
v 0.808121 91.977300 0.341778
v 0.184474 91.977300 1.638387
v -1.498978 61.467300 0.030389
v 27.339757 61.467300 3.922753
v 19.544174 61.467300 20.130361
v -1.498978 91.977300 0.030389
v 0.184474 91.977300 1.638387
v 0.808121 91.977300 0.341778
v 27.339757 61.467300 3.922753
v 24.119923 61.467300 -13.771605
v 0.550534 91.977300 -1.073771
v 0.808121 91.977300 0.341778
v -1.498978 61.467300 0.030389
v 24.119923 61.467300 -13.771605
v 27.339757 61.467300 3.922753
v -1.498978 91.977300 0.030389
v 0.808121 91.977300 0.341778
v 0.550534 91.977300 -1.073771
v 24.119923 61.467300 -13.771605
v 11.114539 61.467300 -26.194071
v -0.489896 91.977300 -2.067568
v 0.550534 91.977300 -1.073771
v -1.498978 61.467300 0.030389
v 11.114539 61.467300 -26.194071
v 24.119923 61.467300 -13.771605
v -1.498978 91.977300 0.030389
v 0.550534 91.977300 -1.073771
v -0.489896 91.977300 -2.067568
v 11.114539 61.467300 -26.194071
v -6.708779 61.467300 -28.599684
v -1.915762 91.977300 -2.260017
v -0.489896 91.977300 -2.067568
v -1.498978 61.467300 0.030389
v -6.708779 61.467300 -28.599684
v 11.114539 61.467300 -26.194071
v -1.498978 91.977300 0.030389
v -0.489896 91.977300 -2.067568
v -1.915762 91.977300 -2.260017
v -8.895138 77.606151 -23.812865
v -20.679627 77.606151 -14.396511
v -1.927705 108.116151 -2.044327
v -0.984946 108.116151 -2.797636
v -0.297103 77.606151 -0.970224
v -20.679627 77.606151 -14.396511
v -8.895138 77.606151 -23.812865
v -0.297103 108.116151 -0.970224
v -0.984946 108.116151 -2.797636
v -1.927705 108.116151 -2.044327
v -20.679627 77.606151 -14.396511
v -24.678684 77.606151 0.148229
v -2.247630 108.116151 -0.880748
v -1.927705 108.116151 -2.044327
v -0.297103 77.606151 -0.970224
v -24.678684 77.606151 0.148229
v -20.679627 77.606151 -14.396511
v -0.297103 108.116151 -0.970224
v -1.927705 108.116151 -2.044327
v -2.247630 108.116151 -0.880748
v -24.678684 77.606151 0.148229
v -19.364806 77.606151 14.265757
v -1.822519 108.116151 0.248654
v -2.247630 108.116151 -0.880748
v -0.297103 77.606151 -0.970224
v -19.364806 77.606151 14.265757
v -24.678684 77.606151 0.148229
v -0.297103 108.116151 -0.970224
v -2.247630 108.116151 -0.880748
v -1.822519 108.116151 0.248654
v -19.364806 77.606151 14.265757
v -6.767714 77.606151 22.563658
v -0.814752 108.116151 0.912486
v -1.822519 108.116151 0.248654
v -0.297103 77.606151 -0.970224
v -6.767714 77.606151 22.563658
v -19.364806 77.606151 14.265757
v -0.297103 108.116151 -0.970224
v -1.822519 108.116151 0.248654
v -0.814752 108.116151 0.912486
v -6.767714 77.606151 22.563658
v 8.300932 77.606151 21.872416
v 0.390740 108.116151 0.857187
v -0.814752 108.116151 0.912486
v -0.297103 77.606151 -0.970224
v 8.300932 77.606151 21.872416
v -6.767714 77.606151 22.563658
v -0.297103 108.116151 -0.970224
v -0.814752 108.116151 0.912486
v 0.390740 108.116151 0.857187
v 8.300932 77.606151 21.872416
v 20.085421 77.606151 12.456062
v 1.333499 108.116151 0.103878
v 0.390740 108.116151 0.857187
v -0.297103 77.606151 -0.970224
v 20.085421 77.606151 12.456062
v 8.300932 77.606151 21.872416
v -0.297103 108.116151 -0.970224
v 0.390740 108.116151 0.857187
v 1.333499 108.116151 0.103878
v 20.085421 77.606151 12.456062
v 24.084478 77.606151 -2.088678
v 1.653423 108.116151 -1.059701
v 1.333499 108.116151 0.103878
v -0.297103 77.606151 -0.970224
v 24.084478 77.606151 -2.088678
v 20.085421 77.606151 12.456062
v -0.297103 108.116151 -0.970224
v 1.333499 108.116151 0.103878
v 1.653423 108.116151 -1.059701
v 24.084478 77.606151 -2.088678
v 18.770600 77.606151 -16.206206
v 1.228313 108.116151 -2.189103
v 1.653423 108.116151 -1.059701
v -0.297103 77.606151 -0.970224
v 18.770600 77.606151 -16.206206
v 24.084478 77.606151 -2.088678
v -0.297103 108.116151 -0.970224
v 1.653423 108.116151 -1.059701
v 1.228313 108.116151 -2.189103
v 18.770600 77.606151 -16.206206
v 6.173508 77.606151 -24.504107
v 0.220546 108.116151 -2.852935
v 1.228313 108.116151 -2.189103
v -0.297103 77.606151 -0.970224
v 6.173508 77.606151 -24.504107
v 18.770600 77.606151 -16.206206
v -0.297103 108.116151 -0.970224
v 1.228313 108.116151 -2.189103
v 0.220546 108.116151 -2.852935
v 6.173508 77.606151 -24.504107
v -8.895138 77.606151 -23.812865
v -0.984946 108.116151 -2.797636
v 0.220546 108.116151 -2.852935
v -0.297103 77.606151 -0.970224
v -8.895138 77.606151 -23.812865
v 6.173508 77.606151 -24.504107
v -0.297103 108.116151 -0.970224
v 0.220546 108.116151 -2.852935
v -0.984946 108.116151 -2.797636
v -14.836693 92.360278 -20.609211
v -24.879078 92.360278 -9.081285
v -3.939100 122.870278 -0.166781
v -3.135710 122.870278 -1.089015
v -2.118233 92.360278 0.608393
v -24.879078 92.360278 -9.081285
v -14.836693 92.360278 -20.609211
v -2.118233 122.870278 0.608393
v -3.135710 122.870278 -1.089015
v -3.939100 122.870278 -0.166781
v -24.879078 92.360278 -9.081285
v -26.227594 92.360278 6.147768
v -4.046982 122.870278 1.051543
v -3.939100 122.870278 -0.166781
v -2.118233 92.360278 0.608393
v -26.227594 92.360278 6.147768
v -24.879078 92.360278 -9.081285
v -2.118233 122.870278 0.608393
v -3.939100 122.870278 -0.166781
v -4.046982 122.870278 1.051543
v -26.227594 92.360278 6.147768
v -18.367153 92.360278 19.260968
v -3.418146 122.870278 2.100599
v -4.046982 122.870278 1.051543
v -2.118233 92.360278 0.608393
v -18.367153 92.360278 19.260968
v -26.227594 92.360278 6.147768
v -2.118233 122.870278 0.608393
v -4.046982 122.870278 1.051543
v -3.418146 122.870278 2.100599
v -18.367153 92.360278 19.260968
v -4.300177 92.360278 25.249519
v -2.292788 122.870278 2.579683
v -3.418146 122.870278 2.100599
v -2.118233 92.360278 0.608393
v -4.300177 92.360278 25.249519
v -18.367153 92.360278 19.260968
v -2.118233 122.870278 0.608393
v -3.418146 122.870278 2.100599
v -2.292788 122.870278 2.579683
v -4.300177 92.360278 25.249519
v 10.600228 92.360278 21.825997
v -1.100756 122.870278 2.305802
v -2.292788 122.870278 2.579683
v -2.118233 92.360278 0.608393
v 10.600228 92.360278 21.825997
v -4.300177 92.360278 25.249519
v -2.118233 122.870278 0.608393
v -2.292788 122.870278 2.579683
v -1.100756 122.870278 2.305802
v 10.600228 92.360278 21.825997
v 20.642613 92.360278 10.298072
v -0.297365 122.870278 1.383568
v -1.100756 122.870278 2.305802
v -2.118233 92.360278 0.608393
v 20.642613 92.360278 10.298072
v 10.600228 92.360278 21.825997
v -2.118233 122.870278 0.608393
v -1.100756 122.870278 2.305802
v -0.297365 122.870278 1.383568
v 20.642613 92.360278 10.298072
v 21.991128 92.360278 -4.930981
v -0.189484 122.870278 0.165243
v -0.297365 122.870278 1.383568
v -2.118233 92.360278 0.608393
v 21.991128 92.360278 -4.930981
v 20.642613 92.360278 10.298072
v -2.118233 122.870278 0.608393
v -0.297365 122.870278 1.383568
v -0.189484 122.870278 0.165243
v 21.991128 92.360278 -4.930981
v 14.130687 92.360278 -18.044181
v -0.818319 122.870278 -0.883813
v -0.189484 122.870278 0.165243
v -2.118233 92.360278 0.608393
v 14.130687 92.360278 -18.044181
v 21.991128 92.360278 -4.930981
v -2.118233 122.870278 0.608393
v -0.189484 122.870278 0.165243
v -0.818319 122.870278 -0.883813
v 14.130687 92.360278 -18.044181
v 0.063711 92.360278 -24.032732
v -1.943677 122.870278 -1.362897
v -0.818319 122.870278 -0.883813
v -2.118233 92.360278 0.608393
v 0.063711 92.360278 -24.032732
v 14.130687 92.360278 -18.044181
v -2.118233 122.870278 0.608393
v -0.818319 122.870278 -0.883813
v -1.943677 122.870278 -1.362897
v 0.063711 92.360278 -24.032732
v -14.836693 92.360278 -20.609211
v -3.135710 122.870278 -1.089015
v -1.943677 122.870278 -1.362897
v -2.118233 92.360278 0.608393
v -14.836693 92.360278 -20.609211
v 0.063711 92.360278 -24.032732
v -2.118233 122.870278 0.608393
v -1.943677 122.870278 -1.362897
v -3.135710 122.870278 -1.089015
v -14.363982 109.572081 -14.935859
v -20.822562 109.572081 -4.078685
v -2.480741 140.082081 0.070649
v -1.964055 140.082081 -0.797925
v -0.885800 109.572081 0.431461
v -20.822562 109.572081 -4.078685
v -14.363982 109.572081 -14.935859
v -0.885800 140.082081 0.431461
v -1.964055 140.082081 -0.797925
v -2.480741 140.082081 0.070649
v -20.822562 109.572081 -4.078685
v -19.665977 109.572081 8.501211
v -2.388214 140.082081 1.077041
v -2.480741 140.082081 0.070649
v -0.885800 109.572081 0.431461
v -19.665977 109.572081 8.501211
v -20.822562 109.572081 -4.078685
v -0.885800 140.082081 0.431461
v -2.480741 140.082081 0.070649
v -2.388214 140.082081 1.077041
v -19.665977 109.572081 8.501211
v -11.336002 109.572081 17.998737
v -1.721816 140.082081 1.836843
v -2.388214 140.082081 1.077041
v -0.885800 109.572081 0.431461
v -11.336002 109.572081 17.998737
v -19.665977 109.572081 8.501211
v -0.885800 140.082081 0.431461
v -2.388214 140.082081 1.077041
v -1.721816 140.082081 1.836843
v -11.336002 109.572081 17.998737
v 0.985595 109.572081 20.786160
v -0.736089 140.082081 2.059837
v -1.721816 140.082081 1.836843
v -0.885800 109.572081 0.431461
v 0.985595 109.572081 20.786160
v -11.336002 109.572081 17.998737
v -0.885800 140.082081 0.431461
v -1.721816 140.082081 1.836843
v -0.736089 140.082081 2.059837
v 0.985595 109.572081 20.786160
v 12.592382 109.572081 15.798780
v 0.192454 140.082081 1.660846
v -0.736089 140.082081 2.059837
v -0.885800 109.572081 0.431461
v 12.592382 109.572081 15.798780
v 0.985595 109.572081 20.786160
v -0.885800 140.082081 0.431461
v -0.736089 140.082081 2.059837
v 0.192454 140.082081 1.660846
v 12.592382 109.572081 15.798780
v 19.050962 109.572081 4.941606
v 0.709141 140.082081 0.792272
v 0.192454 140.082081 1.660846
v -0.885800 109.572081 0.431461
v 19.050962 109.572081 4.941606
v 12.592382 109.572081 15.798780
v -0.885800 140.082081 0.431461
v 0.192454 140.082081 1.660846
v 0.709141 140.082081 0.792272
v 19.050962 109.572081 4.941606
v 17.894376 109.572081 -7.638290
v 0.616614 140.082081 -0.214119
v 0.709141 140.082081 0.792272
v -0.885800 109.572081 0.431461
v 17.894376 109.572081 -7.638290
v 19.050962 109.572081 4.941606
v -0.885800 140.082081 0.431461
v 0.709141 140.082081 0.792272
v 0.616614 140.082081 -0.214119
v 17.894376 109.572081 -7.638290
v 9.564401 109.572081 -17.135815
v -0.049784 140.082081 -0.973921
v 0.616614 140.082081 -0.214119
v -0.885800 109.572081 0.431461
v 9.564401 109.572081 -17.135815
v 17.894376 109.572081 -7.638290
v -0.885800 140.082081 0.431461
v 0.616614 140.082081 -0.214119
v -0.049784 140.082081 -0.973921
v 9.564401 109.572081 -17.135815
v -2.757195 109.572081 -19.923239
v -1.035512 140.082081 -1.196915
v -0.049784 140.082081 -0.973921
v -0.885800 109.572081 0.431461
v -2.757195 109.572081 -19.923239
v 9.564401 109.572081 -17.135815
v -0.885800 140.082081 0.431461
v -0.049784 140.082081 -0.973921
v -1.035512 140.082081 -1.196915
v -2.757195 109.572081 -19.923239
v -14.363982 109.572081 -14.935859
v -1.964055 140.082081 -0.797925
v -1.035512 140.082081 -1.196915
v -0.885800 109.572081 0.431461
v -14.363982 109.572081 -14.935859
v -2.757195 109.572081 -19.923239
v -0.885800 140.082081 0.431461
v -1.035512 140.082081 -1.196915
v -1.964055 140.082081 -0.797925
v -15.374113 121.741374 -11.399317
v -19.470109 121.741374 -0.405370
v -2.021442 152.251374 0.336257
v -1.693762 152.251374 -0.543259
v -0.504166 121.741374 0.400746
v -19.470109 121.741374 -0.405370
v -15.374113 121.741374 -11.399317
v -0.504166 152.251374 0.400746
v -1.693762 152.251374 -0.543259
v -2.021442 152.251374 0.336257
v -19.470109 121.741374 -0.405370
v -16.321759 121.741374 10.896486
v -1.769574 152.251374 1.240405
v -2.021442 152.251374 0.336257
v -0.504166 121.741374 0.400746
v -16.321759 121.741374 10.896486
v -19.470109 121.741374 -0.405370
v -0.504166 152.251374 0.400746
v -2.021442 152.251374 0.336257
v -1.769574 152.251374 1.240405
v -16.321759 121.741374 10.896486
v -7.131627 121.741374 18.189326
v -1.034363 152.251374 1.823833
v -1.769574 152.251374 1.240405
v -0.504166 121.741374 0.400746
v -7.131627 121.741374 18.189326
v -16.321759 121.741374 10.896486
v -0.504166 152.251374 0.400746
v -1.769574 152.251374 1.240405
v -1.034363 152.251374 1.823833
v -7.131627 121.741374 18.189326
v 4.589970 121.741374 18.687533
v -0.096635 152.251374 1.863689
v -1.034363 152.251374 1.823833
v -0.504166 121.741374 0.400746
v 4.589970 121.741374 18.687533
v -7.131627 121.741374 18.189326
v -0.504166 152.251374 0.400746
v -1.034363 152.251374 1.823833
v -0.096635 152.251374 1.863689
v 4.589970 121.741374 18.687533
v 14.365780 121.741374 12.200809
v 0.685430 152.251374 1.344751
v -0.096635 152.251374 1.863689
v -0.504166 121.741374 0.400746
v 14.365780 121.741374 12.200809
v 4.589970 121.741374 18.687533
v -0.504166 152.251374 0.400746
v -0.096635 152.251374 1.863689
v 0.685430 152.251374 1.344751
v 14.365780 121.741374 12.200809
v 18.461776 121.741374 1.206863
v 1.013109 152.251374 0.465236
v 0.685430 152.251374 1.344751
v -0.504166 121.741374 0.400746
v 18.461776 121.741374 1.206863
v 14.365780 121.741374 12.200809
v -0.504166 152.251374 0.400746
v 0.685430 152.251374 1.344751
v 1.013109 152.251374 0.465236
v 18.461776 121.741374 1.206863
v 15.313427 121.741374 -10.094993
v 0.761241 152.251374 -0.438913
v 1.013109 152.251374 0.465236
v -0.504166 121.741374 0.400746
v 15.313427 121.741374 -10.094993
v 18.461776 121.741374 1.206863
v -0.504166 152.251374 0.400746
v 1.013109 152.251374 0.465236
v 0.761241 152.251374 -0.438913
v 15.313427 121.741374 -10.094993
v 6.123295 121.741374 -17.387833
v 0.026031 152.251374 -1.022340
v 0.761241 152.251374 -0.438913
v -0.504166 121.741374 0.400746
v 6.123295 121.741374 -17.387833
v 15.313427 121.741374 -10.094993
v -0.504166 152.251374 0.400746
v 0.761241 152.251374 -0.438913
v 0.026031 152.251374 -1.022340
v 6.123295 121.741374 -17.387833
v -5.598302 121.741374 -17.886041
v -0.911697 152.251374 -1.062197
v 0.026031 152.251374 -1.022340
v -0.504166 121.741374 0.400746
v -5.598302 121.741374 -17.886041
v 6.123295 121.741374 -17.387833
v -0.504166 152.251374 0.400746
v 0.026031 152.251374 -1.022340
v -0.911697 152.251374 -1.062197
v -5.598302 121.741374 -17.886041
v -15.374113 121.741374 -11.399317
v -1.693762 152.251374 -0.543259
v -0.911697 152.251374 -1.062197
v -0.504166 121.741374 0.400746
v -15.374113 121.741374 -11.399317
v -5.598302 121.741374 -17.886041
v -0.504166 152.251374 0.400746
v -0.911697 152.251374 -1.062197
v -1.693762 152.251374 -0.543259
v -15.579018 136.988083 -4.569134
v -17.117767 136.988083 4.051434
v -4.205507 167.498083 2.264432
v -4.082407 167.498083 1.574787
v -3.082702 136.988083 2.109041
v -17.117767 136.988083 4.051434
v -15.579018 136.988083 -4.569134
v -3.082702 167.498083 2.109041
v -4.082407 167.498083 1.574787
v -4.205507 167.498083 2.264432
v -17.117767 136.988083 4.051434
v -13.295598 136.988083 11.930074
v -3.899734 167.498083 2.894723
v -4.205507 167.498083 2.264432
v -3.082702 136.988083 2.109041
v -13.295598 136.988083 11.930074
v -17.117767 136.988083 4.051434
v -3.082702 167.498083 2.109041
v -4.205507 167.498083 2.264432
v -3.899734 167.498083 2.894723
v -13.295598 136.988083 11.930074
v -5.572449 136.988083 16.057413
v -3.281882 167.498083 3.224910
v -3.899734 167.498083 2.894723
v -3.082702 136.988083 2.109041
v -5.572449 136.988083 16.057413
v -13.295598 136.988083 11.930074
v -3.082702 167.498083 2.109041
v -3.899734 167.498083 2.894723
v -3.281882 167.498083 3.224910
v -5.572449 136.988083 16.057413
v 3.101698 136.988083 14.856948
v -2.587950 167.498083 3.128873
v -3.281882 167.498083 3.224910
v -3.082702 136.988083 2.109041
v 3.101698 136.988083 14.856948
v -5.572449 136.988083 16.057413
v -3.082702 167.498083 2.109041
v -3.281882 167.498083 3.224910
v -2.587950 167.498083 3.128873
v 3.101698 136.988083 14.856948
v 9.413614 136.988083 8.787215
v -2.082997 167.498083 2.643295
v -2.587950 167.498083 3.128873
v -3.082702 136.988083 2.109041
v 9.413614 136.988083 8.787215
v 3.101698 136.988083 14.856948
v -3.082702 167.498083 2.109041
v -2.587950 167.498083 3.128873
v -2.082997 167.498083 2.643295
v 9.413614 136.988083 8.787215
v 10.952363 136.988083 0.166647
v -1.959897 167.498083 1.953649
v -2.082997 167.498083 2.643295
v -3.082702 136.988083 2.109041
v 10.952363 136.988083 0.166647
v 9.413614 136.988083 8.787215
v -3.082702 167.498083 2.109041
v -2.082997 167.498083 2.643295
v -1.959897 167.498083 1.953649
v 10.952363 136.988083 0.166647
v 7.130194 136.988083 -7.711993
v -2.265670 167.498083 1.323358
v -1.959897 167.498083 1.953649
v -3.082702 136.988083 2.109041
v 7.130194 136.988083 -7.711993
v 10.952363 136.988083 0.166647
v -3.082702 167.498083 2.109041
v -1.959897 167.498083 1.953649
v -2.265670 167.498083 1.323358
v 7.130194 136.988083 -7.711993
v -0.592955 136.988083 -11.839332
v -2.883522 167.498083 0.993171
v -2.265670 167.498083 1.323358
v -3.082702 136.988083 2.109041
v -0.592955 136.988083 -11.839332
v 7.130194 136.988083 -7.711993
v -3.082702 167.498083 2.109041
v -2.265670 167.498083 1.323358
v -2.883522 167.498083 0.993171
v -0.592955 136.988083 -11.839332
v -9.267102 136.988083 -10.638866
v -3.577454 167.498083 1.089208
v -2.883522 167.498083 0.993171
v -3.082702 136.988083 2.109041
v -9.267102 136.988083 -10.638866
v -0.592955 136.988083 -11.839332
v -3.082702 167.498083 2.109041
v -2.883522 167.498083 0.993171
v -3.577454 167.498083 1.089208
v -9.267102 136.988083 -10.638866
v -15.579018 136.988083 -4.569134
v -4.082407 167.498083 1.574787
v -3.577454 167.498083 1.089208
v -3.082702 136.988083 2.109041
v -15.579018 136.988083 -4.569134
v -9.267102 136.988083 -10.638866
v -3.082702 167.498083 2.109041
v -3.577454 167.498083 1.089208
v -4.082407 167.498083 1.574787
v -15.678197 154.598444 -4.164117
v -15.652795 154.598444 3.389143
v -4.992236 185.108444 -0.114362
v -4.994314 185.108444 -0.732392
v -4.042224 154.598444 -0.426575
v -15.652795 154.598444 3.389143
v -15.678197 154.598444 -4.164117
v -4.042224 185.108444 -0.426575
v -4.994314 185.108444 -0.732392
v -4.992236 185.108444 -0.114362
v -15.652795 154.598444 3.389143
v -11.192550 154.598444 9.484928
v -4.627285 185.108444 0.384414
v -4.992236 185.108444 -0.114362
v -4.042224 154.598444 -0.426575
v -11.192550 154.598444 9.484928
v -15.652795 154.598444 3.389143
v -4.042224 185.108444 -0.426575
v -4.992236 185.108444 -0.114362
v -4.627285 185.108444 0.384414
v -11.192550 154.598444 9.484928
v -4.001124 154.598444 11.794856
v -4.038861 185.108444 0.573419
v -4.627285 185.108444 0.384414
v -4.042224 154.598444 -0.426575
v -4.001124 154.598444 11.794856
v -11.192550 154.598444 9.484928
v -4.042224 185.108444 -0.426575
v -4.627285 185.108444 0.384414
v -4.038861 185.108444 0.573419
v -4.001124 154.598444 11.794856
v 3.174604 154.598444 9.436612
v -3.451721 185.108444 0.380460
v -4.038861 185.108444 0.573419
v -4.042224 154.598444 -0.426575
v 3.174604 154.598444 9.436612
v -4.001124 154.598444 11.794856
v -4.042224 185.108444 -0.426575
v -4.038861 185.108444 0.573419
v -3.451721 185.108444 0.380460
v 3.174604 154.598444 9.436612
v 7.593749 154.598444 3.310966
v -3.090133 185.108444 -0.120759
v -3.451721 185.108444 0.380460
v -4.042224 154.598444 -0.426575
v 7.593749 154.598444 3.310966
v 3.174604 154.598444 9.436612
v -4.042224 185.108444 -0.426575
v -3.451721 185.108444 0.380460
v -3.090133 185.108444 -0.120759
v 7.593749 154.598444 3.310966
v 7.568348 154.598444 -4.242294
v -3.092212 185.108444 -0.738789
v -3.090133 185.108444 -0.120759
v -4.042224 154.598444 -0.426575
v 7.568348 154.598444 -4.242294
v 7.593749 154.598444 3.310966
v -4.042224 185.108444 -0.426575
v -3.090133 185.108444 -0.120759
v -3.092212 185.108444 -0.738789
v 7.568348 154.598444 -4.242294
v 3.108103 154.598444 -10.338079
v -3.457162 185.108444 -1.237565
v -3.092212 185.108444 -0.738789
v -4.042224 154.598444 -0.426575
v 3.108103 154.598444 -10.338079
v 7.568348 154.598444 -4.242294
v -4.042224 185.108444 -0.426575
v -3.092212 185.108444 -0.738789
v -3.457162 185.108444 -1.237565
v 3.108103 154.598444 -10.338079
v -4.083324 154.598444 -12.648007
v -4.045587 185.108444 -1.426570
v -3.457162 185.108444 -1.237565
v -4.042224 154.598444 -0.426575
v -4.083324 154.598444 -12.648007
v 3.108103 154.598444 -10.338079
v -4.042224 185.108444 -0.426575
v -3.457162 185.108444 -1.237565
v -4.045587 185.108444 -1.426570
v -4.083324 154.598444 -12.648007
v -11.259052 154.598444 -10.289763
v -4.632726 185.108444 -1.233611
v -4.045587 185.108444 -1.426570
v -4.042224 154.598444 -0.426575
v -11.259052 154.598444 -10.289763
v -4.083324 154.598444 -12.648007
v -4.042224 185.108444 -0.426575
v -4.045587 185.108444 -1.426570
v -4.632726 185.108444 -1.233611
v -11.259052 154.598444 -10.289763
v -15.678197 154.598444 -4.164117
v -4.994314 185.108444 -0.732392
v -4.632726 185.108444 -1.233611
v -4.042224 154.598444 -0.426575
v -15.678197 154.598444 -4.164117
v -11.259052 154.598444 -10.289763
v -4.042224 185.108444 -0.426575
v -4.632726 185.108444 -1.233611
v -4.994314 185.108444 -0.732392
v -11.325461 169.987688 -1.340965
v -10.314513 169.987688 4.110479
v -3.309845 200.497688 0.306317
v -3.422536 200.497688 -0.301356
v -2.431077 169.987688 -0.170932
v -10.314513 169.987688 4.110479
v -11.325461 169.987688 -1.340965
v -2.431077 200.497688 -0.170932
v -3.422536 200.497688 -0.301356
v -3.309845 200.497688 0.306317
v -10.314513 169.987688 4.110479
v -6.292360 169.987688 7.926570
v -2.861495 200.497688 0.731698
v -3.309845 200.497688 0.306317
v -2.431077 169.987688 -0.170932
v -6.292360 169.987688 7.926570
v -10.314513 169.987688 4.110479
v -2.431077 200.497688 -0.170932
v -3.309845 200.497688 0.306317
v -2.861495 200.497688 0.731698
v -6.292360 169.987688 7.926570
v -0.795329 169.987688 8.649690
v -2.248740 200.497688 0.812304
v -2.861495 200.497688 0.731698
v -2.431077 169.987688 -0.170932
v -0.795329 169.987688 8.649690
v -6.292360 169.987688 7.926570
v -2.431077 200.497688 -0.170932
v -2.861495 200.497688 0.731698
v -2.248740 200.497688 0.812304
v -0.795329 169.987688 8.649690
v 4.076903 169.987688 6.003632
v -1.705632 200.497688 0.517347
v -2.248740 200.497688 0.812304
v -2.431077 169.987688 -0.170932
v 4.076903 169.987688 6.003632
v -0.795329 169.987688 8.649690
v -2.431077 200.497688 -0.170932
v -2.248740 200.497688 0.812304
v -1.705632 200.497688 0.517347
v 4.076903 169.987688 6.003632
v 6.463307 169.987688 0.999100
v -1.439619 200.497688 -0.040508
v -1.705632 200.497688 0.517347
v -2.431077 169.987688 -0.170932
v 6.463307 169.987688 0.999100
v 4.076903 169.987688 6.003632
v -2.431077 200.497688 -0.170932
v -1.705632 200.497688 0.517347
v -1.439619 200.497688 -0.040508
v 6.463307 169.987688 0.999100
v 5.452358 169.987688 -4.452344
v -1.552309 200.497688 -0.648182
v -1.439619 200.497688 -0.040508
v -2.431077 169.987688 -0.170932
v 5.452358 169.987688 -4.452344
v 6.463307 169.987688 0.999100
v -2.431077 200.497688 -0.170932
v -1.439619 200.497688 -0.040508
v -1.552309 200.497688 -0.648182
v 5.452358 169.987688 -4.452344
v 1.430206 169.987688 -8.268434
v -2.000659 200.497688 -1.073562
v -1.552309 200.497688 -0.648182
v -2.431077 169.987688 -0.170932
v 1.430206 169.987688 -8.268434
v 5.452358 169.987688 -4.452344
v -2.431077 200.497688 -0.170932
v -1.552309 200.497688 -0.648182
v -2.000659 200.497688 -1.073562
v 1.430206 169.987688 -8.268434
v -4.066826 169.987688 -8.991554
v -2.613414 200.497688 -1.154168
v -2.000659 200.497688 -1.073562
v -2.431077 169.987688 -0.170932
v -4.066826 169.987688 -8.991554
v 1.430206 169.987688 -8.268434
v -2.431077 200.497688 -0.170932
v -2.000659 200.497688 -1.073562
v -2.613414 200.497688 -1.154168
v -4.066826 169.987688 -8.991554
v -8.939057 169.987688 -6.345496
v -3.156523 200.497688 -0.859212
v -2.613414 200.497688 -1.154168
v -2.431077 169.987688 -0.170932
v -8.939057 169.987688 -6.345496
v -4.066826 169.987688 -8.991554
v -2.431077 200.497688 -0.170932
v -2.613414 200.497688 -1.154168
v -3.156523 200.497688 -0.859212
v -8.939057 169.987688 -6.345496
v -11.325461 169.987688 -1.340965
v -3.422536 200.497688 -0.301356
v -3.156523 200.497688 -0.859212
v -2.431077 169.987688 -0.170932
v -11.325461 169.987688 -1.340965
v -8.939057 169.987688 -6.345496
v -2.431077 200.497688 -0.170932
v -3.156523 200.497688 -0.859212
v -3.422536 200.497688 -0.301356
v -11.725961 184.510045 2.876854
v -10.159346 184.510045 6.996845
v -5.381768 215.020045 3.152942
v -5.601429 215.020045 2.575261
v -4.602640 184.510045 2.526077
v -10.159346 184.510045 6.996845
v -11.725961 184.510045 2.876854
v -4.602640 215.020045 2.526077
v -5.601429 215.020045 2.575261
v -5.381768 215.020045 3.152942
v -10.159346 184.510045 6.996845
v -6.470259 184.510045 9.409155
v -4.864506 215.020045 3.491181
v -5.381768 215.020045 3.152942
v -4.602640 184.510045 2.526077
v -6.470259 184.510045 9.409155
v -10.159346 184.510045 6.996845
v -4.602640 215.020045 2.526077
v -5.381768 215.020045 3.152942
v -4.864506 215.020045 3.491181
v -6.470259 184.510045 9.409155
v -2.067804 184.510045 9.192363
v -4.247220 215.020045 3.460784
v -4.864506 215.020045 3.491181
v -4.602640 184.510045 2.526077
v -2.067804 184.510045 9.192363
v -6.470259 184.510045 9.409155
v -4.602640 215.020045 2.526077
v -4.864506 215.020045 3.491181
v -4.247220 215.020045 3.460784
v -2.067804 184.510045 9.192363
v 1.366430 184.510045 6.429276
v -3.765692 215.020045 3.073361
v -4.247220 215.020045 3.460784
v -4.602640 184.510045 2.526077
v 1.366430 184.510045 6.429276
v -2.067804 184.510045 9.192363
v -4.602640 215.020045 2.526077
v -4.247220 215.020045 3.460784
v -3.765692 215.020045 3.073361
v 1.366430 184.510045 6.429276
v 2.520682 184.510045 2.175301
v -3.603850 215.020045 2.476893
v -3.765692 215.020045 3.073361
v -4.602640 184.510045 2.526077
v 2.520682 184.510045 2.175301
v 1.366430 184.510045 6.429276
v -4.602640 215.020045 2.526077
v -3.765692 215.020045 3.073361
v -3.603850 215.020045 2.476893
v 2.520682 184.510045 2.175301
v 0.954067 184.510045 -1.944690
v -3.823511 215.020045 1.899213
v -3.603850 215.020045 2.476893
v -4.602640 184.510045 2.526077
v 0.954067 184.510045 -1.944690
v 2.520682 184.510045 2.175301
v -4.602640 215.020045 2.526077
v -3.603850 215.020045 2.476893
v -3.823511 215.020045 1.899213
v 0.954067 184.510045 -1.944690
v -2.735021 184.510045 -4.357000
v -4.340773 215.020045 1.560973
v -3.823511 215.020045 1.899213
v -4.602640 184.510045 2.526077
v -2.735021 184.510045 -4.357000
v 0.954067 184.510045 -1.944690
v -4.602640 215.020045 2.526077
v -3.823511 215.020045 1.899213
v -4.340773 215.020045 1.560973
v -2.735021 184.510045 -4.357000
v -7.137476 184.510045 -4.140208
v -4.958059 215.020045 1.591370
v -4.340773 215.020045 1.560973
v -4.602640 184.510045 2.526077
v -7.137476 184.510045 -4.140208
v -2.735021 184.510045 -4.357000
v -4.602640 215.020045 2.526077
v -4.340773 215.020045 1.560973
v -4.958059 215.020045 1.591370
v -7.137476 184.510045 -4.140208
v -10.571709 184.510045 -1.377122
v -5.439587 215.020045 1.978794
v -4.958059 215.020045 1.591370
v -4.602640 184.510045 2.526077
v -10.571709 184.510045 -1.377122
v -7.137476 184.510045 -4.140208
v -4.602640 215.020045 2.526077
v -4.958059 215.020045 1.591370
v -5.439587 215.020045 1.978794
v -10.571709 184.510045 -1.377122
v -11.725961 184.510045 2.876854
v -5.601429 215.020045 2.575261
v -5.439587 215.020045 1.978794
v -4.602640 184.510045 2.526077
v -11.725961 184.510045 2.876854
v -10.571709 184.510045 -1.377122
v -4.602640 215.020045 2.526077
v -5.439587 215.020045 1.978794
v -5.601429 215.020045 2.575261
vt 0.000000 0.000000
vt 1.000000 0.000000
vt 1.000000 1.000000
vt 0.000000 1.000000
vt 0.500000 1.000000
vt 0.000000 0.000000
vt 1.000000 0.000000
vt 0.000000 0.000000
vt 1.000000 0.000000
vt 1.000000 1.000000
vt 0.000000 1.000000
vt 0.500000 1.000000
vt 0.000000 0.000000
vt 1.000000 0.000000
vt 0.000000 0.000000
vt 1.000000 0.000000
vt 1.000000 1.000000
vt 0.000000 1.000000
vt 0.500000 1.000000
vt 0.000000 0.000000
vt 1.000000 0.000000
vt 0.000000 0.000000
vt 1.000000 0.000000
vt 1.000000 1.000000
vt 0.000000 1.000000
vt 0.500000 1.000000
vt 0.000000 0.000000
vt 1.000000 0.000000
vt 0.000000 0.000000
vt 1.000000 0.000000
vt 1.000000 1.000000
vt 0.000000 1.000000
vt 0.500000 1.000000
vt 0.000000 0.000000
vt 1.000000 0.000000
vt 0.000000 0.000000
vt 1.000000 0.000000
vt 1.000000 1.000000
vt 0.000000 1.000000
vt 0.500000 1.000000
vt 0.000000 0.000000
vt 1.000000 0.000000
vt 0.000000 0.000000
vt 1.000000 0.000000
vt 1.000000 1.000000
vt 0.000000 1.000000
vt 0.500000 1.000000
vt 0.000000 0.000000
vt 1.000000 0.000000
vt 0.000000 0.000000
vt 1.000000 0.000000
vt 1.000000 1.000000
vt 0.000000 1.000000
vt 0.500000 1.000000
vt 0.000000 0.000000
vt 1.000000 0.000000
vt 0.000000 0.000000
vt 1.000000 0.000000
vt 1.000000 1.000000
vt 0.000000 1.000000
vt 0.500000 1.000000
vt 0.000000 0.000000
vt 1.000000 0.000000
vt 0.000000 0.000000
vt 1.000000 0.000000
vt 1.000000 1.000000
vt 0.000000 1.000000
vt 0.500000 1.000000
vt 0.000000 0.000000
vt 1.000000 0.000000
vt 0.000000 0.000000
vt 1.000000 0.000000
vt 1.000000 1.000000
vt 0.000000 1.000000
vt 0.500000 1.000000
vt 0.000000 0.000000
vt 1.000000 0.000000
vt 0.000000 0.000000
vt 1.000000 0.000000
vt 1.000000 1.000000
vt 0.000000 1.000000
vt 0.500000 1.000000
vt 0.000000 0.000000
vt 1.000000 0.000000
vt 0.000000 0.000000
vt 1.000000 0.000000
vt 1.000000 1.000000
vt 0.000000 1.000000
vt 0.500000 1.000000
vt 0.000000 0.000000
vt 1.000000 0.000000
vt 0.000000 0.000000
vt 1.000000 0.000000
vt 1.000000 1.000000
vt 0.000000 1.000000
vt 0.500000 1.000000
vt 0.000000 0.000000
vt 1.000000 0.000000
vt 0.000000 0.000000
vt 1.000000 0.000000
vt 1.000000 1.000000
vt 0.000000 1.000000
vt 0.500000 1.000000
vt 0.000000 0.000000
vt 1.000000 0.000000
vt 0.000000 0.000000
vt 1.000000 0.000000
vt 1.000000 1.000000
vt 0.000000 1.000000
vt 0.500000 1.000000
vt 0.000000 0.000000
vt 1.000000 0.000000
vt 0.000000 0.000000
vt 1.000000 0.000000
vt 1.000000 1.000000
vt 0.000000 1.000000
vt 0.500000 1.000000
vt 0.000000 0.000000
vt 1.000000 0.000000
vt 0.000000 0.000000
vt 1.000000 0.000000
vt 1.000000 1.000000
vt 0.000000 1.000000
vt 0.500000 1.000000
vt 0.000000 0.000000
vt 1.000000 0.000000
vt 0.000000 0.000000
vt 1.000000 0.000000
vt 1.000000 1.000000
vt 0.000000 1.000000
vt 0.500000 1.000000
vt 0.000000 0.000000
vt 1.000000 0.000000
vt 0.500000 1.000000
vt 0.000000 0.000000
vt 1.000000 0.000000
vt 0.000000 0.000000
vt 1.000000 0.000000
vt 1.000000 1.000000
vt 0.000000 1.000000
vt 0.500000 1.000000
vt 0.000000 0.000000
vt 1.000000 0.000000
vt 0.500000 1.000000
vt 0.000000 0.000000
vt 1.000000 0.000000
vt 0.000000 0.000000
vt 1.000000 0.000000
vt 1.000000 1.000000
vt 0.000000 1.000000
vt 0.500000 1.000000
vt 0.000000 0.000000
vt 1.000000 0.000000
vt 0.500000 1.000000
vt 0.000000 0.000000
vt 1.000000 0.000000
vt 0.000000 0.000000
vt 1.000000 0.000000
vt 1.000000 1.000000
vt 0.000000 1.000000
vt 0.500000 1.000000
vt 0.000000 0.000000
vt 1.000000 0.000000
vt 0.500000 1.000000
vt 0.000000 0.000000
vt 1.000000 0.000000
vt 0.000000 0.000000
vt 1.000000 0.000000
vt 1.000000 1.000000
vt 0.000000 1.000000
vt 0.500000 1.000000
vt 0.000000 0.000000
vt 1.000000 0.000000
vt 0.500000 1.000000
vt 0.000000 0.000000
vt 1.000000 0.000000
vt 0.000000 0.000000
vt 1.000000 0.000000
vt 1.000000 1.000000
vt 0.000000 1.000000
vt 0.500000 1.000000
vt 0.000000 0.000000
vt 1.000000 0.000000
vt 0.500000 1.000000
vt 0.000000 0.000000
vt 1.000000 0.000000
vt 0.000000 0.000000
vt 1.000000 0.000000
vt 1.000000 1.000000
vt 0.000000 1.000000
vt 0.500000 1.000000
vt 0.000000 0.000000
vt 1.000000 0.000000
vt 0.500000 1.000000
vt 0.000000 0.000000
vt 1.000000 0.000000
vt 0.000000 0.000000
vt 1.000000 0.000000
vt 1.000000 1.000000
vt 0.000000 1.000000
vt 0.500000 1.000000
vt 0.000000 0.000000
vt 1.000000 0.000000
vt 0.500000 1.000000
vt 0.000000 0.000000
vt 1.000000 0.000000
vt 0.000000 0.000000
vt 1.000000 0.000000
vt 1.000000 1.000000
vt 0.000000 1.000000
vt 0.500000 1.000000
vt 0.000000 0.000000
vt 1.000000 0.000000
vt 0.500000 1.000000
vt 0.000000 0.000000
vt 1.000000 0.000000
vt 0.000000 0.000000
vt 1.000000 0.000000
vt 1.000000 1.000000
vt 0.000000 1.000000
vt 0.500000 1.000000
vt 0.000000 0.000000
vt 1.000000 0.000000
vt 0.500000 1.000000
vt 0.000000 0.000000
vt 1.000000 0.000000
vt 0.000000 0.000000
vt 1.000000 0.000000
vt 1.000000 1.000000
vt 0.000000 1.000000
vt 0.500000 1.000000
vt 0.000000 0.000000
vt 1.000000 0.000000
vt 0.500000 1.000000
vt 0.000000 0.000000
vt 1.000000 0.000000
vt 0.000000 0.000000
vt 1.000000 0.000000
vt 1.000000 1.000000
vt 0.000000 1.000000
vt 0.500000 1.000000
vt 0.000000 0.000000
vt 1.000000 0.000000
vt 0.500000 1.000000
vt 0.000000 0.000000
vt 1.000000 0.000000
vt 0.000000 0.000000
vt 1.000000 0.000000
vt 1.000000 1.000000
vt 0.000000 1.000000
vt 0.500000 1.000000
vt 0.000000 0.000000
vt 1.000000 0.000000
vt 0.500000 1.000000
vt 0.000000 0.000000
vt 1.000000 0.000000
vt 0.000000 0.000000
vt 1.000000 0.000000
vt 1.000000 1.000000
vt 0.000000 1.000000
vt 0.500000 1.000000
vt 0.000000 0.000000
vt 1.000000 0.000000
vt 0.500000 1.000000
vt 0.000000 0.000000
vt 1.000000 0.000000
vt 0.000000 0.000000
vt 1.000000 0.000000
vt 1.000000 1.000000
vt 0.000000 1.000000
vt 0.500000 1.000000
vt 0.000000 0.000000
vt 1.000000 0.000000
vt 0.500000 1.000000
vt 0.000000 0.000000
vt 1.000000 0.000000
vt 0.000000 0.000000
vt 1.000000 0.000000
vt 1.000000 1.000000
vt 0.000000 1.000000
vt 0.500000 1.000000
vt 0.000000 0.000000
vt 1.000000 0.000000
vt 0.500000 1.000000
vt 0.000000 0.000000
vt 1.000000 0.000000
vt 0.000000 0.000000
vt 1.000000 0.000000
vt 1.000000 1.000000
vt 0.000000 1.000000
vt 0.500000 1.000000
vt 0.000000 0.000000
vt 1.000000 0.000000
vt 0.500000 1.000000
vt 0.000000 0.000000
vt 1.000000 0.000000
vt 0.000000 0.000000
vt 1.000000 0.000000
vt 1.000000 1.000000
vt 0.000000 1.000000
vt 0.500000 1.000000
vt 0.000000 0.000000
vt 1.000000 0.000000
vt 0.500000 1.000000
vt 0.000000 0.000000
vt 1.000000 0.000000
vt 0.000000 0.000000
vt 1.000000 0.000000
vt 1.000000 1.000000
vt 0.000000 1.000000
vt 0.500000 1.000000
vt 0.000000 0.000000
vt 1.000000 0.000000
vt 0.500000 1.000000
vt 0.000000 0.000000
vt 1.000000 0.000000
vt 0.000000 0.000000
vt 1.000000 0.000000
vt 1.000000 1.000000
vt 0.000000 1.000000
vt 0.500000 1.000000
vt 0.000000 0.000000
vt 1.000000 0.000000
vt 0.500000 1.000000
vt 0.000000 0.000000
vt 1.000000 0.000000
vt 0.000000 0.000000
vt 1.000000 0.000000
vt 1.000000 1.000000
vt 0.000000 1.000000
vt 0.500000 1.000000
vt 0.000000 0.000000
vt 1.000000 0.000000
vt 0.500000 1.000000
vt 0.000000 0.000000
vt 1.000000 0.000000
vt 0.000000 0.000000
vt 1.000000 0.000000
vt 1.000000 1.000000
vt 0.000000 1.000000
vt 0.500000 1.000000
vt 0.000000 0.000000
vt 1.000000 0.000000
vt 0.500000 1.000000
vt 0.000000 0.000000
vt 1.000000 0.000000
vt 0.000000 0.000000
vt 1.000000 0.000000
vt 1.000000 1.000000
vt 0.000000 1.000000
vt 0.500000 1.000000
vt 0.000000 0.000000
vt 1.000000 0.000000
vt 0.500000 1.000000
vt 0.000000 0.000000
vt 1.000000 0.000000
vt 0.000000 0.000000
vt 1.000000 0.000000
vt 1.000000 1.000000
vt 0.000000 1.000000
vt 0.500000 1.000000
vt 0.000000 0.000000
vt 1.000000 0.000000
vt 0.500000 1.000000
vt 0.000000 0.000000
vt 1.000000 0.000000
vt 0.000000 0.000000
vt 1.000000 0.000000
vt 1.000000 1.000000
vt 0.000000 1.000000
vt 0.500000 1.000000
vt 0.000000 0.000000
vt 1.000000 0.000000
vt 0.500000 1.000000
vt 0.000000 0.000000
vt 1.000000 0.000000
vt 0.000000 0.000000
vt 1.000000 0.000000
vt 1.000000 1.000000
vt 0.000000 1.000000
vt 0.500000 1.000000
vt 0.000000 0.000000
vt 1.000000 0.000000
vt 0.500000 1.000000
vt 0.000000 0.000000
vt 1.000000 0.000000
vt 0.000000 0.000000
vt 1.000000 0.000000
vt 1.000000 1.000000
vt 0.000000 1.000000
vt 0.500000 1.000000
vt 0.000000 0.000000
vt 1.000000 0.000000
vt 0.500000 1.000000
vt 0.000000 0.000000
vt 1.000000 0.000000
vt 0.000000 0.000000
vt 1.000000 0.000000
vt 1.000000 1.000000
vt 0.000000 1.000000
vt 0.500000 1.000000
vt 0.000000 0.000000
vt 1.000000 0.000000
vt 0.500000 1.000000
vt 0.000000 0.000000
vt 1.000000 0.000000
vt 0.000000 0.000000
vt 1.000000 0.000000
vt 1.000000 1.000000
vt 0.000000 1.000000
vt 0.500000 1.000000
vt 0.000000 0.000000
vt 1.000000 0.000000
vt 0.500000 1.000000
vt 0.000000 0.000000
vt 1.000000 0.000000
vt 0.000000 0.000000
vt 1.000000 0.000000
vt 1.000000 1.000000
vt 0.000000 1.000000
vt 0.500000 1.000000
vt 0.000000 0.000000
vt 1.000000 0.000000
vt 0.500000 1.000000
vt 0.000000 0.000000
vt 1.000000 0.000000
vt 0.000000 0.000000
vt 1.000000 0.000000
vt 1.000000 1.000000
vt 0.000000 1.000000
vt 0.500000 1.000000
vt 0.000000 0.000000
vt 1.000000 0.000000
vt 0.500000 1.000000
vt 0.000000 0.000000
vt 1.000000 0.000000
vt 0.000000 0.000000
vt 1.000000 0.000000
vt 1.000000 1.000000
vt 0.000000 1.000000
vt 0.500000 1.000000
vt 0.000000 0.000000
vt 1.000000 0.000000
vt 0.500000 1.000000
vt 0.000000 0.000000
vt 1.000000 0.000000
vt 0.000000 0.000000
vt 1.000000 0.000000
vt 1.000000 1.000000
vt 0.000000 1.000000
vt 0.500000 1.000000
vt 0.000000 0.000000
vt 1.000000 0.000000
vt 0.500000 1.000000
vt 0.000000 0.000000
vt 1.000000 0.000000
vt 0.000000 0.000000
vt 1.000000 0.000000
vt 1.000000 1.000000
vt 0.000000 1.000000
vt 0.500000 1.000000
vt 0.000000 0.000000
vt 1.000000 0.000000
vt 0.500000 1.000000
vt 0.000000 0.000000
vt 1.000000 0.000000
vt 0.000000 0.000000
vt 1.000000 0.000000
vt 1.000000 1.000000
vt 0.000000 1.000000
vt 0.500000 1.000000
vt 0.000000 0.000000
vt 1.000000 0.000000
vt 0.500000 1.000000
vt 0.000000 0.000000
vt 1.000000 0.000000
vt 0.000000 0.000000
vt 1.000000 0.000000
vt 1.000000 1.000000
vt 0.000000 1.000000
vt 0.500000 1.000000
vt 0.000000 0.000000
vt 1.000000 0.000000
vt 0.500000 1.000000
vt 0.000000 0.000000
vt 1.000000 0.000000
vt 0.000000 0.000000
vt 1.000000 0.000000
vt 1.000000 1.000000
vt 0.000000 1.000000
vt 0.500000 1.000000
vt 0.000000 0.000000
vt 1.000000 0.000000
vt 0.500000 1.000000
vt 0.000000 0.000000
vt 1.000000 0.000000
vt 0.000000 0.000000
vt 1.000000 0.000000
vt 1.000000 1.000000
vt 0.000000 1.000000
vt 0.500000 1.000000
vt 0.000000 0.000000
vt 1.000000 0.000000
vt 0.500000 1.000000
vt 0.000000 0.000000
vt 1.000000 0.000000
vt 0.000000 0.000000
vt 1.000000 0.000000
vt 1.000000 1.000000
vt 0.000000 1.000000
vt 0.500000 1.000000
vt 0.000000 0.000000
vt 1.000000 0.000000
vt 0.500000 1.000000
vt 0.000000 0.000000
vt 1.000000 0.000000
vt 0.000000 0.000000
vt 1.000000 0.000000
vt 1.000000 1.000000
vt 0.000000 1.000000
vt 0.500000 1.000000
vt 0.000000 0.000000
vt 1.000000 0.000000
vt 0.500000 1.000000
vt 0.000000 0.000000
vt 1.000000 0.000000
vt 0.000000 0.000000
vt 1.000000 0.000000
vt 1.000000 1.000000
vt 0.000000 1.000000
vt 0.500000 1.000000
vt 0.000000 0.000000
vt 1.000000 0.000000
vt 0.500000 1.000000
vt 0.000000 0.000000
vt 1.000000 0.000000
vt 0.000000 0.000000
vt 1.000000 0.000000
vt 1.000000 1.000000
vt 0.000000 1.000000
vt 0.500000 1.000000
vt 0.000000 0.000000
vt 1.000000 0.000000
vt 0.500000 1.000000
vt 0.000000 0.000000
vt 1.000000 0.000000
vt 0.000000 0.000000
vt 1.000000 0.000000
vt 1.000000 1.000000
vt 0.000000 1.000000
vt 0.500000 1.000000
vt 0.000000 0.000000
vt 1.000000 0.000000
vt 0.500000 1.000000
vt 0.000000 0.000000
vt 1.000000 0.000000
vt 0.000000 0.000000
vt 1.000000 0.000000
vt 1.000000 1.000000
vt 0.000000 1.000000
vt 0.500000 1.000000
vt 0.000000 0.000000
vt 1.000000 0.000000
vt 0.500000 1.000000
vt 0.000000 0.000000
vt 1.000000 0.000000
vt 0.000000 0.000000
vt 1.000000 0.000000
vt 1.000000 1.000000
vt 0.000000 1.000000
vt 0.500000 1.000000
vt 0.000000 0.000000
vt 1.000000 0.000000
vt 0.500000 1.000000
vt 0.000000 0.000000
vt 1.000000 0.000000
vt 0.000000 0.000000
vt 1.000000 0.000000
vt 1.000000 1.000000
vt 0.000000 1.000000
vt 0.500000 1.000000
vt 0.000000 0.000000
vt 1.000000 0.000000
vt 0.500000 1.000000
vt 0.000000 0.000000
vt 1.000000 0.000000
vt 0.000000 0.000000
vt 1.000000 0.000000
vt 1.000000 1.000000
vt 0.000000 1.000000
vt 0.500000 1.000000
vt 0.000000 0.000000
vt 1.000000 0.000000
vt 0.500000 1.000000
vt 0.000000 0.000000
vt 1.000000 0.000000
vt 0.000000 0.000000
vt 1.000000 0.000000
vt 1.000000 1.000000
vt 0.000000 1.000000
vt 0.500000 1.000000
vt 0.000000 0.000000
vt 1.000000 0.000000
vt 0.500000 1.000000
vt 0.000000 0.000000
vt 1.000000 0.000000
vt 0.000000 0.000000
vt 1.000000 0.000000
vt 1.000000 1.000000
vt 0.000000 1.000000
vt 0.500000 1.000000
vt 0.000000 0.000000
vt 1.000000 0.000000
vt 0.500000 1.000000
vt 0.000000 0.000000
vt 1.000000 0.000000
vt 0.000000 0.000000
vt 1.000000 0.000000
vt 1.000000 1.000000
vt 0.000000 1.000000
vt 0.500000 1.000000
vt 0.000000 0.000000
vt 1.000000 0.000000
vt 0.500000 1.000000
vt 0.000000 0.000000
vt 1.000000 0.000000
vt 0.000000 0.000000
vt 1.000000 0.000000
vt 1.000000 1.000000
vt 0.000000 1.000000
vt 0.500000 1.000000
vt 0.000000 0.000000
vt 1.000000 0.000000
vt 0.500000 1.000000
vt 0.000000 0.000000
vt 1.000000 0.000000
vt 0.000000 0.000000
vt 1.000000 0.000000
vt 1.000000 1.000000
vt 0.000000 1.000000
vt 0.500000 1.000000
vt 0.000000 0.000000
vt 1.000000 0.000000
vt 0.500000 1.000000
vt 0.000000 0.000000
vt 1.000000 0.000000
vt 0.000000 0.000000
vt 1.000000 0.000000
vt 1.000000 1.000000
vt 0.000000 1.000000
vt 0.500000 1.000000
vt 0.000000 0.000000
vt 1.000000 0.000000
vt 0.500000 1.000000
vt 0.000000 0.000000
vt 1.000000 0.000000
vt 0.000000 0.000000
vt 1.000000 0.000000
vt 1.000000 1.000000
vt 0.000000 1.000000
vt 0.500000 1.000000
vt 0.000000 0.000000
vt 1.000000 0.000000
vt 0.500000 1.000000
vt 0.000000 0.000000
vt 1.000000 0.000000
vt 0.000000 0.000000
vt 1.000000 0.000000
vt 1.000000 1.000000
vt 0.000000 1.000000
vt 0.500000 1.000000
vt 0.000000 0.000000
vt 1.000000 0.000000
vt 0.500000 1.000000
vt 0.000000 0.000000
vt 1.000000 0.000000
vt 0.000000 0.000000
vt 1.000000 0.000000
vt 1.000000 1.000000
vt 0.000000 1.000000
vt 0.500000 1.000000
vt 0.000000 0.000000
vt 1.000000 0.000000
vt 0.500000 1.000000
vt 0.000000 0.000000
vt 1.000000 0.000000
vt 0.000000 0.000000
vt 1.000000 0.000000
vt 1.000000 1.000000
vt 0.000000 1.000000
vt 0.500000 1.000000
vt 0.000000 0.000000
vt 1.000000 0.000000
vt 0.500000 1.000000
vt 0.000000 0.000000
vt 1.000000 0.000000
vt 0.000000 0.000000
vt 1.000000 0.000000
vt 1.000000 1.000000
vt 0.000000 1.000000
vt 0.500000 1.000000
vt 0.000000 0.000000
vt 1.000000 0.000000
vt 0.500000 1.000000
vt 0.000000 0.000000
vt 1.000000 0.000000
vt 0.000000 0.000000
vt 1.000000 0.000000
vt 1.000000 1.000000
vt 0.000000 1.000000
vt 0.500000 1.000000
vt 0.000000 0.000000
vt 1.000000 0.000000
vt 0.500000 1.000000
vt 0.000000 0.000000
vt 1.000000 0.000000
vt 0.000000 0.000000
vt 1.000000 0.000000
vt 1.000000 1.000000
vt 0.000000 1.000000
vt 0.500000 1.000000
vt 0.000000 0.000000
vt 1.000000 0.000000
vt 0.500000 1.000000
vt 0.000000 0.000000
vt 1.000000 0.000000
vt 0.000000 0.000000
vt 1.000000 0.000000
vt 1.000000 1.000000
vt 0.000000 1.000000
vt 0.500000 1.000000
vt 0.000000 0.000000
vt 1.000000 0.000000
vt 0.500000 1.000000
vt 0.000000 0.000000
vt 1.000000 0.000000
vt 0.000000 0.000000
vt 1.000000 0.000000
vt 1.000000 1.000000
vt 0.000000 1.000000
vt 0.500000 1.000000
vt 0.000000 0.000000
vt 1.000000 0.000000
vt 0.500000 1.000000
vt 0.000000 0.000000
vt 1.000000 0.000000
vt 0.000000 0.000000
vt 1.000000 0.000000
vt 1.000000 1.000000
vt 0.000000 1.000000
vt 0.500000 1.000000
vt 0.000000 0.000000
vt 1.000000 0.000000
vt 0.500000 1.000000
vt 0.000000 0.000000
vt 1.000000 0.000000
vt 0.000000 0.000000
vt 1.000000 0.000000
vt 1.000000 1.000000
vt 0.000000 1.000000
vt 0.500000 1.000000
vt 0.000000 0.000000
vt 1.000000 0.000000
vt 0.500000 1.000000
vt 0.000000 0.000000
vt 1.000000 0.000000
vt 0.000000 0.000000
vt 1.000000 0.000000
vt 1.000000 1.000000
vt 0.000000 1.000000
vt 0.500000 1.000000
vt 0.000000 0.000000
vt 1.000000 0.000000
vt 0.500000 1.000000
vt 0.000000 0.000000
vt 1.000000 0.000000
vt 0.000000 0.000000
vt 1.000000 0.000000
vt 1.000000 1.000000
vt 0.000000 1.000000
vt 0.500000 1.000000
vt 0.000000 0.000000
vt 1.000000 0.000000
vt 0.500000 1.000000
vt 0.000000 0.000000
vt 1.000000 0.000000
vt 0.000000 0.000000
vt 1.000000 0.000000
vt 1.000000 1.000000
vt 0.000000 1.000000
vt 0.500000 1.000000
vt 0.000000 0.000000
vt 1.000000 0.000000
vt 0.500000 1.000000
vt 0.000000 0.000000
vt 1.000000 0.000000
vt 0.000000 0.000000
vt 1.000000 0.000000
vt 1.000000 1.000000
vt 0.000000 1.000000
vt 0.500000 1.000000
vt 0.000000 0.000000
vt 1.000000 0.000000
vt 0.500000 1.000000
vt 0.000000 0.000000
vt 1.000000 0.000000
vt 0.000000 0.000000
vt 1.000000 0.000000
vt 1.000000 1.000000
vt 0.000000 1.000000
vt 0.500000 1.000000
vt 0.000000 0.000000
vt 1.000000 0.000000
vt 0.500000 1.000000
vt 0.000000 0.000000
vt 1.000000 0.000000
vt 0.000000 0.000000
vt 1.000000 0.000000
vt 1.000000 1.000000
vt 0.000000 1.000000
vt 0.500000 1.000000
vt 0.000000 0.000000
vt 1.000000 0.000000
vt 0.500000 1.000000
vt 0.000000 0.000000
vt 1.000000 0.000000
vt 0.000000 0.000000
vt 1.000000 0.000000
vt 1.000000 1.000000
vt 0.000000 1.000000
vt 0.500000 1.000000
vt 0.000000 0.000000
vt 1.000000 0.000000
vt 0.500000 1.000000
vt 0.000000 0.000000
vt 1.000000 0.000000
vt 0.000000 0.000000
vt 1.000000 0.000000
vt 1.000000 1.000000
vt 0.000000 1.000000
vt 0.500000 1.000000
vt 0.000000 0.000000
vt 1.000000 0.000000
vt 0.500000 1.000000
vt 0.000000 0.000000
vt 1.000000 0.000000
vt 0.000000 0.000000
vt 1.000000 0.000000
vt 1.000000 1.000000
vt 0.000000 1.000000
vt 0.500000 1.000000
vt 0.000000 0.000000
vt 1.000000 0.000000
vt 0.500000 1.000000
vt 0.000000 0.000000
vt 1.000000 0.000000
vt 0.000000 0.000000
vt 1.000000 0.000000
vt 1.000000 1.000000
vt 0.000000 1.000000
vt 0.500000 1.000000
vt 0.000000 0.000000
vt 1.000000 0.000000
vt 0.500000 1.000000
vt 0.000000 0.000000
vt 1.000000 0.000000
vt 0.000000 0.000000
vt 1.000000 0.000000
vt 1.000000 1.000000
vt 0.000000 1.000000
vt 0.500000 1.000000
vt 0.000000 0.000000
vt 1.000000 0.000000
vt 0.500000 1.000000
vt 0.000000 0.000000
vt 1.000000 0.000000
vt 0.000000 0.000000
vt 1.000000 0.000000
vt 1.000000 1.000000
vt 0.000000 1.000000
vt 0.500000 1.000000
vt 0.000000 0.000000
vt 1.000000 0.000000
vt 0.500000 1.000000
vt 0.000000 0.000000
vt 1.000000 0.000000
vt 0.000000 0.000000
vt 1.000000 0.000000
vt 1.000000 1.000000
vt 0.000000 1.000000
vt 0.500000 1.000000
vt 0.000000 0.000000
vt 1.000000 0.000000
vt 0.500000 1.000000
vt 0.000000 0.000000
vt 1.000000 0.000000
vt 0.000000 0.000000
vt 1.000000 0.000000
vt 1.000000 1.000000
vt 0.000000 1.000000
vt 0.500000 1.000000
vt 0.000000 0.000000
vt 1.000000 0.000000
vt 0.500000 1.000000
vt 0.000000 0.000000
vt 1.000000 0.000000
vt 0.000000 0.000000
vt 1.000000 0.000000
vt 1.000000 1.000000
vt 0.000000 1.000000
vt 0.500000 1.000000
vt 0.000000 0.000000
vt 1.000000 0.000000
vt 0.500000 1.000000
vt 0.000000 0.000000
vt 1.000000 0.000000
vt 0.000000 0.000000
vt 1.000000 0.000000
vt 1.000000 1.000000
vt 0.000000 1.000000
vt 0.500000 1.000000
vt 0.000000 0.000000
vt 1.000000 0.000000
vt 0.500000 1.000000
vt 0.000000 0.000000
vt 1.000000 0.000000
vt 0.000000 0.000000
vt 1.000000 0.000000
vt 1.000000 1.000000
vt 0.000000 1.000000
vt 0.500000 1.000000
vt 0.000000 0.000000
vt 1.000000 0.000000
vt 0.500000 1.000000
vt 0.000000 0.000000
vt 1.000000 0.000000
vt 0.000000 0.000000
vt 1.000000 0.000000
vt 1.000000 1.000000
vt 0.000000 1.000000
vt 0.500000 1.000000
vt 0.000000 0.000000
vt 1.000000 0.000000
vt 0.500000 1.000000
vt 0.000000 0.000000
vt 1.000000 0.000000
vt 0.000000 0.000000
vt 1.000000 0.000000
vt 1.000000 1.000000
vt 0.000000 1.000000
vt 0.500000 1.000000
vt 0.000000 0.000000
vt 1.000000 0.000000
vt 0.500000 1.000000
vt 0.000000 0.000000
vt 1.000000 0.000000
vt 0.000000 0.000000
vt 1.000000 0.000000
vt 1.000000 1.000000
vt 0.000000 1.000000
vt 0.500000 1.000000
vt 0.000000 0.000000
vt 1.000000 0.000000
vt 0.500000 1.000000
vt 0.000000 0.000000
vt 1.000000 0.000000
vt 0.000000 0.000000
vt 1.000000 0.000000
vt 1.000000 1.000000
vt 0.000000 1.000000
vt 0.500000 1.000000
vt 0.000000 0.000000
vt 1.000000 0.000000
vt 0.500000 1.000000
vt 0.000000 0.000000
vt 1.000000 0.000000
vt 0.000000 0.000000
vt 1.000000 0.000000
vt 1.000000 1.000000
vt 0.000000 1.000000
vt 0.500000 1.000000
vt 0.000000 0.000000
vt 1.000000 0.000000
vt 0.500000 1.000000
vt 0.000000 0.000000
vt 1.000000 0.000000
vt 0.000000 0.000000
vt 1.000000 0.000000
vt 1.000000 1.000000
vt 0.000000 1.000000
vt 0.500000 1.000000
vt 0.000000 0.000000
vt 1.000000 0.000000
vt 0.500000 1.000000
vt 0.000000 0.000000
vt 1.000000 0.000000
vt 0.000000 0.000000
vt 1.000000 0.000000
vt 1.000000 1.000000
vt 0.000000 1.000000
vt 0.500000 1.000000
vt 0.000000 0.000000
vt 1.000000 0.000000
vt 0.500000 1.000000
vt 0.000000 0.000000
vt 1.000000 0.000000
vt 0.000000 0.000000
vt 1.000000 0.000000
vt 1.000000 1.000000
vt 0.000000 1.000000
vt 0.500000 1.000000
vt 0.000000 0.000000
vt 1.000000 0.000000
vt 0.500000 1.000000
vt 0.000000 0.000000
vt 1.000000 0.000000
vt 0.000000 0.000000
vt 1.000000 0.000000
vt 1.000000 1.000000
vt 0.000000 1.000000
vt 0.500000 1.000000
vt 0.000000 0.000000
vt 1.000000 0.000000
vt 0.500000 1.000000
vt 0.000000 0.000000
vt 1.000000 0.000000
vt 0.000000 0.000000
vt 1.000000 0.000000
vt 1.000000 1.000000
vt 0.000000 1.000000
vt 0.500000 1.000000
vt 0.000000 0.000000
vt 1.000000 0.000000
vt 0.500000 1.000000
vt 0.000000 0.000000
vt 1.000000 0.000000
vt 0.000000 0.000000
vt 1.000000 0.000000
vt 1.000000 1.000000
vt 0.000000 1.000000
vt 0.500000 1.000000
vt 0.000000 0.000000
vt 1.000000 0.000000
vt 0.500000 1.000000
vt 0.000000 0.000000
vt 1.000000 0.000000
vt 0.000000 0.000000
vt 1.000000 0.000000
vt 1.000000 1.000000
vt 0.000000 1.000000
vt 0.500000 1.000000
vt 0.000000 0.000000
vt 1.000000 0.000000
vt 0.500000 1.000000
vt 0.000000 0.000000
vt 1.000000 0.000000
vt 0.000000 0.000000
vt 1.000000 0.000000
vt 1.000000 1.000000
vt 0.000000 1.000000
vt 0.500000 1.000000
vt 0.000000 0.000000
vt 1.000000 0.000000
vt 0.500000 1.000000
vt 0.000000 0.000000
vt 1.000000 0.000000
vt 0.000000 0.000000
vt 1.000000 0.000000
vt 1.000000 1.000000
vt 0.000000 1.000000
vt 0.500000 1.000000
vt 0.000000 0.000000
vt 1.000000 0.000000
vt 0.500000 1.000000
vt 0.000000 0.000000
vt 1.000000 0.000000
vt 0.000000 0.000000
vt 1.000000 0.000000
vt 1.000000 1.000000
vt 0.000000 1.000000
vt 0.500000 1.000000
vt 0.000000 0.000000
vt 1.000000 0.000000
vt 0.500000 1.000000
vt 0.000000 0.000000
vt 1.000000 0.000000
vt 0.000000 0.000000
vt 1.000000 0.000000
vt 1.000000 1.000000
vt 0.000000 1.000000
vt 0.500000 1.000000
vt 0.000000 0.000000
vt 1.000000 0.000000
vt 0.500000 1.000000
vt 0.000000 0.000000
vt 1.000000 0.000000
vt 0.000000 0.000000
vt 1.000000 0.000000
vt 1.000000 1.000000
vt 0.000000 1.000000
vt 0.500000 1.000000
vt 0.000000 0.000000
vt 1.000000 0.000000
vt 0.500000 1.000000
vt 0.000000 0.000000
vt 1.000000 0.000000
vt 0.000000 0.000000
vt 1.000000 0.000000
vt 1.000000 1.000000
vt 0.000000 1.000000
vt 0.500000 1.000000
vt 0.000000 0.000000
vt 1.000000 0.000000
vt 0.500000 1.000000
vt 0.000000 0.000000
vt 1.000000 0.000000
vt 0.000000 0.000000
vt 1.000000 0.000000
vt 1.000000 1.000000
vt 0.000000 1.000000
vt 0.500000 1.000000
vt 0.000000 0.000000
vt 1.000000 0.000000
vt 0.500000 1.000000
vt 0.000000 0.000000
vt 1.000000 0.000000
s 1
usemtl models/caelum/world/environment/bark_mountain.png
f 1/1 2/2 3/3 4/4
f 5/5 6/6 7/7
f 8/8 9/9 10/10 11/11
f 12/12 13/13 14/14
f 15/15 16/16 17/17 18/18
f 19/19 20/20 21/21
f 22/22 23/23 24/24 25/25
f 26/26 27/27 28/28
f 29/29 30/30 31/31 32/32
f 33/33 34/34 35/35
f 36/36 37/37 38/38 39/39
f 40/40 41/41 42/42
f 43/43 44/44 45/45 46/46
f 47/47 48/48 49/49
f 50/50 51/51 52/52 53/53
f 54/54 55/55 56/56
f 57/57 58/58 59/59 60/60
f 61/61 62/62 63/63
f 64/64 65/65 66/66 67/67
f 68/68 69/69 70/70
f 71/71 72/72 73/73 74/74
f 75/75 76/76 77/77
f 78/78 79/79 80/80 81/81
f 82/82 83/83 84/84
f 85/85 86/86 87/87 88/88
f 89/89 90/90 91/91
f 92/92 93/93 94/94 95/95
f 96/96 97/97 98/98
f 99/99 100/100 101/101 102/102
f 103/103 104/104 105/105
f 106/106 107/107 108/108 109/109
f 110/110 111/111 112/112
f 113/113 114/114 115/115 116/116
f 117/117 118/118 119/119
f 120/120 121/121 122/122 123/123
f 124/124 125/125 126/126
usemtl models/caelum/world/environment/foliage_mountain.png
f 127/127 128/128 129/129 130/130
f 131/131 132/132 133/133
f 134/134 135/135 136/136
f 137/137 138/138 139/139 140/140
f 141/141 142/142 143/143
f 144/144 145/145 146/146
f 147/147 148/148 149/149 150/150
f 151/151 152/152 153/153
f 154/154 155/155 156/156
f 157/157 158/158 159/159 160/160
f 161/161 162/162 163/163
f 164/164 165/165 166/166
f 167/167 168/168 169/169 170/170
f 171/171 172/172 173/173
f 174/174 175/175 176/176
f 177/177 178/178 179/179 180/180
f 181/181 182/182 183/183
f 184/184 185/185 186/186
f 187/187 188/188 189/189 190/190
f 191/191 192/192 193/193
f 194/194 195/195 196/196
f 197/197 198/198 199/199 200/200
f 201/201 202/202 203/203
f 204/204 205/205 206/206
f 207/207 208/208 209/209 210/210
f 211/211 212/212 213/213
f 214/214 215/215 216/216
f 217/217 218/218 219/219 220/220
f 221/221 222/222 223/223
f 224/224 225/225 226/226
f 227/227 228/228 229/229 230/230
f 231/231 232/232 233/233
f 234/234 235/235 236/236
f 237/237 238/238 239/239 240/240
f 241/241 242/242 243/243
f 244/244 245/245 246/246
f 247/247 248/248 249/249 250/250
f 251/251 252/252 253/253
f 254/254 255/255 256/256
f 257/257 258/258 259/259 260/260
f 261/261 262/262 263/263
f 264/264 265/265 266/266
f 267/267 268/268 269/269 270/270
f 271/271 272/272 273/273
f 274/274 275/275 276/276
f 277/277 278/278 279/279 280/280
f 281/281 282/282 283/283
f 284/284 285/285 286/286
f 287/287 288/288 289/289 290/290
f 291/291 292/292 293/293
f 294/294 295/295 296/296
f 297/297 298/298 299/299 300/300
f 301/301 302/302 303/303
f 304/304 305/305 306/306
f 307/307 308/308 309/309 310/310
f 311/311 312/312 313/313
f 314/314 315/315 316/316
f 317/317 318/318 319/319 320/320
f 321/321 322/322 323/323
f 324/324 325/325 326/326
f 327/327 328/328 329/329 330/330
f 331/331 332/332 333/333
f 334/334 335/335 336/336
f 337/337 338/338 339/339 340/340
f 341/341 342/342 343/343
f 344/344 345/345 346/346
f 347/347 348/348 349/349 350/350
f 351/351 352/352 353/353
f 354/354 355/355 356/356
f 357/357 358/358 359/359 360/360
f 361/361 362/362 363/363
f 364/364 365/365 366/366
f 367/367 368/368 369/369 370/370
f 371/371 372/372 373/373
f 374/374 375/375 376/376
f 377/377 378/378 379/379 380/380
f 381/381 382/382 383/383
f 384/384 385/385 386/386
f 387/387 388/388 389/389 390/390
f 391/391 392/392 393/393
f 394/394 395/395 396/396
f 397/397 398/398 399/399 400/400
f 401/401 402/402 403/403
f 404/404 405/405 406/406
f 407/407 408/408 409/409 410/410
f 411/411 412/412 413/413
f 414/414 415/415 416/416
f 417/417 418/418 419/419 420/420
f 421/421 422/422 423/423
f 424/424 425/425 426/426
f 427/427 428/428 429/429 430/430
f 431/431 432/432 433/433
f 434/434 435/435 436/436
f 437/437 438/438 439/439 440/440
f 441/441 442/442 443/443
f 444/444 445/445 446/446
f 447/447 448/448 449/449 450/450
f 451/451 452/452 453/453
f 454/454 455/455 456/456
f 457/457 458/458 459/459 460/460
f 461/461 462/462 463/463
f 464/464 465/465 466/466
f 467/467 468/468 469/469 470/470
f 471/471 472/472 473/473
f 474/474 475/475 476/476
f 477/477 478/478 479/479 480/480
f 481/481 482/482 483/483
f 484/484 485/485 486/486
f 487/487 488/488 489/489 490/490
f 491/491 492/492 493/493
f 494/494 495/495 496/496
f 497/497 498/498 499/499 500/500
f 501/501 502/502 503/503
f 504/504 505/505 506/506
f 507/507 508/508 509/509 510/510
f 511/511 512/512 513/513
f 514/514 515/515 516/516
f 517/517 518/518 519/519 520/520
f 521/521 522/522 523/523
f 524/524 525/525 526/526
f 527/527 528/528 529/529 530/530
f 531/531 532/532 533/533
f 534/534 535/535 536/536
f 537/537 538/538 539/539 540/540
f 541/541 542/542 543/543
f 544/544 545/545 546/546
f 547/547 548/548 549/549 550/550
f 551/551 552/552 553/553
f 554/554 555/555 556/556
f 557/557 558/558 559/559 560/560
f 561/561 562/562 563/563
f 564/564 565/565 566/566
f 567/567 568/568 569/569 570/570
f 571/571 572/572 573/573
f 574/574 575/575 576/576
f 577/577 578/578 579/579 580/580
f 581/581 582/582 583/583
f 584/584 585/585 586/586
f 587/587 588/588 589/589 590/590
f 591/591 592/592 593/593
f 594/594 595/595 596/596
f 597/597 598/598 599/599 600/600
f 601/601 602/602 603/603
f 604/604 605/605 606/606
f 607/607 608/608 609/609 610/610
f 611/611 612/612 613/613
f 614/614 615/615 616/616
f 617/617 618/618 619/619 620/620
f 621/621 622/622 623/623
f 624/624 625/625 626/626
f 627/627 628/628 629/629 630/630
f 631/631 632/632 633/633
f 634/634 635/635 636/636
f 637/637 638/638 639/639 640/640
f 641/641 642/642 643/643
f 644/644 645/645 646/646
f 647/647 648/648 649/649 650/650
f 651/651 652/652 653/653
f 654/654 655/655 656/656
f 657/657 658/658 659/659 660/660
f 661/661 662/662 663/663
f 664/664 665/665 666/666
f 667/667 668/668 669/669 670/670
f 671/671 672/672 673/673
f 674/674 675/675 676/676
f 677/677 678/678 679/679 680/680
f 681/681 682/682 683/683
f 684/684 685/685 686/686
f 687/687 688/688 689/689 690/690
f 691/691 692/692 693/693
f 694/694 695/695 696/696
f 697/697 698/698 699/699 700/700
f 701/701 702/702 703/703
f 704/704 705/705 706/706
f 707/707 708/708 709/709 710/710
f 711/711 712/712 713/713
f 714/714 715/715 716/716
f 717/717 718/718 719/719 720/720
f 721/721 722/722 723/723
f 724/724 725/725 726/726
f 727/727 728/728 729/729 730/730
f 731/731 732/732 733/733
f 734/734 735/735 736/736
f 737/737 738/738 739/739 740/740
f 741/741 742/742 743/743
f 744/744 745/745 746/746
f 747/747 748/748 749/749 750/750
f 751/751 752/752 753/753
f 754/754 755/755 756/756
f 757/757 758/758 759/759 760/760
f 761/761 762/762 763/763
f 764/764 765/765 766/766
f 767/767 768/768 769/769 770/770
f 771/771 772/772 773/773
f 774/774 775/775 776/776
f 777/777 778/778 779/779 780/780
f 781/781 782/782 783/783
f 784/784 785/785 786/786
f 787/787 788/788 789/789 790/790
f 791/791 792/792 793/793
f 794/794 795/795 796/796
f 797/797 798/798 799/799 800/800
f 801/801 802/802 803/803
f 804/804 805/805 806/806
f 807/807 808/808 809/809 810/810
f 811/811 812/812 813/813
f 814/814 815/815 816/816
f 817/817 818/818 819/819 820/820
f 821/821 822/822 823/823
f 824/824 825/825 826/826
f 827/827 828/828 829/829 830/830
f 831/831 832/832 833/833
f 834/834 835/835 836/836
f 837/837 838/838 839/839 840/840
f 841/841 842/842 843/843
f 844/844 845/845 846/846
f 847/847 848/848 849/849 850/850
f 851/851 852/852 853/853
f 854/854 855/855 856/856
f 857/857 858/858 859/859 860/860
f 861/861 862/862 863/863
f 864/864 865/865 866/866
f 867/867 868/868 869/869 870/870
f 871/871 872/872 873/873
f 874/874 875/875 876/876
f 877/877 878/878 879/879 880/880
f 881/881 882/882 883/883
f 884/884 885/885 886/886
f 887/887 888/888 889/889 890/890
f 891/891 892/892 893/893
f 894/894 895/895 896/896
f 897/897 898/898 899/899 900/900
f 901/901 902/902 903/903
f 904/904 905/905 906/906
f 907/907 908/908 909/909 910/910
f 911/911 912/912 913/913
f 914/914 915/915 916/916
f 917/917 918/918 919/919 920/920
f 921/921 922/922 923/923
f 924/924 925/925 926/926
f 927/927 928/928 929/929 930/930
f 931/931 932/932 933/933
f 934/934 935/935 936/936
f 937/937 938/938 939/939 940/940
f 941/941 942/942 943/943
f 944/944 945/945 946/946
f 947/947 948/948 949/949 950/950
f 951/951 952/952 953/953
f 954/954 955/955 956/956
f 957/957 958/958 959/959 960/960
f 961/961 962/962 963/963
f 964/964 965/965 966/966
f 967/967 968/968 969/969 970/970
f 971/971 972/972 973/973
f 974/974 975/975 976/976
f 977/977 978/978 979/979 980/980
f 981/981 982/982 983/983
f 984/984 985/985 986/986
f 987/987 988/988 989/989 990/990
f 991/991 992/992 993/993
f 994/994 995/995 996/996
f 997/997 998/998 999/999 1000/1000
f 1001/1001 1002/1002 1003/1003
f 1004/1004 1005/1005 1006/1006
f 1007/1007 1008/1008 1009/1009 1010/1010
f 1011/1011 1012/1012 1013/1013
f 1014/1014 1015/1015 1016/1016
f 1017/1017 1018/1018 1019/1019 1020/1020
f 1021/1021 1022/1022 1023/1023
f 1024/1024 1025/1025 1026/1026
f 1027/1027 1028/1028 1029/1029 1030/1030
f 1031/1031 1032/1032 1033/1033
f 1034/1034 1035/1035 1036/1036
f 1037/1037 1038/1038 1039/1039 1040/1040
f 1041/1041 1042/1042 1043/1043
f 1044/1044 1045/1045 1046/1046
f 1047/1047 1048/1048 1049/1049 1050/1050
f 1051/1051 1052/1052 1053/1053
f 1054/1054 1055/1055 1056/1056
f 1057/1057 1058/1058 1059/1059 1060/1060
f 1061/1061 1062/1062 1063/1063
f 1064/1064 1065/1065 1066/1066
f 1067/1067 1068/1068 1069/1069 1070/1070
f 1071/1071 1072/1072 1073/1073
f 1074/1074 1075/1075 1076/1076
f 1077/1077 1078/1078 1079/1079 1080/1080
f 1081/1081 1082/1082 1083/1083
f 1084/1084 1085/1085 1086/1086
f 1087/1087 1088/1088 1089/1089 1090/1090
f 1091/1091 1092/1092 1093/1093
f 1094/1094 1095/1095 1096/1096
f 1097/1097 1098/1098 1099/1099 1100/1100
f 1101/1101 1102/1102 1103/1103
f 1104/1104 1105/1105 1106/1106
f 1107/1107 1108/1108 1109/1109 1110/1110
f 1111/1111 1112/1112 1113/1113
f 1114/1114 1115/1115 1116/1116
f 1117/1117 1118/1118 1119/1119 1120/1120
f 1121/1121 1122/1122 1123/1123
f 1124/1124 1125/1125 1126/1126
