# Modelo original generado para Caelum Argenteum.
# Ejes OBJ: X ancho, Y altura, Z profundidad.
o ca_tree_tundra_guindo3
v 0.000000 0.000000 -10.000000
v -6.427876 0.000000 -7.660444
v -1.478412 100.297280 -1.761902
v 0.000000 100.297280 -2.300000
v 0.000000 0.000000 0.000000
v -6.427876 0.000000 -7.660444
v 0.000000 0.000000 -10.000000
v -6.427876 0.000000 -7.660444
v -9.848078 0.000000 -1.736482
v -2.265058 100.297280 -0.399391
v -1.478412 100.297280 -1.761902
v 0.000000 0.000000 0.000000
v -9.848078 0.000000 -1.736482
v -6.427876 0.000000 -7.660444
v -9.848078 0.000000 -1.736482
v -8.660254 0.000000 5.000000
v -1.991858 100.297280 1.150000
v -2.265058 100.297280 -0.399391
v 0.000000 0.000000 0.000000
v -8.660254 0.000000 5.000000
v -9.848078 0.000000 -1.736482
v -8.660254 0.000000 5.000000
v -3.420201 0.000000 9.396926
v -0.786646 100.297280 2.161293
v -1.991858 100.297280 1.150000
v 0.000000 0.000000 0.000000
v -3.420201 0.000000 9.396926
v -8.660254 0.000000 5.000000
v -3.420201 0.000000 9.396926
v 3.420201 0.000000 9.396926
v 0.786646 100.297280 2.161293
v -0.786646 100.297280 2.161293
v 0.000000 0.000000 0.000000
v 3.420201 0.000000 9.396926
v -3.420201 0.000000 9.396926
v 3.420201 0.000000 9.396926
v 8.660254 0.000000 5.000000
v 1.991858 100.297280 1.150000
v 0.786646 100.297280 2.161293
v 0.000000 0.000000 0.000000
v 8.660254 0.000000 5.000000
v 3.420201 0.000000 9.396926
v 8.660254 0.000000 5.000000
v 9.848078 0.000000 -1.736482
v 2.265058 100.297280 -0.399391
v 1.991858 100.297280 1.150000
v 0.000000 0.000000 0.000000
v 9.848078 0.000000 -1.736482
v 8.660254 0.000000 5.000000
v 9.848078 0.000000 -1.736482
v 6.427876 0.000000 -7.660444
v 1.478412 100.297280 -1.761902
v 2.265058 100.297280 -0.399391
v 0.000000 0.000000 0.000000
v 6.427876 0.000000 -7.660444
v 9.848078 0.000000 -1.736482
v 6.427876 0.000000 -7.660444
v 0.000000 0.000000 -10.000000
v 0.000000 100.297280 -2.300000
v 1.478412 100.297280 -1.761902
v 0.000000 0.000000 0.000000
v 0.000000 0.000000 -10.000000
v 6.427876 0.000000 -7.660444
v -0.275338 100.297280 -2.283460
v -1.678701 100.297280 -1.572248
v 3.941298 147.496000 3.691364
v 0.646446 147.496000 5.361167
v 0.000000 147.496000 0.000000
v 0.646446 147.496000 5.361167
v 3.941298 147.496000 3.691364
v -1.678701 100.297280 -1.572248
v -2.296581 100.297280 -0.125364
v 5.391973 147.496000 0.294332
v 3.941298 147.496000 3.691364
v 0.000000 147.496000 0.000000
v 3.941298 147.496000 3.691364
v 5.391973 147.496000 0.294332
v -2.296581 100.297280 -0.125364
v -1.839865 100.297280 1.380180
v 4.319684 147.496000 -3.240422
v 5.391973 147.496000 0.294332
v 0.000000 147.496000 0.000000
v 5.391973 147.496000 0.294332
v 4.319684 147.496000 -3.240422
v -1.839865 100.297280 1.380180
v -0.522256 100.297280 2.239922
v 1.226167 147.496000 -5.258946
v 4.319684 147.496000 -3.240422
v 0.000000 147.496000 0.000000
v 4.319684 147.496000 -3.240422
v 1.226167 147.496000 -5.258946
v -0.522256 100.297280 2.239922
v 1.039722 100.297280 2.051579
v -2.441087 147.496000 -4.816751
v 1.226167 147.496000 -5.258946
v 0.000000 147.496000 0.000000
v 1.226167 147.496000 -5.258946
v -2.441087 147.496000 -4.816751
v 1.039722 100.297280 2.051579
v 2.115203 100.297280 0.903280
v -4.966129 147.496000 -2.120745
v -2.441087 147.496000 -4.816751
v 0.000000 147.496000 0.000000
v -2.441087 147.496000 -4.816751
v -4.966129 147.496000 -2.120745
v 2.115203 100.297280 0.903280
v 2.200957 100.297280 -0.667674
v -5.167464 147.496000 1.567582
v -4.966129 147.496000 -2.120745
v 0.000000 147.496000 0.000000
v -4.966129 147.496000 -2.120745
v -5.167464 147.496000 1.567582
v 2.200957 100.297280 -0.667674
v 1.256859 100.297280 -1.926216
v -2.950885 147.496000 4.522419
v -5.167464 147.496000 1.567582
v 0.000000 147.496000 0.000000
v -5.167464 147.496000 1.567582
v -2.950885 147.496000 4.522419
v 1.256859 100.297280 -1.926216
v -0.275338 100.297280 -2.283460
v 0.646446 147.496000 5.361167
v -2.950885 147.496000 4.522419
v 0.000000 147.496000 0.000000
v -2.950885 147.496000 4.522419
v 0.646446 147.496000 5.361167
v -0.801784 41.093158 -61.214423
v -35.854774 41.093158 -49.825016
v -3.606023 68.903158 -5.438419
v -0.801784 68.903158 -6.349572
v -0.801784 41.093158 -1.578715
v -35.854774 41.093158 -49.825016
v -0.801784 41.093158 -61.214423
v -0.801784 68.903158 -1.578715
v -0.801784 68.903158 -6.349572
v -3.606023 68.903158 -5.438419
v -35.854774 41.093158 -49.825016
v -57.518713 41.093158 -20.007162
v -5.339138 68.903158 -3.052991
v -3.606023 68.903158 -5.438419
v -0.801784 41.093158 -1.578715
v -57.518713 41.093158 -20.007162
v -35.854774 41.093158 -49.825016
v -0.801784 68.903158 -1.578715
v -3.606023 68.903158 -5.438419
v -5.339138 68.903158 -3.052991
v -57.518713 41.093158 -20.007162
v -57.518713 41.093158 16.849732
v -5.339138 68.903158 -0.104439
v -5.339138 68.903158 -3.052991
v -0.801784 41.093158 -1.578715
v -57.518713 41.093158 16.849732
v -57.518713 41.093158 -20.007162
v -0.801784 68.903158 -1.578715
v -5.339138 68.903158 -3.052991
v -5.339138 68.903158 -0.104439
v -57.518713 41.093158 16.849732
v -35.854774 41.093158 46.667586
v -3.606023 68.903158 2.280989
v -5.339138 68.903158 -0.104439
v -0.801784 41.093158 -1.578715
v -35.854774 41.093158 46.667586
v -57.518713 41.093158 16.849732
v -0.801784 68.903158 -1.578715
v -5.339138 68.903158 -0.104439
v -3.606023 68.903158 2.280989
v -35.854774 41.093158 46.667586
v -0.801784 41.093158 58.056993
v -0.801784 68.903158 3.192142
v -3.606023 68.903158 2.280989
v -0.801784 41.093158 -1.578715
v -0.801784 41.093158 58.056993
v -35.854774 41.093158 46.667586
v -0.801784 68.903158 -1.578715
v -3.606023 68.903158 2.280989
v -0.801784 68.903158 3.192142
v -0.801784 41.093158 58.056993
v 34.251206 41.093158 46.667586
v 2.002455 68.903158 2.280989
v -0.801784 68.903158 3.192142
v -0.801784 41.093158 -1.578715
v 34.251206 41.093158 46.667586
v -0.801784 41.093158 58.056993
v -0.801784 68.903158 -1.578715
v -0.801784 68.903158 3.192142
v 2.002455 68.903158 2.280989
v 34.251206 41.093158 46.667586
v 55.915145 41.093158 16.849732
v 3.735571 68.903158 -0.104439
v 2.002455 68.903158 2.280989
v -0.801784 41.093158 -1.578715
v 55.915145 41.093158 16.849732
v 34.251206 41.093158 46.667586
v -0.801784 68.903158 -1.578715
v 2.002455 68.903158 2.280989
v 3.735571 68.903158 -0.104439
v 55.915145 41.093158 16.849732
v 55.915145 41.093158 -20.007162
v 3.735571 68.903158 -3.052991
v 3.735571 68.903158 -0.104439
v -0.801784 41.093158 -1.578715
v 55.915145 41.093158 -20.007162
v 55.915145 41.093158 16.849732
v -0.801784 68.903158 -1.578715
v 3.735571 68.903158 -0.104439
v 3.735571 68.903158 -3.052991
v 55.915145 41.093158 -20.007162
v 34.251206 41.093158 -49.825016
v 2.002455 68.903158 -5.438419
v 3.735571 68.903158 -3.052991
v -0.801784 41.093158 -1.578715
v 34.251206 41.093158 -49.825016
v 55.915145 41.093158 -20.007162
v -0.801784 68.903158 -1.578715
v 3.735571 68.903158 -3.052991
v 2.002455 68.903158 -5.438419
v 34.251206 41.093158 -49.825016
v -0.801784 41.093158 -61.214423
v -0.801784 68.903158 -6.349572
v 2.002455 68.903158 -5.438419
v -0.801784 41.093158 -1.578715
v -0.801784 41.093158 -61.214423
v 34.251206 41.093158 -49.825016
v -0.801784 68.903158 -1.578715
v 2.002455 68.903158 -5.438419
v -0.801784 68.903158 -6.349572
v -8.876643 55.746531 -46.652510
v -34.844923 55.746531 -32.662290
v -3.093078 83.556531 -2.333603
v -1.015616 83.556531 -3.452821
v -0.332048 55.746531 0.303674
v -34.844923 55.746531 -32.662290
v -8.876643 55.746531 -46.652510
v -0.332048 83.556531 0.303674
v -1.015616 83.556531 -3.452821
v -3.093078 83.556531 -2.333603
v -34.844923 55.746531 -32.662290
v -47.630459 55.746531 -6.080192
v -4.115921 83.556531 -0.207035
v -3.093078 83.556531 -2.333603
v -0.332048 55.746531 0.303674
v -47.630459 55.746531 -6.080192
v -34.844923 55.746531 -32.662290
v -0.332048 83.556531 0.303674
v -3.093078 83.556531 -2.333603
v -4.115921 83.556531 -0.207035
v -47.630459 55.746531 -6.080192
v -42.349609 55.746531 22.940326
v -3.693453 83.556531 2.114606
v -4.115921 83.556531 -0.207035
v -0.332048 55.746531 0.303674
v -42.349609 55.746531 22.940326
v -47.630459 55.746531 -6.080192
v -0.332048 83.556531 0.303674
v -4.115921 83.556531 -0.207035
v -3.693453 83.556531 2.114606
v -42.349609 55.746531 22.940326
v -21.019479 55.746531 43.314412
v -1.987043 83.556531 3.744533
v -3.693453 83.556531 2.114606
v -0.332048 55.746531 0.303674
v -21.019479 55.746531 43.314412
v -42.349609 55.746531 22.940326
v -0.332048 83.556531 0.303674
v -3.693453 83.556531 2.114606
v -1.987043 83.556531 3.744533
v -21.019479 55.746531 43.314412
v 8.212546 55.746531 47.259859
v 0.351519 83.556531 4.060169
v -1.987043 83.556531 3.744533
v -0.332048 55.746531 0.303674
v 8.212546 55.746531 47.259859
v -21.019479 55.746531 43.314412
v -0.332048 83.556531 0.303674
v -1.987043 83.556531 3.744533
v 0.351519 83.556531 4.060169
v 8.212546 55.746531 47.259859
v 34.180827 55.746531 33.269639
v 2.428982 83.556531 2.940951
v 0.351519 83.556531 4.060169
v -0.332048 55.746531 0.303674
v 34.180827 55.746531 33.269639
v 8.212546 55.746531 47.259859
v -0.332048 83.556531 0.303674
v 0.351519 83.556531 4.060169
v 2.428982 83.556531 2.940951
v 34.180827 55.746531 33.269639
v 46.966362 55.746531 6.687541
v 3.451824 83.556531 0.814383
v 2.428982 83.556531 2.940951
v -0.332048 55.746531 0.303674
v 46.966362 55.746531 6.687541
v 34.180827 55.746531 33.269639
v -0.332048 83.556531 0.303674
v 2.428982 83.556531 2.940951
v 3.451824 83.556531 0.814383
v 46.966362 55.746531 6.687541
v 41.685512 55.746531 -22.332977
v 3.029356 83.556531 -1.507258
v 3.451824 83.556531 0.814383
v -0.332048 55.746531 0.303674
v 41.685512 55.746531 -22.332977
v 46.966362 55.746531 6.687541
v -0.332048 83.556531 0.303674
v 3.451824 83.556531 0.814383
v 3.029356 83.556531 -1.507258
v 41.685512 55.746531 -22.332977
v 20.355382 55.746531 -42.707064
v 1.322946 83.556531 -3.137185
v 3.029356 83.556531 -1.507258
v -0.332048 55.746531 0.303674
v 20.355382 55.746531 -42.707064
v 41.685512 55.746531 -22.332977
v -0.332048 83.556531 0.303674
v 3.029356 83.556531 -1.507258
v 1.322946 83.556531 -3.137185
v 20.355382 55.746531 -42.707064
v -8.876643 55.746531 -46.652510
v -1.015616 83.556531 -3.452821
v 1.322946 83.556531 -3.137185
v -0.332048 55.746531 0.303674
v -8.876643 55.746531 -46.652510
v 20.355382 55.746531 -42.707064
v -0.332048 83.556531 0.303674
v 1.322946 83.556531 -3.137185
v -1.015616 83.556531 -3.452821
v -14.335625 70.968983 -40.992228
v -35.617392 70.968983 -23.987107
v -1.753044 98.778983 -1.680133
v -0.050503 98.778983 -3.040543
v 1.191681 70.968983 0.259603
v -35.617392 70.968983 -23.987107
v -14.335625 70.968983 -40.992228
v 1.191681 98.778983 0.259603
v -0.050503 98.778983 -3.040543
v -1.753044 98.778983 -1.680133
v -35.617392 70.968983 -23.987107
v -42.839343 70.968983 2.279433
v -2.330800 98.778983 0.421190
v -1.753044 98.778983 -1.680133
v 1.191681 70.968983 0.259603
v -42.839343 70.968983 2.279433
v -35.617392 70.968983 -23.987107
v 1.191681 98.778983 0.259603
v -1.753044 98.778983 -1.680133
v -2.330800 98.778983 0.421190
v -42.839343 70.968983 2.279433
v -33.242940 70.968983 27.774467
v -1.563088 98.778983 2.460792
v -2.330800 98.778983 0.421190
v 1.191681 70.968983 0.259603
v -33.242940 70.968983 27.774467
v -42.839343 70.968983 2.279433
v 1.191681 98.778983 0.259603
v -2.330800 98.778983 0.421190
v -1.563088 98.778983 2.460792
v -33.242940 70.968983 27.774467
v -10.493681 70.968983 42.759758
v 0.256852 98.778983 3.659616
v -1.563088 98.778983 2.460792
v 1.191681 70.968983 0.259603
v -10.493681 70.968983 42.759758
v -33.242940 70.968983 27.774467
v 1.191681 98.778983 0.259603
v -1.563088 98.778983 2.460792
v 0.256852 98.778983 3.659616
v -10.493681 70.968983 42.759758
v 16.718988 70.968983 41.511435
v 2.433866 98.778983 3.559750
v 0.256852 98.778983 3.659616
v 1.191681 70.968983 0.259603
v 16.718988 70.968983 41.511435
v -10.493681 70.968983 42.759758
v 1.191681 98.778983 0.259603
v 0.256852 98.778983 3.659616
v 2.433866 98.778983 3.559750
v 16.718988 70.968983 41.511435
v 38.000755 70.968983 24.506314
v 4.136407 98.778983 2.199340
v 2.433866 98.778983 3.559750
v 1.191681 70.968983 0.259603
v 38.000755 70.968983 24.506314
v 16.718988 70.968983 41.511435
v 1.191681 98.778983 0.259603
v 2.433866 98.778983 3.559750
v 4.136407 98.778983 2.199340
v 38.000755 70.968983 24.506314
v 45.222706 70.968983 -1.760226
v 4.714163 98.778983 0.098017
v 4.136407 98.778983 2.199340
v 1.191681 70.968983 0.259603
v 45.222706 70.968983 -1.760226
v 38.000755 70.968983 24.506314
v 1.191681 98.778983 0.259603
v 4.136407 98.778983 2.199340
v 4.714163 98.778983 0.098017
v 45.222706 70.968983 -1.760226
v 35.626303 70.968983 -27.255260
v 3.946451 98.778983 -1.941586
v 4.714163 98.778983 0.098017
v 1.191681 70.968983 0.259603
v 35.626303 70.968983 -27.255260
v 45.222706 70.968983 -1.760226
v 1.191681 98.778983 0.259603
v 4.714163 98.778983 0.098017
v 3.946451 98.778983 -1.941586
v 35.626303 70.968983 -27.255260
v 12.877044 70.968983 -42.240551
v 2.126511 98.778983 -3.140409
v 3.946451 98.778983 -1.941586
v 1.191681 70.968983 0.259603
v 12.877044 70.968983 -42.240551
v 35.626303 70.968983 -27.255260
v 1.191681 98.778983 0.259603
v 3.946451 98.778983 -1.941586
v 2.126511 98.778983 -3.140409
v 12.877044 70.968983 -42.240551
v -14.335625 70.968983 -40.992228
v -0.050503 98.778983 -3.040543
v 2.126511 98.778983 -3.140409
v 1.191681 70.968983 0.259603
v -14.335625 70.968983 -40.992228
v 12.877044 70.968983 -42.240551
v 1.191681 98.778983 0.259603
v 2.126511 98.778983 -3.140409
v -0.050503 98.778983 -3.040543
v -19.821092 85.378698 -33.220893
v -35.239915 85.378698 -15.521209
v -3.089205 113.188698 -1.834105
v -1.855699 113.188698 -3.250080
v -0.293491 85.378698 -0.643922
v -35.239915 85.378698 -15.521209
v -19.821092 85.378698 -33.220893
v -0.293491 113.188698 -0.643922
v -1.855699 113.188698 -3.250080
v -3.089205 113.188698 -1.834105
v -35.239915 85.378698 -15.521209
v -37.310392 85.378698 7.861093
v -3.254843 113.188698 0.036479
v -3.089205 113.188698 -1.834105
v -0.293491 85.378698 -0.643922
v -37.310392 85.378698 7.861093
v -35.239915 85.378698 -15.521209
v -0.293491 113.188698 -0.643922
v -3.089205 113.188698 -1.834105
v -3.254843 113.188698 0.036479
v -37.310392 85.378698 7.861093
v -25.241671 85.378698 27.994768
v -2.289345 113.188698 1.647173
v -3.254843 113.188698 0.036479
v -0.293491 85.378698 -0.643922
v -25.241671 85.378698 27.994768
v -37.310392 85.378698 7.861093
v -0.293491 113.188698 -0.643922
v -3.254843 113.188698 0.036479
v -2.289345 113.188698 1.647173
v -25.241671 85.378698 27.994768
v -3.643592 85.378698 37.189437
v -0.561499 113.188698 2.382747
v -2.289345 113.188698 1.647173
v -0.293491 85.378698 -0.643922
v -3.643592 85.378698 37.189437
v -25.241671 85.378698 27.994768
v -0.293491 113.188698 -0.643922
v -2.289345 113.188698 1.647173
v -0.561499 113.188698 2.382747
v -3.643592 85.378698 37.189437
v 19.234111 85.378698 31.933049
v 1.268718 113.188698 1.962235
v -0.561499 113.188698 2.382747
v -0.293491 85.378698 -0.643922
v 19.234111 85.378698 31.933049
v -3.643592 85.378698 37.189437
v -0.293491 113.188698 -0.643922
v -0.561499 113.188698 2.382747
v 1.268718 113.188698 1.962235
v 19.234111 85.378698 31.933049
v 34.652934 85.378698 14.233365
v 2.502223 113.188698 0.546261
v 1.268718 113.188698 1.962235
v -0.293491 85.378698 -0.643922
v 34.652934 85.378698 14.233365
v 19.234111 85.378698 31.933049
v -0.293491 113.188698 -0.643922
v 1.268718 113.188698 1.962235
v 2.502223 113.188698 0.546261
v 34.652934 85.378698 14.233365
v 36.723411 85.378698 -9.148937
v 2.667862 113.188698 -1.324323
v 2.502223 113.188698 0.546261
v -0.293491 85.378698 -0.643922
v 36.723411 85.378698 -9.148937
v 34.652934 85.378698 14.233365
v -0.293491 113.188698 -0.643922
v 2.502223 113.188698 0.546261
v 2.667862 113.188698 -1.324323
v 36.723411 85.378698 -9.148937
v 24.654689 85.378698 -29.282613
v 1.702364 113.188698 -2.935017
v 2.667862 113.188698 -1.324323
v -0.293491 85.378698 -0.643922
v 24.654689 85.378698 -29.282613
v 36.723411 85.378698 -9.148937
v -0.293491 113.188698 -0.643922
v 2.667862 113.188698 -1.324323
v 1.702364 113.188698 -2.935017
v 24.654689 85.378698 -29.282613
v 3.056611 85.378698 -38.477282
v -0.025482 113.188698 -3.670591
v 1.702364 113.188698 -2.935017
v -0.293491 85.378698 -0.643922
v 3.056611 85.378698 -38.477282
v 24.654689 85.378698 -29.282613
v -0.293491 113.188698 -0.643922
v 1.702364 113.188698 -2.935017
v -0.025482 113.188698 -3.670591
v 3.056611 85.378698 -38.477282
v -19.821092 85.378698 -33.220893
v -1.855699 113.188698 -3.250080
v -0.025482 113.188698 -3.670591
v -0.293491 85.378698 -0.643922
v -19.821092 85.378698 -33.220893
v 3.056611 85.378698 -38.477282
v -0.293491 113.188698 -0.643922
v -0.025482 113.188698 -3.670591
v -1.855699 113.188698 -3.250080
v -24.382744 98.665057 -25.917951
v -35.624106 98.665057 -7.020697
v -3.699586 126.475057 0.201350
v -2.800277 126.475057 -1.310430
v -0.923541 98.665057 0.829354
v -35.624106 98.665057 -7.020697
v -24.382744 98.665057 -25.917951
v -0.923541 126.475057 0.829354
v -2.800277 126.475057 -1.310430
v -3.699586 126.475057 0.201350
v -35.624106 98.665057 -7.020697
v -33.611032 98.665057 14.875010
v -3.538540 126.475057 1.953007
v -3.699586 126.475057 0.201350
v -0.923541 98.665057 0.829354
v -33.611032 98.665057 14.875010
v -35.624106 98.665057 -7.020697
v -0.923541 126.475057 0.829354
v -3.699586 126.475057 0.201350
v -3.538540 126.475057 1.953007
v -33.611032 98.665057 14.875010
v -19.112447 98.665057 31.405753
v -2.378654 126.475057 3.275466
v -3.538540 126.475057 1.953007
v -0.923541 98.665057 0.829354
v -19.112447 98.665057 31.405753
v -33.611032 98.665057 14.875010
v -0.923541 126.475057 0.829354
v -3.538540 126.475057 1.953007
v -2.378654 126.475057 3.275466
v -19.112447 98.665057 31.405753
v 2.333681 98.665057 36.257352
v -0.662963 126.475057 3.663594
v -2.378654 126.475057 3.275466
v -0.923541 98.665057 0.829354
v 2.333681 98.665057 36.257352
v -19.112447 98.665057 31.405753
v -0.923541 126.475057 0.829354
v -2.378654 126.475057 3.275466
v -0.662963 126.475057 3.663594
v 2.333681 98.665057 36.257352
v 22.535661 98.665057 27.576659
v 0.953195 126.475057 2.969139
v -0.662963 126.475057 3.663594
v -0.923541 98.665057 0.829354
v 22.535661 98.665057 27.576659
v 2.333681 98.665057 36.257352
v -0.923541 126.475057 0.829354
v -0.662963 126.475057 3.663594
v 0.953195 126.475057 2.969139
v 22.535661 98.665057 27.576659
v 33.777024 98.665057 8.679405
v 1.852504 126.475057 1.457358
v 0.953195 126.475057 2.969139
v -0.923541 98.665057 0.829354
v 33.777024 98.665057 8.679405
v 22.535661 98.665057 27.576659
v -0.923541 126.475057 0.829354
v 0.953195 126.475057 2.969139
v 1.852504 126.475057 1.457358
v 33.777024 98.665057 8.679405
v 31.763950 98.665057 -13.216301
v 1.691458 126.475057 -0.294298
v 1.852504 126.475057 1.457358
v -0.923541 98.665057 0.829354
v 31.763950 98.665057 -13.216301
v 33.777024 98.665057 8.679405
v -0.923541 126.475057 0.829354
v 1.852504 126.475057 1.457358
v 1.691458 126.475057 -0.294298
v 31.763950 98.665057 -13.216301
v 17.265365 98.665057 -29.747045
v 0.531571 126.475057 -1.616758
v 1.691458 126.475057 -0.294298
v -0.923541 98.665057 0.829354
v 17.265365 98.665057 -29.747045
v 31.763950 98.665057 -13.216301
v -0.923541 126.475057 0.829354
v 1.691458 126.475057 -0.294298
v 0.531571 126.475057 -1.616758
v 17.265365 98.665057 -29.747045
v -4.180763 98.665057 -34.598643
v -1.184119 126.475057 -2.004886
v 0.531571 126.475057 -1.616758
v -0.923541 98.665057 0.829354
v -4.180763 98.665057 -34.598643
v 17.265365 98.665057 -29.747045
v -0.923541 126.475057 0.829354
v 0.531571 126.475057 -1.616758
v -1.184119 126.475057 -2.004886
v -4.180763 98.665057 -34.598643
v -24.382744 98.665057 -25.917951
v -2.800277 126.475057 -1.310430
v -1.184119 126.475057 -2.004886
v -0.923541 98.665057 0.829354
v -24.382744 98.665057 -25.917951
v -4.180763 98.665057 -34.598643
v -0.923541 126.475057 0.829354
v -1.184119 126.475057 -2.004886
v -2.800277 126.475057 -1.310430
v -21.361887 110.969213 -18.171832
v -27.092731 110.969213 -2.789837
v -2.679723 138.779213 -1.752202
v -2.221255 138.779213 -2.982762
v -0.556852 110.969213 -1.661973
v -27.092731 110.969213 -2.789837
v -21.361887 110.969213 -18.171832
v -0.556852 138.779213 -1.661973
v -2.221255 138.779213 -2.982762
v -2.679723 138.779213 -1.752202
v -27.092731 110.969213 -2.789837
v -22.687771 110.969213 13.022964
v -2.327326 138.779213 -0.487178
v -2.679723 138.779213 -1.752202
v -0.556852 110.969213 -1.661973
v -22.687771 110.969213 13.022964
v -27.092731 110.969213 -2.789837
v -0.556852 138.779213 -1.661973
v -2.679723 138.779213 -1.752202
v -2.327326 138.779213 -0.487178
v -22.687771 110.969213 13.022964
v -9.829552 110.969213 23.226618
v -1.298668 138.779213 0.329114
v -2.327326 138.779213 -0.487178
v -0.556852 110.969213 -1.661973
v -9.829552 110.969213 23.226618
v -22.687771 110.969213 13.022964
v -0.556852 138.779213 -1.661973
v -2.327326 138.779213 -0.487178
v -1.298668 138.779213 0.329114
v -9.829552 110.969213 23.226618
v 6.570522 110.969213 23.923676
v 0.013338 138.779213 0.384879
v -1.298668 138.779213 0.329114
v -0.556852 110.969213 -1.661973
v 6.570522 110.969213 23.923676
v -9.829552 110.969213 23.226618
v -0.556852 138.779213 -1.661973
v -1.298668 138.779213 0.329114
v 0.013338 138.779213 0.384879
v 6.570522 110.969213 23.923676
v 20.248182 110.969213 14.847886
v 1.107550 138.779213 -0.341184
v 0.013338 138.779213 0.384879
v -0.556852 110.969213 -1.661973
v 20.248182 110.969213 14.847886
v 6.570522 110.969213 23.923676
v -0.556852 138.779213 -1.661973
v 0.013338 138.779213 0.384879
v 1.107550 138.779213 -0.341184
v 20.248182 110.969213 14.847886
v 25.979026 110.969213 -0.534109
v 1.566018 138.779213 -1.571744
v 1.107550 138.779213 -0.341184
v -0.556852 110.969213 -1.661973
v 25.979026 110.969213 -0.534109
v 20.248182 110.969213 14.847886
v -0.556852 138.779213 -1.661973
v 1.107550 138.779213 -0.341184
v 1.566018 138.779213 -1.571744
v 25.979026 110.969213 -0.534109
v 21.574066 110.969213 -16.346910
v 1.213621 138.779213 -2.836768
v 1.566018 138.779213 -1.571744
v -0.556852 110.969213 -1.661973
v 21.574066 110.969213 -16.346910
v 25.979026 110.969213 -0.534109
v -0.556852 138.779213 -1.661973
v 1.566018 138.779213 -1.571744
v 1.213621 138.779213 -2.836768
v 21.574066 110.969213 -16.346910
v 8.715847 110.969213 -26.550564
v 0.184964 138.779213 -3.653060
v 1.213621 138.779213 -2.836768
v -0.556852 110.969213 -1.661973
v 8.715847 110.969213 -26.550564
v 21.574066 110.969213 -16.346910
v -0.556852 138.779213 -1.661973
v 1.213621 138.779213 -2.836768
v 0.184964 138.779213 -3.653060
v 8.715847 110.969213 -26.550564
v -7.684227 110.969213 -27.247622
v -1.127042 138.779213 -3.708825
v 0.184964 138.779213 -3.653060
v -0.556852 110.969213 -1.661973
v -7.684227 110.969213 -27.247622
v 8.715847 110.969213 -26.550564
v -0.556852 138.779213 -1.661973
v 0.184964 138.779213 -3.653060
v -1.127042 138.779213 -3.708825
v -7.684227 110.969213 -27.247622
v -21.361887 110.969213 -18.171832
v -2.221255 138.779213 -2.982762
v -1.127042 138.779213 -3.708825
v -0.556852 110.969213 -1.661973
v -21.361887 110.969213 -18.171832
v -7.684227 110.969213 -27.247622
v -0.556852 138.779213 -1.661973
v -1.127042 138.779213 -3.708825
v -2.221255 138.779213 -2.982762
v -19.316203 125.629860 -8.200336
v -21.648008 125.629860 4.863191
v -2.080893 153.439860 2.155185
v -1.894348 153.439860 1.110103
v -0.379404 125.629860 1.919706
v -21.648008 125.629860 4.863191
v -19.316203 125.629860 -8.200336
v -0.379404 153.439860 1.919706
v -1.894348 153.439860 1.110103
v -2.080893 153.439860 2.155185
v -21.648008 125.629860 4.863191
v -15.855929 125.629860 16.802407
v -1.617526 153.439860 3.110322
v -2.080893 153.439860 2.155185
v -0.379404 125.629860 1.919706
v -15.855929 125.629860 16.802407
v -21.648008 125.629860 4.863191
v -0.379404 153.439860 1.919706
v -2.080893 153.439860 2.155185
v -1.617526 153.439860 3.110322
v -15.855929 125.629860 16.802407
v -4.152344 125.629860 23.056937
v -0.681239 153.439860 3.610685
v -1.617526 153.439860 3.110322
v -0.379404 125.629860 1.919706
v -4.152344 125.629860 23.056937
v -15.855929 125.629860 16.802407
v -0.379404 153.439860 1.919706
v -1.617526 153.439860 3.110322
v -0.681239 153.439860 3.610685
v -4.152344 125.629860 23.056937
v 8.992376 125.629860 21.237764
v 0.370338 153.439860 3.465151
v -0.681239 153.439860 3.610685
v -0.379404 125.629860 1.919706
v 8.992376 125.629860 21.237764
v -4.152344 125.629860 23.056937
v -0.379404 153.439860 1.919706
v -0.681239 153.439860 3.610685
v 0.370338 153.439860 3.465151
v 8.992376 125.629860 21.237764
v 18.557395 125.629860 12.039749
v 1.135540 153.439860 2.729310
v 0.370338 153.439860 3.465151
v -0.379404 125.629860 1.919706
v 18.557395 125.629860 12.039749
v 8.992376 125.629860 21.237764
v -0.379404 153.439860 1.919706
v 0.370338 153.439860 3.465151
v 1.135540 153.439860 2.729310
v 18.557395 125.629860 12.039749
v 20.889200 125.629860 -1.023779
v 1.322084 153.439860 1.684227
v 1.135540 153.439860 2.729310
v -0.379404 125.629860 1.919706
v 20.889200 125.629860 -1.023779
v 18.557395 125.629860 12.039749
v -0.379404 153.439860 1.919706
v 1.135540 153.439860 2.729310
v 1.322084 153.439860 1.684227
v 20.889200 125.629860 -1.023779
v 15.097121 125.629860 -12.962995
v 0.858718 153.439860 0.729090
v 1.322084 153.439860 1.684227
v -0.379404 125.629860 1.919706
v 15.097121 125.629860 -12.962995
v 20.889200 125.629860 -1.023779
v -0.379404 153.439860 1.919706
v 1.322084 153.439860 1.684227
v 0.858718 153.439860 0.729090
v 15.097121 125.629860 -12.962995
v 3.393535 125.629860 -19.217525
v -0.077569 153.439860 0.228728
v 0.858718 153.439860 0.729090
v -0.379404 125.629860 1.919706
v 3.393535 125.629860 -19.217525
v 15.097121 125.629860 -12.962995
v -0.379404 153.439860 1.919706
v 0.858718 153.439860 0.729090
v -0.077569 153.439860 0.228728
v 3.393535 125.629860 -19.217525
v -9.751185 125.629860 -17.398351
v -1.129147 153.439860 0.374262
v -0.077569 153.439860 0.228728
v -0.379404 125.629860 1.919706
v -9.751185 125.629860 -17.398351
v 3.393535 125.629860 -19.217525
v -0.379404 153.439860 1.919706
v -0.077569 153.439860 0.228728
v -1.129147 153.439860 0.374262
v -9.751185 125.629860 -17.398351
v -19.316203 125.629860 -8.200336
v -1.894348 153.439860 1.110103
v -1.129147 153.439860 0.374262
v -0.379404 125.629860 1.919706
v -19.316203 125.629860 -8.200336
v -9.751185 125.629860 -17.398351
v -0.379404 153.439860 1.919706
v -1.129147 153.439860 0.374262
v -1.894348 153.439860 1.110103
v -13.706591 140.094551 -3.315154
v -13.673465 140.094551 6.535205
v 0.256790 167.904551 1.957142
v 0.254140 167.904551 1.169113
v 1.468116 140.094551 1.559049
v -13.673465 140.094551 6.535205
v -13.706591 140.094551 -3.315154
v 1.468116 167.904551 1.559049
v 0.254140 167.904551 1.169113
v 0.256790 167.904551 1.957142
v -13.673465 140.094551 6.535205
v -7.856769 140.094551 14.484842
v 0.722126 167.904551 2.593113
v 0.256790 167.904551 1.957142
v 1.468116 140.094551 1.559049
v -7.856769 140.094551 14.484842
v -13.673465 140.094551 6.535205
v 1.468116 167.904551 1.559049
v 0.256790 167.904551 1.957142
v 0.722126 167.904551 2.593113
v -7.856769 140.094551 14.484842
v 1.521716 140.094551 17.497266
v 1.472404 167.904551 2.834107
v 0.722126 167.904551 2.593113
v 1.468116 140.094551 1.559049
v 1.521716 140.094551 17.497266
v -7.856769 140.094551 14.484842
v 1.468116 167.904551 1.559049
v 0.722126 167.904551 2.593113
v 1.472404 167.904551 2.834107
v 1.521716 140.094551 17.497266
v 10.879728 140.094551 14.421832
v 2.221045 167.904551 2.588072
v 1.472404 167.904551 2.834107
v 1.468116 140.094551 1.559049
v 10.879728 140.094551 14.421832
v 1.521716 140.094551 17.497266
v 1.468116 167.904551 1.559049
v 1.472404 167.904551 2.834107
v 2.221045 167.904551 2.588072
v 10.879728 140.094551 14.421832
v 16.642824 140.094551 6.433253
v 2.682093 167.904551 1.948986
v 2.221045 167.904551 2.588072
v 1.468116 140.094551 1.559049
v 16.642824 140.094551 6.433253
v 10.879728 140.094551 14.421832
v 1.468116 167.904551 1.559049
v 2.221045 167.904551 2.588072
v 2.682093 167.904551 1.948986
v 16.642824 140.094551 6.433253
v 16.609698 140.094551 -3.417106
v 2.679443 167.904551 1.160957
v 2.682093 167.904551 1.948986
v 1.468116 140.094551 1.559049
v 16.609698 140.094551 -3.417106
v 16.642824 140.094551 6.433253
v 1.468116 167.904551 1.559049
v 2.682093 167.904551 1.948986
v 2.679443 167.904551 1.160957
v 16.609698 140.094551 -3.417106
v 10.793002 140.094551 -11.366744
v 2.214107 167.904551 0.524986
v 2.679443 167.904551 1.160957
v 1.468116 140.094551 1.559049
v 10.793002 140.094551 -11.366744
v 16.609698 140.094551 -3.417106
v 1.468116 167.904551 1.559049
v 2.679443 167.904551 1.160957
v 2.214107 167.904551 0.524986
v 10.793002 140.094551 -11.366744
v 1.414517 140.094551 -14.379167
v 1.463828 167.904551 0.283992
v 2.214107 167.904551 0.524986
v 1.468116 140.094551 1.559049
v 1.414517 140.094551 -14.379167
v 10.793002 140.094551 -11.366744
v 1.468116 167.904551 1.559049
v 2.214107 167.904551 0.524986
v 1.463828 167.904551 0.283992
v 1.414517 140.094551 -14.379167
v -7.943495 140.094551 -11.303734
v 0.715187 167.904551 0.530027
v 1.463828 167.904551 0.283992
v 1.468116 140.094551 1.559049
v -7.943495 140.094551 -11.303734
v 1.414517 140.094551 -14.379167
v 1.468116 167.904551 1.559049
v 1.463828 167.904551 0.283992
v 0.715187 167.904551 0.530027
v -7.943495 140.094551 -11.303734
v -13.706591 140.094551 -3.315154
v 0.254140 167.904551 1.169113
v 0.715187 167.904551 0.530027
v 1.468116 140.094551 1.559049
v -13.706591 140.094551 -3.315154
v -7.943495 140.094551 -11.303734
v 1.468116 167.904551 1.559049
v 0.715187 167.904551 0.530027
v 0.254140 167.904551 1.169113
vt 0.000000 0.000000
vt 1.000000 0.000000
vt 1.000000 1.000000
vt 0.000000 1.000000
vt 0.500000 1.000000
vt 0.000000 0.000000
vt 1.000000 0.000000
vt 0.000000 0.000000
vt 1.000000 0.000000
vt 1.000000 1.000000
vt 0.000000 1.000000
vt 0.500000 1.000000
vt 0.000000 0.000000
vt 1.000000 0.000000
vt 0.000000 0.000000
vt 1.000000 0.000000
vt 1.000000 1.000000
vt 0.000000 1.000000
vt 0.500000 1.000000
vt 0.000000 0.000000
vt 1.000000 0.000000
vt 0.000000 0.000000
vt 1.000000 0.000000
vt 1.000000 1.000000
vt 0.000000 1.000000
vt 0.500000 1.000000
vt 0.000000 0.000000
vt 1.000000 0.000000
vt 0.000000 0.000000
vt 1.000000 0.000000
vt 1.000000 1.000000
vt 0.000000 1.000000
vt 0.500000 1.000000
vt 0.000000 0.000000
vt 1.000000 0.000000
vt 0.000000 0.000000
vt 1.000000 0.000000
vt 1.000000 1.000000
vt 0.000000 1.000000
vt 0.500000 1.000000
vt 0.000000 0.000000
vt 1.000000 0.000000
vt 0.000000 0.000000
vt 1.000000 0.000000
vt 1.000000 1.000000
vt 0.000000 1.000000
vt 0.500000 1.000000
vt 0.000000 0.000000
vt 1.000000 0.000000
vt 0.000000 0.000000
vt 1.000000 0.000000
vt 1.000000 1.000000
vt 0.000000 1.000000
vt 0.500000 1.000000
vt 0.000000 0.000000
vt 1.000000 0.000000
vt 0.000000 0.000000
vt 1.000000 0.000000
vt 1.000000 1.000000
vt 0.000000 1.000000
vt 0.500000 1.000000
vt 0.000000 0.000000
vt 1.000000 0.000000
vt 0.000000 0.000000
vt 1.000000 0.000000
vt 1.000000 1.000000
vt 0.000000 1.000000
vt 0.500000 1.000000
vt 0.000000 0.000000
vt 1.000000 0.000000
vt 0.000000 0.000000
vt 1.000000 0.000000
vt 1.000000 1.000000
vt 0.000000 1.000000
vt 0.500000 1.000000
vt 0.000000 0.000000
vt 1.000000 0.000000
vt 0.000000 0.000000
vt 1.000000 0.000000
vt 1.000000 1.000000
vt 0.000000 1.000000
vt 0.500000 1.000000
vt 0.000000 0.000000
vt 1.000000 0.000000
vt 0.000000 0.000000
vt 1.000000 0.000000
vt 1.000000 1.000000
vt 0.000000 1.000000
vt 0.500000 1.000000
vt 0.000000 0.000000
vt 1.000000 0.000000
vt 0.000000 0.000000
vt 1.000000 0.000000
vt 1.000000 1.000000
vt 0.000000 1.000000
vt 0.500000 1.000000
vt 0.000000 0.000000
vt 1.000000 0.000000
vt 0.000000 0.000000
vt 1.000000 0.000000
vt 1.000000 1.000000
vt 0.000000 1.000000
vt 0.500000 1.000000
vt 0.000000 0.000000
vt 1.000000 0.000000
vt 0.000000 0.000000
vt 1.000000 0.000000
vt 1.000000 1.000000
vt 0.000000 1.000000
vt 0.500000 1.000000
vt 0.000000 0.000000
vt 1.000000 0.000000
vt 0.000000 0.000000
vt 1.000000 0.000000
vt 1.000000 1.000000
vt 0.000000 1.000000
vt 0.500000 1.000000
vt 0.000000 0.000000
vt 1.000000 0.000000
vt 0.000000 0.000000
vt 1.000000 0.000000
vt 1.000000 1.000000
vt 0.000000 1.000000
vt 0.500000 1.000000
vt 0.000000 0.000000
vt 1.000000 0.000000
vt 0.000000 0.000000
vt 1.000000 0.000000
vt 1.000000 1.000000
vt 0.000000 1.000000
vt 0.500000 1.000000
vt 0.000000 0.000000
vt 1.000000 0.000000
vt 0.500000 1.000000
vt 0.000000 0.000000
vt 1.000000 0.000000
vt 0.000000 0.000000
vt 1.000000 0.000000
vt 1.000000 1.000000
vt 0.000000 1.000000
vt 0.500000 1.000000
vt 0.000000 0.000000
vt 1.000000 0.000000
vt 0.500000 1.000000
vt 0.000000 0.000000
vt 1.000000 0.000000
vt 0.000000 0.000000
vt 1.000000 0.000000
vt 1.000000 1.000000
vt 0.000000 1.000000
vt 0.500000 1.000000
vt 0.000000 0.000000
vt 1.000000 0.000000
vt 0.500000 1.000000
vt 0.000000 0.000000
vt 1.000000 0.000000
vt 0.000000 0.000000
vt 1.000000 0.000000
vt 1.000000 1.000000
vt 0.000000 1.000000
vt 0.500000 1.000000
vt 0.000000 0.000000
vt 1.000000 0.000000
vt 0.500000 1.000000
vt 0.000000 0.000000
vt 1.000000 0.000000
vt 0.000000 0.000000
vt 1.000000 0.000000
vt 1.000000 1.000000
vt 0.000000 1.000000
vt 0.500000 1.000000
vt 0.000000 0.000000
vt 1.000000 0.000000
vt 0.500000 1.000000
vt 0.000000 0.000000
vt 1.000000 0.000000
vt 0.000000 0.000000
vt 1.000000 0.000000
vt 1.000000 1.000000
vt 0.000000 1.000000
vt 0.500000 1.000000
vt 0.000000 0.000000
vt 1.000000 0.000000
vt 0.500000 1.000000
vt 0.000000 0.000000
vt 1.000000 0.000000
vt 0.000000 0.000000
vt 1.000000 0.000000
vt 1.000000 1.000000
vt 0.000000 1.000000
vt 0.500000 1.000000
vt 0.000000 0.000000
vt 1.000000 0.000000
vt 0.500000 1.000000
vt 0.000000 0.000000
vt 1.000000 0.000000
vt 0.000000 0.000000
vt 1.000000 0.000000
vt 1.000000 1.000000
vt 0.000000 1.000000
vt 0.500000 1.000000
vt 0.000000 0.000000
vt 1.000000 0.000000
vt 0.500000 1.000000
vt 0.000000 0.000000
vt 1.000000 0.000000
vt 0.000000 0.000000
vt 1.000000 0.000000
vt 1.000000 1.000000
vt 0.000000 1.000000
vt 0.500000 1.000000
vt 0.000000 0.000000
vt 1.000000 0.000000
vt 0.500000 1.000000
vt 0.000000 0.000000
vt 1.000000 0.000000
vt 0.000000 0.000000
vt 1.000000 0.000000
vt 1.000000 1.000000
vt 0.000000 1.000000
vt 0.500000 1.000000
vt 0.000000 0.000000
vt 1.000000 0.000000
vt 0.500000 1.000000
vt 0.000000 0.000000
vt 1.000000 0.000000
vt 0.000000 0.000000
vt 1.000000 0.000000
vt 1.000000 1.000000
vt 0.000000 1.000000
vt 0.500000 1.000000
vt 0.000000 0.000000
vt 1.000000 0.000000
vt 0.500000 1.000000
vt 0.000000 0.000000
vt 1.000000 0.000000
vt 0.000000 0.000000
vt 1.000000 0.000000
vt 1.000000 1.000000
vt 0.000000 1.000000
vt 0.500000 1.000000
vt 0.000000 0.000000
vt 1.000000 0.000000
vt 0.500000 1.000000
vt 0.000000 0.000000
vt 1.000000 0.000000
vt 0.000000 0.000000
vt 1.000000 0.000000
vt 1.000000 1.000000
vt 0.000000 1.000000
vt 0.500000 1.000000
vt 0.000000 0.000000
vt 1.000000 0.000000
vt 0.500000 1.000000
vt 0.000000 0.000000
vt 1.000000 0.000000
vt 0.000000 0.000000
vt 1.000000 0.000000
vt 1.000000 1.000000
vt 0.000000 1.000000
vt 0.500000 1.000000
vt 0.000000 0.000000
vt 1.000000 0.000000
vt 0.500000 1.000000
vt 0.000000 0.000000
vt 1.000000 0.000000
vt 0.000000 0.000000
vt 1.000000 0.000000
vt 1.000000 1.000000
vt 0.000000 1.000000
vt 0.500000 1.000000
vt 0.000000 0.000000
vt 1.000000 0.000000
vt 0.500000 1.000000
vt 0.000000 0.000000
vt 1.000000 0.000000
vt 0.000000 0.000000
vt 1.000000 0.000000
vt 1.000000 1.000000
vt 0.000000 1.000000
vt 0.500000 1.000000
vt 0.000000 0.000000
vt 1.000000 0.000000
vt 0.500000 1.000000
vt 0.000000 0.000000
vt 1.000000 0.000000
vt 0.000000 0.000000
vt 1.000000 0.000000
vt 1.000000 1.000000
vt 0.000000 1.000000
vt 0.500000 1.000000
vt 0.000000 0.000000
vt 1.000000 0.000000
vt 0.500000 1.000000
vt 0.000000 0.000000
vt 1.000000 0.000000
vt 0.000000 0.000000
vt 1.000000 0.000000
vt 1.000000 1.000000
vt 0.000000 1.000000
vt 0.500000 1.000000
vt 0.000000 0.000000
vt 1.000000 0.000000
vt 0.500000 1.000000
vt 0.000000 0.000000
vt 1.000000 0.000000
vt 0.000000 0.000000
vt 1.000000 0.000000
vt 1.000000 1.000000
vt 0.000000 1.000000
vt 0.500000 1.000000
vt 0.000000 0.000000
vt 1.000000 0.000000
vt 0.500000 1.000000
vt 0.000000 0.000000
vt 1.000000 0.000000
vt 0.000000 0.000000
vt 1.000000 0.000000
vt 1.000000 1.000000
vt 0.000000 1.000000
vt 0.500000 1.000000
vt 0.000000 0.000000
vt 1.000000 0.000000
vt 0.500000 1.000000
vt 0.000000 0.000000
vt 1.000000 0.000000
vt 0.000000 0.000000
vt 1.000000 0.000000
vt 1.000000 1.000000
vt 0.000000 1.000000
vt 0.500000 1.000000
vt 0.000000 0.000000
vt 1.000000 0.000000
vt 0.500000 1.000000
vt 0.000000 0.000000
vt 1.000000 0.000000
vt 0.000000 0.000000
vt 1.000000 0.000000
vt 1.000000 1.000000
vt 0.000000 1.000000
vt 0.500000 1.000000
vt 0.000000 0.000000
vt 1.000000 0.000000
vt 0.500000 1.000000
vt 0.000000 0.000000
vt 1.000000 0.000000
vt 0.000000 0.000000
vt 1.000000 0.000000
vt 1.000000 1.000000
vt 0.000000 1.000000
vt 0.500000 1.000000
vt 0.000000 0.000000
vt 1.000000 0.000000
vt 0.500000 1.000000
vt 0.000000 0.000000
vt 1.000000 0.000000
vt 0.000000 0.000000
vt 1.000000 0.000000
vt 1.000000 1.000000
vt 0.000000 1.000000
vt 0.500000 1.000000
vt 0.000000 0.000000
vt 1.000000 0.000000
vt 0.500000 1.000000
vt 0.000000 0.000000
vt 1.000000 0.000000
vt 0.000000 0.000000
vt 1.000000 0.000000
vt 1.000000 1.000000
vt 0.000000 1.000000
vt 0.500000 1.000000
vt 0.000000 0.000000
vt 1.000000 0.000000
vt 0.500000 1.000000
vt 0.000000 0.000000
vt 1.000000 0.000000
vt 0.000000 0.000000
vt 1.000000 0.000000
vt 1.000000 1.000000
vt 0.000000 1.000000
vt 0.500000 1.000000
vt 0.000000 0.000000
vt 1.000000 0.000000
vt 0.500000 1.000000
vt 0.000000 0.000000
vt 1.000000 0.000000
vt 0.000000 0.000000
vt 1.000000 0.000000
vt 1.000000 1.000000
vt 0.000000 1.000000
vt 0.500000 1.000000
vt 0.000000 0.000000
vt 1.000000 0.000000
vt 0.500000 1.000000
vt 0.000000 0.000000
vt 1.000000 0.000000
vt 0.000000 0.000000
vt 1.000000 0.000000
vt 1.000000 1.000000
vt 0.000000 1.000000
vt 0.500000 1.000000
vt 0.000000 0.000000
vt 1.000000 0.000000
vt 0.500000 1.000000
vt 0.000000 0.000000
vt 1.000000 0.000000
vt 0.000000 0.000000
vt 1.000000 0.000000
vt 1.000000 1.000000
vt 0.000000 1.000000
vt 0.500000 1.000000
vt 0.000000 0.000000
vt 1.000000 0.000000
vt 0.500000 1.000000
vt 0.000000 0.000000
vt 1.000000 0.000000
vt 0.000000 0.000000
vt 1.000000 0.000000
vt 1.000000 1.000000
vt 0.000000 1.000000
vt 0.500000 1.000000
vt 0.000000 0.000000
vt 1.000000 0.000000
vt 0.500000 1.000000
vt 0.000000 0.000000
vt 1.000000 0.000000
vt 0.000000 0.000000
vt 1.000000 0.000000
vt 1.000000 1.000000
vt 0.000000 1.000000
vt 0.500000 1.000000
vt 0.000000 0.000000
vt 1.000000 0.000000
vt 0.500000 1.000000
vt 0.000000 0.000000
vt 1.000000 0.000000
vt 0.000000 0.000000
vt 1.000000 0.000000
vt 1.000000 1.000000
vt 0.000000 1.000000
vt 0.500000 1.000000
vt 0.000000 0.000000
vt 1.000000 0.000000
vt 0.500000 1.000000
vt 0.000000 0.000000
vt 1.000000 0.000000
vt 0.000000 0.000000
vt 1.000000 0.000000
vt 1.000000 1.000000
vt 0.000000 1.000000
vt 0.500000 1.000000
vt 0.000000 0.000000
vt 1.000000 0.000000
vt 0.500000 1.000000
vt 0.000000 0.000000
vt 1.000000 0.000000
vt 0.000000 0.000000
vt 1.000000 0.000000
vt 1.000000 1.000000
vt 0.000000 1.000000
vt 0.500000 1.000000
vt 0.000000 0.000000
vt 1.000000 0.000000
vt 0.500000 1.000000
vt 0.000000 0.000000
vt 1.000000 0.000000
vt 0.000000 0.000000
vt 1.000000 0.000000
vt 1.000000 1.000000
vt 0.000000 1.000000
vt 0.500000 1.000000
vt 0.000000 0.000000
vt 1.000000 0.000000
vt 0.500000 1.000000
vt 0.000000 0.000000
vt 1.000000 0.000000
vt 0.000000 0.000000
vt 1.000000 0.000000
vt 1.000000 1.000000
vt 0.000000 1.000000
vt 0.500000 1.000000
vt 0.000000 0.000000
vt 1.000000 0.000000
vt 0.500000 1.000000
vt 0.000000 0.000000
vt 1.000000 0.000000
vt 0.000000 0.000000
vt 1.000000 0.000000
vt 1.000000 1.000000
vt 0.000000 1.000000
vt 0.500000 1.000000
vt 0.000000 0.000000
vt 1.000000 0.000000
vt 0.500000 1.000000
vt 0.000000 0.000000
vt 1.000000 0.000000
vt 0.000000 0.000000
vt 1.000000 0.000000
vt 1.000000 1.000000
vt 0.000000 1.000000
vt 0.500000 1.000000
vt 0.000000 0.000000
vt 1.000000 0.000000
vt 0.500000 1.000000
vt 0.000000 0.000000
vt 1.000000 0.000000
vt 0.000000 0.000000
vt 1.000000 0.000000
vt 1.000000 1.000000
vt 0.000000 1.000000
vt 0.500000 1.000000
vt 0.000000 0.000000
vt 1.000000 0.000000
vt 0.500000 1.000000
vt 0.000000 0.000000
vt 1.000000 0.000000
vt 0.000000 0.000000
vt 1.000000 0.000000
vt 1.000000 1.000000
vt 0.000000 1.000000
vt 0.500000 1.000000
vt 0.000000 0.000000
vt 1.000000 0.000000
vt 0.500000 1.000000
vt 0.000000 0.000000
vt 1.000000 0.000000
vt 0.000000 0.000000
vt 1.000000 0.000000
vt 1.000000 1.000000
vt 0.000000 1.000000
vt 0.500000 1.000000
vt 0.000000 0.000000
vt 1.000000 0.000000
vt 0.500000 1.000000
vt 0.000000 0.000000
vt 1.000000 0.000000
vt 0.000000 0.000000
vt 1.000000 0.000000
vt 1.000000 1.000000
vt 0.000000 1.000000
vt 0.500000 1.000000
vt 0.000000 0.000000
vt 1.000000 0.000000
vt 0.500000 1.000000
vt 0.000000 0.000000
vt 1.000000 0.000000
vt 0.000000 0.000000
vt 1.000000 0.000000
vt 1.000000 1.000000
vt 0.000000 1.000000
vt 0.500000 1.000000
vt 0.000000 0.000000
vt 1.000000 0.000000
vt 0.500000 1.000000
vt 0.000000 0.000000
vt 1.000000 0.000000
vt 0.000000 0.000000
vt 1.000000 0.000000
vt 1.000000 1.000000
vt 0.000000 1.000000
vt 0.500000 1.000000
vt 0.000000 0.000000
vt 1.000000 0.000000
vt 0.500000 1.000000
vt 0.000000 0.000000
vt 1.000000 0.000000
vt 0.000000 0.000000
vt 1.000000 0.000000
vt 1.000000 1.000000
vt 0.000000 1.000000
vt 0.500000 1.000000
vt 0.000000 0.000000
vt 1.000000 0.000000
vt 0.500000 1.000000
vt 0.000000 0.000000
vt 1.000000 0.000000
vt 0.000000 0.000000
vt 1.000000 0.000000
vt 1.000000 1.000000
vt 0.000000 1.000000
vt 0.500000 1.000000
vt 0.000000 0.000000
vt 1.000000 0.000000
vt 0.500000 1.000000
vt 0.000000 0.000000
vt 1.000000 0.000000
vt 0.000000 0.000000
vt 1.000000 0.000000
vt 1.000000 1.000000
vt 0.000000 1.000000
vt 0.500000 1.000000
vt 0.000000 0.000000
vt 1.000000 0.000000
vt 0.500000 1.000000
vt 0.000000 0.000000
vt 1.000000 0.000000
vt 0.000000 0.000000
vt 1.000000 0.000000
vt 1.000000 1.000000
vt 0.000000 1.000000
vt 0.500000 1.000000
vt 0.000000 0.000000
vt 1.000000 0.000000
vt 0.500000 1.000000
vt 0.000000 0.000000
vt 1.000000 0.000000
vt 0.000000 0.000000
vt 1.000000 0.000000
vt 1.000000 1.000000
vt 0.000000 1.000000
vt 0.500000 1.000000
vt 0.000000 0.000000
vt 1.000000 0.000000
vt 0.500000 1.000000
vt 0.000000 0.000000
vt 1.000000 0.000000
vt 0.000000 0.000000
vt 1.000000 0.000000
vt 1.000000 1.000000
vt 0.000000 1.000000
vt 0.500000 1.000000
vt 0.000000 0.000000
vt 1.000000 0.000000
vt 0.500000 1.000000
vt 0.000000 0.000000
vt 1.000000 0.000000
vt 0.000000 0.000000
vt 1.000000 0.000000
vt 1.000000 1.000000
vt 0.000000 1.000000
vt 0.500000 1.000000
vt 0.000000 0.000000
vt 1.000000 0.000000
vt 0.500000 1.000000
vt 0.000000 0.000000
vt 1.000000 0.000000
vt 0.000000 0.000000
vt 1.000000 0.000000
vt 1.000000 1.000000
vt 0.000000 1.000000
vt 0.500000 1.000000
vt 0.000000 0.000000
vt 1.000000 0.000000
vt 0.500000 1.000000
vt 0.000000 0.000000
vt 1.000000 0.000000
vt 0.000000 0.000000
vt 1.000000 0.000000
vt 1.000000 1.000000
vt 0.000000 1.000000
vt 0.500000 1.000000
vt 0.000000 0.000000
vt 1.000000 0.000000
vt 0.500000 1.000000
vt 0.000000 0.000000
vt 1.000000 0.000000
vt 0.000000 0.000000
vt 1.000000 0.000000
vt 1.000000 1.000000
vt 0.000000 1.000000
vt 0.500000 1.000000
vt 0.000000 0.000000
vt 1.000000 0.000000
vt 0.500000 1.000000
vt 0.000000 0.000000
vt 1.000000 0.000000
vt 0.000000 0.000000
vt 1.000000 0.000000
vt 1.000000 1.000000
vt 0.000000 1.000000
vt 0.500000 1.000000
vt 0.000000 0.000000
vt 1.000000 0.000000
vt 0.500000 1.000000
vt 0.000000 0.000000
vt 1.000000 0.000000
vt 0.000000 0.000000
vt 1.000000 0.000000
vt 1.000000 1.000000
vt 0.000000 1.000000
vt 0.500000 1.000000
vt 0.000000 0.000000
vt 1.000000 0.000000
vt 0.500000 1.000000
vt 0.000000 0.000000
vt 1.000000 0.000000
vt 0.000000 0.000000
vt 1.000000 0.000000
vt 1.000000 1.000000
vt 0.000000 1.000000
vt 0.500000 1.000000
vt 0.000000 0.000000
vt 1.000000 0.000000
vt 0.500000 1.000000
vt 0.000000 0.000000
vt 1.000000 0.000000
vt 0.000000 0.000000
vt 1.000000 0.000000
vt 1.000000 1.000000
vt 0.000000 1.000000
vt 0.500000 1.000000
vt 0.000000 0.000000
vt 1.000000 0.000000
vt 0.500000 1.000000
vt 0.000000 0.000000
vt 1.000000 0.000000
vt 0.000000 0.000000
vt 1.000000 0.000000
vt 1.000000 1.000000
vt 0.000000 1.000000
vt 0.500000 1.000000
vt 0.000000 0.000000
vt 1.000000 0.000000
vt 0.500000 1.000000
vt 0.000000 0.000000
vt 1.000000 0.000000
vt 0.000000 0.000000
vt 1.000000 0.000000
vt 1.000000 1.000000
vt 0.000000 1.000000
vt 0.500000 1.000000
vt 0.000000 0.000000
vt 1.000000 0.000000
vt 0.500000 1.000000
vt 0.000000 0.000000
vt 1.000000 0.000000
vt 0.000000 0.000000
vt 1.000000 0.000000
vt 1.000000 1.000000
vt 0.000000 1.000000
vt 0.500000 1.000000
vt 0.000000 0.000000
vt 1.000000 0.000000
vt 0.500000 1.000000
vt 0.000000 0.000000
vt 1.000000 0.000000
vt 0.000000 0.000000
vt 1.000000 0.000000
vt 1.000000 1.000000
vt 0.000000 1.000000
vt 0.500000 1.000000
vt 0.000000 0.000000
vt 1.000000 0.000000
vt 0.500000 1.000000
vt 0.000000 0.000000
vt 1.000000 0.000000
vt 0.000000 0.000000
vt 1.000000 0.000000
vt 1.000000 1.000000
vt 0.000000 1.000000
vt 0.500000 1.000000
vt 0.000000 0.000000
vt 1.000000 0.000000
vt 0.500000 1.000000
vt 0.000000 0.000000
vt 1.000000 0.000000
vt 0.000000 0.000000
vt 1.000000 0.000000
vt 1.000000 1.000000
vt 0.000000 1.000000
vt 0.500000 1.000000
vt 0.000000 0.000000
vt 1.000000 0.000000
vt 0.500000 1.000000
vt 0.000000 0.000000
vt 1.000000 0.000000
vt 0.000000 0.000000
vt 1.000000 0.000000
vt 1.000000 1.000000
vt 0.000000 1.000000
vt 0.500000 1.000000
vt 0.000000 0.000000
vt 1.000000 0.000000
vt 0.500000 1.000000
vt 0.000000 0.000000
vt 1.000000 0.000000
vt 0.000000 0.000000
vt 1.000000 0.000000
vt 1.000000 1.000000
vt 0.000000 1.000000
vt 0.500000 1.000000
vt 0.000000 0.000000
vt 1.000000 0.000000
vt 0.500000 1.000000
vt 0.000000 0.000000
vt 1.000000 0.000000
vt 0.000000 0.000000
vt 1.000000 0.000000
vt 1.000000 1.000000
vt 0.000000 1.000000
vt 0.500000 1.000000
vt 0.000000 0.000000
vt 1.000000 0.000000
vt 0.500000 1.000000
vt 0.000000 0.000000
vt 1.000000 0.000000
vt 0.000000 0.000000
vt 1.000000 0.000000
vt 1.000000 1.000000
vt 0.000000 1.000000
vt 0.500000 1.000000
vt 0.000000 0.000000
vt 1.000000 0.000000
vt 0.500000 1.000000
vt 0.000000 0.000000
vt 1.000000 0.000000
vt 0.000000 0.000000
vt 1.000000 0.000000
vt 1.000000 1.000000
vt 0.000000 1.000000
vt 0.500000 1.000000
vt 0.000000 0.000000
vt 1.000000 0.000000
vt 0.500000 1.000000
vt 0.000000 0.000000
vt 1.000000 0.000000
vt 0.000000 0.000000
vt 1.000000 0.000000
vt 1.000000 1.000000
vt 0.000000 1.000000
vt 0.500000 1.000000
vt 0.000000 0.000000
vt 1.000000 0.000000
vt 0.500000 1.000000
vt 0.000000 0.000000
vt 1.000000 0.000000
vt 0.000000 0.000000
vt 1.000000 0.000000
vt 1.000000 1.000000
vt 0.000000 1.000000
vt 0.500000 1.000000
vt 0.000000 0.000000
vt 1.000000 0.000000
vt 0.500000 1.000000
vt 0.000000 0.000000
vt 1.000000 0.000000
vt 0.000000 0.000000
vt 1.000000 0.000000
vt 1.000000 1.000000
vt 0.000000 1.000000
vt 0.500000 1.000000
vt 0.000000 0.000000
vt 1.000000 0.000000
vt 0.500000 1.000000
vt 0.000000 0.000000
vt 1.000000 0.000000
vt 0.000000 0.000000
vt 1.000000 0.000000
vt 1.000000 1.000000
vt 0.000000 1.000000
vt 0.500000 1.000000
vt 0.000000 0.000000
vt 1.000000 0.000000
vt 0.500000 1.000000
vt 0.000000 0.000000
vt 1.000000 0.000000
vt 0.000000 0.000000
vt 1.000000 0.000000
vt 1.000000 1.000000
vt 0.000000 1.000000
vt 0.500000 1.000000
vt 0.000000 0.000000
vt 1.000000 0.000000
vt 0.500000 1.000000
vt 0.000000 0.000000
vt 1.000000 0.000000
vt 0.000000 0.000000
vt 1.000000 0.000000
vt 1.000000 1.000000
vt 0.000000 1.000000
vt 0.500000 1.000000
vt 0.000000 0.000000
vt 1.000000 0.000000
vt 0.500000 1.000000
vt 0.000000 0.000000
vt 1.000000 0.000000
vt 0.000000 0.000000
vt 1.000000 0.000000
vt 1.000000 1.000000
vt 0.000000 1.000000
vt 0.500000 1.000000
vt 0.000000 0.000000
vt 1.000000 0.000000
vt 0.500000 1.000000
vt 0.000000 0.000000
vt 1.000000 0.000000
vt 0.000000 0.000000
vt 1.000000 0.000000
vt 1.000000 1.000000
vt 0.000000 1.000000
vt 0.500000 1.000000
vt 0.000000 0.000000
vt 1.000000 0.000000
vt 0.500000 1.000000
vt 0.000000 0.000000
vt 1.000000 0.000000
vt 0.000000 0.000000
vt 1.000000 0.000000
vt 1.000000 1.000000
vt 0.000000 1.000000
vt 0.500000 1.000000
vt 0.000000 0.000000
vt 1.000000 0.000000
vt 0.500000 1.000000
vt 0.000000 0.000000
vt 1.000000 0.000000
vt 0.000000 0.000000
vt 1.000000 0.000000
vt 1.000000 1.000000
vt 0.000000 1.000000
vt 0.500000 1.000000
vt 0.000000 0.000000
vt 1.000000 0.000000
vt 0.500000 1.000000
vt 0.000000 0.000000
vt 1.000000 0.000000
vt 0.000000 0.000000
vt 1.000000 0.000000
vt 1.000000 1.000000
vt 0.000000 1.000000
vt 0.500000 1.000000
vt 0.000000 0.000000
vt 1.000000 0.000000
vt 0.500000 1.000000
vt 0.000000 0.000000
vt 1.000000 0.000000
s 1
usemtl models/caelum/world/environment/bark_tundra.png
f 1/1 2/2 3/3 4/4
f 5/5 6/6 7/7
f 8/8 9/9 10/10 11/11
f 12/12 13/13 14/14
f 15/15 16/16 17/17 18/18
f 19/19 20/20 21/21
f 22/22 23/23 24/24 25/25
f 26/26 27/27 28/28
f 29/29 30/30 31/31 32/32
f 33/33 34/34 35/35
f 36/36 37/37 38/38 39/39
f 40/40 41/41 42/42
f 43/43 44/44 45/45 46/46
f 47/47 48/48 49/49
f 50/50 51/51 52/52 53/53
f 54/54 55/55 56/56
f 57/57 58/58 59/59 60/60
f 61/61 62/62 63/63
f 64/64 65/65 66/66 67/67
f 68/68 69/69 70/70
f 71/71 72/72 73/73 74/74
f 75/75 76/76 77/77
f 78/78 79/79 80/80 81/81
f 82/82 83/83 84/84
f 85/85 86/86 87/87 88/88
f 89/89 90/90 91/91
f 92/92 93/93 94/94 95/95
f 96/96 97/97 98/98
f 99/99 100/100 101/101 102/102
f 103/103 104/104 105/105
f 106/106 107/107 108/108 109/109
f 110/110 111/111 112/112
f 113/113 114/114 115/115 116/116
f 117/117 118/118 119/119
f 120/120 121/121 122/122 123/123
f 124/124 125/125 126/126
usemtl models/caelum/world/environment/foliage_tundra.png
f 127/127 128/128 129/129 130/130
f 131/131 132/132 133/133
f 134/134 135/135 136/136
f 137/137 138/138 139/139 140/140
f 141/141 142/142 143/143
f 144/144 145/145 146/146
f 147/147 148/148 149/149 150/150
f 151/151 152/152 153/153
f 154/154 155/155 156/156
f 157/157 158/158 159/159 160/160
f 161/161 162/162 163/163
f 164/164 165/165 166/166
f 167/167 168/168 169/169 170/170
f 171/171 172/172 173/173
f 174/174 175/175 176/176
f 177/177 178/178 179/179 180/180
f 181/181 182/182 183/183
f 184/184 185/185 186/186
f 187/187 188/188 189/189 190/190
f 191/191 192/192 193/193
f 194/194 195/195 196/196
f 197/197 198/198 199/199 200/200
f 201/201 202/202 203/203
f 204/204 205/205 206/206
f 207/207 208/208 209/209 210/210
f 211/211 212/212 213/213
f 214/214 215/215 216/216
f 217/217 218/218 219/219 220/220
f 221/221 222/222 223/223
f 224/224 225/225 226/226
f 227/227 228/228 229/229 230/230
f 231/231 232/232 233/233
f 234/234 235/235 236/236
f 237/237 238/238 239/239 240/240
f 241/241 242/242 243/243
f 244/244 245/245 246/246
f 247/247 248/248 249/249 250/250
f 251/251 252/252 253/253
f 254/254 255/255 256/256
f 257/257 258/258 259/259 260/260
f 261/261 262/262 263/263
f 264/264 265/265 266/266
f 267/267 268/268 269/269 270/270
f 271/271 272/272 273/273
f 274/274 275/275 276/276
f 277/277 278/278 279/279 280/280
f 281/281 282/282 283/283
f 284/284 285/285 286/286
f 287/287 288/288 289/289 290/290
f 291/291 292/292 293/293
f 294/294 295/295 296/296
f 297/297 298/298 299/299 300/300
f 301/301 302/302 303/303
f 304/304 305/305 306/306
f 307/307 308/308 309/309 310/310
f 311/311 312/312 313/313
f 314/314 315/315 316/316
f 317/317 318/318 319/319 320/320
f 321/321 322/322 323/323
f 324/324 325/325 326/326
f 327/327 328/328 329/329 330/330
f 331/331 332/332 333/333
f 334/334 335/335 336/336
f 337/337 338/338 339/339 340/340
f 341/341 342/342 343/343
f 344/344 345/345 346/346
f 347/347 348/348 349/349 350/350
f 351/351 352/352 353/353
f 354/354 355/355 356/356
f 357/357 358/358 359/359 360/360
f 361/361 362/362 363/363
f 364/364 365/365 366/366
f 367/367 368/368 369/369 370/370
f 371/371 372/372 373/373
f 374/374 375/375 376/376
f 377/377 378/378 379/379 380/380
f 381/381 382/382 383/383
f 384/384 385/385 386/386
f 387/387 388/388 389/389 390/390
f 391/391 392/392 393/393
f 394/394 395/395 396/396
f 397/397 398/398 399/399 400/400
f 401/401 402/402 403/403
f 404/404 405/405 406/406
f 407/407 408/408 409/409 410/410
f 411/411 412/412 413/413
f 414/414 415/415 416/416
f 417/417 418/418 419/419 420/420
f 421/421 422/422 423/423
f 424/424 425/425 426/426
f 427/427 428/428 429/429 430/430
f 431/431 432/432 433/433
f 434/434 435/435 436/436
f 437/437 438/438 439/439 440/440
f 441/441 442/442 443/443
f 444/444 445/445 446/446
f 447/447 448/448 449/449 450/450
f 451/451 452/452 453/453
f 454/454 455/455 456/456
f 457/457 458/458 459/459 460/460
f 461/461 462/462 463/463
f 464/464 465/465 466/466
f 467/467 468/468 469/469 470/470
f 471/471 472/472 473/473
f 474/474 475/475 476/476
f 477/477 478/478 479/479 480/480
f 481/481 482/482 483/483
f 484/484 485/485 486/486
f 487/487 488/488 489/489 490/490
f 491/491 492/492 493/493
f 494/494 495/495 496/496
f 497/497 498/498 499/499 500/500
f 501/501 502/502 503/503
f 504/504 505/505 506/506
f 507/507 508/508 509/509 510/510
f 511/511 512/512 513/513
f 514/514 515/515 516/516
f 517/517 518/518 519/519 520/520
f 521/521 522/522 523/523
f 524/524 525/525 526/526
f 527/527 528/528 529/529 530/530
f 531/531 532/532 533/533
f 534/534 535/535 536/536
f 537/537 538/538 539/539 540/540
f 541/541 542/542 543/543
f 544/544 545/545 546/546
f 547/547 548/548 549/549 550/550
f 551/551 552/552 553/553
f 554/554 555/555 556/556
f 557/557 558/558 559/559 560/560
f 561/561 562/562 563/563
f 564/564 565/565 566/566
f 567/567 568/568 569/569 570/570
f 571/571 572/572 573/573
f 574/574 575/575 576/576
f 577/577 578/578 579/579 580/580
f 581/581 582/582 583/583
f 584/584 585/585 586/586
f 587/587 588/588 589/589 590/590
f 591/591 592/592 593/593
f 594/594 595/595 596/596
f 597/597 598/598 599/599 600/600
f 601/601 602/602 603/603
f 604/604 605/605 606/606
f 607/607 608/608 609/609 610/610
f 611/611 612/612 613/613
f 614/614 615/615 616/616
f 617/617 618/618 619/619 620/620
f 621/621 622/622 623/623
f 624/624 625/625 626/626
f 627/627 628/628 629/629 630/630
f 631/631 632/632 633/633
f 634/634 635/635 636/636
f 637/637 638/638 639/639 640/640
f 641/641 642/642 643/643
f 644/644 645/645 646/646
f 647/647 648/648 649/649 650/650
f 651/651 652/652 653/653
f 654/654 655/655 656/656
f 657/657 658/658 659/659 660/660
f 661/661 662/662 663/663
f 664/664 665/665 666/666
f 667/667 668/668 669/669 670/670
f 671/671 672/672 673/673
f 674/674 675/675 676/676
f 677/677 678/678 679/679 680/680
f 681/681 682/682 683/683
f 684/684 685/685 686/686
f 687/687 688/688 689/689 690/690
f 691/691 692/692 693/693
f 694/694 695/695 696/696
f 697/697 698/698 699/699 700/700
f 701/701 702/702 703/703
f 704/704 705/705 706/706
f 707/707 708/708 709/709 710/710
f 711/711 712/712 713/713
f 714/714 715/715 716/716
f 717/717 718/718 719/719 720/720
f 721/721 722/722 723/723
f 724/724 725/725 726/726
f 727/727 728/728 729/729 730/730
f 731/731 732/732 733/733
f 734/734 735/735 736/736
f 737/737 738/738 739/739 740/740
f 741/741 742/742 743/743
f 744/744 745/745 746/746
f 747/747 748/748 749/749 750/750
f 751/751 752/752 753/753
f 754/754 755/755 756/756
f 757/757 758/758 759/759 760/760
f 761/761 762/762 763/763
f 764/764 765/765 766/766
f 767/767 768/768 769/769 770/770
f 771/771 772/772 773/773
f 774/774 775/775 776/776
f 777/777 778/778 779/779 780/780
f 781/781 782/782 783/783
f 784/784 785/785 786/786
f 787/787 788/788 789/789 790/790
f 791/791 792/792 793/793
f 794/794 795/795 796/796
f 797/797 798/798 799/799 800/800
f 801/801 802/802 803/803
f 804/804 805/805 806/806
f 807/807 808/808 809/809 810/810
f 811/811 812/812 813/813
f 814/814 815/815 816/816
f 817/817 818/818 819/819 820/820
f 821/821 822/822 823/823
f 824/824 825/825 826/826
f 827/827 828/828 829/829 830/830
f 831/831 832/832 833/833
f 834/834 835/835 836/836
f 837/837 838/838 839/839 840/840
f 841/841 842/842 843/843
f 844/844 845/845 846/846
f 847/847 848/848 849/849 850/850
f 851/851 852/852 853/853
f 854/854 855/855 856/856
f 857/857 858/858 859/859 860/860
f 861/861 862/862 863/863
f 864/864 865/865 866/866
f 867/867 868/868 869/869 870/870
f 871/871 872/872 873/873
f 874/874 875/875 876/876
f 877/877 878/878 879/879 880/880
f 881/881 882/882 883/883
f 884/884 885/885 886/886
f 887/887 888/888 889/889 890/890
f 891/891 892/892 893/893
f 894/894 895/895 896/896
f 897/897 898/898 899/899 900/900
f 901/901 902/902 903/903
f 904/904 905/905 906/906
f 907/907 908/908 909/909 910/910
f 911/911 912/912 913/913
f 914/914 915/915 916/916
f 917/917 918/918 919/919 920/920
f 921/921 922/922 923/923
f 924/924 925/925 926/926
