# Modelo original generado para Caelum Argenteum.
# Ejes OBJ: X ancho, Y altura, Z profundidad.
o ca_tree_desert_churqui2
v 0.000000 -0.049829 -6.999823
v -4.498703 0.047223 -5.362783
v -2.476905 33.072584 -3.935520
v 0.627200 33.005618 -5.065078
v 0.000000 0.000000 0.000000
v -4.498703 0.047223 -5.362783
v 0.000000 -0.049829 -6.999823
v -4.498703 0.047223 -5.362783
v -6.892413 0.122180 -1.216438
v -4.128565 33.124304 -1.074542
v -2.476905 33.072584 -3.935520
v 0.000000 0.000000 0.000000
v -6.892413 0.122180 -1.216438
v -4.498703 0.047223 -5.362783
v -6.892413 0.122180 -1.216438
v -6.061086 0.139967 3.499092
v -3.554949 33.136577 2.179174
v -4.128565 33.124304 -1.074542
v 0.000000 0.000000 0.000000
v -6.061086 0.139967 3.499092
v -6.892413 0.122180 -1.216438
v -6.061086 0.139967 3.499092
v -2.393710 0.092262 6.577358
v -1.024460 33.103661 4.303177
v -3.554949 33.136577 2.179174
v 0.000000 0.000000 0.000000
v -2.393710 0.092262 6.577358
v -6.061086 0.139967 3.499092
v -2.393710 0.092262 6.577358
v 2.393710 0.001387 6.578005
v 2.278860 33.040957 4.303624
v -1.024460 33.103661 4.303177
v 0.000000 0.000000 0.000000
v 2.393710 0.001387 6.578005
v -2.393710 0.092262 6.577358
v 2.393710 0.001387 6.578005
v 6.061086 -0.090137 3.500730
v 4.809349 32.977805 2.180304
v 2.278860 33.040957 4.303624
v 0.000000 0.000000 0.000000
v 6.061086 -0.090137 3.500730
v 2.393710 0.001387 6.578005
v 6.061086 -0.090137 3.500730
v 6.892413 -0.139485 -1.214575
v 5.382965 32.943755 -1.073257
v 4.809349 32.977805 2.180304
v 0.000000 0.000000 0.000000
v 6.892413 -0.139485 -1.214575
v 6.061086 -0.090137 3.500730
v 6.892413 -0.139485 -1.214575
v 4.498703 -0.123566 -5.361567
v 3.731305 32.954739 -3.934681
v 5.382965 32.943755 -1.073257
v 0.000000 0.000000 0.000000
v 4.498703 -0.123566 -5.361567
v 6.892413 -0.139485 -1.214575
v 4.498703 -0.123566 -5.361567
v 0.000000 -0.049829 -6.999823
v 0.627200 33.005618 -5.065078
v 3.731305 32.954739 -3.934681
v 0.000000 0.000000 0.000000
v 0.000000 -0.049829 -6.999823
v 4.498703 -0.123566 -5.361567
v 0.049838 32.973791 -5.030111
v -2.892900 33.163702 -3.540119
v 0.224594 61.428126 -2.631300
v 1.845233 61.323537 -3.451876
v -2.892900 33.163702 -3.540119
v -4.188545 33.295732 -0.503719
v -0.488949 61.500838 -0.959080
v 0.224594 61.428126 -2.631300
v -4.188545 33.295732 -0.503719
v -3.230849 33.308101 2.658324
v 0.038477 61.507650 0.782335
v -0.488949 61.500838 -0.959080
v -3.230849 33.308101 2.658324
v -0.467929 33.195024 4.466455
v 1.560086 61.445375 1.778117
v 0.038477 61.507650 0.782335
v -0.467929 33.195024 4.466455
v 2.807414 33.009409 4.074630
v 3.363898 61.343153 1.562329
v 1.560086 61.445375 1.778117
v 2.807414 33.009409 4.074630
v 5.062611 32.838108 1.666187
v 4.605890 61.248813 0.235941
v 3.363898 61.343153 1.562329
v 5.062611 32.838108 1.666187
v 5.242429 32.761274 -1.631936
v 4.704920 61.206499 -1.580417
v 4.605890 61.248813 0.235941
v 5.242429 32.761274 -1.631936
v 3.262731 32.814860 -4.276510
v 3.614652 61.236010 -3.036849
v 4.704920 61.206499 -1.580417
v 3.262731 32.814860 -4.276510
v 0.049838 32.973791 -5.030111
v 1.845233 61.323537 -3.451876
v 3.614652 61.236010 -3.036849
v 1.533061 61.331968 -3.395332
v 0.025324 61.487896 -2.388770
v 3.526181 82.623560 -1.760605
v 3.803922 82.594836 -1.946024
v 3.920000 82.600000 -1.470000
v 3.803922 82.594836 -1.946024
v 3.526181 82.623560 -1.760605
v 0.025324 61.487896 -2.388770
v -0.482077 61.583980 -0.644045
v 3.432712 82.641260 -1.439208
v 3.526181 82.623560 -1.760605
v 3.920000 82.600000 -1.470000
v 3.526181 82.623560 -1.760605
v 3.432712 82.641260 -1.439208
v -0.482077 61.583980 -0.644045
v 0.248276 61.575262 1.022466
v 3.567251 82.639653 -1.132219
v 3.432712 82.641260 -1.439208
v 3.920000 82.600000 -1.470000
v 3.432712 82.641260 -1.439208
v 3.567251 82.639653 -1.132219
v 0.248276 61.575262 1.022466
v 1.874644 61.465819 1.830984
v 3.866845 82.619493 -0.983282
v 3.567251 82.639653 -1.132219
v 3.920000 82.600000 -1.470000
v 3.567251 82.639653 -1.132219
v 3.866845 82.619493 -0.983282
v 1.874644 61.465819 1.830984
v 3.636030 61.306863 1.403195
v 4.191311 82.590212 -1.062085
v 3.866845 82.619493 -0.983282
v 3.920000 82.600000 -1.470000
v 3.866845 82.619493 -0.983282
v 4.191311 82.590212 -1.062085
v 3.636030 61.306863 1.403195
v 4.708263 61.172770 -0.060734
v 4.388827 82.565510 -1.331756
v 4.191311 82.590212 -1.062085
v 3.920000 82.600000 -1.470000
v 4.191311 82.590212 -1.062085
v 4.388827 82.565510 -1.331756
v 4.708263 61.172770 -0.060734
v 4.589632 61.126284 -1.875814
v 4.366974 82.556947 -1.666113
v 4.388827 82.565510 -1.331756
v 3.920000 82.600000 -1.470000
v 4.388827 82.565510 -1.331756
v 4.366974 82.556947 -1.666113
v 4.589632 61.126284 -1.875814
v 3.335647 61.189156 -3.192750
v 4.135977 82.568529 -1.908707
v 4.366974 82.556947 -1.666113
v 3.920000 82.600000 -1.470000
v 4.366974 82.556947 -1.666113
v 4.135977 82.568529 -1.908707
v 3.335647 61.189156 -3.192750
v 1.533061 61.331968 -3.395332
v 3.803922 82.594836 -1.946024
v 4.135977 82.568529 -1.908707
v 3.920000 82.600000 -1.470000
v 4.135977 82.568529 -1.908707
v 3.803922 82.594836 -1.946024
v 1.998170 58.332044 -2.722159
v 0.792214 59.918864 -2.147162
v 19.901252 75.089229 -6.367063
v 20.323337 74.533841 -6.568312
v 1.998170 58.973009 -0.749314
v 0.792214 59.918864 -2.147162
v 1.998170 58.332044 -2.722159
v 0.792214 59.918864 -2.147162
v 0.792214 60.559829 -0.174317
v 19.901252 75.313566 -5.676567
v 19.901252 75.089229 -6.367063
v 1.998170 58.973009 -0.749314
v 0.792214 60.559829 -0.174317
v 0.792214 59.918864 -2.147162
v 0.792214 60.559829 -0.174317
v 1.998170 59.613974 1.223531
v 20.323337 74.982517 -5.187320
v 19.901252 75.313566 -5.676567
v 1.998170 58.973009 -0.749314
v 1.998170 59.613974 1.223531
v 0.792214 60.559829 -0.174317
v 1.998170 59.613974 1.223531
v 3.204127 58.027153 0.648534
v 20.745422 74.427130 -5.388569
v 20.323337 74.982517 -5.187320
v 1.998170 58.973009 -0.749314
v 3.204127 58.027153 0.648534
v 1.998170 59.613974 1.223531
v 3.204127 58.027153 0.648534
v 3.204127 57.386188 -1.324311
v 20.745422 74.202792 -6.079065
v 20.745422 74.427130 -5.388569
v 1.998170 58.973009 -0.749314
v 3.204127 57.386188 -1.324311
v 3.204127 58.027153 0.648534
v 3.204127 57.386188 -1.324311
v 1.998170 58.332044 -2.722159
v 20.323337 74.533841 -6.568312
v 20.745422 74.202792 -6.079065
v 1.998170 58.973009 -0.749314
v 1.998170 58.332044 -2.722159
v 3.204127 57.386188 -1.324311
v 20.268767 74.570828 -6.577125
v 19.904117 75.146194 -6.325935
v 40.701447 89.565715 -11.112034
v 40.388890 90.058886 -10.896728
v 40.342116 89.898299 -11.496136
v 40.388890 90.058886 -10.896728
v 40.701447 89.565715 -11.112034
v 19.904117 75.146194 -6.325935
v 19.958688 75.333545 -5.626626
v 40.654673 89.405129 -11.711442
v 40.701447 89.565715 -11.112034
v 40.342116 89.898299 -11.496136
v 40.701447 89.565715 -11.112034
v 40.654673 89.405129 -11.711442
v 19.958688 75.333545 -5.626626
v 20.377908 74.945530 -5.178507
v 40.295341 89.737713 -12.095544
v 40.654673 89.405129 -11.711442
v 40.342116 89.898299 -11.496136
v 40.654673 89.405129 -11.711442
v 40.295341 89.737713 -12.095544
v 20.377908 74.945530 -5.178507
v 20.742557 74.370164 -5.429697
v 39.982784 90.230884 -11.880238
v 40.295341 89.737713 -12.095544
v 40.342116 89.898299 -11.496136
v 40.295341 89.737713 -12.095544
v 39.982784 90.230884 -11.880238
v 20.742557 74.370164 -5.429697
v 20.687987 74.182813 -6.129006
v 40.029559 90.391470 -11.280830
v 39.982784 90.230884 -11.880238
v 40.342116 89.898299 -11.496136
v 39.982784 90.230884 -11.880238
v 40.029559 90.391470 -11.280830
v 20.687987 74.182813 -6.129006
v 20.268767 74.570828 -6.577125
v 40.388890 90.058886 -10.896728
v 40.029559 90.391470 -11.280830
v 40.342116 89.898299 -11.496136
v 40.029559 90.391470 -11.280830
v 40.388890 90.058886 -10.896728
v 1.605920 53.716977 -2.025079
v 0.336155 53.866313 -0.971784
v 12.448635 71.657053 10.260946
v 12.893052 71.604785 9.892293
v 1.605920 52.868739 -0.602220
v 0.336155 53.866313 -0.971784
v 1.605920 53.716977 -2.025079
v 0.336155 53.866313 -0.971784
v 0.336155 53.018075 0.451075
v 12.448635 71.360169 10.758947
v 12.448635 71.657053 10.260946
v 1.605920 52.868739 -0.602220
v 0.336155 53.018075 0.451075
v 0.336155 53.866313 -0.971784
v 0.336155 53.018075 0.451075
v 1.605920 52.020501 0.820639
v 12.893052 71.011018 10.888294
v 12.448635 71.360169 10.758947
v 1.605920 52.868739 -0.602220
v 1.605920 52.020501 0.820639
v 0.336155 53.018075 0.451075
v 1.605920 52.020501 0.820639
v 2.875685 51.871164 -0.232656
v 13.337470 70.958750 10.519641
v 12.893052 71.011018 10.888294
v 1.605920 52.868739 -0.602220
v 2.875685 51.871164 -0.232656
v 1.605920 52.020501 0.820639
v 2.875685 51.871164 -0.232656
v 2.875685 52.719402 -1.655515
v 13.337470 71.255634 10.021640
v 13.337470 70.958750 10.519641
v 1.605920 52.868739 -0.602220
v 2.875685 52.719402 -1.655515
v 2.875685 51.871164 -0.232656
v 2.875685 52.719402 -1.655515
v 1.605920 53.716977 -2.025079
v 12.893052 71.604785 9.892293
v 13.337470 71.255634 10.021640
v 1.605920 52.868739 -0.602220
v 1.605920 53.716977 -2.025079
v 2.875685 52.719402 -1.655515
v 12.832016 71.635076 9.915556
v 12.424160 71.643083 10.327543
v 25.656514 90.533482 22.302451
v 25.306923 90.540345 22.655583
v 25.254606 90.820780 22.248665
v 25.306923 90.540345 22.655583
v 25.656514 90.533482 22.302451
v 12.424160 71.643083 10.327543
v 12.485196 71.315908 10.802281
v 25.604197 90.813917 21.895533
v 25.656514 90.533482 22.302451
v 25.254606 90.820780 22.248665
v 25.656514 90.533482 22.302451
v 25.604197 90.813917 21.895533
v 12.485196 71.315908 10.802281
v 12.954089 70.980727 10.865031
v 25.202289 91.101216 21.841747
v 25.604197 90.813917 21.895533
v 25.254606 90.820780 22.248665
v 25.604197 90.813917 21.895533
v 25.202289 91.101216 21.841747
v 12.954089 70.980727 10.865031
v 13.361945 70.972720 10.453044
v 24.852698 91.108079 22.194879
v 25.202289 91.101216 21.841747
v 25.254606 90.820780 22.248665
v 25.202289 91.101216 21.841747
v 24.852698 91.108079 22.194879
v 13.361945 70.972720 10.453044
v 13.300909 71.299894 9.978306
v 24.905015 90.827643 22.601797
v 24.852698 91.108079 22.194879
v 25.254606 90.820780 22.248665
v 24.852698 91.108079 22.194879
v 24.905015 90.827643 22.601797
v 13.300909 71.299894 9.978306
v 12.832016 71.635076 9.915556
v 25.306923 90.540345 22.655583
v 24.905015 90.827643 22.601797
v 25.254606 90.820780 22.248665
v 24.905015 90.827643 22.601797
v 25.306923 90.540345 22.655583
v 2.921997 72.619784 -1.932182
v 1.893118 71.501646 -2.240354
v -8.250552 78.336714 9.361287
v -7.890444 78.728062 9.469147
v 2.921997 71.314345 -1.095749
v 1.893118 71.501646 -2.240354
v 2.921997 72.619784 -1.932182
v 1.893118 71.501646 -2.240354
v 1.893118 70.196207 -1.403920
v -8.250552 77.879810 9.654039
v -8.250552 78.336714 9.361287
v 2.921997 71.314345 -1.095749
v 1.893118 70.196207 -1.403920
v 1.893118 71.501646 -2.240354
v 1.893118 70.196207 -1.403920
v 2.921997 70.008905 -0.259315
v -7.890444 77.814255 10.054651
v -8.250552 77.879810 9.654039
v 2.921997 71.314345 -1.095749
v 2.921997 70.008905 -0.259315
v 1.893118 70.196207 -1.403920
v 2.921997 70.008905 -0.259315
v 3.950876 71.127043 0.048856
v -7.530336 78.205603 10.162511
v -7.890444 77.814255 10.054651
v 2.921997 71.314345 -1.095749
v 3.950876 71.127043 0.048856
v 2.921997 70.008905 -0.259315
v 3.950876 71.127043 0.048856
v 3.950876 72.432483 -0.787578
v -7.530336 78.662507 9.869759
v -7.530336 78.205603 10.162511
v 2.921997 71.314345 -1.095749
v 3.950876 72.432483 -0.787578
v 3.950876 71.127043 0.048856
v 3.950876 72.432483 -0.787578
v 2.921997 72.619784 -1.932182
v -7.890444 78.728062 9.469147
v -7.530336 78.662507 9.869759
v 2.921997 71.314345 -1.095749
v 2.921997 72.619784 -1.932182
v 3.950876 72.432483 -0.787578
v -7.938183 78.761913 9.535303
v -8.257186 78.354919 9.370811
v -19.046072 82.472499 21.768256
v -19.319503 82.123647 21.627263
v -19.360422 82.544294 21.433038
v -19.319503 82.123647 21.627263
v -19.046072 82.472499 21.768256
v -8.257186 78.354919 9.370811
v -8.209447 77.864164 9.597407
v -19.086991 82.893146 21.574031
v -19.046072 82.472499 21.768256
v -19.360422 82.544294 21.433038
v -19.046072 82.472499 21.768256
v -19.086991 82.893146 21.574031
v -8.209447 77.864164 9.597407
v -7.842705 77.780404 9.988494
v -19.401341 82.964941 21.238813
v -19.086991 82.893146 21.574031
v -19.360422 82.544294 21.433038
v -19.086991 82.893146 21.574031
v -19.401341 82.964941 21.238813
v -7.842705 77.780404 9.988494
v -7.523702 78.187398 10.152987
v -19.674772 82.616088 21.097820
v -19.401341 82.964941 21.238813
v -19.360422 82.544294 21.433038
v -19.401341 82.964941 21.238813
v -19.674772 82.616088 21.097820
v -7.523702 78.187398 10.152987
v -7.571441 78.678153 9.926391
v -19.633853 82.195441 21.292045
v -19.674772 82.616088 21.097820
v -19.360422 82.544294 21.433038
v -19.674772 82.616088 21.097820
v -19.633853 82.195441 21.292045
v -7.571441 78.678153 9.926391
v -7.938183 78.761913 9.535303
v -19.319503 82.123647 21.627263
v -19.633853 82.195441 21.292045
v -19.360422 82.544294 21.433038
v -19.633853 82.195441 21.292045
v -19.319503 82.123647 21.627263
v 1.450639 50.216205 -2.215188
v 0.255642 49.415173 -1.364171
v -15.519362 74.163176 -1.287986
v -15.101113 74.443537 -1.585842
v 1.450639 50.247751 -0.543989
v 0.255642 49.415173 -1.364171
v 1.450639 50.216205 -2.215188
v 0.255642 49.415173 -1.364171
v 0.255642 49.446719 0.307028
v -15.519362 74.174217 -0.703066
v -15.519362 74.163176 -1.287986
v 1.450639 50.247751 -0.543989
v 0.255642 49.446719 0.307028
v 0.255642 49.415173 -1.364171
v 0.255642 49.446719 0.307028
v 1.450639 50.279297 1.127209
v -15.101113 74.465619 -0.416003
v -15.519362 74.174217 -0.703066
v 1.450639 50.247751 -0.543989
v 1.450639 50.279297 1.127209
v 0.255642 49.446719 0.307028
v 1.450639 50.279297 1.127209
v 2.645636 51.080328 0.276192
v -14.682864 74.745980 -0.713859
v -15.101113 74.465619 -0.416003
v 1.450639 50.247751 -0.543989
v 2.645636 51.080328 0.276192
v 1.450639 50.279297 1.127209
v 2.645636 51.080328 0.276192
v 2.645636 51.048782 -1.395007
v -14.682864 74.734939 -1.298779
v -14.682864 74.745980 -0.713859
v 1.450639 50.247751 -0.543989
v 2.645636 51.048782 -1.395007
v 2.645636 51.080328 0.276192
v 2.645636 51.048782 -1.395007
v 1.450639 50.216205 -2.215188
v -15.101113 74.443537 -1.585842
v -14.682864 74.734939 -1.298779
v 1.450639 50.247751 -0.543989
v 1.450639 50.216205 -2.215188
v 2.645636 51.048782 -1.395007
v -15.159300 74.403807 -1.580827
v -15.548118 74.150554 -1.224547
v -32.528142 101.298864 -1.349588
v -32.861415 101.081789 -1.044205
v -32.911290 101.038271 -1.541266
v -32.861415 101.081789 -1.044205
v -32.528142 101.298864 -1.349588
v -15.548118 74.150554 -1.224547
v -15.489931 74.201324 -0.644642
v -32.578017 101.255346 -1.846649
v -32.528142 101.298864 -1.349588
v -32.911290 101.038271 -1.541266
v -32.528142 101.298864 -1.349588
v -32.578017 101.255346 -1.846649
v -15.489931 74.201324 -0.644642
v -15.042925 74.505348 -0.421018
v -32.961165 100.994754 -2.038327
v -32.578017 101.255346 -1.846649
v -32.911290 101.038271 -1.541266
v -32.578017 101.255346 -1.846649
v -32.961165 100.994754 -2.038327
v -15.042925 74.505348 -0.421018
v -14.654107 74.758602 -0.777298
v -33.294438 100.777679 -1.732944
v -32.961165 100.994754 -2.038327
v -32.911290 101.038271 -1.541266
v -32.961165 100.994754 -2.038327
v -33.294438 100.777679 -1.732944
v -14.654107 74.758602 -0.777298
v -14.712294 74.707831 -1.357203
v -33.244563 100.821197 -1.235883
v -33.294438 100.777679 -1.732944
v -32.911290 101.038271 -1.541266
v -33.294438 100.777679 -1.732944
v -33.244563 100.821197 -1.235883
v -14.712294 74.707831 -1.357203
v -15.159300 74.403807 -1.580827
v -32.861415 101.081789 -1.044205
v -33.244563 100.821197 -1.235883
v -32.911290 101.038271 -1.541266
v -33.244563 100.821197 -1.235883
v -32.861415 101.081789 -1.044205
v 1.498337 49.986073 -2.408461
v -0.328064 50.256125 -1.326802
v -2.733257 68.847141 -11.405263
v -2.094016 68.752623 -11.783844
v 1.498337 51.067175 -0.561877
v -0.328064 50.256125 -1.326802
v 1.498337 49.986073 -2.408461
v -0.328064 50.256125 -1.326802
v -0.328064 51.337228 0.519782
v -2.733257 69.225527 -10.758959
v -2.733257 68.847141 -11.405263
v 1.498337 51.067175 -0.561877
v -0.328064 51.337228 0.519782
v -0.328064 50.256125 -1.326802
v -0.328064 51.337228 0.519782
v 1.498337 52.148278 1.284708
v -2.094016 69.509394 -10.491235
v -2.733257 69.225527 -10.758959
v 1.498337 51.067175 -0.561877
v 1.498337 52.148278 1.284708
v -0.328064 51.337228 0.519782
v 1.498337 52.148278 1.284708
v 3.324739 51.878226 0.203049
v -1.454776 69.414876 -10.869815
v -2.094016 69.509394 -10.491235
v 1.498337 51.067175 -0.561877
v 3.324739 51.878226 0.203049
v 1.498337 52.148278 1.284708
v 3.324739 51.878226 0.203049
v 3.324739 50.797123 -1.643535
v -1.454776 69.036490 -11.516120
v -1.454776 69.414876 -10.869815
v 1.498337 51.067175 -0.561877
v 3.324739 50.797123 -1.643535
v 3.324739 51.878226 0.203049
v 3.324739 50.797123 -1.643535
v 1.498337 49.986073 -2.408461
v -2.094016 68.752623 -11.783844
v -1.454776 69.036490 -11.516120
v 1.498337 51.067175 -0.561877
v 1.498337 49.986073 -2.408461
v 3.324739 50.797123 -1.643535
v -2.182506 68.748724 -11.775438
v -2.773811 68.888690 -11.337655
v -5.278190 89.406439 -22.469803
v -5.785023 89.526410 -22.094561
v -5.860871 89.198738 -22.641331
v -5.785023 89.526410 -22.094561
v -5.278190 89.406439 -22.469803
v -2.773811 68.888690 -11.337655
v -2.685321 69.270974 -10.699757
v -5.354038 89.078767 -23.016573
v -5.278190 89.406439 -22.469803
v -5.860871 89.198738 -22.641331
v -5.278190 89.406439 -22.469803
v -5.354038 89.078767 -23.016573
v -2.685321 69.270974 -10.699757
v -2.005527 69.513293 -10.499641
v -5.936719 88.871066 -23.188100
v -5.354038 89.078767 -23.016573
v -5.860871 89.198738 -22.641331
v -5.354038 89.078767 -23.016573
v -5.936719 88.871066 -23.188100
v -2.005527 69.513293 -10.499641
v -1.414221 69.373327 -10.937424
v -6.443552 88.991036 -22.812859
v -5.936719 88.871066 -23.188100
v -5.860871 89.198738 -22.641331
v -5.936719 88.871066 -23.188100
v -6.443552 88.991036 -22.812859
v -1.414221 69.373327 -10.937424
v -1.502711 68.991043 -11.575322
v -6.367704 89.318708 -22.266089
v -6.443552 88.991036 -22.812859
v -5.860871 89.198738 -22.641331
v -6.443552 88.991036 -22.812859
v -6.367704 89.318708 -22.266089
v -1.502711 68.991043 -11.575322
v -2.182506 68.748724 -11.775438
v -5.785023 89.526410 -22.094561
v -6.367704 89.318708 -22.266089
v -5.860871 89.198738 -22.641331
v -6.367704 89.318708 -22.266089
v -5.785023 89.526410 -22.094561
v 2.622232 66.272204 -1.994653
v 1.425592 67.383219 -2.084277
v 10.631059 75.729569 -11.831016
v 11.049883 75.340714 -11.799648
v 2.622232 67.557339 -0.983337
v 1.425592 67.383219 -2.084277
v 2.622232 66.272204 -1.994653
v 1.425592 67.383219 -2.084277
v 1.425592 68.668354 -1.072961
v 10.631059 76.179366 -11.477056
v 10.631059 75.729569 -11.831016
v 2.622232 67.557339 -0.983337
v 1.425592 68.668354 -1.072961
v 1.425592 67.383219 -2.084277
v 1.425592 68.668354 -1.072961
v 2.622232 68.842474 0.027979
v 11.049883 76.240308 -11.091727
v 10.631059 76.179366 -11.477056
v 2.622232 67.557339 -0.983337
v 2.622232 68.842474 0.027979
v 1.425592 68.668354 -1.072961
v 2.622232 68.842474 0.027979
v 3.818871 67.731459 0.117603
v 11.468707 75.851453 -11.060358
v 11.049883 76.240308 -11.091727
v 2.622232 67.557339 -0.983337
v 3.818871 67.731459 0.117603
v 2.622232 68.842474 0.027979
v 3.818871 67.731459 0.117603
v 3.818871 66.446324 -0.893713
v 11.468707 75.401656 -11.414319
v 11.468707 75.851453 -11.060358
v 2.622232 67.557339 -0.983337
v 3.818871 66.446324 -0.893713
v 3.818871 67.731459 0.117603
v 3.818871 66.446324 -0.893713
v 2.622232 66.272204 -1.994653
v 11.049883 75.340714 -11.799648
v 11.468707 75.401656 -11.414319
v 2.622232 67.557339 -0.983337
v 2.622232 66.272204 -1.994653
v 3.818871 66.446324 -0.893713
v 10.993903 75.320752 -11.767865
v 10.619834 75.750663 -11.821287
v 20.766972 82.540247 -22.539902
v 20.446341 82.908743 -22.585692
v 20.398358 82.506092 -22.861845
v 20.446341 82.908743 -22.585692
v 20.766972 82.540247 -22.539902
v 10.619834 75.750663 -11.821287
v 10.675814 76.220422 -11.499109
v 20.718989 82.137597 -22.816054
v 20.766972 82.540247 -22.539902
v 20.398358 82.506092 -22.861845
v 20.766972 82.540247 -22.539902
v 20.718989 82.137597 -22.816054
v 10.675814 76.220422 -11.499109
v 11.105863 76.260270 -11.123509
v 20.350376 82.103441 -23.137997
v 20.718989 82.137597 -22.816054
v 20.398358 82.506092 -22.861845
v 20.718989 82.137597 -22.816054
v 20.350376 82.103441 -23.137997
v 11.105863 76.260270 -11.123509
v 11.479933 75.830359 -11.070087
v 20.029744 82.471937 -23.183787
v 20.350376 82.103441 -23.137997
v 20.398358 82.506092 -22.861845
v 20.350376 82.103441 -23.137997
v 20.029744 82.471937 -23.183787
v 11.479933 75.830359 -11.070087
v 11.423953 75.360600 -11.392265
v 20.077727 82.874587 -22.907635
v 20.029744 82.471937 -23.183787
v 20.398358 82.506092 -22.861845
v 20.029744 82.471937 -23.183787
v 20.077727 82.874587 -22.907635
v 11.423953 75.360600 -11.392265
v 10.993903 75.320752 -11.767865
v 20.446341 82.908743 -22.585692
v 20.077727 82.874587 -22.907635
v 20.398358 82.506092 -22.861845
v 20.077727 82.874587 -22.907635
v 20.446341 82.908743 -22.585692
v 40.342116 82.642240 -11.496136
v 47.905537 84.235471 -3.892058
v 51.220745 85.336104 -11.496136
v 51.220745 85.336104 -11.496136
v 47.905537 84.235471 -3.892058
v 48.545404 91.178780 -3.248752
v 56.256421 91.178780 -11.496136
v 56.256421 91.178780 -11.496136
v 48.545404 91.178780 -3.248752
v 47.760200 98.000398 -4.038177
v 50.657744 97.043612 -11.496136
v 40.342116 99.715321 -11.496136
v 50.657744 97.043612 -11.496136
v 47.760200 98.000398 -4.038177
v 40.342116 82.642240 -11.496136
v 40.342116 85.906049 -1.310136
v 47.905537 84.235471 -3.892058
v 47.905537 84.235471 -3.892058
v 40.342116 85.906049 -1.310136
v 40.342116 91.178780 2.716768
v 48.545404 91.178780 -3.248752
v 48.545404 91.178780 -3.248752
v 40.342116 91.178780 2.716768
v 40.342116 97.052694 -3.190622
v 47.760200 98.000398 -4.038177
v 40.342116 99.715321 -11.496136
v 47.760200 98.000398 -4.038177
v 40.342116 97.052694 -3.190622
v 40.342116 82.642240 -11.496136
v 34.525829 85.487812 -5.648585
v 40.342116 85.906049 -1.310136
v 40.342116 85.906049 -1.310136
v 34.525829 85.487812 -5.648585
v 29.478872 91.178780 -0.574498
v 40.342116 91.178780 2.716768
v 40.342116 91.178780 2.716768
v 29.478872 91.178780 -0.574498
v 32.969943 97.597186 -4.084335
v 40.342116 97.052694 -3.190622
v 40.342116 99.715321 -11.496136
v 40.342116 97.052694 -3.190622
v 32.969943 97.597186 -4.084335
v 40.342116 82.642240 -11.496136
v 29.789791 85.439748 -11.496136
v 34.525829 85.487812 -5.648585
v 34.525829 85.487812 -5.648585
v 29.789791 85.439748 -11.496136
v 25.904897 91.178780 -11.496136
v 29.478872 91.178780 -0.574498
v 29.478872 91.178780 -0.574498
v 25.904897 91.178780 -11.496136
v 29.184772 96.968236 -11.496136
v 32.969943 97.597186 -4.084335
v 40.342116 99.715321 -11.496136
v 32.969943 97.597186 -4.084335
v 29.184772 96.968236 -11.496136
v 40.342116 82.642240 -11.496136
v 34.410015 84.242798 -17.460124
v 29.789791 85.439748 -11.496136
v 29.789791 85.439748 -11.496136
v 34.410015 84.242798 -17.460124
v 29.106725 91.178780 -22.791921
v 25.904897 91.178780 -11.496136
v 25.904897 91.178780 -11.496136
v 29.106725 91.178780 -22.791921
v 33.632237 96.535029 -18.242083
v 29.184772 96.968236 -11.496136
v 40.342116 99.715321 -11.496136
v 29.184772 96.968236 -11.496136
v 33.632237 96.535029 -18.242083
v 40.342116 82.642240 -11.496136
v 40.342116 84.475675 -22.223537
v 34.410015 84.242798 -17.460124
v 34.410015 84.242798 -17.460124
v 40.342116 84.475675 -22.223537
v 40.342116 91.178780 -25.931779
v 29.106725 91.178780 -22.791921
v 29.106725 91.178780 -22.791921
v 40.342116 91.178780 -25.931779
v 40.342116 97.773256 -22.180938
v 33.632237 96.535029 -18.242083
v 40.342116 99.715321 -11.496136
v 33.632237 96.535029 -18.242083
v 40.342116 97.773256 -22.180938
v 40.342116 82.642240 -11.496136
v 46.649970 84.325292 -17.837898
v 40.342116 84.475675 -22.223537
v 40.342116 84.475675 -22.223537
v 46.649970 84.325292 -17.837898
v 49.747379 91.178780 -20.951957
v 40.342116 91.178780 -25.931779
v 40.342116 91.178780 -25.931779
v 49.747379 91.178780 -20.951957
v 48.210114 97.851062 -19.406428
v 40.342116 97.773256 -22.180938
v 40.342116 99.715321 -11.496136
v 40.342116 97.773256 -22.180938
v 48.210114 97.851062 -19.406428
v 40.342116 82.642240 -11.496136
v 51.220745 85.336104 -11.496136
v 46.649970 84.325292 -17.837898
v 46.649970 84.325292 -17.837898
v 51.220745 85.336104 -11.496136
v 56.256421 91.178780 -11.496136
v 49.747379 91.178780 -20.951957
v 49.747379 91.178780 -20.951957
v 56.256421 91.178780 -11.496136
v 50.657744 97.043612 -11.496136
v 48.210114 97.851062 -19.406428
v 40.342116 99.715321 -11.496136
v 48.210114 97.851062 -19.406428
v 50.657744 97.043612 -11.496136
v 25.254606 85.579705 22.248665
v 30.766487 86.763588 26.263071
v 33.084386 87.431795 22.248665
v 33.084386 87.431795 22.248665
v 30.766487 86.763588 26.263071
v 33.367469 91.745676 28.157414
v 35.619329 91.745676 22.248665
v 35.619329 91.745676 22.248665
v 33.367469 91.745676 28.157414
v 29.547185 95.614014 25.375030
v 32.288129 95.434598 22.248665
v 25.254606 97.911647 22.248665
v 32.288129 95.434598 22.248665
v 29.547185 95.614014 25.375030
v 25.254606 85.579705 22.248665
v 25.254606 87.314512 26.960543
v 30.766487 86.763588 26.263071
v 30.766487 86.763588 26.263071
v 25.254606 87.314512 26.960543
v 25.254606 91.745676 28.939674
v 33.367469 91.745676 28.157414
v 33.367469 91.745676 28.157414
v 25.254606 91.745676 28.939674
v 25.254606 95.618849 27.713469
v 29.547185 95.614014 25.375030
v 25.254606 97.911647 22.248665
v 29.547185 95.614014 25.375030
v 25.254606 95.618849 27.713469
v 25.254606 85.579705 22.248665
v 19.525436 87.464982 26.421326
v 25.254606 87.314512 26.960543
v 25.254606 87.314512 26.960543
v 19.525436 87.464982 26.421326
v 18.251051 91.745676 27.349484
v 25.254606 91.745676 28.939674
v 25.254606 91.745676 28.939674
v 18.251051 91.745676 27.349484
v 20.735761 95.533302 25.539824
v 25.254606 95.618849 27.713469
v 25.254606 97.911647 22.248665
v 25.254606 95.618849 27.713469
v 20.735761 95.533302 25.539824
v 25.254606 85.579705 22.248665
v 17.981514 87.724643 22.248665
v 19.525436 87.464982 26.421326
v 19.525436 87.464982 26.421326
v 17.981514 87.724643 22.248665
v 15.668920 91.745676 22.248665
v 18.251051 91.745676 27.349484
v 18.251051 91.745676 27.349484
v 15.668920 91.745676 22.248665
v 17.327385 95.453965 22.248665
v 20.735761 95.533302 25.539824
v 25.254606 97.911647 22.248665
v 20.735761 95.533302 25.539824
v 17.327385 95.453965 22.248665
v 25.254606 85.579705 22.248665
v 20.859369 87.196233 19.047533
v 17.981514 87.724643 22.248665
v 17.981514 87.724643 22.248665
v 20.859369 87.196233 19.047533
v 17.673064 91.745676 16.726888
v 15.668920 91.745676 22.248665
v 15.668920 91.745676 22.248665
v 17.673064 91.745676 16.726888
v 19.981413 96.219205 18.408100
v 17.327385 95.453965 22.248665
v 25.254606 97.911647 22.248665
v 17.327385 95.453965 22.248665
v 19.981413 96.219205 18.408100
v 25.254606 85.579705 22.248665
v 25.254606 87.217676 16.553070
v 20.859369 87.196233 19.047533
v 20.859369 87.196233 19.047533
v 25.254606 87.217676 16.553070
v 25.254606 91.745676 15.166651
v 17.673064 91.745676 16.726888
v 17.673064 91.745676 16.726888
v 25.254606 91.745676 15.166651
v 25.254606 95.774156 17.860299
v 19.981413 96.219205 18.408100
v 25.254606 97.911647 22.248665
v 19.981413 96.219205 18.408100
v 25.254606 95.774156 17.860299
v 25.254606 85.579705 22.248665
v 30.065782 87.128556 18.744596
v 25.254606 87.217676 16.553070
v 25.254606 87.217676 16.553070
v 30.065782 87.128556 18.744596
v 31.242642 91.745676 17.887467
v 25.254606 91.745676 15.166651
v 25.254606 91.745676 15.166651
v 31.242642 91.745676 17.887467
v 30.412366 96.290659 18.492173
v 25.254606 95.774156 17.860299
v 25.254606 97.911647 22.248665
v 25.254606 95.774156 17.860299
v 30.412366 96.290659 18.492173
v 25.254606 85.579705 22.248665
v 33.084386 87.431795 22.248665
v 30.065782 87.128556 18.744596
v 30.065782 87.128556 18.744596
v 33.084386 87.431795 22.248665
v 35.619329 91.745676 22.248665
v 31.242642 91.745676 17.887467
v 31.242642 91.745676 17.887467
v 35.619329 91.745676 22.248665
v 32.288129 95.434598 22.248665
v 30.412366 96.290659 18.492173
v 25.254606 97.911647 22.248665
v 30.412366 96.290659 18.492173
v 32.288129 95.434598 22.248665
v -19.360422 77.534851 21.433038
v -14.662784 78.843872 26.350231
v -11.967358 79.296229 21.433038
v -11.967358 79.296229 21.433038
v -14.662784 78.843872 26.350231
v -12.677559 83.428313 28.428240
v -10.911591 83.428313 21.433038
v -10.911591 83.428313 21.433038
v -12.677559 83.428313 28.428240
v -14.223958 88.064564 26.809566
v -13.579406 87.595176 21.433038
v -19.360422 89.321775 21.433038
v -13.579406 87.595176 21.433038
v -14.223958 88.064564 26.809566
v -19.360422 77.534851 21.433038
v -19.360422 78.874993 29.038523
v -14.662784 78.843872 26.350231
v -14.662784 78.843872 26.350231
v -19.360422 78.874993 29.038523
v -19.360422 83.428313 31.452331
v -12.677559 83.428313 28.428240
v -12.677559 83.428313 28.428240
v -19.360422 83.428313 31.452331
v -19.360422 87.692962 28.936513
v -14.223958 88.064564 26.809566
v -19.360422 89.321775 21.433038
v -14.223958 88.064564 26.809566
v -19.360422 87.692962 28.936513
v -19.360422 77.534851 21.433038
v -23.483240 78.810561 25.748546
v -19.360422 78.874993 29.038523
v -19.360422 78.874993 29.038523
v -23.483240 78.810561 25.748546
v -25.805156 83.428313 28.178981
v -19.360422 83.428313 31.452331
v -19.360422 83.428313 31.452331
v -25.805156 83.428313 28.178981
v -24.661011 87.806827 26.981362
v -19.360422 87.692962 28.936513
v -19.360422 89.321775 21.433038
v -19.360422 87.692962 28.936513
v -24.661011 87.806827 26.981362
v -19.360422 77.534851 21.433038
v -26.743210 78.928948 21.433038
v -23.483240 78.810561 25.748546
v -23.483240 78.810561 25.748546
v -26.743210 78.928948 21.433038
v -27.415167 83.428313 21.433038
v -25.805156 83.428313 28.178981
v -25.805156 83.428313 28.178981
v -27.415167 83.428313 21.433038
v -26.386625 87.356544 21.433038
v -24.661011 87.806827 26.981362
v -19.360422 89.321775 21.433038
v -24.661011 87.806827 26.981362
v -26.386625 87.356544 21.433038
v -19.360422 77.534851 21.433038
v -23.973595 79.762340 16.604259
v -26.743210 78.928948 21.433038
v -26.743210 78.928948 21.433038
v -23.973595 79.762340 16.604259
v -26.131743 83.428313 14.345244
v -27.415167 83.428313 21.433038
v -27.415167 83.428313 21.433038
v -26.131743 83.428313 14.345244
v -24.626562 87.995830 15.920774
v -26.386625 87.356544 21.433038
v -19.360422 89.321775 21.433038
v -26.386625 87.356544 21.433038
v -24.626562 87.995830 15.920774
v -19.360422 77.534851 21.433038
v -19.360422 79.351290 14.103524
v -23.973595 79.762340 16.604259
v -23.973595 79.762340 16.604259
v -19.360422 79.351290 14.103524
v -19.360422 83.428313 12.665083
v -26.131743 83.428313 14.345244
v -26.131743 83.428313 14.345244
v -19.360422 83.428313 12.665083
v -19.360422 87.352553 13.553879
v -24.626562 87.995830 15.920774
v -19.360422 89.321775 21.433038
v -24.626562 87.995830 15.920774
v -19.360422 87.352553 13.553879
v -19.360422 77.534851 21.433038
v -14.467110 78.903939 16.311026
v -19.360422 79.351290 14.103524
v -19.360422 79.351290 14.103524
v -14.467110 78.903939 16.311026
v -12.144939 83.428313 13.880324
v -19.360422 83.428313 12.665083
v -19.360422 83.428313 12.665083
v -12.144939 83.428313 13.880324
v -15.220986 87.961229 17.100136
v -19.360422 87.352553 13.553879
v -19.360422 89.321775 21.433038
v -19.360422 87.352553 13.553879
v -15.220986 87.961229 17.100136
v -19.360422 77.534851 21.433038
v -11.967358 79.296229 21.433038
v -14.467110 78.903939 16.311026
v -14.467110 78.903939 16.311026
v -11.967358 79.296229 21.433038
v -10.911591 83.428313 21.433038
v -12.144939 83.428313 13.880324
v -12.144939 83.428313 13.880324
v -10.911591 83.428313 21.433038
v -13.579406 87.595176 21.433038
v -15.220986 87.961229 17.100136
v -19.360422 89.321775 21.433038
v -15.220986 87.961229 17.100136
v -13.579406 87.595176 21.433038
v -32.911290 93.907941 -1.541266
v -25.106661 97.032227 4.632610
v -23.545080 95.633793 -1.541266
v -23.545080 95.633793 -1.541266
v -25.106661 97.032227 4.632610
v -23.237247 102.296565 6.111416
v -17.548824 102.296565 -1.541266
v -17.548824 102.296565 -1.541266
v -23.237247 102.296565 6.111416
v -25.689809 108.820341 4.171309
v -23.301727 107.816790 -1.541266
v -32.911290 110.685188 -1.541266
v -23.301727 107.816790 -1.541266
v -25.689809 108.820341 4.171309
v -32.911290 93.907941 -1.541266
v -32.911290 96.185919 6.100669
v -25.106661 97.032227 4.632610
v -25.106661 97.032227 4.632610
v -32.911290 96.185919 6.100669
v -32.911290 102.296565 10.366171
v -23.237247 102.296565 6.111416
v -23.237247 102.296565 6.111416
v -32.911290 102.296565 10.366171
v -32.911290 108.507725 6.962782
v -25.689809 108.820341 4.171309
v -32.911290 110.685188 -1.541266
v -25.689809 108.820341 4.171309
v -32.911290 108.507725 6.962782
v -32.911290 93.907941 -1.541266
v -38.953447 95.660993 3.238401
v -32.911290 96.185919 6.100669
v -32.911290 96.185919 6.100669
v -38.953447 95.660993 3.238401
v -42.167861 102.296565 5.781173
v -32.911290 102.296565 10.366171
v -32.911290 102.296565 10.366171
v -42.167861 102.296565 5.781173
v -39.290338 107.513631 3.504899
v -32.911290 108.507725 6.962782
v -32.911290 110.685188 -1.541266
v -32.911290 108.507725 6.962782
v -39.290338 107.513631 3.504899
v -32.911290 93.907941 -1.541266
v -41.562297 95.541713 -1.541266
v -38.953447 95.660993 3.238401
v -38.953447 95.660993 3.238401
v -41.562297 95.541713 -1.541266
v -47.067549 102.296565 -1.541266
v -42.167861 102.296565 5.781173
v -42.167861 102.296565 5.781173
v -47.067549 102.296565 -1.541266
v -41.394384 108.056291 -1.541266
v -39.290338 107.513631 3.504899
v -32.911290 110.685188 -1.541266
v -39.290338 107.513631 3.504899
v -41.394384 108.056291 -1.541266
v -32.911290 93.907941 -1.541266
v -40.158874 97.080115 -7.274489
v -41.562297 95.541713 -1.541266
v -41.562297 95.541713 -1.541266
v -40.158874 97.080115 -7.274489
v -41.664844 102.296565 -8.465791
v -47.067549 102.296565 -1.541266
v -47.067549 102.296565 -1.541266
v -41.664844 102.296565 -8.465791
v -39.179570 108.370092 -6.499808
v -41.394384 108.056291 -1.541266
v -32.911290 110.685188 -1.541266
v -41.394384 108.056291 -1.541266
v -39.179570 108.370092 -6.499808
v -32.911290 93.907941 -1.541266
v -32.911290 95.928458 -10.265496
v -40.158874 97.080115 -7.274489
v -40.158874 97.080115 -7.274489
v -32.911290 95.928458 -10.265496
v -32.911290 102.296565 -10.994535
v -41.664844 102.296565 -8.465791
v -41.664844 102.296565 -8.465791
v -32.911290 102.296565 -10.994535
v -32.911290 108.766864 -8.978317
v -39.179570 108.370092 -6.499808
v -32.911290 110.685188 -1.541266
v -39.179570 108.370092 -6.499808
v -32.911290 108.766864 -8.978317
v -32.911290 93.907941 -1.541266
v -26.967744 96.278021 -6.242926
v -32.911290 95.928458 -10.265496
v -32.911290 95.928458 -10.265496
v -26.967744 96.278021 -6.242926
v -22.238363 102.296565 -9.984117
v -32.911290 102.296565 -10.994535
v -32.911290 102.296565 -10.994535
v -22.238363 102.296565 -9.984117
v -26.254493 107.934394 -6.807145
v -32.911290 108.766864 -8.978317
v -32.911290 110.685188 -1.541266
v -32.911290 108.766864 -8.978317
v -26.254493 107.934394 -6.807145
v -32.911290 93.907941 -1.541266
v -23.545080 95.633793 -1.541266
v -26.967744 96.278021 -6.242926
v -26.967744 96.278021 -6.242926
v -23.545080 95.633793 -1.541266
v -17.548824 102.296565 -1.541266
v -22.238363 102.296565 -9.984117
v -22.238363 102.296565 -9.984117
v -17.548824 102.296565 -1.541266
v -23.301727 107.816790 -1.541266
v -26.254493 107.934394 -6.807145
v -32.911290 110.685188 -1.541266
v -26.254493 107.934394 -6.807145
v -23.301727 107.816790 -1.541266
v -5.860871 81.324699 -22.641331
v 2.293222 84.808118 -14.928446
v 5.872633 82.999740 -22.641331
v 5.872633 82.999740 -22.641331
v 2.293222 84.808118 -14.928446
v 5.281451 90.588274 -12.101907
v 9.014341 90.588274 -22.641331
v 9.014341 90.588274 -22.641331
v 5.281451 90.588274 -12.101907
v 1.914257 96.840472 -15.286906
v 5.451411 96.913030 -22.641331
v -5.860871 99.851849 -22.641331
v 5.451411 96.913030 -22.641331
v 1.914257 96.840472 -15.286906
v -5.860871 81.324699 -22.641331
v -5.860871 84.886720 -11.546864
v 2.293222 84.808118 -14.928446
v 2.293222 84.808118 -14.928446
v -5.860871 84.886720 -11.546864
v -5.860871 90.588274 -7.066270
v 5.281451 90.588274 -12.101907
v 5.281451 90.588274 -12.101907
v -5.860871 90.588274 -7.066270
v -5.860871 96.730555 -11.302460
v 1.914257 96.840472 -15.286906
v -5.860871 99.851849 -22.641331
v 1.914257 96.840472 -15.286906
v -5.860871 96.730555 -11.302460
v -5.860871 81.324699 -22.641331
v -13.039377 83.935522 -15.851245
v -5.860871 84.886720 -11.546864
v -5.860871 84.886720 -11.546864
v -13.039377 83.935522 -15.851245
v -14.854120 90.588274 -14.134696
v -5.860871 90.588274 -7.066270
v -5.860871 90.588274 -7.066270
v -14.854120 90.588274 -14.134696
v -13.435301 96.570056 -15.476745
v -5.860871 96.730555 -11.302460
v -5.860871 99.851849 -22.641331
v -5.860871 96.730555 -11.302460
v -13.435301 96.570056 -15.476745
v -5.860871 81.324699 -22.641331
v -15.089236 83.775593 -22.641331
v -13.039377 83.935522 -15.851245
v -13.039377 83.935522 -15.851245
v -15.089236 83.775593 -22.641331
v -19.069001 90.588274 -22.641331
v -14.854120 90.588274 -14.134696
v -14.854120 90.588274 -14.134696
v -19.069001 90.588274 -22.641331
v -15.158062 96.742921 -22.641331
v -13.435301 96.570056 -15.476745
v -5.860871 99.851849 -22.641331
v -13.435301 96.570056 -15.476745
v -15.158062 96.742921 -22.641331
v -5.860871 81.324699 -22.641331
v -14.377419 84.275749 -30.697058
v -15.089236 83.775593 -22.641331
v -15.089236 83.775593 -22.641331
v -14.377419 84.275749 -30.697058
v -16.325973 90.588274 -32.540178
v -19.069001 90.588274 -22.641331
v -19.069001 90.588274 -22.641331
v -16.325973 90.588274 -32.540178
v -14.115048 96.523833 -30.448883
v -15.158062 96.742921 -22.641331
v -5.860871 99.851849 -22.641331
v -15.158062 96.742921 -22.641331
v -14.115048 96.523833 -30.448883
v -5.860871 81.324699 -22.641331
v -5.860871 85.054087 -32.841586
v -14.377419 84.275749 -30.697058
v -14.377419 84.275749 -30.697058
v -5.860871 85.054087 -32.841586
v -5.860871 90.588274 -34.729701
v -16.325973 90.588274 -32.540178
v -16.325973 90.588274 -32.540178
v -5.860871 90.588274 -34.729701
v -5.860871 97.735788 -32.115850
v -14.115048 96.523833 -30.448883
v -5.860871 99.851849 -22.641331
v -14.115048 96.523833 -30.448883
v -5.860871 97.735788 -32.115850
v -5.860871 81.324699 -22.641331
v 1.468215 83.744191 -29.573848
v -5.860871 85.054087 -32.841586
v -5.860871 85.054087 -32.841586
v 1.468215 83.744191 -29.573848
v 6.106003 90.588274 -33.960691
v -5.860871 90.588274 -34.729701
v -5.860871 90.588274 -34.729701
v 6.106003 90.588274 -33.960691
v 2.219474 96.568747 -30.284458
v -5.860871 97.735788 -32.115850
v -5.860871 99.851849 -22.641331
v -5.860871 97.735788 -32.115850
v 2.219474 96.568747 -30.284458
v -5.860871 81.324699 -22.641331
v 5.872633 82.999740 -22.641331
v 1.468215 83.744191 -29.573848
v 1.468215 83.744191 -29.573848
v 5.872633 82.999740 -22.641331
v 9.014341 90.588274 -22.641331
v 6.106003 90.588274 -33.960691
v 6.106003 90.588274 -33.960691
v 9.014341 90.588274 -22.641331
v 5.451411 96.913030 -22.641331
v 2.219474 96.568747 -30.284458
v -5.860871 99.851849 -22.641331
v 2.219474 96.568747 -30.284458
v 5.451411 96.913030 -22.641331
v 20.398358 74.904661 -22.861845
v 26.809486 76.581850 -16.177379
v 29.950666 77.950526 -22.861845
v 29.950666 77.950526 -22.861845
v 26.809486 76.581850 -16.177379
v 30.580308 83.847521 -12.245789
v 36.844286 83.847521 -22.861845
v 36.844286 83.847521 -22.861845
v 30.580308 83.847521 -12.245789
v 27.060561 89.788394 -15.915600
v 29.874811 90.544861 -22.861845
v 20.398358 92.790381 -22.861845
v 29.874811 90.544861 -22.861845
v 27.060561 89.788394 -15.915600
v 20.398358 74.904661 -22.861845
v 20.398358 76.958748 -11.773254
v 26.809486 76.581850 -16.177379
v 26.809486 76.581850 -16.177379
v 20.398358 76.958748 -11.773254
v 20.398358 83.847521 -8.479122
v 30.580308 83.847521 -12.245789
v 30.580308 83.847521 -12.245789
v 20.398358 83.847521 -8.479122
v 20.398358 90.075776 -10.788344
v 27.060561 89.788394 -15.915600
v 20.398358 92.790381 -22.861845
v 27.060561 89.788394 -15.915600
v 20.398358 90.075776 -10.788344
v 20.398358 74.904661 -22.861845
v 12.251323 78.300218 -14.367462
v 20.398358 76.958748 -11.773254
v 20.398358 76.958748 -11.773254
v 12.251323 78.300218 -14.367462
v 11.339786 83.847521 -13.417061
v 20.398358 83.847521 -8.479122
v 20.398358 83.847521 -8.479122
v 11.339786 83.847521 -13.417061
v 13.230732 91.154412 -15.388627
v 20.398358 90.075776 -10.788344
v 20.398358 92.790381 -22.861845
v 20.398358 90.075776 -10.788344
v 13.230732 91.154412 -15.388627
v 20.398358 74.904661 -22.861845
v 9.911878 77.925887 -22.861845
v 12.251323 78.300218 -14.367462
v 12.251323 78.300218 -14.367462
v 9.911878 77.925887 -22.861845
v 7.384065 83.847521 -22.861845
v 11.339786 83.847521 -13.417061
v 11.339786 83.847521 -13.417061
v 7.384065 83.847521 -22.861845
v 11.666382 90.827973 -22.861845
v 13.230732 91.154412 -15.388627
v 20.398358 92.790381 -22.861845
v 13.230732 91.154412 -15.388627
v 11.666382 90.827973 -22.861845
v 20.398358 74.904661 -22.861845
v 13.927493 77.738637 -29.608595
v 9.911878 77.925887 -22.861845
v 9.911878 77.925887 -22.861845
v 13.927493 77.738637 -29.608595
v 8.723929 83.847521 -35.034012
v 7.384065 83.847521 -22.861845
v 7.384065 83.847521 -22.861845
v 8.723929 83.847521 -35.034012
v 13.207762 90.154752 -30.359011
v 11.666382 90.827973 -22.861845
v 20.398358 92.790381 -22.861845
v 11.666382 90.827973 -22.861845
v 13.207762 90.154752 -30.359011
v 20.398358 74.904661 -22.861845
v 20.398358 78.253342 -33.222913
v 13.927493 77.738637 -29.608595
v 13.927493 77.738637 -29.608595
v 20.398358 78.253342 -33.222913
v 20.398358 83.847521 -39.352023
v 8.723929 83.847521 -35.034012
v 8.723929 83.847521 -35.034012
v 20.398358 83.847521 -39.352023
v 20.398358 90.584163 -33.715385
v 13.207762 90.154752 -30.359011
v 20.398358 92.790381 -22.861845
v 13.207762 90.154752 -30.359011
v 20.398358 90.584163 -33.715385
v 20.398358 74.904661 -22.861845
v 26.683496 77.878539 -29.414949
v 20.398358 78.253342 -33.222913
v 20.398358 78.253342 -33.222913
v 26.683496 77.878539 -29.414949
v 31.196635 83.847521 -34.120505
v 20.398358 83.847521 -39.352023
v 20.398358 83.847521 -39.352023
v 31.196635 83.847521 -34.120505
v 28.412423 90.117155 -31.217589
v 20.398358 90.584163 -33.715385
v 20.398358 92.790381 -22.861845
v 20.398358 90.584163 -33.715385
v 28.412423 90.117155 -31.217589
v 20.398358 74.904661 -22.861845
v 29.950666 77.950526 -22.861845
v 26.683496 77.878539 -29.414949
v 26.683496 77.878539 -29.414949
v 29.950666 77.950526 -22.861845
v 36.844286 83.847521 -22.861845
v 31.196635 83.847521 -34.120505
v 31.196635 83.847521 -34.120505
v 36.844286 83.847521 -22.861845
v 29.874811 90.544861 -22.861845
v 28.412423 90.117155 -31.217589
v 20.398358 92.790381 -22.861845
v 28.412423 90.117155 -31.217589
v 29.874811 90.544861 -22.861845
v 5.916800 95.489155 -2.218800
v 11.227659 97.855068 2.145647
v 15.041946 97.117721 -2.218800
v 15.041946 97.117721 -2.218800
v 11.227659 97.855068 2.145647
v 14.458429 102.537208 4.800683
v 17.923689 102.537208 -2.218800
v 17.923689 102.537208 -2.218800
v 14.458429 102.537208 4.800683
v 11.918266 107.303387 2.713185
v 14.460218 107.791440 -2.218800
v 5.916800 109.585260 -2.218800
v 14.460218 107.791440 -2.218800
v 11.918266 107.303387 2.713185
v 5.916800 95.489155 -2.218800
v 5.916800 97.187543 5.209083
v 11.227659 97.855068 2.145647
v 11.227659 97.855068 2.145647
v 5.916800 97.187543 5.209083
v 5.916800 102.537208 7.590344
v 14.458429 102.537208 4.800683
v 14.458429 102.537208 4.800683
v 5.916800 102.537208 7.590344
v 5.916800 106.760682 4.677875
v 11.918266 107.303387 2.713185
v 5.916800 109.585260 -2.218800
v 11.918266 107.303387 2.713185
v 5.916800 106.760682 4.677875
v 5.916800 95.489155 -2.218800
v 0.076932 97.730379 2.580384
v 5.916800 97.187543 5.209083
v 5.916800 97.187543 5.209083
v 0.076932 97.730379 2.580384
v -2.056412 102.537208 4.333560
v 5.916800 102.537208 7.590344
v 5.916800 102.537208 7.590344
v -2.056412 102.537208 4.333560
v 0.965553 107.873739 1.850119
v 5.916800 106.760682 4.677875
v 5.916800 109.585260 -2.218800
v 5.916800 106.760682 4.677875
v 0.965553 107.873739 1.850119
v 5.916800 95.489155 -2.218800
v -2.552565 97.345335 -2.218800
v 0.076932 97.730379 2.580384
v 0.076932 97.730379 2.580384
v -2.552565 97.345335 -2.218800
v -7.059228 102.537208 -2.218800
v -2.056412 102.537208 4.333560
v -2.056412 102.537208 4.333560
v -7.059228 102.537208 -2.218800
v -1.784690 107.049631 -2.218800
v 0.965553 107.873739 1.850119
v 5.916800 109.585260 -2.218800
v 0.965553 107.873739 1.850119
v -1.784690 107.049631 -2.218800
v 5.916800 95.489155 -2.218800
v -0.020758 97.246618 -7.098266
v -2.552565 97.345335 -2.218800
v -2.552565 97.345335 -2.218800
v -0.020758 97.246618 -7.098266
v -0.975836 102.537208 -7.883146
v -7.059228 102.537208 -2.218800
v -7.059228 102.537208 -2.218800
v -0.975836 102.537208 -7.883146
v -0.377003 108.207644 -7.391027
v -1.784690 107.049631 -2.218800
v 5.916800 109.585260 -2.218800
v -1.784690 107.049631 -2.218800
v -0.377003 108.207644 -7.391027
v 5.916800 95.489155 -2.218800
v 5.916800 97.838863 -7.916446
v -0.020758 97.246618 -7.098266
v -0.020758 97.246618 -7.098266
v 5.916800 97.838863 -7.916446
v 5.916800 102.537208 -11.708331
v -0.975836 102.537208 -7.883146
v -0.975836 102.537208 -7.883146
v 5.916800 102.537208 -11.708331
v 5.916800 107.596176 -9.338942
v -0.377003 108.207644 -7.391027
v 5.916800 109.585260 -2.218800
v -0.377003 108.207644 -7.391027
v 5.916800 107.596176 -9.338942
v 5.916800 95.489155 -2.218800
v 12.095777 97.300911 -7.296663
v 5.916800 97.838863 -7.916446
v 5.916800 97.838863 -7.916446
v 12.095777 97.300911 -7.296663
v 15.193777 102.537208 -9.842589
v 5.916800 102.537208 -11.708331
v 5.916800 102.537208 -11.708331
v 15.193777 102.537208 -9.842589
v 12.188714 108.213135 -7.373038
v 5.916800 107.596176 -9.338942
v 5.916800 109.585260 -2.218800
v 5.916800 107.596176 -9.338942
v 12.188714 108.213135 -7.373038
v 5.916800 95.489155 -2.218800
v 15.041946 97.117721 -2.218800
v 12.095777 97.300911 -7.296663
v 12.095777 97.300911 -7.296663
v 15.041946 97.117721 -2.218800
v 17.923689 102.537208 -2.218800
v 15.193777 102.537208 -9.842589
v 15.193777 102.537208 -9.842589
v 17.923689 102.537208 -2.218800
v 14.460218 107.791440 -2.218800
v 12.188714 108.213135 -7.373038
v 5.916800 109.585260 -2.218800
v 12.188714 108.213135 -7.373038
v 14.460218 107.791440 -2.218800
vt 0.000000 0.000000
vt 1.000000 0.000000
vt 1.000000 1.000000
vt 0.000000 1.000000
vt 0.500000 1.000000
vt 0.000000 0.000000
vt 1.000000 0.000000
vt 0.000000 0.000000
vt 1.000000 0.000000
vt 1.000000 1.000000
vt 0.000000 1.000000
vt 0.500000 1.000000
vt 0.000000 0.000000
vt 1.000000 0.000000
vt 0.000000 0.000000
vt 1.000000 0.000000
vt 1.000000 1.000000
vt 0.000000 1.000000
vt 0.500000 1.000000
vt 0.000000 0.000000
vt 1.000000 0.000000
vt 0.000000 0.000000
vt 1.000000 0.000000
vt 1.000000 1.000000
vt 0.000000 1.000000
vt 0.500000 1.000000
vt 0.000000 0.000000
vt 1.000000 0.000000
vt 0.000000 0.000000
vt 1.000000 0.000000
vt 1.000000 1.000000
vt 0.000000 1.000000
vt 0.500000 1.000000
vt 0.000000 0.000000
vt 1.000000 0.000000
vt 0.000000 0.000000
vt 1.000000 0.000000
vt 1.000000 1.000000
vt 0.000000 1.000000
vt 0.500000 1.000000
vt 0.000000 0.000000
vt 1.000000 0.000000
vt 0.000000 0.000000
vt 1.000000 0.000000
vt 1.000000 1.000000
vt 0.000000 1.000000
vt 0.500000 1.000000
vt 0.000000 0.000000
vt 1.000000 0.000000
vt 0.000000 0.000000
vt 1.000000 0.000000
vt 1.000000 1.000000
vt 0.000000 1.000000
vt 0.500000 1.000000
vt 0.000000 0.000000
vt 1.000000 0.000000
vt 0.000000 0.000000
vt 1.000000 0.000000
vt 1.000000 1.000000
vt 0.000000 1.000000
vt 0.500000 1.000000
vt 0.000000 0.000000
vt 1.000000 0.000000
vt 0.000000 0.000000
vt 1.000000 0.000000
vt 1.000000 1.000000
vt 0.000000 1.000000
vt 0.000000 0.000000
vt 1.000000 0.000000
vt 1.000000 1.000000
vt 0.000000 1.000000
vt 0.000000 0.000000
vt 1.000000 0.000000
vt 1.000000 1.000000
vt 0.000000 1.000000
vt 0.000000 0.000000
vt 1.000000 0.000000
vt 1.000000 1.000000
vt 0.000000 1.000000
vt 0.000000 0.000000
vt 1.000000 0.000000
vt 1.000000 1.000000
vt 0.000000 1.000000
vt 0.000000 0.000000
vt 1.000000 0.000000
vt 1.000000 1.000000
vt 0.000000 1.000000
vt 0.000000 0.000000
vt 1.000000 0.000000
vt 1.000000 1.000000
vt 0.000000 1.000000
vt 0.000000 0.000000
vt 1.000000 0.000000
vt 1.000000 1.000000
vt 0.000000 1.000000
vt 0.000000 0.000000
vt 1.000000 0.000000
vt 1.000000 1.000000
vt 0.000000 1.000000
vt 0.000000 0.000000
vt 1.000000 0.000000
vt 1.000000 1.000000
vt 0.000000 1.000000
vt 0.500000 1.000000
vt 0.000000 0.000000
vt 1.000000 0.000000
vt 0.000000 0.000000
vt 1.000000 0.000000
vt 1.000000 1.000000
vt 0.000000 1.000000
vt 0.500000 1.000000
vt 0.000000 0.000000
vt 1.000000 0.000000
vt 0.000000 0.000000
vt 1.000000 0.000000
vt 1.000000 1.000000
vt 0.000000 1.000000
vt 0.500000 1.000000
vt 0.000000 0.000000
vt 1.000000 0.000000
vt 0.000000 0.000000
vt 1.000000 0.000000
vt 1.000000 1.000000
vt 0.000000 1.000000
vt 0.500000 1.000000
vt 0.000000 0.000000
vt 1.000000 0.000000
vt 0.000000 0.000000
vt 1.000000 0.000000
vt 1.000000 1.000000
vt 0.000000 1.000000
vt 0.500000 1.000000
vt 0.000000 0.000000
vt 1.000000 0.000000
vt 0.000000 0.000000
vt 1.000000 0.000000
vt 1.000000 1.000000
vt 0.000000 1.000000
vt 0.500000 1.000000
vt 0.000000 0.000000
vt 1.000000 0.000000
vt 0.000000 0.000000
vt 1.000000 0.000000
vt 1.000000 1.000000
vt 0.000000 1.000000
vt 0.500000 1.000000
vt 0.000000 0.000000
vt 1.000000 0.000000
vt 0.000000 0.000000
vt 1.000000 0.000000
vt 1.000000 1.000000
vt 0.000000 1.000000
vt 0.500000 1.000000
vt 0.000000 0.000000
vt 1.000000 0.000000
vt 0.000000 0.000000
vt 1.000000 0.000000
vt 1.000000 1.000000
vt 0.000000 1.000000
vt 0.500000 1.000000
vt 0.000000 0.000000
vt 1.000000 0.000000
vt 0.000000 0.000000
vt 1.000000 0.000000
vt 1.000000 1.000000
vt 0.000000 1.000000
vt 0.500000 1.000000
vt 0.000000 0.000000
vt 1.000000 0.000000
vt 0.000000 0.000000
vt 1.000000 0.000000
vt 1.000000 1.000000
vt 0.000000 1.000000
vt 0.500000 1.000000
vt 0.000000 0.000000
vt 1.000000 0.000000
vt 0.000000 0.000000
vt 1.000000 0.000000
vt 1.000000 1.000000
vt 0.000000 1.000000
vt 0.500000 1.000000
vt 0.000000 0.000000
vt 1.000000 0.000000
vt 0.000000 0.000000
vt 1.000000 0.000000
vt 1.000000 1.000000
vt 0.000000 1.000000
vt 0.500000 1.000000
vt 0.000000 0.000000
vt 1.000000 0.000000
vt 0.000000 0.000000
vt 1.000000 0.000000
vt 1.000000 1.000000
vt 0.000000 1.000000
vt 0.500000 1.000000
vt 0.000000 0.000000
vt 1.000000 0.000000
vt 0.000000 0.000000
vt 1.000000 0.000000
vt 1.000000 1.000000
vt 0.000000 1.000000
vt 0.500000 1.000000
vt 0.000000 0.000000
vt 1.000000 0.000000
vt 0.000000 0.000000
vt 1.000000 0.000000
vt 1.000000 1.000000
vt 0.000000 1.000000
vt 0.500000 1.000000
vt 0.000000 0.000000
vt 1.000000 0.000000
vt 0.000000 0.000000
vt 1.000000 0.000000
vt 1.000000 1.000000
vt 0.000000 1.000000
vt 0.500000 1.000000
vt 0.000000 0.000000
vt 1.000000 0.000000
vt 0.000000 0.000000
vt 1.000000 0.000000
vt 1.000000 1.000000
vt 0.000000 1.000000
vt 0.500000 1.000000
vt 0.000000 0.000000
vt 1.000000 0.000000
vt 0.000000 0.000000
vt 1.000000 0.000000
vt 1.000000 1.000000
vt 0.000000 1.000000
vt 0.500000 1.000000
vt 0.000000 0.000000
vt 1.000000 0.000000
vt 0.000000 0.000000
vt 1.000000 0.000000
vt 1.000000 1.000000
vt 0.000000 1.000000
vt 0.500000 1.000000
vt 0.000000 0.000000
vt 1.000000 0.000000
vt 0.000000 0.000000
vt 1.000000 0.000000
vt 1.000000 1.000000
vt 0.000000 1.000000
vt 0.500000 1.000000
vt 0.000000 0.000000
vt 1.000000 0.000000
vt 0.000000 0.000000
vt 1.000000 0.000000
vt 1.000000 1.000000
vt 0.000000 1.000000
vt 0.500000 1.000000
vt 0.000000 0.000000
vt 1.000000 0.000000
vt 0.000000 0.000000
vt 1.000000 0.000000
vt 1.000000 1.000000
vt 0.000000 1.000000
vt 0.500000 1.000000
vt 0.000000 0.000000
vt 1.000000 0.000000
vt 0.000000 0.000000
vt 1.000000 0.000000
vt 1.000000 1.000000
vt 0.000000 1.000000
vt 0.500000 1.000000
vt 0.000000 0.000000
vt 1.000000 0.000000
vt 0.000000 0.000000
vt 1.000000 0.000000
vt 1.000000 1.000000
vt 0.000000 1.000000
vt 0.500000 1.000000
vt 0.000000 0.000000
vt 1.000000 0.000000
vt 0.000000 0.000000
vt 1.000000 0.000000
vt 1.000000 1.000000
vt 0.000000 1.000000
vt 0.500000 1.000000
vt 0.000000 0.000000
vt 1.000000 0.000000
vt 0.000000 0.000000
vt 1.000000 0.000000
vt 1.000000 1.000000
vt 0.000000 1.000000
vt 0.500000 1.000000
vt 0.000000 0.000000
vt 1.000000 0.000000
vt 0.000000 0.000000
vt 1.000000 0.000000
vt 1.000000 1.000000
vt 0.000000 1.000000
vt 0.500000 1.000000
vt 0.000000 0.000000
vt 1.000000 0.000000
vt 0.000000 0.000000
vt 1.000000 0.000000
vt 1.000000 1.000000
vt 0.000000 1.000000
vt 0.500000 1.000000
vt 0.000000 0.000000
vt 1.000000 0.000000
vt 0.000000 0.000000
vt 1.000000 0.000000
vt 1.000000 1.000000
vt 0.000000 1.000000
vt 0.500000 1.000000
vt 0.000000 0.000000
vt 1.000000 0.000000
vt 0.000000 0.000000
vt 1.000000 0.000000
vt 1.000000 1.000000
vt 0.000000 1.000000
vt 0.500000 1.000000
vt 0.000000 0.000000
vt 1.000000 0.000000
vt 0.000000 0.000000
vt 1.000000 0.000000
vt 1.000000 1.000000
vt 0.000000 1.000000
vt 0.500000 1.000000
vt 0.000000 0.000000
vt 1.000000 0.000000
vt 0.000000 0.000000
vt 1.000000 0.000000
vt 1.000000 1.000000
vt 0.000000 1.000000
vt 0.500000 1.000000
vt 0.000000 0.000000
vt 1.000000 0.000000
vt 0.000000 0.000000
vt 1.000000 0.000000
vt 1.000000 1.000000
vt 0.000000 1.000000
vt 0.500000 1.000000
vt 0.000000 0.000000
vt 1.000000 0.000000
vt 0.000000 0.000000
vt 1.000000 0.000000
vt 1.000000 1.000000
vt 0.000000 1.000000
vt 0.500000 1.000000
vt 0.000000 0.000000
vt 1.000000 0.000000
vt 0.000000 0.000000
vt 1.000000 0.000000
vt 1.000000 1.000000
vt 0.000000 1.000000
vt 0.500000 1.000000
vt 0.000000 0.000000
vt 1.000000 0.000000
vt 0.000000 0.000000
vt 1.000000 0.000000
vt 1.000000 1.000000
vt 0.000000 1.000000
vt 0.500000 1.000000
vt 0.000000 0.000000
vt 1.000000 0.000000
vt 0.000000 0.000000
vt 1.000000 0.000000
vt 1.000000 1.000000
vt 0.000000 1.000000
vt 0.500000 1.000000
vt 0.000000 0.000000
vt 1.000000 0.000000
vt 0.000000 0.000000
vt 1.000000 0.000000
vt 1.000000 1.000000
vt 0.000000 1.000000
vt 0.500000 1.000000
vt 0.000000 0.000000
vt 1.000000 0.000000
vt 0.000000 0.000000
vt 1.000000 0.000000
vt 1.000000 1.000000
vt 0.000000 1.000000
vt 0.500000 1.000000
vt 0.000000 0.000000
vt 1.000000 0.000000
vt 0.000000 0.000000
vt 1.000000 0.000000
vt 1.000000 1.000000
vt 0.000000 1.000000
vt 0.500000 1.000000
vt 0.000000 0.000000
vt 1.000000 0.000000
vt 0.000000 0.000000
vt 1.000000 0.000000
vt 1.000000 1.000000
vt 0.000000 1.000000
vt 0.500000 1.000000
vt 0.000000 0.000000
vt 1.000000 0.000000
vt 0.000000 0.000000
vt 1.000000 0.000000
vt 1.000000 1.000000
vt 0.000000 1.000000
vt 0.500000 1.000000
vt 0.000000 0.000000
vt 1.000000 0.000000
vt 0.000000 0.000000
vt 1.000000 0.000000
vt 1.000000 1.000000
vt 0.000000 1.000000
vt 0.500000 1.000000
vt 0.000000 0.000000
vt 1.000000 0.000000
vt 0.000000 0.000000
vt 1.000000 0.000000
vt 1.000000 1.000000
vt 0.000000 1.000000
vt 0.500000 1.000000
vt 0.000000 0.000000
vt 1.000000 0.000000
vt 0.000000 0.000000
vt 1.000000 0.000000
vt 1.000000 1.000000
vt 0.000000 1.000000
vt 0.500000 1.000000
vt 0.000000 0.000000
vt 1.000000 0.000000
vt 0.000000 0.000000
vt 1.000000 0.000000
vt 1.000000 1.000000
vt 0.000000 1.000000
vt 0.500000 1.000000
vt 0.000000 0.000000
vt 1.000000 0.000000
vt 0.000000 0.000000
vt 1.000000 0.000000
vt 1.000000 1.000000
vt 0.000000 1.000000
vt 0.500000 1.000000
vt 0.000000 0.000000
vt 1.000000 0.000000
vt 0.000000 0.000000
vt 1.000000 0.000000
vt 1.000000 1.000000
vt 0.000000 1.000000
vt 0.500000 1.000000
vt 0.000000 0.000000
vt 1.000000 0.000000
vt 0.000000 0.000000
vt 1.000000 0.000000
vt 1.000000 1.000000
vt 0.000000 1.000000
vt 0.500000 1.000000
vt 0.000000 0.000000
vt 1.000000 0.000000
vt 0.000000 0.000000
vt 1.000000 0.000000
vt 1.000000 1.000000
vt 0.000000 1.000000
vt 0.500000 1.000000
vt 0.000000 0.000000
vt 1.000000 0.000000
vt 0.000000 0.000000
vt 1.000000 0.000000
vt 1.000000 1.000000
vt 0.000000 1.000000
vt 0.500000 1.000000
vt 0.000000 0.000000
vt 1.000000 0.000000
vt 0.000000 0.000000
vt 1.000000 0.000000
vt 1.000000 1.000000
vt 0.000000 1.000000
vt 0.500000 1.000000
vt 0.000000 0.000000
vt 1.000000 0.000000
vt 0.000000 0.000000
vt 1.000000 0.000000
vt 1.000000 1.000000
vt 0.000000 1.000000
vt 0.500000 1.000000
vt 0.000000 0.000000
vt 1.000000 0.000000
vt 0.000000 0.000000
vt 1.000000 0.000000
vt 1.000000 1.000000
vt 0.000000 1.000000
vt 0.500000 1.000000
vt 0.000000 0.000000
vt 1.000000 0.000000
vt 0.000000 0.000000
vt 1.000000 0.000000
vt 1.000000 1.000000
vt 0.000000 1.000000
vt 0.500000 1.000000
vt 0.000000 0.000000
vt 1.000000 0.000000
vt 0.000000 0.000000
vt 1.000000 0.000000
vt 1.000000 1.000000
vt 0.000000 1.000000
vt 0.500000 1.000000
vt 0.000000 0.000000
vt 1.000000 0.000000
vt 0.000000 0.000000
vt 1.000000 0.000000
vt 1.000000 1.000000
vt 0.000000 1.000000
vt 0.500000 1.000000
vt 0.000000 0.000000
vt 1.000000 0.000000
vt 0.000000 0.000000
vt 1.000000 0.000000
vt 1.000000 1.000000
vt 0.000000 1.000000
vt 0.500000 1.000000
vt 0.000000 0.000000
vt 1.000000 0.000000
vt 0.000000 0.000000
vt 1.000000 0.000000
vt 1.000000 1.000000
vt 0.000000 1.000000
vt 0.500000 1.000000
vt 0.000000 0.000000
vt 1.000000 0.000000
vt 0.000000 0.000000
vt 1.000000 0.000000
vt 1.000000 1.000000
vt 0.000000 1.000000
vt 0.500000 1.000000
vt 0.000000 0.000000
vt 1.000000 0.000000
vt 0.000000 0.000000
vt 1.000000 0.000000
vt 1.000000 1.000000
vt 0.000000 1.000000
vt 0.500000 1.000000
vt 0.000000 0.000000
vt 1.000000 0.000000
vt 0.000000 0.000000
vt 1.000000 0.000000
vt 1.000000 1.000000
vt 0.000000 1.000000
vt 0.500000 1.000000
vt 0.000000 0.000000
vt 1.000000 0.000000
vt 0.000000 0.000000
vt 1.000000 0.000000
vt 1.000000 1.000000
vt 0.000000 1.000000
vt 0.500000 1.000000
vt 0.000000 0.000000
vt 1.000000 0.000000
vt 0.000000 0.000000
vt 1.000000 0.000000
vt 1.000000 1.000000
vt 0.000000 1.000000
vt 0.500000 1.000000
vt 0.000000 0.000000
vt 1.000000 0.000000
vt 0.000000 0.000000
vt 1.000000 0.000000
vt 1.000000 1.000000
vt 0.000000 1.000000
vt 0.500000 1.000000
vt 0.000000 0.000000
vt 1.000000 0.000000
vt 0.000000 0.000000
vt 1.000000 0.000000
vt 1.000000 1.000000
vt 0.000000 1.000000
vt 0.500000 1.000000
vt 0.000000 0.000000
vt 1.000000 0.000000
vt 0.000000 0.000000
vt 1.000000 0.000000
vt 1.000000 1.000000
vt 0.000000 1.000000
vt 0.500000 1.000000
vt 0.000000 0.000000
vt 1.000000 0.000000
vt 0.000000 0.000000
vt 1.000000 0.000000
vt 1.000000 1.000000
vt 0.000000 1.000000
vt 0.500000 1.000000
vt 0.000000 0.000000
vt 1.000000 0.000000
vt 0.000000 0.000000
vt 1.000000 0.000000
vt 1.000000 1.000000
vt 0.000000 1.000000
vt 0.500000 1.000000
vt 0.000000 0.000000
vt 1.000000 0.000000
vt 0.000000 0.000000
vt 1.000000 0.000000
vt 1.000000 1.000000
vt 0.000000 1.000000
vt 0.500000 1.000000
vt 0.000000 0.000000
vt 1.000000 0.000000
vt 0.000000 0.000000
vt 1.000000 0.000000
vt 1.000000 1.000000
vt 0.000000 1.000000
vt 0.500000 1.000000
vt 0.000000 0.000000
vt 1.000000 0.000000
vt 0.000000 0.000000
vt 1.000000 0.000000
vt 1.000000 1.000000
vt 0.000000 1.000000
vt 0.500000 1.000000
vt 0.000000 0.000000
vt 1.000000 0.000000
vt 0.000000 0.000000
vt 1.000000 0.000000
vt 1.000000 1.000000
vt 0.000000 1.000000
vt 0.500000 1.000000
vt 0.000000 0.000000
vt 1.000000 0.000000
vt 0.000000 0.000000
vt 1.000000 0.000000
vt 1.000000 1.000000
vt 0.000000 1.000000
vt 0.500000 1.000000
vt 0.000000 0.000000
vt 1.000000 0.000000
vt 0.000000 0.000000
vt 1.000000 0.000000
vt 1.000000 1.000000
vt 0.000000 1.000000
vt 0.500000 1.000000
vt 0.000000 0.000000
vt 1.000000 0.000000
vt 0.000000 0.000000
vt 1.000000 0.000000
vt 1.000000 1.000000
vt 0.000000 1.000000
vt 0.500000 1.000000
vt 0.000000 0.000000
vt 1.000000 0.000000
vt 0.000000 0.000000
vt 1.000000 0.000000
vt 1.000000 1.000000
vt 0.000000 1.000000
vt 0.500000 1.000000
vt 0.000000 0.000000
vt 1.000000 0.000000
vt 0.000000 0.000000
vt 1.000000 0.000000
vt 1.000000 1.000000
vt 0.000000 1.000000
vt 0.500000 1.000000
vt 0.000000 0.000000
vt 1.000000 0.000000
vt 0.000000 0.000000
vt 1.000000 0.000000
vt 1.000000 1.000000
vt 0.000000 1.000000
vt 0.500000 1.000000
vt 0.000000 0.000000
vt 1.000000 0.000000
vt 0.000000 0.000000
vt 1.000000 0.000000
vt 1.000000 1.000000
vt 0.000000 1.000000
vt 0.500000 1.000000
vt 0.000000 0.000000
vt 1.000000 0.000000
vt 0.500000 1.000000
vt 0.000000 0.000000
vt 1.000000 0.000000
vt 0.000000 0.000000
vt 1.000000 0.000000
vt 1.000000 1.000000
vt 0.000000 1.000000
vt 0.000000 0.000000
vt 1.000000 0.000000
vt 1.000000 1.000000
vt 0.000000 1.000000
vt 0.500000 1.000000
vt 0.000000 0.000000
vt 1.000000 0.000000
vt 0.500000 1.000000
vt 0.000000 0.000000
vt 1.000000 0.000000
vt 0.000000 0.000000
vt 1.000000 0.000000
vt 1.000000 1.000000
vt 0.000000 1.000000
vt 0.000000 0.000000
vt 1.000000 0.000000
vt 1.000000 1.000000
vt 0.000000 1.000000
vt 0.500000 1.000000
vt 0.000000 0.000000
vt 1.000000 0.000000
vt 0.500000 1.000000
vt 0.000000 0.000000
vt 1.000000 0.000000
vt 0.000000 0.000000
vt 1.000000 0.000000
vt 1.000000 1.000000
vt 0.000000 1.000000
vt 0.000000 0.000000
vt 1.000000 0.000000
vt 1.000000 1.000000
vt 0.000000 1.000000
vt 0.500000 1.000000
vt 0.000000 0.000000
vt 1.000000 0.000000
vt 0.500000 1.000000
vt 0.000000 0.000000
vt 1.000000 0.000000
vt 0.000000 0.000000
vt 1.000000 0.000000
vt 1.000000 1.000000
vt 0.000000 1.000000
vt 0.000000 0.000000
vt 1.000000 0.000000
vt 1.000000 1.000000
vt 0.000000 1.000000
vt 0.500000 1.000000
vt 0.000000 0.000000
vt 1.000000 0.000000
vt 0.500000 1.000000
vt 0.000000 0.000000
vt 1.000000 0.000000
vt 0.000000 0.000000
vt 1.000000 0.000000
vt 1.000000 1.000000
vt 0.000000 1.000000
vt 0.000000 0.000000
vt 1.000000 0.000000
vt 1.000000 1.000000
vt 0.000000 1.000000
vt 0.500000 1.000000
vt 0.000000 0.000000
vt 1.000000 0.000000
vt 0.500000 1.000000
vt 0.000000 0.000000
vt 1.000000 0.000000
vt 0.000000 0.000000
vt 1.000000 0.000000
vt 1.000000 1.000000
vt 0.000000 1.000000
vt 0.000000 0.000000
vt 1.000000 0.000000
vt 1.000000 1.000000
vt 0.000000 1.000000
vt 0.500000 1.000000
vt 0.000000 0.000000
vt 1.000000 0.000000
vt 0.500000 1.000000
vt 0.000000 0.000000
vt 1.000000 0.000000
vt 0.000000 0.000000
vt 1.000000 0.000000
vt 1.000000 1.000000
vt 0.000000 1.000000
vt 0.000000 0.000000
vt 1.000000 0.000000
vt 1.000000 1.000000
vt 0.000000 1.000000
vt 0.500000 1.000000
vt 0.000000 0.000000
vt 1.000000 0.000000
vt 0.500000 1.000000
vt 0.000000 0.000000
vt 1.000000 0.000000
vt 0.000000 0.000000
vt 1.000000 0.000000
vt 1.000000 1.000000
vt 0.000000 1.000000
vt 0.000000 0.000000
vt 1.000000 0.000000
vt 1.000000 1.000000
vt 0.000000 1.000000
vt 0.500000 1.000000
vt 0.000000 0.000000
vt 1.000000 0.000000
vt 0.500000 1.000000
vt 0.000000 0.000000
vt 1.000000 0.000000
vt 0.000000 0.000000
vt 1.000000 0.000000
vt 1.000000 1.000000
vt 0.000000 1.000000
vt 0.000000 0.000000
vt 1.000000 0.000000
vt 1.000000 1.000000
vt 0.000000 1.000000
vt 0.500000 1.000000
vt 0.000000 0.000000
vt 1.000000 0.000000
vt 0.500000 1.000000
vt 0.000000 0.000000
vt 1.000000 0.000000
vt 0.000000 0.000000
vt 1.000000 0.000000
vt 1.000000 1.000000
vt 0.000000 1.000000
vt 0.000000 0.000000
vt 1.000000 0.000000
vt 1.000000 1.000000
vt 0.000000 1.000000
vt 0.500000 1.000000
vt 0.000000 0.000000
vt 1.000000 0.000000
vt 0.500000 1.000000
vt 0.000000 0.000000
vt 1.000000 0.000000
vt 0.000000 0.000000
vt 1.000000 0.000000
vt 1.000000 1.000000
vt 0.000000 1.000000
vt 0.000000 0.000000
vt 1.000000 0.000000
vt 1.000000 1.000000
vt 0.000000 1.000000
vt 0.500000 1.000000
vt 0.000000 0.000000
vt 1.000000 0.000000
vt 0.500000 1.000000
vt 0.000000 0.000000
vt 1.000000 0.000000
vt 0.000000 0.000000
vt 1.000000 0.000000
vt 1.000000 1.000000
vt 0.000000 1.000000
vt 0.000000 0.000000
vt 1.000000 0.000000
vt 1.000000 1.000000
vt 0.000000 1.000000
vt 0.500000 1.000000
vt 0.000000 0.000000
vt 1.000000 0.000000
vt 0.500000 1.000000
vt 0.000000 0.000000
vt 1.000000 0.000000
vt 0.000000 0.000000
vt 1.000000 0.000000
vt 1.000000 1.000000
vt 0.000000 1.000000
vt 0.000000 0.000000
vt 1.000000 0.000000
vt 1.000000 1.000000
vt 0.000000 1.000000
vt 0.500000 1.000000
vt 0.000000 0.000000
vt 1.000000 0.000000
vt 0.500000 1.000000
vt 0.000000 0.000000
vt 1.000000 0.000000
vt 0.000000 0.000000
vt 1.000000 0.000000
vt 1.000000 1.000000
vt 0.000000 1.000000
vt 0.000000 0.000000
vt 1.000000 0.000000
vt 1.000000 1.000000
vt 0.000000 1.000000
vt 0.500000 1.000000
vt 0.000000 0.000000
vt 1.000000 0.000000
vt 0.500000 1.000000
vt 0.000000 0.000000
vt 1.000000 0.000000
vt 0.000000 0.000000
vt 1.000000 0.000000
vt 1.000000 1.000000
vt 0.000000 1.000000
vt 0.000000 0.000000
vt 1.000000 0.000000
vt 1.000000 1.000000
vt 0.000000 1.000000
vt 0.500000 1.000000
vt 0.000000 0.000000
vt 1.000000 0.000000
vt 0.500000 1.000000
vt 0.000000 0.000000
vt 1.000000 0.000000
vt 0.000000 0.000000
vt 1.000000 0.000000
vt 1.000000 1.000000
vt 0.000000 1.000000
vt 0.000000 0.000000
vt 1.000000 0.000000
vt 1.000000 1.000000
vt 0.000000 1.000000
vt 0.500000 1.000000
vt 0.000000 0.000000
vt 1.000000 0.000000
vt 0.500000 1.000000
vt 0.000000 0.000000
vt 1.000000 0.000000
vt 0.000000 0.000000
vt 1.000000 0.000000
vt 1.000000 1.000000
vt 0.000000 1.000000
vt 0.000000 0.000000
vt 1.000000 0.000000
vt 1.000000 1.000000
vt 0.000000 1.000000
vt 0.500000 1.000000
vt 0.000000 0.000000
vt 1.000000 0.000000
vt 0.500000 1.000000
vt 0.000000 0.000000
vt 1.000000 0.000000
vt 0.000000 0.000000
vt 1.000000 0.000000
vt 1.000000 1.000000
vt 0.000000 1.000000
vt 0.000000 0.000000
vt 1.000000 0.000000
vt 1.000000 1.000000
vt 0.000000 1.000000
vt 0.500000 1.000000
vt 0.000000 0.000000
vt 1.000000 0.000000
vt 0.500000 1.000000
vt 0.000000 0.000000
vt 1.000000 0.000000
vt 0.000000 0.000000
vt 1.000000 0.000000
vt 1.000000 1.000000
vt 0.000000 1.000000
vt 0.000000 0.000000
vt 1.000000 0.000000
vt 1.000000 1.000000
vt 0.000000 1.000000
vt 0.500000 1.000000
vt 0.000000 0.000000
vt 1.000000 0.000000
vt 0.500000 1.000000
vt 0.000000 0.000000
vt 1.000000 0.000000
vt 0.000000 0.000000
vt 1.000000 0.000000
vt 1.000000 1.000000
vt 0.000000 1.000000
vt 0.000000 0.000000
vt 1.000000 0.000000
vt 1.000000 1.000000
vt 0.000000 1.000000
vt 0.500000 1.000000
vt 0.000000 0.000000
vt 1.000000 0.000000
vt 0.500000 1.000000
vt 0.000000 0.000000
vt 1.000000 0.000000
vt 0.000000 0.000000
vt 1.000000 0.000000
vt 1.000000 1.000000
vt 0.000000 1.000000
vt 0.000000 0.000000
vt 1.000000 0.000000
vt 1.000000 1.000000
vt 0.000000 1.000000
vt 0.500000 1.000000
vt 0.000000 0.000000
vt 1.000000 0.000000
vt 0.500000 1.000000
vt 0.000000 0.000000
vt 1.000000 0.000000
vt 0.000000 0.000000
vt 1.000000 0.000000
vt 1.000000 1.000000
vt 0.000000 1.000000
vt 0.000000 0.000000
vt 1.000000 0.000000
vt 1.000000 1.000000
vt 0.000000 1.000000
vt 0.500000 1.000000
vt 0.000000 0.000000
vt 1.000000 0.000000
vt 0.500000 1.000000
vt 0.000000 0.000000
vt 1.000000 0.000000
vt 0.000000 0.000000
vt 1.000000 0.000000
vt 1.000000 1.000000
vt 0.000000 1.000000
vt 0.000000 0.000000
vt 1.000000 0.000000
vt 1.000000 1.000000
vt 0.000000 1.000000
vt 0.500000 1.000000
vt 0.000000 0.000000
vt 1.000000 0.000000
vt 0.500000 1.000000
vt 0.000000 0.000000
vt 1.000000 0.000000
vt 0.000000 0.000000
vt 1.000000 0.000000
vt 1.000000 1.000000
vt 0.000000 1.000000
vt 0.000000 0.000000
vt 1.000000 0.000000
vt 1.000000 1.000000
vt 0.000000 1.000000
vt 0.500000 1.000000
vt 0.000000 0.000000
vt 1.000000 0.000000
vt 0.500000 1.000000
vt 0.000000 0.000000
vt 1.000000 0.000000
vt 0.000000 0.000000
vt 1.000000 0.000000
vt 1.000000 1.000000
vt 0.000000 1.000000
vt 0.000000 0.000000
vt 1.000000 0.000000
vt 1.000000 1.000000
vt 0.000000 1.000000
vt 0.500000 1.000000
vt 0.000000 0.000000
vt 1.000000 0.000000
vt 0.500000 1.000000
vt 0.000000 0.000000
vt 1.000000 0.000000
vt 0.000000 0.000000
vt 1.000000 0.000000
vt 1.000000 1.000000
vt 0.000000 1.000000
vt 0.000000 0.000000
vt 1.000000 0.000000
vt 1.000000 1.000000
vt 0.000000 1.000000
vt 0.500000 1.000000
vt 0.000000 0.000000
vt 1.000000 0.000000
vt 0.500000 1.000000
vt 0.000000 0.000000
vt 1.000000 0.000000
vt 0.000000 0.000000
vt 1.000000 0.000000
vt 1.000000 1.000000
vt 0.000000 1.000000
vt 0.000000 0.000000
vt 1.000000 0.000000
vt 1.000000 1.000000
vt 0.000000 1.000000
vt 0.500000 1.000000
vt 0.000000 0.000000
vt 1.000000 0.000000
vt 0.500000 1.000000
vt 0.000000 0.000000
vt 1.000000 0.000000
vt 0.000000 0.000000
vt 1.000000 0.000000
vt 1.000000 1.000000
vt 0.000000 1.000000
vt 0.000000 0.000000
vt 1.000000 0.000000
vt 1.000000 1.000000
vt 0.000000 1.000000
vt 0.500000 1.000000
vt 0.000000 0.000000
vt 1.000000 0.000000
vt 0.500000 1.000000
vt 0.000000 0.000000
vt 1.000000 0.000000
vt 0.000000 0.000000
vt 1.000000 0.000000
vt 1.000000 1.000000
vt 0.000000 1.000000
vt 0.000000 0.000000
vt 1.000000 0.000000
vt 1.000000 1.000000
vt 0.000000 1.000000
vt 0.500000 1.000000
vt 0.000000 0.000000
vt 1.000000 0.000000
vt 0.500000 1.000000
vt 0.000000 0.000000
vt 1.000000 0.000000
vt 0.000000 0.000000
vt 1.000000 0.000000
vt 1.000000 1.000000
vt 0.000000 1.000000
vt 0.000000 0.000000
vt 1.000000 0.000000
vt 1.000000 1.000000
vt 0.000000 1.000000
vt 0.500000 1.000000
vt 0.000000 0.000000
vt 1.000000 0.000000
vt 0.500000 1.000000
vt 0.000000 0.000000
vt 1.000000 0.000000
vt 0.000000 0.000000
vt 1.000000 0.000000
vt 1.000000 1.000000
vt 0.000000 1.000000
vt 0.000000 0.000000
vt 1.000000 0.000000
vt 1.000000 1.000000
vt 0.000000 1.000000
vt 0.500000 1.000000
vt 0.000000 0.000000
vt 1.000000 0.000000
vt 0.500000 1.000000
vt 0.000000 0.000000
vt 1.000000 0.000000
vt 0.000000 0.000000
vt 1.000000 0.000000
vt 1.000000 1.000000
vt 0.000000 1.000000
vt 0.000000 0.000000
vt 1.000000 0.000000
vt 1.000000 1.000000
vt 0.000000 1.000000
vt 0.500000 1.000000
vt 0.000000 0.000000
vt 1.000000 0.000000
vt 0.500000 1.000000
vt 0.000000 0.000000
vt 1.000000 0.000000
vt 0.000000 0.000000
vt 1.000000 0.000000
vt 1.000000 1.000000
vt 0.000000 1.000000
vt 0.000000 0.000000
vt 1.000000 0.000000
vt 1.000000 1.000000
vt 0.000000 1.000000
vt 0.500000 1.000000
vt 0.000000 0.000000
vt 1.000000 0.000000
vt 0.500000 1.000000
vt 0.000000 0.000000
vt 1.000000 0.000000
vt 0.000000 0.000000
vt 1.000000 0.000000
vt 1.000000 1.000000
vt 0.000000 1.000000
vt 0.000000 0.000000
vt 1.000000 0.000000
vt 1.000000 1.000000
vt 0.000000 1.000000
vt 0.500000 1.000000
vt 0.000000 0.000000
vt 1.000000 0.000000
vt 0.500000 1.000000
vt 0.000000 0.000000
vt 1.000000 0.000000
vt 0.000000 0.000000
vt 1.000000 0.000000
vt 1.000000 1.000000
vt 0.000000 1.000000
vt 0.000000 0.000000
vt 1.000000 0.000000
vt 1.000000 1.000000
vt 0.000000 1.000000
vt 0.500000 1.000000
vt 0.000000 0.000000
vt 1.000000 0.000000
vt 0.500000 1.000000
vt 0.000000 0.000000
vt 1.000000 0.000000
vt 0.000000 0.000000
vt 1.000000 0.000000
vt 1.000000 1.000000
vt 0.000000 1.000000
vt 0.000000 0.000000
vt 1.000000 0.000000
vt 1.000000 1.000000
vt 0.000000 1.000000
vt 0.500000 1.000000
vt 0.000000 0.000000
vt 1.000000 0.000000
vt 0.500000 1.000000
vt 0.000000 0.000000
vt 1.000000 0.000000
vt 0.000000 0.000000
vt 1.000000 0.000000
vt 1.000000 1.000000
vt 0.000000 1.000000
vt 0.000000 0.000000
vt 1.000000 0.000000
vt 1.000000 1.000000
vt 0.000000 1.000000
vt 0.500000 1.000000
vt 0.000000 0.000000
vt 1.000000 0.000000
vt 0.500000 1.000000
vt 0.000000 0.000000
vt 1.000000 0.000000
vt 0.000000 0.000000
vt 1.000000 0.000000
vt 1.000000 1.000000
vt 0.000000 1.000000
vt 0.000000 0.000000
vt 1.000000 0.000000
vt 1.000000 1.000000
vt 0.000000 1.000000
vt 0.500000 1.000000
vt 0.000000 0.000000
vt 1.000000 0.000000
vt 0.500000 1.000000
vt 0.000000 0.000000
vt 1.000000 0.000000
vt 0.000000 0.000000
vt 1.000000 0.000000
vt 1.000000 1.000000
vt 0.000000 1.000000
vt 0.000000 0.000000
vt 1.000000 0.000000
vt 1.000000 1.000000
vt 0.000000 1.000000
vt 0.500000 1.000000
vt 0.000000 0.000000
vt 1.000000 0.000000
vt 0.500000 1.000000
vt 0.000000 0.000000
vt 1.000000 0.000000
vt 0.000000 0.000000
vt 1.000000 0.000000
vt 1.000000 1.000000
vt 0.000000 1.000000
vt 0.000000 0.000000
vt 1.000000 0.000000
vt 1.000000 1.000000
vt 0.000000 1.000000
vt 0.500000 1.000000
vt 0.000000 0.000000
vt 1.000000 0.000000
vt 0.500000 1.000000
vt 0.000000 0.000000
vt 1.000000 0.000000
vt 0.000000 0.000000
vt 1.000000 0.000000
vt 1.000000 1.000000
vt 0.000000 1.000000
vt 0.000000 0.000000
vt 1.000000 0.000000
vt 1.000000 1.000000
vt 0.000000 1.000000
vt 0.500000 1.000000
vt 0.000000 0.000000
vt 1.000000 0.000000
vt 0.500000 1.000000
vt 0.000000 0.000000
vt 1.000000 0.000000
vt 0.000000 0.000000
vt 1.000000 0.000000
vt 1.000000 1.000000
vt 0.000000 1.000000
vt 0.000000 0.000000
vt 1.000000 0.000000
vt 1.000000 1.000000
vt 0.000000 1.000000
vt 0.500000 1.000000
vt 0.000000 0.000000
vt 1.000000 0.000000
vt 0.500000 1.000000
vt 0.000000 0.000000
vt 1.000000 0.000000
vt 0.000000 0.000000
vt 1.000000 0.000000
vt 1.000000 1.000000
vt 0.000000 1.000000
vt 0.000000 0.000000
vt 1.000000 0.000000
vt 1.000000 1.000000
vt 0.000000 1.000000
vt 0.500000 1.000000
vt 0.000000 0.000000
vt 1.000000 0.000000
vt 0.500000 1.000000
vt 0.000000 0.000000
vt 1.000000 0.000000
vt 0.000000 0.000000
vt 1.000000 0.000000
vt 1.000000 1.000000
vt 0.000000 1.000000
vt 0.000000 0.000000
vt 1.000000 0.000000
vt 1.000000 1.000000
vt 0.000000 1.000000
vt 0.500000 1.000000
vt 0.000000 0.000000
vt 1.000000 0.000000
vt 0.500000 1.000000
vt 0.000000 0.000000
vt 1.000000 0.000000
vt 0.000000 0.000000
vt 1.000000 0.000000
vt 1.000000 1.000000
vt 0.000000 1.000000
vt 0.000000 0.000000
vt 1.000000 0.000000
vt 1.000000 1.000000
vt 0.000000 1.000000
vt 0.500000 1.000000
vt 0.000000 0.000000
vt 1.000000 0.000000
vt 0.500000 1.000000
vt 0.000000 0.000000
vt 1.000000 0.000000
vt 0.000000 0.000000
vt 1.000000 0.000000
vt 1.000000 1.000000
vt 0.000000 1.000000
vt 0.000000 0.000000
vt 1.000000 0.000000
vt 1.000000 1.000000
vt 0.000000 1.000000
vt 0.500000 1.000000
vt 0.000000 0.000000
vt 1.000000 0.000000
vt 0.500000 1.000000
vt 0.000000 0.000000
vt 1.000000 0.000000
vt 0.000000 0.000000
vt 1.000000 0.000000
vt 1.000000 1.000000
vt 0.000000 1.000000
vt 0.000000 0.000000
vt 1.000000 0.000000
vt 1.000000 1.000000
vt 0.000000 1.000000
vt 0.500000 1.000000
vt 0.000000 0.000000
vt 1.000000 0.000000
vt 0.500000 1.000000
vt 0.000000 0.000000
vt 1.000000 0.000000
vt 0.000000 0.000000
vt 1.000000 0.000000
vt 1.000000 1.000000
vt 0.000000 1.000000
vt 0.000000 0.000000
vt 1.000000 0.000000
vt 1.000000 1.000000
vt 0.000000 1.000000
vt 0.500000 1.000000
vt 0.000000 0.000000
vt 1.000000 0.000000
vt 0.500000 1.000000
vt 0.000000 0.000000
vt 1.000000 0.000000
vt 0.000000 0.000000
vt 1.000000 0.000000
vt 1.000000 1.000000
vt 0.000000 1.000000
vt 0.000000 0.000000
vt 1.000000 0.000000
vt 1.000000 1.000000
vt 0.000000 1.000000
vt 0.500000 1.000000
vt 0.000000 0.000000
vt 1.000000 0.000000
vt 0.500000 1.000000
vt 0.000000 0.000000
vt 1.000000 0.000000
vt 0.000000 0.000000
vt 1.000000 0.000000
vt 1.000000 1.000000
vt 0.000000 1.000000
vt 0.000000 0.000000
vt 1.000000 0.000000
vt 1.000000 1.000000
vt 0.000000 1.000000
vt 0.500000 1.000000
vt 0.000000 0.000000
vt 1.000000 0.000000
vt 0.500000 1.000000
vt 0.000000 0.000000
vt 1.000000 0.000000
vt 0.000000 0.000000
vt 1.000000 0.000000
vt 1.000000 1.000000
vt 0.000000 1.000000
vt 0.000000 0.000000
vt 1.000000 0.000000
vt 1.000000 1.000000
vt 0.000000 1.000000
vt 0.500000 1.000000
vt 0.000000 0.000000
vt 1.000000 0.000000
vt 0.500000 1.000000
vt 0.000000 0.000000
vt 1.000000 0.000000
vt 0.000000 0.000000
vt 1.000000 0.000000
vt 1.000000 1.000000
vt 0.000000 1.000000
vt 0.000000 0.000000
vt 1.000000 0.000000
vt 1.000000 1.000000
vt 0.000000 1.000000
vt 0.500000 1.000000
vt 0.000000 0.000000
vt 1.000000 0.000000
vt 0.500000 1.000000
vt 0.000000 0.000000
vt 1.000000 0.000000
vt 0.000000 0.000000
vt 1.000000 0.000000
vt 1.000000 1.000000
vt 0.000000 1.000000
vt 0.000000 0.000000
vt 1.000000 0.000000
vt 1.000000 1.000000
vt 0.000000 1.000000
vt 0.500000 1.000000
vt 0.000000 0.000000
vt 1.000000 0.000000
vt 0.500000 1.000000
vt 0.000000 0.000000
vt 1.000000 0.000000
vt 0.000000 0.000000
vt 1.000000 0.000000
vt 1.000000 1.000000
vt 0.000000 1.000000
vt 0.000000 0.000000
vt 1.000000 0.000000
vt 1.000000 1.000000
vt 0.000000 1.000000
vt 0.500000 1.000000
vt 0.000000 0.000000
vt 1.000000 0.000000
vt 0.500000 1.000000
vt 0.000000 0.000000
vt 1.000000 0.000000
vt 0.000000 0.000000
vt 1.000000 0.000000
vt 1.000000 1.000000
vt 0.000000 1.000000
vt 0.000000 0.000000
vt 1.000000 0.000000
vt 1.000000 1.000000
vt 0.000000 1.000000
vt 0.500000 1.000000
vt 0.000000 0.000000
vt 1.000000 0.000000
vt 0.500000 1.000000
vt 0.000000 0.000000
vt 1.000000 0.000000
vt 0.000000 0.000000
vt 1.000000 0.000000
vt 1.000000 1.000000
vt 0.000000 1.000000
vt 0.000000 0.000000
vt 1.000000 0.000000
vt 1.000000 1.000000
vt 0.000000 1.000000
vt 0.500000 1.000000
vt 0.000000 0.000000
vt 1.000000 0.000000
s 1
usemtl models/caelum/world/environment/bark_desert.png
f 1/1 2/2 3/3 4/4
f 5/5 6/6 7/7
f 8/8 9/9 10/10 11/11
f 12/12 13/13 14/14
f 15/15 16/16 17/17 18/18
f 19/19 20/20 21/21
f 22/22 23/23 24/24 25/25
f 26/26 27/27 28/28
f 29/29 30/30 31/31 32/32
f 33/33 34/34 35/35
f 36/36 37/37 38/38 39/39
f 40/40 41/41 42/42
f 43/43 44/44 45/45 46/46
f 47/47 48/48 49/49
f 50/50 51/51 52/52 53/53
f 54/54 55/55 56/56
f 57/57 58/58 59/59 60/60
f 61/61 62/62 63/63
f 64/64 65/65 66/66 67/67
f 68/68 69/69 70/70 71/71
f 72/72 73/73 74/74 75/75
f 76/76 77/77 78/78 79/79
f 80/80 81/81 82/82 83/83
f 84/84 85/85 86/86 87/87
f 88/88 89/89 90/90 91/91
f 92/92 93/93 94/94 95/95
f 96/96 97/97 98/98 99/99
f 100/100 101/101 102/102 103/103
f 104/104 105/105 106/106
f 107/107 108/108 109/109 110/110
f 111/111 112/112 113/113
f 114/114 115/115 116/116 117/117
f 118/118 119/119 120/120
f 121/121 122/122 123/123 124/124
f 125/125 126/126 127/127
f 128/128 129/129 130/130 131/131
f 132/132 133/133 134/134
f 135/135 136/136 137/137 138/138
f 139/139 140/140 141/141
f 142/142 143/143 144/144 145/145
f 146/146 147/147 148/148
f 149/149 150/150 151/151 152/152
f 153/153 154/154 155/155
f 156/156 157/157 158/158 159/159
f 160/160 161/161 162/162
f 163/163 164/164 165/165 166/166
f 167/167 168/168 169/169
f 170/170 171/171 172/172 173/173
f 174/174 175/175 176/176
f 177/177 178/178 179/179 180/180
f 181/181 182/182 183/183
f 184/184 185/185 186/186 187/187
f 188/188 189/189 190/190
f 191/191 192/192 193/193 194/194
f 195/195 196/196 197/197
f 198/198 199/199 200/200 201/201
f 202/202 203/203 204/204
f 205/205 206/206 207/207 208/208
f 209/209 210/210 211/211
f 212/212 213/213 214/214 215/215
f 216/216 217/217 218/218
f 219/219 220/220 221/221 222/222
f 223/223 224/224 225/225
f 226/226 227/227 228/228 229/229
f 230/230 231/231 232/232
f 233/233 234/234 235/235 236/236
f 237/237 238/238 239/239
f 240/240 241/241 242/242 243/243
f 244/244 245/245 246/246
f 247/247 248/248 249/249 250/250
f 251/251 252/252 253/253
f 254/254 255/255 256/256 257/257
f 258/258 259/259 260/260
f 261/261 262/262 263/263 264/264
f 265/265 266/266 267/267
f 268/268 269/269 270/270 271/271
f 272/272 273/273 274/274
f 275/275 276/276 277/277 278/278
f 279/279 280/280 281/281
f 282/282 283/283 284/284 285/285
f 286/286 287/287 288/288
f 289/289 290/290 291/291 292/292
f 293/293 294/294 295/295
f 296/296 297/297 298/298 299/299
f 300/300 301/301 302/302
f 303/303 304/304 305/305 306/306
f 307/307 308/308 309/309
f 310/310 311/311 312/312 313/313
f 314/314 315/315 316/316
f 317/317 318/318 319/319 320/320
f 321/321 322/322 323/323
f 324/324 325/325 326/326 327/327
f 328/328 329/329 330/330
f 331/331 332/332 333/333 334/334
f 335/335 336/336 337/337
f 338/338 339/339 340/340 341/341
f 342/342 343/343 344/344
f 345/345 346/346 347/347 348/348
f 349/349 350/350 351/351
f 352/352 353/353 354/354 355/355
f 356/356 357/357 358/358
f 359/359 360/360 361/361 362/362
f 363/363 364/364 365/365
f 366/366 367/367 368/368 369/369
f 370/370 371/371 372/372
f 373/373 374/374 375/375 376/376
f 377/377 378/378 379/379
f 380/380 381/381 382/382 383/383
f 384/384 385/385 386/386
f 387/387 388/388 389/389 390/390
f 391/391 392/392 393/393
f 394/394 395/395 396/396 397/397
f 398/398 399/399 400/400
f 401/401 402/402 403/403 404/404
f 405/405 406/406 407/407
f 408/408 409/409 410/410 411/411
f 412/412 413/413 414/414
f 415/415 416/416 417/417 418/418
f 419/419 420/420 421/421
f 422/422 423/423 424/424 425/425
f 426/426 427/427 428/428
f 429/429 430/430 431/431 432/432
f 433/433 434/434 435/435
f 436/436 437/437 438/438 439/439
f 440/440 441/441 442/442
f 443/443 444/444 445/445 446/446
f 447/447 448/448 449/449
f 450/450 451/451 452/452 453/453
f 454/454 455/455 456/456
f 457/457 458/458 459/459 460/460
f 461/461 462/462 463/463
f 464/464 465/465 466/466 467/467
f 468/468 469/469 470/470
f 471/471 472/472 473/473 474/474
f 475/475 476/476 477/477
f 478/478 479/479 480/480 481/481
f 482/482 483/483 484/484
f 485/485 486/486 487/487 488/488
f 489/489 490/490 491/491
f 492/492 493/493 494/494 495/495
f 496/496 497/497 498/498
f 499/499 500/500 501/501 502/502
f 503/503 504/504 505/505
f 506/506 507/507 508/508 509/509
f 510/510 511/511 512/512
f 513/513 514/514 515/515 516/516
f 517/517 518/518 519/519
f 520/520 521/521 522/522 523/523
f 524/524 525/525 526/526
f 527/527 528/528 529/529 530/530
f 531/531 532/532 533/533
f 534/534 535/535 536/536 537/537
f 538/538 539/539 540/540
f 541/541 542/542 543/543 544/544
f 545/545 546/546 547/547
f 548/548 549/549 550/550 551/551
f 552/552 553/553 554/554
f 555/555 556/556 557/557 558/558
f 559/559 560/560 561/561
f 562/562 563/563 564/564 565/565
f 566/566 567/567 568/568
f 569/569 570/570 571/571 572/572
f 573/573 574/574 575/575
f 576/576 577/577 578/578 579/579
f 580/580 581/581 582/582
f 583/583 584/584 585/585 586/586
f 587/587 588/588 589/589
f 590/590 591/591 592/592 593/593
f 594/594 595/595 596/596
f 597/597 598/598 599/599 600/600
f 601/601 602/602 603/603
f 604/604 605/605 606/606 607/607
f 608/608 609/609 610/610
f 611/611 612/612 613/613 614/614
f 615/615 616/616 617/617
f 618/618 619/619 620/620 621/621
f 622/622 623/623 624/624
f 625/625 626/626 627/627 628/628
f 629/629 630/630 631/631
f 632/632 633/633 634/634 635/635
f 636/636 637/637 638/638
f 639/639 640/640 641/641 642/642
f 643/643 644/644 645/645
f 646/646 647/647 648/648 649/649
f 650/650 651/651 652/652
f 653/653 654/654 655/655 656/656
f 657/657 658/658 659/659
f 660/660 661/661 662/662 663/663
f 664/664 665/665 666/666
usemtl models/caelum/world/environment/foliage_desert.png
f 667/667 668/668 669/669
f 670/670 671/671 672/672 673/673
f 674/674 675/675 676/676 677/677
f 678/678 679/679 680/680
f 681/681 682/682 683/683
f 684/684 685/685 686/686 687/687
f 688/688 689/689 690/690 691/691
f 692/692 693/693 694/694
f 695/695 696/696 697/697
f 698/698 699/699 700/700 701/701
f 702/702 703/703 704/704 705/705
f 706/706 707/707 708/708
f 709/709 710/710 711/711
f 712/712 713/713 714/714 715/715
f 716/716 717/717 718/718 719/719
f 720/720 721/721 722/722
f 723/723 724/724 725/725
f 726/726 727/727 728/728 729/729
f 730/730 731/731 732/732 733/733
f 734/734 735/735 736/736
f 737/737 738/738 739/739
f 740/740 741/741 742/742 743/743
f 744/744 745/745 746/746 747/747
f 748/748 749/749 750/750
f 751/751 752/752 753/753
f 754/754 755/755 756/756 757/757
f 758/758 759/759 760/760 761/761
f 762/762 763/763 764/764
f 765/765 766/766 767/767
f 768/768 769/769 770/770 771/771
f 772/772 773/773 774/774 775/775
f 776/776 777/777 778/778
f 779/779 780/780 781/781
f 782/782 783/783 784/784 785/785
f 786/786 787/787 788/788 789/789
f 790/790 791/791 792/792
f 793/793 794/794 795/795
f 796/796 797/797 798/798 799/799
f 800/800 801/801 802/802 803/803
f 804/804 805/805 806/806
f 807/807 808/808 809/809
f 810/810 811/811 812/812 813/813
f 814/814 815/815 816/816 817/817
f 818/818 819/819 820/820
f 821/821 822/822 823/823
f 824/824 825/825 826/826 827/827
f 828/828 829/829 830/830 831/831
f 832/832 833/833 834/834
f 835/835 836/836 837/837
f 838/838 839/839 840/840 841/841
f 842/842 843/843 844/844 845/845
f 846/846 847/847 848/848
f 849/849 850/850 851/851
f 852/852 853/853 854/854 855/855
f 856/856 857/857 858/858 859/859
f 860/860 861/861 862/862
f 863/863 864/864 865/865
f 866/866 867/867 868/868 869/869
f 870/870 871/871 872/872 873/873
f 874/874 875/875 876/876
f 877/877 878/878 879/879
f 880/880 881/881 882/882 883/883
f 884/884 885/885 886/886 887/887
f 888/888 889/889 890/890
f 891/891 892/892 893/893
f 894/894 895/895 896/896 897/897
f 898/898 899/899 900/900 901/901
f 902/902 903/903 904/904
f 905/905 906/906 907/907
f 908/908 909/909 910/910 911/911
f 912/912 913/913 914/914 915/915
f 916/916 917/917 918/918
f 919/919 920/920 921/921
f 922/922 923/923 924/924 925/925
f 926/926 927/927 928/928 929/929
f 930/930 931/931 932/932
f 933/933 934/934 935/935
f 936/936 937/937 938/938 939/939
f 940/940 941/941 942/942 943/943
f 944/944 945/945 946/946
f 947/947 948/948 949/949
f 950/950 951/951 952/952 953/953
f 954/954 955/955 956/956 957/957
f 958/958 959/959 960/960
f 961/961 962/962 963/963
f 964/964 965/965 966/966 967/967
f 968/968 969/969 970/970 971/971
f 972/972 973/973 974/974
f 975/975 976/976 977/977
f 978/978 979/979 980/980 981/981
f 982/982 983/983 984/984 985/985
f 986/986 987/987 988/988
f 989/989 990/990 991/991
f 992/992 993/993 994/994 995/995
f 996/996 997/997 998/998 999/999
f 1000/1000 1001/1001 1002/1002
f 1003/1003 1004/1004 1005/1005
f 1006/1006 1007/1007 1008/1008 1009/1009
f 1010/1010 1011/1011 1012/1012 1013/1013
f 1014/1014 1015/1015 1016/1016
f 1017/1017 1018/1018 1019/1019
f 1020/1020 1021/1021 1022/1022 1023/1023
f 1024/1024 1025/1025 1026/1026 1027/1027
f 1028/1028 1029/1029 1030/1030
f 1031/1031 1032/1032 1033/1033
f 1034/1034 1035/1035 1036/1036 1037/1037
f 1038/1038 1039/1039 1040/1040 1041/1041
f 1042/1042 1043/1043 1044/1044
f 1045/1045 1046/1046 1047/1047
f 1048/1048 1049/1049 1050/1050 1051/1051
f 1052/1052 1053/1053 1054/1054 1055/1055
f 1056/1056 1057/1057 1058/1058
f 1059/1059 1060/1060 1061/1061
f 1062/1062 1063/1063 1064/1064 1065/1065
f 1066/1066 1067/1067 1068/1068 1069/1069
f 1070/1070 1071/1071 1072/1072
f 1073/1073 1074/1074 1075/1075
f 1076/1076 1077/1077 1078/1078 1079/1079
f 1080/1080 1081/1081 1082/1082 1083/1083
f 1084/1084 1085/1085 1086/1086
f 1087/1087 1088/1088 1089/1089
f 1090/1090 1091/1091 1092/1092 1093/1093
f 1094/1094 1095/1095 1096/1096 1097/1097
f 1098/1098 1099/1099 1100/1100
f 1101/1101 1102/1102 1103/1103
f 1104/1104 1105/1105 1106/1106 1107/1107
f 1108/1108 1109/1109 1110/1110 1111/1111
f 1112/1112 1113/1113 1114/1114
f 1115/1115 1116/1116 1117/1117
f 1118/1118 1119/1119 1120/1120 1121/1121
f 1122/1122 1123/1123 1124/1124 1125/1125
f 1126/1126 1127/1127 1128/1128
f 1129/1129 1130/1130 1131/1131
f 1132/1132 1133/1133 1134/1134 1135/1135
f 1136/1136 1137/1137 1138/1138 1139/1139
f 1140/1140 1141/1141 1142/1142
f 1143/1143 1144/1144 1145/1145
f 1146/1146 1147/1147 1148/1148 1149/1149
f 1150/1150 1151/1151 1152/1152 1153/1153
f 1154/1154 1155/1155 1156/1156
f 1157/1157 1158/1158 1159/1159
f 1160/1160 1161/1161 1162/1162 1163/1163
f 1164/1164 1165/1165 1166/1166 1167/1167
f 1168/1168 1169/1169 1170/1170
f 1171/1171 1172/1172 1173/1173
f 1174/1174 1175/1175 1176/1176 1177/1177
f 1178/1178 1179/1179 1180/1180 1181/1181
f 1182/1182 1183/1183 1184/1184
f 1185/1185 1186/1186 1187/1187
f 1188/1188 1189/1189 1190/1190 1191/1191
f 1192/1192 1193/1193 1194/1194 1195/1195
f 1196/1196 1197/1197 1198/1198
f 1199/1199 1200/1200 1201/1201
f 1202/1202 1203/1203 1204/1204 1205/1205
f 1206/1206 1207/1207 1208/1208 1209/1209
f 1210/1210 1211/1211 1212/1212
f 1213/1213 1214/1214 1215/1215
f 1216/1216 1217/1217 1218/1218 1219/1219
f 1220/1220 1221/1221 1222/1222 1223/1223
f 1224/1224 1225/1225 1226/1226
f 1227/1227 1228/1228 1229/1229
f 1230/1230 1231/1231 1232/1232 1233/1233
f 1234/1234 1235/1235 1236/1236 1237/1237
f 1238/1238 1239/1239 1240/1240
f 1241/1241 1242/1242 1243/1243
f 1244/1244 1245/1245 1246/1246 1247/1247
f 1248/1248 1249/1249 1250/1250 1251/1251
f 1252/1252 1253/1253 1254/1254
f 1255/1255 1256/1256 1257/1257
f 1258/1258 1259/1259 1260/1260 1261/1261
f 1262/1262 1263/1263 1264/1264 1265/1265
f 1266/1266 1267/1267 1268/1268
f 1269/1269 1270/1270 1271/1271
f 1272/1272 1273/1273 1274/1274 1275/1275
f 1276/1276 1277/1277 1278/1278 1279/1279
f 1280/1280 1281/1281 1282/1282
f 1283/1283 1284/1284 1285/1285
f 1286/1286 1287/1287 1288/1288 1289/1289
f 1290/1290 1291/1291 1292/1292 1293/1293
f 1294/1294 1295/1295 1296/1296
f 1297/1297 1298/1298 1299/1299
f 1300/1300 1301/1301 1302/1302 1303/1303
f 1304/1304 1305/1305 1306/1306 1307/1307
f 1308/1308 1309/1309 1310/1310
f 1311/1311 1312/1312 1313/1313
f 1314/1314 1315/1315 1316/1316 1317/1317
f 1318/1318 1319/1319 1320/1320 1321/1321
f 1322/1322 1323/1323 1324/1324
f 1325/1325 1326/1326 1327/1327
f 1328/1328 1329/1329 1330/1330 1331/1331
f 1332/1332 1333/1333 1334/1334 1335/1335
f 1336/1336 1337/1337 1338/1338
f 1339/1339 1340/1340 1341/1341
f 1342/1342 1343/1343 1344/1344 1345/1345
f 1346/1346 1347/1347 1348/1348 1349/1349
f 1350/1350 1351/1351 1352/1352
f 1353/1353 1354/1354 1355/1355
f 1356/1356 1357/1357 1358/1358 1359/1359
f 1360/1360 1361/1361 1362/1362 1363/1363
f 1364/1364 1365/1365 1366/1366
f 1367/1367 1368/1368 1369/1369
f 1370/1370 1371/1371 1372/1372 1373/1373
f 1374/1374 1375/1375 1376/1376 1377/1377
f 1378/1378 1379/1379 1380/1380
f 1381/1381 1382/1382 1383/1383
f 1384/1384 1385/1385 1386/1386 1387/1387
f 1388/1388 1389/1389 1390/1390 1391/1391
f 1392/1392 1393/1393 1394/1394
f 1395/1395 1396/1396 1397/1397
f 1398/1398 1399/1399 1400/1400 1401/1401
f 1402/1402 1403/1403 1404/1404 1405/1405
f 1406/1406 1407/1407 1408/1408
f 1409/1409 1410/1410 1411/1411
f 1412/1412 1413/1413 1414/1414 1415/1415
f 1416/1416 1417/1417 1418/1418 1419/1419
f 1420/1420 1421/1421 1422/1422
f 1423/1423 1424/1424 1425/1425
f 1426/1426 1427/1427 1428/1428 1429/1429
f 1430/1430 1431/1431 1432/1432 1433/1433
f 1434/1434 1435/1435 1436/1436
f 1437/1437 1438/1438 1439/1439
f 1440/1440 1441/1441 1442/1442 1443/1443
f 1444/1444 1445/1445 1446/1446 1447/1447
f 1448/1448 1449/1449 1450/1450
