# Modelo original generado para Caelum Argenteum.
# Ejes OBJ: X ancho, Y altura, Z profundidad.
o ca_tree_tundra_guindo2
v 0.000000 0.000000 -10.000000
v -6.427876 0.000000 -7.660444
v -1.478412 100.297280 -1.761902
v 0.000000 100.297280 -2.300000
v 0.000000 0.000000 0.000000
v -6.427876 0.000000 -7.660444
v 0.000000 0.000000 -10.000000
v -6.427876 0.000000 -7.660444
v -9.848078 0.000000 -1.736482
v -2.265058 100.297280 -0.399391
v -1.478412 100.297280 -1.761902
v 0.000000 0.000000 0.000000
v -9.848078 0.000000 -1.736482
v -6.427876 0.000000 -7.660444
v -9.848078 0.000000 -1.736482
v -8.660254 0.000000 5.000000
v -1.991858 100.297280 1.150000
v -2.265058 100.297280 -0.399391
v 0.000000 0.000000 0.000000
v -8.660254 0.000000 5.000000
v -9.848078 0.000000 -1.736482
v -8.660254 0.000000 5.000000
v -3.420201 0.000000 9.396926
v -0.786646 100.297280 2.161293
v -1.991858 100.297280 1.150000
v 0.000000 0.000000 0.000000
v -3.420201 0.000000 9.396926
v -8.660254 0.000000 5.000000
v -3.420201 0.000000 9.396926
v 3.420201 0.000000 9.396926
v 0.786646 100.297280 2.161293
v -0.786646 100.297280 2.161293
v 0.000000 0.000000 0.000000
v 3.420201 0.000000 9.396926
v -3.420201 0.000000 9.396926
v 3.420201 0.000000 9.396926
v 8.660254 0.000000 5.000000
v 1.991858 100.297280 1.150000
v 0.786646 100.297280 2.161293
v 0.000000 0.000000 0.000000
v 8.660254 0.000000 5.000000
v 3.420201 0.000000 9.396926
v 8.660254 0.000000 5.000000
v 9.848078 0.000000 -1.736482
v 2.265058 100.297280 -0.399391
v 1.991858 100.297280 1.150000
v 0.000000 0.000000 0.000000
v 9.848078 0.000000 -1.736482
v 8.660254 0.000000 5.000000
v 9.848078 0.000000 -1.736482
v 6.427876 0.000000 -7.660444
v 1.478412 100.297280 -1.761902
v 2.265058 100.297280 -0.399391
v 0.000000 0.000000 0.000000
v 6.427876 0.000000 -7.660444
v 9.848078 0.000000 -1.736482
v 6.427876 0.000000 -7.660444
v 0.000000 0.000000 -10.000000
v 0.000000 100.297280 -2.300000
v 1.478412 100.297280 -1.761902
v 0.000000 0.000000 0.000000
v 0.000000 0.000000 -10.000000
v 6.427876 0.000000 -7.660444
v -0.275338 100.297280 -2.283460
v -1.678701 100.297280 -1.572248
v 3.941298 147.496000 3.691364
v 0.646446 147.496000 5.361167
v 0.000000 147.496000 0.000000
v 0.646446 147.496000 5.361167
v 3.941298 147.496000 3.691364
v -1.678701 100.297280 -1.572248
v -2.296581 100.297280 -0.125364
v 5.391973 147.496000 0.294332
v 3.941298 147.496000 3.691364
v 0.000000 147.496000 0.000000
v 3.941298 147.496000 3.691364
v 5.391973 147.496000 0.294332
v -2.296581 100.297280 -0.125364
v -1.839865 100.297280 1.380180
v 4.319684 147.496000 -3.240422
v 5.391973 147.496000 0.294332
v 0.000000 147.496000 0.000000
v 5.391973 147.496000 0.294332
v 4.319684 147.496000 -3.240422
v -1.839865 100.297280 1.380180
v -0.522256 100.297280 2.239922
v 1.226167 147.496000 -5.258946
v 4.319684 147.496000 -3.240422
v 0.000000 147.496000 0.000000
v 4.319684 147.496000 -3.240422
v 1.226167 147.496000 -5.258946
v -0.522256 100.297280 2.239922
v 1.039722 100.297280 2.051579
v -2.441087 147.496000 -4.816751
v 1.226167 147.496000 -5.258946
v 0.000000 147.496000 0.000000
v 1.226167 147.496000 -5.258946
v -2.441087 147.496000 -4.816751
v 1.039722 100.297280 2.051579
v 2.115203 100.297280 0.903280
v -4.966129 147.496000 -2.120745
v -2.441087 147.496000 -4.816751
v 0.000000 147.496000 0.000000
v -2.441087 147.496000 -4.816751
v -4.966129 147.496000 -2.120745
v 2.115203 100.297280 0.903280
v 2.200957 100.297280 -0.667674
v -5.167464 147.496000 1.567582
v -4.966129 147.496000 -2.120745
v 0.000000 147.496000 0.000000
v -4.966129 147.496000 -2.120745
v -5.167464 147.496000 1.567582
v 2.200957 100.297280 -0.667674
v 1.256859 100.297280 -1.926216
v -2.950885 147.496000 4.522419
v -5.167464 147.496000 1.567582
v 0.000000 147.496000 0.000000
v -5.167464 147.496000 1.567582
v -2.950885 147.496000 4.522419
v 1.256859 100.297280 -1.926216
v -0.275338 100.297280 -2.283460
v 0.646446 147.496000 5.361167
v -2.950885 147.496000 4.522419
v 0.000000 147.496000 0.000000
v -2.950885 147.496000 4.522419
v 0.646446 147.496000 5.361167
v -1.358635 42.538950 -60.845167
v -36.873541 42.538950 -49.305675
v -4.199828 70.348950 -4.334167
v -1.358635 70.348950 -5.257326
v -1.358635 42.538950 -0.423601
v -36.873541 42.538950 -49.305675
v -1.358635 42.538950 -60.845167
v -1.358635 70.348950 -0.423601
v -1.358635 70.348950 -5.257326
v -4.199828 70.348950 -4.334167
v -36.873541 42.538950 -49.305675
v -58.822960 42.538950 -19.094892
v -5.955781 70.348950 -1.917304
v -4.199828 70.348950 -4.334167
v -1.358635 42.538950 -0.423601
v -58.822960 42.538950 -19.094892
v -36.873541 42.538950 -49.305675
v -1.358635 70.348950 -0.423601
v -4.199828 70.348950 -4.334167
v -5.955781 70.348950 -1.917304
v -58.822960 42.538950 -19.094892
v -58.822960 42.538950 18.247690
v -5.955781 70.348950 1.070102
v -5.955781 70.348950 -1.917304
v -1.358635 42.538950 -0.423601
v -58.822960 42.538950 18.247690
v -58.822960 42.538950 -19.094892
v -1.358635 70.348950 -0.423601
v -5.955781 70.348950 -1.917304
v -5.955781 70.348950 1.070102
v -58.822960 42.538950 18.247690
v -36.873541 42.538950 48.458473
v -4.199828 70.348950 3.486965
v -5.955781 70.348950 1.070102
v -1.358635 42.538950 -0.423601
v -36.873541 42.538950 48.458473
v -58.822960 42.538950 18.247690
v -1.358635 70.348950 -0.423601
v -5.955781 70.348950 1.070102
v -4.199828 70.348950 3.486965
v -36.873541 42.538950 48.458473
v -1.358635 42.538950 59.997966
v -1.358635 70.348950 4.410124
v -4.199828 70.348950 3.486965
v -1.358635 42.538950 -0.423601
v -1.358635 42.538950 59.997966
v -36.873541 42.538950 48.458473
v -1.358635 70.348950 -0.423601
v -4.199828 70.348950 3.486965
v -1.358635 70.348950 4.410124
v -1.358635 42.538950 59.997966
v 34.156270 42.538950 48.458473
v 1.482557 70.348950 3.486965
v -1.358635 70.348950 4.410124
v -1.358635 42.538950 -0.423601
v 34.156270 42.538950 48.458473
v -1.358635 42.538950 59.997966
v -1.358635 70.348950 -0.423601
v -1.358635 70.348950 4.410124
v 1.482557 70.348950 3.486965
v 34.156270 42.538950 48.458473
v 56.105689 42.538950 18.247690
v 3.238511 70.348950 1.070102
v 1.482557 70.348950 3.486965
v -1.358635 42.538950 -0.423601
v 56.105689 42.538950 18.247690
v 34.156270 42.538950 48.458473
v -1.358635 70.348950 -0.423601
v 1.482557 70.348950 3.486965
v 3.238511 70.348950 1.070102
v 56.105689 42.538950 18.247690
v 56.105689 42.538950 -19.094892
v 3.238511 70.348950 -1.917304
v 3.238511 70.348950 1.070102
v -1.358635 42.538950 -0.423601
v 56.105689 42.538950 -19.094892
v 56.105689 42.538950 18.247690
v -1.358635 70.348950 -0.423601
v 3.238511 70.348950 1.070102
v 3.238511 70.348950 -1.917304
v 56.105689 42.538950 -19.094892
v 34.156270 42.538950 -49.305675
v 1.482557 70.348950 -4.334167
v 3.238511 70.348950 -1.917304
v -1.358635 42.538950 -0.423601
v 34.156270 42.538950 -49.305675
v 56.105689 42.538950 -19.094892
v -1.358635 70.348950 -0.423601
v 3.238511 70.348950 -1.917304
v 1.482557 70.348950 -4.334167
v 34.156270 42.538950 -49.305675
v -1.358635 42.538950 -60.845167
v -1.358635 70.348950 -5.257326
v 1.482557 70.348950 -4.334167
v -1.358635 42.538950 -0.423601
v -1.358635 42.538950 -60.845167
v 34.156270 42.538950 -49.305675
v -1.358635 70.348950 -0.423601
v 1.482557 70.348950 -4.334167
v -1.358635 70.348950 -5.257326
v -10.114530 55.977065 -45.253176
v -35.930505 55.977065 -31.345009
v -4.364886 83.787065 -1.194201
v -2.299608 83.787065 -2.306854
v -1.620050 55.977065 1.427608
v -35.930505 55.977065 -31.345009
v -10.114530 55.977065 -45.253176
v -1.620050 83.787065 1.427608
v -2.299608 83.787065 -2.306854
v -4.364886 83.787065 -1.194201
v -35.930505 55.977065 -31.345009
v -48.641052 55.977065 -4.918816
v -5.381730 83.787065 0.919894
v -4.364886 83.787065 -1.194201
v -1.620050 55.977065 1.427608
v -48.641052 55.977065 -4.918816
v -35.930505 55.977065 -31.345009
v -1.620050 83.787065 1.427608
v -4.364886 83.787065 -1.194201
v -5.381730 83.787065 0.919894
v -48.641052 55.977065 -4.918816
v -43.391175 55.977065 23.931495
v -4.961740 83.787065 3.227919
v -5.381730 83.787065 0.919894
v -1.620050 55.977065 1.427608
v -43.391175 55.977065 23.931495
v -48.641052 55.977065 -4.918816
v -1.620050 83.787065 1.427608
v -5.381730 83.787065 0.919894
v -4.961740 83.787065 3.227919
v -43.391175 55.977065 23.931495
v -22.186147 55.977065 44.186086
v -3.265338 83.787065 4.848287
v -4.961740 83.787065 3.227919
v -1.620050 55.977065 1.427608
v -22.186147 55.977065 44.186086
v -43.391175 55.977065 23.931495
v -1.620050 83.787065 1.427608
v -4.961740 83.787065 3.227919
v -3.265338 83.787065 4.848287
v -22.186147 55.977065 44.186086
v 6.874430 55.977065 48.108393
v -0.940491 83.787065 5.162071
v -3.265338 83.787065 4.848287
v -1.620050 55.977065 1.427608
v 6.874430 55.977065 48.108393
v -22.186147 55.977065 44.186086
v -1.620050 83.787065 1.427608
v -3.265338 83.787065 4.848287
v -0.940491 83.787065 5.162071
v 6.874430 55.977065 48.108393
v 32.690406 55.977065 34.200226
v 1.124787 83.787065 4.049418
v -0.940491 83.787065 5.162071
v -1.620050 55.977065 1.427608
v 32.690406 55.977065 34.200226
v 6.874430 55.977065 48.108393
v -1.620050 83.787065 1.427608
v -0.940491 83.787065 5.162071
v 1.124787 83.787065 4.049418
v 32.690406 55.977065 34.200226
v 45.400953 55.977065 7.774033
v 2.141630 83.787065 1.935322
v 1.124787 83.787065 4.049418
v -1.620050 55.977065 1.427608
v 45.400953 55.977065 7.774033
v 32.690406 55.977065 34.200226
v -1.620050 83.787065 1.427608
v 1.124787 83.787065 4.049418
v 2.141630 83.787065 1.935322
v 45.400953 55.977065 7.774033
v 40.151075 55.977065 -21.076278
v 1.721640 83.787065 -0.372702
v 2.141630 83.787065 1.935322
v -1.620050 55.977065 1.427608
v 40.151075 55.977065 -21.076278
v 45.400953 55.977065 7.774033
v -1.620050 83.787065 1.427608
v 2.141630 83.787065 1.935322
v 1.721640 83.787065 -0.372702
v 40.151075 55.977065 -21.076278
v 18.946048 55.977065 -41.330869
v 0.025238 83.787065 -1.993070
v 1.721640 83.787065 -0.372702
v -1.620050 55.977065 1.427608
v 18.946048 55.977065 -41.330869
v 40.151075 55.977065 -21.076278
v -1.620050 83.787065 1.427608
v 1.721640 83.787065 -0.372702
v 0.025238 83.787065 -1.993070
v 18.946048 55.977065 -41.330869
v -10.114530 55.977065 -45.253176
v -2.299608 83.787065 -2.306854
v 0.025238 83.787065 -1.993070
v -1.620050 55.977065 1.427608
v -10.114530 55.977065 -45.253176
v 18.946048 55.977065 -41.330869
v -1.620050 83.787065 1.427608
v 0.025238 83.787065 -1.993070
v -2.299608 83.787065 -2.306854
v -14.414621 71.453494 -38.929212
v -35.013114 71.453494 -22.470059
v -2.236017 99.263494 -0.879274
v -0.588138 99.263494 -2.196006
v 0.614165 71.453494 0.998186
v -35.013114 71.453494 -22.470059
v -14.414621 71.453494 -38.929212
v 0.614165 99.263494 0.998186
v -0.588138 99.263494 -2.196006
v -2.236017 99.263494 -0.879274
v -35.013114 71.453494 -22.470059
v -42.003197 71.453494 2.953166
v -2.795224 99.263494 1.154584
v -2.236017 99.263494 -0.879274
v 0.614165 71.453494 0.998186
v -42.003197 71.453494 2.953166
v -35.013114 71.453494 -22.470059
v 0.614165 99.263494 0.998186
v -2.236017 99.263494 -0.879274
v -2.795224 99.263494 1.154584
v -42.003197 71.453494 2.953166
v -32.714896 71.453494 27.629655
v -2.052160 99.263494 3.128703
v -2.795224 99.263494 1.154584
v 0.614165 71.453494 0.998186
v -32.714896 71.453494 27.629655
v -42.003197 71.453494 2.953166
v 0.614165 99.263494 0.998186
v -2.795224 99.263494 1.154584
v -2.052160 99.263494 3.128703
v -32.714896 71.453494 27.629655
v -10.696027 71.453494 42.133828
v -0.290651 99.263494 4.289037
v -2.052160 99.263494 3.128703
v 0.614165 71.453494 0.998186
v -10.696027 71.453494 42.133828
v -32.714896 71.453494 27.629655
v 0.614165 99.263494 0.998186
v -2.052160 99.263494 3.128703
v -0.290651 99.263494 4.289037
v -10.696027 71.453494 42.133828
v 15.642951 71.453494 40.925583
v 1.816468 99.263494 4.192377
v -0.290651 99.263494 4.289037
v 0.614165 71.453494 0.998186
v 15.642951 71.453494 40.925583
v -10.696027 71.453494 42.133828
v 0.614165 99.263494 0.998186
v -0.290651 99.263494 4.289037
v 1.816468 99.263494 4.192377
v 15.642951 71.453494 40.925583
v 36.241444 71.453494 24.466430
v 3.464347 99.263494 2.875645
v 1.816468 99.263494 4.192377
v 0.614165 71.453494 0.998186
v 36.241444 71.453494 24.466430
v 15.642951 71.453494 40.925583
v 0.614165 99.263494 0.998186
v 1.816468 99.263494 4.192377
v 3.464347 99.263494 2.875645
v 36.241444 71.453494 24.466430
v 43.231527 71.453494 -0.956795
v 4.023554 99.263494 0.841787
v 3.464347 99.263494 2.875645
v 0.614165 71.453494 0.998186
v 43.231527 71.453494 -0.956795
v 36.241444 71.453494 24.466430
v 0.614165 99.263494 0.998186
v 3.464347 99.263494 2.875645
v 4.023554 99.263494 0.841787
v 43.231527 71.453494 -0.956795
v 33.943226 71.453494 -25.633284
v 3.280490 99.263494 -1.132332
v 4.023554 99.263494 0.841787
v 0.614165 71.453494 0.998186
v 33.943226 71.453494 -25.633284
v 43.231527 71.453494 -0.956795
v 0.614165 99.263494 0.998186
v 4.023554 99.263494 0.841787
v 3.280490 99.263494 -1.132332
v 33.943226 71.453494 -25.633284
v 11.924357 71.453494 -40.137457
v 1.518980 99.263494 -2.292666
v 3.280490 99.263494 -1.132332
v 0.614165 71.453494 0.998186
v 11.924357 71.453494 -40.137457
v 33.943226 71.453494 -25.633284
v 0.614165 99.263494 0.998186
v 3.280490 99.263494 -1.132332
v 1.518980 99.263494 -2.292666
v 11.924357 71.453494 -40.137457
v -14.414621 71.453494 -38.929212
v -0.588138 99.263494 -2.196006
v 1.518980 99.263494 -2.292666
v 0.614165 71.453494 0.998186
v -14.414621 71.453494 -38.929212
v 11.924357 71.453494 -40.137457
v 0.614165 99.263494 0.998186
v 1.518980 99.263494 -2.292666
v -0.588138 99.263494 -2.196006
v -21.412459 83.257994 -34.417751
v -38.438439 83.257994 -14.873167
v -2.936548 111.067994 0.240592
v -1.574470 111.067994 -1.322975
v 0.150573 83.257994 1.554832
v -38.438439 83.257994 -14.873167
v -21.412459 83.257994 -34.417751
v 0.150573 111.067994 1.554832
v -1.574470 111.067994 -1.322975
v -2.936548 111.067994 0.240592
v -38.438439 83.257994 -14.873167
v -40.724729 83.257994 10.946354
v -3.119452 111.067994 2.306153
v -2.936548 111.067994 0.240592
v 0.150573 83.257994 1.554832
v -40.724729 83.257994 10.946354
v -38.438439 83.257994 -14.873167
v 0.150573 111.067994 1.554832
v -2.936548 111.067994 0.240592
v -3.119452 111.067994 2.306153
v -40.724729 83.257994 10.946354
v -27.398043 83.257994 33.178632
v -2.053317 111.067994 4.084736
v -3.119452 111.067994 2.306153
v 0.150573 83.257994 1.554832
v -27.398043 83.257994 33.178632
v -40.724729 83.257994 10.946354
v 0.150573 111.067994 1.554832
v -3.119452 111.067994 2.306153
v -2.053317 111.067994 4.084736
v -27.398043 83.257994 33.178632
v -3.548722 83.257994 43.331694
v -0.145371 111.067994 4.896980
v -2.053317 111.067994 4.084736
v 0.150573 83.257994 1.554832
v -3.548722 83.257994 43.331694
v -27.398043 83.257994 33.178632
v 0.150573 111.067994 1.554832
v -2.053317 111.067994 4.084736
v -0.145371 111.067994 4.896980
v -3.548722 83.257994 43.331694
v 21.713604 83.257994 37.527414
v 1.875615 111.067994 4.432638
v -0.145371 111.067994 4.896980
v 0.150573 83.257994 1.554832
v 21.713604 83.257994 37.527414
v -3.548722 83.257994 43.331694
v 0.150573 111.067994 1.554832
v -0.145371 111.067994 4.896980
v 1.875615 111.067994 4.432638
v 21.713604 83.257994 37.527414
v 38.739585 83.257994 17.982830
v 3.237693 111.067994 2.869071
v 1.875615 111.067994 4.432638
v 0.150573 83.257994 1.554832
v 38.739585 83.257994 17.982830
v 21.713604 83.257994 37.527414
v 0.150573 111.067994 1.554832
v 1.875615 111.067994 4.432638
v 3.237693 111.067994 2.869071
v 38.739585 83.257994 17.982830
v 41.025874 83.257994 -7.836691
v 3.420597 111.067994 0.803510
v 3.237693 111.067994 2.869071
v 0.150573 83.257994 1.554832
v 41.025874 83.257994 -7.836691
v 38.739585 83.257994 17.982830
v 0.150573 111.067994 1.554832
v 3.237693 111.067994 2.869071
v 3.420597 111.067994 0.803510
v 41.025874 83.257994 -7.836691
v 27.699188 83.257994 -30.068969
v 2.354462 111.067994 -0.975073
v 3.420597 111.067994 0.803510
v 0.150573 83.257994 1.554832
v 27.699188 83.257994 -30.068969
v 41.025874 83.257994 -7.836691
v 0.150573 111.067994 1.554832
v 3.420597 111.067994 0.803510
v 2.354462 111.067994 -0.975073
v 27.699188 83.257994 -30.068969
v 3.849867 83.257994 -40.222031
v 0.446516 111.067994 -1.787317
v 2.354462 111.067994 -0.975073
v 0.150573 83.257994 1.554832
v 3.849867 83.257994 -40.222031
v 27.699188 83.257994 -30.068969
v 0.150573 111.067994 1.554832
v 2.354462 111.067994 -0.975073
v 0.446516 111.067994 -1.787317
v 3.849867 83.257994 -40.222031
v -21.412459 83.257994 -34.417751
v -1.574470 111.067994 -1.322975
v 0.446516 111.067994 -1.787317
v 0.150573 83.257994 1.554832
v -21.412459 83.257994 -34.417751
v 3.849867 83.257994 -40.222031
v 0.150573 111.067994 1.554832
v 0.446516 111.067994 -1.787317
v -1.574470 111.067994 -1.322975
v -23.929380 98.931230 -25.616071
v -34.745263 98.931230 -7.434068
v -4.029069 126.741230 -0.485372
v -3.163799 126.741230 -1.939932
v -1.358096 98.931230 0.118863
v -34.745263 98.931230 -7.434068
v -23.929380 98.931230 -25.616071
v -1.358096 126.741230 0.118863
v -3.163799 126.741230 -1.939932
v -4.029069 126.741230 -0.485372
v -34.745263 98.931230 -7.434068
v -32.808383 98.931230 13.632898
v -3.874119 126.741230 1.199985
v -4.029069 126.741230 -0.485372
v -1.358096 98.931230 0.118863
v -32.808383 98.931230 13.632898
v -34.745263 98.931230 -7.434068
v -1.358096 126.741230 0.118863
v -4.029069 126.741230 -0.485372
v -3.874119 126.741230 1.199985
v -32.808383 98.931230 13.632898
v -18.858562 98.931230 29.537961
v -2.758133 126.741230 2.472390
v -3.874119 126.741230 1.199985
v -1.358096 98.931230 0.118863
v -18.858562 98.931230 29.537961
v -32.808383 98.931230 13.632898
v -1.358096 126.741230 0.118863
v -3.874119 126.741230 1.199985
v -2.758133 126.741230 2.472390
v -18.858562 98.931230 29.537961
v 1.775842 98.931230 34.205929
v -1.107381 126.741230 2.845828
v -2.758133 126.741230 2.472390
v -1.358096 98.931230 0.118863
v 1.775842 98.931230 34.205929
v -18.858562 98.931230 29.537961
v -1.358096 126.741230 0.118863
v -2.758133 126.741230 2.472390
v -1.107381 126.741230 2.845828
v 1.775842 98.931230 34.205929
v 21.213188 98.931230 25.853796
v 0.447607 126.741230 2.177657
v -1.107381 126.741230 2.845828
v -1.358096 98.931230 0.118863
v 21.213188 98.931230 25.853796
v 1.775842 98.931230 34.205929
v -1.358096 126.741230 0.118863
v -1.107381 126.741230 2.845828
v 0.447607 126.741230 2.177657
v 21.213188 98.931230 25.853796
v 32.029071 98.931230 7.671793
v 1.312877 126.741230 0.723097
v 0.447607 126.741230 2.177657
v -1.358096 98.931230 0.118863
v 32.029071 98.931230 7.671793
v 21.213188 98.931230 25.853796
v -1.358096 126.741230 0.118863
v 0.447607 126.741230 2.177657
v 1.312877 126.741230 0.723097
v 32.029071 98.931230 7.671793
v 30.092191 98.931230 -13.395173
v 1.157927 126.741230 -0.962260
v 1.312877 126.741230 0.723097
v -1.358096 98.931230 0.118863
v 30.092191 98.931230 -13.395173
v 32.029071 98.931230 7.671793
v -1.358096 126.741230 0.118863
v 1.312877 126.741230 0.723097
v 1.157927 126.741230 -0.962260
v 30.092191 98.931230 -13.395173
v 16.142370 98.931230 -29.300236
v 0.041941 126.741230 -2.234665
v 1.157927 126.741230 -0.962260
v -1.358096 98.931230 0.118863
v 16.142370 98.931230 -29.300236
v 30.092191 98.931230 -13.395173
v -1.358096 126.741230 0.118863
v 1.157927 126.741230 -0.962260
v 0.041941 126.741230 -2.234665
v 16.142370 98.931230 -29.300236
v -4.492034 98.931230 -33.968204
v -1.608811 126.741230 -2.608103
v 0.041941 126.741230 -2.234665
v -1.358096 98.931230 0.118863
v -4.492034 98.931230 -33.968204
v 16.142370 98.931230 -29.300236
v -1.358096 126.741230 0.118863
v 0.041941 126.741230 -2.234665
v -1.608811 126.741230 -2.608103
v -4.492034 98.931230 -33.968204
v -23.929380 98.931230 -25.616071
v -3.163799 126.741230 -1.939932
v -1.608811 126.741230 -2.608103
v -1.358096 98.931230 0.118863
v -23.929380 98.931230 -25.616071
v -4.492034 98.931230 -33.968204
v -1.358096 126.741230 0.118863
v -1.608811 126.741230 -2.608103
v -3.163799 126.741230 -1.939932
v -21.306233 113.852498 -16.797492
v -27.573659 113.852498 0.024729
v -0.874847 141.662498 1.159518
v -0.373453 141.662498 -0.186260
v 1.446789 113.852498 1.258195
v -27.573659 113.852498 0.024729
v -21.306233 113.852498 -16.797492
v 1.446789 141.662498 1.258195
v -0.373453 141.662498 -0.186260
v -0.874847 141.662498 1.159518
v -27.573659 113.852498 0.024729
v -22.756260 113.852498 17.318091
v -0.489455 141.662498 2.542987
v -0.874847 141.662498 1.159518
v 1.446789 113.852498 1.258195
v -22.756260 113.852498 17.318091
v -27.573659 113.852498 0.024729
v 1.446789 141.662498 1.258195
v -0.874847 141.662498 1.159518
v -0.489455 141.662498 2.542987
v -22.756260 113.852498 17.318091
v -8.694119 113.852498 28.477119
v 0.635516 141.662498 3.435709
v -0.489455 141.662498 2.542987
v 1.446789 113.852498 1.258195
v -8.694119 113.852498 28.477119
v -22.756260 113.852498 17.318091
v 1.446789 141.662498 1.258195
v -0.489455 141.662498 2.542987
v 0.635516 141.662498 3.435709
v -8.694119 113.852498 28.477119
v 9.241504 113.852498 29.239444
v 2.070366 141.662498 3.496695
v 0.635516 141.662498 3.435709
v 1.446789 113.852498 1.258195
v 9.241504 113.852498 29.239444
v -8.694119 113.852498 28.477119
v 1.446789 141.662498 1.258195
v 0.635516 141.662498 3.435709
v 2.070366 141.662498 3.496695
v 9.241504 113.852498 29.239444
v 24.199811 113.852498 19.313882
v 3.267031 141.662498 2.702650
v 2.070366 141.662498 3.496695
v 1.446789 113.852498 1.258195
v 24.199811 113.852498 19.313882
v 9.241504 113.852498 29.239444
v 1.446789 141.662498 1.258195
v 2.070366 141.662498 3.496695
v 3.267031 141.662498 2.702650
v 24.199811 113.852498 19.313882
v 30.467237 113.852498 2.491662
v 3.768425 141.662498 1.356873
v 3.267031 141.662498 2.702650
v 1.446789 113.852498 1.258195
v 30.467237 113.852498 2.491662
v 24.199811 113.852498 19.313882
v 1.446789 141.662498 1.258195
v 3.267031 141.662498 2.702650
v 3.768425 141.662498 1.356873
v 30.467237 113.852498 2.491662
v 25.649838 113.852498 -14.801701
v 3.383033 141.662498 -0.026596
v 3.768425 141.662498 1.356873
v 1.446789 113.852498 1.258195
v 25.649838 113.852498 -14.801701
v 30.467237 113.852498 2.491662
v 1.446789 141.662498 1.258195
v 3.768425 141.662498 1.356873
v 3.383033 141.662498 -0.026596
v 25.649838 113.852498 -14.801701
v 11.587697 113.852498 -25.960729
v 2.258061 141.662498 -0.919319
v 3.383033 141.662498 -0.026596
v 1.446789 113.852498 1.258195
v 11.587697 113.852498 -25.960729
v 25.649838 113.852498 -14.801701
v 1.446789 141.662498 1.258195
v 3.383033 141.662498 -0.026596
v 2.258061 141.662498 -0.919319
v 11.587697 113.852498 -25.960729
v -6.347926 113.852498 -26.723053
v 0.823212 141.662498 -0.980305
v 2.258061 141.662498 -0.919319
v 1.446789 113.852498 1.258195
v -6.347926 113.852498 -26.723053
v 11.587697 113.852498 -25.960729
v 1.446789 141.662498 1.258195
v 2.258061 141.662498 -0.919319
v 0.823212 141.662498 -0.980305
v -6.347926 113.852498 -26.723053
v -21.306233 113.852498 -16.797492
v -0.373453 141.662498 -0.186260
v 0.823212 141.662498 -0.980305
v 1.446789 113.852498 1.258195
v -21.306233 113.852498 -16.797492
v -6.347926 113.852498 -26.723053
v 1.446789 141.662498 1.258195
v 0.823212 141.662498 -0.980305
v -0.373453 141.662498 -0.186260
v -18.337595 126.673267 -10.546244
v -20.473432 126.673267 1.419405
v -2.550766 154.483267 -1.061017
v -2.379899 154.483267 -2.018268
v -0.992273 126.673267 -1.276705
v -20.473432 126.673267 1.419405
v -18.337595 126.673267 -10.546244
v -0.992273 154.483267 -1.276705
v -2.379899 154.483267 -2.018268
v -2.550766 154.483267 -1.061017
v -20.473432 126.673267 1.419405
v -15.168128 126.673267 12.355231
v -2.126342 154.483267 -0.186150
v -2.550766 154.483267 -1.061017
v -0.992273 126.673267 -1.276705
v -15.168128 126.673267 12.355231
v -20.473432 126.673267 1.419405
v -0.992273 154.483267 -1.276705
v -2.550766 154.483267 -1.061017
v -2.126342 154.483267 -0.186150
v -15.168128 126.673267 12.355231
v -4.448130 126.673267 18.084121
v -1.268742 154.483267 0.272161
v -2.126342 154.483267 -0.186150
v -0.992273 126.673267 -1.276705
v -4.448130 126.673267 18.084121
v -15.168128 126.673267 12.355231
v -0.992273 154.483267 -1.276705
v -2.126342 154.483267 -0.186150
v -1.268742 154.483267 0.272161
v -4.448130 126.673267 18.084121
v 7.591888 126.673267 16.417833
v -0.305540 154.483267 0.138858
v -1.268742 154.483267 0.272161
v -0.992273 126.673267 -1.276705
v 7.591888 126.673267 16.417833
v -4.448130 126.673267 18.084121
v -0.992273 154.483267 -1.276705
v -1.268742 154.483267 0.272161
v -0.305540 154.483267 0.138858
v 7.591888 126.673267 16.417833
v 16.353048 126.673267 7.992833
v 0.395352 154.483267 -0.535142
v -0.305540 154.483267 0.138858
v -0.992273 126.673267 -1.276705
v 16.353048 126.673267 7.992833
v 7.591888 126.673267 16.417833
v -0.992273 154.483267 -1.276705
v -0.305540 154.483267 0.138858
v 0.395352 154.483267 -0.535142
v 16.353048 126.673267 7.992833
v 18.488885 126.673267 -3.972815
v 0.566219 154.483267 -1.492394
v 0.395352 154.483267 -0.535142
v -0.992273 126.673267 -1.276705
v 18.488885 126.673267 -3.972815
v 16.353048 126.673267 7.992833
v -0.992273 154.483267 -1.276705
v 0.395352 154.483267 -0.535142
v 0.566219 154.483267 -1.492394
v 18.488885 126.673267 -3.972815
v 13.183581 126.673267 -14.908642
v 0.141795 154.483267 -2.367260
v 0.566219 154.483267 -1.492394
v -0.992273 126.673267 -1.276705
v 13.183581 126.673267 -14.908642
v 18.488885 126.673267 -3.972815
v -0.992273 154.483267 -1.276705
v 0.566219 154.483267 -1.492394
v 0.141795 154.483267 -2.367260
v 13.183581 126.673267 -14.908642
v 2.463583 126.673267 -20.637532
v -0.715805 154.483267 -2.825571
v 0.141795 154.483267 -2.367260
v -0.992273 126.673267 -1.276705
v 2.463583 126.673267 -20.637532
v 13.183581 126.673267 -14.908642
v -0.992273 154.483267 -1.276705
v 0.141795 154.483267 -2.367260
v -0.715805 154.483267 -2.825571
v 2.463583 126.673267 -20.637532
v -9.576435 126.673267 -18.971244
v -1.679006 154.483267 -2.692268
v -0.715805 154.483267 -2.825571
v -0.992273 126.673267 -1.276705
v -9.576435 126.673267 -18.971244
v 2.463583 126.673267 -20.637532
v -0.992273 154.483267 -1.276705
v -0.715805 154.483267 -2.825571
v -1.679006 154.483267 -2.692268
v -9.576435 126.673267 -18.971244
v -18.337595 126.673267 -10.546244
v -2.379899 154.483267 -2.018268
v -1.679006 154.483267 -2.692268
v -0.992273 126.673267 -1.276705
v -18.337595 126.673267 -10.546244
v -9.576435 126.673267 -18.971244
v -0.992273 154.483267 -1.276705
v -1.679006 154.483267 -2.692268
v -2.379899 154.483267 -2.018268
v -13.163923 141.130137 -3.611906
v -13.132723 141.130137 5.665630
v -0.012549 168.940137 1.353793
v -0.015045 168.940137 0.611590
v 1.128336 141.130137 0.978850
v -13.132723 141.130137 5.665630
v -13.163923 141.130137 -3.611906
v 1.128336 168.940137 0.978850
v -0.015045 168.940137 0.611590
v -0.012549 168.940137 1.353793
v -13.132723 141.130137 5.665630
v -7.654283 141.130137 13.152974
v 0.425726 168.940137 1.952780
v -0.012549 168.940137 1.353793
v 1.128336 141.130137 0.978850
v -7.654283 141.130137 13.152974
v -13.132723 141.130137 5.665630
v 1.128336 168.940137 0.978850
v -0.012549 168.940137 1.353793
v 0.425726 168.940137 1.952780
v -7.654283 141.130137 13.152974
v 1.178818 141.130137 15.990218
v 1.132374 168.940137 2.179760
v 0.425726 168.940137 1.952780
v 1.128336 141.130137 0.978850
v 1.178818 141.130137 15.990218
v -7.654283 141.130137 13.152974
v 1.128336 168.940137 0.978850
v 0.425726 168.940137 1.952780
v 1.132374 168.940137 2.179760
v 1.178818 141.130137 15.990218
v 9.992637 141.130137 13.093629
v 1.837480 168.940137 1.948033
v 1.132374 168.940137 2.179760
v 1.128336 141.130137 0.978850
v 9.992637 141.130137 13.093629
v 1.178818 141.130137 15.990218
v 1.128336 168.940137 0.978850
v 1.132374 168.940137 2.179760
v 1.837480 168.940137 1.948033
v 9.992637 141.130137 13.093629
v 15.420595 141.130137 5.569606
v 2.271717 168.940137 1.346111
v 1.837480 168.940137 1.948033
v 1.128336 141.130137 0.978850
v 15.420595 141.130137 5.569606
v 9.992637 141.130137 13.093629
v 1.128336 168.940137 0.978850
v 1.837480 168.940137 1.948033
v 2.271717 168.940137 1.346111
v 15.420595 141.130137 5.569606
v 15.389395 141.130137 -3.707929
v 2.269221 168.940137 0.603908
v 2.271717 168.940137 1.346111
v 1.128336 141.130137 0.978850
v 15.389395 141.130137 -3.707929
v 15.420595 141.130137 5.569606
v 1.128336 168.940137 0.978850
v 2.271717 168.940137 1.346111
v 2.269221 168.940137 0.603908
v 15.389395 141.130137 -3.707929
v 9.910955 141.130137 -11.195274
v 1.830945 168.940137 0.004920
v 2.269221 168.940137 0.603908
v 1.128336 141.130137 0.978850
v 9.910955 141.130137 -11.195274
v 15.389395 141.130137 -3.707929
v 1.128336 168.940137 0.978850
v 2.269221 168.940137 0.603908
v 1.830945 168.940137 0.004920
v 9.910955 141.130137 -11.195274
v 1.077853 141.130137 -14.032517
v 1.124297 168.940137 -0.222059
v 1.830945 168.940137 0.004920
v 1.128336 141.130137 0.978850
v 1.077853 141.130137 -14.032517
v 9.910955 141.130137 -11.195274
v 1.128336 168.940137 0.978850
v 1.830945 168.940137 0.004920
v 1.124297 168.940137 -0.222059
v 1.077853 141.130137 -14.032517
v -7.735966 141.130137 -11.135928
v 0.419192 168.940137 0.009668
v 1.124297 168.940137 -0.222059
v 1.128336 141.130137 0.978850
v -7.735966 141.130137 -11.135928
v 1.077853 141.130137 -14.032517
v 1.128336 168.940137 0.978850
v 1.124297 168.940137 -0.222059
v 0.419192 168.940137 0.009668
v -7.735966 141.130137 -11.135928
v -13.163923 141.130137 -3.611906
v -0.015045 168.940137 0.611590
v 0.419192 168.940137 0.009668
v 1.128336 141.130137 0.978850
v -13.163923 141.130137 -3.611906
v -7.735966 141.130137 -11.135928
v 1.128336 168.940137 0.978850
v 0.419192 168.940137 0.009668
v -0.015045 168.940137 0.611590
vt 0.000000 0.000000
vt 1.000000 0.000000
vt 1.000000 1.000000
vt 0.000000 1.000000
vt 0.500000 1.000000
vt 0.000000 0.000000
vt 1.000000 0.000000
vt 0.000000 0.000000
vt 1.000000 0.000000
vt 1.000000 1.000000
vt 0.000000 1.000000
vt 0.500000 1.000000
vt 0.000000 0.000000
vt 1.000000 0.000000
vt 0.000000 0.000000
vt 1.000000 0.000000
vt 1.000000 1.000000
vt 0.000000 1.000000
vt 0.500000 1.000000
vt 0.000000 0.000000
vt 1.000000 0.000000
vt 0.000000 0.000000
vt 1.000000 0.000000
vt 1.000000 1.000000
vt 0.000000 1.000000
vt 0.500000 1.000000
vt 0.000000 0.000000
vt 1.000000 0.000000
vt 0.000000 0.000000
vt 1.000000 0.000000
vt 1.000000 1.000000
vt 0.000000 1.000000
vt 0.500000 1.000000
vt 0.000000 0.000000
vt 1.000000 0.000000
vt 0.000000 0.000000
vt 1.000000 0.000000
vt 1.000000 1.000000
vt 0.000000 1.000000
vt 0.500000 1.000000
vt 0.000000 0.000000
vt 1.000000 0.000000
vt 0.000000 0.000000
vt 1.000000 0.000000
vt 1.000000 1.000000
vt 0.000000 1.000000
vt 0.500000 1.000000
vt 0.000000 0.000000
vt 1.000000 0.000000
vt 0.000000 0.000000
vt 1.000000 0.000000
vt 1.000000 1.000000
vt 0.000000 1.000000
vt 0.500000 1.000000
vt 0.000000 0.000000
vt 1.000000 0.000000
vt 0.000000 0.000000
vt 1.000000 0.000000
vt 1.000000 1.000000
vt 0.000000 1.000000
vt 0.500000 1.000000
vt 0.000000 0.000000
vt 1.000000 0.000000
vt 0.000000 0.000000
vt 1.000000 0.000000
vt 1.000000 1.000000
vt 0.000000 1.000000
vt 0.500000 1.000000
vt 0.000000 0.000000
vt 1.000000 0.000000
vt 0.000000 0.000000
vt 1.000000 0.000000
vt 1.000000 1.000000
vt 0.000000 1.000000
vt 0.500000 1.000000
vt 0.000000 0.000000
vt 1.000000 0.000000
vt 0.000000 0.000000
vt 1.000000 0.000000
vt 1.000000 1.000000
vt 0.000000 1.000000
vt 0.500000 1.000000
vt 0.000000 0.000000
vt 1.000000 0.000000
vt 0.000000 0.000000
vt 1.000000 0.000000
vt 1.000000 1.000000
vt 0.000000 1.000000
vt 0.500000 1.000000
vt 0.000000 0.000000
vt 1.000000 0.000000
vt 0.000000 0.000000
vt 1.000000 0.000000
vt 1.000000 1.000000
vt 0.000000 1.000000
vt 0.500000 1.000000
vt 0.000000 0.000000
vt 1.000000 0.000000
vt 0.000000 0.000000
vt 1.000000 0.000000
vt 1.000000 1.000000
vt 0.000000 1.000000
vt 0.500000 1.000000
vt 0.000000 0.000000
vt 1.000000 0.000000
vt 0.000000 0.000000
vt 1.000000 0.000000
vt 1.000000 1.000000
vt 0.000000 1.000000
vt 0.500000 1.000000
vt 0.000000 0.000000
vt 1.000000 0.000000
vt 0.000000 0.000000
vt 1.000000 0.000000
vt 1.000000 1.000000
vt 0.000000 1.000000
vt 0.500000 1.000000
vt 0.000000 0.000000
vt 1.000000 0.000000
vt 0.000000 0.000000
vt 1.000000 0.000000
vt 1.000000 1.000000
vt 0.000000 1.000000
vt 0.500000 1.000000
vt 0.000000 0.000000
vt 1.000000 0.000000
vt 0.000000 0.000000
vt 1.000000 0.000000
vt 1.000000 1.000000
vt 0.000000 1.000000
vt 0.500000 1.000000
vt 0.000000 0.000000
vt 1.000000 0.000000
vt 0.500000 1.000000
vt 0.000000 0.000000
vt 1.000000 0.000000
vt 0.000000 0.000000
vt 1.000000 0.000000
vt 1.000000 1.000000
vt 0.000000 1.000000
vt 0.500000 1.000000
vt 0.000000 0.000000
vt 1.000000 0.000000
vt 0.500000 1.000000
vt 0.000000 0.000000
vt 1.000000 0.000000
vt 0.000000 0.000000
vt 1.000000 0.000000
vt 1.000000 1.000000
vt 0.000000 1.000000
vt 0.500000 1.000000
vt 0.000000 0.000000
vt 1.000000 0.000000
vt 0.500000 1.000000
vt 0.000000 0.000000
vt 1.000000 0.000000
vt 0.000000 0.000000
vt 1.000000 0.000000
vt 1.000000 1.000000
vt 0.000000 1.000000
vt 0.500000 1.000000
vt 0.000000 0.000000
vt 1.000000 0.000000
vt 0.500000 1.000000
vt 0.000000 0.000000
vt 1.000000 0.000000
vt 0.000000 0.000000
vt 1.000000 0.000000
vt 1.000000 1.000000
vt 0.000000 1.000000
vt 0.500000 1.000000
vt 0.000000 0.000000
vt 1.000000 0.000000
vt 0.500000 1.000000
vt 0.000000 0.000000
vt 1.000000 0.000000
vt 0.000000 0.000000
vt 1.000000 0.000000
vt 1.000000 1.000000
vt 0.000000 1.000000
vt 0.500000 1.000000
vt 0.000000 0.000000
vt 1.000000 0.000000
vt 0.500000 1.000000
vt 0.000000 0.000000
vt 1.000000 0.000000
vt 0.000000 0.000000
vt 1.000000 0.000000
vt 1.000000 1.000000
vt 0.000000 1.000000
vt 0.500000 1.000000
vt 0.000000 0.000000
vt 1.000000 0.000000
vt 0.500000 1.000000
vt 0.000000 0.000000
vt 1.000000 0.000000
vt 0.000000 0.000000
vt 1.000000 0.000000
vt 1.000000 1.000000
vt 0.000000 1.000000
vt 0.500000 1.000000
vt 0.000000 0.000000
vt 1.000000 0.000000
vt 0.500000 1.000000
vt 0.000000 0.000000
vt 1.000000 0.000000
vt 0.000000 0.000000
vt 1.000000 0.000000
vt 1.000000 1.000000
vt 0.000000 1.000000
vt 0.500000 1.000000
vt 0.000000 0.000000
vt 1.000000 0.000000
vt 0.500000 1.000000
vt 0.000000 0.000000
vt 1.000000 0.000000
vt 0.000000 0.000000
vt 1.000000 0.000000
vt 1.000000 1.000000
vt 0.000000 1.000000
vt 0.500000 1.000000
vt 0.000000 0.000000
vt 1.000000 0.000000
vt 0.500000 1.000000
vt 0.000000 0.000000
vt 1.000000 0.000000
vt 0.000000 0.000000
vt 1.000000 0.000000
vt 1.000000 1.000000
vt 0.000000 1.000000
vt 0.500000 1.000000
vt 0.000000 0.000000
vt 1.000000 0.000000
vt 0.500000 1.000000
vt 0.000000 0.000000
vt 1.000000 0.000000
vt 0.000000 0.000000
vt 1.000000 0.000000
vt 1.000000 1.000000
vt 0.000000 1.000000
vt 0.500000 1.000000
vt 0.000000 0.000000
vt 1.000000 0.000000
vt 0.500000 1.000000
vt 0.000000 0.000000
vt 1.000000 0.000000
vt 0.000000 0.000000
vt 1.000000 0.000000
vt 1.000000 1.000000
vt 0.000000 1.000000
vt 0.500000 1.000000
vt 0.000000 0.000000
vt 1.000000 0.000000
vt 0.500000 1.000000
vt 0.000000 0.000000
vt 1.000000 0.000000
vt 0.000000 0.000000
vt 1.000000 0.000000
vt 1.000000 1.000000
vt 0.000000 1.000000
vt 0.500000 1.000000
vt 0.000000 0.000000
vt 1.000000 0.000000
vt 0.500000 1.000000
vt 0.000000 0.000000
vt 1.000000 0.000000
vt 0.000000 0.000000
vt 1.000000 0.000000
vt 1.000000 1.000000
vt 0.000000 1.000000
vt 0.500000 1.000000
vt 0.000000 0.000000
vt 1.000000 0.000000
vt 0.500000 1.000000
vt 0.000000 0.000000
vt 1.000000 0.000000
vt 0.000000 0.000000
vt 1.000000 0.000000
vt 1.000000 1.000000
vt 0.000000 1.000000
vt 0.500000 1.000000
vt 0.000000 0.000000
vt 1.000000 0.000000
vt 0.500000 1.000000
vt 0.000000 0.000000
vt 1.000000 0.000000
vt 0.000000 0.000000
vt 1.000000 0.000000
vt 1.000000 1.000000
vt 0.000000 1.000000
vt 0.500000 1.000000
vt 0.000000 0.000000
vt 1.000000 0.000000
vt 0.500000 1.000000
vt 0.000000 0.000000
vt 1.000000 0.000000
vt 0.000000 0.000000
vt 1.000000 0.000000
vt 1.000000 1.000000
vt 0.000000 1.000000
vt 0.500000 1.000000
vt 0.000000 0.000000
vt 1.000000 0.000000
vt 0.500000 1.000000
vt 0.000000 0.000000
vt 1.000000 0.000000
vt 0.000000 0.000000
vt 1.000000 0.000000
vt 1.000000 1.000000
vt 0.000000 1.000000
vt 0.500000 1.000000
vt 0.000000 0.000000
vt 1.000000 0.000000
vt 0.500000 1.000000
vt 0.000000 0.000000
vt 1.000000 0.000000
vt 0.000000 0.000000
vt 1.000000 0.000000
vt 1.000000 1.000000
vt 0.000000 1.000000
vt 0.500000 1.000000
vt 0.000000 0.000000
vt 1.000000 0.000000
vt 0.500000 1.000000
vt 0.000000 0.000000
vt 1.000000 0.000000
vt 0.000000 0.000000
vt 1.000000 0.000000
vt 1.000000 1.000000
vt 0.000000 1.000000
vt 0.500000 1.000000
vt 0.000000 0.000000
vt 1.000000 0.000000
vt 0.500000 1.000000
vt 0.000000 0.000000
vt 1.000000 0.000000
vt 0.000000 0.000000
vt 1.000000 0.000000
vt 1.000000 1.000000
vt 0.000000 1.000000
vt 0.500000 1.000000
vt 0.000000 0.000000
vt 1.000000 0.000000
vt 0.500000 1.000000
vt 0.000000 0.000000
vt 1.000000 0.000000
vt 0.000000 0.000000
vt 1.000000 0.000000
vt 1.000000 1.000000
vt 0.000000 1.000000
vt 0.500000 1.000000
vt 0.000000 0.000000
vt 1.000000 0.000000
vt 0.500000 1.000000
vt 0.000000 0.000000
vt 1.000000 0.000000
vt 0.000000 0.000000
vt 1.000000 0.000000
vt 1.000000 1.000000
vt 0.000000 1.000000
vt 0.500000 1.000000
vt 0.000000 0.000000
vt 1.000000 0.000000
vt 0.500000 1.000000
vt 0.000000 0.000000
vt 1.000000 0.000000
vt 0.000000 0.000000
vt 1.000000 0.000000
vt 1.000000 1.000000
vt 0.000000 1.000000
vt 0.500000 1.000000
vt 0.000000 0.000000
vt 1.000000 0.000000
vt 0.500000 1.000000
vt 0.000000 0.000000
vt 1.000000 0.000000
vt 0.000000 0.000000
vt 1.000000 0.000000
vt 1.000000 1.000000
vt 0.000000 1.000000
vt 0.500000 1.000000
vt 0.000000 0.000000
vt 1.000000 0.000000
vt 0.500000 1.000000
vt 0.000000 0.000000
vt 1.000000 0.000000
vt 0.000000 0.000000
vt 1.000000 0.000000
vt 1.000000 1.000000
vt 0.000000 1.000000
vt 0.500000 1.000000
vt 0.000000 0.000000
vt 1.000000 0.000000
vt 0.500000 1.000000
vt 0.000000 0.000000
vt 1.000000 0.000000
vt 0.000000 0.000000
vt 1.000000 0.000000
vt 1.000000 1.000000
vt 0.000000 1.000000
vt 0.500000 1.000000
vt 0.000000 0.000000
vt 1.000000 0.000000
vt 0.500000 1.000000
vt 0.000000 0.000000
vt 1.000000 0.000000
vt 0.000000 0.000000
vt 1.000000 0.000000
vt 1.000000 1.000000
vt 0.000000 1.000000
vt 0.500000 1.000000
vt 0.000000 0.000000
vt 1.000000 0.000000
vt 0.500000 1.000000
vt 0.000000 0.000000
vt 1.000000 0.000000
vt 0.000000 0.000000
vt 1.000000 0.000000
vt 1.000000 1.000000
vt 0.000000 1.000000
vt 0.500000 1.000000
vt 0.000000 0.000000
vt 1.000000 0.000000
vt 0.500000 1.000000
vt 0.000000 0.000000
vt 1.000000 0.000000
vt 0.000000 0.000000
vt 1.000000 0.000000
vt 1.000000 1.000000
vt 0.000000 1.000000
vt 0.500000 1.000000
vt 0.000000 0.000000
vt 1.000000 0.000000
vt 0.500000 1.000000
vt 0.000000 0.000000
vt 1.000000 0.000000
vt 0.000000 0.000000
vt 1.000000 0.000000
vt 1.000000 1.000000
vt 0.000000 1.000000
vt 0.500000 1.000000
vt 0.000000 0.000000
vt 1.000000 0.000000
vt 0.500000 1.000000
vt 0.000000 0.000000
vt 1.000000 0.000000
vt 0.000000 0.000000
vt 1.000000 0.000000
vt 1.000000 1.000000
vt 0.000000 1.000000
vt 0.500000 1.000000
vt 0.000000 0.000000
vt 1.000000 0.000000
vt 0.500000 1.000000
vt 0.000000 0.000000
vt 1.000000 0.000000
vt 0.000000 0.000000
vt 1.000000 0.000000
vt 1.000000 1.000000
vt 0.000000 1.000000
vt 0.500000 1.000000
vt 0.000000 0.000000
vt 1.000000 0.000000
vt 0.500000 1.000000
vt 0.000000 0.000000
vt 1.000000 0.000000
vt 0.000000 0.000000
vt 1.000000 0.000000
vt 1.000000 1.000000
vt 0.000000 1.000000
vt 0.500000 1.000000
vt 0.000000 0.000000
vt 1.000000 0.000000
vt 0.500000 1.000000
vt 0.000000 0.000000
vt 1.000000 0.000000
vt 0.000000 0.000000
vt 1.000000 0.000000
vt 1.000000 1.000000
vt 0.000000 1.000000
vt 0.500000 1.000000
vt 0.000000 0.000000
vt 1.000000 0.000000
vt 0.500000 1.000000
vt 0.000000 0.000000
vt 1.000000 0.000000
vt 0.000000 0.000000
vt 1.000000 0.000000
vt 1.000000 1.000000
vt 0.000000 1.000000
vt 0.500000 1.000000
vt 0.000000 0.000000
vt 1.000000 0.000000
vt 0.500000 1.000000
vt 0.000000 0.000000
vt 1.000000 0.000000
vt 0.000000 0.000000
vt 1.000000 0.000000
vt 1.000000 1.000000
vt 0.000000 1.000000
vt 0.500000 1.000000
vt 0.000000 0.000000
vt 1.000000 0.000000
vt 0.500000 1.000000
vt 0.000000 0.000000
vt 1.000000 0.000000
vt 0.000000 0.000000
vt 1.000000 0.000000
vt 1.000000 1.000000
vt 0.000000 1.000000
vt 0.500000 1.000000
vt 0.000000 0.000000
vt 1.000000 0.000000
vt 0.500000 1.000000
vt 0.000000 0.000000
vt 1.000000 0.000000
vt 0.000000 0.000000
vt 1.000000 0.000000
vt 1.000000 1.000000
vt 0.000000 1.000000
vt 0.500000 1.000000
vt 0.000000 0.000000
vt 1.000000 0.000000
vt 0.500000 1.000000
vt 0.000000 0.000000
vt 1.000000 0.000000
vt 0.000000 0.000000
vt 1.000000 0.000000
vt 1.000000 1.000000
vt 0.000000 1.000000
vt 0.500000 1.000000
vt 0.000000 0.000000
vt 1.000000 0.000000
vt 0.500000 1.000000
vt 0.000000 0.000000
vt 1.000000 0.000000
vt 0.000000 0.000000
vt 1.000000 0.000000
vt 1.000000 1.000000
vt 0.000000 1.000000
vt 0.500000 1.000000
vt 0.000000 0.000000
vt 1.000000 0.000000
vt 0.500000 1.000000
vt 0.000000 0.000000
vt 1.000000 0.000000
vt 0.000000 0.000000
vt 1.000000 0.000000
vt 1.000000 1.000000
vt 0.000000 1.000000
vt 0.500000 1.000000
vt 0.000000 0.000000
vt 1.000000 0.000000
vt 0.500000 1.000000
vt 0.000000 0.000000
vt 1.000000 0.000000
vt 0.000000 0.000000
vt 1.000000 0.000000
vt 1.000000 1.000000
vt 0.000000 1.000000
vt 0.500000 1.000000
vt 0.000000 0.000000
vt 1.000000 0.000000
vt 0.500000 1.000000
vt 0.000000 0.000000
vt 1.000000 0.000000
vt 0.000000 0.000000
vt 1.000000 0.000000
vt 1.000000 1.000000
vt 0.000000 1.000000
vt 0.500000 1.000000
vt 0.000000 0.000000
vt 1.000000 0.000000
vt 0.500000 1.000000
vt 0.000000 0.000000
vt 1.000000 0.000000
vt 0.000000 0.000000
vt 1.000000 0.000000
vt 1.000000 1.000000
vt 0.000000 1.000000
vt 0.500000 1.000000
vt 0.000000 0.000000
vt 1.000000 0.000000
vt 0.500000 1.000000
vt 0.000000 0.000000
vt 1.000000 0.000000
vt 0.000000 0.000000
vt 1.000000 0.000000
vt 1.000000 1.000000
vt 0.000000 1.000000
vt 0.500000 1.000000
vt 0.000000 0.000000
vt 1.000000 0.000000
vt 0.500000 1.000000
vt 0.000000 0.000000
vt 1.000000 0.000000
vt 0.000000 0.000000
vt 1.000000 0.000000
vt 1.000000 1.000000
vt 0.000000 1.000000
vt 0.500000 1.000000
vt 0.000000 0.000000
vt 1.000000 0.000000
vt 0.500000 1.000000
vt 0.000000 0.000000
vt 1.000000 0.000000
vt 0.000000 0.000000
vt 1.000000 0.000000
vt 1.000000 1.000000
vt 0.000000 1.000000
vt 0.500000 1.000000
vt 0.000000 0.000000
vt 1.000000 0.000000
vt 0.500000 1.000000
vt 0.000000 0.000000
vt 1.000000 0.000000
vt 0.000000 0.000000
vt 1.000000 0.000000
vt 1.000000 1.000000
vt 0.000000 1.000000
vt 0.500000 1.000000
vt 0.000000 0.000000
vt 1.000000 0.000000
vt 0.500000 1.000000
vt 0.000000 0.000000
vt 1.000000 0.000000
vt 0.000000 0.000000
vt 1.000000 0.000000
vt 1.000000 1.000000
vt 0.000000 1.000000
vt 0.500000 1.000000
vt 0.000000 0.000000
vt 1.000000 0.000000
vt 0.500000 1.000000
vt 0.000000 0.000000
vt 1.000000 0.000000
vt 0.000000 0.000000
vt 1.000000 0.000000
vt 1.000000 1.000000
vt 0.000000 1.000000
vt 0.500000 1.000000
vt 0.000000 0.000000
vt 1.000000 0.000000
vt 0.500000 1.000000
vt 0.000000 0.000000
vt 1.000000 0.000000
vt 0.000000 0.000000
vt 1.000000 0.000000
vt 1.000000 1.000000
vt 0.000000 1.000000
vt 0.500000 1.000000
vt 0.000000 0.000000
vt 1.000000 0.000000
vt 0.500000 1.000000
vt 0.000000 0.000000
vt 1.000000 0.000000
vt 0.000000 0.000000
vt 1.000000 0.000000
vt 1.000000 1.000000
vt 0.000000 1.000000
vt 0.500000 1.000000
vt 0.000000 0.000000
vt 1.000000 0.000000
vt 0.500000 1.000000
vt 0.000000 0.000000
vt 1.000000 0.000000
vt 0.000000 0.000000
vt 1.000000 0.000000
vt 1.000000 1.000000
vt 0.000000 1.000000
vt 0.500000 1.000000
vt 0.000000 0.000000
vt 1.000000 0.000000
vt 0.500000 1.000000
vt 0.000000 0.000000
vt 1.000000 0.000000
vt 0.000000 0.000000
vt 1.000000 0.000000
vt 1.000000 1.000000
vt 0.000000 1.000000
vt 0.500000 1.000000
vt 0.000000 0.000000
vt 1.000000 0.000000
vt 0.500000 1.000000
vt 0.000000 0.000000
vt 1.000000 0.000000
vt 0.000000 0.000000
vt 1.000000 0.000000
vt 1.000000 1.000000
vt 0.000000 1.000000
vt 0.500000 1.000000
vt 0.000000 0.000000
vt 1.000000 0.000000
vt 0.500000 1.000000
vt 0.000000 0.000000
vt 1.000000 0.000000
vt 0.000000 0.000000
vt 1.000000 0.000000
vt 1.000000 1.000000
vt 0.000000 1.000000
vt 0.500000 1.000000
vt 0.000000 0.000000
vt 1.000000 0.000000
vt 0.500000 1.000000
vt 0.000000 0.000000
vt 1.000000 0.000000
vt 0.000000 0.000000
vt 1.000000 0.000000
vt 1.000000 1.000000
vt 0.000000 1.000000
vt 0.500000 1.000000
vt 0.000000 0.000000
vt 1.000000 0.000000
vt 0.500000 1.000000
vt 0.000000 0.000000
vt 1.000000 0.000000
vt 0.000000 0.000000
vt 1.000000 0.000000
vt 1.000000 1.000000
vt 0.000000 1.000000
vt 0.500000 1.000000
vt 0.000000 0.000000
vt 1.000000 0.000000
vt 0.500000 1.000000
vt 0.000000 0.000000
vt 1.000000 0.000000
vt 0.000000 0.000000
vt 1.000000 0.000000
vt 1.000000 1.000000
vt 0.000000 1.000000
vt 0.500000 1.000000
vt 0.000000 0.000000
vt 1.000000 0.000000
vt 0.500000 1.000000
vt 0.000000 0.000000
vt 1.000000 0.000000
vt 0.000000 0.000000
vt 1.000000 0.000000
vt 1.000000 1.000000
vt 0.000000 1.000000
vt 0.500000 1.000000
vt 0.000000 0.000000
vt 1.000000 0.000000
vt 0.500000 1.000000
vt 0.000000 0.000000
vt 1.000000 0.000000
vt 0.000000 0.000000
vt 1.000000 0.000000
vt 1.000000 1.000000
vt 0.000000 1.000000
vt 0.500000 1.000000
vt 0.000000 0.000000
vt 1.000000 0.000000
vt 0.500000 1.000000
vt 0.000000 0.000000
vt 1.000000 0.000000
vt 0.000000 0.000000
vt 1.000000 0.000000
vt 1.000000 1.000000
vt 0.000000 1.000000
vt 0.500000 1.000000
vt 0.000000 0.000000
vt 1.000000 0.000000
vt 0.500000 1.000000
vt 0.000000 0.000000
vt 1.000000 0.000000
vt 0.000000 0.000000
vt 1.000000 0.000000
vt 1.000000 1.000000
vt 0.000000 1.000000
vt 0.500000 1.000000
vt 0.000000 0.000000
vt 1.000000 0.000000
vt 0.500000 1.000000
vt 0.000000 0.000000
vt 1.000000 0.000000
vt 0.000000 0.000000
vt 1.000000 0.000000
vt 1.000000 1.000000
vt 0.000000 1.000000
vt 0.500000 1.000000
vt 0.000000 0.000000
vt 1.000000 0.000000
vt 0.500000 1.000000
vt 0.000000 0.000000
vt 1.000000 0.000000
vt 0.000000 0.000000
vt 1.000000 0.000000
vt 1.000000 1.000000
vt 0.000000 1.000000
vt 0.500000 1.000000
vt 0.000000 0.000000
vt 1.000000 0.000000
vt 0.500000 1.000000
vt 0.000000 0.000000
vt 1.000000 0.000000
vt 0.000000 0.000000
vt 1.000000 0.000000
vt 1.000000 1.000000
vt 0.000000 1.000000
vt 0.500000 1.000000
vt 0.000000 0.000000
vt 1.000000 0.000000
vt 0.500000 1.000000
vt 0.000000 0.000000
vt 1.000000 0.000000
vt 0.000000 0.000000
vt 1.000000 0.000000
vt 1.000000 1.000000
vt 0.000000 1.000000
vt 0.500000 1.000000
vt 0.000000 0.000000
vt 1.000000 0.000000
vt 0.500000 1.000000
vt 0.000000 0.000000
vt 1.000000 0.000000
vt 0.000000 0.000000
vt 1.000000 0.000000
vt 1.000000 1.000000
vt 0.000000 1.000000
vt 0.500000 1.000000
vt 0.000000 0.000000
vt 1.000000 0.000000
vt 0.500000 1.000000
vt 0.000000 0.000000
vt 1.000000 0.000000
vt 0.000000 0.000000
vt 1.000000 0.000000
vt 1.000000 1.000000
vt 0.000000 1.000000
vt 0.500000 1.000000
vt 0.000000 0.000000
vt 1.000000 0.000000
vt 0.500000 1.000000
vt 0.000000 0.000000
vt 1.000000 0.000000
vt 0.000000 0.000000
vt 1.000000 0.000000
vt 1.000000 1.000000
vt 0.000000 1.000000
vt 0.500000 1.000000
vt 0.000000 0.000000
vt 1.000000 0.000000
vt 0.500000 1.000000
vt 0.000000 0.000000
vt 1.000000 0.000000
vt 0.000000 0.000000
vt 1.000000 0.000000
vt 1.000000 1.000000
vt 0.000000 1.000000
vt 0.500000 1.000000
vt 0.000000 0.000000
vt 1.000000 0.000000
vt 0.500000 1.000000
vt 0.000000 0.000000
vt 1.000000 0.000000
vt 0.000000 0.000000
vt 1.000000 0.000000
vt 1.000000 1.000000
vt 0.000000 1.000000
vt 0.500000 1.000000
vt 0.000000 0.000000
vt 1.000000 0.000000
vt 0.500000 1.000000
vt 0.000000 0.000000
vt 1.000000 0.000000
vt 0.000000 0.000000
vt 1.000000 0.000000
vt 1.000000 1.000000
vt 0.000000 1.000000
vt 0.500000 1.000000
vt 0.000000 0.000000
vt 1.000000 0.000000
vt 0.500000 1.000000
vt 0.000000 0.000000
vt 1.000000 0.000000
vt 0.000000 0.000000
vt 1.000000 0.000000
vt 1.000000 1.000000
vt 0.000000 1.000000
vt 0.500000 1.000000
vt 0.000000 0.000000
vt 1.000000 0.000000
vt 0.500000 1.000000
vt 0.000000 0.000000
vt 1.000000 0.000000
vt 0.000000 0.000000
vt 1.000000 0.000000
vt 1.000000 1.000000
vt 0.000000 1.000000
vt 0.500000 1.000000
vt 0.000000 0.000000
vt 1.000000 0.000000
vt 0.500000 1.000000
vt 0.000000 0.000000
vt 1.000000 0.000000
vt 0.000000 0.000000
vt 1.000000 0.000000
vt 1.000000 1.000000
vt 0.000000 1.000000
vt 0.500000 1.000000
vt 0.000000 0.000000
vt 1.000000 0.000000
vt 0.500000 1.000000
vt 0.000000 0.000000
vt 1.000000 0.000000
vt 0.000000 0.000000
vt 1.000000 0.000000
vt 1.000000 1.000000
vt 0.000000 1.000000
vt 0.500000 1.000000
vt 0.000000 0.000000
vt 1.000000 0.000000
vt 0.500000 1.000000
vt 0.000000 0.000000
vt 1.000000 0.000000
vt 0.000000 0.000000
vt 1.000000 0.000000
vt 1.000000 1.000000
vt 0.000000 1.000000
vt 0.500000 1.000000
vt 0.000000 0.000000
vt 1.000000 0.000000
vt 0.500000 1.000000
vt 0.000000 0.000000
vt 1.000000 0.000000
s 1
usemtl models/caelum/world/environment/bark_tundra.png
f 1/1 2/2 3/3 4/4
f 5/5 6/6 7/7
f 8/8 9/9 10/10 11/11
f 12/12 13/13 14/14
f 15/15 16/16 17/17 18/18
f 19/19 20/20 21/21
f 22/22 23/23 24/24 25/25
f 26/26 27/27 28/28
f 29/29 30/30 31/31 32/32
f 33/33 34/34 35/35
f 36/36 37/37 38/38 39/39
f 40/40 41/41 42/42
f 43/43 44/44 45/45 46/46
f 47/47 48/48 49/49
f 50/50 51/51 52/52 53/53
f 54/54 55/55 56/56
f 57/57 58/58 59/59 60/60
f 61/61 62/62 63/63
f 64/64 65/65 66/66 67/67
f 68/68 69/69 70/70
f 71/71 72/72 73/73 74/74
f 75/75 76/76 77/77
f 78/78 79/79 80/80 81/81
f 82/82 83/83 84/84
f 85/85 86/86 87/87 88/88
f 89/89 90/90 91/91
f 92/92 93/93 94/94 95/95
f 96/96 97/97 98/98
f 99/99 100/100 101/101 102/102
f 103/103 104/104 105/105
f 106/106 107/107 108/108 109/109
f 110/110 111/111 112/112
f 113/113 114/114 115/115 116/116
f 117/117 118/118 119/119
f 120/120 121/121 122/122 123/123
f 124/124 125/125 126/126
usemtl models/caelum/world/environment/foliage_tundra.png
f 127/127 128/128 129/129 130/130
f 131/131 132/132 133/133
f 134/134 135/135 136/136
f 137/137 138/138 139/139 140/140
f 141/141 142/142 143/143
f 144/144 145/145 146/146
f 147/147 148/148 149/149 150/150
f 151/151 152/152 153/153
f 154/154 155/155 156/156
f 157/157 158/158 159/159 160/160
f 161/161 162/162 163/163
f 164/164 165/165 166/166
f 167/167 168/168 169/169 170/170
f 171/171 172/172 173/173
f 174/174 175/175 176/176
f 177/177 178/178 179/179 180/180
f 181/181 182/182 183/183
f 184/184 185/185 186/186
f 187/187 188/188 189/189 190/190
f 191/191 192/192 193/193
f 194/194 195/195 196/196
f 197/197 198/198 199/199 200/200
f 201/201 202/202 203/203
f 204/204 205/205 206/206
f 207/207 208/208 209/209 210/210
f 211/211 212/212 213/213
f 214/214 215/215 216/216
f 217/217 218/218 219/219 220/220
f 221/221 222/222 223/223
f 224/224 225/225 226/226
f 227/227 228/228 229/229 230/230
f 231/231 232/232 233/233
f 234/234 235/235 236/236
f 237/237 238/238 239/239 240/240
f 241/241 242/242 243/243
f 244/244 245/245 246/246
f 247/247 248/248 249/249 250/250
f 251/251 252/252 253/253
f 254/254 255/255 256/256
f 257/257 258/258 259/259 260/260
f 261/261 262/262 263/263
f 264/264 265/265 266/266
f 267/267 268/268 269/269 270/270
f 271/271 272/272 273/273
f 274/274 275/275 276/276
f 277/277 278/278 279/279 280/280
f 281/281 282/282 283/283
f 284/284 285/285 286/286
f 287/287 288/288 289/289 290/290
f 291/291 292/292 293/293
f 294/294 295/295 296/296
f 297/297 298/298 299/299 300/300
f 301/301 302/302 303/303
f 304/304 305/305 306/306
f 307/307 308/308 309/309 310/310
f 311/311 312/312 313/313
f 314/314 315/315 316/316
f 317/317 318/318 319/319 320/320
f 321/321 322/322 323/323
f 324/324 325/325 326/326
f 327/327 328/328 329/329 330/330
f 331/331 332/332 333/333
f 334/334 335/335 336/336
f 337/337 338/338 339/339 340/340
f 341/341 342/342 343/343
f 344/344 345/345 346/346
f 347/347 348/348 349/349 350/350
f 351/351 352/352 353/353
f 354/354 355/355 356/356
f 357/357 358/358 359/359 360/360
f 361/361 362/362 363/363
f 364/364 365/365 366/366
f 367/367 368/368 369/369 370/370
f 371/371 372/372 373/373
f 374/374 375/375 376/376
f 377/377 378/378 379/379 380/380
f 381/381 382/382 383/383
f 384/384 385/385 386/386
f 387/387 388/388 389/389 390/390
f 391/391 392/392 393/393
f 394/394 395/395 396/396
f 397/397 398/398 399/399 400/400
f 401/401 402/402 403/403
f 404/404 405/405 406/406
f 407/407 408/408 409/409 410/410
f 411/411 412/412 413/413
f 414/414 415/415 416/416
f 417/417 418/418 419/419 420/420
f 421/421 422/422 423/423
f 424/424 425/425 426/426
f 427/427 428/428 429/429 430/430
f 431/431 432/432 433/433
f 434/434 435/435 436/436
f 437/437 438/438 439/439 440/440
f 441/441 442/442 443/443
f 444/444 445/445 446/446
f 447/447 448/448 449/449 450/450
f 451/451 452/452 453/453
f 454/454 455/455 456/456
f 457/457 458/458 459/459 460/460
f 461/461 462/462 463/463
f 464/464 465/465 466/466
f 467/467 468/468 469/469 470/470
f 471/471 472/472 473/473
f 474/474 475/475 476/476
f 477/477 478/478 479/479 480/480
f 481/481 482/482 483/483
f 484/484 485/485 486/486
f 487/487 488/488 489/489 490/490
f 491/491 492/492 493/493
f 494/494 495/495 496/496
f 497/497 498/498 499/499 500/500
f 501/501 502/502 503/503
f 504/504 505/505 506/506
f 507/507 508/508 509/509 510/510
f 511/511 512/512 513/513
f 514/514 515/515 516/516
f 517/517 518/518 519/519 520/520
f 521/521 522/522 523/523
f 524/524 525/525 526/526
f 527/527 528/528 529/529 530/530
f 531/531 532/532 533/533
f 534/534 535/535 536/536
f 537/537 538/538 539/539 540/540
f 541/541 542/542 543/543
f 544/544 545/545 546/546
f 547/547 548/548 549/549 550/550
f 551/551 552/552 553/553
f 554/554 555/555 556/556
f 557/557 558/558 559/559 560/560
f 561/561 562/562 563/563
f 564/564 565/565 566/566
f 567/567 568/568 569/569 570/570
f 571/571 572/572 573/573
f 574/574 575/575 576/576
f 577/577 578/578 579/579 580/580
f 581/581 582/582 583/583
f 584/584 585/585 586/586
f 587/587 588/588 589/589 590/590
f 591/591 592/592 593/593
f 594/594 595/595 596/596
f 597/597 598/598 599/599 600/600
f 601/601 602/602 603/603
f 604/604 605/605 606/606
f 607/607 608/608 609/609 610/610
f 611/611 612/612 613/613
f 614/614 615/615 616/616
f 617/617 618/618 619/619 620/620
f 621/621 622/622 623/623
f 624/624 625/625 626/626
f 627/627 628/628 629/629 630/630
f 631/631 632/632 633/633
f 634/634 635/635 636/636
f 637/637 638/638 639/639 640/640
f 641/641 642/642 643/643
f 644/644 645/645 646/646
f 647/647 648/648 649/649 650/650
f 651/651 652/652 653/653
f 654/654 655/655 656/656
f 657/657 658/658 659/659 660/660
f 661/661 662/662 663/663
f 664/664 665/665 666/666
f 667/667 668/668 669/669 670/670
f 671/671 672/672 673/673
f 674/674 675/675 676/676
f 677/677 678/678 679/679 680/680
f 681/681 682/682 683/683
f 684/684 685/685 686/686
f 687/687 688/688 689/689 690/690
f 691/691 692/692 693/693
f 694/694 695/695 696/696
f 697/697 698/698 699/699 700/700
f 701/701 702/702 703/703
f 704/704 705/705 706/706
f 707/707 708/708 709/709 710/710
f 711/711 712/712 713/713
f 714/714 715/715 716/716
f 717/717 718/718 719/719 720/720
f 721/721 722/722 723/723
f 724/724 725/725 726/726
f 727/727 728/728 729/729 730/730
f 731/731 732/732 733/733
f 734/734 735/735 736/736
f 737/737 738/738 739/739 740/740
f 741/741 742/742 743/743
f 744/744 745/745 746/746
f 747/747 748/748 749/749 750/750
f 751/751 752/752 753/753
f 754/754 755/755 756/756
f 757/757 758/758 759/759 760/760
f 761/761 762/762 763/763
f 764/764 765/765 766/766
f 767/767 768/768 769/769 770/770
f 771/771 772/772 773/773
f 774/774 775/775 776/776
f 777/777 778/778 779/779 780/780
f 781/781 782/782 783/783
f 784/784 785/785 786/786
f 787/787 788/788 789/789 790/790
f 791/791 792/792 793/793
f 794/794 795/795 796/796
f 797/797 798/798 799/799 800/800
f 801/801 802/802 803/803
f 804/804 805/805 806/806
f 807/807 808/808 809/809 810/810
f 811/811 812/812 813/813
f 814/814 815/815 816/816
f 817/817 818/818 819/819 820/820
f 821/821 822/822 823/823
f 824/824 825/825 826/826
f 827/827 828/828 829/829 830/830
f 831/831 832/832 833/833
f 834/834 835/835 836/836
f 837/837 838/838 839/839 840/840
f 841/841 842/842 843/843
f 844/844 845/845 846/846
f 847/847 848/848 849/849 850/850
f 851/851 852/852 853/853
f 854/854 855/855 856/856
f 857/857 858/858 859/859 860/860
f 861/861 862/862 863/863
f 864/864 865/865 866/866
f 867/867 868/868 869/869 870/870
f 871/871 872/872 873/873
f 874/874 875/875 876/876
f 877/877 878/878 879/879 880/880
f 881/881 882/882 883/883
f 884/884 885/885 886/886
f 887/887 888/888 889/889 890/890
f 891/891 892/892 893/893
f 894/894 895/895 896/896
f 897/897 898/898 899/899 900/900
f 901/901 902/902 903/903
f 904/904 905/905 906/906
f 907/907 908/908 909/909 910/910
f 911/911 912/912 913/913
f 914/914 915/915 916/916
f 917/917 918/918 919/919 920/920
f 921/921 922/922 923/923
f 924/924 925/925 926/926
