# Modelo original generado para Caelum Argenteum.
# Ejes OBJ: X ancho, Y altura, Z profundidad.
o CaelumStation_forge
v -15.000000 0.000000 11.500000
v 15.000000 0.000000 11.500000
v 15.000000 6.000000 11.500000
v -15.000000 6.000000 11.500000
v 15.000000 0.000000 -11.500000
v -15.000000 0.000000 -11.500000
v -15.000000 6.000000 -11.500000
v 15.000000 6.000000 -11.500000
v 15.000000 0.000000 11.500000
v 15.000000 0.000000 -11.500000
v 15.000000 6.000000 -11.500000
v 15.000000 6.000000 11.500000
v -15.000000 0.000000 -11.500000
v -15.000000 0.000000 11.500000
v -15.000000 6.000000 11.500000
v -15.000000 6.000000 -11.500000
v -15.000000 6.000000 11.500000
v 15.000000 6.000000 11.500000
v 15.000000 6.000000 -11.500000
v -15.000000 6.000000 -11.500000
v -15.000000 0.000000 -11.500000
v 15.000000 0.000000 -11.500000
v 15.000000 0.000000 11.500000
v -15.000000 0.000000 11.500000
v -14.500000 5.650000 9.000000
v -6.500000 5.650000 9.000000
v -6.500000 10.350000 9.000000
v -14.500000 10.350000 9.000000
v -6.500000 5.650000 -9.000000
v -14.500000 5.650000 -9.000000
v -14.500000 10.350000 -9.000000
v -6.500000 10.350000 -9.000000
v -6.500000 5.650000 9.000000
v -6.500000 5.650000 -9.000000
v -6.500000 10.350000 -9.000000
v -6.500000 10.350000 9.000000
v -14.500000 5.650000 -9.000000
v -14.500000 5.650000 9.000000
v -14.500000 10.350000 9.000000
v -14.500000 10.350000 -9.000000
v -14.500000 10.350000 9.000000
v -6.500000 10.350000 9.000000
v -6.500000 10.350000 -9.000000
v -14.500000 10.350000 -9.000000
v -14.500000 5.650000 -9.000000
v -6.500000 5.650000 -9.000000
v -6.500000 5.650000 9.000000
v -14.500000 5.650000 9.000000
v 6.500000 5.650000 9.000000
v 14.500000 5.650000 9.000000
v 14.500000 10.350000 9.000000
v 6.500000 10.350000 9.000000
v 14.500000 5.650000 -9.000000
v 6.500000 5.650000 -9.000000
v 6.500000 10.350000 -9.000000
v 14.500000 10.350000 -9.000000
v 14.500000 5.650000 9.000000
v 14.500000 5.650000 -9.000000
v 14.500000 10.350000 -9.000000
v 14.500000 10.350000 9.000000
v 6.500000 5.650000 -9.000000
v 6.500000 5.650000 9.000000
v 6.500000 10.350000 9.000000
v 6.500000 10.350000 -9.000000
v 6.500000 10.350000 9.000000
v 14.500000 10.350000 9.000000
v 14.500000 10.350000 -9.000000
v 6.500000 10.350000 -9.000000
v 6.500000 5.650000 -9.000000
v 14.500000 5.650000 -9.000000
v 14.500000 5.650000 9.000000
v 6.500000 5.650000 9.000000
v -6.500000 5.650000 -3.000000
v 6.500000 5.650000 -3.000000
v 6.500000 10.350000 -3.000000
v -6.500000 10.350000 -3.000000
v 6.500000 5.650000 -9.000000
v -6.500000 5.650000 -9.000000
v -6.500000 10.350000 -9.000000
v 6.500000 10.350000 -9.000000
v 6.500000 5.650000 -3.000000
v 6.500000 5.650000 -9.000000
v 6.500000 10.350000 -9.000000
v 6.500000 10.350000 -3.000000
v -6.500000 5.650000 -9.000000
v -6.500000 5.650000 -3.000000
v -6.500000 10.350000 -3.000000
v -6.500000 10.350000 -9.000000
v -6.500000 10.350000 -3.000000
v 6.500000 10.350000 -3.000000
v 6.500000 10.350000 -9.000000
v -6.500000 10.350000 -9.000000
v -6.500000 5.650000 -9.000000
v 6.500000 5.650000 -9.000000
v 6.500000 5.650000 -3.000000
v -6.500000 5.650000 -3.000000
v -14.500000 10.650000 9.000000
v -6.500000 10.650000 9.000000
v -6.500000 15.350000 9.000000
v -14.500000 15.350000 9.000000
v -6.500000 10.650000 -9.000000
v -14.500000 10.650000 -9.000000
v -14.500000 15.350000 -9.000000
v -6.500000 15.350000 -9.000000
v -6.500000 10.650000 9.000000
v -6.500000 10.650000 -9.000000
v -6.500000 15.350000 -9.000000
v -6.500000 15.350000 9.000000
v -14.500000 10.650000 -9.000000
v -14.500000 10.650000 9.000000
v -14.500000 15.350000 9.000000
v -14.500000 15.350000 -9.000000
v -14.500000 15.350000 9.000000
v -6.500000 15.350000 9.000000
v -6.500000 15.350000 -9.000000
v -14.500000 15.350000 -9.000000
v -14.500000 10.650000 -9.000000
v -6.500000 10.650000 -9.000000
v -6.500000 10.650000 9.000000
v -14.500000 10.650000 9.000000
v 6.500000 10.650000 9.000000
v 14.500000 10.650000 9.000000
v 14.500000 15.350000 9.000000
v 6.500000 15.350000 9.000000
v 14.500000 10.650000 -9.000000
v 6.500000 10.650000 -9.000000
v 6.500000 15.350000 -9.000000
v 14.500000 15.350000 -9.000000
v 14.500000 10.650000 9.000000
v 14.500000 10.650000 -9.000000
v 14.500000 15.350000 -9.000000
v 14.500000 15.350000 9.000000
v 6.500000 10.650000 -9.000000
v 6.500000 10.650000 9.000000
v 6.500000 15.350000 9.000000
v 6.500000 15.350000 -9.000000
v 6.500000 15.350000 9.000000
v 14.500000 15.350000 9.000000
v 14.500000 15.350000 -9.000000
v 6.500000 15.350000 -9.000000
v 6.500000 10.650000 -9.000000
v 14.500000 10.650000 -9.000000
v 14.500000 10.650000 9.000000
v 6.500000 10.650000 9.000000
v -6.500000 10.650000 -3.000000
v 6.500000 10.650000 -3.000000
v 6.500000 15.350000 -3.000000
v -6.500000 15.350000 -3.000000
v 6.500000 10.650000 -9.000000
v -6.500000 10.650000 -9.000000
v -6.500000 15.350000 -9.000000
v 6.500000 15.350000 -9.000000
v 6.500000 10.650000 -3.000000
v 6.500000 10.650000 -9.000000
v 6.500000 15.350000 -9.000000
v 6.500000 15.350000 -3.000000
v -6.500000 10.650000 -9.000000
v -6.500000 10.650000 -3.000000
v -6.500000 15.350000 -3.000000
v -6.500000 15.350000 -9.000000
v -6.500000 15.350000 -3.000000
v 6.500000 15.350000 -3.000000
v 6.500000 15.350000 -9.000000
v -6.500000 15.350000 -9.000000
v -6.500000 10.650000 -9.000000
v 6.500000 10.650000 -9.000000
v 6.500000 10.650000 -3.000000
v -6.500000 10.650000 -3.000000
v -14.500000 15.650000 9.000000
v -6.500000 15.650000 9.000000
v -6.500000 20.350000 9.000000
v -14.500000 20.350000 9.000000
v -6.500000 15.650000 -9.000000
v -14.500000 15.650000 -9.000000
v -14.500000 20.350000 -9.000000
v -6.500000 20.350000 -9.000000
v -6.500000 15.650000 9.000000
v -6.500000 15.650000 -9.000000
v -6.500000 20.350000 -9.000000
v -6.500000 20.350000 9.000000
v -14.500000 15.650000 -9.000000
v -14.500000 15.650000 9.000000
v -14.500000 20.350000 9.000000
v -14.500000 20.350000 -9.000000
v -14.500000 20.350000 9.000000
v -6.500000 20.350000 9.000000
v -6.500000 20.350000 -9.000000
v -14.500000 20.350000 -9.000000
v -14.500000 15.650000 -9.000000
v -6.500000 15.650000 -9.000000
v -6.500000 15.650000 9.000000
v -14.500000 15.650000 9.000000
v 6.500000 15.650000 9.000000
v 14.500000 15.650000 9.000000
v 14.500000 20.350000 9.000000
v 6.500000 20.350000 9.000000
v 14.500000 15.650000 -9.000000
v 6.500000 15.650000 -9.000000
v 6.500000 20.350000 -9.000000
v 14.500000 20.350000 -9.000000
v 14.500000 15.650000 9.000000
v 14.500000 15.650000 -9.000000
v 14.500000 20.350000 -9.000000
v 14.500000 20.350000 9.000000
v 6.500000 15.650000 -9.000000
v 6.500000 15.650000 9.000000
v 6.500000 20.350000 9.000000
v 6.500000 20.350000 -9.000000
v 6.500000 20.350000 9.000000
v 14.500000 20.350000 9.000000
v 14.500000 20.350000 -9.000000
v 6.500000 20.350000 -9.000000
v 6.500000 15.650000 -9.000000
v 14.500000 15.650000 -9.000000
v 14.500000 15.650000 9.000000
v 6.500000 15.650000 9.000000
v -6.500000 15.650000 -3.000000
v 6.500000 15.650000 -3.000000
v 6.500000 20.350000 -3.000000
v -6.500000 20.350000 -3.000000
v 6.500000 15.650000 -9.000000
v -6.500000 15.650000 -9.000000
v -6.500000 20.350000 -9.000000
v 6.500000 20.350000 -9.000000
v 6.500000 15.650000 -3.000000
v 6.500000 15.650000 -9.000000
v 6.500000 20.350000 -9.000000
v 6.500000 20.350000 -3.000000
v -6.500000 15.650000 -9.000000
v -6.500000 15.650000 -3.000000
v -6.500000 20.350000 -3.000000
v -6.500000 20.350000 -9.000000
v -6.500000 20.350000 -3.000000
v 6.500000 20.350000 -3.000000
v 6.500000 20.350000 -9.000000
v -6.500000 20.350000 -9.000000
v -6.500000 15.650000 -9.000000
v 6.500000 15.650000 -9.000000
v 6.500000 15.650000 -3.000000
v -6.500000 15.650000 -3.000000
v -7.000000 6.400000 7.500000
v 7.000000 6.400000 7.500000
v 7.000000 7.600000 7.500000
v -7.000000 7.600000 7.500000
v 7.000000 6.400000 -5.500000
v -7.000000 6.400000 -5.500000
v -7.000000 7.600000 -5.500000
v 7.000000 7.600000 -5.500000
v 7.000000 6.400000 7.500000
v 7.000000 6.400000 -5.500000
v 7.000000 7.600000 -5.500000
v 7.000000 7.600000 7.500000
v -7.000000 6.400000 -5.500000
v -7.000000 6.400000 7.500000
v -7.000000 7.600000 7.500000
v -7.000000 7.600000 -5.500000
v -7.000000 7.600000 7.500000
v 7.000000 7.600000 7.500000
v 7.000000 7.600000 -5.500000
v -7.000000 7.600000 -5.500000
v -7.000000 6.400000 -5.500000
v 7.000000 6.400000 -5.500000
v 7.000000 6.400000 7.500000
v -7.000000 6.400000 7.500000
v -4.000000 6.800000 1.000000
v -3.381966 8.500000 2.902113
v -2.000000 8.500000 1.000000
v -4.000000 10.200000 1.000000
v -2.000000 8.500000 1.000000
v -3.381966 8.500000 2.902113
v -4.000000 6.800000 1.000000
v -5.618034 8.500000 2.175571
v -3.381966 8.500000 2.902113
v -4.000000 10.200000 1.000000
v -3.381966 8.500000 2.902113
v -5.618034 8.500000 2.175571
v -4.000000 6.800000 1.000000
v -5.618034 8.500000 -0.175571
v -5.618034 8.500000 2.175571
v -4.000000 10.200000 1.000000
v -5.618034 8.500000 2.175571
v -5.618034 8.500000 -0.175571
v -4.000000 6.800000 1.000000
v -3.381966 8.500000 -0.902113
v -5.618034 8.500000 -0.175571
v -4.000000 10.200000 1.000000
v -5.618034 8.500000 -0.175571
v -3.381966 8.500000 -0.902113
v -4.000000 6.800000 1.000000
v -2.000000 8.500000 1.000000
v -3.381966 8.500000 -0.902113
v -4.000000 10.200000 1.000000
v -3.381966 8.500000 -0.902113
v -2.000000 8.500000 1.000000
v 0.000000 6.800000 4.000000
v 0.618034 8.500000 5.902113
v 2.000000 8.500000 4.000000
v 0.000000 10.200000 4.000000
v 2.000000 8.500000 4.000000
v 0.618034 8.500000 5.902113
v 0.000000 6.800000 4.000000
v -1.618034 8.500000 5.175571
v 0.618034 8.500000 5.902113
v 0.000000 10.200000 4.000000
v 0.618034 8.500000 5.902113
v -1.618034 8.500000 5.175571
v 0.000000 6.800000 4.000000
v -1.618034 8.500000 2.824429
v -1.618034 8.500000 5.175571
v 0.000000 10.200000 4.000000
v -1.618034 8.500000 5.175571
v -1.618034 8.500000 2.824429
v 0.000000 6.800000 4.000000
v 0.618034 8.500000 2.097887
v -1.618034 8.500000 2.824429
v 0.000000 10.200000 4.000000
v -1.618034 8.500000 2.824429
v 0.618034 8.500000 2.097887
v 0.000000 6.800000 4.000000
v 2.000000 8.500000 4.000000
v 0.618034 8.500000 2.097887
v 0.000000 10.200000 4.000000
v 0.618034 8.500000 2.097887
v 2.000000 8.500000 4.000000
v 4.000000 6.800000 1.000000
v 4.618034 8.500000 2.902113
v 6.000000 8.500000 1.000000
v 4.000000 10.200000 1.000000
v 6.000000 8.500000 1.000000
v 4.618034 8.500000 2.902113
v 4.000000 6.800000 1.000000
v 2.381966 8.500000 2.175571
v 4.618034 8.500000 2.902113
v 4.000000 10.200000 1.000000
v 4.618034 8.500000 2.902113
v 2.381966 8.500000 2.175571
v 4.000000 6.800000 1.000000
v 2.381966 8.500000 -0.175571
v 2.381966 8.500000 2.175571
v 4.000000 10.200000 1.000000
v 2.381966 8.500000 2.175571
v 2.381966 8.500000 -0.175571
v 4.000000 6.800000 1.000000
v 4.618034 8.500000 -0.902113
v 2.381966 8.500000 -0.175571
v 4.000000 10.200000 1.000000
v 2.381966 8.500000 -0.175571
v 4.618034 8.500000 -0.902113
v 4.000000 6.800000 1.000000
v 6.000000 8.500000 1.000000
v 4.618034 8.500000 -0.902113
v 4.000000 10.200000 1.000000
v 4.618034 8.500000 -0.902113
v 6.000000 8.500000 1.000000
v 0.000000 6.800000 -2.000000
v 0.618034 8.500000 -0.097887
v 2.000000 8.500000 -2.000000
v 0.000000 10.200000 -2.000000
v 2.000000 8.500000 -2.000000
v 0.618034 8.500000 -0.097887
v 0.000000 6.800000 -2.000000
v -1.618034 8.500000 -0.824429
v 0.618034 8.500000 -0.097887
v 0.000000 10.200000 -2.000000
v 0.618034 8.500000 -0.097887
v -1.618034 8.500000 -0.824429
v 0.000000 6.800000 -2.000000
v -1.618034 8.500000 -3.175571
v -1.618034 8.500000 -0.824429
v 0.000000 10.200000 -2.000000
v -1.618034 8.500000 -0.824429
v -1.618034 8.500000 -3.175571
v 0.000000 6.800000 -2.000000
v 0.618034 8.500000 -3.902113
v -1.618034 8.500000 -3.175571
v 0.000000 10.200000 -2.000000
v -1.618034 8.500000 -3.175571
v 0.618034 8.500000 -3.902113
v 0.000000 6.800000 -2.000000
v 2.000000 8.500000 -2.000000
v 0.618034 8.500000 -3.902113
v 0.000000 10.200000 -2.000000
v 0.618034 8.500000 -3.902113
v 2.000000 8.500000 -2.000000
v -13.500000 19.250000 7.200000
v 13.500000 19.250000 7.200000
v 13.500000 22.750000 7.200000
v -13.500000 22.750000 7.200000
v 13.500000 19.250000 -8.800000
v -13.500000 19.250000 -8.800000
v -13.500000 22.750000 -8.800000
v 13.500000 22.750000 -8.800000
v 13.500000 19.250000 7.200000
v 13.500000 19.250000 -8.800000
v 13.500000 22.750000 -8.800000
v 13.500000 22.750000 7.200000
v -13.500000 19.250000 -8.800000
v -13.500000 19.250000 7.200000
v -13.500000 22.750000 7.200000
v -13.500000 22.750000 -8.800000
v -13.500000 22.750000 7.200000
v 13.500000 22.750000 7.200000
v 13.500000 22.750000 -8.800000
v -13.500000 22.750000 -8.800000
v -13.500000 19.250000 -8.800000
v 13.500000 19.250000 -8.800000
v 13.500000 19.250000 7.200000
v -13.500000 19.250000 7.200000
v -9.500000 22.500000 1.000000
v 9.500000 22.500000 1.000000
v 9.500000 28.500000 1.000000
v -9.500000 28.500000 1.000000
v 9.500000 22.500000 -9.000000
v -9.500000 22.500000 -9.000000
v -9.500000 28.500000 -9.000000
v 9.500000 28.500000 -9.000000
v 9.500000 22.500000 1.000000
v 9.500000 22.500000 -9.000000
v 9.500000 28.500000 -9.000000
v 9.500000 28.500000 1.000000
v -9.500000 22.500000 -9.000000
v -9.500000 22.500000 1.000000
v -9.500000 28.500000 1.000000
v -9.500000 28.500000 -9.000000
v -9.500000 28.500000 1.000000
v 9.500000 28.500000 1.000000
v 9.500000 28.500000 -9.000000
v -9.500000 28.500000 -9.000000
v -9.500000 22.500000 -9.000000
v 9.500000 22.500000 -9.000000
v 9.500000 22.500000 1.000000
v -9.500000 22.500000 1.000000
v 0.000000 28.500000 -8.000000
v -2.828427 28.500000 -6.828427
v -2.828427 42.000000 -6.828427
v 0.000000 42.000000 -8.000000
v 0.000000 28.500000 -4.000000
v -2.828427 28.500000 -6.828427
v 0.000000 28.500000 -8.000000
v 0.000000 42.000000 -4.000000
v 0.000000 42.000000 -8.000000
v -2.828427 42.000000 -6.828427
v -2.828427 28.500000 -6.828427
v -4.000000 28.500000 -4.000000
v -4.000000 42.000000 -4.000000
v -2.828427 42.000000 -6.828427
v 0.000000 28.500000 -4.000000
v -4.000000 28.500000 -4.000000
v -2.828427 28.500000 -6.828427
v 0.000000 42.000000 -4.000000
v -2.828427 42.000000 -6.828427
v -4.000000 42.000000 -4.000000
v -4.000000 28.500000 -4.000000
v -2.828427 28.500000 -1.171573
v -2.828427 42.000000 -1.171573
v -4.000000 42.000000 -4.000000
v 0.000000 28.500000 -4.000000
v -2.828427 28.500000 -1.171573
v -4.000000 28.500000 -4.000000
v 0.000000 42.000000 -4.000000
v -4.000000 42.000000 -4.000000
v -2.828427 42.000000 -1.171573
v -2.828427 28.500000 -1.171573
v -0.000000 28.500000 0.000000
v -0.000000 42.000000 0.000000
v -2.828427 42.000000 -1.171573
v 0.000000 28.500000 -4.000000
v -0.000000 28.500000 0.000000
v -2.828427 28.500000 -1.171573
v 0.000000 42.000000 -4.000000
v -2.828427 42.000000 -1.171573
v -0.000000 42.000000 0.000000
v -0.000000 28.500000 0.000000
v 2.828427 28.500000 -1.171573
v 2.828427 42.000000 -1.171573
v -0.000000 42.000000 0.000000
v 0.000000 28.500000 -4.000000
v 2.828427 28.500000 -1.171573
v -0.000000 28.500000 0.000000
v 0.000000 42.000000 -4.000000
v -0.000000 42.000000 0.000000
v 2.828427 42.000000 -1.171573
v 2.828427 28.500000 -1.171573
v 4.000000 28.500000 -4.000000
v 4.000000 42.000000 -4.000000
v 2.828427 42.000000 -1.171573
v 0.000000 28.500000 -4.000000
v 4.000000 28.500000 -4.000000
v 2.828427 28.500000 -1.171573
v 0.000000 42.000000 -4.000000
v 2.828427 42.000000 -1.171573
v 4.000000 42.000000 -4.000000
v 4.000000 28.500000 -4.000000
v 2.828427 28.500000 -6.828427
v 2.828427 42.000000 -6.828427
v 4.000000 42.000000 -4.000000
v 0.000000 28.500000 -4.000000
v 2.828427 28.500000 -6.828427
v 4.000000 28.500000 -4.000000
v 0.000000 42.000000 -4.000000
v 4.000000 42.000000 -4.000000
v 2.828427 42.000000 -6.828427
v 2.828427 28.500000 -6.828427
v 0.000000 28.500000 -8.000000
v 0.000000 42.000000 -8.000000
v 2.828427 42.000000 -6.828427
v 0.000000 28.500000 -4.000000
v 0.000000 28.500000 -8.000000
v 2.828427 28.500000 -6.828427
v 0.000000 42.000000 -4.000000
v 2.828427 42.000000 -6.828427
v 0.000000 42.000000 -8.000000
v 4.300000 41.100000 -4.000000
v 3.745672 40.500000 -4.229610
v 2.486231 40.500000 -1.189051
v 3.040559 41.100000 -0.959441
v 4.300000 40.500000 -4.000000
v 3.745672 40.500000 -4.229610
v 4.300000 41.100000 -4.000000
v 3.040559 40.500000 -0.959441
v 3.040559 41.100000 -0.959441
v 2.486231 40.500000 -1.189051
v 3.745672 40.500000 -4.229610
v 4.300000 39.900000 -4.000000
v 3.040559 39.900000 -0.959441
v 2.486231 40.500000 -1.189051
v 4.300000 40.500000 -4.000000
v 4.300000 39.900000 -4.000000
v 3.745672 40.500000 -4.229610
v 3.040559 40.500000 -0.959441
v 2.486231 40.500000 -1.189051
v 3.040559 39.900000 -0.959441
v 4.300000 39.900000 -4.000000
v 4.854328 40.500000 -3.770390
v 3.594887 40.500000 -0.729831
v 3.040559 39.900000 -0.959441
v 4.300000 40.500000 -4.000000
v 4.854328 40.500000 -3.770390
v 4.300000 39.900000 -4.000000
v 3.040559 40.500000 -0.959441
v 3.040559 39.900000 -0.959441
v 3.594887 40.500000 -0.729831
v 4.854328 40.500000 -3.770390
v 4.300000 41.100000 -4.000000
v 3.040559 41.100000 -0.959441
v 3.594887 40.500000 -0.729831
v 4.300000 40.500000 -4.000000
v 4.300000 41.100000 -4.000000
v 4.854328 40.500000 -3.770390
v 3.040559 40.500000 -0.959441
v 3.594887 40.500000 -0.729831
v 3.040559 41.100000 -0.959441
v 2.810949 40.500000 -1.513769
v 3.040559 39.900000 -0.959441
v 0.000000 39.900000 0.300000
v -0.229610 40.500000 -0.254328
v 3.040559 40.500000 -0.959441
v 3.040559 39.900000 -0.959441
v 2.810949 40.500000 -1.513769
v 0.000000 40.500000 0.300000
v -0.229610 40.500000 -0.254328
v 0.000000 39.900000 0.300000
v 3.040559 39.900000 -0.959441
v 3.270169 40.500000 -0.405113
v 0.229610 40.500000 0.854328
v 0.000000 39.900000 0.300000
v 3.040559 40.500000 -0.959441
v 3.270169 40.500000 -0.405113
v 3.040559 39.900000 -0.959441
v 0.000000 40.500000 0.300000
v 0.000000 39.900000 0.300000
v 0.229610 40.500000 0.854328
v 3.270169 40.500000 -0.405113
v 3.040559 41.100000 -0.959441
v 0.000000 41.100000 0.300000
v 0.229610 40.500000 0.854328
v 3.040559 40.500000 -0.959441
v 3.040559 41.100000 -0.959441
v 3.270169 40.500000 -0.405113
v 0.000000 40.500000 0.300000
v 0.229610 40.500000 0.854328
v 0.000000 41.100000 0.300000
v 3.040559 41.100000 -0.959441
v 2.810949 40.500000 -1.513769
v -0.229610 40.500000 -0.254328
v 0.000000 41.100000 0.300000
v 3.040559 40.500000 -0.959441
v 2.810949 40.500000 -1.513769
v 3.040559 41.100000 -0.959441
v 0.000000 40.500000 0.300000
v 0.000000 41.100000 0.300000
v -0.229610 40.500000 -0.254328
v 0.229610 40.500000 -0.254328
v 0.000000 39.900000 0.300000
v -3.040559 39.900000 -0.959441
v -2.810949 40.500000 -1.513769
v 0.000000 40.500000 0.300000
v 0.000000 39.900000 0.300000
v 0.229610 40.500000 -0.254328
v -3.040559 40.500000 -0.959441
v -2.810949 40.500000 -1.513769
v -3.040559 39.900000 -0.959441
v 0.000000 39.900000 0.300000
v -0.229610 40.500000 0.854328
v -3.270169 40.500000 -0.405113
v -3.040559 39.900000 -0.959441
v 0.000000 40.500000 0.300000
v -0.229610 40.500000 0.854328
v 0.000000 39.900000 0.300000
v -3.040559 40.500000 -0.959441
v -3.040559 39.900000 -0.959441
v -3.270169 40.500000 -0.405113
v -0.229610 40.500000 0.854328
v 0.000000 41.100000 0.300000
v -3.040559 41.100000 -0.959441
v -3.270169 40.500000 -0.405113
v 0.000000 40.500000 0.300000
v 0.000000 41.100000 0.300000
v -0.229610 40.500000 0.854328
v -3.040559 40.500000 -0.959441
v -3.270169 40.500000 -0.405113
v -3.040559 41.100000 -0.959441
v 0.000000 41.100000 0.300000
v 0.229610 40.500000 -0.254328
v -2.810949 40.500000 -1.513769
v -3.040559 41.100000 -0.959441
v 0.000000 40.500000 0.300000
v 0.229610 40.500000 -0.254328
v 0.000000 41.100000 0.300000
v -3.040559 40.500000 -0.959441
v -3.040559 41.100000 -0.959441
v -2.810949 40.500000 -1.513769
v -3.040559 39.900000 -0.959441
v -3.594887 40.500000 -0.729831
v -4.854328 40.500000 -3.770390
v -4.300000 39.900000 -4.000000
v -3.040559 40.500000 -0.959441
v -3.594887 40.500000 -0.729831
v -3.040559 39.900000 -0.959441
v -4.300000 40.500000 -4.000000
v -4.300000 39.900000 -4.000000
v -4.854328 40.500000 -3.770390
v -3.594887 40.500000 -0.729831
v -3.040559 41.100000 -0.959441
v -4.300000 41.100000 -4.000000
v -4.854328 40.500000 -3.770390
v -3.040559 40.500000 -0.959441
v -3.040559 41.100000 -0.959441
v -3.594887 40.500000 -0.729831
v -4.300000 40.500000 -4.000000
v -4.854328 40.500000 -3.770390
v -4.300000 41.100000 -4.000000
v -3.040559 41.100000 -0.959441
v -2.486231 40.500000 -1.189051
v -3.745672 40.500000 -4.229610
v -4.300000 41.100000 -4.000000
v -3.040559 40.500000 -0.959441
v -2.486231 40.500000 -1.189051
v -3.040559 41.100000 -0.959441
v -4.300000 40.500000 -4.000000
v -4.300000 41.100000 -4.000000
v -3.745672 40.500000 -4.229610
v -2.486231 40.500000 -1.189051
v -3.040559 39.900000 -0.959441
v -4.300000 39.900000 -4.000000
v -3.745672 40.500000 -4.229610
v -3.040559 40.500000 -0.959441
v -3.040559 39.900000 -0.959441
v -2.486231 40.500000 -1.189051
v -4.300000 40.500000 -4.000000
v -3.745672 40.500000 -4.229610
v -4.300000 39.900000 -4.000000
v -4.300000 39.900000 -4.000000
v -4.854328 40.500000 -4.229610
v -3.594887 40.500000 -7.270169
v -3.040559 39.900000 -7.040559
v -4.300000 40.500000 -4.000000
v -4.854328 40.500000 -4.229610
v -4.300000 39.900000 -4.000000
v -3.040559 40.500000 -7.040559
v -3.040559 39.900000 -7.040559
v -3.594887 40.500000 -7.270169
v -4.854328 40.500000 -4.229610
v -4.300000 41.100000 -4.000000
v -3.040559 41.100000 -7.040559
v -3.594887 40.500000 -7.270169
v -4.300000 40.500000 -4.000000
v -4.300000 41.100000 -4.000000
v -4.854328 40.500000 -4.229610
v -3.040559 40.500000 -7.040559
v -3.594887 40.500000 -7.270169
v -3.040559 41.100000 -7.040559
v -4.300000 41.100000 -4.000000
v -3.745672 40.500000 -3.770390
v -2.486231 40.500000 -6.810949
v -3.040559 41.100000 -7.040559
v -4.300000 40.500000 -4.000000
v -3.745672 40.500000 -3.770390
v -4.300000 41.100000 -4.000000
v -3.040559 40.500000 -7.040559
v -3.040559 41.100000 -7.040559
v -2.486231 40.500000 -6.810949
v -3.745672 40.500000 -3.770390
v -4.300000 39.900000 -4.000000
v -3.040559 39.900000 -7.040559
v -2.486231 40.500000 -6.810949
v -4.300000 40.500000 -4.000000
v -4.300000 39.900000 -4.000000
v -3.745672 40.500000 -3.770390
v -3.040559 40.500000 -7.040559
v -2.486231 40.500000 -6.810949
v -3.040559 39.900000 -7.040559
v -2.810949 40.500000 -6.486231
v -3.040559 39.900000 -7.040559
v -0.000000 39.900000 -8.300000
v 0.229610 40.500000 -7.745672
v -3.040559 40.500000 -7.040559
v -3.040559 39.900000 -7.040559
v -2.810949 40.500000 -6.486231
v -0.000000 40.500000 -8.300000
v 0.229610 40.500000 -7.745672
v -0.000000 39.900000 -8.300000
v -3.040559 39.900000 -7.040559
v -3.270169 40.500000 -7.594887
v -0.229610 40.500000 -8.854328
v -0.000000 39.900000 -8.300000
v -3.040559 40.500000 -7.040559
v -3.270169 40.500000 -7.594887
v -3.040559 39.900000 -7.040559
v -0.000000 40.500000 -8.300000
v -0.000000 39.900000 -8.300000
v -0.229610 40.500000 -8.854328
v -3.270169 40.500000 -7.594887
v -3.040559 41.100000 -7.040559
v -0.000000 41.100000 -8.300000
v -0.229610 40.500000 -8.854328
v -3.040559 40.500000 -7.040559
v -3.040559 41.100000 -7.040559
v -3.270169 40.500000 -7.594887
v -0.000000 40.500000 -8.300000
v -0.229610 40.500000 -8.854328
v -0.000000 41.100000 -8.300000
v -3.040559 41.100000 -7.040559
v -2.810949 40.500000 -6.486231
v 0.229610 40.500000 -7.745672
v -0.000000 41.100000 -8.300000
v -3.040559 40.500000 -7.040559
v -2.810949 40.500000 -6.486231
v -3.040559 41.100000 -7.040559
v -0.000000 40.500000 -8.300000
v -0.000000 41.100000 -8.300000
v 0.229610 40.500000 -7.745672
v -0.229610 40.500000 -7.745672
v -0.000000 39.900000 -8.300000
v 3.040559 39.900000 -7.040559
v 2.810949 40.500000 -6.486231
v -0.000000 40.500000 -8.300000
v -0.000000 39.900000 -8.300000
v -0.229610 40.500000 -7.745672
v 3.040559 40.500000 -7.040559
v 2.810949 40.500000 -6.486231
v 3.040559 39.900000 -7.040559
v -0.000000 39.900000 -8.300000
v 0.229610 40.500000 -8.854328
v 3.270169 40.500000 -7.594887
v 3.040559 39.900000 -7.040559
v -0.000000 40.500000 -8.300000
v 0.229610 40.500000 -8.854328
v -0.000000 39.900000 -8.300000
v 3.040559 40.500000 -7.040559
v 3.040559 39.900000 -7.040559
v 3.270169 40.500000 -7.594887
v 0.229610 40.500000 -8.854328
v -0.000000 41.100000 -8.300000
v 3.040559 41.100000 -7.040559
v 3.270169 40.500000 -7.594887
v -0.000000 40.500000 -8.300000
v -0.000000 41.100000 -8.300000
v 0.229610 40.500000 -8.854328
v 3.040559 40.500000 -7.040559
v 3.270169 40.500000 -7.594887
v 3.040559 41.100000 -7.040559
v -0.000000 41.100000 -8.300000
v -0.229610 40.500000 -7.745672
v 2.810949 40.500000 -6.486231
v 3.040559 41.100000 -7.040559
v -0.000000 40.500000 -8.300000
v -0.229610 40.500000 -7.745672
v -0.000000 41.100000 -8.300000
v 3.040559 40.500000 -7.040559
v 3.040559 41.100000 -7.040559
v 2.810949 40.500000 -6.486231
v 3.040559 41.100000 -7.040559
v 2.486231 40.500000 -6.810949
v 3.745672 40.500000 -3.770390
v 4.300000 41.100000 -4.000000
v 3.040559 40.500000 -7.040559
v 2.486231 40.500000 -6.810949
v 3.040559 41.100000 -7.040559
v 4.300000 40.500000 -4.000000
v 4.300000 41.100000 -4.000000
v 3.745672 40.500000 -3.770390
v 2.486231 40.500000 -6.810949
v 3.040559 39.900000 -7.040559
v 4.300000 39.900000 -4.000000
v 3.745672 40.500000 -3.770390
v 3.040559 40.500000 -7.040559
v 3.040559 39.900000 -7.040559
v 2.486231 40.500000 -6.810949
v 4.300000 40.500000 -4.000000
v 3.745672 40.500000 -3.770390
v 4.300000 39.900000 -4.000000
v 3.040559 39.900000 -7.040559
v 3.594887 40.500000 -7.270169
v 4.854328 40.500000 -4.229610
v 4.300000 39.900000 -4.000000
v 3.040559 40.500000 -7.040559
v 3.594887 40.500000 -7.270169
v 3.040559 39.900000 -7.040559
v 4.300000 40.500000 -4.000000
v 4.300000 39.900000 -4.000000
v 4.854328 40.500000 -4.229610
v 3.594887 40.500000 -7.270169
v 3.040559 41.100000 -7.040559
v 4.300000 41.100000 -4.000000
v 4.854328 40.500000 -4.229610
v 3.040559 40.500000 -7.040559
v 3.040559 41.100000 -7.040559
v 3.594887 40.500000 -7.270169
v 4.300000 40.500000 -4.000000
v 4.854328 40.500000 -4.229610
v 4.300000 41.100000 -4.000000
v -13.000000 10.000000 8.450000
v -13.476314 10.000000 8.725000
v -13.476314 27.000000 8.725000
v -13.000000 27.000000 8.450000
v -13.000000 10.000000 9.000000
v -13.476314 10.000000 8.725000
v -13.000000 10.000000 8.450000
v -13.000000 27.000000 9.000000
v -13.000000 27.000000 8.450000
v -13.476314 27.000000 8.725000
v -13.476314 10.000000 8.725000
v -13.476314 10.000000 9.275000
v -13.476314 27.000000 9.275000
v -13.476314 27.000000 8.725000
v -13.000000 10.000000 9.000000
v -13.476314 10.000000 9.275000
v -13.476314 10.000000 8.725000
v -13.000000 27.000000 9.000000
v -13.476314 27.000000 8.725000
v -13.476314 27.000000 9.275000
v -13.476314 10.000000 9.275000
v -13.000000 10.000000 9.550000
v -13.000000 27.000000 9.550000
v -13.476314 27.000000 9.275000
v -13.000000 10.000000 9.000000
v -13.000000 10.000000 9.550000
v -13.476314 10.000000 9.275000
v -13.000000 27.000000 9.000000
v -13.476314 27.000000 9.275000
v -13.000000 27.000000 9.550000
v -13.000000 10.000000 9.550000
v -12.523686 10.000000 9.275000
v -12.523686 27.000000 9.275000
v -13.000000 27.000000 9.550000
v -13.000000 10.000000 9.000000
v -12.523686 10.000000 9.275000
v -13.000000 10.000000 9.550000
v -13.000000 27.000000 9.000000
v -13.000000 27.000000 9.550000
v -12.523686 27.000000 9.275000
v -12.523686 10.000000 9.275000
v -12.523686 10.000000 8.725000
v -12.523686 27.000000 8.725000
v -12.523686 27.000000 9.275000
v -13.000000 10.000000 9.000000
v -12.523686 10.000000 8.725000
v -12.523686 10.000000 9.275000
v -13.000000 27.000000 9.000000
v -12.523686 27.000000 9.275000
v -12.523686 27.000000 8.725000
v -12.523686 10.000000 8.725000
v -13.000000 10.000000 8.450000
v -13.000000 27.000000 8.450000
v -12.523686 27.000000 8.725000
v -13.000000 10.000000 9.000000
v -13.000000 10.000000 8.450000
v -12.523686 10.000000 8.725000
v -13.000000 27.000000 9.000000
v -12.523686 27.000000 8.725000
v -13.000000 27.000000 8.450000
v -14.900000 7.000000 9.500000
v -11.100000 7.000000 9.500000
v -11.100000 11.000000 9.500000
v -14.900000 11.000000 9.500000
v -11.100000 7.000000 8.500000
v -14.900000 7.000000 8.500000
v -14.900000 11.000000 8.500000
v -11.100000 11.000000 8.500000
v -11.100000 7.000000 9.500000
v -11.100000 7.000000 8.500000
v -11.100000 11.000000 8.500000
v -11.100000 11.000000 9.500000
v -14.900000 7.000000 8.500000
v -14.900000 7.000000 9.500000
v -14.900000 11.000000 9.500000
v -14.900000 11.000000 8.500000
v -14.900000 11.000000 9.500000
v -11.100000 11.000000 9.500000
v -11.100000 11.000000 8.500000
v -14.900000 11.000000 8.500000
v -14.900000 7.000000 8.500000
v -11.100000 7.000000 8.500000
v -11.100000 7.000000 9.500000
v -14.900000 7.000000 9.500000
vt 0.000000 0.000000
vt 1.000000 0.000000
vt 1.000000 1.000000
vt 0.000000 1.000000
vt 0.000000 0.000000
vt 1.000000 0.000000
vt 1.000000 1.000000
vt 0.000000 1.000000
vt 0.000000 0.000000
vt 1.000000 0.000000
vt 1.000000 1.000000
vt 0.000000 1.000000
vt 0.000000 0.000000
vt 1.000000 0.000000
vt 1.000000 1.000000
vt 0.000000 1.000000
vt 0.000000 0.000000
vt 1.000000 0.000000
vt 1.000000 1.000000
vt 0.000000 1.000000
vt 0.000000 0.000000
vt 1.000000 0.000000
vt 1.000000 1.000000
vt 0.000000 1.000000
vt 0.000000 0.000000
vt 1.000000 0.000000
vt 1.000000 1.000000
vt 0.000000 1.000000
vt 0.000000 0.000000
vt 1.000000 0.000000
vt 1.000000 1.000000
vt 0.000000 1.000000
vt 0.000000 0.000000
vt 1.000000 0.000000
vt 1.000000 1.000000
vt 0.000000 1.000000
vt 0.000000 0.000000
vt 1.000000 0.000000
vt 1.000000 1.000000
vt 0.000000 1.000000
vt 0.000000 0.000000
vt 1.000000 0.000000
vt 1.000000 1.000000
vt 0.000000 1.000000
vt 0.000000 0.000000
vt 1.000000 0.000000
vt 1.000000 1.000000
vt 0.000000 1.000000
vt 0.000000 0.000000
vt 1.000000 0.000000
vt 1.000000 1.000000
vt 0.000000 1.000000
vt 0.000000 0.000000
vt 1.000000 0.000000
vt 1.000000 1.000000
vt 0.000000 1.000000
vt 0.000000 0.000000
vt 1.000000 0.000000
vt 1.000000 1.000000
vt 0.000000 1.000000
vt 0.000000 0.000000
vt 1.000000 0.000000
vt 1.000000 1.000000
vt 0.000000 1.000000
vt 0.000000 0.000000
vt 1.000000 0.000000
vt 1.000000 1.000000
vt 0.000000 1.000000
vt 0.000000 0.000000
vt 1.000000 0.000000
vt 1.000000 1.000000
vt 0.000000 1.000000
vt 0.000000 0.000000
vt 1.000000 0.000000
vt 1.000000 1.000000
vt 0.000000 1.000000
vt 0.000000 0.000000
vt 1.000000 0.000000
vt 1.000000 1.000000
vt 0.000000 1.000000
vt 0.000000 0.000000
vt 1.000000 0.000000
vt 1.000000 1.000000
vt 0.000000 1.000000
vt 0.000000 0.000000
vt 1.000000 0.000000
vt 1.000000 1.000000
vt 0.000000 1.000000
vt 0.000000 0.000000
vt 1.000000 0.000000
vt 1.000000 1.000000
vt 0.000000 1.000000
vt 0.000000 0.000000
vt 1.000000 0.000000
vt 1.000000 1.000000
vt 0.000000 1.000000
vt 0.000000 0.000000
vt 1.000000 0.000000
vt 1.000000 1.000000
vt 0.000000 1.000000
vt 0.000000 0.000000
vt 1.000000 0.000000
vt 1.000000 1.000000
vt 0.000000 1.000000
vt 0.000000 0.000000
vt 1.000000 0.000000
vt 1.000000 1.000000
vt 0.000000 1.000000
vt 0.000000 0.000000
vt 1.000000 0.000000
vt 1.000000 1.000000
vt 0.000000 1.000000
vt 0.000000 0.000000
vt 1.000000 0.000000
vt 1.000000 1.000000
vt 0.000000 1.000000
vt 0.000000 0.000000
vt 1.000000 0.000000
vt 1.000000 1.000000
vt 0.000000 1.000000
vt 0.000000 0.000000
vt 1.000000 0.000000
vt 1.000000 1.000000
vt 0.000000 1.000000
vt 0.000000 0.000000
vt 1.000000 0.000000
vt 1.000000 1.000000
vt 0.000000 1.000000
vt 0.000000 0.000000
vt 1.000000 0.000000
vt 1.000000 1.000000
vt 0.000000 1.000000
vt 0.000000 0.000000
vt 1.000000 0.000000
vt 1.000000 1.000000
vt 0.000000 1.000000
vt 0.000000 0.000000
vt 1.000000 0.000000
vt 1.000000 1.000000
vt 0.000000 1.000000
vt 0.000000 0.000000
vt 1.000000 0.000000
vt 1.000000 1.000000
vt 0.000000 1.000000
vt 0.000000 0.000000
vt 1.000000 0.000000
vt 1.000000 1.000000
vt 0.000000 1.000000
vt 0.000000 0.000000
vt 1.000000 0.000000
vt 1.000000 1.000000
vt 0.000000 1.000000
vt 0.000000 0.000000
vt 1.000000 0.000000
vt 1.000000 1.000000
vt 0.000000 1.000000
vt 0.000000 0.000000
vt 1.000000 0.000000
vt 1.000000 1.000000
vt 0.000000 1.000000
vt 0.000000 0.000000
vt 1.000000 0.000000
vt 1.000000 1.000000
vt 0.000000 1.000000
vt 0.000000 0.000000
vt 1.000000 0.000000
vt 1.000000 1.000000
vt 0.000000 1.000000
vt 0.000000 0.000000
vt 1.000000 0.000000
vt 1.000000 1.000000
vt 0.000000 1.000000
vt 0.000000 0.000000
vt 1.000000 0.000000
vt 1.000000 1.000000
vt 0.000000 1.000000
vt 0.000000 0.000000
vt 1.000000 0.000000
vt 1.000000 1.000000
vt 0.000000 1.000000
vt 0.000000 0.000000
vt 1.000000 0.000000
vt 1.000000 1.000000
vt 0.000000 1.000000
vt 0.000000 0.000000
vt 1.000000 0.000000
vt 1.000000 1.000000
vt 0.000000 1.000000
vt 0.000000 0.000000
vt 1.000000 0.000000
vt 1.000000 1.000000
vt 0.000000 1.000000
vt 0.000000 0.000000
vt 1.000000 0.000000
vt 1.000000 1.000000
vt 0.000000 1.000000
vt 0.000000 0.000000
vt 1.000000 0.000000
vt 1.000000 1.000000
vt 0.000000 1.000000
vt 0.000000 0.000000
vt 1.000000 0.000000
vt 1.000000 1.000000
vt 0.000000 1.000000
vt 0.000000 0.000000
vt 1.000000 0.000000
vt 1.000000 1.000000
vt 0.000000 1.000000
vt 0.000000 0.000000
vt 1.000000 0.000000
vt 1.000000 1.000000
vt 0.000000 1.000000
vt 0.000000 0.000000
vt 1.000000 0.000000
vt 1.000000 1.000000
vt 0.000000 1.000000
vt 0.000000 0.000000
vt 1.000000 0.000000
vt 1.000000 1.000000
vt 0.000000 1.000000
vt 0.000000 0.000000
vt 1.000000 0.000000
vt 1.000000 1.000000
vt 0.000000 1.000000
vt 0.000000 0.000000
vt 1.000000 0.000000
vt 1.000000 1.000000
vt 0.000000 1.000000
vt 0.000000 0.000000
vt 1.000000 0.000000
vt 1.000000 1.000000
vt 0.000000 1.000000
vt 0.000000 0.000000
vt 1.000000 0.000000
vt 1.000000 1.000000
vt 0.000000 1.000000
vt 0.000000 0.000000
vt 1.000000 0.000000
vt 1.000000 1.000000
vt 0.000000 1.000000
vt 0.000000 0.000000
vt 1.000000 0.000000
vt 1.000000 1.000000
vt 0.000000 1.000000
vt 0.000000 0.000000
vt 1.000000 0.000000
vt 1.000000 1.000000
vt 0.000000 1.000000
vt 0.000000 0.000000
vt 1.000000 0.000000
vt 1.000000 1.000000
vt 0.000000 1.000000
vt 0.000000 0.000000
vt 1.000000 0.000000
vt 1.000000 1.000000
vt 0.000000 1.000000
vt 0.000000 0.000000
vt 1.000000 0.000000
vt 1.000000 1.000000
vt 0.000000 1.000000
vt 0.000000 0.000000
vt 1.000000 0.000000
vt 1.000000 1.000000
vt 0.000000 1.000000
vt 0.500000 1.000000
vt 0.000000 0.000000
vt 1.000000 0.000000
vt 0.500000 1.000000
vt 0.000000 0.000000
vt 1.000000 0.000000
vt 0.500000 1.000000
vt 0.000000 0.000000
vt 1.000000 0.000000
vt 0.500000 1.000000
vt 0.000000 0.000000
vt 1.000000 0.000000
vt 0.500000 1.000000
vt 0.000000 0.000000
vt 1.000000 0.000000
vt 0.500000 1.000000
vt 0.000000 0.000000
vt 1.000000 0.000000
vt 0.500000 1.000000
vt 0.000000 0.000000
vt 1.000000 0.000000
vt 0.500000 1.000000
vt 0.000000 0.000000
vt 1.000000 0.000000
vt 0.500000 1.000000
vt 0.000000 0.000000
vt 1.000000 0.000000
vt 0.500000 1.000000
vt 0.000000 0.000000
vt 1.000000 0.000000
vt 0.500000 1.000000
vt 0.000000 0.000000
vt 1.000000 0.000000
vt 0.500000 1.000000
vt 0.000000 0.000000
vt 1.000000 0.000000
vt 0.500000 1.000000
vt 0.000000 0.000000
vt 1.000000 0.000000
vt 0.500000 1.000000
vt 0.000000 0.000000
vt 1.000000 0.000000
vt 0.500000 1.000000
vt 0.000000 0.000000
vt 1.000000 0.000000
vt 0.500000 1.000000
vt 0.000000 0.000000
vt 1.000000 0.000000
vt 0.500000 1.000000
vt 0.000000 0.000000
vt 1.000000 0.000000
vt 0.500000 1.000000
vt 0.000000 0.000000
vt 1.000000 0.000000
vt 0.500000 1.000000
vt 0.000000 0.000000
vt 1.000000 0.000000
vt 0.500000 1.000000
vt 0.000000 0.000000
vt 1.000000 0.000000
vt 0.500000 1.000000
vt 0.000000 0.000000
vt 1.000000 0.000000
vt 0.500000 1.000000
vt 0.000000 0.000000
vt 1.000000 0.000000
vt 0.500000 1.000000
vt 0.000000 0.000000
vt 1.000000 0.000000
vt 0.500000 1.000000
vt 0.000000 0.000000
vt 1.000000 0.000000
vt 0.500000 1.000000
vt 0.000000 0.000000
vt 1.000000 0.000000
vt 0.500000 1.000000
vt 0.000000 0.000000
vt 1.000000 0.000000
vt 0.500000 1.000000
vt 0.000000 0.000000
vt 1.000000 0.000000
vt 0.500000 1.000000
vt 0.000000 0.000000
vt 1.000000 0.000000
vt 0.500000 1.000000
vt 0.000000 0.000000
vt 1.000000 0.000000
vt 0.500000 1.000000
vt 0.000000 0.000000
vt 1.000000 0.000000
vt 0.500000 1.000000
vt 0.000000 0.000000
vt 1.000000 0.000000
vt 0.500000 1.000000
vt 0.000000 0.000000
vt 1.000000 0.000000
vt 0.500000 1.000000
vt 0.000000 0.000000
vt 1.000000 0.000000
vt 0.500000 1.000000
vt 0.000000 0.000000
vt 1.000000 0.000000
vt 0.500000 1.000000
vt 0.000000 0.000000
vt 1.000000 0.000000
vt 0.500000 1.000000
vt 0.000000 0.000000
vt 1.000000 0.000000
vt 0.500000 1.000000
vt 0.000000 0.000000
vt 1.000000 0.000000
vt 0.500000 1.000000
vt 0.000000 0.000000
vt 1.000000 0.000000
vt 0.500000 1.000000
vt 0.000000 0.000000
vt 1.000000 0.000000
vt 0.500000 1.000000
vt 0.000000 0.000000
vt 1.000000 0.000000
vt 0.000000 0.000000
vt 1.000000 0.000000
vt 1.000000 1.000000
vt 0.000000 1.000000
vt 0.000000 0.000000
vt 1.000000 0.000000
vt 1.000000 1.000000
vt 0.000000 1.000000
vt 0.000000 0.000000
vt 1.000000 0.000000
vt 1.000000 1.000000
vt 0.000000 1.000000
vt 0.000000 0.000000
vt 1.000000 0.000000
vt 1.000000 1.000000
vt 0.000000 1.000000
vt 0.000000 0.000000
vt 1.000000 0.000000
vt 1.000000 1.000000
vt 0.000000 1.000000
vt 0.000000 0.000000
vt 1.000000 0.000000
vt 1.000000 1.000000
vt 0.000000 1.000000
vt 0.000000 0.000000
vt 1.000000 0.000000
vt 1.000000 1.000000
vt 0.000000 1.000000
vt 0.000000 0.000000
vt 1.000000 0.000000
vt 1.000000 1.000000
vt 0.000000 1.000000
vt 0.000000 0.000000
vt 1.000000 0.000000
vt 1.000000 1.000000
vt 0.000000 1.000000
vt 0.000000 0.000000
vt 1.000000 0.000000
vt 1.000000 1.000000
vt 0.000000 1.000000
vt 0.000000 0.000000
vt 1.000000 0.000000
vt 1.000000 1.000000
vt 0.000000 1.000000
vt 0.000000 0.000000
vt 1.000000 0.000000
vt 1.000000 1.000000
vt 0.000000 1.000000
vt 0.000000 0.000000
vt 1.000000 0.000000
vt 1.000000 1.000000
vt 0.000000 1.000000
vt 0.500000 1.000000
vt 0.000000 0.000000
vt 1.000000 0.000000
vt 0.500000 1.000000
vt 0.000000 0.000000
vt 1.000000 0.000000
vt 0.000000 0.000000
vt 1.000000 0.000000
vt 1.000000 1.000000
vt 0.000000 1.000000
vt 0.500000 1.000000
vt 0.000000 0.000000
vt 1.000000 0.000000
vt 0.500000 1.000000
vt 0.000000 0.000000
vt 1.000000 0.000000
vt 0.000000 0.000000
vt 1.000000 0.000000
vt 1.000000 1.000000
vt 0.000000 1.000000
vt 0.500000 1.000000
vt 0.000000 0.000000
vt 1.000000 0.000000
vt 0.500000 1.000000
vt 0.000000 0.000000
vt 1.000000 0.000000
vt 0.000000 0.000000
vt 1.000000 0.000000
vt 1.000000 1.000000
vt 0.000000 1.000000
vt 0.500000 1.000000
vt 0.000000 0.000000
vt 1.000000 0.000000
vt 0.500000 1.000000
vt 0.000000 0.000000
vt 1.000000 0.000000
vt 0.000000 0.000000
vt 1.000000 0.000000
vt 1.000000 1.000000
vt 0.000000 1.000000
vt 0.500000 1.000000
vt 0.000000 0.000000
vt 1.000000 0.000000
vt 0.500000 1.000000
vt 0.000000 0.000000
vt 1.000000 0.000000
vt 0.000000 0.000000
vt 1.000000 0.000000
vt 1.000000 1.000000
vt 0.000000 1.000000
vt 0.500000 1.000000
vt 0.000000 0.000000
vt 1.000000 0.000000
vt 0.500000 1.000000
vt 0.000000 0.000000
vt 1.000000 0.000000
vt 0.000000 0.000000
vt 1.000000 0.000000
vt 1.000000 1.000000
vt 0.000000 1.000000
vt 0.500000 1.000000
vt 0.000000 0.000000
vt 1.000000 0.000000
vt 0.500000 1.000000
vt 0.000000 0.000000
vt 1.000000 0.000000
vt 0.000000 0.000000
vt 1.000000 0.000000
vt 1.000000 1.000000
vt 0.000000 1.000000
vt 0.500000 1.000000
vt 0.000000 0.000000
vt 1.000000 0.000000
vt 0.500000 1.000000
vt 0.000000 0.000000
vt 1.000000 0.000000
vt 0.000000 0.000000
vt 1.000000 0.000000
vt 1.000000 1.000000
vt 0.000000 1.000000
vt 0.500000 1.000000
vt 0.000000 0.000000
vt 1.000000 0.000000
vt 0.500000 1.000000
vt 0.000000 0.000000
vt 1.000000 0.000000
vt 0.000000 0.000000
vt 1.000000 0.000000
vt 1.000000 1.000000
vt 0.000000 1.000000
vt 0.500000 1.000000
vt 0.000000 0.000000
vt 1.000000 0.000000
vt 0.500000 1.000000
vt 0.000000 0.000000
vt 1.000000 0.000000
vt 0.000000 0.000000
vt 1.000000 0.000000
vt 1.000000 1.000000
vt 0.000000 1.000000
vt 0.500000 1.000000
vt 0.000000 0.000000
vt 1.000000 0.000000
vt 0.500000 1.000000
vt 0.000000 0.000000
vt 1.000000 0.000000
vt 0.000000 0.000000
vt 1.000000 0.000000
vt 1.000000 1.000000
vt 0.000000 1.000000
vt 0.500000 1.000000
vt 0.000000 0.000000
vt 1.000000 0.000000
vt 0.500000 1.000000
vt 0.000000 0.000000
vt 1.000000 0.000000
vt 0.000000 0.000000
vt 1.000000 0.000000
vt 1.000000 1.000000
vt 0.000000 1.000000
vt 0.500000 1.000000
vt 0.000000 0.000000
vt 1.000000 0.000000
vt 0.500000 1.000000
vt 0.000000 0.000000
vt 1.000000 0.000000
vt 0.000000 0.000000
vt 1.000000 0.000000
vt 1.000000 1.000000
vt 0.000000 1.000000
vt 0.500000 1.000000
vt 0.000000 0.000000
vt 1.000000 0.000000
vt 0.500000 1.000000
vt 0.000000 0.000000
vt 1.000000 0.000000
vt 0.000000 0.000000
vt 1.000000 0.000000
vt 1.000000 1.000000
vt 0.000000 1.000000
vt 0.500000 1.000000
vt 0.000000 0.000000
vt 1.000000 0.000000
vt 0.500000 1.000000
vt 0.000000 0.000000
vt 1.000000 0.000000
vt 0.000000 0.000000
vt 1.000000 0.000000
vt 1.000000 1.000000
vt 0.000000 1.000000
vt 0.500000 1.000000
vt 0.000000 0.000000
vt 1.000000 0.000000
vt 0.500000 1.000000
vt 0.000000 0.000000
vt 1.000000 0.000000
vt 0.000000 0.000000
vt 1.000000 0.000000
vt 1.000000 1.000000
vt 0.000000 1.000000
vt 0.500000 1.000000
vt 0.000000 0.000000
vt 1.000000 0.000000
vt 0.500000 1.000000
vt 0.000000 0.000000
vt 1.000000 0.000000
vt 0.000000 0.000000
vt 1.000000 0.000000
vt 1.000000 1.000000
vt 0.000000 1.000000
vt 0.500000 1.000000
vt 0.000000 0.000000
vt 1.000000 0.000000
vt 0.500000 1.000000
vt 0.000000 0.000000
vt 1.000000 0.000000
vt 0.000000 0.000000
vt 1.000000 0.000000
vt 1.000000 1.000000
vt 0.000000 1.000000
vt 0.500000 1.000000
vt 0.000000 0.000000
vt 1.000000 0.000000
vt 0.500000 1.000000
vt 0.000000 0.000000
vt 1.000000 0.000000
vt 0.000000 0.000000
vt 1.000000 0.000000
vt 1.000000 1.000000
vt 0.000000 1.000000
vt 0.500000 1.000000
vt 0.000000 0.000000
vt 1.000000 0.000000
vt 0.500000 1.000000
vt 0.000000 0.000000
vt 1.000000 0.000000
vt 0.000000 0.000000
vt 1.000000 0.000000
vt 1.000000 1.000000
vt 0.000000 1.000000
vt 0.500000 1.000000
vt 0.000000 0.000000
vt 1.000000 0.000000
vt 0.500000 1.000000
vt 0.000000 0.000000
vt 1.000000 0.000000
vt 0.000000 0.000000
vt 1.000000 0.000000
vt 1.000000 1.000000
vt 0.000000 1.000000
vt 0.500000 1.000000
vt 0.000000 0.000000
vt 1.000000 0.000000
vt 0.500000 1.000000
vt 0.000000 0.000000
vt 1.000000 0.000000
vt 0.000000 0.000000
vt 1.000000 0.000000
vt 1.000000 1.000000
vt 0.000000 1.000000
vt 0.500000 1.000000
vt 0.000000 0.000000
vt 1.000000 0.000000
vt 0.500000 1.000000
vt 0.000000 0.000000
vt 1.000000 0.000000
vt 0.000000 0.000000
vt 1.000000 0.000000
vt 1.000000 1.000000
vt 0.000000 1.000000
vt 0.500000 1.000000
vt 0.000000 0.000000
vt 1.000000 0.000000
vt 0.500000 1.000000
vt 0.000000 0.000000
vt 1.000000 0.000000
vt 0.000000 0.000000
vt 1.000000 0.000000
vt 1.000000 1.000000
vt 0.000000 1.000000
vt 0.500000 1.000000
vt 0.000000 0.000000
vt 1.000000 0.000000
vt 0.500000 1.000000
vt 0.000000 0.000000
vt 1.000000 0.000000
vt 0.000000 0.000000
vt 1.000000 0.000000
vt 1.000000 1.000000
vt 0.000000 1.000000
vt 0.500000 1.000000
vt 0.000000 0.000000
vt 1.000000 0.000000
vt 0.500000 1.000000
vt 0.000000 0.000000
vt 1.000000 0.000000
vt 0.000000 0.000000
vt 1.000000 0.000000
vt 1.000000 1.000000
vt 0.000000 1.000000
vt 0.500000 1.000000
vt 0.000000 0.000000
vt 1.000000 0.000000
vt 0.500000 1.000000
vt 0.000000 0.000000
vt 1.000000 0.000000
vt 0.000000 0.000000
vt 1.000000 0.000000
vt 1.000000 1.000000
vt 0.000000 1.000000
vt 0.500000 1.000000
vt 0.000000 0.000000
vt 1.000000 0.000000
vt 0.500000 1.000000
vt 0.000000 0.000000
vt 1.000000 0.000000
vt 0.000000 0.000000
vt 1.000000 0.000000
vt 1.000000 1.000000
vt 0.000000 1.000000
vt 0.500000 1.000000
vt 0.000000 0.000000
vt 1.000000 0.000000
vt 0.500000 1.000000
vt 0.000000 0.000000
vt 1.000000 0.000000
vt 0.000000 0.000000
vt 1.000000 0.000000
vt 1.000000 1.000000
vt 0.000000 1.000000
vt 0.500000 1.000000
vt 0.000000 0.000000
vt 1.000000 0.000000
vt 0.500000 1.000000
vt 0.000000 0.000000
vt 1.000000 0.000000
vt 0.000000 0.000000
vt 1.000000 0.000000
vt 1.000000 1.000000
vt 0.000000 1.000000
vt 0.500000 1.000000
vt 0.000000 0.000000
vt 1.000000 0.000000
vt 0.500000 1.000000
vt 0.000000 0.000000
vt 1.000000 0.000000
vt 0.000000 0.000000
vt 1.000000 0.000000
vt 1.000000 1.000000
vt 0.000000 1.000000
vt 0.500000 1.000000
vt 0.000000 0.000000
vt 1.000000 0.000000
vt 0.500000 1.000000
vt 0.000000 0.000000
vt 1.000000 0.000000
vt 0.000000 0.000000
vt 1.000000 0.000000
vt 1.000000 1.000000
vt 0.000000 1.000000
vt 0.500000 1.000000
vt 0.000000 0.000000
vt 1.000000 0.000000
vt 0.500000 1.000000
vt 0.000000 0.000000
vt 1.000000 0.000000
vt 0.000000 0.000000
vt 1.000000 0.000000
vt 1.000000 1.000000
vt 0.000000 1.000000
vt 0.500000 1.000000
vt 0.000000 0.000000
vt 1.000000 0.000000
vt 0.500000 1.000000
vt 0.000000 0.000000
vt 1.000000 0.000000
vt 0.000000 0.000000
vt 1.000000 0.000000
vt 1.000000 1.000000
vt 0.000000 1.000000
vt 0.500000 1.000000
vt 0.000000 0.000000
vt 1.000000 0.000000
vt 0.500000 1.000000
vt 0.000000 0.000000
vt 1.000000 0.000000
vt 0.000000 0.000000
vt 1.000000 0.000000
vt 1.000000 1.000000
vt 0.000000 1.000000
vt 0.500000 1.000000
vt 0.000000 0.000000
vt 1.000000 0.000000
vt 0.500000 1.000000
vt 0.000000 0.000000
vt 1.000000 0.000000
vt 0.000000 0.000000
vt 1.000000 0.000000
vt 1.000000 1.000000
vt 0.000000 1.000000
vt 0.500000 1.000000
vt 0.000000 0.000000
vt 1.000000 0.000000
vt 0.500000 1.000000
vt 0.000000 0.000000
vt 1.000000 0.000000
vt 0.000000 0.000000
vt 1.000000 0.000000
vt 1.000000 1.000000
vt 0.000000 1.000000
vt 0.500000 1.000000
vt 0.000000 0.000000
vt 1.000000 0.000000
vt 0.500000 1.000000
vt 0.000000 0.000000
vt 1.000000 0.000000
vt 0.000000 0.000000
vt 1.000000 0.000000
vt 1.000000 1.000000
vt 0.000000 1.000000
vt 0.500000 1.000000
vt 0.000000 0.000000
vt 1.000000 0.000000
vt 0.500000 1.000000
vt 0.000000 0.000000
vt 1.000000 0.000000
vt 0.000000 0.000000
vt 1.000000 0.000000
vt 1.000000 1.000000
vt 0.000000 1.000000
vt 0.500000 1.000000
vt 0.000000 0.000000
vt 1.000000 0.000000
vt 0.500000 1.000000
vt 0.000000 0.000000
vt 1.000000 0.000000
vt 0.000000 0.000000
vt 1.000000 0.000000
vt 1.000000 1.000000
vt 0.000000 1.000000
vt 0.500000 1.000000
vt 0.000000 0.000000
vt 1.000000 0.000000
vt 0.500000 1.000000
vt 0.000000 0.000000
vt 1.000000 0.000000
vt 0.000000 0.000000
vt 1.000000 0.000000
vt 1.000000 1.000000
vt 0.000000 1.000000
vt 0.500000 1.000000
vt 0.000000 0.000000
vt 1.000000 0.000000
vt 0.500000 1.000000
vt 0.000000 0.000000
vt 1.000000 0.000000
vt 0.000000 0.000000
vt 1.000000 0.000000
vt 1.000000 1.000000
vt 0.000000 1.000000
vt 0.500000 1.000000
vt 0.000000 0.000000
vt 1.000000 0.000000
vt 0.500000 1.000000
vt 0.000000 0.000000
vt 1.000000 0.000000
vt 0.000000 0.000000
vt 1.000000 0.000000
vt 1.000000 1.000000
vt 0.000000 1.000000
vt 0.500000 1.000000
vt 0.000000 0.000000
vt 1.000000 0.000000
vt 0.500000 1.000000
vt 0.000000 0.000000
vt 1.000000 0.000000
vt 0.000000 0.000000
vt 1.000000 0.000000
vt 1.000000 1.000000
vt 0.000000 1.000000
vt 0.500000 1.000000
vt 0.000000 0.000000
vt 1.000000 0.000000
vt 0.500000 1.000000
vt 0.000000 0.000000
vt 1.000000 0.000000
vt 0.000000 0.000000
vt 1.000000 0.000000
vt 1.000000 1.000000
vt 0.000000 1.000000
vt 0.500000 1.000000
vt 0.000000 0.000000
vt 1.000000 0.000000
vt 0.500000 1.000000
vt 0.000000 0.000000
vt 1.000000 0.000000
vt 0.000000 0.000000
vt 1.000000 0.000000
vt 1.000000 1.000000
vt 0.000000 1.000000
vt 0.000000 0.000000
vt 1.000000 0.000000
vt 1.000000 1.000000
vt 0.000000 1.000000
vt 0.000000 0.000000
vt 1.000000 0.000000
vt 1.000000 1.000000
vt 0.000000 1.000000
vt 0.000000 0.000000
vt 1.000000 0.000000
vt 1.000000 1.000000
vt 0.000000 1.000000
vt 0.000000 0.000000
vt 1.000000 0.000000
vt 1.000000 1.000000
vt 0.000000 1.000000
vt 0.000000 0.000000
vt 1.000000 0.000000
vt 1.000000 1.000000
vt 0.000000 1.000000
s 1
usemtl models/caelum/props/stations/ca_station_stone.png
f 1/1 2/2 3/3 4/4
f 5/5 6/6 7/7 8/8
f 9/9 10/10 11/11 12/12
f 13/13 14/14 15/15 16/16
f 17/17 18/18 19/19 20/20
f 21/21 22/22 23/23 24/24
f 25/25 26/26 27/27 28/28
f 29/29 30/30 31/31 32/32
f 33/33 34/34 35/35 36/36
f 37/37 38/38 39/39 40/40
f 41/41 42/42 43/43 44/44
f 45/45 46/46 47/47 48/48
f 49/49 50/50 51/51 52/52
f 53/53 54/54 55/55 56/56
f 57/57 58/58 59/59 60/60
f 61/61 62/62 63/63 64/64
f 65/65 66/66 67/67 68/68
f 69/69 70/70 71/71 72/72
f 73/73 74/74 75/75 76/76
f 77/77 78/78 79/79 80/80
f 81/81 82/82 83/83 84/84
f 85/85 86/86 87/87 88/88
f 89/89 90/90 91/91 92/92
f 93/93 94/94 95/95 96/96
f 97/97 98/98 99/99 100/100
f 101/101 102/102 103/103 104/104
f 105/105 106/106 107/107 108/108
f 109/109 110/110 111/111 112/112
f 113/113 114/114 115/115 116/116
f 117/117 118/118 119/119 120/120
f 121/121 122/122 123/123 124/124
f 125/125 126/126 127/127 128/128
f 129/129 130/130 131/131 132/132
f 133/133 134/134 135/135 136/136
f 137/137 138/138 139/139 140/140
f 141/141 142/142 143/143 144/144
f 145/145 146/146 147/147 148/148
f 149/149 150/150 151/151 152/152
f 153/153 154/154 155/155 156/156
f 157/157 158/158 159/159 160/160
f 161/161 162/162 163/163 164/164
f 165/165 166/166 167/167 168/168
f 169/169 170/170 171/171 172/172
f 173/173 174/174 175/175 176/176
f 177/177 178/178 179/179 180/180
f 181/181 182/182 183/183 184/184
f 185/185 186/186 187/187 188/188
f 189/189 190/190 191/191 192/192
f 193/193 194/194 195/195 196/196
f 197/197 198/198 199/199 200/200
f 201/201 202/202 203/203 204/204
f 205/205 206/206 207/207 208/208
f 209/209 210/210 211/211 212/212
f 213/213 214/214 215/215 216/216
f 217/217 218/218 219/219 220/220
f 221/221 222/222 223/223 224/224
f 225/225 226/226 227/227 228/228
f 229/229 230/230 231/231 232/232
f 233/233 234/234 235/235 236/236
f 237/237 238/238 239/239 240/240
usemtl models/caelum/props/stations/ca_station_iron.png
f 241/241 242/242 243/243 244/244
f 245/245 246/246 247/247 248/248
f 249/249 250/250 251/251 252/252
f 253/253 254/254 255/255 256/256
f 257/257 258/258 259/259 260/260
f 261/261 262/262 263/263 264/264
usemtl models/caelum/props/stations/ca_station_ember.png
f 265/265 266/266 267/267
f 268/268 269/269 270/270
f 271/271 272/272 273/273
f 274/274 275/275 276/276
f 277/277 278/278 279/279
f 280/280 281/281 282/282
f 283/283 284/284 285/285
f 286/286 287/287 288/288
f 289/289 290/290 291/291
f 292/292 293/293 294/294
f 295/295 296/296 297/297
f 298/298 299/299 300/300
f 301/301 302/302 303/303
f 304/304 305/305 306/306
f 307/307 308/308 309/309
f 310/310 311/311 312/312
f 313/313 314/314 315/315
f 316/316 317/317 318/318
f 319/319 320/320 321/321
f 322/322 323/323 324/324
f 325/325 326/326 327/327
f 328/328 329/329 330/330
f 331/331 332/332 333/333
f 334/334 335/335 336/336
f 337/337 338/338 339/339
f 340/340 341/341 342/342
f 343/343 344/344 345/345
f 346/346 347/347 348/348
f 349/349 350/350 351/351
f 352/352 353/353 354/354
f 355/355 356/356 357/357
f 358/358 359/359 360/360
f 361/361 362/362 363/363
f 364/364 365/365 366/366
f 367/367 368/368 369/369
f 370/370 371/371 372/372
f 373/373 374/374 375/375
f 376/376 377/377 378/378
f 379/379 380/380 381/381
f 382/382 383/383 384/384
usemtl models/caelum/props/stations/ca_station_stone.png
f 385/385 386/386 387/387 388/388
f 389/389 390/390 391/391 392/392
f 393/393 394/394 395/395 396/396
f 397/397 398/398 399/399 400/400
f 401/401 402/402 403/403 404/404
f 405/405 406/406 407/407 408/408
f 409/409 410/410 411/411 412/412
f 413/413 414/414 415/415 416/416
f 417/417 418/418 419/419 420/420
f 421/421 422/422 423/423 424/424
f 425/425 426/426 427/427 428/428
f 429/429 430/430 431/431 432/432
usemtl models/caelum/props/stations/ca_station_iron.png
f 433/433 434/434 435/435 436/436
f 437/437 438/438 439/439
f 440/440 441/441 442/442
f 443/443 444/444 445/445 446/446
f 447/447 448/448 449/449
f 450/450 451/451 452/452
f 453/453 454/454 455/455 456/456
f 457/457 458/458 459/459
f 460/460 461/461 462/462
f 463/463 464/464 465/465 466/466
f 467/467 468/468 469/469
f 470/470 471/471 472/472
f 473/473 474/474 475/475 476/476
f 477/477 478/478 479/479
f 480/480 481/481 482/482
f 483/483 484/484 485/485 486/486
f 487/487 488/488 489/489
f 490/490 491/491 492/492
f 493/493 494/494 495/495 496/496
f 497/497 498/498 499/499
f 500/500 501/501 502/502
f 503/503 504/504 505/505 506/506
f 507/507 508/508 509/509
f 510/510 511/511 512/512
f 513/513 514/514 515/515 516/516
f 517/517 518/518 519/519
f 520/520 521/521 522/522
f 523/523 524/524 525/525 526/526
f 527/527 528/528 529/529
f 530/530 531/531 532/532
f 533/533 534/534 535/535 536/536
f 537/537 538/538 539/539
f 540/540 541/541 542/542
f 543/543 544/544 545/545 546/546
f 547/547 548/548 549/549
f 550/550 551/551 552/552
f 553/553 554/554 555/555 556/556
f 557/557 558/558 559/559
f 560/560 561/561 562/562
f 563/563 564/564 565/565 566/566
f 567/567 568/568 569/569
f 570/570 571/571 572/572
f 573/573 574/574 575/575 576/576
f 577/577 578/578 579/579
f 580/580 581/581 582/582
f 583/583 584/584 585/585 586/586
f 587/587 588/588 589/589
f 590/590 591/591 592/592
f 593/593 594/594 595/595 596/596
f 597/597 598/598 599/599
f 600/600 601/601 602/602
f 603/603 604/604 605/605 606/606
f 607/607 608/608 609/609
f 610/610 611/611 612/612
f 613/613 614/614 615/615 616/616
f 617/617 618/618 619/619
f 620/620 621/621 622/622
f 623/623 624/624 625/625 626/626
f 627/627 628/628 629/629
f 630/630 631/631 632/632
f 633/633 634/634 635/635 636/636
f 637/637 638/638 639/639
f 640/640 641/641 642/642
f 643/643 644/644 645/645 646/646
f 647/647 648/648 649/649
f 650/650 651/651 652/652
f 653/653 654/654 655/655 656/656
f 657/657 658/658 659/659
f 660/660 661/661 662/662
f 663/663 664/664 665/665 666/666
f 667/667 668/668 669/669
f 670/670 671/671 672/672
f 673/673 674/674 675/675 676/676
f 677/677 678/678 679/679
f 680/680 681/681 682/682
f 683/683 684/684 685/685 686/686
f 687/687 688/688 689/689
f 690/690 691/691 692/692
f 693/693 694/694 695/695 696/696
f 697/697 698/698 699/699
f 700/700 701/701 702/702
f 703/703 704/704 705/705 706/706
f 707/707 708/708 709/709
f 710/710 711/711 712/712
f 713/713 714/714 715/715 716/716
f 717/717 718/718 719/719
f 720/720 721/721 722/722
f 723/723 724/724 725/725 726/726
f 727/727 728/728 729/729
f 730/730 731/731 732/732
f 733/733 734/734 735/735 736/736
f 737/737 738/738 739/739
f 740/740 741/741 742/742
f 743/743 744/744 745/745 746/746
f 747/747 748/748 749/749
f 750/750 751/751 752/752
f 753/753 754/754 755/755 756/756
f 757/757 758/758 759/759
f 760/760 761/761 762/762
f 763/763 764/764 765/765 766/766
f 767/767 768/768 769/769
f 770/770 771/771 772/772
f 773/773 774/774 775/775 776/776
f 777/777 778/778 779/779
f 780/780 781/781 782/782
f 783/783 784/784 785/785 786/786
f 787/787 788/788 789/789
f 790/790 791/791 792/792
f 793/793 794/794 795/795 796/796
f 797/797 798/798 799/799
f 800/800 801/801 802/802
f 803/803 804/804 805/805 806/806
f 807/807 808/808 809/809
f 810/810 811/811 812/812
f 813/813 814/814 815/815 816/816
f 817/817 818/818 819/819
f 820/820 821/821 822/822
f 823/823 824/824 825/825 826/826
f 827/827 828/828 829/829
f 830/830 831/831 832/832
usemtl models/caelum/props/stations/ca_station_wood.png
f 833/833 834/834 835/835 836/836
f 837/837 838/838 839/839
f 840/840 841/841 842/842
f 843/843 844/844 845/845 846/846
f 847/847 848/848 849/849
f 850/850 851/851 852/852
f 853/853 854/854 855/855 856/856
f 857/857 858/858 859/859
f 860/860 861/861 862/862
f 863/863 864/864 865/865 866/866
f 867/867 868/868 869/869
f 870/870 871/871 872/872
f 873/873 874/874 875/875 876/876
f 877/877 878/878 879/879
f 880/880 881/881 882/882
f 883/883 884/884 885/885 886/886
f 887/887 888/888 889/889
f 890/890 891/891 892/892
usemtl models/caelum/props/stations/ca_station_iron.png
f 893/893 894/894 895/895 896/896
f 897/897 898/898 899/899 900/900
f 901/901 902/902 903/903 904/904
f 905/905 906/906 907/907 908/908
f 909/909 910/910 911/911 912/912
f 913/913 914/914 915/915 916/916
