# Modelo original generado para Caelum Argenteum.
# Ejes OBJ: X ancho, Y altura, Z profundidad.
o CaelumStation_anvil
v 0.000000 0.000000 -11.500000
v -6.759530 0.000000 -9.303695
v -5.877853 13.000000 -8.090170
v 0.000000 13.000000 -10.000000
v 0.000000 0.000000 0.000000
v -6.759530 0.000000 -9.303695
v 0.000000 0.000000 -11.500000
v 0.000000 13.000000 0.000000
v 0.000000 13.000000 -10.000000
v -5.877853 13.000000 -8.090170
v -6.759530 0.000000 -9.303695
v -10.937150 0.000000 -3.553695
v -9.510565 13.000000 -3.090170
v -5.877853 13.000000 -8.090170
v 0.000000 0.000000 0.000000
v -10.937150 0.000000 -3.553695
v -6.759530 0.000000 -9.303695
v 0.000000 13.000000 0.000000
v -5.877853 13.000000 -8.090170
v -9.510565 13.000000 -3.090170
v -10.937150 0.000000 -3.553695
v -10.937150 0.000000 3.553695
v -9.510565 13.000000 3.090170
v -9.510565 13.000000 -3.090170
v 0.000000 0.000000 0.000000
v -10.937150 0.000000 3.553695
v -10.937150 0.000000 -3.553695
v 0.000000 13.000000 0.000000
v -9.510565 13.000000 -3.090170
v -9.510565 13.000000 3.090170
v -10.937150 0.000000 3.553695
v -6.759530 0.000000 9.303695
v -5.877853 13.000000 8.090170
v -9.510565 13.000000 3.090170
v 0.000000 0.000000 0.000000
v -6.759530 0.000000 9.303695
v -10.937150 0.000000 3.553695
v 0.000000 13.000000 0.000000
v -9.510565 13.000000 3.090170
v -5.877853 13.000000 8.090170
v -6.759530 0.000000 9.303695
v -0.000000 0.000000 11.500000
v -0.000000 13.000000 10.000000
v -5.877853 13.000000 8.090170
v 0.000000 0.000000 0.000000
v -0.000000 0.000000 11.500000
v -6.759530 0.000000 9.303695
v 0.000000 13.000000 0.000000
v -5.877853 13.000000 8.090170
v -0.000000 13.000000 10.000000
v -0.000000 0.000000 11.500000
v 6.759530 0.000000 9.303695
v 5.877853 13.000000 8.090170
v -0.000000 13.000000 10.000000
v 0.000000 0.000000 0.000000
v 6.759530 0.000000 9.303695
v -0.000000 0.000000 11.500000
v 0.000000 13.000000 0.000000
v -0.000000 13.000000 10.000000
v 5.877853 13.000000 8.090170
v 6.759530 0.000000 9.303695
v 10.937150 0.000000 3.553695
v 9.510565 13.000000 3.090170
v 5.877853 13.000000 8.090170
v 0.000000 0.000000 0.000000
v 10.937150 0.000000 3.553695
v 6.759530 0.000000 9.303695
v 0.000000 13.000000 0.000000
v 5.877853 13.000000 8.090170
v 9.510565 13.000000 3.090170
v 10.937150 0.000000 3.553695
v 10.937150 0.000000 -3.553695
v 9.510565 13.000000 -3.090170
v 9.510565 13.000000 3.090170
v 0.000000 0.000000 0.000000
v 10.937150 0.000000 -3.553695
v 10.937150 0.000000 3.553695
v 0.000000 13.000000 0.000000
v 9.510565 13.000000 3.090170
v 9.510565 13.000000 -3.090170
v 10.937150 0.000000 -3.553695
v 6.759530 0.000000 -9.303695
v 5.877853 13.000000 -8.090170
v 9.510565 13.000000 -3.090170
v 0.000000 0.000000 0.000000
v 6.759530 0.000000 -9.303695
v 10.937150 0.000000 -3.553695
v 0.000000 13.000000 0.000000
v 9.510565 13.000000 -3.090170
v 5.877853 13.000000 -8.090170
v 6.759530 0.000000 -9.303695
v 0.000000 0.000000 -11.500000
v 0.000000 13.000000 -10.000000
v 5.877853 13.000000 -8.090170
v 0.000000 0.000000 0.000000
v 0.000000 0.000000 -11.500000
v 6.759530 0.000000 -9.303695
v 0.000000 13.000000 0.000000
v 5.877853 13.000000 -8.090170
v 0.000000 13.000000 -10.000000
v 11.300000 3.500000 0.000000
v 10.824472 3.000000 -0.154508
v 8.666364 3.000000 6.487465
v 9.141892 3.500000 6.641973
v 11.300000 3.000000 0.000000
v 10.824472 3.000000 -0.154508
v 11.300000 3.500000 0.000000
v 9.141892 3.000000 6.641973
v 9.141892 3.500000 6.641973
v 8.666364 3.000000 6.487465
v 10.824472 3.000000 -0.154508
v 11.300000 2.500000 -0.000000
v 9.141892 2.500000 6.641973
v 8.666364 3.000000 6.487465
v 11.300000 3.000000 0.000000
v 11.300000 2.500000 -0.000000
v 10.824472 3.000000 -0.154508
v 9.141892 3.000000 6.641973
v 8.666364 3.000000 6.487465
v 9.141892 2.500000 6.641973
v 11.300000 2.500000 -0.000000
v 11.775528 3.000000 0.154508
v 9.617420 3.000000 6.796482
v 9.141892 2.500000 6.641973
v 11.300000 3.000000 0.000000
v 11.775528 3.000000 0.154508
v 11.300000 2.500000 -0.000000
v 9.141892 3.000000 6.641973
v 9.141892 2.500000 6.641973
v 9.617420 3.000000 6.796482
v 11.775528 3.000000 0.154508
v 11.300000 3.500000 0.000000
v 9.141892 3.500000 6.641973
v 9.617420 3.000000 6.796482
v 11.300000 3.000000 0.000000
v 11.300000 3.500000 0.000000
v 11.775528 3.000000 0.154508
v 9.141892 3.000000 6.641973
v 9.617420 3.000000 6.796482
v 9.141892 3.500000 6.641973
v 9.141892 3.500000 6.641973
v 8.847999 3.000000 6.237465
v 3.197999 3.000000 10.342430
v 3.491892 3.500000 10.746939
v 9.141892 3.000000 6.641973
v 8.847999 3.000000 6.237465
v 9.141892 3.500000 6.641973
v 3.491892 3.000000 10.746939
v 3.491892 3.500000 10.746939
v 3.197999 3.000000 10.342430
v 8.847999 3.000000 6.237465
v 9.141892 2.500000 6.641973
v 3.491892 2.500000 10.746939
v 3.197999 3.000000 10.342430
v 9.141892 3.000000 6.641973
v 9.141892 2.500000 6.641973
v 8.847999 3.000000 6.237465
v 3.491892 3.000000 10.746939
v 3.197999 3.000000 10.342430
v 3.491892 2.500000 10.746939
v 9.141892 2.500000 6.641973
v 9.435785 3.000000 7.046482
v 3.785785 3.000000 11.151447
v 3.491892 2.500000 10.746939
v 9.141892 3.000000 6.641973
v 9.435785 3.000000 7.046482
v 9.141892 2.500000 6.641973
v 3.491892 3.000000 10.746939
v 3.491892 2.500000 10.746939
v 3.785785 3.000000 11.151447
v 9.435785 3.000000 7.046482
v 9.141892 3.500000 6.641973
v 3.491892 3.500000 10.746939
v 3.785785 3.000000 11.151447
v 9.141892 3.000000 6.641973
v 9.141892 3.500000 6.641973
v 9.435785 3.000000 7.046482
v 3.491892 3.000000 10.746939
v 3.785785 3.000000 11.151447
v 3.491892 3.500000 10.746939
v 3.491892 3.000000 10.246939
v 3.491892 2.500000 10.746939
v -3.491892 2.500000 10.746939
v -3.491892 3.000000 10.246939
v 3.491892 3.000000 10.746939
v 3.491892 2.500000 10.746939
v 3.491892 3.000000 10.246939
v -3.491892 3.000000 10.746939
v -3.491892 3.000000 10.246939
v -3.491892 2.500000 10.746939
v 3.491892 2.500000 10.746939
v 3.491892 3.000000 11.246939
v -3.491892 3.000000 11.246939
v -3.491892 2.500000 10.746939
v 3.491892 3.000000 10.746939
v 3.491892 3.000000 11.246939
v 3.491892 2.500000 10.746939
v -3.491892 3.000000 10.746939
v -3.491892 2.500000 10.746939
v -3.491892 3.000000 11.246939
v 3.491892 3.000000 11.246939
v 3.491892 3.500000 10.746939
v -3.491892 3.500000 10.746939
v -3.491892 3.000000 11.246939
v 3.491892 3.000000 10.746939
v 3.491892 3.500000 10.746939
v 3.491892 3.000000 11.246939
v -3.491892 3.000000 10.746939
v -3.491892 3.000000 11.246939
v -3.491892 3.500000 10.746939
v 3.491892 3.500000 10.746939
v 3.491892 3.000000 10.246939
v -3.491892 3.000000 10.246939
v -3.491892 3.500000 10.746939
v 3.491892 3.000000 10.746939
v 3.491892 3.000000 10.246939
v 3.491892 3.500000 10.746939
v -3.491892 3.000000 10.746939
v -3.491892 3.500000 10.746939
v -3.491892 3.000000 10.246939
v -3.491892 2.500000 10.746939
v -3.785785 3.000000 11.151447
v -9.435785 3.000000 7.046482
v -9.141892 2.500000 6.641973
v -3.491892 3.000000 10.746939
v -3.785785 3.000000 11.151447
v -3.491892 2.500000 10.746939
v -9.141892 3.000000 6.641973
v -9.141892 2.500000 6.641973
v -9.435785 3.000000 7.046482
v -3.785785 3.000000 11.151447
v -3.491892 3.500000 10.746939
v -9.141892 3.500000 6.641973
v -9.435785 3.000000 7.046482
v -3.491892 3.000000 10.746939
v -3.491892 3.500000 10.746939
v -3.785785 3.000000 11.151447
v -9.141892 3.000000 6.641973
v -9.435785 3.000000 7.046482
v -9.141892 3.500000 6.641973
v -3.491892 3.500000 10.746939
v -3.197999 3.000000 10.342430
v -8.847999 3.000000 6.237465
v -9.141892 3.500000 6.641973
v -3.491892 3.000000 10.746939
v -3.197999 3.000000 10.342430
v -3.491892 3.500000 10.746939
v -9.141892 3.000000 6.641973
v -9.141892 3.500000 6.641973
v -8.847999 3.000000 6.237465
v -3.197999 3.000000 10.342430
v -3.491892 2.500000 10.746939
v -9.141892 2.500000 6.641973
v -8.847999 3.000000 6.237465
v -3.491892 3.000000 10.746939
v -3.491892 2.500000 10.746939
v -3.197999 3.000000 10.342430
v -9.141892 3.000000 6.641973
v -8.847999 3.000000 6.237465
v -9.141892 2.500000 6.641973
v -9.141892 2.500000 6.641973
v -9.617420 3.000000 6.796482
v -11.775528 3.000000 0.154508
v -11.300000 2.500000 0.000000
v -9.141892 3.000000 6.641973
v -9.617420 3.000000 6.796482
v -9.141892 2.500000 6.641973
v -11.300000 3.000000 0.000000
v -11.300000 2.500000 0.000000
v -11.775528 3.000000 0.154508
v -9.617420 3.000000 6.796482
v -9.141892 3.500000 6.641973
v -11.300000 3.500000 0.000000
v -11.775528 3.000000 0.154508
v -9.141892 3.000000 6.641973
v -9.141892 3.500000 6.641973
v -9.617420 3.000000 6.796482
v -11.300000 3.000000 0.000000
v -11.775528 3.000000 0.154508
v -11.300000 3.500000 0.000000
v -9.141892 3.500000 6.641973
v -8.666364 3.000000 6.487465
v -10.824472 3.000000 -0.154508
v -11.300000 3.500000 0.000000
v -9.141892 3.000000 6.641973
v -8.666364 3.000000 6.487465
v -9.141892 3.500000 6.641973
v -11.300000 3.000000 0.000000
v -11.300000 3.500000 0.000000
v -10.824472 3.000000 -0.154508
v -8.666364 3.000000 6.487465
v -9.141892 2.500000 6.641973
v -11.300000 2.500000 0.000000
v -10.824472 3.000000 -0.154508
v -9.141892 3.000000 6.641973
v -9.141892 2.500000 6.641973
v -8.666364 3.000000 6.487465
v -11.300000 3.000000 0.000000
v -10.824472 3.000000 -0.154508
v -11.300000 2.500000 0.000000
v -11.300000 2.500000 0.000000
v -11.775528 3.000000 -0.154508
v -9.617420 3.000000 -6.796482
v -9.141892 2.500000 -6.641973
v -11.300000 3.000000 0.000000
v -11.775528 3.000000 -0.154508
v -11.300000 2.500000 0.000000
v -9.141892 3.000000 -6.641973
v -9.141892 2.500000 -6.641973
v -9.617420 3.000000 -6.796482
v -11.775528 3.000000 -0.154508
v -11.300000 3.500000 0.000000
v -9.141892 3.500000 -6.641973
v -9.617420 3.000000 -6.796482
v -11.300000 3.000000 0.000000
v -11.300000 3.500000 0.000000
v -11.775528 3.000000 -0.154508
v -9.141892 3.000000 -6.641973
v -9.617420 3.000000 -6.796482
v -9.141892 3.500000 -6.641973
v -11.300000 3.500000 0.000000
v -10.824472 3.000000 0.154508
v -8.666364 3.000000 -6.487465
v -9.141892 3.500000 -6.641973
v -11.300000 3.000000 0.000000
v -10.824472 3.000000 0.154508
v -11.300000 3.500000 0.000000
v -9.141892 3.000000 -6.641973
v -9.141892 3.500000 -6.641973
v -8.666364 3.000000 -6.487465
v -10.824472 3.000000 0.154508
v -11.300000 2.500000 0.000000
v -9.141892 2.500000 -6.641973
v -8.666364 3.000000 -6.487465
v -11.300000 3.000000 0.000000
v -11.300000 2.500000 0.000000
v -10.824472 3.000000 0.154508
v -9.141892 3.000000 -6.641973
v -8.666364 3.000000 -6.487465
v -9.141892 2.500000 -6.641973
v -9.141892 2.500000 -6.641973
v -9.435785 3.000000 -7.046482
v -3.785785 3.000000 -11.151447
v -3.491892 2.500000 -10.746939
v -9.141892 3.000000 -6.641973
v -9.435785 3.000000 -7.046482
v -9.141892 2.500000 -6.641973
v -3.491892 3.000000 -10.746939
v -3.491892 2.500000 -10.746939
v -3.785785 3.000000 -11.151447
v -9.435785 3.000000 -7.046482
v -9.141892 3.500000 -6.641973
v -3.491892 3.500000 -10.746939
v -3.785785 3.000000 -11.151447
v -9.141892 3.000000 -6.641973
v -9.141892 3.500000 -6.641973
v -9.435785 3.000000 -7.046482
v -3.491892 3.000000 -10.746939
v -3.785785 3.000000 -11.151447
v -3.491892 3.500000 -10.746939
v -9.141892 3.500000 -6.641973
v -8.847999 3.000000 -6.237465
v -3.197999 3.000000 -10.342430
v -3.491892 3.500000 -10.746939
v -9.141892 3.000000 -6.641973
v -8.847999 3.000000 -6.237465
v -9.141892 3.500000 -6.641973
v -3.491892 3.000000 -10.746939
v -3.491892 3.500000 -10.746939
v -3.197999 3.000000 -10.342430
v -8.847999 3.000000 -6.237465
v -9.141892 2.500000 -6.641973
v -3.491892 2.500000 -10.746939
v -3.197999 3.000000 -10.342430
v -9.141892 3.000000 -6.641973
v -9.141892 2.500000 -6.641973
v -8.847999 3.000000 -6.237465
v -3.491892 3.000000 -10.746939
v -3.197999 3.000000 -10.342430
v -3.491892 2.500000 -10.746939
v -3.491892 3.000000 -10.246939
v -3.491892 2.500000 -10.746939
v 3.491892 2.500000 -10.746939
v 3.491892 3.000000 -10.246939
v -3.491892 3.000000 -10.746939
v -3.491892 2.500000 -10.746939
v -3.491892 3.000000 -10.246939
v 3.491892 3.000000 -10.746939
v 3.491892 3.000000 -10.246939
v 3.491892 2.500000 -10.746939
v -3.491892 2.500000 -10.746939
v -3.491892 3.000000 -11.246939
v 3.491892 3.000000 -11.246939
v 3.491892 2.500000 -10.746939
v -3.491892 3.000000 -10.746939
v -3.491892 3.000000 -11.246939
v -3.491892 2.500000 -10.746939
v 3.491892 3.000000 -10.746939
v 3.491892 2.500000 -10.746939
v 3.491892 3.000000 -11.246939
v -3.491892 3.000000 -11.246939
v -3.491892 3.500000 -10.746939
v 3.491892 3.500000 -10.746939
v 3.491892 3.000000 -11.246939
v -3.491892 3.000000 -10.746939
v -3.491892 3.500000 -10.746939
v -3.491892 3.000000 -11.246939
v 3.491892 3.000000 -10.746939
v 3.491892 3.000000 -11.246939
v 3.491892 3.500000 -10.746939
v -3.491892 3.500000 -10.746939
v -3.491892 3.000000 -10.246939
v 3.491892 3.000000 -10.246939
v 3.491892 3.500000 -10.746939
v -3.491892 3.000000 -10.746939
v -3.491892 3.000000 -10.246939
v -3.491892 3.500000 -10.746939
v 3.491892 3.000000 -10.746939
v 3.491892 3.500000 -10.746939
v 3.491892 3.000000 -10.246939
v 3.491892 3.500000 -10.746939
v 3.197999 3.000000 -10.342430
v 8.847999 3.000000 -6.237465
v 9.141892 3.500000 -6.641973
v 3.491892 3.000000 -10.746939
v 3.197999 3.000000 -10.342430
v 3.491892 3.500000 -10.746939
v 9.141892 3.000000 -6.641973
v 9.141892 3.500000 -6.641973
v 8.847999 3.000000 -6.237465
v 3.197999 3.000000 -10.342430
v 3.491892 2.500000 -10.746939
v 9.141892 2.500000 -6.641973
v 8.847999 3.000000 -6.237465
v 3.491892 3.000000 -10.746939
v 3.491892 2.500000 -10.746939
v 3.197999 3.000000 -10.342430
v 9.141892 3.000000 -6.641973
v 8.847999 3.000000 -6.237465
v 9.141892 2.500000 -6.641973
v 3.491892 2.500000 -10.746939
v 3.785785 3.000000 -11.151447
v 9.435785 3.000000 -7.046482
v 9.141892 2.500000 -6.641973
v 3.491892 3.000000 -10.746939
v 3.785785 3.000000 -11.151447
v 3.491892 2.500000 -10.746939
v 9.141892 3.000000 -6.641973
v 9.141892 2.500000 -6.641973
v 9.435785 3.000000 -7.046482
v 3.785785 3.000000 -11.151447
v 3.491892 3.500000 -10.746939
v 9.141892 3.500000 -6.641973
v 9.435785 3.000000 -7.046482
v 3.491892 3.000000 -10.746939
v 3.491892 3.500000 -10.746939
v 3.785785 3.000000 -11.151447
v 9.141892 3.000000 -6.641973
v 9.435785 3.000000 -7.046482
v 9.141892 3.500000 -6.641973
v 9.141892 3.500000 -6.641973
v 8.666364 3.000000 -6.487465
v 10.824472 3.000000 0.154508
v 11.300000 3.500000 -0.000000
v 9.141892 3.000000 -6.641973
v 8.666364 3.000000 -6.487465
v 9.141892 3.500000 -6.641973
v 11.300000 3.000000 -0.000000
v 11.300000 3.500000 -0.000000
v 10.824472 3.000000 0.154508
v 8.666364 3.000000 -6.487465
v 9.141892 2.500000 -6.641973
v 11.300000 2.500000 -0.000000
v 10.824472 3.000000 0.154508
v 9.141892 3.000000 -6.641973
v 9.141892 2.500000 -6.641973
v 8.666364 3.000000 -6.487465
v 11.300000 3.000000 -0.000000
v 10.824472 3.000000 0.154508
v 11.300000 2.500000 -0.000000
v 9.141892 2.500000 -6.641973
v 9.617420 3.000000 -6.796482
v 11.775528 3.000000 -0.154508
v 11.300000 2.500000 -0.000000
v 9.141892 3.000000 -6.641973
v 9.617420 3.000000 -6.796482
v 9.141892 2.500000 -6.641973
v 11.300000 3.000000 -0.000000
v 11.300000 2.500000 -0.000000
v 11.775528 3.000000 -0.154508
v 9.617420 3.000000 -6.796482
v 9.141892 3.500000 -6.641973
v 11.300000 3.500000 -0.000000
v 11.775528 3.000000 -0.154508
v 9.141892 3.000000 -6.641973
v 9.141892 3.500000 -6.641973
v 9.617420 3.000000 -6.796482
v 11.300000 3.000000 -0.000000
v 11.775528 3.000000 -0.154508
v 11.300000 3.500000 -0.000000
v -9.000000 12.500000 5.000000
v 9.000000 12.500000 5.000000
v 9.000000 15.500000 5.000000
v -9.000000 15.500000 5.000000
v 9.000000 12.500000 -5.000000
v -9.000000 12.500000 -5.000000
v -9.000000 15.500000 -5.000000
v 9.000000 15.500000 -5.000000
v 9.000000 12.500000 5.000000
v 9.000000 12.500000 -5.000000
v 9.000000 15.500000 -5.000000
v 9.000000 15.500000 5.000000
v -9.000000 12.500000 -5.000000
v -9.000000 12.500000 5.000000
v -9.000000 15.500000 5.000000
v -9.000000 15.500000 -5.000000
v -9.000000 15.500000 5.000000
v 9.000000 15.500000 5.000000
v 9.000000 15.500000 -5.000000
v -9.000000 15.500000 -5.000000
v -9.000000 12.500000 -5.000000
v 9.000000 12.500000 -5.000000
v 9.000000 12.500000 5.000000
v -9.000000 12.500000 5.000000
v -4.500000 15.500000 3.000000
v 4.500000 15.500000 3.000000
v 4.500000 20.500000 3.000000
v -4.500000 20.500000 3.000000
v 4.500000 15.500000 -3.000000
v -4.500000 15.500000 -3.000000
v -4.500000 20.500000 -3.000000
v 4.500000 20.500000 -3.000000
v 4.500000 15.500000 3.000000
v 4.500000 15.500000 -3.000000
v 4.500000 20.500000 -3.000000
v 4.500000 20.500000 3.000000
v -4.500000 15.500000 -3.000000
v -4.500000 15.500000 3.000000
v -4.500000 20.500000 3.000000
v -4.500000 20.500000 -3.000000
v -4.500000 20.500000 3.000000
v 4.500000 20.500000 3.000000
v 4.500000 20.500000 -3.000000
v -4.500000 20.500000 -3.000000
v -4.500000 15.500000 -3.000000
v 4.500000 15.500000 -3.000000
v 4.500000 15.500000 3.000000
v -4.500000 15.500000 3.000000
v -9.000000 20.000000 5.000000
v 9.000000 20.000000 5.000000
v 9.000000 24.000000 5.000000
v -9.000000 24.000000 5.000000
v 9.000000 20.000000 -5.000000
v -9.000000 20.000000 -5.000000
v -9.000000 24.000000 -5.000000
v 9.000000 24.000000 -5.000000
v 9.000000 20.000000 5.000000
v 9.000000 20.000000 -5.000000
v 9.000000 24.000000 -5.000000
v 9.000000 24.000000 5.000000
v -9.000000 20.000000 -5.000000
v -9.000000 20.000000 5.000000
v -9.000000 24.000000 5.000000
v -9.000000 24.000000 -5.000000
v -9.000000 24.000000 5.000000
v 9.000000 24.000000 5.000000
v 9.000000 24.000000 -5.000000
v -9.000000 24.000000 -5.000000
v -9.000000 20.000000 -5.000000
v 9.000000 20.000000 -5.000000
v 9.000000 20.000000 5.000000
v -9.000000 20.000000 5.000000
v 9.000000 22.000000 3.800000
v 9.205280 18.715512 1.900000
v 17.024310 22.111048 0.225000
v 17.000000 22.500000 0.450000
v 9.000000 22.000000 0.000000
v 9.205280 18.715512 1.900000
v 9.000000 22.000000 3.800000
v 17.000000 22.500000 0.000000
v 17.000000 22.500000 0.450000
v 17.024310 22.111048 0.225000
v 9.205280 18.715512 1.900000
v 9.205280 18.715512 -1.900000
v 17.024310 22.111048 -0.225000
v 17.024310 22.111048 0.225000
v 9.000000 22.000000 0.000000
v 9.205280 18.715512 -1.900000
v 9.205280 18.715512 1.900000
v 17.000000 22.500000 0.000000
v 17.024310 22.111048 0.225000
v 17.024310 22.111048 -0.225000
v 9.205280 18.715512 -1.900000
v 9.000000 22.000000 -3.800000
v 17.000000 22.500000 -0.450000
v 17.024310 22.111048 -0.225000
v 9.000000 22.000000 0.000000
v 9.000000 22.000000 -3.800000
v 9.205280 18.715512 -1.900000
v 17.000000 22.500000 0.000000
v 17.024310 22.111048 -0.225000
v 17.000000 22.500000 -0.450000
v 9.000000 22.000000 -3.800000
v 8.794720 25.284488 -1.900000
v 16.975690 22.888952 -0.225000
v 17.000000 22.500000 -0.450000
v 9.000000 22.000000 0.000000
v 8.794720 25.284488 -1.900000
v 9.000000 22.000000 -3.800000
v 17.000000 22.500000 0.000000
v 17.000000 22.500000 -0.450000
v 16.975690 22.888952 -0.225000
v 8.794720 25.284488 -1.900000
v 8.794720 25.284488 1.900000
v 16.975690 22.888952 0.225000
v 16.975690 22.888952 -0.225000
v 9.000000 22.000000 0.000000
v 8.794720 25.284488 1.900000
v 8.794720 25.284488 -1.900000
v 17.000000 22.500000 0.000000
v 16.975690 22.888952 -0.225000
v 16.975690 22.888952 0.225000
v 8.794720 25.284488 1.900000
v 9.000000 22.000000 3.800000
v 17.000000 22.500000 0.450000
v 16.975690 22.888952 0.225000
v 9.000000 22.000000 0.000000
v 9.000000 22.000000 3.800000
v 8.794720 25.284488 1.900000
v 17.000000 22.500000 0.000000
v 16.975690 22.888952 0.225000
v 17.000000 22.500000 0.450000
v -13.500000 20.250000 3.500000
v -8.500000 20.250000 3.500000
v -8.500000 23.750000 3.500000
v -13.500000 23.750000 3.500000
v -8.500000 20.250000 -3.500000
v -13.500000 20.250000 -3.500000
v -13.500000 23.750000 -3.500000
v -8.500000 23.750000 -3.500000
v -8.500000 20.250000 3.500000
v -8.500000 20.250000 -3.500000
v -8.500000 23.750000 -3.500000
v -8.500000 23.750000 3.500000
v -13.500000 20.250000 -3.500000
v -13.500000 20.250000 3.500000
v -13.500000 23.750000 3.500000
v -13.500000 23.750000 -3.500000
v -13.500000 23.750000 3.500000
v -8.500000 23.750000 3.500000
v -8.500000 23.750000 -3.500000
v -13.500000 23.750000 -3.500000
v -13.500000 20.250000 -3.500000
v -8.500000 20.250000 -3.500000
v -8.500000 20.250000 3.500000
v -13.500000 20.250000 3.500000
v -2.000000 24.950000 -3.000000
v -2.389711 24.725000 -3.000000
v -2.389711 24.725000 4.000000
v -2.000000 24.950000 4.000000
v -2.000000 24.500000 -3.000000
v -2.389711 24.725000 -3.000000
v -2.000000 24.950000 -3.000000
v -2.000000 24.500000 4.000000
v -2.000000 24.950000 4.000000
v -2.389711 24.725000 4.000000
v -2.389711 24.725000 -3.000000
v -2.389711 24.275000 -3.000000
v -2.389711 24.275000 4.000000
v -2.389711 24.725000 4.000000
v -2.000000 24.500000 -3.000000
v -2.389711 24.275000 -3.000000
v -2.389711 24.725000 -3.000000
v -2.000000 24.500000 4.000000
v -2.389711 24.725000 4.000000
v -2.389711 24.275000 4.000000
v -2.389711 24.275000 -3.000000
v -2.000000 24.050000 -3.000000
v -2.000000 24.050000 4.000000
v -2.389711 24.275000 4.000000
v -2.000000 24.500000 -3.000000
v -2.000000 24.050000 -3.000000
v -2.389711 24.275000 -3.000000
v -2.000000 24.500000 4.000000
v -2.389711 24.275000 4.000000
v -2.000000 24.050000 4.000000
v -2.000000 24.050000 -3.000000
v -1.610289 24.275000 -3.000000
v -1.610289 24.275000 4.000000
v -2.000000 24.050000 4.000000
v -2.000000 24.500000 -3.000000
v -1.610289 24.275000 -3.000000
v -2.000000 24.050000 -3.000000
v -2.000000 24.500000 4.000000
v -2.000000 24.050000 4.000000
v -1.610289 24.275000 4.000000
v -1.610289 24.275000 -3.000000
v -1.610289 24.725000 -3.000000
v -1.610289 24.725000 4.000000
v -1.610289 24.275000 4.000000
v -2.000000 24.500000 -3.000000
v -1.610289 24.725000 -3.000000
v -1.610289 24.275000 -3.000000
v -2.000000 24.500000 4.000000
v -1.610289 24.275000 4.000000
v -1.610289 24.725000 4.000000
v -1.610289 24.725000 -3.000000
v -2.000000 24.950000 -3.000000
v -2.000000 24.950000 4.000000
v -1.610289 24.725000 4.000000
v -2.000000 24.500000 -3.000000
v -2.000000 24.950000 -3.000000
v -1.610289 24.725000 -3.000000
v -2.000000 24.500000 4.000000
v -1.610289 24.725000 4.000000
v -2.000000 24.950000 4.000000
v -4.100000 24.300000 4.100000
v 0.100000 24.300000 4.100000
v 0.100000 26.100000 4.100000
v -4.100000 26.100000 4.100000
v 0.100000 24.300000 1.900000
v -4.100000 24.300000 1.900000
v -4.100000 26.100000 1.900000
v 0.100000 26.100000 1.900000
v 0.100000 24.300000 4.100000
v 0.100000 24.300000 1.900000
v 0.100000 26.100000 1.900000
v 0.100000 26.100000 4.100000
v -4.100000 24.300000 1.900000
v -4.100000 24.300000 4.100000
v -4.100000 26.100000 4.100000
v -4.100000 26.100000 1.900000
v -4.100000 26.100000 4.100000
v 0.100000 26.100000 4.100000
v 0.100000 26.100000 1.900000
v -4.100000 26.100000 1.900000
v -4.100000 24.300000 1.900000
v 0.100000 24.300000 1.900000
v 0.100000 24.300000 4.100000
v -4.100000 24.300000 4.100000
vt 0.000000 0.000000
vt 1.000000 0.000000
vt 1.000000 1.000000
vt 0.000000 1.000000
vt 0.500000 1.000000
vt 0.000000 0.000000
vt 1.000000 0.000000
vt 0.500000 1.000000
vt 0.000000 0.000000
vt 1.000000 0.000000
vt 0.000000 0.000000
vt 1.000000 0.000000
vt 1.000000 1.000000
vt 0.000000 1.000000
vt 0.500000 1.000000
vt 0.000000 0.000000
vt 1.000000 0.000000
vt 0.500000 1.000000
vt 0.000000 0.000000
vt 1.000000 0.000000
vt 0.000000 0.000000
vt 1.000000 0.000000
vt 1.000000 1.000000
vt 0.000000 1.000000
vt 0.500000 1.000000
vt 0.000000 0.000000
vt 1.000000 0.000000
vt 0.500000 1.000000
vt 0.000000 0.000000
vt 1.000000 0.000000
vt 0.000000 0.000000
vt 1.000000 0.000000
vt 1.000000 1.000000
vt 0.000000 1.000000
vt 0.500000 1.000000
vt 0.000000 0.000000
vt 1.000000 0.000000
vt 0.500000 1.000000
vt 0.000000 0.000000
vt 1.000000 0.000000
vt 0.000000 0.000000
vt 1.000000 0.000000
vt 1.000000 1.000000
vt 0.000000 1.000000
vt 0.500000 1.000000
vt 0.000000 0.000000
vt 1.000000 0.000000
vt 0.500000 1.000000
vt 0.000000 0.000000
vt 1.000000 0.000000
vt 0.000000 0.000000
vt 1.000000 0.000000
vt 1.000000 1.000000
vt 0.000000 1.000000
vt 0.500000 1.000000
vt 0.000000 0.000000
vt 1.000000 0.000000
vt 0.500000 1.000000
vt 0.000000 0.000000
vt 1.000000 0.000000
vt 0.000000 0.000000
vt 1.000000 0.000000
vt 1.000000 1.000000
vt 0.000000 1.000000
vt 0.500000 1.000000
vt 0.000000 0.000000
vt 1.000000 0.000000
vt 0.500000 1.000000
vt 0.000000 0.000000
vt 1.000000 0.000000
vt 0.000000 0.000000
vt 1.000000 0.000000
vt 1.000000 1.000000
vt 0.000000 1.000000
vt 0.500000 1.000000
vt 0.000000 0.000000
vt 1.000000 0.000000
vt 0.500000 1.000000
vt 0.000000 0.000000
vt 1.000000 0.000000
vt 0.000000 0.000000
vt 1.000000 0.000000
vt 1.000000 1.000000
vt 0.000000 1.000000
vt 0.500000 1.000000
vt 0.000000 0.000000
vt 1.000000 0.000000
vt 0.500000 1.000000
vt 0.000000 0.000000
vt 1.000000 0.000000
vt 0.000000 0.000000
vt 1.000000 0.000000
vt 1.000000 1.000000
vt 0.000000 1.000000
vt 0.500000 1.000000
vt 0.000000 0.000000
vt 1.000000 0.000000
vt 0.500000 1.000000
vt 0.000000 0.000000
vt 1.000000 0.000000
vt 0.000000 0.000000
vt 1.000000 0.000000
vt 1.000000 1.000000
vt 0.000000 1.000000
vt 0.500000 1.000000
vt 0.000000 0.000000
vt 1.000000 0.000000
vt 0.500000 1.000000
vt 0.000000 0.000000
vt 1.000000 0.000000
vt 0.000000 0.000000
vt 1.000000 0.000000
vt 1.000000 1.000000
vt 0.000000 1.000000
vt 0.500000 1.000000
vt 0.000000 0.000000
vt 1.000000 0.000000
vt 0.500000 1.000000
vt 0.000000 0.000000
vt 1.000000 0.000000
vt 0.000000 0.000000
vt 1.000000 0.000000
vt 1.000000 1.000000
vt 0.000000 1.000000
vt 0.500000 1.000000
vt 0.000000 0.000000
vt 1.000000 0.000000
vt 0.500000 1.000000
vt 0.000000 0.000000
vt 1.000000 0.000000
vt 0.000000 0.000000
vt 1.000000 0.000000
vt 1.000000 1.000000
vt 0.000000 1.000000
vt 0.500000 1.000000
vt 0.000000 0.000000
vt 1.000000 0.000000
vt 0.500000 1.000000
vt 0.000000 0.000000
vt 1.000000 0.000000
vt 0.000000 0.000000
vt 1.000000 0.000000
vt 1.000000 1.000000
vt 0.000000 1.000000
vt 0.500000 1.000000
vt 0.000000 0.000000
vt 1.000000 0.000000
vt 0.500000 1.000000
vt 0.000000 0.000000
vt 1.000000 0.000000
vt 0.000000 0.000000
vt 1.000000 0.000000
vt 1.000000 1.000000
vt 0.000000 1.000000
vt 0.500000 1.000000
vt 0.000000 0.000000
vt 1.000000 0.000000
vt 0.500000 1.000000
vt 0.000000 0.000000
vt 1.000000 0.000000
vt 0.000000 0.000000
vt 1.000000 0.000000
vt 1.000000 1.000000
vt 0.000000 1.000000
vt 0.500000 1.000000
vt 0.000000 0.000000
vt 1.000000 0.000000
vt 0.500000 1.000000
vt 0.000000 0.000000
vt 1.000000 0.000000
vt 0.000000 0.000000
vt 1.000000 0.000000
vt 1.000000 1.000000
vt 0.000000 1.000000
vt 0.500000 1.000000
vt 0.000000 0.000000
vt 1.000000 0.000000
vt 0.500000 1.000000
vt 0.000000 0.000000
vt 1.000000 0.000000
vt 0.000000 0.000000
vt 1.000000 0.000000
vt 1.000000 1.000000
vt 0.000000 1.000000
vt 0.500000 1.000000
vt 0.000000 0.000000
vt 1.000000 0.000000
vt 0.500000 1.000000
vt 0.000000 0.000000
vt 1.000000 0.000000
vt 0.000000 0.000000
vt 1.000000 0.000000
vt 1.000000 1.000000
vt 0.000000 1.000000
vt 0.500000 1.000000
vt 0.000000 0.000000
vt 1.000000 0.000000
vt 0.500000 1.000000
vt 0.000000 0.000000
vt 1.000000 0.000000
vt 0.000000 0.000000
vt 1.000000 0.000000
vt 1.000000 1.000000
vt 0.000000 1.000000
vt 0.500000 1.000000
vt 0.000000 0.000000
vt 1.000000 0.000000
vt 0.500000 1.000000
vt 0.000000 0.000000
vt 1.000000 0.000000
vt 0.000000 0.000000
vt 1.000000 0.000000
vt 1.000000 1.000000
vt 0.000000 1.000000
vt 0.500000 1.000000
vt 0.000000 0.000000
vt 1.000000 0.000000
vt 0.500000 1.000000
vt 0.000000 0.000000
vt 1.000000 0.000000
vt 0.000000 0.000000
vt 1.000000 0.000000
vt 1.000000 1.000000
vt 0.000000 1.000000
vt 0.500000 1.000000
vt 0.000000 0.000000
vt 1.000000 0.000000
vt 0.500000 1.000000
vt 0.000000 0.000000
vt 1.000000 0.000000
vt 0.000000 0.000000
vt 1.000000 0.000000
vt 1.000000 1.000000
vt 0.000000 1.000000
vt 0.500000 1.000000
vt 0.000000 0.000000
vt 1.000000 0.000000
vt 0.500000 1.000000
vt 0.000000 0.000000
vt 1.000000 0.000000
vt 0.000000 0.000000
vt 1.000000 0.000000
vt 1.000000 1.000000
vt 0.000000 1.000000
vt 0.500000 1.000000
vt 0.000000 0.000000
vt 1.000000 0.000000
vt 0.500000 1.000000
vt 0.000000 0.000000
vt 1.000000 0.000000
vt 0.000000 0.000000
vt 1.000000 0.000000
vt 1.000000 1.000000
vt 0.000000 1.000000
vt 0.500000 1.000000
vt 0.000000 0.000000
vt 1.000000 0.000000
vt 0.500000 1.000000
vt 0.000000 0.000000
vt 1.000000 0.000000
vt 0.000000 0.000000
vt 1.000000 0.000000
vt 1.000000 1.000000
vt 0.000000 1.000000
vt 0.500000 1.000000
vt 0.000000 0.000000
vt 1.000000 0.000000
vt 0.500000 1.000000
vt 0.000000 0.000000
vt 1.000000 0.000000
vt 0.000000 0.000000
vt 1.000000 0.000000
vt 1.000000 1.000000
vt 0.000000 1.000000
vt 0.500000 1.000000
vt 0.000000 0.000000
vt 1.000000 0.000000
vt 0.500000 1.000000
vt 0.000000 0.000000
vt 1.000000 0.000000
vt 0.000000 0.000000
vt 1.000000 0.000000
vt 1.000000 1.000000
vt 0.000000 1.000000
vt 0.500000 1.000000
vt 0.000000 0.000000
vt 1.000000 0.000000
vt 0.500000 1.000000
vt 0.000000 0.000000
vt 1.000000 0.000000
vt 0.000000 0.000000
vt 1.000000 0.000000
vt 1.000000 1.000000
vt 0.000000 1.000000
vt 0.500000 1.000000
vt 0.000000 0.000000
vt 1.000000 0.000000
vt 0.500000 1.000000
vt 0.000000 0.000000
vt 1.000000 0.000000
vt 0.000000 0.000000
vt 1.000000 0.000000
vt 1.000000 1.000000
vt 0.000000 1.000000
vt 0.500000 1.000000
vt 0.000000 0.000000
vt 1.000000 0.000000
vt 0.500000 1.000000
vt 0.000000 0.000000
vt 1.000000 0.000000
vt 0.000000 0.000000
vt 1.000000 0.000000
vt 1.000000 1.000000
vt 0.000000 1.000000
vt 0.500000 1.000000
vt 0.000000 0.000000
vt 1.000000 0.000000
vt 0.500000 1.000000
vt 0.000000 0.000000
vt 1.000000 0.000000
vt 0.000000 0.000000
vt 1.000000 0.000000
vt 1.000000 1.000000
vt 0.000000 1.000000
vt 0.500000 1.000000
vt 0.000000 0.000000
vt 1.000000 0.000000
vt 0.500000 1.000000
vt 0.000000 0.000000
vt 1.000000 0.000000
vt 0.000000 0.000000
vt 1.000000 0.000000
vt 1.000000 1.000000
vt 0.000000 1.000000
vt 0.500000 1.000000
vt 0.000000 0.000000
vt 1.000000 0.000000
vt 0.500000 1.000000
vt 0.000000 0.000000
vt 1.000000 0.000000
vt 0.000000 0.000000
vt 1.000000 0.000000
vt 1.000000 1.000000
vt 0.000000 1.000000
vt 0.500000 1.000000
vt 0.000000 0.000000
vt 1.000000 0.000000
vt 0.500000 1.000000
vt 0.000000 0.000000
vt 1.000000 0.000000
vt 0.000000 0.000000
vt 1.000000 0.000000
vt 1.000000 1.000000
vt 0.000000 1.000000
vt 0.500000 1.000000
vt 0.000000 0.000000
vt 1.000000 0.000000
vt 0.500000 1.000000
vt 0.000000 0.000000
vt 1.000000 0.000000
vt 0.000000 0.000000
vt 1.000000 0.000000
vt 1.000000 1.000000
vt 0.000000 1.000000
vt 0.500000 1.000000
vt 0.000000 0.000000
vt 1.000000 0.000000
vt 0.500000 1.000000
vt 0.000000 0.000000
vt 1.000000 0.000000
vt 0.000000 0.000000
vt 1.000000 0.000000
vt 1.000000 1.000000
vt 0.000000 1.000000
vt 0.500000 1.000000
vt 0.000000 0.000000
vt 1.000000 0.000000
vt 0.500000 1.000000
vt 0.000000 0.000000
vt 1.000000 0.000000
vt 0.000000 0.000000
vt 1.000000 0.000000
vt 1.000000 1.000000
vt 0.000000 1.000000
vt 0.500000 1.000000
vt 0.000000 0.000000
vt 1.000000 0.000000
vt 0.500000 1.000000
vt 0.000000 0.000000
vt 1.000000 0.000000
vt 0.000000 0.000000
vt 1.000000 0.000000
vt 1.000000 1.000000
vt 0.000000 1.000000
vt 0.500000 1.000000
vt 0.000000 0.000000
vt 1.000000 0.000000
vt 0.500000 1.000000
vt 0.000000 0.000000
vt 1.000000 0.000000
vt 0.000000 0.000000
vt 1.000000 0.000000
vt 1.000000 1.000000
vt 0.000000 1.000000
vt 0.500000 1.000000
vt 0.000000 0.000000
vt 1.000000 0.000000
vt 0.500000 1.000000
vt 0.000000 0.000000
vt 1.000000 0.000000
vt 0.000000 0.000000
vt 1.000000 0.000000
vt 1.000000 1.000000
vt 0.000000 1.000000
vt 0.500000 1.000000
vt 0.000000 0.000000
vt 1.000000 0.000000
vt 0.500000 1.000000
vt 0.000000 0.000000
vt 1.000000 0.000000
vt 0.000000 0.000000
vt 1.000000 0.000000
vt 1.000000 1.000000
vt 0.000000 1.000000
vt 0.500000 1.000000
vt 0.000000 0.000000
vt 1.000000 0.000000
vt 0.500000 1.000000
vt 0.000000 0.000000
vt 1.000000 0.000000
vt 0.000000 0.000000
vt 1.000000 0.000000
vt 1.000000 1.000000
vt 0.000000 1.000000
vt 0.500000 1.000000
vt 0.000000 0.000000
vt 1.000000 0.000000
vt 0.500000 1.000000
vt 0.000000 0.000000
vt 1.000000 0.000000
vt 0.000000 0.000000
vt 1.000000 0.000000
vt 1.000000 1.000000
vt 0.000000 1.000000
vt 0.500000 1.000000
vt 0.000000 0.000000
vt 1.000000 0.000000
vt 0.500000 1.000000
vt 0.000000 0.000000
vt 1.000000 0.000000
vt 0.000000 0.000000
vt 1.000000 0.000000
vt 1.000000 1.000000
vt 0.000000 1.000000
vt 0.500000 1.000000
vt 0.000000 0.000000
vt 1.000000 0.000000
vt 0.500000 1.000000
vt 0.000000 0.000000
vt 1.000000 0.000000
vt 0.000000 0.000000
vt 1.000000 0.000000
vt 1.000000 1.000000
vt 0.000000 1.000000
vt 0.500000 1.000000
vt 0.000000 0.000000
vt 1.000000 0.000000
vt 0.500000 1.000000
vt 0.000000 0.000000
vt 1.000000 0.000000
vt 0.000000 0.000000
vt 1.000000 0.000000
vt 1.000000 1.000000
vt 0.000000 1.000000
vt 0.500000 1.000000
vt 0.000000 0.000000
vt 1.000000 0.000000
vt 0.500000 1.000000
vt 0.000000 0.000000
vt 1.000000 0.000000
vt 0.000000 0.000000
vt 1.000000 0.000000
vt 1.000000 1.000000
vt 0.000000 1.000000
vt 0.500000 1.000000
vt 0.000000 0.000000
vt 1.000000 0.000000
vt 0.500000 1.000000
vt 0.000000 0.000000
vt 1.000000 0.000000
vt 0.000000 0.000000
vt 1.000000 0.000000
vt 1.000000 1.000000
vt 0.000000 1.000000
vt 0.500000 1.000000
vt 0.000000 0.000000
vt 1.000000 0.000000
vt 0.500000 1.000000
vt 0.000000 0.000000
vt 1.000000 0.000000
vt 0.000000 0.000000
vt 1.000000 0.000000
vt 1.000000 1.000000
vt 0.000000 1.000000
vt 0.000000 0.000000
vt 1.000000 0.000000
vt 1.000000 1.000000
vt 0.000000 1.000000
vt 0.000000 0.000000
vt 1.000000 0.000000
vt 1.000000 1.000000
vt 0.000000 1.000000
vt 0.000000 0.000000
vt 1.000000 0.000000
vt 1.000000 1.000000
vt 0.000000 1.000000
vt 0.000000 0.000000
vt 1.000000 0.000000
vt 1.000000 1.000000
vt 0.000000 1.000000
vt 0.000000 0.000000
vt 1.000000 0.000000
vt 1.000000 1.000000
vt 0.000000 1.000000
vt 0.000000 0.000000
vt 1.000000 0.000000
vt 1.000000 1.000000
vt 0.000000 1.000000
vt 0.000000 0.000000
vt 1.000000 0.000000
vt 1.000000 1.000000
vt 0.000000 1.000000
vt 0.000000 0.000000
vt 1.000000 0.000000
vt 1.000000 1.000000
vt 0.000000 1.000000
vt 0.000000 0.000000
vt 1.000000 0.000000
vt 1.000000 1.000000
vt 0.000000 1.000000
vt 0.000000 0.000000
vt 1.000000 0.000000
vt 1.000000 1.000000
vt 0.000000 1.000000
vt 0.000000 0.000000
vt 1.000000 0.000000
vt 1.000000 1.000000
vt 0.000000 1.000000
vt 0.000000 0.000000
vt 1.000000 0.000000
vt 1.000000 1.000000
vt 0.000000 1.000000
vt 0.000000 0.000000
vt 1.000000 0.000000
vt 1.000000 1.000000
vt 0.000000 1.000000
vt 0.000000 0.000000
vt 1.000000 0.000000
vt 1.000000 1.000000
vt 0.000000 1.000000
vt 0.000000 0.000000
vt 1.000000 0.000000
vt 1.000000 1.000000
vt 0.000000 1.000000
vt 0.000000 0.000000
vt 1.000000 0.000000
vt 1.000000 1.000000
vt 0.000000 1.000000
vt 0.000000 0.000000
vt 1.000000 0.000000
vt 1.000000 1.000000
vt 0.000000 1.000000
vt 0.000000 0.000000
vt 1.000000 0.000000
vt 1.000000 1.000000
vt 0.000000 1.000000
vt 0.500000 1.000000
vt 0.000000 0.000000
vt 1.000000 0.000000
vt 0.500000 1.000000
vt 0.000000 0.000000
vt 1.000000 0.000000
vt 0.000000 0.000000
vt 1.000000 0.000000
vt 1.000000 1.000000
vt 0.000000 1.000000
vt 0.500000 1.000000
vt 0.000000 0.000000
vt 1.000000 0.000000
vt 0.500000 1.000000
vt 0.000000 0.000000
vt 1.000000 0.000000
vt 0.000000 0.000000
vt 1.000000 0.000000
vt 1.000000 1.000000
vt 0.000000 1.000000
vt 0.500000 1.000000
vt 0.000000 0.000000
vt 1.000000 0.000000
vt 0.500000 1.000000
vt 0.000000 0.000000
vt 1.000000 0.000000
vt 0.000000 0.000000
vt 1.000000 0.000000
vt 1.000000 1.000000
vt 0.000000 1.000000
vt 0.500000 1.000000
vt 0.000000 0.000000
vt 1.000000 0.000000
vt 0.500000 1.000000
vt 0.000000 0.000000
vt 1.000000 0.000000
vt 0.000000 0.000000
vt 1.000000 0.000000
vt 1.000000 1.000000
vt 0.000000 1.000000
vt 0.500000 1.000000
vt 0.000000 0.000000
vt 1.000000 0.000000
vt 0.500000 1.000000
vt 0.000000 0.000000
vt 1.000000 0.000000
vt 0.000000 0.000000
vt 1.000000 0.000000
vt 1.000000 1.000000
vt 0.000000 1.000000
vt 0.500000 1.000000
vt 0.000000 0.000000
vt 1.000000 0.000000
vt 0.500000 1.000000
vt 0.000000 0.000000
vt 1.000000 0.000000
vt 0.000000 0.000000
vt 1.000000 0.000000
vt 1.000000 1.000000
vt 0.000000 1.000000
vt 0.000000 0.000000
vt 1.000000 0.000000
vt 1.000000 1.000000
vt 0.000000 1.000000
vt 0.000000 0.000000
vt 1.000000 0.000000
vt 1.000000 1.000000
vt 0.000000 1.000000
vt 0.000000 0.000000
vt 1.000000 0.000000
vt 1.000000 1.000000
vt 0.000000 1.000000
vt 0.000000 0.000000
vt 1.000000 0.000000
vt 1.000000 1.000000
vt 0.000000 1.000000
vt 0.000000 0.000000
vt 1.000000 0.000000
vt 1.000000 1.000000
vt 0.000000 1.000000
vt 0.000000 0.000000
vt 1.000000 0.000000
vt 1.000000 1.000000
vt 0.000000 1.000000
vt 0.500000 1.000000
vt 0.000000 0.000000
vt 1.000000 0.000000
vt 0.500000 1.000000
vt 0.000000 0.000000
vt 1.000000 0.000000
vt 0.000000 0.000000
vt 1.000000 0.000000
vt 1.000000 1.000000
vt 0.000000 1.000000
vt 0.500000 1.000000
vt 0.000000 0.000000
vt 1.000000 0.000000
vt 0.500000 1.000000
vt 0.000000 0.000000
vt 1.000000 0.000000
vt 0.000000 0.000000
vt 1.000000 0.000000
vt 1.000000 1.000000
vt 0.000000 1.000000
vt 0.500000 1.000000
vt 0.000000 0.000000
vt 1.000000 0.000000
vt 0.500000 1.000000
vt 0.000000 0.000000
vt 1.000000 0.000000
vt 0.000000 0.000000
vt 1.000000 0.000000
vt 1.000000 1.000000
vt 0.000000 1.000000
vt 0.500000 1.000000
vt 0.000000 0.000000
vt 1.000000 0.000000
vt 0.500000 1.000000
vt 0.000000 0.000000
vt 1.000000 0.000000
vt 0.000000 0.000000
vt 1.000000 0.000000
vt 1.000000 1.000000
vt 0.000000 1.000000
vt 0.500000 1.000000
vt 0.000000 0.000000
vt 1.000000 0.000000
vt 0.500000 1.000000
vt 0.000000 0.000000
vt 1.000000 0.000000
vt 0.000000 0.000000
vt 1.000000 0.000000
vt 1.000000 1.000000
vt 0.000000 1.000000
vt 0.500000 1.000000
vt 0.000000 0.000000
vt 1.000000 0.000000
vt 0.500000 1.000000
vt 0.000000 0.000000
vt 1.000000 0.000000
vt 0.000000 0.000000
vt 1.000000 0.000000
vt 1.000000 1.000000
vt 0.000000 1.000000
vt 0.000000 0.000000
vt 1.000000 0.000000
vt 1.000000 1.000000
vt 0.000000 1.000000
vt 0.000000 0.000000
vt 1.000000 0.000000
vt 1.000000 1.000000
vt 0.000000 1.000000
vt 0.000000 0.000000
vt 1.000000 0.000000
vt 1.000000 1.000000
vt 0.000000 1.000000
vt 0.000000 0.000000
vt 1.000000 0.000000
vt 1.000000 1.000000
vt 0.000000 1.000000
vt 0.000000 0.000000
vt 1.000000 0.000000
vt 1.000000 1.000000
vt 0.000000 1.000000
s 1
usemtl models/caelum/props/stations/ca_station_wood.png
f 1/1 2/2 3/3 4/4
f 5/5 6/6 7/7
f 8/8 9/9 10/10
f 11/11 12/12 13/13 14/14
f 15/15 16/16 17/17
f 18/18 19/19 20/20
f 21/21 22/22 23/23 24/24
f 25/25 26/26 27/27
f 28/28 29/29 30/30
f 31/31 32/32 33/33 34/34
f 35/35 36/36 37/37
f 38/38 39/39 40/40
f 41/41 42/42 43/43 44/44
f 45/45 46/46 47/47
f 48/48 49/49 50/50
f 51/51 52/52 53/53 54/54
f 55/55 56/56 57/57
f 58/58 59/59 60/60
f 61/61 62/62 63/63 64/64
f 65/65 66/66 67/67
f 68/68 69/69 70/70
f 71/71 72/72 73/73 74/74
f 75/75 76/76 77/77
f 78/78 79/79 80/80
f 81/81 82/82 83/83 84/84
f 85/85 86/86 87/87
f 88/88 89/89 90/90
f 91/91 92/92 93/93 94/94
f 95/95 96/96 97/97
f 98/98 99/99 100/100
usemtl models/caelum/props/stations/ca_station_iron.png
f 101/101 102/102 103/103 104/104
f 105/105 106/106 107/107
f 108/108 109/109 110/110
f 111/111 112/112 113/113 114/114
f 115/115 116/116 117/117
f 118/118 119/119 120/120
f 121/121 122/122 123/123 124/124
f 125/125 126/126 127/127
f 128/128 129/129 130/130
f 131/131 132/132 133/133 134/134
f 135/135 136/136 137/137
f 138/138 139/139 140/140
f 141/141 142/142 143/143 144/144
f 145/145 146/146 147/147
f 148/148 149/149 150/150
f 151/151 152/152 153/153 154/154
f 155/155 156/156 157/157
f 158/158 159/159 160/160
f 161/161 162/162 163/163 164/164
f 165/165 166/166 167/167
f 168/168 169/169 170/170
f 171/171 172/172 173/173 174/174
f 175/175 176/176 177/177
f 178/178 179/179 180/180
f 181/181 182/182 183/183 184/184
f 185/185 186/186 187/187
f 188/188 189/189 190/190
f 191/191 192/192 193/193 194/194
f 195/195 196/196 197/197
f 198/198 199/199 200/200
f 201/201 202/202 203/203 204/204
f 205/205 206/206 207/207
f 208/208 209/209 210/210
f 211/211 212/212 213/213 214/214
f 215/215 216/216 217/217
f 218/218 219/219 220/220
f 221/221 222/222 223/223 224/224
f 225/225 226/226 227/227
f 228/228 229/229 230/230
f 231/231 232/232 233/233 234/234
f 235/235 236/236 237/237
f 238/238 239/239 240/240
f 241/241 242/242 243/243 244/244
f 245/245 246/246 247/247
f 248/248 249/249 250/250
f 251/251 252/252 253/253 254/254
f 255/255 256/256 257/257
f 258/258 259/259 260/260
f 261/261 262/262 263/263 264/264
f 265/265 266/266 267/267
f 268/268 269/269 270/270
f 271/271 272/272 273/273 274/274
f 275/275 276/276 277/277
f 278/278 279/279 280/280
f 281/281 282/282 283/283 284/284
f 285/285 286/286 287/287
f 288/288 289/289 290/290
f 291/291 292/292 293/293 294/294
f 295/295 296/296 297/297
f 298/298 299/299 300/300
f 301/301 302/302 303/303 304/304
f 305/305 306/306 307/307
f 308/308 309/309 310/310
f 311/311 312/312 313/313 314/314
f 315/315 316/316 317/317
f 318/318 319/319 320/320
f 321/321 322/322 323/323 324/324
f 325/325 326/326 327/327
f 328/328 329/329 330/330
f 331/331 332/332 333/333 334/334
f 335/335 336/336 337/337
f 338/338 339/339 340/340
f 341/341 342/342 343/343 344/344
f 345/345 346/346 347/347
f 348/348 349/349 350/350
f 351/351 352/352 353/353 354/354
f 355/355 356/356 357/357
f 358/358 359/359 360/360
f 361/361 362/362 363/363 364/364
f 365/365 366/366 367/367
f 368/368 369/369 370/370
f 371/371 372/372 373/373 374/374
f 375/375 376/376 377/377
f 378/378 379/379 380/380
f 381/381 382/382 383/383 384/384
f 385/385 386/386 387/387
f 388/388 389/389 390/390
f 391/391 392/392 393/393 394/394
f 395/395 396/396 397/397
f 398/398 399/399 400/400
f 401/401 402/402 403/403 404/404
f 405/405 406/406 407/407
f 408/408 409/409 410/410
f 411/411 412/412 413/413 414/414
f 415/415 416/416 417/417
f 418/418 419/419 420/420
f 421/421 422/422 423/423 424/424
f 425/425 426/426 427/427
f 428/428 429/429 430/430
f 431/431 432/432 433/433 434/434
f 435/435 436/436 437/437
f 438/438 439/439 440/440
f 441/441 442/442 443/443 444/444
f 445/445 446/446 447/447
f 448/448 449/449 450/450
f 451/451 452/452 453/453 454/454
f 455/455 456/456 457/457
f 458/458 459/459 460/460
f 461/461 462/462 463/463 464/464
f 465/465 466/466 467/467
f 468/468 469/469 470/470
f 471/471 472/472 473/473 474/474
f 475/475 476/476 477/477
f 478/478 479/479 480/480
f 481/481 482/482 483/483 484/484
f 485/485 486/486 487/487
f 488/488 489/489 490/490
f 491/491 492/492 493/493 494/494
f 495/495 496/496 497/497
f 498/498 499/499 500/500
f 501/501 502/502 503/503 504/504
f 505/505 506/506 507/507 508/508
f 509/509 510/510 511/511 512/512
f 513/513 514/514 515/515 516/516
f 517/517 518/518 519/519 520/520
f 521/521 522/522 523/523 524/524
f 525/525 526/526 527/527 528/528
f 529/529 530/530 531/531 532/532
f 533/533 534/534 535/535 536/536
f 537/537 538/538 539/539 540/540
f 541/541 542/542 543/543 544/544
f 545/545 546/546 547/547 548/548
f 549/549 550/550 551/551 552/552
f 553/553 554/554 555/555 556/556
f 557/557 558/558 559/559 560/560
f 561/561 562/562 563/563 564/564
f 565/565 566/566 567/567 568/568
f 569/569 570/570 571/571 572/572
f 573/573 574/574 575/575 576/576
f 577/577 578/578 579/579
f 580/580 581/581 582/582
f 583/583 584/584 585/585 586/586
f 587/587 588/588 589/589
f 590/590 591/591 592/592
f 593/593 594/594 595/595 596/596
f 597/597 598/598 599/599
f 600/600 601/601 602/602
f 603/603 604/604 605/605 606/606
f 607/607 608/608 609/609
f 610/610 611/611 612/612
f 613/613 614/614 615/615 616/616
f 617/617 618/618 619/619
f 620/620 621/621 622/622
f 623/623 624/624 625/625 626/626
f 627/627 628/628 629/629
f 630/630 631/631 632/632
f 633/633 634/634 635/635 636/636
f 637/637 638/638 639/639 640/640
f 641/641 642/642 643/643 644/644
f 645/645 646/646 647/647 648/648
f 649/649 650/650 651/651 652/652
f 653/653 654/654 655/655 656/656
usemtl models/caelum/props/stations/ca_station_wood.png
f 657/657 658/658 659/659 660/660
f 661/661 662/662 663/663
f 664/664 665/665 666/666
f 667/667 668/668 669/669 670/670
f 671/671 672/672 673/673
f 674/674 675/675 676/676
f 677/677 678/678 679/679 680/680
f 681/681 682/682 683/683
f 684/684 685/685 686/686
f 687/687 688/688 689/689 690/690
f 691/691 692/692 693/693
f 694/694 695/695 696/696
f 697/697 698/698 699/699 700/700
f 701/701 702/702 703/703
f 704/704 705/705 706/706
f 707/707 708/708 709/709 710/710
f 711/711 712/712 713/713
f 714/714 715/715 716/716
usemtl models/caelum/props/stations/ca_station_iron.png
f 717/717 718/718 719/719 720/720
f 721/721 722/722 723/723 724/724
f 725/725 726/726 727/727 728/728
f 729/729 730/730 731/731 732/732
f 733/733 734/734 735/735 736/736
f 737/737 738/738 739/739 740/740
