# Modelo original generado para Caelum Argenteum.
# Ejes OBJ: X ancho, Y altura, Z profundidad.
o CaelumStation_altar
v 0.000000 0.000000 -14.500000
v -10.253048 0.000000 -10.253048
v -10.253048 4.000000 -10.253048
v 0.000000 4.000000 -14.500000
v 0.000000 0.000000 0.000000
v -10.253048 0.000000 -10.253048
v 0.000000 0.000000 -14.500000
v 0.000000 4.000000 0.000000
v 0.000000 4.000000 -14.500000
v -10.253048 4.000000 -10.253048
v -10.253048 0.000000 -10.253048
v -14.500000 0.000000 -0.000000
v -14.500000 4.000000 -0.000000
v -10.253048 4.000000 -10.253048
v 0.000000 0.000000 0.000000
v -14.500000 0.000000 -0.000000
v -10.253048 0.000000 -10.253048
v 0.000000 4.000000 0.000000
v -10.253048 4.000000 -10.253048
v -14.500000 4.000000 -0.000000
v -14.500000 0.000000 -0.000000
v -10.253048 0.000000 10.253048
v -10.253048 4.000000 10.253048
v -14.500000 4.000000 -0.000000
v 0.000000 0.000000 0.000000
v -10.253048 0.000000 10.253048
v -14.500000 0.000000 -0.000000
v 0.000000 4.000000 0.000000
v -14.500000 4.000000 -0.000000
v -10.253048 4.000000 10.253048
v -10.253048 0.000000 10.253048
v -0.000000 0.000000 14.500000
v -0.000000 4.000000 14.500000
v -10.253048 4.000000 10.253048
v 0.000000 0.000000 0.000000
v -0.000000 0.000000 14.500000
v -10.253048 0.000000 10.253048
v 0.000000 4.000000 0.000000
v -10.253048 4.000000 10.253048
v -0.000000 4.000000 14.500000
v -0.000000 0.000000 14.500000
v 10.253048 0.000000 10.253048
v 10.253048 4.000000 10.253048
v -0.000000 4.000000 14.500000
v 0.000000 0.000000 0.000000
v 10.253048 0.000000 10.253048
v -0.000000 0.000000 14.500000
v 0.000000 4.000000 0.000000
v -0.000000 4.000000 14.500000
v 10.253048 4.000000 10.253048
v 10.253048 0.000000 10.253048
v 14.500000 0.000000 0.000000
v 14.500000 4.000000 0.000000
v 10.253048 4.000000 10.253048
v 0.000000 0.000000 0.000000
v 14.500000 0.000000 0.000000
v 10.253048 0.000000 10.253048
v 0.000000 4.000000 0.000000
v 10.253048 4.000000 10.253048
v 14.500000 4.000000 0.000000
v 14.500000 0.000000 0.000000
v 10.253048 0.000000 -10.253048
v 10.253048 4.000000 -10.253048
v 14.500000 4.000000 0.000000
v 0.000000 0.000000 0.000000
v 10.253048 0.000000 -10.253048
v 14.500000 0.000000 0.000000
v 0.000000 4.000000 0.000000
v 14.500000 4.000000 0.000000
v 10.253048 4.000000 -10.253048
v 10.253048 0.000000 -10.253048
v 0.000000 0.000000 -14.500000
v 0.000000 4.000000 -14.500000
v 10.253048 4.000000 -10.253048
v 0.000000 0.000000 0.000000
v 0.000000 0.000000 -14.500000
v 10.253048 0.000000 -10.253048
v 0.000000 4.000000 0.000000
v 10.253048 4.000000 -10.253048
v 0.000000 4.000000 -14.500000
v 0.000000 4.000000 -11.000000
v -7.778175 4.000000 -7.778175
v -8.485281 22.000000 -8.485281
v 0.000000 22.000000 -12.000000
v 0.000000 4.000000 0.000000
v -7.778175 4.000000 -7.778175
v 0.000000 4.000000 -11.000000
v 0.000000 22.000000 0.000000
v 0.000000 22.000000 -12.000000
v -8.485281 22.000000 -8.485281
v -7.778175 4.000000 -7.778175
v -11.000000 4.000000 -0.000000
v -12.000000 22.000000 -0.000000
v -8.485281 22.000000 -8.485281
v 0.000000 4.000000 0.000000
v -11.000000 4.000000 -0.000000
v -7.778175 4.000000 -7.778175
v 0.000000 22.000000 0.000000
v -8.485281 22.000000 -8.485281
v -12.000000 22.000000 -0.000000
v -11.000000 4.000000 -0.000000
v -7.778175 4.000000 7.778175
v -8.485281 22.000000 8.485281
v -12.000000 22.000000 -0.000000
v 0.000000 4.000000 0.000000
v -7.778175 4.000000 7.778175
v -11.000000 4.000000 -0.000000
v 0.000000 22.000000 0.000000
v -12.000000 22.000000 -0.000000
v -8.485281 22.000000 8.485281
v -7.778175 4.000000 7.778175
v -0.000000 4.000000 11.000000
v -0.000000 22.000000 12.000000
v -8.485281 22.000000 8.485281
v 0.000000 4.000000 0.000000
v -0.000000 4.000000 11.000000
v -7.778175 4.000000 7.778175
v 0.000000 22.000000 0.000000
v -8.485281 22.000000 8.485281
v -0.000000 22.000000 12.000000
v -0.000000 4.000000 11.000000
v 7.778175 4.000000 7.778175
v 8.485281 22.000000 8.485281
v -0.000000 22.000000 12.000000
v 0.000000 4.000000 0.000000
v 7.778175 4.000000 7.778175
v -0.000000 4.000000 11.000000
v 0.000000 22.000000 0.000000
v -0.000000 22.000000 12.000000
v 8.485281 22.000000 8.485281
v 7.778175 4.000000 7.778175
v 11.000000 4.000000 0.000000
v 12.000000 22.000000 0.000000
v 8.485281 22.000000 8.485281
v 0.000000 4.000000 0.000000
v 11.000000 4.000000 0.000000
v 7.778175 4.000000 7.778175
v 0.000000 22.000000 0.000000
v 8.485281 22.000000 8.485281
v 12.000000 22.000000 0.000000
v 11.000000 4.000000 0.000000
v 7.778175 4.000000 -7.778175
v 8.485281 22.000000 -8.485281
v 12.000000 22.000000 0.000000
v 0.000000 4.000000 0.000000
v 7.778175 4.000000 -7.778175
v 11.000000 4.000000 0.000000
v 0.000000 22.000000 0.000000
v 12.000000 22.000000 0.000000
v 8.485281 22.000000 -8.485281
v 7.778175 4.000000 -7.778175
v 0.000000 4.000000 -11.000000
v 0.000000 22.000000 -12.000000
v 8.485281 22.000000 -8.485281
v 0.000000 4.000000 0.000000
v 0.000000 4.000000 -11.000000
v 7.778175 4.000000 -7.778175
v 0.000000 22.000000 0.000000
v 8.485281 22.000000 -8.485281
v 0.000000 22.000000 -12.000000
v 0.000000 22.000000 -13.000000
v -9.192388 22.000000 -9.192388
v -9.192388 24.000000 -9.192388
v 0.000000 24.000000 -13.000000
v 0.000000 22.000000 0.000000
v -9.192388 22.000000 -9.192388
v 0.000000 22.000000 -13.000000
v 0.000000 24.000000 0.000000
v 0.000000 24.000000 -13.000000
v -9.192388 24.000000 -9.192388
v -9.192388 22.000000 -9.192388
v -13.000000 22.000000 -0.000000
v -13.000000 24.000000 -0.000000
v -9.192388 24.000000 -9.192388
v 0.000000 22.000000 0.000000
v -13.000000 22.000000 -0.000000
v -9.192388 22.000000 -9.192388
v 0.000000 24.000000 0.000000
v -9.192388 24.000000 -9.192388
v -13.000000 24.000000 -0.000000
v -13.000000 22.000000 -0.000000
v -9.192388 22.000000 9.192388
v -9.192388 24.000000 9.192388
v -13.000000 24.000000 -0.000000
v 0.000000 22.000000 0.000000
v -9.192388 22.000000 9.192388
v -13.000000 22.000000 -0.000000
v 0.000000 24.000000 0.000000
v -13.000000 24.000000 -0.000000
v -9.192388 24.000000 9.192388
v -9.192388 22.000000 9.192388
v -0.000000 22.000000 13.000000
v -0.000000 24.000000 13.000000
v -9.192388 24.000000 9.192388
v 0.000000 22.000000 0.000000
v -0.000000 22.000000 13.000000
v -9.192388 22.000000 9.192388
v 0.000000 24.000000 0.000000
v -9.192388 24.000000 9.192388
v -0.000000 24.000000 13.000000
v -0.000000 22.000000 13.000000
v 9.192388 22.000000 9.192388
v 9.192388 24.000000 9.192388
v -0.000000 24.000000 13.000000
v 0.000000 22.000000 0.000000
v 9.192388 22.000000 9.192388
v -0.000000 22.000000 13.000000
v 0.000000 24.000000 0.000000
v -0.000000 24.000000 13.000000
v 9.192388 24.000000 9.192388
v 9.192388 22.000000 9.192388
v 13.000000 22.000000 0.000000
v 13.000000 24.000000 0.000000
v 9.192388 24.000000 9.192388
v 0.000000 22.000000 0.000000
v 13.000000 22.000000 0.000000
v 9.192388 22.000000 9.192388
v 0.000000 24.000000 0.000000
v 9.192388 24.000000 9.192388
v 13.000000 24.000000 0.000000
v 13.000000 22.000000 0.000000
v 9.192388 22.000000 -9.192388
v 9.192388 24.000000 -9.192388
v 13.000000 24.000000 0.000000
v 0.000000 22.000000 0.000000
v 9.192388 22.000000 -9.192388
v 13.000000 22.000000 0.000000
v 0.000000 24.000000 0.000000
v 13.000000 24.000000 0.000000
v 9.192388 24.000000 -9.192388
v 9.192388 22.000000 -9.192388
v 0.000000 22.000000 -13.000000
v 0.000000 24.000000 -13.000000
v 9.192388 24.000000 -9.192388
v 0.000000 22.000000 0.000000
v 0.000000 22.000000 -13.000000
v 9.192388 22.000000 -9.192388
v 0.000000 24.000000 0.000000
v 9.192388 24.000000 -9.192388
v 0.000000 24.000000 -13.000000
v 8.450000 7.000000 0.550000
v 9.550000 7.000000 0.550000
v 9.550000 21.000000 0.550000
v 8.450000 21.000000 0.550000
v 9.550000 7.000000 -0.550000
v 8.450000 7.000000 -0.550000
v 8.450000 21.000000 -0.550000
v 9.550000 21.000000 -0.550000
v 9.550000 7.000000 0.550000
v 9.550000 7.000000 -0.550000
v 9.550000 21.000000 -0.550000
v 9.550000 21.000000 0.550000
v 8.450000 7.000000 -0.550000
v 8.450000 7.000000 0.550000
v 8.450000 21.000000 0.550000
v 8.450000 21.000000 -0.550000
v 8.450000 21.000000 0.550000
v 9.550000 21.000000 0.550000
v 9.550000 21.000000 -0.550000
v 8.450000 21.000000 -0.550000
v 8.450000 7.000000 -0.550000
v 9.550000 7.000000 -0.550000
v 9.550000 7.000000 0.550000
v 8.450000 7.000000 0.550000
v -0.550000 7.000000 9.550000
v 0.550000 7.000000 9.550000
v 0.550000 21.000000 9.550000
v -0.550000 21.000000 9.550000
v 0.550000 7.000000 8.450000
v -0.550000 7.000000 8.450000
v -0.550000 21.000000 8.450000
v 0.550000 21.000000 8.450000
v 0.550000 7.000000 9.550000
v 0.550000 7.000000 8.450000
v 0.550000 21.000000 8.450000
v 0.550000 21.000000 9.550000
v -0.550000 7.000000 8.450000
v -0.550000 7.000000 9.550000
v -0.550000 21.000000 9.550000
v -0.550000 21.000000 8.450000
v -0.550000 21.000000 9.550000
v 0.550000 21.000000 9.550000
v 0.550000 21.000000 8.450000
v -0.550000 21.000000 8.450000
v -0.550000 7.000000 8.450000
v 0.550000 7.000000 8.450000
v 0.550000 7.000000 9.550000
v -0.550000 7.000000 9.550000
v -9.550000 7.000000 0.550000
v -8.450000 7.000000 0.550000
v -8.450000 21.000000 0.550000
v -9.550000 21.000000 0.550000
v -8.450000 7.000000 -0.550000
v -9.550000 7.000000 -0.550000
v -9.550000 21.000000 -0.550000
v -8.450000 21.000000 -0.550000
v -8.450000 7.000000 0.550000
v -8.450000 7.000000 -0.550000
v -8.450000 21.000000 -0.550000
v -8.450000 21.000000 0.550000
v -9.550000 7.000000 -0.550000
v -9.550000 7.000000 0.550000
v -9.550000 21.000000 0.550000
v -9.550000 21.000000 -0.550000
v -9.550000 21.000000 0.550000
v -8.450000 21.000000 0.550000
v -8.450000 21.000000 -0.550000
v -9.550000 21.000000 -0.550000
v -9.550000 7.000000 -0.550000
v -8.450000 7.000000 -0.550000
v -8.450000 7.000000 0.550000
v -9.550000 7.000000 0.550000
v -0.550000 7.000000 -8.450000
v 0.550000 7.000000 -8.450000
v 0.550000 21.000000 -8.450000
v -0.550000 21.000000 -8.450000
v 0.550000 7.000000 -9.550000
v -0.550000 7.000000 -9.550000
v -0.550000 21.000000 -9.550000
v 0.550000 21.000000 -9.550000
v 0.550000 7.000000 -8.450000
v 0.550000 7.000000 -9.550000
v 0.550000 21.000000 -9.550000
v 0.550000 21.000000 -8.450000
v -0.550000 7.000000 -9.550000
v -0.550000 7.000000 -8.450000
v -0.550000 21.000000 -8.450000
v -0.550000 21.000000 -9.550000
v -0.550000 21.000000 -8.450000
v 0.550000 21.000000 -8.450000
v 0.550000 21.000000 -9.550000
v -0.550000 21.000000 -9.550000
v -0.550000 7.000000 -9.550000
v 0.550000 7.000000 -9.550000
v 0.550000 7.000000 -8.450000
v -0.550000 7.000000 -8.450000
v 0.000000 26.000000 -4.500000
v -3.897114 26.000000 -2.250000
v 0.000000 37.000000 0.000000
v 0.000000 37.000000 0.000000
v 0.000000 26.000000 0.000000
v -3.897114 26.000000 -2.250000
v 0.000000 26.000000 -4.500000
v 0.000000 37.000000 0.000000
v 0.000000 37.000000 0.000000
v 0.000000 37.000000 0.000000
v -3.897114 26.000000 -2.250000
v -3.897114 26.000000 2.250000
v 0.000000 37.000000 0.000000
v 0.000000 37.000000 0.000000
v 0.000000 26.000000 0.000000
v -3.897114 26.000000 2.250000
v -3.897114 26.000000 -2.250000
v 0.000000 37.000000 0.000000
v 0.000000 37.000000 0.000000
v 0.000000 37.000000 0.000000
v -3.897114 26.000000 2.250000
v -0.000000 26.000000 4.500000
v 0.000000 37.000000 0.000000
v 0.000000 37.000000 0.000000
v 0.000000 26.000000 0.000000
v -0.000000 26.000000 4.500000
v -3.897114 26.000000 2.250000
v 0.000000 37.000000 0.000000
v 0.000000 37.000000 0.000000
v 0.000000 37.000000 0.000000
v -0.000000 26.000000 4.500000
v 3.897114 26.000000 2.250000
v 0.000000 37.000000 0.000000
v 0.000000 37.000000 0.000000
v 0.000000 26.000000 0.000000
v 3.897114 26.000000 2.250000
v -0.000000 26.000000 4.500000
v 0.000000 37.000000 0.000000
v 0.000000 37.000000 0.000000
v 0.000000 37.000000 0.000000
v 3.897114 26.000000 2.250000
v 3.897114 26.000000 -2.250000
v 0.000000 37.000000 0.000000
v 0.000000 37.000000 0.000000
v 0.000000 26.000000 0.000000
v 3.897114 26.000000 -2.250000
v 3.897114 26.000000 2.250000
v 0.000000 37.000000 0.000000
v 0.000000 37.000000 0.000000
v 0.000000 37.000000 0.000000
v 3.897114 26.000000 -2.250000
v 0.000000 26.000000 -4.500000
v 0.000000 37.000000 0.000000
v 0.000000 37.000000 0.000000
v 0.000000 26.000000 0.000000
v 0.000000 26.000000 -4.500000
v 3.897114 26.000000 -2.250000
v 0.000000 37.000000 0.000000
v 0.000000 37.000000 0.000000
v 0.000000 37.000000 0.000000
v 0.000000 22.500000 0.000000
v 0.000000 22.500000 0.000000
v -3.897114 26.000000 -2.250000
v 0.000000 26.000000 -4.500000
v 0.000000 22.500000 0.000000
v 0.000000 22.500000 0.000000
v 0.000000 22.500000 0.000000
v 0.000000 26.000000 0.000000
v 0.000000 26.000000 -4.500000
v -3.897114 26.000000 -2.250000
v 0.000000 22.500000 0.000000
v 0.000000 22.500000 0.000000
v -3.897114 26.000000 2.250000
v -3.897114 26.000000 -2.250000
v 0.000000 22.500000 0.000000
v 0.000000 22.500000 0.000000
v 0.000000 22.500000 0.000000
v 0.000000 26.000000 0.000000
v -3.897114 26.000000 -2.250000
v -3.897114 26.000000 2.250000
v 0.000000 22.500000 0.000000
v 0.000000 22.500000 0.000000
v -0.000000 26.000000 4.500000
v -3.897114 26.000000 2.250000
v 0.000000 22.500000 0.000000
v 0.000000 22.500000 0.000000
v 0.000000 22.500000 0.000000
v 0.000000 26.000000 0.000000
v -3.897114 26.000000 2.250000
v -0.000000 26.000000 4.500000
v 0.000000 22.500000 0.000000
v 0.000000 22.500000 0.000000
v 3.897114 26.000000 2.250000
v -0.000000 26.000000 4.500000
v 0.000000 22.500000 0.000000
v 0.000000 22.500000 0.000000
v 0.000000 22.500000 0.000000
v 0.000000 26.000000 0.000000
v -0.000000 26.000000 4.500000
v 3.897114 26.000000 2.250000
v 0.000000 22.500000 0.000000
v 0.000000 22.500000 0.000000
v 3.897114 26.000000 -2.250000
v 3.897114 26.000000 2.250000
v 0.000000 22.500000 0.000000
v 0.000000 22.500000 0.000000
v 0.000000 22.500000 0.000000
v 0.000000 26.000000 0.000000
v 3.897114 26.000000 2.250000
v 3.897114 26.000000 -2.250000
v 0.000000 22.500000 0.000000
v 0.000000 22.500000 0.000000
v 0.000000 26.000000 -4.500000
v 3.897114 26.000000 -2.250000
v 0.000000 22.500000 0.000000
v 0.000000 22.500000 0.000000
v 0.000000 22.500000 0.000000
v 0.000000 26.000000 0.000000
v 3.897114 26.000000 -2.250000
v 0.000000 26.000000 -4.500000
v 8.000000 30.000000 -1.450000
v 7.565333 29.883531 -1.000000
v 6.493537 33.883531 -1.000000
v 6.928203 34.000000 -1.450000
v 8.000000 30.000000 -1.000000
v 7.565333 29.883531 -1.000000
v 8.000000 30.000000 -1.450000
v 6.928203 34.000000 -1.000000
v 6.928203 34.000000 -1.450000
v 6.493537 33.883531 -1.000000
v 7.565333 29.883531 -1.000000
v 8.000000 30.000000 -0.550000
v 6.928203 34.000000 -0.550000
v 6.493537 33.883531 -1.000000
v 8.000000 30.000000 -1.000000
v 8.000000 30.000000 -0.550000
v 7.565333 29.883531 -1.000000
v 6.928203 34.000000 -1.000000
v 6.493537 33.883531 -1.000000
v 6.928203 34.000000 -0.550000
v 8.000000 30.000000 -0.550000
v 8.434667 30.116469 -1.000000
v 7.362870 34.116469 -1.000000
v 6.928203 34.000000 -0.550000
v 8.000000 30.000000 -1.000000
v 8.434667 30.116469 -1.000000
v 8.000000 30.000000 -0.550000
v 6.928203 34.000000 -1.000000
v 6.928203 34.000000 -0.550000
v 7.362870 34.116469 -1.000000
v 8.434667 30.116469 -1.000000
v 8.000000 30.000000 -1.450000
v 6.928203 34.000000 -1.450000
v 7.362870 34.116469 -1.000000
v 8.000000 30.000000 -1.000000
v 8.000000 30.000000 -1.450000
v 8.434667 30.116469 -1.000000
v 6.928203 34.000000 -1.000000
v 7.362870 34.116469 -1.000000
v 6.928203 34.000000 -1.450000
v 6.928203 34.000000 -1.450000
v 6.610005 33.681802 -1.000000
v 3.681802 36.610005 -1.000000
v 4.000000 36.928203 -1.450000
v 6.928203 34.000000 -1.000000
v 6.610005 33.681802 -1.000000
v 6.928203 34.000000 -1.450000
v 4.000000 36.928203 -1.000000
v 4.000000 36.928203 -1.450000
v 3.681802 36.610005 -1.000000
v 6.610005 33.681802 -1.000000
v 6.928203 34.000000 -0.550000
v 4.000000 36.928203 -0.550000
v 3.681802 36.610005 -1.000000
v 6.928203 34.000000 -1.000000
v 6.928203 34.000000 -0.550000
v 6.610005 33.681802 -1.000000
v 4.000000 36.928203 -1.000000
v 3.681802 36.610005 -1.000000
v 4.000000 36.928203 -0.550000
v 6.928203 34.000000 -0.550000
v 7.246401 34.318198 -1.000000
v 4.318198 37.246401 -1.000000
v 4.000000 36.928203 -0.550000
v 6.928203 34.000000 -1.000000
v 7.246401 34.318198 -1.000000
v 6.928203 34.000000 -0.550000
v 4.000000 36.928203 -1.000000
v 4.000000 36.928203 -0.550000
v 4.318198 37.246401 -1.000000
v 7.246401 34.318198 -1.000000
v 6.928203 34.000000 -1.450000
v 4.000000 36.928203 -1.450000
v 4.318198 37.246401 -1.000000
v 6.928203 34.000000 -1.000000
v 6.928203 34.000000 -1.450000
v 7.246401 34.318198 -1.000000
v 4.000000 36.928203 -1.000000
v 4.318198 37.246401 -1.000000
v 4.000000 36.928203 -1.450000
v 4.000000 36.928203 -1.450000
v 3.883531 36.493537 -1.000000
v -0.116469 37.565333 -1.000000
v 0.000000 38.000000 -1.450000
v 4.000000 36.928203 -1.000000
v 3.883531 36.493537 -1.000000
v 4.000000 36.928203 -1.450000
v 0.000000 38.000000 -1.000000
v 0.000000 38.000000 -1.450000
v -0.116469 37.565333 -1.000000
v 3.883531 36.493537 -1.000000
v 4.000000 36.928203 -0.550000
v 0.000000 38.000000 -0.550000
v -0.116469 37.565333 -1.000000
v 4.000000 36.928203 -1.000000
v 4.000000 36.928203 -0.550000
v 3.883531 36.493537 -1.000000
v 0.000000 38.000000 -1.000000
v -0.116469 37.565333 -1.000000
v 0.000000 38.000000 -0.550000
v 4.000000 36.928203 -0.550000
v 4.116469 37.362870 -1.000000
v 0.116469 38.434667 -1.000000
v 0.000000 38.000000 -0.550000
v 4.000000 36.928203 -1.000000
v 4.116469 37.362870 -1.000000
v 4.000000 36.928203 -0.550000
v 0.000000 38.000000 -1.000000
v 0.000000 38.000000 -0.550000
v 0.116469 38.434667 -1.000000
v 4.116469 37.362870 -1.000000
v 4.000000 36.928203 -1.450000
v 0.000000 38.000000 -1.450000
v 0.116469 38.434667 -1.000000
v 4.000000 36.928203 -1.000000
v 4.000000 36.928203 -1.450000
v 4.116469 37.362870 -1.000000
v 0.000000 38.000000 -1.000000
v 0.116469 38.434667 -1.000000
v 0.000000 38.000000 -1.450000
v 0.000000 38.000000 -1.450000
v 0.116469 37.565333 -1.000000
v -3.883531 36.493537 -1.000000
v -4.000000 36.928203 -1.450000
v 0.000000 38.000000 -1.000000
v 0.116469 37.565333 -1.000000
v 0.000000 38.000000 -1.450000
v -4.000000 36.928203 -1.000000
v -4.000000 36.928203 -1.450000
v -3.883531 36.493537 -1.000000
v 0.116469 37.565333 -1.000000
v 0.000000 38.000000 -0.550000
v -4.000000 36.928203 -0.550000
v -3.883531 36.493537 -1.000000
v 0.000000 38.000000 -1.000000
v 0.000000 38.000000 -0.550000
v 0.116469 37.565333 -1.000000
v -4.000000 36.928203 -1.000000
v -3.883531 36.493537 -1.000000
v -4.000000 36.928203 -0.550000
v 0.000000 38.000000 -0.550000
v -0.116469 38.434667 -1.000000
v -4.116469 37.362870 -1.000000
v -4.000000 36.928203 -0.550000
v 0.000000 38.000000 -1.000000
v -0.116469 38.434667 -1.000000
v 0.000000 38.000000 -0.550000
v -4.000000 36.928203 -1.000000
v -4.000000 36.928203 -0.550000
v -4.116469 37.362870 -1.000000
v -0.116469 38.434667 -1.000000
v 0.000000 38.000000 -1.450000
v -4.000000 36.928203 -1.450000
v -4.116469 37.362870 -1.000000
v 0.000000 38.000000 -1.000000
v 0.000000 38.000000 -1.450000
v -0.116469 38.434667 -1.000000
v -4.000000 36.928203 -1.000000
v -4.116469 37.362870 -1.000000
v -4.000000 36.928203 -1.450000
v -4.000000 36.928203 -0.550000
v -4.318198 37.246401 -1.000000
v -7.246401 34.318198 -1.000000
v -6.928203 34.000000 -0.550000
v -4.000000 36.928203 -1.000000
v -4.318198 37.246401 -1.000000
v -4.000000 36.928203 -0.550000
v -6.928203 34.000000 -1.000000
v -6.928203 34.000000 -0.550000
v -7.246401 34.318198 -1.000000
v -4.318198 37.246401 -1.000000
v -4.000000 36.928203 -1.450000
v -6.928203 34.000000 -1.450000
v -7.246401 34.318198 -1.000000
v -4.000000 36.928203 -1.000000
v -4.000000 36.928203 -1.450000
v -4.318198 37.246401 -1.000000
v -6.928203 34.000000 -1.000000
v -7.246401 34.318198 -1.000000
v -6.928203 34.000000 -1.450000
v -4.000000 36.928203 -1.450000
v -3.681802 36.610005 -1.000000
v -6.610005 33.681802 -1.000000
v -6.928203 34.000000 -1.450000
v -4.000000 36.928203 -1.000000
v -3.681802 36.610005 -1.000000
v -4.000000 36.928203 -1.450000
v -6.928203 34.000000 -1.000000
v -6.928203 34.000000 -1.450000
v -6.610005 33.681802 -1.000000
v -3.681802 36.610005 -1.000000
v -4.000000 36.928203 -0.550000
v -6.928203 34.000000 -0.550000
v -6.610005 33.681802 -1.000000
v -4.000000 36.928203 -1.000000
v -4.000000 36.928203 -0.550000
v -3.681802 36.610005 -1.000000
v -6.928203 34.000000 -1.000000
v -6.610005 33.681802 -1.000000
v -6.928203 34.000000 -0.550000
v -6.928203 34.000000 -0.550000
v -7.362870 34.116469 -1.000000
v -8.434667 30.116469 -1.000000
v -8.000000 30.000000 -0.550000
v -6.928203 34.000000 -1.000000
v -7.362870 34.116469 -1.000000
v -6.928203 34.000000 -0.550000
v -8.000000 30.000000 -1.000000
v -8.000000 30.000000 -0.550000
v -8.434667 30.116469 -1.000000
v -7.362870 34.116469 -1.000000
v -6.928203 34.000000 -1.450000
v -8.000000 30.000000 -1.450000
v -8.434667 30.116469 -1.000000
v -6.928203 34.000000 -1.000000
v -6.928203 34.000000 -1.450000
v -7.362870 34.116469 -1.000000
v -8.000000 30.000000 -1.000000
v -8.434667 30.116469 -1.000000
v -8.000000 30.000000 -1.450000
v -6.928203 34.000000 -1.450000
v -6.493537 33.883531 -1.000000
v -7.565333 29.883531 -1.000000
v -8.000000 30.000000 -1.450000
v -6.928203 34.000000 -1.000000
v -6.493537 33.883531 -1.000000
v -6.928203 34.000000 -1.450000
v -8.000000 30.000000 -1.000000
v -8.000000 30.000000 -1.450000
v -7.565333 29.883531 -1.000000
v -6.493537 33.883531 -1.000000
v -6.928203 34.000000 -0.550000
v -8.000000 30.000000 -0.550000
v -7.565333 29.883531 -1.000000
v -6.928203 34.000000 -1.000000
v -6.928203 34.000000 -0.550000
v -6.493537 33.883531 -1.000000
v -8.000000 30.000000 -1.000000
v -7.565333 29.883531 -1.000000
v -8.000000 30.000000 -0.550000
v -8.000000 30.000000 -0.550000
v -8.434667 29.883531 -1.000000
v -7.362870 25.883531 -1.000000
v -6.928203 26.000000 -0.550000
v -8.000000 30.000000 -1.000000
v -8.434667 29.883531 -1.000000
v -8.000000 30.000000 -0.550000
v -6.928203 26.000000 -1.000000
v -6.928203 26.000000 -0.550000
v -7.362870 25.883531 -1.000000
v -8.434667 29.883531 -1.000000
v -8.000000 30.000000 -1.450000
v -6.928203 26.000000 -1.450000
v -7.362870 25.883531 -1.000000
v -8.000000 30.000000 -1.000000
v -8.000000 30.000000 -1.450000
v -8.434667 29.883531 -1.000000
v -6.928203 26.000000 -1.000000
v -7.362870 25.883531 -1.000000
v -6.928203 26.000000 -1.450000
v -8.000000 30.000000 -1.450000
v -7.565333 30.116469 -1.000000
v -6.493537 26.116469 -1.000000
v -6.928203 26.000000 -1.450000
v -8.000000 30.000000 -1.000000
v -7.565333 30.116469 -1.000000
v -8.000000 30.000000 -1.450000
v -6.928203 26.000000 -1.000000
v -6.928203 26.000000 -1.450000
v -6.493537 26.116469 -1.000000
v -7.565333 30.116469 -1.000000
v -8.000000 30.000000 -0.550000
v -6.928203 26.000000 -0.550000
v -6.493537 26.116469 -1.000000
v -8.000000 30.000000 -1.000000
v -8.000000 30.000000 -0.550000
v -7.565333 30.116469 -1.000000
v -6.928203 26.000000 -1.000000
v -6.493537 26.116469 -1.000000
v -6.928203 26.000000 -0.550000
v -6.928203 26.000000 -0.550000
v -7.246401 25.681802 -1.000000
v -4.318198 22.753599 -1.000000
v -4.000000 23.071797 -0.550000
v -6.928203 26.000000 -1.000000
v -7.246401 25.681802 -1.000000
v -6.928203 26.000000 -0.550000
v -4.000000 23.071797 -1.000000
v -4.000000 23.071797 -0.550000
v -4.318198 22.753599 -1.000000
v -7.246401 25.681802 -1.000000
v -6.928203 26.000000 -1.450000
v -4.000000 23.071797 -1.450000
v -4.318198 22.753599 -1.000000
v -6.928203 26.000000 -1.000000
v -6.928203 26.000000 -1.450000
v -7.246401 25.681802 -1.000000
v -4.000000 23.071797 -1.000000
v -4.318198 22.753599 -1.000000
v -4.000000 23.071797 -1.450000
v -6.928203 26.000000 -1.450000
v -6.610005 26.318198 -1.000000
v -3.681802 23.389995 -1.000000
v -4.000000 23.071797 -1.450000
v -6.928203 26.000000 -1.000000
v -6.610005 26.318198 -1.000000
v -6.928203 26.000000 -1.450000
v -4.000000 23.071797 -1.000000
v -4.000000 23.071797 -1.450000
v -3.681802 23.389995 -1.000000
v -6.610005 26.318198 -1.000000
v -6.928203 26.000000 -0.550000
v -4.000000 23.071797 -0.550000
v -3.681802 23.389995 -1.000000
v -6.928203 26.000000 -1.000000
v -6.928203 26.000000 -0.550000
v -6.610005 26.318198 -1.000000
v -4.000000 23.071797 -1.000000
v -3.681802 23.389995 -1.000000
v -4.000000 23.071797 -0.550000
v -4.000000 23.071797 -0.550000
v -4.116469 22.637130 -1.000000
v -0.116469 21.565333 -1.000000
v -0.000000 22.000000 -0.550000
v -4.000000 23.071797 -1.000000
v -4.116469 22.637130 -1.000000
v -4.000000 23.071797 -0.550000
v -0.000000 22.000000 -1.000000
v -0.000000 22.000000 -0.550000
v -0.116469 21.565333 -1.000000
v -4.116469 22.637130 -1.000000
v -4.000000 23.071797 -1.450000
v -0.000000 22.000000 -1.450000
v -0.116469 21.565333 -1.000000
v -4.000000 23.071797 -1.000000
v -4.000000 23.071797 -1.450000
v -4.116469 22.637130 -1.000000
v -0.000000 22.000000 -1.000000
v -0.116469 21.565333 -1.000000
v -0.000000 22.000000 -1.450000
v -4.000000 23.071797 -1.450000
v -3.883531 23.506463 -1.000000
v 0.116469 22.434667 -1.000000
v -0.000000 22.000000 -1.450000
v -4.000000 23.071797 -1.000000
v -3.883531 23.506463 -1.000000
v -4.000000 23.071797 -1.450000
v -0.000000 22.000000 -1.000000
v -0.000000 22.000000 -1.450000
v 0.116469 22.434667 -1.000000
v -3.883531 23.506463 -1.000000
v -4.000000 23.071797 -0.550000
v -0.000000 22.000000 -0.550000
v 0.116469 22.434667 -1.000000
v -4.000000 23.071797 -1.000000
v -4.000000 23.071797 -0.550000
v -3.883531 23.506463 -1.000000
v -0.000000 22.000000 -1.000000
v 0.116469 22.434667 -1.000000
v -0.000000 22.000000 -0.550000
v -0.000000 22.000000 -0.550000
v 0.116469 21.565333 -1.000000
v 4.116469 22.637130 -1.000000
v 4.000000 23.071797 -0.550000
v -0.000000 22.000000 -1.000000
v 0.116469 21.565333 -1.000000
v -0.000000 22.000000 -0.550000
v 4.000000 23.071797 -1.000000
v 4.000000 23.071797 -0.550000
v 4.116469 22.637130 -1.000000
v 0.116469 21.565333 -1.000000
v -0.000000 22.000000 -1.450000
v 4.000000 23.071797 -1.450000
v 4.116469 22.637130 -1.000000
v -0.000000 22.000000 -1.000000
v -0.000000 22.000000 -1.450000
v 0.116469 21.565333 -1.000000
v 4.000000 23.071797 -1.000000
v 4.116469 22.637130 -1.000000
v 4.000000 23.071797 -1.450000
v -0.000000 22.000000 -1.450000
v -0.116469 22.434667 -1.000000
v 3.883531 23.506463 -1.000000
v 4.000000 23.071797 -1.450000
v -0.000000 22.000000 -1.000000
v -0.116469 22.434667 -1.000000
v -0.000000 22.000000 -1.450000
v 4.000000 23.071797 -1.000000
v 4.000000 23.071797 -1.450000
v 3.883531 23.506463 -1.000000
v -0.116469 22.434667 -1.000000
v -0.000000 22.000000 -0.550000
v 4.000000 23.071797 -0.550000
v 3.883531 23.506463 -1.000000
v -0.000000 22.000000 -1.000000
v -0.000000 22.000000 -0.550000
v -0.116469 22.434667 -1.000000
v 4.000000 23.071797 -1.000000
v 3.883531 23.506463 -1.000000
v 4.000000 23.071797 -0.550000
v 4.000000 23.071797 -1.450000
v 3.681802 23.389995 -1.000000
v 6.610005 26.318198 -1.000000
v 6.928203 26.000000 -1.450000
v 4.000000 23.071797 -1.000000
v 3.681802 23.389995 -1.000000
v 4.000000 23.071797 -1.450000
v 6.928203 26.000000 -1.000000
v 6.928203 26.000000 -1.450000
v 6.610005 26.318198 -1.000000
v 3.681802 23.389995 -1.000000
v 4.000000 23.071797 -0.550000
v 6.928203 26.000000 -0.550000
v 6.610005 26.318198 -1.000000
v 4.000000 23.071797 -1.000000
v 4.000000 23.071797 -0.550000
v 3.681802 23.389995 -1.000000
v 6.928203 26.000000 -1.000000
v 6.610005 26.318198 -1.000000
v 6.928203 26.000000 -0.550000
v 4.000000 23.071797 -0.550000
v 4.318198 22.753599 -1.000000
v 7.246401 25.681802 -1.000000
v 6.928203 26.000000 -0.550000
v 4.000000 23.071797 -1.000000
v 4.318198 22.753599 -1.000000
v 4.000000 23.071797 -0.550000
v 6.928203 26.000000 -1.000000
v 6.928203 26.000000 -0.550000
v 7.246401 25.681802 -1.000000
v 4.318198 22.753599 -1.000000
v 4.000000 23.071797 -1.450000
v 6.928203 26.000000 -1.450000
v 7.246401 25.681802 -1.000000
v 4.000000 23.071797 -1.000000
v 4.000000 23.071797 -1.450000
v 4.318198 22.753599 -1.000000
v 6.928203 26.000000 -1.000000
v 7.246401 25.681802 -1.000000
v 6.928203 26.000000 -1.450000
v 6.928203 26.000000 -1.450000
v 6.493537 26.116469 -1.000000
v 7.565333 30.116469 -1.000000
v 8.000000 30.000000 -1.450000
v 6.928203 26.000000 -1.000000
v 6.493537 26.116469 -1.000000
v 6.928203 26.000000 -1.450000
v 8.000000 30.000000 -1.000000
v 8.000000 30.000000 -1.450000
v 7.565333 30.116469 -1.000000
v 6.493537 26.116469 -1.000000
v 6.928203 26.000000 -0.550000
v 8.000000 30.000000 -0.550000
v 7.565333 30.116469 -1.000000
v 6.928203 26.000000 -1.000000
v 6.928203 26.000000 -0.550000
v 6.493537 26.116469 -1.000000
v 8.000000 30.000000 -1.000000
v 7.565333 30.116469 -1.000000
v 8.000000 30.000000 -0.550000
v 6.928203 26.000000 -0.550000
v 7.362870 25.883531 -1.000000
v 8.434667 29.883531 -1.000000
v 8.000000 30.000000 -0.550000
v 6.928203 26.000000 -1.000000
v 7.362870 25.883531 -1.000000
v 6.928203 26.000000 -0.550000
v 8.000000 30.000000 -1.000000
v 8.000000 30.000000 -0.550000
v 8.434667 29.883531 -1.000000
v 7.362870 25.883531 -1.000000
v 6.928203 26.000000 -1.450000
v 8.000000 30.000000 -1.450000
v 8.434667 29.883531 -1.000000
v 6.928203 26.000000 -1.000000
v 6.928203 26.000000 -1.450000
v 7.362870 25.883531 -1.000000
v 8.000000 30.000000 -1.000000
v 8.434667 29.883531 -1.000000
v 8.000000 30.000000 -1.450000
v -9.000000 24.000000 1.800000
v -10.039230 24.000000 2.400000
v -10.039230 24.600000 2.400000
v -9.000000 24.600000 1.800000
v -9.000000 24.000000 3.000000
v -10.039230 24.000000 2.400000
v -9.000000 24.000000 1.800000
v -9.000000 24.600000 3.000000
v -9.000000 24.600000 1.800000
v -10.039230 24.600000 2.400000
v -10.039230 24.000000 2.400000
v -10.039230 24.000000 3.600000
v -10.039230 24.600000 3.600000
v -10.039230 24.600000 2.400000
v -9.000000 24.000000 3.000000
v -10.039230 24.000000 3.600000
v -10.039230 24.000000 2.400000
v -9.000000 24.600000 3.000000
v -10.039230 24.600000 2.400000
v -10.039230 24.600000 3.600000
v -10.039230 24.000000 3.600000
v -9.000000 24.000000 4.200000
v -9.000000 24.600000 4.200000
v -10.039230 24.600000 3.600000
v -9.000000 24.000000 3.000000
v -9.000000 24.000000 4.200000
v -10.039230 24.000000 3.600000
v -9.000000 24.600000 3.000000
v -10.039230 24.600000 3.600000
v -9.000000 24.600000 4.200000
v -9.000000 24.000000 4.200000
v -7.960770 24.000000 3.600000
v -7.960770 24.600000 3.600000
v -9.000000 24.600000 4.200000
v -9.000000 24.000000 3.000000
v -7.960770 24.000000 3.600000
v -9.000000 24.000000 4.200000
v -9.000000 24.600000 3.000000
v -9.000000 24.600000 4.200000
v -7.960770 24.600000 3.600000
v -7.960770 24.000000 3.600000
v -7.960770 24.000000 2.400000
v -7.960770 24.600000 2.400000
v -7.960770 24.600000 3.600000
v -9.000000 24.000000 3.000000
v -7.960770 24.000000 2.400000
v -7.960770 24.000000 3.600000
v -9.000000 24.600000 3.000000
v -7.960770 24.600000 3.600000
v -7.960770 24.600000 2.400000
v -7.960770 24.000000 2.400000
v -9.000000 24.000000 1.800000
v -9.000000 24.600000 1.800000
v -7.960770 24.600000 2.400000
v -9.000000 24.000000 3.000000
v -9.000000 24.000000 1.800000
v -7.960770 24.000000 2.400000
v -9.000000 24.600000 3.000000
v -7.960770 24.600000 2.400000
v -9.000000 24.600000 1.800000
v -9.000000 24.600000 2.350000
v -9.562917 24.600000 2.675000
v -9.562917 28.000000 2.675000
v -9.000000 28.000000 2.350000
v -9.000000 24.600000 3.000000
v -9.562917 24.600000 2.675000
v -9.000000 24.600000 2.350000
v -9.000000 28.000000 3.000000
v -9.000000 28.000000 2.350000
v -9.562917 28.000000 2.675000
v -9.562917 24.600000 2.675000
v -9.562917 24.600000 3.325000
v -9.562917 28.000000 3.325000
v -9.562917 28.000000 2.675000
v -9.000000 24.600000 3.000000
v -9.562917 24.600000 3.325000
v -9.562917 24.600000 2.675000
v -9.000000 28.000000 3.000000
v -9.562917 28.000000 2.675000
v -9.562917 28.000000 3.325000
v -9.562917 24.600000 3.325000
v -9.000000 24.600000 3.650000
v -9.000000 28.000000 3.650000
v -9.562917 28.000000 3.325000
v -9.000000 24.600000 3.000000
v -9.000000 24.600000 3.650000
v -9.562917 24.600000 3.325000
v -9.000000 28.000000 3.000000
v -9.562917 28.000000 3.325000
v -9.000000 28.000000 3.650000
v -9.000000 24.600000 3.650000
v -8.437083 24.600000 3.325000
v -8.437083 28.000000 3.325000
v -9.000000 28.000000 3.650000
v -9.000000 24.600000 3.000000
v -8.437083 24.600000 3.325000
v -9.000000 24.600000 3.650000
v -9.000000 28.000000 3.000000
v -9.000000 28.000000 3.650000
v -8.437083 28.000000 3.325000
v -8.437083 24.600000 3.325000
v -8.437083 24.600000 2.675000
v -8.437083 28.000000 2.675000
v -8.437083 28.000000 3.325000
v -9.000000 24.600000 3.000000
v -8.437083 24.600000 2.675000
v -8.437083 24.600000 3.325000
v -9.000000 28.000000 3.000000
v -8.437083 28.000000 3.325000
v -8.437083 28.000000 2.675000
v -8.437083 24.600000 2.675000
v -9.000000 24.600000 2.350000
v -9.000000 28.000000 2.350000
v -8.437083 28.000000 2.675000
v -9.000000 24.600000 3.000000
v -9.000000 24.600000 2.350000
v -8.437083 24.600000 2.675000
v -9.000000 28.000000 3.000000
v -8.437083 28.000000 2.675000
v -9.000000 28.000000 2.350000
v -9.000000 27.850000 3.000000
v -9.000000 28.700000 3.500000
v -8.500000 28.700000 3.000000
v -9.000000 29.550000 3.000000
v -8.500000 28.700000 3.000000
v -9.000000 28.700000 3.500000
v -9.000000 27.850000 3.000000
v -9.500000 28.700000 3.000000
v -9.000000 28.700000 3.500000
v -9.000000 29.550000 3.000000
v -9.000000 28.700000 3.500000
v -9.500000 28.700000 3.000000
v -9.000000 27.850000 3.000000
v -9.000000 28.700000 2.500000
v -9.500000 28.700000 3.000000
v -9.000000 29.550000 3.000000
v -9.500000 28.700000 3.000000
v -9.000000 28.700000 2.500000
v -9.000000 27.850000 3.000000
v -8.500000 28.700000 3.000000
v -9.000000 28.700000 2.500000
v -9.000000 29.550000 3.000000
v -9.000000 28.700000 2.500000
v -8.500000 28.700000 3.000000
v 9.000000 24.000000 1.800000
v 7.960770 24.000000 2.400000
v 7.960770 24.600000 2.400000
v 9.000000 24.600000 1.800000
v 9.000000 24.000000 3.000000
v 7.960770 24.000000 2.400000
v 9.000000 24.000000 1.800000
v 9.000000 24.600000 3.000000
v 9.000000 24.600000 1.800000
v 7.960770 24.600000 2.400000
v 7.960770 24.000000 2.400000
v 7.960770 24.000000 3.600000
v 7.960770 24.600000 3.600000
v 7.960770 24.600000 2.400000
v 9.000000 24.000000 3.000000
v 7.960770 24.000000 3.600000
v 7.960770 24.000000 2.400000
v 9.000000 24.600000 3.000000
v 7.960770 24.600000 2.400000
v 7.960770 24.600000 3.600000
v 7.960770 24.000000 3.600000
v 9.000000 24.000000 4.200000
v 9.000000 24.600000 4.200000
v 7.960770 24.600000 3.600000
v 9.000000 24.000000 3.000000
v 9.000000 24.000000 4.200000
v 7.960770 24.000000 3.600000
v 9.000000 24.600000 3.000000
v 7.960770 24.600000 3.600000
v 9.000000 24.600000 4.200000
v 9.000000 24.000000 4.200000
v 10.039230 24.000000 3.600000
v 10.039230 24.600000 3.600000
v 9.000000 24.600000 4.200000
v 9.000000 24.000000 3.000000
v 10.039230 24.000000 3.600000
v 9.000000 24.000000 4.200000
v 9.000000 24.600000 3.000000
v 9.000000 24.600000 4.200000
v 10.039230 24.600000 3.600000
v 10.039230 24.000000 3.600000
v 10.039230 24.000000 2.400000
v 10.039230 24.600000 2.400000
v 10.039230 24.600000 3.600000
v 9.000000 24.000000 3.000000
v 10.039230 24.000000 2.400000
v 10.039230 24.000000 3.600000
v 9.000000 24.600000 3.000000
v 10.039230 24.600000 3.600000
v 10.039230 24.600000 2.400000
v 10.039230 24.000000 2.400000
v 9.000000 24.000000 1.800000
v 9.000000 24.600000 1.800000
v 10.039230 24.600000 2.400000
v 9.000000 24.000000 3.000000
v 9.000000 24.000000 1.800000
v 10.039230 24.000000 2.400000
v 9.000000 24.600000 3.000000
v 10.039230 24.600000 2.400000
v 9.000000 24.600000 1.800000
v 9.000000 24.600000 2.350000
v 8.437083 24.600000 2.675000
v 8.437083 28.000000 2.675000
v 9.000000 28.000000 2.350000
v 9.000000 24.600000 3.000000
v 8.437083 24.600000 2.675000
v 9.000000 24.600000 2.350000
v 9.000000 28.000000 3.000000
v 9.000000 28.000000 2.350000
v 8.437083 28.000000 2.675000
v 8.437083 24.600000 2.675000
v 8.437083 24.600000 3.325000
v 8.437083 28.000000 3.325000
v 8.437083 28.000000 2.675000
v 9.000000 24.600000 3.000000
v 8.437083 24.600000 3.325000
v 8.437083 24.600000 2.675000
v 9.000000 28.000000 3.000000
v 8.437083 28.000000 2.675000
v 8.437083 28.000000 3.325000
v 8.437083 24.600000 3.325000
v 9.000000 24.600000 3.650000
v 9.000000 28.000000 3.650000
v 8.437083 28.000000 3.325000
v 9.000000 24.600000 3.000000
v 9.000000 24.600000 3.650000
v 8.437083 24.600000 3.325000
v 9.000000 28.000000 3.000000
v 8.437083 28.000000 3.325000
v 9.000000 28.000000 3.650000
v 9.000000 24.600000 3.650000
v 9.562917 24.600000 3.325000
v 9.562917 28.000000 3.325000
v 9.000000 28.000000 3.650000
v 9.000000 24.600000 3.000000
v 9.562917 24.600000 3.325000
v 9.000000 24.600000 3.650000
v 9.000000 28.000000 3.000000
v 9.000000 28.000000 3.650000
v 9.562917 28.000000 3.325000
v 9.562917 24.600000 3.325000
v 9.562917 24.600000 2.675000
v 9.562917 28.000000 2.675000
v 9.562917 28.000000 3.325000
v 9.000000 24.600000 3.000000
v 9.562917 24.600000 2.675000
v 9.562917 24.600000 3.325000
v 9.000000 28.000000 3.000000
v 9.562917 28.000000 3.325000
v 9.562917 28.000000 2.675000
v 9.562917 24.600000 2.675000
v 9.000000 24.600000 2.350000
v 9.000000 28.000000 2.350000
v 9.562917 28.000000 2.675000
v 9.000000 24.600000 3.000000
v 9.000000 24.600000 2.350000
v 9.562917 24.600000 2.675000
v 9.000000 28.000000 3.000000
v 9.562917 28.000000 2.675000
v 9.000000 28.000000 2.350000
v 9.000000 27.850000 3.000000
v 9.000000 28.700000 3.500000
v 9.500000 28.700000 3.000000
v 9.000000 29.550000 3.000000
v 9.500000 28.700000 3.000000
v 9.000000 28.700000 3.500000
v 9.000000 27.850000 3.000000
v 8.500000 28.700000 3.000000
v 9.000000 28.700000 3.500000
v 9.000000 29.550000 3.000000
v 9.000000 28.700000 3.500000
v 8.500000 28.700000 3.000000
v 9.000000 27.850000 3.000000
v 9.000000 28.700000 2.500000
v 8.500000 28.700000 3.000000
v 9.000000 29.550000 3.000000
v 8.500000 28.700000 3.000000
v 9.000000 28.700000 2.500000
v 9.000000 27.850000 3.000000
v 9.500000 28.700000 3.000000
v 9.000000 28.700000 2.500000
v 9.000000 29.550000 3.000000
v 9.000000 28.700000 2.500000
v 9.500000 28.700000 3.000000
v -3.000000 4.000000 14.000000
v 3.000000 4.000000 14.000000
v 3.000000 5.000000 14.000000
v -3.000000 5.000000 14.000000
v 3.000000 4.000000 10.000000
v -3.000000 4.000000 10.000000
v -3.000000 5.000000 10.000000
v 3.000000 5.000000 10.000000
v 3.000000 4.000000 14.000000
v 3.000000 4.000000 10.000000
v 3.000000 5.000000 10.000000
v 3.000000 5.000000 14.000000
v -3.000000 4.000000 10.000000
v -3.000000 4.000000 14.000000
v -3.000000 5.000000 14.000000
v -3.000000 5.000000 10.000000
v -3.000000 5.000000 14.000000
v 3.000000 5.000000 14.000000
v 3.000000 5.000000 10.000000
v -3.000000 5.000000 10.000000
v -3.000000 4.000000 10.000000
v 3.000000 4.000000 10.000000
v 3.000000 4.000000 14.000000
v -3.000000 4.000000 14.000000
v -2.800000 4.900000 13.800000
v 2.800000 4.900000 13.800000
v 2.800000 5.500000 13.800000
v -2.800000 5.500000 13.800000
v 2.800000 4.900000 10.200000
v -2.800000 4.900000 10.200000
v -2.800000 5.500000 10.200000
v 2.800000 5.500000 10.200000
v 2.800000 4.900000 13.800000
v 2.800000 4.900000 10.200000
v 2.800000 5.500000 10.200000
v 2.800000 5.500000 13.800000
v -2.800000 4.900000 10.200000
v -2.800000 4.900000 13.800000
v -2.800000 5.500000 13.800000
v -2.800000 5.500000 10.200000
v -2.800000 5.500000 13.800000
v 2.800000 5.500000 13.800000
v 2.800000 5.500000 10.200000
v -2.800000 5.500000 10.200000
v -2.800000 4.900000 10.200000
v 2.800000 4.900000 10.200000
v 2.800000 4.900000 13.800000
v -2.800000 4.900000 13.800000
vt 0.000000 0.000000
vt 1.000000 0.000000
vt 1.000000 1.000000
vt 0.000000 1.000000
vt 0.500000 1.000000
vt 0.000000 0.000000
vt 1.000000 0.000000
vt 0.500000 1.000000
vt 0.000000 0.000000
vt 1.000000 0.000000
vt 0.000000 0.000000
vt 1.000000 0.000000
vt 1.000000 1.000000
vt 0.000000 1.000000
vt 0.500000 1.000000
vt 0.000000 0.000000
vt 1.000000 0.000000
vt 0.500000 1.000000
vt 0.000000 0.000000
vt 1.000000 0.000000
vt 0.000000 0.000000
vt 1.000000 0.000000
vt 1.000000 1.000000
vt 0.000000 1.000000
vt 0.500000 1.000000
vt 0.000000 0.000000
vt 1.000000 0.000000
vt 0.500000 1.000000
vt 0.000000 0.000000
vt 1.000000 0.000000
vt 0.000000 0.000000
vt 1.000000 0.000000
vt 1.000000 1.000000
vt 0.000000 1.000000
vt 0.500000 1.000000
vt 0.000000 0.000000
vt 1.000000 0.000000
vt 0.500000 1.000000
vt 0.000000 0.000000
vt 1.000000 0.000000
vt 0.000000 0.000000
vt 1.000000 0.000000
vt 1.000000 1.000000
vt 0.000000 1.000000
vt 0.500000 1.000000
vt 0.000000 0.000000
vt 1.000000 0.000000
vt 0.500000 1.000000
vt 0.000000 0.000000
vt 1.000000 0.000000
vt 0.000000 0.000000
vt 1.000000 0.000000
vt 1.000000 1.000000
vt 0.000000 1.000000
vt 0.500000 1.000000
vt 0.000000 0.000000
vt 1.000000 0.000000
vt 0.500000 1.000000
vt 0.000000 0.000000
vt 1.000000 0.000000
vt 0.000000 0.000000
vt 1.000000 0.000000
vt 1.000000 1.000000
vt 0.000000 1.000000
vt 0.500000 1.000000
vt 0.000000 0.000000
vt 1.000000 0.000000
vt 0.500000 1.000000
vt 0.000000 0.000000
vt 1.000000 0.000000
vt 0.000000 0.000000
vt 1.000000 0.000000
vt 1.000000 1.000000
vt 0.000000 1.000000
vt 0.500000 1.000000
vt 0.000000 0.000000
vt 1.000000 0.000000
vt 0.500000 1.000000
vt 0.000000 0.000000
vt 1.000000 0.000000
vt 0.000000 0.000000
vt 1.000000 0.000000
vt 1.000000 1.000000
vt 0.000000 1.000000
vt 0.500000 1.000000
vt 0.000000 0.000000
vt 1.000000 0.000000
vt 0.500000 1.000000
vt 0.000000 0.000000
vt 1.000000 0.000000
vt 0.000000 0.000000
vt 1.000000 0.000000
vt 1.000000 1.000000
vt 0.000000 1.000000
vt 0.500000 1.000000
vt 0.000000 0.000000
vt 1.000000 0.000000
vt 0.500000 1.000000
vt 0.000000 0.000000
vt 1.000000 0.000000
vt 0.000000 0.000000
vt 1.000000 0.000000
vt 1.000000 1.000000
vt 0.000000 1.000000
vt 0.500000 1.000000
vt 0.000000 0.000000
vt 1.000000 0.000000
vt 0.500000 1.000000
vt 0.000000 0.000000
vt 1.000000 0.000000
vt 0.000000 0.000000
vt 1.000000 0.000000
vt 1.000000 1.000000
vt 0.000000 1.000000
vt 0.500000 1.000000
vt 0.000000 0.000000
vt 1.000000 0.000000
vt 0.500000 1.000000
vt 0.000000 0.000000
vt 1.000000 0.000000
vt 0.000000 0.000000
vt 1.000000 0.000000
vt 1.000000 1.000000
vt 0.000000 1.000000
vt 0.500000 1.000000
vt 0.000000 0.000000
vt 1.000000 0.000000
vt 0.500000 1.000000
vt 0.000000 0.000000
vt 1.000000 0.000000
vt 0.000000 0.000000
vt 1.000000 0.000000
vt 1.000000 1.000000
vt 0.000000 1.000000
vt 0.500000 1.000000
vt 0.000000 0.000000
vt 1.000000 0.000000
vt 0.500000 1.000000
vt 0.000000 0.000000
vt 1.000000 0.000000
vt 0.000000 0.000000
vt 1.000000 0.000000
vt 1.000000 1.000000
vt 0.000000 1.000000
vt 0.500000 1.000000
vt 0.000000 0.000000
vt 1.000000 0.000000
vt 0.500000 1.000000
vt 0.000000 0.000000
vt 1.000000 0.000000
vt 0.000000 0.000000
vt 1.000000 0.000000
vt 1.000000 1.000000
vt 0.000000 1.000000
vt 0.500000 1.000000
vt 0.000000 0.000000
vt 1.000000 0.000000
vt 0.500000 1.000000
vt 0.000000 0.000000
vt 1.000000 0.000000
vt 0.000000 0.000000
vt 1.000000 0.000000
vt 1.000000 1.000000
vt 0.000000 1.000000
vt 0.500000 1.000000
vt 0.000000 0.000000
vt 1.000000 0.000000
vt 0.500000 1.000000
vt 0.000000 0.000000
vt 1.000000 0.000000
vt 0.000000 0.000000
vt 1.000000 0.000000
vt 1.000000 1.000000
vt 0.000000 1.000000
vt 0.500000 1.000000
vt 0.000000 0.000000
vt 1.000000 0.000000
vt 0.500000 1.000000
vt 0.000000 0.000000
vt 1.000000 0.000000
vt 0.000000 0.000000
vt 1.000000 0.000000
vt 1.000000 1.000000
vt 0.000000 1.000000
vt 0.500000 1.000000
vt 0.000000 0.000000
vt 1.000000 0.000000
vt 0.500000 1.000000
vt 0.000000 0.000000
vt 1.000000 0.000000
vt 0.000000 0.000000
vt 1.000000 0.000000
vt 1.000000 1.000000
vt 0.000000 1.000000
vt 0.500000 1.000000
vt 0.000000 0.000000
vt 1.000000 0.000000
vt 0.500000 1.000000
vt 0.000000 0.000000
vt 1.000000 0.000000
vt 0.000000 0.000000
vt 1.000000 0.000000
vt 1.000000 1.000000
vt 0.000000 1.000000
vt 0.500000 1.000000
vt 0.000000 0.000000
vt 1.000000 0.000000
vt 0.500000 1.000000
vt 0.000000 0.000000
vt 1.000000 0.000000
vt 0.000000 0.000000
vt 1.000000 0.000000
vt 1.000000 1.000000
vt 0.000000 1.000000
vt 0.500000 1.000000
vt 0.000000 0.000000
vt 1.000000 0.000000
vt 0.500000 1.000000
vt 0.000000 0.000000
vt 1.000000 0.000000
vt 0.000000 0.000000
vt 1.000000 0.000000
vt 1.000000 1.000000
vt 0.000000 1.000000
vt 0.500000 1.000000
vt 0.000000 0.000000
vt 1.000000 0.000000
vt 0.500000 1.000000
vt 0.000000 0.000000
vt 1.000000 0.000000
vt 0.000000 0.000000
vt 1.000000 0.000000
vt 1.000000 1.000000
vt 0.000000 1.000000
vt 0.500000 1.000000
vt 0.000000 0.000000
vt 1.000000 0.000000
vt 0.500000 1.000000
vt 0.000000 0.000000
vt 1.000000 0.000000
vt 0.000000 0.000000
vt 1.000000 0.000000
vt 1.000000 1.000000
vt 0.000000 1.000000
vt 0.000000 0.000000
vt 1.000000 0.000000
vt 1.000000 1.000000
vt 0.000000 1.000000
vt 0.000000 0.000000
vt 1.000000 0.000000
vt 1.000000 1.000000
vt 0.000000 1.000000
vt 0.000000 0.000000
vt 1.000000 0.000000
vt 1.000000 1.000000
vt 0.000000 1.000000
vt 0.000000 0.000000
vt 1.000000 0.000000
vt 1.000000 1.000000
vt 0.000000 1.000000
vt 0.000000 0.000000
vt 1.000000 0.000000
vt 1.000000 1.000000
vt 0.000000 1.000000
vt 0.000000 0.000000
vt 1.000000 0.000000
vt 1.000000 1.000000
vt 0.000000 1.000000
vt 0.000000 0.000000
vt 1.000000 0.000000
vt 1.000000 1.000000
vt 0.000000 1.000000
vt 0.000000 0.000000
vt 1.000000 0.000000
vt 1.000000 1.000000
vt 0.000000 1.000000
vt 0.000000 0.000000
vt 1.000000 0.000000
vt 1.000000 1.000000
vt 0.000000 1.000000
vt 0.000000 0.000000
vt 1.000000 0.000000
vt 1.000000 1.000000
vt 0.000000 1.000000
vt 0.000000 0.000000
vt 1.000000 0.000000
vt 1.000000 1.000000
vt 0.000000 1.000000
vt 0.000000 0.000000
vt 1.000000 0.000000
vt 1.000000 1.000000
vt 0.000000 1.000000
vt 0.000000 0.000000
vt 1.000000 0.000000
vt 1.000000 1.000000
vt 0.000000 1.000000
vt 0.000000 0.000000
vt 1.000000 0.000000
vt 1.000000 1.000000
vt 0.000000 1.000000
vt 0.000000 0.000000
vt 1.000000 0.000000
vt 1.000000 1.000000
vt 0.000000 1.000000
vt 0.000000 0.000000
vt 1.000000 0.000000
vt 1.000000 1.000000
vt 0.000000 1.000000
vt 0.000000 0.000000
vt 1.000000 0.000000
vt 1.000000 1.000000
vt 0.000000 1.000000
vt 0.000000 0.000000
vt 1.000000 0.000000
vt 1.000000 1.000000
vt 0.000000 1.000000
vt 0.000000 0.000000
vt 1.000000 0.000000
vt 1.000000 1.000000
vt 0.000000 1.000000
vt 0.000000 0.000000
vt 1.000000 0.000000
vt 1.000000 1.000000
vt 0.000000 1.000000
vt 0.000000 0.000000
vt 1.000000 0.000000
vt 1.000000 1.000000
vt 0.000000 1.000000
vt 0.000000 0.000000
vt 1.000000 0.000000
vt 1.000000 1.000000
vt 0.000000 1.000000
vt 0.000000 0.000000
vt 1.000000 0.000000
vt 1.000000 1.000000
vt 0.000000 1.000000
vt 0.000000 0.000000
vt 1.000000 0.000000
vt 1.000000 1.000000
vt 0.000000 1.000000
vt 0.500000 1.000000
vt 0.000000 0.000000
vt 1.000000 0.000000
vt 0.500000 1.000000
vt 0.000000 0.000000
vt 1.000000 0.000000
vt 0.000000 0.000000
vt 1.000000 0.000000
vt 1.000000 1.000000
vt 0.000000 1.000000
vt 0.500000 1.000000
vt 0.000000 0.000000
vt 1.000000 0.000000
vt 0.500000 1.000000
vt 0.000000 0.000000
vt 1.000000 0.000000
vt 0.000000 0.000000
vt 1.000000 0.000000
vt 1.000000 1.000000
vt 0.000000 1.000000
vt 0.500000 1.000000
vt 0.000000 0.000000
vt 1.000000 0.000000
vt 0.500000 1.000000
vt 0.000000 0.000000
vt 1.000000 0.000000
vt 0.000000 0.000000
vt 1.000000 0.000000
vt 1.000000 1.000000
vt 0.000000 1.000000
vt 0.500000 1.000000
vt 0.000000 0.000000
vt 1.000000 0.000000
vt 0.500000 1.000000
vt 0.000000 0.000000
vt 1.000000 0.000000
vt 0.000000 0.000000
vt 1.000000 0.000000
vt 1.000000 1.000000
vt 0.000000 1.000000
vt 0.500000 1.000000
vt 0.000000 0.000000
vt 1.000000 0.000000
vt 0.500000 1.000000
vt 0.000000 0.000000
vt 1.000000 0.000000
vt 0.000000 0.000000
vt 1.000000 0.000000
vt 1.000000 1.000000
vt 0.000000 1.000000
vt 0.500000 1.000000
vt 0.000000 0.000000
vt 1.000000 0.000000
vt 0.500000 1.000000
vt 0.000000 0.000000
vt 1.000000 0.000000
vt 0.000000 0.000000
vt 1.000000 0.000000
vt 1.000000 1.000000
vt 0.000000 1.000000
vt 0.500000 1.000000
vt 0.000000 0.000000
vt 1.000000 0.000000
vt 0.500000 1.000000
vt 0.000000 0.000000
vt 1.000000 0.000000
vt 0.000000 0.000000
vt 1.000000 0.000000
vt 1.000000 1.000000
vt 0.000000 1.000000
vt 0.500000 1.000000
vt 0.000000 0.000000
vt 1.000000 0.000000
vt 0.500000 1.000000
vt 0.000000 0.000000
vt 1.000000 0.000000
vt 0.000000 0.000000
vt 1.000000 0.000000
vt 1.000000 1.000000
vt 0.000000 1.000000
vt 0.500000 1.000000
vt 0.000000 0.000000
vt 1.000000 0.000000
vt 0.500000 1.000000
vt 0.000000 0.000000
vt 1.000000 0.000000
vt 0.000000 0.000000
vt 1.000000 0.000000
vt 1.000000 1.000000
vt 0.000000 1.000000
vt 0.500000 1.000000
vt 0.000000 0.000000
vt 1.000000 0.000000
vt 0.500000 1.000000
vt 0.000000 0.000000
vt 1.000000 0.000000
vt 0.000000 0.000000
vt 1.000000 0.000000
vt 1.000000 1.000000
vt 0.000000 1.000000
vt 0.500000 1.000000
vt 0.000000 0.000000
vt 1.000000 0.000000
vt 0.500000 1.000000
vt 0.000000 0.000000
vt 1.000000 0.000000
vt 0.000000 0.000000
vt 1.000000 0.000000
vt 1.000000 1.000000
vt 0.000000 1.000000
vt 0.500000 1.000000
vt 0.000000 0.000000
vt 1.000000 0.000000
vt 0.500000 1.000000
vt 0.000000 0.000000
vt 1.000000 0.000000
vt 0.000000 0.000000
vt 1.000000 0.000000
vt 1.000000 1.000000
vt 0.000000 1.000000
vt 0.500000 1.000000
vt 0.000000 0.000000
vt 1.000000 0.000000
vt 0.500000 1.000000
vt 0.000000 0.000000
vt 1.000000 0.000000
vt 0.000000 0.000000
vt 1.000000 0.000000
vt 1.000000 1.000000
vt 0.000000 1.000000
vt 0.500000 1.000000
vt 0.000000 0.000000
vt 1.000000 0.000000
vt 0.500000 1.000000
vt 0.000000 0.000000
vt 1.000000 0.000000
vt 0.000000 0.000000
vt 1.000000 0.000000
vt 1.000000 1.000000
vt 0.000000 1.000000
vt 0.500000 1.000000
vt 0.000000 0.000000
vt 1.000000 0.000000
vt 0.500000 1.000000
vt 0.000000 0.000000
vt 1.000000 0.000000
vt 0.000000 0.000000
vt 1.000000 0.000000
vt 1.000000 1.000000
vt 0.000000 1.000000
vt 0.500000 1.000000
vt 0.000000 0.000000
vt 1.000000 0.000000
vt 0.500000 1.000000
vt 0.000000 0.000000
vt 1.000000 0.000000
vt 0.000000 0.000000
vt 1.000000 0.000000
vt 1.000000 1.000000
vt 0.000000 1.000000
vt 0.500000 1.000000
vt 0.000000 0.000000
vt 1.000000 0.000000
vt 0.500000 1.000000
vt 0.000000 0.000000
vt 1.000000 0.000000
vt 0.000000 0.000000
vt 1.000000 0.000000
vt 1.000000 1.000000
vt 0.000000 1.000000
vt 0.500000 1.000000
vt 0.000000 0.000000
vt 1.000000 0.000000
vt 0.500000 1.000000
vt 0.000000 0.000000
vt 1.000000 0.000000
vt 0.000000 0.000000
vt 1.000000 0.000000
vt 1.000000 1.000000
vt 0.000000 1.000000
vt 0.500000 1.000000
vt 0.000000 0.000000
vt 1.000000 0.000000
vt 0.500000 1.000000
vt 0.000000 0.000000
vt 1.000000 0.000000
vt 0.000000 0.000000
vt 1.000000 0.000000
vt 1.000000 1.000000
vt 0.000000 1.000000
vt 0.500000 1.000000
vt 0.000000 0.000000
vt 1.000000 0.000000
vt 0.500000 1.000000
vt 0.000000 0.000000
vt 1.000000 0.000000
vt 0.000000 0.000000
vt 1.000000 0.000000
vt 1.000000 1.000000
vt 0.000000 1.000000
vt 0.500000 1.000000
vt 0.000000 0.000000
vt 1.000000 0.000000
vt 0.500000 1.000000
vt 0.000000 0.000000
vt 1.000000 0.000000
vt 0.000000 0.000000
vt 1.000000 0.000000
vt 1.000000 1.000000
vt 0.000000 1.000000
vt 0.500000 1.000000
vt 0.000000 0.000000
vt 1.000000 0.000000
vt 0.500000 1.000000
vt 0.000000 0.000000
vt 1.000000 0.000000
vt 0.000000 0.000000
vt 1.000000 0.000000
vt 1.000000 1.000000
vt 0.000000 1.000000
vt 0.500000 1.000000
vt 0.000000 0.000000
vt 1.000000 0.000000
vt 0.500000 1.000000
vt 0.000000 0.000000
vt 1.000000 0.000000
vt 0.000000 0.000000
vt 1.000000 0.000000
vt 1.000000 1.000000
vt 0.000000 1.000000
vt 0.500000 1.000000
vt 0.000000 0.000000
vt 1.000000 0.000000
vt 0.500000 1.000000
vt 0.000000 0.000000
vt 1.000000 0.000000
vt 0.000000 0.000000
vt 1.000000 0.000000
vt 1.000000 1.000000
vt 0.000000 1.000000
vt 0.500000 1.000000
vt 0.000000 0.000000
vt 1.000000 0.000000
vt 0.500000 1.000000
vt 0.000000 0.000000
vt 1.000000 0.000000
vt 0.000000 0.000000
vt 1.000000 0.000000
vt 1.000000 1.000000
vt 0.000000 1.000000
vt 0.500000 1.000000
vt 0.000000 0.000000
vt 1.000000 0.000000
vt 0.500000 1.000000
vt 0.000000 0.000000
vt 1.000000 0.000000
vt 0.000000 0.000000
vt 1.000000 0.000000
vt 1.000000 1.000000
vt 0.000000 1.000000
vt 0.500000 1.000000
vt 0.000000 0.000000
vt 1.000000 0.000000
vt 0.500000 1.000000
vt 0.000000 0.000000
vt 1.000000 0.000000
vt 0.000000 0.000000
vt 1.000000 0.000000
vt 1.000000 1.000000
vt 0.000000 1.000000
vt 0.500000 1.000000
vt 0.000000 0.000000
vt 1.000000 0.000000
vt 0.500000 1.000000
vt 0.000000 0.000000
vt 1.000000 0.000000
vt 0.000000 0.000000
vt 1.000000 0.000000
vt 1.000000 1.000000
vt 0.000000 1.000000
vt 0.500000 1.000000
vt 0.000000 0.000000
vt 1.000000 0.000000
vt 0.500000 1.000000
vt 0.000000 0.000000
vt 1.000000 0.000000
vt 0.000000 0.000000
vt 1.000000 0.000000
vt 1.000000 1.000000
vt 0.000000 1.000000
vt 0.500000 1.000000
vt 0.000000 0.000000
vt 1.000000 0.000000
vt 0.500000 1.000000
vt 0.000000 0.000000
vt 1.000000 0.000000
vt 0.000000 0.000000
vt 1.000000 0.000000
vt 1.000000 1.000000
vt 0.000000 1.000000
vt 0.500000 1.000000
vt 0.000000 0.000000
vt 1.000000 0.000000
vt 0.500000 1.000000
vt 0.000000 0.000000
vt 1.000000 0.000000
vt 0.000000 0.000000
vt 1.000000 0.000000
vt 1.000000 1.000000
vt 0.000000 1.000000
vt 0.500000 1.000000
vt 0.000000 0.000000
vt 1.000000 0.000000
vt 0.500000 1.000000
vt 0.000000 0.000000
vt 1.000000 0.000000
vt 0.000000 0.000000
vt 1.000000 0.000000
vt 1.000000 1.000000
vt 0.000000 1.000000
vt 0.500000 1.000000
vt 0.000000 0.000000
vt 1.000000 0.000000
vt 0.500000 1.000000
vt 0.000000 0.000000
vt 1.000000 0.000000
vt 0.000000 0.000000
vt 1.000000 0.000000
vt 1.000000 1.000000
vt 0.000000 1.000000
vt 0.500000 1.000000
vt 0.000000 0.000000
vt 1.000000 0.000000
vt 0.500000 1.000000
vt 0.000000 0.000000
vt 1.000000 0.000000
vt 0.000000 0.000000
vt 1.000000 0.000000
vt 1.000000 1.000000
vt 0.000000 1.000000
vt 0.500000 1.000000
vt 0.000000 0.000000
vt 1.000000 0.000000
vt 0.500000 1.000000
vt 0.000000 0.000000
vt 1.000000 0.000000
vt 0.000000 0.000000
vt 1.000000 0.000000
vt 1.000000 1.000000
vt 0.000000 1.000000
vt 0.500000 1.000000
vt 0.000000 0.000000
vt 1.000000 0.000000
vt 0.500000 1.000000
vt 0.000000 0.000000
vt 1.000000 0.000000
vt 0.000000 0.000000
vt 1.000000 0.000000
vt 1.000000 1.000000
vt 0.000000 1.000000
vt 0.500000 1.000000
vt 0.000000 0.000000
vt 1.000000 0.000000
vt 0.500000 1.000000
vt 0.000000 0.000000
vt 1.000000 0.000000
vt 0.000000 0.000000
vt 1.000000 0.000000
vt 1.000000 1.000000
vt 0.000000 1.000000
vt 0.500000 1.000000
vt 0.000000 0.000000
vt 1.000000 0.000000
vt 0.500000 1.000000
vt 0.000000 0.000000
vt 1.000000 0.000000
vt 0.000000 0.000000
vt 1.000000 0.000000
vt 1.000000 1.000000
vt 0.000000 1.000000
vt 0.500000 1.000000
vt 0.000000 0.000000
vt 1.000000 0.000000
vt 0.500000 1.000000
vt 0.000000 0.000000
vt 1.000000 0.000000
vt 0.000000 0.000000
vt 1.000000 0.000000
vt 1.000000 1.000000
vt 0.000000 1.000000
vt 0.500000 1.000000
vt 0.000000 0.000000
vt 1.000000 0.000000
vt 0.500000 1.000000
vt 0.000000 0.000000
vt 1.000000 0.000000
vt 0.000000 0.000000
vt 1.000000 0.000000
vt 1.000000 1.000000
vt 0.000000 1.000000
vt 0.500000 1.000000
vt 0.000000 0.000000
vt 1.000000 0.000000
vt 0.500000 1.000000
vt 0.000000 0.000000
vt 1.000000 0.000000
vt 0.000000 0.000000
vt 1.000000 0.000000
vt 1.000000 1.000000
vt 0.000000 1.000000
vt 0.500000 1.000000
vt 0.000000 0.000000
vt 1.000000 0.000000
vt 0.500000 1.000000
vt 0.000000 0.000000
vt 1.000000 0.000000
vt 0.000000 0.000000
vt 1.000000 0.000000
vt 1.000000 1.000000
vt 0.000000 1.000000
vt 0.500000 1.000000
vt 0.000000 0.000000
vt 1.000000 0.000000
vt 0.500000 1.000000
vt 0.000000 0.000000
vt 1.000000 0.000000
vt 0.000000 0.000000
vt 1.000000 0.000000
vt 1.000000 1.000000
vt 0.000000 1.000000
vt 0.500000 1.000000
vt 0.000000 0.000000
vt 1.000000 0.000000
vt 0.500000 1.000000
vt 0.000000 0.000000
vt 1.000000 0.000000
vt 0.000000 0.000000
vt 1.000000 0.000000
vt 1.000000 1.000000
vt 0.000000 1.000000
vt 0.500000 1.000000
vt 0.000000 0.000000
vt 1.000000 0.000000
vt 0.500000 1.000000
vt 0.000000 0.000000
vt 1.000000 0.000000
vt 0.000000 0.000000
vt 1.000000 0.000000
vt 1.000000 1.000000
vt 0.000000 1.000000
vt 0.500000 1.000000
vt 0.000000 0.000000
vt 1.000000 0.000000
vt 0.500000 1.000000
vt 0.000000 0.000000
vt 1.000000 0.000000
vt 0.000000 0.000000
vt 1.000000 0.000000
vt 1.000000 1.000000
vt 0.000000 1.000000
vt 0.500000 1.000000
vt 0.000000 0.000000
vt 1.000000 0.000000
vt 0.500000 1.000000
vt 0.000000 0.000000
vt 1.000000 0.000000
vt 0.000000 0.000000
vt 1.000000 0.000000
vt 1.000000 1.000000
vt 0.000000 1.000000
vt 0.500000 1.000000
vt 0.000000 0.000000
vt 1.000000 0.000000
vt 0.500000 1.000000
vt 0.000000 0.000000
vt 1.000000 0.000000
vt 0.000000 0.000000
vt 1.000000 0.000000
vt 1.000000 1.000000
vt 0.000000 1.000000
vt 0.500000 1.000000
vt 0.000000 0.000000
vt 1.000000 0.000000
vt 0.500000 1.000000
vt 0.000000 0.000000
vt 1.000000 0.000000
vt 0.000000 0.000000
vt 1.000000 0.000000
vt 1.000000 1.000000
vt 0.000000 1.000000
vt 0.500000 1.000000
vt 0.000000 0.000000
vt 1.000000 0.000000
vt 0.500000 1.000000
vt 0.000000 0.000000
vt 1.000000 0.000000
vt 0.000000 0.000000
vt 1.000000 0.000000
vt 1.000000 1.000000
vt 0.000000 1.000000
vt 0.500000 1.000000
vt 0.000000 0.000000
vt 1.000000 0.000000
vt 0.500000 1.000000
vt 0.000000 0.000000
vt 1.000000 0.000000
vt 0.000000 0.000000
vt 1.000000 0.000000
vt 1.000000 1.000000
vt 0.000000 1.000000
vt 0.500000 1.000000
vt 0.000000 0.000000
vt 1.000000 0.000000
vt 0.500000 1.000000
vt 0.000000 0.000000
vt 1.000000 0.000000
vt 0.000000 0.000000
vt 1.000000 0.000000
vt 1.000000 1.000000
vt 0.000000 1.000000
vt 0.500000 1.000000
vt 0.000000 0.000000
vt 1.000000 0.000000
vt 0.500000 1.000000
vt 0.000000 0.000000
vt 1.000000 0.000000
vt 0.000000 0.000000
vt 1.000000 0.000000
vt 1.000000 1.000000
vt 0.000000 1.000000
vt 0.500000 1.000000
vt 0.000000 0.000000
vt 1.000000 0.000000
vt 0.500000 1.000000
vt 0.000000 0.000000
vt 1.000000 0.000000
vt 0.000000 0.000000
vt 1.000000 0.000000
vt 1.000000 1.000000
vt 0.000000 1.000000
vt 0.500000 1.000000
vt 0.000000 0.000000
vt 1.000000 0.000000
vt 0.500000 1.000000
vt 0.000000 0.000000
vt 1.000000 0.000000
vt 0.000000 0.000000
vt 1.000000 0.000000
vt 1.000000 1.000000
vt 0.000000 1.000000
vt 0.500000 1.000000
vt 0.000000 0.000000
vt 1.000000 0.000000
vt 0.500000 1.000000
vt 0.000000 0.000000
vt 1.000000 0.000000
vt 0.000000 0.000000
vt 1.000000 0.000000
vt 1.000000 1.000000
vt 0.000000 1.000000
vt 0.500000 1.000000
vt 0.000000 0.000000
vt 1.000000 0.000000
vt 0.500000 1.000000
vt 0.000000 0.000000
vt 1.000000 0.000000
vt 0.000000 0.000000
vt 1.000000 0.000000
vt 1.000000 1.000000
vt 0.000000 1.000000
vt 0.500000 1.000000
vt 0.000000 0.000000
vt 1.000000 0.000000
vt 0.500000 1.000000
vt 0.000000 0.000000
vt 1.000000 0.000000
vt 0.000000 0.000000
vt 1.000000 0.000000
vt 1.000000 1.000000
vt 0.000000 1.000000
vt 0.500000 1.000000
vt 0.000000 0.000000
vt 1.000000 0.000000
vt 0.500000 1.000000
vt 0.000000 0.000000
vt 1.000000 0.000000
vt 0.000000 0.000000
vt 1.000000 0.000000
vt 1.000000 1.000000
vt 0.000000 1.000000
vt 0.500000 1.000000
vt 0.000000 0.000000
vt 1.000000 0.000000
vt 0.500000 1.000000
vt 0.000000 0.000000
vt 1.000000 0.000000
vt 0.000000 0.000000
vt 1.000000 0.000000
vt 1.000000 1.000000
vt 0.000000 1.000000
vt 0.500000 1.000000
vt 0.000000 0.000000
vt 1.000000 0.000000
vt 0.500000 1.000000
vt 0.000000 0.000000
vt 1.000000 0.000000
vt 0.000000 0.000000
vt 1.000000 0.000000
vt 1.000000 1.000000
vt 0.000000 1.000000
vt 0.500000 1.000000
vt 0.000000 0.000000
vt 1.000000 0.000000
vt 0.500000 1.000000
vt 0.000000 0.000000
vt 1.000000 0.000000
vt 0.000000 0.000000
vt 1.000000 0.000000
vt 1.000000 1.000000
vt 0.000000 1.000000
vt 0.500000 1.000000
vt 0.000000 0.000000
vt 1.000000 0.000000
vt 0.500000 1.000000
vt 0.000000 0.000000
vt 1.000000 0.000000
vt 0.000000 0.000000
vt 1.000000 0.000000
vt 1.000000 1.000000
vt 0.000000 1.000000
vt 0.500000 1.000000
vt 0.000000 0.000000
vt 1.000000 0.000000
vt 0.500000 1.000000
vt 0.000000 0.000000
vt 1.000000 0.000000
vt 0.000000 0.000000
vt 1.000000 0.000000
vt 1.000000 1.000000
vt 0.000000 1.000000
vt 0.500000 1.000000
vt 0.000000 0.000000
vt 1.000000 0.000000
vt 0.500000 1.000000
vt 0.000000 0.000000
vt 1.000000 0.000000
vt 0.000000 0.000000
vt 1.000000 0.000000
vt 1.000000 1.000000
vt 0.000000 1.000000
vt 0.500000 1.000000
vt 0.000000 0.000000
vt 1.000000 0.000000
vt 0.500000 1.000000
vt 0.000000 0.000000
vt 1.000000 0.000000
vt 0.000000 0.000000
vt 1.000000 0.000000
vt 1.000000 1.000000
vt 0.000000 1.000000
vt 0.500000 1.000000
vt 0.000000 0.000000
vt 1.000000 0.000000
vt 0.500000 1.000000
vt 0.000000 0.000000
vt 1.000000 0.000000
vt 0.000000 0.000000
vt 1.000000 0.000000
vt 1.000000 1.000000
vt 0.000000 1.000000
vt 0.500000 1.000000
vt 0.000000 0.000000
vt 1.000000 0.000000
vt 0.500000 1.000000
vt 0.000000 0.000000
vt 1.000000 0.000000
vt 0.000000 0.000000
vt 1.000000 0.000000
vt 1.000000 1.000000
vt 0.000000 1.000000
vt 0.500000 1.000000
vt 0.000000 0.000000
vt 1.000000 0.000000
vt 0.500000 1.000000
vt 0.000000 0.000000
vt 1.000000 0.000000
vt 0.000000 0.000000
vt 1.000000 0.000000
vt 1.000000 1.000000
vt 0.000000 1.000000
vt 0.500000 1.000000
vt 0.000000 0.000000
vt 1.000000 0.000000
vt 0.500000 1.000000
vt 0.000000 0.000000
vt 1.000000 0.000000
vt 0.000000 0.000000
vt 1.000000 0.000000
vt 1.000000 1.000000
vt 0.000000 1.000000
vt 0.500000 1.000000
vt 0.000000 0.000000
vt 1.000000 0.000000
vt 0.500000 1.000000
vt 0.000000 0.000000
vt 1.000000 0.000000
vt 0.000000 0.000000
vt 1.000000 0.000000
vt 1.000000 1.000000
vt 0.000000 1.000000
vt 0.500000 1.000000
vt 0.000000 0.000000
vt 1.000000 0.000000
vt 0.500000 1.000000
vt 0.000000 0.000000
vt 1.000000 0.000000
vt 0.500000 1.000000
vt 0.000000 0.000000
vt 1.000000 0.000000
vt 0.500000 1.000000
vt 0.000000 0.000000
vt 1.000000 0.000000
vt 0.500000 1.000000
vt 0.000000 0.000000
vt 1.000000 0.000000
vt 0.500000 1.000000
vt 0.000000 0.000000
vt 1.000000 0.000000
vt 0.500000 1.000000
vt 0.000000 0.000000
vt 1.000000 0.000000
vt 0.500000 1.000000
vt 0.000000 0.000000
vt 1.000000 0.000000
vt 0.500000 1.000000
vt 0.000000 0.000000
vt 1.000000 0.000000
vt 0.500000 1.000000
vt 0.000000 0.000000
vt 1.000000 0.000000
vt 0.000000 0.000000
vt 1.000000 0.000000
vt 1.000000 1.000000
vt 0.000000 1.000000
vt 0.500000 1.000000
vt 0.000000 0.000000
vt 1.000000 0.000000
vt 0.500000 1.000000
vt 0.000000 0.000000
vt 1.000000 0.000000
vt 0.000000 0.000000
vt 1.000000 0.000000
vt 1.000000 1.000000
vt 0.000000 1.000000
vt 0.500000 1.000000
vt 0.000000 0.000000
vt 1.000000 0.000000
vt 0.500000 1.000000
vt 0.000000 0.000000
vt 1.000000 0.000000
vt 0.000000 0.000000
vt 1.000000 0.000000
vt 1.000000 1.000000
vt 0.000000 1.000000
vt 0.500000 1.000000
vt 0.000000 0.000000
vt 1.000000 0.000000
vt 0.500000 1.000000
vt 0.000000 0.000000
vt 1.000000 0.000000
vt 0.000000 0.000000
vt 1.000000 0.000000
vt 1.000000 1.000000
vt 0.000000 1.000000
vt 0.500000 1.000000
vt 0.000000 0.000000
vt 1.000000 0.000000
vt 0.500000 1.000000
vt 0.000000 0.000000
vt 1.000000 0.000000
vt 0.000000 0.000000
vt 1.000000 0.000000
vt 1.000000 1.000000
vt 0.000000 1.000000
vt 0.500000 1.000000
vt 0.000000 0.000000
vt 1.000000 0.000000
vt 0.500000 1.000000
vt 0.000000 0.000000
vt 1.000000 0.000000
vt 0.000000 0.000000
vt 1.000000 0.000000
vt 1.000000 1.000000
vt 0.000000 1.000000
vt 0.500000 1.000000
vt 0.000000 0.000000
vt 1.000000 0.000000
vt 0.500000 1.000000
vt 0.000000 0.000000
vt 1.000000 0.000000
vt 0.000000 0.000000
vt 1.000000 0.000000
vt 1.000000 1.000000
vt 0.000000 1.000000
vt 0.500000 1.000000
vt 0.000000 0.000000
vt 1.000000 0.000000
vt 0.500000 1.000000
vt 0.000000 0.000000
vt 1.000000 0.000000
vt 0.000000 0.000000
vt 1.000000 0.000000
vt 1.000000 1.000000
vt 0.000000 1.000000
vt 0.500000 1.000000
vt 0.000000 0.000000
vt 1.000000 0.000000
vt 0.500000 1.000000
vt 0.000000 0.000000
vt 1.000000 0.000000
vt 0.000000 0.000000
vt 1.000000 0.000000
vt 1.000000 1.000000
vt 0.000000 1.000000
vt 0.500000 1.000000
vt 0.000000 0.000000
vt 1.000000 0.000000
vt 0.500000 1.000000
vt 0.000000 0.000000
vt 1.000000 0.000000
vt 0.000000 0.000000
vt 1.000000 0.000000
vt 1.000000 1.000000
vt 0.000000 1.000000
vt 0.500000 1.000000
vt 0.000000 0.000000
vt 1.000000 0.000000
vt 0.500000 1.000000
vt 0.000000 0.000000
vt 1.000000 0.000000
vt 0.000000 0.000000
vt 1.000000 0.000000
vt 1.000000 1.000000
vt 0.000000 1.000000
vt 0.500000 1.000000
vt 0.000000 0.000000
vt 1.000000 0.000000
vt 0.500000 1.000000
vt 0.000000 0.000000
vt 1.000000 0.000000
vt 0.000000 0.000000
vt 1.000000 0.000000
vt 1.000000 1.000000
vt 0.000000 1.000000
vt 0.500000 1.000000
vt 0.000000 0.000000
vt 1.000000 0.000000
vt 0.500000 1.000000
vt 0.000000 0.000000
vt 1.000000 0.000000
vt 0.500000 1.000000
vt 0.000000 0.000000
vt 1.000000 0.000000
vt 0.500000 1.000000
vt 0.000000 0.000000
vt 1.000000 0.000000
vt 0.500000 1.000000
vt 0.000000 0.000000
vt 1.000000 0.000000
vt 0.500000 1.000000
vt 0.000000 0.000000
vt 1.000000 0.000000
vt 0.500000 1.000000
vt 0.000000 0.000000
vt 1.000000 0.000000
vt 0.500000 1.000000
vt 0.000000 0.000000
vt 1.000000 0.000000
vt 0.500000 1.000000
vt 0.000000 0.000000
vt 1.000000 0.000000
vt 0.500000 1.000000
vt 0.000000 0.000000
vt 1.000000 0.000000
vt 0.000000 0.000000
vt 1.000000 0.000000
vt 1.000000 1.000000
vt 0.000000 1.000000
vt 0.000000 0.000000
vt 1.000000 0.000000
vt 1.000000 1.000000
vt 0.000000 1.000000
vt 0.000000 0.000000
vt 1.000000 0.000000
vt 1.000000 1.000000
vt 0.000000 1.000000
vt 0.000000 0.000000
vt 1.000000 0.000000
vt 1.000000 1.000000
vt 0.000000 1.000000
vt 0.000000 0.000000
vt 1.000000 0.000000
vt 1.000000 1.000000
vt 0.000000 1.000000
vt 0.000000 0.000000
vt 1.000000 0.000000
vt 1.000000 1.000000
vt 0.000000 1.000000
vt 0.000000 0.000000
vt 1.000000 0.000000
vt 1.000000 1.000000
vt 0.000000 1.000000
vt 0.000000 0.000000
vt 1.000000 0.000000
vt 1.000000 1.000000
vt 0.000000 1.000000
vt 0.000000 0.000000
vt 1.000000 0.000000
vt 1.000000 1.000000
vt 0.000000 1.000000
vt 0.000000 0.000000
vt 1.000000 0.000000
vt 1.000000 1.000000
vt 0.000000 1.000000
vt 0.000000 0.000000
vt 1.000000 0.000000
vt 1.000000 1.000000
vt 0.000000 1.000000
vt 0.000000 0.000000
vt 1.000000 0.000000
vt 1.000000 1.000000
vt 0.000000 1.000000
s 1
usemtl models/caelum/props/stations/ca_station_stone.png
f 1/1 2/2 3/3 4/4
f 5/5 6/6 7/7
f 8/8 9/9 10/10
f 11/11 12/12 13/13 14/14
f 15/15 16/16 17/17
f 18/18 19/19 20/20
f 21/21 22/22 23/23 24/24
f 25/25 26/26 27/27
f 28/28 29/29 30/30
f 31/31 32/32 33/33 34/34
f 35/35 36/36 37/37
f 38/38 39/39 40/40
f 41/41 42/42 43/43 44/44
f 45/45 46/46 47/47
f 48/48 49/49 50/50
f 51/51 52/52 53/53 54/54
f 55/55 56/56 57/57
f 58/58 59/59 60/60
f 61/61 62/62 63/63 64/64
f 65/65 66/66 67/67
f 68/68 69/69 70/70
f 71/71 72/72 73/73 74/74
f 75/75 76/76 77/77
f 78/78 79/79 80/80
f 81/81 82/82 83/83 84/84
f 85/85 86/86 87/87
f 88/88 89/89 90/90
f 91/91 92/92 93/93 94/94
f 95/95 96/96 97/97
f 98/98 99/99 100/100
f 101/101 102/102 103/103 104/104
f 105/105 106/106 107/107
f 108/108 109/109 110/110
f 111/111 112/112 113/113 114/114
f 115/115 116/116 117/117
f 118/118 119/119 120/120
f 121/121 122/122 123/123 124/124
f 125/125 126/126 127/127
f 128/128 129/129 130/130
f 131/131 132/132 133/133 134/134
f 135/135 136/136 137/137
f 138/138 139/139 140/140
f 141/141 142/142 143/143 144/144
f 145/145 146/146 147/147
f 148/148 149/149 150/150
f 151/151 152/152 153/153 154/154
f 155/155 156/156 157/157
f 158/158 159/159 160/160
usemtl models/caelum/props/stations/ca_station_brass.png
f 161/161 162/162 163/163 164/164
f 165/165 166/166 167/167
f 168/168 169/169 170/170
f 171/171 172/172 173/173 174/174
f 175/175 176/176 177/177
f 178/178 179/179 180/180
f 181/181 182/182 183/183 184/184
f 185/185 186/186 187/187
f 188/188 189/189 190/190
f 191/191 192/192 193/193 194/194
f 195/195 196/196 197/197
f 198/198 199/199 200/200
f 201/201 202/202 203/203 204/204
f 205/205 206/206 207/207
f 208/208 209/209 210/210
f 211/211 212/212 213/213 214/214
f 215/215 216/216 217/217
f 218/218 219/219 220/220
f 221/221 222/222 223/223 224/224
f 225/225 226/226 227/227
f 228/228 229/229 230/230
f 231/231 232/232 233/233 234/234
f 235/235 236/236 237/237
f 238/238 239/239 240/240
f 241/241 242/242 243/243 244/244
f 245/245 246/246 247/247 248/248
f 249/249 250/250 251/251 252/252
f 253/253 254/254 255/255 256/256
f 257/257 258/258 259/259 260/260
f 261/261 262/262 263/263 264/264
f 265/265 266/266 267/267 268/268
f 269/269 270/270 271/271 272/272
f 273/273 274/274 275/275 276/276
f 277/277 278/278 279/279 280/280
f 281/281 282/282 283/283 284/284
f 285/285 286/286 287/287 288/288
f 289/289 290/290 291/291 292/292
f 293/293 294/294 295/295 296/296
f 297/297 298/298 299/299 300/300
f 301/301 302/302 303/303 304/304
f 305/305 306/306 307/307 308/308
f 309/309 310/310 311/311 312/312
f 313/313 314/314 315/315 316/316
f 317/317 318/318 319/319 320/320
f 321/321 322/322 323/323 324/324
f 325/325 326/326 327/327 328/328
f 329/329 330/330 331/331 332/332
f 333/333 334/334 335/335 336/336
usemtl models/caelum/props/stations/ca_station_gem.png
f 337/337 338/338 339/339 340/340
f 341/341 342/342 343/343
f 344/344 345/345 346/346
f 347/347 348/348 349/349 350/350
f 351/351 352/352 353/353
f 354/354 355/355 356/356
f 357/357 358/358 359/359 360/360
f 361/361 362/362 363/363
f 364/364 365/365 366/366
f 367/367 368/368 369/369 370/370
f 371/371 372/372 373/373
f 374/374 375/375 376/376
f 377/377 378/378 379/379 380/380
f 381/381 382/382 383/383
f 384/384 385/385 386/386
f 387/387 388/388 389/389 390/390
f 391/391 392/392 393/393
f 394/394 395/395 396/396
f 397/397 398/398 399/399 400/400
f 401/401 402/402 403/403
f 404/404 405/405 406/406
f 407/407 408/408 409/409 410/410
f 411/411 412/412 413/413
f 414/414 415/415 416/416
f 417/417 418/418 419/419 420/420
f 421/421 422/422 423/423
f 424/424 425/425 426/426
f 427/427 428/428 429/429 430/430
f 431/431 432/432 433/433
f 434/434 435/435 436/436
f 437/437 438/438 439/439 440/440
f 441/441 442/442 443/443
f 444/444 445/445 446/446
f 447/447 448/448 449/449 450/450
f 451/451 452/452 453/453
f 454/454 455/455 456/456
usemtl models/caelum/props/stations/ca_station_brass.png
f 457/457 458/458 459/459 460/460
f 461/461 462/462 463/463
f 464/464 465/465 466/466
f 467/467 468/468 469/469 470/470
f 471/471 472/472 473/473
f 474/474 475/475 476/476
f 477/477 478/478 479/479 480/480
f 481/481 482/482 483/483
f 484/484 485/485 486/486
f 487/487 488/488 489/489 490/490
f 491/491 492/492 493/493
f 494/494 495/495 496/496
f 497/497 498/498 499/499 500/500
f 501/501 502/502 503/503
f 504/504 505/505 506/506
f 507/507 508/508 509/509 510/510
f 511/511 512/512 513/513
f 514/514 515/515 516/516
f 517/517 518/518 519/519 520/520
f 521/521 522/522 523/523
f 524/524 525/525 526/526
f 527/527 528/528 529/529 530/530
f 531/531 532/532 533/533
f 534/534 535/535 536/536
f 537/537 538/538 539/539 540/540
f 541/541 542/542 543/543
f 544/544 545/545 546/546
f 547/547 548/548 549/549 550/550
f 551/551 552/552 553/553
f 554/554 555/555 556/556
f 557/557 558/558 559/559 560/560
f 561/561 562/562 563/563
f 564/564 565/565 566/566
f 567/567 568/568 569/569 570/570
f 571/571 572/572 573/573
f 574/574 575/575 576/576
f 577/577 578/578 579/579 580/580
f 581/581 582/582 583/583
f 584/584 585/585 586/586
f 587/587 588/588 589/589 590/590
f 591/591 592/592 593/593
f 594/594 595/595 596/596
f 597/597 598/598 599/599 600/600
f 601/601 602/602 603/603
f 604/604 605/605 606/606
f 607/607 608/608 609/609 610/610
f 611/611 612/612 613/613
f 614/614 615/615 616/616
f 617/617 618/618 619/619 620/620
f 621/621 622/622 623/623
f 624/624 625/625 626/626
f 627/627 628/628 629/629 630/630
f 631/631 632/632 633/633
f 634/634 635/635 636/636
f 637/637 638/638 639/639 640/640
f 641/641 642/642 643/643
f 644/644 645/645 646/646
f 647/647 648/648 649/649 650/650
f 651/651 652/652 653/653
f 654/654 655/655 656/656
f 657/657 658/658 659/659 660/660
f 661/661 662/662 663/663
f 664/664 665/665 666/666
f 667/667 668/668 669/669 670/670
f 671/671 672/672 673/673
f 674/674 675/675 676/676
f 677/677 678/678 679/679 680/680
f 681/681 682/682 683/683
f 684/684 685/685 686/686
f 687/687 688/688 689/689 690/690
f 691/691 692/692 693/693
f 694/694 695/695 696/696
f 697/697 698/698 699/699 700/700
f 701/701 702/702 703/703
f 704/704 705/705 706/706
f 707/707 708/708 709/709 710/710
f 711/711 712/712 713/713
f 714/714 715/715 716/716
f 717/717 718/718 719/719 720/720
f 721/721 722/722 723/723
f 724/724 725/725 726/726
f 727/727 728/728 729/729 730/730
f 731/731 732/732 733/733
f 734/734 735/735 736/736
f 737/737 738/738 739/739 740/740
f 741/741 742/742 743/743
f 744/744 745/745 746/746
f 747/747 748/748 749/749 750/750
f 751/751 752/752 753/753
f 754/754 755/755 756/756
f 757/757 758/758 759/759 760/760
f 761/761 762/762 763/763
f 764/764 765/765 766/766
f 767/767 768/768 769/769 770/770
f 771/771 772/772 773/773
f 774/774 775/775 776/776
f 777/777 778/778 779/779 780/780
f 781/781 782/782 783/783
f 784/784 785/785 786/786
f 787/787 788/788 789/789 790/790
f 791/791 792/792 793/793
f 794/794 795/795 796/796
f 797/797 798/798 799/799 800/800
f 801/801 802/802 803/803
f 804/804 805/805 806/806
f 807/807 808/808 809/809 810/810
f 811/811 812/812 813/813
f 814/814 815/815 816/816
f 817/817 818/818 819/819 820/820
f 821/821 822/822 823/823
f 824/824 825/825 826/826
f 827/827 828/828 829/829 830/830
f 831/831 832/832 833/833
f 834/834 835/835 836/836
f 837/837 838/838 839/839 840/840
f 841/841 842/842 843/843
f 844/844 845/845 846/846
f 847/847 848/848 849/849 850/850
f 851/851 852/852 853/853
f 854/854 855/855 856/856
f 857/857 858/858 859/859 860/860
f 861/861 862/862 863/863
f 864/864 865/865 866/866
f 867/867 868/868 869/869 870/870
f 871/871 872/872 873/873
f 874/874 875/875 876/876
f 877/877 878/878 879/879 880/880
f 881/881 882/882 883/883
f 884/884 885/885 886/886
f 887/887 888/888 889/889 890/890
f 891/891 892/892 893/893
f 894/894 895/895 896/896
f 897/897 898/898 899/899 900/900
f 901/901 902/902 903/903
f 904/904 905/905 906/906
f 907/907 908/908 909/909 910/910
f 911/911 912/912 913/913
f 914/914 915/915 916/916
f 917/917 918/918 919/919 920/920
f 921/921 922/922 923/923
f 924/924 925/925 926/926
f 927/927 928/928 929/929 930/930
f 931/931 932/932 933/933
f 934/934 935/935 936/936
f 937/937 938/938 939/939 940/940
f 941/941 942/942 943/943
f 944/944 945/945 946/946
f 947/947 948/948 949/949 950/950
f 951/951 952/952 953/953
f 954/954 955/955 956/956
f 957/957 958/958 959/959 960/960
f 961/961 962/962 963/963
f 964/964 965/965 966/966
f 967/967 968/968 969/969 970/970
f 971/971 972/972 973/973
f 974/974 975/975 976/976
f 977/977 978/978 979/979 980/980
f 981/981 982/982 983/983
f 984/984 985/985 986/986
f 987/987 988/988 989/989 990/990
f 991/991 992/992 993/993
f 994/994 995/995 996/996
usemtl models/caelum/props/stations/ca_station_wax.png
f 997/997 998/998 999/999 1000/1000
f 1001/1001 1002/1002 1003/1003
f 1004/1004 1005/1005 1006/1006
f 1007/1007 1008/1008 1009/1009 1010/1010
f 1011/1011 1012/1012 1013/1013
f 1014/1014 1015/1015 1016/1016
f 1017/1017 1018/1018 1019/1019 1020/1020
f 1021/1021 1022/1022 1023/1023
f 1024/1024 1025/1025 1026/1026
f 1027/1027 1028/1028 1029/1029 1030/1030
f 1031/1031 1032/1032 1033/1033
f 1034/1034 1035/1035 1036/1036
f 1037/1037 1038/1038 1039/1039 1040/1040
f 1041/1041 1042/1042 1043/1043
f 1044/1044 1045/1045 1046/1046
f 1047/1047 1048/1048 1049/1049 1050/1050
f 1051/1051 1052/1052 1053/1053
f 1054/1054 1055/1055 1056/1056
usemtl models/caelum/props/stations/ca_station_ember.png
f 1057/1057 1058/1058 1059/1059
f 1060/1060 1061/1061 1062/1062
f 1063/1063 1064/1064 1065/1065
f 1066/1066 1067/1067 1068/1068
f 1069/1069 1070/1070 1071/1071
f 1072/1072 1073/1073 1074/1074
f 1075/1075 1076/1076 1077/1077
f 1078/1078 1079/1079 1080/1080
usemtl models/caelum/props/stations/ca_station_brass.png
f 1081/1081 1082/1082 1083/1083 1084/1084
f 1085/1085 1086/1086 1087/1087
f 1088/1088 1089/1089 1090/1090
f 1091/1091 1092/1092 1093/1093 1094/1094
f 1095/1095 1096/1096 1097/1097
f 1098/1098 1099/1099 1100/1100
f 1101/1101 1102/1102 1103/1103 1104/1104
f 1105/1105 1106/1106 1107/1107
f 1108/1108 1109/1109 1110/1110
f 1111/1111 1112/1112 1113/1113 1114/1114
f 1115/1115 1116/1116 1117/1117
f 1118/1118 1119/1119 1120/1120
f 1121/1121 1122/1122 1123/1123 1124/1124
f 1125/1125 1126/1126 1127/1127
f 1128/1128 1129/1129 1130/1130
f 1131/1131 1132/1132 1133/1133 1134/1134
f 1135/1135 1136/1136 1137/1137
f 1138/1138 1139/1139 1140/1140
usemtl models/caelum/props/stations/ca_station_wax.png
f 1141/1141 1142/1142 1143/1143 1144/1144
f 1145/1145 1146/1146 1147/1147
f 1148/1148 1149/1149 1150/1150
f 1151/1151 1152/1152 1153/1153 1154/1154
f 1155/1155 1156/1156 1157/1157
f 1158/1158 1159/1159 1160/1160
f 1161/1161 1162/1162 1163/1163 1164/1164
f 1165/1165 1166/1166 1167/1167
f 1168/1168 1169/1169 1170/1170
f 1171/1171 1172/1172 1173/1173 1174/1174
f 1175/1175 1176/1176 1177/1177
f 1178/1178 1179/1179 1180/1180
f 1181/1181 1182/1182 1183/1183 1184/1184
f 1185/1185 1186/1186 1187/1187
f 1188/1188 1189/1189 1190/1190
f 1191/1191 1192/1192 1193/1193 1194/1194
f 1195/1195 1196/1196 1197/1197
f 1198/1198 1199/1199 1200/1200
usemtl models/caelum/props/stations/ca_station_ember.png
f 1201/1201 1202/1202 1203/1203
f 1204/1204 1205/1205 1206/1206
f 1207/1207 1208/1208 1209/1209
f 1210/1210 1211/1211 1212/1212
f 1213/1213 1214/1214 1215/1215
f 1216/1216 1217/1217 1218/1218
f 1219/1219 1220/1220 1221/1221
f 1222/1222 1223/1223 1224/1224
usemtl models/caelum/props/stations/ca_station_leather.png
f 1225/1225 1226/1226 1227/1227 1228/1228
f 1229/1229 1230/1230 1231/1231 1232/1232
f 1233/1233 1234/1234 1235/1235 1236/1236
f 1237/1237 1238/1238 1239/1239 1240/1240
f 1241/1241 1242/1242 1243/1243 1244/1244
f 1245/1245 1246/1246 1247/1247 1248/1248
usemtl models/caelum/props/stations/ca_station_paper.png
f 1249/1249 1250/1250 1251/1251 1252/1252
f 1253/1253 1254/1254 1255/1255 1256/1256
f 1257/1257 1258/1258 1259/1259 1260/1260
f 1261/1261 1262/1262 1263/1263 1264/1264
f 1265/1265 1266/1266 1267/1267 1268/1268
f 1269/1269 1270/1270 1271/1271 1272/1272
