# Modelo original generado para Caelum Argenteum.
# Ejes OBJ: X ancho, Y altura, Z profundidad.
o CaelumStation_master
v -15.000000 0.000000 -5.500000
v -12.000000 0.000000 -5.500000
v -12.000000 24.000000 -5.500000
v -15.000000 24.000000 -5.500000
v -12.000000 0.000000 -8.500000
v -15.000000 0.000000 -8.500000
v -15.000000 24.000000 -8.500000
v -12.000000 24.000000 -8.500000
v -12.000000 0.000000 -5.500000
v -12.000000 0.000000 -8.500000
v -12.000000 24.000000 -8.500000
v -12.000000 24.000000 -5.500000
v -15.000000 0.000000 -8.500000
v -15.000000 0.000000 -5.500000
v -15.000000 24.000000 -5.500000
v -15.000000 24.000000 -8.500000
v -15.000000 24.000000 -5.500000
v -12.000000 24.000000 -5.500000
v -12.000000 24.000000 -8.500000
v -15.000000 24.000000 -8.500000
v -15.000000 0.000000 -8.500000
v -12.000000 0.000000 -8.500000
v -12.000000 0.000000 -5.500000
v -15.000000 0.000000 -5.500000
v -15.100000 1.100000 -5.400000
v -11.900000 1.100000 -5.400000
v -11.900000 2.900000 -5.400000
v -15.100000 2.900000 -5.400000
v -11.900000 1.100000 -8.600000
v -15.100000 1.100000 -8.600000
v -15.100000 2.900000 -8.600000
v -11.900000 2.900000 -8.600000
v -11.900000 1.100000 -5.400000
v -11.900000 1.100000 -8.600000
v -11.900000 2.900000 -8.600000
v -11.900000 2.900000 -5.400000
v -15.100000 1.100000 -8.600000
v -15.100000 1.100000 -5.400000
v -15.100000 2.900000 -5.400000
v -15.100000 2.900000 -8.600000
v -15.100000 2.900000 -5.400000
v -11.900000 2.900000 -5.400000
v -11.900000 2.900000 -8.600000
v -15.100000 2.900000 -8.600000
v -15.100000 1.100000 -8.600000
v -11.900000 1.100000 -8.600000
v -11.900000 1.100000 -5.400000
v -15.100000 1.100000 -5.400000
v -15.000000 0.000000 8.500000
v -12.000000 0.000000 8.500000
v -12.000000 24.000000 8.500000
v -15.000000 24.000000 8.500000
v -12.000000 0.000000 5.500000
v -15.000000 0.000000 5.500000
v -15.000000 24.000000 5.500000
v -12.000000 24.000000 5.500000
v -12.000000 0.000000 8.500000
v -12.000000 0.000000 5.500000
v -12.000000 24.000000 5.500000
v -12.000000 24.000000 8.500000
v -15.000000 0.000000 5.500000
v -15.000000 0.000000 8.500000
v -15.000000 24.000000 8.500000
v -15.000000 24.000000 5.500000
v -15.000000 24.000000 8.500000
v -12.000000 24.000000 8.500000
v -12.000000 24.000000 5.500000
v -15.000000 24.000000 5.500000
v -15.000000 0.000000 5.500000
v -12.000000 0.000000 5.500000
v -12.000000 0.000000 8.500000
v -15.000000 0.000000 8.500000
v -15.100000 1.100000 8.600000
v -11.900000 1.100000 8.600000
v -11.900000 2.900000 8.600000
v -15.100000 2.900000 8.600000
v -11.900000 1.100000 5.400000
v -15.100000 1.100000 5.400000
v -15.100000 2.900000 5.400000
v -11.900000 2.900000 5.400000
v -11.900000 1.100000 8.600000
v -11.900000 1.100000 5.400000
v -11.900000 2.900000 5.400000
v -11.900000 2.900000 8.600000
v -15.100000 1.100000 5.400000
v -15.100000 1.100000 8.600000
v -15.100000 2.900000 8.600000
v -15.100000 2.900000 5.400000
v -15.100000 2.900000 8.600000
v -11.900000 2.900000 8.600000
v -11.900000 2.900000 5.400000
v -15.100000 2.900000 5.400000
v -15.100000 1.100000 5.400000
v -11.900000 1.100000 5.400000
v -11.900000 1.100000 8.600000
v -15.100000 1.100000 8.600000
v 12.000000 0.000000 -5.500000
v 15.000000 0.000000 -5.500000
v 15.000000 24.000000 -5.500000
v 12.000000 24.000000 -5.500000
v 15.000000 0.000000 -8.500000
v 12.000000 0.000000 -8.500000
v 12.000000 24.000000 -8.500000
v 15.000000 24.000000 -8.500000
v 15.000000 0.000000 -5.500000
v 15.000000 0.000000 -8.500000
v 15.000000 24.000000 -8.500000
v 15.000000 24.000000 -5.500000
v 12.000000 0.000000 -8.500000
v 12.000000 0.000000 -5.500000
v 12.000000 24.000000 -5.500000
v 12.000000 24.000000 -8.500000
v 12.000000 24.000000 -5.500000
v 15.000000 24.000000 -5.500000
v 15.000000 24.000000 -8.500000
v 12.000000 24.000000 -8.500000
v 12.000000 0.000000 -8.500000
v 15.000000 0.000000 -8.500000
v 15.000000 0.000000 -5.500000
v 12.000000 0.000000 -5.500000
v 11.900000 1.100000 -5.400000
v 15.100000 1.100000 -5.400000
v 15.100000 2.900000 -5.400000
v 11.900000 2.900000 -5.400000
v 15.100000 1.100000 -8.600000
v 11.900000 1.100000 -8.600000
v 11.900000 2.900000 -8.600000
v 15.100000 2.900000 -8.600000
v 15.100000 1.100000 -5.400000
v 15.100000 1.100000 -8.600000
v 15.100000 2.900000 -8.600000
v 15.100000 2.900000 -5.400000
v 11.900000 1.100000 -8.600000
v 11.900000 1.100000 -5.400000
v 11.900000 2.900000 -5.400000
v 11.900000 2.900000 -8.600000
v 11.900000 2.900000 -5.400000
v 15.100000 2.900000 -5.400000
v 15.100000 2.900000 -8.600000
v 11.900000 2.900000 -8.600000
v 11.900000 1.100000 -8.600000
v 15.100000 1.100000 -8.600000
v 15.100000 1.100000 -5.400000
v 11.900000 1.100000 -5.400000
v 12.000000 0.000000 8.500000
v 15.000000 0.000000 8.500000
v 15.000000 24.000000 8.500000
v 12.000000 24.000000 8.500000
v 15.000000 0.000000 5.500000
v 12.000000 0.000000 5.500000
v 12.000000 24.000000 5.500000
v 15.000000 24.000000 5.500000
v 15.000000 0.000000 8.500000
v 15.000000 0.000000 5.500000
v 15.000000 24.000000 5.500000
v 15.000000 24.000000 8.500000
v 12.000000 0.000000 5.500000
v 12.000000 0.000000 8.500000
v 12.000000 24.000000 8.500000
v 12.000000 24.000000 5.500000
v 12.000000 24.000000 8.500000
v 15.000000 24.000000 8.500000
v 15.000000 24.000000 5.500000
v 12.000000 24.000000 5.500000
v 12.000000 0.000000 5.500000
v 15.000000 0.000000 5.500000
v 15.000000 0.000000 8.500000
v 12.000000 0.000000 8.500000
v 11.900000 1.100000 8.600000
v 15.100000 1.100000 8.600000
v 15.100000 2.900000 8.600000
v 11.900000 2.900000 8.600000
v 15.100000 1.100000 5.400000
v 11.900000 1.100000 5.400000
v 11.900000 2.900000 5.400000
v 15.100000 2.900000 5.400000
v 15.100000 1.100000 8.600000
v 15.100000 1.100000 5.400000
v 15.100000 2.900000 5.400000
v 15.100000 2.900000 8.600000
v 11.900000 1.100000 5.400000
v 11.900000 1.100000 8.600000
v 11.900000 2.900000 8.600000
v 11.900000 2.900000 5.400000
v 11.900000 2.900000 8.600000
v 15.100000 2.900000 8.600000
v 15.100000 2.900000 5.400000
v 11.900000 2.900000 5.400000
v 11.900000 1.100000 5.400000
v 15.100000 1.100000 5.400000
v 15.100000 1.100000 8.600000
v 11.900000 1.100000 8.600000
v -13.500000 5.950000 -5.950000
v 13.500000 5.950000 -5.950000
v 13.500000 8.050000 -5.950000
v -13.500000 8.050000 -5.950000
v 13.500000 5.950000 -8.050000
v -13.500000 5.950000 -8.050000
v -13.500000 8.050000 -8.050000
v 13.500000 8.050000 -8.050000
v 13.500000 5.950000 -5.950000
v 13.500000 5.950000 -8.050000
v 13.500000 8.050000 -8.050000
v 13.500000 8.050000 -5.950000
v -13.500000 5.950000 -8.050000
v -13.500000 5.950000 -5.950000
v -13.500000 8.050000 -5.950000
v -13.500000 8.050000 -8.050000
v -13.500000 8.050000 -5.950000
v 13.500000 8.050000 -5.950000
v 13.500000 8.050000 -8.050000
v -13.500000 8.050000 -8.050000
v -13.500000 5.950000 -8.050000
v 13.500000 5.950000 -8.050000
v 13.500000 5.950000 -5.950000
v -13.500000 5.950000 -5.950000
v -13.500000 5.950000 8.050000
v 13.500000 5.950000 8.050000
v 13.500000 8.050000 8.050000
v -13.500000 8.050000 8.050000
v 13.500000 5.950000 5.950000
v -13.500000 5.950000 5.950000
v -13.500000 8.050000 5.950000
v 13.500000 8.050000 5.950000
v 13.500000 5.950000 8.050000
v 13.500000 5.950000 5.950000
v 13.500000 8.050000 5.950000
v 13.500000 8.050000 8.050000
v -13.500000 5.950000 5.950000
v -13.500000 5.950000 8.050000
v -13.500000 8.050000 8.050000
v -13.500000 8.050000 5.950000
v -13.500000 8.050000 8.050000
v 13.500000 8.050000 8.050000
v 13.500000 8.050000 5.950000
v -13.500000 8.050000 5.950000
v -13.500000 5.950000 5.950000
v 13.500000 5.950000 5.950000
v 13.500000 5.950000 8.050000
v -13.500000 5.950000 8.050000
v -17.000000 23.500000 -3.050000
v 17.000000 23.500000 -3.050000
v 17.000000 26.500000 -3.050000
v -17.000000 26.500000 -3.050000
v 17.000000 23.500000 -8.950000
v -17.000000 23.500000 -8.950000
v -17.000000 26.500000 -8.950000
v 17.000000 26.500000 -8.950000
v 17.000000 23.500000 -3.050000
v 17.000000 23.500000 -8.950000
v 17.000000 26.500000 -8.950000
v 17.000000 26.500000 -3.050000
v -17.000000 23.500000 -8.950000
v -17.000000 23.500000 -3.050000
v -17.000000 26.500000 -3.050000
v -17.000000 26.500000 -8.950000
v -17.000000 26.500000 -3.050000
v 17.000000 26.500000 -3.050000
v 17.000000 26.500000 -8.950000
v -17.000000 26.500000 -8.950000
v -17.000000 23.500000 -8.950000
v 17.000000 23.500000 -8.950000
v 17.000000 23.500000 -3.050000
v -17.000000 23.500000 -3.050000
v -17.000000 23.500000 2.950000
v 17.000000 23.500000 2.950000
v 17.000000 26.500000 2.950000
v -17.000000 26.500000 2.950000
v 17.000000 23.500000 -2.950000
v -17.000000 23.500000 -2.950000
v -17.000000 26.500000 -2.950000
v 17.000000 26.500000 -2.950000
v 17.000000 23.500000 2.950000
v 17.000000 23.500000 -2.950000
v 17.000000 26.500000 -2.950000
v 17.000000 26.500000 2.950000
v -17.000000 23.500000 -2.950000
v -17.000000 23.500000 2.950000
v -17.000000 26.500000 2.950000
v -17.000000 26.500000 -2.950000
v -17.000000 26.500000 2.950000
v 17.000000 26.500000 2.950000
v 17.000000 26.500000 -2.950000
v -17.000000 26.500000 -2.950000
v -17.000000 23.500000 -2.950000
v 17.000000 23.500000 -2.950000
v 17.000000 23.500000 2.950000
v -17.000000 23.500000 2.950000
v -17.000000 23.500000 8.950000
v 17.000000 23.500000 8.950000
v 17.000000 26.500000 8.950000
v -17.000000 26.500000 8.950000
v 17.000000 23.500000 3.050000
v -17.000000 23.500000 3.050000
v -17.000000 26.500000 3.050000
v 17.000000 26.500000 3.050000
v 17.000000 23.500000 8.950000
v 17.000000 23.500000 3.050000
v 17.000000 26.500000 3.050000
v 17.000000 26.500000 8.950000
v -17.000000 23.500000 3.050000
v -17.000000 23.500000 8.950000
v -17.000000 26.500000 8.950000
v -17.000000 26.500000 3.050000
v -17.000000 26.500000 8.950000
v 17.000000 26.500000 8.950000
v 17.000000 26.500000 3.050000
v -17.000000 26.500000 3.050000
v -17.000000 23.500000 3.050000
v 17.000000 23.500000 3.050000
v 17.000000 23.500000 8.950000
v -17.000000 23.500000 8.950000
v 0.000000 16.000000 7.500000
v 14.000000 16.000000 7.500000
v 14.000000 23.000000 7.500000
v 0.000000 23.000000 7.500000
v 14.000000 16.000000 -7.500000
v 0.000000 16.000000 -7.500000
v 0.000000 23.000000 -7.500000
v 14.000000 23.000000 -7.500000
v 14.000000 16.000000 7.500000
v 14.000000 16.000000 -7.500000
v 14.000000 23.000000 -7.500000
v 14.000000 23.000000 7.500000
v 0.000000 16.000000 -7.500000
v 0.000000 16.000000 7.500000
v 0.000000 23.000000 7.500000
v 0.000000 23.000000 -7.500000
v 0.000000 23.000000 7.500000
v 14.000000 23.000000 7.500000
v 14.000000 23.000000 -7.500000
v 0.000000 23.000000 -7.500000
v 0.000000 16.000000 -7.500000
v 14.000000 16.000000 -7.500000
v 14.000000 16.000000 7.500000
v 0.000000 16.000000 7.500000
v -0.250000 16.700000 8.050000
v 6.250000 16.700000 8.050000
v 6.250000 22.300000 8.050000
v -0.250000 22.300000 8.050000
v 6.250000 16.700000 7.350000
v -0.250000 16.700000 7.350000
v -0.250000 22.300000 7.350000
v 6.250000 22.300000 7.350000
v 6.250000 16.700000 8.050000
v 6.250000 16.700000 7.350000
v 6.250000 22.300000 7.350000
v 6.250000 22.300000 8.050000
v -0.250000 16.700000 7.350000
v -0.250000 16.700000 8.050000
v -0.250000 22.300000 8.050000
v -0.250000 22.300000 7.350000
v -0.250000 22.300000 8.050000
v 6.250000 22.300000 8.050000
v 6.250000 22.300000 7.350000
v -0.250000 22.300000 7.350000
v -0.250000 16.700000 7.350000
v 6.250000 16.700000 7.350000
v 6.250000 16.700000 8.050000
v -0.250000 16.700000 8.050000
v 2.200000 19.500000 8.600000
v 2.200000 19.240192 8.450000
v 3.800000 19.240192 8.450000
v 3.800000 19.500000 8.600000
v 2.200000 19.500000 8.300000
v 2.200000 19.240192 8.450000
v 2.200000 19.500000 8.600000
v 3.800000 19.500000 8.300000
v 3.800000 19.500000 8.600000
v 3.800000 19.240192 8.450000
v 2.200000 19.240192 8.450000
v 2.200000 19.240192 8.150000
v 3.800000 19.240192 8.150000
v 3.800000 19.240192 8.450000
v 2.200000 19.500000 8.300000
v 2.200000 19.240192 8.150000
v 2.200000 19.240192 8.450000
v 3.800000 19.500000 8.300000
v 3.800000 19.240192 8.450000
v 3.800000 19.240192 8.150000
v 2.200000 19.240192 8.150000
v 2.200000 19.500000 8.000000
v 3.800000 19.500000 8.000000
v 3.800000 19.240192 8.150000
v 2.200000 19.500000 8.300000
v 2.200000 19.500000 8.000000
v 2.200000 19.240192 8.150000
v 3.800000 19.500000 8.300000
v 3.800000 19.240192 8.150000
v 3.800000 19.500000 8.000000
v 2.200000 19.500000 8.000000
v 2.200000 19.759808 8.150000
v 3.800000 19.759808 8.150000
v 3.800000 19.500000 8.000000
v 2.200000 19.500000 8.300000
v 2.200000 19.759808 8.150000
v 2.200000 19.500000 8.000000
v 3.800000 19.500000 8.300000
v 3.800000 19.500000 8.000000
v 3.800000 19.759808 8.150000
v 2.200000 19.759808 8.150000
v 2.200000 19.759808 8.450000
v 3.800000 19.759808 8.450000
v 3.800000 19.759808 8.150000
v 2.200000 19.500000 8.300000
v 2.200000 19.759808 8.450000
v 2.200000 19.759808 8.150000
v 3.800000 19.500000 8.300000
v 3.800000 19.759808 8.150000
v 3.800000 19.759808 8.450000
v 2.200000 19.759808 8.450000
v 2.200000 19.500000 8.600000
v 3.800000 19.500000 8.600000
v 3.800000 19.759808 8.450000
v 2.200000 19.500000 8.300000
v 2.200000 19.500000 8.600000
v 2.200000 19.759808 8.450000
v 3.800000 19.500000 8.300000
v 3.800000 19.759808 8.450000
v 3.800000 19.500000 8.600000
v 7.750000 16.700000 8.050000
v 14.250000 16.700000 8.050000
v 14.250000 22.300000 8.050000
v 7.750000 22.300000 8.050000
v 14.250000 16.700000 7.350000
v 7.750000 16.700000 7.350000
v 7.750000 22.300000 7.350000
v 14.250000 22.300000 7.350000
v 14.250000 16.700000 8.050000
v 14.250000 16.700000 7.350000
v 14.250000 22.300000 7.350000
v 14.250000 22.300000 8.050000
v 7.750000 16.700000 7.350000
v 7.750000 16.700000 8.050000
v 7.750000 22.300000 8.050000
v 7.750000 22.300000 7.350000
v 7.750000 22.300000 8.050000
v 14.250000 22.300000 8.050000
v 14.250000 22.300000 7.350000
v 7.750000 22.300000 7.350000
v 7.750000 16.700000 7.350000
v 14.250000 16.700000 7.350000
v 14.250000 16.700000 8.050000
v 7.750000 16.700000 8.050000
v 10.200000 19.500000 8.600000
v 10.200000 19.240192 8.450000
v 11.800000 19.240192 8.450000
v 11.800000 19.500000 8.600000
v 10.200000 19.500000 8.300000
v 10.200000 19.240192 8.450000
v 10.200000 19.500000 8.600000
v 11.800000 19.500000 8.300000
v 11.800000 19.500000 8.600000
v 11.800000 19.240192 8.450000
v 10.200000 19.240192 8.450000
v 10.200000 19.240192 8.150000
v 11.800000 19.240192 8.150000
v 11.800000 19.240192 8.450000
v 10.200000 19.500000 8.300000
v 10.200000 19.240192 8.150000
v 10.200000 19.240192 8.450000
v 11.800000 19.500000 8.300000
v 11.800000 19.240192 8.450000
v 11.800000 19.240192 8.150000
v 10.200000 19.240192 8.150000
v 10.200000 19.500000 8.000000
v 11.800000 19.500000 8.000000
v 11.800000 19.240192 8.150000
v 10.200000 19.500000 8.300000
v 10.200000 19.500000 8.000000
v 10.200000 19.240192 8.150000
v 11.800000 19.500000 8.300000
v 11.800000 19.240192 8.150000
v 11.800000 19.500000 8.000000
v 10.200000 19.500000 8.000000
v 10.200000 19.759808 8.150000
v 11.800000 19.759808 8.150000
v 11.800000 19.500000 8.000000
v 10.200000 19.500000 8.300000
v 10.200000 19.759808 8.150000
v 10.200000 19.500000 8.000000
v 11.800000 19.500000 8.300000
v 11.800000 19.500000 8.000000
v 11.800000 19.759808 8.150000
v 10.200000 19.759808 8.150000
v 10.200000 19.759808 8.450000
v 11.800000 19.759808 8.450000
v 11.800000 19.759808 8.150000
v 10.200000 19.500000 8.300000
v 10.200000 19.759808 8.450000
v 10.200000 19.759808 8.150000
v 11.800000 19.500000 8.300000
v 11.800000 19.759808 8.150000
v 11.800000 19.759808 8.450000
v 10.200000 19.759808 8.450000
v 10.200000 19.500000 8.600000
v 11.800000 19.500000 8.600000
v 11.800000 19.759808 8.450000
v 10.200000 19.500000 8.300000
v 10.200000 19.500000 8.600000
v 10.200000 19.759808 8.450000
v 11.800000 19.500000 8.300000
v 11.800000 19.759808 8.450000
v 11.800000 19.500000 8.600000
v -15.000000 25.000000 -6.000000
v -13.000000 25.000000 -6.000000
v -13.000000 38.000000 -6.000000
v -15.000000 38.000000 -6.000000
v -13.000000 25.000000 -8.000000
v -15.000000 25.000000 -8.000000
v -15.000000 38.000000 -8.000000
v -13.000000 38.000000 -8.000000
v -13.000000 25.000000 -6.000000
v -13.000000 25.000000 -8.000000
v -13.000000 38.000000 -8.000000
v -13.000000 38.000000 -6.000000
v -15.000000 25.000000 -8.000000
v -15.000000 25.000000 -6.000000
v -15.000000 38.000000 -6.000000
v -15.000000 38.000000 -8.000000
v -15.000000 38.000000 -6.000000
v -13.000000 38.000000 -6.000000
v -13.000000 38.000000 -8.000000
v -15.000000 38.000000 -8.000000
v -15.000000 25.000000 -8.000000
v -13.000000 25.000000 -8.000000
v -13.000000 25.000000 -6.000000
v -15.000000 25.000000 -6.000000
v 13.000000 25.000000 -6.000000
v 15.000000 25.000000 -6.000000
v 15.000000 38.000000 -6.000000
v 13.000000 38.000000 -6.000000
v 15.000000 25.000000 -8.000000
v 13.000000 25.000000 -8.000000
v 13.000000 38.000000 -8.000000
v 15.000000 38.000000 -8.000000
v 15.000000 25.000000 -6.000000
v 15.000000 25.000000 -8.000000
v 15.000000 38.000000 -8.000000
v 15.000000 38.000000 -6.000000
v 13.000000 25.000000 -8.000000
v 13.000000 25.000000 -6.000000
v 13.000000 38.000000 -6.000000
v 13.000000 38.000000 -8.000000
v 13.000000 38.000000 -6.000000
v 15.000000 38.000000 -6.000000
v 15.000000 38.000000 -8.000000
v 13.000000 38.000000 -8.000000
v 13.000000 25.000000 -8.000000
v 15.000000 25.000000 -8.000000
v 15.000000 25.000000 -6.000000
v 13.000000 25.000000 -6.000000
v -15.000000 35.500000 -6.000000
v 15.000000 35.500000 -6.000000
v 15.000000 37.500000 -6.000000
v -15.000000 37.500000 -6.000000
v 15.000000 35.500000 -8.000000
v -15.000000 35.500000 -8.000000
v -15.000000 37.500000 -8.000000
v 15.000000 37.500000 -8.000000
v 15.000000 35.500000 -6.000000
v 15.000000 35.500000 -8.000000
v 15.000000 37.500000 -8.000000
v 15.000000 37.500000 -6.000000
v -15.000000 35.500000 -8.000000
v -15.000000 35.500000 -6.000000
v -15.000000 37.500000 -6.000000
v -15.000000 37.500000 -8.000000
v -15.000000 37.500000 -6.000000
v 15.000000 37.500000 -6.000000
v 15.000000 37.500000 -8.000000
v -15.000000 37.500000 -8.000000
v -15.000000 35.500000 -8.000000
v 15.000000 35.500000 -8.000000
v 15.000000 35.500000 -6.000000
v -15.000000 35.500000 -6.000000
v -7.000000 26.550000 5.500000
v 7.000000 26.550000 5.500000
v 7.000000 26.850000 5.500000
v -7.000000 26.850000 5.500000
v 7.000000 26.550000 -5.500000
v -7.000000 26.550000 -5.500000
v -7.000000 26.850000 -5.500000
v 7.000000 26.850000 -5.500000
v 7.000000 26.550000 5.500000
v 7.000000 26.550000 -5.500000
v 7.000000 26.850000 -5.500000
v 7.000000 26.850000 5.500000
v -7.000000 26.550000 -5.500000
v -7.000000 26.550000 5.500000
v -7.000000 26.850000 5.500000
v -7.000000 26.850000 -5.500000
v -7.000000 26.850000 5.500000
v 7.000000 26.850000 5.500000
v 7.000000 26.850000 -5.500000
v -7.000000 26.850000 -5.500000
v -7.000000 26.550000 -5.500000
v 7.000000 26.550000 -5.500000
v 7.000000 26.550000 5.500000
v -7.000000 26.550000 5.500000
v -4.500000 26.925000 4.500000
v 4.500000 26.925000 4.500000
v 4.500000 27.075000 4.500000
v -4.500000 27.075000 4.500000
v 4.500000 26.925000 -2.500000
v -4.500000 26.925000 -2.500000
v -4.500000 27.075000 -2.500000
v 4.500000 27.075000 -2.500000
v 4.500000 26.925000 4.500000
v 4.500000 26.925000 -2.500000
v 4.500000 27.075000 -2.500000
v 4.500000 27.075000 4.500000
v -4.500000 26.925000 -2.500000
v -4.500000 26.925000 4.500000
v -4.500000 27.075000 4.500000
v -4.500000 27.075000 -2.500000
v -4.500000 27.075000 4.500000
v 4.500000 27.075000 4.500000
v 4.500000 27.075000 -2.500000
v -4.500000 27.075000 -2.500000
v -4.500000 26.925000 -2.500000
v 4.500000 26.925000 -2.500000
v 4.500000 26.925000 4.500000
v -4.500000 26.925000 4.500000
v -10.000000 30.000000 -6.450000
v -10.389711 30.000000 -6.225000
v -10.389711 35.000000 -6.225000
v -10.000000 35.000000 -6.450000
v -10.000000 30.000000 -6.000000
v -10.389711 30.000000 -6.225000
v -10.000000 30.000000 -6.450000
v -10.000000 35.000000 -6.000000
v -10.000000 35.000000 -6.450000
v -10.389711 35.000000 -6.225000
v -10.389711 30.000000 -6.225000
v -10.389711 30.000000 -5.775000
v -10.389711 35.000000 -5.775000
v -10.389711 35.000000 -6.225000
v -10.000000 30.000000 -6.000000
v -10.389711 30.000000 -5.775000
v -10.389711 30.000000 -6.225000
v -10.000000 35.000000 -6.000000
v -10.389711 35.000000 -6.225000
v -10.389711 35.000000 -5.775000
v -10.389711 30.000000 -5.775000
v -10.000000 30.000000 -5.550000
v -10.000000 35.000000 -5.550000
v -10.389711 35.000000 -5.775000
v -10.000000 30.000000 -6.000000
v -10.000000 30.000000 -5.550000
v -10.389711 30.000000 -5.775000
v -10.000000 35.000000 -6.000000
v -10.389711 35.000000 -5.775000
v -10.000000 35.000000 -5.550000
v -10.000000 30.000000 -5.550000
v -9.610289 30.000000 -5.775000
v -9.610289 35.000000 -5.775000
v -10.000000 35.000000 -5.550000
v -10.000000 30.000000 -6.000000
v -9.610289 30.000000 -5.775000
v -10.000000 30.000000 -5.550000
v -10.000000 35.000000 -6.000000
v -10.000000 35.000000 -5.550000
v -9.610289 35.000000 -5.775000
v -9.610289 30.000000 -5.775000
v -9.610289 30.000000 -6.225000
v -9.610289 35.000000 -6.225000
v -9.610289 35.000000 -5.775000
v -10.000000 30.000000 -6.000000
v -9.610289 30.000000 -6.225000
v -9.610289 30.000000 -5.775000
v -10.000000 35.000000 -6.000000
v -9.610289 35.000000 -5.775000
v -9.610289 35.000000 -6.225000
v -9.610289 30.000000 -6.225000
v -10.000000 30.000000 -6.450000
v -10.000000 35.000000 -6.450000
v -9.610289 35.000000 -6.225000
v -10.000000 30.000000 -6.000000
v -10.000000 30.000000 -6.450000
v -9.610289 30.000000 -6.225000
v -10.000000 35.000000 -6.000000
v -9.610289 35.000000 -6.225000
v -10.000000 35.000000 -6.450000
v -11.400000 34.400000 -5.450000
v -8.600000 34.400000 -5.450000
v -8.600000 35.600000 -5.450000
v -11.400000 35.600000 -5.450000
v -8.600000 34.400000 -6.550000
v -11.400000 34.400000 -6.550000
v -11.400000 35.600000 -6.550000
v -8.600000 35.600000 -6.550000
v -8.600000 34.400000 -5.450000
v -8.600000 34.400000 -6.550000
v -8.600000 35.600000 -6.550000
v -8.600000 35.600000 -5.450000
v -11.400000 34.400000 -6.550000
v -11.400000 34.400000 -5.450000
v -11.400000 35.600000 -5.450000
v -11.400000 35.600000 -6.550000
v -11.400000 35.600000 -5.450000
v -8.600000 35.600000 -5.450000
v -8.600000 35.600000 -6.550000
v -11.400000 35.600000 -6.550000
v -11.400000 34.400000 -6.550000
v -8.600000 34.400000 -6.550000
v -8.600000 34.400000 -5.450000
v -11.400000 34.400000 -5.450000
v -5.000000 30.000000 -6.450000
v -5.389711 30.000000 -6.225000
v -5.389711 35.000000 -6.225000
v -5.000000 35.000000 -6.450000
v -5.000000 30.000000 -6.000000
v -5.389711 30.000000 -6.225000
v -5.000000 30.000000 -6.450000
v -5.000000 35.000000 -6.000000
v -5.000000 35.000000 -6.450000
v -5.389711 35.000000 -6.225000
v -5.389711 30.000000 -6.225000
v -5.389711 30.000000 -5.775000
v -5.389711 35.000000 -5.775000
v -5.389711 35.000000 -6.225000
v -5.000000 30.000000 -6.000000
v -5.389711 30.000000 -5.775000
v -5.389711 30.000000 -6.225000
v -5.000000 35.000000 -6.000000
v -5.389711 35.000000 -6.225000
v -5.389711 35.000000 -5.775000
v -5.389711 30.000000 -5.775000
v -5.000000 30.000000 -5.550000
v -5.000000 35.000000 -5.550000
v -5.389711 35.000000 -5.775000
v -5.000000 30.000000 -6.000000
v -5.000000 30.000000 -5.550000
v -5.389711 30.000000 -5.775000
v -5.000000 35.000000 -6.000000
v -5.389711 35.000000 -5.775000
v -5.000000 35.000000 -5.550000
v -5.000000 30.000000 -5.550000
v -4.610289 30.000000 -5.775000
v -4.610289 35.000000 -5.775000
v -5.000000 35.000000 -5.550000
v -5.000000 30.000000 -6.000000
v -4.610289 30.000000 -5.775000
v -5.000000 30.000000 -5.550000
v -5.000000 35.000000 -6.000000
v -5.000000 35.000000 -5.550000
v -4.610289 35.000000 -5.775000
v -4.610289 30.000000 -5.775000
v -4.610289 30.000000 -6.225000
v -4.610289 35.000000 -6.225000
v -4.610289 35.000000 -5.775000
v -5.000000 30.000000 -6.000000
v -4.610289 30.000000 -6.225000
v -4.610289 30.000000 -5.775000
v -5.000000 35.000000 -6.000000
v -4.610289 35.000000 -5.775000
v -4.610289 35.000000 -6.225000
v -4.610289 30.000000 -6.225000
v -5.000000 30.000000 -6.450000
v -5.000000 35.000000 -6.450000
v -4.610289 35.000000 -6.225000
v -5.000000 30.000000 -6.000000
v -5.000000 30.000000 -6.450000
v -4.610289 30.000000 -6.225000
v -5.000000 35.000000 -6.000000
v -4.610289 35.000000 -6.225000
v -5.000000 35.000000 -6.450000
v -6.400000 34.400000 -5.450000
v -3.600000 34.400000 -5.450000
v -3.600000 35.600000 -5.450000
v -6.400000 35.600000 -5.450000
v -3.600000 34.400000 -6.550000
v -6.400000 34.400000 -6.550000
v -6.400000 35.600000 -6.550000
v -3.600000 35.600000 -6.550000
v -3.600000 34.400000 -5.450000
v -3.600000 34.400000 -6.550000
v -3.600000 35.600000 -6.550000
v -3.600000 35.600000 -5.450000
v -6.400000 34.400000 -6.550000
v -6.400000 34.400000 -5.450000
v -6.400000 35.600000 -5.450000
v -6.400000 35.600000 -6.550000
v -6.400000 35.600000 -5.450000
v -3.600000 35.600000 -5.450000
v -3.600000 35.600000 -6.550000
v -6.400000 35.600000 -6.550000
v -6.400000 34.400000 -6.550000
v -3.600000 34.400000 -6.550000
v -3.600000 34.400000 -5.450000
v -6.400000 34.400000 -5.450000
v 0.000000 30.000000 -6.450000
v -0.389711 30.000000 -6.225000
v -0.389711 35.000000 -6.225000
v 0.000000 35.000000 -6.450000
v 0.000000 30.000000 -6.000000
v -0.389711 30.000000 -6.225000
v 0.000000 30.000000 -6.450000
v 0.000000 35.000000 -6.000000
v 0.000000 35.000000 -6.450000
v -0.389711 35.000000 -6.225000
v -0.389711 30.000000 -6.225000
v -0.389711 30.000000 -5.775000
v -0.389711 35.000000 -5.775000
v -0.389711 35.000000 -6.225000
v 0.000000 30.000000 -6.000000
v -0.389711 30.000000 -5.775000
v -0.389711 30.000000 -6.225000
v 0.000000 35.000000 -6.000000
v -0.389711 35.000000 -6.225000
v -0.389711 35.000000 -5.775000
v -0.389711 30.000000 -5.775000
v -0.000000 30.000000 -5.550000
v -0.000000 35.000000 -5.550000
v -0.389711 35.000000 -5.775000
v 0.000000 30.000000 -6.000000
v -0.000000 30.000000 -5.550000
v -0.389711 30.000000 -5.775000
v 0.000000 35.000000 -6.000000
v -0.389711 35.000000 -5.775000
v -0.000000 35.000000 -5.550000
v -0.000000 30.000000 -5.550000
v 0.389711 30.000000 -5.775000
v 0.389711 35.000000 -5.775000
v -0.000000 35.000000 -5.550000
v 0.000000 30.000000 -6.000000
v 0.389711 30.000000 -5.775000
v -0.000000 30.000000 -5.550000
v 0.000000 35.000000 -6.000000
v -0.000000 35.000000 -5.550000
v 0.389711 35.000000 -5.775000
v 0.389711 30.000000 -5.775000
v 0.389711 30.000000 -6.225000
v 0.389711 35.000000 -6.225000
v 0.389711 35.000000 -5.775000
v 0.000000 30.000000 -6.000000
v 0.389711 30.000000 -6.225000
v 0.389711 30.000000 -5.775000
v 0.000000 35.000000 -6.000000
v 0.389711 35.000000 -5.775000
v 0.389711 35.000000 -6.225000
v 0.389711 30.000000 -6.225000
v 0.000000 30.000000 -6.450000
v 0.000000 35.000000 -6.450000
v 0.389711 35.000000 -6.225000
v 0.000000 30.000000 -6.000000
v 0.000000 30.000000 -6.450000
v 0.389711 30.000000 -6.225000
v 0.000000 35.000000 -6.000000
v 0.389711 35.000000 -6.225000
v 0.000000 35.000000 -6.450000
v -1.400000 34.400000 -5.450000
v 1.400000 34.400000 -5.450000
v 1.400000 35.600000 -5.450000
v -1.400000 35.600000 -5.450000
v 1.400000 34.400000 -6.550000
v -1.400000 34.400000 -6.550000
v -1.400000 35.600000 -6.550000
v 1.400000 35.600000 -6.550000
v 1.400000 34.400000 -5.450000
v 1.400000 34.400000 -6.550000
v 1.400000 35.600000 -6.550000
v 1.400000 35.600000 -5.450000
v -1.400000 34.400000 -6.550000
v -1.400000 34.400000 -5.450000
v -1.400000 35.600000 -5.450000
v -1.400000 35.600000 -6.550000
v -1.400000 35.600000 -5.450000
v 1.400000 35.600000 -5.450000
v 1.400000 35.600000 -6.550000
v -1.400000 35.600000 -6.550000
v -1.400000 34.400000 -6.550000
v 1.400000 34.400000 -6.550000
v 1.400000 34.400000 -5.450000
v -1.400000 34.400000 -5.450000
v 5.000000 30.000000 -6.450000
v 4.610289 30.000000 -6.225000
v 4.610289 35.000000 -6.225000
v 5.000000 35.000000 -6.450000
v 5.000000 30.000000 -6.000000
v 4.610289 30.000000 -6.225000
v 5.000000 30.000000 -6.450000
v 5.000000 35.000000 -6.000000
v 5.000000 35.000000 -6.450000
v 4.610289 35.000000 -6.225000
v 4.610289 30.000000 -6.225000
v 4.610289 30.000000 -5.775000
v 4.610289 35.000000 -5.775000
v 4.610289 35.000000 -6.225000
v 5.000000 30.000000 -6.000000
v 4.610289 30.000000 -5.775000
v 4.610289 30.000000 -6.225000
v 5.000000 35.000000 -6.000000
v 4.610289 35.000000 -6.225000
v 4.610289 35.000000 -5.775000
v 4.610289 30.000000 -5.775000
v 5.000000 30.000000 -5.550000
v 5.000000 35.000000 -5.550000
v 4.610289 35.000000 -5.775000
v 5.000000 30.000000 -6.000000
v 5.000000 30.000000 -5.550000
v 4.610289 30.000000 -5.775000
v 5.000000 35.000000 -6.000000
v 4.610289 35.000000 -5.775000
v 5.000000 35.000000 -5.550000
v 5.000000 30.000000 -5.550000
v 5.389711 30.000000 -5.775000
v 5.389711 35.000000 -5.775000
v 5.000000 35.000000 -5.550000
v 5.000000 30.000000 -6.000000
v 5.389711 30.000000 -5.775000
v 5.000000 30.000000 -5.550000
v 5.000000 35.000000 -6.000000
v 5.000000 35.000000 -5.550000
v 5.389711 35.000000 -5.775000
v 5.389711 30.000000 -5.775000
v 5.389711 30.000000 -6.225000
v 5.389711 35.000000 -6.225000
v 5.389711 35.000000 -5.775000
v 5.000000 30.000000 -6.000000
v 5.389711 30.000000 -6.225000
v 5.389711 30.000000 -5.775000
v 5.000000 35.000000 -6.000000
v 5.389711 35.000000 -5.775000
v 5.389711 35.000000 -6.225000
v 5.389711 30.000000 -6.225000
v 5.000000 30.000000 -6.450000
v 5.000000 35.000000 -6.450000
v 5.389711 35.000000 -6.225000
v 5.000000 30.000000 -6.000000
v 5.000000 30.000000 -6.450000
v 5.389711 30.000000 -6.225000
v 5.000000 35.000000 -6.000000
v 5.389711 35.000000 -6.225000
v 5.000000 35.000000 -6.450000
v 3.600000 34.400000 -5.450000
v 6.400000 34.400000 -5.450000
v 6.400000 35.600000 -5.450000
v 3.600000 35.600000 -5.450000
v 6.400000 34.400000 -6.550000
v 3.600000 34.400000 -6.550000
v 3.600000 35.600000 -6.550000
v 6.400000 35.600000 -6.550000
v 6.400000 34.400000 -5.450000
v 6.400000 34.400000 -6.550000
v 6.400000 35.600000 -6.550000
v 6.400000 35.600000 -5.450000
v 3.600000 34.400000 -6.550000
v 3.600000 34.400000 -5.450000
v 3.600000 35.600000 -5.450000
v 3.600000 35.600000 -6.550000
v 3.600000 35.600000 -5.450000
v 6.400000 35.600000 -5.450000
v 6.400000 35.600000 -6.550000
v 3.600000 35.600000 -6.550000
v 3.600000 34.400000 -6.550000
v 6.400000 34.400000 -6.550000
v 6.400000 34.400000 -5.450000
v 3.600000 34.400000 -5.450000
v 10.000000 30.000000 -6.450000
v 9.610289 30.000000 -6.225000
v 9.610289 35.000000 -6.225000
v 10.000000 35.000000 -6.450000
v 10.000000 30.000000 -6.000000
v 9.610289 30.000000 -6.225000
v 10.000000 30.000000 -6.450000
v 10.000000 35.000000 -6.000000
v 10.000000 35.000000 -6.450000
v 9.610289 35.000000 -6.225000
v 9.610289 30.000000 -6.225000
v 9.610289 30.000000 -5.775000
v 9.610289 35.000000 -5.775000
v 9.610289 35.000000 -6.225000
v 10.000000 30.000000 -6.000000
v 9.610289 30.000000 -5.775000
v 9.610289 30.000000 -6.225000
v 10.000000 35.000000 -6.000000
v 9.610289 35.000000 -6.225000
v 9.610289 35.000000 -5.775000
v 9.610289 30.000000 -5.775000
v 10.000000 30.000000 -5.550000
v 10.000000 35.000000 -5.550000
v 9.610289 35.000000 -5.775000
v 10.000000 30.000000 -6.000000
v 10.000000 30.000000 -5.550000
v 9.610289 30.000000 -5.775000
v 10.000000 35.000000 -6.000000
v 9.610289 35.000000 -5.775000
v 10.000000 35.000000 -5.550000
v 10.000000 30.000000 -5.550000
v 10.389711 30.000000 -5.775000
v 10.389711 35.000000 -5.775000
v 10.000000 35.000000 -5.550000
v 10.000000 30.000000 -6.000000
v 10.389711 30.000000 -5.775000
v 10.000000 30.000000 -5.550000
v 10.000000 35.000000 -6.000000
v 10.000000 35.000000 -5.550000
v 10.389711 35.000000 -5.775000
v 10.389711 30.000000 -5.775000
v 10.389711 30.000000 -6.225000
v 10.389711 35.000000 -6.225000
v 10.389711 35.000000 -5.775000
v 10.000000 30.000000 -6.000000
v 10.389711 30.000000 -6.225000
v 10.389711 30.000000 -5.775000
v 10.000000 35.000000 -6.000000
v 10.389711 35.000000 -5.775000
v 10.389711 35.000000 -6.225000
v 10.389711 30.000000 -6.225000
v 10.000000 30.000000 -6.450000
v 10.000000 35.000000 -6.450000
v 10.389711 35.000000 -6.225000
v 10.000000 30.000000 -6.000000
v 10.000000 30.000000 -6.450000
v 10.389711 30.000000 -6.225000
v 10.000000 35.000000 -6.000000
v 10.389711 35.000000 -6.225000
v 10.000000 35.000000 -6.450000
v 8.600000 34.400000 -5.450000
v 11.400000 34.400000 -5.450000
v 11.400000 35.600000 -5.450000
v 8.600000 35.600000 -5.450000
v 11.400000 34.400000 -6.550000
v 8.600000 34.400000 -6.550000
v 8.600000 35.600000 -6.550000
v 11.400000 35.600000 -6.550000
v 11.400000 34.400000 -5.450000
v 11.400000 34.400000 -6.550000
v 11.400000 35.600000 -6.550000
v 11.400000 35.600000 -5.450000
v 8.600000 34.400000 -6.550000
v 8.600000 34.400000 -5.450000
v 8.600000 35.600000 -5.450000
v 8.600000 35.600000 -6.550000
v 8.600000 35.600000 -5.450000
v 11.400000 35.600000 -5.450000
v 11.400000 35.600000 -6.550000
v 8.600000 35.600000 -6.550000
v 8.600000 34.400000 -6.550000
v 11.400000 34.400000 -6.550000
v 11.400000 34.400000 -5.450000
v 8.600000 34.400000 -5.450000
v 9.000000 26.500000 4.000000
v 13.000000 26.500000 4.000000
v 13.000000 29.500000 4.000000
v 9.000000 29.500000 4.000000
v 13.000000 26.500000 0.000000
v 9.000000 26.500000 0.000000
v 9.000000 29.500000 0.000000
v 13.000000 29.500000 0.000000
v 13.000000 26.500000 4.000000
v 13.000000 26.500000 0.000000
v 13.000000 29.500000 0.000000
v 13.000000 29.500000 4.000000
v 9.000000 26.500000 0.000000
v 9.000000 26.500000 4.000000
v 9.000000 29.500000 4.000000
v 9.000000 29.500000 0.000000
v 9.000000 29.500000 4.000000
v 13.000000 29.500000 4.000000
v 13.000000 29.500000 0.000000
v 9.000000 29.500000 0.000000
v 9.000000 26.500000 0.000000
v 13.000000 26.500000 0.000000
v 13.000000 26.500000 4.000000
v 9.000000 26.500000 4.000000
v 8.750000 29.300000 1.000000
v 13.250000 29.300000 1.000000
v 13.250000 31.300000 1.000000
v 8.750000 31.300000 1.000000
v 13.250000 29.300000 -0.200000
v 8.750000 29.300000 -0.200000
v 8.750000 31.300000 -0.200000
v 13.250000 31.300000 -0.200000
v 13.250000 29.300000 1.000000
v 13.250000 29.300000 -0.200000
v 13.250000 31.300000 -0.200000
v 13.250000 31.300000 1.000000
v 8.750000 29.300000 -0.200000
v 8.750000 29.300000 1.000000
v 8.750000 31.300000 1.000000
v 8.750000 31.300000 -0.200000
v 8.750000 31.300000 1.000000
v 13.250000 31.300000 1.000000
v 13.250000 31.300000 -0.200000
v 8.750000 31.300000 -0.200000
v 8.750000 29.300000 -0.200000
v 13.250000 29.300000 -0.200000
v 13.250000 29.300000 1.000000
v 8.750000 29.300000 1.000000
v 8.750000 29.300000 4.200000
v 13.250000 29.300000 4.200000
v 13.250000 31.300000 4.200000
v 8.750000 31.300000 4.200000
v 13.250000 29.300000 3.000000
v 8.750000 29.300000 3.000000
v 8.750000 31.300000 3.000000
v 13.250000 31.300000 3.000000
v 13.250000 29.300000 4.200000
v 13.250000 29.300000 3.000000
v 13.250000 31.300000 3.000000
v 13.250000 31.300000 4.200000
v 8.750000 29.300000 3.000000
v 8.750000 29.300000 4.200000
v 8.750000 31.300000 4.200000
v 8.750000 31.300000 3.000000
v 8.750000 31.300000 4.200000
v 13.250000 31.300000 4.200000
v 13.250000 31.300000 3.000000
v 8.750000 31.300000 3.000000
v 8.750000 29.300000 3.000000
v 13.250000 29.300000 3.000000
v 13.250000 29.300000 4.200000
v 8.750000 29.300000 4.200000
v 11.000000 28.500000 3.000000
v 10.566987 28.250000 3.000000
v 10.566987 28.250000 7.000000
v 11.000000 28.500000 7.000000
v 11.000000 28.000000 3.000000
v 10.566987 28.250000 3.000000
v 11.000000 28.500000 3.000000
v 11.000000 28.000000 7.000000
v 11.000000 28.500000 7.000000
v 10.566987 28.250000 7.000000
v 10.566987 28.250000 3.000000
v 10.566987 27.750000 3.000000
v 10.566987 27.750000 7.000000
v 10.566987 28.250000 7.000000
v 11.000000 28.000000 3.000000
v 10.566987 27.750000 3.000000
v 10.566987 28.250000 3.000000
v 11.000000 28.000000 7.000000
v 10.566987 28.250000 7.000000
v 10.566987 27.750000 7.000000
v 10.566987 27.750000 3.000000
v 11.000000 27.500000 3.000000
v 11.000000 27.500000 7.000000
v 10.566987 27.750000 7.000000
v 11.000000 28.000000 3.000000
v 11.000000 27.500000 3.000000
v 10.566987 27.750000 3.000000
v 11.000000 28.000000 7.000000
v 10.566987 27.750000 7.000000
v 11.000000 27.500000 7.000000
v 11.000000 27.500000 3.000000
v 11.433013 27.750000 3.000000
v 11.433013 27.750000 7.000000
v 11.000000 27.500000 7.000000
v 11.000000 28.000000 3.000000
v 11.433013 27.750000 3.000000
v 11.000000 27.500000 3.000000
v 11.000000 28.000000 7.000000
v 11.000000 27.500000 7.000000
v 11.433013 27.750000 7.000000
v 11.433013 27.750000 3.000000
v 11.433013 28.250000 3.000000
v 11.433013 28.250000 7.000000
v 11.433013 27.750000 7.000000
v 11.000000 28.000000 3.000000
v 11.433013 28.250000 3.000000
v 11.433013 27.750000 3.000000
v 11.000000 28.000000 7.000000
v 11.433013 27.750000 7.000000
v 11.433013 28.250000 7.000000
v 11.433013 28.250000 3.000000
v 11.000000 28.500000 3.000000
v 11.000000 28.500000 7.000000
v 11.433013 28.250000 7.000000
v 11.000000 28.000000 3.000000
v 11.000000 28.500000 3.000000
v 11.433013 28.250000 3.000000
v 11.000000 28.000000 7.000000
v 11.433013 28.250000 7.000000
v 11.000000 28.500000 7.000000
v 11.000000 26.000000 6.700000
v 10.740192 26.000000 6.850000
v 10.740192 30.000000 6.850000
v 11.000000 30.000000 6.700000
v 11.000000 26.000000 7.000000
v 10.740192 26.000000 6.850000
v 11.000000 26.000000 6.700000
v 11.000000 30.000000 7.000000
v 11.000000 30.000000 6.700000
v 10.740192 30.000000 6.850000
v 10.740192 26.000000 6.850000
v 10.740192 26.000000 7.150000
v 10.740192 30.000000 7.150000
v 10.740192 30.000000 6.850000
v 11.000000 26.000000 7.000000
v 10.740192 26.000000 7.150000
v 10.740192 26.000000 6.850000
v 11.000000 30.000000 7.000000
v 10.740192 30.000000 6.850000
v 10.740192 30.000000 7.150000
v 10.740192 26.000000 7.150000
v 11.000000 26.000000 7.300000
v 11.000000 30.000000 7.300000
v 10.740192 30.000000 7.150000
v 11.000000 26.000000 7.000000
v 11.000000 26.000000 7.300000
v 10.740192 26.000000 7.150000
v 11.000000 30.000000 7.000000
v 10.740192 30.000000 7.150000
v 11.000000 30.000000 7.300000
v 11.000000 26.000000 7.300000
v 11.259808 26.000000 7.150000
v 11.259808 30.000000 7.150000
v 11.000000 30.000000 7.300000
v 11.000000 26.000000 7.000000
v 11.259808 26.000000 7.150000
v 11.000000 26.000000 7.300000
v 11.000000 30.000000 7.000000
v 11.000000 30.000000 7.300000
v 11.259808 30.000000 7.150000
v 11.259808 26.000000 7.150000
v 11.259808 26.000000 6.850000
v 11.259808 30.000000 6.850000
v 11.259808 30.000000 7.150000
v 11.000000 26.000000 7.000000
v 11.259808 26.000000 6.850000
v 11.259808 26.000000 7.150000
v 11.000000 30.000000 7.000000
v 11.259808 30.000000 7.150000
v 11.259808 30.000000 6.850000
v 11.259808 26.000000 6.850000
v 11.000000 26.000000 6.700000
v 11.000000 30.000000 6.700000
v 11.259808 30.000000 6.850000
v 11.000000 26.000000 7.000000
v 11.000000 26.000000 6.700000
v 11.259808 26.000000 6.850000
v 11.000000 30.000000 7.000000
v 11.259808 30.000000 6.850000
v 11.000000 30.000000 6.700000
v -14.000000 26.500000 4.500000
v -8.000000 26.500000 4.500000
v -8.000000 27.500000 4.500000
v -14.000000 27.500000 4.500000
v -8.000000 26.500000 -0.500000
v -14.000000 26.500000 -0.500000
v -14.000000 27.500000 -0.500000
v -8.000000 27.500000 -0.500000
v -8.000000 26.500000 4.500000
v -8.000000 26.500000 -0.500000
v -8.000000 27.500000 -0.500000
v -8.000000 27.500000 4.500000
v -14.000000 26.500000 -0.500000
v -14.000000 26.500000 4.500000
v -14.000000 27.500000 4.500000
v -14.000000 27.500000 -0.500000
v -14.000000 27.500000 4.500000
v -8.000000 27.500000 4.500000
v -8.000000 27.500000 -0.500000
v -14.000000 27.500000 -0.500000
v -14.000000 26.500000 -0.500000
v -8.000000 26.500000 -0.500000
v -8.000000 26.500000 4.500000
v -14.000000 26.500000 4.500000
v -13.800000 27.400000 4.300000
v -8.200000 27.400000 4.300000
v -8.200000 28.000000 4.300000
v -13.800000 28.000000 4.300000
v -8.200000 27.400000 -0.300000
v -13.800000 27.400000 -0.300000
v -13.800000 28.000000 -0.300000
v -8.200000 28.000000 -0.300000
v -8.200000 27.400000 4.300000
v -8.200000 27.400000 -0.300000
v -8.200000 28.000000 -0.300000
v -8.200000 28.000000 4.300000
v -13.800000 27.400000 -0.300000
v -13.800000 27.400000 4.300000
v -13.800000 28.000000 4.300000
v -13.800000 28.000000 -0.300000
v -13.800000 28.000000 4.300000
v -8.200000 28.000000 4.300000
v -8.200000 28.000000 -0.300000
v -13.800000 28.000000 -0.300000
v -13.800000 27.400000 -0.300000
v -8.200000 27.400000 -0.300000
v -8.200000 27.400000 4.300000
v -13.800000 27.400000 4.300000
v -13.000000 26.500000 -6.200000
v -14.039230 26.500000 -5.600000
v -14.039230 27.100000 -5.600000
v -13.000000 27.100000 -6.200000
v -13.000000 26.500000 -5.000000
v -14.039230 26.500000 -5.600000
v -13.000000 26.500000 -6.200000
v -13.000000 27.100000 -5.000000
v -13.000000 27.100000 -6.200000
v -14.039230 27.100000 -5.600000
v -14.039230 26.500000 -5.600000
v -14.039230 26.500000 -4.400000
v -14.039230 27.100000 -4.400000
v -14.039230 27.100000 -5.600000
v -13.000000 26.500000 -5.000000
v -14.039230 26.500000 -4.400000
v -14.039230 26.500000 -5.600000
v -13.000000 27.100000 -5.000000
v -14.039230 27.100000 -5.600000
v -14.039230 27.100000 -4.400000
v -14.039230 26.500000 -4.400000
v -13.000000 26.500000 -3.800000
v -13.000000 27.100000 -3.800000
v -14.039230 27.100000 -4.400000
v -13.000000 26.500000 -5.000000
v -13.000000 26.500000 -3.800000
v -14.039230 26.500000 -4.400000
v -13.000000 27.100000 -5.000000
v -14.039230 27.100000 -4.400000
v -13.000000 27.100000 -3.800000
v -13.000000 26.500000 -3.800000
v -11.960770 26.500000 -4.400000
v -11.960770 27.100000 -4.400000
v -13.000000 27.100000 -3.800000
v -13.000000 26.500000 -5.000000
v -11.960770 26.500000 -4.400000
v -13.000000 26.500000 -3.800000
v -13.000000 27.100000 -5.000000
v -13.000000 27.100000 -3.800000
v -11.960770 27.100000 -4.400000
v -11.960770 26.500000 -4.400000
v -11.960770 26.500000 -5.600000
v -11.960770 27.100000 -5.600000
v -11.960770 27.100000 -4.400000
v -13.000000 26.500000 -5.000000
v -11.960770 26.500000 -5.600000
v -11.960770 26.500000 -4.400000
v -13.000000 27.100000 -5.000000
v -11.960770 27.100000 -4.400000
v -11.960770 27.100000 -5.600000
v -11.960770 26.500000 -5.600000
v -13.000000 26.500000 -6.200000
v -13.000000 27.100000 -6.200000
v -11.960770 27.100000 -5.600000
v -13.000000 26.500000 -5.000000
v -13.000000 26.500000 -6.200000
v -11.960770 26.500000 -5.600000
v -13.000000 27.100000 -5.000000
v -11.960770 27.100000 -5.600000
v -13.000000 27.100000 -6.200000
v -13.000000 27.100000 -5.650000
v -13.562917 27.100000 -5.325000
v -13.562917 30.500000 -5.325000
v -13.000000 30.500000 -5.650000
v -13.000000 27.100000 -5.000000
v -13.562917 27.100000 -5.325000
v -13.000000 27.100000 -5.650000
v -13.000000 30.500000 -5.000000
v -13.000000 30.500000 -5.650000
v -13.562917 30.500000 -5.325000
v -13.562917 27.100000 -5.325000
v -13.562917 27.100000 -4.675000
v -13.562917 30.500000 -4.675000
v -13.562917 30.500000 -5.325000
v -13.000000 27.100000 -5.000000
v -13.562917 27.100000 -4.675000
v -13.562917 27.100000 -5.325000
v -13.000000 30.500000 -5.000000
v -13.562917 30.500000 -5.325000
v -13.562917 30.500000 -4.675000
v -13.562917 27.100000 -4.675000
v -13.000000 27.100000 -4.350000
v -13.000000 30.500000 -4.350000
v -13.562917 30.500000 -4.675000
v -13.000000 27.100000 -5.000000
v -13.000000 27.100000 -4.350000
v -13.562917 27.100000 -4.675000
v -13.000000 30.500000 -5.000000
v -13.562917 30.500000 -4.675000
v -13.000000 30.500000 -4.350000
v -13.000000 27.100000 -4.350000
v -12.437083 27.100000 -4.675000
v -12.437083 30.500000 -4.675000
v -13.000000 30.500000 -4.350000
v -13.000000 27.100000 -5.000000
v -12.437083 27.100000 -4.675000
v -13.000000 27.100000 -4.350000
v -13.000000 30.500000 -5.000000
v -13.000000 30.500000 -4.350000
v -12.437083 30.500000 -4.675000
v -12.437083 27.100000 -4.675000
v -12.437083 27.100000 -5.325000
v -12.437083 30.500000 -5.325000
v -12.437083 30.500000 -4.675000
v -13.000000 27.100000 -5.000000
v -12.437083 27.100000 -5.325000
v -12.437083 27.100000 -4.675000
v -13.000000 30.500000 -5.000000
v -12.437083 30.500000 -4.675000
v -12.437083 30.500000 -5.325000
v -12.437083 27.100000 -5.325000
v -13.000000 27.100000 -5.650000
v -13.000000 30.500000 -5.650000
v -12.437083 30.500000 -5.325000
v -13.000000 27.100000 -5.000000
v -13.000000 27.100000 -5.650000
v -12.437083 27.100000 -5.325000
v -13.000000 30.500000 -5.000000
v -12.437083 30.500000 -5.325000
v -13.000000 30.500000 -5.650000
v -13.000000 30.350000 -5.000000
v -13.000000 31.200000 -4.500000
v -12.500000 31.200000 -5.000000
v -13.000000 32.050000 -5.000000
v -12.500000 31.200000 -5.000000
v -13.000000 31.200000 -4.500000
v -13.000000 30.350000 -5.000000
v -13.500000 31.200000 -5.000000
v -13.000000 31.200000 -4.500000
v -13.000000 32.050000 -5.000000
v -13.000000 31.200000 -4.500000
v -13.500000 31.200000 -5.000000
v -13.000000 30.350000 -5.000000
v -13.000000 31.200000 -5.500000
v -13.500000 31.200000 -5.000000
v -13.000000 32.050000 -5.000000
v -13.500000 31.200000 -5.000000
v -13.000000 31.200000 -5.500000
v -13.000000 30.350000 -5.000000
v -12.500000 31.200000 -5.000000
v -13.000000 31.200000 -5.500000
v -13.000000 32.050000 -5.000000
v -13.000000 31.200000 -5.500000
v -12.500000 31.200000 -5.000000
v -4.000000 27.970000 -1.800000
v -4.233827 27.835000 -1.800000
v -4.233827 27.835000 2.400000
v -4.000000 27.970000 2.400000
v -4.000000 27.700000 -1.800000
v -4.233827 27.835000 -1.800000
v -4.000000 27.970000 -1.800000
v -4.000000 27.700000 2.400000
v -4.000000 27.970000 2.400000
v -4.233827 27.835000 2.400000
v -4.233827 27.835000 -1.800000
v -4.233827 27.565000 -1.800000
v -4.233827 27.565000 2.400000
v -4.233827 27.835000 2.400000
v -4.000000 27.700000 -1.800000
v -4.233827 27.565000 -1.800000
v -4.233827 27.835000 -1.800000
v -4.000000 27.700000 2.400000
v -4.233827 27.835000 2.400000
v -4.233827 27.565000 2.400000
v -4.233827 27.565000 -1.800000
v -4.000000 27.430000 -1.800000
v -4.000000 27.430000 2.400000
v -4.233827 27.565000 2.400000
v -4.000000 27.700000 -1.800000
v -4.000000 27.430000 -1.800000
v -4.233827 27.565000 -1.800000
v -4.000000 27.700000 2.400000
v -4.233827 27.565000 2.400000
v -4.000000 27.430000 2.400000
v -4.000000 27.430000 -1.800000
v -3.766173 27.565000 -1.800000
v -3.766173 27.565000 2.400000
v -4.000000 27.430000 2.400000
v -4.000000 27.700000 -1.800000
v -3.766173 27.565000 -1.800000
v -4.000000 27.430000 -1.800000
v -4.000000 27.700000 2.400000
v -4.000000 27.430000 2.400000
v -3.766173 27.565000 2.400000
v -3.766173 27.565000 -1.800000
v -3.766173 27.835000 -1.800000
v -3.766173 27.835000 2.400000
v -3.766173 27.565000 2.400000
v -4.000000 27.700000 -1.800000
v -3.766173 27.835000 -1.800000
v -3.766173 27.565000 -1.800000
v -4.000000 27.700000 2.400000
v -3.766173 27.565000 2.400000
v -3.766173 27.835000 2.400000
v -3.766173 27.835000 -1.800000
v -4.000000 27.970000 -1.800000
v -4.000000 27.970000 2.400000
v -3.766173 27.835000 2.400000
v -4.000000 27.700000 -1.800000
v -4.000000 27.970000 -1.800000
v -3.766173 27.835000 -1.800000
v -4.000000 27.700000 2.400000
v -3.766173 27.835000 2.400000
v -4.000000 27.970000 2.400000
v -5.260000 27.580000 2.460000
v -2.740000 27.580000 2.460000
v -2.740000 28.660000 2.460000
v -5.260000 28.660000 2.460000
v -2.740000 27.580000 1.140000
v -5.260000 27.580000 1.140000
v -5.260000 28.660000 1.140000
v -2.740000 28.660000 1.140000
v -2.740000 27.580000 2.460000
v -2.740000 27.580000 1.140000
v -2.740000 28.660000 1.140000
v -2.740000 28.660000 2.460000
v -5.260000 27.580000 1.140000
v -5.260000 27.580000 2.460000
v -5.260000 28.660000 2.460000
v -5.260000 28.660000 1.140000
v -5.260000 28.660000 2.460000
v -2.740000 28.660000 2.460000
v -2.740000 28.660000 1.140000
v -5.260000 28.660000 1.140000
v -5.260000 27.580000 1.140000
v -2.740000 27.580000 1.140000
v -2.740000 27.580000 2.460000
v -5.260000 27.580000 2.460000
v -15.100000 21.450000 8.800000
v -11.900000 21.450000 8.800000
v -11.900000 22.550000 8.800000
v -15.100000 22.550000 8.800000
v -11.900000 21.450000 5.600000
v -15.100000 21.450000 5.600000
v -15.100000 22.550000 5.600000
v -11.900000 22.550000 5.600000
v -11.900000 21.450000 8.800000
v -11.900000 21.450000 5.600000
v -11.900000 22.550000 5.600000
v -11.900000 22.550000 8.800000
v -15.100000 21.450000 5.600000
v -15.100000 21.450000 8.800000
v -15.100000 22.550000 8.800000
v -15.100000 22.550000 5.600000
v -15.100000 22.550000 8.800000
v -11.900000 22.550000 8.800000
v -11.900000 22.550000 5.600000
v -15.100000 22.550000 5.600000
v -15.100000 21.450000 5.600000
v -11.900000 21.450000 5.600000
v -11.900000 21.450000 8.800000
v -15.100000 21.450000 8.800000
v 11.900000 21.450000 8.800000
v 15.100000 21.450000 8.800000
v 15.100000 22.550000 8.800000
v 11.900000 22.550000 8.800000
v 15.100000 21.450000 5.600000
v 11.900000 21.450000 5.600000
v 11.900000 22.550000 5.600000
v 15.100000 22.550000 5.600000
v 15.100000 21.450000 8.800000
v 15.100000 21.450000 5.600000
v 15.100000 22.550000 5.600000
v 15.100000 22.550000 8.800000
v 11.900000 21.450000 5.600000
v 11.900000 21.450000 8.800000
v 11.900000 22.550000 8.800000
v 11.900000 22.550000 5.600000
v 11.900000 22.550000 8.800000
v 15.100000 22.550000 8.800000
v 15.100000 22.550000 5.600000
v 11.900000 22.550000 5.600000
v 11.900000 21.450000 5.600000
v 15.100000 21.450000 5.600000
v 15.100000 21.450000 8.800000
v 11.900000 21.450000 8.800000
vt 0.000000 0.000000
vt 1.000000 0.000000
vt 1.000000 1.000000
vt 0.000000 1.000000
vt 0.000000 0.000000
vt 1.000000 0.000000
vt 1.000000 1.000000
vt 0.000000 1.000000
vt 0.000000 0.000000
vt 1.000000 0.000000
vt 1.000000 1.000000
vt 0.000000 1.000000
vt 0.000000 0.000000
vt 1.000000 0.000000
vt 1.000000 1.000000
vt 0.000000 1.000000
vt 0.000000 0.000000
vt 1.000000 0.000000
vt 1.000000 1.000000
vt 0.000000 1.000000
vt 0.000000 0.000000
vt 1.000000 0.000000
vt 1.000000 1.000000
vt 0.000000 1.000000
vt 0.000000 0.000000
vt 1.000000 0.000000
vt 1.000000 1.000000
vt 0.000000 1.000000
vt 0.000000 0.000000
vt 1.000000 0.000000
vt 1.000000 1.000000
vt 0.000000 1.000000
vt 0.000000 0.000000
vt 1.000000 0.000000
vt 1.000000 1.000000
vt 0.000000 1.000000
vt 0.000000 0.000000
vt 1.000000 0.000000
vt 1.000000 1.000000
vt 0.000000 1.000000
vt 0.000000 0.000000
vt 1.000000 0.000000
vt 1.000000 1.000000
vt 0.000000 1.000000
vt 0.000000 0.000000
vt 1.000000 0.000000
vt 1.000000 1.000000
vt 0.000000 1.000000
vt 0.000000 0.000000
vt 1.000000 0.000000
vt 1.000000 1.000000
vt 0.000000 1.000000
vt 0.000000 0.000000
vt 1.000000 0.000000
vt 1.000000 1.000000
vt 0.000000 1.000000
vt 0.000000 0.000000
vt 1.000000 0.000000
vt 1.000000 1.000000
vt 0.000000 1.000000
vt 0.000000 0.000000
vt 1.000000 0.000000
vt 1.000000 1.000000
vt 0.000000 1.000000
vt 0.000000 0.000000
vt 1.000000 0.000000
vt 1.000000 1.000000
vt 0.000000 1.000000
vt 0.000000 0.000000
vt 1.000000 0.000000
vt 1.000000 1.000000
vt 0.000000 1.000000
vt 0.000000 0.000000
vt 1.000000 0.000000
vt 1.000000 1.000000
vt 0.000000 1.000000
vt 0.000000 0.000000
vt 1.000000 0.000000
vt 1.000000 1.000000
vt 0.000000 1.000000
vt 0.000000 0.000000
vt 1.000000 0.000000
vt 1.000000 1.000000
vt 0.000000 1.000000
vt 0.000000 0.000000
vt 1.000000 0.000000
vt 1.000000 1.000000
vt 0.000000 1.000000
vt 0.000000 0.000000
vt 1.000000 0.000000
vt 1.000000 1.000000
vt 0.000000 1.000000
vt 0.000000 0.000000
vt 1.000000 0.000000
vt 1.000000 1.000000
vt 0.000000 1.000000
vt 0.000000 0.000000
vt 1.000000 0.000000
vt 1.000000 1.000000
vt 0.000000 1.000000
vt 0.000000 0.000000
vt 1.000000 0.000000
vt 1.000000 1.000000
vt 0.000000 1.000000
vt 0.000000 0.000000
vt 1.000000 0.000000
vt 1.000000 1.000000
vt 0.000000 1.000000
vt 0.000000 0.000000
vt 1.000000 0.000000
vt 1.000000 1.000000
vt 0.000000 1.000000
vt 0.000000 0.000000
vt 1.000000 0.000000
vt 1.000000 1.000000
vt 0.000000 1.000000
vt 0.000000 0.000000
vt 1.000000 0.000000
vt 1.000000 1.000000
vt 0.000000 1.000000
vt 0.000000 0.000000
vt 1.000000 0.000000
vt 1.000000 1.000000
vt 0.000000 1.000000
vt 0.000000 0.000000
vt 1.000000 0.000000
vt 1.000000 1.000000
vt 0.000000 1.000000
vt 0.000000 0.000000
vt 1.000000 0.000000
vt 1.000000 1.000000
vt 0.000000 1.000000
vt 0.000000 0.000000
vt 1.000000 0.000000
vt 1.000000 1.000000
vt 0.000000 1.000000
vt 0.000000 0.000000
vt 1.000000 0.000000
vt 1.000000 1.000000
vt 0.000000 1.000000
vt 0.000000 0.000000
vt 1.000000 0.000000
vt 1.000000 1.000000
vt 0.000000 1.000000
vt 0.000000 0.000000
vt 1.000000 0.000000
vt 1.000000 1.000000
vt 0.000000 1.000000
vt 0.000000 0.000000
vt 1.000000 0.000000
vt 1.000000 1.000000
vt 0.000000 1.000000
vt 0.000000 0.000000
vt 1.000000 0.000000
vt 1.000000 1.000000
vt 0.000000 1.000000
vt 0.000000 0.000000
vt 1.000000 0.000000
vt 1.000000 1.000000
vt 0.000000 1.000000
vt 0.000000 0.000000
vt 1.000000 0.000000
vt 1.000000 1.000000
vt 0.000000 1.000000
vt 0.000000 0.000000
vt 1.000000 0.000000
vt 1.000000 1.000000
vt 0.000000 1.000000
vt 0.000000 0.000000
vt 1.000000 0.000000
vt 1.000000 1.000000
vt 0.000000 1.000000
vt 0.000000 0.000000
vt 1.000000 0.000000
vt 1.000000 1.000000
vt 0.000000 1.000000
vt 0.000000 0.000000
vt 1.000000 0.000000
vt 1.000000 1.000000
vt 0.000000 1.000000
vt 0.000000 0.000000
vt 1.000000 0.000000
vt 1.000000 1.000000
vt 0.000000 1.000000
vt 0.000000 0.000000
vt 1.000000 0.000000
vt 1.000000 1.000000
vt 0.000000 1.000000
vt 0.000000 0.000000
vt 1.000000 0.000000
vt 1.000000 1.000000
vt 0.000000 1.000000
vt 0.000000 0.000000
vt 1.000000 0.000000
vt 1.000000 1.000000
vt 0.000000 1.000000
vt 0.000000 0.000000
vt 1.000000 0.000000
vt 1.000000 1.000000
vt 0.000000 1.000000
vt 0.000000 0.000000
vt 1.000000 0.000000
vt 1.000000 1.000000
vt 0.000000 1.000000
vt 0.000000 0.000000
vt 1.000000 0.000000
vt 1.000000 1.000000
vt 0.000000 1.000000
vt 0.000000 0.000000
vt 1.000000 0.000000
vt 1.000000 1.000000
vt 0.000000 1.000000
vt 0.000000 0.000000
vt 1.000000 0.000000
vt 1.000000 1.000000
vt 0.000000 1.000000
vt 0.000000 0.000000
vt 1.000000 0.000000
vt 1.000000 1.000000
vt 0.000000 1.000000
vt 0.000000 0.000000
vt 1.000000 0.000000
vt 1.000000 1.000000
vt 0.000000 1.000000
vt 0.000000 0.000000
vt 1.000000 0.000000
vt 1.000000 1.000000
vt 0.000000 1.000000
vt 0.000000 0.000000
vt 1.000000 0.000000
vt 1.000000 1.000000
vt 0.000000 1.000000
vt 0.000000 0.000000
vt 1.000000 0.000000
vt 1.000000 1.000000
vt 0.000000 1.000000
vt 0.000000 0.000000
vt 1.000000 0.000000
vt 1.000000 1.000000
vt 0.000000 1.000000
vt 0.000000 0.000000
vt 1.000000 0.000000
vt 1.000000 1.000000
vt 0.000000 1.000000
vt 0.000000 0.000000
vt 1.000000 0.000000
vt 1.000000 1.000000
vt 0.000000 1.000000
vt 0.000000 0.000000
vt 1.000000 0.000000
vt 1.000000 1.000000
vt 0.000000 1.000000
vt 0.000000 0.000000
vt 1.000000 0.000000
vt 1.000000 1.000000
vt 0.000000 1.000000
vt 0.000000 0.000000
vt 1.000000 0.000000
vt 1.000000 1.000000
vt 0.000000 1.000000
vt 0.000000 0.000000
vt 1.000000 0.000000
vt 1.000000 1.000000
vt 0.000000 1.000000
vt 0.000000 0.000000
vt 1.000000 0.000000
vt 1.000000 1.000000
vt 0.000000 1.000000
vt 0.000000 0.000000
vt 1.000000 0.000000
vt 1.000000 1.000000
vt 0.000000 1.000000
vt 0.000000 0.000000
vt 1.000000 0.000000
vt 1.000000 1.000000
vt 0.000000 1.000000
vt 0.000000 0.000000
vt 1.000000 0.000000
vt 1.000000 1.000000
vt 0.000000 1.000000
vt 0.000000 0.000000
vt 1.000000 0.000000
vt 1.000000 1.000000
vt 0.000000 1.000000
vt 0.000000 0.000000
vt 1.000000 0.000000
vt 1.000000 1.000000
vt 0.000000 1.000000
vt 0.000000 0.000000
vt 1.000000 0.000000
vt 1.000000 1.000000
vt 0.000000 1.000000
vt 0.000000 0.000000
vt 1.000000 0.000000
vt 1.000000 1.000000
vt 0.000000 1.000000
vt 0.000000 0.000000
vt 1.000000 0.000000
vt 1.000000 1.000000
vt 0.000000 1.000000
vt 0.000000 0.000000
vt 1.000000 0.000000
vt 1.000000 1.000000
vt 0.000000 1.000000
vt 0.000000 0.000000
vt 1.000000 0.000000
vt 1.000000 1.000000
vt 0.000000 1.000000
vt 0.000000 0.000000
vt 1.000000 0.000000
vt 1.000000 1.000000
vt 0.000000 1.000000
vt 0.000000 0.000000
vt 1.000000 0.000000
vt 1.000000 1.000000
vt 0.000000 1.000000
vt 0.000000 0.000000
vt 1.000000 0.000000
vt 1.000000 1.000000
vt 0.000000 1.000000
vt 0.000000 0.000000
vt 1.000000 0.000000
vt 1.000000 1.000000
vt 0.000000 1.000000
vt 0.000000 0.000000
vt 1.000000 0.000000
vt 1.000000 1.000000
vt 0.000000 1.000000
vt 0.000000 0.000000
vt 1.000000 0.000000
vt 1.000000 1.000000
vt 0.000000 1.000000
vt 0.000000 0.000000
vt 1.000000 0.000000
vt 1.000000 1.000000
vt 0.000000 1.000000
vt 0.000000 0.000000
vt 1.000000 0.000000
vt 1.000000 1.000000
vt 0.000000 1.000000
vt 0.000000 0.000000
vt 1.000000 0.000000
vt 1.000000 1.000000
vt 0.000000 1.000000
vt 0.000000 0.000000
vt 1.000000 0.000000
vt 1.000000 1.000000
vt 0.000000 1.000000
vt 0.000000 0.000000
vt 1.000000 0.000000
vt 1.000000 1.000000
vt 0.000000 1.000000
vt 0.000000 0.000000
vt 1.000000 0.000000
vt 1.000000 1.000000
vt 0.000000 1.000000
vt 0.000000 0.000000
vt 1.000000 0.000000
vt 1.000000 1.000000
vt 0.000000 1.000000
vt 0.000000 0.000000
vt 1.000000 0.000000
vt 1.000000 1.000000
vt 0.000000 1.000000
vt 0.500000 1.000000
vt 0.000000 0.000000
vt 1.000000 0.000000
vt 0.500000 1.000000
vt 0.000000 0.000000
vt 1.000000 0.000000
vt 0.000000 0.000000
vt 1.000000 0.000000
vt 1.000000 1.000000
vt 0.000000 1.000000
vt 0.500000 1.000000
vt 0.000000 0.000000
vt 1.000000 0.000000
vt 0.500000 1.000000
vt 0.000000 0.000000
vt 1.000000 0.000000
vt 0.000000 0.000000
vt 1.000000 0.000000
vt 1.000000 1.000000
vt 0.000000 1.000000
vt 0.500000 1.000000
vt 0.000000 0.000000
vt 1.000000 0.000000
vt 0.500000 1.000000
vt 0.000000 0.000000
vt 1.000000 0.000000
vt 0.000000 0.000000
vt 1.000000 0.000000
vt 1.000000 1.000000
vt 0.000000 1.000000
vt 0.500000 1.000000
vt 0.000000 0.000000
vt 1.000000 0.000000
vt 0.500000 1.000000
vt 0.000000 0.000000
vt 1.000000 0.000000
vt 0.000000 0.000000
vt 1.000000 0.000000
vt 1.000000 1.000000
vt 0.000000 1.000000
vt 0.500000 1.000000
vt 0.000000 0.000000
vt 1.000000 0.000000
vt 0.500000 1.000000
vt 0.000000 0.000000
vt 1.000000 0.000000
vt 0.000000 0.000000
vt 1.000000 0.000000
vt 1.000000 1.000000
vt 0.000000 1.000000
vt 0.500000 1.000000
vt 0.000000 0.000000
vt 1.000000 0.000000
vt 0.500000 1.000000
vt 0.000000 0.000000
vt 1.000000 0.000000
vt 0.000000 0.000000
vt 1.000000 0.000000
vt 1.000000 1.000000
vt 0.000000 1.000000
vt 0.000000 0.000000
vt 1.000000 0.000000
vt 1.000000 1.000000
vt 0.000000 1.000000
vt 0.000000 0.000000
vt 1.000000 0.000000
vt 1.000000 1.000000
vt 0.000000 1.000000
vt 0.000000 0.000000
vt 1.000000 0.000000
vt 1.000000 1.000000
vt 0.000000 1.000000
vt 0.000000 0.000000
vt 1.000000 0.000000
vt 1.000000 1.000000
vt 0.000000 1.000000
vt 0.000000 0.000000
vt 1.000000 0.000000
vt 1.000000 1.000000
vt 0.000000 1.000000
vt 0.000000 0.000000
vt 1.000000 0.000000
vt 1.000000 1.000000
vt 0.000000 1.000000
vt 0.500000 1.000000
vt 0.000000 0.000000
vt 1.000000 0.000000
vt 0.500000 1.000000
vt 0.000000 0.000000
vt 1.000000 0.000000
vt 0.000000 0.000000
vt 1.000000 0.000000
vt 1.000000 1.000000
vt 0.000000 1.000000
vt 0.500000 1.000000
vt 0.000000 0.000000
vt 1.000000 0.000000
vt 0.500000 1.000000
vt 0.000000 0.000000
vt 1.000000 0.000000
vt 0.000000 0.000000
vt 1.000000 0.000000
vt 1.000000 1.000000
vt 0.000000 1.000000
vt 0.500000 1.000000
vt 0.000000 0.000000
vt 1.000000 0.000000
vt 0.500000 1.000000
vt 0.000000 0.000000
vt 1.000000 0.000000
vt 0.000000 0.000000
vt 1.000000 0.000000
vt 1.000000 1.000000
vt 0.000000 1.000000
vt 0.500000 1.000000
vt 0.000000 0.000000
vt 1.000000 0.000000
vt 0.500000 1.000000
vt 0.000000 0.000000
vt 1.000000 0.000000
vt 0.000000 0.000000
vt 1.000000 0.000000
vt 1.000000 1.000000
vt 0.000000 1.000000
vt 0.500000 1.000000
vt 0.000000 0.000000
vt 1.000000 0.000000
vt 0.500000 1.000000
vt 0.000000 0.000000
vt 1.000000 0.000000
vt 0.000000 0.000000
vt 1.000000 0.000000
vt 1.000000 1.000000
vt 0.000000 1.000000
vt 0.500000 1.000000
vt 0.000000 0.000000
vt 1.000000 0.000000
vt 0.500000 1.000000
vt 0.000000 0.000000
vt 1.000000 0.000000
vt 0.000000 0.000000
vt 1.000000 0.000000
vt 1.000000 1.000000
vt 0.000000 1.000000
vt 0.000000 0.000000
vt 1.000000 0.000000
vt 1.000000 1.000000
vt 0.000000 1.000000
vt 0.000000 0.000000
vt 1.000000 0.000000
vt 1.000000 1.000000
vt 0.000000 1.000000
vt 0.000000 0.000000
vt 1.000000 0.000000
vt 1.000000 1.000000
vt 0.000000 1.000000
vt 0.000000 0.000000
vt 1.000000 0.000000
vt 1.000000 1.000000
vt 0.000000 1.000000
vt 0.000000 0.000000
vt 1.000000 0.000000
vt 1.000000 1.000000
vt 0.000000 1.000000
vt 0.000000 0.000000
vt 1.000000 0.000000
vt 1.000000 1.000000
vt 0.000000 1.000000
vt 0.000000 0.000000
vt 1.000000 0.000000
vt 1.000000 1.000000
vt 0.000000 1.000000
vt 0.000000 0.000000
vt 1.000000 0.000000
vt 1.000000 1.000000
vt 0.000000 1.000000
vt 0.000000 0.000000
vt 1.000000 0.000000
vt 1.000000 1.000000
vt 0.000000 1.000000
vt 0.000000 0.000000
vt 1.000000 0.000000
vt 1.000000 1.000000
vt 0.000000 1.000000
vt 0.000000 0.000000
vt 1.000000 0.000000
vt 1.000000 1.000000
vt 0.000000 1.000000
vt 0.000000 0.000000
vt 1.000000 0.000000
vt 1.000000 1.000000
vt 0.000000 1.000000
vt 0.000000 0.000000
vt 1.000000 0.000000
vt 1.000000 1.000000
vt 0.000000 1.000000
vt 0.000000 0.000000
vt 1.000000 0.000000
vt 1.000000 1.000000
vt 0.000000 1.000000
vt 0.000000 0.000000
vt 1.000000 0.000000
vt 1.000000 1.000000
vt 0.000000 1.000000
vt 0.000000 0.000000
vt 1.000000 0.000000
vt 1.000000 1.000000
vt 0.000000 1.000000
vt 0.000000 0.000000
vt 1.000000 0.000000
vt 1.000000 1.000000
vt 0.000000 1.000000
vt 0.000000 0.000000
vt 1.000000 0.000000
vt 1.000000 1.000000
vt 0.000000 1.000000
vt 0.000000 0.000000
vt 1.000000 0.000000
vt 1.000000 1.000000
vt 0.000000 1.000000
vt 0.000000 0.000000
vt 1.000000 0.000000
vt 1.000000 1.000000
vt 0.000000 1.000000
vt 0.000000 0.000000
vt 1.000000 0.000000
vt 1.000000 1.000000
vt 0.000000 1.000000
vt 0.000000 0.000000
vt 1.000000 0.000000
vt 1.000000 1.000000
vt 0.000000 1.000000
vt 0.000000 0.000000
vt 1.000000 0.000000
vt 1.000000 1.000000
vt 0.000000 1.000000
vt 0.000000 0.000000
vt 1.000000 0.000000
vt 1.000000 1.000000
vt 0.000000 1.000000
vt 0.000000 0.000000
vt 1.000000 0.000000
vt 1.000000 1.000000
vt 0.000000 1.000000
vt 0.000000 0.000000
vt 1.000000 0.000000
vt 1.000000 1.000000
vt 0.000000 1.000000
vt 0.000000 0.000000
vt 1.000000 0.000000
vt 1.000000 1.000000
vt 0.000000 1.000000
vt 0.000000 0.000000
vt 1.000000 0.000000
vt 1.000000 1.000000
vt 0.000000 1.000000
vt 0.000000 0.000000
vt 1.000000 0.000000
vt 1.000000 1.000000
vt 0.000000 1.000000
vt 0.000000 0.000000
vt 1.000000 0.000000
vt 1.000000 1.000000
vt 0.000000 1.000000
vt 0.500000 1.000000
vt 0.000000 0.000000
vt 1.000000 0.000000
vt 0.500000 1.000000
vt 0.000000 0.000000
vt 1.000000 0.000000
vt 0.000000 0.000000
vt 1.000000 0.000000
vt 1.000000 1.000000
vt 0.000000 1.000000
vt 0.500000 1.000000
vt 0.000000 0.000000
vt 1.000000 0.000000
vt 0.500000 1.000000
vt 0.000000 0.000000
vt 1.000000 0.000000
vt 0.000000 0.000000
vt 1.000000 0.000000
vt 1.000000 1.000000
vt 0.000000 1.000000
vt 0.500000 1.000000
vt 0.000000 0.000000
vt 1.000000 0.000000
vt 0.500000 1.000000
vt 0.000000 0.000000
vt 1.000000 0.000000
vt 0.000000 0.000000
vt 1.000000 0.000000
vt 1.000000 1.000000
vt 0.000000 1.000000
vt 0.500000 1.000000
vt 0.000000 0.000000
vt 1.000000 0.000000
vt 0.500000 1.000000
vt 0.000000 0.000000
vt 1.000000 0.000000
vt 0.000000 0.000000
vt 1.000000 0.000000
vt 1.000000 1.000000
vt 0.000000 1.000000
vt 0.500000 1.000000
vt 0.000000 0.000000
vt 1.000000 0.000000
vt 0.500000 1.000000
vt 0.000000 0.000000
vt 1.000000 0.000000
vt 0.000000 0.000000
vt 1.000000 0.000000
vt 1.000000 1.000000
vt 0.000000 1.000000
vt 0.500000 1.000000
vt 0.000000 0.000000
vt 1.000000 0.000000
vt 0.500000 1.000000
vt 0.000000 0.000000
vt 1.000000 0.000000
vt 0.000000 0.000000
vt 1.000000 0.000000
vt 1.000000 1.000000
vt 0.000000 1.000000
vt 0.000000 0.000000
vt 1.000000 0.000000
vt 1.000000 1.000000
vt 0.000000 1.000000
vt 0.000000 0.000000
vt 1.000000 0.000000
vt 1.000000 1.000000
vt 0.000000 1.000000
vt 0.000000 0.000000
vt 1.000000 0.000000
vt 1.000000 1.000000
vt 0.000000 1.000000
vt 0.000000 0.000000
vt 1.000000 0.000000
vt 1.000000 1.000000
vt 0.000000 1.000000
vt 0.000000 0.000000
vt 1.000000 0.000000
vt 1.000000 1.000000
vt 0.000000 1.000000
vt 0.000000 0.000000
vt 1.000000 0.000000
vt 1.000000 1.000000
vt 0.000000 1.000000
vt 0.500000 1.000000
vt 0.000000 0.000000
vt 1.000000 0.000000
vt 0.500000 1.000000
vt 0.000000 0.000000
vt 1.000000 0.000000
vt 0.000000 0.000000
vt 1.000000 0.000000
vt 1.000000 1.000000
vt 0.000000 1.000000
vt 0.500000 1.000000
vt 0.000000 0.000000
vt 1.000000 0.000000
vt 0.500000 1.000000
vt 0.000000 0.000000
vt 1.000000 0.000000
vt 0.000000 0.000000
vt 1.000000 0.000000
vt 1.000000 1.000000
vt 0.000000 1.000000
vt 0.500000 1.000000
vt 0.000000 0.000000
vt 1.000000 0.000000
vt 0.500000 1.000000
vt 0.000000 0.000000
vt 1.000000 0.000000
vt 0.000000 0.000000
vt 1.000000 0.000000
vt 1.000000 1.000000
vt 0.000000 1.000000
vt 0.500000 1.000000
vt 0.000000 0.000000
vt 1.000000 0.000000
vt 0.500000 1.000000
vt 0.000000 0.000000
vt 1.000000 0.000000
vt 0.000000 0.000000
vt 1.000000 0.000000
vt 1.000000 1.000000
vt 0.000000 1.000000
vt 0.500000 1.000000
vt 0.000000 0.000000
vt 1.000000 0.000000
vt 0.500000 1.000000
vt 0.000000 0.000000
vt 1.000000 0.000000
vt 0.000000 0.000000
vt 1.000000 0.000000
vt 1.000000 1.000000
vt 0.000000 1.000000
vt 0.500000 1.000000
vt 0.000000 0.000000
vt 1.000000 0.000000
vt 0.500000 1.000000
vt 0.000000 0.000000
vt 1.000000 0.000000
vt 0.000000 0.000000
vt 1.000000 0.000000
vt 1.000000 1.000000
vt 0.000000 1.000000
vt 0.000000 0.000000
vt 1.000000 0.000000
vt 1.000000 1.000000
vt 0.000000 1.000000
vt 0.000000 0.000000
vt 1.000000 0.000000
vt 1.000000 1.000000
vt 0.000000 1.000000
vt 0.000000 0.000000
vt 1.000000 0.000000
vt 1.000000 1.000000
vt 0.000000 1.000000
vt 0.000000 0.000000
vt 1.000000 0.000000
vt 1.000000 1.000000
vt 0.000000 1.000000
vt 0.000000 0.000000
vt 1.000000 0.000000
vt 1.000000 1.000000
vt 0.000000 1.000000
vt 0.000000 0.000000
vt 1.000000 0.000000
vt 1.000000 1.000000
vt 0.000000 1.000000
vt 0.500000 1.000000
vt 0.000000 0.000000
vt 1.000000 0.000000
vt 0.500000 1.000000
vt 0.000000 0.000000
vt 1.000000 0.000000
vt 0.000000 0.000000
vt 1.000000 0.000000
vt 1.000000 1.000000
vt 0.000000 1.000000
vt 0.500000 1.000000
vt 0.000000 0.000000
vt 1.000000 0.000000
vt 0.500000 1.000000
vt 0.000000 0.000000
vt 1.000000 0.000000
vt 0.000000 0.000000
vt 1.000000 0.000000
vt 1.000000 1.000000
vt 0.000000 1.000000
vt 0.500000 1.000000
vt 0.000000 0.000000
vt 1.000000 0.000000
vt 0.500000 1.000000
vt 0.000000 0.000000
vt 1.000000 0.000000
vt 0.000000 0.000000
vt 1.000000 0.000000
vt 1.000000 1.000000
vt 0.000000 1.000000
vt 0.500000 1.000000
vt 0.000000 0.000000
vt 1.000000 0.000000
vt 0.500000 1.000000
vt 0.000000 0.000000
vt 1.000000 0.000000
vt 0.000000 0.000000
vt 1.000000 0.000000
vt 1.000000 1.000000
vt 0.000000 1.000000
vt 0.500000 1.000000
vt 0.000000 0.000000
vt 1.000000 0.000000
vt 0.500000 1.000000
vt 0.000000 0.000000
vt 1.000000 0.000000
vt 0.000000 0.000000
vt 1.000000 0.000000
vt 1.000000 1.000000
vt 0.000000 1.000000
vt 0.500000 1.000000
vt 0.000000 0.000000
vt 1.000000 0.000000
vt 0.500000 1.000000
vt 0.000000 0.000000
vt 1.000000 0.000000
vt 0.000000 0.000000
vt 1.000000 0.000000
vt 1.000000 1.000000
vt 0.000000 1.000000
vt 0.000000 0.000000
vt 1.000000 0.000000
vt 1.000000 1.000000
vt 0.000000 1.000000
vt 0.000000 0.000000
vt 1.000000 0.000000
vt 1.000000 1.000000
vt 0.000000 1.000000
vt 0.000000 0.000000
vt 1.000000 0.000000
vt 1.000000 1.000000
vt 0.000000 1.000000
vt 0.000000 0.000000
vt 1.000000 0.000000
vt 1.000000 1.000000
vt 0.000000 1.000000
vt 0.000000 0.000000
vt 1.000000 0.000000
vt 1.000000 1.000000
vt 0.000000 1.000000
vt 0.000000 0.000000
vt 1.000000 0.000000
vt 1.000000 1.000000
vt 0.000000 1.000000
vt 0.500000 1.000000
vt 0.000000 0.000000
vt 1.000000 0.000000
vt 0.500000 1.000000
vt 0.000000 0.000000
vt 1.000000 0.000000
vt 0.000000 0.000000
vt 1.000000 0.000000
vt 1.000000 1.000000
vt 0.000000 1.000000
vt 0.500000 1.000000
vt 0.000000 0.000000
vt 1.000000 0.000000
vt 0.500000 1.000000
vt 0.000000 0.000000
vt 1.000000 0.000000
vt 0.000000 0.000000
vt 1.000000 0.000000
vt 1.000000 1.000000
vt 0.000000 1.000000
vt 0.500000 1.000000
vt 0.000000 0.000000
vt 1.000000 0.000000
vt 0.500000 1.000000
vt 0.000000 0.000000
vt 1.000000 0.000000
vt 0.000000 0.000000
vt 1.000000 0.000000
vt 1.000000 1.000000
vt 0.000000 1.000000
vt 0.500000 1.000000
vt 0.000000 0.000000
vt 1.000000 0.000000
vt 0.500000 1.000000
vt 0.000000 0.000000
vt 1.000000 0.000000
vt 0.000000 0.000000
vt 1.000000 0.000000
vt 1.000000 1.000000
vt 0.000000 1.000000
vt 0.500000 1.000000
vt 0.000000 0.000000
vt 1.000000 0.000000
vt 0.500000 1.000000
vt 0.000000 0.000000
vt 1.000000 0.000000
vt 0.000000 0.000000
vt 1.000000 0.000000
vt 1.000000 1.000000
vt 0.000000 1.000000
vt 0.500000 1.000000
vt 0.000000 0.000000
vt 1.000000 0.000000
vt 0.500000 1.000000
vt 0.000000 0.000000
vt 1.000000 0.000000
vt 0.000000 0.000000
vt 1.000000 0.000000
vt 1.000000 1.000000
vt 0.000000 1.000000
vt 0.000000 0.000000
vt 1.000000 0.000000
vt 1.000000 1.000000
vt 0.000000 1.000000
vt 0.000000 0.000000
vt 1.000000 0.000000
vt 1.000000 1.000000
vt 0.000000 1.000000
vt 0.000000 0.000000
vt 1.000000 0.000000
vt 1.000000 1.000000
vt 0.000000 1.000000
vt 0.000000 0.000000
vt 1.000000 0.000000
vt 1.000000 1.000000
vt 0.000000 1.000000
vt 0.000000 0.000000
vt 1.000000 0.000000
vt 1.000000 1.000000
vt 0.000000 1.000000
vt 0.000000 0.000000
vt 1.000000 0.000000
vt 1.000000 1.000000
vt 0.000000 1.000000
vt 0.500000 1.000000
vt 0.000000 0.000000
vt 1.000000 0.000000
vt 0.500000 1.000000
vt 0.000000 0.000000
vt 1.000000 0.000000
vt 0.000000 0.000000
vt 1.000000 0.000000
vt 1.000000 1.000000
vt 0.000000 1.000000
vt 0.500000 1.000000
vt 0.000000 0.000000
vt 1.000000 0.000000
vt 0.500000 1.000000
vt 0.000000 0.000000
vt 1.000000 0.000000
vt 0.000000 0.000000
vt 1.000000 0.000000
vt 1.000000 1.000000
vt 0.000000 1.000000
vt 0.500000 1.000000
vt 0.000000 0.000000
vt 1.000000 0.000000
vt 0.500000 1.000000
vt 0.000000 0.000000
vt 1.000000 0.000000
vt 0.000000 0.000000
vt 1.000000 0.000000
vt 1.000000 1.000000
vt 0.000000 1.000000
vt 0.500000 1.000000
vt 0.000000 0.000000
vt 1.000000 0.000000
vt 0.500000 1.000000
vt 0.000000 0.000000
vt 1.000000 0.000000
vt 0.000000 0.000000
vt 1.000000 0.000000
vt 1.000000 1.000000
vt 0.000000 1.000000
vt 0.500000 1.000000
vt 0.000000 0.000000
vt 1.000000 0.000000
vt 0.500000 1.000000
vt 0.000000 0.000000
vt 1.000000 0.000000
vt 0.000000 0.000000
vt 1.000000 0.000000
vt 1.000000 1.000000
vt 0.000000 1.000000
vt 0.500000 1.000000
vt 0.000000 0.000000
vt 1.000000 0.000000
vt 0.500000 1.000000
vt 0.000000 0.000000
vt 1.000000 0.000000
vt 0.000000 0.000000
vt 1.000000 0.000000
vt 1.000000 1.000000
vt 0.000000 1.000000
vt 0.000000 0.000000
vt 1.000000 0.000000
vt 1.000000 1.000000
vt 0.000000 1.000000
vt 0.000000 0.000000
vt 1.000000 0.000000
vt 1.000000 1.000000
vt 0.000000 1.000000
vt 0.000000 0.000000
vt 1.000000 0.000000
vt 1.000000 1.000000
vt 0.000000 1.000000
vt 0.000000 0.000000
vt 1.000000 0.000000
vt 1.000000 1.000000
vt 0.000000 1.000000
vt 0.000000 0.000000
vt 1.000000 0.000000
vt 1.000000 1.000000
vt 0.000000 1.000000
vt 0.000000 0.000000
vt 1.000000 0.000000
vt 1.000000 1.000000
vt 0.000000 1.000000
vt 0.000000 0.000000
vt 1.000000 0.000000
vt 1.000000 1.000000
vt 0.000000 1.000000
vt 0.000000 0.000000
vt 1.000000 0.000000
vt 1.000000 1.000000
vt 0.000000 1.000000
vt 0.000000 0.000000
vt 1.000000 0.000000
vt 1.000000 1.000000
vt 0.000000 1.000000
vt 0.000000 0.000000
vt 1.000000 0.000000
vt 1.000000 1.000000
vt 0.000000 1.000000
vt 0.000000 0.000000
vt 1.000000 0.000000
vt 1.000000 1.000000
vt 0.000000 1.000000
vt 0.000000 0.000000
vt 1.000000 0.000000
vt 1.000000 1.000000
vt 0.000000 1.000000
vt 0.000000 0.000000
vt 1.000000 0.000000
vt 1.000000 1.000000
vt 0.000000 1.000000
vt 0.000000 0.000000
vt 1.000000 0.000000
vt 1.000000 1.000000
vt 0.000000 1.000000
vt 0.000000 0.000000
vt 1.000000 0.000000
vt 1.000000 1.000000
vt 0.000000 1.000000
vt 0.000000 0.000000
vt 1.000000 0.000000
vt 1.000000 1.000000
vt 0.000000 1.000000
vt 0.000000 0.000000
vt 1.000000 0.000000
vt 1.000000 1.000000
vt 0.000000 1.000000
vt 0.000000 0.000000
vt 1.000000 0.000000
vt 1.000000 1.000000
vt 0.000000 1.000000
vt 0.000000 0.000000
vt 1.000000 0.000000
vt 1.000000 1.000000
vt 0.000000 1.000000
vt 0.000000 0.000000
vt 1.000000 0.000000
vt 1.000000 1.000000
vt 0.000000 1.000000
vt 0.000000 0.000000
vt 1.000000 0.000000
vt 1.000000 1.000000
vt 0.000000 1.000000
vt 0.000000 0.000000
vt 1.000000 0.000000
vt 1.000000 1.000000
vt 0.000000 1.000000
vt 0.000000 0.000000
vt 1.000000 0.000000
vt 1.000000 1.000000
vt 0.000000 1.000000
vt 0.000000 0.000000
vt 1.000000 0.000000
vt 1.000000 1.000000
vt 0.000000 1.000000
vt 0.500000 1.000000
vt 0.000000 0.000000
vt 1.000000 0.000000
vt 0.500000 1.000000
vt 0.000000 0.000000
vt 1.000000 0.000000
vt 0.000000 0.000000
vt 1.000000 0.000000
vt 1.000000 1.000000
vt 0.000000 1.000000
vt 0.500000 1.000000
vt 0.000000 0.000000
vt 1.000000 0.000000
vt 0.500000 1.000000
vt 0.000000 0.000000
vt 1.000000 0.000000
vt 0.000000 0.000000
vt 1.000000 0.000000
vt 1.000000 1.000000
vt 0.000000 1.000000
vt 0.500000 1.000000
vt 0.000000 0.000000
vt 1.000000 0.000000
vt 0.500000 1.000000
vt 0.000000 0.000000
vt 1.000000 0.000000
vt 0.000000 0.000000
vt 1.000000 0.000000
vt 1.000000 1.000000
vt 0.000000 1.000000
vt 0.500000 1.000000
vt 0.000000 0.000000
vt 1.000000 0.000000
vt 0.500000 1.000000
vt 0.000000 0.000000
vt 1.000000 0.000000
vt 0.000000 0.000000
vt 1.000000 0.000000
vt 1.000000 1.000000
vt 0.000000 1.000000
vt 0.500000 1.000000
vt 0.000000 0.000000
vt 1.000000 0.000000
vt 0.500000 1.000000
vt 0.000000 0.000000
vt 1.000000 0.000000
vt 0.000000 0.000000
vt 1.000000 0.000000
vt 1.000000 1.000000
vt 0.000000 1.000000
vt 0.500000 1.000000
vt 0.000000 0.000000
vt 1.000000 0.000000
vt 0.500000 1.000000
vt 0.000000 0.000000
vt 1.000000 0.000000
vt 0.000000 0.000000
vt 1.000000 0.000000
vt 1.000000 1.000000
vt 0.000000 1.000000
vt 0.500000 1.000000
vt 0.000000 0.000000
vt 1.000000 0.000000
vt 0.500000 1.000000
vt 0.000000 0.000000
vt 1.000000 0.000000
vt 0.000000 0.000000
vt 1.000000 0.000000
vt 1.000000 1.000000
vt 0.000000 1.000000
vt 0.500000 1.000000
vt 0.000000 0.000000
vt 1.000000 0.000000
vt 0.500000 1.000000
vt 0.000000 0.000000
vt 1.000000 0.000000
vt 0.000000 0.000000
vt 1.000000 0.000000
vt 1.000000 1.000000
vt 0.000000 1.000000
vt 0.500000 1.000000
vt 0.000000 0.000000
vt 1.000000 0.000000
vt 0.500000 1.000000
vt 0.000000 0.000000
vt 1.000000 0.000000
vt 0.000000 0.000000
vt 1.000000 0.000000
vt 1.000000 1.000000
vt 0.000000 1.000000
vt 0.500000 1.000000
vt 0.000000 0.000000
vt 1.000000 0.000000
vt 0.500000 1.000000
vt 0.000000 0.000000
vt 1.000000 0.000000
vt 0.000000 0.000000
vt 1.000000 0.000000
vt 1.000000 1.000000
vt 0.000000 1.000000
vt 0.500000 1.000000
vt 0.000000 0.000000
vt 1.000000 0.000000
vt 0.500000 1.000000
vt 0.000000 0.000000
vt 1.000000 0.000000
vt 0.000000 0.000000
vt 1.000000 0.000000
vt 1.000000 1.000000
vt 0.000000 1.000000
vt 0.500000 1.000000
vt 0.000000 0.000000
vt 1.000000 0.000000
vt 0.500000 1.000000
vt 0.000000 0.000000
vt 1.000000 0.000000
vt 0.000000 0.000000
vt 1.000000 0.000000
vt 1.000000 1.000000
vt 0.000000 1.000000
vt 0.000000 0.000000
vt 1.000000 0.000000
vt 1.000000 1.000000
vt 0.000000 1.000000
vt 0.000000 0.000000
vt 1.000000 0.000000
vt 1.000000 1.000000
vt 0.000000 1.000000
vt 0.000000 0.000000
vt 1.000000 0.000000
vt 1.000000 1.000000
vt 0.000000 1.000000
vt 0.000000 0.000000
vt 1.000000 0.000000
vt 1.000000 1.000000
vt 0.000000 1.000000
vt 0.000000 0.000000
vt 1.000000 0.000000
vt 1.000000 1.000000
vt 0.000000 1.000000
vt 0.000000 0.000000
vt 1.000000 0.000000
vt 1.000000 1.000000
vt 0.000000 1.000000
vt 0.000000 0.000000
vt 1.000000 0.000000
vt 1.000000 1.000000
vt 0.000000 1.000000
vt 0.000000 0.000000
vt 1.000000 0.000000
vt 1.000000 1.000000
vt 0.000000 1.000000
vt 0.000000 0.000000
vt 1.000000 0.000000
vt 1.000000 1.000000
vt 0.000000 1.000000
vt 0.000000 0.000000
vt 1.000000 0.000000
vt 1.000000 1.000000
vt 0.000000 1.000000
vt 0.000000 0.000000
vt 1.000000 0.000000
vt 1.000000 1.000000
vt 0.000000 1.000000
vt 0.000000 0.000000
vt 1.000000 0.000000
vt 1.000000 1.000000
vt 0.000000 1.000000
vt 0.500000 1.000000
vt 0.000000 0.000000
vt 1.000000 0.000000
vt 0.500000 1.000000
vt 0.000000 0.000000
vt 1.000000 0.000000
vt 0.000000 0.000000
vt 1.000000 0.000000
vt 1.000000 1.000000
vt 0.000000 1.000000
vt 0.500000 1.000000
vt 0.000000 0.000000
vt 1.000000 0.000000
vt 0.500000 1.000000
vt 0.000000 0.000000
vt 1.000000 0.000000
vt 0.000000 0.000000
vt 1.000000 0.000000
vt 1.000000 1.000000
vt 0.000000 1.000000
vt 0.500000 1.000000
vt 0.000000 0.000000
vt 1.000000 0.000000
vt 0.500000 1.000000
vt 0.000000 0.000000
vt 1.000000 0.000000
vt 0.000000 0.000000
vt 1.000000 0.000000
vt 1.000000 1.000000
vt 0.000000 1.000000
vt 0.500000 1.000000
vt 0.000000 0.000000
vt 1.000000 0.000000
vt 0.500000 1.000000
vt 0.000000 0.000000
vt 1.000000 0.000000
vt 0.000000 0.000000
vt 1.000000 0.000000
vt 1.000000 1.000000
vt 0.000000 1.000000
vt 0.500000 1.000000
vt 0.000000 0.000000
vt 1.000000 0.000000
vt 0.500000 1.000000
vt 0.000000 0.000000
vt 1.000000 0.000000
vt 0.000000 0.000000
vt 1.000000 0.000000
vt 1.000000 1.000000
vt 0.000000 1.000000
vt 0.500000 1.000000
vt 0.000000 0.000000
vt 1.000000 0.000000
vt 0.500000 1.000000
vt 0.000000 0.000000
vt 1.000000 0.000000
vt 0.000000 0.000000
vt 1.000000 0.000000
vt 1.000000 1.000000
vt 0.000000 1.000000
vt 0.500000 1.000000
vt 0.000000 0.000000
vt 1.000000 0.000000
vt 0.500000 1.000000
vt 0.000000 0.000000
vt 1.000000 0.000000
vt 0.000000 0.000000
vt 1.000000 0.000000
vt 1.000000 1.000000
vt 0.000000 1.000000
vt 0.500000 1.000000
vt 0.000000 0.000000
vt 1.000000 0.000000
vt 0.500000 1.000000
vt 0.000000 0.000000
vt 1.000000 0.000000
vt 0.000000 0.000000
vt 1.000000 0.000000
vt 1.000000 1.000000
vt 0.000000 1.000000
vt 0.500000 1.000000
vt 0.000000 0.000000
vt 1.000000 0.000000
vt 0.500000 1.000000
vt 0.000000 0.000000
vt 1.000000 0.000000
vt 0.000000 0.000000
vt 1.000000 0.000000
vt 1.000000 1.000000
vt 0.000000 1.000000
vt 0.500000 1.000000
vt 0.000000 0.000000
vt 1.000000 0.000000
vt 0.500000 1.000000
vt 0.000000 0.000000
vt 1.000000 0.000000
vt 0.000000 0.000000
vt 1.000000 0.000000
vt 1.000000 1.000000
vt 0.000000 1.000000
vt 0.500000 1.000000
vt 0.000000 0.000000
vt 1.000000 0.000000
vt 0.500000 1.000000
vt 0.000000 0.000000
vt 1.000000 0.000000
vt 0.000000 0.000000
vt 1.000000 0.000000
vt 1.000000 1.000000
vt 0.000000 1.000000
vt 0.500000 1.000000
vt 0.000000 0.000000
vt 1.000000 0.000000
vt 0.500000 1.000000
vt 0.000000 0.000000
vt 1.000000 0.000000
vt 0.500000 1.000000
vt 0.000000 0.000000
vt 1.000000 0.000000
vt 0.500000 1.000000
vt 0.000000 0.000000
vt 1.000000 0.000000
vt 0.500000 1.000000
vt 0.000000 0.000000
vt 1.000000 0.000000
vt 0.500000 1.000000
vt 0.000000 0.000000
vt 1.000000 0.000000
vt 0.500000 1.000000
vt 0.000000 0.000000
vt 1.000000 0.000000
vt 0.500000 1.000000
vt 0.000000 0.000000
vt 1.000000 0.000000
vt 0.500000 1.000000
vt 0.000000 0.000000
vt 1.000000 0.000000
vt 0.500000 1.000000
vt 0.000000 0.000000
vt 1.000000 0.000000
vt 0.000000 0.000000
vt 1.000000 0.000000
vt 1.000000 1.000000
vt 0.000000 1.000000
vt 0.500000 1.000000
vt 0.000000 0.000000
vt 1.000000 0.000000
vt 0.500000 1.000000
vt 0.000000 0.000000
vt 1.000000 0.000000
vt 0.000000 0.000000
vt 1.000000 0.000000
vt 1.000000 1.000000
vt 0.000000 1.000000
vt 0.500000 1.000000
vt 0.000000 0.000000
vt 1.000000 0.000000
vt 0.500000 1.000000
vt 0.000000 0.000000
vt 1.000000 0.000000
vt 0.000000 0.000000
vt 1.000000 0.000000
vt 1.000000 1.000000
vt 0.000000 1.000000
vt 0.500000 1.000000
vt 0.000000 0.000000
vt 1.000000 0.000000
vt 0.500000 1.000000
vt 0.000000 0.000000
vt 1.000000 0.000000
vt 0.000000 0.000000
vt 1.000000 0.000000
vt 1.000000 1.000000
vt 0.000000 1.000000
vt 0.500000 1.000000
vt 0.000000 0.000000
vt 1.000000 0.000000
vt 0.500000 1.000000
vt 0.000000 0.000000
vt 1.000000 0.000000
vt 0.000000 0.000000
vt 1.000000 0.000000
vt 1.000000 1.000000
vt 0.000000 1.000000
vt 0.500000 1.000000
vt 0.000000 0.000000
vt 1.000000 0.000000
vt 0.500000 1.000000
vt 0.000000 0.000000
vt 1.000000 0.000000
vt 0.000000 0.000000
vt 1.000000 0.000000
vt 1.000000 1.000000
vt 0.000000 1.000000
vt 0.500000 1.000000
vt 0.000000 0.000000
vt 1.000000 0.000000
vt 0.500000 1.000000
vt 0.000000 0.000000
vt 1.000000 0.000000
vt 0.000000 0.000000
vt 1.000000 0.000000
vt 1.000000 1.000000
vt 0.000000 1.000000
vt 0.000000 0.000000
vt 1.000000 0.000000
vt 1.000000 1.000000
vt 0.000000 1.000000
vt 0.000000 0.000000
vt 1.000000 0.000000
vt 1.000000 1.000000
vt 0.000000 1.000000
vt 0.000000 0.000000
vt 1.000000 0.000000
vt 1.000000 1.000000
vt 0.000000 1.000000
vt 0.000000 0.000000
vt 1.000000 0.000000
vt 1.000000 1.000000
vt 0.000000 1.000000
vt 0.000000 0.000000
vt 1.000000 0.000000
vt 1.000000 1.000000
vt 0.000000 1.000000
vt 0.000000 0.000000
vt 1.000000 0.000000
vt 1.000000 1.000000
vt 0.000000 1.000000
vt 0.000000 0.000000
vt 1.000000 0.000000
vt 1.000000 1.000000
vt 0.000000 1.000000
vt 0.000000 0.000000
vt 1.000000 0.000000
vt 1.000000 1.000000
vt 0.000000 1.000000
vt 0.000000 0.000000
vt 1.000000 0.000000
vt 1.000000 1.000000
vt 0.000000 1.000000
vt 0.000000 0.000000
vt 1.000000 0.000000
vt 1.000000 1.000000
vt 0.000000 1.000000
vt 0.000000 0.000000
vt 1.000000 0.000000
vt 1.000000 1.000000
vt 0.000000 1.000000
vt 0.000000 0.000000
vt 1.000000 0.000000
vt 1.000000 1.000000
vt 0.000000 1.000000
vt 0.000000 0.000000
vt 1.000000 0.000000
vt 1.000000 1.000000
vt 0.000000 1.000000
vt 0.000000 0.000000
vt 1.000000 0.000000
vt 1.000000 1.000000
vt 0.000000 1.000000
vt 0.000000 0.000000
vt 1.000000 0.000000
vt 1.000000 1.000000
vt 0.000000 1.000000
vt 0.000000 0.000000
vt 1.000000 0.000000
vt 1.000000 1.000000
vt 0.000000 1.000000
vt 0.000000 0.000000
vt 1.000000 0.000000
vt 1.000000 1.000000
vt 0.000000 1.000000
s 1
usemtl models/caelum/props/stations/ca_station_wood.png
f 1/1 2/2 3/3 4/4
f 5/5 6/6 7/7 8/8
f 9/9 10/10 11/11 12/12
f 13/13 14/14 15/15 16/16
f 17/17 18/18 19/19 20/20
f 21/21 22/22 23/23 24/24
usemtl models/caelum/props/stations/ca_station_iron.png
f 25/25 26/26 27/27 28/28
f 29/29 30/30 31/31 32/32
f 33/33 34/34 35/35 36/36
f 37/37 38/38 39/39 40/40
f 41/41 42/42 43/43 44/44
f 45/45 46/46 47/47 48/48
usemtl models/caelum/props/stations/ca_station_wood.png
f 49/49 50/50 51/51 52/52
f 53/53 54/54 55/55 56/56
f 57/57 58/58 59/59 60/60
f 61/61 62/62 63/63 64/64
f 65/65 66/66 67/67 68/68
f 69/69 70/70 71/71 72/72
usemtl models/caelum/props/stations/ca_station_iron.png
f 73/73 74/74 75/75 76/76
f 77/77 78/78 79/79 80/80
f 81/81 82/82 83/83 84/84
f 85/85 86/86 87/87 88/88
f 89/89 90/90 91/91 92/92
f 93/93 94/94 95/95 96/96
usemtl models/caelum/props/stations/ca_station_wood.png
f 97/97 98/98 99/99 100/100
f 101/101 102/102 103/103 104/104
f 105/105 106/106 107/107 108/108
f 109/109 110/110 111/111 112/112
f 113/113 114/114 115/115 116/116
f 117/117 118/118 119/119 120/120
usemtl models/caelum/props/stations/ca_station_iron.png
f 121/121 122/122 123/123 124/124
f 125/125 126/126 127/127 128/128
f 129/129 130/130 131/131 132/132
f 133/133 134/134 135/135 136/136
f 137/137 138/138 139/139 140/140
f 141/141 142/142 143/143 144/144
usemtl models/caelum/props/stations/ca_station_wood.png
f 145/145 146/146 147/147 148/148
f 149/149 150/150 151/151 152/152
f 153/153 154/154 155/155 156/156
f 157/157 158/158 159/159 160/160
f 161/161 162/162 163/163 164/164
f 165/165 166/166 167/167 168/168
usemtl models/caelum/props/stations/ca_station_iron.png
f 169/169 170/170 171/171 172/172
f 173/173 174/174 175/175 176/176
f 177/177 178/178 179/179 180/180
f 181/181 182/182 183/183 184/184
f 185/185 186/186 187/187 188/188
f 189/189 190/190 191/191 192/192
usemtl models/caelum/props/stations/ca_station_wood.png
f 193/193 194/194 195/195 196/196
f 197/197 198/198 199/199 200/200
f 201/201 202/202 203/203 204/204
f 205/205 206/206 207/207 208/208
f 209/209 210/210 211/211 212/212
f 213/213 214/214 215/215 216/216
f 217/217 218/218 219/219 220/220
f 221/221 222/222 223/223 224/224
f 225/225 226/226 227/227 228/228
f 229/229 230/230 231/231 232/232
f 233/233 234/234 235/235 236/236
f 237/237 238/238 239/239 240/240
f 241/241 242/242 243/243 244/244
f 245/245 246/246 247/247 248/248
f 249/249 250/250 251/251 252/252
f 253/253 254/254 255/255 256/256
f 257/257 258/258 259/259 260/260
f 261/261 262/262 263/263 264/264
f 265/265 266/266 267/267 268/268
f 269/269 270/270 271/271 272/272
f 273/273 274/274 275/275 276/276
f 277/277 278/278 279/279 280/280
f 281/281 282/282 283/283 284/284
f 285/285 286/286 287/287 288/288
f 289/289 290/290 291/291 292/292
f 293/293 294/294 295/295 296/296
f 297/297 298/298 299/299 300/300
f 301/301 302/302 303/303 304/304
f 305/305 306/306 307/307 308/308
f 309/309 310/310 311/311 312/312
f 313/313 314/314 315/315 316/316
f 317/317 318/318 319/319 320/320
f 321/321 322/322 323/323 324/324
f 325/325 326/326 327/327 328/328
f 329/329 330/330 331/331 332/332
f 333/333 334/334 335/335 336/336
f 337/337 338/338 339/339 340/340
f 341/341 342/342 343/343 344/344
f 345/345 346/346 347/347 348/348
f 349/349 350/350 351/351 352/352
f 353/353 354/354 355/355 356/356
f 357/357 358/358 359/359 360/360
usemtl models/caelum/props/stations/ca_station_brass.png
f 361/361 362/362 363/363 364/364
f 365/365 366/366 367/367
f 368/368 369/369 370/370
f 371/371 372/372 373/373 374/374
f 375/375 376/376 377/377
f 378/378 379/379 380/380
f 381/381 382/382 383/383 384/384
f 385/385 386/386 387/387
f 388/388 389/389 390/390
f 391/391 392/392 393/393 394/394
f 395/395 396/396 397/397
f 398/398 399/399 400/400
f 401/401 402/402 403/403 404/404
f 405/405 406/406 407/407
f 408/408 409/409 410/410
f 411/411 412/412 413/413 414/414
f 415/415 416/416 417/417
f 418/418 419/419 420/420
usemtl models/caelum/props/stations/ca_station_wood.png
f 421/421 422/422 423/423 424/424
f 425/425 426/426 427/427 428/428
f 429/429 430/430 431/431 432/432
f 433/433 434/434 435/435 436/436
f 437/437 438/438 439/439 440/440
f 441/441 442/442 443/443 444/444
usemtl models/caelum/props/stations/ca_station_brass.png
f 445/445 446/446 447/447 448/448
f 449/449 450/450 451/451
f 452/452 453/453 454/454
f 455/455 456/456 457/457 458/458
f 459/459 460/460 461/461
f 462/462 463/463 464/464
f 465/465 466/466 467/467 468/468
f 469/469 470/470 471/471
f 472/472 473/473 474/474
f 475/475 476/476 477/477 478/478
f 479/479 480/480 481/481
f 482/482 483/483 484/484
f 485/485 486/486 487/487 488/488
f 489/489 490/490 491/491
f 492/492 493/493 494/494
f 495/495 496/496 497/497 498/498
f 499/499 500/500 501/501
f 502/502 503/503 504/504
usemtl models/caelum/props/stations/ca_station_wood.png
f 505/505 506/506 507/507 508/508
f 509/509 510/510 511/511 512/512
f 513/513 514/514 515/515 516/516
f 517/517 518/518 519/519 520/520
f 521/521 522/522 523/523 524/524
f 525/525 526/526 527/527 528/528
f 529/529 530/530 531/531 532/532
f 533/533 534/534 535/535 536/536
f 537/537 538/538 539/539 540/540
f 541/541 542/542 543/543 544/544
f 545/545 546/546 547/547 548/548
f 549/549 550/550 551/551 552/552
f 553/553 554/554 555/555 556/556
f 557/557 558/558 559/559 560/560
f 561/561 562/562 563/563 564/564
f 565/565 566/566 567/567 568/568
f 569/569 570/570 571/571 572/572
f 573/573 574/574 575/575 576/576
usemtl models/caelum/props/stations/ca_station_cloth.png
f 577/577 578/578 579/579 580/580
f 581/581 582/582 583/583 584/584
f 585/585 586/586 587/587 588/588
f 589/589 590/590 591/591 592/592
f 593/593 594/594 595/595 596/596
f 597/597 598/598 599/599 600/600
usemtl models/caelum/props/stations/ca_station_paper.png
f 601/601 602/602 603/603 604/604
f 605/605 606/606 607/607 608/608
f 609/609 610/610 611/611 612/612
f 613/613 614/614 615/615 616/616
f 617/617 618/618 619/619 620/620
f 621/621 622/622 623/623 624/624
usemtl models/caelum/props/stations/ca_station_wood.png
f 625/625 626/626 627/627 628/628
f 629/629 630/630 631/631
f 632/632 633/633 634/634
f 635/635 636/636 637/637 638/638
f 639/639 640/640 641/641
f 642/642 643/643 644/644
f 645/645 646/646 647/647 648/648
f 649/649 650/650 651/651
f 652/652 653/653 654/654
f 655/655 656/656 657/657 658/658
f 659/659 660/660 661/661
f 662/662 663/663 664/664
f 665/665 666/666 667/667 668/668
f 669/669 670/670 671/671
f 672/672 673/673 674/674
f 675/675 676/676 677/677 678/678
f 679/679 680/680 681/681
f 682/682 683/683 684/684
usemtl models/caelum/props/stations/ca_station_iron.png
f 685/685 686/686 687/687 688/688
f 689/689 690/690 691/691 692/692
f 693/693 694/694 695/695 696/696
f 697/697 698/698 699/699 700/700
f 701/701 702/702 703/703 704/704
f 705/705 706/706 707/707 708/708
usemtl models/caelum/props/stations/ca_station_wood.png
f 709/709 710/710 711/711 712/712
f 713/713 714/714 715/715
f 716/716 717/717 718/718
f 719/719 720/720 721/721 722/722
f 723/723 724/724 725/725
f 726/726 727/727 728/728
f 729/729 730/730 731/731 732/732
f 733/733 734/734 735/735
f 736/736 737/737 738/738
f 739/739 740/740 741/741 742/742
f 743/743 744/744 745/745
f 746/746 747/747 748/748
f 749/749 750/750 751/751 752/752
f 753/753 754/754 755/755
f 756/756 757/757 758/758
f 759/759 760/760 761/761 762/762
f 763/763 764/764 765/765
f 766/766 767/767 768/768
usemtl models/caelum/props/stations/ca_station_iron.png
f 769/769 770/770 771/771 772/772
f 773/773 774/774 775/775 776/776
f 777/777 778/778 779/779 780/780
f 781/781 782/782 783/783 784/784
f 785/785 786/786 787/787 788/788
f 789/789 790/790 791/791 792/792
usemtl models/caelum/props/stations/ca_station_wood.png
f 793/793 794/794 795/795 796/796
f 797/797 798/798 799/799
f 800/800 801/801 802/802
f 803/803 804/804 805/805 806/806
f 807/807 808/808 809/809
f 810/810 811/811 812/812
f 813/813 814/814 815/815 816/816
f 817/817 818/818 819/819
f 820/820 821/821 822/822
f 823/823 824/824 825/825 826/826
f 827/827 828/828 829/829
f 830/830 831/831 832/832
f 833/833 834/834 835/835 836/836
f 837/837 838/838 839/839
f 840/840 841/841 842/842
f 843/843 844/844 845/845 846/846
f 847/847 848/848 849/849
f 850/850 851/851 852/852
usemtl models/caelum/props/stations/ca_station_iron.png
f 853/853 854/854 855/855 856/856
f 857/857 858/858 859/859 860/860
f 861/861 862/862 863/863 864/864
f 865/865 866/866 867/867 868/868
f 869/869 870/870 871/871 872/872
f 873/873 874/874 875/875 876/876
usemtl models/caelum/props/stations/ca_station_wood.png
f 877/877 878/878 879/879 880/880
f 881/881 882/882 883/883
f 884/884 885/885 886/886
f 887/887 888/888 889/889 890/890
f 891/891 892/892 893/893
f 894/894 895/895 896/896
f 897/897 898/898 899/899 900/900
f 901/901 902/902 903/903
f 904/904 905/905 906/906
f 907/907 908/908 909/909 910/910
f 911/911 912/912 913/913
f 914/914 915/915 916/916
f 917/917 918/918 919/919 920/920
f 921/921 922/922 923/923
f 924/924 925/925 926/926
f 927/927 928/928 929/929 930/930
f 931/931 932/932 933/933
f 934/934 935/935 936/936
usemtl models/caelum/props/stations/ca_station_iron.png
f 937/937 938/938 939/939 940/940
f 941/941 942/942 943/943 944/944
f 945/945 946/946 947/947 948/948
f 949/949 950/950 951/951 952/952
f 953/953 954/954 955/955 956/956
f 957/957 958/958 959/959 960/960
usemtl models/caelum/props/stations/ca_station_wood.png
f 961/961 962/962 963/963 964/964
f 965/965 966/966 967/967
f 968/968 969/969 970/970
f 971/971 972/972 973/973 974/974
f 975/975 976/976 977/977
f 978/978 979/979 980/980
f 981/981 982/982 983/983 984/984
f 985/985 986/986 987/987
f 988/988 989/989 990/990
f 991/991 992/992 993/993 994/994
f 995/995 996/996 997/997
f 998/998 999/999 1000/1000
f 1001/1001 1002/1002 1003/1003 1004/1004
f 1005/1005 1006/1006 1007/1007
f 1008/1008 1009/1009 1010/1010
f 1011/1011 1012/1012 1013/1013 1014/1014
f 1015/1015 1016/1016 1017/1017
f 1018/1018 1019/1019 1020/1020
usemtl models/caelum/props/stations/ca_station_iron.png
f 1021/1021 1022/1022 1023/1023 1024/1024
f 1025/1025 1026/1026 1027/1027 1028/1028
f 1029/1029 1030/1030 1031/1031 1032/1032
f 1033/1033 1034/1034 1035/1035 1036/1036
f 1037/1037 1038/1038 1039/1039 1040/1040
f 1041/1041 1042/1042 1043/1043 1044/1044
f 1045/1045 1046/1046 1047/1047 1048/1048
f 1049/1049 1050/1050 1051/1051 1052/1052
f 1053/1053 1054/1054 1055/1055 1056/1056
f 1057/1057 1058/1058 1059/1059 1060/1060
f 1061/1061 1062/1062 1063/1063 1064/1064
f 1065/1065 1066/1066 1067/1067 1068/1068
f 1069/1069 1070/1070 1071/1071 1072/1072
f 1073/1073 1074/1074 1075/1075 1076/1076
f 1077/1077 1078/1078 1079/1079 1080/1080
f 1081/1081 1082/1082 1083/1083 1084/1084
f 1085/1085 1086/1086 1087/1087 1088/1088
f 1089/1089 1090/1090 1091/1091 1092/1092
f 1093/1093 1094/1094 1095/1095 1096/1096
f 1097/1097 1098/1098 1099/1099 1100/1100
f 1101/1101 1102/1102 1103/1103 1104/1104
f 1105/1105 1106/1106 1107/1107 1108/1108
f 1109/1109 1110/1110 1111/1111 1112/1112
f 1113/1113 1114/1114 1115/1115 1116/1116
f 1117/1117 1118/1118 1119/1119 1120/1120
f 1121/1121 1122/1122 1123/1123
f 1124/1124 1125/1125 1126/1126
f 1127/1127 1128/1128 1129/1129 1130/1130
f 1131/1131 1132/1132 1133/1133
f 1134/1134 1135/1135 1136/1136
f 1137/1137 1138/1138 1139/1139 1140/1140
f 1141/1141 1142/1142 1143/1143
f 1144/1144 1145/1145 1146/1146
f 1147/1147 1148/1148 1149/1149 1150/1150
f 1151/1151 1152/1152 1153/1153
f 1154/1154 1155/1155 1156/1156
f 1157/1157 1158/1158 1159/1159 1160/1160
f 1161/1161 1162/1162 1163/1163
f 1164/1164 1165/1165 1166/1166
f 1167/1167 1168/1168 1169/1169 1170/1170
f 1171/1171 1172/1172 1173/1173
f 1174/1174 1175/1175 1176/1176
f 1177/1177 1178/1178 1179/1179 1180/1180
f 1181/1181 1182/1182 1183/1183
f 1184/1184 1185/1185 1186/1186
f 1187/1187 1188/1188 1189/1189 1190/1190
f 1191/1191 1192/1192 1193/1193
f 1194/1194 1195/1195 1196/1196
f 1197/1197 1198/1198 1199/1199 1200/1200
f 1201/1201 1202/1202 1203/1203
f 1204/1204 1205/1205 1206/1206
f 1207/1207 1208/1208 1209/1209 1210/1210
f 1211/1211 1212/1212 1213/1213
f 1214/1214 1215/1215 1216/1216
f 1217/1217 1218/1218 1219/1219 1220/1220
f 1221/1221 1222/1222 1223/1223
f 1224/1224 1225/1225 1226/1226
f 1227/1227 1228/1228 1229/1229 1230/1230
f 1231/1231 1232/1232 1233/1233
f 1234/1234 1235/1235 1236/1236
usemtl models/caelum/props/stations/ca_station_leather.png
f 1237/1237 1238/1238 1239/1239 1240/1240
f 1241/1241 1242/1242 1243/1243 1244/1244
f 1245/1245 1246/1246 1247/1247 1248/1248
f 1249/1249 1250/1250 1251/1251 1252/1252
f 1253/1253 1254/1254 1255/1255 1256/1256
f 1257/1257 1258/1258 1259/1259 1260/1260
usemtl models/caelum/props/stations/ca_station_paper.png
f 1261/1261 1262/1262 1263/1263 1264/1264
f 1265/1265 1266/1266 1267/1267 1268/1268
f 1269/1269 1270/1270 1271/1271 1272/1272
f 1273/1273 1274/1274 1275/1275 1276/1276
f 1277/1277 1278/1278 1279/1279 1280/1280
f 1281/1281 1282/1282 1283/1283 1284/1284
usemtl models/caelum/props/stations/ca_station_brass.png
f 1285/1285 1286/1286 1287/1287 1288/1288
f 1289/1289 1290/1290 1291/1291
f 1292/1292 1293/1293 1294/1294
f 1295/1295 1296/1296 1297/1297 1298/1298
f 1299/1299 1300/1300 1301/1301
f 1302/1302 1303/1303 1304/1304
f 1305/1305 1306/1306 1307/1307 1308/1308
f 1309/1309 1310/1310 1311/1311
f 1312/1312 1313/1313 1314/1314
f 1315/1315 1316/1316 1317/1317 1318/1318
f 1319/1319 1320/1320 1321/1321
f 1322/1322 1323/1323 1324/1324
f 1325/1325 1326/1326 1327/1327 1328/1328
f 1329/1329 1330/1330 1331/1331
f 1332/1332 1333/1333 1334/1334
f 1335/1335 1336/1336 1337/1337 1338/1338
f 1339/1339 1340/1340 1341/1341
f 1342/1342 1343/1343 1344/1344
usemtl models/caelum/props/stations/ca_station_wax.png
f 1345/1345 1346/1346 1347/1347 1348/1348
f 1349/1349 1350/1350 1351/1351
f 1352/1352 1353/1353 1354/1354
f 1355/1355 1356/1356 1357/1357 1358/1358
f 1359/1359 1360/1360 1361/1361
f 1362/1362 1363/1363 1364/1364
f 1365/1365 1366/1366 1367/1367 1368/1368
f 1369/1369 1370/1370 1371/1371
f 1372/1372 1373/1373 1374/1374
f 1375/1375 1376/1376 1377/1377 1378/1378
f 1379/1379 1380/1380 1381/1381
f 1382/1382 1383/1383 1384/1384
f 1385/1385 1386/1386 1387/1387 1388/1388
f 1389/1389 1390/1390 1391/1391
f 1392/1392 1393/1393 1394/1394
f 1395/1395 1396/1396 1397/1397 1398/1398
f 1399/1399 1400/1400 1401/1401
f 1402/1402 1403/1403 1404/1404
usemtl models/caelum/props/stations/ca_station_ember.png
f 1405/1405 1406/1406 1407/1407
f 1408/1408 1409/1409 1410/1410
f 1411/1411 1412/1412 1413/1413
f 1414/1414 1415/1415 1416/1416
f 1417/1417 1418/1418 1419/1419
f 1420/1420 1421/1421 1422/1422
f 1423/1423 1424/1424 1425/1425
f 1426/1426 1427/1427 1428/1428
usemtl models/caelum/props/stations/ca_station_wood.png
f 1429/1429 1430/1430 1431/1431 1432/1432
f 1433/1433 1434/1434 1435/1435
f 1436/1436 1437/1437 1438/1438
f 1439/1439 1440/1440 1441/1441 1442/1442
f 1443/1443 1444/1444 1445/1445
f 1446/1446 1447/1447 1448/1448
f 1449/1449 1450/1450 1451/1451 1452/1452
f 1453/1453 1454/1454 1455/1455
f 1456/1456 1457/1457 1458/1458
f 1459/1459 1460/1460 1461/1461 1462/1462
f 1463/1463 1464/1464 1465/1465
f 1466/1466 1467/1467 1468/1468
f 1469/1469 1470/1470 1471/1471 1472/1472
f 1473/1473 1474/1474 1475/1475
f 1476/1476 1477/1477 1478/1478
f 1479/1479 1480/1480 1481/1481 1482/1482
f 1483/1483 1484/1484 1485/1485
f 1486/1486 1487/1487 1488/1488
usemtl models/caelum/props/stations/ca_station_iron.png
f 1489/1489 1490/1490 1491/1491 1492/1492
f 1493/1493 1494/1494 1495/1495 1496/1496
f 1497/1497 1498/1498 1499/1499 1500/1500
f 1501/1501 1502/1502 1503/1503 1504/1504
f 1505/1505 1506/1506 1507/1507 1508/1508
f 1509/1509 1510/1510 1511/1511 1512/1512
usemtl models/caelum/props/stations/ca_station_brass.png
f 1513/1513 1514/1514 1515/1515 1516/1516
f 1517/1517 1518/1518 1519/1519 1520/1520
f 1521/1521 1522/1522 1523/1523 1524/1524
f 1525/1525 1526/1526 1527/1527 1528/1528
f 1529/1529 1530/1530 1531/1531 1532/1532
f 1533/1533 1534/1534 1535/1535 1536/1536
f 1537/1537 1538/1538 1539/1539 1540/1540
f 1541/1541 1542/1542 1543/1543 1544/1544
f 1545/1545 1546/1546 1547/1547 1548/1548
f 1549/1549 1550/1550 1551/1551 1552/1552
f 1553/1553 1554/1554 1555/1555 1556/1556
f 1557/1557 1558/1558 1559/1559 1560/1560
