# Modelo original generado para Caelum Argenteum.
# Ejes OBJ: X ancho, Y altura, Z profundidad.
o CaelumRestBag_Roll
v 8.000000 8.000000 16.000000
v 7.391036 11.061467 16.000000
v 7.391036 11.061467 -16.000000
v 8.000000 8.000000 -16.000000
v 0.000000 8.000000 16.000000
v 7.391036 11.061467 16.000000
v 8.000000 8.000000 16.000000
v 0.000000 8.000000 -16.000000
v 8.000000 8.000000 -16.000000
v 7.391036 11.061467 -16.000000
v 7.391036 11.061467 16.000000
v 5.656854 13.656854 16.000000
v 5.656854 13.656854 -16.000000
v 7.391036 11.061467 -16.000000
v 0.000000 8.000000 16.000000
v 5.656854 13.656854 16.000000
v 7.391036 11.061467 16.000000
v 0.000000 8.000000 -16.000000
v 7.391036 11.061467 -16.000000
v 5.656854 13.656854 -16.000000
v 5.656854 13.656854 16.000000
v 3.061467 15.391036 16.000000
v 3.061467 15.391036 -16.000000
v 5.656854 13.656854 -16.000000
v 0.000000 8.000000 16.000000
v 3.061467 15.391036 16.000000
v 5.656854 13.656854 16.000000
v 0.000000 8.000000 -16.000000
v 5.656854 13.656854 -16.000000
v 3.061467 15.391036 -16.000000
v 3.061467 15.391036 16.000000
v 0.000000 16.000000 16.000000
v 0.000000 16.000000 -16.000000
v 3.061467 15.391036 -16.000000
v 0.000000 8.000000 16.000000
v 0.000000 16.000000 16.000000
v 3.061467 15.391036 16.000000
v 0.000000 8.000000 -16.000000
v 3.061467 15.391036 -16.000000
v 0.000000 16.000000 -16.000000
v 0.000000 16.000000 16.000000
v -3.061467 15.391036 16.000000
v -3.061467 15.391036 -16.000000
v 0.000000 16.000000 -16.000000
v 0.000000 8.000000 16.000000
v -3.061467 15.391036 16.000000
v 0.000000 16.000000 16.000000
v 0.000000 8.000000 -16.000000
v 0.000000 16.000000 -16.000000
v -3.061467 15.391036 -16.000000
v -3.061467 15.391036 16.000000
v -5.656854 13.656854 16.000000
v -5.656854 13.656854 -16.000000
v -3.061467 15.391036 -16.000000
v 0.000000 8.000000 16.000000
v -5.656854 13.656854 16.000000
v -3.061467 15.391036 16.000000
v 0.000000 8.000000 -16.000000
v -3.061467 15.391036 -16.000000
v -5.656854 13.656854 -16.000000
v -5.656854 13.656854 16.000000
v -7.391036 11.061467 16.000000
v -7.391036 11.061467 -16.000000
v -5.656854 13.656854 -16.000000
v 0.000000 8.000000 16.000000
v -7.391036 11.061467 16.000000
v -5.656854 13.656854 16.000000
v 0.000000 8.000000 -16.000000
v -5.656854 13.656854 -16.000000
v -7.391036 11.061467 -16.000000
v -7.391036 11.061467 16.000000
v -8.000000 8.000000 16.000000
v -8.000000 8.000000 -16.000000
v -7.391036 11.061467 -16.000000
v 0.000000 8.000000 16.000000
v -8.000000 8.000000 16.000000
v -7.391036 11.061467 16.000000
v 0.000000 8.000000 -16.000000
v -7.391036 11.061467 -16.000000
v -8.000000 8.000000 -16.000000
v -8.000000 8.000000 16.000000
v -7.391036 4.938533 16.000000
v -7.391036 4.938533 -16.000000
v -8.000000 8.000000 -16.000000
v 0.000000 8.000000 16.000000
v -7.391036 4.938533 16.000000
v -8.000000 8.000000 16.000000
v 0.000000 8.000000 -16.000000
v -8.000000 8.000000 -16.000000
v -7.391036 4.938533 -16.000000
v -7.391036 4.938533 16.000000
v -5.656854 2.343146 16.000000
v -5.656854 2.343146 -16.000000
v -7.391036 4.938533 -16.000000
v 0.000000 8.000000 16.000000
v -5.656854 2.343146 16.000000
v -7.391036 4.938533 16.000000
v 0.000000 8.000000 -16.000000
v -7.391036 4.938533 -16.000000
v -5.656854 2.343146 -16.000000
v -5.656854 2.343146 16.000000
v -3.061467 0.608964 16.000000
v -3.061467 0.608964 -16.000000
v -5.656854 2.343146 -16.000000
v 0.000000 8.000000 16.000000
v -3.061467 0.608964 16.000000
v -5.656854 2.343146 16.000000
v 0.000000 8.000000 -16.000000
v -5.656854 2.343146 -16.000000
v -3.061467 0.608964 -16.000000
v -3.061467 0.608964 16.000000
v -0.000000 0.000000 16.000000
v -0.000000 0.000000 -16.000000
v -3.061467 0.608964 -16.000000
v 0.000000 8.000000 16.000000
v -0.000000 0.000000 16.000000
v -3.061467 0.608964 16.000000
v 0.000000 8.000000 -16.000000
v -3.061467 0.608964 -16.000000
v -0.000000 0.000000 -16.000000
v -0.000000 0.000000 16.000000
v 3.061467 0.608964 16.000000
v 3.061467 0.608964 -16.000000
v -0.000000 0.000000 -16.000000
v 0.000000 8.000000 16.000000
v 3.061467 0.608964 16.000000
v -0.000000 0.000000 16.000000
v 0.000000 8.000000 -16.000000
v -0.000000 0.000000 -16.000000
v 3.061467 0.608964 -16.000000
v 3.061467 0.608964 16.000000
v 5.656854 2.343146 16.000000
v 5.656854 2.343146 -16.000000
v 3.061467 0.608964 -16.000000
v 0.000000 8.000000 16.000000
v 5.656854 2.343146 16.000000
v 3.061467 0.608964 16.000000
v 0.000000 8.000000 -16.000000
v 3.061467 0.608964 -16.000000
v 5.656854 2.343146 -16.000000
v 5.656854 2.343146 16.000000
v 7.391036 4.938533 16.000000
v 7.391036 4.938533 -16.000000
v 5.656854 2.343146 -16.000000
v 0.000000 8.000000 16.000000
v 7.391036 4.938533 16.000000
v 5.656854 2.343146 16.000000
v 0.000000 8.000000 -16.000000
v 5.656854 2.343146 -16.000000
v 7.391036 4.938533 -16.000000
v 7.391036 4.938533 16.000000
v 8.000000 8.000000 16.000000
v 8.000000 8.000000 -16.000000
v 7.391036 4.938533 -16.000000
v 0.000000 8.000000 16.000000
v 8.000000 8.000000 16.000000
v 7.391036 4.938533 16.000000
v 0.000000 8.000000 -16.000000
v 7.391036 4.938533 -16.000000
v 8.000000 8.000000 -16.000000
v 8.400000 8.000000 -8.500000
v 7.760588 11.214541 -8.500000
v 7.760588 11.214541 -11.500000
v 8.400000 8.000000 -11.500000
v 0.000000 8.000000 -8.500000
v 7.760588 11.214541 -8.500000
v 8.400000 8.000000 -8.500000
v 0.000000 8.000000 -11.500000
v 8.400000 8.000000 -11.500000
v 7.760588 11.214541 -11.500000
v 7.760588 11.214541 -8.500000
v 5.939697 13.939697 -8.500000
v 5.939697 13.939697 -11.500000
v 7.760588 11.214541 -11.500000
v 0.000000 8.000000 -8.500000
v 5.939697 13.939697 -8.500000
v 7.760588 11.214541 -8.500000
v 0.000000 8.000000 -11.500000
v 7.760588 11.214541 -11.500000
v 5.939697 13.939697 -11.500000
v 5.939697 13.939697 -8.500000
v 3.214541 15.760588 -8.500000
v 3.214541 15.760588 -11.500000
v 5.939697 13.939697 -11.500000
v 0.000000 8.000000 -8.500000
v 3.214541 15.760588 -8.500000
v 5.939697 13.939697 -8.500000
v 0.000000 8.000000 -11.500000
v 5.939697 13.939697 -11.500000
v 3.214541 15.760588 -11.500000
v 3.214541 15.760588 -8.500000
v 0.000000 16.400000 -8.500000
v 0.000000 16.400000 -11.500000
v 3.214541 15.760588 -11.500000
v 0.000000 8.000000 -8.500000
v 0.000000 16.400000 -8.500000
v 3.214541 15.760588 -8.500000
v 0.000000 8.000000 -11.500000
v 3.214541 15.760588 -11.500000
v 0.000000 16.400000 -11.500000
v 0.000000 16.400000 -8.500000
v -3.214541 15.760588 -8.500000
v -3.214541 15.760588 -11.500000
v 0.000000 16.400000 -11.500000
v 0.000000 8.000000 -8.500000
v -3.214541 15.760588 -8.500000
v 0.000000 16.400000 -8.500000
v 0.000000 8.000000 -11.500000
v 0.000000 16.400000 -11.500000
v -3.214541 15.760588 -11.500000
v -3.214541 15.760588 -8.500000
v -5.939697 13.939697 -8.500000
v -5.939697 13.939697 -11.500000
v -3.214541 15.760588 -11.500000
v 0.000000 8.000000 -8.500000
v -5.939697 13.939697 -8.500000
v -3.214541 15.760588 -8.500000
v 0.000000 8.000000 -11.500000
v -3.214541 15.760588 -11.500000
v -5.939697 13.939697 -11.500000
v -5.939697 13.939697 -8.500000
v -7.760588 11.214541 -8.500000
v -7.760588 11.214541 -11.500000
v -5.939697 13.939697 -11.500000
v 0.000000 8.000000 -8.500000
v -7.760588 11.214541 -8.500000
v -5.939697 13.939697 -8.500000
v 0.000000 8.000000 -11.500000
v -5.939697 13.939697 -11.500000
v -7.760588 11.214541 -11.500000
v -7.760588 11.214541 -8.500000
v -8.400000 8.000000 -8.500000
v -8.400000 8.000000 -11.500000
v -7.760588 11.214541 -11.500000
v 0.000000 8.000000 -8.500000
v -8.400000 8.000000 -8.500000
v -7.760588 11.214541 -8.500000
v 0.000000 8.000000 -11.500000
v -7.760588 11.214541 -11.500000
v -8.400000 8.000000 -11.500000
v -8.400000 8.000000 -8.500000
v -7.760588 4.785459 -8.500000
v -7.760588 4.785459 -11.500000
v -8.400000 8.000000 -11.500000
v 0.000000 8.000000 -8.500000
v -7.760588 4.785459 -8.500000
v -8.400000 8.000000 -8.500000
v 0.000000 8.000000 -11.500000
v -8.400000 8.000000 -11.500000
v -7.760588 4.785459 -11.500000
v -7.760588 4.785459 -8.500000
v -5.939697 2.060303 -8.500000
v -5.939697 2.060303 -11.500000
v -7.760588 4.785459 -11.500000
v 0.000000 8.000000 -8.500000
v -5.939697 2.060303 -8.500000
v -7.760588 4.785459 -8.500000
v 0.000000 8.000000 -11.500000
v -7.760588 4.785459 -11.500000
v -5.939697 2.060303 -11.500000
v -5.939697 2.060303 -8.500000
v -3.214541 0.239412 -8.500000
v -3.214541 0.239412 -11.500000
v -5.939697 2.060303 -11.500000
v 0.000000 8.000000 -8.500000
v -3.214541 0.239412 -8.500000
v -5.939697 2.060303 -8.500000
v 0.000000 8.000000 -11.500000
v -5.939697 2.060303 -11.500000
v -3.214541 0.239412 -11.500000
v -3.214541 0.239412 -8.500000
v -0.000000 -0.400000 -8.500000
v -0.000000 -0.400000 -11.500000
v -3.214541 0.239412 -11.500000
v 0.000000 8.000000 -8.500000
v -0.000000 -0.400000 -8.500000
v -3.214541 0.239412 -8.500000
v 0.000000 8.000000 -11.500000
v -3.214541 0.239412 -11.500000
v -0.000000 -0.400000 -11.500000
v -0.000000 -0.400000 -8.500000
v 3.214541 0.239412 -8.500000
v 3.214541 0.239412 -11.500000
v -0.000000 -0.400000 -11.500000
v 0.000000 8.000000 -8.500000
v 3.214541 0.239412 -8.500000
v -0.000000 -0.400000 -8.500000
v 0.000000 8.000000 -11.500000
v -0.000000 -0.400000 -11.500000
v 3.214541 0.239412 -11.500000
v 3.214541 0.239412 -8.500000
v 5.939697 2.060303 -8.500000
v 5.939697 2.060303 -11.500000
v 3.214541 0.239412 -11.500000
v 0.000000 8.000000 -8.500000
v 5.939697 2.060303 -8.500000
v 3.214541 0.239412 -8.500000
v 0.000000 8.000000 -11.500000
v 3.214541 0.239412 -11.500000
v 5.939697 2.060303 -11.500000
v 5.939697 2.060303 -8.500000
v 7.760588 4.785459 -8.500000
v 7.760588 4.785459 -11.500000
v 5.939697 2.060303 -11.500000
v 0.000000 8.000000 -8.500000
v 7.760588 4.785459 -8.500000
v 5.939697 2.060303 -8.500000
v 0.000000 8.000000 -11.500000
v 5.939697 2.060303 -11.500000
v 7.760588 4.785459 -11.500000
v 7.760588 4.785459 -8.500000
v 8.400000 8.000000 -8.500000
v 8.400000 8.000000 -11.500000
v 7.760588 4.785459 -11.500000
v 0.000000 8.000000 -8.500000
v 8.400000 8.000000 -8.500000
v 7.760588 4.785459 -8.500000
v 0.000000 8.000000 -11.500000
v 7.760588 4.785459 -11.500000
v 8.400000 8.000000 -11.500000
v 8.400000 8.000000 11.500000
v 7.760588 11.214541 11.500000
v 7.760588 11.214541 8.500000
v 8.400000 8.000000 8.500000
v 0.000000 8.000000 11.500000
v 7.760588 11.214541 11.500000
v 8.400000 8.000000 11.500000
v 0.000000 8.000000 8.500000
v 8.400000 8.000000 8.500000
v 7.760588 11.214541 8.500000
v 7.760588 11.214541 11.500000
v 5.939697 13.939697 11.500000
v 5.939697 13.939697 8.500000
v 7.760588 11.214541 8.500000
v 0.000000 8.000000 11.500000
v 5.939697 13.939697 11.500000
v 7.760588 11.214541 11.500000
v 0.000000 8.000000 8.500000
v 7.760588 11.214541 8.500000
v 5.939697 13.939697 8.500000
v 5.939697 13.939697 11.500000
v 3.214541 15.760588 11.500000
v 3.214541 15.760588 8.500000
v 5.939697 13.939697 8.500000
v 0.000000 8.000000 11.500000
v 3.214541 15.760588 11.500000
v 5.939697 13.939697 11.500000
v 0.000000 8.000000 8.500000
v 5.939697 13.939697 8.500000
v 3.214541 15.760588 8.500000
v 3.214541 15.760588 11.500000
v 0.000000 16.400000 11.500000
v 0.000000 16.400000 8.500000
v 3.214541 15.760588 8.500000
v 0.000000 8.000000 11.500000
v 0.000000 16.400000 11.500000
v 3.214541 15.760588 11.500000
v 0.000000 8.000000 8.500000
v 3.214541 15.760588 8.500000
v 0.000000 16.400000 8.500000
v 0.000000 16.400000 11.500000
v -3.214541 15.760588 11.500000
v -3.214541 15.760588 8.500000
v 0.000000 16.400000 8.500000
v 0.000000 8.000000 11.500000
v -3.214541 15.760588 11.500000
v 0.000000 16.400000 11.500000
v 0.000000 8.000000 8.500000
v 0.000000 16.400000 8.500000
v -3.214541 15.760588 8.500000
v -3.214541 15.760588 11.500000
v -5.939697 13.939697 11.500000
v -5.939697 13.939697 8.500000
v -3.214541 15.760588 8.500000
v 0.000000 8.000000 11.500000
v -5.939697 13.939697 11.500000
v -3.214541 15.760588 11.500000
v 0.000000 8.000000 8.500000
v -3.214541 15.760588 8.500000
v -5.939697 13.939697 8.500000
v -5.939697 13.939697 11.500000
v -7.760588 11.214541 11.500000
v -7.760588 11.214541 8.500000
v -5.939697 13.939697 8.500000
v 0.000000 8.000000 11.500000
v -7.760588 11.214541 11.500000
v -5.939697 13.939697 11.500000
v 0.000000 8.000000 8.500000
v -5.939697 13.939697 8.500000
v -7.760588 11.214541 8.500000
v -7.760588 11.214541 11.500000
v -8.400000 8.000000 11.500000
v -8.400000 8.000000 8.500000
v -7.760588 11.214541 8.500000
v 0.000000 8.000000 11.500000
v -8.400000 8.000000 11.500000
v -7.760588 11.214541 11.500000
v 0.000000 8.000000 8.500000
v -7.760588 11.214541 8.500000
v -8.400000 8.000000 8.500000
v -8.400000 8.000000 11.500000
v -7.760588 4.785459 11.500000
v -7.760588 4.785459 8.500000
v -8.400000 8.000000 8.500000
v 0.000000 8.000000 11.500000
v -7.760588 4.785459 11.500000
v -8.400000 8.000000 11.500000
v 0.000000 8.000000 8.500000
v -8.400000 8.000000 8.500000
v -7.760588 4.785459 8.500000
v -7.760588 4.785459 11.500000
v -5.939697 2.060303 11.500000
v -5.939697 2.060303 8.500000
v -7.760588 4.785459 8.500000
v 0.000000 8.000000 11.500000
v -5.939697 2.060303 11.500000
v -7.760588 4.785459 11.500000
v 0.000000 8.000000 8.500000
v -7.760588 4.785459 8.500000
v -5.939697 2.060303 8.500000
v -5.939697 2.060303 11.500000
v -3.214541 0.239412 11.500000
v -3.214541 0.239412 8.500000
v -5.939697 2.060303 8.500000
v 0.000000 8.000000 11.500000
v -3.214541 0.239412 11.500000
v -5.939697 2.060303 11.500000
v 0.000000 8.000000 8.500000
v -5.939697 2.060303 8.500000
v -3.214541 0.239412 8.500000
v -3.214541 0.239412 11.500000
v -0.000000 -0.400000 11.500000
v -0.000000 -0.400000 8.500000
v -3.214541 0.239412 8.500000
v 0.000000 8.000000 11.500000
v -0.000000 -0.400000 11.500000
v -3.214541 0.239412 11.500000
v 0.000000 8.000000 8.500000
v -3.214541 0.239412 8.500000
v -0.000000 -0.400000 8.500000
v -0.000000 -0.400000 11.500000
v 3.214541 0.239412 11.500000
v 3.214541 0.239412 8.500000
v -0.000000 -0.400000 8.500000
v 0.000000 8.000000 11.500000
v 3.214541 0.239412 11.500000
v -0.000000 -0.400000 11.500000
v 0.000000 8.000000 8.500000
v -0.000000 -0.400000 8.500000
v 3.214541 0.239412 8.500000
v 3.214541 0.239412 11.500000
v 5.939697 2.060303 11.500000
v 5.939697 2.060303 8.500000
v 3.214541 0.239412 8.500000
v 0.000000 8.000000 11.500000
v 5.939697 2.060303 11.500000
v 3.214541 0.239412 11.500000
v 0.000000 8.000000 8.500000
v 3.214541 0.239412 8.500000
v 5.939697 2.060303 8.500000
v 5.939697 2.060303 11.500000
v 7.760588 4.785459 11.500000
v 7.760588 4.785459 8.500000
v 5.939697 2.060303 8.500000
v 0.000000 8.000000 11.500000
v 7.760588 4.785459 11.500000
v 5.939697 2.060303 11.500000
v 0.000000 8.000000 8.500000
v 5.939697 2.060303 8.500000
v 7.760588 4.785459 8.500000
v 7.760588 4.785459 11.500000
v 8.400000 8.000000 11.500000
v 8.400000 8.000000 8.500000
v 7.760588 4.785459 8.500000
v 0.000000 8.000000 11.500000
v 8.400000 8.000000 11.500000
v 7.760588 4.785459 11.500000
v 0.000000 8.000000 8.500000
v 7.760588 4.785459 8.500000
v 8.400000 8.000000 8.500000
vt 0.000000 0.000000
vt 1.000000 0.000000
vt 1.000000 1.000000
vt 0.000000 1.000000
vt 0.500000 0.500000
vt 0.000000 0.000000
vt 1.000000 0.000000
vt 0.500000 0.500000
vt 0.000000 0.000000
vt 1.000000 0.000000
vt 0.000000 0.000000
vt 1.000000 0.000000
vt 1.000000 1.000000
vt 0.000000 1.000000
vt 0.500000 0.500000
vt 0.000000 0.000000
vt 1.000000 0.000000
vt 0.500000 0.500000
vt 0.000000 0.000000
vt 1.000000 0.000000
vt 0.000000 0.000000
vt 1.000000 0.000000
vt 1.000000 1.000000
vt 0.000000 1.000000
vt 0.500000 0.500000
vt 0.000000 0.000000
vt 1.000000 0.000000
vt 0.500000 0.500000
vt 0.000000 0.000000
vt 1.000000 0.000000
vt 0.000000 0.000000
vt 1.000000 0.000000
vt 1.000000 1.000000
vt 0.000000 1.000000
vt 0.500000 0.500000
vt 0.000000 0.000000
vt 1.000000 0.000000
vt 0.500000 0.500000
vt 0.000000 0.000000
vt 1.000000 0.000000
vt 0.000000 0.000000
vt 1.000000 0.000000
vt 1.000000 1.000000
vt 0.000000 1.000000
vt 0.500000 0.500000
vt 0.000000 0.000000
vt 1.000000 0.000000
vt 0.500000 0.500000
vt 0.000000 0.000000
vt 1.000000 0.000000
vt 0.000000 0.000000
vt 1.000000 0.000000
vt 1.000000 1.000000
vt 0.000000 1.000000
vt 0.500000 0.500000
vt 0.000000 0.000000
vt 1.000000 0.000000
vt 0.500000 0.500000
vt 0.000000 0.000000
vt 1.000000 0.000000
vt 0.000000 0.000000
vt 1.000000 0.000000
vt 1.000000 1.000000
vt 0.000000 1.000000
vt 0.500000 0.500000
vt 0.000000 0.000000
vt 1.000000 0.000000
vt 0.500000 0.500000
vt 0.000000 0.000000
vt 1.000000 0.000000
vt 0.000000 0.000000
vt 1.000000 0.000000
vt 1.000000 1.000000
vt 0.000000 1.000000
vt 0.500000 0.500000
vt 0.000000 0.000000
vt 1.000000 0.000000
vt 0.500000 0.500000
vt 0.000000 0.000000
vt 1.000000 0.000000
vt 0.000000 0.000000
vt 1.000000 0.000000
vt 1.000000 1.000000
vt 0.000000 1.000000
vt 0.500000 0.500000
vt 0.000000 0.000000
vt 1.000000 0.000000
vt 0.500000 0.500000
vt 0.000000 0.000000
vt 1.000000 0.000000
vt 0.000000 0.000000
vt 1.000000 0.000000
vt 1.000000 1.000000
vt 0.000000 1.000000
vt 0.500000 0.500000
vt 0.000000 0.000000
vt 1.000000 0.000000
vt 0.500000 0.500000
vt 0.000000 0.000000
vt 1.000000 0.000000
vt 0.000000 0.000000
vt 1.000000 0.000000
vt 1.000000 1.000000
vt 0.000000 1.000000
vt 0.500000 0.500000
vt 0.000000 0.000000
vt 1.000000 0.000000
vt 0.500000 0.500000
vt 0.000000 0.000000
vt 1.000000 0.000000
vt 0.000000 0.000000
vt 1.000000 0.000000
vt 1.000000 1.000000
vt 0.000000 1.000000
vt 0.500000 0.500000
vt 0.000000 0.000000
vt 1.000000 0.000000
vt 0.500000 0.500000
vt 0.000000 0.000000
vt 1.000000 0.000000
vt 0.000000 0.000000
vt 1.000000 0.000000
vt 1.000000 1.000000
vt 0.000000 1.000000
vt 0.500000 0.500000
vt 0.000000 0.000000
vt 1.000000 0.000000
vt 0.500000 0.500000
vt 0.000000 0.000000
vt 1.000000 0.000000
vt 0.000000 0.000000
vt 1.000000 0.000000
vt 1.000000 1.000000
vt 0.000000 1.000000
vt 0.500000 0.500000
vt 0.000000 0.000000
vt 1.000000 0.000000
vt 0.500000 0.500000
vt 0.000000 0.000000
vt 1.000000 0.000000
vt 0.000000 0.000000
vt 1.000000 0.000000
vt 1.000000 1.000000
vt 0.000000 1.000000
vt 0.500000 0.500000
vt 0.000000 0.000000
vt 1.000000 0.000000
vt 0.500000 0.500000
vt 0.000000 0.000000
vt 1.000000 0.000000
vt 0.000000 0.000000
vt 1.000000 0.000000
vt 1.000000 1.000000
vt 0.000000 1.000000
vt 0.500000 0.500000
vt 0.000000 0.000000
vt 1.000000 0.000000
vt 0.500000 0.500000
vt 0.000000 0.000000
vt 1.000000 0.000000
vt 0.000000 0.000000
vt 1.000000 0.000000
vt 1.000000 1.000000
vt 0.000000 1.000000
vt 0.500000 0.500000
vt 0.000000 0.000000
vt 1.000000 0.000000
vt 0.500000 0.500000
vt 0.000000 0.000000
vt 1.000000 0.000000
vt 0.000000 0.000000
vt 1.000000 0.000000
vt 1.000000 1.000000
vt 0.000000 1.000000
vt 0.500000 0.500000
vt 0.000000 0.000000
vt 1.000000 0.000000
vt 0.500000 0.500000
vt 0.000000 0.000000
vt 1.000000 0.000000
vt 0.000000 0.000000
vt 1.000000 0.000000
vt 1.000000 1.000000
vt 0.000000 1.000000
vt 0.500000 0.500000
vt 0.000000 0.000000
vt 1.000000 0.000000
vt 0.500000 0.500000
vt 0.000000 0.000000
vt 1.000000 0.000000
vt 0.000000 0.000000
vt 1.000000 0.000000
vt 1.000000 1.000000
vt 0.000000 1.000000
vt 0.500000 0.500000
vt 0.000000 0.000000
vt 1.000000 0.000000
vt 0.500000 0.500000
vt 0.000000 0.000000
vt 1.000000 0.000000
vt 0.000000 0.000000
vt 1.000000 0.000000
vt 1.000000 1.000000
vt 0.000000 1.000000
vt 0.500000 0.500000
vt 0.000000 0.000000
vt 1.000000 0.000000
vt 0.500000 0.500000
vt 0.000000 0.000000
vt 1.000000 0.000000
vt 0.000000 0.000000
vt 1.000000 0.000000
vt 1.000000 1.000000
vt 0.000000 1.000000
vt 0.500000 0.500000
vt 0.000000 0.000000
vt 1.000000 0.000000
vt 0.500000 0.500000
vt 0.000000 0.000000
vt 1.000000 0.000000
vt 0.000000 0.000000
vt 1.000000 0.000000
vt 1.000000 1.000000
vt 0.000000 1.000000
vt 0.500000 0.500000
vt 0.000000 0.000000
vt 1.000000 0.000000
vt 0.500000 0.500000
vt 0.000000 0.000000
vt 1.000000 0.000000
vt 0.000000 0.000000
vt 1.000000 0.000000
vt 1.000000 1.000000
vt 0.000000 1.000000
vt 0.500000 0.500000
vt 0.000000 0.000000
vt 1.000000 0.000000
vt 0.500000 0.500000
vt 0.000000 0.000000
vt 1.000000 0.000000
vt 0.000000 0.000000
vt 1.000000 0.000000
vt 1.000000 1.000000
vt 0.000000 1.000000
vt 0.500000 0.500000
vt 0.000000 0.000000
vt 1.000000 0.000000
vt 0.500000 0.500000
vt 0.000000 0.000000
vt 1.000000 0.000000
vt 0.000000 0.000000
vt 1.000000 0.000000
vt 1.000000 1.000000
vt 0.000000 1.000000
vt 0.500000 0.500000
vt 0.000000 0.000000
vt 1.000000 0.000000
vt 0.500000 0.500000
vt 0.000000 0.000000
vt 1.000000 0.000000
vt 0.000000 0.000000
vt 1.000000 0.000000
vt 1.000000 1.000000
vt 0.000000 1.000000
vt 0.500000 0.500000
vt 0.000000 0.000000
vt 1.000000 0.000000
vt 0.500000 0.500000
vt 0.000000 0.000000
vt 1.000000 0.000000
vt 0.000000 0.000000
vt 1.000000 0.000000
vt 1.000000 1.000000
vt 0.000000 1.000000
vt 0.500000 0.500000
vt 0.000000 0.000000
vt 1.000000 0.000000
vt 0.500000 0.500000
vt 0.000000 0.000000
vt 1.000000 0.000000
vt 0.000000 0.000000
vt 1.000000 0.000000
vt 1.000000 1.000000
vt 0.000000 1.000000
vt 0.500000 0.500000
vt 0.000000 0.000000
vt 1.000000 0.000000
vt 0.500000 0.500000
vt 0.000000 0.000000
vt 1.000000 0.000000
vt 0.000000 0.000000
vt 1.000000 0.000000
vt 1.000000 1.000000
vt 0.000000 1.000000
vt 0.500000 0.500000
vt 0.000000 0.000000
vt 1.000000 0.000000
vt 0.500000 0.500000
vt 0.000000 0.000000
vt 1.000000 0.000000
vt 0.000000 0.000000
vt 1.000000 0.000000
vt 1.000000 1.000000
vt 0.000000 1.000000
vt 0.500000 0.500000
vt 0.000000 0.000000
vt 1.000000 0.000000
vt 0.500000 0.500000
vt 0.000000 0.000000
vt 1.000000 0.000000
vt 0.000000 0.000000
vt 1.000000 0.000000
vt 1.000000 1.000000
vt 0.000000 1.000000
vt 0.500000 0.500000
vt 0.000000 0.000000
vt 1.000000 0.000000
vt 0.500000 0.500000
vt 0.000000 0.000000
vt 1.000000 0.000000
vt 0.000000 0.000000
vt 1.000000 0.000000
vt 1.000000 1.000000
vt 0.000000 1.000000
vt 0.500000 0.500000
vt 0.000000 0.000000
vt 1.000000 0.000000
vt 0.500000 0.500000
vt 0.000000 0.000000
vt 1.000000 0.000000
vt 0.000000 0.000000
vt 1.000000 0.000000
vt 1.000000 1.000000
vt 0.000000 1.000000
vt 0.500000 0.500000
vt 0.000000 0.000000
vt 1.000000 0.000000
vt 0.500000 0.500000
vt 0.000000 0.000000
vt 1.000000 0.000000
vt 0.000000 0.000000
vt 1.000000 0.000000
vt 1.000000 1.000000
vt 0.000000 1.000000
vt 0.500000 0.500000
vt 0.000000 0.000000
vt 1.000000 0.000000
vt 0.500000 0.500000
vt 0.000000 0.000000
vt 1.000000 0.000000
vt 0.000000 0.000000
vt 1.000000 0.000000
vt 1.000000 1.000000
vt 0.000000 1.000000
vt 0.500000 0.500000
vt 0.000000 0.000000
vt 1.000000 0.000000
vt 0.500000 0.500000
vt 0.000000 0.000000
vt 1.000000 0.000000
vt 0.000000 0.000000
vt 1.000000 0.000000
vt 1.000000 1.000000
vt 0.000000 1.000000
vt 0.500000 0.500000
vt 0.000000 0.000000
vt 1.000000 0.000000
vt 0.500000 0.500000
vt 0.000000 0.000000
vt 1.000000 0.000000
vt 0.000000 0.000000
vt 1.000000 0.000000
vt 1.000000 1.000000
vt 0.000000 1.000000
vt 0.500000 0.500000
vt 0.000000 0.000000
vt 1.000000 0.000000
vt 0.500000 0.500000
vt 0.000000 0.000000
vt 1.000000 0.000000
vt 0.000000 0.000000
vt 1.000000 0.000000
vt 1.000000 1.000000
vt 0.000000 1.000000
vt 0.500000 0.500000
vt 0.000000 0.000000
vt 1.000000 0.000000
vt 0.500000 0.500000
vt 0.000000 0.000000
vt 1.000000 0.000000
vt 0.000000 0.000000
vt 1.000000 0.000000
vt 1.000000 1.000000
vt 0.000000 1.000000
vt 0.500000 0.500000
vt 0.000000 0.000000
vt 1.000000 0.000000
vt 0.500000 0.500000
vt 0.000000 0.000000
vt 1.000000 0.000000
vt 0.000000 0.000000
vt 1.000000 0.000000
vt 1.000000 1.000000
vt 0.000000 1.000000
vt 0.500000 0.500000
vt 0.000000 0.000000
vt 1.000000 0.000000
vt 0.500000 0.500000
vt 0.000000 0.000000
vt 1.000000 0.000000
vt 0.000000 0.000000
vt 1.000000 0.000000
vt 1.000000 1.000000
vt 0.000000 1.000000
vt 0.500000 0.500000
vt 0.000000 0.000000
vt 1.000000 0.000000
vt 0.500000 0.500000
vt 0.000000 0.000000
vt 1.000000 0.000000
vt 0.000000 0.000000
vt 1.000000 0.000000
vt 1.000000 1.000000
vt 0.000000 1.000000
vt 0.500000 0.500000
vt 0.000000 0.000000
vt 1.000000 0.000000
vt 0.500000 0.500000
vt 0.000000 0.000000
vt 1.000000 0.000000
vt 0.000000 0.000000
vt 1.000000 0.000000
vt 1.000000 1.000000
vt 0.000000 1.000000
vt 0.500000 0.500000
vt 0.000000 0.000000
vt 1.000000 0.000000
vt 0.500000 0.500000
vt 0.000000 0.000000
vt 1.000000 0.000000
vt 0.000000 0.000000
vt 1.000000 0.000000
vt 1.000000 1.000000
vt 0.000000 1.000000
vt 0.500000 0.500000
vt 0.000000 0.000000
vt 1.000000 0.000000
vt 0.500000 0.500000
vt 0.000000 0.000000
vt 1.000000 0.000000
vt 0.000000 0.000000
vt 1.000000 0.000000
vt 1.000000 1.000000
vt 0.000000 1.000000
vt 0.500000 0.500000
vt 0.000000 0.000000
vt 1.000000 0.000000
vt 0.500000 0.500000
vt 0.000000 0.000000
vt 1.000000 0.000000
vt 0.000000 0.000000
vt 1.000000 0.000000
vt 1.000000 1.000000
vt 0.000000 1.000000
vt 0.500000 0.500000
vt 0.000000 0.000000
vt 1.000000 0.000000
vt 0.500000 0.500000
vt 0.000000 0.000000
vt 1.000000 0.000000
vt 0.000000 0.000000
vt 1.000000 0.000000
vt 1.000000 1.000000
vt 0.000000 1.000000
vt 0.500000 0.500000
vt 0.000000 0.000000
vt 1.000000 0.000000
vt 0.500000 0.500000
vt 0.000000 0.000000
vt 1.000000 0.000000
s off
usemtl models/caelum/props/stash/ca_stash_inside.png
f 1/1 2/2 3/3 4/4
f 5/5 6/6 7/7
f 8/8 9/9 10/10
f 11/11 12/12 13/13 14/14
f 15/15 16/16 17/17
f 18/18 19/19 20/20
f 21/21 22/22 23/23 24/24
f 25/25 26/26 27/27
f 28/28 29/29 30/30
f 31/31 32/32 33/33 34/34
f 35/35 36/36 37/37
f 38/38 39/39 40/40
f 41/41 42/42 43/43 44/44
f 45/45 46/46 47/47
f 48/48 49/49 50/50
f 51/51 52/52 53/53 54/54
f 55/55 56/56 57/57
f 58/58 59/59 60/60
f 61/61 62/62 63/63 64/64
f 65/65 66/66 67/67
f 68/68 69/69 70/70
f 71/71 72/72 73/73 74/74
f 75/75 76/76 77/77
f 78/78 79/79 80/80
f 81/81 82/82 83/83 84/84
f 85/85 86/86 87/87
f 88/88 89/89 90/90
f 91/91 92/92 93/93 94/94
f 95/95 96/96 97/97
f 98/98 99/99 100/100
f 101/101 102/102 103/103 104/104
f 105/105 106/106 107/107
f 108/108 109/109 110/110
f 111/111 112/112 113/113 114/114
f 115/115 116/116 117/117
f 118/118 119/119 120/120
f 121/121 122/122 123/123 124/124
f 125/125 126/126 127/127
f 128/128 129/129 130/130
f 131/131 132/132 133/133 134/134
f 135/135 136/136 137/137
f 138/138 139/139 140/140
f 141/141 142/142 143/143 144/144
f 145/145 146/146 147/147
f 148/148 149/149 150/150
f 151/151 152/152 153/153 154/154
f 155/155 156/156 157/157
f 158/158 159/159 160/160
usemtl models/caelum/props/stash/ca_stash_wood.png
f 161/161 162/162 163/163 164/164
f 165/165 166/166 167/167
f 168/168 169/169 170/170
f 171/171 172/172 173/173 174/174
f 175/175 176/176 177/177
f 178/178 179/179 180/180
f 181/181 182/182 183/183 184/184
f 185/185 186/186 187/187
f 188/188 189/189 190/190
f 191/191 192/192 193/193 194/194
f 195/195 196/196 197/197
f 198/198 199/199 200/200
f 201/201 202/202 203/203 204/204
f 205/205 206/206 207/207
f 208/208 209/209 210/210
f 211/211 212/212 213/213 214/214
f 215/215 216/216 217/217
f 218/218 219/219 220/220
f 221/221 222/222 223/223 224/224
f 225/225 226/226 227/227
f 228/228 229/229 230/230
f 231/231 232/232 233/233 234/234
f 235/235 236/236 237/237
f 238/238 239/239 240/240
f 241/241 242/242 243/243 244/244
f 245/245 246/246 247/247
f 248/248 249/249 250/250
f 251/251 252/252 253/253 254/254
f 255/255 256/256 257/257
f 258/258 259/259 260/260
f 261/261 262/262 263/263 264/264
f 265/265 266/266 267/267
f 268/268 269/269 270/270
f 271/271 272/272 273/273 274/274
f 275/275 276/276 277/277
f 278/278 279/279 280/280
f 281/281 282/282 283/283 284/284
f 285/285 286/286 287/287
f 288/288 289/289 290/290
f 291/291 292/292 293/293 294/294
f 295/295 296/296 297/297
f 298/298 299/299 300/300
f 301/301 302/302 303/303 304/304
f 305/305 306/306 307/307
f 308/308 309/309 310/310
f 311/311 312/312 313/313 314/314
f 315/315 316/316 317/317
f 318/318 319/319 320/320
f 321/321 322/322 323/323 324/324
f 325/325 326/326 327/327
f 328/328 329/329 330/330
f 331/331 332/332 333/333 334/334
f 335/335 336/336 337/337
f 338/338 339/339 340/340
f 341/341 342/342 343/343 344/344
f 345/345 346/346 347/347
f 348/348 349/349 350/350
f 351/351 352/352 353/353 354/354
f 355/355 356/356 357/357
f 358/358 359/359 360/360
f 361/361 362/362 363/363 364/364
f 365/365 366/366 367/367
f 368/368 369/369 370/370
f 371/371 372/372 373/373 374/374
f 375/375 376/376 377/377
f 378/378 379/379 380/380
f 381/381 382/382 383/383 384/384
f 385/385 386/386 387/387
f 388/388 389/389 390/390
f 391/391 392/392 393/393 394/394
f 395/395 396/396 397/397
f 398/398 399/399 400/400
f 401/401 402/402 403/403 404/404
f 405/405 406/406 407/407
f 408/408 409/409 410/410
f 411/411 412/412 413/413 414/414
f 415/415 416/416 417/417
f 418/418 419/419 420/420
f 421/421 422/422 423/423 424/424
f 425/425 426/426 427/427
f 428/428 429/429 430/430
f 431/431 432/432 433/433 434/434
f 435/435 436/436 437/437
f 438/438 439/439 440/440
f 441/441 442/442 443/443 444/444
f 445/445 446/446 447/447
f 448/448 449/449 450/450
f 451/451 452/452 453/453 454/454
f 455/455 456/456 457/457
f 458/458 459/459 460/460
f 461/461 462/462 463/463 464/464
f 465/465 466/466 467/467
f 468/468 469/469 470/470
f 471/471 472/472 473/473 474/474
f 475/475 476/476 477/477
f 478/478 479/479 480/480
