# Modelo original generado para Caelum Argenteum.
# Ejes OBJ: X ancho, Y altura, Z profundidad.
o CaelumDiningTable
v 0.000000 34.000000 0.000000
v 40.000000 34.000000 0.000000
v 39.231411 34.000000 7.803613
v 0.000000 30.000000 0.000000
v 39.231411 30.000000 7.803613
v 40.000000 30.000000 0.000000
v 40.000000 30.000000 0.000000
v 39.231411 30.000000 7.803613
v 39.231411 34.000000 7.803613
v 40.000000 34.000000 0.000000
v 0.000000 34.000000 0.000000
v 39.231411 34.000000 7.803613
v 36.955181 34.000000 15.307337
v 0.000000 30.000000 0.000000
v 36.955181 30.000000 15.307337
v 39.231411 30.000000 7.803613
v 39.231411 30.000000 7.803613
v 36.955181 30.000000 15.307337
v 36.955181 34.000000 15.307337
v 39.231411 34.000000 7.803613
v 0.000000 34.000000 0.000000
v 36.955181 34.000000 15.307337
v 33.258784 34.000000 22.222809
v 0.000000 30.000000 0.000000
v 33.258784 30.000000 22.222809
v 36.955181 30.000000 15.307337
v 36.955181 30.000000 15.307337
v 33.258784 30.000000 22.222809
v 33.258784 34.000000 22.222809
v 36.955181 34.000000 15.307337
v 0.000000 34.000000 0.000000
v 33.258784 34.000000 22.222809
v 28.284271 34.000000 28.284271
v 0.000000 30.000000 0.000000
v 28.284271 30.000000 28.284271
v 33.258784 30.000000 22.222809
v 33.258784 30.000000 22.222809
v 28.284271 30.000000 28.284271
v 28.284271 34.000000 28.284271
v 33.258784 34.000000 22.222809
v 0.000000 34.000000 0.000000
v 28.284271 34.000000 28.284271
v 22.222809 34.000000 33.258784
v 0.000000 30.000000 0.000000
v 22.222809 30.000000 33.258784
v 28.284271 30.000000 28.284271
v 28.284271 30.000000 28.284271
v 22.222809 30.000000 33.258784
v 22.222809 34.000000 33.258784
v 28.284271 34.000000 28.284271
v 0.000000 34.000000 0.000000
v 22.222809 34.000000 33.258784
v 15.307337 34.000000 36.955181
v 0.000000 30.000000 0.000000
v 15.307337 30.000000 36.955181
v 22.222809 30.000000 33.258784
v 22.222809 30.000000 33.258784
v 15.307337 30.000000 36.955181
v 15.307337 34.000000 36.955181
v 22.222809 34.000000 33.258784
v 0.000000 34.000000 0.000000
v 15.307337 34.000000 36.955181
v 7.803613 34.000000 39.231411
v 0.000000 30.000000 0.000000
v 7.803613 30.000000 39.231411
v 15.307337 30.000000 36.955181
v 15.307337 30.000000 36.955181
v 7.803613 30.000000 39.231411
v 7.803613 34.000000 39.231411
v 15.307337 34.000000 36.955181
v 0.000000 34.000000 0.000000
v 7.803613 34.000000 39.231411
v 0.000000 34.000000 40.000000
v 0.000000 30.000000 0.000000
v 0.000000 30.000000 40.000000
v 7.803613 30.000000 39.231411
v 7.803613 30.000000 39.231411
v 0.000000 30.000000 40.000000
v 0.000000 34.000000 40.000000
v 7.803613 34.000000 39.231411
v 0.000000 34.000000 0.000000
v 0.000000 34.000000 40.000000
v -7.803613 34.000000 39.231411
v 0.000000 30.000000 0.000000
v -7.803613 30.000000 39.231411
v 0.000000 30.000000 40.000000
v 0.000000 30.000000 40.000000
v -7.803613 30.000000 39.231411
v -7.803613 34.000000 39.231411
v 0.000000 34.000000 40.000000
v 0.000000 34.000000 0.000000
v -7.803613 34.000000 39.231411
v -15.307337 34.000000 36.955181
v 0.000000 30.000000 0.000000
v -15.307337 30.000000 36.955181
v -7.803613 30.000000 39.231411
v -7.803613 30.000000 39.231411
v -15.307337 30.000000 36.955181
v -15.307337 34.000000 36.955181
v -7.803613 34.000000 39.231411
v 0.000000 34.000000 0.000000
v -15.307337 34.000000 36.955181
v -22.222809 34.000000 33.258784
v 0.000000 30.000000 0.000000
v -22.222809 30.000000 33.258784
v -15.307337 30.000000 36.955181
v -15.307337 30.000000 36.955181
v -22.222809 30.000000 33.258784
v -22.222809 34.000000 33.258784
v -15.307337 34.000000 36.955181
v 0.000000 34.000000 0.000000
v -22.222809 34.000000 33.258784
v -28.284271 34.000000 28.284271
v 0.000000 30.000000 0.000000
v -28.284271 30.000000 28.284271
v -22.222809 30.000000 33.258784
v -22.222809 30.000000 33.258784
v -28.284271 30.000000 28.284271
v -28.284271 34.000000 28.284271
v -22.222809 34.000000 33.258784
v 0.000000 34.000000 0.000000
v -28.284271 34.000000 28.284271
v -33.258784 34.000000 22.222809
v 0.000000 30.000000 0.000000
v -33.258784 30.000000 22.222809
v -28.284271 30.000000 28.284271
v -28.284271 30.000000 28.284271
v -33.258784 30.000000 22.222809
v -33.258784 34.000000 22.222809
v -28.284271 34.000000 28.284271
v 0.000000 34.000000 0.000000
v -33.258784 34.000000 22.222809
v -36.955181 34.000000 15.307337
v 0.000000 30.000000 0.000000
v -36.955181 30.000000 15.307337
v -33.258784 30.000000 22.222809
v -33.258784 30.000000 22.222809
v -36.955181 30.000000 15.307337
v -36.955181 34.000000 15.307337
v -33.258784 34.000000 22.222809
v 0.000000 34.000000 0.000000
v -36.955181 34.000000 15.307337
v -39.231411 34.000000 7.803613
v 0.000000 30.000000 0.000000
v -39.231411 30.000000 7.803613
v -36.955181 30.000000 15.307337
v -36.955181 30.000000 15.307337
v -39.231411 30.000000 7.803613
v -39.231411 34.000000 7.803613
v -36.955181 34.000000 15.307337
v 0.000000 34.000000 0.000000
v -39.231411 34.000000 7.803613
v -40.000000 34.000000 0.000000
v 0.000000 30.000000 0.000000
v -40.000000 30.000000 0.000000
v -39.231411 30.000000 7.803613
v -39.231411 30.000000 7.803613
v -40.000000 30.000000 0.000000
v -40.000000 34.000000 0.000000
v -39.231411 34.000000 7.803613
v 0.000000 34.000000 0.000000
v -40.000000 34.000000 0.000000
v -39.231411 34.000000 -7.803613
v 0.000000 30.000000 0.000000
v -39.231411 30.000000 -7.803613
v -40.000000 30.000000 0.000000
v -40.000000 30.000000 0.000000
v -39.231411 30.000000 -7.803613
v -39.231411 34.000000 -7.803613
v -40.000000 34.000000 0.000000
v 0.000000 34.000000 0.000000
v -39.231411 34.000000 -7.803613
v -36.955181 34.000000 -15.307337
v 0.000000 30.000000 0.000000
v -36.955181 30.000000 -15.307337
v -39.231411 30.000000 -7.803613
v -39.231411 30.000000 -7.803613
v -36.955181 30.000000 -15.307337
v -36.955181 34.000000 -15.307337
v -39.231411 34.000000 -7.803613
v 0.000000 34.000000 0.000000
v -36.955181 34.000000 -15.307337
v -33.258784 34.000000 -22.222809
v 0.000000 30.000000 0.000000
v -33.258784 30.000000 -22.222809
v -36.955181 30.000000 -15.307337
v -36.955181 30.000000 -15.307337
v -33.258784 30.000000 -22.222809
v -33.258784 34.000000 -22.222809
v -36.955181 34.000000 -15.307337
v 0.000000 34.000000 0.000000
v -33.258784 34.000000 -22.222809
v -28.284271 34.000000 -28.284271
v 0.000000 30.000000 0.000000
v -28.284271 30.000000 -28.284271
v -33.258784 30.000000 -22.222809
v -33.258784 30.000000 -22.222809
v -28.284271 30.000000 -28.284271
v -28.284271 34.000000 -28.284271
v -33.258784 34.000000 -22.222809
v 0.000000 34.000000 0.000000
v -28.284271 34.000000 -28.284271
v -22.222809 34.000000 -33.258784
v 0.000000 30.000000 0.000000
v -22.222809 30.000000 -33.258784
v -28.284271 30.000000 -28.284271
v -28.284271 30.000000 -28.284271
v -22.222809 30.000000 -33.258784
v -22.222809 34.000000 -33.258784
v -28.284271 34.000000 -28.284271
v 0.000000 34.000000 0.000000
v -22.222809 34.000000 -33.258784
v -15.307337 34.000000 -36.955181
v 0.000000 30.000000 0.000000
v -15.307337 30.000000 -36.955181
v -22.222809 30.000000 -33.258784
v -22.222809 30.000000 -33.258784
v -15.307337 30.000000 -36.955181
v -15.307337 34.000000 -36.955181
v -22.222809 34.000000 -33.258784
v 0.000000 34.000000 0.000000
v -15.307337 34.000000 -36.955181
v -7.803613 34.000000 -39.231411
v 0.000000 30.000000 0.000000
v -7.803613 30.000000 -39.231411
v -15.307337 30.000000 -36.955181
v -15.307337 30.000000 -36.955181
v -7.803613 30.000000 -39.231411
v -7.803613 34.000000 -39.231411
v -15.307337 34.000000 -36.955181
v 0.000000 34.000000 0.000000
v -7.803613 34.000000 -39.231411
v -0.000000 34.000000 -40.000000
v 0.000000 30.000000 0.000000
v -0.000000 30.000000 -40.000000
v -7.803613 30.000000 -39.231411
v -7.803613 30.000000 -39.231411
v -0.000000 30.000000 -40.000000
v -0.000000 34.000000 -40.000000
v -7.803613 34.000000 -39.231411
v 0.000000 34.000000 0.000000
v -0.000000 34.000000 -40.000000
v 7.803613 34.000000 -39.231411
v 0.000000 30.000000 0.000000
v 7.803613 30.000000 -39.231411
v -0.000000 30.000000 -40.000000
v -0.000000 30.000000 -40.000000
v 7.803613 30.000000 -39.231411
v 7.803613 34.000000 -39.231411
v -0.000000 34.000000 -40.000000
v 0.000000 34.000000 0.000000
v 7.803613 34.000000 -39.231411
v 15.307337 34.000000 -36.955181
v 0.000000 30.000000 0.000000
v 15.307337 30.000000 -36.955181
v 7.803613 30.000000 -39.231411
v 7.803613 30.000000 -39.231411
v 15.307337 30.000000 -36.955181
v 15.307337 34.000000 -36.955181
v 7.803613 34.000000 -39.231411
v 0.000000 34.000000 0.000000
v 15.307337 34.000000 -36.955181
v 22.222809 34.000000 -33.258784
v 0.000000 30.000000 0.000000
v 22.222809 30.000000 -33.258784
v 15.307337 30.000000 -36.955181
v 15.307337 30.000000 -36.955181
v 22.222809 30.000000 -33.258784
v 22.222809 34.000000 -33.258784
v 15.307337 34.000000 -36.955181
v 0.000000 34.000000 0.000000
v 22.222809 34.000000 -33.258784
v 28.284271 34.000000 -28.284271
v 0.000000 30.000000 0.000000
v 28.284271 30.000000 -28.284271
v 22.222809 30.000000 -33.258784
v 22.222809 30.000000 -33.258784
v 28.284271 30.000000 -28.284271
v 28.284271 34.000000 -28.284271
v 22.222809 34.000000 -33.258784
v 0.000000 34.000000 0.000000
v 28.284271 34.000000 -28.284271
v 33.258784 34.000000 -22.222809
v 0.000000 30.000000 0.000000
v 33.258784 30.000000 -22.222809
v 28.284271 30.000000 -28.284271
v 28.284271 30.000000 -28.284271
v 33.258784 30.000000 -22.222809
v 33.258784 34.000000 -22.222809
v 28.284271 34.000000 -28.284271
v 0.000000 34.000000 0.000000
v 33.258784 34.000000 -22.222809
v 36.955181 34.000000 -15.307337
v 0.000000 30.000000 0.000000
v 36.955181 30.000000 -15.307337
v 33.258784 30.000000 -22.222809
v 33.258784 30.000000 -22.222809
v 36.955181 30.000000 -15.307337
v 36.955181 34.000000 -15.307337
v 33.258784 34.000000 -22.222809
v 0.000000 34.000000 0.000000
v 36.955181 34.000000 -15.307337
v 39.231411 34.000000 -7.803613
v 0.000000 30.000000 0.000000
v 39.231411 30.000000 -7.803613
v 36.955181 30.000000 -15.307337
v 36.955181 30.000000 -15.307337
v 39.231411 30.000000 -7.803613
v 39.231411 34.000000 -7.803613
v 36.955181 34.000000 -15.307337
v 0.000000 34.000000 0.000000
v 39.231411 34.000000 -7.803613
v 40.000000 34.000000 -0.000000
v 0.000000 30.000000 0.000000
v 40.000000 30.000000 -0.000000
v 39.231411 30.000000 -7.803613
v 39.231411 30.000000 -7.803613
v 40.000000 30.000000 -0.000000
v 40.000000 34.000000 -0.000000
v 39.231411 34.000000 -7.803613
v -6.000000 0.000000 6.000000
v 6.000000 0.000000 6.000000
v 6.000000 30.000000 6.000000
v -6.000000 30.000000 6.000000
v 6.000000 0.000000 -6.000000
v -6.000000 0.000000 -6.000000
v -6.000000 30.000000 -6.000000
v 6.000000 30.000000 -6.000000
v 6.000000 0.000000 6.000000
v 6.000000 0.000000 -6.000000
v 6.000000 30.000000 -6.000000
v 6.000000 30.000000 6.000000
v -6.000000 0.000000 -6.000000
v -6.000000 0.000000 6.000000
v -6.000000 30.000000 6.000000
v -6.000000 30.000000 -6.000000
v -6.000000 30.000000 6.000000
v 6.000000 30.000000 6.000000
v 6.000000 30.000000 -6.000000
v -6.000000 30.000000 -6.000000
v -6.000000 0.000000 -6.000000
v 6.000000 0.000000 -6.000000
v 6.000000 0.000000 6.000000
v -6.000000 0.000000 6.000000
v -30.000000 0.000000 5.000000
v 30.000000 0.000000 5.000000
v 30.000000 6.000000 5.000000
v -30.000000 6.000000 5.000000
v 30.000000 0.000000 -5.000000
v -30.000000 0.000000 -5.000000
v -30.000000 6.000000 -5.000000
v 30.000000 6.000000 -5.000000
v 30.000000 0.000000 5.000000
v 30.000000 0.000000 -5.000000
v 30.000000 6.000000 -5.000000
v 30.000000 6.000000 5.000000
v -30.000000 0.000000 -5.000000
v -30.000000 0.000000 5.000000
v -30.000000 6.000000 5.000000
v -30.000000 6.000000 -5.000000
v -30.000000 6.000000 5.000000
v 30.000000 6.000000 5.000000
v 30.000000 6.000000 -5.000000
v -30.000000 6.000000 -5.000000
v -30.000000 0.000000 -5.000000
v 30.000000 0.000000 -5.000000
v 30.000000 0.000000 5.000000
v -30.000000 0.000000 5.000000
v -5.000000 0.000000 30.000000
v 5.000000 0.000000 30.000000
v 5.000000 6.000000 30.000000
v -5.000000 6.000000 30.000000
v 5.000000 0.000000 -30.000000
v -5.000000 0.000000 -30.000000
v -5.000000 6.000000 -30.000000
v 5.000000 6.000000 -30.000000
v 5.000000 0.000000 30.000000
v 5.000000 0.000000 -30.000000
v 5.000000 6.000000 -30.000000
v 5.000000 6.000000 30.000000
v -5.000000 0.000000 -30.000000
v -5.000000 0.000000 30.000000
v -5.000000 6.000000 30.000000
v -5.000000 6.000000 -30.000000
v -5.000000 6.000000 30.000000
v 5.000000 6.000000 30.000000
v 5.000000 6.000000 -30.000000
v -5.000000 6.000000 -30.000000
v -5.000000 0.000000 -30.000000
v 5.000000 0.000000 -30.000000
v 5.000000 0.000000 30.000000
v -5.000000 0.000000 30.000000
vt 0.500000 0.500000
vt 0.000000 0.000000
vt 1.000000 0.000000
vt 0.500000 0.500000
vt 0.000000 0.000000
vt 1.000000 0.000000
vt 0.000000 0.000000
vt 1.000000 0.000000
vt 1.000000 1.000000
vt 0.000000 1.000000
vt 0.500000 0.500000
vt 0.000000 0.000000
vt 1.000000 0.000000
vt 0.500000 0.500000
vt 0.000000 0.000000
vt 1.000000 0.000000
vt 0.000000 0.000000
vt 1.000000 0.000000
vt 1.000000 1.000000
vt 0.000000 1.000000
vt 0.500000 0.500000
vt 0.000000 0.000000
vt 1.000000 0.000000
vt 0.500000 0.500000
vt 0.000000 0.000000
vt 1.000000 0.000000
vt 0.000000 0.000000
vt 1.000000 0.000000
vt 1.000000 1.000000
vt 0.000000 1.000000
vt 0.500000 0.500000
vt 0.000000 0.000000
vt 1.000000 0.000000
vt 0.500000 0.500000
vt 0.000000 0.000000
vt 1.000000 0.000000
vt 0.000000 0.000000
vt 1.000000 0.000000
vt 1.000000 1.000000
vt 0.000000 1.000000
vt 0.500000 0.500000
vt 0.000000 0.000000
vt 1.000000 0.000000
vt 0.500000 0.500000
vt 0.000000 0.000000
vt 1.000000 0.000000
vt 0.000000 0.000000
vt 1.000000 0.000000
vt 1.000000 1.000000
vt 0.000000 1.000000
vt 0.500000 0.500000
vt 0.000000 0.000000
vt 1.000000 0.000000
vt 0.500000 0.500000
vt 0.000000 0.000000
vt 1.000000 0.000000
vt 0.000000 0.000000
vt 1.000000 0.000000
vt 1.000000 1.000000
vt 0.000000 1.000000
vt 0.500000 0.500000
vt 0.000000 0.000000
vt 1.000000 0.000000
vt 0.500000 0.500000
vt 0.000000 0.000000
vt 1.000000 0.000000
vt 0.000000 0.000000
vt 1.000000 0.000000
vt 1.000000 1.000000
vt 0.000000 1.000000
vt 0.500000 0.500000
vt 0.000000 0.000000
vt 1.000000 0.000000
vt 0.500000 0.500000
vt 0.000000 0.000000
vt 1.000000 0.000000
vt 0.000000 0.000000
vt 1.000000 0.000000
vt 1.000000 1.000000
vt 0.000000 1.000000
vt 0.500000 0.500000
vt 0.000000 0.000000
vt 1.000000 0.000000
vt 0.500000 0.500000
vt 0.000000 0.000000
vt 1.000000 0.000000
vt 0.000000 0.000000
vt 1.000000 0.000000
vt 1.000000 1.000000
vt 0.000000 1.000000
vt 0.500000 0.500000
vt 0.000000 0.000000
vt 1.000000 0.000000
vt 0.500000 0.500000
vt 0.000000 0.000000
vt 1.000000 0.000000
vt 0.000000 0.000000
vt 1.000000 0.000000
vt 1.000000 1.000000
vt 0.000000 1.000000
vt 0.500000 0.500000
vt 0.000000 0.000000
vt 1.000000 0.000000
vt 0.500000 0.500000
vt 0.000000 0.000000
vt 1.000000 0.000000
vt 0.000000 0.000000
vt 1.000000 0.000000
vt 1.000000 1.000000
vt 0.000000 1.000000
vt 0.500000 0.500000
vt 0.000000 0.000000
vt 1.000000 0.000000
vt 0.500000 0.500000
vt 0.000000 0.000000
vt 1.000000 0.000000
vt 0.000000 0.000000
vt 1.000000 0.000000
vt 1.000000 1.000000
vt 0.000000 1.000000
vt 0.500000 0.500000
vt 0.000000 0.000000
vt 1.000000 0.000000
vt 0.500000 0.500000
vt 0.000000 0.000000
vt 1.000000 0.000000
vt 0.000000 0.000000
vt 1.000000 0.000000
vt 1.000000 1.000000
vt 0.000000 1.000000
vt 0.500000 0.500000
vt 0.000000 0.000000
vt 1.000000 0.000000
vt 0.500000 0.500000
vt 0.000000 0.000000
vt 1.000000 0.000000
vt 0.000000 0.000000
vt 1.000000 0.000000
vt 1.000000 1.000000
vt 0.000000 1.000000
vt 0.500000 0.500000
vt 0.000000 0.000000
vt 1.000000 0.000000
vt 0.500000 0.500000
vt 0.000000 0.000000
vt 1.000000 0.000000
vt 0.000000 0.000000
vt 1.000000 0.000000
vt 1.000000 1.000000
vt 0.000000 1.000000
vt 0.500000 0.500000
vt 0.000000 0.000000
vt 1.000000 0.000000
vt 0.500000 0.500000
vt 0.000000 0.000000
vt 1.000000 0.000000
vt 0.000000 0.000000
vt 1.000000 0.000000
vt 1.000000 1.000000
vt 0.000000 1.000000
vt 0.500000 0.500000
vt 0.000000 0.000000
vt 1.000000 0.000000
vt 0.500000 0.500000
vt 0.000000 0.000000
vt 1.000000 0.000000
vt 0.000000 0.000000
vt 1.000000 0.000000
vt 1.000000 1.000000
vt 0.000000 1.000000
vt 0.500000 0.500000
vt 0.000000 0.000000
vt 1.000000 0.000000
vt 0.500000 0.500000
vt 0.000000 0.000000
vt 1.000000 0.000000
vt 0.000000 0.000000
vt 1.000000 0.000000
vt 1.000000 1.000000
vt 0.000000 1.000000
vt 0.500000 0.500000
vt 0.000000 0.000000
vt 1.000000 0.000000
vt 0.500000 0.500000
vt 0.000000 0.000000
vt 1.000000 0.000000
vt 0.000000 0.000000
vt 1.000000 0.000000
vt 1.000000 1.000000
vt 0.000000 1.000000
vt 0.500000 0.500000
vt 0.000000 0.000000
vt 1.000000 0.000000
vt 0.500000 0.500000
vt 0.000000 0.000000
vt 1.000000 0.000000
vt 0.000000 0.000000
vt 1.000000 0.000000
vt 1.000000 1.000000
vt 0.000000 1.000000
vt 0.500000 0.500000
vt 0.000000 0.000000
vt 1.000000 0.000000
vt 0.500000 0.500000
vt 0.000000 0.000000
vt 1.000000 0.000000
vt 0.000000 0.000000
vt 1.000000 0.000000
vt 1.000000 1.000000
vt 0.000000 1.000000
vt 0.500000 0.500000
vt 0.000000 0.000000
vt 1.000000 0.000000
vt 0.500000 0.500000
vt 0.000000 0.000000
vt 1.000000 0.000000
vt 0.000000 0.000000
vt 1.000000 0.000000
vt 1.000000 1.000000
vt 0.000000 1.000000
vt 0.500000 0.500000
vt 0.000000 0.000000
vt 1.000000 0.000000
vt 0.500000 0.500000
vt 0.000000 0.000000
vt 1.000000 0.000000
vt 0.000000 0.000000
vt 1.000000 0.000000
vt 1.000000 1.000000
vt 0.000000 1.000000
vt 0.500000 0.500000
vt 0.000000 0.000000
vt 1.000000 0.000000
vt 0.500000 0.500000
vt 0.000000 0.000000
vt 1.000000 0.000000
vt 0.000000 0.000000
vt 1.000000 0.000000
vt 1.000000 1.000000
vt 0.000000 1.000000
vt 0.500000 0.500000
vt 0.000000 0.000000
vt 1.000000 0.000000
vt 0.500000 0.500000
vt 0.000000 0.000000
vt 1.000000 0.000000
vt 0.000000 0.000000
vt 1.000000 0.000000
vt 1.000000 1.000000
vt 0.000000 1.000000
vt 0.500000 0.500000
vt 0.000000 0.000000
vt 1.000000 0.000000
vt 0.500000 0.500000
vt 0.000000 0.000000
vt 1.000000 0.000000
vt 0.000000 0.000000
vt 1.000000 0.000000
vt 1.000000 1.000000
vt 0.000000 1.000000
vt 0.500000 0.500000
vt 0.000000 0.000000
vt 1.000000 0.000000
vt 0.500000 0.500000
vt 0.000000 0.000000
vt 1.000000 0.000000
vt 0.000000 0.000000
vt 1.000000 0.000000
vt 1.000000 1.000000
vt 0.000000 1.000000
vt 0.500000 0.500000
vt 0.000000 0.000000
vt 1.000000 0.000000
vt 0.500000 0.500000
vt 0.000000 0.000000
vt 1.000000 0.000000
vt 0.000000 0.000000
vt 1.000000 0.000000
vt 1.000000 1.000000
vt 0.000000 1.000000
vt 0.500000 0.500000
vt 0.000000 0.000000
vt 1.000000 0.000000
vt 0.500000 0.500000
vt 0.000000 0.000000
vt 1.000000 0.000000
vt 0.000000 0.000000
vt 1.000000 0.000000
vt 1.000000 1.000000
vt 0.000000 1.000000
vt 0.500000 0.500000
vt 0.000000 0.000000
vt 1.000000 0.000000
vt 0.500000 0.500000
vt 0.000000 0.000000
vt 1.000000 0.000000
vt 0.000000 0.000000
vt 1.000000 0.000000
vt 1.000000 1.000000
vt 0.000000 1.000000
vt 0.500000 0.500000
vt 0.000000 0.000000
vt 1.000000 0.000000
vt 0.500000 0.500000
vt 0.000000 0.000000
vt 1.000000 0.000000
vt 0.000000 0.000000
vt 1.000000 0.000000
vt 1.000000 1.000000
vt 0.000000 1.000000
vt 0.500000 0.500000
vt 0.000000 0.000000
vt 1.000000 0.000000
vt 0.500000 0.500000
vt 0.000000 0.000000
vt 1.000000 0.000000
vt 0.000000 0.000000
vt 1.000000 0.000000
vt 1.000000 1.000000
vt 0.000000 1.000000
vt 0.000000 0.000000
vt 1.000000 0.000000
vt 1.000000 1.000000
vt 0.000000 1.000000
vt 0.000000 0.000000
vt 1.000000 0.000000
vt 1.000000 1.000000
vt 0.000000 1.000000
vt 0.000000 0.000000
vt 1.000000 0.000000
vt 1.000000 1.000000
vt 0.000000 1.000000
vt 0.000000 0.000000
vt 1.000000 0.000000
vt 1.000000 1.000000
vt 0.000000 1.000000
vt 0.000000 0.000000
vt 1.000000 0.000000
vt 1.000000 1.000000
vt 0.000000 1.000000
vt 0.000000 0.000000
vt 1.000000 0.000000
vt 1.000000 1.000000
vt 0.000000 1.000000
vt 0.000000 0.000000
vt 1.000000 0.000000
vt 1.000000 1.000000
vt 0.000000 1.000000
vt 0.000000 0.000000
vt 1.000000 0.000000
vt 1.000000 1.000000
vt 0.000000 1.000000
vt 0.000000 0.000000
vt 1.000000 0.000000
vt 1.000000 1.000000
vt 0.000000 1.000000
vt 0.000000 0.000000
vt 1.000000 0.000000
vt 1.000000 1.000000
vt 0.000000 1.000000
vt 0.000000 0.000000
vt 1.000000 0.000000
vt 1.000000 1.000000
vt 0.000000 1.000000
vt 0.000000 0.000000
vt 1.000000 0.000000
vt 1.000000 1.000000
vt 0.000000 1.000000
vt 0.000000 0.000000
vt 1.000000 0.000000
vt 1.000000 1.000000
vt 0.000000 1.000000
vt 0.000000 0.000000
vt 1.000000 0.000000
vt 1.000000 1.000000
vt 0.000000 1.000000
vt 0.000000 0.000000
vt 1.000000 0.000000
vt 1.000000 1.000000
vt 0.000000 1.000000
vt 0.000000 0.000000
vt 1.000000 0.000000
vt 1.000000 1.000000
vt 0.000000 1.000000
vt 0.000000 0.000000
vt 1.000000 0.000000
vt 1.000000 1.000000
vt 0.000000 1.000000
vt 0.000000 0.000000
vt 1.000000 0.000000
vt 1.000000 1.000000
vt 0.000000 1.000000
s off
usemtl models/caelum/props/stash/ca_stash_wood.png
f 1/1 2/2 3/3
f 4/4 5/5 6/6
f 7/7 8/8 9/9 10/10
f 11/11 12/12 13/13
f 14/14 15/15 16/16
f 17/17 18/18 19/19 20/20
f 21/21 22/22 23/23
f 24/24 25/25 26/26
f 27/27 28/28 29/29 30/30
f 31/31 32/32 33/33
f 34/34 35/35 36/36
f 37/37 38/38 39/39 40/40
f 41/41 42/42 43/43
f 44/44 45/45 46/46
f 47/47 48/48 49/49 50/50
f 51/51 52/52 53/53
f 54/54 55/55 56/56
f 57/57 58/58 59/59 60/60
f 61/61 62/62 63/63
f 64/64 65/65 66/66
f 67/67 68/68 69/69 70/70
f 71/71 72/72 73/73
f 74/74 75/75 76/76
f 77/77 78/78 79/79 80/80
f 81/81 82/82 83/83
f 84/84 85/85 86/86
f 87/87 88/88 89/89 90/90
f 91/91 92/92 93/93
f 94/94 95/95 96/96
f 97/97 98/98 99/99 100/100
f 101/101 102/102 103/103
f 104/104 105/105 106/106
f 107/107 108/108 109/109 110/110
f 111/111 112/112 113/113
f 114/114 115/115 116/116
f 117/117 118/118 119/119 120/120
f 121/121 122/122 123/123
f 124/124 125/125 126/126
f 127/127 128/128 129/129 130/130
f 131/131 132/132 133/133
f 134/134 135/135 136/136
f 137/137 138/138 139/139 140/140
f 141/141 142/142 143/143
f 144/144 145/145 146/146
f 147/147 148/148 149/149 150/150
f 151/151 152/152 153/153
f 154/154 155/155 156/156
f 157/157 158/158 159/159 160/160
f 161/161 162/162 163/163
f 164/164 165/165 166/166
f 167/167 168/168 169/169 170/170
f 171/171 172/172 173/173
f 174/174 175/175 176/176
f 177/177 178/178 179/179 180/180
f 181/181 182/182 183/183
f 184/184 185/185 186/186
f 187/187 188/188 189/189 190/190
f 191/191 192/192 193/193
f 194/194 195/195 196/196
f 197/197 198/198 199/199 200/200
f 201/201 202/202 203/203
f 204/204 205/205 206/206
f 207/207 208/208 209/209 210/210
f 211/211 212/212 213/213
f 214/214 215/215 216/216
f 217/217 218/218 219/219 220/220
f 221/221 222/222 223/223
f 224/224 225/225 226/226
f 227/227 228/228 229/229 230/230
f 231/231 232/232 233/233
f 234/234 235/235 236/236
f 237/237 238/238 239/239 240/240
f 241/241 242/242 243/243
f 244/244 245/245 246/246
f 247/247 248/248 249/249 250/250
f 251/251 252/252 253/253
f 254/254 255/255 256/256
f 257/257 258/258 259/259 260/260
f 261/261 262/262 263/263
f 264/264 265/265 266/266
f 267/267 268/268 269/269 270/270
f 271/271 272/272 273/273
f 274/274 275/275 276/276
f 277/277 278/278 279/279 280/280
f 281/281 282/282 283/283
f 284/284 285/285 286/286
f 287/287 288/288 289/289 290/290
f 291/291 292/292 293/293
f 294/294 295/295 296/296
f 297/297 298/298 299/299 300/300
f 301/301 302/302 303/303
f 304/304 305/305 306/306
f 307/307 308/308 309/309 310/310
f 311/311 312/312 313/313
f 314/314 315/315 316/316
f 317/317 318/318 319/319 320/320
f 321/321 322/322 323/323 324/324
f 325/325 326/326 327/327 328/328
f 329/329 330/330 331/331 332/332
f 333/333 334/334 335/335 336/336
f 337/337 338/338 339/339 340/340
f 341/341 342/342 343/343 344/344
f 345/345 346/346 347/347 348/348
f 349/349 350/350 351/351 352/352
f 353/353 354/354 355/355 356/356
f 357/357 358/358 359/359 360/360
f 361/361 362/362 363/363 364/364
f 365/365 366/366 367/367 368/368
f 369/369 370/370 371/371 372/372
f 373/373 374/374 375/375 376/376
f 377/377 378/378 379/379 380/380
f 381/381 382/382 383/383 384/384
f 385/385 386/386 387/387 388/388
f 389/389 390/390 391/391 392/392
