# Original siege wood leaf adapted for MAP01 issue #36.
o ca_mansion_door
v -31.833333 0.000000 -1.280000
v 31.833333 0.000000 -1.280000
v 31.833333 0.000000 1.280000
v -31.833333 0.000000 1.280000
v 31.833333 0.000000 -1.280000
v 31.833333 120.000000 -1.280000
v 31.833333 120.000000 1.280000
v 31.833333 0.000000 1.280000
v 31.833333 120.000000 -1.280000
v -31.833333 120.000000 -1.280000
v -31.833333 120.000000 1.280000
v 31.833333 120.000000 1.280000
v -31.833333 120.000000 -1.280000
v -31.833333 0.000000 -1.280000
v -31.833333 0.000000 1.280000
v -31.833333 120.000000 1.280000
v -31.833333 120.000000 -1.280000
v 31.833333 120.000000 -1.280000
v 31.833333 0.000000 -1.280000
v -31.833333 0.000000 -1.280000
v -31.833333 0.000000 1.280000
v 31.833333 0.000000 1.280000
v 31.833333 120.000000 1.280000
v -31.833333 120.000000 1.280000
v -21.308889 0.000000 -1.440000
v -21.135556 0.000000 -1.440000
v -21.135556 0.000000 -1.360000
v -21.308889 0.000000 -1.360000
v -21.135556 0.000000 -1.440000
v -21.135556 120.000000 -1.440000
v -21.135556 120.000000 -1.360000
v -21.135556 0.000000 -1.360000
v -21.135556 120.000000 -1.440000
v -21.308889 120.000000 -1.440000
v -21.308889 120.000000 -1.360000
v -21.135556 120.000000 -1.360000
v -21.308889 120.000000 -1.440000
v -21.308889 0.000000 -1.440000
v -21.308889 0.000000 -1.360000
v -21.308889 120.000000 -1.360000
v -21.308889 120.000000 -1.440000
v -21.135556 120.000000 -1.440000
v -21.135556 0.000000 -1.440000
v -21.308889 0.000000 -1.440000
v -21.308889 0.000000 -1.360000
v -21.135556 0.000000 -1.360000
v -21.135556 120.000000 -1.360000
v -21.308889 120.000000 -1.360000
v -21.308889 0.000000 1.360000
v -21.135556 0.000000 1.360000
v -21.135556 0.000000 1.440000
v -21.308889 0.000000 1.440000
v -21.135556 0.000000 1.360000
v -21.135556 120.000000 1.360000
v -21.135556 120.000000 1.440000
v -21.135556 0.000000 1.440000
v -21.135556 120.000000 1.360000
v -21.308889 120.000000 1.360000
v -21.308889 120.000000 1.440000
v -21.135556 120.000000 1.440000
v -21.308889 120.000000 1.360000
v -21.308889 0.000000 1.360000
v -21.308889 0.000000 1.440000
v -21.308889 120.000000 1.440000
v -21.308889 120.000000 1.360000
v -21.135556 120.000000 1.360000
v -21.135556 0.000000 1.360000
v -21.308889 0.000000 1.360000
v -21.308889 0.000000 1.440000
v -21.135556 0.000000 1.440000
v -21.135556 120.000000 1.440000
v -21.308889 120.000000 1.440000
v -10.697777 0.000000 -1.440000
v -10.524444 0.000000 -1.440000
v -10.524444 0.000000 -1.360000
v -10.697777 0.000000 -1.360000
v -10.524444 0.000000 -1.440000
v -10.524444 120.000000 -1.440000
v -10.524444 120.000000 -1.360000
v -10.524444 0.000000 -1.360000
v -10.524444 120.000000 -1.440000
v -10.697777 120.000000 -1.440000
v -10.697777 120.000000 -1.360000
v -10.524444 120.000000 -1.360000
v -10.697777 120.000000 -1.440000
v -10.697777 0.000000 -1.440000
v -10.697777 0.000000 -1.360000
v -10.697777 120.000000 -1.360000
v -10.697777 120.000000 -1.440000
v -10.524444 120.000000 -1.440000
v -10.524444 0.000000 -1.440000
v -10.697777 0.000000 -1.440000
v -10.697777 0.000000 -1.360000
v -10.524444 0.000000 -1.360000
v -10.524444 120.000000 -1.360000
v -10.697777 120.000000 -1.360000
v -10.697777 0.000000 1.360000
v -10.524444 0.000000 1.360000
v -10.524444 0.000000 1.440000
v -10.697777 0.000000 1.440000
v -10.524444 0.000000 1.360000
v -10.524444 120.000000 1.360000
v -10.524444 120.000000 1.440000
v -10.524444 0.000000 1.440000
v -10.524444 120.000000 1.360000
v -10.697777 120.000000 1.360000
v -10.697777 120.000000 1.440000
v -10.524444 120.000000 1.440000
v -10.697777 120.000000 1.360000
v -10.697777 0.000000 1.360000
v -10.697777 0.000000 1.440000
v -10.697777 120.000000 1.440000
v -10.697777 120.000000 1.360000
v -10.524444 120.000000 1.360000
v -10.524444 0.000000 1.360000
v -10.697777 0.000000 1.360000
v -10.697777 0.000000 1.440000
v -10.524444 0.000000 1.440000
v -10.524444 120.000000 1.440000
v -10.697777 120.000000 1.440000
v -0.086667 0.000000 -1.440000
v 0.086667 0.000000 -1.440000
v 0.086667 0.000000 -1.360000
v -0.086667 0.000000 -1.360000
v 0.086667 0.000000 -1.440000
v 0.086667 120.000000 -1.440000
v 0.086667 120.000000 -1.360000
v 0.086667 0.000000 -1.360000
v 0.086667 120.000000 -1.440000
v -0.086667 120.000000 -1.440000
v -0.086667 120.000000 -1.360000
v 0.086667 120.000000 -1.360000
v -0.086667 120.000000 -1.440000
v -0.086667 0.000000 -1.440000
v -0.086667 0.000000 -1.360000
v -0.086667 120.000000 -1.360000
v -0.086667 120.000000 -1.440000
v 0.086667 120.000000 -1.440000
v 0.086667 0.000000 -1.440000
v -0.086667 0.000000 -1.440000
v -0.086667 0.000000 -1.360000
v 0.086667 0.000000 -1.360000
v 0.086667 120.000000 -1.360000
v -0.086667 120.000000 -1.360000
v -0.086667 0.000000 1.360000
v 0.086667 0.000000 1.360000
v 0.086667 0.000000 1.440000
v -0.086667 0.000000 1.440000
v 0.086667 0.000000 1.360000
v 0.086667 120.000000 1.360000
v 0.086667 120.000000 1.440000
v 0.086667 0.000000 1.440000
v 0.086667 120.000000 1.360000
v -0.086667 120.000000 1.360000
v -0.086667 120.000000 1.440000
v 0.086667 120.000000 1.440000
v -0.086667 120.000000 1.360000
v -0.086667 0.000000 1.360000
v -0.086667 0.000000 1.440000
v -0.086667 120.000000 1.440000
v -0.086667 120.000000 1.360000
v 0.086667 120.000000 1.360000
v 0.086667 0.000000 1.360000
v -0.086667 0.000000 1.360000
v -0.086667 0.000000 1.440000
v 0.086667 0.000000 1.440000
v 0.086667 120.000000 1.440000
v -0.086667 120.000000 1.440000
v 10.524444 0.000000 -1.440000
v 10.697777 0.000000 -1.440000
v 10.697777 0.000000 -1.360000
v 10.524444 0.000000 -1.360000
v 10.697777 0.000000 -1.440000
v 10.697777 120.000000 -1.440000
v 10.697777 120.000000 -1.360000
v 10.697777 0.000000 -1.360000
v 10.697777 120.000000 -1.440000
v 10.524444 120.000000 -1.440000
v 10.524444 120.000000 -1.360000
v 10.697777 120.000000 -1.360000
v 10.524444 120.000000 -1.440000
v 10.524444 0.000000 -1.440000
v 10.524444 0.000000 -1.360000
v 10.524444 120.000000 -1.360000
v 10.524444 120.000000 -1.440000
v 10.697777 120.000000 -1.440000
v 10.697777 0.000000 -1.440000
v 10.524444 0.000000 -1.440000
v 10.524444 0.000000 -1.360000
v 10.697777 0.000000 -1.360000
v 10.697777 120.000000 -1.360000
v 10.524444 120.000000 -1.360000
v 10.524444 0.000000 1.360000
v 10.697777 0.000000 1.360000
v 10.697777 0.000000 1.440000
v 10.524444 0.000000 1.440000
v 10.697777 0.000000 1.360000
v 10.697777 120.000000 1.360000
v 10.697777 120.000000 1.440000
v 10.697777 0.000000 1.440000
v 10.697777 120.000000 1.360000
v 10.524444 120.000000 1.360000
v 10.524444 120.000000 1.440000
v 10.697777 120.000000 1.440000
v 10.524444 120.000000 1.360000
v 10.524444 0.000000 1.360000
v 10.524444 0.000000 1.440000
v 10.524444 120.000000 1.440000
v 10.524444 120.000000 1.360000
v 10.697777 120.000000 1.360000
v 10.697777 0.000000 1.360000
v 10.524444 0.000000 1.360000
v 10.524444 0.000000 1.440000
v 10.697777 0.000000 1.440000
v 10.697777 120.000000 1.440000
v 10.524444 120.000000 1.440000
v 21.135556 0.000000 -1.440000
v 21.308889 0.000000 -1.440000
v 21.308889 0.000000 -1.360000
v 21.135556 0.000000 -1.360000
v 21.308889 0.000000 -1.440000
v 21.308889 120.000000 -1.440000
v 21.308889 120.000000 -1.360000
v 21.308889 0.000000 -1.360000
v 21.308889 120.000000 -1.440000
v 21.135556 120.000000 -1.440000
v 21.135556 120.000000 -1.360000
v 21.308889 120.000000 -1.360000
v 21.135556 120.000000 -1.440000
v 21.135556 0.000000 -1.440000
v 21.135556 0.000000 -1.360000
v 21.135556 120.000000 -1.360000
v 21.135556 120.000000 -1.440000
v 21.308889 120.000000 -1.440000
v 21.308889 0.000000 -1.440000
v 21.135556 0.000000 -1.440000
v 21.135556 0.000000 -1.360000
v 21.308889 0.000000 -1.360000
v 21.308889 120.000000 -1.360000
v 21.135556 120.000000 -1.360000
v 21.135556 0.000000 1.360000
v 21.308889 0.000000 1.360000
v 21.308889 0.000000 1.440000
v 21.135556 0.000000 1.440000
v 21.308889 0.000000 1.360000
v 21.308889 120.000000 1.360000
v 21.308889 120.000000 1.440000
v 21.308889 0.000000 1.440000
v 21.308889 120.000000 1.360000
v 21.135556 120.000000 1.360000
v 21.135556 120.000000 1.440000
v 21.308889 120.000000 1.440000
v 21.135556 120.000000 1.360000
v 21.135556 0.000000 1.360000
v 21.135556 0.000000 1.440000
v 21.135556 120.000000 1.440000
v 21.135556 120.000000 1.360000
v 21.308889 120.000000 1.360000
v 21.308889 0.000000 1.360000
v 21.135556 0.000000 1.360000
v 21.135556 0.000000 1.440000
v 21.308889 0.000000 1.440000
v 21.308889 120.000000 1.440000
v 21.135556 120.000000 1.440000
v -31.166667 16.700000 -2.380000
v 31.166667 16.700000 -2.380000
v 31.166667 16.700000 -1.280000
v -31.166667 16.700000 -1.280000
v 31.166667 16.700000 -2.380000
v 31.166667 21.700000 -2.380000
v 31.166667 21.700000 -1.280000
v 31.166667 16.700000 -1.280000
v 31.166667 21.700000 -2.380000
v -31.166667 21.700000 -2.380000
v -31.166667 21.700000 -1.280000
v 31.166667 21.700000 -1.280000
v -31.166667 21.700000 -2.380000
v -31.166667 16.700000 -2.380000
v -31.166667 16.700000 -1.280000
v -31.166667 21.700000 -1.280000
v -31.166667 21.700000 -2.380000
v 31.166667 21.700000 -2.380000
v 31.166667 16.700000 -2.380000
v -31.166667 16.700000 -2.380000
v -31.166667 16.700000 -1.280000
v 31.166667 16.700000 -1.280000
v 31.166667 21.700000 -1.280000
v -31.166667 21.700000 -1.280000
v -31.166667 16.700000 1.280000
v 31.166667 16.700000 1.280000
v 31.166667 16.700000 2.380000
v -31.166667 16.700000 2.380000
v 31.166667 16.700000 1.280000
v 31.166667 21.700000 1.280000
v 31.166667 21.700000 2.380000
v 31.166667 16.700000 2.380000
v 31.166667 21.700000 1.280000
v -31.166667 21.700000 1.280000
v -31.166667 21.700000 2.380000
v 31.166667 21.700000 2.380000
v -31.166667 21.700000 1.280000
v -31.166667 16.700000 1.280000
v -31.166667 16.700000 2.380000
v -31.166667 21.700000 2.380000
v -31.166667 21.700000 1.280000
v 31.166667 21.700000 1.280000
v 31.166667 16.700000 1.280000
v -31.166667 16.700000 1.280000
v -31.166667 16.700000 2.380000
v 31.166667 16.700000 2.380000
v 31.166667 21.700000 2.380000
v -31.166667 21.700000 2.380000
v -31.166667 57.500000 -2.380000
v 31.166667 57.500000 -2.380000
v 31.166667 57.500000 -1.280000
v -31.166667 57.500000 -1.280000
v 31.166667 57.500000 -2.380000
v 31.166667 62.500000 -2.380000
v 31.166667 62.500000 -1.280000
v 31.166667 57.500000 -1.280000
v 31.166667 62.500000 -2.380000
v -31.166667 62.500000 -2.380000
v -31.166667 62.500000 -1.280000
v 31.166667 62.500000 -1.280000
v -31.166667 62.500000 -2.380000
v -31.166667 57.500000 -2.380000
v -31.166667 57.500000 -1.280000
v -31.166667 62.500000 -1.280000
v -31.166667 62.500000 -2.380000
v 31.166667 62.500000 -2.380000
v 31.166667 57.500000 -2.380000
v -31.166667 57.500000 -2.380000
v -31.166667 57.500000 -1.280000
v 31.166667 57.500000 -1.280000
v 31.166667 62.500000 -1.280000
v -31.166667 62.500000 -1.280000
v -31.166667 57.500000 1.280000
v 31.166667 57.500000 1.280000
v 31.166667 57.500000 2.380000
v -31.166667 57.500000 2.380000
v 31.166667 57.500000 1.280000
v 31.166667 62.500000 1.280000
v 31.166667 62.500000 2.380000
v 31.166667 57.500000 2.380000
v 31.166667 62.500000 1.280000
v -31.166667 62.500000 1.280000
v -31.166667 62.500000 2.380000
v 31.166667 62.500000 2.380000
v -31.166667 62.500000 1.280000
v -31.166667 57.500000 1.280000
v -31.166667 57.500000 2.380000
v -31.166667 62.500000 2.380000
v -31.166667 62.500000 1.280000
v 31.166667 62.500000 1.280000
v 31.166667 57.500000 1.280000
v -31.166667 57.500000 1.280000
v -31.166667 57.500000 2.380000
v 31.166667 57.500000 2.380000
v 31.166667 62.500000 2.380000
v -31.166667 62.500000 2.380000
v -31.166667 98.300000 -2.380000
v 31.166667 98.300000 -2.380000
v 31.166667 98.300000 -1.280000
v -31.166667 98.300000 -1.280000
v 31.166667 98.300000 -2.380000
v 31.166667 103.300000 -2.380000
v 31.166667 103.300000 -1.280000
v 31.166667 98.300000 -1.280000
v 31.166667 103.300000 -2.380000
v -31.166667 103.300000 -2.380000
v -31.166667 103.300000 -1.280000
v 31.166667 103.300000 -1.280000
v -31.166667 103.300000 -2.380000
v -31.166667 98.300000 -2.380000
v -31.166667 98.300000 -1.280000
v -31.166667 103.300000 -1.280000
v -31.166667 103.300000 -2.380000
v 31.166667 103.300000 -2.380000
v 31.166667 98.300000 -2.380000
v -31.166667 98.300000 -2.380000
v -31.166667 98.300000 -1.280000
v 31.166667 98.300000 -1.280000
v 31.166667 103.300000 -1.280000
v -31.166667 103.300000 -1.280000
v -31.166667 98.300000 1.280000
v 31.166667 98.300000 1.280000
v 31.166667 98.300000 2.380000
v -31.166667 98.300000 2.380000
v 31.166667 98.300000 1.280000
v 31.166667 103.300000 1.280000
v 31.166667 103.300000 2.380000
v 31.166667 98.300000 2.380000
v 31.166667 103.300000 1.280000
v -31.166667 103.300000 1.280000
v -31.166667 103.300000 2.380000
v 31.166667 103.300000 2.380000
v -31.166667 103.300000 1.280000
v -31.166667 98.300000 1.280000
v -31.166667 98.300000 2.380000
v -31.166667 103.300000 2.380000
v -31.166667 103.300000 1.280000
v 31.166667 103.300000 1.280000
v 31.166667 98.300000 1.280000
v -31.166667 98.300000 1.280000
v -31.166667 98.300000 2.380000
v 31.166667 98.300000 2.380000
v 31.166667 103.300000 2.380000
v -31.166667 103.300000 2.380000
v 24.891627 21.390600 -2.380000
v 28.441707 23.609400 -2.380000
v 28.441707 23.609400 -1.380000
v 24.891627 21.390600 -1.380000
v -28.441707 96.390600 -1.380000
v -24.891627 98.609400 -1.380000
v -24.891627 98.609400 -2.380000
v -28.441707 96.390600 -2.380000
v 24.891627 21.390600 -1.380000
v 28.441707 23.609400 -1.380000
v -24.891627 98.609400 -1.380000
v -28.441707 96.390600 -1.380000
v 28.441707 23.609400 -1.380000
v 28.441707 23.609400 -2.380000
v -24.891627 98.609400 -2.380000
v -24.891627 98.609400 -1.380000
v 28.441707 23.609400 -2.380000
v 24.891627 21.390600 -2.380000
v -28.441707 96.390600 -2.380000
v -24.891627 98.609400 -2.380000
v 24.891627 21.390600 -2.380000
v 24.891627 21.390600 -1.380000
v -28.441707 96.390600 -1.380000
v -28.441707 96.390600 -2.380000
v 24.891627 21.390600 1.380000
v 28.441707 23.609400 1.380000
v 28.441707 23.609400 2.380000
v 24.891627 21.390600 2.380000
v -28.441707 96.390600 2.380000
v -24.891627 98.609400 2.380000
v -24.891627 98.609400 1.380000
v -28.441707 96.390600 1.380000
v 24.891627 21.390600 2.380000
v 28.441707 23.609400 2.380000
v -24.891627 98.609400 2.380000
v -28.441707 96.390600 2.380000
v 28.441707 23.609400 2.380000
v 28.441707 23.609400 1.380000
v -24.891627 98.609400 1.380000
v -24.891627 98.609400 2.380000
v 28.441707 23.609400 1.380000
v 24.891627 21.390600 1.380000
v -28.441707 96.390600 1.380000
v -24.891627 98.609400 1.380000
v 24.891627 21.390600 1.380000
v 24.891627 21.390600 2.380000
v -28.441707 96.390600 2.380000
v -28.441707 96.390600 1.380000
v -30.266667 15.450000 -1.300000
v -31.133333 15.450000 -1.125833
v -31.133333 22.950000 -1.125833
v -30.266667 22.950000 -1.300000
v -30.266667 15.450000 0.000000
v -31.133333 15.450000 -1.125833
v -30.266667 15.450000 -1.300000
v -30.266667 22.950000 0.000000
v -30.266667 22.950000 -1.300000
v -31.133333 22.950000 -1.125833
v -31.133333 15.450000 -1.125833
v -31.767777 15.450000 -0.650000
v -31.767777 22.950000 -0.650000
v -31.133333 22.950000 -1.125833
v -30.266667 15.450000 0.000000
v -31.767777 15.450000 -0.650000
v -31.133333 15.450000 -1.125833
v -30.266667 22.950000 0.000000
v -31.133333 22.950000 -1.125833
v -31.767777 22.950000 -0.650000
v -31.767777 15.450000 -0.650000
v -32.000000 15.450000 -0.000000
v -32.000000 22.950000 -0.000000
v -31.767777 22.950000 -0.650000
v -30.266667 15.450000 0.000000
v -32.000000 15.450000 -0.000000
v -31.767777 15.450000 -0.650000
v -30.266667 22.950000 0.000000
v -31.767777 22.950000 -0.650000
v -32.000000 22.950000 -0.000000
v -32.000000 15.450000 -0.000000
v -31.767777 15.450000 0.650000
v -31.767777 22.950000 0.650000
v -32.000000 22.950000 -0.000000
v -30.266667 15.450000 0.000000
v -31.767777 15.450000 0.650000
v -32.000000 15.450000 -0.000000
v -30.266667 22.950000 0.000000
v -32.000000 22.950000 -0.000000
v -31.767777 22.950000 0.650000
v -31.767777 15.450000 0.650000
v -31.133333 15.450000 1.125833
v -31.133333 22.950000 1.125833
v -31.767777 22.950000 0.650000
v -30.266667 15.450000 0.000000
v -31.133333 15.450000 1.125833
v -31.767777 15.450000 0.650000
v -30.266667 22.950000 0.000000
v -31.767777 22.950000 0.650000
v -31.133333 22.950000 1.125833
v -31.133333 15.450000 1.125833
v -30.266667 15.450000 1.300000
v -30.266667 22.950000 1.300000
v -31.133333 22.950000 1.125833
v -30.266667 15.450000 0.000000
v -30.266667 15.450000 1.300000
v -31.133333 15.450000 1.125833
v -30.266667 22.950000 0.000000
v -31.133333 22.950000 1.125833
v -30.266667 22.950000 1.300000
v -30.266667 15.450000 1.300000
v -29.400000 15.450000 1.125833
v -29.400000 22.950000 1.125833
v -30.266667 22.950000 1.300000
v -30.266667 15.450000 0.000000
v -29.400000 15.450000 1.125833
v -30.266667 15.450000 1.300000
v -30.266667 22.950000 0.000000
v -30.266667 22.950000 1.300000
v -29.400000 22.950000 1.125833
v -29.400000 15.450000 1.125833
v -28.765556 15.450000 0.650000
v -28.765556 22.950000 0.650000
v -29.400000 22.950000 1.125833
v -30.266667 15.450000 0.000000
v -28.765556 15.450000 0.650000
v -29.400000 15.450000 1.125833
v -30.266667 22.950000 0.000000
v -29.400000 22.950000 1.125833
v -28.765556 22.950000 0.650000
v -28.765556 15.450000 0.650000
v -28.533333 15.450000 0.000000
v -28.533333 22.950000 0.000000
v -28.765556 22.950000 0.650000
v -30.266667 15.450000 0.000000
v -28.533333 15.450000 0.000000
v -28.765556 15.450000 0.650000
v -30.266667 22.950000 0.000000
v -28.765556 22.950000 0.650000
v -28.533333 22.950000 0.000000
v -28.533333 15.450000 0.000000
v -28.765556 15.450000 -0.650000
v -28.765556 22.950000 -0.650000
v -28.533333 22.950000 0.000000
v -30.266667 15.450000 0.000000
v -28.765556 15.450000 -0.650000
v -28.533333 15.450000 0.000000
v -30.266667 22.950000 0.000000
v -28.533333 22.950000 0.000000
v -28.765556 22.950000 -0.650000
v -28.765556 15.450000 -0.650000
v -29.400000 15.450000 -1.125833
v -29.400000 22.950000 -1.125833
v -28.765556 22.950000 -0.650000
v -30.266667 15.450000 0.000000
v -29.400000 15.450000 -1.125833
v -28.765556 15.450000 -0.650000
v -30.266667 22.950000 0.000000
v -28.765556 22.950000 -0.650000
v -29.400000 22.950000 -1.125833
v -29.400000 15.450000 -1.125833
v -30.266667 15.450000 -1.300000
v -30.266667 22.950000 -1.300000
v -29.400000 22.950000 -1.125833
v -30.266667 15.450000 0.000000
v -30.266667 15.450000 -1.300000
v -29.400000 15.450000 -1.125833
v -30.266667 22.950000 0.000000
v -29.400000 22.950000 -1.125833
v -30.266667 22.950000 -1.300000
v -30.266667 97.050000 -1.300000
v -31.133333 97.050000 -1.125833
v -31.133333 104.550000 -1.125833
v -30.266667 104.550000 -1.300000
v -30.266667 97.050000 0.000000
v -31.133333 97.050000 -1.125833
v -30.266667 97.050000 -1.300000
v -30.266667 104.550000 0.000000
v -30.266667 104.550000 -1.300000
v -31.133333 104.550000 -1.125833
v -31.133333 97.050000 -1.125833
v -31.767777 97.050000 -0.650000
v -31.767777 104.550000 -0.650000
v -31.133333 104.550000 -1.125833
v -30.266667 97.050000 0.000000
v -31.767777 97.050000 -0.650000
v -31.133333 97.050000 -1.125833
v -30.266667 104.550000 0.000000
v -31.133333 104.550000 -1.125833
v -31.767777 104.550000 -0.650000
v -31.767777 97.050000 -0.650000
v -32.000000 97.050000 -0.000000
v -32.000000 104.550000 -0.000000
v -31.767777 104.550000 -0.650000
v -30.266667 97.050000 0.000000
v -32.000000 97.050000 -0.000000
v -31.767777 97.050000 -0.650000
v -30.266667 104.550000 0.000000
v -31.767777 104.550000 -0.650000
v -32.000000 104.550000 -0.000000
v -32.000000 97.050000 -0.000000
v -31.767777 97.050000 0.650000
v -31.767777 104.550000 0.650000
v -32.000000 104.550000 -0.000000
v -30.266667 97.050000 0.000000
v -31.767777 97.050000 0.650000
v -32.000000 97.050000 -0.000000
v -30.266667 104.550000 0.000000
v -32.000000 104.550000 -0.000000
v -31.767777 104.550000 0.650000
v -31.767777 97.050000 0.650000
v -31.133333 97.050000 1.125833
v -31.133333 104.550000 1.125833
v -31.767777 104.550000 0.650000
v -30.266667 97.050000 0.000000
v -31.133333 97.050000 1.125833
v -31.767777 97.050000 0.650000
v -30.266667 104.550000 0.000000
v -31.767777 104.550000 0.650000
v -31.133333 104.550000 1.125833
v -31.133333 97.050000 1.125833
v -30.266667 97.050000 1.300000
v -30.266667 104.550000 1.300000
v -31.133333 104.550000 1.125833
v -30.266667 97.050000 0.000000
v -30.266667 97.050000 1.300000
v -31.133333 97.050000 1.125833
v -30.266667 104.550000 0.000000
v -31.133333 104.550000 1.125833
v -30.266667 104.550000 1.300000
v -30.266667 97.050000 1.300000
v -29.400000 97.050000 1.125833
v -29.400000 104.550000 1.125833
v -30.266667 104.550000 1.300000
v -30.266667 97.050000 0.000000
v -29.400000 97.050000 1.125833
v -30.266667 97.050000 1.300000
v -30.266667 104.550000 0.000000
v -30.266667 104.550000 1.300000
v -29.400000 104.550000 1.125833
v -29.400000 97.050000 1.125833
v -28.765556 97.050000 0.650000
v -28.765556 104.550000 0.650000
v -29.400000 104.550000 1.125833
v -30.266667 97.050000 0.000000
v -28.765556 97.050000 0.650000
v -29.400000 97.050000 1.125833
v -30.266667 104.550000 0.000000
v -29.400000 104.550000 1.125833
v -28.765556 104.550000 0.650000
v -28.765556 97.050000 0.650000
v -28.533333 97.050000 0.000000
v -28.533333 104.550000 0.000000
v -28.765556 104.550000 0.650000
v -30.266667 97.050000 0.000000
v -28.533333 97.050000 0.000000
v -28.765556 97.050000 0.650000
v -30.266667 104.550000 0.000000
v -28.765556 104.550000 0.650000
v -28.533333 104.550000 0.000000
v -28.533333 97.050000 0.000000
v -28.765556 97.050000 -0.650000
v -28.765556 104.550000 -0.650000
v -28.533333 104.550000 0.000000
v -30.266667 97.050000 0.000000
v -28.765556 97.050000 -0.650000
v -28.533333 97.050000 0.000000
v -30.266667 104.550000 0.000000
v -28.533333 104.550000 0.000000
v -28.765556 104.550000 -0.650000
v -28.765556 97.050000 -0.650000
v -29.400000 97.050000 -1.125833
v -29.400000 104.550000 -1.125833
v -28.765556 104.550000 -0.650000
v -30.266667 97.050000 0.000000
v -29.400000 97.050000 -1.125833
v -28.765556 97.050000 -0.650000
v -30.266667 104.550000 0.000000
v -28.765556 104.550000 -0.650000
v -29.400000 104.550000 -1.125833
v -29.400000 97.050000 -1.125833
v -30.266667 97.050000 -1.300000
v -30.266667 104.550000 -1.300000
v -29.400000 104.550000 -1.125833
v -30.266667 97.050000 0.000000
v -30.266667 97.050000 -1.300000
v -29.400000 97.050000 -1.125833
v -30.266667 104.550000 0.000000
v -29.400000 104.550000 -1.125833
v -30.266667 104.550000 -1.300000
v 23.333333 52.500000 -4.680000
v 27.333333 52.500000 -4.680000
v 27.333333 52.500000 -1.680000
v 23.333333 52.500000 -1.680000
v 27.333333 52.500000 -4.680000
v 27.333333 55.000000 -4.680000
v 27.333333 55.000000 -1.680000
v 27.333333 52.500000 -1.680000
v 27.333333 55.000000 -4.680000
v 23.333333 55.000000 -4.680000
v 23.333333 55.000000 -1.680000
v 27.333333 55.000000 -1.680000
v 23.333333 55.000000 -4.680000
v 23.333333 52.500000 -4.680000
v 23.333333 52.500000 -1.680000
v 23.333333 55.000000 -1.680000
v 23.333333 55.000000 -4.680000
v 27.333333 55.000000 -4.680000
v 27.333333 52.500000 -4.680000
v 23.333333 52.500000 -4.680000
v 23.333333 52.500000 -1.680000
v 27.333333 52.500000 -1.680000
v 27.333333 55.000000 -1.680000
v 23.333333 55.000000 -1.680000
v 23.333333 63.750000 -4.680000
v 27.333333 63.750000 -4.680000
v 27.333333 63.750000 -1.680000
v 23.333333 63.750000 -1.680000
v 27.333333 63.750000 -4.680000
v 27.333333 66.250000 -4.680000
v 27.333333 66.250000 -1.680000
v 27.333333 63.750000 -1.680000
v 27.333333 66.250000 -4.680000
v 23.333333 66.250000 -4.680000
v 23.333333 66.250000 -1.680000
v 27.333333 66.250000 -1.680000
v 23.333333 66.250000 -4.680000
v 23.333333 63.750000 -4.680000
v 23.333333 63.750000 -1.680000
v 23.333333 66.250000 -1.680000
v 23.333333 66.250000 -4.680000
v 27.333333 66.250000 -4.680000
v 27.333333 63.750000 -4.680000
v 23.333333 63.750000 -4.680000
v 23.333333 63.750000 -1.680000
v 27.333333 63.750000 -1.680000
v 27.333333 66.250000 -1.680000
v 23.333333 66.250000 -1.680000
v 24.333333 53.125000 -5.430000
v 26.333333 53.125000 -5.430000
v 26.333333 53.125000 -3.930000
v 24.333333 53.125000 -3.930000
v 26.333333 53.125000 -5.430000
v 26.333333 65.625000 -5.430000
v 26.333333 65.625000 -3.930000
v 26.333333 53.125000 -3.930000
v 26.333333 65.625000 -5.430000
v 24.333333 65.625000 -5.430000
v 24.333333 65.625000 -3.930000
v 26.333333 65.625000 -3.930000
v 24.333333 65.625000 -5.430000
v 24.333333 53.125000 -5.430000
v 24.333333 53.125000 -3.930000
v 24.333333 65.625000 -3.930000
v 24.333333 65.625000 -5.430000
v 26.333333 65.625000 -5.430000
v 26.333333 53.125000 -5.430000
v 24.333333 53.125000 -5.430000
v 24.333333 53.125000 -3.930000
v 26.333333 53.125000 -3.930000
v 26.333333 65.625000 -3.930000
v 24.333333 65.625000 -3.930000
v 23.333333 52.500000 1.680000
v 27.333333 52.500000 1.680000
v 27.333333 52.500000 4.680000
v 23.333333 52.500000 4.680000
v 27.333333 52.500000 1.680000
v 27.333333 55.000000 1.680000
v 27.333333 55.000000 4.680000
v 27.333333 52.500000 4.680000
v 27.333333 55.000000 1.680000
v 23.333333 55.000000 1.680000
v 23.333333 55.000000 4.680000
v 27.333333 55.000000 4.680000
v 23.333333 55.000000 1.680000
v 23.333333 52.500000 1.680000
v 23.333333 52.500000 4.680000
v 23.333333 55.000000 4.680000
v 23.333333 55.000000 1.680000
v 27.333333 55.000000 1.680000
v 27.333333 52.500000 1.680000
v 23.333333 52.500000 1.680000
v 23.333333 52.500000 4.680000
v 27.333333 52.500000 4.680000
v 27.333333 55.000000 4.680000
v 23.333333 55.000000 4.680000
v 23.333333 63.750000 1.680000
v 27.333333 63.750000 1.680000
v 27.333333 63.750000 4.680000
v 23.333333 63.750000 4.680000
v 27.333333 63.750000 1.680000
v 27.333333 66.250000 1.680000
v 27.333333 66.250000 4.680000
v 27.333333 63.750000 4.680000
v 27.333333 66.250000 1.680000
v 23.333333 66.250000 1.680000
v 23.333333 66.250000 4.680000
v 27.333333 66.250000 4.680000
v 23.333333 66.250000 1.680000
v 23.333333 63.750000 1.680000
v 23.333333 63.750000 4.680000
v 23.333333 66.250000 4.680000
v 23.333333 66.250000 1.680000
v 27.333333 66.250000 1.680000
v 27.333333 63.750000 1.680000
v 23.333333 63.750000 1.680000
v 23.333333 63.750000 4.680000
v 27.333333 63.750000 4.680000
v 27.333333 66.250000 4.680000
v 23.333333 66.250000 4.680000
v 24.333333 53.125000 3.930000
v 26.333333 53.125000 3.930000
v 26.333333 53.125000 5.430000
v 24.333333 53.125000 5.430000
v 26.333333 53.125000 3.930000
v 26.333333 65.625000 3.930000
v 26.333333 65.625000 5.430000
v 26.333333 53.125000 5.430000
v 26.333333 65.625000 3.930000
v 24.333333 65.625000 3.930000
v 24.333333 65.625000 5.430000
v 26.333333 65.625000 5.430000
v 24.333333 65.625000 3.930000
v 24.333333 53.125000 3.930000
v 24.333333 53.125000 5.430000
v 24.333333 65.625000 5.430000
v 24.333333 65.625000 3.930000
v 26.333333 65.625000 3.930000
v 26.333333 53.125000 3.930000
v 24.333333 53.125000 3.930000
v 24.333333 53.125000 5.430000
v 26.333333 53.125000 5.430000
v 26.333333 65.625000 5.430000
v 24.333333 65.625000 5.430000
vt 0.000000 0.000000
vt 1.000000 0.000000
vt 1.000000 1.000000
vt 0.000000 1.000000
vt 0.000000 0.000000
vt 1.000000 0.000000
vt 1.000000 1.000000
vt 0.000000 1.000000
vt 0.000000 0.000000
vt 1.000000 0.000000
vt 1.000000 1.000000
vt 0.000000 1.000000
vt 0.000000 0.000000
vt 1.000000 0.000000
vt 1.000000 1.000000
vt 0.000000 1.000000
vt 0.000000 0.000000
vt 1.000000 0.000000
vt 1.000000 1.000000
vt 0.000000 1.000000
vt 0.000000 0.000000
vt 1.000000 0.000000
vt 1.000000 1.000000
vt 0.000000 1.000000
vt 0.000000 0.000000
vt 1.000000 0.000000
vt 1.000000 1.000000
vt 0.000000 1.000000
vt 0.000000 0.000000
vt 1.000000 0.000000
vt 1.000000 1.000000
vt 0.000000 1.000000
vt 0.000000 0.000000
vt 1.000000 0.000000
vt 1.000000 1.000000
vt 0.000000 1.000000
vt 0.000000 0.000000
vt 1.000000 0.000000
vt 1.000000 1.000000
vt 0.000000 1.000000
vt 0.000000 0.000000
vt 1.000000 0.000000
vt 1.000000 1.000000
vt 0.000000 1.000000
vt 0.000000 0.000000
vt 1.000000 0.000000
vt 1.000000 1.000000
vt 0.000000 1.000000
vt 0.000000 0.000000
vt 1.000000 0.000000
vt 1.000000 1.000000
vt 0.000000 1.000000
vt 0.000000 0.000000
vt 1.000000 0.000000
vt 1.000000 1.000000
vt 0.000000 1.000000
vt 0.000000 0.000000
vt 1.000000 0.000000
vt 1.000000 1.000000
vt 0.000000 1.000000
vt 0.000000 0.000000
vt 1.000000 0.000000
vt 1.000000 1.000000
vt 0.000000 1.000000
vt 0.000000 0.000000
vt 1.000000 0.000000
vt 1.000000 1.000000
vt 0.000000 1.000000
vt 0.000000 0.000000
vt 1.000000 0.000000
vt 1.000000 1.000000
vt 0.000000 1.000000
vt 0.000000 0.000000
vt 1.000000 0.000000
vt 1.000000 1.000000
vt 0.000000 1.000000
vt 0.000000 0.000000
vt 1.000000 0.000000
vt 1.000000 1.000000
vt 0.000000 1.000000
vt 0.000000 0.000000
vt 1.000000 0.000000
vt 1.000000 1.000000
vt 0.000000 1.000000
vt 0.000000 0.000000
vt 1.000000 0.000000
vt 1.000000 1.000000
vt 0.000000 1.000000
vt 0.000000 0.000000
vt 1.000000 0.000000
vt 1.000000 1.000000
vt 0.000000 1.000000
vt 0.000000 0.000000
vt 1.000000 0.000000
vt 1.000000 1.000000
vt 0.000000 1.000000
vt 0.000000 0.000000
vt 1.000000 0.000000
vt 1.000000 1.000000
vt 0.000000 1.000000
vt 0.000000 0.000000
vt 1.000000 0.000000
vt 1.000000 1.000000
vt 0.000000 1.000000
vt 0.000000 0.000000
vt 1.000000 0.000000
vt 1.000000 1.000000
vt 0.000000 1.000000
vt 0.000000 0.000000
vt 1.000000 0.000000
vt 1.000000 1.000000
vt 0.000000 1.000000
vt 0.000000 0.000000
vt 1.000000 0.000000
vt 1.000000 1.000000
vt 0.000000 1.000000
vt 0.000000 0.000000
vt 1.000000 0.000000
vt 1.000000 1.000000
vt 0.000000 1.000000
vt 0.000000 0.000000
vt 1.000000 0.000000
vt 1.000000 1.000000
vt 0.000000 1.000000
vt 0.000000 0.000000
vt 1.000000 0.000000
vt 1.000000 1.000000
vt 0.000000 1.000000
vt 0.000000 0.000000
vt 1.000000 0.000000
vt 1.000000 1.000000
vt 0.000000 1.000000
vt 0.000000 0.000000
vt 1.000000 0.000000
vt 1.000000 1.000000
vt 0.000000 1.000000
vt 0.000000 0.000000
vt 1.000000 0.000000
vt 1.000000 1.000000
vt 0.000000 1.000000
vt 0.000000 0.000000
vt 1.000000 0.000000
vt 1.000000 1.000000
vt 0.000000 1.000000
vt 0.000000 0.000000
vt 1.000000 0.000000
vt 1.000000 1.000000
vt 0.000000 1.000000
vt 0.000000 0.000000
vt 1.000000 0.000000
vt 1.000000 1.000000
vt 0.000000 1.000000
vt 0.000000 0.000000
vt 1.000000 0.000000
vt 1.000000 1.000000
vt 0.000000 1.000000
vt 0.000000 0.000000
vt 1.000000 0.000000
vt 1.000000 1.000000
vt 0.000000 1.000000
vt 0.000000 0.000000
vt 1.000000 0.000000
vt 1.000000 1.000000
vt 0.000000 1.000000
vt 0.000000 0.000000
vt 1.000000 0.000000
vt 1.000000 1.000000
vt 0.000000 1.000000
vt 0.000000 0.000000
vt 1.000000 0.000000
vt 1.000000 1.000000
vt 0.000000 1.000000
vt 0.000000 0.000000
vt 1.000000 0.000000
vt 1.000000 1.000000
vt 0.000000 1.000000
vt 0.000000 0.000000
vt 1.000000 0.000000
vt 1.000000 1.000000
vt 0.000000 1.000000
vt 0.000000 0.000000
vt 1.000000 0.000000
vt 1.000000 1.000000
vt 0.000000 1.000000
vt 0.000000 0.000000
vt 1.000000 0.000000
vt 1.000000 1.000000
vt 0.000000 1.000000
vt 0.000000 0.000000
vt 1.000000 0.000000
vt 1.000000 1.000000
vt 0.000000 1.000000
vt 0.000000 0.000000
vt 1.000000 0.000000
vt 1.000000 1.000000
vt 0.000000 1.000000
vt 0.000000 0.000000
vt 1.000000 0.000000
vt 1.000000 1.000000
vt 0.000000 1.000000
vt 0.000000 0.000000
vt 1.000000 0.000000
vt 1.000000 1.000000
vt 0.000000 1.000000
vt 0.000000 0.000000
vt 1.000000 0.000000
vt 1.000000 1.000000
vt 0.000000 1.000000
vt 0.000000 0.000000
vt 1.000000 0.000000
vt 1.000000 1.000000
vt 0.000000 1.000000
vt 0.000000 0.000000
vt 1.000000 0.000000
vt 1.000000 1.000000
vt 0.000000 1.000000
vt 0.000000 0.000000
vt 1.000000 0.000000
vt 1.000000 1.000000
vt 0.000000 1.000000
vt 0.000000 0.000000
vt 1.000000 0.000000
vt 1.000000 1.000000
vt 0.000000 1.000000
vt 0.000000 0.000000
vt 1.000000 0.000000
vt 1.000000 1.000000
vt 0.000000 1.000000
vt 0.000000 0.000000
vt 1.000000 0.000000
vt 1.000000 1.000000
vt 0.000000 1.000000
vt 0.000000 0.000000
vt 1.000000 0.000000
vt 1.000000 1.000000
vt 0.000000 1.000000
vt 0.000000 0.000000
vt 1.000000 0.000000
vt 1.000000 1.000000
vt 0.000000 1.000000
vt 0.000000 0.000000
vt 1.000000 0.000000
vt 1.000000 1.000000
vt 0.000000 1.000000
vt 0.000000 0.000000
vt 1.000000 0.000000
vt 1.000000 1.000000
vt 0.000000 1.000000
vt 0.000000 0.000000
vt 1.000000 0.000000
vt 1.000000 1.000000
vt 0.000000 1.000000
vt 0.000000 0.000000
vt 1.000000 0.000000
vt 1.000000 1.000000
vt 0.000000 1.000000
vt 0.000000 0.000000
vt 1.000000 0.000000
vt 1.000000 1.000000
vt 0.000000 1.000000
vt 0.000000 0.000000
vt 1.000000 0.000000
vt 1.000000 1.000000
vt 0.000000 1.000000
vt 0.000000 0.000000
vt 1.000000 0.000000
vt 1.000000 1.000000
vt 0.000000 1.000000
vt 0.000000 0.000000
vt 1.000000 0.000000
vt 1.000000 1.000000
vt 0.000000 1.000000
vt 0.000000 0.000000
vt 1.000000 0.000000
vt 1.000000 1.000000
vt 0.000000 1.000000
vt 0.000000 0.000000
vt 1.000000 0.000000
vt 1.000000 1.000000
vt 0.000000 1.000000
vt 0.000000 0.000000
vt 1.000000 0.000000
vt 1.000000 1.000000
vt 0.000000 1.000000
vt 0.000000 0.000000
vt 1.000000 0.000000
vt 1.000000 1.000000
vt 0.000000 1.000000
vt 0.000000 0.000000
vt 1.000000 0.000000
vt 1.000000 1.000000
vt 0.000000 1.000000
vt 0.000000 0.000000
vt 1.000000 0.000000
vt 1.000000 1.000000
vt 0.000000 1.000000
vt 0.000000 0.000000
vt 1.000000 0.000000
vt 1.000000 1.000000
vt 0.000000 1.000000
vt 0.000000 0.000000
vt 1.000000 0.000000
vt 1.000000 1.000000
vt 0.000000 1.000000
vt 0.000000 0.000000
vt 1.000000 0.000000
vt 1.000000 1.000000
vt 0.000000 1.000000
vt 0.000000 0.000000
vt 1.000000 0.000000
vt 1.000000 1.000000
vt 0.000000 1.000000
vt 0.000000 0.000000
vt 1.000000 0.000000
vt 1.000000 1.000000
vt 0.000000 1.000000
vt 0.000000 0.000000
vt 1.000000 0.000000
vt 1.000000 1.000000
vt 0.000000 1.000000
vt 0.000000 0.000000
vt 1.000000 0.000000
vt 1.000000 1.000000
vt 0.000000 1.000000
vt 0.000000 0.000000
vt 1.000000 0.000000
vt 1.000000 1.000000
vt 0.000000 1.000000
vt 0.000000 0.000000
vt 1.000000 0.000000
vt 1.000000 1.000000
vt 0.000000 1.000000
vt 0.000000 0.000000
vt 1.000000 0.000000
vt 1.000000 1.000000
vt 0.000000 1.000000
vt 0.000000 0.000000
vt 1.000000 0.000000
vt 1.000000 1.000000
vt 0.000000 1.000000
vt 0.000000 0.000000
vt 1.000000 0.000000
vt 1.000000 1.000000
vt 0.000000 1.000000
vt 0.000000 0.000000
vt 1.000000 0.000000
vt 1.000000 1.000000
vt 0.000000 1.000000
vt 0.000000 0.000000
vt 1.000000 0.000000
vt 1.000000 1.000000
vt 0.000000 1.000000
vt 0.000000 0.000000
vt 1.000000 0.000000
vt 1.000000 1.000000
vt 0.000000 1.000000
vt 0.000000 0.000000
vt 1.000000 0.000000
vt 1.000000 1.000000
vt 0.000000 1.000000
vt 0.000000 0.000000
vt 1.000000 0.000000
vt 1.000000 1.000000
vt 0.000000 1.000000
vt 0.000000 0.000000
vt 1.000000 0.000000
vt 1.000000 1.000000
vt 0.000000 1.000000
vt 0.000000 0.000000
vt 1.000000 0.000000
vt 1.000000 1.000000
vt 0.000000 1.000000
vt 0.000000 0.000000
vt 1.000000 0.000000
vt 1.000000 1.000000
vt 0.000000 1.000000
vt 0.000000 0.000000
vt 1.000000 0.000000
vt 1.000000 1.000000
vt 0.000000 1.000000
vt 0.000000 0.000000
vt 1.000000 0.000000
vt 1.000000 1.000000
vt 0.000000 1.000000
vt 0.000000 0.000000
vt 1.000000 0.000000
vt 1.000000 1.000000
vt 0.000000 1.000000
vt 0.000000 0.000000
vt 1.000000 0.000000
vt 1.000000 1.000000
vt 0.000000 1.000000
vt 0.000000 0.000000
vt 1.000000 0.000000
vt 1.000000 1.000000
vt 0.000000 1.000000
vt 0.000000 0.000000
vt 1.000000 0.000000
vt 1.000000 1.000000
vt 0.000000 1.000000
vt 0.000000 0.000000
vt 1.000000 0.000000
vt 1.000000 1.000000
vt 0.000000 1.000000
vt 0.000000 0.000000
vt 1.000000 0.000000
vt 1.000000 1.000000
vt 0.000000 1.000000
vt 0.000000 0.000000
vt 1.000000 0.000000
vt 1.000000 1.000000
vt 0.000000 1.000000
vt 0.000000 0.000000
vt 1.000000 0.000000
vt 1.000000 1.000000
vt 0.000000 1.000000
vt 0.000000 0.000000
vt 1.000000 0.000000
vt 1.000000 1.000000
vt 0.000000 1.000000
vt 0.000000 0.000000
vt 1.000000 0.000000
vt 1.000000 1.000000
vt 0.000000 1.000000
vt 0.000000 0.000000
vt 1.000000 0.000000
vt 1.000000 1.000000
vt 0.000000 1.000000
vt 0.000000 0.000000
vt 1.000000 0.000000
vt 1.000000 1.000000
vt 0.000000 1.000000
vt 0.000000 0.000000
vt 1.000000 0.000000
vt 1.000000 1.000000
vt 0.000000 1.000000
vt 0.000000 0.000000
vt 1.000000 0.000000
vt 1.000000 1.000000
vt 0.000000 1.000000
vt 0.000000 0.000000
vt 1.000000 0.000000
vt 1.000000 1.000000
vt 0.000000 1.000000
vt 0.000000 0.000000
vt 1.000000 0.000000
vt 1.000000 1.000000
vt 0.000000 1.000000
vt 0.000000 0.000000
vt 1.000000 0.000000
vt 1.000000 1.000000
vt 0.000000 1.000000
vt 0.000000 0.000000
vt 1.000000 0.000000
vt 1.000000 1.000000
vt 0.000000 1.000000
vt 0.000000 0.000000
vt 1.000000 0.000000
vt 1.000000 1.000000
vt 0.000000 1.000000
vt 0.000000 0.000000
vt 1.000000 0.000000
vt 1.000000 1.000000
vt 0.000000 1.000000
vt 0.000000 0.000000
vt 1.000000 0.000000
vt 1.000000 1.000000
vt 0.000000 1.000000
vt 0.000000 0.000000
vt 1.000000 0.000000
vt 1.000000 1.000000
vt 0.000000 1.000000
vt 0.000000 0.000000
vt 1.000000 0.000000
vt 1.000000 1.000000
vt 0.000000 1.000000
vt 0.000000 0.000000
vt 1.000000 0.000000
vt 1.000000 1.000000
vt 0.000000 1.000000
vt 0.000000 0.000000
vt 1.000000 0.000000
vt 1.000000 1.000000
vt 0.000000 1.000000
vt 0.000000 0.000000
vt 1.000000 0.000000
vt 1.000000 1.000000
vt 0.000000 1.000000
vt 0.000000 0.000000
vt 1.000000 0.000000
vt 1.000000 1.000000
vt 0.000000 1.000000
vt 0.000000 0.000000
vt 1.000000 0.000000
vt 1.000000 1.000000
vt 0.000000 1.000000
vt 0.000000 0.000000
vt 1.000000 0.000000
vt 1.000000 1.000000
vt 0.000000 1.000000
vt 0.000000 0.000000
vt 1.000000 0.000000
vt 1.000000 1.000000
vt 0.000000 1.000000
vt 0.000000 0.000000
vt 1.000000 0.000000
vt 1.000000 1.000000
vt 0.000000 1.000000
vt 0.000000 0.000000
vt 1.000000 0.000000
vt 1.000000 1.000000
vt 0.000000 1.000000
vt 0.000000 0.000000
vt 1.000000 0.000000
vt 1.000000 1.000000
vt 0.000000 1.000000
vt 0.000000 0.000000
vt 1.000000 0.000000
vt 1.000000 1.000000
vt 0.000000 1.000000
vt 0.000000 0.000000
vt 1.000000 0.000000
vt 1.000000 1.000000
vt 0.000000 1.000000
vt 0.000000 0.000000
vt 1.000000 0.000000
vt 1.000000 1.000000
vt 0.000000 1.000000
vt 0.000000 0.000000
vt 1.000000 0.000000
vt 1.000000 1.000000
vt 0.000000 1.000000
vt 0.000000 0.000000
vt 1.000000 0.000000
vt 1.000000 1.000000
vt 0.000000 1.000000
vt 0.000000 0.000000
vt 1.000000 0.000000
vt 1.000000 1.000000
vt 0.000000 1.000000
vt 0.000000 0.000000
vt 1.000000 0.000000
vt 1.000000 1.000000
vt 0.000000 1.000000
vt 0.000000 0.000000
vt 1.000000 0.000000
vt 1.000000 1.000000
vt 0.000000 1.000000
vt 0.000000 0.000000
vt 1.000000 0.000000
vt 1.000000 1.000000
vt 0.000000 1.000000
vt 0.000000 0.000000
vt 1.000000 0.000000
vt 1.000000 1.000000
vt 0.000000 1.000000
vt 0.500000 1.000000
vt 0.000000 0.000000
vt 1.000000 0.000000
vt 0.500000 1.000000
vt 0.000000 0.000000
vt 1.000000 0.000000
vt 0.000000 0.000000
vt 1.000000 0.000000
vt 1.000000 1.000000
vt 0.000000 1.000000
vt 0.500000 1.000000
vt 0.000000 0.000000
vt 1.000000 0.000000
vt 0.500000 1.000000
vt 0.000000 0.000000
vt 1.000000 0.000000
vt 0.000000 0.000000
vt 1.000000 0.000000
vt 1.000000 1.000000
vt 0.000000 1.000000
vt 0.500000 1.000000
vt 0.000000 0.000000
vt 1.000000 0.000000
vt 0.500000 1.000000
vt 0.000000 0.000000
vt 1.000000 0.000000
vt 0.000000 0.000000
vt 1.000000 0.000000
vt 1.000000 1.000000
vt 0.000000 1.000000
vt 0.500000 1.000000
vt 0.000000 0.000000
vt 1.000000 0.000000
vt 0.500000 1.000000
vt 0.000000 0.000000
vt 1.000000 0.000000
vt 0.000000 0.000000
vt 1.000000 0.000000
vt 1.000000 1.000000
vt 0.000000 1.000000
vt 0.500000 1.000000
vt 0.000000 0.000000
vt 1.000000 0.000000
vt 0.500000 1.000000
vt 0.000000 0.000000
vt 1.000000 0.000000
vt 0.000000 0.000000
vt 1.000000 0.000000
vt 1.000000 1.000000
vt 0.000000 1.000000
vt 0.500000 1.000000
vt 0.000000 0.000000
vt 1.000000 0.000000
vt 0.500000 1.000000
vt 0.000000 0.000000
vt 1.000000 0.000000
vt 0.000000 0.000000
vt 1.000000 0.000000
vt 1.000000 1.000000
vt 0.000000 1.000000
vt 0.500000 1.000000
vt 0.000000 0.000000
vt 1.000000 0.000000
vt 0.500000 1.000000
vt 0.000000 0.000000
vt 1.000000 0.000000
vt 0.000000 0.000000
vt 1.000000 0.000000
vt 1.000000 1.000000
vt 0.000000 1.000000
vt 0.500000 1.000000
vt 0.000000 0.000000
vt 1.000000 0.000000
vt 0.500000 1.000000
vt 0.000000 0.000000
vt 1.000000 0.000000
vt 0.000000 0.000000
vt 1.000000 0.000000
vt 1.000000 1.000000
vt 0.000000 1.000000
vt 0.500000 1.000000
vt 0.000000 0.000000
vt 1.000000 0.000000
vt 0.500000 1.000000
vt 0.000000 0.000000
vt 1.000000 0.000000
vt 0.000000 0.000000
vt 1.000000 0.000000
vt 1.000000 1.000000
vt 0.000000 1.000000
vt 0.500000 1.000000
vt 0.000000 0.000000
vt 1.000000 0.000000
vt 0.500000 1.000000
vt 0.000000 0.000000
vt 1.000000 0.000000
vt 0.000000 0.000000
vt 1.000000 0.000000
vt 1.000000 1.000000
vt 0.000000 1.000000
vt 0.500000 1.000000
vt 0.000000 0.000000
vt 1.000000 0.000000
vt 0.500000 1.000000
vt 0.000000 0.000000
vt 1.000000 0.000000
vt 0.000000 0.000000
vt 1.000000 0.000000
vt 1.000000 1.000000
vt 0.000000 1.000000
vt 0.500000 1.000000
vt 0.000000 0.000000
vt 1.000000 0.000000
vt 0.500000 1.000000
vt 0.000000 0.000000
vt 1.000000 0.000000
vt 0.000000 0.000000
vt 1.000000 0.000000
vt 1.000000 1.000000
vt 0.000000 1.000000
vt 0.500000 1.000000
vt 0.000000 0.000000
vt 1.000000 0.000000
vt 0.500000 1.000000
vt 0.000000 0.000000
vt 1.000000 0.000000
vt 0.000000 0.000000
vt 1.000000 0.000000
vt 1.000000 1.000000
vt 0.000000 1.000000
vt 0.500000 1.000000
vt 0.000000 0.000000
vt 1.000000 0.000000
vt 0.500000 1.000000
vt 0.000000 0.000000
vt 1.000000 0.000000
vt 0.000000 0.000000
vt 1.000000 0.000000
vt 1.000000 1.000000
vt 0.000000 1.000000
vt 0.500000 1.000000
vt 0.000000 0.000000
vt 1.000000 0.000000
vt 0.500000 1.000000
vt 0.000000 0.000000
vt 1.000000 0.000000
vt 0.000000 0.000000
vt 1.000000 0.000000
vt 1.000000 1.000000
vt 0.000000 1.000000
vt 0.500000 1.000000
vt 0.000000 0.000000
vt 1.000000 0.000000
vt 0.500000 1.000000
vt 0.000000 0.000000
vt 1.000000 0.000000
vt 0.000000 0.000000
vt 1.000000 0.000000
vt 1.000000 1.000000
vt 0.000000 1.000000
vt 0.500000 1.000000
vt 0.000000 0.000000
vt 1.000000 0.000000
vt 0.500000 1.000000
vt 0.000000 0.000000
vt 1.000000 0.000000
vt 0.000000 0.000000
vt 1.000000 0.000000
vt 1.000000 1.000000
vt 0.000000 1.000000
vt 0.500000 1.000000
vt 0.000000 0.000000
vt 1.000000 0.000000
vt 0.500000 1.000000
vt 0.000000 0.000000
vt 1.000000 0.000000
vt 0.000000 0.000000
vt 1.000000 0.000000
vt 1.000000 1.000000
vt 0.000000 1.000000
vt 0.500000 1.000000
vt 0.000000 0.000000
vt 1.000000 0.000000
vt 0.500000 1.000000
vt 0.000000 0.000000
vt 1.000000 0.000000
vt 0.000000 0.000000
vt 1.000000 0.000000
vt 1.000000 1.000000
vt 0.000000 1.000000
vt 0.500000 1.000000
vt 0.000000 0.000000
vt 1.000000 0.000000
vt 0.500000 1.000000
vt 0.000000 0.000000
vt 1.000000 0.000000
vt 0.000000 0.000000
vt 1.000000 0.000000
vt 1.000000 1.000000
vt 0.000000 1.000000
vt 0.500000 1.000000
vt 0.000000 0.000000
vt 1.000000 0.000000
vt 0.500000 1.000000
vt 0.000000 0.000000
vt 1.000000 0.000000
vt 0.000000 0.000000
vt 1.000000 0.000000
vt 1.000000 1.000000
vt 0.000000 1.000000
vt 0.500000 1.000000
vt 0.000000 0.000000
vt 1.000000 0.000000
vt 0.500000 1.000000
vt 0.000000 0.000000
vt 1.000000 0.000000
vt 0.000000 0.000000
vt 1.000000 0.000000
vt 1.000000 1.000000
vt 0.000000 1.000000
vt 0.500000 1.000000
vt 0.000000 0.000000
vt 1.000000 0.000000
vt 0.500000 1.000000
vt 0.000000 0.000000
vt 1.000000 0.000000
vt 0.000000 0.000000
vt 1.000000 0.000000
vt 1.000000 1.000000
vt 0.000000 1.000000
vt 0.500000 1.000000
vt 0.000000 0.000000
vt 1.000000 0.000000
vt 0.500000 1.000000
vt 0.000000 0.000000
vt 1.000000 0.000000
vt 0.000000 0.000000
vt 1.000000 0.000000
vt 1.000000 1.000000
vt 0.000000 1.000000
vt 0.000000 0.000000
vt 1.000000 0.000000
vt 1.000000 1.000000
vt 0.000000 1.000000
vt 0.000000 0.000000
vt 1.000000 0.000000
vt 1.000000 1.000000
vt 0.000000 1.000000
vt 0.000000 0.000000
vt 1.000000 0.000000
vt 1.000000 1.000000
vt 0.000000 1.000000
vt 0.000000 0.000000
vt 1.000000 0.000000
vt 1.000000 1.000000
vt 0.000000 1.000000
vt 0.000000 0.000000
vt 1.000000 0.000000
vt 1.000000 1.000000
vt 0.000000 1.000000
vt 0.000000 0.000000
vt 1.000000 0.000000
vt 1.000000 1.000000
vt 0.000000 1.000000
vt 0.000000 0.000000
vt 1.000000 0.000000
vt 1.000000 1.000000
vt 0.000000 1.000000
vt 0.000000 0.000000
vt 1.000000 0.000000
vt 1.000000 1.000000
vt 0.000000 1.000000
vt 0.000000 0.000000
vt 1.000000 0.000000
vt 1.000000 1.000000
vt 0.000000 1.000000
vt 0.000000 0.000000
vt 1.000000 0.000000
vt 1.000000 1.000000
vt 0.000000 1.000000
vt 0.000000 0.000000
vt 1.000000 0.000000
vt 1.000000 1.000000
vt 0.000000 1.000000
vt 0.000000 0.000000
vt 1.000000 0.000000
vt 1.000000 1.000000
vt 0.000000 1.000000
vt 0.000000 0.000000
vt 1.000000 0.000000
vt 1.000000 1.000000
vt 0.000000 1.000000
vt 0.000000 0.000000
vt 1.000000 0.000000
vt 1.000000 1.000000
vt 0.000000 1.000000
vt 0.000000 0.000000
vt 1.000000 0.000000
vt 1.000000 1.000000
vt 0.000000 1.000000
vt 0.000000 0.000000
vt 1.000000 0.000000
vt 1.000000 1.000000
vt 0.000000 1.000000
vt 0.000000 0.000000
vt 1.000000 0.000000
vt 1.000000 1.000000
vt 0.000000 1.000000
vt 0.000000 0.000000
vt 1.000000 0.000000
vt 1.000000 1.000000
vt 0.000000 1.000000
vt 0.000000 0.000000
vt 1.000000 0.000000
vt 1.000000 1.000000
vt 0.000000 1.000000
vt 0.000000 0.000000
vt 1.000000 0.000000
vt 1.000000 1.000000
vt 0.000000 1.000000
vt 0.000000 0.000000
vt 1.000000 0.000000
vt 1.000000 1.000000
vt 0.000000 1.000000
vt 0.000000 0.000000
vt 1.000000 0.000000
vt 1.000000 1.000000
vt 0.000000 1.000000
vt 0.000000 0.000000
vt 1.000000 0.000000
vt 1.000000 1.000000
vt 0.000000 1.000000
vt 0.000000 0.000000
vt 1.000000 0.000000
vt 1.000000 1.000000
vt 0.000000 1.000000
vt 0.000000 0.000000
vt 1.000000 0.000000
vt 1.000000 1.000000
vt 0.000000 1.000000
vt 0.000000 0.000000
vt 1.000000 0.000000
vt 1.000000 1.000000
vt 0.000000 1.000000
vt 0.000000 0.000000
vt 1.000000 0.000000
vt 1.000000 1.000000
vt 0.000000 1.000000
vt 0.000000 0.000000
vt 1.000000 0.000000
vt 1.000000 1.000000
vt 0.000000 1.000000
vt 0.000000 0.000000
vt 1.000000 0.000000
vt 1.000000 1.000000
vt 0.000000 1.000000
vt 0.000000 0.000000
vt 1.000000 0.000000
vt 1.000000 1.000000
vt 0.000000 1.000000
vt 0.000000 0.000000
vt 1.000000 0.000000
vt 1.000000 1.000000
vt 0.000000 1.000000
vt 0.000000 0.000000
vt 1.000000 0.000000
vt 1.000000 1.000000
vt 0.000000 1.000000
vt 0.000000 0.000000
vt 1.000000 0.000000
vt 1.000000 1.000000
vt 0.000000 1.000000
vt 0.000000 0.000000
vt 1.000000 0.000000
vt 1.000000 1.000000
vt 0.000000 1.000000
vt 0.000000 0.000000
vt 1.000000 0.000000
vt 1.000000 1.000000
vt 0.000000 1.000000
vt 0.000000 0.000000
vt 1.000000 0.000000
vt 1.000000 1.000000
vt 0.000000 1.000000
vt 0.000000 0.000000
vt 1.000000 0.000000
vt 1.000000 1.000000
vt 0.000000 1.000000
vt 0.000000 0.000000
vt 1.000000 0.000000
vt 1.000000 1.000000
vt 0.000000 1.000000
vt 0.000000 0.000000
vt 1.000000 0.000000
vt 1.000000 1.000000
vt 0.000000 1.000000
vt 0.000000 0.000000
vt 1.000000 0.000000
vt 1.000000 1.000000
vt 0.000000 1.000000
vt 0.000000 0.000000
vt 1.000000 0.000000
vt 1.000000 1.000000
vt 0.000000 1.000000
vt 0.000000 0.000000
vt 1.000000 0.000000
vt 1.000000 1.000000
vt 0.000000 1.000000
vt 0.000000 0.000000
vt 1.000000 0.000000
vt 1.000000 1.000000
vt 0.000000 1.000000
vt 0.000000 0.000000
vt 1.000000 0.000000
vt 1.000000 1.000000
vt 0.000000 1.000000
vt 0.000000 0.000000
vt 1.000000 0.000000
vt 1.000000 1.000000
vt 0.000000 1.000000
vt 0.000000 0.000000
vt 1.000000 0.000000
vt 1.000000 1.000000
vt 0.000000 1.000000
vt 0.000000 0.000000
vt 1.000000 0.000000
vt 1.000000 1.000000
vt 0.000000 1.000000
vt 0.000000 0.000000
vt 1.000000 0.000000
vt 1.000000 1.000000
vt 0.000000 1.000000
vt 0.000000 0.000000
vt 1.000000 0.000000
vt 1.000000 1.000000
vt 0.000000 1.000000
vt 0.000000 0.000000
vt 1.000000 0.000000
vt 1.000000 1.000000
vt 0.000000 1.000000
vt 0.000000 0.000000
vt 1.000000 0.000000
vt 1.000000 1.000000
vt 0.000000 1.000000
vt 0.000000 0.000000
vt 1.000000 0.000000
vt 1.000000 1.000000
vt 0.000000 1.000000
vt 0.000000 0.000000
vt 1.000000 0.000000
vt 1.000000 1.000000
vt 0.000000 1.000000
vt 0.000000 0.000000
vt 1.000000 0.000000
vt 1.000000 1.000000
vt 0.000000 1.000000
vt 0.000000 0.000000
vt 1.000000 0.000000
vt 1.000000 1.000000
vt 0.000000 1.000000
vt 0.000000 0.000000
vt 1.000000 0.000000
vt 1.000000 1.000000
vt 0.000000 1.000000
vt 0.000000 0.000000
vt 1.000000 0.000000
vt 1.000000 1.000000
vt 0.000000 1.000000
vt 0.000000 0.000000
vt 1.000000 0.000000
vt 1.000000 1.000000
vt 0.000000 1.000000
vt 0.000000 0.000000
vt 1.000000 0.000000
vt 1.000000 1.000000
vt 0.000000 1.000000
vt 0.000000 0.000000
vt 1.000000 0.000000
vt 1.000000 1.000000
vt 0.000000 1.000000
vt 0.000000 0.000000
vt 1.000000 0.000000
vt 1.000000 1.000000
vt 0.000000 1.000000
vt 0.000000 0.000000
vt 1.000000 0.000000
vt 1.000000 1.000000
vt 0.000000 1.000000
vt 0.000000 0.000000
vt 1.000000 0.000000
vt 1.000000 1.000000
vt 0.000000 1.000000
vt 0.000000 0.000000
vt 1.000000 0.000000
vt 1.000000 1.000000
vt 0.000000 1.000000
vt 0.000000 0.000000
vt 1.000000 0.000000
vt 1.000000 1.000000
vt 0.000000 1.000000
vt 0.000000 0.000000
vt 1.000000 0.000000
vt 1.000000 1.000000
vt 0.000000 1.000000
vt 0.000000 0.000000
vt 1.000000 0.000000
vt 1.000000 1.000000
vt 0.000000 1.000000
vt 0.000000 0.000000
vt 1.000000 0.000000
vt 1.000000 1.000000
vt 0.000000 1.000000
vt 0.000000 0.000000
vt 1.000000 0.000000
vt 1.000000 1.000000
vt 0.000000 1.000000
vt 0.000000 0.000000
vt 1.000000 0.000000
vt 1.000000 1.000000
vt 0.000000 1.000000
vt 0.000000 0.000000
vt 1.000000 0.000000
vt 1.000000 1.000000
vt 0.000000 1.000000
vt 0.000000 0.000000
vt 1.000000 0.000000
vt 1.000000 1.000000
vt 0.000000 1.000000
vt 0.000000 0.000000
vt 1.000000 0.000000
vt 1.000000 1.000000
vt 0.000000 1.000000
vt 0.000000 0.000000
vt 1.000000 0.000000
vt 1.000000 1.000000
vt 0.000000 1.000000
vt 0.000000 0.000000
vt 1.000000 0.000000
vt 1.000000 1.000000
vt 0.000000 1.000000
vt 0.000000 0.000000
vt 1.000000 0.000000
vt 1.000000 1.000000
vt 0.000000 1.000000
vt 0.000000 0.000000
vt 1.000000 0.000000
vt 1.000000 1.000000
vt 0.000000 1.000000
vt 0.000000 0.000000
vt 1.000000 0.000000
vt 1.000000 1.000000
vt 0.000000 1.000000
vt 0.000000 0.000000
vt 1.000000 0.000000
vt 1.000000 1.000000
vt 0.000000 1.000000
vt 0.000000 0.000000
vt 1.000000 0.000000
vt 1.000000 1.000000
vt 0.000000 1.000000
vt 0.000000 0.000000
vt 1.000000 0.000000
vt 1.000000 1.000000
vt 0.000000 1.000000
vt 0.000000 0.000000
vt 1.000000 0.000000
vt 1.000000 1.000000
vt 0.000000 1.000000
vt 0.000000 0.000000
vt 1.000000 0.000000
vt 1.000000 1.000000
vt 0.000000 1.000000
vt 0.000000 0.000000
vt 1.000000 0.000000
vt 1.000000 1.000000
vt 0.000000 1.000000
vt 0.000000 0.000000
vt 1.000000 0.000000
vt 1.000000 1.000000
vt 0.000000 1.000000
vt 0.000000 0.000000
vt 1.000000 0.000000
vt 1.000000 1.000000
vt 0.000000 1.000000
vt 0.000000 0.000000
vt 1.000000 0.000000
vt 1.000000 1.000000
vt 0.000000 1.000000
vt 0.000000 0.000000
vt 1.000000 0.000000
vt 1.000000 1.000000
vt 0.000000 1.000000
vt 0.000000 0.000000
vt 1.000000 0.000000
vt 1.000000 1.000000
vt 0.000000 1.000000
vt 0.000000 0.000000
vt 1.000000 0.000000
vt 1.000000 1.000000
vt 0.000000 1.000000
vt 0.000000 0.000000
vt 1.000000 0.000000
vt 1.000000 1.000000
vt 0.000000 1.000000
vt 0.000000 0.000000
vt 1.000000 0.000000
vt 1.000000 1.000000
vt 0.000000 1.000000
vt 0.000000 0.000000
vt 1.000000 0.000000
vt 1.000000 1.000000
vt 0.000000 1.000000
vt 0.000000 0.000000
vt 1.000000 0.000000
vt 1.000000 1.000000
vt 0.000000 1.000000
vt 0.000000 0.000000
vt 1.000000 0.000000
vt 1.000000 1.000000
vt 0.000000 1.000000
vt 0.000000 0.000000
vt 1.000000 0.000000
vt 1.000000 1.000000
vt 0.000000 1.000000
vt 0.000000 0.000000
vt 1.000000 0.000000
vt 1.000000 1.000000
vt 0.000000 1.000000
vt 0.000000 0.000000
vt 1.000000 0.000000
vt 1.000000 1.000000
vt 0.000000 1.000000
vt 0.000000 0.000000
vt 1.000000 0.000000
vt 1.000000 1.000000
vt 0.000000 1.000000
vt 0.000000 0.000000
vt 1.000000 0.000000
vt 1.000000 1.000000
vt 0.000000 1.000000
vt 0.000000 0.000000
vt 1.000000 0.000000
vt 1.000000 1.000000
vt 0.000000 1.000000
vt 0.000000 0.000000
vt 1.000000 0.000000
vt 1.000000 1.000000
vt 0.000000 1.000000
vt 0.000000 0.000000
vt 1.000000 0.000000
vt 1.000000 1.000000
vt 0.000000 1.000000
vt 0.000000 0.000000
vt 1.000000 0.000000
vt 1.000000 1.000000
vt 0.000000 1.000000
vt 0.000000 0.000000
vt 1.000000 0.000000
vt 1.000000 1.000000
vt 0.000000 1.000000
vt 0.000000 0.000000
vt 1.000000 0.000000
vt 1.000000 1.000000
vt 0.000000 1.000000
vt 0.000000 0.000000
vt 1.000000 0.000000
vt 1.000000 1.000000
vt 0.000000 1.000000
vt 0.000000 0.000000
vt 1.000000 0.000000
vt 1.000000 1.000000
vt 0.000000 1.000000
vt 0.000000 0.000000
vt 1.000000 0.000000
vt 1.000000 1.000000
vt 0.000000 1.000000
vt 0.000000 0.000000
vt 1.000000 0.000000
vt 1.000000 1.000000
vt 0.000000 1.000000
vt 0.000000 0.000000
vt 1.000000 0.000000
vt 1.000000 1.000000
vt 0.000000 1.000000
vt 0.000000 0.000000
vt 1.000000 0.000000
vt 1.000000 1.000000
vt 0.000000 1.000000
vt 0.000000 0.000000
vt 1.000000 0.000000
vt 1.000000 1.000000
vt 0.000000 1.000000
vt 0.000000 0.000000
vt 1.000000 0.000000
vt 1.000000 1.000000
vt 0.000000 1.000000
vt 0.000000 0.000000
vt 1.000000 0.000000
vt 1.000000 1.000000
vt 0.000000 1.000000
vt 0.000000 0.000000
vt 1.000000 0.000000
vt 1.000000 1.000000
vt 0.000000 1.000000
vt 0.000000 0.000000
vt 1.000000 0.000000
vt 1.000000 1.000000
vt 0.000000 1.000000
vt 0.000000 0.000000
vt 1.000000 0.000000
vt 1.000000 1.000000
vt 0.000000 1.000000
vt 0.000000 0.000000
vt 1.000000 0.000000
vt 1.000000 1.000000
vt 0.000000 1.000000
vt 0.000000 0.000000
vt 1.000000 0.000000
vt 1.000000 1.000000
vt 0.000000 1.000000
vt 0.000000 0.000000
vt 1.000000 0.000000
vt 1.000000 1.000000
vt 0.000000 1.000000
vt 0.000000 0.000000
vt 1.000000 0.000000
vt 1.000000 1.000000
vt 0.000000 1.000000
vt 0.000000 0.000000
vt 1.000000 0.000000
vt 1.000000 1.000000
vt 0.000000 1.000000
vt 0.000000 0.000000
vt 1.000000 0.000000
vt 1.000000 1.000000
vt 0.000000 1.000000
vt 0.000000 0.000000
vt 1.000000 0.000000
vt 1.000000 1.000000
vt 0.000000 1.000000
vt 0.000000 0.000000
vt 1.000000 0.000000
vt 1.000000 1.000000
vt 0.000000 1.000000
vt 0.000000 0.000000
vt 1.000000 0.000000
vt 1.000000 1.000000
vt 0.000000 1.000000
vt 0.000000 0.000000
vt 1.000000 0.000000
vt 1.000000 1.000000
vt 0.000000 1.000000
vt 0.000000 0.000000
vt 1.000000 0.000000
vt 1.000000 1.000000
vt 0.000000 1.000000
vt 0.000000 0.000000
vt 1.000000 0.000000
vt 1.000000 1.000000
vt 0.000000 1.000000
vt 0.000000 0.000000
vt 1.000000 0.000000
vt 1.000000 1.000000
vt 0.000000 1.000000
vt 0.000000 0.000000
vt 1.000000 0.000000
vt 1.000000 1.000000
vt 0.000000 1.000000
vt 0.000000 0.000000
vt 1.000000 0.000000
vt 1.000000 1.000000
vt 0.000000 1.000000
vt 0.000000 0.000000
vt 1.000000 0.000000
vt 1.000000 1.000000
vt 0.000000 1.000000
vt 0.000000 0.000000
vt 1.000000 0.000000
vt 1.000000 1.000000
vt 0.000000 1.000000
vt 0.000000 0.000000
vt 1.000000 0.000000
vt 1.000000 1.000000
vt 0.000000 1.000000
vt 0.000000 0.000000
vt 1.000000 0.000000
vt 1.000000 1.000000
vt 0.000000 1.000000
vt 0.000000 0.000000
vt 1.000000 0.000000
vt 1.000000 1.000000
vt 0.000000 1.000000
vt 0.000000 0.000000
vt 1.000000 0.000000
vt 1.000000 1.000000
vt 0.000000 1.000000
vt 0.000000 0.000000
vt 1.000000 0.000000
vt 1.000000 1.000000
vt 0.000000 1.000000
vt 0.000000 0.000000
vt 1.000000 0.000000
vt 1.000000 1.000000
vt 0.000000 1.000000
vt 0.000000 0.000000
vt 1.000000 0.000000
vt 1.000000 1.000000
vt 0.000000 1.000000
vt 0.000000 0.000000
vt 1.000000 0.000000
vt 1.000000 1.000000
vt 0.000000 1.000000
vt 0.000000 0.000000
vt 1.000000 0.000000
vt 1.000000 1.000000
vt 0.000000 1.000000
vt 0.000000 0.000000
vt 1.000000 0.000000
vt 1.000000 1.000000
vt 0.000000 1.000000
vt 0.000000 0.000000
vt 1.000000 0.000000
vt 1.000000 1.000000
vt 0.000000 1.000000
vt 0.000000 0.000000
vt 1.000000 0.000000
vt 1.000000 1.000000
vt 0.000000 1.000000
vt 0.000000 0.000000
vt 1.000000 0.000000
vt 1.000000 1.000000
vt 0.000000 1.000000
vt 0.000000 0.000000
vt 1.000000 0.000000
vt 1.000000 1.000000
vt 0.000000 1.000000
vt 0.000000 0.000000
vt 1.000000 0.000000
vt 1.000000 1.000000
vt 0.000000 1.000000
vt 0.500000 1.000000
vt 0.000000 0.000000
vt 1.000000 0.000000
vt 0.500000 1.000000
vt 0.000000 0.000000
vt 1.000000 0.000000
vt 0.000000 0.000000
vt 1.000000 0.000000
vt 1.000000 1.000000
vt 0.000000 1.000000
vt 0.500000 1.000000
vt 0.000000 0.000000
vt 1.000000 0.000000
vt 0.500000 1.000000
vt 0.000000 0.000000
vt 1.000000 0.000000
vt 0.000000 0.000000
vt 1.000000 0.000000
vt 1.000000 1.000000
vt 0.000000 1.000000
vt 0.500000 1.000000
vt 0.000000 0.000000
vt 1.000000 0.000000
vt 0.500000 1.000000
vt 0.000000 0.000000
vt 1.000000 0.000000
vt 0.000000 0.000000
vt 1.000000 0.000000
vt 1.000000 1.000000
vt 0.000000 1.000000
vt 0.500000 1.000000
vt 0.000000 0.000000
vt 1.000000 0.000000
vt 0.500000 1.000000
vt 0.000000 0.000000
vt 1.000000 0.000000
vt 0.000000 0.000000
vt 1.000000 0.000000
vt 1.000000 1.000000
vt 0.000000 1.000000
vt 0.500000 1.000000
vt 0.000000 0.000000
vt 1.000000 0.000000
vt 0.500000 1.000000
vt 0.000000 0.000000
vt 1.000000 0.000000
vt 0.000000 0.000000
vt 1.000000 0.000000
vt 1.000000 1.000000
vt 0.000000 1.000000
vt 0.500000 1.000000
vt 0.000000 0.000000
vt 1.000000 0.000000
vt 0.500000 1.000000
vt 0.000000 0.000000
vt 1.000000 0.000000
vt 0.000000 0.000000
vt 1.000000 0.000000
vt 1.000000 1.000000
vt 0.000000 1.000000
vt 0.500000 1.000000
vt 0.000000 0.000000
vt 1.000000 0.000000
vt 0.500000 1.000000
vt 0.000000 0.000000
vt 1.000000 0.000000
vt 0.000000 0.000000
vt 1.000000 0.000000
vt 1.000000 1.000000
vt 0.000000 1.000000
vt 0.500000 1.000000
vt 0.000000 0.000000
vt 1.000000 0.000000
vt 0.500000 1.000000
vt 0.000000 0.000000
vt 1.000000 0.000000
vt 0.000000 0.000000
vt 1.000000 0.000000
vt 1.000000 1.000000
vt 0.000000 1.000000
vt 0.500000 1.000000
vt 0.000000 0.000000
vt 1.000000 0.000000
vt 0.500000 1.000000
vt 0.000000 0.000000
vt 1.000000 0.000000
vt 0.000000 0.000000
vt 1.000000 0.000000
vt 1.000000 1.000000
vt 0.000000 1.000000
vt 0.500000 1.000000
vt 0.000000 0.000000
vt 1.000000 0.000000
vt 0.500000 1.000000
vt 0.000000 0.000000
vt 1.000000 0.000000
vt 0.000000 0.000000
vt 1.000000 0.000000
vt 1.000000 1.000000
vt 0.000000 1.000000
vt 0.500000 1.000000
vt 0.000000 0.000000
vt 1.000000 0.000000
vt 0.500000 1.000000
vt 0.000000 0.000000
vt 1.000000 0.000000
vt 0.000000 0.000000
vt 1.000000 0.000000
vt 1.000000 1.000000
vt 0.000000 1.000000
vt 0.500000 1.000000
vt 0.000000 0.000000
vt 1.000000 0.000000
vt 0.500000 1.000000
vt 0.000000 0.000000
vt 1.000000 0.000000
vt 0.000000 0.000000
vt 1.000000 0.000000
vt 1.000000 1.000000
vt 0.000000 1.000000
vt 0.500000 1.000000
vt 0.000000 0.000000
vt 1.000000 0.000000
vt 0.500000 1.000000
vt 0.000000 0.000000
vt 1.000000 0.000000
vt 0.000000 0.000000
vt 1.000000 0.000000
vt 1.000000 1.000000
vt 0.000000 1.000000
vt 0.500000 1.000000
vt 0.000000 0.000000
vt 1.000000 0.000000
vt 0.500000 1.000000
vt 0.000000 0.000000
vt 1.000000 0.000000
vt 0.000000 0.000000
vt 1.000000 0.000000
vt 1.000000 1.000000
vt 0.000000 1.000000
vt 0.500000 1.000000
vt 0.000000 0.000000
vt 1.000000 0.000000
vt 0.500000 1.000000
vt 0.000000 0.000000
vt 1.000000 0.000000
vt 0.000000 0.000000
vt 1.000000 0.000000
vt 1.000000 1.000000
vt 0.000000 1.000000
vt 0.500000 1.000000
vt 0.000000 0.000000
vt 1.000000 0.000000
vt 0.500000 1.000000
vt 0.000000 0.000000
vt 1.000000 0.000000
vt 0.000000 0.000000
vt 1.000000 0.000000
vt 1.000000 1.000000
vt 0.000000 1.000000
vt 0.500000 1.000000
vt 0.000000 0.000000
vt 1.000000 0.000000
vt 0.500000 1.000000
vt 0.000000 0.000000
vt 1.000000 0.000000
vt 0.000000 0.000000
vt 1.000000 0.000000
vt 1.000000 1.000000
vt 0.000000 1.000000
vt 0.500000 1.000000
vt 0.000000 0.000000
vt 1.000000 0.000000
vt 0.500000 1.000000
vt 0.000000 0.000000
vt 1.000000 0.000000
vt 0.000000 0.000000
vt 1.000000 0.000000
vt 1.000000 1.000000
vt 0.000000 1.000000
vt 0.500000 1.000000
vt 0.000000 0.000000
vt 1.000000 0.000000
vt 0.500000 1.000000
vt 0.000000 0.000000
vt 1.000000 0.000000
vt 0.000000 0.000000
vt 1.000000 0.000000
vt 1.000000 1.000000
vt 0.000000 1.000000
vt 0.500000 1.000000
vt 0.000000 0.000000
vt 1.000000 0.000000
vt 0.500000 1.000000
vt 0.000000 0.000000
vt 1.000000 0.000000
vt 0.000000 0.000000
vt 1.000000 0.000000
vt 1.000000 1.000000
vt 0.000000 1.000000
vt 0.500000 1.000000
vt 0.000000 0.000000
vt 1.000000 0.000000
vt 0.500000 1.000000
vt 0.000000 0.000000
vt 1.000000 0.000000
vt 0.000000 0.000000
vt 1.000000 0.000000
vt 1.000000 1.000000
vt 0.000000 1.000000
vt 0.500000 1.000000
vt 0.000000 0.000000
vt 1.000000 0.000000
vt 0.500000 1.000000
vt 0.000000 0.000000
vt 1.000000 0.000000
vt 0.000000 0.000000
vt 1.000000 0.000000
vt 1.000000 1.000000
vt 0.000000 1.000000
vt 0.500000 1.000000
vt 0.000000 0.000000
vt 1.000000 0.000000
vt 0.500000 1.000000
vt 0.000000 0.000000
vt 1.000000 0.000000
vt 0.000000 0.000000
vt 1.000000 0.000000
vt 1.000000 1.000000
vt 0.000000 1.000000
vt 0.500000 1.000000
vt 0.000000 0.000000
vt 1.000000 0.000000
vt 0.500000 1.000000
vt 0.000000 0.000000
vt 1.000000 0.000000
vt 0.000000 0.000000
vt 1.000000 0.000000
vt 1.000000 1.000000
vt 0.000000 1.000000
vt 0.000000 0.000000
vt 1.000000 0.000000
vt 1.000000 1.000000
vt 0.000000 1.000000
vt 0.000000 0.000000
vt 1.000000 0.000000
vt 1.000000 1.000000
vt 0.000000 1.000000
vt 0.000000 0.000000
vt 1.000000 0.000000
vt 1.000000 1.000000
vt 0.000000 1.000000
vt 0.000000 0.000000
vt 1.000000 0.000000
vt 1.000000 1.000000
vt 0.000000 1.000000
vt 0.000000 0.000000
vt 1.000000 0.000000
vt 1.000000 1.000000
vt 0.000000 1.000000
vt 0.000000 0.000000
vt 1.000000 0.000000
vt 1.000000 1.000000
vt 0.000000 1.000000
vt 0.000000 0.000000
vt 1.000000 0.000000
vt 1.000000 1.000000
vt 0.000000 1.000000
vt 0.000000 0.000000
vt 1.000000 0.000000
vt 1.000000 1.000000
vt 0.000000 1.000000
vt 0.000000 0.000000
vt 1.000000 0.000000
vt 1.000000 1.000000
vt 0.000000 1.000000
vt 0.000000 0.000000
vt 1.000000 0.000000
vt 1.000000 1.000000
vt 0.000000 1.000000
vt 0.000000 0.000000
vt 1.000000 0.000000
vt 1.000000 1.000000
vt 0.000000 1.000000
vt 0.000000 0.000000
vt 1.000000 0.000000
vt 1.000000 1.000000
vt 0.000000 1.000000
vt 0.000000 0.000000
vt 1.000000 0.000000
vt 1.000000 1.000000
vt 0.000000 1.000000
vt 0.000000 0.000000
vt 1.000000 0.000000
vt 1.000000 1.000000
vt 0.000000 1.000000
vt 0.000000 0.000000
vt 1.000000 0.000000
vt 1.000000 1.000000
vt 0.000000 1.000000
vt 0.000000 0.000000
vt 1.000000 0.000000
vt 1.000000 1.000000
vt 0.000000 1.000000
vt 0.000000 0.000000
vt 1.000000 0.000000
vt 1.000000 1.000000
vt 0.000000 1.000000
vt 0.000000 0.000000
vt 1.000000 0.000000
vt 1.000000 1.000000
vt 0.000000 1.000000
vt 0.000000 0.000000
vt 1.000000 0.000000
vt 1.000000 1.000000
vt 0.000000 1.000000
vt 0.000000 0.000000
vt 1.000000 0.000000
vt 1.000000 1.000000
vt 0.000000 1.000000
vt 0.000000 0.000000
vt 1.000000 0.000000
vt 1.000000 1.000000
vt 0.000000 1.000000
vt 0.000000 0.000000
vt 1.000000 0.000000
vt 1.000000 1.000000
vt 0.000000 1.000000
vt 0.000000 0.000000
vt 1.000000 0.000000
vt 1.000000 1.000000
vt 0.000000 1.000000
vt 0.000000 0.000000
vt 1.000000 0.000000
vt 1.000000 1.000000
vt 0.000000 1.000000
vt 0.000000 0.000000
vt 1.000000 0.000000
vt 1.000000 1.000000
vt 0.000000 1.000000
vt 0.000000 0.000000
vt 1.000000 0.000000
vt 1.000000 1.000000
vt 0.000000 1.000000
vt 0.000000 0.000000
vt 1.000000 0.000000
vt 1.000000 1.000000
vt 0.000000 1.000000
vt 0.000000 0.000000
vt 1.000000 0.000000
vt 1.000000 1.000000
vt 0.000000 1.000000
vt 0.000000 0.000000
vt 1.000000 0.000000
vt 1.000000 1.000000
vt 0.000000 1.000000
vt 0.000000 0.000000
vt 1.000000 0.000000
vt 1.000000 1.000000
vt 0.000000 1.000000
vt 0.000000 0.000000
vt 1.000000 0.000000
vt 1.000000 1.000000
vt 0.000000 1.000000
vt 0.000000 0.000000
vt 1.000000 0.000000
vt 1.000000 1.000000
vt 0.000000 1.000000
vt 0.000000 0.000000
vt 1.000000 0.000000
vt 1.000000 1.000000
vt 0.000000 1.000000
vt 0.000000 0.000000
vt 1.000000 0.000000
vt 1.000000 1.000000
vt 0.000000 1.000000
vt 0.000000 0.000000
vt 1.000000 0.000000
vt 1.000000 1.000000
vt 0.000000 1.000000
usemtl models/caelum/props/stations/ca_station_wood.png
f 1/97 2/98 3/99 4/100
usemtl models/caelum/props/stations/ca_station_wood.png
f 5/101 6/102 7/103 8/104
usemtl models/caelum/props/stations/ca_station_wood.png
f 9/105 10/106 11/107 12/108
usemtl models/caelum/props/stations/ca_station_wood.png
f 13/109 14/110 15/111 16/112
usemtl models/caelum/props/stations/ca_station_wood.png
f 17/113 18/114 19/115 20/116
usemtl models/caelum/props/stations/ca_station_wood.png
f 21/117 22/118 23/119 24/120
usemtl models/caelum/props/stash/ca_stash_inside.png
f 25/121 26/122 27/123 28/124
usemtl models/caelum/props/stash/ca_stash_inside.png
f 29/125 30/126 31/127 32/128
usemtl models/caelum/props/stash/ca_stash_inside.png
f 33/129 34/130 35/131 36/132
usemtl models/caelum/props/stash/ca_stash_inside.png
f 37/133 38/134 39/135 40/136
usemtl models/caelum/props/stash/ca_stash_inside.png
f 41/137 42/138 43/139 44/140
usemtl models/caelum/props/stash/ca_stash_inside.png
f 45/141 46/142 47/143 48/144
usemtl models/caelum/props/stash/ca_stash_inside.png
f 49/145 50/146 51/147 52/148
usemtl models/caelum/props/stash/ca_stash_inside.png
f 53/149 54/150 55/151 56/152
usemtl models/caelum/props/stash/ca_stash_inside.png
f 57/153 58/154 59/155 60/156
usemtl models/caelum/props/stash/ca_stash_inside.png
f 61/157 62/158 63/159 64/160
usemtl models/caelum/props/stash/ca_stash_inside.png
f 65/161 66/162 67/163 68/164
usemtl models/caelum/props/stash/ca_stash_inside.png
f 69/165 70/166 71/167 72/168
usemtl models/caelum/props/stash/ca_stash_inside.png
f 73/169 74/170 75/171 76/172
usemtl models/caelum/props/stash/ca_stash_inside.png
f 77/173 78/174 79/175 80/176
usemtl models/caelum/props/stash/ca_stash_inside.png
f 81/177 82/178 83/179 84/180
usemtl models/caelum/props/stash/ca_stash_inside.png
f 85/181 86/182 87/183 88/184
usemtl models/caelum/props/stash/ca_stash_inside.png
f 89/185 90/186 91/187 92/188
usemtl models/caelum/props/stash/ca_stash_inside.png
f 93/189 94/190 95/191 96/192
usemtl models/caelum/props/stash/ca_stash_inside.png
f 97/193 98/194 99/195 100/196
usemtl models/caelum/props/stash/ca_stash_inside.png
f 101/197 102/198 103/199 104/200
usemtl models/caelum/props/stash/ca_stash_inside.png
f 105/201 106/202 107/203 108/204
usemtl models/caelum/props/stash/ca_stash_inside.png
f 109/205 110/206 111/207 112/208
usemtl models/caelum/props/stash/ca_stash_inside.png
f 113/209 114/210 115/211 116/212
usemtl models/caelum/props/stash/ca_stash_inside.png
f 117/213 118/214 119/215 120/216
usemtl models/caelum/props/stash/ca_stash_inside.png
f 121/217 122/218 123/219 124/220
usemtl models/caelum/props/stash/ca_stash_inside.png
f 125/221 126/222 127/223 128/224
usemtl models/caelum/props/stash/ca_stash_inside.png
f 129/225 130/226 131/227 132/228
usemtl models/caelum/props/stash/ca_stash_inside.png
f 133/229 134/230 135/231 136/232
usemtl models/caelum/props/stash/ca_stash_inside.png
f 137/233 138/234 139/235 140/236
usemtl models/caelum/props/stash/ca_stash_inside.png
f 141/237 142/238 143/239 144/240
usemtl models/caelum/props/stash/ca_stash_inside.png
f 145/241 146/242 147/243 148/244
usemtl models/caelum/props/stash/ca_stash_inside.png
f 149/245 150/246 151/247 152/248
usemtl models/caelum/props/stash/ca_stash_inside.png
f 153/249 154/250 155/251 156/252
usemtl models/caelum/props/stash/ca_stash_inside.png
f 157/253 158/254 159/255 160/256
usemtl models/caelum/props/stash/ca_stash_inside.png
f 161/257 162/258 163/259 164/260
usemtl models/caelum/props/stash/ca_stash_inside.png
f 165/261 166/262 167/263 168/264
usemtl models/caelum/props/stash/ca_stash_inside.png
f 169/265 170/266 171/267 172/268
usemtl models/caelum/props/stash/ca_stash_inside.png
f 173/269 174/270 175/271 176/272
usemtl models/caelum/props/stash/ca_stash_inside.png
f 177/273 178/274 179/275 180/276
usemtl models/caelum/props/stash/ca_stash_inside.png
f 181/277 182/278 183/279 184/280
usemtl models/caelum/props/stash/ca_stash_inside.png
f 185/281 186/282 187/283 188/284
usemtl models/caelum/props/stash/ca_stash_inside.png
f 189/285 190/286 191/287 192/288
usemtl models/caelum/props/stash/ca_stash_inside.png
f 193/289 194/290 195/291 196/292
usemtl models/caelum/props/stash/ca_stash_inside.png
f 197/293 198/294 199/295 200/296
usemtl models/caelum/props/stash/ca_stash_inside.png
f 201/297 202/298 203/299 204/300
usemtl models/caelum/props/stash/ca_stash_inside.png
f 205/301 206/302 207/303 208/304
usemtl models/caelum/props/stash/ca_stash_inside.png
f 209/305 210/306 211/307 212/308
usemtl models/caelum/props/stash/ca_stash_inside.png
f 213/309 214/310 215/311 216/312
usemtl models/caelum/props/stash/ca_stash_inside.png
f 217/313 218/314 219/315 220/316
usemtl models/caelum/props/stash/ca_stash_inside.png
f 221/317 222/318 223/319 224/320
usemtl models/caelum/props/stash/ca_stash_inside.png
f 225/321 226/322 227/323 228/324
usemtl models/caelum/props/stash/ca_stash_inside.png
f 229/325 230/326 231/327 232/328
usemtl models/caelum/props/stash/ca_stash_inside.png
f 233/329 234/330 235/331 236/332
usemtl models/caelum/props/stash/ca_stash_inside.png
f 237/333 238/334 239/335 240/336
usemtl models/caelum/props/stash/ca_stash_inside.png
f 241/337 242/338 243/339 244/340
usemtl models/caelum/props/stash/ca_stash_inside.png
f 245/341 246/342 247/343 248/344
usemtl models/caelum/props/stash/ca_stash_inside.png
f 249/345 250/346 251/347 252/348
usemtl models/caelum/props/stash/ca_stash_inside.png
f 253/349 254/350 255/351 256/352
usemtl models/caelum/props/stash/ca_stash_inside.png
f 257/353 258/354 259/355 260/356
usemtl models/caelum/props/stash/ca_stash_inside.png
f 261/357 262/358 263/359 264/360
usemtl models/caelum/props/stations/ca_station_wood.png
f 265/361 266/362 267/363 268/364
usemtl models/caelum/props/stations/ca_station_wood.png
f 269/365 270/366 271/367 272/368
usemtl models/caelum/props/stations/ca_station_wood.png
f 273/369 274/370 275/371 276/372
usemtl models/caelum/props/stations/ca_station_wood.png
f 277/373 278/374 279/375 280/376
usemtl models/caelum/props/stations/ca_station_wood.png
f 281/377 282/378 283/379 284/380
usemtl models/caelum/props/stations/ca_station_wood.png
f 285/381 286/382 287/383 288/384
usemtl models/caelum/props/stations/ca_station_wood.png
f 289/385 290/386 291/387 292/388
usemtl models/caelum/props/stations/ca_station_wood.png
f 293/389 294/390 295/391 296/392
usemtl models/caelum/props/stations/ca_station_wood.png
f 297/393 298/394 299/395 300/396
usemtl models/caelum/props/stations/ca_station_wood.png
f 301/397 302/398 303/399 304/400
usemtl models/caelum/props/stations/ca_station_wood.png
f 305/401 306/402 307/403 308/404
usemtl models/caelum/props/stations/ca_station_wood.png
f 309/405 310/406 311/407 312/408
usemtl models/caelum/props/stations/ca_station_wood.png
f 313/409 314/410 315/411 316/412
usemtl models/caelum/props/stations/ca_station_wood.png
f 317/413 318/414 319/415 320/416
usemtl models/caelum/props/stations/ca_station_wood.png
f 321/417 322/418 323/419 324/420
usemtl models/caelum/props/stations/ca_station_wood.png
f 325/421 326/422 327/423 328/424
usemtl models/caelum/props/stations/ca_station_wood.png
f 329/425 330/426 331/427 332/428
usemtl models/caelum/props/stations/ca_station_wood.png
f 333/429 334/430 335/431 336/432
usemtl models/caelum/props/stations/ca_station_wood.png
f 337/433 338/434 339/435 340/436
usemtl models/caelum/props/stations/ca_station_wood.png
f 341/437 342/438 343/439 344/440
usemtl models/caelum/props/stations/ca_station_wood.png
f 345/441 346/442 347/443 348/444
usemtl models/caelum/props/stations/ca_station_wood.png
f 349/445 350/446 351/447 352/448
usemtl models/caelum/props/stations/ca_station_wood.png
f 353/449 354/450 355/451 356/452
usemtl models/caelum/props/stations/ca_station_wood.png
f 357/453 358/454 359/455 360/456
usemtl models/caelum/props/stations/ca_station_wood.png
f 361/457 362/458 363/459 364/460
usemtl models/caelum/props/stations/ca_station_wood.png
f 365/461 366/462 367/463 368/464
usemtl models/caelum/props/stations/ca_station_wood.png
f 369/465 370/466 371/467 372/468
usemtl models/caelum/props/stations/ca_station_wood.png
f 373/469 374/470 375/471 376/472
usemtl models/caelum/props/stations/ca_station_wood.png
f 377/473 378/474 379/475 380/476
usemtl models/caelum/props/stations/ca_station_wood.png
f 381/477 382/478 383/479 384/480
usemtl models/caelum/props/stations/ca_station_wood.png
f 385/481 386/482 387/483 388/484
usemtl models/caelum/props/stations/ca_station_wood.png
f 389/485 390/486 391/487 392/488
usemtl models/caelum/props/stations/ca_station_wood.png
f 393/489 394/490 395/491 396/492
usemtl models/caelum/props/stations/ca_station_wood.png
f 397/493 398/494 399/495 400/496
usemtl models/caelum/props/stations/ca_station_wood.png
f 401/497 402/498 403/499 404/500
usemtl models/caelum/props/stations/ca_station_wood.png
f 405/501 406/502 407/503 408/504
usemtl models/caelum/props/stations/ca_station_wood.png
f 409/505 410/506 411/507 412/508
usemtl models/caelum/props/stations/ca_station_wood.png
f 413/509 414/510 415/511 416/512
usemtl models/caelum/props/stations/ca_station_wood.png
f 417/513 418/514 419/515 420/516
usemtl models/caelum/props/stations/ca_station_wood.png
f 421/517 422/518 423/519 424/520
usemtl models/caelum/props/stations/ca_station_wood.png
f 425/521 426/522 427/523 428/524
usemtl models/caelum/props/stations/ca_station_wood.png
f 429/525 430/526 431/527 432/528
usemtl models/caelum/props/stations/ca_station_wood.png
f 433/529 434/530 435/531 436/532
usemtl models/caelum/props/stations/ca_station_wood.png
f 437/533 438/534 439/535 440/536
usemtl models/caelum/props/stations/ca_station_wood.png
f 441/537 442/538 443/539 444/540
usemtl models/caelum/props/stations/ca_station_wood.png
f 445/541 446/542 447/543 448/544
usemtl models/caelum/props/stations/ca_station_wood.png
f 449/545 450/546 451/547 452/548
usemtl models/caelum/props/stations/ca_station_wood.png
f 453/549 454/550 455/551 456/552
usemtl models/caelum/props/stations/ca_station_iron.png
f 457/553 458/554 459/555 460/556
usemtl models/caelum/props/stations/ca_station_iron.png
f 461/557 462/558 463/559
usemtl models/caelum/props/stations/ca_station_iron.png
f 464/560 465/561 466/562
usemtl models/caelum/props/stations/ca_station_iron.png
f 467/563 468/564 469/565 470/566
usemtl models/caelum/props/stations/ca_station_iron.png
f 471/567 472/568 473/569
usemtl models/caelum/props/stations/ca_station_iron.png
f 474/570 475/571 476/572
usemtl models/caelum/props/stations/ca_station_iron.png
f 477/573 478/574 479/575 480/576
usemtl models/caelum/props/stations/ca_station_iron.png
f 481/577 482/578 483/579
usemtl models/caelum/props/stations/ca_station_iron.png
f 484/580 485/581 486/582
usemtl models/caelum/props/stations/ca_station_iron.png
f 487/583 488/584 489/585 490/586
usemtl models/caelum/props/stations/ca_station_iron.png
f 491/587 492/588 493/589
usemtl models/caelum/props/stations/ca_station_iron.png
f 494/590 495/591 496/592
usemtl models/caelum/props/stations/ca_station_iron.png
f 497/593 498/594 499/595 500/596
usemtl models/caelum/props/stations/ca_station_iron.png
f 501/597 502/598 503/599
usemtl models/caelum/props/stations/ca_station_iron.png
f 504/600 505/601 506/602
usemtl models/caelum/props/stations/ca_station_iron.png
f 507/603 508/604 509/605 510/606
usemtl models/caelum/props/stations/ca_station_iron.png
f 511/607 512/608 513/609
usemtl models/caelum/props/stations/ca_station_iron.png
f 514/610 515/611 516/612
usemtl models/caelum/props/stations/ca_station_iron.png
f 517/613 518/614 519/615 520/616
usemtl models/caelum/props/stations/ca_station_iron.png
f 521/617 522/618 523/619
usemtl models/caelum/props/stations/ca_station_iron.png
f 524/620 525/621 526/622
usemtl models/caelum/props/stations/ca_station_iron.png
f 527/623 528/624 529/625 530/626
usemtl models/caelum/props/stations/ca_station_iron.png
f 531/627 532/628 533/629
usemtl models/caelum/props/stations/ca_station_iron.png
f 534/630 535/631 536/632
usemtl models/caelum/props/stations/ca_station_iron.png
f 537/633 538/634 539/635 540/636
usemtl models/caelum/props/stations/ca_station_iron.png
f 541/637 542/638 543/639
usemtl models/caelum/props/stations/ca_station_iron.png
f 544/640 545/641 546/642
usemtl models/caelum/props/stations/ca_station_iron.png
f 547/643 548/644 549/645 550/646
usemtl models/caelum/props/stations/ca_station_iron.png
f 551/647 552/648 553/649
usemtl models/caelum/props/stations/ca_station_iron.png
f 554/650 555/651 556/652
usemtl models/caelum/props/stations/ca_station_iron.png
f 557/653 558/654 559/655 560/656
usemtl models/caelum/props/stations/ca_station_iron.png
f 561/657 562/658 563/659
usemtl models/caelum/props/stations/ca_station_iron.png
f 564/660 565/661 566/662
usemtl models/caelum/props/stations/ca_station_iron.png
f 567/663 568/664 569/665 570/666
usemtl models/caelum/props/stations/ca_station_iron.png
f 571/667 572/668 573/669
usemtl models/caelum/props/stations/ca_station_iron.png
f 574/670 575/671 576/672
usemtl models/caelum/props/stations/ca_station_iron.png
f 577/673 578/674 579/675 580/676
usemtl models/caelum/props/stations/ca_station_iron.png
f 581/677 582/678 583/679
usemtl models/caelum/props/stations/ca_station_iron.png
f 584/680 585/681 586/682
usemtl models/caelum/props/stations/ca_station_iron.png
f 587/683 588/684 589/685 590/686
usemtl models/caelum/props/stations/ca_station_iron.png
f 591/687 592/688 593/689
usemtl models/caelum/props/stations/ca_station_iron.png
f 594/690 595/691 596/692
usemtl models/caelum/props/stations/ca_station_iron.png
f 597/693 598/694 599/695 600/696
usemtl models/caelum/props/stations/ca_station_iron.png
f 601/697 602/698 603/699
usemtl models/caelum/props/stations/ca_station_iron.png
f 604/700 605/701 606/702
usemtl models/caelum/props/stations/ca_station_iron.png
f 607/703 608/704 609/705 610/706
usemtl models/caelum/props/stations/ca_station_iron.png
f 611/707 612/708 613/709
usemtl models/caelum/props/stations/ca_station_iron.png
f 614/710 615/711 616/712
usemtl models/caelum/props/stations/ca_station_iron.png
f 617/713 618/714 619/715 620/716
usemtl models/caelum/props/stations/ca_station_iron.png
f 621/717 622/718 623/719
usemtl models/caelum/props/stations/ca_station_iron.png
f 624/720 625/721 626/722
usemtl models/caelum/props/stations/ca_station_iron.png
f 627/723 628/724 629/725 630/726
usemtl models/caelum/props/stations/ca_station_iron.png
f 631/727 632/728 633/729
usemtl models/caelum/props/stations/ca_station_iron.png
f 634/730 635/731 636/732
usemtl models/caelum/props/stations/ca_station_iron.png
f 637/733 638/734 639/735 640/736
usemtl models/caelum/props/stations/ca_station_iron.png
f 641/737 642/738 643/739
usemtl models/caelum/props/stations/ca_station_iron.png
f 644/740 645/741 646/742
usemtl models/caelum/props/stations/ca_station_iron.png
f 647/743 648/744 649/745 650/746
usemtl models/caelum/props/stations/ca_station_iron.png
f 651/747 652/748 653/749
usemtl models/caelum/props/stations/ca_station_iron.png
f 654/750 655/751 656/752
usemtl models/caelum/props/stations/ca_station_iron.png
f 657/753 658/754 659/755 660/756
usemtl models/caelum/props/stations/ca_station_iron.png
f 661/757 662/758 663/759
usemtl models/caelum/props/stations/ca_station_iron.png
f 664/760 665/761 666/762
usemtl models/caelum/props/stations/ca_station_iron.png
f 667/763 668/764 669/765 670/766
usemtl models/caelum/props/stations/ca_station_iron.png
f 671/767 672/768 673/769
usemtl models/caelum/props/stations/ca_station_iron.png
f 674/770 675/771 676/772
usemtl models/caelum/props/stations/ca_station_iron.png
f 677/773 678/774 679/775 680/776
usemtl models/caelum/props/stations/ca_station_iron.png
f 681/777 682/778 683/779
usemtl models/caelum/props/stations/ca_station_iron.png
f 684/780 685/781 686/782
usemtl models/caelum/props/stations/ca_station_iron.png
f 687/783 688/784 689/785 690/786
usemtl models/caelum/props/stations/ca_station_iron.png
f 691/787 692/788 693/789
usemtl models/caelum/props/stations/ca_station_iron.png
f 694/790 695/791 696/792
usemtl models/caelum/props/stations/ca_station_iron.png
f 697/793 698/794 699/795 700/796
usemtl models/caelum/props/stations/ca_station_iron.png
f 701/797 702/798 703/799 704/800
usemtl models/caelum/props/stations/ca_station_iron.png
f 705/801 706/802 707/803 708/804
usemtl models/caelum/props/stations/ca_station_iron.png
f 709/805 710/806 711/807 712/808
usemtl models/caelum/props/stations/ca_station_iron.png
f 713/809 714/810 715/811 716/812
usemtl models/caelum/props/stations/ca_station_iron.png
f 717/813 718/814 719/815 720/816
usemtl models/caelum/props/stations/ca_station_iron.png
f 721/817 722/818 723/819 724/820
usemtl models/caelum/props/stations/ca_station_iron.png
f 725/821 726/822 727/823 728/824
usemtl models/caelum/props/stations/ca_station_iron.png
f 729/825 730/826 731/827 732/828
usemtl models/caelum/props/stations/ca_station_iron.png
f 733/829 734/830 735/831 736/832
usemtl models/caelum/props/stations/ca_station_iron.png
f 737/833 738/834 739/835 740/836
usemtl models/caelum/props/stations/ca_station_iron.png
f 741/837 742/838 743/839 744/840
usemtl models/caelum/props/stations/ca_station_iron.png
f 745/841 746/842 747/843 748/844
usemtl models/caelum/props/stations/ca_station_iron.png
f 749/845 750/846 751/847 752/848
usemtl models/caelum/props/stations/ca_station_iron.png
f 753/849 754/850 755/851 756/852
usemtl models/caelum/props/stations/ca_station_iron.png
f 757/853 758/854 759/855 760/856
usemtl models/caelum/props/stations/ca_station_iron.png
f 761/857 762/858 763/859 764/860
usemtl models/caelum/props/stations/ca_station_iron.png
f 765/861 766/862 767/863 768/864
usemtl models/caelum/props/stations/ca_station_iron.png
f 769/865 770/866 771/867 772/868
usemtl models/caelum/props/stations/ca_station_iron.png
f 773/869 774/870 775/871 776/872
usemtl models/caelum/props/stations/ca_station_iron.png
f 777/873 778/874 779/875 780/876
usemtl models/caelum/props/stations/ca_station_iron.png
f 781/877 782/878 783/879 784/880
usemtl models/caelum/props/stations/ca_station_iron.png
f 785/881 786/882 787/883 788/884
usemtl models/caelum/props/stations/ca_station_iron.png
f 789/885 790/886 791/887 792/888
usemtl models/caelum/props/stations/ca_station_iron.png
f 793/889 794/890 795/891 796/892
usemtl models/caelum/props/stations/ca_station_iron.png
f 797/893 798/894 799/895 800/896
usemtl models/caelum/props/stations/ca_station_iron.png
f 801/897 802/898 803/899 804/900
usemtl models/caelum/props/stations/ca_station_iron.png
f 805/901 806/902 807/903 808/904
usemtl models/caelum/props/stations/ca_station_iron.png
f 809/905 810/906 811/907 812/908
usemtl models/caelum/props/stations/ca_station_iron.png
f 813/909 814/910 815/911 816/912
usemtl models/caelum/props/stations/ca_station_iron.png
f 817/913 818/914 819/915 820/916
usemtl models/caelum/props/stations/ca_station_iron.png
f 821/917 822/918 823/919 824/920
usemtl models/caelum/props/stations/ca_station_iron.png
f 825/921 826/922 827/923 828/924
usemtl models/caelum/props/stations/ca_station_iron.png
f 829/925 830/926 831/927 832/928
usemtl models/caelum/props/stations/ca_station_iron.png
f 833/929 834/930 835/931 836/932
usemtl models/caelum/props/stations/ca_station_iron.png
f 837/933 838/934 839/935 840/936
