# Modelo original generado para Caelum Argenteum.
# Ejes OBJ: X ancho, Y altura, Z profundidad.
o ca_ram_suspension
v 0.000000 0.000000 0.025000
v 0.000000 -0.017678 0.017678
v 1.000000 -0.017678 0.017678
v 1.000000 0.000000 0.025000
v 0.000000 0.000000 0.000000
v 0.000000 -0.017678 0.017678
v 0.000000 0.000000 0.025000
v 1.000000 0.000000 0.000000
v 1.000000 0.000000 0.025000
v 1.000000 -0.017678 0.017678
v 0.000000 -0.017678 0.017678
v 0.000000 -0.025000 0.000000
v 1.000000 -0.025000 0.000000
v 1.000000 -0.017678 0.017678
v 0.000000 0.000000 0.000000
v 0.000000 -0.025000 0.000000
v 0.000000 -0.017678 0.017678
v 1.000000 0.000000 0.000000
v 1.000000 -0.017678 0.017678
v 1.000000 -0.025000 0.000000
v 0.000000 -0.025000 0.000000
v 0.000000 -0.017678 -0.017678
v 1.000000 -0.017678 -0.017678
v 1.000000 -0.025000 0.000000
v 0.000000 0.000000 0.000000
v 0.000000 -0.017678 -0.017678
v 0.000000 -0.025000 0.000000
v 1.000000 0.000000 0.000000
v 1.000000 -0.025000 0.000000
v 1.000000 -0.017678 -0.017678
v 0.000000 -0.017678 -0.017678
v 0.000000 -0.000000 -0.025000
v 1.000000 -0.000000 -0.025000
v 1.000000 -0.017678 -0.017678
v 0.000000 0.000000 0.000000
v 0.000000 -0.000000 -0.025000
v 0.000000 -0.017678 -0.017678
v 1.000000 0.000000 0.000000
v 1.000000 -0.017678 -0.017678
v 1.000000 -0.000000 -0.025000
v 0.000000 -0.000000 -0.025000
v 0.000000 0.017678 -0.017678
v 1.000000 0.017678 -0.017678
v 1.000000 -0.000000 -0.025000
v 0.000000 0.000000 0.000000
v 0.000000 0.017678 -0.017678
v 0.000000 -0.000000 -0.025000
v 1.000000 0.000000 0.000000
v 1.000000 -0.000000 -0.025000
v 1.000000 0.017678 -0.017678
v 0.000000 0.017678 -0.017678
v 0.000000 0.025000 -0.000000
v 1.000000 0.025000 -0.000000
v 1.000000 0.017678 -0.017678
v 0.000000 0.000000 0.000000
v 0.000000 0.025000 -0.000000
v 0.000000 0.017678 -0.017678
v 1.000000 0.000000 0.000000
v 1.000000 0.017678 -0.017678
v 1.000000 0.025000 -0.000000
v 0.000000 0.025000 -0.000000
v 0.000000 0.017678 0.017678
v 1.000000 0.017678 0.017678
v 1.000000 0.025000 -0.000000
v 0.000000 0.000000 0.000000
v 0.000000 0.017678 0.017678
v 0.000000 0.025000 -0.000000
v 1.000000 0.000000 0.000000
v 1.000000 0.025000 -0.000000
v 1.000000 0.017678 0.017678
v 0.000000 0.017678 0.017678
v 0.000000 0.000000 0.025000
v 1.000000 0.000000 0.025000
v 1.000000 0.017678 0.017678
v 0.000000 0.000000 0.000000
v 0.000000 0.000000 0.025000
v 0.000000 0.017678 0.017678
v 1.000000 0.000000 0.000000
v 1.000000 0.017678 0.017678
v 1.000000 0.000000 0.025000
vt 0.000000 0.000000
vt 1.000000 0.000000
vt 1.000000 1.000000
vt 0.000000 1.000000
vt 0.500000 1.000000
vt 0.000000 0.000000
vt 1.000000 0.000000
vt 0.500000 1.000000
vt 0.000000 0.000000
vt 1.000000 0.000000
vt 0.000000 0.000000
vt 1.000000 0.000000
vt 1.000000 1.000000
vt 0.000000 1.000000
vt 0.500000 1.000000
vt 0.000000 0.000000
vt 1.000000 0.000000
vt 0.500000 1.000000
vt 0.000000 0.000000
vt 1.000000 0.000000
vt 0.000000 0.000000
vt 1.000000 0.000000
vt 1.000000 1.000000
vt 0.000000 1.000000
vt 0.500000 1.000000
vt 0.000000 0.000000
vt 1.000000 0.000000
vt 0.500000 1.000000
vt 0.000000 0.000000
vt 1.000000 0.000000
vt 0.000000 0.000000
vt 1.000000 0.000000
vt 1.000000 1.000000
vt 0.000000 1.000000
vt 0.500000 1.000000
vt 0.000000 0.000000
vt 1.000000 0.000000
vt 0.500000 1.000000
vt 0.000000 0.000000
vt 1.000000 0.000000
vt 0.000000 0.000000
vt 1.000000 0.000000
vt 1.000000 1.000000
vt 0.000000 1.000000
vt 0.500000 1.000000
vt 0.000000 0.000000
vt 1.000000 0.000000
vt 0.500000 1.000000
vt 0.000000 0.000000
vt 1.000000 0.000000
vt 0.000000 0.000000
vt 1.000000 0.000000
vt 1.000000 1.000000
vt 0.000000 1.000000
vt 0.500000 1.000000
vt 0.000000 0.000000
vt 1.000000 0.000000
vt 0.500000 1.000000
vt 0.000000 0.000000
vt 1.000000 0.000000
vt 0.000000 0.000000
vt 1.000000 0.000000
vt 1.000000 1.000000
vt 0.000000 1.000000
vt 0.500000 1.000000
vt 0.000000 0.000000
vt 1.000000 0.000000
vt 0.500000 1.000000
vt 0.000000 0.000000
vt 1.000000 0.000000
vt 0.000000 0.000000
vt 1.000000 0.000000
vt 1.000000 1.000000
vt 0.000000 1.000000
vt 0.500000 1.000000
vt 0.000000 0.000000
vt 1.000000 0.000000
vt 0.500000 1.000000
vt 0.000000 0.000000
vt 1.000000 0.000000
s 1
usemtl models/caelum/props/stations/ca_station_iron.png
f 1/1 2/2 3/3 4/4
f 5/5 6/6 7/7
f 8/8 9/9 10/10
f 11/11 12/12 13/13 14/14
f 15/15 16/16 17/17
f 18/18 19/19 20/20
f 21/21 22/22 23/23 24/24
f 25/25 26/26 27/27
f 28/28 29/29 30/30
f 31/31 32/32 33/33 34/34
f 35/35 36/36 37/37
f 38/38 39/39 40/40
f 41/41 42/42 43/43 44/44
f 45/45 46/46 47/47
f 48/48 49/49 50/50
f 51/51 52/52 53/53 54/54
f 55/55 56/56 57/57
f 58/58 59/59 60/60
f 61/61 62/62 63/63 64/64
f 65/65 66/66 67/67
f 68/68 69/69 70/70
f 71/71 72/72 73/73 74/74
f 75/75 76/76 77/77
f 78/78 79/79 80/80
