# Modelo original generado para Caelum Argenteum.
# Ejes OBJ: X ancho, Y altura, Z profundidad.
o ca_siege_cannon_loading
v -50.000000 10.000000 -21.000000
v 22.000000 10.000000 -21.000000
v 22.000000 10.000000 -15.000000
v -50.000000 10.000000 -15.000000
v 22.000000 10.000000 -21.000000
v 22.000000 18.000000 -21.000000
v 22.000000 18.000000 -15.000000
v 22.000000 10.000000 -15.000000
v 22.000000 18.000000 -21.000000
v -50.000000 18.000000 -21.000000
v -50.000000 18.000000 -15.000000
v 22.000000 18.000000 -15.000000
v -50.000000 18.000000 -21.000000
v -50.000000 10.000000 -21.000000
v -50.000000 10.000000 -15.000000
v -50.000000 18.000000 -15.000000
v -50.000000 18.000000 -21.000000
v 22.000000 18.000000 -21.000000
v 22.000000 10.000000 -21.000000
v -50.000000 10.000000 -21.000000
v -50.000000 10.000000 -15.000000
v 22.000000 10.000000 -15.000000
v 22.000000 18.000000 -15.000000
v -50.000000 18.000000 -15.000000
v -50.000000 10.000000 15.000000
v 22.000000 10.000000 15.000000
v 22.000000 10.000000 21.000000
v -50.000000 10.000000 21.000000
v 22.000000 10.000000 15.000000
v 22.000000 18.000000 15.000000
v 22.000000 18.000000 21.000000
v 22.000000 10.000000 21.000000
v 22.000000 18.000000 15.000000
v -50.000000 18.000000 15.000000
v -50.000000 18.000000 21.000000
v 22.000000 18.000000 21.000000
v -50.000000 18.000000 15.000000
v -50.000000 10.000000 15.000000
v -50.000000 10.000000 21.000000
v -50.000000 18.000000 21.000000
v -50.000000 18.000000 15.000000
v 22.000000 18.000000 15.000000
v 22.000000 10.000000 15.000000
v -50.000000 10.000000 15.000000
v -50.000000 10.000000 21.000000
v 22.000000 10.000000 21.000000
v 22.000000 18.000000 21.000000
v -50.000000 18.000000 21.000000
v 0.000000 15.000000 -22.000000
v 8.000000 15.000000 -22.000000
v 8.000000 15.000000 22.000000
v 0.000000 15.000000 22.000000
v 8.000000 15.000000 -22.000000
v 8.000000 21.000000 -22.000000
v 8.000000 21.000000 22.000000
v 8.000000 15.000000 22.000000
v 8.000000 21.000000 -22.000000
v 0.000000 21.000000 -22.000000
v 0.000000 21.000000 22.000000
v 8.000000 21.000000 22.000000
v 0.000000 21.000000 -22.000000
v 0.000000 15.000000 -22.000000
v 0.000000 15.000000 22.000000
v 0.000000 21.000000 22.000000
v 0.000000 21.000000 -22.000000
v 8.000000 21.000000 -22.000000
v 8.000000 15.000000 -22.000000
v 0.000000 15.000000 -22.000000
v 0.000000 15.000000 22.000000
v 8.000000 15.000000 22.000000
v 8.000000 21.000000 22.000000
v 0.000000 21.000000 22.000000
v 4.000000 35.000000 -28.000000
v -4.500000 32.722432 -28.000000
v -4.500000 32.722432 -20.000000
v 4.000000 35.000000 -20.000000
v 4.000000 18.000000 -28.000000
v -4.500000 32.722432 -28.000000
v 4.000000 35.000000 -28.000000
v 4.000000 18.000000 -20.000000
v 4.000000 35.000000 -20.000000
v -4.500000 32.722432 -20.000000
v -4.500000 32.722432 -28.000000
v -10.722432 26.500000 -28.000000
v -10.722432 26.500000 -20.000000
v -4.500000 32.722432 -20.000000
v 4.000000 18.000000 -28.000000
v -10.722432 26.500000 -28.000000
v -4.500000 32.722432 -28.000000
v 4.000000 18.000000 -20.000000
v -4.500000 32.722432 -20.000000
v -10.722432 26.500000 -20.000000
v -10.722432 26.500000 -28.000000
v -13.000000 18.000000 -28.000000
v -13.000000 18.000000 -20.000000
v -10.722432 26.500000 -20.000000
v 4.000000 18.000000 -28.000000
v -13.000000 18.000000 -28.000000
v -10.722432 26.500000 -28.000000
v 4.000000 18.000000 -20.000000
v -10.722432 26.500000 -20.000000
v -13.000000 18.000000 -20.000000
v -13.000000 18.000000 -28.000000
v -10.722432 9.500000 -28.000000
v -10.722432 9.500000 -20.000000
v -13.000000 18.000000 -20.000000
v 4.000000 18.000000 -28.000000
v -10.722432 9.500000 -28.000000
v -13.000000 18.000000 -28.000000
v 4.000000 18.000000 -20.000000
v -13.000000 18.000000 -20.000000
v -10.722432 9.500000 -20.000000
v -10.722432 9.500000 -28.000000
v -4.500000 3.277568 -28.000000
v -4.500000 3.277568 -20.000000
v -10.722432 9.500000 -20.000000
v 4.000000 18.000000 -28.000000
v -4.500000 3.277568 -28.000000
v -10.722432 9.500000 -28.000000
v 4.000000 18.000000 -20.000000
v -10.722432 9.500000 -20.000000
v -4.500000 3.277568 -20.000000
v -4.500000 3.277568 -28.000000
v 4.000000 1.000000 -28.000000
v 4.000000 1.000000 -20.000000
v -4.500000 3.277568 -20.000000
v 4.000000 18.000000 -28.000000
v 4.000000 1.000000 -28.000000
v -4.500000 3.277568 -28.000000
v 4.000000 18.000000 -20.000000
v -4.500000 3.277568 -20.000000
v 4.000000 1.000000 -20.000000
v 4.000000 1.000000 -28.000000
v 12.500000 3.277568 -28.000000
v 12.500000 3.277568 -20.000000
v 4.000000 1.000000 -20.000000
v 4.000000 18.000000 -28.000000
v 12.500000 3.277568 -28.000000
v 4.000000 1.000000 -28.000000
v 4.000000 18.000000 -20.000000
v 4.000000 1.000000 -20.000000
v 12.500000 3.277568 -20.000000
v 12.500000 3.277568 -28.000000
v 18.722432 9.500000 -28.000000
v 18.722432 9.500000 -20.000000
v 12.500000 3.277568 -20.000000
v 4.000000 18.000000 -28.000000
v 18.722432 9.500000 -28.000000
v 12.500000 3.277568 -28.000000
v 4.000000 18.000000 -20.000000
v 12.500000 3.277568 -20.000000
v 18.722432 9.500000 -20.000000
v 18.722432 9.500000 -28.000000
v 21.000000 18.000000 -28.000000
v 21.000000 18.000000 -20.000000
v 18.722432 9.500000 -20.000000
v 4.000000 18.000000 -28.000000
v 21.000000 18.000000 -28.000000
v 18.722432 9.500000 -28.000000
v 4.000000 18.000000 -20.000000
v 18.722432 9.500000 -20.000000
v 21.000000 18.000000 -20.000000
v 21.000000 18.000000 -28.000000
v 18.722432 26.500000 -28.000000
v 18.722432 26.500000 -20.000000
v 21.000000 18.000000 -20.000000
v 4.000000 18.000000 -28.000000
v 18.722432 26.500000 -28.000000
v 21.000000 18.000000 -28.000000
v 4.000000 18.000000 -20.000000
v 21.000000 18.000000 -20.000000
v 18.722432 26.500000 -20.000000
v 18.722432 26.500000 -28.000000
v 12.500000 32.722432 -28.000000
v 12.500000 32.722432 -20.000000
v 18.722432 26.500000 -20.000000
v 4.000000 18.000000 -28.000000
v 12.500000 32.722432 -28.000000
v 18.722432 26.500000 -28.000000
v 4.000000 18.000000 -20.000000
v 18.722432 26.500000 -20.000000
v 12.500000 32.722432 -20.000000
v 12.500000 32.722432 -28.000000
v 4.000000 35.000000 -28.000000
v 4.000000 35.000000 -20.000000
v 12.500000 32.722432 -20.000000
v 4.000000 18.000000 -28.000000
v 4.000000 35.000000 -28.000000
v 12.500000 32.722432 -28.000000
v 4.000000 18.000000 -20.000000
v 12.500000 32.722432 -20.000000
v 4.000000 35.000000 -20.000000
v 4.000000 32.280000 -27.040000
v -3.140000 30.366843 -27.040000
v -3.140000 30.366843 -20.960000
v 4.000000 32.280000 -20.960000
v 4.000000 18.000000 -27.040000
v -3.140000 30.366843 -27.040000
v 4.000000 32.280000 -27.040000
v 4.000000 18.000000 -20.960000
v 4.000000 32.280000 -20.960000
v -3.140000 30.366843 -20.960000
v -3.140000 30.366843 -27.040000
v -8.366843 25.140000 -27.040000
v -8.366843 25.140000 -20.960000
v -3.140000 30.366843 -20.960000
v 4.000000 18.000000 -27.040000
v -8.366843 25.140000 -27.040000
v -3.140000 30.366843 -27.040000
v 4.000000 18.000000 -20.960000
v -3.140000 30.366843 -20.960000
v -8.366843 25.140000 -20.960000
v -8.366843 25.140000 -27.040000
v -10.280000 18.000000 -27.040000
v -10.280000 18.000000 -20.960000
v -8.366843 25.140000 -20.960000
v 4.000000 18.000000 -27.040000
v -10.280000 18.000000 -27.040000
v -8.366843 25.140000 -27.040000
v 4.000000 18.000000 -20.960000
v -8.366843 25.140000 -20.960000
v -10.280000 18.000000 -20.960000
v -10.280000 18.000000 -27.040000
v -8.366843 10.860000 -27.040000
v -8.366843 10.860000 -20.960000
v -10.280000 18.000000 -20.960000
v 4.000000 18.000000 -27.040000
v -8.366843 10.860000 -27.040000
v -10.280000 18.000000 -27.040000
v 4.000000 18.000000 -20.960000
v -10.280000 18.000000 -20.960000
v -8.366843 10.860000 -20.960000
v -8.366843 10.860000 -27.040000
v -3.140000 5.633157 -27.040000
v -3.140000 5.633157 -20.960000
v -8.366843 10.860000 -20.960000
v 4.000000 18.000000 -27.040000
v -3.140000 5.633157 -27.040000
v -8.366843 10.860000 -27.040000
v 4.000000 18.000000 -20.960000
v -8.366843 10.860000 -20.960000
v -3.140000 5.633157 -20.960000
v -3.140000 5.633157 -27.040000
v 4.000000 3.720000 -27.040000
v 4.000000 3.720000 -20.960000
v -3.140000 5.633157 -20.960000
v 4.000000 18.000000 -27.040000
v 4.000000 3.720000 -27.040000
v -3.140000 5.633157 -27.040000
v 4.000000 18.000000 -20.960000
v -3.140000 5.633157 -20.960000
v 4.000000 3.720000 -20.960000
v 4.000000 3.720000 -27.040000
v 11.140000 5.633157 -27.040000
v 11.140000 5.633157 -20.960000
v 4.000000 3.720000 -20.960000
v 4.000000 18.000000 -27.040000
v 11.140000 5.633157 -27.040000
v 4.000000 3.720000 -27.040000
v 4.000000 18.000000 -20.960000
v 4.000000 3.720000 -20.960000
v 11.140000 5.633157 -20.960000
v 11.140000 5.633157 -27.040000
v 16.366843 10.860000 -27.040000
v 16.366843 10.860000 -20.960000
v 11.140000 5.633157 -20.960000
v 4.000000 18.000000 -27.040000
v 16.366843 10.860000 -27.040000
v 11.140000 5.633157 -27.040000
v 4.000000 18.000000 -20.960000
v 11.140000 5.633157 -20.960000
v 16.366843 10.860000 -20.960000
v 16.366843 10.860000 -27.040000
v 18.280000 18.000000 -27.040000
v 18.280000 18.000000 -20.960000
v 16.366843 10.860000 -20.960000
v 4.000000 18.000000 -27.040000
v 18.280000 18.000000 -27.040000
v 16.366843 10.860000 -27.040000
v 4.000000 18.000000 -20.960000
v 16.366843 10.860000 -20.960000
v 18.280000 18.000000 -20.960000
v 18.280000 18.000000 -27.040000
v 16.366843 25.140000 -27.040000
v 16.366843 25.140000 -20.960000
v 18.280000 18.000000 -20.960000
v 4.000000 18.000000 -27.040000
v 16.366843 25.140000 -27.040000
v 18.280000 18.000000 -27.040000
v 4.000000 18.000000 -20.960000
v 18.280000 18.000000 -20.960000
v 16.366843 25.140000 -20.960000
v 16.366843 25.140000 -27.040000
v 11.140000 30.366843 -27.040000
v 11.140000 30.366843 -20.960000
v 16.366843 25.140000 -20.960000
v 4.000000 18.000000 -27.040000
v 11.140000 30.366843 -27.040000
v 16.366843 25.140000 -27.040000
v 4.000000 18.000000 -20.960000
v 16.366843 25.140000 -20.960000
v 11.140000 30.366843 -20.960000
v 11.140000 30.366843 -27.040000
v 4.000000 32.280000 -27.040000
v 4.000000 32.280000 -20.960000
v 11.140000 30.366843 -20.960000
v 4.000000 18.000000 -27.040000
v 4.000000 32.280000 -27.040000
v 11.140000 30.366843 -27.040000
v 4.000000 18.000000 -20.960000
v 11.140000 30.366843 -20.960000
v 4.000000 32.280000 -20.960000
v 4.000000 21.060000 -26.000000
v 1.836253 20.163747 -26.000000
v 1.836253 20.163747 -22.000000
v 4.000000 21.060000 -22.000000
v 4.000000 18.000000 -26.000000
v 1.836253 20.163747 -26.000000
v 4.000000 21.060000 -26.000000
v 4.000000 18.000000 -22.000000
v 4.000000 21.060000 -22.000000
v 1.836253 20.163747 -22.000000
v 1.836253 20.163747 -26.000000
v 0.940000 18.000000 -26.000000
v 0.940000 18.000000 -22.000000
v 1.836253 20.163747 -22.000000
v 4.000000 18.000000 -26.000000
v 0.940000 18.000000 -26.000000
v 1.836253 20.163747 -26.000000
v 4.000000 18.000000 -22.000000
v 1.836253 20.163747 -22.000000
v 0.940000 18.000000 -22.000000
v 0.940000 18.000000 -26.000000
v 1.836253 15.836253 -26.000000
v 1.836253 15.836253 -22.000000
v 0.940000 18.000000 -22.000000
v 4.000000 18.000000 -26.000000
v 1.836253 15.836253 -26.000000
v 0.940000 18.000000 -26.000000
v 4.000000 18.000000 -22.000000
v 0.940000 18.000000 -22.000000
v 1.836253 15.836253 -22.000000
v 1.836253 15.836253 -26.000000
v 4.000000 14.940000 -26.000000
v 4.000000 14.940000 -22.000000
v 1.836253 15.836253 -22.000000
v 4.000000 18.000000 -26.000000
v 4.000000 14.940000 -26.000000
v 1.836253 15.836253 -26.000000
v 4.000000 18.000000 -22.000000
v 1.836253 15.836253 -22.000000
v 4.000000 14.940000 -22.000000
v 4.000000 14.940000 -26.000000
v 6.163747 15.836253 -26.000000
v 6.163747 15.836253 -22.000000
v 4.000000 14.940000 -22.000000
v 4.000000 18.000000 -26.000000
v 6.163747 15.836253 -26.000000
v 4.000000 14.940000 -26.000000
v 4.000000 18.000000 -22.000000
v 4.000000 14.940000 -22.000000
v 6.163747 15.836253 -22.000000
v 6.163747 15.836253 -26.000000
v 7.060000 18.000000 -26.000000
v 7.060000 18.000000 -22.000000
v 6.163747 15.836253 -22.000000
v 4.000000 18.000000 -26.000000
v 7.060000 18.000000 -26.000000
v 6.163747 15.836253 -26.000000
v 4.000000 18.000000 -22.000000
v 6.163747 15.836253 -22.000000
v 7.060000 18.000000 -22.000000
v 7.060000 18.000000 -26.000000
v 6.163747 20.163747 -26.000000
v 6.163747 20.163747 -22.000000
v 7.060000 18.000000 -22.000000
v 4.000000 18.000000 -26.000000
v 6.163747 20.163747 -26.000000
v 7.060000 18.000000 -26.000000
v 4.000000 18.000000 -22.000000
v 7.060000 18.000000 -22.000000
v 6.163747 20.163747 -22.000000
v 6.163747 20.163747 -26.000000
v 4.000000 21.060000 -26.000000
v 4.000000 21.060000 -22.000000
v 6.163747 20.163747 -22.000000
v 4.000000 18.000000 -26.000000
v 4.000000 21.060000 -26.000000
v 6.163747 20.163747 -26.000000
v 4.000000 18.000000 -22.000000
v 6.163747 20.163747 -22.000000
v 4.000000 21.060000 -22.000000
v 15.390000 16.130000 -25.680000
v 19.130000 16.130000 -25.680000
v 19.130000 16.130000 -22.320000
v 15.390000 16.130000 -22.320000
v 19.130000 16.130000 -25.680000
v 19.130000 19.870000 -25.680000
v 19.130000 19.870000 -22.320000
v 19.130000 16.130000 -22.320000
v 19.130000 19.870000 -25.680000
v 15.390000 19.870000 -25.680000
v 15.390000 19.870000 -22.320000
v 19.130000 19.870000 -22.320000
v 15.390000 19.870000 -25.680000
v 15.390000 16.130000 -25.680000
v 15.390000 16.130000 -22.320000
v 15.390000 19.870000 -22.320000
v 15.390000 19.870000 -25.680000
v 19.130000 19.870000 -25.680000
v 19.130000 16.130000 -25.680000
v 15.390000 16.130000 -25.680000
v 15.390000 16.130000 -22.320000
v 19.130000 16.130000 -22.320000
v 19.130000 19.870000 -22.320000
v 15.390000 19.870000 -22.320000
v 8.760000 27.613497 -25.680000
v 12.500000 27.613497 -25.680000
v 12.500000 27.613497 -22.320000
v 8.760000 27.613497 -22.320000
v 12.500000 27.613497 -25.680000
v 12.500000 31.353497 -25.680000
v 12.500000 31.353497 -22.320000
v 12.500000 27.613497 -22.320000
v 12.500000 31.353497 -25.680000
v 8.760000 31.353497 -25.680000
v 8.760000 31.353497 -22.320000
v 12.500000 31.353497 -22.320000
v 8.760000 31.353497 -25.680000
v 8.760000 27.613497 -25.680000
v 8.760000 27.613497 -22.320000
v 8.760000 31.353497 -22.320000
v 8.760000 31.353497 -25.680000
v 12.500000 31.353497 -25.680000
v 12.500000 27.613497 -25.680000
v 8.760000 27.613497 -25.680000
v 8.760000 27.613497 -22.320000
v 12.500000 27.613497 -22.320000
v 12.500000 31.353497 -22.320000
v 8.760000 31.353497 -22.320000
v -4.500000 27.613497 -25.680000
v -0.760000 27.613497 -25.680000
v -0.760000 27.613497 -22.320000
v -4.500000 27.613497 -22.320000
v -0.760000 27.613497 -25.680000
v -0.760000 31.353497 -25.680000
v -0.760000 31.353497 -22.320000
v -0.760000 27.613497 -22.320000
v -0.760000 31.353497 -25.680000
v -4.500000 31.353497 -25.680000
v -4.500000 31.353497 -22.320000
v -0.760000 31.353497 -22.320000
v -4.500000 31.353497 -25.680000
v -4.500000 27.613497 -25.680000
v -4.500000 27.613497 -22.320000
v -4.500000 31.353497 -22.320000
v -4.500000 31.353497 -25.680000
v -0.760000 31.353497 -25.680000
v -0.760000 27.613497 -25.680000
v -4.500000 27.613497 -25.680000
v -4.500000 27.613497 -22.320000
v -0.760000 27.613497 -22.320000
v -0.760000 31.353497 -22.320000
v -4.500000 31.353497 -22.320000
v -11.130000 16.130000 -25.680000
v -7.390000 16.130000 -25.680000
v -7.390000 16.130000 -22.320000
v -11.130000 16.130000 -22.320000
v -7.390000 16.130000 -25.680000
v -7.390000 19.870000 -25.680000
v -7.390000 19.870000 -22.320000
v -7.390000 16.130000 -22.320000
v -7.390000 19.870000 -25.680000
v -11.130000 19.870000 -25.680000
v -11.130000 19.870000 -22.320000
v -7.390000 19.870000 -22.320000
v -11.130000 19.870000 -25.680000
v -11.130000 16.130000 -25.680000
v -11.130000 16.130000 -22.320000
v -11.130000 19.870000 -22.320000
v -11.130000 19.870000 -25.680000
v -7.390000 19.870000 -25.680000
v -7.390000 16.130000 -25.680000
v -11.130000 16.130000 -25.680000
v -11.130000 16.130000 -22.320000
v -7.390000 16.130000 -22.320000
v -7.390000 19.870000 -22.320000
v -11.130000 19.870000 -22.320000
v -4.500000 4.646503 -25.680000
v -0.760000 4.646503 -25.680000
v -0.760000 4.646503 -22.320000
v -4.500000 4.646503 -22.320000
v -0.760000 4.646503 -25.680000
v -0.760000 8.386503 -25.680000
v -0.760000 8.386503 -22.320000
v -0.760000 4.646503 -22.320000
v -0.760000 8.386503 -25.680000
v -4.500000 8.386503 -25.680000
v -4.500000 8.386503 -22.320000
v -0.760000 8.386503 -22.320000
v -4.500000 8.386503 -25.680000
v -4.500000 4.646503 -25.680000
v -4.500000 4.646503 -22.320000
v -4.500000 8.386503 -22.320000
v -4.500000 8.386503 -25.680000
v -0.760000 8.386503 -25.680000
v -0.760000 4.646503 -25.680000
v -4.500000 4.646503 -25.680000
v -4.500000 4.646503 -22.320000
v -0.760000 4.646503 -22.320000
v -0.760000 8.386503 -22.320000
v -4.500000 8.386503 -22.320000
v 8.760000 4.646503 -25.680000
v 12.500000 4.646503 -25.680000
v 12.500000 4.646503 -22.320000
v 8.760000 4.646503 -22.320000
v 12.500000 4.646503 -25.680000
v 12.500000 8.386503 -25.680000
v 12.500000 8.386503 -22.320000
v 12.500000 4.646503 -22.320000
v 12.500000 8.386503 -25.680000
v 8.760000 8.386503 -25.680000
v 8.760000 8.386503 -22.320000
v 12.500000 8.386503 -22.320000
v 8.760000 8.386503 -25.680000
v 8.760000 4.646503 -25.680000
v 8.760000 4.646503 -22.320000
v 8.760000 8.386503 -22.320000
v 8.760000 8.386503 -25.680000
v 12.500000 8.386503 -25.680000
v 12.500000 4.646503 -25.680000
v 8.760000 4.646503 -25.680000
v 8.760000 4.646503 -22.320000
v 12.500000 4.646503 -22.320000
v 12.500000 8.386503 -22.320000
v 8.760000 8.386503 -22.320000
v 4.000000 35.000000 20.000000
v -4.500000 32.722432 20.000000
v -4.500000 32.722432 28.000000
v 4.000000 35.000000 28.000000
v 4.000000 18.000000 20.000000
v -4.500000 32.722432 20.000000
v 4.000000 35.000000 20.000000
v 4.000000 18.000000 28.000000
v 4.000000 35.000000 28.000000
v -4.500000 32.722432 28.000000
v -4.500000 32.722432 20.000000
v -10.722432 26.500000 20.000000
v -10.722432 26.500000 28.000000
v -4.500000 32.722432 28.000000
v 4.000000 18.000000 20.000000
v -10.722432 26.500000 20.000000
v -4.500000 32.722432 20.000000
v 4.000000 18.000000 28.000000
v -4.500000 32.722432 28.000000
v -10.722432 26.500000 28.000000
v -10.722432 26.500000 20.000000
v -13.000000 18.000000 20.000000
v -13.000000 18.000000 28.000000
v -10.722432 26.500000 28.000000
v 4.000000 18.000000 20.000000
v -13.000000 18.000000 20.000000
v -10.722432 26.500000 20.000000
v 4.000000 18.000000 28.000000
v -10.722432 26.500000 28.000000
v -13.000000 18.000000 28.000000
v -13.000000 18.000000 20.000000
v -10.722432 9.500000 20.000000
v -10.722432 9.500000 28.000000
v -13.000000 18.000000 28.000000
v 4.000000 18.000000 20.000000
v -10.722432 9.500000 20.000000
v -13.000000 18.000000 20.000000
v 4.000000 18.000000 28.000000
v -13.000000 18.000000 28.000000
v -10.722432 9.500000 28.000000
v -10.722432 9.500000 20.000000
v -4.500000 3.277568 20.000000
v -4.500000 3.277568 28.000000
v -10.722432 9.500000 28.000000
v 4.000000 18.000000 20.000000
v -4.500000 3.277568 20.000000
v -10.722432 9.500000 20.000000
v 4.000000 18.000000 28.000000
v -10.722432 9.500000 28.000000
v -4.500000 3.277568 28.000000
v -4.500000 3.277568 20.000000
v 4.000000 1.000000 20.000000
v 4.000000 1.000000 28.000000
v -4.500000 3.277568 28.000000
v 4.000000 18.000000 20.000000
v 4.000000 1.000000 20.000000
v -4.500000 3.277568 20.000000
v 4.000000 18.000000 28.000000
v -4.500000 3.277568 28.000000
v 4.000000 1.000000 28.000000
v 4.000000 1.000000 20.000000
v 12.500000 3.277568 20.000000
v 12.500000 3.277568 28.000000
v 4.000000 1.000000 28.000000
v 4.000000 18.000000 20.000000
v 12.500000 3.277568 20.000000
v 4.000000 1.000000 20.000000
v 4.000000 18.000000 28.000000
v 4.000000 1.000000 28.000000
v 12.500000 3.277568 28.000000
v 12.500000 3.277568 20.000000
v 18.722432 9.500000 20.000000
v 18.722432 9.500000 28.000000
v 12.500000 3.277568 28.000000
v 4.000000 18.000000 20.000000
v 18.722432 9.500000 20.000000
v 12.500000 3.277568 20.000000
v 4.000000 18.000000 28.000000
v 12.500000 3.277568 28.000000
v 18.722432 9.500000 28.000000
v 18.722432 9.500000 20.000000
v 21.000000 18.000000 20.000000
v 21.000000 18.000000 28.000000
v 18.722432 9.500000 28.000000
v 4.000000 18.000000 20.000000
v 21.000000 18.000000 20.000000
v 18.722432 9.500000 20.000000
v 4.000000 18.000000 28.000000
v 18.722432 9.500000 28.000000
v 21.000000 18.000000 28.000000
v 21.000000 18.000000 20.000000
v 18.722432 26.500000 20.000000
v 18.722432 26.500000 28.000000
v 21.000000 18.000000 28.000000
v 4.000000 18.000000 20.000000
v 18.722432 26.500000 20.000000
v 21.000000 18.000000 20.000000
v 4.000000 18.000000 28.000000
v 21.000000 18.000000 28.000000
v 18.722432 26.500000 28.000000
v 18.722432 26.500000 20.000000
v 12.500000 32.722432 20.000000
v 12.500000 32.722432 28.000000
v 18.722432 26.500000 28.000000
v 4.000000 18.000000 20.000000
v 12.500000 32.722432 20.000000
v 18.722432 26.500000 20.000000
v 4.000000 18.000000 28.000000
v 18.722432 26.500000 28.000000
v 12.500000 32.722432 28.000000
v 12.500000 32.722432 20.000000
v 4.000000 35.000000 20.000000
v 4.000000 35.000000 28.000000
v 12.500000 32.722432 28.000000
v 4.000000 18.000000 20.000000
v 4.000000 35.000000 20.000000
v 12.500000 32.722432 20.000000
v 4.000000 18.000000 28.000000
v 12.500000 32.722432 28.000000
v 4.000000 35.000000 28.000000
v 4.000000 32.280000 20.960000
v -3.140000 30.366843 20.960000
v -3.140000 30.366843 27.040000
v 4.000000 32.280000 27.040000
v 4.000000 18.000000 20.960000
v -3.140000 30.366843 20.960000
v 4.000000 32.280000 20.960000
v 4.000000 18.000000 27.040000
v 4.000000 32.280000 27.040000
v -3.140000 30.366843 27.040000
v -3.140000 30.366843 20.960000
v -8.366843 25.140000 20.960000
v -8.366843 25.140000 27.040000
v -3.140000 30.366843 27.040000
v 4.000000 18.000000 20.960000
v -8.366843 25.140000 20.960000
v -3.140000 30.366843 20.960000
v 4.000000 18.000000 27.040000
v -3.140000 30.366843 27.040000
v -8.366843 25.140000 27.040000
v -8.366843 25.140000 20.960000
v -10.280000 18.000000 20.960000
v -10.280000 18.000000 27.040000
v -8.366843 25.140000 27.040000
v 4.000000 18.000000 20.960000
v -10.280000 18.000000 20.960000
v -8.366843 25.140000 20.960000
v 4.000000 18.000000 27.040000
v -8.366843 25.140000 27.040000
v -10.280000 18.000000 27.040000
v -10.280000 18.000000 20.960000
v -8.366843 10.860000 20.960000
v -8.366843 10.860000 27.040000
v -10.280000 18.000000 27.040000
v 4.000000 18.000000 20.960000
v -8.366843 10.860000 20.960000
v -10.280000 18.000000 20.960000
v 4.000000 18.000000 27.040000
v -10.280000 18.000000 27.040000
v -8.366843 10.860000 27.040000
v -8.366843 10.860000 20.960000
v -3.140000 5.633157 20.960000
v -3.140000 5.633157 27.040000
v -8.366843 10.860000 27.040000
v 4.000000 18.000000 20.960000
v -3.140000 5.633157 20.960000
v -8.366843 10.860000 20.960000
v 4.000000 18.000000 27.040000
v -8.366843 10.860000 27.040000
v -3.140000 5.633157 27.040000
v -3.140000 5.633157 20.960000
v 4.000000 3.720000 20.960000
v 4.000000 3.720000 27.040000
v -3.140000 5.633157 27.040000
v 4.000000 18.000000 20.960000
v 4.000000 3.720000 20.960000
v -3.140000 5.633157 20.960000
v 4.000000 18.000000 27.040000
v -3.140000 5.633157 27.040000
v 4.000000 3.720000 27.040000
v 4.000000 3.720000 20.960000
v 11.140000 5.633157 20.960000
v 11.140000 5.633157 27.040000
v 4.000000 3.720000 27.040000
v 4.000000 18.000000 20.960000
v 11.140000 5.633157 20.960000
v 4.000000 3.720000 20.960000
v 4.000000 18.000000 27.040000
v 4.000000 3.720000 27.040000
v 11.140000 5.633157 27.040000
v 11.140000 5.633157 20.960000
v 16.366843 10.860000 20.960000
v 16.366843 10.860000 27.040000
v 11.140000 5.633157 27.040000
v 4.000000 18.000000 20.960000
v 16.366843 10.860000 20.960000
v 11.140000 5.633157 20.960000
v 4.000000 18.000000 27.040000
v 11.140000 5.633157 27.040000
v 16.366843 10.860000 27.040000
v 16.366843 10.860000 20.960000
v 18.280000 18.000000 20.960000
v 18.280000 18.000000 27.040000
v 16.366843 10.860000 27.040000
v 4.000000 18.000000 20.960000
v 18.280000 18.000000 20.960000
v 16.366843 10.860000 20.960000
v 4.000000 18.000000 27.040000
v 16.366843 10.860000 27.040000
v 18.280000 18.000000 27.040000
v 18.280000 18.000000 20.960000
v 16.366843 25.140000 20.960000
v 16.366843 25.140000 27.040000
v 18.280000 18.000000 27.040000
v 4.000000 18.000000 20.960000
v 16.366843 25.140000 20.960000
v 18.280000 18.000000 20.960000
v 4.000000 18.000000 27.040000
v 18.280000 18.000000 27.040000
v 16.366843 25.140000 27.040000
v 16.366843 25.140000 20.960000
v 11.140000 30.366843 20.960000
v 11.140000 30.366843 27.040000
v 16.366843 25.140000 27.040000
v 4.000000 18.000000 20.960000
v 11.140000 30.366843 20.960000
v 16.366843 25.140000 20.960000
v 4.000000 18.000000 27.040000
v 16.366843 25.140000 27.040000
v 11.140000 30.366843 27.040000
v 11.140000 30.366843 20.960000
v 4.000000 32.280000 20.960000
v 4.000000 32.280000 27.040000
v 11.140000 30.366843 27.040000
v 4.000000 18.000000 20.960000
v 4.000000 32.280000 20.960000
v 11.140000 30.366843 20.960000
v 4.000000 18.000000 27.040000
v 11.140000 30.366843 27.040000
v 4.000000 32.280000 27.040000
v 4.000000 21.060000 22.000000
v 1.836253 20.163747 22.000000
v 1.836253 20.163747 26.000000
v 4.000000 21.060000 26.000000
v 4.000000 18.000000 22.000000
v 1.836253 20.163747 22.000000
v 4.000000 21.060000 22.000000
v 4.000000 18.000000 26.000000
v 4.000000 21.060000 26.000000
v 1.836253 20.163747 26.000000
v 1.836253 20.163747 22.000000
v 0.940000 18.000000 22.000000
v 0.940000 18.000000 26.000000
v 1.836253 20.163747 26.000000
v 4.000000 18.000000 22.000000
v 0.940000 18.000000 22.000000
v 1.836253 20.163747 22.000000
v 4.000000 18.000000 26.000000
v 1.836253 20.163747 26.000000
v 0.940000 18.000000 26.000000
v 0.940000 18.000000 22.000000
v 1.836253 15.836253 22.000000
v 1.836253 15.836253 26.000000
v 0.940000 18.000000 26.000000
v 4.000000 18.000000 22.000000
v 1.836253 15.836253 22.000000
v 0.940000 18.000000 22.000000
v 4.000000 18.000000 26.000000
v 0.940000 18.000000 26.000000
v 1.836253 15.836253 26.000000
v 1.836253 15.836253 22.000000
v 4.000000 14.940000 22.000000
v 4.000000 14.940000 26.000000
v 1.836253 15.836253 26.000000
v 4.000000 18.000000 22.000000
v 4.000000 14.940000 22.000000
v 1.836253 15.836253 22.000000
v 4.000000 18.000000 26.000000
v 1.836253 15.836253 26.000000
v 4.000000 14.940000 26.000000
v 4.000000 14.940000 22.000000
v 6.163747 15.836253 22.000000
v 6.163747 15.836253 26.000000
v 4.000000 14.940000 26.000000
v 4.000000 18.000000 22.000000
v 6.163747 15.836253 22.000000
v 4.000000 14.940000 22.000000
v 4.000000 18.000000 26.000000
v 4.000000 14.940000 26.000000
v 6.163747 15.836253 26.000000
v 6.163747 15.836253 22.000000
v 7.060000 18.000000 22.000000
v 7.060000 18.000000 26.000000
v 6.163747 15.836253 26.000000
v 4.000000 18.000000 22.000000
v 7.060000 18.000000 22.000000
v 6.163747 15.836253 22.000000
v 4.000000 18.000000 26.000000
v 6.163747 15.836253 26.000000
v 7.060000 18.000000 26.000000
v 7.060000 18.000000 22.000000
v 6.163747 20.163747 22.000000
v 6.163747 20.163747 26.000000
v 7.060000 18.000000 26.000000
v 4.000000 18.000000 22.000000
v 6.163747 20.163747 22.000000
v 7.060000 18.000000 22.000000
v 4.000000 18.000000 26.000000
v 7.060000 18.000000 26.000000
v 6.163747 20.163747 26.000000
v 6.163747 20.163747 22.000000
v 4.000000 21.060000 22.000000
v 4.000000 21.060000 26.000000
v 6.163747 20.163747 26.000000
v 4.000000 18.000000 22.000000
v 4.000000 21.060000 22.000000
v 6.163747 20.163747 22.000000
v 4.000000 18.000000 26.000000
v 6.163747 20.163747 26.000000
v 4.000000 21.060000 26.000000
v 15.390000 16.130000 22.320000
v 19.130000 16.130000 22.320000
v 19.130000 16.130000 25.680000
v 15.390000 16.130000 25.680000
v 19.130000 16.130000 22.320000
v 19.130000 19.870000 22.320000
v 19.130000 19.870000 25.680000
v 19.130000 16.130000 25.680000
v 19.130000 19.870000 22.320000
v 15.390000 19.870000 22.320000
v 15.390000 19.870000 25.680000
v 19.130000 19.870000 25.680000
v 15.390000 19.870000 22.320000
v 15.390000 16.130000 22.320000
v 15.390000 16.130000 25.680000
v 15.390000 19.870000 25.680000
v 15.390000 19.870000 22.320000
v 19.130000 19.870000 22.320000
v 19.130000 16.130000 22.320000
v 15.390000 16.130000 22.320000
v 15.390000 16.130000 25.680000
v 19.130000 16.130000 25.680000
v 19.130000 19.870000 25.680000
v 15.390000 19.870000 25.680000
v 8.760000 27.613497 22.320000
v 12.500000 27.613497 22.320000
v 12.500000 27.613497 25.680000
v 8.760000 27.613497 25.680000
v 12.500000 27.613497 22.320000
v 12.500000 31.353497 22.320000
v 12.500000 31.353497 25.680000
v 12.500000 27.613497 25.680000
v 12.500000 31.353497 22.320000
v 8.760000 31.353497 22.320000
v 8.760000 31.353497 25.680000
v 12.500000 31.353497 25.680000
v 8.760000 31.353497 22.320000
v 8.760000 27.613497 22.320000
v 8.760000 27.613497 25.680000
v 8.760000 31.353497 25.680000
v 8.760000 31.353497 22.320000
v 12.500000 31.353497 22.320000
v 12.500000 27.613497 22.320000
v 8.760000 27.613497 22.320000
v 8.760000 27.613497 25.680000
v 12.500000 27.613497 25.680000
v 12.500000 31.353497 25.680000
v 8.760000 31.353497 25.680000
v -4.500000 27.613497 22.320000
v -0.760000 27.613497 22.320000
v -0.760000 27.613497 25.680000
v -4.500000 27.613497 25.680000
v -0.760000 27.613497 22.320000
v -0.760000 31.353497 22.320000
v -0.760000 31.353497 25.680000
v -0.760000 27.613497 25.680000
v -0.760000 31.353497 22.320000
v -4.500000 31.353497 22.320000
v -4.500000 31.353497 25.680000
v -0.760000 31.353497 25.680000
v -4.500000 31.353497 22.320000
v -4.500000 27.613497 22.320000
v -4.500000 27.613497 25.680000
v -4.500000 31.353497 25.680000
v -4.500000 31.353497 22.320000
v -0.760000 31.353497 22.320000
v -0.760000 27.613497 22.320000
v -4.500000 27.613497 22.320000
v -4.500000 27.613497 25.680000
v -0.760000 27.613497 25.680000
v -0.760000 31.353497 25.680000
v -4.500000 31.353497 25.680000
v -11.130000 16.130000 22.320000
v -7.390000 16.130000 22.320000
v -7.390000 16.130000 25.680000
v -11.130000 16.130000 25.680000
v -7.390000 16.130000 22.320000
v -7.390000 19.870000 22.320000
v -7.390000 19.870000 25.680000
v -7.390000 16.130000 25.680000
v -7.390000 19.870000 22.320000
v -11.130000 19.870000 22.320000
v -11.130000 19.870000 25.680000
v -7.390000 19.870000 25.680000
v -11.130000 19.870000 22.320000
v -11.130000 16.130000 22.320000
v -11.130000 16.130000 25.680000
v -11.130000 19.870000 25.680000
v -11.130000 19.870000 22.320000
v -7.390000 19.870000 22.320000
v -7.390000 16.130000 22.320000
v -11.130000 16.130000 22.320000
v -11.130000 16.130000 25.680000
v -7.390000 16.130000 25.680000
v -7.390000 19.870000 25.680000
v -11.130000 19.870000 25.680000
v -4.500000 4.646503 22.320000
v -0.760000 4.646503 22.320000
v -0.760000 4.646503 25.680000
v -4.500000 4.646503 25.680000
v -0.760000 4.646503 22.320000
v -0.760000 8.386503 22.320000
v -0.760000 8.386503 25.680000
v -0.760000 4.646503 25.680000
v -0.760000 8.386503 22.320000
v -4.500000 8.386503 22.320000
v -4.500000 8.386503 25.680000
v -0.760000 8.386503 25.680000
v -4.500000 8.386503 22.320000
v -4.500000 4.646503 22.320000
v -4.500000 4.646503 25.680000
v -4.500000 8.386503 25.680000
v -4.500000 8.386503 22.320000
v -0.760000 8.386503 22.320000
v -0.760000 4.646503 22.320000
v -4.500000 4.646503 22.320000
v -4.500000 4.646503 25.680000
v -0.760000 4.646503 25.680000
v -0.760000 8.386503 25.680000
v -4.500000 8.386503 25.680000
v 8.760000 4.646503 22.320000
v 12.500000 4.646503 22.320000
v 12.500000 4.646503 25.680000
v 8.760000 4.646503 25.680000
v 12.500000 4.646503 22.320000
v 12.500000 8.386503 22.320000
v 12.500000 8.386503 25.680000
v 12.500000 4.646503 25.680000
v 12.500000 8.386503 22.320000
v 8.760000 8.386503 22.320000
v 8.760000 8.386503 25.680000
v 12.500000 8.386503 25.680000
v 8.760000 8.386503 22.320000
v 8.760000 4.646503 22.320000
v 8.760000 4.646503 25.680000
v 8.760000 8.386503 25.680000
v 8.760000 8.386503 22.320000
v 12.500000 8.386503 22.320000
v 12.500000 4.646503 22.320000
v 8.760000 4.646503 22.320000
v 8.760000 4.646503 25.680000
v 12.500000 4.646503 25.680000
v 12.500000 8.386503 25.680000
v 8.760000 8.386503 25.680000
v 17.000000 7.500000 -15.000000
v 23.000000 7.500000 -15.000000
v 23.000000 7.500000 15.000000
v 17.000000 7.500000 15.000000
v 23.000000 7.500000 -15.000000
v 23.000000 12.500000 -15.000000
v 23.000000 12.500000 15.000000
v 23.000000 7.500000 15.000000
v 23.000000 12.500000 -15.000000
v 17.000000 12.500000 -15.000000
v 17.000000 12.500000 15.000000
v 23.000000 12.500000 15.000000
v 17.000000 12.500000 -15.000000
v 17.000000 7.500000 -15.000000
v 17.000000 7.500000 15.000000
v 17.000000 12.500000 15.000000
v 17.000000 12.500000 -15.000000
v 23.000000 12.500000 -15.000000
v 23.000000 7.500000 -15.000000
v 17.000000 7.500000 -15.000000
v 17.000000 7.500000 15.000000
v 23.000000 7.500000 15.000000
v 23.000000 12.500000 15.000000
v 17.000000 12.500000 15.000000
v -20.000000 32.000000 8.000000
v -19.693214 28.011782 6.928203
v 58.210915 35.258100 4.763140
v 58.000000 38.000000 5.500000
v -20.000000 32.000000 0.000000
v -19.693214 28.011782 6.928203
v -20.000000 32.000000 8.000000
v 58.000000 38.000000 0.000000
v 58.000000 38.000000 5.500000
v 58.210915 35.258100 4.763140
v -19.693214 28.011782 6.928203
v -19.468631 25.092204 4.000000
v 58.365316 33.250890 2.750000
v 58.210915 35.258100 4.763140
v -20.000000 32.000000 0.000000
v -19.468631 25.092204 4.000000
v -19.693214 28.011782 6.928203
v 58.000000 38.000000 0.000000
v 58.210915 35.258100 4.763140
v 58.365316 33.250890 2.750000
v -19.468631 25.092204 4.000000
v -19.386428 24.023564 0.000000
v 58.421831 32.516200 0.000000
v 58.365316 33.250890 2.750000
v -20.000000 32.000000 0.000000
v -19.386428 24.023564 0.000000
v -19.468631 25.092204 4.000000
v 58.000000 38.000000 0.000000
v 58.365316 33.250890 2.750000
v 58.421831 32.516200 0.000000
v -19.386428 24.023564 0.000000
v -19.468631 25.092204 -4.000000
v 58.365316 33.250890 -2.750000
v 58.421831 32.516200 0.000000
v -20.000000 32.000000 0.000000
v -19.468631 25.092204 -4.000000
v -19.386428 24.023564 0.000000
v 58.000000 38.000000 0.000000
v 58.421831 32.516200 0.000000
v 58.365316 33.250890 -2.750000
v -19.468631 25.092204 -4.000000
v -19.693214 28.011782 -6.928203
v 58.210915 35.258100 -4.763140
v 58.365316 33.250890 -2.750000
v -20.000000 32.000000 0.000000
v -19.693214 28.011782 -6.928203
v -19.468631 25.092204 -4.000000
v 58.000000 38.000000 0.000000
v 58.365316 33.250890 -2.750000
v 58.210915 35.258100 -4.763140
v -19.693214 28.011782 -6.928203
v -20.000000 32.000000 -8.000000
v 58.000000 38.000000 -5.500000
v 58.210915 35.258100 -4.763140
v -20.000000 32.000000 0.000000
v -20.000000 32.000000 -8.000000
v -19.693214 28.011782 -6.928203
v 58.000000 38.000000 0.000000
v 58.210915 35.258100 -4.763140
v 58.000000 38.000000 -5.500000
v -20.000000 32.000000 -8.000000
v -20.306786 35.988218 -6.928203
v 57.789085 40.741900 -4.763140
v 58.000000 38.000000 -5.500000
v -20.000000 32.000000 0.000000
v -20.306786 35.988218 -6.928203
v -20.000000 32.000000 -8.000000
v 58.000000 38.000000 0.000000
v 58.000000 38.000000 -5.500000
v 57.789085 40.741900 -4.763140
v -20.306786 35.988218 -6.928203
v -20.531369 38.907796 -4.000000
v 57.634684 42.749110 -2.750000
v 57.789085 40.741900 -4.763140
v -20.000000 32.000000 0.000000
v -20.531369 38.907796 -4.000000
v -20.306786 35.988218 -6.928203
v 58.000000 38.000000 0.000000
v 57.789085 40.741900 -4.763140
v 57.634684 42.749110 -2.750000
v -20.531369 38.907796 -4.000000
v -20.613572 39.976436 -0.000000
v 57.578169 43.483800 -0.000000
v 57.634684 42.749110 -2.750000
v -20.000000 32.000000 0.000000
v -20.613572 39.976436 -0.000000
v -20.531369 38.907796 -4.000000
v 58.000000 38.000000 0.000000
v 57.634684 42.749110 -2.750000
v 57.578169 43.483800 -0.000000
v -20.613572 39.976436 -0.000000
v -20.531369 38.907796 4.000000
v 57.634684 42.749110 2.750000
v 57.578169 43.483800 -0.000000
v -20.000000 32.000000 0.000000
v -20.531369 38.907796 4.000000
v -20.613572 39.976436 -0.000000
v 58.000000 38.000000 0.000000
v 57.578169 43.483800 -0.000000
v 57.634684 42.749110 2.750000
v -20.531369 38.907796 4.000000
v -20.306786 35.988218 6.928203
v 57.789085 40.741900 4.763140
v 57.634684 42.749110 2.750000
v -20.000000 32.000000 0.000000
v -20.306786 35.988218 6.928203
v -20.531369 38.907796 4.000000
v 58.000000 38.000000 0.000000
v 57.634684 42.749110 2.750000
v 57.789085 40.741900 4.763140
v -20.306786 35.988218 6.928203
v -20.000000 32.000000 8.000000
v 58.000000 38.000000 5.500000
v 57.789085 40.741900 4.763140
v -20.000000 32.000000 0.000000
v -20.000000 32.000000 8.000000
v -20.306786 35.988218 6.928203
v 58.000000 38.000000 0.000000
v 57.789085 40.741900 4.763140
v 58.000000 38.000000 5.500000
v 58.000000 38.000000 6.200000
v 58.000000 34.900000 5.369358
v 61.000000 34.500000 6.062178
v 61.000000 38.000000 7.000000
v 58.000000 38.000000 0.000000
v 58.000000 34.900000 5.369358
v 58.000000 38.000000 6.200000
v 61.000000 38.000000 0.000000
v 61.000000 38.000000 7.000000
v 61.000000 34.500000 6.062178
v 58.000000 34.900000 5.369358
v 58.000000 32.630642 3.100000
v 61.000000 31.937822 3.500000
v 61.000000 34.500000 6.062178
v 58.000000 38.000000 0.000000
v 58.000000 32.630642 3.100000
v 58.000000 34.900000 5.369358
v 61.000000 38.000000 0.000000
v 61.000000 34.500000 6.062178
v 61.000000 31.937822 3.500000
v 58.000000 32.630642 3.100000
v 58.000000 31.800000 0.000000
v 61.000000 31.000000 0.000000
v 61.000000 31.937822 3.500000
v 58.000000 38.000000 0.000000
v 58.000000 31.800000 0.000000
v 58.000000 32.630642 3.100000
v 61.000000 38.000000 0.000000
v 61.000000 31.937822 3.500000
v 61.000000 31.000000 0.000000
v 58.000000 31.800000 0.000000
v 58.000000 32.630642 -3.100000
v 61.000000 31.937822 -3.500000
v 61.000000 31.000000 0.000000
v 58.000000 38.000000 0.000000
v 58.000000 32.630642 -3.100000
v 58.000000 31.800000 0.000000
v 61.000000 38.000000 0.000000
v 61.000000 31.000000 0.000000
v 61.000000 31.937822 -3.500000
v 58.000000 32.630642 -3.100000
v 58.000000 34.900000 -5.369358
v 61.000000 34.500000 -6.062178
v 61.000000 31.937822 -3.500000
v 58.000000 38.000000 0.000000
v 58.000000 34.900000 -5.369358
v 58.000000 32.630642 -3.100000
v 61.000000 38.000000 0.000000
v 61.000000 31.937822 -3.500000
v 61.000000 34.500000 -6.062178
v 58.000000 34.900000 -5.369358
v 58.000000 38.000000 -6.200000
v 61.000000 38.000000 -7.000000
v 61.000000 34.500000 -6.062178
v 58.000000 38.000000 0.000000
v 58.000000 38.000000 -6.200000
v 58.000000 34.900000 -5.369358
v 61.000000 38.000000 0.000000
v 61.000000 34.500000 -6.062178
v 61.000000 38.000000 -7.000000
v 58.000000 38.000000 -6.200000
v 58.000000 41.100000 -5.369358
v 61.000000 41.500000 -6.062178
v 61.000000 38.000000 -7.000000
v 58.000000 38.000000 0.000000
v 58.000000 41.100000 -5.369358
v 58.000000 38.000000 -6.200000
v 61.000000 38.000000 0.000000
v 61.000000 38.000000 -7.000000
v 61.000000 41.500000 -6.062178
v 58.000000 41.100000 -5.369358
v 58.000000 43.369358 -3.100000
v 61.000000 44.062178 -3.500000
v 61.000000 41.500000 -6.062178
v 58.000000 38.000000 0.000000
v 58.000000 43.369358 -3.100000
v 58.000000 41.100000 -5.369358
v 61.000000 38.000000 0.000000
v 61.000000 41.500000 -6.062178
v 61.000000 44.062178 -3.500000
v 58.000000 43.369358 -3.100000
v 58.000000 44.200000 -0.000000
v 61.000000 45.000000 -0.000000
v 61.000000 44.062178 -3.500000
v 58.000000 38.000000 0.000000
v 58.000000 44.200000 -0.000000
v 58.000000 43.369358 -3.100000
v 61.000000 38.000000 0.000000
v 61.000000 44.062178 -3.500000
v 61.000000 45.000000 -0.000000
v 58.000000 44.200000 -0.000000
v 58.000000 43.369358 3.100000
v 61.000000 44.062178 3.500000
v 61.000000 45.000000 -0.000000
v 58.000000 38.000000 0.000000
v 58.000000 43.369358 3.100000
v 58.000000 44.200000 -0.000000
v 61.000000 38.000000 0.000000
v 61.000000 45.000000 -0.000000
v 61.000000 44.062178 3.500000
v 58.000000 43.369358 3.100000
v 58.000000 41.100000 5.369358
v 61.000000 41.500000 6.062178
v 61.000000 44.062178 3.500000
v 58.000000 38.000000 0.000000
v 58.000000 41.100000 5.369358
v 58.000000 43.369358 3.100000
v 61.000000 38.000000 0.000000
v 61.000000 44.062178 3.500000
v 61.000000 41.500000 6.062178
v 58.000000 41.100000 5.369358
v 58.000000 38.000000 6.200000
v 61.000000 38.000000 7.000000
v 61.000000 41.500000 6.062178
v 58.000000 38.000000 0.000000
v 58.000000 38.000000 6.200000
v 58.000000 41.100000 5.369358
v 61.000000 38.000000 0.000000
v 61.000000 41.500000 6.062178
v 61.000000 38.000000 7.000000
v -35.000000 24.000000 -6.000000
v -21.000000 24.000000 -6.000000
v -21.000000 24.000000 6.000000
v -35.000000 24.000000 6.000000
v -21.000000 24.000000 -6.000000
v -21.000000 40.000000 -6.000000
v -21.000000 40.000000 6.000000
v -21.000000 24.000000 6.000000
v -21.000000 40.000000 -6.000000
v -35.000000 40.000000 -6.000000
v -35.000000 40.000000 6.000000
v -21.000000 40.000000 6.000000
v -35.000000 40.000000 -6.000000
v -35.000000 24.000000 -6.000000
v -35.000000 24.000000 6.000000
v -35.000000 40.000000 6.000000
v -35.000000 40.000000 -6.000000
v -21.000000 40.000000 -6.000000
v -21.000000 24.000000 -6.000000
v -35.000000 24.000000 -6.000000
v -35.000000 24.000000 6.000000
v -21.000000 24.000000 6.000000
v -21.000000 40.000000 6.000000
v -35.000000 40.000000 6.000000
v -0.500000 21.500000 -17.000000
v 4.500000 21.500000 -17.000000
v 4.500000 21.500000 -13.000000
v -0.500000 21.500000 -13.000000
v 4.500000 21.500000 -17.000000
v 4.500000 30.500000 -17.000000
v 4.500000 30.500000 -13.000000
v 4.500000 21.500000 -13.000000
v 4.500000 30.500000 -17.000000
v -0.500000 30.500000 -17.000000
v -0.500000 30.500000 -13.000000
v 4.500000 30.500000 -13.000000
v -0.500000 30.500000 -17.000000
v -0.500000 21.500000 -17.000000
v -0.500000 21.500000 -13.000000
v -0.500000 30.500000 -13.000000
v -0.500000 30.500000 -17.000000
v 4.500000 30.500000 -17.000000
v 4.500000 21.500000 -17.000000
v -0.500000 21.500000 -17.000000
v -0.500000 21.500000 -13.000000
v 4.500000 21.500000 -13.000000
v 4.500000 30.500000 -13.000000
v -0.500000 30.500000 -13.000000
v -0.500000 21.500000 13.000000
v 4.500000 21.500000 13.000000
v 4.500000 21.500000 17.000000
v -0.500000 21.500000 17.000000
v 4.500000 21.500000 13.000000
v 4.500000 30.500000 13.000000
v 4.500000 30.500000 17.000000
v 4.500000 21.500000 17.000000
v 4.500000 30.500000 13.000000
v -0.500000 30.500000 13.000000
v -0.500000 30.500000 17.000000
v 4.500000 30.500000 17.000000
v -0.500000 30.500000 13.000000
v -0.500000 21.500000 13.000000
v -0.500000 21.500000 17.000000
v -0.500000 30.500000 17.000000
v -0.500000 30.500000 13.000000
v 4.500000 30.500000 13.000000
v 4.500000 21.500000 13.000000
v -0.500000 21.500000 13.000000
v -0.500000 21.500000 17.000000
v 4.500000 21.500000 17.000000
v 4.500000 30.500000 17.000000
v -0.500000 30.500000 17.000000
vt 0.000000 0.000000
vt 1.000000 0.000000
vt 1.000000 1.000000
vt 0.000000 1.000000
vt 0.000000 0.000000
vt 1.000000 0.000000
vt 1.000000 1.000000
vt 0.000000 1.000000
vt 0.000000 0.000000
vt 1.000000 0.000000
vt 1.000000 1.000000
vt 0.000000 1.000000
vt 0.000000 0.000000
vt 1.000000 0.000000
vt 1.000000 1.000000
vt 0.000000 1.000000
vt 0.000000 0.000000
vt 1.000000 0.000000
vt 1.000000 1.000000
vt 0.000000 1.000000
vt 0.000000 0.000000
vt 1.000000 0.000000
vt 1.000000 1.000000
vt 0.000000 1.000000
vt 0.000000 0.000000
vt 1.000000 0.000000
vt 1.000000 1.000000
vt 0.000000 1.000000
vt 0.000000 0.000000
vt 1.000000 0.000000
vt 1.000000 1.000000
vt 0.000000 1.000000
vt 0.000000 0.000000
vt 1.000000 0.000000
vt 1.000000 1.000000
vt 0.000000 1.000000
vt 0.000000 0.000000
vt 1.000000 0.000000
vt 1.000000 1.000000
vt 0.000000 1.000000
vt 0.000000 0.000000
vt 1.000000 0.000000
vt 1.000000 1.000000
vt 0.000000 1.000000
vt 0.000000 0.000000
vt 1.000000 0.000000
vt 1.000000 1.000000
vt 0.000000 1.000000
vt 0.000000 0.000000
vt 1.000000 0.000000
vt 1.000000 1.000000
vt 0.000000 1.000000
vt 0.000000 0.000000
vt 1.000000 0.000000
vt 1.000000 1.000000
vt 0.000000 1.000000
vt 0.000000 0.000000
vt 1.000000 0.000000
vt 1.000000 1.000000
vt 0.000000 1.000000
vt 0.000000 0.000000
vt 1.000000 0.000000
vt 1.000000 1.000000
vt 0.000000 1.000000
vt 0.000000 0.000000
vt 1.000000 0.000000
vt 1.000000 1.000000
vt 0.000000 1.000000
vt 0.000000 0.000000
vt 1.000000 0.000000
vt 1.000000 1.000000
vt 0.000000 1.000000
vt 0.000000 0.000000
vt 1.000000 0.000000
vt 1.000000 1.000000
vt 0.000000 1.000000
vt 0.500000 1.000000
vt 0.000000 0.000000
vt 1.000000 0.000000
vt 0.500000 1.000000
vt 0.000000 0.000000
vt 1.000000 0.000000
vt 0.000000 0.000000
vt 1.000000 0.000000
vt 1.000000 1.000000
vt 0.000000 1.000000
vt 0.500000 1.000000
vt 0.000000 0.000000
vt 1.000000 0.000000
vt 0.500000 1.000000
vt 0.000000 0.000000
vt 1.000000 0.000000
vt 0.000000 0.000000
vt 1.000000 0.000000
vt 1.000000 1.000000
vt 0.000000 1.000000
vt 0.500000 1.000000
vt 0.000000 0.000000
vt 1.000000 0.000000
vt 0.500000 1.000000
vt 0.000000 0.000000
vt 1.000000 0.000000
vt 0.000000 0.000000
vt 1.000000 0.000000
vt 1.000000 1.000000
vt 0.000000 1.000000
vt 0.500000 1.000000
vt 0.000000 0.000000
vt 1.000000 0.000000
vt 0.500000 1.000000
vt 0.000000 0.000000
vt 1.000000 0.000000
vt 0.000000 0.000000
vt 1.000000 0.000000
vt 1.000000 1.000000
vt 0.000000 1.000000
vt 0.500000 1.000000
vt 0.000000 0.000000
vt 1.000000 0.000000
vt 0.500000 1.000000
vt 0.000000 0.000000
vt 1.000000 0.000000
vt 0.000000 0.000000
vt 1.000000 0.000000
vt 1.000000 1.000000
vt 0.000000 1.000000
vt 0.500000 1.000000
vt 0.000000 0.000000
vt 1.000000 0.000000
vt 0.500000 1.000000
vt 0.000000 0.000000
vt 1.000000 0.000000
vt 0.000000 0.000000
vt 1.000000 0.000000
vt 1.000000 1.000000
vt 0.000000 1.000000
vt 0.500000 1.000000
vt 0.000000 0.000000
vt 1.000000 0.000000
vt 0.500000 1.000000
vt 0.000000 0.000000
vt 1.000000 0.000000
vt 0.000000 0.000000
vt 1.000000 0.000000
vt 1.000000 1.000000
vt 0.000000 1.000000
vt 0.500000 1.000000
vt 0.000000 0.000000
vt 1.000000 0.000000
vt 0.500000 1.000000
vt 0.000000 0.000000
vt 1.000000 0.000000
vt 0.000000 0.000000
vt 1.000000 0.000000
vt 1.000000 1.000000
vt 0.000000 1.000000
vt 0.500000 1.000000
vt 0.000000 0.000000
vt 1.000000 0.000000
vt 0.500000 1.000000
vt 0.000000 0.000000
vt 1.000000 0.000000
vt 0.000000 0.000000
vt 1.000000 0.000000
vt 1.000000 1.000000
vt 0.000000 1.000000
vt 0.500000 1.000000
vt 0.000000 0.000000
vt 1.000000 0.000000
vt 0.500000 1.000000
vt 0.000000 0.000000
vt 1.000000 0.000000
vt 0.000000 0.000000
vt 1.000000 0.000000
vt 1.000000 1.000000
vt 0.000000 1.000000
vt 0.500000 1.000000
vt 0.000000 0.000000
vt 1.000000 0.000000
vt 0.500000 1.000000
vt 0.000000 0.000000
vt 1.000000 0.000000
vt 0.000000 0.000000
vt 1.000000 0.000000
vt 1.000000 1.000000
vt 0.000000 1.000000
vt 0.500000 1.000000
vt 0.000000 0.000000
vt 1.000000 0.000000
vt 0.500000 1.000000
vt 0.000000 0.000000
vt 1.000000 0.000000
vt 0.000000 0.000000
vt 1.000000 0.000000
vt 1.000000 1.000000
vt 0.000000 1.000000
vt 0.500000 1.000000
vt 0.000000 0.000000
vt 1.000000 0.000000
vt 0.500000 1.000000
vt 0.000000 0.000000
vt 1.000000 0.000000
vt 0.000000 0.000000
vt 1.000000 0.000000
vt 1.000000 1.000000
vt 0.000000 1.000000
vt 0.500000 1.000000
vt 0.000000 0.000000
vt 1.000000 0.000000
vt 0.500000 1.000000
vt 0.000000 0.000000
vt 1.000000 0.000000
vt 0.000000 0.000000
vt 1.000000 0.000000
vt 1.000000 1.000000
vt 0.000000 1.000000
vt 0.500000 1.000000
vt 0.000000 0.000000
vt 1.000000 0.000000
vt 0.500000 1.000000
vt 0.000000 0.000000
vt 1.000000 0.000000
vt 0.000000 0.000000
vt 1.000000 0.000000
vt 1.000000 1.000000
vt 0.000000 1.000000
vt 0.500000 1.000000
vt 0.000000 0.000000
vt 1.000000 0.000000
vt 0.500000 1.000000
vt 0.000000 0.000000
vt 1.000000 0.000000
vt 0.000000 0.000000
vt 1.000000 0.000000
vt 1.000000 1.000000
vt 0.000000 1.000000
vt 0.500000 1.000000
vt 0.000000 0.000000
vt 1.000000 0.000000
vt 0.500000 1.000000
vt 0.000000 0.000000
vt 1.000000 0.000000
vt 0.000000 0.000000
vt 1.000000 0.000000
vt 1.000000 1.000000
vt 0.000000 1.000000
vt 0.500000 1.000000
vt 0.000000 0.000000
vt 1.000000 0.000000
vt 0.500000 1.000000
vt 0.000000 0.000000
vt 1.000000 0.000000
vt 0.000000 0.000000
vt 1.000000 0.000000
vt 1.000000 1.000000
vt 0.000000 1.000000
vt 0.500000 1.000000
vt 0.000000 0.000000
vt 1.000000 0.000000
vt 0.500000 1.000000
vt 0.000000 0.000000
vt 1.000000 0.000000
vt 0.000000 0.000000
vt 1.000000 0.000000
vt 1.000000 1.000000
vt 0.000000 1.000000
vt 0.500000 1.000000
vt 0.000000 0.000000
vt 1.000000 0.000000
vt 0.500000 1.000000
vt 0.000000 0.000000
vt 1.000000 0.000000
vt 0.000000 0.000000
vt 1.000000 0.000000
vt 1.000000 1.000000
vt 0.000000 1.000000
vt 0.500000 1.000000
vt 0.000000 0.000000
vt 1.000000 0.000000
vt 0.500000 1.000000
vt 0.000000 0.000000
vt 1.000000 0.000000
vt 0.000000 0.000000
vt 1.000000 0.000000
vt 1.000000 1.000000
vt 0.000000 1.000000
vt 0.500000 1.000000
vt 0.000000 0.000000
vt 1.000000 0.000000
vt 0.500000 1.000000
vt 0.000000 0.000000
vt 1.000000 0.000000
vt 0.000000 0.000000
vt 1.000000 0.000000
vt 1.000000 1.000000
vt 0.000000 1.000000
vt 0.500000 1.000000
vt 0.000000 0.000000
vt 1.000000 0.000000
vt 0.500000 1.000000
vt 0.000000 0.000000
vt 1.000000 0.000000
vt 0.000000 0.000000
vt 1.000000 0.000000
vt 1.000000 1.000000
vt 0.000000 1.000000
vt 0.500000 1.000000
vt 0.000000 0.000000
vt 1.000000 0.000000
vt 0.500000 1.000000
vt 0.000000 0.000000
vt 1.000000 0.000000
vt 0.000000 0.000000
vt 1.000000 0.000000
vt 1.000000 1.000000
vt 0.000000 1.000000
vt 0.500000 1.000000
vt 0.000000 0.000000
vt 1.000000 0.000000
vt 0.500000 1.000000
vt 0.000000 0.000000
vt 1.000000 0.000000
vt 0.000000 0.000000
vt 1.000000 0.000000
vt 1.000000 1.000000
vt 0.000000 1.000000
vt 0.500000 1.000000
vt 0.000000 0.000000
vt 1.000000 0.000000
vt 0.500000 1.000000
vt 0.000000 0.000000
vt 1.000000 0.000000
vt 0.000000 0.000000
vt 1.000000 0.000000
vt 1.000000 1.000000
vt 0.000000 1.000000
vt 0.500000 1.000000
vt 0.000000 0.000000
vt 1.000000 0.000000
vt 0.500000 1.000000
vt 0.000000 0.000000
vt 1.000000 0.000000
vt 0.000000 0.000000
vt 1.000000 0.000000
vt 1.000000 1.000000
vt 0.000000 1.000000
vt 0.500000 1.000000
vt 0.000000 0.000000
vt 1.000000 0.000000
vt 0.500000 1.000000
vt 0.000000 0.000000
vt 1.000000 0.000000
vt 0.000000 0.000000
vt 1.000000 0.000000
vt 1.000000 1.000000
vt 0.000000 1.000000
vt 0.500000 1.000000
vt 0.000000 0.000000
vt 1.000000 0.000000
vt 0.500000 1.000000
vt 0.000000 0.000000
vt 1.000000 0.000000
vt 0.000000 0.000000
vt 1.000000 0.000000
vt 1.000000 1.000000
vt 0.000000 1.000000
vt 0.500000 1.000000
vt 0.000000 0.000000
vt 1.000000 0.000000
vt 0.500000 1.000000
vt 0.000000 0.000000
vt 1.000000 0.000000
vt 0.000000 0.000000
vt 1.000000 0.000000
vt 1.000000 1.000000
vt 0.000000 1.000000
vt 0.500000 1.000000
vt 0.000000 0.000000
vt 1.000000 0.000000
vt 0.500000 1.000000
vt 0.000000 0.000000
vt 1.000000 0.000000
vt 0.000000 0.000000
vt 1.000000 0.000000
vt 1.000000 1.000000
vt 0.000000 1.000000
vt 0.500000 1.000000
vt 0.000000 0.000000
vt 1.000000 0.000000
vt 0.500000 1.000000
vt 0.000000 0.000000
vt 1.000000 0.000000
vt 0.000000 0.000000
vt 1.000000 0.000000
vt 1.000000 1.000000
vt 0.000000 1.000000
vt 0.000000 0.000000
vt 1.000000 0.000000
vt 1.000000 1.000000
vt 0.000000 1.000000
vt 0.000000 0.000000
vt 1.000000 0.000000
vt 1.000000 1.000000
vt 0.000000 1.000000
vt 0.000000 0.000000
vt 1.000000 0.000000
vt 1.000000 1.000000
vt 0.000000 1.000000
vt 0.000000 0.000000
vt 1.000000 0.000000
vt 1.000000 1.000000
vt 0.000000 1.000000
vt 0.000000 0.000000
vt 1.000000 0.000000
vt 1.000000 1.000000
vt 0.000000 1.000000
vt 0.000000 0.000000
vt 1.000000 0.000000
vt 1.000000 1.000000
vt 0.000000 1.000000
vt 0.000000 0.000000
vt 1.000000 0.000000
vt 1.000000 1.000000
vt 0.000000 1.000000
vt 0.000000 0.000000
vt 1.000000 0.000000
vt 1.000000 1.000000
vt 0.000000 1.000000
vt 0.000000 0.000000
vt 1.000000 0.000000
vt 1.000000 1.000000
vt 0.000000 1.000000
vt 0.000000 0.000000
vt 1.000000 0.000000
vt 1.000000 1.000000
vt 0.000000 1.000000
vt 0.000000 0.000000
vt 1.000000 0.000000
vt 1.000000 1.000000
vt 0.000000 1.000000
vt 0.000000 0.000000
vt 1.000000 0.000000
vt 1.000000 1.000000
vt 0.000000 1.000000
vt 0.000000 0.000000
vt 1.000000 0.000000
vt 1.000000 1.000000
vt 0.000000 1.000000
vt 0.000000 0.000000
vt 1.000000 0.000000
vt 1.000000 1.000000
vt 0.000000 1.000000
vt 0.000000 0.000000
vt 1.000000 0.000000
vt 1.000000 1.000000
vt 0.000000 1.000000
vt 0.000000 0.000000
vt 1.000000 0.000000
vt 1.000000 1.000000
vt 0.000000 1.000000
vt 0.000000 0.000000
vt 1.000000 0.000000
vt 1.000000 1.000000
vt 0.000000 1.000000
vt 0.000000 0.000000
vt 1.000000 0.000000
vt 1.000000 1.000000
vt 0.000000 1.000000
vt 0.000000 0.000000
vt 1.000000 0.000000
vt 1.000000 1.000000
vt 0.000000 1.000000
vt 0.000000 0.000000
vt 1.000000 0.000000
vt 1.000000 1.000000
vt 0.000000 1.000000
vt 0.000000 0.000000
vt 1.000000 0.000000
vt 1.000000 1.000000
vt 0.000000 1.000000
vt 0.000000 0.000000
vt 1.000000 0.000000
vt 1.000000 1.000000
vt 0.000000 1.000000
vt 0.000000 0.000000
vt 1.000000 0.000000
vt 1.000000 1.000000
vt 0.000000 1.000000
vt 0.000000 0.000000
vt 1.000000 0.000000
vt 1.000000 1.000000
vt 0.000000 1.000000
vt 0.000000 0.000000
vt 1.000000 0.000000
vt 1.000000 1.000000
vt 0.000000 1.000000
vt 0.000000 0.000000
vt 1.000000 0.000000
vt 1.000000 1.000000
vt 0.000000 1.000000
vt 0.000000 0.000000
vt 1.000000 0.000000
vt 1.000000 1.000000
vt 0.000000 1.000000
vt 0.000000 0.000000
vt 1.000000 0.000000
vt 1.000000 1.000000
vt 0.000000 1.000000
vt 0.000000 0.000000
vt 1.000000 0.000000
vt 1.000000 1.000000
vt 0.000000 1.000000
vt 0.000000 0.000000
vt 1.000000 0.000000
vt 1.000000 1.000000
vt 0.000000 1.000000
vt 0.000000 0.000000
vt 1.000000 0.000000
vt 1.000000 1.000000
vt 0.000000 1.000000
vt 0.000000 0.000000
vt 1.000000 0.000000
vt 1.000000 1.000000
vt 0.000000 1.000000
vt 0.000000 0.000000
vt 1.000000 0.000000
vt 1.000000 1.000000
vt 0.000000 1.000000
vt 0.000000 0.000000
vt 1.000000 0.000000
vt 1.000000 1.000000
vt 0.000000 1.000000
vt 0.000000 0.000000
vt 1.000000 0.000000
vt 1.000000 1.000000
vt 0.000000 1.000000
vt 0.000000 0.000000
vt 1.000000 0.000000
vt 1.000000 1.000000
vt 0.000000 1.000000
vt 0.500000 1.000000
vt 0.000000 0.000000
vt 1.000000 0.000000
vt 0.500000 1.000000
vt 0.000000 0.000000
vt 1.000000 0.000000
vt 0.000000 0.000000
vt 1.000000 0.000000
vt 1.000000 1.000000
vt 0.000000 1.000000
vt 0.500000 1.000000
vt 0.000000 0.000000
vt 1.000000 0.000000
vt 0.500000 1.000000
vt 0.000000 0.000000
vt 1.000000 0.000000
vt 0.000000 0.000000
vt 1.000000 0.000000
vt 1.000000 1.000000
vt 0.000000 1.000000
vt 0.500000 1.000000
vt 0.000000 0.000000
vt 1.000000 0.000000
vt 0.500000 1.000000
vt 0.000000 0.000000
vt 1.000000 0.000000
vt 0.000000 0.000000
vt 1.000000 0.000000
vt 1.000000 1.000000
vt 0.000000 1.000000
vt 0.500000 1.000000
vt 0.000000 0.000000
vt 1.000000 0.000000
vt 0.500000 1.000000
vt 0.000000 0.000000
vt 1.000000 0.000000
vt 0.000000 0.000000
vt 1.000000 0.000000
vt 1.000000 1.000000
vt 0.000000 1.000000
vt 0.500000 1.000000
vt 0.000000 0.000000
vt 1.000000 0.000000
vt 0.500000 1.000000
vt 0.000000 0.000000
vt 1.000000 0.000000
vt 0.000000 0.000000
vt 1.000000 0.000000
vt 1.000000 1.000000
vt 0.000000 1.000000
vt 0.500000 1.000000
vt 0.000000 0.000000
vt 1.000000 0.000000
vt 0.500000 1.000000
vt 0.000000 0.000000
vt 1.000000 0.000000
vt 0.000000 0.000000
vt 1.000000 0.000000
vt 1.000000 1.000000
vt 0.000000 1.000000
vt 0.500000 1.000000
vt 0.000000 0.000000
vt 1.000000 0.000000
vt 0.500000 1.000000
vt 0.000000 0.000000
vt 1.000000 0.000000
vt 0.000000 0.000000
vt 1.000000 0.000000
vt 1.000000 1.000000
vt 0.000000 1.000000
vt 0.500000 1.000000
vt 0.000000 0.000000
vt 1.000000 0.000000
vt 0.500000 1.000000
vt 0.000000 0.000000
vt 1.000000 0.000000
vt 0.000000 0.000000
vt 1.000000 0.000000
vt 1.000000 1.000000
vt 0.000000 1.000000
vt 0.500000 1.000000
vt 0.000000 0.000000
vt 1.000000 0.000000
vt 0.500000 1.000000
vt 0.000000 0.000000
vt 1.000000 0.000000
vt 0.000000 0.000000
vt 1.000000 0.000000
vt 1.000000 1.000000
vt 0.000000 1.000000
vt 0.500000 1.000000
vt 0.000000 0.000000
vt 1.000000 0.000000
vt 0.500000 1.000000
vt 0.000000 0.000000
vt 1.000000 0.000000
vt 0.000000 0.000000
vt 1.000000 0.000000
vt 1.000000 1.000000
vt 0.000000 1.000000
vt 0.500000 1.000000
vt 0.000000 0.000000
vt 1.000000 0.000000
vt 0.500000 1.000000
vt 0.000000 0.000000
vt 1.000000 0.000000
vt 0.000000 0.000000
vt 1.000000 0.000000
vt 1.000000 1.000000
vt 0.000000 1.000000
vt 0.500000 1.000000
vt 0.000000 0.000000
vt 1.000000 0.000000
vt 0.500000 1.000000
vt 0.000000 0.000000
vt 1.000000 0.000000
vt 0.000000 0.000000
vt 1.000000 0.000000
vt 1.000000 1.000000
vt 0.000000 1.000000
vt 0.500000 1.000000
vt 0.000000 0.000000
vt 1.000000 0.000000
vt 0.500000 1.000000
vt 0.000000 0.000000
vt 1.000000 0.000000
vt 0.000000 0.000000
vt 1.000000 0.000000
vt 1.000000 1.000000
vt 0.000000 1.000000
vt 0.500000 1.000000
vt 0.000000 0.000000
vt 1.000000 0.000000
vt 0.500000 1.000000
vt 0.000000 0.000000
vt 1.000000 0.000000
vt 0.000000 0.000000
vt 1.000000 0.000000
vt 1.000000 1.000000
vt 0.000000 1.000000
vt 0.500000 1.000000
vt 0.000000 0.000000
vt 1.000000 0.000000
vt 0.500000 1.000000
vt 0.000000 0.000000
vt 1.000000 0.000000
vt 0.000000 0.000000
vt 1.000000 0.000000
vt 1.000000 1.000000
vt 0.000000 1.000000
vt 0.500000 1.000000
vt 0.000000 0.000000
vt 1.000000 0.000000
vt 0.500000 1.000000
vt 0.000000 0.000000
vt 1.000000 0.000000
vt 0.000000 0.000000
vt 1.000000 0.000000
vt 1.000000 1.000000
vt 0.000000 1.000000
vt 0.500000 1.000000
vt 0.000000 0.000000
vt 1.000000 0.000000
vt 0.500000 1.000000
vt 0.000000 0.000000
vt 1.000000 0.000000
vt 0.000000 0.000000
vt 1.000000 0.000000
vt 1.000000 1.000000
vt 0.000000 1.000000
vt 0.500000 1.000000
vt 0.000000 0.000000
vt 1.000000 0.000000
vt 0.500000 1.000000
vt 0.000000 0.000000
vt 1.000000 0.000000
vt 0.000000 0.000000
vt 1.000000 0.000000
vt 1.000000 1.000000
vt 0.000000 1.000000
vt 0.500000 1.000000
vt 0.000000 0.000000
vt 1.000000 0.000000
vt 0.500000 1.000000
vt 0.000000 0.000000
vt 1.000000 0.000000
vt 0.000000 0.000000
vt 1.000000 0.000000
vt 1.000000 1.000000
vt 0.000000 1.000000
vt 0.500000 1.000000
vt 0.000000 0.000000
vt 1.000000 0.000000
vt 0.500000 1.000000
vt 0.000000 0.000000
vt 1.000000 0.000000
vt 0.000000 0.000000
vt 1.000000 0.000000
vt 1.000000 1.000000
vt 0.000000 1.000000
vt 0.500000 1.000000
vt 0.000000 0.000000
vt 1.000000 0.000000
vt 0.500000 1.000000
vt 0.000000 0.000000
vt 1.000000 0.000000
vt 0.000000 0.000000
vt 1.000000 0.000000
vt 1.000000 1.000000
vt 0.000000 1.000000
vt 0.500000 1.000000
vt 0.000000 0.000000
vt 1.000000 0.000000
vt 0.500000 1.000000
vt 0.000000 0.000000
vt 1.000000 0.000000
vt 0.000000 0.000000
vt 1.000000 0.000000
vt 1.000000 1.000000
vt 0.000000 1.000000
vt 0.500000 1.000000
vt 0.000000 0.000000
vt 1.000000 0.000000
vt 0.500000 1.000000
vt 0.000000 0.000000
vt 1.000000 0.000000
vt 0.000000 0.000000
vt 1.000000 0.000000
vt 1.000000 1.000000
vt 0.000000 1.000000
vt 0.500000 1.000000
vt 0.000000 0.000000
vt 1.000000 0.000000
vt 0.500000 1.000000
vt 0.000000 0.000000
vt 1.000000 0.000000
vt 0.000000 0.000000
vt 1.000000 0.000000
vt 1.000000 1.000000
vt 0.000000 1.000000
vt 0.500000 1.000000
vt 0.000000 0.000000
vt 1.000000 0.000000
vt 0.500000 1.000000
vt 0.000000 0.000000
vt 1.000000 0.000000
vt 0.000000 0.000000
vt 1.000000 0.000000
vt 1.000000 1.000000
vt 0.000000 1.000000
vt 0.500000 1.000000
vt 0.000000 0.000000
vt 1.000000 0.000000
vt 0.500000 1.000000
vt 0.000000 0.000000
vt 1.000000 0.000000
vt 0.000000 0.000000
vt 1.000000 0.000000
vt 1.000000 1.000000
vt 0.000000 1.000000
vt 0.500000 1.000000
vt 0.000000 0.000000
vt 1.000000 0.000000
vt 0.500000 1.000000
vt 0.000000 0.000000
vt 1.000000 0.000000
vt 0.000000 0.000000
vt 1.000000 0.000000
vt 1.000000 1.000000
vt 0.000000 1.000000
vt 0.500000 1.000000
vt 0.000000 0.000000
vt 1.000000 0.000000
vt 0.500000 1.000000
vt 0.000000 0.000000
vt 1.000000 0.000000
vt 0.000000 0.000000
vt 1.000000 0.000000
vt 1.000000 1.000000
vt 0.000000 1.000000
vt 0.500000 1.000000
vt 0.000000 0.000000
vt 1.000000 0.000000
vt 0.500000 1.000000
vt 0.000000 0.000000
vt 1.000000 0.000000
vt 0.000000 0.000000
vt 1.000000 0.000000
vt 1.000000 1.000000
vt 0.000000 1.000000
vt 0.500000 1.000000
vt 0.000000 0.000000
vt 1.000000 0.000000
vt 0.500000 1.000000
vt 0.000000 0.000000
vt 1.000000 0.000000
vt 0.000000 0.000000
vt 1.000000 0.000000
vt 1.000000 1.000000
vt 0.000000 1.000000
vt 0.500000 1.000000
vt 0.000000 0.000000
vt 1.000000 0.000000
vt 0.500000 1.000000
vt 0.000000 0.000000
vt 1.000000 0.000000
vt 0.000000 0.000000
vt 1.000000 0.000000
vt 1.000000 1.000000
vt 0.000000 1.000000
vt 0.500000 1.000000
vt 0.000000 0.000000
vt 1.000000 0.000000
vt 0.500000 1.000000
vt 0.000000 0.000000
vt 1.000000 0.000000
vt 0.000000 0.000000
vt 1.000000 0.000000
vt 1.000000 1.000000
vt 0.000000 1.000000
vt 0.000000 0.000000
vt 1.000000 0.000000
vt 1.000000 1.000000
vt 0.000000 1.000000
vt 0.000000 0.000000
vt 1.000000 0.000000
vt 1.000000 1.000000
vt 0.000000 1.000000
vt 0.000000 0.000000
vt 1.000000 0.000000
vt 1.000000 1.000000
vt 0.000000 1.000000
vt 0.000000 0.000000
vt 1.000000 0.000000
vt 1.000000 1.000000
vt 0.000000 1.000000
vt 0.000000 0.000000
vt 1.000000 0.000000
vt 1.000000 1.000000
vt 0.000000 1.000000
vt 0.000000 0.000000
vt 1.000000 0.000000
vt 1.000000 1.000000
vt 0.000000 1.000000
vt 0.000000 0.000000
vt 1.000000 0.000000
vt 1.000000 1.000000
vt 0.000000 1.000000
vt 0.000000 0.000000
vt 1.000000 0.000000
vt 1.000000 1.000000
vt 0.000000 1.000000
vt 0.000000 0.000000
vt 1.000000 0.000000
vt 1.000000 1.000000
vt 0.000000 1.000000
vt 0.000000 0.000000
vt 1.000000 0.000000
vt 1.000000 1.000000
vt 0.000000 1.000000
vt 0.000000 0.000000
vt 1.000000 0.000000
vt 1.000000 1.000000
vt 0.000000 1.000000
vt 0.000000 0.000000
vt 1.000000 0.000000
vt 1.000000 1.000000
vt 0.000000 1.000000
vt 0.000000 0.000000
vt 1.000000 0.000000
vt 1.000000 1.000000
vt 0.000000 1.000000
vt 0.000000 0.000000
vt 1.000000 0.000000
vt 1.000000 1.000000
vt 0.000000 1.000000
vt 0.000000 0.000000
vt 1.000000 0.000000
vt 1.000000 1.000000
vt 0.000000 1.000000
vt 0.000000 0.000000
vt 1.000000 0.000000
vt 1.000000 1.000000
vt 0.000000 1.000000
vt 0.000000 0.000000
vt 1.000000 0.000000
vt 1.000000 1.000000
vt 0.000000 1.000000
vt 0.000000 0.000000
vt 1.000000 0.000000
vt 1.000000 1.000000
vt 0.000000 1.000000
vt 0.000000 0.000000
vt 1.000000 0.000000
vt 1.000000 1.000000
vt 0.000000 1.000000
vt 0.000000 0.000000
vt 1.000000 0.000000
vt 1.000000 1.000000
vt 0.000000 1.000000
vt 0.000000 0.000000
vt 1.000000 0.000000
vt 1.000000 1.000000
vt 0.000000 1.000000
vt 0.000000 0.000000
vt 1.000000 0.000000
vt 1.000000 1.000000
vt 0.000000 1.000000
vt 0.000000 0.000000
vt 1.000000 0.000000
vt 1.000000 1.000000
vt 0.000000 1.000000
vt 0.000000 0.000000
vt 1.000000 0.000000
vt 1.000000 1.000000
vt 0.000000 1.000000
vt 0.000000 0.000000
vt 1.000000 0.000000
vt 1.000000 1.000000
vt 0.000000 1.000000
vt 0.000000 0.000000
vt 1.000000 0.000000
vt 1.000000 1.000000
vt 0.000000 1.000000
vt 0.000000 0.000000
vt 1.000000 0.000000
vt 1.000000 1.000000
vt 0.000000 1.000000
vt 0.000000 0.000000
vt 1.000000 0.000000
vt 1.000000 1.000000
vt 0.000000 1.000000
vt 0.000000 0.000000
vt 1.000000 0.000000
vt 1.000000 1.000000
vt 0.000000 1.000000
vt 0.000000 0.000000
vt 1.000000 0.000000
vt 1.000000 1.000000
vt 0.000000 1.000000
vt 0.000000 0.000000
vt 1.000000 0.000000
vt 1.000000 1.000000
vt 0.000000 1.000000
vt 0.000000 0.000000
vt 1.000000 0.000000
vt 1.000000 1.000000
vt 0.000000 1.000000
vt 0.000000 0.000000
vt 1.000000 0.000000
vt 1.000000 1.000000
vt 0.000000 1.000000
vt 0.000000 0.000000
vt 1.000000 0.000000
vt 1.000000 1.000000
vt 0.000000 1.000000
vt 0.000000 0.000000
vt 1.000000 0.000000
vt 1.000000 1.000000
vt 0.000000 1.000000
vt 0.000000 0.000000
vt 1.000000 0.000000
vt 1.000000 1.000000
vt 0.000000 1.000000
vt 0.000000 0.000000
vt 1.000000 0.000000
vt 1.000000 1.000000
vt 0.000000 1.000000
vt 0.000000 0.000000
vt 1.000000 0.000000
vt 1.000000 1.000000
vt 0.000000 1.000000
vt 0.000000 0.000000
vt 1.000000 0.000000
vt 1.000000 1.000000
vt 0.000000 1.000000
vt 0.000000 0.000000
vt 1.000000 0.000000
vt 1.000000 1.000000
vt 0.000000 1.000000
vt 0.000000 0.000000
vt 1.000000 0.000000
vt 1.000000 1.000000
vt 0.000000 1.000000
vt 0.000000 0.000000
vt 1.000000 0.000000
vt 1.000000 1.000000
vt 0.000000 1.000000
vt 0.500000 1.000000
vt 0.000000 0.000000
vt 1.000000 0.000000
vt 0.500000 1.000000
vt 0.000000 0.000000
vt 1.000000 0.000000
vt 0.000000 0.000000
vt 1.000000 0.000000
vt 1.000000 1.000000
vt 0.000000 1.000000
vt 0.500000 1.000000
vt 0.000000 0.000000
vt 1.000000 0.000000
vt 0.500000 1.000000
vt 0.000000 0.000000
vt 1.000000 0.000000
vt 0.000000 0.000000
vt 1.000000 0.000000
vt 1.000000 1.000000
vt 0.000000 1.000000
vt 0.500000 1.000000
vt 0.000000 0.000000
vt 1.000000 0.000000
vt 0.500000 1.000000
vt 0.000000 0.000000
vt 1.000000 0.000000
vt 0.000000 0.000000
vt 1.000000 0.000000
vt 1.000000 1.000000
vt 0.000000 1.000000
vt 0.500000 1.000000
vt 0.000000 0.000000
vt 1.000000 0.000000
vt 0.500000 1.000000
vt 0.000000 0.000000
vt 1.000000 0.000000
vt 0.000000 0.000000
vt 1.000000 0.000000
vt 1.000000 1.000000
vt 0.000000 1.000000
vt 0.500000 1.000000
vt 0.000000 0.000000
vt 1.000000 0.000000
vt 0.500000 1.000000
vt 0.000000 0.000000
vt 1.000000 0.000000
vt 0.000000 0.000000
vt 1.000000 0.000000
vt 1.000000 1.000000
vt 0.000000 1.000000
vt 0.500000 1.000000
vt 0.000000 0.000000
vt 1.000000 0.000000
vt 0.500000 1.000000
vt 0.000000 0.000000
vt 1.000000 0.000000
vt 0.000000 0.000000
vt 1.000000 0.000000
vt 1.000000 1.000000
vt 0.000000 1.000000
vt 0.500000 1.000000
vt 0.000000 0.000000
vt 1.000000 0.000000
vt 0.500000 1.000000
vt 0.000000 0.000000
vt 1.000000 0.000000
vt 0.000000 0.000000
vt 1.000000 0.000000
vt 1.000000 1.000000
vt 0.000000 1.000000
vt 0.500000 1.000000
vt 0.000000 0.000000
vt 1.000000 0.000000
vt 0.500000 1.000000
vt 0.000000 0.000000
vt 1.000000 0.000000
vt 0.000000 0.000000
vt 1.000000 0.000000
vt 1.000000 1.000000
vt 0.000000 1.000000
vt 0.500000 1.000000
vt 0.000000 0.000000
vt 1.000000 0.000000
vt 0.500000 1.000000
vt 0.000000 0.000000
vt 1.000000 0.000000
vt 0.000000 0.000000
vt 1.000000 0.000000
vt 1.000000 1.000000
vt 0.000000 1.000000
vt 0.500000 1.000000
vt 0.000000 0.000000
vt 1.000000 0.000000
vt 0.500000 1.000000
vt 0.000000 0.000000
vt 1.000000 0.000000
vt 0.000000 0.000000
vt 1.000000 0.000000
vt 1.000000 1.000000
vt 0.000000 1.000000
vt 0.500000 1.000000
vt 0.000000 0.000000
vt 1.000000 0.000000
vt 0.500000 1.000000
vt 0.000000 0.000000
vt 1.000000 0.000000
vt 0.000000 0.000000
vt 1.000000 0.000000
vt 1.000000 1.000000
vt 0.000000 1.000000
vt 0.500000 1.000000
vt 0.000000 0.000000
vt 1.000000 0.000000
vt 0.500000 1.000000
vt 0.000000 0.000000
vt 1.000000 0.000000
vt 0.000000 0.000000
vt 1.000000 0.000000
vt 1.000000 1.000000
vt 0.000000 1.000000
vt 0.500000 1.000000
vt 0.000000 0.000000
vt 1.000000 0.000000
vt 0.500000 1.000000
vt 0.000000 0.000000
vt 1.000000 0.000000
vt 0.000000 0.000000
vt 1.000000 0.000000
vt 1.000000 1.000000
vt 0.000000 1.000000
vt 0.500000 1.000000
vt 0.000000 0.000000
vt 1.000000 0.000000
vt 0.500000 1.000000
vt 0.000000 0.000000
vt 1.000000 0.000000
vt 0.000000 0.000000
vt 1.000000 0.000000
vt 1.000000 1.000000
vt 0.000000 1.000000
vt 0.500000 1.000000
vt 0.000000 0.000000
vt 1.000000 0.000000
vt 0.500000 1.000000
vt 0.000000 0.000000
vt 1.000000 0.000000
vt 0.000000 0.000000
vt 1.000000 0.000000
vt 1.000000 1.000000
vt 0.000000 1.000000
vt 0.500000 1.000000
vt 0.000000 0.000000
vt 1.000000 0.000000
vt 0.500000 1.000000
vt 0.000000 0.000000
vt 1.000000 0.000000
vt 0.000000 0.000000
vt 1.000000 0.000000
vt 1.000000 1.000000
vt 0.000000 1.000000
vt 0.500000 1.000000
vt 0.000000 0.000000
vt 1.000000 0.000000
vt 0.500000 1.000000
vt 0.000000 0.000000
vt 1.000000 0.000000
vt 0.000000 0.000000
vt 1.000000 0.000000
vt 1.000000 1.000000
vt 0.000000 1.000000
vt 0.500000 1.000000
vt 0.000000 0.000000
vt 1.000000 0.000000
vt 0.500000 1.000000
vt 0.000000 0.000000
vt 1.000000 0.000000
vt 0.000000 0.000000
vt 1.000000 0.000000
vt 1.000000 1.000000
vt 0.000000 1.000000
vt 0.500000 1.000000
vt 0.000000 0.000000
vt 1.000000 0.000000
vt 0.500000 1.000000
vt 0.000000 0.000000
vt 1.000000 0.000000
vt 0.000000 0.000000
vt 1.000000 0.000000
vt 1.000000 1.000000
vt 0.000000 1.000000
vt 0.500000 1.000000
vt 0.000000 0.000000
vt 1.000000 0.000000
vt 0.500000 1.000000
vt 0.000000 0.000000
vt 1.000000 0.000000
vt 0.000000 0.000000
vt 1.000000 0.000000
vt 1.000000 1.000000
vt 0.000000 1.000000
vt 0.500000 1.000000
vt 0.000000 0.000000
vt 1.000000 0.000000
vt 0.500000 1.000000
vt 0.000000 0.000000
vt 1.000000 0.000000
vt 0.000000 0.000000
vt 1.000000 0.000000
vt 1.000000 1.000000
vt 0.000000 1.000000
vt 0.500000 1.000000
vt 0.000000 0.000000
vt 1.000000 0.000000
vt 0.500000 1.000000
vt 0.000000 0.000000
vt 1.000000 0.000000
vt 0.000000 0.000000
vt 1.000000 0.000000
vt 1.000000 1.000000
vt 0.000000 1.000000
vt 0.500000 1.000000
vt 0.000000 0.000000
vt 1.000000 0.000000
vt 0.500000 1.000000
vt 0.000000 0.000000
vt 1.000000 0.000000
vt 0.000000 0.000000
vt 1.000000 0.000000
vt 1.000000 1.000000
vt 0.000000 1.000000
vt 0.500000 1.000000
vt 0.000000 0.000000
vt 1.000000 0.000000
vt 0.500000 1.000000
vt 0.000000 0.000000
vt 1.000000 0.000000
vt 0.000000 0.000000
vt 1.000000 0.000000
vt 1.000000 1.000000
vt 0.000000 1.000000
vt 0.000000 0.000000
vt 1.000000 0.000000
vt 1.000000 1.000000
vt 0.000000 1.000000
vt 0.000000 0.000000
vt 1.000000 0.000000
vt 1.000000 1.000000
vt 0.000000 1.000000
vt 0.000000 0.000000
vt 1.000000 0.000000
vt 1.000000 1.000000
vt 0.000000 1.000000
vt 0.000000 0.000000
vt 1.000000 0.000000
vt 1.000000 1.000000
vt 0.000000 1.000000
vt 0.000000 0.000000
vt 1.000000 0.000000
vt 1.000000 1.000000
vt 0.000000 1.000000
vt 0.000000 0.000000
vt 1.000000 0.000000
vt 1.000000 1.000000
vt 0.000000 1.000000
vt 0.000000 0.000000
vt 1.000000 0.000000
vt 1.000000 1.000000
vt 0.000000 1.000000
vt 0.000000 0.000000
vt 1.000000 0.000000
vt 1.000000 1.000000
vt 0.000000 1.000000
vt 0.000000 0.000000
vt 1.000000 0.000000
vt 1.000000 1.000000
vt 0.000000 1.000000
vt 0.000000 0.000000
vt 1.000000 0.000000
vt 1.000000 1.000000
vt 0.000000 1.000000
vt 0.000000 0.000000
vt 1.000000 0.000000
vt 1.000000 1.000000
vt 0.000000 1.000000
vt 0.000000 0.000000
vt 1.000000 0.000000
vt 1.000000 1.000000
vt 0.000000 1.000000
vt 0.000000 0.000000
vt 1.000000 0.000000
vt 1.000000 1.000000
vt 0.000000 1.000000
vt 0.000000 0.000000
vt 1.000000 0.000000
vt 1.000000 1.000000
vt 0.000000 1.000000
vt 0.000000 0.000000
vt 1.000000 0.000000
vt 1.000000 1.000000
vt 0.000000 1.000000
vt 0.000000 0.000000
vt 1.000000 0.000000
vt 1.000000 1.000000
vt 0.000000 1.000000
vt 0.000000 0.000000
vt 1.000000 0.000000
vt 1.000000 1.000000
vt 0.000000 1.000000
s 1
usemtl models/caelum/props/stations/ca_station_wood.png
f 1/1 2/2 3/3 4/4
f 5/5 6/6 7/7 8/8
f 9/9 10/10 11/11 12/12
f 13/13 14/14 15/15 16/16
f 17/17 18/18 19/19 20/20
f 21/21 22/22 23/23 24/24
f 25/25 26/26 27/27 28/28
f 29/29 30/30 31/31 32/32
f 33/33 34/34 35/35 36/36
f 37/37 38/38 39/39 40/40
f 41/41 42/42 43/43 44/44
f 45/45 46/46 47/47 48/48
usemtl models/caelum/props/stations/ca_station_iron.png
f 49/49 50/50 51/51 52/52
f 53/53 54/54 55/55 56/56
f 57/57 58/58 59/59 60/60
f 61/61 62/62 63/63 64/64
f 65/65 66/66 67/67 68/68
f 69/69 70/70 71/71 72/72
f 73/73 74/74 75/75 76/76
f 77/77 78/78 79/79
f 80/80 81/81 82/82
f 83/83 84/84 85/85 86/86
f 87/87 88/88 89/89
f 90/90 91/91 92/92
f 93/93 94/94 95/95 96/96
f 97/97 98/98 99/99
f 100/100 101/101 102/102
f 103/103 104/104 105/105 106/106
f 107/107 108/108 109/109
f 110/110 111/111 112/112
f 113/113 114/114 115/115 116/116
f 117/117 118/118 119/119
f 120/120 121/121 122/122
f 123/123 124/124 125/125 126/126
f 127/127 128/128 129/129
f 130/130 131/131 132/132
f 133/133 134/134 135/135 136/136
f 137/137 138/138 139/139
f 140/140 141/141 142/142
f 143/143 144/144 145/145 146/146
f 147/147 148/148 149/149
f 150/150 151/151 152/152
f 153/153 154/154 155/155 156/156
f 157/157 158/158 159/159
f 160/160 161/161 162/162
f 163/163 164/164 165/165 166/166
f 167/167 168/168 169/169
f 170/170 171/171 172/172
f 173/173 174/174 175/175 176/176
f 177/177 178/178 179/179
f 180/180 181/181 182/182
f 183/183 184/184 185/185 186/186
f 187/187 188/188 189/189
f 190/190 191/191 192/192
usemtl models/caelum/props/stations/ca_station_wood.png
f 193/193 194/194 195/195 196/196
f 197/197 198/198 199/199
f 200/200 201/201 202/202
f 203/203 204/204 205/205 206/206
f 207/207 208/208 209/209
f 210/210 211/211 212/212
f 213/213 214/214 215/215 216/216
f 217/217 218/218 219/219
f 220/220 221/221 222/222
f 223/223 224/224 225/225 226/226
f 227/227 228/228 229/229
f 230/230 231/231 232/232
f 233/233 234/234 235/235 236/236
f 237/237 238/238 239/239
f 240/240 241/241 242/242
f 243/243 244/244 245/245 246/246
f 247/247 248/248 249/249
f 250/250 251/251 252/252
f 253/253 254/254 255/255 256/256
f 257/257 258/258 259/259
f 260/260 261/261 262/262
f 263/263 264/264 265/265 266/266
f 267/267 268/268 269/269
f 270/270 271/271 272/272
f 273/273 274/274 275/275 276/276
f 277/277 278/278 279/279
f 280/280 281/281 282/282
f 283/283 284/284 285/285 286/286
f 287/287 288/288 289/289
f 290/290 291/291 292/292
f 293/293 294/294 295/295 296/296
f 297/297 298/298 299/299
f 300/300 301/301 302/302
f 303/303 304/304 305/305 306/306
f 307/307 308/308 309/309
f 310/310 311/311 312/312
usemtl models/caelum/props/stations/ca_station_iron.png
f 313/313 314/314 315/315 316/316
f 317/317 318/318 319/319
f 320/320 321/321 322/322
f 323/323 324/324 325/325 326/326
f 327/327 328/328 329/329
f 330/330 331/331 332/332
f 333/333 334/334 335/335 336/336
f 337/337 338/338 339/339
f 340/340 341/341 342/342
f 343/343 344/344 345/345 346/346
f 347/347 348/348 349/349
f 350/350 351/351 352/352
f 353/353 354/354 355/355 356/356
f 357/357 358/358 359/359
f 360/360 361/361 362/362
f 363/363 364/364 365/365 366/366
f 367/367 368/368 369/369
f 370/370 371/371 372/372
f 373/373 374/374 375/375 376/376
f 377/377 378/378 379/379
f 380/380 381/381 382/382
f 383/383 384/384 385/385 386/386
f 387/387 388/388 389/389
f 390/390 391/391 392/392
usemtl models/caelum/props/stations/ca_station_wood.png
f 393/393 394/394 395/395 396/396
f 397/397 398/398 399/399 400/400
f 401/401 402/402 403/403 404/404
f 405/405 406/406 407/407 408/408
f 409/409 410/410 411/411 412/412
f 413/413 414/414 415/415 416/416
f 417/417 418/418 419/419 420/420
f 421/421 422/422 423/423 424/424
f 425/425 426/426 427/427 428/428
f 429/429 430/430 431/431 432/432
f 433/433 434/434 435/435 436/436
f 437/437 438/438 439/439 440/440
f 441/441 442/442 443/443 444/444
f 445/445 446/446 447/447 448/448
f 449/449 450/450 451/451 452/452
f 453/453 454/454 455/455 456/456
f 457/457 458/458 459/459 460/460
f 461/461 462/462 463/463 464/464
f 465/465 466/466 467/467 468/468
f 469/469 470/470 471/471 472/472
f 473/473 474/474 475/475 476/476
f 477/477 478/478 479/479 480/480
f 481/481 482/482 483/483 484/484
f 485/485 486/486 487/487 488/488
f 489/489 490/490 491/491 492/492
f 493/493 494/494 495/495 496/496
f 497/497 498/498 499/499 500/500
f 501/501 502/502 503/503 504/504
f 505/505 506/506 507/507 508/508
f 509/509 510/510 511/511 512/512
f 513/513 514/514 515/515 516/516
f 517/517 518/518 519/519 520/520
f 521/521 522/522 523/523 524/524
f 525/525 526/526 527/527 528/528
f 529/529 530/530 531/531 532/532
f 533/533 534/534 535/535 536/536
usemtl models/caelum/props/stations/ca_station_iron.png
f 537/537 538/538 539/539 540/540
f 541/541 542/542 543/543
f 544/544 545/545 546/546
f 547/547 548/548 549/549 550/550
f 551/551 552/552 553/553
f 554/554 555/555 556/556
f 557/557 558/558 559/559 560/560
f 561/561 562/562 563/563
f 564/564 565/565 566/566
f 567/567 568/568 569/569 570/570
f 571/571 572/572 573/573
f 574/574 575/575 576/576
f 577/577 578/578 579/579 580/580
f 581/581 582/582 583/583
f 584/584 585/585 586/586
f 587/587 588/588 589/589 590/590
f 591/591 592/592 593/593
f 594/594 595/595 596/596
f 597/597 598/598 599/599 600/600
f 601/601 602/602 603/603
f 604/604 605/605 606/606
f 607/607 608/608 609/609 610/610
f 611/611 612/612 613/613
f 614/614 615/615 616/616
f 617/617 618/618 619/619 620/620
f 621/621 622/622 623/623
f 624/624 625/625 626/626
f 627/627 628/628 629/629 630/630
f 631/631 632/632 633/633
f 634/634 635/635 636/636
f 637/637 638/638 639/639 640/640
f 641/641 642/642 643/643
f 644/644 645/645 646/646
f 647/647 648/648 649/649 650/650
f 651/651 652/652 653/653
f 654/654 655/655 656/656
usemtl models/caelum/props/stations/ca_station_wood.png
f 657/657 658/658 659/659 660/660
f 661/661 662/662 663/663
f 664/664 665/665 666/666
f 667/667 668/668 669/669 670/670
f 671/671 672/672 673/673
f 674/674 675/675 676/676
f 677/677 678/678 679/679 680/680
f 681/681 682/682 683/683
f 684/684 685/685 686/686
f 687/687 688/688 689/689 690/690
f 691/691 692/692 693/693
f 694/694 695/695 696/696
f 697/697 698/698 699/699 700/700
f 701/701 702/702 703/703
f 704/704 705/705 706/706
f 707/707 708/708 709/709 710/710
f 711/711 712/712 713/713
f 714/714 715/715 716/716
f 717/717 718/718 719/719 720/720
f 721/721 722/722 723/723
f 724/724 725/725 726/726
f 727/727 728/728 729/729 730/730
f 731/731 732/732 733/733
f 734/734 735/735 736/736
f 737/737 738/738 739/739 740/740
f 741/741 742/742 743/743
f 744/744 745/745 746/746
f 747/747 748/748 749/749 750/750
f 751/751 752/752 753/753
f 754/754 755/755 756/756
f 757/757 758/758 759/759 760/760
f 761/761 762/762 763/763
f 764/764 765/765 766/766
f 767/767 768/768 769/769 770/770
f 771/771 772/772 773/773
f 774/774 775/775 776/776
usemtl models/caelum/props/stations/ca_station_iron.png
f 777/777 778/778 779/779 780/780
f 781/781 782/782 783/783
f 784/784 785/785 786/786
f 787/787 788/788 789/789 790/790
f 791/791 792/792 793/793
f 794/794 795/795 796/796
f 797/797 798/798 799/799 800/800
f 801/801 802/802 803/803
f 804/804 805/805 806/806
f 807/807 808/808 809/809 810/810
f 811/811 812/812 813/813
f 814/814 815/815 816/816
f 817/817 818/818 819/819 820/820
f 821/821 822/822 823/823
f 824/824 825/825 826/826
f 827/827 828/828 829/829 830/830
f 831/831 832/832 833/833
f 834/834 835/835 836/836
f 837/837 838/838 839/839 840/840
f 841/841 842/842 843/843
f 844/844 845/845 846/846
f 847/847 848/848 849/849 850/850
f 851/851 852/852 853/853
f 854/854 855/855 856/856
usemtl models/caelum/props/stations/ca_station_wood.png
f 857/857 858/858 859/859 860/860
f 861/861 862/862 863/863 864/864
f 865/865 866/866 867/867 868/868
f 869/869 870/870 871/871 872/872
f 873/873 874/874 875/875 876/876
f 877/877 878/878 879/879 880/880
f 881/881 882/882 883/883 884/884
f 885/885 886/886 887/887 888/888
f 889/889 890/890 891/891 892/892
f 893/893 894/894 895/895 896/896
f 897/897 898/898 899/899 900/900
f 901/901 902/902 903/903 904/904
f 905/905 906/906 907/907 908/908
f 909/909 910/910 911/911 912/912
f 913/913 914/914 915/915 916/916
f 917/917 918/918 919/919 920/920
f 921/921 922/922 923/923 924/924
f 925/925 926/926 927/927 928/928
f 929/929 930/930 931/931 932/932
f 933/933 934/934 935/935 936/936
f 937/937 938/938 939/939 940/940
f 941/941 942/942 943/943 944/944
f 945/945 946/946 947/947 948/948
f 949/949 950/950 951/951 952/952
f 953/953 954/954 955/955 956/956
f 957/957 958/958 959/959 960/960
f 961/961 962/962 963/963 964/964
f 965/965 966/966 967/967 968/968
f 969/969 970/970 971/971 972/972
f 973/973 974/974 975/975 976/976
f 977/977 978/978 979/979 980/980
f 981/981 982/982 983/983 984/984
f 985/985 986/986 987/987 988/988
f 989/989 990/990 991/991 992/992
f 993/993 994/994 995/995 996/996
f 997/997 998/998 999/999 1000/1000
usemtl models/caelum/props/stations/ca_station_iron.png
f 1001/1001 1002/1002 1003/1003 1004/1004
f 1005/1005 1006/1006 1007/1007 1008/1008
f 1009/1009 1010/1010 1011/1011 1012/1012
f 1013/1013 1014/1014 1015/1015 1016/1016
f 1017/1017 1018/1018 1019/1019 1020/1020
f 1021/1021 1022/1022 1023/1023 1024/1024
f 1025/1025 1026/1026 1027/1027 1028/1028
f 1029/1029 1030/1030 1031/1031
f 1032/1032 1033/1033 1034/1034
f 1035/1035 1036/1036 1037/1037 1038/1038
f 1039/1039 1040/1040 1041/1041
f 1042/1042 1043/1043 1044/1044
f 1045/1045 1046/1046 1047/1047 1048/1048
f 1049/1049 1050/1050 1051/1051
f 1052/1052 1053/1053 1054/1054
f 1055/1055 1056/1056 1057/1057 1058/1058
f 1059/1059 1060/1060 1061/1061
f 1062/1062 1063/1063 1064/1064
f 1065/1065 1066/1066 1067/1067 1068/1068
f 1069/1069 1070/1070 1071/1071
f 1072/1072 1073/1073 1074/1074
f 1075/1075 1076/1076 1077/1077 1078/1078
f 1079/1079 1080/1080 1081/1081
f 1082/1082 1083/1083 1084/1084
f 1085/1085 1086/1086 1087/1087 1088/1088
f 1089/1089 1090/1090 1091/1091
f 1092/1092 1093/1093 1094/1094
f 1095/1095 1096/1096 1097/1097 1098/1098
f 1099/1099 1100/1100 1101/1101
f 1102/1102 1103/1103 1104/1104
f 1105/1105 1106/1106 1107/1107 1108/1108
f 1109/1109 1110/1110 1111/1111
f 1112/1112 1113/1113 1114/1114
f 1115/1115 1116/1116 1117/1117 1118/1118
f 1119/1119 1120/1120 1121/1121
f 1122/1122 1123/1123 1124/1124
f 1125/1125 1126/1126 1127/1127 1128/1128
f 1129/1129 1130/1130 1131/1131
f 1132/1132 1133/1133 1134/1134
f 1135/1135 1136/1136 1137/1137 1138/1138
f 1139/1139 1140/1140 1141/1141
f 1142/1142 1143/1143 1144/1144
usemtl models/caelum/props/stations/ca_station_brass.png
f 1145/1145 1146/1146 1147/1147 1148/1148
f 1149/1149 1150/1150 1151/1151
f 1152/1152 1153/1153 1154/1154
f 1155/1155 1156/1156 1157/1157 1158/1158
f 1159/1159 1160/1160 1161/1161
f 1162/1162 1163/1163 1164/1164
f 1165/1165 1166/1166 1167/1167 1168/1168
f 1169/1169 1170/1170 1171/1171
f 1172/1172 1173/1173 1174/1174
f 1175/1175 1176/1176 1177/1177 1178/1178
f 1179/1179 1180/1180 1181/1181
f 1182/1182 1183/1183 1184/1184
f 1185/1185 1186/1186 1187/1187 1188/1188
f 1189/1189 1190/1190 1191/1191
f 1192/1192 1193/1193 1194/1194
f 1195/1195 1196/1196 1197/1197 1198/1198
f 1199/1199 1200/1200 1201/1201
f 1202/1202 1203/1203 1204/1204
f 1205/1205 1206/1206 1207/1207 1208/1208
f 1209/1209 1210/1210 1211/1211
f 1212/1212 1213/1213 1214/1214
f 1215/1215 1216/1216 1217/1217 1218/1218
f 1219/1219 1220/1220 1221/1221
f 1222/1222 1223/1223 1224/1224
f 1225/1225 1226/1226 1227/1227 1228/1228
f 1229/1229 1230/1230 1231/1231
f 1232/1232 1233/1233 1234/1234
f 1235/1235 1236/1236 1237/1237 1238/1238
f 1239/1239 1240/1240 1241/1241
f 1242/1242 1243/1243 1244/1244
f 1245/1245 1246/1246 1247/1247 1248/1248
f 1249/1249 1250/1250 1251/1251
f 1252/1252 1253/1253 1254/1254
f 1255/1255 1256/1256 1257/1257 1258/1258
f 1259/1259 1260/1260 1261/1261
f 1262/1262 1263/1263 1264/1264
usemtl models/caelum/props/stations/ca_station_iron.png
f 1265/1265 1266/1266 1267/1267 1268/1268
f 1269/1269 1270/1270 1271/1271 1272/1272
f 1273/1273 1274/1274 1275/1275 1276/1276
f 1277/1277 1278/1278 1279/1279 1280/1280
f 1281/1281 1282/1282 1283/1283 1284/1284
f 1285/1285 1286/1286 1287/1287 1288/1288
usemtl models/caelum/props/stations/ca_station_brass.png
f 1289/1289 1290/1290 1291/1291 1292/1292
f 1293/1293 1294/1294 1295/1295 1296/1296
f 1297/1297 1298/1298 1299/1299 1300/1300
f 1301/1301 1302/1302 1303/1303 1304/1304
f 1305/1305 1306/1306 1307/1307 1308/1308
f 1309/1309 1310/1310 1311/1311 1312/1312
f 1313/1313 1314/1314 1315/1315 1316/1316
f 1317/1317 1318/1318 1319/1319 1320/1320
f 1321/1321 1322/1322 1323/1323 1324/1324
f 1325/1325 1326/1326 1327/1327 1328/1328
f 1329/1329 1330/1330 1331/1331 1332/1332
f 1333/1333 1334/1334 1335/1335 1336/1336
