# Original Caelum Argenteum #137. Source: assets/source/art/elemental_518/MODELS.json
o ca_arrow
v -13.000000 0.000000 0.230000
v -13.000000 0.162635 0.162635
v 9.000000 0.162635 0.162635
v 9.000000 0.000000 0.230000
v -13.000000 0.000000 0.000000
v -13.000000 0.162635 0.162635
v -13.000000 0.000000 0.230000
v 9.000000 0.000000 0.000000
v 9.000000 0.000000 0.230000
v 9.000000 0.162635 0.162635
v -13.000000 0.162635 0.162635
v -13.000000 0.230000 0.000000
v 9.000000 0.230000 0.000000
v 9.000000 0.162635 0.162635
v -13.000000 0.000000 0.000000
v -13.000000 0.230000 0.000000
v -13.000000 0.162635 0.162635
v 9.000000 0.000000 0.000000
v 9.000000 0.162635 0.162635
v 9.000000 0.230000 0.000000
v -13.000000 0.230000 0.000000
v -13.000000 0.162635 -0.162635
v 9.000000 0.162635 -0.162635
v 9.000000 0.230000 0.000000
v -13.000000 0.000000 0.000000
v -13.000000 0.162635 -0.162635
v -13.000000 0.230000 0.000000
v 9.000000 0.000000 0.000000
v 9.000000 0.230000 0.000000
v 9.000000 0.162635 -0.162635
v -13.000000 0.162635 -0.162635
v -13.000000 0.000000 -0.230000
v 9.000000 0.000000 -0.230000
v 9.000000 0.162635 -0.162635
v -13.000000 0.000000 0.000000
v -13.000000 0.000000 -0.230000
v -13.000000 0.162635 -0.162635
v 9.000000 0.000000 0.000000
v 9.000000 0.162635 -0.162635
v 9.000000 0.000000 -0.230000
v -13.000000 0.000000 -0.230000
v -13.000000 -0.162635 -0.162635
v 9.000000 -0.162635 -0.162635
v 9.000000 0.000000 -0.230000
v -13.000000 0.000000 0.000000
v -13.000000 -0.162635 -0.162635
v -13.000000 0.000000 -0.230000
v 9.000000 0.000000 0.000000
v 9.000000 0.000000 -0.230000
v 9.000000 -0.162635 -0.162635
v -13.000000 -0.162635 -0.162635
v -13.000000 -0.230000 -0.000000
v 9.000000 -0.230000 -0.000000
v 9.000000 -0.162635 -0.162635
v -13.000000 0.000000 0.000000
v -13.000000 -0.230000 -0.000000
v -13.000000 -0.162635 -0.162635
v 9.000000 0.000000 0.000000
v 9.000000 -0.162635 -0.162635
v 9.000000 -0.230000 -0.000000
v -13.000000 -0.230000 -0.000000
v -13.000000 -0.162635 0.162635
v 9.000000 -0.162635 0.162635
v 9.000000 -0.230000 -0.000000
v -13.000000 0.000000 0.000000
v -13.000000 -0.162635 0.162635
v -13.000000 -0.230000 -0.000000
v 9.000000 0.000000 0.000000
v 9.000000 -0.230000 -0.000000
v 9.000000 -0.162635 0.162635
v -13.000000 -0.162635 0.162635
v -13.000000 -0.000000 0.230000
v 9.000000 -0.000000 0.230000
v 9.000000 -0.162635 0.162635
v -13.000000 0.000000 0.000000
v -13.000000 -0.000000 0.230000
v -13.000000 -0.162635 0.162635
v 9.000000 0.000000 0.000000
v 9.000000 -0.162635 0.162635
v 9.000000 -0.000000 0.230000
v 9.000000 0.000000 0.460000
v 9.000000 0.325269 0.325269
v 13.000000 0.000000 0.000000
v 13.000000 0.000000 0.000000
v 9.000000 0.000000 0.000000
v 9.000000 0.325269 0.325269
v 9.000000 0.000000 0.460000
v 13.000000 0.000000 0.000000
v 13.000000 0.000000 0.000000
v 13.000000 0.000000 0.000000
v 9.000000 0.325269 0.325269
v 9.000000 0.460000 0.000000
v 13.000000 0.000000 0.000000
v 13.000000 0.000000 0.000000
v 9.000000 0.000000 0.000000
v 9.000000 0.460000 0.000000
v 9.000000 0.325269 0.325269
v 13.000000 0.000000 0.000000
v 13.000000 0.000000 0.000000
v 13.000000 0.000000 0.000000
v 9.000000 0.460000 0.000000
v 9.000000 0.325269 -0.325269
v 13.000000 0.000000 -0.000000
v 13.000000 0.000000 0.000000
v 9.000000 0.000000 0.000000
v 9.000000 0.325269 -0.325269
v 9.000000 0.460000 0.000000
v 13.000000 0.000000 0.000000
v 13.000000 0.000000 0.000000
v 13.000000 0.000000 -0.000000
v 9.000000 0.325269 -0.325269
v 9.000000 0.000000 -0.460000
v 13.000000 0.000000 -0.000000
v 13.000000 0.000000 -0.000000
v 9.000000 0.000000 0.000000
v 9.000000 0.000000 -0.460000
v 9.000000 0.325269 -0.325269
v 13.000000 0.000000 0.000000
v 13.000000 0.000000 -0.000000
v 13.000000 0.000000 -0.000000
v 9.000000 0.000000 -0.460000
v 9.000000 -0.325269 -0.325269
v 13.000000 -0.000000 -0.000000
v 13.000000 0.000000 -0.000000
v 9.000000 0.000000 0.000000
v 9.000000 -0.325269 -0.325269
v 9.000000 0.000000 -0.460000
v 13.000000 0.000000 0.000000
v 13.000000 0.000000 -0.000000
v 13.000000 -0.000000 -0.000000
v 9.000000 -0.325269 -0.325269
v 9.000000 -0.460000 -0.000000
v 13.000000 -0.000000 -0.000000
v 13.000000 -0.000000 -0.000000
v 9.000000 0.000000 0.000000
v 9.000000 -0.460000 -0.000000
v 9.000000 -0.325269 -0.325269
v 13.000000 0.000000 0.000000
v 13.000000 -0.000000 -0.000000
v 13.000000 -0.000000 -0.000000
v 9.000000 -0.460000 -0.000000
v 9.000000 -0.325269 0.325269
v 13.000000 -0.000000 0.000000
v 13.000000 -0.000000 -0.000000
v 9.000000 0.000000 0.000000
v 9.000000 -0.325269 0.325269
v 9.000000 -0.460000 -0.000000
v 13.000000 0.000000 0.000000
v 13.000000 -0.000000 -0.000000
v 13.000000 -0.000000 0.000000
v 9.000000 -0.325269 0.325269
v 9.000000 -0.000000 0.460000
v 13.000000 -0.000000 0.000000
v 13.000000 -0.000000 0.000000
v 9.000000 0.000000 0.000000
v 9.000000 -0.000000 0.460000
v 9.000000 -0.325269 0.325269
v 13.000000 0.000000 0.000000
v 13.000000 -0.000000 0.000000
v 13.000000 -0.000000 0.000000
v -13.000000 0.000000 0.000000
v -12.000000 0.000000 1.600000
v -9.000000 0.000000 1.600000
v -8.000000 0.000000 0.000000
v -13.000000 0.000000 0.000000
v -12.000000 1.385641 -0.800000
v -9.000000 1.385641 -0.800000
v -8.000000 0.000000 0.000000
v -13.000000 0.000000 0.000000
v -12.000000 -1.385641 -0.800000
v -9.000000 -1.385641 -0.800000
v -8.000000 0.000000 0.000000
vt 0.015625 0.968750
vt 0.484375 0.968750
vt 0.015625 0.031250
vt 0.484375 0.031250
vt 0.015625 0.968750
vt 0.484375 0.968750
vt 0.015625 0.031250
vt 0.015625 0.968750
vt 0.484375 0.968750
vt 0.015625 0.031250
vt 0.015625 0.968750
vt 0.484375 0.968750
vt 0.015625 0.031250
vt 0.484375 0.031250
vt 0.015625 0.968750
vt 0.484375 0.968750
vt 0.015625 0.031250
vt 0.015625 0.968750
vt 0.484375 0.968750
vt 0.015625 0.031250
vt 0.015625 0.968750
vt 0.484375 0.968750
vt 0.015625 0.031250
vt 0.484375 0.031250
vt 0.015625 0.968750
vt 0.484375 0.968750
vt 0.015625 0.031250
vt 0.015625 0.968750
vt 0.484375 0.968750
vt 0.015625 0.031250
vt 0.015625 0.968750
vt 0.484375 0.968750
vt 0.015625 0.031250
vt 0.484375 0.031250
vt 0.015625 0.968750
vt 0.484375 0.968750
vt 0.015625 0.031250
vt 0.015625 0.968750
vt 0.484375 0.968750
vt 0.015625 0.031250
vt 0.015625 0.968750
vt 0.484375 0.968750
vt 0.015625 0.031250
vt 0.484375 0.031250
vt 0.015625 0.968750
vt 0.484375 0.968750
vt 0.015625 0.031250
vt 0.015625 0.968750
vt 0.484375 0.968750
vt 0.015625 0.031250
vt 0.015625 0.968750
vt 0.484375 0.968750
vt 0.015625 0.031250
vt 0.484375 0.031250
vt 0.015625 0.968750
vt 0.484375 0.968750
vt 0.015625 0.031250
vt 0.015625 0.968750
vt 0.484375 0.968750
vt 0.015625 0.031250
vt 0.015625 0.968750
vt 0.484375 0.968750
vt 0.015625 0.031250
vt 0.484375 0.031250
vt 0.015625 0.968750
vt 0.484375 0.968750
vt 0.015625 0.031250
vt 0.015625 0.968750
vt 0.484375 0.968750
vt 0.015625 0.031250
vt 0.015625 0.968750
vt 0.484375 0.968750
vt 0.015625 0.031250
vt 0.484375 0.031250
vt 0.015625 0.968750
vt 0.484375 0.968750
vt 0.015625 0.031250
vt 0.015625 0.968750
vt 0.484375 0.968750
vt 0.015625 0.031250
vt 0.515625 0.468750
vt 0.734375 0.468750
vt 0.515625 0.031250
vt 0.734375 0.031250
vt 0.515625 0.468750
vt 0.734375 0.468750
vt 0.515625 0.031250
vt 0.515625 0.468750
vt 0.734375 0.468750
vt 0.515625 0.031250
vt 0.515625 0.468750
vt 0.734375 0.468750
vt 0.515625 0.031250
vt 0.734375 0.031250
vt 0.515625 0.468750
vt 0.734375 0.468750
vt 0.515625 0.031250
vt 0.515625 0.468750
vt 0.734375 0.468750
vt 0.515625 0.031250
vt 0.515625 0.468750
vt 0.734375 0.468750
vt 0.515625 0.031250
vt 0.734375 0.031250
vt 0.515625 0.468750
vt 0.734375 0.468750
vt 0.515625 0.031250
vt 0.515625 0.468750
vt 0.734375 0.468750
vt 0.515625 0.031250
vt 0.515625 0.468750
vt 0.734375 0.468750
vt 0.515625 0.031250
vt 0.734375 0.031250
vt 0.515625 0.468750
vt 0.734375 0.468750
vt 0.515625 0.031250
vt 0.515625 0.468750
vt 0.734375 0.468750
vt 0.515625 0.031250
vt 0.515625 0.468750
vt 0.734375 0.468750
vt 0.515625 0.031250
vt 0.734375 0.031250
vt 0.515625 0.468750
vt 0.734375 0.468750
vt 0.515625 0.031250
vt 0.515625 0.468750
vt 0.734375 0.468750
vt 0.515625 0.031250
vt 0.515625 0.468750
vt 0.734375 0.468750
vt 0.515625 0.031250
vt 0.734375 0.031250
vt 0.515625 0.468750
vt 0.734375 0.468750
vt 0.515625 0.031250
vt 0.515625 0.468750
vt 0.734375 0.468750
vt 0.515625 0.031250
vt 0.515625 0.468750
vt 0.734375 0.468750
vt 0.515625 0.031250
vt 0.734375 0.031250
vt 0.515625 0.468750
vt 0.734375 0.468750
vt 0.515625 0.031250
vt 0.515625 0.468750
vt 0.734375 0.468750
vt 0.515625 0.031250
vt 0.515625 0.468750
vt 0.734375 0.468750
vt 0.515625 0.031250
vt 0.734375 0.031250
vt 0.515625 0.468750
vt 0.734375 0.468750
vt 0.515625 0.031250
vt 0.515625 0.468750
vt 0.734375 0.468750
vt 0.515625 0.031250
vt 0.015625 0.968750
vt 0.484375 0.968750
vt 0.015625 0.031250
vt 0.484375 0.031250
vt 0.015625 0.968750
vt 0.484375 0.968750
vt 0.015625 0.031250
vt 0.484375 0.031250
vt 0.015625 0.968750
vt 0.484375 0.968750
vt 0.015625 0.031250
vt 0.484375 0.031250
s 1
usemtl models/caelum/actors/training/ca_training_dummy.png
f 1/1 2/2 3/3 4/4
f 5/5 6/6 7/7
f 8/8 9/9 10/10
f 11/11 12/12 13/13 14/14
f 15/15 16/16 17/17
f 18/18 19/19 20/20
f 21/21 22/22 23/23 24/24
f 25/25 26/26 27/27
f 28/28 29/29 30/30
f 31/31 32/32 33/33 34/34
f 35/35 36/36 37/37
f 38/38 39/39 40/40
f 41/41 42/42 43/43 44/44
f 45/45 46/46 47/47
f 48/48 49/49 50/50
f 51/51 52/52 53/53 54/54
f 55/55 56/56 57/57
f 58/58 59/59 60/60
f 61/61 62/62 63/63 64/64
f 65/65 66/66 67/67
f 68/68 69/69 70/70
f 71/71 72/72 73/73 74/74
f 75/75 76/76 77/77
f 78/78 79/79 80/80
f 81/81 82/82 83/83 84/84
f 85/85 86/86 87/87
f 88/88 89/89 90/90
f 91/91 92/92 93/93 94/94
f 95/95 96/96 97/97
f 98/98 99/99 100/100
f 101/101 102/102 103/103 104/104
f 105/105 106/106 107/107
f 108/108 109/109 110/110
f 111/111 112/112 113/113 114/114
f 115/115 116/116 117/117
f 118/118 119/119 120/120
f 121/121 122/122 123/123 124/124
f 125/125 126/126 127/127
f 128/128 129/129 130/130
f 131/131 132/132 133/133 134/134
f 135/135 136/136 137/137
f 138/138 139/139 140/140
f 141/141 142/142 143/143 144/144
f 145/145 146/146 147/147
f 148/148 149/149 150/150
f 151/151 152/152 153/153 154/154
f 155/155 156/156 157/157
f 158/158 159/159 160/160
f 161/161 162/162 163/163 164/164
f 165/165 166/166 167/167 168/168
f 169/169 170/170 171/171 172/172
