# Original #137 crossed cone planes; length normalized to the existing breath range.
o flame_segment
v -0.125000000 -0.000000000 -0.433012702
v -0.125000000 0.000000000 0.433012702
v 0.125000000 0.000000000 0.577350269
v 0.125000000 -0.000000000 -0.577350269
v -0.125000000 -0.375000000 -0.216506351
v -0.125000000 0.375000000 0.216506351
v 0.125000000 0.500000000 0.288675135
v 0.125000000 -0.500000000 -0.288675135
v -0.125000000 -0.375000000 0.216506351
v -0.125000000 0.375000000 -0.216506351
v 0.125000000 0.500000000 -0.288675135
v 0.125000000 -0.500000000 0.288675135
vt 0.740000000 0.756798757
vt 0.740000000 1.000000000
vt 0.920000000 1.000000000
vt 0.920000000 0.756798757
vt 0.740000000 0.756798757
vt 0.740000000 1.000000000
vt 0.920000000 1.000000000
vt 0.920000000 0.756798757
vt 0.740000000 0.756798757
vt 0.740000000 1.000000000
vt 0.920000000 1.000000000
vt 0.920000000 0.756798757
usemtl models/caelum/projectiles/breath.png
f 1/1 2/2 3/3 4/4
f 5/5 6/6 7/7 8/8
f 9/9 10/10 11/11 12/12
