# Original #137 crossed cone planes; length normalized to the existing breath range.
o flame_segment
v -0.125000000 -0.000000000 -0.288675135
v -0.125000000 0.000000000 0.288675135
v 0.125000000 0.000000000 0.433012702
v 0.125000000 -0.000000000 -0.433012702
v -0.125000000 -0.250000000 -0.144337567
v -0.125000000 0.250000000 0.144337567
v 0.125000000 0.375000000 0.216506351
v 0.125000000 -0.375000000 -0.216506351
v -0.125000000 -0.250000000 0.144337567
v -0.125000000 0.250000000 -0.144337567
v 0.125000000 0.375000000 -0.216506351
v 0.125000000 -0.375000000 0.216506351
vt 0.560000000 0.515151515
vt 0.560000000 0.756798757
vt 0.740000000 0.756798757
vt 0.740000000 0.515151515
vt 0.560000000 0.515151515
vt 0.560000000 0.756798757
vt 0.740000000 0.756798757
vt 0.740000000 0.515151515
vt 0.560000000 0.515151515
vt 0.560000000 0.756798757
vt 0.740000000 0.756798757
vt 0.740000000 0.515151515
usemtl models/caelum/projectiles/breath.png
f 1/1 2/2 3/3 4/4
f 5/5 6/6 7/7 8/8
f 9/9 10/10 11/11 12/12
