# Original #137 crossed cone planes; length normalized to the existing breath range.
o flame_segment
v -0.125000000 -0.000000000 -0.001000000
v -0.125000000 0.000000000 0.001000000
v 0.125000000 0.000000000 0.144337567
v 0.125000000 -0.000000000 -0.144337567
v -0.125000000 -0.000866025 -0.000500000
v -0.125000000 0.000866025 0.000500000
v 0.125000000 0.125000000 0.072168784
v 0.125000000 -0.125000000 -0.072168784
v -0.125000000 -0.000866025 0.000500000
v -0.125000000 0.000866025 -0.000500000
v 0.125000000 0.125000000 -0.072168784
v 0.125000000 -0.125000000 0.072168784
vt 0.200000000 0.756798757
vt 0.200000000 1.000000000
vt 0.380000000 1.000000000
vt 0.380000000 0.756798757
vt 0.200000000 0.756798757
vt 0.200000000 1.000000000
vt 0.380000000 1.000000000
vt 0.380000000 0.756798757
vt 0.200000000 0.756798757
vt 0.200000000 1.000000000
vt 0.380000000 1.000000000
vt 0.380000000 0.756798757
usemtl models/caelum/projectiles/breath.png
f 1/1 2/2 3/3 4/4
f 5/5 6/6 7/7 8/8
f 9/9 10/10 11/11 12/12
