# Original #137 flight-aligned lightning ray. Collision origin is the leading tip.
v -48.000000000 -5.000000000 -0.000000000
v -48.000000000 5.000000000 0.000000000
v 0.000000000 5.000000000 0.000000000
v 0.000000000 -5.000000000 -0.000000000
v -48.000000000 -2.500000000 -4.330127019
v -48.000000000 2.500000000 4.330127019
v 0.000000000 2.500000000 4.330127019
v 0.000000000 -2.500000000 -4.330127019
v -48.000000000 2.500000000 -4.330127019
v -48.000000000 -2.500000000 4.330127019
v 0.000000000 -2.500000000 4.330127019
v 0.000000000 2.500000000 -4.330127019
vt 0.020859375 0.131432292
vt 0.020859375 0.219479167
vt 0.239882812 0.219479167
vt 0.239882812 0.131432292
vt 0.020859375 0.131432292
vt 0.020859375 0.219479167
vt 0.239882812 0.219479167
vt 0.239882812 0.131432292
vt 0.020859375 0.131432292
vt 0.020859375 0.219479167
vt 0.239882812 0.219479167
vt 0.239882812 0.131432292
usemtl graphics/caelum/vfx/projectiles.png
f 1/1 2/2 3/3 4/4
f 5/5 6/6 7/7 8/8
f 9/9 10/10 11/11 12/12
