# Issue #61: original filled tympanum; reused project materials.
v -64.000000 0.000000 -4.000000
v 64.000000 0.000000 -4.000000
v 64.000000 28.000000 -4.000000
v -64.000000 28.000000 -4.000000
v -64.000000 0.000000 4.000000
v -64.000000 28.000000 4.000000
v 64.000000 28.000000 4.000000
v 64.000000 0.000000 4.000000
v -64.000000 0.000000 -4.000000
v -64.000000 28.000000 -4.000000
v -64.000000 28.000000 4.000000
v -64.000000 0.000000 4.000000
v 64.000000 0.000000 -4.000000
v 64.000000 0.000000 4.000000
v 64.000000 28.000000 4.000000
v 64.000000 28.000000 -4.000000
v -64.000000 28.000000 -4.000000
v 64.000000 28.000000 -4.000000
v 64.000000 28.000000 4.000000
v -64.000000 28.000000 4.000000
v -64.000000 0.000000 -4.000000
v -64.000000 0.000000 4.000000
v 64.000000 0.000000 4.000000
v 64.000000 0.000000 -4.000000
v 0.000000 2.000000 -4.250000
v -62.000000 2.000000 -4.250000
v -54.250000 8.322834 -4.250000
v 0.000000 2.000000 -4.250000
v -54.250000 8.322834 -4.250000
v -46.500000 13.396792 -4.250000
v 0.000000 2.000000 -4.250000
v -46.500000 13.396792 -4.250000
v -38.750000 17.449761 -4.250000
v 0.000000 2.000000 -4.250000
v -38.750000 17.449761 -4.250000
v -31.000000 20.625030 -4.250000
v 0.000000 2.000000 -4.250000
v -31.000000 20.625030 -4.250000
v -23.250000 23.016486 -4.250000
v 0.000000 2.000000 -4.250000
v -23.250000 23.016486 -4.250000
v -15.500000 24.686101 -4.250000
v 0.000000 2.000000 -4.250000
v -15.500000 24.686101 -4.250000
v -7.750000 25.673289 -4.250000
v 0.000000 2.000000 -4.250000
v -7.750000 25.673289 -4.250000
v 0.000000 26.000000 -4.250000
v 0.000000 2.000000 -4.250000
v 0.000000 26.000000 -4.250000
v 7.750000 25.673289 -4.250000
v 0.000000 2.000000 -4.250000
v 7.750000 25.673289 -4.250000
v 15.500000 24.686101 -4.250000
v 0.000000 2.000000 -4.250000
v 15.500000 24.686101 -4.250000
v 23.250000 23.016486 -4.250000
v 0.000000 2.000000 -4.250000
v 23.250000 23.016486 -4.250000
v 31.000000 20.625030 -4.250000
v 0.000000 2.000000 -4.250000
v 31.000000 20.625030 -4.250000
v 38.750000 17.449761 -4.250000
v 0.000000 2.000000 -4.250000
v 38.750000 17.449761 -4.250000
v 46.500000 13.396792 -4.250000
v 0.000000 2.000000 -4.250000
v 46.500000 13.396792 -4.250000
v 54.250000 8.322834 -4.250000
v 0.000000 2.000000 -4.250000
v 54.250000 8.322834 -4.250000
v 62.000000 2.000000 -4.250000
v 0.000000 2.000000 4.250000
v -62.000000 2.000000 4.250000
v -54.250000 8.322834 4.250000
v 0.000000 2.000000 4.250000
v -54.250000 8.322834 4.250000
v -46.500000 13.396792 4.250000
v 0.000000 2.000000 4.250000
v -46.500000 13.396792 4.250000
v -38.750000 17.449761 4.250000
v 0.000000 2.000000 4.250000
v -38.750000 17.449761 4.250000
v -31.000000 20.625030 4.250000
v 0.000000 2.000000 4.250000
v -31.000000 20.625030 4.250000
v -23.250000 23.016486 4.250000
v 0.000000 2.000000 4.250000
v -23.250000 23.016486 4.250000
v -15.500000 24.686101 4.250000
v 0.000000 2.000000 4.250000
v -15.500000 24.686101 4.250000
v -7.750000 25.673289 4.250000
v 0.000000 2.000000 4.250000
v -7.750000 25.673289 4.250000
v 0.000000 26.000000 4.250000
v 0.000000 2.000000 4.250000
v 0.000000 26.000000 4.250000
v 7.750000 25.673289 4.250000
v 0.000000 2.000000 4.250000
v 7.750000 25.673289 4.250000
v 15.500000 24.686101 4.250000
v 0.000000 2.000000 4.250000
v 15.500000 24.686101 4.250000
v 23.250000 23.016486 4.250000
v 0.000000 2.000000 4.250000
v 23.250000 23.016486 4.250000
v 31.000000 20.625030 4.250000
v 0.000000 2.000000 4.250000
v 31.000000 20.625030 4.250000
v 38.750000 17.449761 4.250000
v 0.000000 2.000000 4.250000
v 38.750000 17.449761 4.250000
v 46.500000 13.396792 4.250000
v 0.000000 2.000000 4.250000
v 46.500000 13.396792 4.250000
v 54.250000 8.322834 4.250000
v 0.000000 2.000000 4.250000
v 54.250000 8.322834 4.250000
v 62.000000 2.000000 4.250000
vt -1.000000 0.000000
vt 1.000000 0.000000
vt 1.000000 0.437500
vt -1.000000 0.437500
vt -1.000000 0.000000
vt -1.000000 0.437500
vt 1.000000 0.437500
vt 1.000000 0.000000
vt -0.062500 0.000000
vt -0.062500 0.437500
vt 0.062500 0.437500
vt 0.062500 0.000000
vt -0.062500 0.000000
vt 0.062500 0.000000
vt 0.062500 0.437500
vt -0.062500 0.437500
vt -1.000000 -0.062500
vt 1.000000 -0.062500
vt 1.000000 0.062500
vt -1.000000 0.062500
vt -1.000000 -0.062500
vt -1.000000 0.062500
vt 1.000000 0.062500
vt 1.000000 -0.062500
vt 0.000000 0.406250
vt -0.968750 0.406250
vt -0.847656 0.505044
vt 0.000000 0.406250
vt -0.847656 0.505044
vt -0.726562 0.584325
vt 0.000000 0.406250
vt -0.726562 0.584325
vt -0.605469 0.647653
vt 0.000000 0.406250
vt -0.605469 0.647653
vt -0.484375 0.697266
vt 0.000000 0.406250
vt -0.484375 0.697266
vt -0.363281 0.734633
vt 0.000000 0.406250
vt -0.363281 0.734633
vt -0.242188 0.760720
vt 0.000000 0.406250
vt -0.242188 0.760720
vt -0.121094 0.776145
vt 0.000000 0.406250
vt -0.121094 0.776145
vt 0.000000 0.781250
vt 0.000000 0.406250
vt 0.000000 0.781250
vt 0.121094 0.776145
vt 0.000000 0.406250
vt 0.121094 0.776145
vt 0.242188 0.760720
vt 0.000000 0.406250
vt 0.242188 0.760720
vt 0.363281 0.734633
vt 0.000000 0.406250
vt 0.363281 0.734633
vt 0.484375 0.697266
vt 0.000000 0.406250
vt 0.484375 0.697266
vt 0.605469 0.647653
vt 0.000000 0.406250
vt 0.605469 0.647653
vt 0.726562 0.584325
vt 0.000000 0.406250
vt 0.726562 0.584325
vt 0.847656 0.505044
vt 0.000000 0.406250
vt 0.847656 0.505044
vt 0.968750 0.406250
vt 0.000000 0.406250
vt -0.968750 0.406250
vt -0.847656 0.505044
vt 0.000000 0.406250
vt -0.847656 0.505044
vt -0.726562 0.584325
vt 0.000000 0.406250
vt -0.726562 0.584325
vt -0.605469 0.647653
vt 0.000000 0.406250
vt -0.605469 0.647653
vt -0.484375 0.697266
vt 0.000000 0.406250
vt -0.484375 0.697266
vt -0.363281 0.734633
vt 0.000000 0.406250
vt -0.363281 0.734633
vt -0.242188 0.760720
vt 0.000000 0.406250
vt -0.242188 0.760720
vt -0.121094 0.776145
vt 0.000000 0.406250
vt -0.121094 0.776145
vt 0.000000 0.781250
vt 0.000000 0.406250
vt 0.000000 0.781250
vt 0.121094 0.776145
vt 0.000000 0.406250
vt 0.121094 0.776145
vt 0.242188 0.760720
vt 0.000000 0.406250
vt 0.242188 0.760720
vt 0.363281 0.734633
vt 0.000000 0.406250
vt 0.363281 0.734633
vt 0.484375 0.697266
vt 0.000000 0.406250
vt 0.484375 0.697266
vt 0.605469 0.647653
vt 0.000000 0.406250
vt 0.605469 0.647653
vt 0.726562 0.584325
vt 0.000000 0.406250
vt 0.726562 0.584325
vt 0.847656 0.505044
vt 0.000000 0.406250
vt 0.847656 0.505044
vt 0.968750 0.406250
usemtl graphics/caelum/textures/mansion/CMST03.png
f 1/1 2/2 3/3 4/4
f 5/5 6/6 7/7 8/8
f 9/9 10/10 11/11 12/12
f 13/13 14/14 15/15 16/16
f 17/17 18/18 19/19 20/20
f 21/21 22/22 23/23 24/24
usemtl graphics/caelum/textures/mansion/CMIN03.png
f 25/25 26/26 27/27
f 28/28 29/29 30/30
f 31/31 32/32 33/33
f 34/34 35/35 36/36
f 37/37 38/38 39/39
f 40/40 41/41 42/42
f 43/43 44/44 45/45
f 46/46 47/47 48/48
f 49/49 50/50 51/51
f 52/52 53/53 54/54
f 55/55 56/56 57/57
f 58/58 59/59 60/60
f 61/61 62/62 63/63
f 64/64 65/65 66/66
f 67/67 68/68 69/69
f 70/70 71/71 72/72
f 73/73 74/74 75/75
f 76/76 77/77 78/78
f 79/79 80/80 81/81
f 82/82 83/83 84/84
f 85/85 86/86 87/87
f 88/88 89/89 90/90
f 91/91 92/92 93/93
f 94/94 95/95 96/96
f 97/97 98/98 99/99
f 100/100 101/101 102/102
f 103/103 104/104 105/105
f 106/106 107/107 108/108
f 109/109 110/110 111/111
f 112/112 113/113 114/114
f 115/115 116/116 117/117
f 118/118 119/119 120/120
