# Issue #61: original filled tympanum; reused project materials.
v -32.000000 0.000000 -4.000000
v 32.000000 0.000000 -4.000000
v 32.000000 20.000000 -4.000000
v -32.000000 20.000000 -4.000000
v -32.000000 0.000000 4.000000
v -32.000000 20.000000 4.000000
v 32.000000 20.000000 4.000000
v 32.000000 0.000000 4.000000
v -32.000000 0.000000 -4.000000
v -32.000000 20.000000 -4.000000
v -32.000000 20.000000 4.000000
v -32.000000 0.000000 4.000000
v 32.000000 0.000000 -4.000000
v 32.000000 0.000000 4.000000
v 32.000000 20.000000 4.000000
v 32.000000 20.000000 -4.000000
v -32.000000 20.000000 -4.000000
v 32.000000 20.000000 -4.000000
v 32.000000 20.000000 4.000000
v -32.000000 20.000000 4.000000
v -32.000000 0.000000 -4.000000
v -32.000000 0.000000 4.000000
v 32.000000 0.000000 4.000000
v 32.000000 0.000000 -4.000000
v 0.000000 2.000000 -4.250000
v -30.000000 2.000000 -4.250000
v 0.000000 18.000000 -4.250000
v 0.000000 2.000000 -4.250000
v 0.000000 18.000000 -4.250000
v 30.000000 2.000000 -4.250000
v 0.000000 2.000000 4.250000
v -30.000000 2.000000 4.250000
v 0.000000 18.000000 4.250000
v 0.000000 2.000000 4.250000
v 0.000000 18.000000 4.250000
v 30.000000 2.000000 4.250000
vt -0.500000 0.000000
vt 0.500000 0.000000
vt 0.500000 0.312500
vt -0.500000 0.312500
vt -0.500000 0.000000
vt -0.500000 0.312500
vt 0.500000 0.312500
vt 0.500000 0.000000
vt -0.062500 0.000000
vt -0.062500 0.312500
vt 0.062500 0.312500
vt 0.062500 0.000000
vt -0.062500 0.000000
vt 0.062500 0.000000
vt 0.062500 0.312500
vt -0.062500 0.312500
vt -0.500000 -0.062500
vt 0.500000 -0.062500
vt 0.500000 0.062500
vt -0.500000 0.062500
vt -0.500000 -0.062500
vt -0.500000 0.062500
vt 0.500000 0.062500
vt 0.500000 -0.062500
vt 0.000000 0.418750
vt -0.468750 0.418750
vt 0.000000 0.768750
vt 0.000000 0.418750
vt 0.000000 0.768750
vt 0.468750 0.418750
vt 0.000000 0.418750
vt -0.468750 0.418750
vt 0.000000 0.768750
vt 0.000000 0.418750
vt 0.000000 0.768750
vt 0.468750 0.418750
usemtl graphics/caelum/textures/mansion/CMST03.png
f 1/1 2/2 3/3 4/4
f 5/5 6/6 7/7 8/8
f 9/9 10/10 11/11 12/12
f 13/13 14/14 15/15 16/16
f 17/17 18/18 19/19 20/20
f 21/21 22/22 23/23 24/24
usemtl graphics/caelum/textures/mansion/CMIN03.png
f 25/25 26/26 27/27
f 28/28 29/29 30/30
f 31/31 32/32 33/33
f 34/34 35/35 36/36
