# Modelo original generado para Caelum Argenteum.
# Ejes OBJ: X ancho, Y altura, Z profundidad.
o ca_vein_ruby
v 0.000000 0.000000 0.000000
v 41.181526 1.142621 0.000000
v 33.660416 -0.466420 21.120853
v 41.181526 1.142621 0.000000
v 37.735586 15.844005 0.000000
v 37.666508 15.809135 23.634549
v 33.660416 -0.466420 21.120853
v 37.735586 15.844005 0.000000
v 32.787207 30.976121 0.000000
v 28.365269 32.358264 17.798314
v 37.666508 15.809135 23.634549
v 9.304212 47.000000 -9.873903
v 28.365269 32.358264 17.798314
v 32.787207 30.976121 0.000000
v 0.000000 0.000000 0.000000
v 33.660416 -0.466420 21.120853
v 11.631165 0.842001 30.915629
v 33.660416 -0.466420 21.120853
v 37.666508 15.809135 23.634549
v 11.624909 15.489487 30.899000
v 11.631165 0.842001 30.915629
v 37.666508 15.809135 23.634549
v 28.365269 32.358264 17.798314
v 9.658531 31.796158 25.672369
v 11.624909 15.489487 30.899000
v 9.304212 47.000000 -9.873903
v 9.658531 31.796158 25.672369
v 28.365269 32.358264 17.798314
v 0.000000 0.000000 0.000000
v 11.631165 0.842001 30.915629
v -10.315133 0.260369 27.417618
v 11.631165 0.842001 30.915629
v 11.624909 15.489487 30.899000
v -16.032860 14.670774 42.615333
v -10.315133 0.260369 27.417618
v 11.624909 15.489487 30.899000
v 9.658531 31.796158 25.672369
v -8.338622 31.804135 22.164053
v -16.032860 14.670774 42.615333
v 9.304212 47.000000 -9.873903
v -8.338622 31.804135 22.164053
v 9.658531 31.796158 25.672369
v 0.000000 0.000000 0.000000
v -10.315133 0.260369 27.417618
v -27.216636 0.626870 17.077583
v -10.315133 0.260369 27.417618
v -16.032860 14.670774 42.615333
v -36.852707 15.709460 23.123914
v -27.216636 0.626870 17.077583
v -16.032860 14.670774 42.615333
v -8.338622 31.804135 22.164053
v -30.919714 31.722997 19.401148
v -36.852707 15.709460 23.123914
v 9.304212 47.000000 -9.873903
v -30.919714 31.722997 19.401148
v -8.338622 31.804135 22.164053
v 0.000000 0.000000 0.000000
v -27.216636 0.626870 17.077583
v -43.089043 0.357747 0.000000
v -27.216636 0.626870 17.077583
v -36.852707 15.709460 23.123914
v -42.312514 13.898215 0.000000
v -43.089043 0.357747 0.000000
v -36.852707 15.709460 23.123914
v -30.919714 31.722997 19.401148
v -28.864218 30.901987 0.000000
v -42.312514 13.898215 0.000000
v 9.304212 47.000000 -9.873903
v -28.864218 30.901987 0.000000
v -30.919714 31.722997 19.401148
v 0.000000 0.000000 0.000000
v -43.089043 0.357747 0.000000
v -33.812480 -1.429353 -21.216268
v -43.089043 0.357747 0.000000
v -42.312514 13.898215 0.000000
v -41.396068 15.528904 -25.974731
v -33.812480 -1.429353 -21.216268
v -42.312514 13.898215 0.000000
v -28.864218 30.901987 0.000000
v -27.022022 32.496267 -16.955469
v -41.396068 15.528904 -25.974731
v 9.304212 47.000000 -9.873903
v -27.022022 32.496267 -16.955469
v -28.864218 30.901987 0.000000
v 0.000000 0.000000 0.000000
v -33.812480 -1.429353 -21.216268
v -11.319220 -1.368785 -30.086481
v -33.812480 -1.429353 -21.216268
v -41.396068 15.528904 -25.974731
v -11.209226 14.230324 -29.794116
v -11.319220 -1.368785 -30.086481
v -41.396068 15.528904 -25.974731
v -27.022022 32.496267 -16.955469
v -9.825127 32.697512 -26.115183
v -11.209226 14.230324 -29.794116
v 9.304212 47.000000 -9.873903
v -9.825127 32.697512 -26.115183
v -27.022022 32.496267 -16.955469
v 0.000000 0.000000 0.000000
v -11.319220 -1.368785 -30.086481
v 12.617313 0.152152 -33.536810
v -11.319220 -1.368785 -30.086481
v -11.209226 14.230324 -29.794116
v 13.731747 13.460133 -36.498977
v 12.617313 0.152152 -33.536810
v -11.209226 14.230324 -29.794116
v -9.825127 32.697512 -26.115183
v 10.370191 32.872435 -27.563961
v 13.731747 13.460133 -36.498977
v 9.304212 47.000000 -9.873903
v 10.370191 32.872435 -27.563961
v -9.825127 32.697512 -26.115183
v 0.000000 0.000000 0.000000
v 12.617313 0.152152 -33.536810
v 25.133933 -0.786672 -15.770752
v 12.617313 0.152152 -33.536810
v 13.731747 13.460133 -36.498977
v 36.255812 14.927046 -22.749382
v 25.133933 -0.786672 -15.770752
v 13.731747 13.460133 -36.498977
v 10.370191 32.872435 -27.563961
v 22.642657 33.213554 -14.207555
v 36.255812 14.927046 -22.749382
v 9.304212 47.000000 -9.873903
v 22.642657 33.213554 -14.207555
v 10.370191 32.872435 -27.563961
v 0.000000 0.000000 0.000000
v 25.133933 -0.786672 -15.770752
v 41.181526 1.142621 0.000000
v 25.133933 -0.786672 -15.770752
v 36.255812 14.927046 -22.749382
v 37.735586 15.844005 0.000000
v 41.181526 1.142621 0.000000
v 36.255812 14.927046 -22.749382
v 22.642657 33.213554 -14.207555
v 32.787207 30.976121 0.000000
v 37.735586 15.844005 0.000000
v 9.304212 47.000000 -9.873903
v 32.787207 30.976121 0.000000
v 22.642657 33.213554 -14.207555
v 25.542398 32.383492 -2.556519
v 20.221044 32.466564 0.516995
v 25.663253 58.440497 3.542812
v 26.052890 58.434414 3.317765
v 25.542398 32.341405 3.589083
v 20.221044 32.466564 0.516995
v 25.542398 32.383492 -2.556519
v 26.052890 58.431333 3.767755
v 26.052890 58.434414 3.317765
v 25.663253 58.440497 3.542812
v 20.221044 32.466564 0.516995
v 20.221044 32.424477 6.662597
v 25.663253 58.437415 3.992802
v 25.663253 58.440497 3.542812
v 25.542398 32.341405 3.589083
v 20.221044 32.424477 6.662597
v 20.221044 32.466564 0.516995
v 26.052890 58.431333 3.767755
v 25.663253 58.440497 3.542812
v 25.663253 58.437415 3.992802
v 20.221044 32.424477 6.662597
v 25.542398 32.299317 9.734685
v 26.052890 58.428251 4.217744
v 25.663253 58.437415 3.992802
v 25.542398 32.341405 3.589083
v 25.542398 32.299317 9.734685
v 20.221044 32.424477 6.662597
v 26.052890 58.431333 3.767755
v 25.663253 58.437415 3.992802
v 26.052890 58.428251 4.217744
v 25.542398 32.299317 9.734685
v 30.863752 32.216245 6.661171
v 26.442526 58.422168 3.992697
v 26.052890 58.428251 4.217744
v 25.542398 32.341405 3.589083
v 30.863752 32.216245 6.661171
v 25.542398 32.299317 9.734685
v 26.052890 58.431333 3.767755
v 26.052890 58.428251 4.217744
v 26.442526 58.422168 3.992697
v 30.863752 32.216245 6.661171
v 30.863752 32.258332 0.515569
v 26.442526 58.425250 3.542708
v 26.442526 58.422168 3.992697
v 25.542398 32.341405 3.589083
v 30.863752 32.258332 0.515569
v 30.863752 32.216245 6.661171
v 26.052890 58.431333 3.767755
v 26.442526 58.422168 3.992697
v 26.442526 58.425250 3.542708
v 30.863752 32.258332 0.515569
v 25.542398 32.383492 -2.556519
v 26.052890 58.434414 3.317765
v 26.442526 58.425250 3.542708
v 25.542398 32.341405 3.589083
v 25.542398 32.383492 -2.556519
v 30.863752 32.258332 0.515569
v 26.052890 58.431333 3.767755
v 26.442526 58.425250 3.542708
v 26.052890 58.434414 3.317765
v 13.401597 26.174620 8.633051
v 9.116735 26.612275 12.259603
v 18.532910 57.564153 15.628065
v 18.875359 57.529175 15.338228
v 14.344340 25.756623 14.168389
v 9.116735 26.612275 12.259603
v 13.401597 26.174620 8.633051
v 18.950703 57.495769 15.780617
v 18.875359 57.529175 15.338228
v 18.532910 57.564153 15.628065
v 9.116735 26.612275 12.259603
v 10.059479 26.194279 17.794941
v 18.608254 57.530746 16.070453
v 18.532910 57.564153 15.628065
v 14.344340 25.756623 14.168389
v 10.059479 26.194279 17.794941
v 9.116735 26.612275 12.259603
v 18.950703 57.495769 15.780617
v 18.532910 57.564153 15.628065
v 18.608254 57.530746 16.070453
v 10.059479 26.194279 17.794941
v 15.287084 25.338627 19.703728
v 19.026048 57.462362 16.223005
v 18.608254 57.530746 16.070453
v 14.344340 25.756623 14.168389
v 15.287084 25.338627 19.703728
v 10.059479 26.194279 17.794941
v 18.950703 57.495769 15.780617
v 18.608254 57.530746 16.070453
v 19.026048 57.462362 16.223005
v 15.287084 25.338627 19.703728
v 19.571945 24.900972 16.077176
v 19.368497 57.427384 15.933168
v 19.026048 57.462362 16.223005
v 14.344340 25.756623 14.168389
v 19.571945 24.900972 16.077176
v 15.287084 25.338627 19.703728
v 18.950703 57.495769 15.780617
v 19.026048 57.462362 16.223005
v 19.368497 57.427384 15.933168
v 19.571945 24.900972 16.077176
v 18.629201 25.318968 10.541837
v 19.293152 57.460791 15.490780
v 19.368497 57.427384 15.933168
v 14.344340 25.756623 14.168389
v 18.629201 25.318968 10.541837
v 19.571945 24.900972 16.077176
v 18.950703 57.495769 15.780617
v 19.368497 57.427384 15.933168
v 19.293152 57.460791 15.490780
v 18.629201 25.318968 10.541837
v 13.401597 26.174620 8.633051
v 18.875359 57.529175 15.338228
v 19.293152 57.460791 15.490780
v 14.344340 25.756623 14.168389
v 13.401597 26.174620 8.633051
v 18.629201 25.318968 10.541837
v 18.950703 57.495769 15.780617
v 19.293152 57.460791 15.490780
v 18.875359 57.529175 15.338228
v -5.303504 28.711385 3.607862
v -8.787735 28.988073 7.739671
v -1.044598 49.717526 9.631539
v -0.754882 49.694519 9.287977
v -3.515086 28.226989 8.692662
v -8.787735 28.988073 7.739671
v -5.303504 28.711385 3.607862
v -0.606174 49.654242 9.710781
v -0.754882 49.694519 9.287977
v -1.044598 49.717526 9.631539
v -8.787735 28.988073 7.739671
v -6.999317 28.503676 12.824471
v -0.895890 49.677248 10.054344
v -1.044598 49.717526 9.631539
v -3.515086 28.226989 8.692662
v -6.999317 28.503676 12.824471
v -8.787735 28.988073 7.739671
v -0.606174 49.654242 9.710781
v -1.044598 49.717526 9.631539
v -0.895890 49.677248 10.054344
v -6.999317 28.503676 12.824471
v -1.726667 27.742593 13.777462
v -0.457466 49.613964 10.133585
v -0.895890 49.677248 10.054344
v -3.515086 28.226989 8.692662
v -1.726667 27.742593 13.777462
v -6.999317 28.503676 12.824471
v -0.606174 49.654242 9.710781
v -0.895890 49.677248 10.054344
v -0.457466 49.613964 10.133585
v -1.726667 27.742593 13.777462
v 1.757564 27.465906 9.645652
v -0.167750 49.590957 9.790023
v -0.457466 49.613964 10.133585
v -3.515086 28.226989 8.692662
v 1.757564 27.465906 9.645652
v -1.726667 27.742593 13.777462
v -0.606174 49.654242 9.710781
v -0.457466 49.613964 10.133585
v -0.167750 49.590957 9.790023
v 1.757564 27.465906 9.645652
v -0.030855 27.950302 4.560853
v -0.316458 49.631235 9.367218
v -0.167750 49.590957 9.790023
v -3.515086 28.226989 8.692662
v -0.030855 27.950302 4.560853
v 1.757564 27.465906 9.645652
v -0.606174 49.654242 9.710781
v -0.167750 49.590957 9.790023
v -0.316458 49.631235 9.367218
v -0.030855 27.950302 4.560853
v -5.303504 28.711385 3.607862
v -0.754882 49.694519 9.287977
v -0.316458 49.631235 9.367218
v -3.515086 28.226989 8.692662
v -5.303504 28.711385 3.607862
v -0.030855 27.950302 4.560853
v -0.606174 49.654242 9.710781
v -0.316458 49.631235 9.367218
v -0.754882 49.694519 9.287977
v -13.740380 24.387680 2.796293
v -16.841886 24.450799 8.011662
v -9.615905 56.826471 8.648542
v -9.385907 56.821790 8.261787
v -10.781624 24.149713 8.088980
v -16.841886 24.450799 8.011662
v -13.740380 24.387680 2.796293
v -9.166496 56.804144 8.654275
v -9.385907 56.821790 8.261787
v -9.615905 56.826471 8.648542
v -16.841886 24.450799 8.011662
v -13.883130 24.212831 13.304349
v -9.396493 56.808824 9.041030
v -9.615905 56.826471 8.648542
v -10.781624 24.149713 8.088980
v -13.883130 24.212831 13.304349
v -16.841886 24.450799 8.011662
v -9.166496 56.804144 8.654275
v -9.615905 56.826471 8.648542
v -9.396493 56.808824 9.041030
v -13.883130 24.212831 13.304349
v -7.822869 23.911745 13.381667
v -8.947084 56.786497 9.046764
v -9.396493 56.808824 9.041030
v -10.781624 24.149713 8.088980
v -7.822869 23.911745 13.381667
v -13.883130 24.212831 13.304349
v -9.166496 56.804144 8.654275
v -9.396493 56.808824 9.041030
v -8.947084 56.786497 9.046764
v -7.822869 23.911745 13.381667
v -4.721363 23.848626 8.166298
v -8.717086 56.781816 8.660009
v -8.947084 56.786497 9.046764
v -10.781624 24.149713 8.088980
v -4.721363 23.848626 8.166298
v -7.822869 23.911745 13.381667
v -9.166496 56.804144 8.654275
v -8.947084 56.786497 9.046764
v -8.717086 56.781816 8.660009
v -4.721363 23.848626 8.166298
v -7.680118 24.086594 2.873611
v -8.936498 56.799463 8.267521
v -8.717086 56.781816 8.660009
v -10.781624 24.149713 8.088980
v -7.680118 24.086594 2.873611
v -4.721363 23.848626 8.166298
v -9.166496 56.804144 8.654275
v -8.717086 56.781816 8.660009
v -8.936498 56.799463 8.267521
v -7.680118 24.086594 2.873611
v -13.740380 24.387680 2.796293
v -9.385907 56.821790 8.261787
v -8.936498 56.799463 8.267521
v -10.781624 24.149713 8.088980
v -13.740380 24.387680 2.796293
v -7.680118 24.086594 2.873611
v -9.166496 56.804144 8.654275
v -8.936498 56.799463 8.267521
v -9.385907 56.821790 8.261787
v -24.332470 34.172455 -10.365562
v -26.471452 34.179500 -4.800274
v -20.050152 60.582213 -5.318363
v -19.888711 60.581681 -5.738407
v -20.586029 33.974601 -5.731691
v -26.471452 34.179500 -4.800274
v -24.332470 34.172455 -10.365562
v -19.605947 60.566748 -5.388663
v -19.888711 60.581681 -5.738407
v -20.050152 60.582213 -5.318363
v -26.471452 34.179500 -4.800274
v -22.725011 33.981645 -0.166403
v -19.767388 60.567280 -4.968619
v -20.050152 60.582213 -5.318363
v -20.586029 33.974601 -5.731691
v -22.725011 33.981645 -0.166403
v -26.471452 34.179500 -4.800274
v -19.605947 60.566748 -5.388663
v -20.050152 60.582213 -5.318363
v -19.767388 60.567280 -4.968619
v -22.725011 33.981645 -0.166403
v -16.839588 33.776746 -1.097820
v -19.323182 60.551815 -5.038918
v -19.767388 60.567280 -4.968619
v -20.586029 33.974601 -5.731691
v -16.839588 33.776746 -1.097820
v -22.725011 33.981645 -0.166403
v -19.605947 60.566748 -5.388663
v -19.767388 60.567280 -4.968619
v -19.323182 60.551815 -5.038918
v -16.839588 33.776746 -1.097820
v -14.700606 33.769702 -6.663109
v -19.161741 60.551283 -5.458962
v -19.323182 60.551815 -5.038918
v -20.586029 33.974601 -5.731691
v -14.700606 33.769702 -6.663109
v -16.839588 33.776746 -1.097820
v -19.605947 60.566748 -5.388663
v -19.323182 60.551815 -5.038918
v -19.161741 60.551283 -5.458962
v -14.700606 33.769702 -6.663109
v -18.447047 33.967557 -11.296980
v -19.444506 60.566216 -5.808706
v -19.161741 60.551283 -5.458962
v -20.586029 33.974601 -5.731691
v -18.447047 33.967557 -11.296980
v -14.700606 33.769702 -6.663109
v -19.605947 60.566748 -5.388663
v -19.161741 60.551283 -5.458962
v -19.444506 60.566216 -5.808706
v -18.447047 33.967557 -11.296980
v -24.332470 34.172455 -10.365562
v -19.888711 60.581681 -5.738407
v -19.444506 60.566216 -5.808706
v -20.586029 33.974601 -5.731691
v -24.332470 34.172455 -10.365562
v -18.447047 33.967557 -11.296980
v -19.605947 60.566748 -5.388663
v -19.444506 60.566216 -5.808706
v -19.888711 60.581681 -5.738407
v -6.261576 32.808371 -13.665954
v -7.111006 32.911676 -9.361539
v -8.303086 64.446203 -12.361463
v -8.215987 64.435610 -12.802826
v -3.004360 33.478023 -10.801989
v -7.111006 32.911676 -9.361539
v -6.261576 32.808371 -13.665954
v -7.882001 64.504275 -12.509163
v -8.215987 64.435610 -12.802826
v -8.303086 64.446203 -12.361463
v -7.111006 32.911676 -9.361539
v -3.853790 33.581329 -6.497574
v -7.969099 64.514868 -12.067799
v -8.303086 64.446203 -12.361463
v -3.004360 33.478023 -10.801989
v -3.853790 33.581329 -6.497574
v -7.111006 32.911676 -9.361539
v -7.882001 64.504275 -12.509163
v -8.303086 64.446203 -12.361463
v -7.969099 64.514868 -12.067799
v -3.853790 33.581329 -6.497574
v 0.252856 34.147676 -7.938024
v -7.548014 64.572939 -12.215499
v -7.969099 64.514868 -12.067799
v -3.004360 33.478023 -10.801989
v 0.252856 34.147676 -7.938024
v -3.853790 33.581329 -6.497574
v -7.882001 64.504275 -12.509163
v -7.969099 64.514868 -12.067799
v -7.548014 64.572939 -12.215499
v 0.252856 34.147676 -7.938024
v 1.102286 34.044371 -12.242438
v -7.460916 64.562347 -12.656863
v -7.548014 64.572939 -12.215499
v -3.004360 33.478023 -10.801989
v 1.102286 34.044371 -12.242438
v 0.252856 34.147676 -7.938024
v -7.882001 64.504275 -12.509163
v -7.548014 64.572939 -12.215499
v -7.460916 64.562347 -12.656863
v 1.102286 34.044371 -12.242438
v -2.154930 33.374718 -15.106403
v -7.794902 64.493682 -12.950526
v -7.460916 64.562347 -12.656863
v -3.004360 33.478023 -10.801989
v -2.154930 33.374718 -15.106403
v 1.102286 34.044371 -12.242438
v -7.882001 64.504275 -12.509163
v -7.460916 64.562347 -12.656863
v -7.794902 64.493682 -12.950526
v -2.154930 33.374718 -15.106403
v -6.261576 32.808371 -13.665954
v -8.215987 64.435610 -12.802826
v -7.794902 64.493682 -12.950526
v -3.004360 33.478023 -10.801989
v -6.261576 32.808371 -13.665954
v -2.154930 33.374718 -15.106403
v -7.882001 64.504275 -12.509163
v -7.794902 64.493682 -12.950526
v -8.215987 64.435610 -12.802826
v 1.744992 29.095943 -8.715343
v 1.630689 29.086525 -4.513588
v 5.124748 56.984302 -6.233368
v 5.136985 56.985310 -6.683200
v 5.326588 29.065728 -6.515535
v 1.630689 29.086525 -4.513588
v 1.744992 29.095943 -8.715343
v 5.520424 56.982076 -6.447693
v 5.136985 56.985310 -6.683200
v 5.124748 56.984302 -6.233368
v 1.630689 29.086525 -4.513588
v 5.212285 29.056311 -2.313781
v 5.508187 56.981067 -5.997860
v 5.124748 56.984302 -6.233368
v 5.326588 29.065728 -6.515535
v 5.212285 29.056311 -2.313781
v 1.630689 29.086525 -4.513588
v 5.520424 56.982076 -6.447693
v 5.124748 56.984302 -6.233368
v 5.508187 56.981067 -5.997860
v 5.212285 29.056311 -2.313781
v 8.908184 29.035514 -4.315728
v 5.903863 56.978841 -6.212185
v 5.508187 56.981067 -5.997860
v 5.326588 29.065728 -6.515535
v 8.908184 29.035514 -4.315728
v 5.212285 29.056311 -2.313781
v 5.520424 56.982076 -6.447693
v 5.508187 56.981067 -5.997860
v 5.903863 56.978841 -6.212185
v 8.908184 29.035514 -4.315728
v 9.022487 29.044931 -8.517483
v 5.916101 56.979849 -6.662018
v 5.903863 56.978841 -6.212185
v 5.326588 29.065728 -6.515535
v 9.022487 29.044931 -8.517483
v 8.908184 29.035514 -4.315728
v 5.520424 56.982076 -6.447693
v 5.903863 56.978841 -6.212185
v 5.916101 56.979849 -6.662018
v 9.022487 29.044931 -8.517483
v 5.440891 29.075146 -10.717290
v 5.532661 56.983084 -6.897525
v 5.916101 56.979849 -6.662018
v 5.326588 29.065728 -6.515535
v 5.440891 29.075146 -10.717290
v 9.022487 29.044931 -8.517483
v 5.520424 56.982076 -6.447693
v 5.916101 56.979849 -6.662018
v 5.532661 56.983084 -6.897525
v 5.440891 29.075146 -10.717290
v 1.744992 29.095943 -8.715343
v 5.136985 56.985310 -6.683200
v 5.532661 56.983084 -6.897525
v 5.326588 29.065728 -6.515535
v 1.744992 29.095943 -8.715343
v 5.440891 29.075146 -10.717290
v 5.520424 56.982076 -6.447693
v 5.532661 56.983084 -6.897525
v 5.136985 56.985310 -6.683200
vt 0.500000 1.000000
vt 0.000000 0.000000
vt 1.000000 0.000000
vt 0.000000 0.000000
vt 1.000000 0.000000
vt 1.000000 1.000000
vt 0.000000 1.000000
vt 0.000000 0.000000
vt 1.000000 0.000000
vt 1.000000 1.000000
vt 0.000000 1.000000
vt 0.500000 1.000000
vt 0.000000 0.000000
vt 1.000000 0.000000
vt 0.500000 1.000000
vt 0.000000 0.000000
vt 1.000000 0.000000
vt 0.000000 0.000000
vt 1.000000 0.000000
vt 1.000000 1.000000
vt 0.000000 1.000000
vt 0.000000 0.000000
vt 1.000000 0.000000
vt 1.000000 1.000000
vt 0.000000 1.000000
vt 0.500000 1.000000
vt 0.000000 0.000000
vt 1.000000 0.000000
vt 0.500000 1.000000
vt 0.000000 0.000000
vt 1.000000 0.000000
vt 0.000000 0.000000
vt 1.000000 0.000000
vt 1.000000 1.000000
vt 0.000000 1.000000
vt 0.000000 0.000000
vt 1.000000 0.000000
vt 1.000000 1.000000
vt 0.000000 1.000000
vt 0.500000 1.000000
vt 0.000000 0.000000
vt 1.000000 0.000000
vt 0.500000 1.000000
vt 0.000000 0.000000
vt 1.000000 0.000000
vt 0.000000 0.000000
vt 1.000000 0.000000
vt 1.000000 1.000000
vt 0.000000 1.000000
vt 0.000000 0.000000
vt 1.000000 0.000000
vt 1.000000 1.000000
vt 0.000000 1.000000
vt 0.500000 1.000000
vt 0.000000 0.000000
vt 1.000000 0.000000
vt 0.500000 1.000000
vt 0.000000 0.000000
vt 1.000000 0.000000
vt 0.000000 0.000000
vt 1.000000 0.000000
vt 1.000000 1.000000
vt 0.000000 1.000000
vt 0.000000 0.000000
vt 1.000000 0.000000
vt 1.000000 1.000000
vt 0.000000 1.000000
vt 0.500000 1.000000
vt 0.000000 0.000000
vt 1.000000 0.000000
vt 0.500000 1.000000
vt 0.000000 0.000000
vt 1.000000 0.000000
vt 0.000000 0.000000
vt 1.000000 0.000000
vt 1.000000 1.000000
vt 0.000000 1.000000
vt 0.000000 0.000000
vt 1.000000 0.000000
vt 1.000000 1.000000
vt 0.000000 1.000000
vt 0.500000 1.000000
vt 0.000000 0.000000
vt 1.000000 0.000000
vt 0.500000 1.000000
vt 0.000000 0.000000
vt 1.000000 0.000000
vt 0.000000 0.000000
vt 1.000000 0.000000
vt 1.000000 1.000000
vt 0.000000 1.000000
vt 0.000000 0.000000
vt 1.000000 0.000000
vt 1.000000 1.000000
vt 0.000000 1.000000
vt 0.500000 1.000000
vt 0.000000 0.000000
vt 1.000000 0.000000
vt 0.500000 1.000000
vt 0.000000 0.000000
vt 1.000000 0.000000
vt 0.000000 0.000000
vt 1.000000 0.000000
vt 1.000000 1.000000
vt 0.000000 1.000000
vt 0.000000 0.000000
vt 1.000000 0.000000
vt 1.000000 1.000000
vt 0.000000 1.000000
vt 0.500000 1.000000
vt 0.000000 0.000000
vt 1.000000 0.000000
vt 0.500000 1.000000
vt 0.000000 0.000000
vt 1.000000 0.000000
vt 0.000000 0.000000
vt 1.000000 0.000000
vt 1.000000 1.000000
vt 0.000000 1.000000
vt 0.000000 0.000000
vt 1.000000 0.000000
vt 1.000000 1.000000
vt 0.000000 1.000000
vt 0.500000 1.000000
vt 0.000000 0.000000
vt 1.000000 0.000000
vt 0.500000 1.000000
vt 0.000000 0.000000
vt 1.000000 0.000000
vt 0.000000 0.000000
vt 1.000000 0.000000
vt 1.000000 1.000000
vt 0.000000 1.000000
vt 0.000000 0.000000
vt 1.000000 0.000000
vt 1.000000 1.000000
vt 0.000000 1.000000
vt 0.500000 1.000000
vt 0.000000 0.000000
vt 1.000000 0.000000
vt 0.000000 0.000000
vt 1.000000 0.000000
vt 1.000000 1.000000
vt 0.000000 1.000000
vt 0.500000 1.000000
vt 0.000000 0.000000
vt 1.000000 0.000000
vt 0.500000 1.000000
vt 0.000000 0.000000
vt 1.000000 0.000000
vt 0.000000 0.000000
vt 1.000000 0.000000
vt 1.000000 1.000000
vt 0.000000 1.000000
vt 0.500000 1.000000
vt 0.000000 0.000000
vt 1.000000 0.000000
vt 0.500000 1.000000
vt 0.000000 0.000000
vt 1.000000 0.000000
vt 0.000000 0.000000
vt 1.000000 0.000000
vt 1.000000 1.000000
vt 0.000000 1.000000
vt 0.500000 1.000000
vt 0.000000 0.000000
vt 1.000000 0.000000
vt 0.500000 1.000000
vt 0.000000 0.000000
vt 1.000000 0.000000
vt 0.000000 0.000000
vt 1.000000 0.000000
vt 1.000000 1.000000
vt 0.000000 1.000000
vt 0.500000 1.000000
vt 0.000000 0.000000
vt 1.000000 0.000000
vt 0.500000 1.000000
vt 0.000000 0.000000
vt 1.000000 0.000000
vt 0.000000 0.000000
vt 1.000000 0.000000
vt 1.000000 1.000000
vt 0.000000 1.000000
vt 0.500000 1.000000
vt 0.000000 0.000000
vt 1.000000 0.000000
vt 0.500000 1.000000
vt 0.000000 0.000000
vt 1.000000 0.000000
vt 0.000000 0.000000
vt 1.000000 0.000000
vt 1.000000 1.000000
vt 0.000000 1.000000
vt 0.500000 1.000000
vt 0.000000 0.000000
vt 1.000000 0.000000
vt 0.500000 1.000000
vt 0.000000 0.000000
vt 1.000000 0.000000
vt 0.000000 0.000000
vt 1.000000 0.000000
vt 1.000000 1.000000
vt 0.000000 1.000000
vt 0.500000 1.000000
vt 0.000000 0.000000
vt 1.000000 0.000000
vt 0.500000 1.000000
vt 0.000000 0.000000
vt 1.000000 0.000000
vt 0.000000 0.000000
vt 1.000000 0.000000
vt 1.000000 1.000000
vt 0.000000 1.000000
vt 0.500000 1.000000
vt 0.000000 0.000000
vt 1.000000 0.000000
vt 0.500000 1.000000
vt 0.000000 0.000000
vt 1.000000 0.000000
vt 0.000000 0.000000
vt 1.000000 0.000000
vt 1.000000 1.000000
vt 0.000000 1.000000
vt 0.500000 1.000000
vt 0.000000 0.000000
vt 1.000000 0.000000
vt 0.500000 1.000000
vt 0.000000 0.000000
vt 1.000000 0.000000
vt 0.000000 0.000000
vt 1.000000 0.000000
vt 1.000000 1.000000
vt 0.000000 1.000000
vt 0.500000 1.000000
vt 0.000000 0.000000
vt 1.000000 0.000000
vt 0.500000 1.000000
vt 0.000000 0.000000
vt 1.000000 0.000000
vt 0.000000 0.000000
vt 1.000000 0.000000
vt 1.000000 1.000000
vt 0.000000 1.000000
vt 0.500000 1.000000
vt 0.000000 0.000000
vt 1.000000 0.000000
vt 0.500000 1.000000
vt 0.000000 0.000000
vt 1.000000 0.000000
vt 0.000000 0.000000
vt 1.000000 0.000000
vt 1.000000 1.000000
vt 0.000000 1.000000
vt 0.500000 1.000000
vt 0.000000 0.000000
vt 1.000000 0.000000
vt 0.500000 1.000000
vt 0.000000 0.000000
vt 1.000000 0.000000
vt 0.000000 0.000000
vt 1.000000 0.000000
vt 1.000000 1.000000
vt 0.000000 1.000000
vt 0.500000 1.000000
vt 0.000000 0.000000
vt 1.000000 0.000000
vt 0.500000 1.000000
vt 0.000000 0.000000
vt 1.000000 0.000000
vt 0.000000 0.000000
vt 1.000000 0.000000
vt 1.000000 1.000000
vt 0.000000 1.000000
vt 0.500000 1.000000
vt 0.000000 0.000000
vt 1.000000 0.000000
vt 0.500000 1.000000
vt 0.000000 0.000000
vt 1.000000 0.000000
vt 0.000000 0.000000
vt 1.000000 0.000000
vt 1.000000 1.000000
vt 0.000000 1.000000
vt 0.500000 1.000000
vt 0.000000 0.000000
vt 1.000000 0.000000
vt 0.500000 1.000000
vt 0.000000 0.000000
vt 1.000000 0.000000
vt 0.000000 0.000000
vt 1.000000 0.000000
vt 1.000000 1.000000
vt 0.000000 1.000000
vt 0.500000 1.000000
vt 0.000000 0.000000
vt 1.000000 0.000000
vt 0.500000 1.000000
vt 0.000000 0.000000
vt 1.000000 0.000000
vt 0.000000 0.000000
vt 1.000000 0.000000
vt 1.000000 1.000000
vt 0.000000 1.000000
vt 0.500000 1.000000
vt 0.000000 0.000000
vt 1.000000 0.000000
vt 0.500000 1.000000
vt 0.000000 0.000000
vt 1.000000 0.000000
vt 0.000000 0.000000
vt 1.000000 0.000000
vt 1.000000 1.000000
vt 0.000000 1.000000
vt 0.500000 1.000000
vt 0.000000 0.000000
vt 1.000000 0.000000
vt 0.500000 1.000000
vt 0.000000 0.000000
vt 1.000000 0.000000
vt 0.000000 0.000000
vt 1.000000 0.000000
vt 1.000000 1.000000
vt 0.000000 1.000000
vt 0.500000 1.000000
vt 0.000000 0.000000
vt 1.000000 0.000000
vt 0.500000 1.000000
vt 0.000000 0.000000
vt 1.000000 0.000000
vt 0.000000 0.000000
vt 1.000000 0.000000
vt 1.000000 1.000000
vt 0.000000 1.000000
vt 0.500000 1.000000
vt 0.000000 0.000000
vt 1.000000 0.000000
vt 0.500000 1.000000
vt 0.000000 0.000000
vt 1.000000 0.000000
vt 0.000000 0.000000
vt 1.000000 0.000000
vt 1.000000 1.000000
vt 0.000000 1.000000
vt 0.500000 1.000000
vt 0.000000 0.000000
vt 1.000000 0.000000
vt 0.500000 1.000000
vt 0.000000 0.000000
vt 1.000000 0.000000
vt 0.000000 0.000000
vt 1.000000 0.000000
vt 1.000000 1.000000
vt 0.000000 1.000000
vt 0.500000 1.000000
vt 0.000000 0.000000
vt 1.000000 0.000000
vt 0.500000 1.000000
vt 0.000000 0.000000
vt 1.000000 0.000000
vt 0.000000 0.000000
vt 1.000000 0.000000
vt 1.000000 1.000000
vt 0.000000 1.000000
vt 0.500000 1.000000
vt 0.000000 0.000000
vt 1.000000 0.000000
vt 0.500000 1.000000
vt 0.000000 0.000000
vt 1.000000 0.000000
vt 0.000000 0.000000
vt 1.000000 0.000000
vt 1.000000 1.000000
vt 0.000000 1.000000
vt 0.500000 1.000000
vt 0.000000 0.000000
vt 1.000000 0.000000
vt 0.500000 1.000000
vt 0.000000 0.000000
vt 1.000000 0.000000
vt 0.000000 0.000000
vt 1.000000 0.000000
vt 1.000000 1.000000
vt 0.000000 1.000000
vt 0.500000 1.000000
vt 0.000000 0.000000
vt 1.000000 0.000000
vt 0.500000 1.000000
vt 0.000000 0.000000
vt 1.000000 0.000000
vt 0.000000 0.000000
vt 1.000000 0.000000
vt 1.000000 1.000000
vt 0.000000 1.000000
vt 0.500000 1.000000
vt 0.000000 0.000000
vt 1.000000 0.000000
vt 0.500000 1.000000
vt 0.000000 0.000000
vt 1.000000 0.000000
vt 0.000000 0.000000
vt 1.000000 0.000000
vt 1.000000 1.000000
vt 0.000000 1.000000
vt 0.500000 1.000000
vt 0.000000 0.000000
vt 1.000000 0.000000
vt 0.500000 1.000000
vt 0.000000 0.000000
vt 1.000000 0.000000
vt 0.000000 0.000000
vt 1.000000 0.000000
vt 1.000000 1.000000
vt 0.000000 1.000000
vt 0.500000 1.000000
vt 0.000000 0.000000
vt 1.000000 0.000000
vt 0.500000 1.000000
vt 0.000000 0.000000
vt 1.000000 0.000000
vt 0.000000 0.000000
vt 1.000000 0.000000
vt 1.000000 1.000000
vt 0.000000 1.000000
vt 0.500000 1.000000
vt 0.000000 0.000000
vt 1.000000 0.000000
vt 0.500000 1.000000
vt 0.000000 0.000000
vt 1.000000 0.000000
vt 0.000000 0.000000
vt 1.000000 0.000000
vt 1.000000 1.000000
vt 0.000000 1.000000
vt 0.500000 1.000000
vt 0.000000 0.000000
vt 1.000000 0.000000
vt 0.500000 1.000000
vt 0.000000 0.000000
vt 1.000000 0.000000
vt 0.000000 0.000000
vt 1.000000 0.000000
vt 1.000000 1.000000
vt 0.000000 1.000000
vt 0.500000 1.000000
vt 0.000000 0.000000
vt 1.000000 0.000000
vt 0.500000 1.000000
vt 0.000000 0.000000
vt 1.000000 0.000000
vt 0.000000 0.000000
vt 1.000000 0.000000
vt 1.000000 1.000000
vt 0.000000 1.000000
vt 0.500000 1.000000
vt 0.000000 0.000000
vt 1.000000 0.000000
vt 0.500000 1.000000
vt 0.000000 0.000000
vt 1.000000 0.000000
vt 0.000000 0.000000
vt 1.000000 0.000000
vt 1.000000 1.000000
vt 0.000000 1.000000
vt 0.500000 1.000000
vt 0.000000 0.000000
vt 1.000000 0.000000
vt 0.500000 1.000000
vt 0.000000 0.000000
vt 1.000000 0.000000
vt 0.000000 0.000000
vt 1.000000 0.000000
vt 1.000000 1.000000
vt 0.000000 1.000000
vt 0.500000 1.000000
vt 0.000000 0.000000
vt 1.000000 0.000000
vt 0.500000 1.000000
vt 0.000000 0.000000
vt 1.000000 0.000000
vt 0.000000 0.000000
vt 1.000000 0.000000
vt 1.000000 1.000000
vt 0.000000 1.000000
vt 0.500000 1.000000
vt 0.000000 0.000000
vt 1.000000 0.000000
vt 0.500000 1.000000
vt 0.000000 0.000000
vt 1.000000 0.000000
vt 0.000000 0.000000
vt 1.000000 0.000000
vt 1.000000 1.000000
vt 0.000000 1.000000
vt 0.500000 1.000000
vt 0.000000 0.000000
vt 1.000000 0.000000
vt 0.500000 1.000000
vt 0.000000 0.000000
vt 1.000000 0.000000
vt 0.000000 0.000000
vt 1.000000 0.000000
vt 1.000000 1.000000
vt 0.000000 1.000000
vt 0.500000 1.000000
vt 0.000000 0.000000
vt 1.000000 0.000000
vt 0.500000 1.000000
vt 0.000000 0.000000
vt 1.000000 0.000000
vt 0.000000 0.000000
vt 1.000000 0.000000
vt 1.000000 1.000000
vt 0.000000 1.000000
vt 0.500000 1.000000
vt 0.000000 0.000000
vt 1.000000 0.000000
vt 0.500000 1.000000
vt 0.000000 0.000000
vt 1.000000 0.000000
vt 0.000000 0.000000
vt 1.000000 0.000000
vt 1.000000 1.000000
vt 0.000000 1.000000
vt 0.500000 1.000000
vt 0.000000 0.000000
vt 1.000000 0.000000
vt 0.500000 1.000000
vt 0.000000 0.000000
vt 1.000000 0.000000
vt 0.000000 0.000000
vt 1.000000 0.000000
vt 1.000000 1.000000
vt 0.000000 1.000000
vt 0.500000 1.000000
vt 0.000000 0.000000
vt 1.000000 0.000000
vt 0.500000 1.000000
vt 0.000000 0.000000
vt 1.000000 0.000000
vt 0.000000 0.000000
vt 1.000000 0.000000
vt 1.000000 1.000000
vt 0.000000 1.000000
vt 0.500000 1.000000
vt 0.000000 0.000000
vt 1.000000 0.000000
vt 0.500000 1.000000
vt 0.000000 0.000000
vt 1.000000 0.000000
vt 0.000000 0.000000
vt 1.000000 0.000000
vt 1.000000 1.000000
vt 0.000000 1.000000
vt 0.500000 1.000000
vt 0.000000 0.000000
vt 1.000000 0.000000
vt 0.500000 1.000000
vt 0.000000 0.000000
vt 1.000000 0.000000
s 1
usemtl models/caelum/world/environment/rock_granite.png
f 1/1 2/2 3/3
f 4/4 5/5 6/6 7/7
f 8/8 9/9 10/10 11/11
f 12/12 13/13 14/14
f 15/15 16/16 17/17
f 18/18 19/19 20/20 21/21
f 22/22 23/23 24/24 25/25
f 26/26 27/27 28/28
f 29/29 30/30 31/31
f 32/32 33/33 34/34 35/35
f 36/36 37/37 38/38 39/39
f 40/40 41/41 42/42
f 43/43 44/44 45/45
f 46/46 47/47 48/48 49/49
f 50/50 51/51 52/52 53/53
f 54/54 55/55 56/56
f 57/57 58/58 59/59
f 60/60 61/61 62/62 63/63
f 64/64 65/65 66/66 67/67
f 68/68 69/69 70/70
f 71/71 72/72 73/73
f 74/74 75/75 76/76 77/77
f 78/78 79/79 80/80 81/81
f 82/82 83/83 84/84
f 85/85 86/86 87/87
f 88/88 89/89 90/90 91/91
f 92/92 93/93 94/94 95/95
f 96/96 97/97 98/98
f 99/99 100/100 101/101
f 102/102 103/103 104/104 105/105
f 106/106 107/107 108/108 109/109
f 110/110 111/111 112/112
f 113/113 114/114 115/115
f 116/116 117/117 118/118 119/119
f 120/120 121/121 122/122 123/123
f 124/124 125/125 126/126
f 127/127 128/128 129/129
f 130/130 131/131 132/132 133/133
f 134/134 135/135 136/136 137/137
f 138/138 139/139 140/140
usemtl models/caelum/world/resources/ca_vein_ruby.png
f 141/141 142/142 143/143 144/144
f 145/145 146/146 147/147
f 148/148 149/149 150/150
f 151/151 152/152 153/153 154/154
f 155/155 156/156 157/157
f 158/158 159/159 160/160
f 161/161 162/162 163/163 164/164
f 165/165 166/166 167/167
f 168/168 169/169 170/170
f 171/171 172/172 173/173 174/174
f 175/175 176/176 177/177
f 178/178 179/179 180/180
f 181/181 182/182 183/183 184/184
f 185/185 186/186 187/187
f 188/188 189/189 190/190
f 191/191 192/192 193/193 194/194
f 195/195 196/196 197/197
f 198/198 199/199 200/200
f 201/201 202/202 203/203 204/204
f 205/205 206/206 207/207
f 208/208 209/209 210/210
f 211/211 212/212 213/213 214/214
f 215/215 216/216 217/217
f 218/218 219/219 220/220
f 221/221 222/222 223/223 224/224
f 225/225 226/226 227/227
f 228/228 229/229 230/230
f 231/231 232/232 233/233 234/234
f 235/235 236/236 237/237
f 238/238 239/239 240/240
f 241/241 242/242 243/243 244/244
f 245/245 246/246 247/247
f 248/248 249/249 250/250
f 251/251 252/252 253/253 254/254
f 255/255 256/256 257/257
f 258/258 259/259 260/260
f 261/261 262/262 263/263 264/264
f 265/265 266/266 267/267
f 268/268 269/269 270/270
f 271/271 272/272 273/273 274/274
f 275/275 276/276 277/277
f 278/278 279/279 280/280
f 281/281 282/282 283/283 284/284
f 285/285 286/286 287/287
f 288/288 289/289 290/290
f 291/291 292/292 293/293 294/294
f 295/295 296/296 297/297
f 298/298 299/299 300/300
f 301/301 302/302 303/303 304/304
f 305/305 306/306 307/307
f 308/308 309/309 310/310
f 311/311 312/312 313/313 314/314
f 315/315 316/316 317/317
f 318/318 319/319 320/320
f 321/321 322/322 323/323 324/324
f 325/325 326/326 327/327
f 328/328 329/329 330/330
f 331/331 332/332 333/333 334/334
f 335/335 336/336 337/337
f 338/338 339/339 340/340
f 341/341 342/342 343/343 344/344
f 345/345 346/346 347/347
f 348/348 349/349 350/350
f 351/351 352/352 353/353 354/354
f 355/355 356/356 357/357
f 358/358 359/359 360/360
f 361/361 362/362 363/363 364/364
f 365/365 366/366 367/367
f 368/368 369/369 370/370
f 371/371 372/372 373/373 374/374
f 375/375 376/376 377/377
f 378/378 379/379 380/380
f 381/381 382/382 383/383 384/384
f 385/385 386/386 387/387
f 388/388 389/389 390/390
f 391/391 392/392 393/393 394/394
f 395/395 396/396 397/397
f 398/398 399/399 400/400
f 401/401 402/402 403/403 404/404
f 405/405 406/406 407/407
f 408/408 409/409 410/410
f 411/411 412/412 413/413 414/414
f 415/415 416/416 417/417
f 418/418 419/419 420/420
f 421/421 422/422 423/423 424/424
f 425/425 426/426 427/427
f 428/428 429/429 430/430
f 431/431 432/432 433/433 434/434
f 435/435 436/436 437/437
f 438/438 439/439 440/440
f 441/441 442/442 443/443 444/444
f 445/445 446/446 447/447
f 448/448 449/449 450/450
f 451/451 452/452 453/453 454/454
f 455/455 456/456 457/457
f 458/458 459/459 460/460
f 461/461 462/462 463/463 464/464
f 465/465 466/466 467/467
f 468/468 469/469 470/470
f 471/471 472/472 473/473 474/474
f 475/475 476/476 477/477
f 478/478 479/479 480/480
f 481/481 482/482 483/483 484/484
f 485/485 486/486 487/487
f 488/488 489/489 490/490
f 491/491 492/492 493/493 494/494
f 495/495 496/496 497/497
f 498/498 499/499 500/500
f 501/501 502/502 503/503 504/504
f 505/505 506/506 507/507
f 508/508 509/509 510/510
f 511/511 512/512 513/513 514/514
f 515/515 516/516 517/517
f 518/518 519/519 520/520
f 521/521 522/522 523/523 524/524
f 525/525 526/526 527/527
f 528/528 529/529 530/530
f 531/531 532/532 533/533 534/534
f 535/535 536/536 537/537
f 538/538 539/539 540/540
f 541/541 542/542 543/543 544/544
f 545/545 546/546 547/547
f 548/548 549/549 550/550
f 551/551 552/552 553/553 554/554
f 555/555 556/556 557/557
f 558/558 559/559 560/560
