# Modelo original generado para Caelum Argenteum.
# Ejes OBJ: X ancho, Y altura, Z profundidad.
o ca_vein_emerald
v 0.000000 0.000000 0.000000
v 35.747251 -0.529199 0.000000
v 25.811621 0.645151 16.195980
v 35.747251 -0.529199 0.000000
v 50.266042 16.297174 0.000000
v 40.299171 14.768197 25.286462
v 25.811621 0.645151 16.195980
v 50.266042 16.297174 0.000000
v 34.697828 32.664988 0.000000
v 24.213395 30.725990 15.193144
v 40.299171 14.768197 25.286462
v 11.311443 47.000000 -5.067832
v 24.213395 30.725990 15.193144
v 34.697828 32.664988 0.000000
v 0.000000 0.000000 0.000000
v 25.811621 0.645151 16.195980
v 11.793490 -1.378976 31.347090
v 25.811621 0.645151 16.195980
v 40.299171 14.768197 25.286462
v 14.053340 16.167427 37.353768
v 11.793490 -1.378976 31.347090
v 40.299171 14.768197 25.286462
v 24.213395 30.725990 15.193144
v 8.712595 30.627517 23.158072
v 14.053340 16.167427 37.353768
v 11.311443 47.000000 -5.067832
v 8.712595 30.627517 23.158072
v 24.213395 30.725990 15.193144
v 0.000000 0.000000 0.000000
v 11.793490 -1.378976 31.347090
v -9.842287 -0.210216 26.160792
v 11.793490 -1.378976 31.347090
v 14.053340 16.167427 37.353768
v -13.520288 15.302529 35.936917
v -9.842287 -0.210216 26.160792
v 14.053340 16.167427 37.353768
v 8.712595 30.627517 23.158072
v -10.368352 32.781802 27.559073
v -13.520288 15.302529 35.936917
v 11.311443 47.000000 -5.067832
v -10.368352 32.781802 27.559073
v 8.712595 30.627517 23.158072
v 0.000000 0.000000 0.000000
v -9.842287 -0.210216 26.160792
v -32.505980 0.372102 20.396480
v -9.842287 -0.210216 26.160792
v -13.520288 15.302529 35.936917
v -36.718547 14.510125 23.039733
v -32.505980 0.372102 20.396480
v -13.520288 15.302529 35.936917
v -10.368352 32.781802 27.559073
v -27.093631 33.333544 17.000401
v -36.718547 14.510125 23.039733
v 11.311443 47.000000 -5.067832
v -27.093631 33.333544 17.000401
v -10.368352 32.781802 27.559073
v 0.000000 0.000000 0.000000
v -32.505980 0.372102 20.396480
v -40.474824 1.311672 0.000000
v -32.505980 0.372102 20.396480
v -36.718547 14.510125 23.039733
v -45.023746 13.467807 0.000000
v -40.474824 1.311672 0.000000
v -36.718547 14.510125 23.039733
v -27.093631 33.333544 17.000401
v -30.746176 33.135847 0.000000
v -45.023746 13.467807 0.000000
v 11.311443 47.000000 -5.067832
v -30.746176 33.135847 0.000000
v -27.093631 33.333544 17.000401
v 0.000000 0.000000 0.000000
v -40.474824 1.311672 0.000000
v -30.699648 -0.617501 -19.263064
v -40.474824 1.311672 0.000000
v -45.023746 13.467807 0.000000
v -37.973933 13.454628 -23.827448
v -30.699648 -0.617501 -19.263064
v -45.023746 13.467807 0.000000
v -30.746176 33.135847 0.000000
v -30.920261 31.307787 -19.401491
v -37.973933 13.454628 -23.827448
v 11.311443 47.000000 -5.067832
v -30.920261 31.307787 -19.401491
v -30.746176 33.135847 0.000000
v 0.000000 0.000000 0.000000
v -30.699648 -0.617501 -19.263064
v -10.730433 -1.517739 -28.521484
v -30.699648 -0.617501 -19.263064
v -37.973933 13.454628 -23.827448
v -13.885508 15.002877 -36.907673
v -10.730433 -1.517739 -28.521484
v -37.973933 13.454628 -23.827448
v -30.920261 31.307787 -19.401491
v -8.730850 31.292037 -23.206595
v -13.885508 15.002877 -36.907673
v 11.311443 47.000000 -5.067832
v -8.730850 31.292037 -23.206595
v -30.920261 31.307787 -19.401491
v 0.000000 0.000000 0.000000
v -10.730433 -1.517739 -28.521484
v 12.295400 0.756156 -32.681166
v -10.730433 -1.517739 -28.521484
v -13.885508 15.002877 -36.907673
v 11.733799 14.717106 -31.188430
v 12.295400 0.756156 -32.681166
v -13.885508 15.002877 -36.907673
v -8.730850 31.292037 -23.206595
v 8.362465 33.217566 -22.227428
v 11.733799 14.717106 -31.188430
v 11.311443 47.000000 -5.067832
v 8.362465 33.217566 -22.227428
v -8.730850 31.292037 -23.206595
v 0.000000 0.000000 0.000000
v 12.295400 0.756156 -32.681166
v 26.907801 -0.523939 -16.883799
v 12.295400 0.756156 -32.681166
v 11.733799 14.717106 -31.188430
v 38.987336 14.742712 -24.463327
v 26.907801 -0.523939 -16.883799
v 11.733799 14.717106 -31.188430
v 8.362465 33.217566 -22.227428
v 26.281986 30.697573 -16.491120
v 38.987336 14.742712 -24.463327
v 11.311443 47.000000 -5.067832
v 26.281986 30.697573 -16.491120
v 8.362465 33.217566 -22.227428
v 0.000000 0.000000 0.000000
v 26.907801 -0.523939 -16.883799
v 35.747251 -0.529199 0.000000
v 26.907801 -0.523939 -16.883799
v 38.987336 14.742712 -24.463327
v 50.266042 16.297174 0.000000
v 35.747251 -0.529199 0.000000
v 38.987336 14.742712 -24.463327
v 26.281986 30.697573 -16.491120
v 34.697828 32.664988 0.000000
v 50.266042 16.297174 0.000000
v 11.311443 47.000000 -5.067832
v 34.697828 32.664988 0.000000
v 26.281986 30.697573 -16.491120
v 15.109977 24.358516 -4.389115
v 11.835122 24.432811 -2.496779
v 15.625708 56.167788 -0.514326
v 16.015262 56.158950 -0.739425
v 15.109977 24.320864 -0.606297
v 11.835122 24.432811 -2.496779
v 15.109977 24.358516 -4.389115
v 16.015262 56.154471 -0.289448
v 16.015262 56.158950 -0.739425
v 15.625708 56.167788 -0.514326
v 11.835122 24.432811 -2.496779
v 11.835122 24.395160 1.286038
v 15.625708 56.163309 -0.064349
v 15.625708 56.167788 -0.514326
v 15.109977 24.320864 -0.606297
v 11.835122 24.395160 1.286038
v 11.835122 24.432811 -2.496779
v 16.015262 56.154471 -0.289448
v 15.625708 56.167788 -0.514326
v 15.625708 56.163309 -0.064349
v 11.835122 24.395160 1.286038
v 15.109977 24.283213 3.176520
v 16.015262 56.149993 0.160530
v 15.625708 56.163309 -0.064349
v 15.109977 24.320864 -0.606297
v 15.109977 24.283213 3.176520
v 11.835122 24.395160 1.286038
v 16.015262 56.154471 -0.289448
v 15.625708 56.163309 -0.064349
v 16.015262 56.149993 0.160530
v 15.109977 24.283213 3.176520
v 18.384831 24.208918 1.284184
v 16.404815 56.141155 -0.064569
v 16.015262 56.149993 0.160530
v 15.109977 24.320864 -0.606297
v 18.384831 24.208918 1.284184
v 15.109977 24.283213 3.176520
v 16.015262 56.154471 -0.289448
v 16.015262 56.149993 0.160530
v 16.404815 56.141155 -0.064569
v 18.384831 24.208918 1.284184
v 18.384831 24.246569 -2.498633
v 16.404815 56.145634 -0.514547
v 16.404815 56.141155 -0.064569
v 15.109977 24.320864 -0.606297
v 18.384831 24.246569 -2.498633
v 18.384831 24.208918 1.284184
v 16.015262 56.154471 -0.289448
v 16.404815 56.141155 -0.064569
v 16.404815 56.145634 -0.514547
v 18.384831 24.246569 -2.498633
v 15.109977 24.358516 -4.389115
v 16.015262 56.158950 -0.739425
v 16.404815 56.145634 -0.514547
v 15.109977 24.320864 -0.606297
v 15.109977 24.358516 -4.389115
v 18.384831 24.246569 -2.498633
v 16.015262 56.154471 -0.289448
v 16.404815 56.145634 -0.514547
v 16.015262 56.158950 -0.739425
v 11.681477 31.457828 4.881083
v 6.590635 31.770406 9.141003
v 15.022584 61.625642 12.194630
v 15.367316 61.604475 11.906165
v 12.801550 31.161707 11.424709
v 6.590635 31.770406 9.141003
v 11.681477 31.457828 4.881083
v 15.443163 61.584423 12.349273
v 15.367316 61.604475 11.906165
v 15.022584 61.625642 12.194630
v 6.590635 31.770406 9.141003
v 7.710709 31.474285 15.684628
v 15.098431 61.605590 12.637738
v 15.022584 61.625642 12.194630
v 12.801550 31.161707 11.424709
v 7.710709 31.474285 15.684628
v 6.590635 31.770406 9.141003
v 15.443163 61.584423 12.349273
v 15.022584 61.625642 12.194630
v 15.098431 61.605590 12.637738
v 7.710709 31.474285 15.684628
v 13.921623 30.865586 17.968334
v 15.519010 61.564371 12.792382
v 15.098431 61.605590 12.637738
v 12.801550 31.161707 11.424709
v 13.921623 30.865586 17.968334
v 7.710709 31.474285 15.684628
v 15.443163 61.584423 12.349273
v 15.098431 61.605590 12.637738
v 15.519010 61.564371 12.792382
v 13.921623 30.865586 17.968334
v 19.012465 30.553008 13.708415
v 15.863742 61.543205 12.503917
v 15.519010 61.564371 12.792382
v 12.801550 31.161707 11.424709
v 19.012465 30.553008 13.708415
v 13.921623 30.865586 17.968334
v 15.443163 61.584423 12.349273
v 15.519010 61.564371 12.792382
v 15.863742 61.543205 12.503917
v 19.012465 30.553008 13.708415
v 17.892391 30.849129 7.164789
v 15.787895 61.563257 12.060808
v 15.863742 61.543205 12.503917
v 12.801550 31.161707 11.424709
v 17.892391 30.849129 7.164789
v 19.012465 30.553008 13.708415
v 15.443163 61.584423 12.349273
v 15.863742 61.543205 12.503917
v 15.787895 61.563257 12.060808
v 17.892391 30.849129 7.164789
v 11.681477 31.457828 4.881083
v 15.367316 61.604475 11.906165
v 15.787895 61.563257 12.060808
v 12.801550 31.161707 11.424709
v 11.681477 31.457828 4.881083
v 17.892391 30.849129 7.164789
v 15.443163 61.584423 12.349273
v 15.787895 61.563257 12.060808
v 15.367316 61.604475 11.906165
v -5.709432 27.063695 8.383535
v -9.622385 27.300200 12.997523
v -2.015086 47.357570 14.743855
v -1.724253 47.339991 14.400917
v -3.700955 26.651794 14.080234
v -9.622385 27.300200 12.997523
v -5.709432 27.063695 8.383535
v -1.574971 47.309376 14.824329
v -1.724253 47.339991 14.400917
v -2.015086 47.357570 14.743855
v -9.622385 27.300200 12.997523
v -7.613908 26.888300 18.694222
v -1.865805 47.326955 15.167267
v -2.015086 47.357570 14.743855
v -3.700955 26.651794 14.080234
v -7.613908 26.888300 18.694222
v -9.622385 27.300200 12.997523
v -1.574971 47.309376 14.824329
v -2.015086 47.357570 14.743855
v -1.865805 47.326955 15.167267
v -7.613908 26.888300 18.694222
v -1.692479 26.239893 19.776933
v -1.425689 47.278761 15.247741
v -1.865805 47.326955 15.167267
v -3.700955 26.651794 14.080234
v -1.692479 26.239893 19.776933
v -7.613908 26.888300 18.694222
v -1.574971 47.309376 14.824329
v -1.865805 47.326955 15.167267
v -1.425689 47.278761 15.247741
v -1.692479 26.239893 19.776933
v 2.220474 26.003388 15.162945
v -1.134856 47.261183 14.904802
v -1.425689 47.278761 15.247741
v -3.700955 26.651794 14.080234
v 2.220474 26.003388 15.162945
v -1.692479 26.239893 19.776933
v -1.574971 47.309376 14.824329
v -1.425689 47.278761 15.247741
v -1.134856 47.261183 14.904802
v 2.220474 26.003388 15.162945
v 0.211997 26.415289 9.466246
v -1.284138 47.291798 14.481390
v -1.134856 47.261183 14.904802
v -3.700955 26.651794 14.080234
v 0.211997 26.415289 9.466246
v 2.220474 26.003388 15.162945
v -1.574971 47.309376 14.824329
v -1.134856 47.261183 14.904802
v -1.284138 47.291798 14.481390
v 0.211997 26.415289 9.466246
v -5.709432 27.063695 8.383535
v -1.724253 47.339991 14.400917
v -1.284138 47.291798 14.481390
v -3.700955 26.651794 14.080234
v -5.709432 27.063695 8.383535
v 0.211997 26.415289 9.466246
v -1.574971 47.309376 14.824329
v -1.284138 47.291798 14.481390
v -1.724253 47.339991 14.400917
v -15.158715 33.262416 3.875889
v -17.683508 33.370487 8.144817
v -9.528120 67.894539 9.473208
v -9.299095 67.884736 9.085972
v -12.750129 32.851418 8.193272
v -17.683508 33.370487 8.144817
v -15.158715 33.262416 3.875889
v -9.080612 67.847455 9.477603
v -9.299095 67.884736 9.085972
v -9.528120 67.894539 9.473208
v -17.683508 33.370487 8.144817
v -15.274922 32.959489 12.462201
v -9.309637 67.857258 9.864839
v -9.528120 67.894539 9.473208
v -12.750129 32.851418 8.193272
v -15.274922 32.959489 12.462201
v -17.683508 33.370487 8.144817
v -9.080612 67.847455 9.477603
v -9.528120 67.894539 9.473208
v -9.309637 67.857258 9.864839
v -15.274922 32.959489 12.462201
v -10.341543 32.440420 12.510656
v -8.862128 67.810173 9.869235
v -9.309637 67.857258 9.864839
v -12.750129 32.851418 8.193272
v -10.341543 32.440420 12.510656
v -15.274922 32.959489 12.462201
v -9.080612 67.847455 9.477603
v -9.309637 67.857258 9.864839
v -8.862128 67.810173 9.869235
v -10.341543 32.440420 12.510656
v -7.816750 32.332350 8.241728
v -8.633104 67.800370 9.481999
v -8.862128 67.810173 9.869235
v -12.750129 32.851418 8.193272
v -7.816750 32.332350 8.241728
v -10.341543 32.440420 12.510656
v -9.080612 67.847455 9.477603
v -8.862128 67.810173 9.869235
v -8.633104 67.800370 9.481999
v -7.816750 32.332350 8.241728
v -10.225336 32.743347 3.924344
v -8.851587 67.837651 9.090368
v -8.633104 67.800370 9.481999
v -12.750129 32.851418 8.193272
v -10.225336 32.743347 3.924344
v -7.816750 32.332350 8.241728
v -9.080612 67.847455 9.477603
v -8.633104 67.800370 9.481999
v -8.851587 67.837651 9.090368
v -10.225336 32.743347 3.924344
v -15.158715 33.262416 3.875889
v -9.299095 67.884736 9.085972
v -8.851587 67.837651 9.090368
v -12.750129 32.851418 8.193272
v -15.158715 33.262416 3.875889
v -10.225336 32.743347 3.924344
v -9.080612 67.847455 9.477603
v -8.851587 67.837651 9.090368
v -9.299095 67.884736 9.085972
v -25.620083 28.451917 -15.732653
v -27.301749 28.456336 -11.358477
v -22.243559 58.197012 -11.713179
v -22.082078 58.196587 -12.133207
v -22.674634 28.328174 -12.089790
v -27.301749 28.456336 -11.358477
v -25.620083 28.451917 -15.732653
v -21.799243 58.184705 -11.783403
v -22.082078 58.196587 -12.133207
v -22.243559 58.197012 -11.713179
v -27.301749 28.456336 -11.358477
v -24.356300 28.332592 -7.715613
v -21.960724 58.185129 -11.363374
v -22.243559 58.197012 -11.713179
v -22.674634 28.328174 -12.089790
v -24.356300 28.332592 -7.715613
v -27.301749 28.456336 -11.358477
v -21.799243 58.184705 -11.783403
v -22.243559 58.197012 -11.713179
v -21.960724 58.185129 -11.363374
v -24.356300 28.332592 -7.715613
v -19.729185 28.204430 -8.446926
v -21.516407 58.172823 -11.433598
v -21.960724 58.185129 -11.363374
v -22.674634 28.328174 -12.089790
v -19.729185 28.204430 -8.446926
v -24.356300 28.332592 -7.715613
v -21.799243 58.184705 -11.783403
v -21.960724 58.185129 -11.363374
v -21.516407 58.172823 -11.433598
v -19.729185 28.204430 -8.446926
v -18.047519 28.200012 -12.821102
v -21.354926 58.172398 -11.853627
v -21.516407 58.172823 -11.433598
v -22.674634 28.328174 -12.089790
v -18.047519 28.200012 -12.821102
v -19.729185 28.204430 -8.446926
v -21.799243 58.184705 -11.783403
v -21.516407 58.172823 -11.433598
v -21.354926 58.172398 -11.853627
v -18.047519 28.200012 -12.821102
v -20.992968 28.323755 -16.463966
v -21.637761 58.184281 -12.203431
v -21.354926 58.172398 -11.853627
v -22.674634 28.328174 -12.089790
v -20.992968 28.323755 -16.463966
v -18.047519 28.200012 -12.821102
v -21.799243 58.184705 -11.783403
v -21.354926 58.172398 -11.853627
v -21.637761 58.184281 -12.203431
v -20.992968 28.323755 -16.463966
v -25.620083 28.451917 -15.732653
v -22.082078 58.196587 -12.133207
v -21.637761 58.184281 -12.203431
v -22.674634 28.328174 -12.089790
v -25.620083 28.451917 -15.732653
v -20.992968 28.323755 -16.463966
v -21.799243 58.184705 -11.783403
v -21.637761 58.184281 -12.203431
v -22.082078 58.196587 -12.133207
v -5.561071 30.689145 -11.740233
v -6.581494 30.666837 -6.630671
v -1.484301 50.859545 -7.951840
v -1.396174 50.861472 -8.393122
v -1.648170 30.540529 -8.302720
v -6.581494 30.666837 -6.630671
v -5.561071 30.689145 -11.740233
v -1.058240 50.848637 -8.096244
v -1.396174 50.861472 -8.393122
v -1.484301 50.859545 -7.951840
v -6.581494 30.666837 -6.630671
v -2.668592 30.518222 -3.193158
v -1.146368 50.846710 -7.654962
v -1.484301 50.859545 -7.951840
v -1.648170 30.540529 -8.302720
v -2.668592 30.518222 -3.193158
v -6.581494 30.666837 -6.630671
v -1.058240 50.848637 -8.096244
v -1.484301 50.859545 -7.951840
v -1.146368 50.846710 -7.654962
v -2.668592 30.518222 -3.193158
v 2.264732 30.391914 -4.865206
v -0.720306 50.835802 -7.799367
v -1.146368 50.846710 -7.654962
v -1.648170 30.540529 -8.302720
v 2.264732 30.391914 -4.865206
v -2.668592 30.518222 -3.193158
v -1.058240 50.848637 -8.096244
v -1.146368 50.846710 -7.654962
v -0.720306 50.835802 -7.799367
v 2.264732 30.391914 -4.865206
v 3.285154 30.414221 -9.974768
v -0.632179 50.837729 -8.240649
v -0.720306 50.835802 -7.799367
v -1.648170 30.540529 -8.302720
v 3.285154 30.414221 -9.974768
v 2.264732 30.391914 -4.865206
v -1.058240 50.848637 -8.096244
v -0.720306 50.835802 -7.799367
v -0.632179 50.837729 -8.240649
v 3.285154 30.414221 -9.974768
v -0.627747 30.562837 -13.412282
v -0.970112 50.850564 -8.537526
v -0.632179 50.837729 -8.240649
v -1.648170 30.540529 -8.302720
v -0.627747 30.562837 -13.412282
v 3.285154 30.414221 -9.974768
v -1.058240 50.848637 -8.096244
v -0.632179 50.837729 -8.240649
v -0.970112 50.850564 -8.537526
v -0.627747 30.562837 -13.412282
v -5.561071 30.689145 -11.740233
v -1.396174 50.861472 -8.393122
v -0.970112 50.850564 -8.537526
v -1.648170 30.540529 -8.302720
v -5.561071 30.689145 -11.740233
v -0.627747 30.562837 -13.412282
v -1.058240 50.848637 -8.096244
v -0.970112 50.850564 -8.537526
v -1.396174 50.861472 -8.393122
v 2.862903 31.829573 -17.512253
v 2.700110 31.698626 -11.515905
v 9.392942 58.395892 -13.527874
v 9.405152 58.405713 -13.977601
v 7.963891 31.410415 -14.381108
v 2.700110 31.698626 -11.515905
v 2.862903 31.829573 -17.512253
v 9.787727 58.374276 -13.742765
v 9.405152 58.405713 -13.977601
v 9.392942 58.395892 -13.527874
v 2.700110 31.698626 -11.515905
v 7.801098 31.279469 -8.384759
v 9.775517 58.364455 -13.293038
v 9.392942 58.395892 -13.527874
v 7.963891 31.410415 -14.381108
v 7.801098 31.279469 -8.384759
v 2.700110 31.698626 -11.515905
v 9.787727 58.374276 -13.742765
v 9.392942 58.395892 -13.527874
v 9.775517 58.364455 -13.293038
v 7.801098 31.279469 -8.384759
v 13.064879 30.991257 -11.249962
v 10.170302 58.342839 -13.507929
v 9.775517 58.364455 -13.293038
v 7.963891 31.410415 -14.381108
v 13.064879 30.991257 -11.249962
v 7.801098 31.279469 -8.384759
v 9.787727 58.374276 -13.742765
v 9.775517 58.364455 -13.293038
v 10.170302 58.342839 -13.507929
v 13.064879 30.991257 -11.249962
v 13.227672 31.122203 -17.246311
v 10.182511 58.352660 -13.957656
v 10.170302 58.342839 -13.507929
v 7.963891 31.410415 -14.381108
v 13.227672 31.122203 -17.246311
v 13.064879 30.991257 -11.249962
v 9.787727 58.374276 -13.742765
v 10.170302 58.342839 -13.507929
v 10.182511 58.352660 -13.957656
v 13.227672 31.122203 -17.246311
v 8.126684 31.541361 -20.377456
v 9.799936 58.384097 -14.192492
v 10.182511 58.352660 -13.957656
v 7.963891 31.410415 -14.381108
v 8.126684 31.541361 -20.377456
v 13.227672 31.122203 -17.246311
v 9.787727 58.374276 -13.742765
v 10.182511 58.352660 -13.957656
v 9.799936 58.384097 -14.192492
v 8.126684 31.541361 -20.377456
v 2.862903 31.829573 -17.512253
v 9.405152 58.405713 -13.977601
v 9.799936 58.384097 -14.192492
v 7.963891 31.410415 -14.381108
v 2.862903 31.829573 -17.512253
v 8.126684 31.541361 -20.377456
v 9.787727 58.374276 -13.742765
v 9.799936 58.384097 -14.192492
v 9.405152 58.405713 -13.977601
vt 0.500000 1.000000
vt 0.000000 0.000000
vt 1.000000 0.000000
vt 0.000000 0.000000
vt 1.000000 0.000000
vt 1.000000 1.000000
vt 0.000000 1.000000
vt 0.000000 0.000000
vt 1.000000 0.000000
vt 1.000000 1.000000
vt 0.000000 1.000000
vt 0.500000 1.000000
vt 0.000000 0.000000
vt 1.000000 0.000000
vt 0.500000 1.000000
vt 0.000000 0.000000
vt 1.000000 0.000000
vt 0.000000 0.000000
vt 1.000000 0.000000
vt 1.000000 1.000000
vt 0.000000 1.000000
vt 0.000000 0.000000
vt 1.000000 0.000000
vt 1.000000 1.000000
vt 0.000000 1.000000
vt 0.500000 1.000000
vt 0.000000 0.000000
vt 1.000000 0.000000
vt 0.500000 1.000000
vt 0.000000 0.000000
vt 1.000000 0.000000
vt 0.000000 0.000000
vt 1.000000 0.000000
vt 1.000000 1.000000
vt 0.000000 1.000000
vt 0.000000 0.000000
vt 1.000000 0.000000
vt 1.000000 1.000000
vt 0.000000 1.000000
vt 0.500000 1.000000
vt 0.000000 0.000000
vt 1.000000 0.000000
vt 0.500000 1.000000
vt 0.000000 0.000000
vt 1.000000 0.000000
vt 0.000000 0.000000
vt 1.000000 0.000000
vt 1.000000 1.000000
vt 0.000000 1.000000
vt 0.000000 0.000000
vt 1.000000 0.000000
vt 1.000000 1.000000
vt 0.000000 1.000000
vt 0.500000 1.000000
vt 0.000000 0.000000
vt 1.000000 0.000000
vt 0.500000 1.000000
vt 0.000000 0.000000
vt 1.000000 0.000000
vt 0.000000 0.000000
vt 1.000000 0.000000
vt 1.000000 1.000000
vt 0.000000 1.000000
vt 0.000000 0.000000
vt 1.000000 0.000000
vt 1.000000 1.000000
vt 0.000000 1.000000
vt 0.500000 1.000000
vt 0.000000 0.000000
vt 1.000000 0.000000
vt 0.500000 1.000000
vt 0.000000 0.000000
vt 1.000000 0.000000
vt 0.000000 0.000000
vt 1.000000 0.000000
vt 1.000000 1.000000
vt 0.000000 1.000000
vt 0.000000 0.000000
vt 1.000000 0.000000
vt 1.000000 1.000000
vt 0.000000 1.000000
vt 0.500000 1.000000
vt 0.000000 0.000000
vt 1.000000 0.000000
vt 0.500000 1.000000
vt 0.000000 0.000000
vt 1.000000 0.000000
vt 0.000000 0.000000
vt 1.000000 0.000000
vt 1.000000 1.000000
vt 0.000000 1.000000
vt 0.000000 0.000000
vt 1.000000 0.000000
vt 1.000000 1.000000
vt 0.000000 1.000000
vt 0.500000 1.000000
vt 0.000000 0.000000
vt 1.000000 0.000000
vt 0.500000 1.000000
vt 0.000000 0.000000
vt 1.000000 0.000000
vt 0.000000 0.000000
vt 1.000000 0.000000
vt 1.000000 1.000000
vt 0.000000 1.000000
vt 0.000000 0.000000
vt 1.000000 0.000000
vt 1.000000 1.000000
vt 0.000000 1.000000
vt 0.500000 1.000000
vt 0.000000 0.000000
vt 1.000000 0.000000
vt 0.500000 1.000000
vt 0.000000 0.000000
vt 1.000000 0.000000
vt 0.000000 0.000000
vt 1.000000 0.000000
vt 1.000000 1.000000
vt 0.000000 1.000000
vt 0.000000 0.000000
vt 1.000000 0.000000
vt 1.000000 1.000000
vt 0.000000 1.000000
vt 0.500000 1.000000
vt 0.000000 0.000000
vt 1.000000 0.000000
vt 0.500000 1.000000
vt 0.000000 0.000000
vt 1.000000 0.000000
vt 0.000000 0.000000
vt 1.000000 0.000000
vt 1.000000 1.000000
vt 0.000000 1.000000
vt 0.000000 0.000000
vt 1.000000 0.000000
vt 1.000000 1.000000
vt 0.000000 1.000000
vt 0.500000 1.000000
vt 0.000000 0.000000
vt 1.000000 0.000000
vt 0.000000 0.000000
vt 1.000000 0.000000
vt 1.000000 1.000000
vt 0.000000 1.000000
vt 0.500000 1.000000
vt 0.000000 0.000000
vt 1.000000 0.000000
vt 0.500000 1.000000
vt 0.000000 0.000000
vt 1.000000 0.000000
vt 0.000000 0.000000
vt 1.000000 0.000000
vt 1.000000 1.000000
vt 0.000000 1.000000
vt 0.500000 1.000000
vt 0.000000 0.000000
vt 1.000000 0.000000
vt 0.500000 1.000000
vt 0.000000 0.000000
vt 1.000000 0.000000
vt 0.000000 0.000000
vt 1.000000 0.000000
vt 1.000000 1.000000
vt 0.000000 1.000000
vt 0.500000 1.000000
vt 0.000000 0.000000
vt 1.000000 0.000000
vt 0.500000 1.000000
vt 0.000000 0.000000
vt 1.000000 0.000000
vt 0.000000 0.000000
vt 1.000000 0.000000
vt 1.000000 1.000000
vt 0.000000 1.000000
vt 0.500000 1.000000
vt 0.000000 0.000000
vt 1.000000 0.000000
vt 0.500000 1.000000
vt 0.000000 0.000000
vt 1.000000 0.000000
vt 0.000000 0.000000
vt 1.000000 0.000000
vt 1.000000 1.000000
vt 0.000000 1.000000
vt 0.500000 1.000000
vt 0.000000 0.000000
vt 1.000000 0.000000
vt 0.500000 1.000000
vt 0.000000 0.000000
vt 1.000000 0.000000
vt 0.000000 0.000000
vt 1.000000 0.000000
vt 1.000000 1.000000
vt 0.000000 1.000000
vt 0.500000 1.000000
vt 0.000000 0.000000
vt 1.000000 0.000000
vt 0.500000 1.000000
vt 0.000000 0.000000
vt 1.000000 0.000000
vt 0.000000 0.000000
vt 1.000000 0.000000
vt 1.000000 1.000000
vt 0.000000 1.000000
vt 0.500000 1.000000
vt 0.000000 0.000000
vt 1.000000 0.000000
vt 0.500000 1.000000
vt 0.000000 0.000000
vt 1.000000 0.000000
vt 0.000000 0.000000
vt 1.000000 0.000000
vt 1.000000 1.000000
vt 0.000000 1.000000
vt 0.500000 1.000000
vt 0.000000 0.000000
vt 1.000000 0.000000
vt 0.500000 1.000000
vt 0.000000 0.000000
vt 1.000000 0.000000
vt 0.000000 0.000000
vt 1.000000 0.000000
vt 1.000000 1.000000
vt 0.000000 1.000000
vt 0.500000 1.000000
vt 0.000000 0.000000
vt 1.000000 0.000000
vt 0.500000 1.000000
vt 0.000000 0.000000
vt 1.000000 0.000000
vt 0.000000 0.000000
vt 1.000000 0.000000
vt 1.000000 1.000000
vt 0.000000 1.000000
vt 0.500000 1.000000
vt 0.000000 0.000000
vt 1.000000 0.000000
vt 0.500000 1.000000
vt 0.000000 0.000000
vt 1.000000 0.000000
vt 0.000000 0.000000
vt 1.000000 0.000000
vt 1.000000 1.000000
vt 0.000000 1.000000
vt 0.500000 1.000000
vt 0.000000 0.000000
vt 1.000000 0.000000
vt 0.500000 1.000000
vt 0.000000 0.000000
vt 1.000000 0.000000
vt 0.000000 0.000000
vt 1.000000 0.000000
vt 1.000000 1.000000
vt 0.000000 1.000000
vt 0.500000 1.000000
vt 0.000000 0.000000
vt 1.000000 0.000000
vt 0.500000 1.000000
vt 0.000000 0.000000
vt 1.000000 0.000000
vt 0.000000 0.000000
vt 1.000000 0.000000
vt 1.000000 1.000000
vt 0.000000 1.000000
vt 0.500000 1.000000
vt 0.000000 0.000000
vt 1.000000 0.000000
vt 0.500000 1.000000
vt 0.000000 0.000000
vt 1.000000 0.000000
vt 0.000000 0.000000
vt 1.000000 0.000000
vt 1.000000 1.000000
vt 0.000000 1.000000
vt 0.500000 1.000000
vt 0.000000 0.000000
vt 1.000000 0.000000
vt 0.500000 1.000000
vt 0.000000 0.000000
vt 1.000000 0.000000
vt 0.000000 0.000000
vt 1.000000 0.000000
vt 1.000000 1.000000
vt 0.000000 1.000000
vt 0.500000 1.000000
vt 0.000000 0.000000
vt 1.000000 0.000000
vt 0.500000 1.000000
vt 0.000000 0.000000
vt 1.000000 0.000000
vt 0.000000 0.000000
vt 1.000000 0.000000
vt 1.000000 1.000000
vt 0.000000 1.000000
vt 0.500000 1.000000
vt 0.000000 0.000000
vt 1.000000 0.000000
vt 0.500000 1.000000
vt 0.000000 0.000000
vt 1.000000 0.000000
vt 0.000000 0.000000
vt 1.000000 0.000000
vt 1.000000 1.000000
vt 0.000000 1.000000
vt 0.500000 1.000000
vt 0.000000 0.000000
vt 1.000000 0.000000
vt 0.500000 1.000000
vt 0.000000 0.000000
vt 1.000000 0.000000
vt 0.000000 0.000000
vt 1.000000 0.000000
vt 1.000000 1.000000
vt 0.000000 1.000000
vt 0.500000 1.000000
vt 0.000000 0.000000
vt 1.000000 0.000000
vt 0.500000 1.000000
vt 0.000000 0.000000
vt 1.000000 0.000000
vt 0.000000 0.000000
vt 1.000000 0.000000
vt 1.000000 1.000000
vt 0.000000 1.000000
vt 0.500000 1.000000
vt 0.000000 0.000000
vt 1.000000 0.000000
vt 0.500000 1.000000
vt 0.000000 0.000000
vt 1.000000 0.000000
vt 0.000000 0.000000
vt 1.000000 0.000000
vt 1.000000 1.000000
vt 0.000000 1.000000
vt 0.500000 1.000000
vt 0.000000 0.000000
vt 1.000000 0.000000
vt 0.500000 1.000000
vt 0.000000 0.000000
vt 1.000000 0.000000
vt 0.000000 0.000000
vt 1.000000 0.000000
vt 1.000000 1.000000
vt 0.000000 1.000000
vt 0.500000 1.000000
vt 0.000000 0.000000
vt 1.000000 0.000000
vt 0.500000 1.000000
vt 0.000000 0.000000
vt 1.000000 0.000000
vt 0.000000 0.000000
vt 1.000000 0.000000
vt 1.000000 1.000000
vt 0.000000 1.000000
vt 0.500000 1.000000
vt 0.000000 0.000000
vt 1.000000 0.000000
vt 0.500000 1.000000
vt 0.000000 0.000000
vt 1.000000 0.000000
vt 0.000000 0.000000
vt 1.000000 0.000000
vt 1.000000 1.000000
vt 0.000000 1.000000
vt 0.500000 1.000000
vt 0.000000 0.000000
vt 1.000000 0.000000
vt 0.500000 1.000000
vt 0.000000 0.000000
vt 1.000000 0.000000
vt 0.000000 0.000000
vt 1.000000 0.000000
vt 1.000000 1.000000
vt 0.000000 1.000000
vt 0.500000 1.000000
vt 0.000000 0.000000
vt 1.000000 0.000000
vt 0.500000 1.000000
vt 0.000000 0.000000
vt 1.000000 0.000000
vt 0.000000 0.000000
vt 1.000000 0.000000
vt 1.000000 1.000000
vt 0.000000 1.000000
vt 0.500000 1.000000
vt 0.000000 0.000000
vt 1.000000 0.000000
vt 0.500000 1.000000
vt 0.000000 0.000000
vt 1.000000 0.000000
vt 0.000000 0.000000
vt 1.000000 0.000000
vt 1.000000 1.000000
vt 0.000000 1.000000
vt 0.500000 1.000000
vt 0.000000 0.000000
vt 1.000000 0.000000
vt 0.500000 1.000000
vt 0.000000 0.000000
vt 1.000000 0.000000
vt 0.000000 0.000000
vt 1.000000 0.000000
vt 1.000000 1.000000
vt 0.000000 1.000000
vt 0.500000 1.000000
vt 0.000000 0.000000
vt 1.000000 0.000000
vt 0.500000 1.000000
vt 0.000000 0.000000
vt 1.000000 0.000000
vt 0.000000 0.000000
vt 1.000000 0.000000
vt 1.000000 1.000000
vt 0.000000 1.000000
vt 0.500000 1.000000
vt 0.000000 0.000000
vt 1.000000 0.000000
vt 0.500000 1.000000
vt 0.000000 0.000000
vt 1.000000 0.000000
vt 0.000000 0.000000
vt 1.000000 0.000000
vt 1.000000 1.000000
vt 0.000000 1.000000
vt 0.500000 1.000000
vt 0.000000 0.000000
vt 1.000000 0.000000
vt 0.500000 1.000000
vt 0.000000 0.000000
vt 1.000000 0.000000
vt 0.000000 0.000000
vt 1.000000 0.000000
vt 1.000000 1.000000
vt 0.000000 1.000000
vt 0.500000 1.000000
vt 0.000000 0.000000
vt 1.000000 0.000000
vt 0.500000 1.000000
vt 0.000000 0.000000
vt 1.000000 0.000000
vt 0.000000 0.000000
vt 1.000000 0.000000
vt 1.000000 1.000000
vt 0.000000 1.000000
vt 0.500000 1.000000
vt 0.000000 0.000000
vt 1.000000 0.000000
vt 0.500000 1.000000
vt 0.000000 0.000000
vt 1.000000 0.000000
vt 0.000000 0.000000
vt 1.000000 0.000000
vt 1.000000 1.000000
vt 0.000000 1.000000
vt 0.500000 1.000000
vt 0.000000 0.000000
vt 1.000000 0.000000
vt 0.500000 1.000000
vt 0.000000 0.000000
vt 1.000000 0.000000
vt 0.000000 0.000000
vt 1.000000 0.000000
vt 1.000000 1.000000
vt 0.000000 1.000000
vt 0.500000 1.000000
vt 0.000000 0.000000
vt 1.000000 0.000000
vt 0.500000 1.000000
vt 0.000000 0.000000
vt 1.000000 0.000000
vt 0.000000 0.000000
vt 1.000000 0.000000
vt 1.000000 1.000000
vt 0.000000 1.000000
vt 0.500000 1.000000
vt 0.000000 0.000000
vt 1.000000 0.000000
vt 0.500000 1.000000
vt 0.000000 0.000000
vt 1.000000 0.000000
vt 0.000000 0.000000
vt 1.000000 0.000000
vt 1.000000 1.000000
vt 0.000000 1.000000
vt 0.500000 1.000000
vt 0.000000 0.000000
vt 1.000000 0.000000
vt 0.500000 1.000000
vt 0.000000 0.000000
vt 1.000000 0.000000
vt 0.000000 0.000000
vt 1.000000 0.000000
vt 1.000000 1.000000
vt 0.000000 1.000000
vt 0.500000 1.000000
vt 0.000000 0.000000
vt 1.000000 0.000000
vt 0.500000 1.000000
vt 0.000000 0.000000
vt 1.000000 0.000000
vt 0.000000 0.000000
vt 1.000000 0.000000
vt 1.000000 1.000000
vt 0.000000 1.000000
vt 0.500000 1.000000
vt 0.000000 0.000000
vt 1.000000 0.000000
vt 0.500000 1.000000
vt 0.000000 0.000000
vt 1.000000 0.000000
vt 0.000000 0.000000
vt 1.000000 0.000000
vt 1.000000 1.000000
vt 0.000000 1.000000
vt 0.500000 1.000000
vt 0.000000 0.000000
vt 1.000000 0.000000
vt 0.500000 1.000000
vt 0.000000 0.000000
vt 1.000000 0.000000
vt 0.000000 0.000000
vt 1.000000 0.000000
vt 1.000000 1.000000
vt 0.000000 1.000000
vt 0.500000 1.000000
vt 0.000000 0.000000
vt 1.000000 0.000000
vt 0.500000 1.000000
vt 0.000000 0.000000
vt 1.000000 0.000000
vt 0.000000 0.000000
vt 1.000000 0.000000
vt 1.000000 1.000000
vt 0.000000 1.000000
vt 0.500000 1.000000
vt 0.000000 0.000000
vt 1.000000 0.000000
vt 0.500000 1.000000
vt 0.000000 0.000000
vt 1.000000 0.000000
vt 0.000000 0.000000
vt 1.000000 0.000000
vt 1.000000 1.000000
vt 0.000000 1.000000
vt 0.500000 1.000000
vt 0.000000 0.000000
vt 1.000000 0.000000
vt 0.500000 1.000000
vt 0.000000 0.000000
vt 1.000000 0.000000
vt 0.000000 0.000000
vt 1.000000 0.000000
vt 1.000000 1.000000
vt 0.000000 1.000000
vt 0.500000 1.000000
vt 0.000000 0.000000
vt 1.000000 0.000000
vt 0.500000 1.000000
vt 0.000000 0.000000
vt 1.000000 0.000000
s 1
usemtl models/caelum/world/environment/rock_granite.png
f 1/1 2/2 3/3
f 4/4 5/5 6/6 7/7
f 8/8 9/9 10/10 11/11
f 12/12 13/13 14/14
f 15/15 16/16 17/17
f 18/18 19/19 20/20 21/21
f 22/22 23/23 24/24 25/25
f 26/26 27/27 28/28
f 29/29 30/30 31/31
f 32/32 33/33 34/34 35/35
f 36/36 37/37 38/38 39/39
f 40/40 41/41 42/42
f 43/43 44/44 45/45
f 46/46 47/47 48/48 49/49
f 50/50 51/51 52/52 53/53
f 54/54 55/55 56/56
f 57/57 58/58 59/59
f 60/60 61/61 62/62 63/63
f 64/64 65/65 66/66 67/67
f 68/68 69/69 70/70
f 71/71 72/72 73/73
f 74/74 75/75 76/76 77/77
f 78/78 79/79 80/80 81/81
f 82/82 83/83 84/84
f 85/85 86/86 87/87
f 88/88 89/89 90/90 91/91
f 92/92 93/93 94/94 95/95
f 96/96 97/97 98/98
f 99/99 100/100 101/101
f 102/102 103/103 104/104 105/105
f 106/106 107/107 108/108 109/109
f 110/110 111/111 112/112
f 113/113 114/114 115/115
f 116/116 117/117 118/118 119/119
f 120/120 121/121 122/122 123/123
f 124/124 125/125 126/126
f 127/127 128/128 129/129
f 130/130 131/131 132/132 133/133
f 134/134 135/135 136/136 137/137
f 138/138 139/139 140/140
usemtl models/caelum/world/resources/ca_vein_emerald.png
f 141/141 142/142 143/143 144/144
f 145/145 146/146 147/147
f 148/148 149/149 150/150
f 151/151 152/152 153/153 154/154
f 155/155 156/156 157/157
f 158/158 159/159 160/160
f 161/161 162/162 163/163 164/164
f 165/165 166/166 167/167
f 168/168 169/169 170/170
f 171/171 172/172 173/173 174/174
f 175/175 176/176 177/177
f 178/178 179/179 180/180
f 181/181 182/182 183/183 184/184
f 185/185 186/186 187/187
f 188/188 189/189 190/190
f 191/191 192/192 193/193 194/194
f 195/195 196/196 197/197
f 198/198 199/199 200/200
f 201/201 202/202 203/203 204/204
f 205/205 206/206 207/207
f 208/208 209/209 210/210
f 211/211 212/212 213/213 214/214
f 215/215 216/216 217/217
f 218/218 219/219 220/220
f 221/221 222/222 223/223 224/224
f 225/225 226/226 227/227
f 228/228 229/229 230/230
f 231/231 232/232 233/233 234/234
f 235/235 236/236 237/237
f 238/238 239/239 240/240
f 241/241 242/242 243/243 244/244
f 245/245 246/246 247/247
f 248/248 249/249 250/250
f 251/251 252/252 253/253 254/254
f 255/255 256/256 257/257
f 258/258 259/259 260/260
f 261/261 262/262 263/263 264/264
f 265/265 266/266 267/267
f 268/268 269/269 270/270
f 271/271 272/272 273/273 274/274
f 275/275 276/276 277/277
f 278/278 279/279 280/280
f 281/281 282/282 283/283 284/284
f 285/285 286/286 287/287
f 288/288 289/289 290/290
f 291/291 292/292 293/293 294/294
f 295/295 296/296 297/297
f 298/298 299/299 300/300
f 301/301 302/302 303/303 304/304
f 305/305 306/306 307/307
f 308/308 309/309 310/310
f 311/311 312/312 313/313 314/314
f 315/315 316/316 317/317
f 318/318 319/319 320/320
f 321/321 322/322 323/323 324/324
f 325/325 326/326 327/327
f 328/328 329/329 330/330
f 331/331 332/332 333/333 334/334
f 335/335 336/336 337/337
f 338/338 339/339 340/340
f 341/341 342/342 343/343 344/344
f 345/345 346/346 347/347
f 348/348 349/349 350/350
f 351/351 352/352 353/353 354/354
f 355/355 356/356 357/357
f 358/358 359/359 360/360
f 361/361 362/362 363/363 364/364
f 365/365 366/366 367/367
f 368/368 369/369 370/370
f 371/371 372/372 373/373 374/374
f 375/375 376/376 377/377
f 378/378 379/379 380/380
f 381/381 382/382 383/383 384/384
f 385/385 386/386 387/387
f 388/388 389/389 390/390
f 391/391 392/392 393/393 394/394
f 395/395 396/396 397/397
f 398/398 399/399 400/400
f 401/401 402/402 403/403 404/404
f 405/405 406/406 407/407
f 408/408 409/409 410/410
f 411/411 412/412 413/413 414/414
f 415/415 416/416 417/417
f 418/418 419/419 420/420
f 421/421 422/422 423/423 424/424
f 425/425 426/426 427/427
f 428/428 429/429 430/430
f 431/431 432/432 433/433 434/434
f 435/435 436/436 437/437
f 438/438 439/439 440/440
f 441/441 442/442 443/443 444/444
f 445/445 446/446 447/447
f 448/448 449/449 450/450
f 451/451 452/452 453/453 454/454
f 455/455 456/456 457/457
f 458/458 459/459 460/460
f 461/461 462/462 463/463 464/464
f 465/465 466/466 467/467
f 468/468 469/469 470/470
f 471/471 472/472 473/473 474/474
f 475/475 476/476 477/477
f 478/478 479/479 480/480
f 481/481 482/482 483/483 484/484
f 485/485 486/486 487/487
f 488/488 489/489 490/490
f 491/491 492/492 493/493 494/494
f 495/495 496/496 497/497
f 498/498 499/499 500/500
f 501/501 502/502 503/503 504/504
f 505/505 506/506 507/507
f 508/508 509/509 510/510
f 511/511 512/512 513/513 514/514
f 515/515 516/516 517/517
f 518/518 519/519 520/520
f 521/521 522/522 523/523 524/524
f 525/525 526/526 527/527
f 528/528 529/529 530/530
f 531/531 532/532 533/533 534/534
f 535/535 536/536 537/537
f 538/538 539/539 540/540
f 541/541 542/542 543/543 544/544
f 545/545 546/546 547/547
f 548/548 549/549 550/550
f 551/551 552/552 553/553 554/554
f 555/555 556/556 557/557
f 558/558 559/559 560/560
