# Modelo original generado para Caelum Argenteum.
# Ejes OBJ: X ancho, Y altura, Z profundidad.
o ca_vein_ruby2
v 0.000000 0.000000 0.000000
v 41.776165 1.364837 0.000000
v 25.267260 -0.389971 15.854411
v 41.776165 1.364837 0.000000
v 44.338769 16.118766 0.000000
v 30.196529 16.182916 18.947372
v 25.267260 -0.389971 15.854411
v 44.338769 16.118766 0.000000
v 33.304076 30.598277 0.000000
v 28.387714 31.273540 17.812398
v 30.196529 16.182916 18.947372
v 4.873720 47.000000 -7.506718
v 28.387714 31.273540 17.812398
v 33.304076 30.598277 0.000000
v 0.000000 0.000000 0.000000
v 25.267260 -0.389971 15.854411
v 13.276427 -0.003105 35.288736
v 25.267260 -0.389971 15.854411
v 30.196529 16.182916 18.947372
v 12.250781 15.372404 32.562568
v 13.276427 -0.003105 35.288736
v 30.196529 16.182916 18.947372
v 28.387714 31.273540 17.812398
v 11.332646 31.061306 30.122166
v 12.250781 15.372404 32.562568
v 4.873720 47.000000 -7.506718
v 11.332646 31.061306 30.122166
v 28.387714 31.273540 17.812398
v 0.000000 0.000000 0.000000
v 13.276427 -0.003105 35.288736
v -9.598096 -0.706208 25.511733
v 13.276427 -0.003105 35.288736
v 12.250781 15.372404 32.562568
v -15.724972 14.532766 41.796967
v -9.598096 -0.706208 25.511733
v 12.250781 15.372404 32.562568
v 11.332646 31.061306 30.122166
v -8.689045 33.389619 23.095478
v -15.724972 14.532766 41.796967
v 4.873720 47.000000 -7.506718
v -8.689045 33.389619 23.095478
v 11.332646 31.061306 30.122166
v 0.000000 0.000000 0.000000
v -9.598096 -0.706208 25.511733
v -34.278669 1.626917 21.508787
v -9.598096 -0.706208 25.511733
v -15.724972 14.532766 41.796967
v -29.959888 16.275960 18.798887
v -34.278669 1.626917 21.508787
v -15.724972 14.532766 41.796967
v -8.689045 33.389619 23.095478
v -29.716187 31.540045 18.645973
v -29.959888 16.275960 18.798887
v 4.873720 47.000000 -7.506718
v -29.716187 31.540045 18.645973
v -8.689045 33.389619 23.095478
v 0.000000 0.000000 0.000000
v -34.278669 1.626917 21.508787
v -41.377915 0.807567 0.000000
v -34.278669 1.626917 21.508787
v -29.959888 16.275960 18.798887
v -38.349198 13.876905 0.000000
v -41.377915 0.807567 0.000000
v -29.959888 16.275960 18.798887
v -29.716187 31.540045 18.645973
v -28.522787 33.567483 0.000000
v -38.349198 13.876905 0.000000
v 4.873720 47.000000 -7.506718
v -28.522787 33.567483 0.000000
v -29.716187 31.540045 18.645973
v 0.000000 0.000000 0.000000
v -41.377915 0.807567 0.000000
v -29.229668 0.220193 -18.340698
v -41.377915 0.807567 0.000000
v -38.349198 13.876905 0.000000
v -34.248013 16.602386 -21.489551
v -29.229668 0.220193 -18.340698
v -38.349198 13.876905 0.000000
v -28.522787 33.567483 0.000000
v -23.996158 33.297472 -15.056835
v -34.248013 16.602386 -21.489551
v 4.873720 47.000000 -7.506718
v -23.996158 33.297472 -15.056835
v -28.522787 33.567483 0.000000
v 0.000000 0.000000 0.000000
v -29.229668 0.220193 -18.340698
v -11.658744 -0.453632 -30.988935
v -29.229668 0.220193 -18.340698
v -34.248013 16.602386 -21.489551
v -11.366533 13.691875 -30.212237
v -11.658744 -0.453632 -30.988935
v -34.248013 16.602386 -21.489551
v -23.996158 33.297472 -15.056835
v -10.161629 30.565144 -27.009603
v -11.366533 13.691875 -30.212237
v 4.873720 47.000000 -7.506718
v -10.161629 30.565144 -27.009603
v -23.996158 33.297472 -15.056835
v 0.000000 0.000000 0.000000
v -11.658744 -0.453632 -30.988935
v 10.580594 -0.870059 -28.123213
v -11.658744 -0.453632 -30.988935
v -11.366533 13.691875 -30.212237
v 13.034687 14.695029 -34.646189
v 10.580594 -0.870059 -28.123213
v -11.366533 13.691875 -30.212237
v -10.161629 30.565144 -27.009603
v 9.225177 33.546454 -24.520516
v 13.034687 14.695029 -34.646189
v 4.873720 47.000000 -7.506718
v 9.225177 33.546454 -24.520516
v -10.161629 30.565144 -27.009603
v 0.000000 0.000000 0.000000
v 10.580594 -0.870059 -28.123213
v 33.101718 -0.184327 -20.770287
v 10.580594 -0.870059 -28.123213
v 13.034687 14.695029 -34.646189
v 39.349085 15.497780 -24.690313
v 33.101718 -0.184327 -20.770287
v 13.034687 14.695029 -34.646189
v 9.225177 33.546454 -24.520516
v 24.219666 31.201688 -15.197078
v 39.349085 15.497780 -24.690313
v 4.873720 47.000000 -7.506718
v 24.219666 31.201688 -15.197078
v 9.225177 33.546454 -24.520516
v 0.000000 0.000000 0.000000
v 33.101718 -0.184327 -20.770287
v 41.776165 1.364837 0.000000
v 33.101718 -0.184327 -20.770287
v 39.349085 15.497780 -24.690313
v 44.338769 16.118766 0.000000
v 41.776165 1.364837 0.000000
v 39.349085 15.497780 -24.690313
v 24.219666 31.201688 -15.197078
v 33.304076 30.598277 0.000000
v 44.338769 16.118766 0.000000
v 4.873720 47.000000 -7.506718
v 33.304076 30.598277 0.000000
v 24.219666 31.201688 -15.197078
v 26.867339 24.076876 -0.921826
v 22.387877 24.681148 1.742212
v 30.995094 50.328155 5.674040
v 31.379290 50.276327 5.445550
v 26.867339 23.764593 4.315569
v 22.387877 24.681148 1.742212
v 26.867339 24.076876 -0.921826
v 31.379290 50.249543 5.894752
v 31.379290 50.276327 5.445550
v 30.995094 50.328155 5.674040
v 22.387877 24.681148 1.742212
v 22.387877 24.368865 6.979607
v 30.995094 50.301371 6.123242
v 30.995094 50.328155 5.674040
v 26.867339 23.764593 4.315569
v 22.387877 24.368865 6.979607
v 22.387877 24.681148 1.742212
v 31.379290 50.249543 5.894752
v 30.995094 50.328155 5.674040
v 30.995094 50.301371 6.123242
v 22.387877 24.368865 6.979607
v 26.867339 23.452310 9.552964
v 31.379290 50.222759 6.343954
v 30.995094 50.301371 6.123242
v 26.867339 23.764593 4.315569
v 26.867339 23.452310 9.552964
v 22.387877 24.368865 6.979607
v 31.379290 50.249543 5.894752
v 30.995094 50.301371 6.123242
v 31.379290 50.222759 6.343954
v 26.867339 23.452310 9.552964
v 31.346802 22.848038 6.888926
v 31.763486 50.170932 6.115464
v 31.379290 50.222759 6.343954
v 26.867339 23.764593 4.315569
v 31.346802 22.848038 6.888926
v 26.867339 23.452310 9.552964
v 31.379290 50.249543 5.894752
v 31.379290 50.222759 6.343954
v 31.763486 50.170932 6.115464
v 31.346802 22.848038 6.888926
v 31.346802 23.160321 1.651532
v 31.763486 50.197716 5.666262
v 31.763486 50.170932 6.115464
v 26.867339 23.764593 4.315569
v 31.346802 23.160321 1.651532
v 31.346802 22.848038 6.888926
v 31.379290 50.249543 5.894752
v 31.763486 50.170932 6.115464
v 31.763486 50.197716 5.666262
v 31.346802 23.160321 1.651532
v 26.867339 24.076876 -0.921826
v 31.379290 50.276327 5.445550
v 31.763486 50.197716 5.666262
v 26.867339 23.764593 4.315569
v 26.867339 24.076876 -0.921826
v 31.346802 23.160321 1.651532
v 31.379290 50.249543 5.894752
v 31.763486 50.197716 5.666262
v 31.379290 50.276327 5.445550
v 9.649969 33.255203 3.025601
v 4.971242 33.552793 6.942516
v 13.579249 69.922443 10.048317
v 13.923886 69.900522 9.759795
v 10.679370 32.973185 9.040755
v 4.971242 33.552793 6.942516
v 9.649969 33.255203 3.025601
v 13.999712 69.879749 10.202874
v 13.923886 69.900522 9.759795
v 13.579249 69.922443 10.048317
v 4.971242 33.552793 6.942516
v 6.000643 33.270776 12.957670
v 13.655075 69.901669 10.491396
v 13.579249 69.922443 10.048317
v 10.679370 32.973185 9.040755
v 6.000643 33.270776 12.957670
v 4.971242 33.552793 6.942516
v 13.999712 69.879749 10.202874
v 13.579249 69.922443 10.048317
v 13.655075 69.901669 10.491396
v 6.000643 33.270776 12.957670
v 11.708771 32.691168 15.055908
v 14.075538 69.858975 10.645953
v 13.655075 69.901669 10.491396
v 10.679370 32.973185 9.040755
v 11.708771 32.691168 15.055908
v 6.000643 33.270776 12.957670
v 13.999712 69.879749 10.202874
v 13.655075 69.901669 10.491396
v 14.075538 69.858975 10.645953
v 11.708771 32.691168 15.055908
v 16.387498 32.393577 11.138993
v 14.420175 69.837055 10.357431
v 14.075538 69.858975 10.645953
v 10.679370 32.973185 9.040755
v 16.387498 32.393577 11.138993
v 11.708771 32.691168 15.055908
v 13.999712 69.879749 10.202874
v 14.075538 69.858975 10.645953
v 14.420175 69.837055 10.357431
v 16.387498 32.393577 11.138993
v 15.358097 32.675595 5.123839
v 14.344349 69.857828 9.914353
v 14.420175 69.837055 10.357431
v 10.679370 32.973185 9.040755
v 15.358097 32.675595 5.123839
v 16.387498 32.393577 11.138993
v 13.999712 69.879749 10.202874
v 14.420175 69.837055 10.357431
v 14.344349 69.857828 9.914353
v 15.358097 32.675595 5.123839
v 9.649969 33.255203 3.025601
v 13.923886 69.900522 9.759795
v 14.344349 69.857828 9.914353
v 10.679370 32.973185 9.040755
v 9.649969 33.255203 3.025601
v 15.358097 32.675595 5.123839
v 13.999712 69.879749 10.202874
v 14.344349 69.857828 9.914353
v 13.923886 69.900522 9.759795
v -5.332795 28.911521 15.448426
v -8.133848 28.782634 18.740533
v -6.380748 55.254629 18.723885
v -6.089269 55.268041 18.381306
v -3.895044 29.135325 19.520682
v -8.133848 28.782634 18.740533
v -5.332795 28.911521 15.448426
v -5.939656 55.291330 18.805068
v -6.089269 55.268041 18.381306
v -6.380748 55.254629 18.723885
v -8.133848 28.782634 18.740533
v -6.696097 29.006437 22.812789
v -6.231135 55.277918 19.147646
v -6.380748 55.254629 18.723885
v -3.895044 29.135325 19.520682
v -6.696097 29.006437 22.812789
v -8.133848 28.782634 18.740533
v -5.939656 55.291330 18.805068
v -6.380748 55.254629 18.723885
v -6.231135 55.277918 19.147646
v -6.696097 29.006437 22.812789
v -2.457293 29.359128 23.592937
v -5.790043 55.314619 19.228829
v -6.231135 55.277918 19.147646
v -3.895044 29.135325 19.520682
v -2.457293 29.359128 23.592937
v -6.696097 29.006437 22.812789
v -5.939656 55.291330 18.805068
v -6.231135 55.277918 19.147646
v -5.790043 55.314619 19.228829
v -2.457293 29.359128 23.592937
v 0.343760 29.488016 20.300830
v -5.498564 55.328031 18.886250
v -5.790043 55.314619 19.228829
v -3.895044 29.135325 19.520682
v 0.343760 29.488016 20.300830
v -2.457293 29.359128 23.592937
v -5.939656 55.291330 18.805068
v -5.790043 55.314619 19.228829
v -5.498564 55.328031 18.886250
v 0.343760 29.488016 20.300830
v -1.093991 29.264213 16.228575
v -5.648177 55.304742 18.462489
v -5.498564 55.328031 18.886250
v -3.895044 29.135325 19.520682
v -1.093991 29.264213 16.228575
v 0.343760 29.488016 20.300830
v -5.939656 55.291330 18.805068
v -5.498564 55.328031 18.886250
v -5.648177 55.304742 18.462489
v -1.093991 29.264213 16.228575
v -5.332795 28.911521 15.448426
v -6.089269 55.268041 18.381306
v -5.648177 55.304742 18.462489
v -3.895044 29.135325 19.520682
v -5.332795 28.911521 15.448426
v -1.093991 29.264213 16.228575
v -5.939656 55.291330 18.805068
v -5.648177 55.304742 18.462489
v -6.089269 55.268041 18.381306
v -19.587668 28.104523 -0.204891
v -22.871478 27.939396 5.362584
v -21.115602 62.754036 3.937501
v -20.887061 62.765528 3.550026
v -16.455000 28.735256 5.416143
v -22.871478 27.939396 5.362584
v -19.587668 28.104523 -0.204891
v -20.669039 62.809425 3.941229
v -20.887061 62.765528 3.550026
v -21.115602 62.754036 3.937501
v -22.871478 27.939396 5.362584
v -19.738810 28.570130 10.983617
v -20.897580 62.797933 4.328704
v -21.115602 62.754036 3.937501
v -16.455000 28.735256 5.416143
v -19.738810 28.570130 10.983617
v -22.871478 27.939396 5.362584
v -20.669039 62.809425 3.941229
v -21.115602 62.754036 3.937501
v -20.897580 62.797933 4.328704
v -19.738810 28.570130 10.983617
v -13.322332 29.365990 11.037176
v -20.451017 62.853322 4.332432
v -20.897580 62.797933 4.328704
v -16.455000 28.735256 5.416143
v -13.322332 29.365990 11.037176
v -19.738810 28.570130 10.983617
v -20.669039 62.809425 3.941229
v -20.897580 62.797933 4.328704
v -20.451017 62.853322 4.332432
v -13.322332 29.365990 11.037176
v -10.038523 29.531117 5.469701
v -20.222476 62.864814 3.944956
v -20.451017 62.853322 4.332432
v -16.455000 28.735256 5.416143
v -10.038523 29.531117 5.469701
v -13.322332 29.365990 11.037176
v -20.669039 62.809425 3.941229
v -20.451017 62.853322 4.332432
v -20.222476 62.864814 3.944956
v -10.038523 29.531117 5.469701
v -13.171191 28.900383 -0.151332
v -20.440498 62.820917 3.553754
v -20.222476 62.864814 3.944956
v -16.455000 28.735256 5.416143
v -13.171191 28.900383 -0.151332
v -10.038523 29.531117 5.469701
v -20.669039 62.809425 3.941229
v -20.222476 62.864814 3.944956
v -20.440498 62.820917 3.553754
v -13.171191 28.900383 -0.151332
v -19.587668 28.104523 -0.204891
v -20.887061 62.765528 3.550026
v -20.440498 62.820917 3.553754
v -16.455000 28.735256 5.416143
v -19.587668 28.104523 -0.204891
v -13.171191 28.900383 -0.151332
v -20.669039 62.809425 3.941229
v -20.440498 62.820917 3.553754
v -20.887061 62.765528 3.550026
v -23.593391 32.290249 -11.694199
v -25.916971 32.260564 -5.554382
v -24.360569 59.091665 -8.104725
v -24.201294 59.093700 -8.525591
v -19.523624 33.282694 -6.639566
v -25.916971 32.260564 -5.554382
v -23.593391 32.290249 -11.694199
v -23.922325 59.161729 -8.179111
v -24.201294 59.093700 -8.525591
v -24.360569 59.091665 -8.104725
v -25.916971 32.260564 -5.554382
v -21.847204 33.253009 -0.499749
v -24.081599 59.159694 -7.758246
v -24.360569 59.091665 -8.104725
v -19.523624 33.282694 -6.639566
v -21.847204 33.253009 -0.499749
v -25.916971 32.260564 -5.554382
v -23.922325 59.161729 -8.179111
v -24.360569 59.091665 -8.104725
v -24.081599 59.159694 -7.758246
v -21.847204 33.253009 -0.499749
v -15.453857 34.275139 -1.584933
v -23.643355 59.229758 -7.832632
v -24.081599 59.159694 -7.758246
v -19.523624 33.282694 -6.639566
v -15.453857 34.275139 -1.584933
v -21.847204 33.253009 -0.499749
v -23.922325 59.161729 -8.179111
v -24.081599 59.159694 -7.758246
v -23.643355 59.229758 -7.832632
v -15.453857 34.275139 -1.584933
v -13.130276 34.304824 -7.724750
v -23.484081 59.231793 -8.253497
v -23.643355 59.229758 -7.832632
v -19.523624 33.282694 -6.639566
v -13.130276 34.304824 -7.724750
v -15.453857 34.275139 -1.584933
v -23.922325 59.161729 -8.179111
v -23.643355 59.229758 -7.832632
v -23.484081 59.231793 -8.253497
v -13.130276 34.304824 -7.724750
v -17.200043 33.312379 -12.779383
v -23.763050 59.163764 -8.599977
v -23.484081 59.231793 -8.253497
v -19.523624 33.282694 -6.639566
v -17.200043 33.312379 -12.779383
v -13.130276 34.304824 -7.724750
v -23.922325 59.161729 -8.179111
v -23.484081 59.231793 -8.253497
v -23.763050 59.163764 -8.599977
v -17.200043 33.312379 -12.779383
v -23.593391 32.290249 -11.694199
v -24.201294 59.093700 -8.525591
v -23.763050 59.163764 -8.599977
v -19.523624 33.282694 -6.639566
v -23.593391 32.290249 -11.694199
v -17.200043 33.312379 -12.779383
v -23.922325 59.161729 -8.179111
v -23.763050 59.163764 -8.599977
v -24.201294 59.093700 -8.525591
v -6.967166 26.878835 -12.780825
v -7.709046 26.949589 -9.038483
v -9.101606 63.869080 -11.728511
v -9.014116 63.860736 -12.169845
v -4.122361 27.342272 -10.280260
v -7.709046 26.949589 -9.038483
v -6.967166 26.878835 -12.780825
v -8.678628 63.915389 -11.874953
v -9.014116 63.860736 -12.169845
v -9.101606 63.869080 -11.728511
v -7.709046 26.949589 -9.038483
v -4.864241 27.413026 -6.537917
v -8.766118 63.923733 -11.433619
v -9.101606 63.869080 -11.728511
v -4.122361 27.342272 -10.280260
v -4.864241 27.413026 -6.537917
v -7.709046 26.949589 -9.038483
v -8.678628 63.915389 -11.874953
v -9.101606 63.869080 -11.728511
v -8.766118 63.923733 -11.433619
v -4.864241 27.413026 -6.537917
v -1.277556 27.805709 -7.779694
v -8.343140 63.970042 -11.580062
v -8.766118 63.923733 -11.433619
v -4.122361 27.342272 -10.280260
v -1.277556 27.805709 -7.779694
v -4.864241 27.413026 -6.537917
v -8.678628 63.915389 -11.874953
v -8.766118 63.923733 -11.433619
v -8.343140 63.970042 -11.580062
v -1.277556 27.805709 -7.779694
v -0.535676 27.734955 -11.522036
v -8.255651 63.961698 -12.021396
v -8.343140 63.970042 -11.580062
v -4.122361 27.342272 -10.280260
v -0.535676 27.734955 -11.522036
v -1.277556 27.805709 -7.779694
v -8.678628 63.915389 -11.874953
v -8.343140 63.970042 -11.580062
v -8.255651 63.961698 -12.021396
v -0.535676 27.734955 -11.522036
v -3.380481 27.271518 -14.022602
v -8.591138 63.907045 -12.316288
v -8.255651 63.961698 -12.021396
v -4.122361 27.342272 -10.280260
v -3.380481 27.271518 -14.022602
v -0.535676 27.734955 -11.522036
v -8.678628 63.915389 -11.874953
v -8.255651 63.961698 -12.021396
v -8.591138 63.907045 -12.316288
v -3.380481 27.271518 -14.022602
v -6.967166 26.878835 -12.780825
v -9.014116 63.860736 -12.169845
v -8.591138 63.907045 -12.316288
v -4.122361 27.342272 -10.280260
v -6.967166 26.878835 -12.780825
v -3.380481 27.271518 -14.022602
v -8.678628 63.915389 -11.874953
v -8.591138 63.907045 -12.316288
v -9.014116 63.860736 -12.169845
v 6.266701 31.801854 -15.228235
v 6.163348 31.776627 -11.428366
v 9.744372 62.592953 -12.802716
v 9.756606 62.595939 -13.252540
v 9.505184 31.720933 -13.239265
v 6.163348 31.776627 -11.428366
v 6.266701 31.801854 -15.228235
v 10.139974 62.586360 -13.017088
v 9.756606 62.595939 -13.252540
v 9.744372 62.592953 -12.802716
v 6.163348 31.776627 -11.428366
v 9.401831 31.695706 -9.439395
v 10.127739 62.583373 -12.567264
v 9.744372 62.592953 -12.802716
v 9.505184 31.720933 -13.239265
v 9.401831 31.695706 -9.439395
v 6.163348 31.776627 -11.428366
v 10.139974 62.586360 -13.017088
v 9.744372 62.592953 -12.802716
v 10.127739 62.583373 -12.567264
v 9.401831 31.695706 -9.439395
v 12.743667 31.640012 -11.250294
v 10.523342 62.576780 -12.781636
v 10.127739 62.583373 -12.567264
v 9.505184 31.720933 -13.239265
v 12.743667 31.640012 -11.250294
v 9.401831 31.695706 -9.439395
v 10.139974 62.586360 -13.017088
v 10.127739 62.583373 -12.567264
v 10.523342 62.576780 -12.781636
v 12.743667 31.640012 -11.250294
v 12.847020 31.665239 -15.050163
v 10.535576 62.579767 -13.231460
v 10.523342 62.576780 -12.781636
v 9.505184 31.720933 -13.239265
v 12.847020 31.665239 -15.050163
v 12.743667 31.640012 -11.250294
v 10.139974 62.586360 -13.017088
v 10.523342 62.576780 -12.781636
v 10.535576 62.579767 -13.231460
v 12.847020 31.665239 -15.050163
v 9.608537 31.746160 -17.039134
v 10.152209 62.589346 -13.466912
v 10.535576 62.579767 -13.231460
v 9.505184 31.720933 -13.239265
v 9.608537 31.746160 -17.039134
v 12.847020 31.665239 -15.050163
v 10.139974 62.586360 -13.017088
v 10.535576 62.579767 -13.231460
v 10.152209 62.589346 -13.466912
v 9.608537 31.746160 -17.039134
v 6.266701 31.801854 -15.228235
v 9.756606 62.595939 -13.252540
v 10.152209 62.589346 -13.466912
v 9.505184 31.720933 -13.239265
v 6.266701 31.801854 -15.228235
v 9.608537 31.746160 -17.039134
v 10.139974 62.586360 -13.017088
v 10.152209 62.589346 -13.466912
v 9.756606 62.595939 -13.252540
vt 0.500000 1.000000
vt 0.000000 0.000000
vt 1.000000 0.000000
vt 0.000000 0.000000
vt 1.000000 0.000000
vt 1.000000 1.000000
vt 0.000000 1.000000
vt 0.000000 0.000000
vt 1.000000 0.000000
vt 1.000000 1.000000
vt 0.000000 1.000000
vt 0.500000 1.000000
vt 0.000000 0.000000
vt 1.000000 0.000000
vt 0.500000 1.000000
vt 0.000000 0.000000
vt 1.000000 0.000000
vt 0.000000 0.000000
vt 1.000000 0.000000
vt 1.000000 1.000000
vt 0.000000 1.000000
vt 0.000000 0.000000
vt 1.000000 0.000000
vt 1.000000 1.000000
vt 0.000000 1.000000
vt 0.500000 1.000000
vt 0.000000 0.000000
vt 1.000000 0.000000
vt 0.500000 1.000000
vt 0.000000 0.000000
vt 1.000000 0.000000
vt 0.000000 0.000000
vt 1.000000 0.000000
vt 1.000000 1.000000
vt 0.000000 1.000000
vt 0.000000 0.000000
vt 1.000000 0.000000
vt 1.000000 1.000000
vt 0.000000 1.000000
vt 0.500000 1.000000
vt 0.000000 0.000000
vt 1.000000 0.000000
vt 0.500000 1.000000
vt 0.000000 0.000000
vt 1.000000 0.000000
vt 0.000000 0.000000
vt 1.000000 0.000000
vt 1.000000 1.000000
vt 0.000000 1.000000
vt 0.000000 0.000000
vt 1.000000 0.000000
vt 1.000000 1.000000
vt 0.000000 1.000000
vt 0.500000 1.000000
vt 0.000000 0.000000
vt 1.000000 0.000000
vt 0.500000 1.000000
vt 0.000000 0.000000
vt 1.000000 0.000000
vt 0.000000 0.000000
vt 1.000000 0.000000
vt 1.000000 1.000000
vt 0.000000 1.000000
vt 0.000000 0.000000
vt 1.000000 0.000000
vt 1.000000 1.000000
vt 0.000000 1.000000
vt 0.500000 1.000000
vt 0.000000 0.000000
vt 1.000000 0.000000
vt 0.500000 1.000000
vt 0.000000 0.000000
vt 1.000000 0.000000
vt 0.000000 0.000000
vt 1.000000 0.000000
vt 1.000000 1.000000
vt 0.000000 1.000000
vt 0.000000 0.000000
vt 1.000000 0.000000
vt 1.000000 1.000000
vt 0.000000 1.000000
vt 0.500000 1.000000
vt 0.000000 0.000000
vt 1.000000 0.000000
vt 0.500000 1.000000
vt 0.000000 0.000000
vt 1.000000 0.000000
vt 0.000000 0.000000
vt 1.000000 0.000000
vt 1.000000 1.000000
vt 0.000000 1.000000
vt 0.000000 0.000000
vt 1.000000 0.000000
vt 1.000000 1.000000
vt 0.000000 1.000000
vt 0.500000 1.000000
vt 0.000000 0.000000
vt 1.000000 0.000000
vt 0.500000 1.000000
vt 0.000000 0.000000
vt 1.000000 0.000000
vt 0.000000 0.000000
vt 1.000000 0.000000
vt 1.000000 1.000000
vt 0.000000 1.000000
vt 0.000000 0.000000
vt 1.000000 0.000000
vt 1.000000 1.000000
vt 0.000000 1.000000
vt 0.500000 1.000000
vt 0.000000 0.000000
vt 1.000000 0.000000
vt 0.500000 1.000000
vt 0.000000 0.000000
vt 1.000000 0.000000
vt 0.000000 0.000000
vt 1.000000 0.000000
vt 1.000000 1.000000
vt 0.000000 1.000000
vt 0.000000 0.000000
vt 1.000000 0.000000
vt 1.000000 1.000000
vt 0.000000 1.000000
vt 0.500000 1.000000
vt 0.000000 0.000000
vt 1.000000 0.000000
vt 0.500000 1.000000
vt 0.000000 0.000000
vt 1.000000 0.000000
vt 0.000000 0.000000
vt 1.000000 0.000000
vt 1.000000 1.000000
vt 0.000000 1.000000
vt 0.000000 0.000000
vt 1.000000 0.000000
vt 1.000000 1.000000
vt 0.000000 1.000000
vt 0.500000 1.000000
vt 0.000000 0.000000
vt 1.000000 0.000000
vt 0.000000 0.000000
vt 1.000000 0.000000
vt 1.000000 1.000000
vt 0.000000 1.000000
vt 0.500000 1.000000
vt 0.000000 0.000000
vt 1.000000 0.000000
vt 0.500000 1.000000
vt 0.000000 0.000000
vt 1.000000 0.000000
vt 0.000000 0.000000
vt 1.000000 0.000000
vt 1.000000 1.000000
vt 0.000000 1.000000
vt 0.500000 1.000000
vt 0.000000 0.000000
vt 1.000000 0.000000
vt 0.500000 1.000000
vt 0.000000 0.000000
vt 1.000000 0.000000
vt 0.000000 0.000000
vt 1.000000 0.000000
vt 1.000000 1.000000
vt 0.000000 1.000000
vt 0.500000 1.000000
vt 0.000000 0.000000
vt 1.000000 0.000000
vt 0.500000 1.000000
vt 0.000000 0.000000
vt 1.000000 0.000000
vt 0.000000 0.000000
vt 1.000000 0.000000
vt 1.000000 1.000000
vt 0.000000 1.000000
vt 0.500000 1.000000
vt 0.000000 0.000000
vt 1.000000 0.000000
vt 0.500000 1.000000
vt 0.000000 0.000000
vt 1.000000 0.000000
vt 0.000000 0.000000
vt 1.000000 0.000000
vt 1.000000 1.000000
vt 0.000000 1.000000
vt 0.500000 1.000000
vt 0.000000 0.000000
vt 1.000000 0.000000
vt 0.500000 1.000000
vt 0.000000 0.000000
vt 1.000000 0.000000
vt 0.000000 0.000000
vt 1.000000 0.000000
vt 1.000000 1.000000
vt 0.000000 1.000000
vt 0.500000 1.000000
vt 0.000000 0.000000
vt 1.000000 0.000000
vt 0.500000 1.000000
vt 0.000000 0.000000
vt 1.000000 0.000000
vt 0.000000 0.000000
vt 1.000000 0.000000
vt 1.000000 1.000000
vt 0.000000 1.000000
vt 0.500000 1.000000
vt 0.000000 0.000000
vt 1.000000 0.000000
vt 0.500000 1.000000
vt 0.000000 0.000000
vt 1.000000 0.000000
vt 0.000000 0.000000
vt 1.000000 0.000000
vt 1.000000 1.000000
vt 0.000000 1.000000
vt 0.500000 1.000000
vt 0.000000 0.000000
vt 1.000000 0.000000
vt 0.500000 1.000000
vt 0.000000 0.000000
vt 1.000000 0.000000
vt 0.000000 0.000000
vt 1.000000 0.000000
vt 1.000000 1.000000
vt 0.000000 1.000000
vt 0.500000 1.000000
vt 0.000000 0.000000
vt 1.000000 0.000000
vt 0.500000 1.000000
vt 0.000000 0.000000
vt 1.000000 0.000000
vt 0.000000 0.000000
vt 1.000000 0.000000
vt 1.000000 1.000000
vt 0.000000 1.000000
vt 0.500000 1.000000
vt 0.000000 0.000000
vt 1.000000 0.000000
vt 0.500000 1.000000
vt 0.000000 0.000000
vt 1.000000 0.000000
vt 0.000000 0.000000
vt 1.000000 0.000000
vt 1.000000 1.000000
vt 0.000000 1.000000
vt 0.500000 1.000000
vt 0.000000 0.000000
vt 1.000000 0.000000
vt 0.500000 1.000000
vt 0.000000 0.000000
vt 1.000000 0.000000
vt 0.000000 0.000000
vt 1.000000 0.000000
vt 1.000000 1.000000
vt 0.000000 1.000000
vt 0.500000 1.000000
vt 0.000000 0.000000
vt 1.000000 0.000000
vt 0.500000 1.000000
vt 0.000000 0.000000
vt 1.000000 0.000000
vt 0.000000 0.000000
vt 1.000000 0.000000
vt 1.000000 1.000000
vt 0.000000 1.000000
vt 0.500000 1.000000
vt 0.000000 0.000000
vt 1.000000 0.000000
vt 0.500000 1.000000
vt 0.000000 0.000000
vt 1.000000 0.000000
vt 0.000000 0.000000
vt 1.000000 0.000000
vt 1.000000 1.000000
vt 0.000000 1.000000
vt 0.500000 1.000000
vt 0.000000 0.000000
vt 1.000000 0.000000
vt 0.500000 1.000000
vt 0.000000 0.000000
vt 1.000000 0.000000
vt 0.000000 0.000000
vt 1.000000 0.000000
vt 1.000000 1.000000
vt 0.000000 1.000000
vt 0.500000 1.000000
vt 0.000000 0.000000
vt 1.000000 0.000000
vt 0.500000 1.000000
vt 0.000000 0.000000
vt 1.000000 0.000000
vt 0.000000 0.000000
vt 1.000000 0.000000
vt 1.000000 1.000000
vt 0.000000 1.000000
vt 0.500000 1.000000
vt 0.000000 0.000000
vt 1.000000 0.000000
vt 0.500000 1.000000
vt 0.000000 0.000000
vt 1.000000 0.000000
vt 0.000000 0.000000
vt 1.000000 0.000000
vt 1.000000 1.000000
vt 0.000000 1.000000
vt 0.500000 1.000000
vt 0.000000 0.000000
vt 1.000000 0.000000
vt 0.500000 1.000000
vt 0.000000 0.000000
vt 1.000000 0.000000
vt 0.000000 0.000000
vt 1.000000 0.000000
vt 1.000000 1.000000
vt 0.000000 1.000000
vt 0.500000 1.000000
vt 0.000000 0.000000
vt 1.000000 0.000000
vt 0.500000 1.000000
vt 0.000000 0.000000
vt 1.000000 0.000000
vt 0.000000 0.000000
vt 1.000000 0.000000
vt 1.000000 1.000000
vt 0.000000 1.000000
vt 0.500000 1.000000
vt 0.000000 0.000000
vt 1.000000 0.000000
vt 0.500000 1.000000
vt 0.000000 0.000000
vt 1.000000 0.000000
vt 0.000000 0.000000
vt 1.000000 0.000000
vt 1.000000 1.000000
vt 0.000000 1.000000
vt 0.500000 1.000000
vt 0.000000 0.000000
vt 1.000000 0.000000
vt 0.500000 1.000000
vt 0.000000 0.000000
vt 1.000000 0.000000
vt 0.000000 0.000000
vt 1.000000 0.000000
vt 1.000000 1.000000
vt 0.000000 1.000000
vt 0.500000 1.000000
vt 0.000000 0.000000
vt 1.000000 0.000000
vt 0.500000 1.000000
vt 0.000000 0.000000
vt 1.000000 0.000000
vt 0.000000 0.000000
vt 1.000000 0.000000
vt 1.000000 1.000000
vt 0.000000 1.000000
vt 0.500000 1.000000
vt 0.000000 0.000000
vt 1.000000 0.000000
vt 0.500000 1.000000
vt 0.000000 0.000000
vt 1.000000 0.000000
vt 0.000000 0.000000
vt 1.000000 0.000000
vt 1.000000 1.000000
vt 0.000000 1.000000
vt 0.500000 1.000000
vt 0.000000 0.000000
vt 1.000000 0.000000
vt 0.500000 1.000000
vt 0.000000 0.000000
vt 1.000000 0.000000
vt 0.000000 0.000000
vt 1.000000 0.000000
vt 1.000000 1.000000
vt 0.000000 1.000000
vt 0.500000 1.000000
vt 0.000000 0.000000
vt 1.000000 0.000000
vt 0.500000 1.000000
vt 0.000000 0.000000
vt 1.000000 0.000000
vt 0.000000 0.000000
vt 1.000000 0.000000
vt 1.000000 1.000000
vt 0.000000 1.000000
vt 0.500000 1.000000
vt 0.000000 0.000000
vt 1.000000 0.000000
vt 0.500000 1.000000
vt 0.000000 0.000000
vt 1.000000 0.000000
vt 0.000000 0.000000
vt 1.000000 0.000000
vt 1.000000 1.000000
vt 0.000000 1.000000
vt 0.500000 1.000000
vt 0.000000 0.000000
vt 1.000000 0.000000
vt 0.500000 1.000000
vt 0.000000 0.000000
vt 1.000000 0.000000
vt 0.000000 0.000000
vt 1.000000 0.000000
vt 1.000000 1.000000
vt 0.000000 1.000000
vt 0.500000 1.000000
vt 0.000000 0.000000
vt 1.000000 0.000000
vt 0.500000 1.000000
vt 0.000000 0.000000
vt 1.000000 0.000000
vt 0.000000 0.000000
vt 1.000000 0.000000
vt 1.000000 1.000000
vt 0.000000 1.000000
vt 0.500000 1.000000
vt 0.000000 0.000000
vt 1.000000 0.000000
vt 0.500000 1.000000
vt 0.000000 0.000000
vt 1.000000 0.000000
vt 0.000000 0.000000
vt 1.000000 0.000000
vt 1.000000 1.000000
vt 0.000000 1.000000
vt 0.500000 1.000000
vt 0.000000 0.000000
vt 1.000000 0.000000
vt 0.500000 1.000000
vt 0.000000 0.000000
vt 1.000000 0.000000
vt 0.000000 0.000000
vt 1.000000 0.000000
vt 1.000000 1.000000
vt 0.000000 1.000000
vt 0.500000 1.000000
vt 0.000000 0.000000
vt 1.000000 0.000000
vt 0.500000 1.000000
vt 0.000000 0.000000
vt 1.000000 0.000000
vt 0.000000 0.000000
vt 1.000000 0.000000
vt 1.000000 1.000000
vt 0.000000 1.000000
vt 0.500000 1.000000
vt 0.000000 0.000000
vt 1.000000 0.000000
vt 0.500000 1.000000
vt 0.000000 0.000000
vt 1.000000 0.000000
vt 0.000000 0.000000
vt 1.000000 0.000000
vt 1.000000 1.000000
vt 0.000000 1.000000
vt 0.500000 1.000000
vt 0.000000 0.000000
vt 1.000000 0.000000
vt 0.500000 1.000000
vt 0.000000 0.000000
vt 1.000000 0.000000
vt 0.000000 0.000000
vt 1.000000 0.000000
vt 1.000000 1.000000
vt 0.000000 1.000000
vt 0.500000 1.000000
vt 0.000000 0.000000
vt 1.000000 0.000000
vt 0.500000 1.000000
vt 0.000000 0.000000
vt 1.000000 0.000000
vt 0.000000 0.000000
vt 1.000000 0.000000
vt 1.000000 1.000000
vt 0.000000 1.000000
vt 0.500000 1.000000
vt 0.000000 0.000000
vt 1.000000 0.000000
vt 0.500000 1.000000
vt 0.000000 0.000000
vt 1.000000 0.000000
vt 0.000000 0.000000
vt 1.000000 0.000000
vt 1.000000 1.000000
vt 0.000000 1.000000
vt 0.500000 1.000000
vt 0.000000 0.000000
vt 1.000000 0.000000
vt 0.500000 1.000000
vt 0.000000 0.000000
vt 1.000000 0.000000
vt 0.000000 0.000000
vt 1.000000 0.000000
vt 1.000000 1.000000
vt 0.000000 1.000000
vt 0.500000 1.000000
vt 0.000000 0.000000
vt 1.000000 0.000000
vt 0.500000 1.000000
vt 0.000000 0.000000
vt 1.000000 0.000000
vt 0.000000 0.000000
vt 1.000000 0.000000
vt 1.000000 1.000000
vt 0.000000 1.000000
vt 0.500000 1.000000
vt 0.000000 0.000000
vt 1.000000 0.000000
vt 0.500000 1.000000
vt 0.000000 0.000000
vt 1.000000 0.000000
vt 0.000000 0.000000
vt 1.000000 0.000000
vt 1.000000 1.000000
vt 0.000000 1.000000
vt 0.500000 1.000000
vt 0.000000 0.000000
vt 1.000000 0.000000
vt 0.500000 1.000000
vt 0.000000 0.000000
vt 1.000000 0.000000
vt 0.000000 0.000000
vt 1.000000 0.000000
vt 1.000000 1.000000
vt 0.000000 1.000000
vt 0.500000 1.000000
vt 0.000000 0.000000
vt 1.000000 0.000000
vt 0.500000 1.000000
vt 0.000000 0.000000
vt 1.000000 0.000000
vt 0.000000 0.000000
vt 1.000000 0.000000
vt 1.000000 1.000000
vt 0.000000 1.000000
vt 0.500000 1.000000
vt 0.000000 0.000000
vt 1.000000 0.000000
vt 0.500000 1.000000
vt 0.000000 0.000000
vt 1.000000 0.000000
vt 0.000000 0.000000
vt 1.000000 0.000000
vt 1.000000 1.000000
vt 0.000000 1.000000
vt 0.500000 1.000000
vt 0.000000 0.000000
vt 1.000000 0.000000
vt 0.500000 1.000000
vt 0.000000 0.000000
vt 1.000000 0.000000
vt 0.000000 0.000000
vt 1.000000 0.000000
vt 1.000000 1.000000
vt 0.000000 1.000000
vt 0.500000 1.000000
vt 0.000000 0.000000
vt 1.000000 0.000000
vt 0.500000 1.000000
vt 0.000000 0.000000
vt 1.000000 0.000000
s 1
usemtl models/caelum/world/environment/rock_granite.png
f 1/1 2/2 3/3
f 4/4 5/5 6/6 7/7
f 8/8 9/9 10/10 11/11
f 12/12 13/13 14/14
f 15/15 16/16 17/17
f 18/18 19/19 20/20 21/21
f 22/22 23/23 24/24 25/25
f 26/26 27/27 28/28
f 29/29 30/30 31/31
f 32/32 33/33 34/34 35/35
f 36/36 37/37 38/38 39/39
f 40/40 41/41 42/42
f 43/43 44/44 45/45
f 46/46 47/47 48/48 49/49
f 50/50 51/51 52/52 53/53
f 54/54 55/55 56/56
f 57/57 58/58 59/59
f 60/60 61/61 62/62 63/63
f 64/64 65/65 66/66 67/67
f 68/68 69/69 70/70
f 71/71 72/72 73/73
f 74/74 75/75 76/76 77/77
f 78/78 79/79 80/80 81/81
f 82/82 83/83 84/84
f 85/85 86/86 87/87
f 88/88 89/89 90/90 91/91
f 92/92 93/93 94/94 95/95
f 96/96 97/97 98/98
f 99/99 100/100 101/101
f 102/102 103/103 104/104 105/105
f 106/106 107/107 108/108 109/109
f 110/110 111/111 112/112
f 113/113 114/114 115/115
f 116/116 117/117 118/118 119/119
f 120/120 121/121 122/122 123/123
f 124/124 125/125 126/126
f 127/127 128/128 129/129
f 130/130 131/131 132/132 133/133
f 134/134 135/135 136/136 137/137
f 138/138 139/139 140/140
usemtl models/caelum/world/resources/ca_vein_ruby.png
f 141/141 142/142 143/143 144/144
f 145/145 146/146 147/147
f 148/148 149/149 150/150
f 151/151 152/152 153/153 154/154
f 155/155 156/156 157/157
f 158/158 159/159 160/160
f 161/161 162/162 163/163 164/164
f 165/165 166/166 167/167
f 168/168 169/169 170/170
f 171/171 172/172 173/173 174/174
f 175/175 176/176 177/177
f 178/178 179/179 180/180
f 181/181 182/182 183/183 184/184
f 185/185 186/186 187/187
f 188/188 189/189 190/190
f 191/191 192/192 193/193 194/194
f 195/195 196/196 197/197
f 198/198 199/199 200/200
f 201/201 202/202 203/203 204/204
f 205/205 206/206 207/207
f 208/208 209/209 210/210
f 211/211 212/212 213/213 214/214
f 215/215 216/216 217/217
f 218/218 219/219 220/220
f 221/221 222/222 223/223 224/224
f 225/225 226/226 227/227
f 228/228 229/229 230/230
f 231/231 232/232 233/233 234/234
f 235/235 236/236 237/237
f 238/238 239/239 240/240
f 241/241 242/242 243/243 244/244
f 245/245 246/246 247/247
f 248/248 249/249 250/250
f 251/251 252/252 253/253 254/254
f 255/255 256/256 257/257
f 258/258 259/259 260/260
f 261/261 262/262 263/263 264/264
f 265/265 266/266 267/267
f 268/268 269/269 270/270
f 271/271 272/272 273/273 274/274
f 275/275 276/276 277/277
f 278/278 279/279 280/280
f 281/281 282/282 283/283 284/284
f 285/285 286/286 287/287
f 288/288 289/289 290/290
f 291/291 292/292 293/293 294/294
f 295/295 296/296 297/297
f 298/298 299/299 300/300
f 301/301 302/302 303/303 304/304
f 305/305 306/306 307/307
f 308/308 309/309 310/310
f 311/311 312/312 313/313 314/314
f 315/315 316/316 317/317
f 318/318 319/319 320/320
f 321/321 322/322 323/323 324/324
f 325/325 326/326 327/327
f 328/328 329/329 330/330
f 331/331 332/332 333/333 334/334
f 335/335 336/336 337/337
f 338/338 339/339 340/340
f 341/341 342/342 343/343 344/344
f 345/345 346/346 347/347
f 348/348 349/349 350/350
f 351/351 352/352 353/353 354/354
f 355/355 356/356 357/357
f 358/358 359/359 360/360
f 361/361 362/362 363/363 364/364
f 365/365 366/366 367/367
f 368/368 369/369 370/370
f 371/371 372/372 373/373 374/374
f 375/375 376/376 377/377
f 378/378 379/379 380/380
f 381/381 382/382 383/383 384/384
f 385/385 386/386 387/387
f 388/388 389/389 390/390
f 391/391 392/392 393/393 394/394
f 395/395 396/396 397/397
f 398/398 399/399 400/400
f 401/401 402/402 403/403 404/404
f 405/405 406/406 407/407
f 408/408 409/409 410/410
f 411/411 412/412 413/413 414/414
f 415/415 416/416 417/417
f 418/418 419/419 420/420
f 421/421 422/422 423/423 424/424
f 425/425 426/426 427/427
f 428/428 429/429 430/430
f 431/431 432/432 433/433 434/434
f 435/435 436/436 437/437
f 438/438 439/439 440/440
f 441/441 442/442 443/443 444/444
f 445/445 446/446 447/447
f 448/448 449/449 450/450
f 451/451 452/452 453/453 454/454
f 455/455 456/456 457/457
f 458/458 459/459 460/460
f 461/461 462/462 463/463 464/464
f 465/465 466/466 467/467
f 468/468 469/469 470/470
f 471/471 472/472 473/473 474/474
f 475/475 476/476 477/477
f 478/478 479/479 480/480
f 481/481 482/482 483/483 484/484
f 485/485 486/486 487/487
f 488/488 489/489 490/490
f 491/491 492/492 493/493 494/494
f 495/495 496/496 497/497
f 498/498 499/499 500/500
f 501/501 502/502 503/503 504/504
f 505/505 506/506 507/507
f 508/508 509/509 510/510
f 511/511 512/512 513/513 514/514
f 515/515 516/516 517/517
f 518/518 519/519 520/520
f 521/521 522/522 523/523 524/524
f 525/525 526/526 527/527
f 528/528 529/529 530/530
f 531/531 532/532 533/533 534/534
f 535/535 536/536 537/537
f 538/538 539/539 540/540
f 541/541 542/542 543/543 544/544
f 545/545 546/546 547/547
f 548/548 549/549 550/550
f 551/551 552/552 553/553 554/554
f 555/555 556/556 557/557
f 558/558 559/559 560/560
