# Modelo original generado para Caelum Argenteum.
# Ejes OBJ: X ancho, Y altura, Z profundidad.
o ca_vein_sapphire
v 0.000000 0.000000 0.000000
v 31.192032 0.143216 0.000000
v 29.465475 0.649195 18.488659
v 31.192032 0.143216 0.000000
v 39.372838 15.034913 0.000000
v 35.205194 14.805936 22.090152
v 29.465475 0.649195 18.488659
v 39.372838 15.034913 0.000000
v 27.200551 31.527229 0.000000
v 22.917029 32.550583 14.379715
v 35.205194 14.805936 22.090152
v -3.842317 47.000000 -6.334208
v 22.917029 32.550583 14.379715
v 27.200551 31.527229 0.000000
v 0.000000 0.000000 0.000000
v 29.465475 0.649195 18.488659
v 9.839591 -0.350373 26.153627
v 29.465475 0.649195 18.488659
v 35.205194 14.805936 22.090152
v 14.646483 14.105383 38.930342
v 9.839591 -0.350373 26.153627
v 35.205194 14.805936 22.090152
v 22.917029 32.550583 14.379715
v 9.059158 32.848503 24.079237
v 14.646483 14.105383 38.930342
v -3.842317 47.000000 -6.334208
v 9.059158 32.848503 24.079237
v 22.917029 32.550583 14.379715
v 0.000000 0.000000 0.000000
v 9.839591 -0.350373 26.153627
v -12.365542 1.394243 32.867603
v 9.839591 -0.350373 26.153627
v 14.646483 14.105383 38.930342
v -11.159415 14.758266 29.661718
v -12.365542 1.394243 32.867603
v 14.646483 14.105383 38.930342
v 9.059158 32.848503 24.079237
v -8.638770 30.916320 22.961845
v -11.159415 14.758266 29.661718
v -3.842317 47.000000 -6.334208
v -8.638770 30.916320 22.961845
v 9.059158 32.848503 24.079237
v 0.000000 0.000000 0.000000
v -12.365542 1.394243 32.867603
v -30.763763 1.331783 19.303294
v -12.365542 1.394243 32.867603
v -11.159415 14.758266 29.661718
v -33.470902 16.359885 21.001938
v -30.763763 1.331783 19.303294
v -11.159415 14.758266 29.661718
v -8.638770 30.916320 22.961845
v -26.794928 32.243433 16.812975
v -33.470902 16.359885 21.001938
v -3.842317 47.000000 -6.334208
v -26.794928 32.243433 16.812975
v -8.638770 30.916320 22.961845
v 0.000000 0.000000 0.000000
v -30.763763 1.331783 19.303294
v -30.411805 1.583852 0.000000
v -30.763763 1.331783 19.303294
v -33.470902 16.359885 21.001938
v -44.436518 15.006618 0.000000
v -30.411805 1.583852 0.000000
v -33.470902 16.359885 21.001938
v -26.794928 32.243433 16.812975
v -29.977508 33.404436 0.000000
v -44.436518 15.006618 0.000000
v -3.842317 47.000000 -6.334208
v -29.977508 33.404436 0.000000
v -26.794928 32.243433 16.812975
v 0.000000 0.000000 0.000000
v -30.411805 1.583852 0.000000
v -29.239247 0.181882 -18.346708
v -30.411805 1.583852 0.000000
v -44.436518 15.006618 0.000000
v -33.085766 13.565296 -20.760277
v -29.239247 0.181882 -18.346708
v -44.436518 15.006618 0.000000
v -29.977508 33.404436 0.000000
v -29.527352 31.778490 -18.527485
v -33.085766 13.565296 -20.760277
v -3.842317 47.000000 -6.334208
v -29.527352 31.778490 -18.527485
v -29.977508 33.404436 0.000000
v 0.000000 0.000000 0.000000
v -29.239247 0.181882 -18.346708
v -10.507470 0.217352 -27.928848
v -29.239247 0.181882 -18.346708
v -33.085766 13.565296 -20.760277
v -13.667629 14.946028 -36.328550
v -10.507470 0.217352 -27.928848
v -33.085766 13.565296 -20.760277
v -29.527352 31.778490 -18.527485
v -9.846584 31.140918 -26.172213
v -13.667629 14.946028 -36.328550
v -3.842317 47.000000 -6.334208
v -9.846584 31.140918 -26.172213
v -29.527352 31.778490 -18.527485
v 0.000000 0.000000 0.000000
v -10.507470 0.217352 -27.928848
v 13.324798 -1.237412 -35.417304
v -10.507470 0.217352 -27.928848
v -13.667629 14.946028 -36.328550
v 12.579619 13.741397 -33.436621
v 13.324798 -1.237412 -35.417304
v -13.667629 14.946028 -36.328550
v -9.846584 31.140918 -26.172213
v 10.176920 32.083247 -27.050247
v 12.579619 13.741397 -33.436621
v -3.842317 47.000000 -6.334208
v 10.176920 32.083247 -27.050247
v -9.846584 31.140918 -26.172213
v 0.000000 0.000000 0.000000
v 13.324798 -1.237412 -35.417304
v 29.350413 1.028706 -18.416461
v 13.324798 -1.237412 -35.417304
v 12.579619 13.741397 -33.436621
v 34.383304 13.771804 -21.574442
v 29.350413 1.028706 -18.416461
v 12.579619 13.741397 -33.436621
v 10.176920 32.083247 -27.050247
v 22.599507 32.314250 -14.180480
v 34.383304 13.771804 -21.574442
v -3.842317 47.000000 -6.334208
v 22.599507 32.314250 -14.180480
v 10.176920 32.083247 -27.050247
v 0.000000 0.000000 0.000000
v 29.350413 1.028706 -18.416461
v 31.192032 0.143216 0.000000
v 29.350413 1.028706 -18.416461
v 34.383304 13.771804 -21.574442
v 39.372838 15.034913 0.000000
v 31.192032 0.143216 0.000000
v 34.383304 13.771804 -21.574442
v 22.599507 32.314250 -14.180480
v 27.200551 31.527229 0.000000
v 39.372838 15.034913 0.000000
v -3.842317 47.000000 -6.334208
v 27.200551 31.527229 0.000000
v 22.599507 32.314250 -14.180480
v 19.062053 27.848709 -8.553546
v 14.868632 27.446187 -6.095724
v 14.828335 59.853032 -5.249847
v 15.215240 59.890170 -5.476617
v 19.062053 28.054671 -3.680634
v 14.868632 27.446187 -6.095724
v 19.062053 27.848709 -8.553546
v 15.215240 59.909173 -5.027019
v 15.215240 59.890170 -5.476617
v 14.828335 59.853032 -5.249847
v 14.868632 27.446187 -6.095724
v 14.868632 27.652149 -1.222813
v 14.828335 59.872035 -4.800248
v 14.828335 59.853032 -5.249847
v 19.062053 28.054671 -3.680634
v 14.868632 27.652149 -1.222813
v 14.868632 27.446187 -6.095724
v 15.215240 59.909173 -5.027019
v 14.828335 59.853032 -5.249847
v 14.828335 59.872035 -4.800248
v 14.868632 27.652149 -1.222813
v 19.062053 28.260633 1.192277
v 15.215240 59.928176 -4.577420
v 14.828335 59.872035 -4.800248
v 19.062053 28.054671 -3.680634
v 19.062053 28.260633 1.192277
v 14.868632 27.652149 -1.222813
v 15.215240 59.909173 -5.027019
v 14.828335 59.872035 -4.800248
v 15.215240 59.928176 -4.577420
v 19.062053 28.260633 1.192277
v 23.255473 28.663154 -1.265544
v 15.602146 59.965315 -4.804191
v 15.215240 59.928176 -4.577420
v 19.062053 28.054671 -3.680634
v 23.255473 28.663154 -1.265544
v 19.062053 28.260633 1.192277
v 15.215240 59.909173 -5.027019
v 15.215240 59.928176 -4.577420
v 15.602146 59.965315 -4.804191
v 23.255473 28.663154 -1.265544
v 23.255473 28.457193 -6.138456
v 15.602146 59.946312 -5.253789
v 15.602146 59.965315 -4.804191
v 19.062053 28.054671 -3.680634
v 23.255473 28.457193 -6.138456
v 23.255473 28.663154 -1.265544
v 15.215240 59.909173 -5.027019
v 15.602146 59.965315 -4.804191
v 15.602146 59.946312 -5.253789
v 23.255473 28.457193 -6.138456
v 19.062053 27.848709 -8.553546
v 15.215240 59.890170 -5.476617
v 15.602146 59.946312 -5.253789
v 19.062053 28.054671 -3.680634
v 19.062053 27.848709 -8.553546
v 23.255473 28.457193 -6.138456
v 15.215240 59.909173 -5.027019
v 15.602146 59.946312 -5.253789
v 15.215240 59.890170 -5.476617
v 13.673036 28.887753 16.216728
v 8.391135 28.370391 20.680739
v 9.495619 64.697321 21.160474
v 9.838355 64.730892 20.870810
v 14.835145 29.381368 23.035773
v 8.391135 28.370391 20.680739
v 13.673036 28.887753 16.216728
v 9.913762 64.762922 21.313289
v 9.838355 64.730892 20.870810
v 9.495619 64.697321 21.160474
v 8.391135 28.370391 20.680739
v 9.553245 28.864006 27.499783
v 9.571027 64.729351 21.602953
v 9.495619 64.697321 21.160474
v 14.835145 29.381368 23.035773
v 9.553245 28.864006 27.499783
v 8.391135 28.370391 20.680739
v 9.913762 64.762922 21.313289
v 9.495619 64.697321 21.160474
v 9.571027 64.729351 21.602953
v 9.553245 28.864006 27.499783
v 15.997254 29.874983 29.854817
v 9.989170 64.794952 21.755768
v 9.571027 64.729351 21.602953
v 14.835145 29.381368 23.035773
v 15.997254 29.874983 29.854817
v 9.553245 28.864006 27.499783
v 9.913762 64.762922 21.313289
v 9.571027 64.729351 21.602953
v 9.989170 64.794952 21.755768
v 15.997254 29.874983 29.854817
v 21.279155 30.392345 25.390807
v 10.331906 64.828523 21.466104
v 9.989170 64.794952 21.755768
v 14.835145 29.381368 23.035773
v 21.279155 30.392345 25.390807
v 15.997254 29.874983 29.854817
v 9.913762 64.762922 21.313289
v 9.989170 64.794952 21.755768
v 10.331906 64.828523 21.466104
v 21.279155 30.392345 25.390807
v 20.117045 29.898730 18.571763
v 10.256498 64.796493 21.023625
v 10.331906 64.828523 21.466104
v 14.835145 29.381368 23.035773
v 20.117045 29.898730 18.571763
v 21.279155 30.392345 25.390807
v 9.913762 64.762922 21.313289
v 10.331906 64.828523 21.466104
v 10.256498 64.796493 21.023625
v 20.117045 29.898730 18.571763
v 13.673036 28.887753 16.216728
v 9.838355 64.730892 20.870810
v 10.256498 64.796493 21.023625
v 14.835145 29.381368 23.035773
v 13.673036 28.887753 16.216728
v 20.117045 29.898730 18.571763
v 9.913762 64.762922 21.313289
v 10.256498 64.796493 21.023625
v 9.838355 64.730892 20.870810
v -5.150863 26.459798 15.587523
v -7.675988 26.689935 18.594851
v 0.337704 55.750993 20.821415
v 0.626575 55.724666 20.477380
v -3.854743 26.055296 19.279365
v -7.675988 26.689935 18.594851
v -5.150863 26.459798 15.587523
v 0.774850 55.678391 20.899722
v 0.626575 55.724666 20.477380
v 0.337704 55.750993 20.821415
v -7.675988 26.689935 18.594851
v -6.379868 26.285432 22.286693
v 0.485978 55.704719 21.243757
v 0.337704 55.750993 20.821415
v -3.854743 26.055296 19.279365
v -6.379868 26.285432 22.286693
v -7.675988 26.689935 18.594851
v 0.774850 55.678391 20.899722
v 0.337704 55.750993 20.821415
v 0.485978 55.704719 21.243757
v -6.379868 26.285432 22.286693
v -2.558623 25.650793 22.971207
v 0.923125 55.632117 21.322065
v 0.485978 55.704719 21.243757
v -3.854743 26.055296 19.279365
v -2.558623 25.650793 22.971207
v -6.379868 26.285432 22.286693
v 0.774850 55.678391 20.899722
v 0.485978 55.704719 21.243757
v 0.923125 55.632117 21.322065
v -2.558623 25.650793 22.971207
v -0.033497 25.420657 19.963879
v 1.211996 55.605789 20.978030
v 0.923125 55.632117 21.322065
v -3.854743 26.055296 19.279365
v -0.033497 25.420657 19.963879
v -2.558623 25.650793 22.971207
v 0.774850 55.678391 20.899722
v 0.923125 55.632117 21.322065
v 1.211996 55.605789 20.978030
v -0.033497 25.420657 19.963879
v -1.329617 25.825159 16.272037
v 1.063722 55.652064 20.555687
v 1.211996 55.605789 20.978030
v -3.854743 26.055296 19.279365
v -1.329617 25.825159 16.272037
v -0.033497 25.420657 19.963879
v 0.774850 55.678391 20.899722
v 1.211996 55.605789 20.978030
v 1.063722 55.652064 20.555687
v -1.329617 25.825159 16.272037
v -5.150863 26.459798 15.587523
v 0.626575 55.724666 20.477380
v 1.063722 55.652064 20.555687
v -3.854743 26.055296 19.279365
v -5.150863 26.459798 15.587523
v -1.329617 25.825159 16.272037
v 0.774850 55.678391 20.899722
v 1.063722 55.652064 20.555687
v 0.626575 55.724666 20.477380
v -24.774520 25.244104 7.017066
v -27.333534 25.232781 11.313724
v -23.088768 53.755558 11.268485
v -22.858503 53.756577 10.881863
v -22.333289 25.286693 11.381528
v -27.333534 25.232781 11.313724
v -24.774520 25.244104 7.017066
v -22.638836 53.760409 11.274586
v -22.858503 53.756577 10.881863
v -23.088768 53.755558 11.268485
v -27.333534 25.232781 11.313724
v -24.892302 25.275370 15.678187
v -22.869101 53.759390 11.661209
v -23.088768 53.755558 11.268485
v -22.333289 25.286693 11.381528
v -24.892302 25.275370 15.678187
v -27.333534 25.232781 11.313724
v -22.638836 53.760409 11.274586
v -23.088768 53.755558 11.268485
v -22.869101 53.759390 11.661209
v -24.892302 25.275370 15.678187
v -19.892057 25.329282 15.745990
v -22.419169 53.764241 11.667310
v -22.869101 53.759390 11.661209
v -22.333289 25.286693 11.381528
v -19.892057 25.329282 15.745990
v -24.892302 25.275370 15.678187
v -22.638836 53.760409 11.274586
v -22.869101 53.759390 11.661209
v -22.419169 53.764241 11.667310
v -19.892057 25.329282 15.745990
v -17.333043 25.340605 11.449331
v -22.188904 53.765260 11.280687
v -22.419169 53.764241 11.667310
v -22.333289 25.286693 11.381528
v -17.333043 25.340605 11.449331
v -19.892057 25.329282 15.745990
v -22.638836 53.760409 11.274586
v -22.419169 53.764241 11.667310
v -22.188904 53.765260 11.280687
v -17.333043 25.340605 11.449331
v -19.774275 25.298016 7.084869
v -22.408571 53.761428 10.887964
v -22.188904 53.765260 11.280687
v -22.333289 25.286693 11.381528
v -19.774275 25.298016 7.084869
v -17.333043 25.340605 11.449331
v -22.638836 53.760409 11.274586
v -22.188904 53.765260 11.280687
v -22.408571 53.761428 10.887964
v -19.774275 25.298016 7.084869
v -24.774520 25.244104 7.017066
v -22.858503 53.756577 10.881863
v -22.408571 53.761428 10.887964
v -22.333289 25.286693 11.381528
v -24.774520 25.244104 7.017066
v -19.774275 25.298016 7.084869
v -22.638836 53.760409 11.274586
v -22.408571 53.761428 10.887964
v -22.858503 53.756577 10.881863
v -14.906637 22.655548 -11.645695
v -17.290999 22.642662 -5.433438
v -12.832980 50.041192 -6.988263
v -12.671732 50.042063 -7.408381
v -10.730411 23.022656 -6.478312
v -17.290999 22.642662 -5.433438
v -14.906637 22.655548 -11.645695
v -12.389306 50.066890 -7.058925
v -12.671732 50.042063 -7.408381
v -12.832980 50.041192 -6.988263
v -17.290999 22.642662 -5.433438
v -13.114773 23.009770 -0.266055
v -12.550553 50.066018 -6.638808
v -12.832980 50.041192 -6.988263
v -10.730411 23.022656 -6.478312
v -13.114773 23.009770 -0.266055
v -17.290999 22.642662 -5.433438
v -12.389306 50.066890 -7.058925
v -12.832980 50.041192 -6.988263
v -12.550553 50.066018 -6.638808
v -13.114773 23.009770 -0.266055
v -6.554184 23.389765 -1.310929
v -12.106880 50.091716 -6.709470
v -12.550553 50.066018 -6.638808
v -10.730411 23.022656 -6.478312
v -6.554184 23.389765 -1.310929
v -13.114773 23.009770 -0.266055
v -12.389306 50.066890 -7.058925
v -12.550553 50.066018 -6.638808
v -12.106880 50.091716 -6.709470
v -6.554184 23.389765 -1.310929
v -4.169822 23.402651 -7.523186
v -11.945632 50.092588 -7.129587
v -12.106880 50.091716 -6.709470
v -10.730411 23.022656 -6.478312
v -4.169822 23.402651 -7.523186
v -6.554184 23.389765 -1.310929
v -12.389306 50.066890 -7.058925
v -12.106880 50.091716 -6.709470
v -11.945632 50.092588 -7.129587
v -4.169822 23.402651 -7.523186
v -8.346048 23.035542 -12.690568
v -12.228058 50.067761 -7.479042
v -11.945632 50.092588 -7.129587
v -10.730411 23.022656 -6.478312
v -8.346048 23.035542 -12.690568
v -4.169822 23.402651 -7.523186
v -12.389306 50.066890 -7.058925
v -11.945632 50.092588 -7.129587
v -12.228058 50.067761 -7.479042
v -8.346048 23.035542 -12.690568
v -14.906637 22.655548 -11.645695
v -12.671732 50.042063 -7.408381
v -12.228058 50.067761 -7.479042
v -10.730411 23.022656 -6.478312
v -14.906637 22.655548 -11.645695
v -8.346048 23.035542 -12.690568
v -12.389306 50.066890 -7.058925
v -12.228058 50.067761 -7.479042
v -12.671732 50.042063 -7.408381
v -7.721774 26.379705 -21.275316
v -8.730753 26.374444 -16.225095
v -4.134173 47.227176 -17.681482
v -4.046010 47.227636 -18.122761
v -3.852750 26.344622 -17.876459
v -8.730753 26.374444 -16.225095
v -7.721774 26.379705 -21.275316
v -3.707942 47.224570 -17.825776
v -4.046010 47.227636 -18.122761
v -4.134173 47.227176 -17.681482
v -8.730753 26.374444 -16.225095
v -4.861730 26.339361 -12.826237
v -3.796104 47.224111 -17.384497
v -4.134173 47.227176 -17.681482
v -3.852750 26.344622 -17.876459
v -4.861730 26.339361 -12.826237
v -8.730753 26.374444 -16.225095
v -3.707942 47.224570 -17.825776
v -4.134173 47.227176 -17.681482
v -3.796104 47.224111 -17.384497
v -4.861730 26.339361 -12.826237
v 0.016273 26.309539 -14.477601
v -3.369874 47.221505 -17.528790
v -3.796104 47.224111 -17.384497
v -3.852750 26.344622 -17.876459
v 0.016273 26.309539 -14.477601
v -4.861730 26.339361 -12.826237
v -3.707942 47.224570 -17.825776
v -3.796104 47.224111 -17.384497
v -3.369874 47.221505 -17.528790
v 0.016273 26.309539 -14.477601
v 1.025252 26.314800 -19.527822
v -3.281711 47.221964 -17.970069
v -3.369874 47.221505 -17.528790
v -3.852750 26.344622 -17.876459
v 1.025252 26.314800 -19.527822
v 0.016273 26.309539 -14.477601
v -3.707942 47.224570 -17.825776
v -3.369874 47.221505 -17.528790
v -3.281711 47.221964 -17.970069
v 1.025252 26.314800 -19.527822
v -2.843771 26.349883 -22.926680
v -3.619779 47.225030 -18.267054
v -3.281711 47.221964 -17.970069
v -3.852750 26.344622 -17.876459
v -2.843771 26.349883 -22.926680
v 1.025252 26.314800 -19.527822
v -3.707942 47.224570 -17.825776
v -3.281711 47.221964 -17.970069
v -3.619779 47.225030 -18.267054
v -2.843771 26.349883 -22.926680
v -7.721774 26.379705 -21.275316
v -4.046010 47.227636 -18.122761
v -3.619779 47.225030 -18.267054
v -3.852750 26.344622 -17.876459
v -7.721774 26.379705 -21.275316
v -2.843771 26.349883 -22.926680
v -3.707942 47.224570 -17.825776
v -3.619779 47.225030 -18.267054
v -4.046010 47.227636 -18.122761
v 1.615073 26.448029 -10.970947
v 1.487547 26.769790 -6.193864
v 0.651292 49.340720 -9.911943
v 0.663273 49.310489 -10.360767
v 5.610987 27.458404 -8.531249
v 1.487547 26.769790 -6.193864
v 1.615073 26.448029 -10.970947
v 1.038703 49.405417 -10.131549
v 0.663273 49.310489 -10.360767
v 0.651292 49.340720 -9.911943
v 1.487547 26.769790 -6.193864
v 5.483462 27.780164 -3.754166
v 1.026722 49.435648 -9.682725
v 0.651292 49.340720 -9.911943
v 5.610987 27.458404 -8.531249
v 5.483462 27.780164 -3.754166
v 1.487547 26.769790 -6.193864
v 1.038703 49.405417 -10.131549
v 0.651292 49.340720 -9.911943
v 1.026722 49.435648 -9.682725
v 5.483462 27.780164 -3.754166
v 9.606902 28.468778 -6.091551
v 1.414133 49.500345 -9.902330
v 1.026722 49.435648 -9.682725
v 5.610987 27.458404 -8.531249
v 9.606902 28.468778 -6.091551
v 5.483462 27.780164 -3.754166
v 1.038703 49.405417 -10.131549
v 1.026722 49.435648 -9.682725
v 1.414133 49.500345 -9.902330
v 9.606902 28.468778 -6.091551
v 9.734428 28.147018 -10.868634
v 1.426115 49.470115 -10.351154
v 1.414133 49.500345 -9.902330
v 5.610987 27.458404 -8.531249
v 9.734428 28.147018 -10.868634
v 9.606902 28.468778 -6.091551
v 1.038703 49.405417 -10.131549
v 1.414133 49.500345 -9.902330
v 1.426115 49.470115 -10.351154
v 9.734428 28.147018 -10.868634
v 5.738513 27.136643 -13.308332
v 1.050685 49.375187 -10.580372
v 1.426115 49.470115 -10.351154
v 5.610987 27.458404 -8.531249
v 5.738513 27.136643 -13.308332
v 9.734428 28.147018 -10.868634
v 1.038703 49.405417 -10.131549
v 1.426115 49.470115 -10.351154
v 1.050685 49.375187 -10.580372
v 5.738513 27.136643 -13.308332
v 1.615073 26.448029 -10.970947
v 0.663273 49.310489 -10.360767
v 1.050685 49.375187 -10.580372
v 5.610987 27.458404 -8.531249
v 1.615073 26.448029 -10.970947
v 5.738513 27.136643 -13.308332
v 1.038703 49.405417 -10.131549
v 1.050685 49.375187 -10.580372
v 0.663273 49.310489 -10.360767
vt 0.500000 1.000000
vt 0.000000 0.000000
vt 1.000000 0.000000
vt 0.000000 0.000000
vt 1.000000 0.000000
vt 1.000000 1.000000
vt 0.000000 1.000000
vt 0.000000 0.000000
vt 1.000000 0.000000
vt 1.000000 1.000000
vt 0.000000 1.000000
vt 0.500000 1.000000
vt 0.000000 0.000000
vt 1.000000 0.000000
vt 0.500000 1.000000
vt 0.000000 0.000000
vt 1.000000 0.000000
vt 0.000000 0.000000
vt 1.000000 0.000000
vt 1.000000 1.000000
vt 0.000000 1.000000
vt 0.000000 0.000000
vt 1.000000 0.000000
vt 1.000000 1.000000
vt 0.000000 1.000000
vt 0.500000 1.000000
vt 0.000000 0.000000
vt 1.000000 0.000000
vt 0.500000 1.000000
vt 0.000000 0.000000
vt 1.000000 0.000000
vt 0.000000 0.000000
vt 1.000000 0.000000
vt 1.000000 1.000000
vt 0.000000 1.000000
vt 0.000000 0.000000
vt 1.000000 0.000000
vt 1.000000 1.000000
vt 0.000000 1.000000
vt 0.500000 1.000000
vt 0.000000 0.000000
vt 1.000000 0.000000
vt 0.500000 1.000000
vt 0.000000 0.000000
vt 1.000000 0.000000
vt 0.000000 0.000000
vt 1.000000 0.000000
vt 1.000000 1.000000
vt 0.000000 1.000000
vt 0.000000 0.000000
vt 1.000000 0.000000
vt 1.000000 1.000000
vt 0.000000 1.000000
vt 0.500000 1.000000
vt 0.000000 0.000000
vt 1.000000 0.000000
vt 0.500000 1.000000
vt 0.000000 0.000000
vt 1.000000 0.000000
vt 0.000000 0.000000
vt 1.000000 0.000000
vt 1.000000 1.000000
vt 0.000000 1.000000
vt 0.000000 0.000000
vt 1.000000 0.000000
vt 1.000000 1.000000
vt 0.000000 1.000000
vt 0.500000 1.000000
vt 0.000000 0.000000
vt 1.000000 0.000000
vt 0.500000 1.000000
vt 0.000000 0.000000
vt 1.000000 0.000000
vt 0.000000 0.000000
vt 1.000000 0.000000
vt 1.000000 1.000000
vt 0.000000 1.000000
vt 0.000000 0.000000
vt 1.000000 0.000000
vt 1.000000 1.000000
vt 0.000000 1.000000
vt 0.500000 1.000000
vt 0.000000 0.000000
vt 1.000000 0.000000
vt 0.500000 1.000000
vt 0.000000 0.000000
vt 1.000000 0.000000
vt 0.000000 0.000000
vt 1.000000 0.000000
vt 1.000000 1.000000
vt 0.000000 1.000000
vt 0.000000 0.000000
vt 1.000000 0.000000
vt 1.000000 1.000000
vt 0.000000 1.000000
vt 0.500000 1.000000
vt 0.000000 0.000000
vt 1.000000 0.000000
vt 0.500000 1.000000
vt 0.000000 0.000000
vt 1.000000 0.000000
vt 0.000000 0.000000
vt 1.000000 0.000000
vt 1.000000 1.000000
vt 0.000000 1.000000
vt 0.000000 0.000000
vt 1.000000 0.000000
vt 1.000000 1.000000
vt 0.000000 1.000000
vt 0.500000 1.000000
vt 0.000000 0.000000
vt 1.000000 0.000000
vt 0.500000 1.000000
vt 0.000000 0.000000
vt 1.000000 0.000000
vt 0.000000 0.000000
vt 1.000000 0.000000
vt 1.000000 1.000000
vt 0.000000 1.000000
vt 0.000000 0.000000
vt 1.000000 0.000000
vt 1.000000 1.000000
vt 0.000000 1.000000
vt 0.500000 1.000000
vt 0.000000 0.000000
vt 1.000000 0.000000
vt 0.500000 1.000000
vt 0.000000 0.000000
vt 1.000000 0.000000
vt 0.000000 0.000000
vt 1.000000 0.000000
vt 1.000000 1.000000
vt 0.000000 1.000000
vt 0.000000 0.000000
vt 1.000000 0.000000
vt 1.000000 1.000000
vt 0.000000 1.000000
vt 0.500000 1.000000
vt 0.000000 0.000000
vt 1.000000 0.000000
vt 0.000000 0.000000
vt 1.000000 0.000000
vt 1.000000 1.000000
vt 0.000000 1.000000
vt 0.500000 1.000000
vt 0.000000 0.000000
vt 1.000000 0.000000
vt 0.500000 1.000000
vt 0.000000 0.000000
vt 1.000000 0.000000
vt 0.000000 0.000000
vt 1.000000 0.000000
vt 1.000000 1.000000
vt 0.000000 1.000000
vt 0.500000 1.000000
vt 0.000000 0.000000
vt 1.000000 0.000000
vt 0.500000 1.000000
vt 0.000000 0.000000
vt 1.000000 0.000000
vt 0.000000 0.000000
vt 1.000000 0.000000
vt 1.000000 1.000000
vt 0.000000 1.000000
vt 0.500000 1.000000
vt 0.000000 0.000000
vt 1.000000 0.000000
vt 0.500000 1.000000
vt 0.000000 0.000000
vt 1.000000 0.000000
vt 0.000000 0.000000
vt 1.000000 0.000000
vt 1.000000 1.000000
vt 0.000000 1.000000
vt 0.500000 1.000000
vt 0.000000 0.000000
vt 1.000000 0.000000
vt 0.500000 1.000000
vt 0.000000 0.000000
vt 1.000000 0.000000
vt 0.000000 0.000000
vt 1.000000 0.000000
vt 1.000000 1.000000
vt 0.000000 1.000000
vt 0.500000 1.000000
vt 0.000000 0.000000
vt 1.000000 0.000000
vt 0.500000 1.000000
vt 0.000000 0.000000
vt 1.000000 0.000000
vt 0.000000 0.000000
vt 1.000000 0.000000
vt 1.000000 1.000000
vt 0.000000 1.000000
vt 0.500000 1.000000
vt 0.000000 0.000000
vt 1.000000 0.000000
vt 0.500000 1.000000
vt 0.000000 0.000000
vt 1.000000 0.000000
vt 0.000000 0.000000
vt 1.000000 0.000000
vt 1.000000 1.000000
vt 0.000000 1.000000
vt 0.500000 1.000000
vt 0.000000 0.000000
vt 1.000000 0.000000
vt 0.500000 1.000000
vt 0.000000 0.000000
vt 1.000000 0.000000
vt 0.000000 0.000000
vt 1.000000 0.000000
vt 1.000000 1.000000
vt 0.000000 1.000000
vt 0.500000 1.000000
vt 0.000000 0.000000
vt 1.000000 0.000000
vt 0.500000 1.000000
vt 0.000000 0.000000
vt 1.000000 0.000000
vt 0.000000 0.000000
vt 1.000000 0.000000
vt 1.000000 1.000000
vt 0.000000 1.000000
vt 0.500000 1.000000
vt 0.000000 0.000000
vt 1.000000 0.000000
vt 0.500000 1.000000
vt 0.000000 0.000000
vt 1.000000 0.000000
vt 0.000000 0.000000
vt 1.000000 0.000000
vt 1.000000 1.000000
vt 0.000000 1.000000
vt 0.500000 1.000000
vt 0.000000 0.000000
vt 1.000000 0.000000
vt 0.500000 1.000000
vt 0.000000 0.000000
vt 1.000000 0.000000
vt 0.000000 0.000000
vt 1.000000 0.000000
vt 1.000000 1.000000
vt 0.000000 1.000000
vt 0.500000 1.000000
vt 0.000000 0.000000
vt 1.000000 0.000000
vt 0.500000 1.000000
vt 0.000000 0.000000
vt 1.000000 0.000000
vt 0.000000 0.000000
vt 1.000000 0.000000
vt 1.000000 1.000000
vt 0.000000 1.000000
vt 0.500000 1.000000
vt 0.000000 0.000000
vt 1.000000 0.000000
vt 0.500000 1.000000
vt 0.000000 0.000000
vt 1.000000 0.000000
vt 0.000000 0.000000
vt 1.000000 0.000000
vt 1.000000 1.000000
vt 0.000000 1.000000
vt 0.500000 1.000000
vt 0.000000 0.000000
vt 1.000000 0.000000
vt 0.500000 1.000000
vt 0.000000 0.000000
vt 1.000000 0.000000
vt 0.000000 0.000000
vt 1.000000 0.000000
vt 1.000000 1.000000
vt 0.000000 1.000000
vt 0.500000 1.000000
vt 0.000000 0.000000
vt 1.000000 0.000000
vt 0.500000 1.000000
vt 0.000000 0.000000
vt 1.000000 0.000000
vt 0.000000 0.000000
vt 1.000000 0.000000
vt 1.000000 1.000000
vt 0.000000 1.000000
vt 0.500000 1.000000
vt 0.000000 0.000000
vt 1.000000 0.000000
vt 0.500000 1.000000
vt 0.000000 0.000000
vt 1.000000 0.000000
vt 0.000000 0.000000
vt 1.000000 0.000000
vt 1.000000 1.000000
vt 0.000000 1.000000
vt 0.500000 1.000000
vt 0.000000 0.000000
vt 1.000000 0.000000
vt 0.500000 1.000000
vt 0.000000 0.000000
vt 1.000000 0.000000
vt 0.000000 0.000000
vt 1.000000 0.000000
vt 1.000000 1.000000
vt 0.000000 1.000000
vt 0.500000 1.000000
vt 0.000000 0.000000
vt 1.000000 0.000000
vt 0.500000 1.000000
vt 0.000000 0.000000
vt 1.000000 0.000000
vt 0.000000 0.000000
vt 1.000000 0.000000
vt 1.000000 1.000000
vt 0.000000 1.000000
vt 0.500000 1.000000
vt 0.000000 0.000000
vt 1.000000 0.000000
vt 0.500000 1.000000
vt 0.000000 0.000000
vt 1.000000 0.000000
vt 0.000000 0.000000
vt 1.000000 0.000000
vt 1.000000 1.000000
vt 0.000000 1.000000
vt 0.500000 1.000000
vt 0.000000 0.000000
vt 1.000000 0.000000
vt 0.500000 1.000000
vt 0.000000 0.000000
vt 1.000000 0.000000
vt 0.000000 0.000000
vt 1.000000 0.000000
vt 1.000000 1.000000
vt 0.000000 1.000000
vt 0.500000 1.000000
vt 0.000000 0.000000
vt 1.000000 0.000000
vt 0.500000 1.000000
vt 0.000000 0.000000
vt 1.000000 0.000000
vt 0.000000 0.000000
vt 1.000000 0.000000
vt 1.000000 1.000000
vt 0.000000 1.000000
vt 0.500000 1.000000
vt 0.000000 0.000000
vt 1.000000 0.000000
vt 0.500000 1.000000
vt 0.000000 0.000000
vt 1.000000 0.000000
vt 0.000000 0.000000
vt 1.000000 0.000000
vt 1.000000 1.000000
vt 0.000000 1.000000
vt 0.500000 1.000000
vt 0.000000 0.000000
vt 1.000000 0.000000
vt 0.500000 1.000000
vt 0.000000 0.000000
vt 1.000000 0.000000
vt 0.000000 0.000000
vt 1.000000 0.000000
vt 1.000000 1.000000
vt 0.000000 1.000000
vt 0.500000 1.000000
vt 0.000000 0.000000
vt 1.000000 0.000000
vt 0.500000 1.000000
vt 0.000000 0.000000
vt 1.000000 0.000000
vt 0.000000 0.000000
vt 1.000000 0.000000
vt 1.000000 1.000000
vt 0.000000 1.000000
vt 0.500000 1.000000
vt 0.000000 0.000000
vt 1.000000 0.000000
vt 0.500000 1.000000
vt 0.000000 0.000000
vt 1.000000 0.000000
vt 0.000000 0.000000
vt 1.000000 0.000000
vt 1.000000 1.000000
vt 0.000000 1.000000
vt 0.500000 1.000000
vt 0.000000 0.000000
vt 1.000000 0.000000
vt 0.500000 1.000000
vt 0.000000 0.000000
vt 1.000000 0.000000
vt 0.000000 0.000000
vt 1.000000 0.000000
vt 1.000000 1.000000
vt 0.000000 1.000000
vt 0.500000 1.000000
vt 0.000000 0.000000
vt 1.000000 0.000000
vt 0.500000 1.000000
vt 0.000000 0.000000
vt 1.000000 0.000000
vt 0.000000 0.000000
vt 1.000000 0.000000
vt 1.000000 1.000000
vt 0.000000 1.000000
vt 0.500000 1.000000
vt 0.000000 0.000000
vt 1.000000 0.000000
vt 0.500000 1.000000
vt 0.000000 0.000000
vt 1.000000 0.000000
vt 0.000000 0.000000
vt 1.000000 0.000000
vt 1.000000 1.000000
vt 0.000000 1.000000
vt 0.500000 1.000000
vt 0.000000 0.000000
vt 1.000000 0.000000
vt 0.500000 1.000000
vt 0.000000 0.000000
vt 1.000000 0.000000
vt 0.000000 0.000000
vt 1.000000 0.000000
vt 1.000000 1.000000
vt 0.000000 1.000000
vt 0.500000 1.000000
vt 0.000000 0.000000
vt 1.000000 0.000000
vt 0.500000 1.000000
vt 0.000000 0.000000
vt 1.000000 0.000000
vt 0.000000 0.000000
vt 1.000000 0.000000
vt 1.000000 1.000000
vt 0.000000 1.000000
vt 0.500000 1.000000
vt 0.000000 0.000000
vt 1.000000 0.000000
vt 0.500000 1.000000
vt 0.000000 0.000000
vt 1.000000 0.000000
vt 0.000000 0.000000
vt 1.000000 0.000000
vt 1.000000 1.000000
vt 0.000000 1.000000
vt 0.500000 1.000000
vt 0.000000 0.000000
vt 1.000000 0.000000
vt 0.500000 1.000000
vt 0.000000 0.000000
vt 1.000000 0.000000
vt 0.000000 0.000000
vt 1.000000 0.000000
vt 1.000000 1.000000
vt 0.000000 1.000000
vt 0.500000 1.000000
vt 0.000000 0.000000
vt 1.000000 0.000000
vt 0.500000 1.000000
vt 0.000000 0.000000
vt 1.000000 0.000000
vt 0.000000 0.000000
vt 1.000000 0.000000
vt 1.000000 1.000000
vt 0.000000 1.000000
vt 0.500000 1.000000
vt 0.000000 0.000000
vt 1.000000 0.000000
vt 0.500000 1.000000
vt 0.000000 0.000000
vt 1.000000 0.000000
vt 0.000000 0.000000
vt 1.000000 0.000000
vt 1.000000 1.000000
vt 0.000000 1.000000
vt 0.500000 1.000000
vt 0.000000 0.000000
vt 1.000000 0.000000
vt 0.500000 1.000000
vt 0.000000 0.000000
vt 1.000000 0.000000
vt 0.000000 0.000000
vt 1.000000 0.000000
vt 1.000000 1.000000
vt 0.000000 1.000000
vt 0.500000 1.000000
vt 0.000000 0.000000
vt 1.000000 0.000000
vt 0.500000 1.000000
vt 0.000000 0.000000
vt 1.000000 0.000000
vt 0.000000 0.000000
vt 1.000000 0.000000
vt 1.000000 1.000000
vt 0.000000 1.000000
vt 0.500000 1.000000
vt 0.000000 0.000000
vt 1.000000 0.000000
vt 0.500000 1.000000
vt 0.000000 0.000000
vt 1.000000 0.000000
vt 0.000000 0.000000
vt 1.000000 0.000000
vt 1.000000 1.000000
vt 0.000000 1.000000
vt 0.500000 1.000000
vt 0.000000 0.000000
vt 1.000000 0.000000
vt 0.500000 1.000000
vt 0.000000 0.000000
vt 1.000000 0.000000
vt 0.000000 0.000000
vt 1.000000 0.000000
vt 1.000000 1.000000
vt 0.000000 1.000000
vt 0.500000 1.000000
vt 0.000000 0.000000
vt 1.000000 0.000000
vt 0.500000 1.000000
vt 0.000000 0.000000
vt 1.000000 0.000000
vt 0.000000 0.000000
vt 1.000000 0.000000
vt 1.000000 1.000000
vt 0.000000 1.000000
vt 0.500000 1.000000
vt 0.000000 0.000000
vt 1.000000 0.000000
vt 0.500000 1.000000
vt 0.000000 0.000000
vt 1.000000 0.000000
vt 0.000000 0.000000
vt 1.000000 0.000000
vt 1.000000 1.000000
vt 0.000000 1.000000
vt 0.500000 1.000000
vt 0.000000 0.000000
vt 1.000000 0.000000
vt 0.500000 1.000000
vt 0.000000 0.000000
vt 1.000000 0.000000
vt 0.000000 0.000000
vt 1.000000 0.000000
vt 1.000000 1.000000
vt 0.000000 1.000000
vt 0.500000 1.000000
vt 0.000000 0.000000
vt 1.000000 0.000000
vt 0.500000 1.000000
vt 0.000000 0.000000
vt 1.000000 0.000000
vt 0.000000 0.000000
vt 1.000000 0.000000
vt 1.000000 1.000000
vt 0.000000 1.000000
vt 0.500000 1.000000
vt 0.000000 0.000000
vt 1.000000 0.000000
vt 0.500000 1.000000
vt 0.000000 0.000000
vt 1.000000 0.000000
s 1
usemtl models/caelum/world/environment/rock_granite.png
f 1/1 2/2 3/3
f 4/4 5/5 6/6 7/7
f 8/8 9/9 10/10 11/11
f 12/12 13/13 14/14
f 15/15 16/16 17/17
f 18/18 19/19 20/20 21/21
f 22/22 23/23 24/24 25/25
f 26/26 27/27 28/28
f 29/29 30/30 31/31
f 32/32 33/33 34/34 35/35
f 36/36 37/37 38/38 39/39
f 40/40 41/41 42/42
f 43/43 44/44 45/45
f 46/46 47/47 48/48 49/49
f 50/50 51/51 52/52 53/53
f 54/54 55/55 56/56
f 57/57 58/58 59/59
f 60/60 61/61 62/62 63/63
f 64/64 65/65 66/66 67/67
f 68/68 69/69 70/70
f 71/71 72/72 73/73
f 74/74 75/75 76/76 77/77
f 78/78 79/79 80/80 81/81
f 82/82 83/83 84/84
f 85/85 86/86 87/87
f 88/88 89/89 90/90 91/91
f 92/92 93/93 94/94 95/95
f 96/96 97/97 98/98
f 99/99 100/100 101/101
f 102/102 103/103 104/104 105/105
f 106/106 107/107 108/108 109/109
f 110/110 111/111 112/112
f 113/113 114/114 115/115
f 116/116 117/117 118/118 119/119
f 120/120 121/121 122/122 123/123
f 124/124 125/125 126/126
f 127/127 128/128 129/129
f 130/130 131/131 132/132 133/133
f 134/134 135/135 136/136 137/137
f 138/138 139/139 140/140
usemtl models/caelum/world/resources/ca_vein_sapphire.png
f 141/141 142/142 143/143 144/144
f 145/145 146/146 147/147
f 148/148 149/149 150/150
f 151/151 152/152 153/153 154/154
f 155/155 156/156 157/157
f 158/158 159/159 160/160
f 161/161 162/162 163/163 164/164
f 165/165 166/166 167/167
f 168/168 169/169 170/170
f 171/171 172/172 173/173 174/174
f 175/175 176/176 177/177
f 178/178 179/179 180/180
f 181/181 182/182 183/183 184/184
f 185/185 186/186 187/187
f 188/188 189/189 190/190
f 191/191 192/192 193/193 194/194
f 195/195 196/196 197/197
f 198/198 199/199 200/200
f 201/201 202/202 203/203 204/204
f 205/205 206/206 207/207
f 208/208 209/209 210/210
f 211/211 212/212 213/213 214/214
f 215/215 216/216 217/217
f 218/218 219/219 220/220
f 221/221 222/222 223/223 224/224
f 225/225 226/226 227/227
f 228/228 229/229 230/230
f 231/231 232/232 233/233 234/234
f 235/235 236/236 237/237
f 238/238 239/239 240/240
f 241/241 242/242 243/243 244/244
f 245/245 246/246 247/247
f 248/248 249/249 250/250
f 251/251 252/252 253/253 254/254
f 255/255 256/256 257/257
f 258/258 259/259 260/260
f 261/261 262/262 263/263 264/264
f 265/265 266/266 267/267
f 268/268 269/269 270/270
f 271/271 272/272 273/273 274/274
f 275/275 276/276 277/277
f 278/278 279/279 280/280
f 281/281 282/282 283/283 284/284
f 285/285 286/286 287/287
f 288/288 289/289 290/290
f 291/291 292/292 293/293 294/294
f 295/295 296/296 297/297
f 298/298 299/299 300/300
f 301/301 302/302 303/303 304/304
f 305/305 306/306 307/307
f 308/308 309/309 310/310
f 311/311 312/312 313/313 314/314
f 315/315 316/316 317/317
f 318/318 319/319 320/320
f 321/321 322/322 323/323 324/324
f 325/325 326/326 327/327
f 328/328 329/329 330/330
f 331/331 332/332 333/333 334/334
f 335/335 336/336 337/337
f 338/338 339/339 340/340
f 341/341 342/342 343/343 344/344
f 345/345 346/346 347/347
f 348/348 349/349 350/350
f 351/351 352/352 353/353 354/354
f 355/355 356/356 357/357
f 358/358 359/359 360/360
f 361/361 362/362 363/363 364/364
f 365/365 366/366 367/367
f 368/368 369/369 370/370
f 371/371 372/372 373/373 374/374
f 375/375 376/376 377/377
f 378/378 379/379 380/380
f 381/381 382/382 383/383 384/384
f 385/385 386/386 387/387
f 388/388 389/389 390/390
f 391/391 392/392 393/393 394/394
f 395/395 396/396 397/397
f 398/398 399/399 400/400
f 401/401 402/402 403/403 404/404
f 405/405 406/406 407/407
f 408/408 409/409 410/410
f 411/411 412/412 413/413 414/414
f 415/415 416/416 417/417
f 418/418 419/419 420/420
f 421/421 422/422 423/423 424/424
f 425/425 426/426 427/427
f 428/428 429/429 430/430
f 431/431 432/432 433/433 434/434
f 435/435 436/436 437/437
f 438/438 439/439 440/440
f 441/441 442/442 443/443 444/444
f 445/445 446/446 447/447
f 448/448 449/449 450/450
f 451/451 452/452 453/453 454/454
f 455/455 456/456 457/457
f 458/458 459/459 460/460
f 461/461 462/462 463/463 464/464
f 465/465 466/466 467/467
f 468/468 469/469 470/470
f 471/471 472/472 473/473 474/474
f 475/475 476/476 477/477
f 478/478 479/479 480/480
f 481/481 482/482 483/483 484/484
f 485/485 486/486 487/487
f 488/488 489/489 490/490
f 491/491 492/492 493/493 494/494
f 495/495 496/496 497/497
f 498/498 499/499 500/500
f 501/501 502/502 503/503 504/504
f 505/505 506/506 507/507
f 508/508 509/509 510/510
f 511/511 512/512 513/513 514/514
f 515/515 516/516 517/517
f 518/518 519/519 520/520
f 521/521 522/522 523/523 524/524
f 525/525 526/526 527/527
f 528/528 529/529 530/530
f 531/531 532/532 533/533 534/534
f 535/535 536/536 537/537
f 538/538 539/539 540/540
f 541/541 542/542 543/543 544/544
f 545/545 546/546 547/547
f 548/548 549/549 550/550
f 551/551 552/552 553/553 554/554
f 555/555 556/556 557/557
f 558/558 559/559 560/560
