# Modelo original generado para Caelum Argenteum.
# Ejes OBJ: X ancho, Y altura, Z profundidad.
o ca_vein_copper3
v 0.000000 0.000000 0.000000
v 34.657810 -0.440648 0.000000
v 30.002899 1.564249 18.825875
v 34.657810 -0.440648 0.000000
v 51.358897 18.126698 0.000000
v 33.216483 17.743048 20.842298
v 30.002899 1.564249 18.825875
v 51.358897 18.126698 0.000000
v 27.791443 34.340121 0.000000
v 30.733941 35.460870 19.284582
v 33.216483 17.743048 20.842298
v -9.004170 52.000000 -9.666699
v 30.733941 35.460870 19.284582
v 27.791443 34.340121 0.000000
v 0.000000 0.000000 0.000000
v 30.002899 1.564249 18.825875
v 13.026106 -1.334688 34.623383
v 30.002899 1.564249 18.825875
v 33.216483 17.743048 20.842298
v 12.022542 15.233538 31.955910
v 13.026106 -1.334688 34.623383
v 33.216483 17.743048 20.842298
v 30.733941 35.460870 19.284582
v 10.086713 35.923494 26.810476
v 12.022542 15.233538 31.955910
v -9.004170 52.000000 -9.666699
v 10.086713 35.923494 26.810476
v 30.733941 35.460870 19.284582
v 0.000000 0.000000 0.000000
v 13.026106 -1.334688 34.623383
v -13.418348 0.595266 35.665960
v 13.026106 -1.334688 34.623383
v 12.022542 15.233538 31.955910
v -13.231612 17.348410 35.169618
v -13.418348 0.595266 35.665960
v 12.022542 15.233538 31.955910
v 10.086713 35.923494 26.810476
v -11.366176 36.734228 30.211290
v -13.231612 17.348410 35.169618
v -9.004170 52.000000 -9.666699
v -11.366176 36.734228 30.211290
v 10.086713 35.923494 26.810476
v 0.000000 0.000000 0.000000
v -13.418348 0.595266 35.665960
v -30.268098 -1.721245 18.992279
v -13.418348 0.595266 35.665960
v -13.231612 17.348410 35.169618
v -33.594568 15.951551 21.079535
v -30.268098 -1.721245 18.992279
v -13.231612 17.348410 35.169618
v -11.366176 36.734228 30.211290
v -27.099115 33.947137 17.003842
v -33.594568 15.951551 21.079535
v -9.004170 52.000000 -9.666699
v -27.099115 33.947137 17.003842
v -11.366176 36.734228 30.211290
v 0.000000 0.000000 0.000000
v -30.268098 -1.721245 18.992279
v -34.988880 0.952296 0.000000
v -30.268098 -1.721245 18.992279
v -33.594568 15.951551 21.079535
v -46.230722 15.824221 0.000000
v -34.988880 0.952296 0.000000
v -33.594568 15.951551 21.079535
v -27.099115 33.947137 17.003842
v -26.712851 37.010630 0.000000
v -46.230722 15.824221 0.000000
v -9.004170 52.000000 -9.666699
v -26.712851 37.010630 0.000000
v -27.099115 33.947137 17.003842
v 0.000000 0.000000 0.000000
v -34.988880 0.952296 0.000000
v -33.668713 1.422908 -21.126059
v -34.988880 0.952296 0.000000
v -46.230722 15.824221 0.000000
v -31.207927 18.141302 -19.581993
v -33.668713 1.422908 -21.126059
v -46.230722 15.824221 0.000000
v -26.712851 37.010630 0.000000
v -26.479059 34.257555 -16.614777
v -31.207927 18.141302 -19.581993
v -9.004170 52.000000 -9.666699
v -26.479059 34.257555 -16.614777
v -26.712851 37.010630 0.000000
v 0.000000 0.000000 0.000000
v -33.668713 1.422908 -21.126059
v -13.379853 0.674321 -35.563640
v -33.668713 1.422908 -21.126059
v -31.207927 18.141302 -19.581993
v -15.569087 17.577592 -41.382624
v -13.379853 0.674321 -35.563640
v -31.207927 18.141302 -19.581993
v -26.479059 34.257555 -16.614777
v -8.596935 36.084008 -22.850648
v -15.569087 17.577592 -41.382624
v -9.004170 52.000000 -9.666699
v -8.596935 36.084008 -22.850648
v -26.479059 34.257555 -16.614777
v 0.000000 0.000000 0.000000
v -13.379853 0.674321 -35.563640
v 12.419226 1.240581 -33.010294
v -13.379853 0.674321 -35.563640
v -15.569087 17.577592 -41.382624
v 11.832975 15.581573 -31.452040
v 12.419226 1.240581 -33.010294
v -15.569087 17.577592 -41.382624
v -8.596935 36.084008 -22.850648
v 8.493262 33.622167 -22.575086
v 11.832975 15.581573 -31.452040
v -9.004170 52.000000 -9.666699
v 8.493262 33.622167 -22.575086
v -8.596935 36.084008 -22.850648
v 0.000000 0.000000 0.000000
v 12.419226 1.240581 -33.010294
v 29.765490 -1.572140 -18.676909
v 12.419226 1.240581 -33.010294
v 11.832975 15.581573 -31.452040
v 36.861181 16.204830 -23.129231
v 29.765490 -1.572140 -18.676909
v 11.832975 15.581573 -31.452040
v 8.493262 33.622167 -22.575086
v 26.304271 37.060876 -16.505103
v 36.861181 16.204830 -23.129231
v -9.004170 52.000000 -9.666699
v 26.304271 37.060876 -16.505103
v 8.493262 33.622167 -22.575086
v 0.000000 0.000000 0.000000
v 29.765490 -1.572140 -18.676909
v 34.657810 -0.440648 0.000000
v 29.765490 -1.572140 -18.676909
v 36.861181 16.204830 -23.129231
v 51.358897 18.126698 0.000000
v 34.657810 -0.440648 0.000000
v 36.861181 16.204830 -23.129231
v 26.304271 37.060876 -16.505103
v 27.791443 34.340121 0.000000
v 51.358897 18.126698 0.000000
v -9.004170 52.000000 -9.666699
v 27.791443 34.340121 0.000000
v 26.304271 37.060876 -16.505103
v 32.620760 19.193659 -1.627629
v 38.282700 22.985667 2.542083
v 39.961520 22.550094 -1.627629
v 39.961520 22.550094 -1.627629
v 38.282700 22.985667 2.542083
v 38.400770 29.553536 2.629035
v 40.632303 29.578228 -1.627629
v 32.620760 32.316173 -1.627629
v 40.632303 29.578228 -1.627629
v 38.400770 29.553536 2.629035
v 32.620760 19.193659 -1.627629
v 30.569805 22.728917 3.649705
v 38.282700 22.985667 2.542083
v 38.282700 22.985667 2.542083
v 30.569805 22.728917 3.649705
v 30.575927 28.998017 3.633954
v 38.400770 29.553536 2.629035
v 32.620760 32.316173 -1.627629
v 38.400770 29.553536 2.629035
v 30.575927 28.998017 3.633954
v 32.620760 19.193659 -1.627629
v 23.934536 22.665394 0.829068
v 30.569805 22.728917 3.649705
v 30.569805 22.728917 3.649705
v 23.934536 22.665394 0.829068
v 25.087723 28.564300 0.502915
v 30.575927 28.998017 3.633954
v 32.620760 32.316173 -1.627629
v 30.575927 28.998017 3.633954
v 25.087723 28.564300 0.502915
v 32.620760 19.193659 -1.627629
v 26.206441 22.052571 -3.441771
v 23.934536 22.665394 0.829068
v 23.934536 22.665394 0.829068
v 26.206441 22.052571 -3.441771
v 24.045311 29.579888 -4.052996
v 25.087723 28.564300 0.502915
v 32.620760 32.316173 -1.627629
v 25.087723 28.564300 0.502915
v 24.045311 29.579888 -4.052996
v 32.620760 19.193659 -1.627629
v 30.692583 21.901411 -6.589045
v 26.206441 22.052571 -3.441771
v 26.206441 22.052571 -3.441771
v 30.692583 21.901411 -6.589045
v 30.751981 28.715725 -6.436207
v 24.045311 29.579888 -4.052996
v 32.620760 32.316173 -1.627629
v 24.045311 29.579888 -4.052996
v 30.751981 28.715725 -6.436207
v 32.620760 19.193659 -1.627629
v 38.015031 22.842965 -5.600217
v 30.692583 21.901411 -6.589045
v 30.692583 21.901411 -6.589045
v 38.015031 22.842965 -5.600217
v 37.713086 29.330932 -5.377852
v 30.751981 28.715725 -6.436207
v 32.620760 32.316173 -1.627629
v 30.751981 28.715725 -6.436207
v 37.713086 29.330932 -5.377852
v 32.620760 19.193659 -1.627629
v 39.961520 22.550094 -1.627629
v 38.015031 22.842965 -5.600217
v 38.015031 22.842965 -5.600217
v 39.961520 22.550094 -1.627629
v 40.632303 29.578228 -1.627629
v 37.713086 29.330932 -5.377852
v 32.620760 32.316173 -1.627629
v 37.713086 29.330932 -5.377852
v 40.632303 29.578228 -1.627629
v 23.743790 22.012671 22.652265
v 26.392509 24.168607 28.348741
v 28.915217 23.933809 22.652265
v 28.915217 23.933809 22.652265
v 26.392509 24.168607 28.348741
v 26.101241 28.409207 27.722324
v 28.166692 28.714726 22.652265
v 23.743790 30.827534 22.652265
v 28.166692 28.714726 22.652265
v 26.101241 28.409207 27.722324
v 23.743790 22.012671 22.652265
v 22.718716 24.575569 30.354972
v 26.392509 24.168607 28.348741
v 26.392509 24.168607 28.348741
v 22.718716 24.575569 30.354972
v 22.602194 28.380360 31.230551
v 26.101241 28.409207 27.722324
v 23.743790 30.827534 22.652265
v 26.101241 28.409207 27.722324
v 22.602194 28.380360 31.230551
v 23.743790 22.012671 22.652265
v 19.565100 24.063494 26.103625
v 22.718716 24.575569 30.354972
v 22.718716 24.575569 30.354972
v 19.565100 24.063494 26.103625
v 20.216484 28.287088 25.565619
v 22.602194 28.380360 31.230551
v 23.743790 30.827534 22.652265
v 22.602194 28.380360 31.230551
v 20.216484 28.287088 25.565619
v 23.743790 22.012671 22.652265
v 20.105972 24.239415 19.647634
v 19.565100 24.063494 26.103625
v 19.565100 24.063494 26.103625
v 20.105972 24.239415 19.647634
v 20.424776 28.267169 19.910948
v 20.216484 28.287088 25.565619
v 23.743790 30.827534 22.652265
v 20.216484 28.287088 25.565619
v 20.424776 28.267169 19.910948
v 23.743790 22.012671 22.652265
v 22.609127 24.288065 14.126073
v 20.105972 24.239415 19.647634
v 20.105972 24.239415 19.647634
v 22.609127 24.288065 14.126073
v 22.850177 28.931608 15.937390
v 20.424776 28.267169 19.910948
v 23.743790 30.827534 22.652265
v 20.424776 28.267169 19.910948
v 22.850177 28.931608 15.937390
v 23.743790 22.012671 22.652265
v 26.366071 24.463248 17.012648
v 22.609127 24.288065 14.126073
v 22.609127 24.288065 14.126073
v 26.366071 24.463248 17.012648
v 26.772732 28.633141 16.138062
v 22.850177 28.931608 15.937390
v 23.743790 30.827534 22.652265
v 22.850177 28.931608 15.937390
v 26.772732 28.633141 16.138062
v 23.743790 22.012671 22.652265
v 28.915217 23.933809 22.652265
v 26.366071 24.463248 17.012648
v 26.366071 24.463248 17.012648
v 28.915217 23.933809 22.652265
v 28.166692 28.714726 22.652265
v 26.772732 28.633141 16.138062
v 23.743790 30.827534 22.652265
v 26.772732 28.633141 16.138062
v 28.166692 28.714726 22.652265
v 1.958351 32.390573 32.252878
v 6.871456 34.901050 38.982425
v 8.560935 34.948733 32.252878
v 8.560935 34.948733 32.252878
v 6.871456 34.901050 38.982425
v 6.818676 41.474699 38.910131
v 9.012779 40.851134 32.252878
v 1.958351 44.332286 32.252878
v 9.012779 40.851134 32.252878
v 6.818676 41.474699 38.910131
v 1.958351 32.390573 32.252878
v 0.260727 34.838864 40.377235
v 6.871456 34.901050 38.982425
v 6.871456 34.901050 38.982425
v 0.260727 34.838864 40.377235
v 0.600794 41.127191 38.749770
v 6.818676 41.474699 38.910131
v 1.958351 44.332286 32.252878
v 6.818676 41.474699 38.910131
v 0.600794 41.127191 38.749770
v 1.958351 32.390573 32.252878
v -3.880317 35.138893 35.324185
v 0.260727 34.838864 40.377235
v 0.260727 34.838864 40.377235
v -3.880317 35.138893 35.324185
v -3.772199 41.302201 35.267312
v 0.600794 41.127191 38.749770
v 1.958351 44.332286 32.252878
v 0.600794 41.127191 38.749770
v -3.772199 41.302201 35.267312
v 1.958351 32.390573 32.252878
v -5.380036 35.374933 28.392675
v -3.880317 35.138893 35.324185
v -3.880317 35.138893 35.324185
v -5.380036 35.374933 28.392675
v -4.081771 41.636021 29.075600
v -3.772199 41.302201 35.267312
v 1.958351 44.332286 32.252878
v -3.772199 41.302201 35.267312
v -4.081771 41.636021 29.075600
v 1.958351 32.390573 32.252878
v 0.159368 35.868690 23.643444
v -5.380036 35.374933 28.392675
v -5.380036 35.374933 28.392675
v 0.159368 35.868690 23.643444
v 0.443307 41.599559 25.002300
v -4.081771 41.636021 29.075600
v 1.958351 44.332286 32.252878
v -4.081771 41.636021 29.075600
v 0.443307 41.599559 25.002300
v 1.958351 32.390573 32.252878
v 6.066324 35.089451 26.626131
v 0.159368 35.868690 23.643444
v 0.159368 35.868690 23.643444
v 6.066324 35.089451 26.626131
v 6.336972 41.353536 26.255421
v 0.443307 41.599559 25.002300
v 1.958351 44.332286 32.252878
v 0.443307 41.599559 25.002300
v 6.336972 41.353536 26.255421
v 1.958351 32.390573 32.252878
v 8.560935 34.948733 32.252878
v 6.066324 35.089451 26.626131
v 6.066324 35.089451 26.626131
v 8.560935 34.948733 32.252878
v 9.012779 40.851134 32.252878
v 6.336972 41.353536 26.255421
v 1.958351 44.332286 32.252878
v 6.336972 41.353536 26.255421
v 9.012779 40.851134 32.252878
v -13.900363 33.786546 19.464494
v -7.966819 36.256830 26.494005
v -4.855720 35.982543 19.464494
v -4.855720 35.982543 19.464494
v -7.966819 36.256830 26.494005
v -8.634863 40.299238 25.702568
v -5.716658 39.982045 19.464494
v -13.900363 42.300602 19.464494
v -5.716658 39.982045 19.464494
v -8.634863 40.299238 25.702568
v -13.900363 33.786546 19.464494
v -15.473042 35.910139 25.974312
v -7.966819 36.256830 26.494005
v -7.966819 36.256830 26.494005
v -15.473042 35.910139 25.974312
v -15.989806 40.541591 28.113363
v -8.634863 40.299238 25.702568
v -13.900363 42.300602 19.464494
v -8.634863 40.299238 25.702568
v -15.989806 40.541591 28.113363
v -13.900363 33.786546 19.464494
v -20.949578 35.926790 22.671734
v -15.473042 35.910139 25.974312
v -15.473042 35.910139 25.974312
v -20.949578 35.926790 22.671734
v -22.242845 40.325506 23.260142
v -15.989806 40.541591 28.113363
v -13.900363 42.300602 19.464494
v -15.989806 40.541591 28.113363
v -22.242845 40.325506 23.260142
v -13.900363 33.786546 19.464494
v -20.440025 35.964282 16.489089
v -20.949578 35.926790 22.671734
v -20.949578 35.926790 22.671734
v -20.440025 35.964282 16.489089
v -20.645658 39.815772 16.395531
v -22.242845 40.325506 23.260142
v -13.900363 42.300602 19.464494
v -22.242845 40.325506 23.260142
v -20.645658 39.815772 16.395531
v -13.900363 33.786546 19.464494
v -16.002720 35.858238 10.762171
v -20.440025 35.964282 16.489089
v -20.440025 35.964282 16.489089
v -16.002720 35.858238 10.762171
v -15.861672 40.496340 11.346011
v -20.645658 39.815772 16.395531
v -13.900363 42.300602 19.464494
v -20.645658 39.815772 16.395531
v -15.861672 40.496340 11.346011
v -13.900363 33.786546 19.464494
v -9.073497 35.972212 13.746072
v -16.002720 35.858238 10.762171
v -16.002720 35.858238 10.762171
v -9.073497 35.972212 13.746072
v -8.352940 40.404856 12.892423
v -15.861672 40.496340 11.346011
v -13.900363 42.300602 19.464494
v -15.861672 40.496340 11.346011
v -8.352940 40.404856 12.892423
v -13.900363 33.786546 19.464494
v -4.855720 35.982543 19.464494
v -9.073497 35.972212 13.746072
v -9.073497 35.972212 13.746072
v -4.855720 35.982543 19.464494
v -5.716658 39.982045 19.464494
v -8.352940 40.404856 12.892423
v -13.900363 42.300602 19.464494
v -8.352940 40.404856 12.892423
v -5.716658 39.982045 19.464494
v -25.658388 19.110860 10.294070
v -21.012821 21.595592 14.800254
v -17.563612 21.668445 10.294070
v -17.563612 21.668445 10.294070
v -21.012821 21.595592 14.800254
v -21.090779 25.928498 14.724635
v -19.249304 25.732610 10.294070
v -25.658388 27.860946 10.294070
v -19.249304 25.732610 10.294070
v -21.090779 25.928498 14.724635
v -25.658388 19.110860 10.294070
v -27.498880 21.085933 16.531731
v -21.012821 21.595592 14.800254
v -21.012821 21.595592 14.800254
v -27.498880 21.085933 16.531731
v -27.217909 26.060357 15.579487
v -21.090779 25.928498 14.724635
v -25.658388 27.860946 10.294070
v -21.090779 25.928498 14.724635
v -27.217909 26.060357 15.579487
v -25.658388 19.110860 10.294070
v -32.012749 21.648847 12.661198
v -27.498880 21.085933 16.531731
v -27.498880 21.085933 16.531731
v -32.012749 21.648847 12.661198
v -32.293312 26.044761 12.765714
v -27.217909 26.060357 15.579487
v -25.658388 27.860946 10.294070
v -27.217909 26.060357 15.579487
v -32.293312 26.044761 12.765714
v -25.658388 19.110860 10.294070
v -32.791933 21.238522 7.636680
v -32.012749 21.648847 12.661198
v -32.012749 21.648847 12.661198
v -32.791933 21.238522 7.636680
v -31.456178 25.849345 8.134276
v -32.293312 26.044761 12.765714
v -25.658388 27.860946 10.294070
v -32.293312 26.044761 12.765714
v -31.456178 25.849345 8.134276
v -25.658388 19.110860 10.294070
v -26.999366 21.603297 5.749326
v -32.791933 21.238522 7.636680
v -32.791933 21.238522 7.636680
v -26.999366 21.603297 5.749326
v -27.444497 25.794516 4.240718
v -31.456178 25.849345 8.134276
v -25.658388 27.860946 10.294070
v -31.456178 25.849345 8.134276
v -27.444497 25.794516 4.240718
v -25.658388 19.110860 10.294070
v -21.422821 21.273121 6.185585
v -26.999366 21.603297 5.749326
v -26.999366 21.603297 5.749326
v -21.422821 21.273121 6.185585
v -20.819009 25.977770 5.599888
v -27.444497 25.794516 4.240718
v -25.658388 27.860946 10.294070
v -27.444497 25.794516 4.240718
v -20.819009 25.977770 5.599888
v -25.658388 19.110860 10.294070
v -17.563612 21.668445 10.294070
v -21.422821 21.273121 6.185585
v -21.422821 21.273121 6.185585
v -17.563612 21.668445 10.294070
v -19.249304 25.732610 10.294070
v -20.819009 25.977770 5.599888
v -25.658388 27.860946 10.294070
v -20.819009 25.977770 5.599888
v -19.249304 25.732610 10.294070
v -28.683108 9.641271 -9.695238
v -22.716875 13.169911 -2.819645
v -20.894100 13.504816 -9.695238
v -20.894100 13.504816 -9.695238
v -22.716875 13.169911 -2.819645
v -23.983778 18.983221 -4.279647
v -19.564899 19.719951 -9.695238
v -28.683108 22.864818 -9.695238
v -19.564899 19.719951 -9.695238
v -23.983778 18.983221 -4.279647
v -28.683108 9.641271 -9.695238
v -30.594437 13.243172 -1.999271
v -22.716875 13.169911 -2.819645
v -22.716875 13.169911 -2.819645
v -30.594437 13.243172 -1.999271
v -30.566553 19.432389 -2.111546
v -23.983778 18.983221 -4.279647
v -28.683108 22.864818 -9.695238
v -23.983778 18.983221 -4.279647
v -30.566553 19.432389 -2.111546
v -28.683108 9.641271 -9.695238
v -37.328005 13.515892 -5.869198
v -30.594437 13.243172 -1.999271
v -30.594437 13.243172 -1.999271
v -37.328005 13.515892 -5.869198
v -35.729643 19.038370 -6.576598
v -30.566553 19.432389 -2.111546
v -28.683108 22.864818 -9.695238
v -30.566553 19.432389 -2.111546
v -35.729643 19.038370 -6.576598
v -28.683108 9.641271 -9.695238
v -36.688201 12.958893 -13.238115
v -37.328005 13.515892 -5.869198
v -37.328005 13.515892 -5.869198
v -36.688201 12.958893 -13.238115
v -36.424061 19.585590 -13.121213
v -35.729643 19.038370 -6.576598
v -28.683108 22.864818 -9.695238
v -35.729643 19.038370 -6.576598
v -36.424061 19.585590 -13.121213
v -28.683108 9.641271 -9.695238
v -30.537445 13.316339 -17.161726
v -36.688201 12.958893 -13.238115
v -36.688201 12.958893 -13.238115
v -30.537445 13.316339 -17.161726
v -30.816686 19.755071 -18.286091
v -36.424061 19.585590 -13.121213
v -28.683108 22.864818 -9.695238
v -36.424061 19.585590 -13.121213
v -30.816686 19.755071 -18.286091
v -28.683108 9.641271 -9.695238
v -23.283383 12.885307 -15.917976
v -30.537445 13.316339 -17.161726
v -30.537445 13.316339 -17.161726
v -23.283383 12.885307 -15.917976
v -23.591766 19.640356 -15.562591
v -30.816686 19.755071 -18.286091
v -28.683108 22.864818 -9.695238
v -30.816686 19.755071 -18.286091
v -23.591766 19.640356 -15.562591
v -28.683108 9.641271 -9.695238
v -20.894100 13.504816 -9.695238
v -23.283383 12.885307 -15.917976
v -23.283383 12.885307 -15.917976
v -20.894100 13.504816 -9.695238
v -19.564899 19.719951 -9.695238
v -23.591766 19.640356 -15.562591
v -28.683108 22.864818 -9.695238
v -23.591766 19.640356 -15.562591
v -19.564899 19.719951 -9.695238
v -18.318849 24.791349 -19.145586
v -14.332883 26.548302 -14.728958
v -12.837707 26.573480 -19.145586
v -12.837707 26.573480 -19.145586
v -14.332883 26.548302 -14.728958
v -14.654143 29.809916 -15.084929
v -12.070652 30.066067 -19.145586
v -18.318849 31.536805 -19.145586
v -12.070652 30.066067 -19.145586
v -14.654143 29.809916 -15.084929
v -18.318849 24.791349 -19.145586
v -19.803026 26.719230 -13.399649
v -14.332883 26.548302 -14.728958
v -14.332883 26.548302 -14.728958
v -19.803026 26.719230 -13.399649
v -19.513775 29.665646 -14.519474
v -14.654143 29.809916 -15.084929
v -18.318849 31.536805 -19.145586
v -14.654143 29.809916 -15.084929
v -19.513775 29.665646 -14.519474
v -18.318849 24.791349 -19.145586
v -24.100435 26.570951 -16.685310
v -19.803026 26.719230 -13.399649
v -19.803026 26.719230 -13.399649
v -24.100435 26.570951 -16.685310
v -23.559856 30.126442 -16.915346
v -19.513775 29.665646 -14.519474
v -18.318849 31.536805 -19.145586
v -19.513775 29.665646 -14.519474
v -23.559856 30.126442 -16.915346
v -18.318849 24.791349 -19.145586
v -23.552258 26.755369 -21.372594
v -24.100435 26.570951 -16.685310
v -24.100435 26.570951 -16.685310
v -23.552258 26.755369 -21.372594
v -23.942622 29.726570 -21.538708
v -23.559856 30.126442 -16.915346
v -18.318849 31.536805 -19.145586
v -23.559856 30.126442 -16.915346
v -23.942622 29.726570 -21.538708
v -18.318849 24.791349 -19.145586
v -19.473045 26.694499 -23.614012
v -23.552258 26.755369 -21.372594
v -23.552258 26.755369 -21.372594
v -19.473045 26.694499 -23.614012
v -19.862867 30.063701 -25.123195
v -23.942622 29.726570 -21.538708
v -18.318849 31.536805 -19.145586
v -23.942622 29.726570 -21.538708
v -19.862867 30.063701 -25.123195
v -18.318849 24.791349 -19.145586
v -14.098062 26.331355 -23.822407
v -19.473045 26.694499 -23.614012
v -19.473045 26.694499 -23.614012
v -14.098062 26.331355 -23.822407
v -14.826095 30.104871 -23.015714
v -19.862867 30.063701 -25.123195
v -18.318849 31.536805 -19.145586
v -19.862867 30.063701 -25.123195
v -14.826095 30.104871 -23.015714
v -18.318849 24.791349 -19.145586
v -12.837707 26.573480 -19.145586
v -14.098062 26.331355 -23.822407
v -14.098062 26.331355 -23.822407
v -12.837707 26.573480 -19.145586
v -12.070652 30.066067 -19.145586
v -14.826095 30.104871 -23.015714
v -18.318849 31.536805 -19.145586
v -14.826095 30.104871 -23.015714
v -12.070652 30.066067 -19.145586
v 11.686006 19.246578 -26.321598
v 16.880152 22.237190 -18.931692
v 18.078840 22.370400 -26.321598
v 18.078840 22.370400 -26.321598
v 16.880152 22.237190 -18.931692
v 16.414924 29.005235 -19.593589
v 19.730060 29.052521 -26.321598
v 11.686006 32.127904 -26.321598
v 19.730060 29.052521 -26.321598
v 16.414924 29.005235 -19.593589
v 11.686006 19.246578 -26.321598
v 10.130573 22.013199 -18.589561
v 16.880152 22.237190 -18.931692
v 16.880152 22.237190 -18.931692
v 10.130573 22.013199 -18.589561
v 9.932138 28.489509 -17.603147
v 16.414924 29.005235 -19.593589
v 11.686006 32.127904 -26.321598
v 16.414924 29.005235 -19.593589
v 9.932138 28.489509 -17.603147
v 11.686006 19.246578 -26.321598
v 4.309571 22.852522 -22.291171
v 10.130573 22.013199 -18.589561
v 10.130573 22.013199 -18.589561
v 4.309571 22.852522 -22.291171
v 6.306357 28.475416 -23.382200
v 9.932138 28.489509 -17.603147
v 11.686006 32.127904 -26.321598
v 9.932138 28.489509 -17.603147
v 6.306357 28.475416 -23.382200
v 11.686006 19.246578 -26.321598
v 4.898966 22.055391 -30.029984
v 4.309571 22.852522 -22.291171
v 4.309571 22.852522 -22.291171
v 4.898966 22.055391 -30.029984
v 5.262012 29.086483 -29.831618
v 6.306357 28.475416 -23.382200
v 11.686006 32.127904 -26.321598
v 6.306357 28.475416 -23.382200
v 5.262012 29.086483 -29.831618
v 11.686006 19.246578 -26.321598
v 9.979264 22.941295 -34.805789
v 4.898966 22.055391 -30.029984
v 4.898966 22.055391 -30.029984
v 9.979264 22.941295 -34.805789
v 10.261827 28.517873 -33.401172
v 5.262012 29.086483 -29.831618
v 11.686006 32.127904 -26.321598
v 5.262012 29.086483 -29.831618
v 10.261827 28.517873 -33.401172
v 11.686006 19.246578 -26.321598
v 15.435240 22.799470 -31.655773
v 9.979264 22.941295 -34.805789
v 9.979264 22.941295 -34.805789
v 15.435240 22.799470 -31.655773
v 15.576259 28.994787 -31.856406
v 10.261827 28.517873 -33.401172
v 11.686006 32.127904 -26.321598
v 10.261827 28.517873 -33.401172
v 15.576259 28.994787 -31.856406
v 11.686006 19.246578 -26.321598
v 18.078840 22.370400 -26.321598
v 15.435240 22.799470 -31.655773
v 15.435240 22.799470 -31.655773
v 18.078840 22.370400 -26.321598
v 19.730060 29.052521 -26.321598
v 15.576259 28.994787 -31.856406
v 11.686006 32.127904 -26.321598
v 15.576259 28.994787 -31.856406
v 19.730060 29.052521 -26.321598
v 22.489393 6.973459 -14.235532
v 28.310963 9.390157 -9.761916
v 31.285183 9.247707 -14.235532
v 31.285183 9.247707 -14.235532
v 28.310963 9.390157 -9.761916
v 27.012635 14.240759 -10.759622
v 31.913339 14.536081 -14.235532
v 22.489393 17.089427 -14.235532
v 31.913339 14.536081 -14.235532
v 27.012635 14.240759 -10.759622
v 22.489393 6.973459 -14.235532
v 20.457632 9.500696 -8.780354
v 28.310963 9.390157 -9.761916
v 28.310963 9.390157 -9.761916
v 20.457632 9.500696 -8.780354
v 20.607761 14.822945 -9.183444
v 27.012635 14.240759 -10.759622
v 22.489393 17.089427 -14.235532
v 27.012635 14.240759 -10.759622
v 20.607761 14.822945 -9.183444
v 22.489393 6.973459 -14.235532
v 15.851567 9.609280 -12.276578
v 20.457632 9.500696 -8.780354
v 20.457632 9.500696 -8.780354
v 15.851567 9.609280 -12.276578
v 15.979955 14.427765 -12.314468
v 20.607761 14.822945 -9.183444
v 22.489393 17.089427 -14.235532
v 20.607761 14.822945 -9.183444
v 15.979955 14.427765 -12.314468
v 22.489393 6.973459 -14.235532
v 15.404900 9.755141 -16.326306
v 15.851567 9.609280 -12.276578
v 15.851567 9.609280 -12.276578
v 15.404900 9.755141 -16.326306
v 14.353071 14.210666 -16.636722
v 15.979955 14.427765 -12.314468
v 22.489393 17.089427 -14.235532
v 15.979955 14.427765 -12.314468
v 14.353071 14.210666 -16.636722
v 22.489393 6.973459 -14.235532
v 20.618510 9.643012 -19.258762
v 15.404900 9.755141 -16.326306
v 15.404900 9.755141 -16.326306
v 20.618510 9.643012 -19.258762
v 20.773781 14.109993 -18.841867
v 14.353071 14.210666 -16.636722
v 22.489393 17.089427 -14.235532
v 14.353071 14.210666 -16.636722
v 20.773781 14.109993 -18.841867
v 22.489393 6.973459 -14.235532
v 28.473005 9.814172 -18.833671
v 20.618510 9.643012 -19.258762
v 20.618510 9.643012 -19.258762
v 28.473005 9.814172 -18.833671
v 27.431720 14.333094 -18.033490
v 20.773781 14.109993 -18.841867
v 22.489393 17.089427 -14.235532
v 20.773781 14.109993 -18.841867
v 27.431720 14.333094 -18.033490
v 22.489393 6.973459 -14.235532
v 31.285183 9.247707 -14.235532
v 28.473005 9.814172 -18.833671
v 28.473005 9.814172 -18.833671
v 31.285183 9.247707 -14.235532
v 31.913339 14.536081 -14.235532
v 27.431720 14.333094 -18.033490
v 22.489393 17.089427 -14.235532
v 27.431720 14.333094 -18.033490
v 31.913339 14.536081 -14.235532
v -32.514643 35.483548 -16.320371
v -32.182853 33.058786 -17.680681
v 13.330562 34.712131 -8.085893
v 13.164667 35.924512 -7.405738
v -31.895897 35.483548 -19.051150
v -32.182853 33.058786 -17.680681
v -32.514643 35.483548 -16.320371
v 13.474040 35.924512 -8.771127
v 13.164667 35.924512 -7.405738
v 13.330562 34.712131 -8.085893
v -32.182853 33.058786 -17.680681
v -31.564107 33.058786 -20.411460
v 13.639935 34.712131 -9.451282
v 13.330562 34.712131 -8.085893
v -31.895897 35.483548 -19.051150
v -31.564107 33.058786 -20.411460
v -32.182853 33.058786 -17.680681
v 13.474040 35.924512 -8.771127
v 13.330562 34.712131 -8.085893
v 13.639935 34.712131 -9.451282
v -31.564107 33.058786 -20.411460
v -31.277151 35.483548 -21.781929
v 13.783413 35.924512 -10.136517
v 13.639935 34.712131 -9.451282
v -31.895897 35.483548 -19.051150
v -31.277151 35.483548 -21.781929
v -31.564107 33.058786 -20.411460
v 13.474040 35.924512 -8.771127
v 13.639935 34.712131 -9.451282
v 13.783413 35.924512 -10.136517
v -31.277151 35.483548 -21.781929
v -31.608940 37.908310 -20.421618
v 13.617519 37.136893 -9.456361
v 13.783413 35.924512 -10.136517
v -31.895897 35.483548 -19.051150
v -31.608940 37.908310 -20.421618
v -31.277151 35.483548 -21.781929
v 13.474040 35.924512 -8.771127
v 13.783413 35.924512 -10.136517
v 13.617519 37.136893 -9.456361
v -31.608940 37.908310 -20.421618
v -32.227686 37.908310 -17.690839
v 13.308146 37.136893 -8.090972
v 13.617519 37.136893 -9.456361
v -31.895897 35.483548 -19.051150
v -32.227686 37.908310 -17.690839
v -31.608940 37.908310 -20.421618
v 13.474040 35.924512 -8.771127
v 13.617519 37.136893 -9.456361
v 13.308146 37.136893 -8.090972
v -32.227686 37.908310 -17.690839
v -32.514643 35.483548 -16.320371
v 13.164667 35.924512 -7.405738
v 13.308146 37.136893 -8.090972
v -31.895897 35.483548 -19.051150
v -32.514643 35.483548 -16.320371
v -32.227686 37.908310 -17.690839
v 13.474040 35.924512 -8.771127
v 13.308146 37.136893 -8.090972
v 13.164667 35.924512 -7.405738
v -31.239138 25.161919 -16.043185
v -31.348981 22.739137 -17.442494
v 23.362643 26.255712 -26.425190
v 23.417565 27.467103 -25.725535
v -31.657856 25.161919 -18.811700
v -31.348981 22.739137 -17.442494
v -31.239138 25.161919 -16.043185
v 23.208206 27.467103 -27.109793
v 23.417565 27.467103 -25.725535
v 23.362643 26.255712 -26.425190
v -31.348981 22.739137 -17.442494
v -31.767698 22.739137 -20.211009
v 23.153284 26.255712 -27.809447
v 23.362643 26.255712 -26.425190
v -31.657856 25.161919 -18.811700
v -31.767698 22.739137 -20.211009
v -31.348981 22.739137 -17.442494
v 23.208206 27.467103 -27.109793
v 23.362643 26.255712 -26.425190
v 23.153284 26.255712 -27.809447
v -31.767698 22.739137 -20.211009
v -32.076574 25.161919 -21.580216
v 22.998847 27.467103 -28.494050
v 23.153284 26.255712 -27.809447
v -31.657856 25.161919 -18.811700
v -32.076574 25.161919 -21.580216
v -31.767698 22.739137 -20.211009
v 23.208206 27.467103 -27.109793
v 23.153284 26.255712 -27.809447
v 22.998847 27.467103 -28.494050
v -32.076574 25.161919 -21.580216
v -31.966731 27.584700 -20.180907
v 23.053768 28.678493 -27.794396
v 22.998847 27.467103 -28.494050
v -31.657856 25.161919 -18.811700
v -31.966731 27.584700 -20.180907
v -32.076574 25.161919 -21.580216
v 23.208206 27.467103 -27.109793
v 22.998847 27.467103 -28.494050
v 23.053768 28.678493 -27.794396
v -31.966731 27.584700 -20.180907
v -31.548013 27.584700 -17.412392
v 23.263127 28.678493 -26.410139
v 23.053768 28.678493 -27.794396
v -31.657856 25.161919 -18.811700
v -31.548013 27.584700 -17.412392
v -31.966731 27.584700 -20.180907
v 23.208206 27.467103 -27.109793
v 23.053768 28.678493 -27.794396
v 23.263127 28.678493 -26.410139
v -31.548013 27.584700 -17.412392
v -31.239138 25.161919 -16.043185
v 23.417565 27.467103 -25.725535
v 23.263127 28.678493 -26.410139
v -31.657856 25.161919 -18.811700
v -31.239138 25.161919 -16.043185
v -31.548013 27.584700 -17.412392
v 23.208206 27.467103 -27.109793
v 23.263127 28.678493 -26.410139
v 23.417565 27.467103 -25.725535
v -32.598542 39.233002 16.648556
v -32.711709 36.811353 15.247552
v 15.008190 40.530052 6.364143
v 15.064774 41.740876 7.064645
v -33.071229 39.233002 13.888743
v -32.711709 36.811353 15.247552
v -32.598542 39.233002 16.648556
v 14.828430 41.740876 5.684739
v 15.064774 41.740876 7.064645
v 15.008190 40.530052 6.364143
v -32.711709 36.811353 15.247552
v -33.184396 36.811353 12.487739
v 14.771847 40.530052 4.984237
v 15.008190 40.530052 6.364143
v -33.071229 39.233002 13.888743
v -33.184396 36.811353 12.487739
v -32.711709 36.811353 15.247552
v 14.828430 41.740876 5.684739
v 15.008190 40.530052 6.364143
v 14.771847 40.530052 4.984237
v -33.184396 36.811353 12.487739
v -33.543915 39.233002 11.128930
v 14.592087 41.740876 4.304832
v 14.771847 40.530052 4.984237
v -33.071229 39.233002 13.888743
v -33.543915 39.233002 11.128930
v -33.184396 36.811353 12.487739
v 14.828430 41.740876 5.684739
v 14.771847 40.530052 4.984237
v 14.592087 41.740876 4.304832
v -33.543915 39.233002 11.128930
v -33.430748 41.654650 12.529933
v 14.648671 42.951700 5.005334
v 14.592087 41.740876 4.304832
v -33.071229 39.233002 13.888743
v -33.430748 41.654650 12.529933
v -33.543915 39.233002 11.128930
v 14.828430 41.740876 5.684739
v 14.592087 41.740876 4.304832
v 14.648671 42.951700 5.005334
v -33.430748 41.654650 12.529933
v -32.958062 41.654650 15.289746
v 14.885014 42.951700 6.385240
v 14.648671 42.951700 5.005334
v -33.071229 39.233002 13.888743
v -32.958062 41.654650 15.289746
v -33.430748 41.654650 12.529933
v 14.828430 41.740876 5.684739
v 14.648671 42.951700 5.005334
v 14.885014 42.951700 6.385240
v -32.958062 41.654650 15.289746
v -32.598542 39.233002 16.648556
v 15.064774 41.740876 7.064645
v 14.885014 42.951700 6.385240
v -33.071229 39.233002 13.888743
v -32.598542 39.233002 16.648556
v -32.958062 41.654650 15.289746
v 14.828430 41.740876 5.684739
v 14.885014 42.951700 6.385240
v 15.064774 41.740876 7.064645
vt 0.500000 1.000000
vt 0.000000 0.000000
vt 1.000000 0.000000
vt 0.000000 0.000000
vt 1.000000 0.000000
vt 1.000000 1.000000
vt 0.000000 1.000000
vt 0.000000 0.000000
vt 1.000000 0.000000
vt 1.000000 1.000000
vt 0.000000 1.000000
vt 0.500000 1.000000
vt 0.000000 0.000000
vt 1.000000 0.000000
vt 0.500000 1.000000
vt 0.000000 0.000000
vt 1.000000 0.000000
vt 0.000000 0.000000
vt 1.000000 0.000000
vt 1.000000 1.000000
vt 0.000000 1.000000
vt 0.000000 0.000000
vt 1.000000 0.000000
vt 1.000000 1.000000
vt 0.000000 1.000000
vt 0.500000 1.000000
vt 0.000000 0.000000
vt 1.000000 0.000000
vt 0.500000 1.000000
vt 0.000000 0.000000
vt 1.000000 0.000000
vt 0.000000 0.000000
vt 1.000000 0.000000
vt 1.000000 1.000000
vt 0.000000 1.000000
vt 0.000000 0.000000
vt 1.000000 0.000000
vt 1.000000 1.000000
vt 0.000000 1.000000
vt 0.500000 1.000000
vt 0.000000 0.000000
vt 1.000000 0.000000
vt 0.500000 1.000000
vt 0.000000 0.000000
vt 1.000000 0.000000
vt 0.000000 0.000000
vt 1.000000 0.000000
vt 1.000000 1.000000
vt 0.000000 1.000000
vt 0.000000 0.000000
vt 1.000000 0.000000
vt 1.000000 1.000000
vt 0.000000 1.000000
vt 0.500000 1.000000
vt 0.000000 0.000000
vt 1.000000 0.000000
vt 0.500000 1.000000
vt 0.000000 0.000000
vt 1.000000 0.000000
vt 0.000000 0.000000
vt 1.000000 0.000000
vt 1.000000 1.000000
vt 0.000000 1.000000
vt 0.000000 0.000000
vt 1.000000 0.000000
vt 1.000000 1.000000
vt 0.000000 1.000000
vt 0.500000 1.000000
vt 0.000000 0.000000
vt 1.000000 0.000000
vt 0.500000 1.000000
vt 0.000000 0.000000
vt 1.000000 0.000000
vt 0.000000 0.000000
vt 1.000000 0.000000
vt 1.000000 1.000000
vt 0.000000 1.000000
vt 0.000000 0.000000
vt 1.000000 0.000000
vt 1.000000 1.000000
vt 0.000000 1.000000
vt 0.500000 1.000000
vt 0.000000 0.000000
vt 1.000000 0.000000
vt 0.500000 1.000000
vt 0.000000 0.000000
vt 1.000000 0.000000
vt 0.000000 0.000000
vt 1.000000 0.000000
vt 1.000000 1.000000
vt 0.000000 1.000000
vt 0.000000 0.000000
vt 1.000000 0.000000
vt 1.000000 1.000000
vt 0.000000 1.000000
vt 0.500000 1.000000
vt 0.000000 0.000000
vt 1.000000 0.000000
vt 0.500000 1.000000
vt 0.000000 0.000000
vt 1.000000 0.000000
vt 0.000000 0.000000
vt 1.000000 0.000000
vt 1.000000 1.000000
vt 0.000000 1.000000
vt 0.000000 0.000000
vt 1.000000 0.000000
vt 1.000000 1.000000
vt 0.000000 1.000000
vt 0.500000 1.000000
vt 0.000000 0.000000
vt 1.000000 0.000000
vt 0.500000 1.000000
vt 0.000000 0.000000
vt 1.000000 0.000000
vt 0.000000 0.000000
vt 1.000000 0.000000
vt 1.000000 1.000000
vt 0.000000 1.000000
vt 0.000000 0.000000
vt 1.000000 0.000000
vt 1.000000 1.000000
vt 0.000000 1.000000
vt 0.500000 1.000000
vt 0.000000 0.000000
vt 1.000000 0.000000
vt 0.500000 1.000000
vt 0.000000 0.000000
vt 1.000000 0.000000
vt 0.000000 0.000000
vt 1.000000 0.000000
vt 1.000000 1.000000
vt 0.000000 1.000000
vt 0.000000 0.000000
vt 1.000000 0.000000
vt 1.000000 1.000000
vt 0.000000 1.000000
vt 0.500000 1.000000
vt 0.000000 0.000000
vt 1.000000 0.000000
vt 0.500000 1.000000
vt 0.000000 0.000000
vt 1.000000 0.000000
vt 0.000000 0.000000
vt 1.000000 0.000000
vt 1.000000 1.000000
vt 0.000000 1.000000
vt 0.500000 1.000000
vt 0.000000 0.000000
vt 1.000000 0.000000
vt 0.500000 1.000000
vt 0.000000 0.000000
vt 1.000000 0.000000
vt 0.000000 0.000000
vt 1.000000 0.000000
vt 1.000000 1.000000
vt 0.000000 1.000000
vt 0.500000 1.000000
vt 0.000000 0.000000
vt 1.000000 0.000000
vt 0.500000 1.000000
vt 0.000000 0.000000
vt 1.000000 0.000000
vt 0.000000 0.000000
vt 1.000000 0.000000
vt 1.000000 1.000000
vt 0.000000 1.000000
vt 0.500000 1.000000
vt 0.000000 0.000000
vt 1.000000 0.000000
vt 0.500000 1.000000
vt 0.000000 0.000000
vt 1.000000 0.000000
vt 0.000000 0.000000
vt 1.000000 0.000000
vt 1.000000 1.000000
vt 0.000000 1.000000
vt 0.500000 1.000000
vt 0.000000 0.000000
vt 1.000000 0.000000
vt 0.500000 1.000000
vt 0.000000 0.000000
vt 1.000000 0.000000
vt 0.000000 0.000000
vt 1.000000 0.000000
vt 1.000000 1.000000
vt 0.000000 1.000000
vt 0.500000 1.000000
vt 0.000000 0.000000
vt 1.000000 0.000000
vt 0.500000 1.000000
vt 0.000000 0.000000
vt 1.000000 0.000000
vt 0.000000 0.000000
vt 1.000000 0.000000
vt 1.000000 1.000000
vt 0.000000 1.000000
vt 0.500000 1.000000
vt 0.000000 0.000000
vt 1.000000 0.000000
vt 0.500000 1.000000
vt 0.000000 0.000000
vt 1.000000 0.000000
vt 0.000000 0.000000
vt 1.000000 0.000000
vt 1.000000 1.000000
vt 0.000000 1.000000
vt 0.500000 1.000000
vt 0.000000 0.000000
vt 1.000000 0.000000
vt 0.500000 1.000000
vt 0.000000 0.000000
vt 1.000000 0.000000
vt 0.000000 0.000000
vt 1.000000 0.000000
vt 1.000000 1.000000
vt 0.000000 1.000000
vt 0.500000 1.000000
vt 0.000000 0.000000
vt 1.000000 0.000000
vt 0.500000 1.000000
vt 0.000000 0.000000
vt 1.000000 0.000000
vt 0.000000 0.000000
vt 1.000000 0.000000
vt 1.000000 1.000000
vt 0.000000 1.000000
vt 0.500000 1.000000
vt 0.000000 0.000000
vt 1.000000 0.000000
vt 0.500000 1.000000
vt 0.000000 0.000000
vt 1.000000 0.000000
vt 0.000000 0.000000
vt 1.000000 0.000000
vt 1.000000 1.000000
vt 0.000000 1.000000
vt 0.500000 1.000000
vt 0.000000 0.000000
vt 1.000000 0.000000
vt 0.500000 1.000000
vt 0.000000 0.000000
vt 1.000000 0.000000
vt 0.000000 0.000000
vt 1.000000 0.000000
vt 1.000000 1.000000
vt 0.000000 1.000000
vt 0.500000 1.000000
vt 0.000000 0.000000
vt 1.000000 0.000000
vt 0.500000 1.000000
vt 0.000000 0.000000
vt 1.000000 0.000000
vt 0.000000 0.000000
vt 1.000000 0.000000
vt 1.000000 1.000000
vt 0.000000 1.000000
vt 0.500000 1.000000
vt 0.000000 0.000000
vt 1.000000 0.000000
vt 0.500000 1.000000
vt 0.000000 0.000000
vt 1.000000 0.000000
vt 0.000000 0.000000
vt 1.000000 0.000000
vt 1.000000 1.000000
vt 0.000000 1.000000
vt 0.500000 1.000000
vt 0.000000 0.000000
vt 1.000000 0.000000
vt 0.500000 1.000000
vt 0.000000 0.000000
vt 1.000000 0.000000
vt 0.000000 0.000000
vt 1.000000 0.000000
vt 1.000000 1.000000
vt 0.000000 1.000000
vt 0.500000 1.000000
vt 0.000000 0.000000
vt 1.000000 0.000000
vt 0.500000 1.000000
vt 0.000000 0.000000
vt 1.000000 0.000000
vt 0.000000 0.000000
vt 1.000000 0.000000
vt 1.000000 1.000000
vt 0.000000 1.000000
vt 0.500000 1.000000
vt 0.000000 0.000000
vt 1.000000 0.000000
vt 0.500000 1.000000
vt 0.000000 0.000000
vt 1.000000 0.000000
vt 0.000000 0.000000
vt 1.000000 0.000000
vt 1.000000 1.000000
vt 0.000000 1.000000
vt 0.500000 1.000000
vt 0.000000 0.000000
vt 1.000000 0.000000
vt 0.500000 1.000000
vt 0.000000 0.000000
vt 1.000000 0.000000
vt 0.000000 0.000000
vt 1.000000 0.000000
vt 1.000000 1.000000
vt 0.000000 1.000000
vt 0.500000 1.000000
vt 0.000000 0.000000
vt 1.000000 0.000000
vt 0.500000 1.000000
vt 0.000000 0.000000
vt 1.000000 0.000000
vt 0.000000 0.000000
vt 1.000000 0.000000
vt 1.000000 1.000000
vt 0.000000 1.000000
vt 0.500000 1.000000
vt 0.000000 0.000000
vt 1.000000 0.000000
vt 0.500000 1.000000
vt 0.000000 0.000000
vt 1.000000 0.000000
vt 0.000000 0.000000
vt 1.000000 0.000000
vt 1.000000 1.000000
vt 0.000000 1.000000
vt 0.500000 1.000000
vt 0.000000 0.000000
vt 1.000000 0.000000
vt 0.500000 1.000000
vt 0.000000 0.000000
vt 1.000000 0.000000
vt 0.000000 0.000000
vt 1.000000 0.000000
vt 1.000000 1.000000
vt 0.000000 1.000000
vt 0.500000 1.000000
vt 0.000000 0.000000
vt 1.000000 0.000000
vt 0.500000 1.000000
vt 0.000000 0.000000
vt 1.000000 0.000000
vt 0.000000 0.000000
vt 1.000000 0.000000
vt 1.000000 1.000000
vt 0.000000 1.000000
vt 0.500000 1.000000
vt 0.000000 0.000000
vt 1.000000 0.000000
vt 0.500000 1.000000
vt 0.000000 0.000000
vt 1.000000 0.000000
vt 0.000000 0.000000
vt 1.000000 0.000000
vt 1.000000 1.000000
vt 0.000000 1.000000
vt 0.500000 1.000000
vt 0.000000 0.000000
vt 1.000000 0.000000
vt 0.500000 1.000000
vt 0.000000 0.000000
vt 1.000000 0.000000
vt 0.000000 0.000000
vt 1.000000 0.000000
vt 1.000000 1.000000
vt 0.000000 1.000000
vt 0.500000 1.000000
vt 0.000000 0.000000
vt 1.000000 0.000000
vt 0.500000 1.000000
vt 0.000000 0.000000
vt 1.000000 0.000000
vt 0.000000 0.000000
vt 1.000000 0.000000
vt 1.000000 1.000000
vt 0.000000 1.000000
vt 0.500000 1.000000
vt 0.000000 0.000000
vt 1.000000 0.000000
vt 0.500000 1.000000
vt 0.000000 0.000000
vt 1.000000 0.000000
vt 0.000000 0.000000
vt 1.000000 0.000000
vt 1.000000 1.000000
vt 0.000000 1.000000
vt 0.500000 1.000000
vt 0.000000 0.000000
vt 1.000000 0.000000
vt 0.500000 1.000000
vt 0.000000 0.000000
vt 1.000000 0.000000
vt 0.000000 0.000000
vt 1.000000 0.000000
vt 1.000000 1.000000
vt 0.000000 1.000000
vt 0.500000 1.000000
vt 0.000000 0.000000
vt 1.000000 0.000000
vt 0.500000 1.000000
vt 0.000000 0.000000
vt 1.000000 0.000000
vt 0.000000 0.000000
vt 1.000000 0.000000
vt 1.000000 1.000000
vt 0.000000 1.000000
vt 0.500000 1.000000
vt 0.000000 0.000000
vt 1.000000 0.000000
vt 0.500000 1.000000
vt 0.000000 0.000000
vt 1.000000 0.000000
vt 0.000000 0.000000
vt 1.000000 0.000000
vt 1.000000 1.000000
vt 0.000000 1.000000
vt 0.500000 1.000000
vt 0.000000 0.000000
vt 1.000000 0.000000
vt 0.500000 1.000000
vt 0.000000 0.000000
vt 1.000000 0.000000
vt 0.000000 0.000000
vt 1.000000 0.000000
vt 1.000000 1.000000
vt 0.000000 1.000000
vt 0.500000 1.000000
vt 0.000000 0.000000
vt 1.000000 0.000000
vt 0.500000 1.000000
vt 0.000000 0.000000
vt 1.000000 0.000000
vt 0.000000 0.000000
vt 1.000000 0.000000
vt 1.000000 1.000000
vt 0.000000 1.000000
vt 0.500000 1.000000
vt 0.000000 0.000000
vt 1.000000 0.000000
vt 0.500000 1.000000
vt 0.000000 0.000000
vt 1.000000 0.000000
vt 0.000000 0.000000
vt 1.000000 0.000000
vt 1.000000 1.000000
vt 0.000000 1.000000
vt 0.500000 1.000000
vt 0.000000 0.000000
vt 1.000000 0.000000
vt 0.500000 1.000000
vt 0.000000 0.000000
vt 1.000000 0.000000
vt 0.000000 0.000000
vt 1.000000 0.000000
vt 1.000000 1.000000
vt 0.000000 1.000000
vt 0.500000 1.000000
vt 0.000000 0.000000
vt 1.000000 0.000000
vt 0.500000 1.000000
vt 0.000000 0.000000
vt 1.000000 0.000000
vt 0.000000 0.000000
vt 1.000000 0.000000
vt 1.000000 1.000000
vt 0.000000 1.000000
vt 0.500000 1.000000
vt 0.000000 0.000000
vt 1.000000 0.000000
vt 0.500000 1.000000
vt 0.000000 0.000000
vt 1.000000 0.000000
vt 0.000000 0.000000
vt 1.000000 0.000000
vt 1.000000 1.000000
vt 0.000000 1.000000
vt 0.500000 1.000000
vt 0.000000 0.000000
vt 1.000000 0.000000
vt 0.500000 1.000000
vt 0.000000 0.000000
vt 1.000000 0.000000
vt 0.000000 0.000000
vt 1.000000 0.000000
vt 1.000000 1.000000
vt 0.000000 1.000000
vt 0.500000 1.000000
vt 0.000000 0.000000
vt 1.000000 0.000000
vt 0.500000 1.000000
vt 0.000000 0.000000
vt 1.000000 0.000000
vt 0.000000 0.000000
vt 1.000000 0.000000
vt 1.000000 1.000000
vt 0.000000 1.000000
vt 0.500000 1.000000
vt 0.000000 0.000000
vt 1.000000 0.000000
vt 0.500000 1.000000
vt 0.000000 0.000000
vt 1.000000 0.000000
vt 0.000000 0.000000
vt 1.000000 0.000000
vt 1.000000 1.000000
vt 0.000000 1.000000
vt 0.500000 1.000000
vt 0.000000 0.000000
vt 1.000000 0.000000
vt 0.500000 1.000000
vt 0.000000 0.000000
vt 1.000000 0.000000
vt 0.000000 0.000000
vt 1.000000 0.000000
vt 1.000000 1.000000
vt 0.000000 1.000000
vt 0.500000 1.000000
vt 0.000000 0.000000
vt 1.000000 0.000000
vt 0.500000 1.000000
vt 0.000000 0.000000
vt 1.000000 0.000000
vt 0.000000 0.000000
vt 1.000000 0.000000
vt 1.000000 1.000000
vt 0.000000 1.000000
vt 0.500000 1.000000
vt 0.000000 0.000000
vt 1.000000 0.000000
vt 0.500000 1.000000
vt 0.000000 0.000000
vt 1.000000 0.000000
vt 0.000000 0.000000
vt 1.000000 0.000000
vt 1.000000 1.000000
vt 0.000000 1.000000
vt 0.500000 1.000000
vt 0.000000 0.000000
vt 1.000000 0.000000
vt 0.500000 1.000000
vt 0.000000 0.000000
vt 1.000000 0.000000
vt 0.000000 0.000000
vt 1.000000 0.000000
vt 1.000000 1.000000
vt 0.000000 1.000000
vt 0.500000 1.000000
vt 0.000000 0.000000
vt 1.000000 0.000000
vt 0.500000 1.000000
vt 0.000000 0.000000
vt 1.000000 0.000000
vt 0.000000 0.000000
vt 1.000000 0.000000
vt 1.000000 1.000000
vt 0.000000 1.000000
vt 0.500000 1.000000
vt 0.000000 0.000000
vt 1.000000 0.000000
vt 0.500000 1.000000
vt 0.000000 0.000000
vt 1.000000 0.000000
vt 0.000000 0.000000
vt 1.000000 0.000000
vt 1.000000 1.000000
vt 0.000000 1.000000
vt 0.500000 1.000000
vt 0.000000 0.000000
vt 1.000000 0.000000
vt 0.500000 1.000000
vt 0.000000 0.000000
vt 1.000000 0.000000
vt 0.000000 0.000000
vt 1.000000 0.000000
vt 1.000000 1.000000
vt 0.000000 1.000000
vt 0.500000 1.000000
vt 0.000000 0.000000
vt 1.000000 0.000000
vt 0.500000 1.000000
vt 0.000000 0.000000
vt 1.000000 0.000000
vt 0.000000 0.000000
vt 1.000000 0.000000
vt 1.000000 1.000000
vt 0.000000 1.000000
vt 0.500000 1.000000
vt 0.000000 0.000000
vt 1.000000 0.000000
vt 0.500000 1.000000
vt 0.000000 0.000000
vt 1.000000 0.000000
vt 0.000000 0.000000
vt 1.000000 0.000000
vt 1.000000 1.000000
vt 0.000000 1.000000
vt 0.500000 1.000000
vt 0.000000 0.000000
vt 1.000000 0.000000
vt 0.500000 1.000000
vt 0.000000 0.000000
vt 1.000000 0.000000
vt 0.000000 0.000000
vt 1.000000 0.000000
vt 1.000000 1.000000
vt 0.000000 1.000000
vt 0.500000 1.000000
vt 0.000000 0.000000
vt 1.000000 0.000000
vt 0.500000 1.000000
vt 0.000000 0.000000
vt 1.000000 0.000000
vt 0.000000 0.000000
vt 1.000000 0.000000
vt 1.000000 1.000000
vt 0.000000 1.000000
vt 0.500000 1.000000
vt 0.000000 0.000000
vt 1.000000 0.000000
vt 0.500000 1.000000
vt 0.000000 0.000000
vt 1.000000 0.000000
vt 0.000000 0.000000
vt 1.000000 0.000000
vt 1.000000 1.000000
vt 0.000000 1.000000
vt 0.500000 1.000000
vt 0.000000 0.000000
vt 1.000000 0.000000
vt 0.500000 1.000000
vt 0.000000 0.000000
vt 1.000000 0.000000
vt 0.000000 0.000000
vt 1.000000 0.000000
vt 1.000000 1.000000
vt 0.000000 1.000000
vt 0.500000 1.000000
vt 0.000000 0.000000
vt 1.000000 0.000000
vt 0.500000 1.000000
vt 0.000000 0.000000
vt 1.000000 0.000000
vt 0.000000 0.000000
vt 1.000000 0.000000
vt 1.000000 1.000000
vt 0.000000 1.000000
vt 0.500000 1.000000
vt 0.000000 0.000000
vt 1.000000 0.000000
vt 0.500000 1.000000
vt 0.000000 0.000000
vt 1.000000 0.000000
vt 0.000000 0.000000
vt 1.000000 0.000000
vt 1.000000 1.000000
vt 0.000000 1.000000
vt 0.500000 1.000000
vt 0.000000 0.000000
vt 1.000000 0.000000
vt 0.500000 1.000000
vt 0.000000 0.000000
vt 1.000000 0.000000
vt 0.000000 0.000000
vt 1.000000 0.000000
vt 1.000000 1.000000
vt 0.000000 1.000000
vt 0.500000 1.000000
vt 0.000000 0.000000
vt 1.000000 0.000000
vt 0.500000 1.000000
vt 0.000000 0.000000
vt 1.000000 0.000000
vt 0.000000 0.000000
vt 1.000000 0.000000
vt 1.000000 1.000000
vt 0.000000 1.000000
vt 0.500000 1.000000
vt 0.000000 0.000000
vt 1.000000 0.000000
vt 0.500000 1.000000
vt 0.000000 0.000000
vt 1.000000 0.000000
vt 0.000000 0.000000
vt 1.000000 0.000000
vt 1.000000 1.000000
vt 0.000000 1.000000
vt 0.500000 1.000000
vt 0.000000 0.000000
vt 1.000000 0.000000
vt 0.500000 1.000000
vt 0.000000 0.000000
vt 1.000000 0.000000
vt 0.000000 0.000000
vt 1.000000 0.000000
vt 1.000000 1.000000
vt 0.000000 1.000000
vt 0.500000 1.000000
vt 0.000000 0.000000
vt 1.000000 0.000000
vt 0.500000 1.000000
vt 0.000000 0.000000
vt 1.000000 0.000000
vt 0.000000 0.000000
vt 1.000000 0.000000
vt 1.000000 1.000000
vt 0.000000 1.000000
vt 0.500000 1.000000
vt 0.000000 0.000000
vt 1.000000 0.000000
vt 0.500000 1.000000
vt 0.000000 0.000000
vt 1.000000 0.000000
vt 0.000000 0.000000
vt 1.000000 0.000000
vt 1.000000 1.000000
vt 0.000000 1.000000
vt 0.500000 1.000000
vt 0.000000 0.000000
vt 1.000000 0.000000
vt 0.500000 1.000000
vt 0.000000 0.000000
vt 1.000000 0.000000
vt 0.000000 0.000000
vt 1.000000 0.000000
vt 1.000000 1.000000
vt 0.000000 1.000000
vt 0.500000 1.000000
vt 0.000000 0.000000
vt 1.000000 0.000000
vt 0.500000 1.000000
vt 0.000000 0.000000
vt 1.000000 0.000000
vt 0.000000 0.000000
vt 1.000000 0.000000
vt 1.000000 1.000000
vt 0.000000 1.000000
vt 0.500000 1.000000
vt 0.000000 0.000000
vt 1.000000 0.000000
vt 0.500000 1.000000
vt 0.000000 0.000000
vt 1.000000 0.000000
vt 0.000000 0.000000
vt 1.000000 0.000000
vt 1.000000 1.000000
vt 0.000000 1.000000
vt 0.500000 1.000000
vt 0.000000 0.000000
vt 1.000000 0.000000
vt 0.500000 1.000000
vt 0.000000 0.000000
vt 1.000000 0.000000
vt 0.000000 0.000000
vt 1.000000 0.000000
vt 1.000000 1.000000
vt 0.000000 1.000000
vt 0.500000 1.000000
vt 0.000000 0.000000
vt 1.000000 0.000000
vt 0.500000 1.000000
vt 0.000000 0.000000
vt 1.000000 0.000000
vt 0.000000 0.000000
vt 1.000000 0.000000
vt 1.000000 1.000000
vt 0.000000 1.000000
vt 0.500000 1.000000
vt 0.000000 0.000000
vt 1.000000 0.000000
vt 0.000000 0.000000
vt 1.000000 0.000000
vt 1.000000 1.000000
vt 0.000000 1.000000
vt 0.500000 1.000000
vt 0.000000 0.000000
vt 1.000000 0.000000
vt 0.500000 1.000000
vt 0.000000 0.000000
vt 1.000000 0.000000
vt 0.000000 0.000000
vt 1.000000 0.000000
vt 1.000000 1.000000
vt 0.000000 1.000000
vt 0.500000 1.000000
vt 0.000000 0.000000
vt 1.000000 0.000000
vt 0.500000 1.000000
vt 0.000000 0.000000
vt 1.000000 0.000000
vt 0.000000 0.000000
vt 1.000000 0.000000
vt 1.000000 1.000000
vt 0.000000 1.000000
vt 0.500000 1.000000
vt 0.000000 0.000000
vt 1.000000 0.000000
vt 0.500000 1.000000
vt 0.000000 0.000000
vt 1.000000 0.000000
vt 0.000000 0.000000
vt 1.000000 0.000000
vt 1.000000 1.000000
vt 0.000000 1.000000
vt 0.500000 1.000000
vt 0.000000 0.000000
vt 1.000000 0.000000
vt 0.500000 1.000000
vt 0.000000 0.000000
vt 1.000000 0.000000
vt 0.000000 0.000000
vt 1.000000 0.000000
vt 1.000000 1.000000
vt 0.000000 1.000000
vt 0.500000 1.000000
vt 0.000000 0.000000
vt 1.000000 0.000000
vt 0.500000 1.000000
vt 0.000000 0.000000
vt 1.000000 0.000000
vt 0.000000 0.000000
vt 1.000000 0.000000
vt 1.000000 1.000000
vt 0.000000 1.000000
vt 0.500000 1.000000
vt 0.000000 0.000000
vt 1.000000 0.000000
vt 0.500000 1.000000
vt 0.000000 0.000000
vt 1.000000 0.000000
vt 0.000000 0.000000
vt 1.000000 0.000000
vt 1.000000 1.000000
vt 0.000000 1.000000
vt 0.500000 1.000000
vt 0.000000 0.000000
vt 1.000000 0.000000
vt 0.500000 1.000000
vt 0.000000 0.000000
vt 1.000000 0.000000
vt 0.000000 0.000000
vt 1.000000 0.000000
vt 1.000000 1.000000
vt 0.000000 1.000000
vt 0.500000 1.000000
vt 0.000000 0.000000
vt 1.000000 0.000000
vt 0.500000 1.000000
vt 0.000000 0.000000
vt 1.000000 0.000000
vt 0.000000 0.000000
vt 1.000000 0.000000
vt 1.000000 1.000000
vt 0.000000 1.000000
vt 0.500000 1.000000
vt 0.000000 0.000000
vt 1.000000 0.000000
vt 0.500000 1.000000
vt 0.000000 0.000000
vt 1.000000 0.000000
vt 0.000000 0.000000
vt 1.000000 0.000000
vt 1.000000 1.000000
vt 0.000000 1.000000
vt 0.500000 1.000000
vt 0.000000 0.000000
vt 1.000000 0.000000
vt 0.500000 1.000000
vt 0.000000 0.000000
vt 1.000000 0.000000
vt 0.000000 0.000000
vt 1.000000 0.000000
vt 1.000000 1.000000
vt 0.000000 1.000000
vt 0.500000 1.000000
vt 0.000000 0.000000
vt 1.000000 0.000000
vt 0.500000 1.000000
vt 0.000000 0.000000
vt 1.000000 0.000000
vt 0.000000 0.000000
vt 1.000000 0.000000
vt 1.000000 1.000000
vt 0.000000 1.000000
vt 0.500000 1.000000
vt 0.000000 0.000000
vt 1.000000 0.000000
vt 0.500000 1.000000
vt 0.000000 0.000000
vt 1.000000 0.000000
vt 0.000000 0.000000
vt 1.000000 0.000000
vt 1.000000 1.000000
vt 0.000000 1.000000
vt 0.500000 1.000000
vt 0.000000 0.000000
vt 1.000000 0.000000
vt 0.500000 1.000000
vt 0.000000 0.000000
vt 1.000000 0.000000
vt 0.000000 0.000000
vt 1.000000 0.000000
vt 1.000000 1.000000
vt 0.000000 1.000000
vt 0.500000 1.000000
vt 0.000000 0.000000
vt 1.000000 0.000000
vt 0.500000 1.000000
vt 0.000000 0.000000
vt 1.000000 0.000000
vt 0.000000 0.000000
vt 1.000000 0.000000
vt 1.000000 1.000000
vt 0.000000 1.000000
vt 0.500000 1.000000
vt 0.000000 0.000000
vt 1.000000 0.000000
vt 0.500000 1.000000
vt 0.000000 0.000000
vt 1.000000 0.000000
vt 0.000000 0.000000
vt 1.000000 0.000000
vt 1.000000 1.000000
vt 0.000000 1.000000
vt 0.500000 1.000000
vt 0.000000 0.000000
vt 1.000000 0.000000
vt 0.500000 1.000000
vt 0.000000 0.000000
vt 1.000000 0.000000
vt 0.000000 0.000000
vt 1.000000 0.000000
vt 1.000000 1.000000
vt 0.000000 1.000000
vt 0.500000 1.000000
vt 0.000000 0.000000
vt 1.000000 0.000000
vt 0.500000 1.000000
vt 0.000000 0.000000
vt 1.000000 0.000000
vt 0.000000 0.000000
vt 1.000000 0.000000
vt 1.000000 1.000000
vt 0.000000 1.000000
vt 0.500000 1.000000
vt 0.000000 0.000000
vt 1.000000 0.000000
vt 0.500000 1.000000
vt 0.000000 0.000000
vt 1.000000 0.000000
s 1
usemtl models/caelum/world/environment/rock_granite.png
f 1/1 2/2 3/3
f 4/4 5/5 6/6 7/7
f 8/8 9/9 10/10 11/11
f 12/12 13/13 14/14
f 15/15 16/16 17/17
f 18/18 19/19 20/20 21/21
f 22/22 23/23 24/24 25/25
f 26/26 27/27 28/28
f 29/29 30/30 31/31
f 32/32 33/33 34/34 35/35
f 36/36 37/37 38/38 39/39
f 40/40 41/41 42/42
f 43/43 44/44 45/45
f 46/46 47/47 48/48 49/49
f 50/50 51/51 52/52 53/53
f 54/54 55/55 56/56
f 57/57 58/58 59/59
f 60/60 61/61 62/62 63/63
f 64/64 65/65 66/66 67/67
f 68/68 69/69 70/70
f 71/71 72/72 73/73
f 74/74 75/75 76/76 77/77
f 78/78 79/79 80/80 81/81
f 82/82 83/83 84/84
f 85/85 86/86 87/87
f 88/88 89/89 90/90 91/91
f 92/92 93/93 94/94 95/95
f 96/96 97/97 98/98
f 99/99 100/100 101/101
f 102/102 103/103 104/104 105/105
f 106/106 107/107 108/108 109/109
f 110/110 111/111 112/112
f 113/113 114/114 115/115
f 116/116 117/117 118/118 119/119
f 120/120 121/121 122/122 123/123
f 124/124 125/125 126/126
f 127/127 128/128 129/129
f 130/130 131/131 132/132 133/133
f 134/134 135/135 136/136 137/137
f 138/138 139/139 140/140
usemtl models/caelum/world/resources/ca_vein_copper.png
f 141/141 142/142 143/143
f 144/144 145/145 146/146 147/147
f 148/148 149/149 150/150
f 151/151 152/152 153/153
f 154/154 155/155 156/156 157/157
f 158/158 159/159 160/160
f 161/161 162/162 163/163
f 164/164 165/165 166/166 167/167
f 168/168 169/169 170/170
f 171/171 172/172 173/173
f 174/174 175/175 176/176 177/177
f 178/178 179/179 180/180
f 181/181 182/182 183/183
f 184/184 185/185 186/186 187/187
f 188/188 189/189 190/190
f 191/191 192/192 193/193
f 194/194 195/195 196/196 197/197
f 198/198 199/199 200/200
f 201/201 202/202 203/203
f 204/204 205/205 206/206 207/207
f 208/208 209/209 210/210
f 211/211 212/212 213/213
f 214/214 215/215 216/216 217/217
f 218/218 219/219 220/220
f 221/221 222/222 223/223
f 224/224 225/225 226/226 227/227
f 228/228 229/229 230/230
f 231/231 232/232 233/233
f 234/234 235/235 236/236 237/237
f 238/238 239/239 240/240
f 241/241 242/242 243/243
f 244/244 245/245 246/246 247/247
f 248/248 249/249 250/250
f 251/251 252/252 253/253
f 254/254 255/255 256/256 257/257
f 258/258 259/259 260/260
f 261/261 262/262 263/263
f 264/264 265/265 266/266 267/267
f 268/268 269/269 270/270
f 271/271 272/272 273/273
f 274/274 275/275 276/276 277/277
f 278/278 279/279 280/280
f 281/281 282/282 283/283
f 284/284 285/285 286/286 287/287
f 288/288 289/289 290/290
f 291/291 292/292 293/293
f 294/294 295/295 296/296 297/297
f 298/298 299/299 300/300
f 301/301 302/302 303/303
f 304/304 305/305 306/306 307/307
f 308/308 309/309 310/310
f 311/311 312/312 313/313
f 314/314 315/315 316/316 317/317
f 318/318 319/319 320/320
f 321/321 322/322 323/323
f 324/324 325/325 326/326 327/327
f 328/328 329/329 330/330
f 331/331 332/332 333/333
f 334/334 335/335 336/336 337/337
f 338/338 339/339 340/340
f 341/341 342/342 343/343
f 344/344 345/345 346/346 347/347
f 348/348 349/349 350/350
f 351/351 352/352 353/353
f 354/354 355/355 356/356 357/357
f 358/358 359/359 360/360
f 361/361 362/362 363/363
f 364/364 365/365 366/366 367/367
f 368/368 369/369 370/370
f 371/371 372/372 373/373
f 374/374 375/375 376/376 377/377
f 378/378 379/379 380/380
f 381/381 382/382 383/383
f 384/384 385/385 386/386 387/387
f 388/388 389/389 390/390
f 391/391 392/392 393/393
f 394/394 395/395 396/396 397/397
f 398/398 399/399 400/400
f 401/401 402/402 403/403
f 404/404 405/405 406/406 407/407
f 408/408 409/409 410/410
f 411/411 412/412 413/413
f 414/414 415/415 416/416 417/417
f 418/418 419/419 420/420
f 421/421 422/422 423/423
f 424/424 425/425 426/426 427/427
f 428/428 429/429 430/430
f 431/431 432/432 433/433
f 434/434 435/435 436/436 437/437
f 438/438 439/439 440/440
f 441/441 442/442 443/443
f 444/444 445/445 446/446 447/447
f 448/448 449/449 450/450
f 451/451 452/452 453/453
f 454/454 455/455 456/456 457/457
f 458/458 459/459 460/460
f 461/461 462/462 463/463
f 464/464 465/465 466/466 467/467
f 468/468 469/469 470/470
f 471/471 472/472 473/473
f 474/474 475/475 476/476 477/477
f 478/478 479/479 480/480
f 481/481 482/482 483/483
f 484/484 485/485 486/486 487/487
f 488/488 489/489 490/490
f 491/491 492/492 493/493
f 494/494 495/495 496/496 497/497
f 498/498 499/499 500/500
f 501/501 502/502 503/503
f 504/504 505/505 506/506 507/507
f 508/508 509/509 510/510
f 511/511 512/512 513/513
f 514/514 515/515 516/516 517/517
f 518/518 519/519 520/520
f 521/521 522/522 523/523
f 524/524 525/525 526/526 527/527
f 528/528 529/529 530/530
f 531/531 532/532 533/533
f 534/534 535/535 536/536 537/537
f 538/538 539/539 540/540
f 541/541 542/542 543/543
f 544/544 545/545 546/546 547/547
f 548/548 549/549 550/550
f 551/551 552/552 553/553
f 554/554 555/555 556/556 557/557
f 558/558 559/559 560/560
f 561/561 562/562 563/563
f 564/564 565/565 566/566 567/567
f 568/568 569/569 570/570
f 571/571 572/572 573/573
f 574/574 575/575 576/576 577/577
f 578/578 579/579 580/580
f 581/581 582/582 583/583
f 584/584 585/585 586/586 587/587
f 588/588 589/589 590/590
f 591/591 592/592 593/593
f 594/594 595/595 596/596 597/597
f 598/598 599/599 600/600
f 601/601 602/602 603/603
f 604/604 605/605 606/606 607/607
f 608/608 609/609 610/610
f 611/611 612/612 613/613
f 614/614 615/615 616/616 617/617
f 618/618 619/619 620/620
f 621/621 622/622 623/623
f 624/624 625/625 626/626 627/627
f 628/628 629/629 630/630
f 631/631 632/632 633/633
f 634/634 635/635 636/636 637/637
f 638/638 639/639 640/640
f 641/641 642/642 643/643
f 644/644 645/645 646/646 647/647
f 648/648 649/649 650/650
f 651/651 652/652 653/653
f 654/654 655/655 656/656 657/657
f 658/658 659/659 660/660
f 661/661 662/662 663/663
f 664/664 665/665 666/666 667/667
f 668/668 669/669 670/670
f 671/671 672/672 673/673
f 674/674 675/675 676/676 677/677
f 678/678 679/679 680/680
f 681/681 682/682 683/683
f 684/684 685/685 686/686 687/687
f 688/688 689/689 690/690
f 691/691 692/692 693/693
f 694/694 695/695 696/696 697/697
f 698/698 699/699 700/700
f 701/701 702/702 703/703
f 704/704 705/705 706/706 707/707
f 708/708 709/709 710/710
f 711/711 712/712 713/713
f 714/714 715/715 716/716 717/717
f 718/718 719/719 720/720
f 721/721 722/722 723/723
f 724/724 725/725 726/726 727/727
f 728/728 729/729 730/730
f 731/731 732/732 733/733
f 734/734 735/735 736/736 737/737
f 738/738 739/739 740/740
f 741/741 742/742 743/743
f 744/744 745/745 746/746 747/747
f 748/748 749/749 750/750
f 751/751 752/752 753/753
f 754/754 755/755 756/756 757/757
f 758/758 759/759 760/760
f 761/761 762/762 763/763
f 764/764 765/765 766/766 767/767
f 768/768 769/769 770/770
f 771/771 772/772 773/773 774/774
f 775/775 776/776 777/777
f 778/778 779/779 780/780
f 781/781 782/782 783/783 784/784
f 785/785 786/786 787/787
f 788/788 789/789 790/790
f 791/791 792/792 793/793 794/794
f 795/795 796/796 797/797
f 798/798 799/799 800/800
f 801/801 802/802 803/803 804/804
f 805/805 806/806 807/807
f 808/808 809/809 810/810
f 811/811 812/812 813/813 814/814
f 815/815 816/816 817/817
f 818/818 819/819 820/820
f 821/821 822/822 823/823 824/824
f 825/825 826/826 827/827
f 828/828 829/829 830/830
f 831/831 832/832 833/833 834/834
f 835/835 836/836 837/837
f 838/838 839/839 840/840
f 841/841 842/842 843/843 844/844
f 845/845 846/846 847/847
f 848/848 849/849 850/850
f 851/851 852/852 853/853 854/854
f 855/855 856/856 857/857
f 858/858 859/859 860/860
f 861/861 862/862 863/863 864/864
f 865/865 866/866 867/867
f 868/868 869/869 870/870
f 871/871 872/872 873/873 874/874
f 875/875 876/876 877/877
f 878/878 879/879 880/880
f 881/881 882/882 883/883 884/884
f 885/885 886/886 887/887
f 888/888 889/889 890/890
f 891/891 892/892 893/893 894/894
f 895/895 896/896 897/897
f 898/898 899/899 900/900
f 901/901 902/902 903/903 904/904
f 905/905 906/906 907/907
f 908/908 909/909 910/910
f 911/911 912/912 913/913 914/914
f 915/915 916/916 917/917
f 918/918 919/919 920/920
f 921/921 922/922 923/923 924/924
f 925/925 926/926 927/927
f 928/928 929/929 930/930
f 931/931 932/932 933/933 934/934
f 935/935 936/936 937/937
f 938/938 939/939 940/940
f 941/941 942/942 943/943 944/944
f 945/945 946/946 947/947
f 948/948 949/949 950/950
