# Modelo original generado para Caelum Argenteum.
# Ejes OBJ: X ancho, Y altura, Z profundidad.
o ca_vein_gold3
v 0.000000 0.000000 0.000000
v 31.838282 1.365353 0.000000
v 29.697444 0.087049 18.634212
v 31.838282 1.365353 0.000000
v 48.544645 16.510615 0.000000
v 41.112659 17.180321 25.796901
v 29.697444 0.087049 18.634212
v 48.544645 16.510615 0.000000
v 29.728546 37.041177 0.000000
v 26.212226 33.850900 16.447347
v 41.112659 17.180321 25.796901
v -4.446053 52.000000 -5.328141
v 26.212226 33.850900 16.447347
v 29.728546 37.041177 0.000000
v 0.000000 0.000000 0.000000
v 29.697444 0.087049 18.634212
v 10.809956 1.216486 28.732857
v 29.697444 0.087049 18.634212
v 41.112659 17.180321 25.796901
v 12.961604 16.684360 34.451937
v 10.809956 1.216486 28.732857
v 41.112659 17.180321 25.796901
v 26.212226 33.850900 16.447347
v 9.419311 34.392641 25.036522
v 12.961604 16.684360 34.451937
v -4.446053 52.000000 -5.328141
v 9.419311 34.392641 25.036522
v 26.212226 33.850900 16.447347
v 0.000000 0.000000 0.000000
v 10.809956 1.216486 28.732857
v -10.269472 -1.793136 27.296252
v 10.809956 1.216486 28.732857
v 12.961604 16.684360 34.451937
v -12.328312 16.516958 32.768645
v -10.269472 -1.793136 27.296252
v 12.961604 16.684360 34.451937
v 9.419311 34.392641 25.036522
v -9.585762 34.162390 25.478951
v -12.328312 16.516958 32.768645
v -4.446053 52.000000 -5.328141
v -9.585762 34.162390 25.478951
v 9.419311 34.392641 25.036522
v 0.000000 0.000000 0.000000
v -10.269472 -1.793136 27.296252
v -34.912255 -1.622017 21.906342
v -10.269472 -1.793136 27.296252
v -12.328312 16.516958 32.768645
v -40.112546 16.091889 25.169361
v -34.912255 -1.622017 21.906342
v -12.328312 16.516958 32.768645
v -9.585762 34.162390 25.478951
v -25.075404 35.315641 15.734027
v -40.112546 16.091889 25.169361
v -4.446053 52.000000 -5.328141
v -25.075404 35.315641 15.734027
v -9.585762 34.162390 25.478951
v 0.000000 0.000000 0.000000
v -34.912255 -1.622017 21.906342
v -32.876047 0.296636 0.000000
v -34.912255 -1.622017 21.906342
v -40.112546 16.091889 25.169361
v -45.152766 16.774824 0.000000
v -32.876047 0.296636 0.000000
v -40.112546 16.091889 25.169361
v -25.075404 35.315641 15.734027
v -31.731206 34.714076 0.000000
v -45.152766 16.774824 0.000000
v -4.446053 52.000000 -5.328141
v -31.731206 34.714076 0.000000
v -25.075404 35.315641 15.734027
v 0.000000 0.000000 0.000000
v -32.876047 0.296636 0.000000
v -29.178691 -0.833006 -18.308711
v -32.876047 0.296636 0.000000
v -45.152766 16.774824 0.000000
v -40.027551 18.088376 -25.116029
v -29.178691 -0.833006 -18.308711
v -45.152766 16.774824 0.000000
v -31.731206 34.714076 0.000000
v -24.058203 34.025191 -15.095766
v -40.027551 18.088376 -25.116029
v -4.446053 52.000000 -5.328141
v -24.058203 34.025191 -15.095766
v -31.731206 34.714076 0.000000
v 0.000000 0.000000 0.000000
v -29.178691 -0.833006 -18.308711
v -10.875855 -1.313452 -28.908016
v -29.178691 -0.833006 -18.308711
v -40.027551 18.088376 -25.116029
v -14.783662 15.840368 -39.294964
v -10.875855 -1.313452 -28.908016
v -40.027551 18.088376 -25.116029
v -24.058203 34.025191 -15.095766
v -8.460786 35.744811 -22.488763
v -14.783662 15.840368 -39.294964
v -4.446053 52.000000 -5.328141
v -8.460786 35.744811 -22.488763
v -24.058203 34.025191 -15.095766
v 0.000000 0.000000 0.000000
v -10.875855 -1.313452 -28.908016
v 12.181832 0.086942 -32.379302
v -10.875855 -1.313452 -28.908016
v -14.783662 15.840368 -39.294964
v 15.552393 15.799552 -41.338252
v 12.181832 0.086942 -32.379302
v -14.783662 15.840368 -39.294964
v -8.460786 35.744811 -22.488763
v 8.676079 35.282887 -23.061012
v 15.552393 15.799552 -41.338252
v -4.446053 52.000000 -5.328141
v 8.676079 35.282887 -23.061012
v -8.460786 35.744811 -22.488763
v 0.000000 0.000000 0.000000
v 12.181832 0.086942 -32.379302
v 29.071096 1.669824 -18.241198
v 12.181832 0.086942 -32.379302
v 15.552393 15.799552 -41.338252
v 30.099370 16.359958 -18.886408
v 29.071096 1.669824 -18.241198
v 15.552393 15.799552 -41.338252
v 8.676079 35.282887 -23.061012
v 21.906126 36.296021 -13.745405
v 30.099370 16.359958 -18.886408
v -4.446053 52.000000 -5.328141
v 21.906126 36.296021 -13.745405
v 8.676079 35.282887 -23.061012
v 0.000000 0.000000 0.000000
v 29.071096 1.669824 -18.241198
v 31.838282 1.365353 0.000000
v 29.071096 1.669824 -18.241198
v 30.099370 16.359958 -18.886408
v 48.544645 16.510615 0.000000
v 31.838282 1.365353 0.000000
v 30.099370 16.359958 -18.886408
v 21.906126 36.296021 -13.745405
v 29.728546 37.041177 0.000000
v 48.544645 16.510615 0.000000
v -4.446053 52.000000 -5.328141
v 29.728546 37.041177 0.000000
v 21.906126 36.296021 -13.745405
v 39.741800 20.583468 -4.434184
v 43.529765 22.548499 1.282915
v 47.228544 22.686494 -4.434184
v 47.228544 22.686494 -4.434184
v 43.529765 22.548499 1.282915
v 43.718295 27.436607 1.567460
v 47.260947 27.234289 -4.434184
v 39.741800 29.394046 -4.434184
v 47.260947 27.234289 -4.434184
v 43.718295 27.436607 1.567460
v 39.741800 20.583468 -4.434184
v 38.426425 22.775115 2.502265
v 43.529765 22.548499 1.282915
v 43.529765 22.548499 1.282915
v 38.426425 22.775115 2.502265
v 38.459397 27.300250 2.328393
v 43.718295 27.436607 1.567460
v 39.741800 29.394046 -4.434184
v 43.718295 27.436607 1.567460
v 38.459397 27.300250 2.328393
v 39.741800 20.583468 -4.434184
v 33.511702 22.915042 -0.823043
v 38.426425 22.775115 2.502265
v 38.426425 22.775115 2.502265
v 33.511702 22.915042 -0.823043
v 33.179497 26.884300 -0.630487
v 38.459397 27.300250 2.328393
v 39.741800 29.394046 -4.434184
v 38.459397 27.300250 2.328393
v 33.179497 26.884300 -0.630487
v 39.741800 20.583468 -4.434184
v 34.835825 23.044144 -7.277825
v 33.511702 22.915042 -0.823043
v 33.511702 22.915042 -0.823043
v 34.835825 23.044144 -7.277825
v 33.046162 27.442778 -8.315165
v 33.179497 26.884300 -0.630487
v 39.741800 29.394046 -4.434184
v 33.179497 26.884300 -0.630487
v 33.046162 27.442778 -8.315165
v 39.741800 20.583468 -4.434184
v 38.506014 22.533622 -10.950929
v 34.835825 23.044144 -7.277825
v 34.835825 23.044144 -7.277825
v 38.506014 22.533622 -10.950929
v 38.037058 27.297609 -13.423908
v 33.046162 27.442778 -8.315165
v 39.741800 29.394046 -4.434184
v 33.046162 27.442778 -8.315165
v 38.037058 27.297609 -13.423908
v 39.741800 20.583468 -4.434184
v 43.904384 23.151472 -10.716688
v 38.506014 22.533622 -10.950929
v 38.506014 22.533622 -10.950929
v 43.904384 23.151472 -10.716688
v 44.377708 27.313752 -11.431065
v 38.037058 27.297609 -13.423908
v 39.741800 29.394046 -4.434184
v 38.037058 27.297609 -13.423908
v 44.377708 27.313752 -11.431065
v 39.741800 20.583468 -4.434184
v 47.228544 22.686494 -4.434184
v 43.904384 23.151472 -10.716688
v 43.904384 23.151472 -10.716688
v 47.228544 22.686494 -4.434184
v 47.260947 27.234289 -4.434184
v 44.377708 27.313752 -11.431065
v 39.741800 29.394046 -4.434184
v 44.377708 27.313752 -11.431065
v 47.260947 27.234289 -4.434184
v 22.416905 34.296571 12.197641
v 25.767632 35.984313 18.499789
v 27.775556 35.871688 12.197641
v 27.775556 35.871688 12.197641
v 25.767632 35.984313 18.499789
v 25.112551 39.680858 17.267693
v 26.500524 40.072527 12.197641
v 22.416905 41.841091 12.197641
v 26.500524 40.072527 12.197641
v 25.112551 39.680858 17.267693
v 22.416905 34.296571 12.197641
v 21.513285 36.305121 18.135817
v 25.767632 35.984313 18.499789
v 25.767632 35.984313 18.499789
v 21.513285 36.305121 18.135817
v 21.263525 39.925047 19.777126
v 25.112551 39.680858 17.267693
v 22.416905 41.841091 12.197641
v 25.112551 39.680858 17.267693
v 21.263525 39.925047 19.777126
v 22.416905 34.296571 12.197641
v 18.112787 36.046313 15.306588
v 21.513285 36.305121 18.135817
v 21.513285 36.305121 18.135817
v 18.112787 36.046313 15.306588
v 18.366042 39.781114 15.123658
v 21.263525 39.925047 19.777126
v 22.416905 41.841091 12.197641
v 21.263525 39.925047 19.777126
v 18.366042 39.781114 15.123658
v 22.416905 34.296571 12.197641
v 18.582409 36.255401 9.427911
v 18.112787 36.046313 15.306588
v 18.112787 36.046313 15.306588
v 18.582409 36.255401 9.427911
v 17.689258 40.118943 8.782771
v 18.366042 39.781114 15.123658
v 22.416905 41.841091 12.197641
v 18.366042 39.781114 15.123658
v 17.689258 40.118943 8.782771
v 22.416905 34.296571 12.197641
v 21.555858 36.499402 6.539238
v 18.582409 36.255401 9.427911
v 18.582409 36.255401 9.427911
v 21.555858 36.499402 6.539238
v 21.342642 39.767425 5.138078
v 17.689258 40.118943 8.782771
v 22.416905 41.841091 12.197641
v 17.689258 40.118943 8.782771
v 21.342642 39.767425 5.138078
v 22.416905 34.296571 12.197641
v 25.109686 35.985981 7.132978
v 21.555858 36.499402 6.539238
v 21.555858 36.499402 6.539238
v 25.109686 35.985981 7.132978
v 24.978334 39.838569 7.380029
v 21.342642 39.767425 5.138078
v 22.416905 41.841091 12.197641
v 21.342642 39.767425 5.138078
v 24.978334 39.838569 7.380029
v 22.416905 34.296571 12.197641
v 27.775556 35.871688 12.197641
v 25.109686 35.985981 7.132978
v 25.109686 35.985981 7.132978
v 27.775556 35.871688 12.197641
v 26.500524 40.072527 12.197641
v 24.978334 39.838569 7.380029
v 22.416905 41.841091 12.197641
v 24.978334 39.838569 7.380029
v 26.500524 40.072527 12.197641
v 6.132479 16.178528 24.364811
v 9.453404 19.015823 29.935511
v 10.847776 18.790542 24.364811
v 10.847776 18.790542 24.364811
v 9.453404 19.015823 29.935511
v 9.519430 24.439580 30.046266
v 11.555496 24.941449 24.364811
v 6.132479 27.658348 24.364811
v 11.555496 24.941449 24.364811
v 9.519430 24.439580 30.046266
v 6.132479 16.178528 24.364811
v 5.222365 18.747821 29.698951
v 9.453404 19.015823 29.935511
v 9.453404 19.015823 29.935511
v 5.222365 18.747821 29.698951
v 5.222036 24.721957 29.700875
v 9.519430 24.439580 30.046266
v 6.132479 27.658348 24.364811
v 9.519430 24.439580 30.046266
v 5.222036 24.721957 29.700875
v 6.132479 16.178528 24.364811
v 1.522678 19.211588 27.334511
v 5.222365 18.747821 29.698951
v 5.222365 18.747821 29.698951
v 1.522678 19.211588 27.334511
v 1.984306 24.783848 27.037124
v 5.222036 24.721957 29.700875
v 6.132479 27.658348 24.364811
v 5.222036 24.721957 29.700875
v 1.984306 24.783848 27.037124
v 6.132479 16.178528 24.364811
v 1.327482 18.627108 21.269362
v 1.522678 19.211588 27.334511
v 1.522678 19.211588 27.334511
v 1.327482 18.627108 21.269362
v 1.988597 25.055923 21.695262
v 1.984306 24.783848 27.037124
v 6.132479 27.658348 24.364811
v 1.984306 24.783848 27.037124
v 1.988597 25.055923 21.695262
v 6.132479 16.178528 24.364811
v 5.199530 19.325641 18.896837
v 1.327482 18.627108 21.269362
v 1.327482 18.627108 21.269362
v 5.199530 19.325641 18.896837
v 5.222568 24.743662 19.031859
v 1.988597 25.055923 21.695262
v 6.132479 27.658348 24.364811
v 1.988597 25.055923 21.695262
v 5.222568 24.743662 19.031859
v 6.132479 16.178528 24.364811
v 8.925123 18.886544 19.680278
v 5.199530 19.325641 18.896837
v 5.199530 19.325641 18.896837
v 8.925123 18.886544 19.680278
v 9.158207 25.054039 19.289289
v 5.222568 24.743662 19.031859
v 6.132479 27.658348 24.364811
v 5.222568 24.743662 19.031859
v 9.158207 25.054039 19.289289
v 6.132479 16.178528 24.364811
v 10.847776 18.790542 24.364811
v 8.925123 18.886544 19.680278
v 8.925123 18.886544 19.680278
v 10.847776 18.790542 24.364811
v 11.555496 24.941449 24.364811
v 9.158207 25.054039 19.289289
v 6.132479 27.658348 24.364811
v 9.158207 25.054039 19.289289
v 11.555496 24.941449 24.364811
v -19.687751 26.524827 29.118147
v -15.821138 29.350289 34.575873
v -12.830889 30.428233 29.118147
v -12.830889 30.428233 29.118147
v -15.821138 29.350289 34.575873
v -15.156369 37.118388 35.514195
v -12.317737 36.769178 29.118147
v -19.687751 39.968282 29.118147
v -12.317737 36.769178 29.118147
v -15.156369 37.118388 35.514195
v -19.687751 26.524827 29.118147
v -21.178600 29.312123 36.470600
v -15.821138 29.350289 34.575873
v -15.821138 29.350289 34.575873
v -21.178600 29.312123 36.470600
v -20.987722 36.771688 35.529244
v -15.156369 37.118388 35.514195
v -19.687751 39.968282 29.118147
v -15.156369 37.118388 35.514195
v -20.987722 36.771688 35.529244
v -19.687751 26.524827 29.118147
v -24.846210 29.732570 31.914428
v -21.178600 29.312123 36.470600
v -21.178600 29.312123 36.470600
v -24.846210 29.732570 31.914428
v -24.896870 36.823471 31.941889
v -20.987722 36.771688 35.529244
v -19.687751 39.968282 29.118147
v -20.987722 36.771688 35.529244
v -24.896870 36.823471 31.941889
v -19.687751 26.524827 29.118147
v -26.185796 29.630590 25.595708
v -24.846210 29.732570 31.914428
v -24.846210 29.732570 31.914428
v -26.185796 29.630590 25.595708
v -26.218864 36.700117 25.577783
v -24.896870 36.823471 31.941889
v -19.687751 39.968282 29.118147
v -24.896870 36.823471 31.941889
v -26.218864 36.700117 25.577783
v -19.687751 26.524827 29.118147
v -21.281034 30.222589 21.260514
v -26.185796 29.630590 25.595708
v -26.185796 29.630590 25.595708
v -21.281034 30.222589 21.260514
v -21.295553 36.427622 21.188914
v -26.218864 36.700117 25.577783
v -19.687751 39.968282 29.118147
v -26.218864 36.700117 25.577783
v -21.295553 36.427622 21.188914
v -19.687751 26.524827 29.118147
v -15.370903 29.862871 23.024915
v -21.281034 30.222589 21.260514
v -21.281034 30.222589 21.260514
v -15.370903 29.862871 23.024915
v -15.905796 36.993295 23.779916
v -21.295553 36.427622 21.188914
v -19.687751 39.968282 29.118147
v -21.295553 36.427622 21.188914
v -15.905796 36.993295 23.779916
v -19.687751 26.524827 29.118147
v -12.830889 30.428233 29.118147
v -15.370903 29.862871 23.024915
v -15.370903 29.862871 23.024915
v -12.830889 30.428233 29.118147
v -12.317737 36.769178 29.118147
v -15.905796 36.993295 23.779916
v -19.687751 39.968282 29.118147
v -15.905796 36.993295 23.779916
v -12.317737 36.769178 29.118147
v -32.001706 12.093721 10.696921
v -27.455528 15.698238 15.943607
v -25.634147 15.577653 10.696921
v -25.634147 15.577653 10.696921
v -27.455528 15.698238 15.943607
v -28.598183 21.407084 14.624884
v -25.724201 21.314384 10.696921
v -32.001706 24.912829 10.696921
v -25.724201 21.314384 10.696921
v -28.598183 21.407084 14.624884
v -32.001706 12.093721 10.696921
v -33.538832 15.522024 16.895125
v -27.455528 15.698238 15.943607
v -27.455528 15.698238 15.943607
v -33.538832 15.522024 16.895125
v -33.362880 21.986301 16.185628
v -28.598183 21.407084 14.624884
v -32.001706 24.912829 10.696921
v -28.598183 21.407084 14.624884
v -33.362880 21.986301 16.185628
v -32.001706 12.093721 10.696921
v -38.128647 14.871510 13.412498
v -33.538832 15.522024 16.895125
v -33.538832 15.522024 16.895125
v -38.128647 14.871510 13.412498
v -37.090515 21.850796 12.952378
v -33.362880 21.986301 16.185628
v -32.001706 24.912829 10.696921
v -33.362880 21.986301 16.185628
v -37.090515 21.850796 12.952378
v -32.001706 12.093721 10.696921
v -37.058338 14.775057 8.455726
v -38.128647 14.871510 13.412498
v -38.128647 14.871510 13.412498
v -37.058338 14.775057 8.455726
v -37.917294 21.549843 8.075020
v -37.090515 21.850796 12.952378
v -32.001706 24.912829 10.696921
v -37.090515 21.850796 12.952378
v -37.917294 21.549843 8.075020
v -32.001706 12.093721 10.696921
v -33.307616 15.241577 5.431058
v -37.058338 14.775057 8.455726
v -37.058338 14.775057 8.455726
v -33.307616 15.241577 5.431058
v -33.612916 21.978054 4.199985
v -37.917294 21.549843 8.075020
v -32.001706 24.912829 10.696921
v -37.917294 21.549843 8.075020
v -33.612916 21.978054 4.199985
v -32.001706 12.093721 10.696921
v -28.441634 14.982407 6.588289
v -33.307616 15.241577 5.431058
v -33.307616 15.241577 5.431058
v -28.441634 14.982407 6.588289
v -28.030352 21.347491 6.113633
v -33.612916 21.978054 4.199985
v -32.001706 24.912829 10.696921
v -33.612916 21.978054 4.199985
v -28.030352 21.347491 6.113633
v -32.001706 12.093721 10.696921
v -25.634147 15.577653 10.696921
v -28.441634 14.982407 6.588289
v -28.441634 14.982407 6.588289
v -25.634147 15.577653 10.696921
v -25.724201 21.314384 10.696921
v -28.030352 21.347491 6.113633
v -32.001706 24.912829 10.696921
v -28.030352 21.347491 6.113633
v -25.724201 21.314384 10.696921
v -32.616093 28.865477 -10.278838
v -28.349352 31.929005 -6.669528
v -25.094859 32.312974 -10.278838
v -25.094859 32.312974 -10.278838
v -28.349352 31.929005 -6.669528
v -26.868594 37.780125 -5.416929
v -24.134803 38.075694 -10.278838
v -32.616093 40.805343 -10.278838
v -24.134803 38.075694 -10.278838
v -26.868594 37.780125 -5.416929
v -32.616093 28.865477 -10.278838
v -34.252054 31.375107 -5.443588
v -28.349352 31.929005 -6.669528
v -28.349352 31.929005 -6.669528
v -34.252054 31.375107 -5.443588
v -34.722163 37.474664 -4.054134
v -26.868594 37.780125 -5.416929
v -32.616093 40.805343 -10.278838
v -26.868594 37.780125 -5.416929
v -34.722163 37.474664 -4.054134
v -32.616093 28.865477 -10.278838
v -40.612860 31.637838 -7.680939
v -34.252054 31.375107 -5.443588
v -34.252054 31.375107 -5.443588
v -40.612860 31.637838 -7.680939
v -39.065493 37.991354 -8.183630
v -34.722163 37.474664 -4.054134
v -32.616093 40.805343 -10.278838
v -34.722163 37.474664 -4.054134
v -39.065493 37.991354 -8.183630
v -32.616093 28.865477 -10.278838
v -41.162944 32.106200 -13.055442
v -40.612860 31.637838 -7.680939
v -40.612860 31.637838 -7.680939
v -41.162944 32.106200 -13.055442
v -40.754573 37.568318 -12.922775
v -39.065493 37.991354 -8.183630
v -32.616093 40.805343 -10.278838
v -39.065493 37.991354 -8.183630
v -40.754573 37.568318 -12.922775
v -32.616093 28.865477 -10.278838
v -34.656619 31.359429 -16.309820
v -41.162944 32.106200 -13.055442
v -41.162944 32.106200 -13.055442
v -34.656619 31.359429 -16.309820
v -34.613200 38.133463 -16.181490
v -40.754573 37.568318 -12.922775
v -32.616093 40.805343 -10.278838
v -40.754573 37.568318 -12.922775
v -34.613200 38.133463 -16.181490
v -32.616093 28.865477 -10.278838
v -27.229311 32.187394 -14.835610
v -34.656619 31.359429 -16.309820
v -34.656619 31.359429 -16.309820
v -27.229311 32.187394 -14.835610
v -26.598361 38.232879 -15.369343
v -34.613200 38.133463 -16.181490
v -32.616093 40.805343 -10.278838
v -34.613200 38.133463 -16.181490
v -26.598361 38.232879 -15.369343
v -32.616093 28.865477 -10.278838
v -25.094859 32.312974 -10.278838
v -27.229311 32.187394 -14.835610
v -27.229311 32.187394 -14.835610
v -25.094859 32.312974 -10.278838
v -24.134803 38.075694 -10.278838
v -26.598361 38.232879 -15.369343
v -32.616093 40.805343 -10.278838
v -26.598361 38.232879 -15.369343
v -24.134803 38.075694 -10.278838
v -11.505397 9.883623 -23.060230
v -7.413194 11.941912 -15.985912
v -5.095562 12.023564 -23.060230
v -5.095562 12.023564 -23.060230
v -7.413194 11.941912 -15.985912
v -7.208436 16.161229 -15.631941
v -6.355631 15.911422 -23.060230
v -11.505397 17.951153 -23.060230
v -6.355631 15.911422 -23.060230
v -7.208436 16.161229 -15.631941
v -11.505397 9.883623 -23.060230
v -12.785421 12.078954 -15.328739
v -7.413194 11.941912 -15.985912
v -7.413194 11.941912 -15.985912
v -12.785421 12.078954 -15.328739
v -13.068724 15.708219 -13.617557
v -7.208436 16.161229 -15.631941
v -11.505397 17.951153 -23.060230
v -7.208436 16.161229 -15.631941
v -13.068724 15.708219 -13.617557
v -11.505397 9.883623 -23.060230
v -16.930900 11.830063 -19.458202
v -12.785421 12.078954 -15.328739
v -12.785421 12.078954 -15.328739
v -16.930900 11.830063 -19.458202
v -16.333140 15.744292 -19.855059
v -13.068724 15.708219 -13.617557
v -11.505397 17.951153 -23.060230
v -13.068724 15.708219 -13.617557
v -16.333140 15.744292 -19.855059
v -11.505397 9.883623 -23.060230
v -16.797452 11.745463 -26.573662
v -16.930900 11.830063 -19.458202
v -16.930900 11.830063 -19.458202
v -16.797452 11.745463 -26.573662
v -17.912201 15.983341 -27.313751
v -16.333140 15.744292 -19.855059
v -11.505397 17.951153 -23.060230
v -16.333140 15.744292 -19.855059
v -17.912201 15.983341 -27.313751
v -11.505397 9.883623 -23.060230
v -12.844717 11.542040 -31.149874
v -16.797452 11.745463 -26.573662
v -16.797452 11.745463 -26.573662
v -12.844717 11.542040 -31.149874
v -12.823585 15.733842 -31.022238
v -17.912201 15.983341 -27.313751
v -11.505397 17.951153 -23.060230
v -17.912201 15.983341 -27.313751
v -12.823585 15.733842 -31.022238
v -11.505397 9.883623 -23.060230
v -7.830699 12.254501 -29.412795
v -12.844717 11.542040 -31.149874
v -12.844717 11.542040 -31.149874
v -7.830699 12.254501 -29.412795
v -7.123543 15.729909 -30.635277
v -12.823585 15.733842 -31.022238
v -11.505397 17.951153 -23.060230
v -12.823585 15.733842 -31.022238
v -7.123543 15.729909 -30.635277
v -11.505397 9.883623 -23.060230
v -5.095562 12.023564 -23.060230
v -7.830699 12.254501 -29.412795
v -7.830699 12.254501 -29.412795
v -5.095562 12.023564 -23.060230
v -6.355631 15.911422 -23.060230
v -7.123543 15.729909 -30.635277
v -11.505397 17.951153 -23.060230
v -7.123543 15.729909 -30.635277
v -6.355631 15.911422 -23.060230
v 4.774134 16.237833 -22.300248
v 8.641757 18.715638 -17.698960
v 9.439546 18.407565 -22.300248
v 9.439546 18.407565 -22.300248
v 8.641757 18.715638 -17.698960
v 7.800876 22.757418 -18.699351
v 9.725108 23.259024 -22.300248
v 4.774134 25.186904 -22.300248
v 9.725108 23.259024 -22.300248
v 7.800876 22.757418 -18.699351
v 4.774134 16.237833 -22.300248
v 3.520718 18.729426 -17.090119
v 8.641757 18.715638 -17.698960
v 8.641757 18.715638 -17.698960
v 3.520718 18.729426 -17.090119
v 3.425648 22.557538 -16.694937
v 7.800876 22.757418 -18.699351
v 4.774134 25.186904 -22.300248
v 7.800876 22.757418 -18.699351
v 3.425648 22.557538 -16.694937
v 4.774134 16.237833 -22.300248
v -0.470711 18.090169 -19.903911
v 3.520718 18.729426 -17.090119
v 3.520718 18.729426 -17.090119
v -0.470711 18.090169 -19.903911
v -0.795666 23.341620 -19.755441
v 3.425648 22.557538 -16.694937
v 4.774134 25.186904 -22.300248
v 3.425648 22.557538 -16.694937
v -0.795666 23.341620 -19.755441
v 4.774134 16.237833 -22.300248
v -0.651067 18.413988 -24.778987
v -0.470711 18.090169 -19.903911
v -0.470711 18.090169 -19.903911
v -0.651067 18.413988 -24.778987
v 0.159292 23.288489 -24.408739
v -0.795666 23.341620 -19.755441
v 4.774134 25.186904 -22.300248
v -0.795666 23.341620 -19.755441
v 0.159292 23.288489 -24.408739
v 4.774134 16.237833 -22.300248
v 3.484345 18.409459 -27.661568
v -0.651067 18.413988 -24.778987
v -0.651067 18.413988 -24.778987
v 3.484345 18.409459 -27.661568
v 3.725462 22.624597 -26.659309
v 0.159292 23.288489 -24.408739
v 4.774134 25.186904 -22.300248
v 0.159292 23.288489 -24.408739
v 3.725462 22.624597 -26.659309
v 4.774134 16.237833 -22.300248
v 8.653337 18.826002 -26.915313
v 3.484345 18.409459 -27.661568
v 3.484345 18.409459 -27.661568
v 8.653337 18.826002 -26.915313
v 7.735254 22.752891 -25.823075
v 3.725462 22.624597 -26.659309
v 4.774134 25.186904 -22.300248
v 3.725462 22.624597 -26.659309
v 7.735254 22.752891 -25.823075
v 4.774134 16.237833 -22.300248
v 9.439546 18.407565 -22.300248
v 8.653337 18.826002 -26.915313
v 8.653337 18.826002 -26.915313
v 9.439546 18.407565 -22.300248
v 9.725108 23.259024 -22.300248
v 7.735254 22.752891 -25.823075
v 4.774134 25.186904 -22.300248
v 7.735254 22.752891 -25.823075
v 9.725108 23.259024 -22.300248
v 25.198229 19.554077 -18.637075
v 29.361196 21.328421 -14.163880
v 31.721688 21.249479 -18.637075
v 31.721688 21.249479 -18.637075
v 29.361196 21.328421 -14.163880
v 29.135211 25.574305 -14.406706
v 31.551862 25.432522 -18.637075
v 25.198229 27.627769 -18.637075
v 31.551862 25.432522 -18.637075
v 29.135211 25.574305 -14.406706
v 25.198229 19.554077 -18.637075
v 23.762248 21.285864 -13.245928
v 29.361196 21.328421 -14.163880
v 29.361196 21.328421 -14.163880
v 23.762248 21.285864 -13.245928
v 23.837457 25.459666 -13.528285
v 29.135211 25.574305 -14.406706
v 25.198229 27.627769 -18.637075
v 29.135211 25.574305 -14.406706
v 23.837457 25.459666 -13.528285
v 25.198229 19.554077 -18.637075
v 19.210318 21.335383 -16.166091
v 23.762248 21.285864 -13.245928
v 23.762248 21.285864 -13.245928
v 19.210318 21.335383 -16.166091
v 20.469380 25.968741 -16.685658
v 23.837457 25.459666 -13.528285
v 25.198229 27.627769 -18.637075
v 23.837457 25.459666 -13.528285
v 20.469380 25.968741 -16.685658
v 25.198229 19.554077 -18.637075
v 20.752790 21.644757 -20.471540
v 19.210318 21.335383 -16.166091
v 19.210318 21.335383 -16.166091
v 20.752790 21.644757 -20.471540
v 19.303594 25.553001 -21.069568
v 20.469380 25.968741 -16.685658
v 25.198229 27.627769 -18.637075
v 20.469380 25.968741 -16.685658
v 19.303594 25.553001 -21.069568
v 25.198229 19.554077 -18.637075
v 24.150776 21.631319 -22.569561
v 20.752790 21.644757 -20.471540
v 20.752790 21.644757 -20.471540
v 24.150776 21.631319 -22.569561
v 23.954175 25.842125 -23.307665
v 19.303594 25.553001 -21.069568
v 25.198229 27.627769 -18.637075
v 19.303594 25.553001 -21.069568
v 23.954175 25.842125 -23.307665
v 25.198229 19.554077 -18.637075
v 29.250076 21.909977 -22.990870
v 24.150776 21.631319 -22.569561
v 24.150776 21.631319 -22.569561
v 29.250076 21.909977 -22.990870
v 29.146666 25.698639 -22.879754
v 23.954175 25.842125 -23.307665
v 25.198229 27.627769 -18.637075
v 23.954175 25.842125 -23.307665
v 29.146666 25.698639 -22.879754
v 25.198229 19.554077 -18.637075
v 31.721688 21.249479 -18.637075
v 29.250076 21.909977 -22.990870
v 29.250076 21.909977 -22.990870
v 31.721688 21.249479 -18.637075
v 31.551862 25.432522 -18.637075
v 29.146666 25.698639 -22.879754
v 25.198229 27.627769 -18.637075
v 29.146666 25.698639 -22.879754
v 31.551862 25.432522 -18.637075
v -33.005368 34.085758 -14.044694
v -33.142611 31.677100 -15.465797
v 22.845227 26.365485 -10.490831
v 22.913849 27.569814 -9.780280
v -32.722828 34.085758 -16.830403
v -33.142611 31.677100 -15.465797
v -33.005368 34.085758 -14.044694
v 23.055119 27.569814 -11.173134
v 22.913849 27.569814 -9.780280
v 22.845227 26.365485 -10.490831
v -33.142611 31.677100 -15.465797
v -32.860071 31.677100 -18.251505
v 22.986497 26.365485 -11.883685
v 22.845227 26.365485 -10.490831
v -32.722828 34.085758 -16.830403
v -32.860071 31.677100 -18.251505
v -33.142611 31.677100 -15.465797
v 23.055119 27.569814 -11.173134
v 22.845227 26.365485 -10.490831
v 22.986497 26.365485 -11.883685
v -32.860071 31.677100 -18.251505
v -32.440288 34.085758 -19.616111
v 23.196389 27.569814 -12.565989
v 22.986497 26.365485 -11.883685
v -32.722828 34.085758 -16.830403
v -32.440288 34.085758 -19.616111
v -32.860071 31.677100 -18.251505
v 23.055119 27.569814 -11.173134
v 22.986497 26.365485 -11.883685
v 23.196389 27.569814 -12.565989
v -32.440288 34.085758 -19.616111
v -32.303045 36.494415 -18.195009
v 23.265010 28.774143 -11.855437
v 23.196389 27.569814 -12.565989
v -32.722828 34.085758 -16.830403
v -32.303045 36.494415 -18.195009
v -32.440288 34.085758 -19.616111
v 23.055119 27.569814 -11.173134
v 23.196389 27.569814 -12.565989
v 23.265010 28.774143 -11.855437
v -32.303045 36.494415 -18.195009
v -32.585585 36.494415 -15.409300
v 23.123740 28.774143 -10.462583
v 23.265010 28.774143 -11.855437
v -32.722828 34.085758 -16.830403
v -32.585585 36.494415 -15.409300
v -32.303045 36.494415 -18.195009
v 23.055119 27.569814 -11.173134
v 23.265010 28.774143 -11.855437
v 23.123740 28.774143 -10.462583
v -32.585585 36.494415 -15.409300
v -33.005368 34.085758 -14.044694
v 22.913849 27.569814 -9.780280
v 23.123740 28.774143 -10.462583
v -32.722828 34.085758 -16.830403
v -33.005368 34.085758 -14.044694
v -32.585585 36.494415 -15.409300
v 23.055119 27.569814 -11.173134
v 23.123740 28.774143 -10.462583
v 22.913849 27.569814 -9.780280
v -26.687964 28.455358 -1.851882
v -26.698713 26.047797 -3.281404
v 18.217653 32.805513 -13.629217
v 18.223028 34.009293 -12.914456
v -27.275051 28.455358 -4.589641
v -26.698713 26.047797 -3.281404
v -26.687964 28.455358 -1.851882
v 17.929485 34.009293 -14.283336
v 18.223028 34.009293 -12.914456
v 18.217653 32.805513 -13.629217
v -26.698713 26.047797 -3.281404
v -27.285801 26.047797 -6.019164
v 17.924110 32.805513 -14.998097
v 18.217653 32.805513 -13.629217
v -27.275051 28.455358 -4.589641
v -27.285801 26.047797 -6.019164
v -26.698713 26.047797 -3.281404
v 17.929485 34.009293 -14.283336
v 18.217653 32.805513 -13.629217
v 17.924110 32.805513 -14.998097
v -27.285801 26.047797 -6.019164
v -27.862139 28.455358 -7.327401
v 17.635941 34.009293 -15.652216
v 17.924110 32.805513 -14.998097
v -27.275051 28.455358 -4.589641
v -27.862139 28.455358 -7.327401
v -27.285801 26.047797 -6.019164
v 17.929485 34.009293 -14.283336
v 17.924110 32.805513 -14.998097
v 17.635941 34.009293 -15.652216
v -27.862139 28.455358 -7.327401
v -27.851389 30.862919 -5.897879
v 17.641316 35.213074 -14.937454
v 17.635941 34.009293 -15.652216
v -27.275051 28.455358 -4.589641
v -27.851389 30.862919 -5.897879
v -27.862139 28.455358 -7.327401
v 17.929485 34.009293 -14.283336
v 17.635941 34.009293 -15.652216
v 17.641316 35.213074 -14.937454
v -27.851389 30.862919 -5.897879
v -27.264302 30.862919 -3.160119
v 17.934859 35.213074 -13.568575
v 17.641316 35.213074 -14.937454
v -27.275051 28.455358 -4.589641
v -27.264302 30.862919 -3.160119
v -27.851389 30.862919 -5.897879
v 17.929485 34.009293 -14.283336
v 17.641316 35.213074 -14.937454
v 17.934859 35.213074 -13.568575
v -27.264302 30.862919 -3.160119
v -26.687964 28.455358 -1.851882
v 18.223028 34.009293 -12.914456
v 17.934859 35.213074 -13.568575
v -27.275051 28.455358 -4.589641
v -26.687964 28.455358 -1.851882
v -27.264302 30.862919 -3.160119
v 17.929485 34.009293 -14.283336
v 17.934859 35.213074 -13.568575
v 18.223028 34.009293 -12.914456
v -13.762553 30.275521 -5.366390
v -12.913296 27.892778 -6.566929
v 19.317280 35.466398 2.833904
v 18.892651 36.657770 3.434173
v -12.922661 30.275521 -8.037454
v -12.913296 27.892778 -6.566929
v -13.762553 30.275521 -5.366390
v 19.312597 36.657770 2.098641
v 18.892651 36.657770 3.434173
v 19.317280 35.466398 2.833904
v -12.913296 27.892778 -6.566929
v -12.073403 27.892778 -9.237992
v 19.737226 35.466398 1.498372
v 19.317280 35.466398 2.833904
v -12.922661 30.275521 -8.037454
v -12.073403 27.892778 -9.237992
v -12.913296 27.892778 -6.566929
v 19.312597 36.657770 2.098641
v 19.317280 35.466398 2.833904
v 19.737226 35.466398 1.498372
v -12.073403 27.892778 -9.237992
v -12.082768 30.275521 -10.708517
v 19.732544 36.657770 0.763110
v 19.737226 35.466398 1.498372
v -12.922661 30.275521 -8.037454
v -12.082768 30.275521 -10.708517
v -12.073403 27.892778 -9.237992
v 19.312597 36.657770 2.098641
v 19.737226 35.466398 1.498372
v 19.732544 36.657770 0.763110
v -12.082768 30.275521 -10.708517
v -12.932026 32.658265 -9.507979
v 19.307915 37.849141 1.363379
v 19.732544 36.657770 0.763110
v -12.922661 30.275521 -8.037454
v -12.932026 32.658265 -9.507979
v -12.082768 30.275521 -10.708517
v 19.312597 36.657770 2.098641
v 19.732544 36.657770 0.763110
v 19.307915 37.849141 1.363379
v -12.932026 32.658265 -9.507979
v -13.771918 32.658265 -6.836915
v 18.887969 37.849141 2.698911
v 19.307915 37.849141 1.363379
v -12.922661 30.275521 -8.037454
v -13.771918 32.658265 -6.836915
v -12.932026 32.658265 -9.507979
v 19.312597 36.657770 2.098641
v 19.307915 37.849141 1.363379
v 18.887969 37.849141 2.698911
v -13.771918 32.658265 -6.836915
v -13.762553 30.275521 -5.366390
v 18.892651 36.657770 3.434173
v 18.887969 37.849141 2.698911
v -12.922661 30.275521 -8.037454
v -13.762553 30.275521 -5.366390
v -13.771918 32.658265 -6.836915
v 19.312597 36.657770 2.098641
v 18.887969 37.849141 2.698911
v 18.892651 36.657770 3.434173
vt 0.500000 1.000000
vt 0.000000 0.000000
vt 1.000000 0.000000
vt 0.000000 0.000000
vt 1.000000 0.000000
vt 1.000000 1.000000
vt 0.000000 1.000000
vt 0.000000 0.000000
vt 1.000000 0.000000
vt 1.000000 1.000000
vt 0.000000 1.000000
vt 0.500000 1.000000
vt 0.000000 0.000000
vt 1.000000 0.000000
vt 0.500000 1.000000
vt 0.000000 0.000000
vt 1.000000 0.000000
vt 0.000000 0.000000
vt 1.000000 0.000000
vt 1.000000 1.000000
vt 0.000000 1.000000
vt 0.000000 0.000000
vt 1.000000 0.000000
vt 1.000000 1.000000
vt 0.000000 1.000000
vt 0.500000 1.000000
vt 0.000000 0.000000
vt 1.000000 0.000000
vt 0.500000 1.000000
vt 0.000000 0.000000
vt 1.000000 0.000000
vt 0.000000 0.000000
vt 1.000000 0.000000
vt 1.000000 1.000000
vt 0.000000 1.000000
vt 0.000000 0.000000
vt 1.000000 0.000000
vt 1.000000 1.000000
vt 0.000000 1.000000
vt 0.500000 1.000000
vt 0.000000 0.000000
vt 1.000000 0.000000
vt 0.500000 1.000000
vt 0.000000 0.000000
vt 1.000000 0.000000
vt 0.000000 0.000000
vt 1.000000 0.000000
vt 1.000000 1.000000
vt 0.000000 1.000000
vt 0.000000 0.000000
vt 1.000000 0.000000
vt 1.000000 1.000000
vt 0.000000 1.000000
vt 0.500000 1.000000
vt 0.000000 0.000000
vt 1.000000 0.000000
vt 0.500000 1.000000
vt 0.000000 0.000000
vt 1.000000 0.000000
vt 0.000000 0.000000
vt 1.000000 0.000000
vt 1.000000 1.000000
vt 0.000000 1.000000
vt 0.000000 0.000000
vt 1.000000 0.000000
vt 1.000000 1.000000
vt 0.000000 1.000000
vt 0.500000 1.000000
vt 0.000000 0.000000
vt 1.000000 0.000000
vt 0.500000 1.000000
vt 0.000000 0.000000
vt 1.000000 0.000000
vt 0.000000 0.000000
vt 1.000000 0.000000
vt 1.000000 1.000000
vt 0.000000 1.000000
vt 0.000000 0.000000
vt 1.000000 0.000000
vt 1.000000 1.000000
vt 0.000000 1.000000
vt 0.500000 1.000000
vt 0.000000 0.000000
vt 1.000000 0.000000
vt 0.500000 1.000000
vt 0.000000 0.000000
vt 1.000000 0.000000
vt 0.000000 0.000000
vt 1.000000 0.000000
vt 1.000000 1.000000
vt 0.000000 1.000000
vt 0.000000 0.000000
vt 1.000000 0.000000
vt 1.000000 1.000000
vt 0.000000 1.000000
vt 0.500000 1.000000
vt 0.000000 0.000000
vt 1.000000 0.000000
vt 0.500000 1.000000
vt 0.000000 0.000000
vt 1.000000 0.000000
vt 0.000000 0.000000
vt 1.000000 0.000000
vt 1.000000 1.000000
vt 0.000000 1.000000
vt 0.000000 0.000000
vt 1.000000 0.000000
vt 1.000000 1.000000
vt 0.000000 1.000000
vt 0.500000 1.000000
vt 0.000000 0.000000
vt 1.000000 0.000000
vt 0.500000 1.000000
vt 0.000000 0.000000
vt 1.000000 0.000000
vt 0.000000 0.000000
vt 1.000000 0.000000
vt 1.000000 1.000000
vt 0.000000 1.000000
vt 0.000000 0.000000
vt 1.000000 0.000000
vt 1.000000 1.000000
vt 0.000000 1.000000
vt 0.500000 1.000000
vt 0.000000 0.000000
vt 1.000000 0.000000
vt 0.500000 1.000000
vt 0.000000 0.000000
vt 1.000000 0.000000
vt 0.000000 0.000000
vt 1.000000 0.000000
vt 1.000000 1.000000
vt 0.000000 1.000000
vt 0.000000 0.000000
vt 1.000000 0.000000
vt 1.000000 1.000000
vt 0.000000 1.000000
vt 0.500000 1.000000
vt 0.000000 0.000000
vt 1.000000 0.000000
vt 0.500000 1.000000
vt 0.000000 0.000000
vt 1.000000 0.000000
vt 0.000000 0.000000
vt 1.000000 0.000000
vt 1.000000 1.000000
vt 0.000000 1.000000
vt 0.500000 1.000000
vt 0.000000 0.000000
vt 1.000000 0.000000
vt 0.500000 1.000000
vt 0.000000 0.000000
vt 1.000000 0.000000
vt 0.000000 0.000000
vt 1.000000 0.000000
vt 1.000000 1.000000
vt 0.000000 1.000000
vt 0.500000 1.000000
vt 0.000000 0.000000
vt 1.000000 0.000000
vt 0.500000 1.000000
vt 0.000000 0.000000
vt 1.000000 0.000000
vt 0.000000 0.000000
vt 1.000000 0.000000
vt 1.000000 1.000000
vt 0.000000 1.000000
vt 0.500000 1.000000
vt 0.000000 0.000000
vt 1.000000 0.000000
vt 0.500000 1.000000
vt 0.000000 0.000000
vt 1.000000 0.000000
vt 0.000000 0.000000
vt 1.000000 0.000000
vt 1.000000 1.000000
vt 0.000000 1.000000
vt 0.500000 1.000000
vt 0.000000 0.000000
vt 1.000000 0.000000
vt 0.500000 1.000000
vt 0.000000 0.000000
vt 1.000000 0.000000
vt 0.000000 0.000000
vt 1.000000 0.000000
vt 1.000000 1.000000
vt 0.000000 1.000000
vt 0.500000 1.000000
vt 0.000000 0.000000
vt 1.000000 0.000000
vt 0.500000 1.000000
vt 0.000000 0.000000
vt 1.000000 0.000000
vt 0.000000 0.000000
vt 1.000000 0.000000
vt 1.000000 1.000000
vt 0.000000 1.000000
vt 0.500000 1.000000
vt 0.000000 0.000000
vt 1.000000 0.000000
vt 0.500000 1.000000
vt 0.000000 0.000000
vt 1.000000 0.000000
vt 0.000000 0.000000
vt 1.000000 0.000000
vt 1.000000 1.000000
vt 0.000000 1.000000
vt 0.500000 1.000000
vt 0.000000 0.000000
vt 1.000000 0.000000
vt 0.500000 1.000000
vt 0.000000 0.000000
vt 1.000000 0.000000
vt 0.000000 0.000000
vt 1.000000 0.000000
vt 1.000000 1.000000
vt 0.000000 1.000000
vt 0.500000 1.000000
vt 0.000000 0.000000
vt 1.000000 0.000000
vt 0.500000 1.000000
vt 0.000000 0.000000
vt 1.000000 0.000000
vt 0.000000 0.000000
vt 1.000000 0.000000
vt 1.000000 1.000000
vt 0.000000 1.000000
vt 0.500000 1.000000
vt 0.000000 0.000000
vt 1.000000 0.000000
vt 0.500000 1.000000
vt 0.000000 0.000000
vt 1.000000 0.000000
vt 0.000000 0.000000
vt 1.000000 0.000000
vt 1.000000 1.000000
vt 0.000000 1.000000
vt 0.500000 1.000000
vt 0.000000 0.000000
vt 1.000000 0.000000
vt 0.500000 1.000000
vt 0.000000 0.000000
vt 1.000000 0.000000
vt 0.000000 0.000000
vt 1.000000 0.000000
vt 1.000000 1.000000
vt 0.000000 1.000000
vt 0.500000 1.000000
vt 0.000000 0.000000
vt 1.000000 0.000000
vt 0.500000 1.000000
vt 0.000000 0.000000
vt 1.000000 0.000000
vt 0.000000 0.000000
vt 1.000000 0.000000
vt 1.000000 1.000000
vt 0.000000 1.000000
vt 0.500000 1.000000
vt 0.000000 0.000000
vt 1.000000 0.000000
vt 0.500000 1.000000
vt 0.000000 0.000000
vt 1.000000 0.000000
vt 0.000000 0.000000
vt 1.000000 0.000000
vt 1.000000 1.000000
vt 0.000000 1.000000
vt 0.500000 1.000000
vt 0.000000 0.000000
vt 1.000000 0.000000
vt 0.500000 1.000000
vt 0.000000 0.000000
vt 1.000000 0.000000
vt 0.000000 0.000000
vt 1.000000 0.000000
vt 1.000000 1.000000
vt 0.000000 1.000000
vt 0.500000 1.000000
vt 0.000000 0.000000
vt 1.000000 0.000000
vt 0.500000 1.000000
vt 0.000000 0.000000
vt 1.000000 0.000000
vt 0.000000 0.000000
vt 1.000000 0.000000
vt 1.000000 1.000000
vt 0.000000 1.000000
vt 0.500000 1.000000
vt 0.000000 0.000000
vt 1.000000 0.000000
vt 0.500000 1.000000
vt 0.000000 0.000000
vt 1.000000 0.000000
vt 0.000000 0.000000
vt 1.000000 0.000000
vt 1.000000 1.000000
vt 0.000000 1.000000
vt 0.500000 1.000000
vt 0.000000 0.000000
vt 1.000000 0.000000
vt 0.500000 1.000000
vt 0.000000 0.000000
vt 1.000000 0.000000
vt 0.000000 0.000000
vt 1.000000 0.000000
vt 1.000000 1.000000
vt 0.000000 1.000000
vt 0.500000 1.000000
vt 0.000000 0.000000
vt 1.000000 0.000000
vt 0.500000 1.000000
vt 0.000000 0.000000
vt 1.000000 0.000000
vt 0.000000 0.000000
vt 1.000000 0.000000
vt 1.000000 1.000000
vt 0.000000 1.000000
vt 0.500000 1.000000
vt 0.000000 0.000000
vt 1.000000 0.000000
vt 0.500000 1.000000
vt 0.000000 0.000000
vt 1.000000 0.000000
vt 0.000000 0.000000
vt 1.000000 0.000000
vt 1.000000 1.000000
vt 0.000000 1.000000
vt 0.500000 1.000000
vt 0.000000 0.000000
vt 1.000000 0.000000
vt 0.500000 1.000000
vt 0.000000 0.000000
vt 1.000000 0.000000
vt 0.000000 0.000000
vt 1.000000 0.000000
vt 1.000000 1.000000
vt 0.000000 1.000000
vt 0.500000 1.000000
vt 0.000000 0.000000
vt 1.000000 0.000000
vt 0.500000 1.000000
vt 0.000000 0.000000
vt 1.000000 0.000000
vt 0.000000 0.000000
vt 1.000000 0.000000
vt 1.000000 1.000000
vt 0.000000 1.000000
vt 0.500000 1.000000
vt 0.000000 0.000000
vt 1.000000 0.000000
vt 0.500000 1.000000
vt 0.000000 0.000000
vt 1.000000 0.000000
vt 0.000000 0.000000
vt 1.000000 0.000000
vt 1.000000 1.000000
vt 0.000000 1.000000
vt 0.500000 1.000000
vt 0.000000 0.000000
vt 1.000000 0.000000
vt 0.500000 1.000000
vt 0.000000 0.000000
vt 1.000000 0.000000
vt 0.000000 0.000000
vt 1.000000 0.000000
vt 1.000000 1.000000
vt 0.000000 1.000000
vt 0.500000 1.000000
vt 0.000000 0.000000
vt 1.000000 0.000000
vt 0.500000 1.000000
vt 0.000000 0.000000
vt 1.000000 0.000000
vt 0.000000 0.000000
vt 1.000000 0.000000
vt 1.000000 1.000000
vt 0.000000 1.000000
vt 0.500000 1.000000
vt 0.000000 0.000000
vt 1.000000 0.000000
vt 0.500000 1.000000
vt 0.000000 0.000000
vt 1.000000 0.000000
vt 0.000000 0.000000
vt 1.000000 0.000000
vt 1.000000 1.000000
vt 0.000000 1.000000
vt 0.500000 1.000000
vt 0.000000 0.000000
vt 1.000000 0.000000
vt 0.500000 1.000000
vt 0.000000 0.000000
vt 1.000000 0.000000
vt 0.000000 0.000000
vt 1.000000 0.000000
vt 1.000000 1.000000
vt 0.000000 1.000000
vt 0.500000 1.000000
vt 0.000000 0.000000
vt 1.000000 0.000000
vt 0.500000 1.000000
vt 0.000000 0.000000
vt 1.000000 0.000000
vt 0.000000 0.000000
vt 1.000000 0.000000
vt 1.000000 1.000000
vt 0.000000 1.000000
vt 0.500000 1.000000
vt 0.000000 0.000000
vt 1.000000 0.000000
vt 0.500000 1.000000
vt 0.000000 0.000000
vt 1.000000 0.000000
vt 0.000000 0.000000
vt 1.000000 0.000000
vt 1.000000 1.000000
vt 0.000000 1.000000
vt 0.500000 1.000000
vt 0.000000 0.000000
vt 1.000000 0.000000
vt 0.500000 1.000000
vt 0.000000 0.000000
vt 1.000000 0.000000
vt 0.000000 0.000000
vt 1.000000 0.000000
vt 1.000000 1.000000
vt 0.000000 1.000000
vt 0.500000 1.000000
vt 0.000000 0.000000
vt 1.000000 0.000000
vt 0.500000 1.000000
vt 0.000000 0.000000
vt 1.000000 0.000000
vt 0.000000 0.000000
vt 1.000000 0.000000
vt 1.000000 1.000000
vt 0.000000 1.000000
vt 0.500000 1.000000
vt 0.000000 0.000000
vt 1.000000 0.000000
vt 0.500000 1.000000
vt 0.000000 0.000000
vt 1.000000 0.000000
vt 0.000000 0.000000
vt 1.000000 0.000000
vt 1.000000 1.000000
vt 0.000000 1.000000
vt 0.500000 1.000000
vt 0.000000 0.000000
vt 1.000000 0.000000
vt 0.500000 1.000000
vt 0.000000 0.000000
vt 1.000000 0.000000
vt 0.000000 0.000000
vt 1.000000 0.000000
vt 1.000000 1.000000
vt 0.000000 1.000000
vt 0.500000 1.000000
vt 0.000000 0.000000
vt 1.000000 0.000000
vt 0.500000 1.000000
vt 0.000000 0.000000
vt 1.000000 0.000000
vt 0.000000 0.000000
vt 1.000000 0.000000
vt 1.000000 1.000000
vt 0.000000 1.000000
vt 0.500000 1.000000
vt 0.000000 0.000000
vt 1.000000 0.000000
vt 0.500000 1.000000
vt 0.000000 0.000000
vt 1.000000 0.000000
vt 0.000000 0.000000
vt 1.000000 0.000000
vt 1.000000 1.000000
vt 0.000000 1.000000
vt 0.500000 1.000000
vt 0.000000 0.000000
vt 1.000000 0.000000
vt 0.500000 1.000000
vt 0.000000 0.000000
vt 1.000000 0.000000
vt 0.000000 0.000000
vt 1.000000 0.000000
vt 1.000000 1.000000
vt 0.000000 1.000000
vt 0.500000 1.000000
vt 0.000000 0.000000
vt 1.000000 0.000000
vt 0.500000 1.000000
vt 0.000000 0.000000
vt 1.000000 0.000000
vt 0.000000 0.000000
vt 1.000000 0.000000
vt 1.000000 1.000000
vt 0.000000 1.000000
vt 0.500000 1.000000
vt 0.000000 0.000000
vt 1.000000 0.000000
vt 0.500000 1.000000
vt 0.000000 0.000000
vt 1.000000 0.000000
vt 0.000000 0.000000
vt 1.000000 0.000000
vt 1.000000 1.000000
vt 0.000000 1.000000
vt 0.500000 1.000000
vt 0.000000 0.000000
vt 1.000000 0.000000
vt 0.500000 1.000000
vt 0.000000 0.000000
vt 1.000000 0.000000
vt 0.000000 0.000000
vt 1.000000 0.000000
vt 1.000000 1.000000
vt 0.000000 1.000000
vt 0.500000 1.000000
vt 0.000000 0.000000
vt 1.000000 0.000000
vt 0.500000 1.000000
vt 0.000000 0.000000
vt 1.000000 0.000000
vt 0.000000 0.000000
vt 1.000000 0.000000
vt 1.000000 1.000000
vt 0.000000 1.000000
vt 0.500000 1.000000
vt 0.000000 0.000000
vt 1.000000 0.000000
vt 0.500000 1.000000
vt 0.000000 0.000000
vt 1.000000 0.000000
vt 0.000000 0.000000
vt 1.000000 0.000000
vt 1.000000 1.000000
vt 0.000000 1.000000
vt 0.500000 1.000000
vt 0.000000 0.000000
vt 1.000000 0.000000
vt 0.500000 1.000000
vt 0.000000 0.000000
vt 1.000000 0.000000
vt 0.000000 0.000000
vt 1.000000 0.000000
vt 1.000000 1.000000
vt 0.000000 1.000000
vt 0.500000 1.000000
vt 0.000000 0.000000
vt 1.000000 0.000000
vt 0.500000 1.000000
vt 0.000000 0.000000
vt 1.000000 0.000000
vt 0.000000 0.000000
vt 1.000000 0.000000
vt 1.000000 1.000000
vt 0.000000 1.000000
vt 0.500000 1.000000
vt 0.000000 0.000000
vt 1.000000 0.000000
vt 0.500000 1.000000
vt 0.000000 0.000000
vt 1.000000 0.000000
vt 0.000000 0.000000
vt 1.000000 0.000000
vt 1.000000 1.000000
vt 0.000000 1.000000
vt 0.500000 1.000000
vt 0.000000 0.000000
vt 1.000000 0.000000
vt 0.500000 1.000000
vt 0.000000 0.000000
vt 1.000000 0.000000
vt 0.000000 0.000000
vt 1.000000 0.000000
vt 1.000000 1.000000
vt 0.000000 1.000000
vt 0.500000 1.000000
vt 0.000000 0.000000
vt 1.000000 0.000000
vt 0.500000 1.000000
vt 0.000000 0.000000
vt 1.000000 0.000000
vt 0.000000 0.000000
vt 1.000000 0.000000
vt 1.000000 1.000000
vt 0.000000 1.000000
vt 0.500000 1.000000
vt 0.000000 0.000000
vt 1.000000 0.000000
vt 0.500000 1.000000
vt 0.000000 0.000000
vt 1.000000 0.000000
vt 0.000000 0.000000
vt 1.000000 0.000000
vt 1.000000 1.000000
vt 0.000000 1.000000
vt 0.500000 1.000000
vt 0.000000 0.000000
vt 1.000000 0.000000
vt 0.500000 1.000000
vt 0.000000 0.000000
vt 1.000000 0.000000
vt 0.000000 0.000000
vt 1.000000 0.000000
vt 1.000000 1.000000
vt 0.000000 1.000000
vt 0.500000 1.000000
vt 0.000000 0.000000
vt 1.000000 0.000000
vt 0.500000 1.000000
vt 0.000000 0.000000
vt 1.000000 0.000000
vt 0.000000 0.000000
vt 1.000000 0.000000
vt 1.000000 1.000000
vt 0.000000 1.000000
vt 0.500000 1.000000
vt 0.000000 0.000000
vt 1.000000 0.000000
vt 0.500000 1.000000
vt 0.000000 0.000000
vt 1.000000 0.000000
vt 0.000000 0.000000
vt 1.000000 0.000000
vt 1.000000 1.000000
vt 0.000000 1.000000
vt 0.500000 1.000000
vt 0.000000 0.000000
vt 1.000000 0.000000
vt 0.500000 1.000000
vt 0.000000 0.000000
vt 1.000000 0.000000
vt 0.000000 0.000000
vt 1.000000 0.000000
vt 1.000000 1.000000
vt 0.000000 1.000000
vt 0.500000 1.000000
vt 0.000000 0.000000
vt 1.000000 0.000000
vt 0.500000 1.000000
vt 0.000000 0.000000
vt 1.000000 0.000000
vt 0.000000 0.000000
vt 1.000000 0.000000
vt 1.000000 1.000000
vt 0.000000 1.000000
vt 0.500000 1.000000
vt 0.000000 0.000000
vt 1.000000 0.000000
vt 0.500000 1.000000
vt 0.000000 0.000000
vt 1.000000 0.000000
vt 0.000000 0.000000
vt 1.000000 0.000000
vt 1.000000 1.000000
vt 0.000000 1.000000
vt 0.500000 1.000000
vt 0.000000 0.000000
vt 1.000000 0.000000
vt 0.500000 1.000000
vt 0.000000 0.000000
vt 1.000000 0.000000
vt 0.000000 0.000000
vt 1.000000 0.000000
vt 1.000000 1.000000
vt 0.000000 1.000000
vt 0.500000 1.000000
vt 0.000000 0.000000
vt 1.000000 0.000000
vt 0.500000 1.000000
vt 0.000000 0.000000
vt 1.000000 0.000000
vt 0.000000 0.000000
vt 1.000000 0.000000
vt 1.000000 1.000000
vt 0.000000 1.000000
vt 0.500000 1.000000
vt 0.000000 0.000000
vt 1.000000 0.000000
vt 0.500000 1.000000
vt 0.000000 0.000000
vt 1.000000 0.000000
vt 0.000000 0.000000
vt 1.000000 0.000000
vt 1.000000 1.000000
vt 0.000000 1.000000
vt 0.500000 1.000000
vt 0.000000 0.000000
vt 1.000000 0.000000
vt 0.500000 1.000000
vt 0.000000 0.000000
vt 1.000000 0.000000
vt 0.000000 0.000000
vt 1.000000 0.000000
vt 1.000000 1.000000
vt 0.000000 1.000000
vt 0.500000 1.000000
vt 0.000000 0.000000
vt 1.000000 0.000000
vt 0.500000 1.000000
vt 0.000000 0.000000
vt 1.000000 0.000000
vt 0.000000 0.000000
vt 1.000000 0.000000
vt 1.000000 1.000000
vt 0.000000 1.000000
vt 0.500000 1.000000
vt 0.000000 0.000000
vt 1.000000 0.000000
vt 0.500000 1.000000
vt 0.000000 0.000000
vt 1.000000 0.000000
vt 0.000000 0.000000
vt 1.000000 0.000000
vt 1.000000 1.000000
vt 0.000000 1.000000
vt 0.500000 1.000000
vt 0.000000 0.000000
vt 1.000000 0.000000
vt 0.500000 1.000000
vt 0.000000 0.000000
vt 1.000000 0.000000
vt 0.000000 0.000000
vt 1.000000 0.000000
vt 1.000000 1.000000
vt 0.000000 1.000000
vt 0.500000 1.000000
vt 0.000000 0.000000
vt 1.000000 0.000000
vt 0.500000 1.000000
vt 0.000000 0.000000
vt 1.000000 0.000000
vt 0.000000 0.000000
vt 1.000000 0.000000
vt 1.000000 1.000000
vt 0.000000 1.000000
vt 0.500000 1.000000
vt 0.000000 0.000000
vt 1.000000 0.000000
vt 0.500000 1.000000
vt 0.000000 0.000000
vt 1.000000 0.000000
vt 0.000000 0.000000
vt 1.000000 0.000000
vt 1.000000 1.000000
vt 0.000000 1.000000
vt 0.500000 1.000000
vt 0.000000 0.000000
vt 1.000000 0.000000
vt 0.500000 1.000000
vt 0.000000 0.000000
vt 1.000000 0.000000
vt 0.000000 0.000000
vt 1.000000 0.000000
vt 1.000000 1.000000
vt 0.000000 1.000000
vt 0.500000 1.000000
vt 0.000000 0.000000
vt 1.000000 0.000000
vt 0.500000 1.000000
vt 0.000000 0.000000
vt 1.000000 0.000000
vt 0.000000 0.000000
vt 1.000000 0.000000
vt 1.000000 1.000000
vt 0.000000 1.000000
vt 0.500000 1.000000
vt 0.000000 0.000000
vt 1.000000 0.000000
vt 0.000000 0.000000
vt 1.000000 0.000000
vt 1.000000 1.000000
vt 0.000000 1.000000
vt 0.500000 1.000000
vt 0.000000 0.000000
vt 1.000000 0.000000
vt 0.500000 1.000000
vt 0.000000 0.000000
vt 1.000000 0.000000
vt 0.000000 0.000000
vt 1.000000 0.000000
vt 1.000000 1.000000
vt 0.000000 1.000000
vt 0.500000 1.000000
vt 0.000000 0.000000
vt 1.000000 0.000000
vt 0.500000 1.000000
vt 0.000000 0.000000
vt 1.000000 0.000000
vt 0.000000 0.000000
vt 1.000000 0.000000
vt 1.000000 1.000000
vt 0.000000 1.000000
vt 0.500000 1.000000
vt 0.000000 0.000000
vt 1.000000 0.000000
vt 0.500000 1.000000
vt 0.000000 0.000000
vt 1.000000 0.000000
vt 0.000000 0.000000
vt 1.000000 0.000000
vt 1.000000 1.000000
vt 0.000000 1.000000
vt 0.500000 1.000000
vt 0.000000 0.000000
vt 1.000000 0.000000
vt 0.500000 1.000000
vt 0.000000 0.000000
vt 1.000000 0.000000
vt 0.000000 0.000000
vt 1.000000 0.000000
vt 1.000000 1.000000
vt 0.000000 1.000000
vt 0.500000 1.000000
vt 0.000000 0.000000
vt 1.000000 0.000000
vt 0.500000 1.000000
vt 0.000000 0.000000
vt 1.000000 0.000000
vt 0.000000 0.000000
vt 1.000000 0.000000
vt 1.000000 1.000000
vt 0.000000 1.000000
vt 0.500000 1.000000
vt 0.000000 0.000000
vt 1.000000 0.000000
vt 0.500000 1.000000
vt 0.000000 0.000000
vt 1.000000 0.000000
vt 0.000000 0.000000
vt 1.000000 0.000000
vt 1.000000 1.000000
vt 0.000000 1.000000
vt 0.500000 1.000000
vt 0.000000 0.000000
vt 1.000000 0.000000
vt 0.500000 1.000000
vt 0.000000 0.000000
vt 1.000000 0.000000
vt 0.000000 0.000000
vt 1.000000 0.000000
vt 1.000000 1.000000
vt 0.000000 1.000000
vt 0.500000 1.000000
vt 0.000000 0.000000
vt 1.000000 0.000000
vt 0.500000 1.000000
vt 0.000000 0.000000
vt 1.000000 0.000000
vt 0.000000 0.000000
vt 1.000000 0.000000
vt 1.000000 1.000000
vt 0.000000 1.000000
vt 0.500000 1.000000
vt 0.000000 0.000000
vt 1.000000 0.000000
vt 0.500000 1.000000
vt 0.000000 0.000000
vt 1.000000 0.000000
vt 0.000000 0.000000
vt 1.000000 0.000000
vt 1.000000 1.000000
vt 0.000000 1.000000
vt 0.500000 1.000000
vt 0.000000 0.000000
vt 1.000000 0.000000
vt 0.500000 1.000000
vt 0.000000 0.000000
vt 1.000000 0.000000
vt 0.000000 0.000000
vt 1.000000 0.000000
vt 1.000000 1.000000
vt 0.000000 1.000000
vt 0.500000 1.000000
vt 0.000000 0.000000
vt 1.000000 0.000000
vt 0.500000 1.000000
vt 0.000000 0.000000
vt 1.000000 0.000000
vt 0.000000 0.000000
vt 1.000000 0.000000
vt 1.000000 1.000000
vt 0.000000 1.000000
vt 0.500000 1.000000
vt 0.000000 0.000000
vt 1.000000 0.000000
vt 0.500000 1.000000
vt 0.000000 0.000000
vt 1.000000 0.000000
vt 0.000000 0.000000
vt 1.000000 0.000000
vt 1.000000 1.000000
vt 0.000000 1.000000
vt 0.500000 1.000000
vt 0.000000 0.000000
vt 1.000000 0.000000
vt 0.500000 1.000000
vt 0.000000 0.000000
vt 1.000000 0.000000
vt 0.000000 0.000000
vt 1.000000 0.000000
vt 1.000000 1.000000
vt 0.000000 1.000000
vt 0.500000 1.000000
vt 0.000000 0.000000
vt 1.000000 0.000000
vt 0.500000 1.000000
vt 0.000000 0.000000
vt 1.000000 0.000000
vt 0.000000 0.000000
vt 1.000000 0.000000
vt 1.000000 1.000000
vt 0.000000 1.000000
vt 0.500000 1.000000
vt 0.000000 0.000000
vt 1.000000 0.000000
vt 0.500000 1.000000
vt 0.000000 0.000000
vt 1.000000 0.000000
vt 0.000000 0.000000
vt 1.000000 0.000000
vt 1.000000 1.000000
vt 0.000000 1.000000
vt 0.500000 1.000000
vt 0.000000 0.000000
vt 1.000000 0.000000
vt 0.500000 1.000000
vt 0.000000 0.000000
vt 1.000000 0.000000
vt 0.000000 0.000000
vt 1.000000 0.000000
vt 1.000000 1.000000
vt 0.000000 1.000000
vt 0.500000 1.000000
vt 0.000000 0.000000
vt 1.000000 0.000000
vt 0.500000 1.000000
vt 0.000000 0.000000
vt 1.000000 0.000000
vt 0.000000 0.000000
vt 1.000000 0.000000
vt 1.000000 1.000000
vt 0.000000 1.000000
vt 0.500000 1.000000
vt 0.000000 0.000000
vt 1.000000 0.000000
vt 0.500000 1.000000
vt 0.000000 0.000000
vt 1.000000 0.000000
s 1
usemtl models/caelum/world/environment/rock_granite.png
f 1/1 2/2 3/3
f 4/4 5/5 6/6 7/7
f 8/8 9/9 10/10 11/11
f 12/12 13/13 14/14
f 15/15 16/16 17/17
f 18/18 19/19 20/20 21/21
f 22/22 23/23 24/24 25/25
f 26/26 27/27 28/28
f 29/29 30/30 31/31
f 32/32 33/33 34/34 35/35
f 36/36 37/37 38/38 39/39
f 40/40 41/41 42/42
f 43/43 44/44 45/45
f 46/46 47/47 48/48 49/49
f 50/50 51/51 52/52 53/53
f 54/54 55/55 56/56
f 57/57 58/58 59/59
f 60/60 61/61 62/62 63/63
f 64/64 65/65 66/66 67/67
f 68/68 69/69 70/70
f 71/71 72/72 73/73
f 74/74 75/75 76/76 77/77
f 78/78 79/79 80/80 81/81
f 82/82 83/83 84/84
f 85/85 86/86 87/87
f 88/88 89/89 90/90 91/91
f 92/92 93/93 94/94 95/95
f 96/96 97/97 98/98
f 99/99 100/100 101/101
f 102/102 103/103 104/104 105/105
f 106/106 107/107 108/108 109/109
f 110/110 111/111 112/112
f 113/113 114/114 115/115
f 116/116 117/117 118/118 119/119
f 120/120 121/121 122/122 123/123
f 124/124 125/125 126/126
f 127/127 128/128 129/129
f 130/130 131/131 132/132 133/133
f 134/134 135/135 136/136 137/137
f 138/138 139/139 140/140
usemtl models/caelum/world/resources/ca_vein_gold.png
f 141/141 142/142 143/143
f 144/144 145/145 146/146 147/147
f 148/148 149/149 150/150
f 151/151 152/152 153/153
f 154/154 155/155 156/156 157/157
f 158/158 159/159 160/160
f 161/161 162/162 163/163
f 164/164 165/165 166/166 167/167
f 168/168 169/169 170/170
f 171/171 172/172 173/173
f 174/174 175/175 176/176 177/177
f 178/178 179/179 180/180
f 181/181 182/182 183/183
f 184/184 185/185 186/186 187/187
f 188/188 189/189 190/190
f 191/191 192/192 193/193
f 194/194 195/195 196/196 197/197
f 198/198 199/199 200/200
f 201/201 202/202 203/203
f 204/204 205/205 206/206 207/207
f 208/208 209/209 210/210
f 211/211 212/212 213/213
f 214/214 215/215 216/216 217/217
f 218/218 219/219 220/220
f 221/221 222/222 223/223
f 224/224 225/225 226/226 227/227
f 228/228 229/229 230/230
f 231/231 232/232 233/233
f 234/234 235/235 236/236 237/237
f 238/238 239/239 240/240
f 241/241 242/242 243/243
f 244/244 245/245 246/246 247/247
f 248/248 249/249 250/250
f 251/251 252/252 253/253
f 254/254 255/255 256/256 257/257
f 258/258 259/259 260/260
f 261/261 262/262 263/263
f 264/264 265/265 266/266 267/267
f 268/268 269/269 270/270
f 271/271 272/272 273/273
f 274/274 275/275 276/276 277/277
f 278/278 279/279 280/280
f 281/281 282/282 283/283
f 284/284 285/285 286/286 287/287
f 288/288 289/289 290/290
f 291/291 292/292 293/293
f 294/294 295/295 296/296 297/297
f 298/298 299/299 300/300
f 301/301 302/302 303/303
f 304/304 305/305 306/306 307/307
f 308/308 309/309 310/310
f 311/311 312/312 313/313
f 314/314 315/315 316/316 317/317
f 318/318 319/319 320/320
f 321/321 322/322 323/323
f 324/324 325/325 326/326 327/327
f 328/328 329/329 330/330
f 331/331 332/332 333/333
f 334/334 335/335 336/336 337/337
f 338/338 339/339 340/340
f 341/341 342/342 343/343
f 344/344 345/345 346/346 347/347
f 348/348 349/349 350/350
f 351/351 352/352 353/353
f 354/354 355/355 356/356 357/357
f 358/358 359/359 360/360
f 361/361 362/362 363/363
f 364/364 365/365 366/366 367/367
f 368/368 369/369 370/370
f 371/371 372/372 373/373
f 374/374 375/375 376/376 377/377
f 378/378 379/379 380/380
f 381/381 382/382 383/383
f 384/384 385/385 386/386 387/387
f 388/388 389/389 390/390
f 391/391 392/392 393/393
f 394/394 395/395 396/396 397/397
f 398/398 399/399 400/400
f 401/401 402/402 403/403
f 404/404 405/405 406/406 407/407
f 408/408 409/409 410/410
f 411/411 412/412 413/413
f 414/414 415/415 416/416 417/417
f 418/418 419/419 420/420
f 421/421 422/422 423/423
f 424/424 425/425 426/426 427/427
f 428/428 429/429 430/430
f 431/431 432/432 433/433
f 434/434 435/435 436/436 437/437
f 438/438 439/439 440/440
f 441/441 442/442 443/443
f 444/444 445/445 446/446 447/447
f 448/448 449/449 450/450
f 451/451 452/452 453/453
f 454/454 455/455 456/456 457/457
f 458/458 459/459 460/460
f 461/461 462/462 463/463
f 464/464 465/465 466/466 467/467
f 468/468 469/469 470/470
f 471/471 472/472 473/473
f 474/474 475/475 476/476 477/477
f 478/478 479/479 480/480
f 481/481 482/482 483/483
f 484/484 485/485 486/486 487/487
f 488/488 489/489 490/490
f 491/491 492/492 493/493
f 494/494 495/495 496/496 497/497
f 498/498 499/499 500/500
f 501/501 502/502 503/503
f 504/504 505/505 506/506 507/507
f 508/508 509/509 510/510
f 511/511 512/512 513/513
f 514/514 515/515 516/516 517/517
f 518/518 519/519 520/520
f 521/521 522/522 523/523
f 524/524 525/525 526/526 527/527
f 528/528 529/529 530/530
f 531/531 532/532 533/533
f 534/534 535/535 536/536 537/537
f 538/538 539/539 540/540
f 541/541 542/542 543/543
f 544/544 545/545 546/546 547/547
f 548/548 549/549 550/550
f 551/551 552/552 553/553
f 554/554 555/555 556/556 557/557
f 558/558 559/559 560/560
f 561/561 562/562 563/563
f 564/564 565/565 566/566 567/567
f 568/568 569/569 570/570
f 571/571 572/572 573/573
f 574/574 575/575 576/576 577/577
f 578/578 579/579 580/580
f 581/581 582/582 583/583
f 584/584 585/585 586/586 587/587
f 588/588 589/589 590/590
f 591/591 592/592 593/593
f 594/594 595/595 596/596 597/597
f 598/598 599/599 600/600
f 601/601 602/602 603/603
f 604/604 605/605 606/606 607/607
f 608/608 609/609 610/610
f 611/611 612/612 613/613
f 614/614 615/615 616/616 617/617
f 618/618 619/619 620/620
f 621/621 622/622 623/623
f 624/624 625/625 626/626 627/627
f 628/628 629/629 630/630
f 631/631 632/632 633/633
f 634/634 635/635 636/636 637/637
f 638/638 639/639 640/640
f 641/641 642/642 643/643
f 644/644 645/645 646/646 647/647
f 648/648 649/649 650/650
f 651/651 652/652 653/653
f 654/654 655/655 656/656 657/657
f 658/658 659/659 660/660
f 661/661 662/662 663/663
f 664/664 665/665 666/666 667/667
f 668/668 669/669 670/670
f 671/671 672/672 673/673
f 674/674 675/675 676/676 677/677
f 678/678 679/679 680/680
f 681/681 682/682 683/683
f 684/684 685/685 686/686 687/687
f 688/688 689/689 690/690
f 691/691 692/692 693/693
f 694/694 695/695 696/696 697/697
f 698/698 699/699 700/700
f 701/701 702/702 703/703
f 704/704 705/705 706/706 707/707
f 708/708 709/709 710/710
f 711/711 712/712 713/713
f 714/714 715/715 716/716 717/717
f 718/718 719/719 720/720
f 721/721 722/722 723/723
f 724/724 725/725 726/726 727/727
f 728/728 729/729 730/730
f 731/731 732/732 733/733
f 734/734 735/735 736/736 737/737
f 738/738 739/739 740/740
f 741/741 742/742 743/743
f 744/744 745/745 746/746 747/747
f 748/748 749/749 750/750
f 751/751 752/752 753/753
f 754/754 755/755 756/756 757/757
f 758/758 759/759 760/760
f 761/761 762/762 763/763
f 764/764 765/765 766/766 767/767
f 768/768 769/769 770/770
f 771/771 772/772 773/773 774/774
f 775/775 776/776 777/777
f 778/778 779/779 780/780
f 781/781 782/782 783/783 784/784
f 785/785 786/786 787/787
f 788/788 789/789 790/790
f 791/791 792/792 793/793 794/794
f 795/795 796/796 797/797
f 798/798 799/799 800/800
f 801/801 802/802 803/803 804/804
f 805/805 806/806 807/807
f 808/808 809/809 810/810
f 811/811 812/812 813/813 814/814
f 815/815 816/816 817/817
f 818/818 819/819 820/820
f 821/821 822/822 823/823 824/824
f 825/825 826/826 827/827
f 828/828 829/829 830/830
f 831/831 832/832 833/833 834/834
f 835/835 836/836 837/837
f 838/838 839/839 840/840
f 841/841 842/842 843/843 844/844
f 845/845 846/846 847/847
f 848/848 849/849 850/850
f 851/851 852/852 853/853 854/854
f 855/855 856/856 857/857
f 858/858 859/859 860/860
f 861/861 862/862 863/863 864/864
f 865/865 866/866 867/867
f 868/868 869/869 870/870
f 871/871 872/872 873/873 874/874
f 875/875 876/876 877/877
f 878/878 879/879 880/880
f 881/881 882/882 883/883 884/884
f 885/885 886/886 887/887
f 888/888 889/889 890/890
f 891/891 892/892 893/893 894/894
f 895/895 896/896 897/897
f 898/898 899/899 900/900
f 901/901 902/902 903/903 904/904
f 905/905 906/906 907/907
f 908/908 909/909 910/910
f 911/911 912/912 913/913 914/914
f 915/915 916/916 917/917
f 918/918 919/919 920/920
f 921/921 922/922 923/923 924/924
f 925/925 926/926 927/927
f 928/928 929/929 930/930
f 931/931 932/932 933/933 934/934
f 935/935 936/936 937/937
f 938/938 939/939 940/940
f 941/941 942/942 943/943 944/944
f 945/945 946/946 947/947
f 948/948 949/949 950/950
