# Modelo original generado para Caelum Argenteum.
# Ejes OBJ: X ancho, Y altura, Z profundidad.
o ca_vein_tin3
v 0.000000 0.000000 0.000000
v 37.384741 -0.904113 0.000000
v 29.124319 -0.484885 18.274594
v 37.384741 -0.904113 0.000000
v 42.022300 15.417139 0.000000
v 30.965588 17.074480 19.429933
v 29.124319 -0.484885 18.274594
v 42.022300 15.417139 0.000000
v 34.708933 35.564415 0.000000
v 30.935045 34.039547 19.410768
v 30.965588 17.074480 19.429933
v 4.591286 52.000000 -1.703630
v 30.935045 34.039547 19.410768
v 34.708933 35.564415 0.000000
v 0.000000 0.000000 0.000000
v 29.124319 -0.484885 18.274594
v 12.093985 -1.574749 32.145806
v 29.124319 -0.484885 18.274594
v 30.965588 17.074480 19.429933
v 11.782802 15.406603 31.318680
v 12.093985 -1.574749 32.145806
v 30.965588 17.074480 19.429933
v 30.935045 34.039547 19.410768
v 10.349374 34.866743 27.508630
v 11.782802 15.406603 31.318680
v 4.591286 52.000000 -1.703630
v 10.349374 34.866743 27.508630
v 30.935045 34.039547 19.410768
v 0.000000 0.000000 0.000000
v 12.093985 -1.574749 32.145806
v -9.497407 1.549873 25.244103
v 12.093985 -1.574749 32.145806
v 11.782802 15.406603 31.318680
v -15.462961 16.722617 41.100541
v -9.497407 1.549873 25.244103
v 11.782802 15.406603 31.318680
v 10.349374 34.866743 27.508630
v -10.400953 36.111516 27.645726
v -15.462961 16.722617 41.100541
v 4.591286 52.000000 -1.703630
v -10.400953 36.111516 27.645726
v 10.349374 34.866743 27.508630
v 0.000000 0.000000 0.000000
v -9.497407 1.549873 25.244103
v -33.790421 -0.734817 21.202426
v -9.497407 1.549873 25.244103
v -15.462961 16.722617 41.100541
v -39.117535 15.774342 24.545023
v -33.790421 -0.734817 21.202426
v -15.462961 16.722617 41.100541
v -10.400953 36.111516 27.645726
v -29.702952 34.104473 18.637668
v -39.117535 15.774342 24.545023
v 4.591286 52.000000 -1.703630
v -29.702952 34.104473 18.637668
v -10.400953 36.111516 27.645726
v 0.000000 0.000000 0.000000
v -33.790421 -0.734817 21.202426
v -33.164313 -1.151514 0.000000
v -33.790421 -0.734817 21.202426
v -39.117535 15.774342 24.545023
v -44.125193 14.938957 0.000000
v -33.164313 -1.151514 0.000000
v -39.117535 15.774342 24.545023
v -29.702952 34.104473 18.637668
v -33.948097 36.516036 0.000000
v -44.125193 14.938957 0.000000
v 4.591286 52.000000 -1.703630
v -33.948097 36.516036 0.000000
v -29.702952 34.104473 18.637668
v 0.000000 0.000000 0.000000
v -33.164313 -1.151514 0.000000
v -29.423757 -1.789759 -18.462482
v -33.164313 -1.151514 0.000000
v -44.125193 14.938957 0.000000
v -33.539355 15.325330 -21.044890
v -29.423757 -1.789759 -18.462482
v -44.125193 14.938957 0.000000
v -33.948097 36.516036 0.000000
v -30.590047 37.135219 -19.194292
v -33.539355 15.325330 -21.044890
v 4.591286 52.000000 -1.703630
v -30.590047 37.135219 -19.194292
v -33.948097 36.516036 0.000000
v 0.000000 0.000000 0.000000
v -29.423757 -1.789759 -18.462482
v -11.173371 0.350035 -29.698815
v -29.423757 -1.789759 -18.462482
v -33.539355 15.325330 -21.044890
v -13.975071 15.896971 -37.145731
v -11.173371 0.350035 -29.698815
v -33.539355 15.325330 -21.044890
v -30.590047 37.135219 -19.194292
v -10.925572 36.125600 -29.040163
v -13.975071 15.896971 -37.145731
v 4.591286 52.000000 -1.703630
v -10.925572 36.125600 -29.040163
v -30.590047 37.135219 -19.194292
v 0.000000 0.000000 0.000000
v -11.173371 0.350035 -29.698815
v 9.924311 -1.234660 -26.378814
v -11.173371 0.350035 -29.698815
v -13.975071 15.896971 -37.145731
v 13.985236 16.540212 -37.172749
v 9.924311 -1.234660 -26.378814
v -13.975071 15.896971 -37.145731
v -10.925572 36.125600 -29.040163
v 8.401170 34.833055 -22.330304
v 13.985236 16.540212 -37.172749
v 4.591286 52.000000 -1.703630
v 8.401170 34.833055 -22.330304
v -10.925572 36.125600 -29.040163
v 0.000000 0.000000 0.000000
v 9.924311 -1.234660 -26.378814
v 24.606297 1.144348 -15.439677
v 9.924311 -1.234660 -26.378814
v 13.985236 16.540212 -37.172749
v 37.987607 17.995535 -23.836029
v 24.606297 1.144348 -15.439677
v 13.985236 16.540212 -37.172749
v 8.401170 34.833055 -22.330304
v 29.869684 33.562260 -18.742287
v 37.987607 17.995535 -23.836029
v 4.591286 52.000000 -1.703630
v 29.869684 33.562260 -18.742287
v 8.401170 34.833055 -22.330304
v 0.000000 0.000000 0.000000
v 24.606297 1.144348 -15.439677
v 37.384741 -0.904113 0.000000
v 24.606297 1.144348 -15.439677
v 37.987607 17.995535 -23.836029
v 42.022300 15.417139 0.000000
v 37.384741 -0.904113 0.000000
v 37.987607 17.995535 -23.836029
v 29.869684 33.562260 -18.742287
v 34.708933 35.564415 0.000000
v 42.022300 15.417139 0.000000
v 4.591286 52.000000 -1.703630
v 34.708933 35.564415 0.000000
v 29.869684 33.562260 -18.742287
v 30.772226 17.896764 0.282918
v 34.031236 21.197086 3.474348
v 37.220947 21.200501 0.282918
v 37.220947 21.200501 0.282918
v 34.031236 21.197086 3.474348
v 34.745679 26.252969 4.173977
v 36.467900 26.743950 0.282918
v 30.772226 29.205661 0.282918
v 36.467900 26.743950 0.282918
v 34.745679 26.252969 4.173977
v 30.772226 17.896764 0.282918
v 29.453315 20.311817 4.795584
v 34.031236 21.197086 3.474348
v 34.031236 21.197086 3.474348
v 29.453315 20.311817 4.795584
v 29.468844 26.118536 4.742451
v 34.745679 26.252969 4.173977
v 30.772226 29.205661 0.282918
v 34.745679 26.252969 4.173977
v 29.468844 26.118536 4.742451
v 30.772226 17.896764 0.282918
v 24.521901 20.357960 2.633536
v 29.453315 20.311817 4.795584
v 29.453315 20.311817 4.795584
v 24.521901 20.357960 2.633536
v 25.916390 26.065267 2.109098
v 29.468844 26.118536 4.742451
v 30.772226 29.205661 0.282918
v 29.468844 26.118536 4.742451
v 25.916390 26.065267 2.109098
v 30.772226 17.896764 0.282918
v 25.771557 20.810461 -1.597730
v 24.521901 20.357960 2.633536
v 24.521901 20.357960 2.633536
v 25.771557 20.810461 -1.597730
v 26.269632 26.385032 -1.410415
v 25.916390 26.065267 2.109098
v 30.772226 29.205661 0.282918
v 25.916390 26.065267 2.109098
v 26.269632 26.385032 -1.410415
v 30.772226 17.896764 0.282918
v 29.476036 21.052904 -4.152007
v 25.771557 20.810461 -1.597730
v 25.771557 20.810461 -1.597730
v 29.476036 21.052904 -4.152007
v 29.255734 26.601096 -4.905772
v 26.269632 26.385032 -1.410415
v 30.772226 29.205661 0.282918
v 26.269632 26.385032 -1.410415
v 29.255734 26.601096 -4.905772
v 30.772226 17.896764 0.282918
v 34.616337 20.855436 -3.481481
v 29.476036 21.052904 -4.152007
v 29.476036 21.052904 -4.152007
v 34.616337 20.855436 -3.481481
v 35.075987 26.871573 -3.931599
v 29.255734 26.601096 -4.905772
v 30.772226 29.205661 0.282918
v 29.255734 26.601096 -4.905772
v 35.075987 26.871573 -3.931599
v 30.772226 17.896764 0.282918
v 37.220947 21.200501 0.282918
v 34.616337 20.855436 -3.481481
v 34.616337 20.855436 -3.481481
v 37.220947 21.200501 0.282918
v 36.467900 26.743950 0.282918
v 35.075987 26.871573 -3.931599
v 30.772226 29.205661 0.282918
v 35.075987 26.871573 -3.931599
v 36.467900 26.743950 0.282918
v 35.283939 31.396066 16.526872
v 38.269751 33.552181 19.940784
v 40.594461 33.201832 16.526872
v 40.594461 33.201832 16.526872
v 38.269751 33.552181 19.940784
v 39.166330 37.093464 20.965914
v 40.061136 36.877842 16.526872
v 35.283939 39.113907 16.526872
v 40.061136 36.877842 16.526872
v 39.166330 37.093464 20.965914
v 35.283939 31.396066 16.526872
v 34.231322 33.168029 20.731989
v 38.269751 33.552181 19.940784
v 38.269751 33.552181 19.940784
v 34.231322 33.168029 20.731989
v 33.877255 37.084582 22.146456
v 39.166330 37.093464 20.965914
v 35.283939 39.113907 16.526872
v 39.166330 37.093464 20.965914
v 33.877255 37.084582 22.146456
v 35.283939 31.396066 16.526872
v 30.579748 33.668141 18.592512
v 34.231322 33.168029 20.731989
v 34.231322 33.168029 20.731989
v 30.579748 33.668141 18.592512
v 30.533203 37.346731 18.612951
v 33.877255 37.084582 22.146456
v 35.283939 39.113907 16.526872
v 33.877255 37.084582 22.146456
v 30.533203 37.346731 18.612951
v 35.283939 31.396066 16.526872
v 29.439289 33.247069 13.960450
v 30.579748 33.668141 18.592512
v 30.579748 33.668141 18.592512
v 29.439289 33.247069 13.960450
v 30.684116 36.880956 14.507061
v 30.533203 37.346731 18.612951
v 35.283939 39.113907 16.526872
v 30.533203 37.346731 18.612951
v 30.684116 36.880956 14.507061
v 35.283939 31.396066 16.526872
v 34.033345 33.587648 11.530856
v 29.439289 33.247069 13.960450
v 29.439289 33.247069 13.960450
v 34.033345 33.587648 11.530856
v 33.955021 37.170916 11.217958
v 30.684116 36.880956 14.507061
v 35.283939 39.113907 16.526872
v 30.684116 36.880956 14.507061
v 33.955021 37.170916 11.217958
v 35.283939 31.396066 16.526872
v 39.159843 32.978317 12.095248
v 34.033345 33.587648 11.530856
v 34.033345 33.587648 11.530856
v 39.159843 32.978317 12.095248
v 38.919604 37.075849 12.369932
v 33.955021 37.170916 11.217958
v 35.283939 39.113907 16.526872
v 33.955021 37.170916 11.217958
v 38.919604 37.075849 12.369932
v 35.283939 31.396066 16.526872
v 40.594461 33.201832 16.526872
v 39.159843 32.978317 12.095248
v 39.159843 32.978317 12.095248
v 40.594461 33.201832 16.526872
v 40.061136 36.877842 16.526872
v 38.919604 37.075849 12.369932
v 35.283939 39.113907 16.526872
v 38.919604 37.075849 12.369932
v 40.061136 36.877842 16.526872
v 5.136110 20.328443 21.307130
v 9.828268 21.879024 25.586102
v 12.818419 22.331453 21.307130
v 12.818419 22.331453 21.307130
v 9.828268 21.879024 25.586102
v 9.054906 25.934157 24.880841
v 12.751669 25.574631 21.307130
v 5.136110 27.415832 21.307130
v 12.751669 25.574631 21.307130
v 9.054906 25.934157 24.880841
v 5.136110 20.328443 21.307130
v 3.829865 21.872545 25.469201
v 9.828268 21.879024 25.586102
v 9.828268 21.879024 25.586102
v 3.829865 21.872545 25.469201
v 3.678210 25.657464 25.952415
v 9.054906 25.934157 24.880841
v 5.136110 27.415832 21.307130
v 9.054906 25.934157 24.880841
v 3.678210 25.657464 25.952415
v 5.136110 20.328443 21.307130
v -2.134186 22.095477 23.853366
v 3.829865 21.872545 25.469201
v 3.829865 21.872545 25.469201
v -2.134186 22.095477 23.853366
v -1.555936 25.468084 23.650848
v 3.678210 25.657464 25.952415
v 5.136110 27.415832 21.307130
v 3.678210 25.657464 25.952415
v -1.555936 25.468084 23.650848
v 5.136110 20.328443 21.307130
v -2.005786 21.782962 18.805862
v -2.134186 22.095477 23.853366
v -2.134186 22.095477 23.853366
v -2.005786 21.782962 18.805862
v -0.485823 25.378097 19.338191
v -1.555936 25.468084 23.650848
v 5.136110 27.415832 21.307130
v -1.555936 25.468084 23.650848
v -0.485823 25.378097 19.338191
v 5.136110 20.328443 21.307130
v 3.359653 22.361984 15.646832
v -2.005786 21.782962 18.805862
v -2.005786 21.782962 18.805862
v 3.359653 22.361984 15.646832
v 3.419114 25.949017 15.836289
v -0.485823 25.378097 19.338191
v 5.136110 27.415832 21.307130
v -0.485823 25.378097 19.338191
v 3.419114 25.949017 15.836289
v 5.136110 20.328443 21.307130
v 9.722169 22.082368 17.124914
v 3.359653 22.361984 15.646832
v 3.359653 22.361984 15.646832
v 9.722169 22.082368 17.124914
v 9.397581 25.643374 17.420919
v 3.419114 25.949017 15.836289
v 5.136110 27.415832 21.307130
v 3.419114 25.949017 15.836289
v 9.397581 25.643374 17.420919
v 5.136110 20.328443 21.307130
v 12.818419 22.331453 21.307130
v 9.722169 22.082368 17.124914
v 9.722169 22.082368 17.124914
v 12.818419 22.331453 21.307130
v 12.751669 25.574631 21.307130
v 9.397581 25.643374 17.420919
v 5.136110 27.415832 21.307130
v 9.397581 25.643374 17.420919
v 12.751669 25.574631 21.307130
v -13.318593 18.574482 29.507832
v -10.340952 20.372718 34.702156
v -8.147278 20.447900 29.507832
v -8.147278 20.447900 29.507832
v -10.340952 20.372718 34.702156
v -10.462263 23.858581 34.490536
v -8.793841 23.611096 29.507832
v -13.318593 25.683357 29.507832
v -8.793841 23.611096 29.507832
v -10.462263 23.858581 34.490536
v -13.318593 18.574482 29.507832
v -14.433249 20.148528 36.301671
v -10.340952 20.372718 34.702156
v -10.340952 20.372718 34.702156
v -14.433249 20.148528 36.301671
v -14.343354 23.749559 35.753757
v -10.462263 23.858581 34.490536
v -13.318593 25.683357 29.507832
v -10.462263 23.858581 34.490536
v -14.343354 23.749559 35.753757
v -13.318593 18.574482 29.507832
v -17.364147 20.635589 32.218114
v -14.433249 20.148528 36.301671
v -14.433249 20.148528 36.301671
v -17.364147 20.635589 32.218114
v -18.656614 24.017486 33.083990
v -14.343354 23.749559 35.753757
v -13.318593 25.683357 29.507832
v -14.343354 23.749559 35.753757
v -18.656614 24.017486 33.083990
v -13.318593 18.574482 29.507832
v -18.507684 20.496053 26.031449
v -17.364147 20.635589 32.218114
v -17.364147 20.635589 32.218114
v -18.507684 20.496053 26.031449
v -18.155697 23.708591 26.267259
v -18.656614 24.017486 33.083990
v -13.318593 25.683357 29.507832
v -18.656614 24.017486 33.083990
v -18.155697 23.708591 26.267259
v -13.318593 18.574482 29.507832
v -14.328127 20.470715 23.354714
v -18.507684 20.496053 26.031449
v -18.507684 20.496053 26.031449
v -14.328127 20.470715 23.354714
v -14.449628 23.970406 22.614163
v -18.155697 23.708591 26.267259
v -13.318593 25.683357 29.507832
v -18.155697 23.708591 26.267259
v -14.449628 23.970406 22.614163
v -13.318593 18.574482 29.507832
v -9.725109 20.032192 23.239206
v -14.328127 20.470715 23.354714
v -14.328127 20.470715 23.354714
v -9.725109 20.032192 23.239206
v -9.812424 23.615921 23.391521
v -14.449628 23.970406 22.614163
v -13.318593 25.683357 29.507832
v -14.449628 23.970406 22.614163
v -9.812424 23.615921 23.391521
v -13.318593 18.574482 29.507832
v -8.147278 20.447900 29.507832
v -9.725109 20.032192 23.239206
v -9.725109 20.032192 23.239206
v -8.147278 20.447900 29.507832
v -8.793841 23.611096 29.507832
v -9.812424 23.615921 23.391521
v -13.318593 25.683357 29.507832
v -9.812424 23.615921 23.391521
v -8.793841 23.611096 29.507832
v -26.059298 29.695104 10.919100
v -22.224914 32.862258 14.904646
v -19.781234 32.436109 10.919100
v -19.781234 32.436109 10.919100
v -22.224914 32.862258 14.904646
v -22.089397 38.351604 15.045505
v -19.837275 38.751879 10.919100
v -26.059298 41.893050 10.919100
v -19.837275 38.751879 10.919100
v -22.089397 38.351604 15.045505
v -26.059298 29.695104 10.919100
v -27.588313 33.277619 16.472027
v -22.224914 32.862258 14.904646
v -22.224914 32.862258 14.904646
v -27.588313 33.277619 16.472027
v -27.634620 38.747648 16.640197
v -22.089397 38.351604 15.045505
v -26.059298 41.893050 10.919100
v -22.089397 38.351604 15.045505
v -27.634620 38.747648 16.640197
v -26.059298 29.695104 10.919100
v -31.607172 32.764055 13.133717
v -27.588313 33.277619 16.472027
v -27.588313 33.277619 16.472027
v -31.607172 32.764055 13.133717
v -32.968799 38.746880 13.677255
v -27.634620 38.747648 16.640197
v -26.059298 41.893050 10.919100
v -27.634620 38.747648 16.640197
v -32.968799 38.746880 13.677255
v -26.059298 29.695104 10.919100
v -32.561538 32.204070 8.323516
v -31.607172 32.764055 13.133717
v -31.607172 32.764055 13.133717
v -32.561538 32.204070 8.323516
v -32.645993 38.868403 8.289803
v -32.968799 38.746880 13.677255
v -26.059298 41.893050 10.919100
v -32.968799 38.746880 13.677255
v -32.645993 38.868403 8.289803
v -26.059298 29.695104 10.919100
v -27.345935 32.286420 6.246420
v -32.561538 32.204070 8.323516
v -32.561538 32.204070 8.323516
v -27.345935 32.286420 6.246420
v -27.716855 39.368122 4.899349
v -32.645993 38.868403 8.289803
v -26.059298 41.893050 10.919100
v -32.645993 38.868403 8.289803
v -27.716855 39.368122 4.899349
v -26.059298 29.695104 10.919100
v -22.215054 32.821719 6.923305
v -27.345935 32.286420 6.246420
v -27.345935 32.286420 6.246420
v -22.215054 32.821719 6.923305
v -21.873410 38.602971 6.568193
v -27.716855 39.368122 4.899349
v -26.059298 41.893050 10.919100
v -27.716855 39.368122 4.899349
v -21.873410 38.602971 6.568193
v -26.059298 29.695104 10.919100
v -19.781234 32.436109 10.919100
v -22.215054 32.821719 6.923305
v -22.215054 32.821719 6.923305
v -19.781234 32.436109 10.919100
v -19.837275 38.751879 10.919100
v -21.873410 38.602971 6.568193
v -26.059298 41.893050 10.919100
v -21.873410 38.602971 6.568193
v -19.837275 38.751879 10.919100
v -25.805488 15.856047 -7.580533
v -22.670653 18.268546 -3.107494
v -21.373718 18.166925 -7.580533
v -21.373718 18.166925 -7.580533
v -22.670653 18.268546 -3.107494
v -23.039829 24.025888 -3.634266
v -21.603549 24.120247 -7.580533
v -25.805488 26.474371 -7.580533
v -21.603549 24.120247 -7.580533
v -23.039829 24.025888 -3.634266
v -25.805488 15.856047 -7.580533
v -26.816031 18.722918 -2.542506
v -22.670653 18.268546 -3.107494
v -22.670653 18.268546 -3.107494
v -26.816031 18.722918 -2.542506
v -26.943682 23.702603 -1.906104
v -23.039829 24.025888 -3.634266
v -25.805488 26.474371 -7.580533
v -23.039829 24.025888 -3.634266
v -26.943682 23.702603 -1.906104
v -25.805488 15.856047 -7.580533
v -29.883237 18.182711 -5.345993
v -26.816031 18.722918 -2.542506
v -26.816031 18.722918 -2.542506
v -29.883237 18.182711 -5.345993
v -30.223851 24.154611 -5.159342
v -26.943682 23.702603 -1.906104
v -25.805488 26.474371 -7.580533
v -26.943682 23.702603 -1.906104
v -30.223851 24.154611 -5.159342
v -25.805488 15.856047 -7.580533
v -31.042146 18.889053 -10.450137
v -29.883237 18.182711 -5.345993
v -29.883237 18.182711 -5.345993
v -31.042146 18.889053 -10.450137
v -30.286498 23.797562 -10.036054
v -30.223851 24.154611 -5.159342
v -25.805488 26.474371 -7.580533
v -30.223851 24.154611 -5.159342
v -30.286498 23.797562 -10.036054
v -25.805488 15.856047 -7.580533
v -26.912784 18.943925 -13.100918
v -31.042146 18.889053 -10.450137
v -31.042146 18.889053 -10.450137
v -26.912784 18.943925 -13.100918
v -26.775845 23.849392 -12.418214
v -30.286498 23.797562 -10.036054
v -25.805488 26.474371 -7.580533
v -30.286498 23.797562 -10.036054
v -26.775845 23.849392 -12.418214
v -25.805488 15.856047 -7.580533
v -22.446896 18.460358 -12.372846
v -26.912784 18.943925 -13.100918
v -26.912784 18.943925 -13.100918
v -22.446896 18.460358 -12.372846
v -23.265501 23.496116 -11.204793
v -26.775845 23.849392 -12.418214
v -25.805488 26.474371 -7.580533
v -26.775845 23.849392 -12.418214
v -23.265501 23.496116 -11.204793
v -25.805488 15.856047 -7.580533
v -21.373718 18.166925 -7.580533
v -22.446896 18.460358 -12.372846
v -22.446896 18.460358 -12.372846
v -21.373718 18.166925 -7.580533
v -21.603549 24.120247 -7.580533
v -23.265501 23.496116 -11.204793
v -25.805488 26.474371 -7.580533
v -23.265501 23.496116 -11.204793
v -21.603549 24.120247 -7.580533
v -16.194051 24.804059 -23.997307
v -11.484050 27.589629 -19.088681
v -8.212153 27.639039 -23.997307
v -8.212153 27.639039 -23.997307
v -11.484050 27.589629 -19.088681
v -10.362470 33.643887 -17.919804
v -7.632461 33.687889 -23.997307
v -16.194051 36.270707 -23.997307
v -7.632461 33.687889 -23.997307
v -10.362470 33.643887 -17.919804
v -16.194051 24.804059 -23.997307
v -18.132735 27.552011 -16.937971
v -11.484050 27.589629 -19.088681
v -11.484050 27.589629 -19.088681
v -18.132735 27.552011 -16.937971
v -17.684352 33.272453 -18.570669
v -10.362470 33.643887 -17.919804
v -16.194051 36.270707 -23.997307
v -10.362470 33.643887 -17.919804
v -17.684352 33.272453 -18.570669
v -16.194051 24.804059 -23.997307
v -23.281311 27.474657 -21.160713
v -18.132735 27.552011 -16.937971
v -18.132735 27.552011 -16.937971
v -23.281311 27.474657 -21.160713
v -23.225945 33.674964 -21.182873
v -17.684352 33.272453 -18.570669
v -16.194051 36.270707 -23.997307
v -17.684352 33.272453 -18.570669
v -23.225945 33.674964 -21.182873
v -16.194051 24.804059 -23.997307
v -23.193591 28.023383 -26.798791
v -23.281311 27.474657 -21.160713
v -23.281311 27.474657 -21.160713
v -23.193591 28.023383 -26.798791
v -22.550555 32.925963 -26.541424
v -23.225945 33.674964 -21.182873
v -16.194051 36.270707 -23.997307
v -23.225945 33.674964 -21.182873
v -22.550555 32.925963 -26.541424
v -16.194051 24.804059 -23.997307
v -17.933569 27.599326 -30.331420
v -23.193591 28.023383 -26.798791
v -23.193591 28.023383 -26.798791
v -17.933569 27.599326 -30.331420
v -17.902460 33.297791 -30.218142
v -22.550555 32.925963 -26.541424
v -16.194051 36.270707 -23.997307
v -22.550555 32.925963 -26.541424
v -17.902460 33.297791 -30.218142
v -16.194051 24.804059 -23.997307
v -11.832869 28.039391 -28.542403
v -17.933569 27.599326 -30.331420
v -17.933569 27.599326 -30.331420
v -11.832869 28.039391 -28.542403
v -11.550884 33.341217 -28.836280
v -17.902460 33.297791 -30.218142
v -16.194051 36.270707 -23.997307
v -17.902460 33.297791 -30.218142
v -11.550884 33.341217 -28.836280
v -16.194051 24.804059 -23.997307
v -8.212153 27.639039 -23.997307
v -11.832869 28.039391 -28.542403
v -11.832869 28.039391 -28.542403
v -8.212153 27.639039 -23.997307
v -7.632461 33.687889 -23.997307
v -11.550884 33.341217 -28.836280
v -16.194051 36.270707 -23.997307
v -11.550884 33.341217 -28.836280
v -7.632461 33.687889 -23.997307
v 9.934446 22.270385 -21.846116
v 13.292645 25.183502 -16.579688
v 15.796346 24.920367 -21.846116
v 15.796346 24.920367 -21.846116
v 13.292645 25.183502 -16.579688
v 14.076891 30.667312 -15.349809
v 14.923158 29.929524 -21.846116
v 9.934446 33.019901 -21.846116
v 14.923158 29.929524 -21.846116
v 14.076891 30.667312 -15.349809
v 9.934446 22.270385 -21.846116
v 8.388806 25.307628 -13.377041
v 13.292645 25.183502 -16.579688
v 13.292645 25.183502 -16.579688
v 8.388806 25.307628 -13.377041
v 8.445530 30.042582 -13.687851
v 14.076891 30.667312 -15.349809
v 9.934446 33.019901 -21.846116
v 14.076891 30.667312 -15.349809
v 8.445530 30.042582 -13.687851
v 9.934446 22.270385 -21.846116
v 5.315840 24.903516 -19.064478
v 8.388806 25.307628 -13.377041
v 8.388806 25.307628 -13.377041
v 5.315840 24.903516 -19.064478
v 3.758560 30.652664 -18.126579
v 8.445530 30.042582 -13.687851
v 9.934446 33.019901 -21.846116
v 8.445530 30.042582 -13.687851
v 3.758560 30.652664 -18.126579
v 9.934446 22.270385 -21.846116
v 3.796502 25.219324 -25.542801
v 5.315840 24.903516 -19.064478
v 5.315840 24.903516 -19.064478
v 3.796502 25.219324 -25.542801
v 4.869776 30.813387 -24.896403
v 3.758560 30.652664 -18.126579
v 9.934446 33.019901 -21.846116
v 3.758560 30.652664 -18.126579
v 4.869776 30.813387 -24.896403
v 9.934446 22.270385 -21.846116
v 8.607662 24.924681 -29.116009
v 3.796502 25.219324 -25.542801
v 3.796502 25.219324 -25.542801
v 8.607662 24.924681 -29.116009
v 8.476078 29.961761 -29.836999
v 4.869776 30.813387 -24.896403
v 9.934446 33.019901 -21.846116
v 4.869776 30.813387 -24.896403
v 8.476078 29.961761 -29.836999
v 9.934446 22.270385 -21.846116
v 13.584409 25.287719 -27.570097
v 8.607662 24.924681 -29.116009
v 8.607662 24.924681 -29.116009
v 13.584409 25.287719 -27.570097
v 13.586302 30.429633 -27.573067
v 8.476078 29.961761 -29.836999
v 9.934446 33.019901 -21.846116
v 8.476078 29.961761 -29.836999
v 13.586302 30.429633 -27.573067
v 9.934446 22.270385 -21.846116
v 15.796346 24.920367 -21.846116
v 13.584409 25.287719 -27.570097
v 13.584409 25.287719 -27.570097
v 15.796346 24.920367 -21.846116
v 14.923158 29.929524 -21.846116
v 13.586302 30.429633 -27.573067
v 9.934446 33.019901 -21.846116
v 13.586302 30.429633 -27.573067
v 14.923158 29.929524 -21.846116
v 24.681379 21.905363 -12.670626
v 29.806473 25.865906 -5.642501
v 31.550459 24.860472 -12.670626
v 31.550459 24.860472 -12.670626
v 29.806473 25.865906 -5.642501
v 30.198323 31.500914 -5.105150
v 31.923592 32.102861 -12.670626
v 24.681379 35.489432 -12.670626
v 31.923592 32.102861 -12.670626
v 30.198323 31.500914 -5.105150
v 24.681379 21.905363 -12.670626
v 22.962193 25.586939 -4.433450
v 29.806473 25.865906 -5.642501
v 29.806473 25.865906 -5.642501
v 22.962193 25.586939 -4.433450
v 22.743851 32.457221 -3.387304
v 30.198323 31.500914 -5.105150
v 24.681379 35.489432 -12.670626
v 30.198323 31.500914 -5.105150
v 22.743851 32.457221 -3.387304
v 24.681379 21.905363 -12.670626
v 17.087029 25.252128 -8.671104
v 22.962193 25.586939 -4.433450
v 22.962193 25.586939 -4.433450
v 17.087029 25.252128 -8.671104
v 17.358062 32.331848 -8.813842
v 22.743851 32.457221 -3.387304
v 24.681379 35.489432 -12.670626
v 22.743851 32.457221 -3.387304
v 17.358062 32.331848 -8.813842
v 24.681379 21.905363 -12.670626
v 17.335081 25.325048 -16.539512
v 17.087029 25.252128 -8.671104
v 17.087029 25.252128 -8.671104
v 17.335081 25.325048 -16.539512
v 18.240057 31.578007 -16.062911
v 17.358062 32.331848 -8.813842
v 24.681379 35.489432 -12.670626
v 17.358062 32.331848 -8.813842
v 18.240057 31.578007 -16.062911
v 24.681379 21.905363 -12.670626
v 22.746525 25.002751 -21.941136
v 17.335081 25.325048 -16.539512
v 17.335081 25.325048 -16.539512
v 22.746525 25.002751 -21.941136
v 23.055197 32.667612 -20.462189
v 18.240057 31.578007 -16.062911
v 24.681379 35.489432 -12.670626
v 18.240057 31.578007 -16.062911
v 23.055197 32.667612 -20.462189
v 24.681379 21.905363 -12.670626
v 30.092339 25.872008 -20.090763
v 22.746525 25.002751 -21.941136
v 22.746525 25.002751 -21.941136
v 30.092339 25.872008 -20.090763
v 30.068301 31.756277 -20.057800
v 23.055197 32.667612 -20.462189
v 24.681379 35.489432 -12.670626
v 23.055197 32.667612 -20.462189
v 30.068301 31.756277 -20.057800
v 24.681379 21.905363 -12.670626
v 31.550459 24.860472 -12.670626
v 30.092339 25.872008 -20.090763
v 30.092339 25.872008 -20.090763
v 31.550459 24.860472 -12.670626
v 31.923592 32.102861 -12.670626
v 30.068301 31.756277 -20.057800
v 24.681379 35.489432 -12.670626
v 30.068301 31.756277 -20.057800
v 31.923592 32.102861 -12.670626
v -16.986648 35.654945 -17.476596
v -17.016660 33.257989 -18.923559
v 20.827832 40.537139 -30.412160
v 20.842838 41.735617 -29.688679
v -17.752455 35.654945 -20.169836
v -17.016660 33.257989 -18.923559
v -16.986648 35.654945 -17.476596
v 20.459935 41.735617 -31.035299
v 20.842838 41.735617 -29.688679
v 20.827832 40.537139 -30.412160
v -17.016660 33.257989 -18.923559
v -17.782466 33.257989 -21.616798
v 20.444929 40.537139 -31.758780
v 20.827832 40.537139 -30.412160
v -17.752455 35.654945 -20.169836
v -17.782466 33.257989 -21.616798
v -17.016660 33.257989 -18.923559
v 20.459935 41.735617 -31.035299
v 20.827832 40.537139 -30.412160
v 20.444929 40.537139 -31.758780
v -17.782466 33.257989 -21.616798
v -18.518261 35.654945 -22.863076
v 20.077031 41.735617 -32.381918
v 20.444929 40.537139 -31.758780
v -17.752455 35.654945 -20.169836
v -18.518261 35.654945 -22.863076
v -17.782466 33.257989 -21.616798
v 20.459935 41.735617 -31.035299
v 20.444929 40.537139 -31.758780
v 20.077031 41.735617 -32.381918
v -18.518261 35.654945 -22.863076
v -18.488250 38.051901 -21.416113
v 20.092037 42.934095 -31.658437
v 20.077031 41.735617 -32.381918
v -17.752455 35.654945 -20.169836
v -18.488250 38.051901 -21.416113
v -18.518261 35.654945 -22.863076
v 20.459935 41.735617 -31.035299
v 20.077031 41.735617 -32.381918
v 20.092037 42.934095 -31.658437
v -18.488250 38.051901 -21.416113
v -17.722443 38.051901 -18.722873
v 20.474940 42.934095 -30.311817
v 20.092037 42.934095 -31.658437
v -17.752455 35.654945 -20.169836
v -17.722443 38.051901 -18.722873
v -18.488250 38.051901 -21.416113
v 20.459935 41.735617 -31.035299
v 20.092037 42.934095 -31.658437
v 20.474940 42.934095 -30.311817
v -17.722443 38.051901 -18.722873
v -16.986648 35.654945 -17.476596
v 20.842838 41.735617 -29.688679
v 20.474940 42.934095 -30.311817
v -17.752455 35.654945 -20.169836
v -16.986648 35.654945 -17.476596
v -17.722443 38.051901 -18.722873
v 20.459935 41.735617 -31.035299
v 20.474940 42.934095 -30.311817
v 20.842838 41.735617 -29.688679
v -18.069886 31.206759 5.902008
v -18.497968 28.788091 4.557839
v 21.375369 27.086994 -3.621693
v 21.589411 28.296328 -2.949608
v -18.585302 31.206759 3.149855
v -18.497968 28.788091 4.557839
v -18.069886 31.206759 5.902008
v 21.331703 28.296328 -4.325684
v 21.589411 28.296328 -2.949608
v 21.375369 27.086994 -3.621693
v -18.497968 28.788091 4.557839
v -19.013384 28.788091 1.805686
v 21.117662 27.086994 -4.997769
v 21.375369 27.086994 -3.621693
v -18.585302 31.206759 3.149855
v -19.013384 28.788091 1.805686
v -18.497968 28.788091 4.557839
v 21.331703 28.296328 -4.325684
v 21.375369 27.086994 -3.621693
v 21.117662 27.086994 -4.997769
v -19.013384 28.788091 1.805686
v -19.100717 31.206759 0.397702
v 21.073995 28.296328 -5.701761
v 21.117662 27.086994 -4.997769
v -18.585302 31.206759 3.149855
v -19.100717 31.206759 0.397702
v -19.013384 28.788091 1.805686
v 21.331703 28.296328 -4.325684
v 21.117662 27.086994 -4.997769
v 21.073995 28.296328 -5.701761
v -19.100717 31.206759 0.397702
v -18.672635 33.625427 1.741871
v 21.288036 29.505662 -5.029676
v 21.073995 28.296328 -5.701761
v -18.585302 31.206759 3.149855
v -18.672635 33.625427 1.741871
v -19.100717 31.206759 0.397702
v 21.331703 28.296328 -4.325684
v 21.073995 28.296328 -5.701761
v 21.288036 29.505662 -5.029676
v -18.672635 33.625427 1.741871
v -18.157219 33.625427 4.494024
v 21.545744 29.505662 -3.653600
v 21.288036 29.505662 -5.029676
v -18.585302 31.206759 3.149855
v -18.157219 33.625427 4.494024
v -18.672635 33.625427 1.741871
v 21.331703 28.296328 -4.325684
v 21.288036 29.505662 -5.029676
v 21.545744 29.505662 -3.653600
v -18.157219 33.625427 4.494024
v -18.069886 31.206759 5.902008
v 21.589411 28.296328 -2.949608
v 21.545744 29.505662 -3.653600
v -18.585302 31.206759 3.149855
v -18.069886 31.206759 5.902008
v -18.157219 33.625427 4.494024
v 21.331703 28.296328 -4.325684
v 21.545744 29.505662 -3.653600
v 21.589411 28.296328 -2.949608
v -25.611317 35.898261 -5.427956
v -25.668896 33.481853 -6.841339
v 19.976695 30.860829 -2.833059
v 20.005485 32.069033 -2.126367
v -25.323800 35.898261 -8.213155
v -25.668896 33.481853 -6.841339
v -25.611317 35.898261 -5.427956
v 20.149243 32.069033 -3.518967
v 20.005485 32.069033 -2.126367
v 19.976695 30.860829 -2.833059
v -25.668896 33.481853 -6.841339
v -25.381379 33.481853 -9.626538
v 20.120454 30.860829 -4.225659
v 19.976695 30.860829 -2.833059
v -25.323800 35.898261 -8.213155
v -25.381379 33.481853 -9.626538
v -25.668896 33.481853 -6.841339
v 20.149243 32.069033 -3.518967
v 19.976695 30.860829 -2.833059
v 20.120454 30.860829 -4.225659
v -25.381379 33.481853 -9.626538
v -25.036284 35.898261 -10.998354
v 20.293001 32.069033 -4.911566
v 20.120454 30.860829 -4.225659
v -25.323800 35.898261 -8.213155
v -25.036284 35.898261 -10.998354
v -25.381379 33.481853 -9.626538
v 20.149243 32.069033 -3.518967
v 20.120454 30.860829 -4.225659
v 20.293001 32.069033 -4.911566
v -25.036284 35.898261 -10.998354
v -24.978705 38.314670 -9.584970
v 20.321791 33.277237 -4.204875
v 20.293001 32.069033 -4.911566
v -25.323800 35.898261 -8.213155
v -24.978705 38.314670 -9.584970
v -25.036284 35.898261 -10.998354
v 20.149243 32.069033 -3.518967
v 20.293001 32.069033 -4.911566
v 20.321791 33.277237 -4.204875
v -24.978705 38.314670 -9.584970
v -25.266221 38.314670 -6.799771
v 20.178033 33.277237 -2.812275
v 20.321791 33.277237 -4.204875
v -25.323800 35.898261 -8.213155
v -25.266221 38.314670 -6.799771
v -24.978705 38.314670 -9.584970
v 20.149243 32.069033 -3.518967
v 20.321791 33.277237 -4.204875
v 20.178033 33.277237 -2.812275
v -25.266221 38.314670 -6.799771
v -25.611317 35.898261 -5.427956
v 20.005485 32.069033 -2.126367
v 20.178033 33.277237 -2.812275
v -25.323800 35.898261 -8.213155
v -25.611317 35.898261 -5.427956
v -25.266221 38.314670 -6.799771
v 20.149243 32.069033 -3.518967
v 20.178033 33.277237 -2.812275
v 20.005485 32.069033 -2.126367
vt 0.500000 1.000000
vt 0.000000 0.000000
vt 1.000000 0.000000
vt 0.000000 0.000000
vt 1.000000 0.000000
vt 1.000000 1.000000
vt 0.000000 1.000000
vt 0.000000 0.000000
vt 1.000000 0.000000
vt 1.000000 1.000000
vt 0.000000 1.000000
vt 0.500000 1.000000
vt 0.000000 0.000000
vt 1.000000 0.000000
vt 0.500000 1.000000
vt 0.000000 0.000000
vt 1.000000 0.000000
vt 0.000000 0.000000
vt 1.000000 0.000000
vt 1.000000 1.000000
vt 0.000000 1.000000
vt 0.000000 0.000000
vt 1.000000 0.000000
vt 1.000000 1.000000
vt 0.000000 1.000000
vt 0.500000 1.000000
vt 0.000000 0.000000
vt 1.000000 0.000000
vt 0.500000 1.000000
vt 0.000000 0.000000
vt 1.000000 0.000000
vt 0.000000 0.000000
vt 1.000000 0.000000
vt 1.000000 1.000000
vt 0.000000 1.000000
vt 0.000000 0.000000
vt 1.000000 0.000000
vt 1.000000 1.000000
vt 0.000000 1.000000
vt 0.500000 1.000000
vt 0.000000 0.000000
vt 1.000000 0.000000
vt 0.500000 1.000000
vt 0.000000 0.000000
vt 1.000000 0.000000
vt 0.000000 0.000000
vt 1.000000 0.000000
vt 1.000000 1.000000
vt 0.000000 1.000000
vt 0.000000 0.000000
vt 1.000000 0.000000
vt 1.000000 1.000000
vt 0.000000 1.000000
vt 0.500000 1.000000
vt 0.000000 0.000000
vt 1.000000 0.000000
vt 0.500000 1.000000
vt 0.000000 0.000000
vt 1.000000 0.000000
vt 0.000000 0.000000
vt 1.000000 0.000000
vt 1.000000 1.000000
vt 0.000000 1.000000
vt 0.000000 0.000000
vt 1.000000 0.000000
vt 1.000000 1.000000
vt 0.000000 1.000000
vt 0.500000 1.000000
vt 0.000000 0.000000
vt 1.000000 0.000000
vt 0.500000 1.000000
vt 0.000000 0.000000
vt 1.000000 0.000000
vt 0.000000 0.000000
vt 1.000000 0.000000
vt 1.000000 1.000000
vt 0.000000 1.000000
vt 0.000000 0.000000
vt 1.000000 0.000000
vt 1.000000 1.000000
vt 0.000000 1.000000
vt 0.500000 1.000000
vt 0.000000 0.000000
vt 1.000000 0.000000
vt 0.500000 1.000000
vt 0.000000 0.000000
vt 1.000000 0.000000
vt 0.000000 0.000000
vt 1.000000 0.000000
vt 1.000000 1.000000
vt 0.000000 1.000000
vt 0.000000 0.000000
vt 1.000000 0.000000
vt 1.000000 1.000000
vt 0.000000 1.000000
vt 0.500000 1.000000
vt 0.000000 0.000000
vt 1.000000 0.000000
vt 0.500000 1.000000
vt 0.000000 0.000000
vt 1.000000 0.000000
vt 0.000000 0.000000
vt 1.000000 0.000000
vt 1.000000 1.000000
vt 0.000000 1.000000
vt 0.000000 0.000000
vt 1.000000 0.000000
vt 1.000000 1.000000
vt 0.000000 1.000000
vt 0.500000 1.000000
vt 0.000000 0.000000
vt 1.000000 0.000000
vt 0.500000 1.000000
vt 0.000000 0.000000
vt 1.000000 0.000000
vt 0.000000 0.000000
vt 1.000000 0.000000
vt 1.000000 1.000000
vt 0.000000 1.000000
vt 0.000000 0.000000
vt 1.000000 0.000000
vt 1.000000 1.000000
vt 0.000000 1.000000
vt 0.500000 1.000000
vt 0.000000 0.000000
vt 1.000000 0.000000
vt 0.500000 1.000000
vt 0.000000 0.000000
vt 1.000000 0.000000
vt 0.000000 0.000000
vt 1.000000 0.000000
vt 1.000000 1.000000
vt 0.000000 1.000000
vt 0.000000 0.000000
vt 1.000000 0.000000
vt 1.000000 1.000000
vt 0.000000 1.000000
vt 0.500000 1.000000
vt 0.000000 0.000000
vt 1.000000 0.000000
vt 0.500000 1.000000
vt 0.000000 0.000000
vt 1.000000 0.000000
vt 0.000000 0.000000
vt 1.000000 0.000000
vt 1.000000 1.000000
vt 0.000000 1.000000
vt 0.500000 1.000000
vt 0.000000 0.000000
vt 1.000000 0.000000
vt 0.500000 1.000000
vt 0.000000 0.000000
vt 1.000000 0.000000
vt 0.000000 0.000000
vt 1.000000 0.000000
vt 1.000000 1.000000
vt 0.000000 1.000000
vt 0.500000 1.000000
vt 0.000000 0.000000
vt 1.000000 0.000000
vt 0.500000 1.000000
vt 0.000000 0.000000
vt 1.000000 0.000000
vt 0.000000 0.000000
vt 1.000000 0.000000
vt 1.000000 1.000000
vt 0.000000 1.000000
vt 0.500000 1.000000
vt 0.000000 0.000000
vt 1.000000 0.000000
vt 0.500000 1.000000
vt 0.000000 0.000000
vt 1.000000 0.000000
vt 0.000000 0.000000
vt 1.000000 0.000000
vt 1.000000 1.000000
vt 0.000000 1.000000
vt 0.500000 1.000000
vt 0.000000 0.000000
vt 1.000000 0.000000
vt 0.500000 1.000000
vt 0.000000 0.000000
vt 1.000000 0.000000
vt 0.000000 0.000000
vt 1.000000 0.000000
vt 1.000000 1.000000
vt 0.000000 1.000000
vt 0.500000 1.000000
vt 0.000000 0.000000
vt 1.000000 0.000000
vt 0.500000 1.000000
vt 0.000000 0.000000
vt 1.000000 0.000000
vt 0.000000 0.000000
vt 1.000000 0.000000
vt 1.000000 1.000000
vt 0.000000 1.000000
vt 0.500000 1.000000
vt 0.000000 0.000000
vt 1.000000 0.000000
vt 0.500000 1.000000
vt 0.000000 0.000000
vt 1.000000 0.000000
vt 0.000000 0.000000
vt 1.000000 0.000000
vt 1.000000 1.000000
vt 0.000000 1.000000
vt 0.500000 1.000000
vt 0.000000 0.000000
vt 1.000000 0.000000
vt 0.500000 1.000000
vt 0.000000 0.000000
vt 1.000000 0.000000
vt 0.000000 0.000000
vt 1.000000 0.000000
vt 1.000000 1.000000
vt 0.000000 1.000000
vt 0.500000 1.000000
vt 0.000000 0.000000
vt 1.000000 0.000000
vt 0.500000 1.000000
vt 0.000000 0.000000
vt 1.000000 0.000000
vt 0.000000 0.000000
vt 1.000000 0.000000
vt 1.000000 1.000000
vt 0.000000 1.000000
vt 0.500000 1.000000
vt 0.000000 0.000000
vt 1.000000 0.000000
vt 0.500000 1.000000
vt 0.000000 0.000000
vt 1.000000 0.000000
vt 0.000000 0.000000
vt 1.000000 0.000000
vt 1.000000 1.000000
vt 0.000000 1.000000
vt 0.500000 1.000000
vt 0.000000 0.000000
vt 1.000000 0.000000
vt 0.500000 1.000000
vt 0.000000 0.000000
vt 1.000000 0.000000
vt 0.000000 0.000000
vt 1.000000 0.000000
vt 1.000000 1.000000
vt 0.000000 1.000000
vt 0.500000 1.000000
vt 0.000000 0.000000
vt 1.000000 0.000000
vt 0.500000 1.000000
vt 0.000000 0.000000
vt 1.000000 0.000000
vt 0.000000 0.000000
vt 1.000000 0.000000
vt 1.000000 1.000000
vt 0.000000 1.000000
vt 0.500000 1.000000
vt 0.000000 0.000000
vt 1.000000 0.000000
vt 0.500000 1.000000
vt 0.000000 0.000000
vt 1.000000 0.000000
vt 0.000000 0.000000
vt 1.000000 0.000000
vt 1.000000 1.000000
vt 0.000000 1.000000
vt 0.500000 1.000000
vt 0.000000 0.000000
vt 1.000000 0.000000
vt 0.500000 1.000000
vt 0.000000 0.000000
vt 1.000000 0.000000
vt 0.000000 0.000000
vt 1.000000 0.000000
vt 1.000000 1.000000
vt 0.000000 1.000000
vt 0.500000 1.000000
vt 0.000000 0.000000
vt 1.000000 0.000000
vt 0.500000 1.000000
vt 0.000000 0.000000
vt 1.000000 0.000000
vt 0.000000 0.000000
vt 1.000000 0.000000
vt 1.000000 1.000000
vt 0.000000 1.000000
vt 0.500000 1.000000
vt 0.000000 0.000000
vt 1.000000 0.000000
vt 0.500000 1.000000
vt 0.000000 0.000000
vt 1.000000 0.000000
vt 0.000000 0.000000
vt 1.000000 0.000000
vt 1.000000 1.000000
vt 0.000000 1.000000
vt 0.500000 1.000000
vt 0.000000 0.000000
vt 1.000000 0.000000
vt 0.500000 1.000000
vt 0.000000 0.000000
vt 1.000000 0.000000
vt 0.000000 0.000000
vt 1.000000 0.000000
vt 1.000000 1.000000
vt 0.000000 1.000000
vt 0.500000 1.000000
vt 0.000000 0.000000
vt 1.000000 0.000000
vt 0.500000 1.000000
vt 0.000000 0.000000
vt 1.000000 0.000000
vt 0.000000 0.000000
vt 1.000000 0.000000
vt 1.000000 1.000000
vt 0.000000 1.000000
vt 0.500000 1.000000
vt 0.000000 0.000000
vt 1.000000 0.000000
vt 0.500000 1.000000
vt 0.000000 0.000000
vt 1.000000 0.000000
vt 0.000000 0.000000
vt 1.000000 0.000000
vt 1.000000 1.000000
vt 0.000000 1.000000
vt 0.500000 1.000000
vt 0.000000 0.000000
vt 1.000000 0.000000
vt 0.500000 1.000000
vt 0.000000 0.000000
vt 1.000000 0.000000
vt 0.000000 0.000000
vt 1.000000 0.000000
vt 1.000000 1.000000
vt 0.000000 1.000000
vt 0.500000 1.000000
vt 0.000000 0.000000
vt 1.000000 0.000000
vt 0.500000 1.000000
vt 0.000000 0.000000
vt 1.000000 0.000000
vt 0.000000 0.000000
vt 1.000000 0.000000
vt 1.000000 1.000000
vt 0.000000 1.000000
vt 0.500000 1.000000
vt 0.000000 0.000000
vt 1.000000 0.000000
vt 0.500000 1.000000
vt 0.000000 0.000000
vt 1.000000 0.000000
vt 0.000000 0.000000
vt 1.000000 0.000000
vt 1.000000 1.000000
vt 0.000000 1.000000
vt 0.500000 1.000000
vt 0.000000 0.000000
vt 1.000000 0.000000
vt 0.500000 1.000000
vt 0.000000 0.000000
vt 1.000000 0.000000
vt 0.000000 0.000000
vt 1.000000 0.000000
vt 1.000000 1.000000
vt 0.000000 1.000000
vt 0.500000 1.000000
vt 0.000000 0.000000
vt 1.000000 0.000000
vt 0.500000 1.000000
vt 0.000000 0.000000
vt 1.000000 0.000000
vt 0.000000 0.000000
vt 1.000000 0.000000
vt 1.000000 1.000000
vt 0.000000 1.000000
vt 0.500000 1.000000
vt 0.000000 0.000000
vt 1.000000 0.000000
vt 0.500000 1.000000
vt 0.000000 0.000000
vt 1.000000 0.000000
vt 0.000000 0.000000
vt 1.000000 0.000000
vt 1.000000 1.000000
vt 0.000000 1.000000
vt 0.500000 1.000000
vt 0.000000 0.000000
vt 1.000000 0.000000
vt 0.500000 1.000000
vt 0.000000 0.000000
vt 1.000000 0.000000
vt 0.000000 0.000000
vt 1.000000 0.000000
vt 1.000000 1.000000
vt 0.000000 1.000000
vt 0.500000 1.000000
vt 0.000000 0.000000
vt 1.000000 0.000000
vt 0.500000 1.000000
vt 0.000000 0.000000
vt 1.000000 0.000000
vt 0.000000 0.000000
vt 1.000000 0.000000
vt 1.000000 1.000000
vt 0.000000 1.000000
vt 0.500000 1.000000
vt 0.000000 0.000000
vt 1.000000 0.000000
vt 0.500000 1.000000
vt 0.000000 0.000000
vt 1.000000 0.000000
vt 0.000000 0.000000
vt 1.000000 0.000000
vt 1.000000 1.000000
vt 0.000000 1.000000
vt 0.500000 1.000000
vt 0.000000 0.000000
vt 1.000000 0.000000
vt 0.500000 1.000000
vt 0.000000 0.000000
vt 1.000000 0.000000
vt 0.000000 0.000000
vt 1.000000 0.000000
vt 1.000000 1.000000
vt 0.000000 1.000000
vt 0.500000 1.000000
vt 0.000000 0.000000
vt 1.000000 0.000000
vt 0.500000 1.000000
vt 0.000000 0.000000
vt 1.000000 0.000000
vt 0.000000 0.000000
vt 1.000000 0.000000
vt 1.000000 1.000000
vt 0.000000 1.000000
vt 0.500000 1.000000
vt 0.000000 0.000000
vt 1.000000 0.000000
vt 0.500000 1.000000
vt 0.000000 0.000000
vt 1.000000 0.000000
vt 0.000000 0.000000
vt 1.000000 0.000000
vt 1.000000 1.000000
vt 0.000000 1.000000
vt 0.500000 1.000000
vt 0.000000 0.000000
vt 1.000000 0.000000
vt 0.500000 1.000000
vt 0.000000 0.000000
vt 1.000000 0.000000
vt 0.000000 0.000000
vt 1.000000 0.000000
vt 1.000000 1.000000
vt 0.000000 1.000000
vt 0.500000 1.000000
vt 0.000000 0.000000
vt 1.000000 0.000000
vt 0.500000 1.000000
vt 0.000000 0.000000
vt 1.000000 0.000000
vt 0.000000 0.000000
vt 1.000000 0.000000
vt 1.000000 1.000000
vt 0.000000 1.000000
vt 0.500000 1.000000
vt 0.000000 0.000000
vt 1.000000 0.000000
vt 0.500000 1.000000
vt 0.000000 0.000000
vt 1.000000 0.000000
vt 0.000000 0.000000
vt 1.000000 0.000000
vt 1.000000 1.000000
vt 0.000000 1.000000
vt 0.500000 1.000000
vt 0.000000 0.000000
vt 1.000000 0.000000
vt 0.500000 1.000000
vt 0.000000 0.000000
vt 1.000000 0.000000
vt 0.000000 0.000000
vt 1.000000 0.000000
vt 1.000000 1.000000
vt 0.000000 1.000000
vt 0.500000 1.000000
vt 0.000000 0.000000
vt 1.000000 0.000000
vt 0.500000 1.000000
vt 0.000000 0.000000
vt 1.000000 0.000000
vt 0.000000 0.000000
vt 1.000000 0.000000
vt 1.000000 1.000000
vt 0.000000 1.000000
vt 0.500000 1.000000
vt 0.000000 0.000000
vt 1.000000 0.000000
vt 0.500000 1.000000
vt 0.000000 0.000000
vt 1.000000 0.000000
vt 0.000000 0.000000
vt 1.000000 0.000000
vt 1.000000 1.000000
vt 0.000000 1.000000
vt 0.500000 1.000000
vt 0.000000 0.000000
vt 1.000000 0.000000
vt 0.500000 1.000000
vt 0.000000 0.000000
vt 1.000000 0.000000
vt 0.000000 0.000000
vt 1.000000 0.000000
vt 1.000000 1.000000
vt 0.000000 1.000000
vt 0.500000 1.000000
vt 0.000000 0.000000
vt 1.000000 0.000000
vt 0.500000 1.000000
vt 0.000000 0.000000
vt 1.000000 0.000000
vt 0.000000 0.000000
vt 1.000000 0.000000
vt 1.000000 1.000000
vt 0.000000 1.000000
vt 0.500000 1.000000
vt 0.000000 0.000000
vt 1.000000 0.000000
vt 0.500000 1.000000
vt 0.000000 0.000000
vt 1.000000 0.000000
vt 0.000000 0.000000
vt 1.000000 0.000000
vt 1.000000 1.000000
vt 0.000000 1.000000
vt 0.500000 1.000000
vt 0.000000 0.000000
vt 1.000000 0.000000
vt 0.500000 1.000000
vt 0.000000 0.000000
vt 1.000000 0.000000
vt 0.000000 0.000000
vt 1.000000 0.000000
vt 1.000000 1.000000
vt 0.000000 1.000000
vt 0.500000 1.000000
vt 0.000000 0.000000
vt 1.000000 0.000000
vt 0.500000 1.000000
vt 0.000000 0.000000
vt 1.000000 0.000000
vt 0.000000 0.000000
vt 1.000000 0.000000
vt 1.000000 1.000000
vt 0.000000 1.000000
vt 0.500000 1.000000
vt 0.000000 0.000000
vt 1.000000 0.000000
vt 0.500000 1.000000
vt 0.000000 0.000000
vt 1.000000 0.000000
vt 0.000000 0.000000
vt 1.000000 0.000000
vt 1.000000 1.000000
vt 0.000000 1.000000
vt 0.500000 1.000000
vt 0.000000 0.000000
vt 1.000000 0.000000
vt 0.500000 1.000000
vt 0.000000 0.000000
vt 1.000000 0.000000
vt 0.000000 0.000000
vt 1.000000 0.000000
vt 1.000000 1.000000
vt 0.000000 1.000000
vt 0.500000 1.000000
vt 0.000000 0.000000
vt 1.000000 0.000000
vt 0.500000 1.000000
vt 0.000000 0.000000
vt 1.000000 0.000000
vt 0.000000 0.000000
vt 1.000000 0.000000
vt 1.000000 1.000000
vt 0.000000 1.000000
vt 0.500000 1.000000
vt 0.000000 0.000000
vt 1.000000 0.000000
vt 0.500000 1.000000
vt 0.000000 0.000000
vt 1.000000 0.000000
vt 0.000000 0.000000
vt 1.000000 0.000000
vt 1.000000 1.000000
vt 0.000000 1.000000
vt 0.500000 1.000000
vt 0.000000 0.000000
vt 1.000000 0.000000
vt 0.500000 1.000000
vt 0.000000 0.000000
vt 1.000000 0.000000
vt 0.000000 0.000000
vt 1.000000 0.000000
vt 1.000000 1.000000
vt 0.000000 1.000000
vt 0.500000 1.000000
vt 0.000000 0.000000
vt 1.000000 0.000000
vt 0.500000 1.000000
vt 0.000000 0.000000
vt 1.000000 0.000000
vt 0.000000 0.000000
vt 1.000000 0.000000
vt 1.000000 1.000000
vt 0.000000 1.000000
vt 0.500000 1.000000
vt 0.000000 0.000000
vt 1.000000 0.000000
vt 0.500000 1.000000
vt 0.000000 0.000000
vt 1.000000 0.000000
vt 0.000000 0.000000
vt 1.000000 0.000000
vt 1.000000 1.000000
vt 0.000000 1.000000
vt 0.500000 1.000000
vt 0.000000 0.000000
vt 1.000000 0.000000
vt 0.500000 1.000000
vt 0.000000 0.000000
vt 1.000000 0.000000
vt 0.000000 0.000000
vt 1.000000 0.000000
vt 1.000000 1.000000
vt 0.000000 1.000000
vt 0.500000 1.000000
vt 0.000000 0.000000
vt 1.000000 0.000000
vt 0.500000 1.000000
vt 0.000000 0.000000
vt 1.000000 0.000000
vt 0.000000 0.000000
vt 1.000000 0.000000
vt 1.000000 1.000000
vt 0.000000 1.000000
vt 0.500000 1.000000
vt 0.000000 0.000000
vt 1.000000 0.000000
vt 0.500000 1.000000
vt 0.000000 0.000000
vt 1.000000 0.000000
vt 0.000000 0.000000
vt 1.000000 0.000000
vt 1.000000 1.000000
vt 0.000000 1.000000
vt 0.500000 1.000000
vt 0.000000 0.000000
vt 1.000000 0.000000
vt 0.500000 1.000000
vt 0.000000 0.000000
vt 1.000000 0.000000
vt 0.000000 0.000000
vt 1.000000 0.000000
vt 1.000000 1.000000
vt 0.000000 1.000000
vt 0.500000 1.000000
vt 0.000000 0.000000
vt 1.000000 0.000000
vt 0.500000 1.000000
vt 0.000000 0.000000
vt 1.000000 0.000000
vt 0.000000 0.000000
vt 1.000000 0.000000
vt 1.000000 1.000000
vt 0.000000 1.000000
vt 0.500000 1.000000
vt 0.000000 0.000000
vt 1.000000 0.000000
vt 0.500000 1.000000
vt 0.000000 0.000000
vt 1.000000 0.000000
vt 0.000000 0.000000
vt 1.000000 0.000000
vt 1.000000 1.000000
vt 0.000000 1.000000
vt 0.500000 1.000000
vt 0.000000 0.000000
vt 1.000000 0.000000
vt 0.500000 1.000000
vt 0.000000 0.000000
vt 1.000000 0.000000
vt 0.000000 0.000000
vt 1.000000 0.000000
vt 1.000000 1.000000
vt 0.000000 1.000000
vt 0.500000 1.000000
vt 0.000000 0.000000
vt 1.000000 0.000000
vt 0.500000 1.000000
vt 0.000000 0.000000
vt 1.000000 0.000000
vt 0.000000 0.000000
vt 1.000000 0.000000
vt 1.000000 1.000000
vt 0.000000 1.000000
vt 0.500000 1.000000
vt 0.000000 0.000000
vt 1.000000 0.000000
vt 0.500000 1.000000
vt 0.000000 0.000000
vt 1.000000 0.000000
vt 0.000000 0.000000
vt 1.000000 0.000000
vt 1.000000 1.000000
vt 0.000000 1.000000
vt 0.500000 1.000000
vt 0.000000 0.000000
vt 1.000000 0.000000
vt 0.500000 1.000000
vt 0.000000 0.000000
vt 1.000000 0.000000
vt 0.000000 0.000000
vt 1.000000 0.000000
vt 1.000000 1.000000
vt 0.000000 1.000000
vt 0.500000 1.000000
vt 0.000000 0.000000
vt 1.000000 0.000000
vt 0.500000 1.000000
vt 0.000000 0.000000
vt 1.000000 0.000000
vt 0.000000 0.000000
vt 1.000000 0.000000
vt 1.000000 1.000000
vt 0.000000 1.000000
vt 0.500000 1.000000
vt 0.000000 0.000000
vt 1.000000 0.000000
vt 0.500000 1.000000
vt 0.000000 0.000000
vt 1.000000 0.000000
vt 0.000000 0.000000
vt 1.000000 0.000000
vt 1.000000 1.000000
vt 0.000000 1.000000
vt 0.500000 1.000000
vt 0.000000 0.000000
vt 1.000000 0.000000
vt 0.500000 1.000000
vt 0.000000 0.000000
vt 1.000000 0.000000
vt 0.000000 0.000000
vt 1.000000 0.000000
vt 1.000000 1.000000
vt 0.000000 1.000000
vt 0.500000 1.000000
vt 0.000000 0.000000
vt 1.000000 0.000000
vt 0.500000 1.000000
vt 0.000000 0.000000
vt 1.000000 0.000000
vt 0.000000 0.000000
vt 1.000000 0.000000
vt 1.000000 1.000000
vt 0.000000 1.000000
vt 0.500000 1.000000
vt 0.000000 0.000000
vt 1.000000 0.000000
vt 0.000000 0.000000
vt 1.000000 0.000000
vt 1.000000 1.000000
vt 0.000000 1.000000
vt 0.500000 1.000000
vt 0.000000 0.000000
vt 1.000000 0.000000
vt 0.500000 1.000000
vt 0.000000 0.000000
vt 1.000000 0.000000
vt 0.000000 0.000000
vt 1.000000 0.000000
vt 1.000000 1.000000
vt 0.000000 1.000000
vt 0.500000 1.000000
vt 0.000000 0.000000
vt 1.000000 0.000000
vt 0.500000 1.000000
vt 0.000000 0.000000
vt 1.000000 0.000000
vt 0.000000 0.000000
vt 1.000000 0.000000
vt 1.000000 1.000000
vt 0.000000 1.000000
vt 0.500000 1.000000
vt 0.000000 0.000000
vt 1.000000 0.000000
vt 0.500000 1.000000
vt 0.000000 0.000000
vt 1.000000 0.000000
vt 0.000000 0.000000
vt 1.000000 0.000000
vt 1.000000 1.000000
vt 0.000000 1.000000
vt 0.500000 1.000000
vt 0.000000 0.000000
vt 1.000000 0.000000
vt 0.500000 1.000000
vt 0.000000 0.000000
vt 1.000000 0.000000
vt 0.000000 0.000000
vt 1.000000 0.000000
vt 1.000000 1.000000
vt 0.000000 1.000000
vt 0.500000 1.000000
vt 0.000000 0.000000
vt 1.000000 0.000000
vt 0.500000 1.000000
vt 0.000000 0.000000
vt 1.000000 0.000000
vt 0.000000 0.000000
vt 1.000000 0.000000
vt 1.000000 1.000000
vt 0.000000 1.000000
vt 0.500000 1.000000
vt 0.000000 0.000000
vt 1.000000 0.000000
vt 0.500000 1.000000
vt 0.000000 0.000000
vt 1.000000 0.000000
vt 0.000000 0.000000
vt 1.000000 0.000000
vt 1.000000 1.000000
vt 0.000000 1.000000
vt 0.500000 1.000000
vt 0.000000 0.000000
vt 1.000000 0.000000
vt 0.500000 1.000000
vt 0.000000 0.000000
vt 1.000000 0.000000
vt 0.000000 0.000000
vt 1.000000 0.000000
vt 1.000000 1.000000
vt 0.000000 1.000000
vt 0.500000 1.000000
vt 0.000000 0.000000
vt 1.000000 0.000000
vt 0.500000 1.000000
vt 0.000000 0.000000
vt 1.000000 0.000000
vt 0.000000 0.000000
vt 1.000000 0.000000
vt 1.000000 1.000000
vt 0.000000 1.000000
vt 0.500000 1.000000
vt 0.000000 0.000000
vt 1.000000 0.000000
vt 0.500000 1.000000
vt 0.000000 0.000000
vt 1.000000 0.000000
vt 0.000000 0.000000
vt 1.000000 0.000000
vt 1.000000 1.000000
vt 0.000000 1.000000
vt 0.500000 1.000000
vt 0.000000 0.000000
vt 1.000000 0.000000
vt 0.500000 1.000000
vt 0.000000 0.000000
vt 1.000000 0.000000
vt 0.000000 0.000000
vt 1.000000 0.000000
vt 1.000000 1.000000
vt 0.000000 1.000000
vt 0.500000 1.000000
vt 0.000000 0.000000
vt 1.000000 0.000000
vt 0.500000 1.000000
vt 0.000000 0.000000
vt 1.000000 0.000000
vt 0.000000 0.000000
vt 1.000000 0.000000
vt 1.000000 1.000000
vt 0.000000 1.000000
vt 0.500000 1.000000
vt 0.000000 0.000000
vt 1.000000 0.000000
vt 0.500000 1.000000
vt 0.000000 0.000000
vt 1.000000 0.000000
vt 0.000000 0.000000
vt 1.000000 0.000000
vt 1.000000 1.000000
vt 0.000000 1.000000
vt 0.500000 1.000000
vt 0.000000 0.000000
vt 1.000000 0.000000
vt 0.500000 1.000000
vt 0.000000 0.000000
vt 1.000000 0.000000
vt 0.000000 0.000000
vt 1.000000 0.000000
vt 1.000000 1.000000
vt 0.000000 1.000000
vt 0.500000 1.000000
vt 0.000000 0.000000
vt 1.000000 0.000000
vt 0.500000 1.000000
vt 0.000000 0.000000
vt 1.000000 0.000000
vt 0.000000 0.000000
vt 1.000000 0.000000
vt 1.000000 1.000000
vt 0.000000 1.000000
vt 0.500000 1.000000
vt 0.000000 0.000000
vt 1.000000 0.000000
vt 0.500000 1.000000
vt 0.000000 0.000000
vt 1.000000 0.000000
vt 0.000000 0.000000
vt 1.000000 0.000000
vt 1.000000 1.000000
vt 0.000000 1.000000
vt 0.500000 1.000000
vt 0.000000 0.000000
vt 1.000000 0.000000
vt 0.500000 1.000000
vt 0.000000 0.000000
vt 1.000000 0.000000
vt 0.000000 0.000000
vt 1.000000 0.000000
vt 1.000000 1.000000
vt 0.000000 1.000000
vt 0.500000 1.000000
vt 0.000000 0.000000
vt 1.000000 0.000000
vt 0.500000 1.000000
vt 0.000000 0.000000
vt 1.000000 0.000000
vt 0.000000 0.000000
vt 1.000000 0.000000
vt 1.000000 1.000000
vt 0.000000 1.000000
vt 0.500000 1.000000
vt 0.000000 0.000000
vt 1.000000 0.000000
vt 0.500000 1.000000
vt 0.000000 0.000000
vt 1.000000 0.000000
s 1
usemtl models/caelum/world/environment/rock_granite.png
f 1/1 2/2 3/3
f 4/4 5/5 6/6 7/7
f 8/8 9/9 10/10 11/11
f 12/12 13/13 14/14
f 15/15 16/16 17/17
f 18/18 19/19 20/20 21/21
f 22/22 23/23 24/24 25/25
f 26/26 27/27 28/28
f 29/29 30/30 31/31
f 32/32 33/33 34/34 35/35
f 36/36 37/37 38/38 39/39
f 40/40 41/41 42/42
f 43/43 44/44 45/45
f 46/46 47/47 48/48 49/49
f 50/50 51/51 52/52 53/53
f 54/54 55/55 56/56
f 57/57 58/58 59/59
f 60/60 61/61 62/62 63/63
f 64/64 65/65 66/66 67/67
f 68/68 69/69 70/70
f 71/71 72/72 73/73
f 74/74 75/75 76/76 77/77
f 78/78 79/79 80/80 81/81
f 82/82 83/83 84/84
f 85/85 86/86 87/87
f 88/88 89/89 90/90 91/91
f 92/92 93/93 94/94 95/95
f 96/96 97/97 98/98
f 99/99 100/100 101/101
f 102/102 103/103 104/104 105/105
f 106/106 107/107 108/108 109/109
f 110/110 111/111 112/112
f 113/113 114/114 115/115
f 116/116 117/117 118/118 119/119
f 120/120 121/121 122/122 123/123
f 124/124 125/125 126/126
f 127/127 128/128 129/129
f 130/130 131/131 132/132 133/133
f 134/134 135/135 136/136 137/137
f 138/138 139/139 140/140
usemtl models/caelum/world/resources/ca_vein_tin.png
f 141/141 142/142 143/143
f 144/144 145/145 146/146 147/147
f 148/148 149/149 150/150
f 151/151 152/152 153/153
f 154/154 155/155 156/156 157/157
f 158/158 159/159 160/160
f 161/161 162/162 163/163
f 164/164 165/165 166/166 167/167
f 168/168 169/169 170/170
f 171/171 172/172 173/173
f 174/174 175/175 176/176 177/177
f 178/178 179/179 180/180
f 181/181 182/182 183/183
f 184/184 185/185 186/186 187/187
f 188/188 189/189 190/190
f 191/191 192/192 193/193
f 194/194 195/195 196/196 197/197
f 198/198 199/199 200/200
f 201/201 202/202 203/203
f 204/204 205/205 206/206 207/207
f 208/208 209/209 210/210
f 211/211 212/212 213/213
f 214/214 215/215 216/216 217/217
f 218/218 219/219 220/220
f 221/221 222/222 223/223
f 224/224 225/225 226/226 227/227
f 228/228 229/229 230/230
f 231/231 232/232 233/233
f 234/234 235/235 236/236 237/237
f 238/238 239/239 240/240
f 241/241 242/242 243/243
f 244/244 245/245 246/246 247/247
f 248/248 249/249 250/250
f 251/251 252/252 253/253
f 254/254 255/255 256/256 257/257
f 258/258 259/259 260/260
f 261/261 262/262 263/263
f 264/264 265/265 266/266 267/267
f 268/268 269/269 270/270
f 271/271 272/272 273/273
f 274/274 275/275 276/276 277/277
f 278/278 279/279 280/280
f 281/281 282/282 283/283
f 284/284 285/285 286/286 287/287
f 288/288 289/289 290/290
f 291/291 292/292 293/293
f 294/294 295/295 296/296 297/297
f 298/298 299/299 300/300
f 301/301 302/302 303/303
f 304/304 305/305 306/306 307/307
f 308/308 309/309 310/310
f 311/311 312/312 313/313
f 314/314 315/315 316/316 317/317
f 318/318 319/319 320/320
f 321/321 322/322 323/323
f 324/324 325/325 326/326 327/327
f 328/328 329/329 330/330
f 331/331 332/332 333/333
f 334/334 335/335 336/336 337/337
f 338/338 339/339 340/340
f 341/341 342/342 343/343
f 344/344 345/345 346/346 347/347
f 348/348 349/349 350/350
f 351/351 352/352 353/353
f 354/354 355/355 356/356 357/357
f 358/358 359/359 360/360
f 361/361 362/362 363/363
f 364/364 365/365 366/366 367/367
f 368/368 369/369 370/370
f 371/371 372/372 373/373
f 374/374 375/375 376/376 377/377
f 378/378 379/379 380/380
f 381/381 382/382 383/383
f 384/384 385/385 386/386 387/387
f 388/388 389/389 390/390
f 391/391 392/392 393/393
f 394/394 395/395 396/396 397/397
f 398/398 399/399 400/400
f 401/401 402/402 403/403
f 404/404 405/405 406/406 407/407
f 408/408 409/409 410/410
f 411/411 412/412 413/413
f 414/414 415/415 416/416 417/417
f 418/418 419/419 420/420
f 421/421 422/422 423/423
f 424/424 425/425 426/426 427/427
f 428/428 429/429 430/430
f 431/431 432/432 433/433
f 434/434 435/435 436/436 437/437
f 438/438 439/439 440/440
f 441/441 442/442 443/443
f 444/444 445/445 446/446 447/447
f 448/448 449/449 450/450
f 451/451 452/452 453/453
f 454/454 455/455 456/456 457/457
f 458/458 459/459 460/460
f 461/461 462/462 463/463
f 464/464 465/465 466/466 467/467
f 468/468 469/469 470/470
f 471/471 472/472 473/473
f 474/474 475/475 476/476 477/477
f 478/478 479/479 480/480
f 481/481 482/482 483/483
f 484/484 485/485 486/486 487/487
f 488/488 489/489 490/490
f 491/491 492/492 493/493
f 494/494 495/495 496/496 497/497
f 498/498 499/499 500/500
f 501/501 502/502 503/503
f 504/504 505/505 506/506 507/507
f 508/508 509/509 510/510
f 511/511 512/512 513/513
f 514/514 515/515 516/516 517/517
f 518/518 519/519 520/520
f 521/521 522/522 523/523
f 524/524 525/525 526/526 527/527
f 528/528 529/529 530/530
f 531/531 532/532 533/533
f 534/534 535/535 536/536 537/537
f 538/538 539/539 540/540
f 541/541 542/542 543/543
f 544/544 545/545 546/546 547/547
f 548/548 549/549 550/550
f 551/551 552/552 553/553
f 554/554 555/555 556/556 557/557
f 558/558 559/559 560/560
f 561/561 562/562 563/563
f 564/564 565/565 566/566 567/567
f 568/568 569/569 570/570
f 571/571 572/572 573/573
f 574/574 575/575 576/576 577/577
f 578/578 579/579 580/580
f 581/581 582/582 583/583
f 584/584 585/585 586/586 587/587
f 588/588 589/589 590/590
f 591/591 592/592 593/593
f 594/594 595/595 596/596 597/597
f 598/598 599/599 600/600
f 601/601 602/602 603/603
f 604/604 605/605 606/606 607/607
f 608/608 609/609 610/610
f 611/611 612/612 613/613
f 614/614 615/615 616/616 617/617
f 618/618 619/619 620/620
f 621/621 622/622 623/623
f 624/624 625/625 626/626 627/627
f 628/628 629/629 630/630
f 631/631 632/632 633/633
f 634/634 635/635 636/636 637/637
f 638/638 639/639 640/640
f 641/641 642/642 643/643
f 644/644 645/645 646/646 647/647
f 648/648 649/649 650/650
f 651/651 652/652 653/653
f 654/654 655/655 656/656 657/657
f 658/658 659/659 660/660
f 661/661 662/662 663/663
f 664/664 665/665 666/666 667/667
f 668/668 669/669 670/670
f 671/671 672/672 673/673
f 674/674 675/675 676/676 677/677
f 678/678 679/679 680/680
f 681/681 682/682 683/683
f 684/684 685/685 686/686 687/687
f 688/688 689/689 690/690
f 691/691 692/692 693/693
f 694/694 695/695 696/696 697/697
f 698/698 699/699 700/700
f 701/701 702/702 703/703
f 704/704 705/705 706/706 707/707
f 708/708 709/709 710/710
f 711/711 712/712 713/713
f 714/714 715/715 716/716 717/717
f 718/718 719/719 720/720
f 721/721 722/722 723/723
f 724/724 725/725 726/726 727/727
f 728/728 729/729 730/730
f 731/731 732/732 733/733
f 734/734 735/735 736/736 737/737
f 738/738 739/739 740/740
f 741/741 742/742 743/743
f 744/744 745/745 746/746 747/747
f 748/748 749/749 750/750
f 751/751 752/752 753/753
f 754/754 755/755 756/756 757/757
f 758/758 759/759 760/760
f 761/761 762/762 763/763
f 764/764 765/765 766/766 767/767
f 768/768 769/769 770/770
f 771/771 772/772 773/773 774/774
f 775/775 776/776 777/777
f 778/778 779/779 780/780
f 781/781 782/782 783/783 784/784
f 785/785 786/786 787/787
f 788/788 789/789 790/790
f 791/791 792/792 793/793 794/794
f 795/795 796/796 797/797
f 798/798 799/799 800/800
f 801/801 802/802 803/803 804/804
f 805/805 806/806 807/807
f 808/808 809/809 810/810
f 811/811 812/812 813/813 814/814
f 815/815 816/816 817/817
f 818/818 819/819 820/820
f 821/821 822/822 823/823 824/824
f 825/825 826/826 827/827
f 828/828 829/829 830/830
f 831/831 832/832 833/833 834/834
f 835/835 836/836 837/837
f 838/838 839/839 840/840
f 841/841 842/842 843/843 844/844
f 845/845 846/846 847/847
f 848/848 849/849 850/850
f 851/851 852/852 853/853 854/854
f 855/855 856/856 857/857
f 858/858 859/859 860/860
f 861/861 862/862 863/863 864/864
f 865/865 866/866 867/867
f 868/868 869/869 870/870
f 871/871 872/872 873/873 874/874
f 875/875 876/876 877/877
f 878/878 879/879 880/880
f 881/881 882/882 883/883 884/884
f 885/885 886/886 887/887
f 888/888 889/889 890/890
f 891/891 892/892 893/893 894/894
f 895/895 896/896 897/897
f 898/898 899/899 900/900
f 901/901 902/902 903/903 904/904
f 905/905 906/906 907/907
f 908/908 909/909 910/910
f 911/911 912/912 913/913 914/914
f 915/915 916/916 917/917
f 918/918 919/919 920/920
f 921/921 922/922 923/923 924/924
f 925/925 926/926 927/927
f 928/928 929/929 930/930
f 931/931 932/932 933/933 934/934
f 935/935 936/936 937/937
f 938/938 939/939 940/940
f 941/941 942/942 943/943 944/944
f 945/945 946/946 947/947
f 948/948 949/949 950/950
