# Modelo original generado para Caelum Argenteum.
# Ejes OBJ: X ancho, Y altura, Z profundidad.
o ca_vein_copper
v 0.000000 0.000000 0.000000
v 31.992102 -0.385020 0.000000
v 24.969813 0.583827 15.667772
v 31.992102 -0.385020 0.000000
v 51.211839 15.187363 0.000000
v 38.505421 14.835427 24.160941
v 24.969813 0.583827 15.667772
v 51.211839 15.187363 0.000000
v 32.794775 35.260115 0.000000
v 27.289094 36.052869 17.123048
v 38.505421 14.835427 24.160941
v 3.644519 52.000000 -1.995796
v 27.289094 36.052869 17.123048
v 32.794775 35.260115 0.000000
v 0.000000 0.000000 0.000000
v 24.969813 0.583827 15.667772
v 12.353670 1.356818 32.836046
v 24.969813 0.583827 15.667772
v 38.505421 14.835427 24.160941
v 15.938197 17.526855 42.363720
v 12.353670 1.356818 32.836046
v 38.505421 14.835427 24.160941
v 27.289094 36.052869 17.123048
v 11.475748 34.524876 30.502532
v 15.938197 17.526855 42.363720
v 3.644519 52.000000 -1.995796
v 11.475748 34.524876 30.502532
v 27.289094 36.052869 17.123048
v 0.000000 0.000000 0.000000
v 12.353670 1.356818 32.836046
v -11.517073 0.023631 30.612375
v 12.353670 1.356818 32.836046
v 15.938197 17.526855 42.363720
v -13.878274 18.279230 36.888446
v -11.517073 0.023631 30.612375
v 15.938197 17.526855 42.363720
v 11.475748 34.524876 30.502532
v -10.885810 34.248884 28.934478
v -13.878274 18.279230 36.888446
v 3.644519 52.000000 -1.995796
v -10.885810 34.248884 28.934478
v 11.475748 34.524876 30.502532
v 0.000000 0.000000 0.000000
v -11.517073 0.023631 30.612375
v -32.199196 -0.109224 20.203982
v -11.517073 0.023631 30.612375
v -13.878274 18.279230 36.888446
v -36.452241 16.207400 22.872635
v -32.199196 -0.109224 20.203982
v -13.878274 18.279230 36.888446
v -10.885810 34.248884 28.934478
v -30.042578 34.299679 18.850773
v -36.452241 16.207400 22.872635
v 3.644519 52.000000 -1.995796
v -30.042578 34.299679 18.850773
v -10.885810 34.248884 28.934478
v 0.000000 0.000000 0.000000
v -32.199196 -0.109224 20.203982
v -42.712294 -0.757074 0.000000
v -32.199196 -0.109224 20.203982
v -36.452241 16.207400 22.872635
v -37.090915 17.506528 0.000000
v -42.712294 -0.757074 0.000000
v -36.452241 16.207400 22.872635
v -30.042578 34.299679 18.850773
v -29.851551 36.675611 0.000000
v -37.090915 17.506528 0.000000
v 3.644519 52.000000 -1.995796
v -29.851551 36.675611 0.000000
v -30.042578 34.299679 18.850773
v 0.000000 0.000000 0.000000
v -42.712294 -0.757074 0.000000
v -33.754294 1.662004 -21.179758
v -42.712294 -0.757074 0.000000
v -37.090915 17.506528 0.000000
v -29.362915 18.213087 -18.424306
v -33.754294 1.662004 -21.179758
v -37.090915 17.506528 0.000000
v -29.851551 36.675611 0.000000
v -25.339476 35.530080 -15.899724
v -29.362915 18.213087 -18.424306
v 3.644519 52.000000 -1.995796
v -25.339476 35.530080 -15.899724
v -29.851551 36.675611 0.000000
v 0.000000 0.000000 0.000000
v -33.754294 1.662004 -21.179758
v -11.866345 -0.027514 -31.540739
v -33.754294 1.662004 -21.179758
v -29.362915 18.213087 -18.424306
v -12.489589 15.733888 -33.197320
v -11.866345 -0.027514 -31.540739
v -29.362915 18.213087 -18.424306
v -25.339476 35.530080 -15.899724
v -8.792272 33.853228 -23.369854
v -12.489589 15.733888 -33.197320
v 3.644519 52.000000 -1.995796
v -8.792272 33.853228 -23.369854
v -25.339476 35.530080 -15.899724
v 0.000000 0.000000 0.000000
v -11.866345 -0.027514 -31.540739
v 10.246239 0.423584 -27.234497
v -11.866345 -0.027514 -31.540739
v -12.489589 15.733888 -33.197320
v 14.733702 17.930235 -39.162171
v 10.246239 0.423584 -27.234497
v -12.489589 15.733888 -33.197320
v -8.792272 33.853228 -23.369854
v 11.343567 36.732680 -30.151194
v 14.733702 17.930235 -39.162171
v 3.644519 52.000000 -1.995796
v 11.343567 36.732680 -30.151194
v -8.792272 33.853228 -23.369854
v 0.000000 0.000000 0.000000
v 10.246239 0.423584 -27.234497
v 26.761410 -0.915901 -16.791943
v 10.246239 0.423584 -27.234497
v 14.733702 17.930235 -39.162171
v 41.486106 17.100409 -26.031227
v 26.761410 -0.915901 -16.791943
v 14.733702 17.930235 -39.162171
v 11.343567 36.732680 -30.151194
v 30.783209 33.577053 -19.315495
v 41.486106 17.100409 -26.031227
v 3.644519 52.000000 -1.995796
v 30.783209 33.577053 -19.315495
v 11.343567 36.732680 -30.151194
v 0.000000 0.000000 0.000000
v 26.761410 -0.915901 -16.791943
v 31.992102 -0.385020 0.000000
v 26.761410 -0.915901 -16.791943
v 41.486106 17.100409 -26.031227
v 51.211839 15.187363 0.000000
v 31.992102 -0.385020 0.000000
v 41.486106 17.100409 -26.031227
v 30.783209 33.577053 -19.315495
v 32.794775 35.260115 0.000000
v 51.211839 15.187363 0.000000
v 3.644519 52.000000 -1.995796
v 32.794775 35.260115 0.000000
v 30.783209 33.577053 -19.315495
v 32.616509 7.223573 -3.528537
v 37.242567 9.900536 3.014277
v 39.191583 10.415728 -3.528537
v 39.191583 10.415728 -3.528537
v 37.242567 9.900536 3.014277
v 36.482776 15.785139 1.939675
v 39.582121 16.124092 -3.528537
v 32.616509 19.037735 -3.528537
v 39.582121 16.124092 -3.528537
v 36.482776 15.785139 1.939675
v 32.616509 7.223573 -3.528537
v 30.846125 10.403668 5.220064
v 37.242567 9.900536 3.014277
v 37.242567 9.900536 3.014277
v 30.846125 10.403668 5.220064
v 31.189573 15.748514 3.522867
v 36.482776 15.785139 1.939675
v 32.616509 19.037735 -3.528537
v 36.482776 15.785139 1.939675
v 31.189573 15.748514 3.522867
v 32.616509 7.223573 -3.528537
v 27.230381 9.653776 -0.602971
v 30.846125 10.403668 5.220064
v 30.846125 10.403668 5.220064
v 27.230381 9.653776 -0.602971
v 27.162273 16.274088 -0.565977
v 31.189573 15.748514 3.522867
v 32.616509 19.037735 -3.528537
v 31.189573 15.748514 3.522867
v 27.162273 16.274088 -0.565977
v 32.616509 7.223573 -3.528537
v 25.546732 9.857046 -7.368606
v 27.230381 9.653776 -0.602971
v 27.230381 9.653776 -0.602971
v 25.546732 9.857046 -7.368606
v 26.988292 15.980924 -6.585598
v 27.162273 16.274088 -0.565977
v 32.616509 19.037735 -3.528537
v 27.162273 16.274088 -0.565977
v 26.988292 15.980924 -6.585598
v 32.616509 7.223573 -3.528537
v 31.070920 9.951196 -11.166283
v 25.546732 9.857046 -7.368606
v 25.546732 9.857046 -7.368606
v 31.070920 9.951196 -11.166283
v 31.065356 16.197235 -11.193778
v 26.988292 15.980924 -6.585598
v 32.616509 19.037735 -3.528537
v 26.988292 15.980924 -6.585598
v 31.065356 16.197235 -11.193778
v 32.616509 7.223573 -3.528537
v 36.771695 10.466843 -9.405379
v 31.070920 9.951196 -11.166283
v 31.070920 9.951196 -11.166283
v 36.771695 10.466843 -9.405379
v 37.812234 16.284742 -10.877054
v 31.065356 16.197235 -11.193778
v 32.616509 19.037735 -3.528537
v 31.065356 16.197235 -11.193778
v 37.812234 16.284742 -10.877054
v 32.616509 7.223573 -3.528537
v 39.191583 10.415728 -3.528537
v 36.771695 10.466843 -9.405379
v 36.771695 10.466843 -9.405379
v 39.191583 10.415728 -3.528537
v 39.582121 16.124092 -3.528537
v 37.812234 16.284742 -10.877054
v 32.616509 19.037735 -3.528537
v 37.812234 16.284742 -10.877054
v 39.582121 16.124092 -3.528537
v 26.315654 24.534502 17.968239
v 30.692632 27.603149 22.792265
v 32.122046 27.318549 17.968239
v 32.122046 27.318549 17.968239
v 30.692632 27.603149 22.792265
v 29.580727 34.729071 21.566794
v 31.634791 34.357521 17.968239
v 26.315654 37.993073 17.968239
v 31.634791 34.357521 17.968239
v 29.580727 34.729071 21.566794
v 26.315654 24.534502 17.968239
v 24.751366 28.091687 23.992028
v 30.692632 27.603149 22.792265
v 30.692632 27.603149 22.792265
v 24.751366 28.091687 23.992028
v 25.084143 34.784310 22.710565
v 29.580727 34.729071 21.566794
v 26.315654 37.993073 17.968239
v 29.580727 34.729071 21.566794
v 25.084143 34.784310 22.710565
v 26.315654 24.534502 17.968239
v 21.391830 27.328210 20.052334
v 24.751366 28.091687 23.992028
v 24.751366 28.091687 23.992028
v 21.391830 27.328210 20.052334
v 21.344069 34.735667 20.072550
v 25.084143 34.784310 22.710565
v 26.315654 37.993073 17.968239
v 25.084143 34.784310 22.710565
v 21.344069 34.735667 20.072550
v 26.315654 24.534502 17.968239
v 20.514488 28.250691 15.512794
v 21.391830 27.328210 20.052334
v 21.391830 27.328210 20.052334
v 20.514488 28.250691 15.512794
v 20.194693 34.244267 15.377435
v 21.344069 34.735667 20.072550
v 26.315654 37.993073 17.968239
v 21.344069 34.735667 20.072550
v 20.194693 34.244267 15.377435
v 26.315654 24.534502 17.968239
v 25.029353 27.345300 13.014925
v 20.514488 28.250691 15.512794
v 20.514488 28.250691 15.512794
v 25.029353 27.345300 13.014925
v 24.809691 34.233844 12.169048
v 20.194693 34.244267 15.377435
v 26.315654 37.993073 17.968239
v 20.194693 34.244267 15.377435
v 24.809691 34.233844 12.169048
v 26.315654 24.534502 17.968239
v 30.712617 28.261301 13.122188
v 25.029353 27.345300 13.014925
v 25.029353 27.345300 13.014925
v 30.712617 28.261301 13.122188
v 30.798344 34.143815 13.027705
v 24.809691 34.233844 12.169048
v 26.315654 37.993073 17.968239
v 24.809691 34.233844 12.169048
v 30.798344 34.143815 13.027705
v 26.315654 24.534502 17.968239
v 32.122046 27.318549 17.968239
v 30.712617 28.261301 13.122188
v 30.712617 28.261301 13.122188
v 32.122046 27.318549 17.968239
v 31.634791 34.357521 17.968239
v 30.798344 34.143815 13.027705
v 26.315654 37.993073 17.968239
v 30.798344 34.143815 13.027705
v 31.634791 34.357521 17.968239
v 1.887941 24.565807 33.044637
v 5.330805 26.498307 37.720342
v 8.287566 26.776958 33.044637
v 8.287566 26.776958 33.044637
v 5.330805 26.498307 37.720342
v 5.883467 30.383658 38.470903
v 7.645703 30.061558 33.044637
v 1.887941 32.279567 33.044637
v 7.645703 30.061558 33.044637
v 5.883467 30.383658 38.470903
v 1.887941 24.565807 33.044637
v 0.468341 26.746218 39.780775
v 5.330805 26.498307 37.720342
v 5.330805 26.498307 37.720342
v 0.468341 26.746218 39.780775
v 0.653756 30.520800 38.900962
v 5.883467 30.383658 38.470903
v 1.887941 32.279567 33.044637
v 5.883467 30.383658 38.470903
v 0.653756 30.520800 38.900962
v 1.887941 24.565807 33.044637
v -3.309262 26.282503 35.755307
v 0.468341 26.746218 39.780775
v 0.468341 26.746218 39.780775
v -3.309262 26.282503 35.755307
v -3.653925 30.059379 35.935071
v 0.653756 30.520800 38.900962
v 1.887941 32.279567 33.044637
v 0.653756 30.520800 38.900962
v -3.653925 30.059379 35.935071
v 1.887941 24.565807 33.044637
v -3.113994 26.764883 30.435812
v -3.309262 26.282503 35.755307
v -3.309262 26.282503 35.755307
v -3.113994 26.764883 30.435812
v -3.749828 30.009028 30.104184
v -3.653925 30.059379 35.935071
v 1.887941 32.279567 33.044637
v -3.653925 30.059379 35.935071
v -3.749828 30.009028 30.104184
v 1.887941 24.565807 33.044637
v 0.416207 26.283121 26.061119
v -3.113994 26.764883 30.435812
v -3.113994 26.764883 30.435812
v 0.416207 26.283121 26.061119
v 0.592005 30.147000 26.895296
v -3.749828 30.009028 30.104184
v 1.887941 32.279567 33.044637
v -3.749828 30.009028 30.104184
v 0.592005 30.147000 26.895296
v 1.887941 24.565807 33.044637
v 5.757015 26.325315 27.790103
v 0.416207 26.283121 26.061119
v 0.416207 26.283121 26.061119
v 5.757015 26.325315 27.790103
v 6.304781 30.309517 27.046190
v 0.592005 30.147000 26.895296
v 1.887941 32.279567 33.044637
v 0.592005 30.147000 26.895296
v 6.304781 30.309517 27.046190
v 1.887941 24.565807 33.044637
v 8.287566 26.776958 33.044637
v 5.757015 26.325315 27.790103
v 5.757015 26.325315 27.790103
v 8.287566 26.776958 33.044637
v 7.645703 30.061558 33.044637
v 6.304781 30.309517 27.046190
v 1.887941 32.279567 33.044637
v 6.304781 30.309517 27.046190
v 7.645703 30.061558 33.044637
v -12.489183 31.884998 22.458322
v -9.833288 34.561241 25.496227
v -6.866373 35.104435 22.458322
v -6.866373 35.104435 22.458322
v -9.833288 34.561241 25.496227
v -9.776820 40.338057 25.560818
v -6.883693 40.588920 22.458322
v -12.489183 43.700815 22.458322
v -6.883693 40.588920 22.458322
v -9.776820 40.338057 25.560818
v -12.489183 31.884998 22.458322
v -13.687643 34.857183 27.247980
v -9.833288 34.561241 25.496227
v -9.833288 34.561241 25.496227
v -13.687643 34.857183 27.247980
v -13.625316 40.325950 26.998890
v -9.776820 40.338057 25.560818
v -12.489183 43.700815 22.458322
v -9.776820 40.338057 25.560818
v -13.625316 40.325950 26.998890
v -12.489183 31.884998 22.458322
v -16.055112 34.394719 24.024769
v -13.687643 34.857183 27.247980
v -13.687643 34.857183 27.247980
v -16.055112 34.394719 24.024769
v -16.808668 41.277127 24.355792
v -13.625316 40.325950 26.998890
v -12.489183 43.700815 22.458322
v -13.625316 40.325950 26.998890
v -16.808668 41.277127 24.355792
v -12.489183 31.884998 22.458322
v -17.132276 34.859115 20.418697
v -16.055112 34.394719 24.024769
v -16.055112 34.394719 24.024769
v -17.132276 34.859115 20.418697
v -17.205735 41.017144 20.386428
v -16.808668 41.277127 24.355792
v -12.489183 43.700815 22.458322
v -16.808668 41.277127 24.355792
v -17.205735 41.017144 20.386428
v -12.489183 31.884998 22.458322
v -13.718370 35.023287 17.545865
v -17.132276 34.859115 20.418697
v -17.132276 34.859115 20.418697
v -13.718370 35.023287 17.545865
v -13.491125 40.492706 18.454051
v -17.205735 41.017144 20.386428
v -12.489183 43.700815 22.458322
v -17.205735 41.017144 20.386428
v -13.491125 40.492706 18.454051
v -12.489183 31.884998 22.458322
v -9.183454 35.152275 18.677115
v -13.718370 35.023287 17.545865
v -13.718370 35.023287 17.545865
v -9.183454 35.152275 18.677115
v -9.831889 40.921654 19.418817
v -13.491125 40.492706 18.454051
v -12.489183 43.700815 22.458322
v -13.491125 40.492706 18.454051
v -9.831889 40.921654 19.418817
v -12.489183 31.884998 22.458322
v -6.866373 35.104435 22.458322
v -9.183454 35.152275 18.677115
v -9.183454 35.152275 18.677115
v -6.866373 35.104435 22.458322
v -6.883693 40.588920 22.458322
v -9.831889 40.921654 19.418817
v -12.489183 43.700815 22.458322
v -9.831889 40.921654 19.418817
v -6.883693 40.588920 22.458322
v -37.559453 21.785876 5.370299
v -31.591879 24.815626 10.669541
v -29.225069 24.113789 5.370299
v -29.225069 24.113789 5.370299
v -31.591879 24.815626 10.669541
v -31.602689 30.146303 10.659942
v -28.052877 29.879969 5.370299
v -37.559453 32.319941 5.370299
v -28.052877 29.879969 5.370299
v -31.602689 30.146303 10.659942
v -37.559453 21.785876 5.370299
v -39.686229 24.144433 11.968959
v -31.591879 24.815626 10.669541
v -31.591879 24.815626 10.669541
v -39.686229 24.144433 11.968959
v -39.487479 29.402309 11.352304
v -31.602689 30.146303 10.659942
v -37.559453 32.319941 5.370299
v -31.602689 30.146303 10.659942
v -39.487479 29.402309 11.352304
v -37.559453 21.785876 5.370299
v -44.576307 24.778119 7.763275
v -39.686229 24.144433 11.968959
v -39.686229 24.144433 11.968959
v -44.576307 24.778119 7.763275
v -45.956487 29.548053 8.233961
v -39.487479 29.402309 11.352304
v -37.559453 32.319941 5.370299
v -39.487479 29.402309 11.352304
v -45.956487 29.548053 8.233961
v -37.559453 21.785876 5.370299
v -45.879732 24.590312 2.532813
v -44.576307 24.778119 7.763275
v -44.576307 24.778119 7.763275
v -45.879732 24.590312 2.532813
v -46.100907 29.892765 2.457386
v -45.956487 29.548053 8.233961
v -37.559453 32.319941 5.370299
v -45.956487 29.548053 8.233961
v -46.100907 29.892765 2.457386
v -37.559453 21.785876 5.370299
v -39.670995 24.030623 -1.181094
v -45.879732 24.590312 2.532813
v -45.879732 24.590312 2.532813
v -39.670995 24.030623 -1.181094
v -39.236625 29.758093 0.166609
v -46.100907 29.892765 2.457386
v -37.559453 32.319941 5.370299
v -46.100907 29.892765 2.457386
v -39.236625 29.758093 0.166609
v -37.559453 21.785876 5.370299
v -31.975234 24.460304 0.411479
v -39.670995 24.030623 -1.181094
v -39.670995 24.030623 -1.181094
v -31.975234 24.460304 0.411479
v -31.767927 29.333612 0.227389
v -39.236625 29.758093 0.166609
v -37.559453 32.319941 5.370299
v -39.236625 29.758093 0.166609
v -31.767927 29.333612 0.227389
v -37.559453 21.785876 5.370299
v -29.225069 24.113789 5.370299
v -31.975234 24.460304 0.411479
v -31.975234 24.460304 0.411479
v -29.225069 24.113789 5.370299
v -28.052877 29.879969 5.370299
v -31.767927 29.333612 0.227389
v -37.559453 32.319941 5.370299
v -31.767927 29.333612 0.227389
v -28.052877 29.879969 5.370299
v -37.370989 8.270484 -5.813053
v -32.442195 9.970692 -1.811203
v -28.810408 10.071753 -5.813053
v -28.810408 10.071753 -5.813053
v -32.442195 9.970692 -1.811203
v -31.640789 14.652687 -1.160514
v -29.467099 14.162402 -5.813053
v -37.370989 16.460968 -5.813053
v -29.467099 14.162402 -5.813053
v -31.640789 14.652687 -1.160514
v -37.370989 8.270484 -5.813053
v -39.433227 10.212542 0.037230
v -32.442195 9.970692 -1.811203
v -32.442195 9.970692 -1.811203
v -39.433227 10.212542 0.037230
v -39.229367 14.705516 -0.541092
v -31.640789 14.652687 -1.160514
v -37.370989 16.460968 -5.813053
v -31.640789 14.652687 -1.160514
v -39.229367 14.705516 -0.541092
v -37.370989 8.270484 -5.813053
v -45.832850 10.559079 -3.174500
v -39.433227 10.212542 0.037230
v -39.433227 10.212542 0.037230
v -45.832850 10.559079 -3.174500
v -44.454911 14.580730 -3.604165
v -39.229367 14.705516 -0.541092
v -37.370989 16.460968 -5.813053
v -39.229367 14.705516 -0.541092
v -44.454911 14.580730 -3.604165
v -37.370989 8.270484 -5.813053
v -44.556023 9.998187 -8.053470
v -45.832850 10.559079 -3.174500
v -45.832850 10.559079 -3.174500
v -44.556023 9.998187 -8.053470
v -44.192506 14.197940 -7.940119
v -44.454911 14.580730 -3.604165
v -37.370989 16.460968 -5.813053
v -44.454911 14.580730 -3.604165
v -44.192506 14.197940 -7.940119
v -37.370989 8.270484 -5.813053
v -39.110599 10.358953 -10.748086
v -44.556023 9.998187 -8.053470
v -44.556023 9.998187 -8.053470
v -39.110599 10.358953 -10.748086
v -38.967076 14.351936 -10.340930
v -44.192506 14.197940 -7.940119
v -37.370989 16.460968 -5.813053
v -44.192506 14.197940 -7.940119
v -38.967076 14.351936 -10.340930
v -37.370989 8.270484 -5.813053
v -31.785195 10.313436 -10.348343
v -39.110599 10.358953 -10.748086
v -39.110599 10.358953 -10.748086
v -31.785195 10.313436 -10.348343
v -32.943550 14.440927 -9.407837
v -38.967076 14.351936 -10.340930
v -37.370989 16.460968 -5.813053
v -38.967076 14.351936 -10.340930
v -32.943550 14.440927 -9.407837
v -37.370989 8.270484 -5.813053
v -28.810408 10.071753 -5.813053
v -31.785195 10.313436 -10.348343
v -31.785195 10.313436 -10.348343
v -28.810408 10.071753 -5.813053
v -29.467099 14.162402 -5.813053
v -32.943550 14.440927 -9.407837
v -37.370989 16.460968 -5.813053
v -32.943550 14.440927 -9.407837
v -29.467099 14.162402 -5.813053
v -16.958841 32.828372 -28.819809
v -12.377887 35.357667 -23.619105
v -9.272386 35.136860 -28.819809
v -9.272386 35.136860 -28.819809
v -12.377887 35.357667 -23.619105
v -13.091396 40.675012 -24.429144
v -10.404893 40.121460 -28.819809
v -16.958841 42.988606 -28.819809
v -10.404893 40.121460 -28.819809
v -13.091396 40.675012 -24.429144
v -16.958841 32.828372 -28.819809
v -18.329745 35.087015 -23.381911
v -12.377887 35.357667 -23.619105
v -12.377887 35.357667 -23.619105
v -18.329745 35.087015 -23.381911
v -18.750424 40.202164 -21.713225
v -13.091396 40.675012 -24.429144
v -16.958841 42.988606 -28.819809
v -13.091396 40.675012 -24.429144
v -18.750424 40.202164 -21.713225
v -16.958841 32.828372 -28.819809
v -24.434947 35.276119 -25.560231
v -18.329745 35.087015 -23.381911
v -18.329745 35.087015 -23.381911
v -24.434947 35.276119 -25.560231
v -23.505109 40.417659 -25.965640
v -18.750424 40.202164 -21.713225
v -16.958841 42.988606 -28.819809
v -18.750424 40.202164 -21.713225
v -23.505109 40.417659 -25.965640
v -16.958841 32.828372 -28.819809
v -22.280150 35.636701 -31.139897
v -24.434947 35.276119 -25.560231
v -24.434947 35.276119 -25.560231
v -22.280150 35.636701 -31.139897
v -22.350358 40.044652 -31.170508
v -23.505109 40.417659 -25.965640
v -16.958841 42.988606 -28.819809
v -23.505109 40.417659 -25.965640
v -22.350358 40.044652 -31.170508
v -16.958841 32.828372 -28.819809
v -18.753780 35.043094 -35.939704
v -22.280150 35.636701 -31.139897
v -22.280150 35.636701 -31.139897
v -18.753780 35.043094 -35.939704
v -18.533620 40.814484 -35.066408
v -22.350358 40.044652 -31.170508
v -16.958841 42.988606 -28.819809
v -22.350358 40.044652 -31.170508
v -18.533620 40.814484 -35.066408
v -16.958841 32.828372 -28.819809
v -13.265932 34.941983 -33.012326
v -18.753780 35.043094 -35.939704
v -18.753780 35.043094 -35.939704
v -13.265932 34.941983 -33.012326
v -13.065144 40.282406 -33.240278
v -18.533620 40.814484 -35.066408
v -16.958841 42.988606 -28.819809
v -18.533620 40.814484 -35.066408
v -13.065144 40.282406 -33.240278
v -16.958841 32.828372 -28.819809
v -9.272386 35.136860 -28.819809
v -13.265932 34.941983 -33.012326
v -13.265932 34.941983 -33.012326
v -9.272386 35.136860 -28.819809
v -10.404893 40.121460 -28.819809
v -13.065144 40.282406 -33.240278
v -16.958841 42.988606 -28.819809
v -13.065144 40.282406 -33.240278
v -10.404893 40.121460 -28.819809
v 7.805432 30.131043 -29.224519
v 11.278159 32.922200 -25.129723
v 13.285674 32.697689 -29.224519
v 13.285674 32.697689 -29.224519
v 11.278159 32.922200 -25.129723
v 11.775591 38.509477 -24.543187
v 14.253685 38.470426 -29.224519
v 7.805432 41.951424 -29.224519
v 14.253685 38.470426 -29.224519
v 11.775591 38.509477 -24.543187
v 7.805432 30.131043 -29.224519
v 6.616298 33.568897 -24.325487
v 11.278159 32.922200 -25.129723
v 11.278159 32.922200 -25.129723
v 6.616298 33.568897 -24.325487
v 6.723929 39.088182 -24.768910
v 11.775591 38.509477 -24.543187
v 7.805432 41.951424 -29.224519
v 11.775591 38.509477 -24.543187
v 6.723929 39.088182 -24.768910
v 7.805432 30.131043 -29.224519
v 2.517077 32.916104 -26.829760
v 6.616298 33.568897 -24.325487
v 6.616298 33.568897 -24.325487
v 2.517077 32.916104 -26.829760
v 3.216976 38.898735 -27.146699
v 6.723929 39.088182 -24.768910
v 7.805432 41.951424 -29.224519
v 6.723929 39.088182 -24.768910
v 3.216976 38.898735 -27.146699
v 7.805432 30.131043 -29.224519
v 2.527592 32.785890 -31.614518
v 2.517077 32.916104 -26.829760
v 2.517077 32.916104 -26.829760
v 2.527592 32.785890 -31.614518
v 2.749146 38.635359 -31.514190
v 3.216976 38.898735 -27.146699
v 7.805432 41.951424 -29.224519
v 3.216976 38.898735 -27.146699
v 2.749146 38.635359 -31.514190
v 7.805432 30.131043 -29.224519
v 6.483376 32.757080 -34.671166
v 2.527592 32.785890 -31.614518
v 2.527592 32.785890 -31.614518
v 6.483376 32.757080 -34.671166
v 6.755022 39.178227 -33.552031
v 2.749146 38.635359 -31.514190
v 7.805432 41.951424 -29.224519
v 2.749146 38.635359 -31.514190
v 6.755022 39.178227 -33.552031
v 7.805432 30.131043 -29.224519
v 11.746202 32.966927 -33.871198
v 6.483376 32.757080 -34.671166
v 6.483376 32.757080 -34.671166
v 11.746202 32.966927 -33.871198
v 11.352658 38.765043 -33.407158
v 6.755022 39.178227 -33.552031
v 7.805432 41.951424 -29.224519
v 6.755022 39.178227 -33.552031
v 11.352658 38.765043 -33.407158
v 7.805432 30.131043 -29.224519
v 13.285674 32.697689 -29.224519
v 11.746202 32.966927 -33.871198
v 11.746202 32.966927 -33.871198
v 13.285674 32.697689 -29.224519
v 14.253685 38.470426 -29.224519
v 11.352658 38.765043 -33.407158
v 7.805432 41.951424 -29.224519
v 11.352658 38.765043 -33.407158
v 14.253685 38.470426 -29.224519
v 25.566085 14.683952 -12.755548
v 29.974224 16.747955 -8.162457
v 34.915183 17.321569 -12.755548
v 34.915183 17.321569 -12.755548
v 29.974224 16.747955 -8.162457
v 29.886508 21.805607 -8.253853
v 33.781414 21.149234 -12.755548
v 25.566085 23.838549 -12.755548
v 33.781414 21.149234 -12.755548
v 29.886508 21.805607 -8.253853
v 25.566085 14.683952 -12.755548
v 23.865731 17.226993 -6.565312
v 29.974224 16.747955 -8.162457
v 29.974224 16.747955 -8.162457
v 23.865731 17.226993 -6.565312
v 23.993721 21.549019 -7.031267
v 29.886508 21.805607 -8.253853
v 25.566085 23.838549 -12.755548
v 29.886508 21.805607 -8.253853
v 23.993721 21.549019 -7.031267
v 25.566085 14.683952 -12.755548
v 17.512953 16.923223 -9.533037
v 23.865731 17.226993 -6.565312
v 23.865731 17.226993 -6.565312
v 17.512953 16.923223 -9.533037
v 18.290809 21.867005 -9.844301
v 23.993721 21.549019 -7.031267
v 25.566085 23.838549 -12.755548
v 23.993721 21.549019 -7.031267
v 18.290809 21.867005 -9.844301
v 25.566085 14.683952 -12.755548
v 18.826835 16.774374 -15.452302
v 17.512953 16.923223 -9.533037
v 17.512953 16.923223 -9.533037
v 18.826835 16.774374 -15.452302
v 19.260791 21.619249 -15.278652
v 18.290809 21.867005 -9.844301
v 25.566085 23.838549 -12.755548
v 18.290809 21.867005 -9.844301
v 19.260791 21.619249 -15.278652
v 25.566085 14.683952 -12.755548
v 23.968367 16.974572 -18.572133
v 18.826835 16.774374 -15.452302
v 18.826835 16.774374 -15.452302
v 23.968367 16.974572 -18.572133
v 23.919984 21.156513 -18.748272
v 19.260791 21.619249 -15.278652
v 25.566085 23.838549 -12.755548
v 19.260791 21.619249 -15.278652
v 23.919984 21.156513 -18.748272
v 25.566085 14.683952 -12.755548
v 29.992109 16.747979 -17.367275
v 23.968367 16.974572 -18.572133
v 23.968367 16.974572 -18.572133
v 29.992109 16.747979 -17.367275
v 30.435743 21.815686 -17.829523
v 23.919984 21.156513 -18.748272
v 25.566085 23.838549 -12.755548
v 23.919984 21.156513 -18.748272
v 30.435743 21.815686 -17.829523
v 25.566085 14.683952 -12.755548
v 34.915183 17.321569 -12.755548
v 29.992109 16.747979 -17.367275
v 29.992109 16.747979 -17.367275
v 34.915183 17.321569 -12.755548
v 33.781414 21.149234 -12.755548
v 30.435743 21.815686 -17.829523
v 25.566085 23.838549 -12.755548
v 30.435743 21.815686 -17.829523
v 33.781414 21.149234 -12.755548
v -30.230971 26.290774 18.331458
v -30.187087 23.882990 16.902944
v 31.680504 32.612551 5.461742
v 31.658562 33.816443 6.175999
v -30.709478 26.290774 15.572648
v -30.187087 23.882990 16.902944
v -30.230971 26.290774 18.331458
v 31.419308 33.816443 4.796594
v 31.658562 33.816443 6.175999
v 31.680504 32.612551 5.461742
v -30.187087 23.882990 16.902944
v -30.665595 23.882990 14.144134
v 31.441250 32.612551 4.082337
v 31.680504 32.612551 5.461742
v -30.709478 26.290774 15.572648
v -30.665595 23.882990 14.144134
v -30.187087 23.882990 16.902944
v 31.419308 33.816443 4.796594
v 31.680504 32.612551 5.461742
v 31.441250 32.612551 4.082337
v -30.665595 23.882990 14.144134
v -31.187986 26.290774 12.813839
v 31.180054 33.816443 3.417189
v 31.441250 32.612551 4.082337
v -30.709478 26.290774 15.572648
v -31.187986 26.290774 12.813839
v -30.665595 23.882990 14.144134
v 31.419308 33.816443 4.796594
v 31.441250 32.612551 4.082337
v 31.180054 33.816443 3.417189
v -31.187986 26.290774 12.813839
v -31.231869 28.698558 14.242353
v 31.158113 35.020334 4.131446
v 31.180054 33.816443 3.417189
v -30.709478 26.290774 15.572648
v -31.231869 28.698558 14.242353
v -31.187986 26.290774 12.813839
v 31.419308 33.816443 4.796594
v 31.180054 33.816443 3.417189
v 31.158113 35.020334 4.131446
v -31.231869 28.698558 14.242353
v -30.753362 28.698558 17.001162
v 31.397366 35.020334 5.510851
v 31.158113 35.020334 4.131446
v -30.709478 26.290774 15.572648
v -30.753362 28.698558 17.001162
v -31.231869 28.698558 14.242353
v 31.419308 33.816443 4.796594
v 31.158113 35.020334 4.131446
v 31.397366 35.020334 5.510851
v -30.753362 28.698558 17.001162
v -30.230971 26.290774 18.331458
v 31.658562 33.816443 6.175999
v 31.397366 35.020334 5.510851
v -30.709478 26.290774 15.572648
v -30.230971 26.290774 18.331458
v -30.753362 28.698558 17.001162
v 31.419308 33.816443 4.796594
v 31.397366 35.020334 5.510851
v 31.658562 33.816443 6.175999
v -19.859409 30.984973 0.675461
v -19.616338 28.560887 -0.704657
v 24.615269 30.907132 4.384691
v 24.493734 32.119175 5.074750
v -19.495655 30.984973 -2.100811
v -19.616338 28.560887 -0.704657
v -19.859409 30.984973 0.675461
v 24.675611 32.119175 3.686615
v 24.493734 32.119175 5.074750
v 24.615269 30.907132 4.384691
v -19.616338 28.560887 -0.704657
v -19.252584 28.560887 -3.480929
v 24.797146 30.907132 2.996556
v 24.615269 30.907132 4.384691
v -19.495655 30.984973 -2.100811
v -19.252584 28.560887 -3.480929
v -19.616338 28.560887 -0.704657
v 24.675611 32.119175 3.686615
v 24.615269 30.907132 4.384691
v 24.797146 30.907132 2.996556
v -19.252584 28.560887 -3.480929
v -19.131901 30.984973 -4.877082
v 24.857488 32.119175 2.298479
v 24.797146 30.907132 2.996556
v -19.495655 30.984973 -2.100811
v -19.131901 30.984973 -4.877082
v -19.252584 28.560887 -3.480929
v 24.675611 32.119175 3.686615
v 24.797146 30.907132 2.996556
v 24.857488 32.119175 2.298479
v -19.131901 30.984973 -4.877082
v -19.374972 33.409059 -3.496964
v 24.735952 33.331217 2.988538
v 24.857488 32.119175 2.298479
v -19.495655 30.984973 -2.100811
v -19.374972 33.409059 -3.496964
v -19.131901 30.984973 -4.877082
v 24.675611 32.119175 3.686615
v 24.857488 32.119175 2.298479
v 24.735952 33.331217 2.988538
v -19.374972 33.409059 -3.496964
v -19.738725 33.409059 -0.720693
v 24.554076 33.331217 4.376674
v 24.735952 33.331217 2.988538
v -19.495655 30.984973 -2.100811
v -19.738725 33.409059 -0.720693
v -19.374972 33.409059 -3.496964
v 24.675611 32.119175 3.686615
v 24.735952 33.331217 2.988538
v 24.554076 33.331217 4.376674
v -19.738725 33.409059 -0.720693
v -19.859409 30.984973 0.675461
v 24.493734 32.119175 5.074750
v 24.554076 33.331217 4.376674
v -19.495655 30.984973 -2.100811
v -19.859409 30.984973 0.675461
v -19.738725 33.409059 -0.720693
v 24.675611 32.119175 3.686615
v 24.554076 33.331217 4.376674
v 24.493734 32.119175 5.074750
v -16.541171 35.052152 -11.774212
v -16.745879 32.627281 -13.159166
v 29.297500 33.798688 -20.600539
v 29.399854 35.011123 -19.908062
v -16.946366 35.052152 -14.544739
v -16.745879 32.627281 -13.159166
v -16.541171 35.052152 -11.774212
v 29.197257 35.011123 -21.293325
v 29.399854 35.011123 -19.908062
v 29.297500 33.798688 -20.600539
v -16.745879 32.627281 -13.159166
v -17.151074 32.627281 -15.929693
v 29.094903 33.798688 -21.985803
v 29.297500 33.798688 -20.600539
v -16.946366 35.052152 -14.544739
v -17.151074 32.627281 -15.929693
v -16.745879 32.627281 -13.159166
v 29.197257 35.011123 -21.293325
v 29.297500 33.798688 -20.600539
v 29.094903 33.798688 -21.985803
v -17.151074 32.627281 -15.929693
v -17.351560 35.052152 -17.315265
v 28.994660 35.011123 -22.678589
v 29.094903 33.798688 -21.985803
v -16.946366 35.052152 -14.544739
v -17.351560 35.052152 -17.315265
v -17.151074 32.627281 -15.929693
v 29.197257 35.011123 -21.293325
v 29.094903 33.798688 -21.985803
v 28.994660 35.011123 -22.678589
v -17.351560 35.052152 -17.315265
v -17.146852 37.477022 -15.930311
v 29.097014 36.223558 -21.986111
v 28.994660 35.011123 -22.678589
v -16.946366 35.052152 -14.544739
v -17.146852 37.477022 -15.930311
v -17.351560 35.052152 -17.315265
v 29.197257 35.011123 -21.293325
v 28.994660 35.011123 -22.678589
v 29.097014 36.223558 -21.986111
v -17.146852 37.477022 -15.930311
v -16.741657 37.477022 -13.159784
v 29.299611 36.223558 -20.600848
v 29.097014 36.223558 -21.986111
v -16.946366 35.052152 -14.544739
v -16.741657 37.477022 -13.159784
v -17.146852 37.477022 -15.930311
v 29.197257 35.011123 -21.293325
v 29.097014 36.223558 -21.986111
v 29.299611 36.223558 -20.600848
v -16.741657 37.477022 -13.159784
v -16.541171 35.052152 -11.774212
v 29.399854 35.011123 -19.908062
v 29.299611 36.223558 -20.600848
v -16.946366 35.052152 -14.544739
v -16.541171 35.052152 -11.774212
v -16.741657 37.477022 -13.159784
v 29.197257 35.011123 -21.293325
v 29.299611 36.223558 -20.600848
v 29.399854 35.011123 -19.908062
vt 0.500000 1.000000
vt 0.000000 0.000000
vt 1.000000 0.000000
vt 0.000000 0.000000
vt 1.000000 0.000000
vt 1.000000 1.000000
vt 0.000000 1.000000
vt 0.000000 0.000000
vt 1.000000 0.000000
vt 1.000000 1.000000
vt 0.000000 1.000000
vt 0.500000 1.000000
vt 0.000000 0.000000
vt 1.000000 0.000000
vt 0.500000 1.000000
vt 0.000000 0.000000
vt 1.000000 0.000000
vt 0.000000 0.000000
vt 1.000000 0.000000
vt 1.000000 1.000000
vt 0.000000 1.000000
vt 0.000000 0.000000
vt 1.000000 0.000000
vt 1.000000 1.000000
vt 0.000000 1.000000
vt 0.500000 1.000000
vt 0.000000 0.000000
vt 1.000000 0.000000
vt 0.500000 1.000000
vt 0.000000 0.000000
vt 1.000000 0.000000
vt 0.000000 0.000000
vt 1.000000 0.000000
vt 1.000000 1.000000
vt 0.000000 1.000000
vt 0.000000 0.000000
vt 1.000000 0.000000
vt 1.000000 1.000000
vt 0.000000 1.000000
vt 0.500000 1.000000
vt 0.000000 0.000000
vt 1.000000 0.000000
vt 0.500000 1.000000
vt 0.000000 0.000000
vt 1.000000 0.000000
vt 0.000000 0.000000
vt 1.000000 0.000000
vt 1.000000 1.000000
vt 0.000000 1.000000
vt 0.000000 0.000000
vt 1.000000 0.000000
vt 1.000000 1.000000
vt 0.000000 1.000000
vt 0.500000 1.000000
vt 0.000000 0.000000
vt 1.000000 0.000000
vt 0.500000 1.000000
vt 0.000000 0.000000
vt 1.000000 0.000000
vt 0.000000 0.000000
vt 1.000000 0.000000
vt 1.000000 1.000000
vt 0.000000 1.000000
vt 0.000000 0.000000
vt 1.000000 0.000000
vt 1.000000 1.000000
vt 0.000000 1.000000
vt 0.500000 1.000000
vt 0.000000 0.000000
vt 1.000000 0.000000
vt 0.500000 1.000000
vt 0.000000 0.000000
vt 1.000000 0.000000
vt 0.000000 0.000000
vt 1.000000 0.000000
vt 1.000000 1.000000
vt 0.000000 1.000000
vt 0.000000 0.000000
vt 1.000000 0.000000
vt 1.000000 1.000000
vt 0.000000 1.000000
vt 0.500000 1.000000
vt 0.000000 0.000000
vt 1.000000 0.000000
vt 0.500000 1.000000
vt 0.000000 0.000000
vt 1.000000 0.000000
vt 0.000000 0.000000
vt 1.000000 0.000000
vt 1.000000 1.000000
vt 0.000000 1.000000
vt 0.000000 0.000000
vt 1.000000 0.000000
vt 1.000000 1.000000
vt 0.000000 1.000000
vt 0.500000 1.000000
vt 0.000000 0.000000
vt 1.000000 0.000000
vt 0.500000 1.000000
vt 0.000000 0.000000
vt 1.000000 0.000000
vt 0.000000 0.000000
vt 1.000000 0.000000
vt 1.000000 1.000000
vt 0.000000 1.000000
vt 0.000000 0.000000
vt 1.000000 0.000000
vt 1.000000 1.000000
vt 0.000000 1.000000
vt 0.500000 1.000000
vt 0.000000 0.000000
vt 1.000000 0.000000
vt 0.500000 1.000000
vt 0.000000 0.000000
vt 1.000000 0.000000
vt 0.000000 0.000000
vt 1.000000 0.000000
vt 1.000000 1.000000
vt 0.000000 1.000000
vt 0.000000 0.000000
vt 1.000000 0.000000
vt 1.000000 1.000000
vt 0.000000 1.000000
vt 0.500000 1.000000
vt 0.000000 0.000000
vt 1.000000 0.000000
vt 0.500000 1.000000
vt 0.000000 0.000000
vt 1.000000 0.000000
vt 0.000000 0.000000
vt 1.000000 0.000000
vt 1.000000 1.000000
vt 0.000000 1.000000
vt 0.000000 0.000000
vt 1.000000 0.000000
vt 1.000000 1.000000
vt 0.000000 1.000000
vt 0.500000 1.000000
vt 0.000000 0.000000
vt 1.000000 0.000000
vt 0.500000 1.000000
vt 0.000000 0.000000
vt 1.000000 0.000000
vt 0.000000 0.000000
vt 1.000000 0.000000
vt 1.000000 1.000000
vt 0.000000 1.000000
vt 0.500000 1.000000
vt 0.000000 0.000000
vt 1.000000 0.000000
vt 0.500000 1.000000
vt 0.000000 0.000000
vt 1.000000 0.000000
vt 0.000000 0.000000
vt 1.000000 0.000000
vt 1.000000 1.000000
vt 0.000000 1.000000
vt 0.500000 1.000000
vt 0.000000 0.000000
vt 1.000000 0.000000
vt 0.500000 1.000000
vt 0.000000 0.000000
vt 1.000000 0.000000
vt 0.000000 0.000000
vt 1.000000 0.000000
vt 1.000000 1.000000
vt 0.000000 1.000000
vt 0.500000 1.000000
vt 0.000000 0.000000
vt 1.000000 0.000000
vt 0.500000 1.000000
vt 0.000000 0.000000
vt 1.000000 0.000000
vt 0.000000 0.000000
vt 1.000000 0.000000
vt 1.000000 1.000000
vt 0.000000 1.000000
vt 0.500000 1.000000
vt 0.000000 0.000000
vt 1.000000 0.000000
vt 0.500000 1.000000
vt 0.000000 0.000000
vt 1.000000 0.000000
vt 0.000000 0.000000
vt 1.000000 0.000000
vt 1.000000 1.000000
vt 0.000000 1.000000
vt 0.500000 1.000000
vt 0.000000 0.000000
vt 1.000000 0.000000
vt 0.500000 1.000000
vt 0.000000 0.000000
vt 1.000000 0.000000
vt 0.000000 0.000000
vt 1.000000 0.000000
vt 1.000000 1.000000
vt 0.000000 1.000000
vt 0.500000 1.000000
vt 0.000000 0.000000
vt 1.000000 0.000000
vt 0.500000 1.000000
vt 0.000000 0.000000
vt 1.000000 0.000000
vt 0.000000 0.000000
vt 1.000000 0.000000
vt 1.000000 1.000000
vt 0.000000 1.000000
vt 0.500000 1.000000
vt 0.000000 0.000000
vt 1.000000 0.000000
vt 0.500000 1.000000
vt 0.000000 0.000000
vt 1.000000 0.000000
vt 0.000000 0.000000
vt 1.000000 0.000000
vt 1.000000 1.000000
vt 0.000000 1.000000
vt 0.500000 1.000000
vt 0.000000 0.000000
vt 1.000000 0.000000
vt 0.500000 1.000000
vt 0.000000 0.000000
vt 1.000000 0.000000
vt 0.000000 0.000000
vt 1.000000 0.000000
vt 1.000000 1.000000
vt 0.000000 1.000000
vt 0.500000 1.000000
vt 0.000000 0.000000
vt 1.000000 0.000000
vt 0.500000 1.000000
vt 0.000000 0.000000
vt 1.000000 0.000000
vt 0.000000 0.000000
vt 1.000000 0.000000
vt 1.000000 1.000000
vt 0.000000 1.000000
vt 0.500000 1.000000
vt 0.000000 0.000000
vt 1.000000 0.000000
vt 0.500000 1.000000
vt 0.000000 0.000000
vt 1.000000 0.000000
vt 0.000000 0.000000
vt 1.000000 0.000000
vt 1.000000 1.000000
vt 0.000000 1.000000
vt 0.500000 1.000000
vt 0.000000 0.000000
vt 1.000000 0.000000
vt 0.500000 1.000000
vt 0.000000 0.000000
vt 1.000000 0.000000
vt 0.000000 0.000000
vt 1.000000 0.000000
vt 1.000000 1.000000
vt 0.000000 1.000000
vt 0.500000 1.000000
vt 0.000000 0.000000
vt 1.000000 0.000000
vt 0.500000 1.000000
vt 0.000000 0.000000
vt 1.000000 0.000000
vt 0.000000 0.000000
vt 1.000000 0.000000
vt 1.000000 1.000000
vt 0.000000 1.000000
vt 0.500000 1.000000
vt 0.000000 0.000000
vt 1.000000 0.000000
vt 0.500000 1.000000
vt 0.000000 0.000000
vt 1.000000 0.000000
vt 0.000000 0.000000
vt 1.000000 0.000000
vt 1.000000 1.000000
vt 0.000000 1.000000
vt 0.500000 1.000000
vt 0.000000 0.000000
vt 1.000000 0.000000
vt 0.500000 1.000000
vt 0.000000 0.000000
vt 1.000000 0.000000
vt 0.000000 0.000000
vt 1.000000 0.000000
vt 1.000000 1.000000
vt 0.000000 1.000000
vt 0.500000 1.000000
vt 0.000000 0.000000
vt 1.000000 0.000000
vt 0.500000 1.000000
vt 0.000000 0.000000
vt 1.000000 0.000000
vt 0.000000 0.000000
vt 1.000000 0.000000
vt 1.000000 1.000000
vt 0.000000 1.000000
vt 0.500000 1.000000
vt 0.000000 0.000000
vt 1.000000 0.000000
vt 0.500000 1.000000
vt 0.000000 0.000000
vt 1.000000 0.000000
vt 0.000000 0.000000
vt 1.000000 0.000000
vt 1.000000 1.000000
vt 0.000000 1.000000
vt 0.500000 1.000000
vt 0.000000 0.000000
vt 1.000000 0.000000
vt 0.500000 1.000000
vt 0.000000 0.000000
vt 1.000000 0.000000
vt 0.000000 0.000000
vt 1.000000 0.000000
vt 1.000000 1.000000
vt 0.000000 1.000000
vt 0.500000 1.000000
vt 0.000000 0.000000
vt 1.000000 0.000000
vt 0.500000 1.000000
vt 0.000000 0.000000
vt 1.000000 0.000000
vt 0.000000 0.000000
vt 1.000000 0.000000
vt 1.000000 1.000000
vt 0.000000 1.000000
vt 0.500000 1.000000
vt 0.000000 0.000000
vt 1.000000 0.000000
vt 0.500000 1.000000
vt 0.000000 0.000000
vt 1.000000 0.000000
vt 0.000000 0.000000
vt 1.000000 0.000000
vt 1.000000 1.000000
vt 0.000000 1.000000
vt 0.500000 1.000000
vt 0.000000 0.000000
vt 1.000000 0.000000
vt 0.500000 1.000000
vt 0.000000 0.000000
vt 1.000000 0.000000
vt 0.000000 0.000000
vt 1.000000 0.000000
vt 1.000000 1.000000
vt 0.000000 1.000000
vt 0.500000 1.000000
vt 0.000000 0.000000
vt 1.000000 0.000000
vt 0.500000 1.000000
vt 0.000000 0.000000
vt 1.000000 0.000000
vt 0.000000 0.000000
vt 1.000000 0.000000
vt 1.000000 1.000000
vt 0.000000 1.000000
vt 0.500000 1.000000
vt 0.000000 0.000000
vt 1.000000 0.000000
vt 0.500000 1.000000
vt 0.000000 0.000000
vt 1.000000 0.000000
vt 0.000000 0.000000
vt 1.000000 0.000000
vt 1.000000 1.000000
vt 0.000000 1.000000
vt 0.500000 1.000000
vt 0.000000 0.000000
vt 1.000000 0.000000
vt 0.500000 1.000000
vt 0.000000 0.000000
vt 1.000000 0.000000
vt 0.000000 0.000000
vt 1.000000 0.000000
vt 1.000000 1.000000
vt 0.000000 1.000000
vt 0.500000 1.000000
vt 0.000000 0.000000
vt 1.000000 0.000000
vt 0.500000 1.000000
vt 0.000000 0.000000
vt 1.000000 0.000000
vt 0.000000 0.000000
vt 1.000000 0.000000
vt 1.000000 1.000000
vt 0.000000 1.000000
vt 0.500000 1.000000
vt 0.000000 0.000000
vt 1.000000 0.000000
vt 0.500000 1.000000
vt 0.000000 0.000000
vt 1.000000 0.000000
vt 0.000000 0.000000
vt 1.000000 0.000000
vt 1.000000 1.000000
vt 0.000000 1.000000
vt 0.500000 1.000000
vt 0.000000 0.000000
vt 1.000000 0.000000
vt 0.500000 1.000000
vt 0.000000 0.000000
vt 1.000000 0.000000
vt 0.000000 0.000000
vt 1.000000 0.000000
vt 1.000000 1.000000
vt 0.000000 1.000000
vt 0.500000 1.000000
vt 0.000000 0.000000
vt 1.000000 0.000000
vt 0.500000 1.000000
vt 0.000000 0.000000
vt 1.000000 0.000000
vt 0.000000 0.000000
vt 1.000000 0.000000
vt 1.000000 1.000000
vt 0.000000 1.000000
vt 0.500000 1.000000
vt 0.000000 0.000000
vt 1.000000 0.000000
vt 0.500000 1.000000
vt 0.000000 0.000000
vt 1.000000 0.000000
vt 0.000000 0.000000
vt 1.000000 0.000000
vt 1.000000 1.000000
vt 0.000000 1.000000
vt 0.500000 1.000000
vt 0.000000 0.000000
vt 1.000000 0.000000
vt 0.500000 1.000000
vt 0.000000 0.000000
vt 1.000000 0.000000
vt 0.000000 0.000000
vt 1.000000 0.000000
vt 1.000000 1.000000
vt 0.000000 1.000000
vt 0.500000 1.000000
vt 0.000000 0.000000
vt 1.000000 0.000000
vt 0.500000 1.000000
vt 0.000000 0.000000
vt 1.000000 0.000000
vt 0.000000 0.000000
vt 1.000000 0.000000
vt 1.000000 1.000000
vt 0.000000 1.000000
vt 0.500000 1.000000
vt 0.000000 0.000000
vt 1.000000 0.000000
vt 0.500000 1.000000
vt 0.000000 0.000000
vt 1.000000 0.000000
vt 0.000000 0.000000
vt 1.000000 0.000000
vt 1.000000 1.000000
vt 0.000000 1.000000
vt 0.500000 1.000000
vt 0.000000 0.000000
vt 1.000000 0.000000
vt 0.500000 1.000000
vt 0.000000 0.000000
vt 1.000000 0.000000
vt 0.000000 0.000000
vt 1.000000 0.000000
vt 1.000000 1.000000
vt 0.000000 1.000000
vt 0.500000 1.000000
vt 0.000000 0.000000
vt 1.000000 0.000000
vt 0.500000 1.000000
vt 0.000000 0.000000
vt 1.000000 0.000000
vt 0.000000 0.000000
vt 1.000000 0.000000
vt 1.000000 1.000000
vt 0.000000 1.000000
vt 0.500000 1.000000
vt 0.000000 0.000000
vt 1.000000 0.000000
vt 0.500000 1.000000
vt 0.000000 0.000000
vt 1.000000 0.000000
vt 0.000000 0.000000
vt 1.000000 0.000000
vt 1.000000 1.000000
vt 0.000000 1.000000
vt 0.500000 1.000000
vt 0.000000 0.000000
vt 1.000000 0.000000
vt 0.500000 1.000000
vt 0.000000 0.000000
vt 1.000000 0.000000
vt 0.000000 0.000000
vt 1.000000 0.000000
vt 1.000000 1.000000
vt 0.000000 1.000000
vt 0.500000 1.000000
vt 0.000000 0.000000
vt 1.000000 0.000000
vt 0.500000 1.000000
vt 0.000000 0.000000
vt 1.000000 0.000000
vt 0.000000 0.000000
vt 1.000000 0.000000
vt 1.000000 1.000000
vt 0.000000 1.000000
vt 0.500000 1.000000
vt 0.000000 0.000000
vt 1.000000 0.000000
vt 0.500000 1.000000
vt 0.000000 0.000000
vt 1.000000 0.000000
vt 0.000000 0.000000
vt 1.000000 0.000000
vt 1.000000 1.000000
vt 0.000000 1.000000
vt 0.500000 1.000000
vt 0.000000 0.000000
vt 1.000000 0.000000
vt 0.500000 1.000000
vt 0.000000 0.000000
vt 1.000000 0.000000
vt 0.000000 0.000000
vt 1.000000 0.000000
vt 1.000000 1.000000
vt 0.000000 1.000000
vt 0.500000 1.000000
vt 0.000000 0.000000
vt 1.000000 0.000000
vt 0.500000 1.000000
vt 0.000000 0.000000
vt 1.000000 0.000000
vt 0.000000 0.000000
vt 1.000000 0.000000
vt 1.000000 1.000000
vt 0.000000 1.000000
vt 0.500000 1.000000
vt 0.000000 0.000000
vt 1.000000 0.000000
vt 0.500000 1.000000
vt 0.000000 0.000000
vt 1.000000 0.000000
vt 0.000000 0.000000
vt 1.000000 0.000000
vt 1.000000 1.000000
vt 0.000000 1.000000
vt 0.500000 1.000000
vt 0.000000 0.000000
vt 1.000000 0.000000
vt 0.500000 1.000000
vt 0.000000 0.000000
vt 1.000000 0.000000
vt 0.000000 0.000000
vt 1.000000 0.000000
vt 1.000000 1.000000
vt 0.000000 1.000000
vt 0.500000 1.000000
vt 0.000000 0.000000
vt 1.000000 0.000000
vt 0.500000 1.000000
vt 0.000000 0.000000
vt 1.000000 0.000000
vt 0.000000 0.000000
vt 1.000000 0.000000
vt 1.000000 1.000000
vt 0.000000 1.000000
vt 0.500000 1.000000
vt 0.000000 0.000000
vt 1.000000 0.000000
vt 0.500000 1.000000
vt 0.000000 0.000000
vt 1.000000 0.000000
vt 0.000000 0.000000
vt 1.000000 0.000000
vt 1.000000 1.000000
vt 0.000000 1.000000
vt 0.500000 1.000000
vt 0.000000 0.000000
vt 1.000000 0.000000
vt 0.500000 1.000000
vt 0.000000 0.000000
vt 1.000000 0.000000
vt 0.000000 0.000000
vt 1.000000 0.000000
vt 1.000000 1.000000
vt 0.000000 1.000000
vt 0.500000 1.000000
vt 0.000000 0.000000
vt 1.000000 0.000000
vt 0.500000 1.000000
vt 0.000000 0.000000
vt 1.000000 0.000000
vt 0.000000 0.000000
vt 1.000000 0.000000
vt 1.000000 1.000000
vt 0.000000 1.000000
vt 0.500000 1.000000
vt 0.000000 0.000000
vt 1.000000 0.000000
vt 0.500000 1.000000
vt 0.000000 0.000000
vt 1.000000 0.000000
vt 0.000000 0.000000
vt 1.000000 0.000000
vt 1.000000 1.000000
vt 0.000000 1.000000
vt 0.500000 1.000000
vt 0.000000 0.000000
vt 1.000000 0.000000
vt 0.500000 1.000000
vt 0.000000 0.000000
vt 1.000000 0.000000
vt 0.000000 0.000000
vt 1.000000 0.000000
vt 1.000000 1.000000
vt 0.000000 1.000000
vt 0.500000 1.000000
vt 0.000000 0.000000
vt 1.000000 0.000000
vt 0.500000 1.000000
vt 0.000000 0.000000
vt 1.000000 0.000000
vt 0.000000 0.000000
vt 1.000000 0.000000
vt 1.000000 1.000000
vt 0.000000 1.000000
vt 0.500000 1.000000
vt 0.000000 0.000000
vt 1.000000 0.000000
vt 0.500000 1.000000
vt 0.000000 0.000000
vt 1.000000 0.000000
vt 0.000000 0.000000
vt 1.000000 0.000000
vt 1.000000 1.000000
vt 0.000000 1.000000
vt 0.500000 1.000000
vt 0.000000 0.000000
vt 1.000000 0.000000
vt 0.500000 1.000000
vt 0.000000 0.000000
vt 1.000000 0.000000
vt 0.000000 0.000000
vt 1.000000 0.000000
vt 1.000000 1.000000
vt 0.000000 1.000000
vt 0.500000 1.000000
vt 0.000000 0.000000
vt 1.000000 0.000000
vt 0.500000 1.000000
vt 0.000000 0.000000
vt 1.000000 0.000000
vt 0.000000 0.000000
vt 1.000000 0.000000
vt 1.000000 1.000000
vt 0.000000 1.000000
vt 0.500000 1.000000
vt 0.000000 0.000000
vt 1.000000 0.000000
vt 0.500000 1.000000
vt 0.000000 0.000000
vt 1.000000 0.000000
vt 0.000000 0.000000
vt 1.000000 0.000000
vt 1.000000 1.000000
vt 0.000000 1.000000
vt 0.500000 1.000000
vt 0.000000 0.000000
vt 1.000000 0.000000
vt 0.500000 1.000000
vt 0.000000 0.000000
vt 1.000000 0.000000
vt 0.000000 0.000000
vt 1.000000 0.000000
vt 1.000000 1.000000
vt 0.000000 1.000000
vt 0.500000 1.000000
vt 0.000000 0.000000
vt 1.000000 0.000000
vt 0.500000 1.000000
vt 0.000000 0.000000
vt 1.000000 0.000000
vt 0.000000 0.000000
vt 1.000000 0.000000
vt 1.000000 1.000000
vt 0.000000 1.000000
vt 0.500000 1.000000
vt 0.000000 0.000000
vt 1.000000 0.000000
vt 0.500000 1.000000
vt 0.000000 0.000000
vt 1.000000 0.000000
vt 0.000000 0.000000
vt 1.000000 0.000000
vt 1.000000 1.000000
vt 0.000000 1.000000
vt 0.500000 1.000000
vt 0.000000 0.000000
vt 1.000000 0.000000
vt 0.500000 1.000000
vt 0.000000 0.000000
vt 1.000000 0.000000
vt 0.000000 0.000000
vt 1.000000 0.000000
vt 1.000000 1.000000
vt 0.000000 1.000000
vt 0.500000 1.000000
vt 0.000000 0.000000
vt 1.000000 0.000000
vt 0.500000 1.000000
vt 0.000000 0.000000
vt 1.000000 0.000000
vt 0.000000 0.000000
vt 1.000000 0.000000
vt 1.000000 1.000000
vt 0.000000 1.000000
vt 0.500000 1.000000
vt 0.000000 0.000000
vt 1.000000 0.000000
vt 0.500000 1.000000
vt 0.000000 0.000000
vt 1.000000 0.000000
vt 0.000000 0.000000
vt 1.000000 0.000000
vt 1.000000 1.000000
vt 0.000000 1.000000
vt 0.500000 1.000000
vt 0.000000 0.000000
vt 1.000000 0.000000
vt 0.500000 1.000000
vt 0.000000 0.000000
vt 1.000000 0.000000
vt 0.000000 0.000000
vt 1.000000 0.000000
vt 1.000000 1.000000
vt 0.000000 1.000000
vt 0.500000 1.000000
vt 0.000000 0.000000
vt 1.000000 0.000000
vt 0.500000 1.000000
vt 0.000000 0.000000
vt 1.000000 0.000000
vt 0.000000 0.000000
vt 1.000000 0.000000
vt 1.000000 1.000000
vt 0.000000 1.000000
vt 0.500000 1.000000
vt 0.000000 0.000000
vt 1.000000 0.000000
vt 0.500000 1.000000
vt 0.000000 0.000000
vt 1.000000 0.000000
vt 0.000000 0.000000
vt 1.000000 0.000000
vt 1.000000 1.000000
vt 0.000000 1.000000
vt 0.500000 1.000000
vt 0.000000 0.000000
vt 1.000000 0.000000
vt 0.500000 1.000000
vt 0.000000 0.000000
vt 1.000000 0.000000
vt 0.000000 0.000000
vt 1.000000 0.000000
vt 1.000000 1.000000
vt 0.000000 1.000000
vt 0.500000 1.000000
vt 0.000000 0.000000
vt 1.000000 0.000000
vt 0.000000 0.000000
vt 1.000000 0.000000
vt 1.000000 1.000000
vt 0.000000 1.000000
vt 0.500000 1.000000
vt 0.000000 0.000000
vt 1.000000 0.000000
vt 0.500000 1.000000
vt 0.000000 0.000000
vt 1.000000 0.000000
vt 0.000000 0.000000
vt 1.000000 0.000000
vt 1.000000 1.000000
vt 0.000000 1.000000
vt 0.500000 1.000000
vt 0.000000 0.000000
vt 1.000000 0.000000
vt 0.500000 1.000000
vt 0.000000 0.000000
vt 1.000000 0.000000
vt 0.000000 0.000000
vt 1.000000 0.000000
vt 1.000000 1.000000
vt 0.000000 1.000000
vt 0.500000 1.000000
vt 0.000000 0.000000
vt 1.000000 0.000000
vt 0.500000 1.000000
vt 0.000000 0.000000
vt 1.000000 0.000000
vt 0.000000 0.000000
vt 1.000000 0.000000
vt 1.000000 1.000000
vt 0.000000 1.000000
vt 0.500000 1.000000
vt 0.000000 0.000000
vt 1.000000 0.000000
vt 0.500000 1.000000
vt 0.000000 0.000000
vt 1.000000 0.000000
vt 0.000000 0.000000
vt 1.000000 0.000000
vt 1.000000 1.000000
vt 0.000000 1.000000
vt 0.500000 1.000000
vt 0.000000 0.000000
vt 1.000000 0.000000
vt 0.500000 1.000000
vt 0.000000 0.000000
vt 1.000000 0.000000
vt 0.000000 0.000000
vt 1.000000 0.000000
vt 1.000000 1.000000
vt 0.000000 1.000000
vt 0.500000 1.000000
vt 0.000000 0.000000
vt 1.000000 0.000000
vt 0.500000 1.000000
vt 0.000000 0.000000
vt 1.000000 0.000000
vt 0.000000 0.000000
vt 1.000000 0.000000
vt 1.000000 1.000000
vt 0.000000 1.000000
vt 0.500000 1.000000
vt 0.000000 0.000000
vt 1.000000 0.000000
vt 0.500000 1.000000
vt 0.000000 0.000000
vt 1.000000 0.000000
vt 0.000000 0.000000
vt 1.000000 0.000000
vt 1.000000 1.000000
vt 0.000000 1.000000
vt 0.500000 1.000000
vt 0.000000 0.000000
vt 1.000000 0.000000
vt 0.500000 1.000000
vt 0.000000 0.000000
vt 1.000000 0.000000
vt 0.000000 0.000000
vt 1.000000 0.000000
vt 1.000000 1.000000
vt 0.000000 1.000000
vt 0.500000 1.000000
vt 0.000000 0.000000
vt 1.000000 0.000000
vt 0.500000 1.000000
vt 0.000000 0.000000
vt 1.000000 0.000000
vt 0.000000 0.000000
vt 1.000000 0.000000
vt 1.000000 1.000000
vt 0.000000 1.000000
vt 0.500000 1.000000
vt 0.000000 0.000000
vt 1.000000 0.000000
vt 0.500000 1.000000
vt 0.000000 0.000000
vt 1.000000 0.000000
vt 0.000000 0.000000
vt 1.000000 0.000000
vt 1.000000 1.000000
vt 0.000000 1.000000
vt 0.500000 1.000000
vt 0.000000 0.000000
vt 1.000000 0.000000
vt 0.500000 1.000000
vt 0.000000 0.000000
vt 1.000000 0.000000
vt 0.000000 0.000000
vt 1.000000 0.000000
vt 1.000000 1.000000
vt 0.000000 1.000000
vt 0.500000 1.000000
vt 0.000000 0.000000
vt 1.000000 0.000000
vt 0.500000 1.000000
vt 0.000000 0.000000
vt 1.000000 0.000000
vt 0.000000 0.000000
vt 1.000000 0.000000
vt 1.000000 1.000000
vt 0.000000 1.000000
vt 0.500000 1.000000
vt 0.000000 0.000000
vt 1.000000 0.000000
vt 0.500000 1.000000
vt 0.000000 0.000000
vt 1.000000 0.000000
vt 0.000000 0.000000
vt 1.000000 0.000000
vt 1.000000 1.000000
vt 0.000000 1.000000
vt 0.500000 1.000000
vt 0.000000 0.000000
vt 1.000000 0.000000
vt 0.500000 1.000000
vt 0.000000 0.000000
vt 1.000000 0.000000
vt 0.000000 0.000000
vt 1.000000 0.000000
vt 1.000000 1.000000
vt 0.000000 1.000000
vt 0.500000 1.000000
vt 0.000000 0.000000
vt 1.000000 0.000000
vt 0.500000 1.000000
vt 0.000000 0.000000
vt 1.000000 0.000000
vt 0.000000 0.000000
vt 1.000000 0.000000
vt 1.000000 1.000000
vt 0.000000 1.000000
vt 0.500000 1.000000
vt 0.000000 0.000000
vt 1.000000 0.000000
vt 0.500000 1.000000
vt 0.000000 0.000000
vt 1.000000 0.000000
vt 0.000000 0.000000
vt 1.000000 0.000000
vt 1.000000 1.000000
vt 0.000000 1.000000
vt 0.500000 1.000000
vt 0.000000 0.000000
vt 1.000000 0.000000
vt 0.500000 1.000000
vt 0.000000 0.000000
vt 1.000000 0.000000
vt 0.000000 0.000000
vt 1.000000 0.000000
vt 1.000000 1.000000
vt 0.000000 1.000000
vt 0.500000 1.000000
vt 0.000000 0.000000
vt 1.000000 0.000000
vt 0.500000 1.000000
vt 0.000000 0.000000
vt 1.000000 0.000000
s 1
usemtl models/caelum/world/environment/rock_granite.png
f 1/1 2/2 3/3
f 4/4 5/5 6/6 7/7
f 8/8 9/9 10/10 11/11
f 12/12 13/13 14/14
f 15/15 16/16 17/17
f 18/18 19/19 20/20 21/21
f 22/22 23/23 24/24 25/25
f 26/26 27/27 28/28
f 29/29 30/30 31/31
f 32/32 33/33 34/34 35/35
f 36/36 37/37 38/38 39/39
f 40/40 41/41 42/42
f 43/43 44/44 45/45
f 46/46 47/47 48/48 49/49
f 50/50 51/51 52/52 53/53
f 54/54 55/55 56/56
f 57/57 58/58 59/59
f 60/60 61/61 62/62 63/63
f 64/64 65/65 66/66 67/67
f 68/68 69/69 70/70
f 71/71 72/72 73/73
f 74/74 75/75 76/76 77/77
f 78/78 79/79 80/80 81/81
f 82/82 83/83 84/84
f 85/85 86/86 87/87
f 88/88 89/89 90/90 91/91
f 92/92 93/93 94/94 95/95
f 96/96 97/97 98/98
f 99/99 100/100 101/101
f 102/102 103/103 104/104 105/105
f 106/106 107/107 108/108 109/109
f 110/110 111/111 112/112
f 113/113 114/114 115/115
f 116/116 117/117 118/118 119/119
f 120/120 121/121 122/122 123/123
f 124/124 125/125 126/126
f 127/127 128/128 129/129
f 130/130 131/131 132/132 133/133
f 134/134 135/135 136/136 137/137
f 138/138 139/139 140/140
usemtl models/caelum/world/resources/ca_vein_copper.png
f 141/141 142/142 143/143
f 144/144 145/145 146/146 147/147
f 148/148 149/149 150/150
f 151/151 152/152 153/153
f 154/154 155/155 156/156 157/157
f 158/158 159/159 160/160
f 161/161 162/162 163/163
f 164/164 165/165 166/166 167/167
f 168/168 169/169 170/170
f 171/171 172/172 173/173
f 174/174 175/175 176/176 177/177
f 178/178 179/179 180/180
f 181/181 182/182 183/183
f 184/184 185/185 186/186 187/187
f 188/188 189/189 190/190
f 191/191 192/192 193/193
f 194/194 195/195 196/196 197/197
f 198/198 199/199 200/200
f 201/201 202/202 203/203
f 204/204 205/205 206/206 207/207
f 208/208 209/209 210/210
f 211/211 212/212 213/213
f 214/214 215/215 216/216 217/217
f 218/218 219/219 220/220
f 221/221 222/222 223/223
f 224/224 225/225 226/226 227/227
f 228/228 229/229 230/230
f 231/231 232/232 233/233
f 234/234 235/235 236/236 237/237
f 238/238 239/239 240/240
f 241/241 242/242 243/243
f 244/244 245/245 246/246 247/247
f 248/248 249/249 250/250
f 251/251 252/252 253/253
f 254/254 255/255 256/256 257/257
f 258/258 259/259 260/260
f 261/261 262/262 263/263
f 264/264 265/265 266/266 267/267
f 268/268 269/269 270/270
f 271/271 272/272 273/273
f 274/274 275/275 276/276 277/277
f 278/278 279/279 280/280
f 281/281 282/282 283/283
f 284/284 285/285 286/286 287/287
f 288/288 289/289 290/290
f 291/291 292/292 293/293
f 294/294 295/295 296/296 297/297
f 298/298 299/299 300/300
f 301/301 302/302 303/303
f 304/304 305/305 306/306 307/307
f 308/308 309/309 310/310
f 311/311 312/312 313/313
f 314/314 315/315 316/316 317/317
f 318/318 319/319 320/320
f 321/321 322/322 323/323
f 324/324 325/325 326/326 327/327
f 328/328 329/329 330/330
f 331/331 332/332 333/333
f 334/334 335/335 336/336 337/337
f 338/338 339/339 340/340
f 341/341 342/342 343/343
f 344/344 345/345 346/346 347/347
f 348/348 349/349 350/350
f 351/351 352/352 353/353
f 354/354 355/355 356/356 357/357
f 358/358 359/359 360/360
f 361/361 362/362 363/363
f 364/364 365/365 366/366 367/367
f 368/368 369/369 370/370
f 371/371 372/372 373/373
f 374/374 375/375 376/376 377/377
f 378/378 379/379 380/380
f 381/381 382/382 383/383
f 384/384 385/385 386/386 387/387
f 388/388 389/389 390/390
f 391/391 392/392 393/393
f 394/394 395/395 396/396 397/397
f 398/398 399/399 400/400
f 401/401 402/402 403/403
f 404/404 405/405 406/406 407/407
f 408/408 409/409 410/410
f 411/411 412/412 413/413
f 414/414 415/415 416/416 417/417
f 418/418 419/419 420/420
f 421/421 422/422 423/423
f 424/424 425/425 426/426 427/427
f 428/428 429/429 430/430
f 431/431 432/432 433/433
f 434/434 435/435 436/436 437/437
f 438/438 439/439 440/440
f 441/441 442/442 443/443
f 444/444 445/445 446/446 447/447
f 448/448 449/449 450/450
f 451/451 452/452 453/453
f 454/454 455/455 456/456 457/457
f 458/458 459/459 460/460
f 461/461 462/462 463/463
f 464/464 465/465 466/466 467/467
f 468/468 469/469 470/470
f 471/471 472/472 473/473
f 474/474 475/475 476/476 477/477
f 478/478 479/479 480/480
f 481/481 482/482 483/483
f 484/484 485/485 486/486 487/487
f 488/488 489/489 490/490
f 491/491 492/492 493/493
f 494/494 495/495 496/496 497/497
f 498/498 499/499 500/500
f 501/501 502/502 503/503
f 504/504 505/505 506/506 507/507
f 508/508 509/509 510/510
f 511/511 512/512 513/513
f 514/514 515/515 516/516 517/517
f 518/518 519/519 520/520
f 521/521 522/522 523/523
f 524/524 525/525 526/526 527/527
f 528/528 529/529 530/530
f 531/531 532/532 533/533
f 534/534 535/535 536/536 537/537
f 538/538 539/539 540/540
f 541/541 542/542 543/543
f 544/544 545/545 546/546 547/547
f 548/548 549/549 550/550
f 551/551 552/552 553/553
f 554/554 555/555 556/556 557/557
f 558/558 559/559 560/560
f 561/561 562/562 563/563
f 564/564 565/565 566/566 567/567
f 568/568 569/569 570/570
f 571/571 572/572 573/573
f 574/574 575/575 576/576 577/577
f 578/578 579/579 580/580
f 581/581 582/582 583/583
f 584/584 585/585 586/586 587/587
f 588/588 589/589 590/590
f 591/591 592/592 593/593
f 594/594 595/595 596/596 597/597
f 598/598 599/599 600/600
f 601/601 602/602 603/603
f 604/604 605/605 606/606 607/607
f 608/608 609/609 610/610
f 611/611 612/612 613/613
f 614/614 615/615 616/616 617/617
f 618/618 619/619 620/620
f 621/621 622/622 623/623
f 624/624 625/625 626/626 627/627
f 628/628 629/629 630/630
f 631/631 632/632 633/633
f 634/634 635/635 636/636 637/637
f 638/638 639/639 640/640
f 641/641 642/642 643/643
f 644/644 645/645 646/646 647/647
f 648/648 649/649 650/650
f 651/651 652/652 653/653
f 654/654 655/655 656/656 657/657
f 658/658 659/659 660/660
f 661/661 662/662 663/663
f 664/664 665/665 666/666 667/667
f 668/668 669/669 670/670
f 671/671 672/672 673/673
f 674/674 675/675 676/676 677/677
f 678/678 679/679 680/680
f 681/681 682/682 683/683
f 684/684 685/685 686/686 687/687
f 688/688 689/689 690/690
f 691/691 692/692 693/693
f 694/694 695/695 696/696 697/697
f 698/698 699/699 700/700
f 701/701 702/702 703/703
f 704/704 705/705 706/706 707/707
f 708/708 709/709 710/710
f 711/711 712/712 713/713
f 714/714 715/715 716/716 717/717
f 718/718 719/719 720/720
f 721/721 722/722 723/723
f 724/724 725/725 726/726 727/727
f 728/728 729/729 730/730
f 731/731 732/732 733/733
f 734/734 735/735 736/736 737/737
f 738/738 739/739 740/740
f 741/741 742/742 743/743
f 744/744 745/745 746/746 747/747
f 748/748 749/749 750/750
f 751/751 752/752 753/753
f 754/754 755/755 756/756 757/757
f 758/758 759/759 760/760
f 761/761 762/762 763/763
f 764/764 765/765 766/766 767/767
f 768/768 769/769 770/770
f 771/771 772/772 773/773 774/774
f 775/775 776/776 777/777
f 778/778 779/779 780/780
f 781/781 782/782 783/783 784/784
f 785/785 786/786 787/787
f 788/788 789/789 790/790
f 791/791 792/792 793/793 794/794
f 795/795 796/796 797/797
f 798/798 799/799 800/800
f 801/801 802/802 803/803 804/804
f 805/805 806/806 807/807
f 808/808 809/809 810/810
f 811/811 812/812 813/813 814/814
f 815/815 816/816 817/817
f 818/818 819/819 820/820
f 821/821 822/822 823/823 824/824
f 825/825 826/826 827/827
f 828/828 829/829 830/830
f 831/831 832/832 833/833 834/834
f 835/835 836/836 837/837
f 838/838 839/839 840/840
f 841/841 842/842 843/843 844/844
f 845/845 846/846 847/847
f 848/848 849/849 850/850
f 851/851 852/852 853/853 854/854
f 855/855 856/856 857/857
f 858/858 859/859 860/860
f 861/861 862/862 863/863 864/864
f 865/865 866/866 867/867
f 868/868 869/869 870/870
f 871/871 872/872 873/873 874/874
f 875/875 876/876 877/877
f 878/878 879/879 880/880
f 881/881 882/882 883/883 884/884
f 885/885 886/886 887/887
f 888/888 889/889 890/890
f 891/891 892/892 893/893 894/894
f 895/895 896/896 897/897
f 898/898 899/899 900/900
f 901/901 902/902 903/903 904/904
f 905/905 906/906 907/907
f 908/908 909/909 910/910
f 911/911 912/912 913/913 914/914
f 915/915 916/916 917/917
f 918/918 919/919 920/920
f 921/921 922/922 923/923 924/924
f 925/925 926/926 927/927
f 928/928 929/929 930/930
f 931/931 932/932 933/933 934/934
f 935/935 936/936 937/937
f 938/938 939/939 940/940
f 941/941 942/942 943/943 944/944
f 945/945 946/946 947/947
f 948/948 949/949 950/950
