# Modelo original generado para Caelum Argenteum.
# Ejes OBJ: X ancho, Y altura, Z profundidad.
o ca_vein_opal3
v 0.000000 0.000000 0.000000
v 32.614171 0.267413 0.000000
v 29.630710 -0.013836 18.592338
v 32.614171 0.267413 0.000000
v 36.373138 15.994936 0.000000
v 39.932203 15.828809 25.056201
v 29.630710 -0.013836 18.592338
v 36.373138 15.994936 0.000000
v 38.107307 31.536943 0.000000
v 25.450972 30.766245 15.969684
v 39.932203 15.828809 25.056201
v 11.096448 47.000000 -2.777955
v 25.450972 30.766245 15.969684
v 38.107307 31.536943 0.000000
v 0.000000 0.000000 0.000000
v 29.630710 -0.013836 18.592338
v 9.749038 -0.454680 25.912936
v 29.630710 -0.013836 18.592338
v 39.932203 15.828809 25.056201
v 14.931356 14.377017 39.687535
v 9.749038 -0.454680 25.912936
v 39.932203 15.828809 25.056201
v 25.450972 30.766245 15.969684
v 8.739173 30.958009 23.228717
v 14.931356 14.377017 39.687535
v 11.096448 47.000000 -2.777955
v 8.739173 30.958009 23.228717
v 25.450972 30.766245 15.969684
v 0.000000 0.000000 0.000000
v 9.749038 -0.454680 25.912936
v -13.046824 0.207684 34.678452
v 9.749038 -0.454680 25.912936
v 14.931356 14.377017 39.687535
v -13.515094 14.415611 35.923112
v -13.046824 0.207684 34.678452
v 14.931356 14.377017 39.687535
v 8.739173 30.958009 23.228717
v -11.379757 32.981607 30.247387
v -13.515094 14.415611 35.923112
v 11.096448 47.000000 -2.777955
v -11.379757 32.981607 30.247387
v 8.739173 30.958009 23.228717
v 0.000000 0.000000 0.000000
v -13.046824 0.207684 34.678452
v -32.412073 -0.005751 20.337556
v -13.046824 0.207684 34.678452
v -13.515094 14.415611 35.923112
v -30.329572 15.940146 19.030853
v -32.412073 -0.005751 20.337556
v -13.515094 14.415611 35.923112
v -11.379757 32.981607 30.247387
v -23.796921 33.199955 14.931820
v -30.329572 15.940146 19.030853
v 11.096448 47.000000 -2.777955
v -23.796921 33.199955 14.931820
v -11.379757 32.981607 30.247387
v 0.000000 0.000000 0.000000
v -32.412073 -0.005751 20.337556
v -34.114937 -0.869371 0.000000
v -32.412073 -0.005751 20.337556
v -30.329572 15.940146 19.030853
v -36.142375 14.846589 0.000000
v -34.114937 -0.869371 0.000000
v -30.329572 15.940146 19.030853
v -23.796921 33.199955 14.931820
v -32.867199 31.248283 0.000000
v -36.142375 14.846589 0.000000
v 11.096448 47.000000 -2.777955
v -32.867199 31.248283 0.000000
v -23.796921 33.199955 14.931820
v 0.000000 0.000000 0.000000
v -34.114937 -0.869371 0.000000
v -26.320651 -1.217642 -16.515381
v -34.114937 -0.869371 0.000000
v -36.142375 14.846589 0.000000
v -37.662689 15.098650 -23.632152
v -26.320651 -1.217642 -16.515381
v -36.142375 14.846589 0.000000
v -32.867199 31.248283 0.000000
v -28.904547 30.740197 -18.136694
v -37.662689 15.098650 -23.632152
v 11.096448 47.000000 -2.777955
v -28.904547 30.740197 -18.136694
v -32.867199 31.248283 0.000000
v 0.000000 0.000000 0.000000
v -26.320651 -1.217642 -16.515381
v -11.063733 0.227817 -29.407397
v -26.320651 -1.217642 -16.515381
v -37.662689 15.098650 -23.632152
v -11.695072 14.148967 -31.085494
v -11.063733 0.227817 -29.407397
v -37.662689 15.098650 -23.632152
v -28.904547 30.740197 -18.136694
v -10.695644 32.316215 -28.429017
v -11.695072 14.148967 -31.085494
v 11.096448 47.000000 -2.777955
v -10.695644 32.316215 -28.429017
v -28.904547 30.740197 -18.136694
v 0.000000 0.000000 0.000000
v -11.063733 0.227817 -29.407397
v 13.107370 0.848269 -34.839382
v -11.063733 0.227817 -29.407397
v -11.695072 14.148967 -31.085494
v 13.431954 15.493810 -35.702126
v 13.107370 0.848269 -34.839382
v -11.695072 14.148967 -31.085494
v -10.695644 32.316215 -28.429017
v 10.738632 31.405410 -28.543279
v 13.431954 15.493810 -35.702126
v 11.096448 47.000000 -2.777955
v 10.738632 31.405410 -28.543279
v -10.695644 32.316215 -28.429017
v 0.000000 0.000000 0.000000
v 13.107370 0.848269 -34.839382
v 33.755596 -1.059854 -21.180575
v 13.107370 0.848269 -34.839382
v 13.431954 15.493810 -35.702126
v 33.071147 14.348791 -20.751105
v 33.755596 -1.059854 -21.180575
v 13.431954 15.493810 -35.702126
v 10.738632 31.405410 -28.543279
v 27.369538 32.103288 -17.173524
v 33.071147 14.348791 -20.751105
v 11.096448 47.000000 -2.777955
v 27.369538 32.103288 -17.173524
v 10.738632 31.405410 -28.543279
v 0.000000 0.000000 0.000000
v 33.755596 -1.059854 -21.180575
v 32.614171 0.267413 0.000000
v 33.755596 -1.059854 -21.180575
v 33.071147 14.348791 -20.751105
v 36.373138 15.994936 0.000000
v 32.614171 0.267413 0.000000
v 33.071147 14.348791 -20.751105
v 27.369538 32.103288 -17.173524
v 38.107307 31.536943 0.000000
v 36.373138 15.994936 0.000000
v 11.096448 47.000000 -2.777955
v 38.107307 31.536943 0.000000
v 27.369538 32.103288 -17.173524
v 19.998583 27.985163 -7.654306
v 15.912349 27.521218 -5.244941
v 15.545742 56.585720 -4.539401
v 15.931535 56.629523 -4.766876
v 19.998583 28.223521 -2.893972
v 15.912349 27.521218 -5.244941
v 19.998583 27.985163 -7.654306
v 15.931535 56.652027 -4.317439
v 15.931535 56.629523 -4.766876
v 15.545742 56.585720 -4.539401
v 15.912349 27.521218 -5.244941
v 15.912349 27.759577 -0.484607
v 15.545742 56.608225 -4.089964
v 15.545742 56.585720 -4.539401
v 19.998583 28.223521 -2.893972
v 15.912349 27.759577 -0.484607
v 15.912349 27.521218 -5.244941
v 15.931535 56.652027 -4.317439
v 15.545742 56.585720 -4.539401
v 15.545742 56.608225 -4.089964
v 15.912349 27.759577 -0.484607
v 19.998583 28.461880 1.866362
v 15.931535 56.674531 -3.868002
v 15.545742 56.608225 -4.089964
v 19.998583 28.223521 -2.893972
v 19.998583 28.461880 1.866362
v 15.912349 27.759577 -0.484607
v 15.931535 56.652027 -4.317439
v 15.545742 56.608225 -4.089964
v 15.931535 56.674531 -3.868002
v 19.998583 28.461880 1.866362
v 24.084817 28.925825 -0.543003
v 16.317328 56.718333 -4.095477
v 15.931535 56.674531 -3.868002
v 19.998583 28.223521 -2.893972
v 24.084817 28.925825 -0.543003
v 19.998583 28.461880 1.866362
v 15.931535 56.652027 -4.317439
v 15.931535 56.674531 -3.868002
v 16.317328 56.718333 -4.095477
v 24.084817 28.925825 -0.543003
v 24.084817 28.687466 -5.303337
v 16.317328 56.695829 -4.544914
v 16.317328 56.718333 -4.095477
v 19.998583 28.223521 -2.893972
v 24.084817 28.687466 -5.303337
v 24.084817 28.925825 -0.543003
v 15.931535 56.652027 -4.317439
v 16.317328 56.718333 -4.095477
v 16.317328 56.695829 -4.544914
v 24.084817 28.687466 -5.303337
v 19.998583 27.985163 -7.654306
v 15.931535 56.629523 -4.766876
v 16.317328 56.695829 -4.544914
v 19.998583 28.223521 -2.893972
v 19.998583 27.985163 -7.654306
v 24.084817 28.687466 -5.303337
v 15.931535 56.652027 -4.317439
v 16.317328 56.695829 -4.544914
v 15.931535 56.629523 -4.766876
v 8.762063 30.898965 13.145949
v 5.445581 30.722714 15.916634
v 6.932526 59.500338 16.502501
v 7.277582 59.518676 16.214231
v 9.491746 31.065745 17.405827
v 5.445581 30.722714 15.916634
v 8.762063 30.898965 13.145949
v 7.353501 59.536028 16.657441
v 7.277582 59.518676 16.214231
v 6.932526 59.500338 16.502501
v 5.445581 30.722714 15.916634
v 6.175264 30.889494 20.176512
v 7.008444 59.517691 16.945711
v 6.932526 59.500338 16.502501
v 9.491746 31.065745 17.405827
v 6.175264 30.889494 20.176512
v 5.445581 30.722714 15.916634
v 7.353501 59.536028 16.657441
v 6.932526 59.500338 16.502501
v 7.008444 59.517691 16.945711
v 6.175264 30.889494 20.176512
v 10.221429 31.232525 21.665704
v 7.429419 59.553381 17.100651
v 7.008444 59.517691 16.945711
v 9.491746 31.065745 17.405827
v 10.221429 31.232525 21.665704
v 6.175264 30.889494 20.176512
v 7.353501 59.536028 16.657441
v 7.008444 59.517691 16.945711
v 7.429419 59.553381 17.100651
v 10.221429 31.232525 21.665704
v 13.537911 31.408776 18.895019
v 7.774476 59.571718 16.812381
v 7.429419 59.553381 17.100651
v 9.491746 31.065745 17.405827
v 13.537911 31.408776 18.895019
v 10.221429 31.232525 21.665704
v 7.353501 59.536028 16.657441
v 7.429419 59.553381 17.100651
v 7.774476 59.571718 16.812381
v 13.537911 31.408776 18.895019
v 12.808227 31.241996 14.635141
v 7.698557 59.554366 16.369171
v 7.774476 59.571718 16.812381
v 9.491746 31.065745 17.405827
v 12.808227 31.241996 14.635141
v 13.537911 31.408776 18.895019
v 7.353501 59.536028 16.657441
v 7.774476 59.571718 16.812381
v 7.698557 59.554366 16.369171
v 12.808227 31.241996 14.635141
v 8.762063 30.898965 13.145949
v 7.277582 59.518676 16.214231
v 7.698557 59.554366 16.369171
v 9.491746 31.065745 17.405827
v 8.762063 30.898965 13.145949
v 12.808227 31.241996 14.635141
v 7.353501 59.536028 16.657441
v 7.698557 59.554366 16.369171
v 7.277582 59.518676 16.214231
v -2.868842 28.103861 4.915273
v -6.828565 28.423809 9.613189
v 2.826145 57.285037 12.051304
v 3.115767 57.261635 11.707689
v -0.836358 27.543480 10.695167
v -6.828565 28.423809 9.613189
v -2.868842 28.103861 4.915273
v 3.264427 57.220648 12.130442
v 3.115767 57.261635 11.707689
v 2.826145 57.285037 12.051304
v -6.828565 28.423809 9.613189
v -4.796081 27.863428 15.393084
v 2.974805 57.244050 12.474057
v 2.826145 57.285037 12.051304
v -0.836358 27.543480 10.695167
v -4.796081 27.863428 15.393084
v -6.828565 28.423809 9.613189
v 3.264427 57.220648 12.130442
v 2.826145 57.285037 12.051304
v 2.974805 57.244050 12.474057
v -4.796081 27.863428 15.393084
v 1.196125 26.983099 16.475061
v 3.413087 57.179660 12.553195
v 2.974805 57.244050 12.474057
v -0.836358 27.543480 10.695167
v 1.196125 26.983099 16.475061
v -4.796081 27.863428 15.393084
v 3.264427 57.220648 12.130442
v 2.974805 57.244050 12.474057
v 3.413087 57.179660 12.553195
v 1.196125 26.983099 16.475061
v 5.155848 26.663150 11.777145
v 3.702709 57.156259 12.209580
v 3.413087 57.179660 12.553195
v -0.836358 27.543480 10.695167
v 5.155848 26.663150 11.777145
v 1.196125 26.983099 16.475061
v 3.264427 57.220648 12.130442
v 3.413087 57.179660 12.553195
v 3.702709 57.156259 12.209580
v 5.155848 26.663150 11.777145
v 3.123365 27.223531 5.997250
v 3.554049 57.197246 11.786827
v 3.702709 57.156259 12.209580
v -0.836358 27.543480 10.695167
v 3.123365 27.223531 5.997250
v 5.155848 26.663150 11.777145
v 3.264427 57.220648 12.130442
v 3.702709 57.156259 12.209580
v 3.554049 57.197246 11.786827
v 3.123365 27.223531 5.997250
v -2.868842 28.103861 4.915273
v 3.115767 57.261635 11.707689
v 3.554049 57.197246 11.786827
v -0.836358 27.543480 10.695167
v -2.868842 28.103861 4.915273
v 3.123365 27.223531 5.997250
v 3.264427 57.220648 12.130442
v 3.554049 57.197246 11.786827
v 3.115767 57.261635 11.707689
v -14.198262 23.690549 -1.930643
v -17.298458 23.818698 3.308652
v -8.305278 56.683347 4.549312
v -8.076168 56.673876 4.162119
v -11.240757 23.203568 3.369721
v -17.298458 23.818698 3.308652
v -14.198262 23.690549 -1.930643
v -7.857603 56.637888 4.553825
v -8.076168 56.673876 4.162119
v -8.305278 56.683347 4.549312
v -17.298458 23.818698 3.308652
v -14.340953 23.331717 8.609016
v -8.086713 56.647358 4.941019
v -8.305278 56.683347 4.549312
v -11.240757 23.203568 3.369721
v -14.340953 23.331717 8.609016
v -17.298458 23.818698 3.308652
v -7.857603 56.637888 4.553825
v -8.305278 56.683347 4.549312
v -8.086713 56.647358 4.941019
v -14.340953 23.331717 8.609016
v -8.283252 22.716587 8.670086
v -7.639038 56.601899 4.945532
v -8.086713 56.647358 4.941019
v -11.240757 23.203568 3.369721
v -8.283252 22.716587 8.670086
v -14.340953 23.331717 8.609016
v -7.857603 56.637888 4.553825
v -8.086713 56.647358 4.941019
v -7.639038 56.601899 4.945532
v -8.283252 22.716587 8.670086
v -5.183057 22.588438 3.430790
v -7.409928 56.592428 4.558339
v -7.639038 56.601899 4.945532
v -11.240757 23.203568 3.369721
v -5.183057 22.588438 3.430790
v -8.283252 22.716587 8.670086
v -7.857603 56.637888 4.553825
v -7.639038 56.601899 4.945532
v -7.409928 56.592428 4.558339
v -5.183057 22.588438 3.430790
v -8.140562 23.075419 -1.869574
v -7.628493 56.628417 4.166632
v -7.409928 56.592428 4.558339
v -11.240757 23.203568 3.369721
v -8.140562 23.075419 -1.869574
v -5.183057 22.588438 3.430790
v -7.857603 56.637888 4.553825
v -7.409928 56.592428 4.558339
v -7.628493 56.628417 4.166632
v -8.140562 23.075419 -1.869574
v -14.198262 23.690549 -1.930643
v -8.076168 56.673876 4.162119
v -7.628493 56.628417 4.166632
v -11.240757 23.203568 3.369721
v -14.198262 23.690549 -1.930643
v -8.140562 23.075419 -1.869574
v -7.857603 56.637888 4.553825
v -7.628493 56.628417 4.166632
v -8.076168 56.673876 4.162119
v -15.874726 27.417642 -12.468281
v -18.074456 27.390308 -6.663561
v -16.570865 53.523033 -9.049316
v -16.411402 53.525014 -9.470111
v -12.021884 28.316502 -7.684769
v -18.074456 27.390308 -6.663561
v -15.874726 27.417642 -12.468281
v -16.132103 53.590174 -9.123345
v -16.411402 53.525014 -9.470111
v -16.570865 53.523033 -9.049316
v -18.074456 27.390308 -6.663561
v -14.221614 28.289167 -1.880049
v -16.291565 53.588193 -8.702551
v -16.570865 53.523033 -9.049316
v -12.021884 28.316502 -7.684769
v -14.221614 28.289167 -1.880049
v -18.074456 27.390308 -6.663561
v -16.132103 53.590174 -9.123345
v -16.570865 53.523033 -9.049316
v -16.291565 53.588193 -8.702551
v -14.221614 28.289167 -1.880049
v -8.169042 29.215361 -2.901257
v -15.852804 53.655334 -8.776580
v -16.291565 53.588193 -8.702551
v -12.021884 28.316502 -7.684769
v -8.169042 29.215361 -2.901257
v -14.221614 28.289167 -1.880049
v -16.132103 53.590174 -9.123345
v -16.291565 53.588193 -8.702551
v -15.852804 53.655334 -8.776580
v -8.169042 29.215361 -2.901257
v -5.969312 29.242695 -8.705976
v -15.693342 53.657316 -9.197375
v -15.852804 53.655334 -8.776580
v -12.021884 28.316502 -7.684769
v -5.969312 29.242695 -8.705976
v -8.169042 29.215361 -2.901257
v -16.132103 53.590174 -9.123345
v -15.852804 53.655334 -8.776580
v -15.693342 53.657316 -9.197375
v -5.969312 29.242695 -8.705976
v -9.822154 28.343836 -13.489488
v -15.972641 53.592156 -9.544140
v -15.693342 53.657316 -9.197375
v -12.021884 28.316502 -7.684769
v -9.822154 28.343836 -13.489488
v -5.969312 29.242695 -8.705976
v -16.132103 53.590174 -9.123345
v -15.693342 53.657316 -9.197375
v -15.972641 53.592156 -9.544140
v -9.822154 28.343836 -13.489488
v -15.874726 27.417642 -12.468281
v -16.411402 53.525014 -9.470111
v -15.972641 53.592156 -9.544140
v -12.021884 28.316502 -7.684769
v -15.874726 27.417642 -12.468281
v -9.822154 28.343836 -13.489488
v -16.132103 53.590174 -9.123345
v -15.972641 53.592156 -9.544140
v -16.411402 53.525014 -9.470111
v -10.598809 29.708380 -18.417086
v -11.434135 29.794899 -14.197756
v -11.703169 59.026370 -16.814253
v -11.615794 59.017320 -17.255596
v -7.395674 30.273363 -15.601288
v -11.434135 29.794899 -14.197756
v -10.598809 29.708380 -18.417086
v -11.280745 59.076417 -16.961063
v -11.615794 59.017320 -17.255596
v -11.703169 59.026370 -16.814253
v -11.434135 29.794899 -14.197756
v -8.231000 30.359883 -11.381958
v -11.368120 59.085467 -16.519720
v -11.703169 59.026370 -16.814253
v -7.395674 30.273363 -15.601288
v -8.231000 30.359883 -11.381958
v -11.434135 29.794899 -14.197756
v -11.280745 59.076417 -16.961063
v -11.703169 59.026370 -16.814253
v -11.368120 59.085467 -16.519720
v -8.231000 30.359883 -11.381958
v -4.192539 30.838347 -12.785490
v -10.945696 59.135514 -16.666530
v -11.368120 59.085467 -16.519720
v -7.395674 30.273363 -15.601288
v -4.192539 30.838347 -12.785490
v -8.231000 30.359883 -11.381958
v -11.280745 59.076417 -16.961063
v -11.368120 59.085467 -16.519720
v -10.945696 59.135514 -16.666530
v -4.192539 30.838347 -12.785490
v -3.357212 30.751827 -17.004819
v -10.858321 59.126464 -17.107873
v -10.945696 59.135514 -16.666530
v -7.395674 30.273363 -15.601288
v -3.357212 30.751827 -17.004819
v -4.192539 30.838347 -12.785490
v -11.280745 59.076417 -16.961063
v -10.945696 59.135514 -16.666530
v -10.858321 59.126464 -17.107873
v -3.357212 30.751827 -17.004819
v -6.560347 30.186844 -19.820618
v -11.193370 59.067367 -17.402406
v -10.858321 59.126464 -17.107873
v -7.395674 30.273363 -15.601288
v -6.560347 30.186844 -19.820618
v -3.357212 30.751827 -17.004819
v -11.280745 59.076417 -16.961063
v -10.858321 59.126464 -17.107873
v -11.193370 59.067367 -17.402406
v -6.560347 30.186844 -19.820618
v -10.598809 29.708380 -18.417086
v -11.615794 59.017320 -17.255596
v -11.193370 59.067367 -17.402406
v -7.395674 30.273363 -15.601288
v -10.598809 29.708380 -18.417086
v -6.560347 30.186844 -19.820618
v -11.280745 59.076417 -16.961063
v -11.193370 59.067367 -17.402406
v -11.615794 59.017320 -17.255596
v 9.072733 27.258188 -19.380486
v 8.944483 26.964311 -14.591268
v 17.435114 51.319751 -15.049236
v 17.447138 51.347303 -15.498230
v 13.091336 26.332074 -16.924358
v 8.944483 26.964311 -14.591268
v 9.072733 27.258188 -19.380486
v 17.823887 51.260478 -15.267965
v 17.447138 51.347303 -15.498230
v 17.435114 51.319751 -15.049236
v 8.944483 26.964311 -14.591268
v 12.963086 26.038197 -12.135141
v 17.811863 51.232927 -14.818971
v 17.435114 51.319751 -15.049236
v 13.091336 26.332074 -16.924358
v 12.963086 26.038197 -12.135141
v 8.944483 26.964311 -14.591268
v 17.823887 51.260478 -15.267965
v 17.435114 51.319751 -15.049236
v 17.811863 51.232927 -14.818971
v 12.963086 26.038197 -12.135141
v 17.109938 25.405959 -14.468231
v 18.200635 51.173654 -15.037701
v 17.811863 51.232927 -14.818971
v 13.091336 26.332074 -16.924358
v 17.109938 25.405959 -14.468231
v 12.963086 26.038197 -12.135141
v 17.823887 51.260478 -15.267965
v 17.811863 51.232927 -14.818971
v 18.200635 51.173654 -15.037701
v 17.109938 25.405959 -14.468231
v 17.238188 25.699836 -19.257448
v 18.212659 51.201205 -15.486695
v 18.200635 51.173654 -15.037701
v 13.091336 26.332074 -16.924358
v 17.238188 25.699836 -19.257448
v 17.109938 25.405959 -14.468231
v 17.823887 51.260478 -15.267965
v 18.200635 51.173654 -15.037701
v 18.212659 51.201205 -15.486695
v 17.238188 25.699836 -19.257448
v 13.219585 26.625950 -21.713576
v 17.835910 51.288030 -15.716960
v 18.212659 51.201205 -15.486695
v 13.091336 26.332074 -16.924358
v 13.219585 26.625950 -21.713576
v 17.238188 25.699836 -19.257448
v 17.823887 51.260478 -15.267965
v 18.212659 51.201205 -15.486695
v 17.835910 51.288030 -15.716960
v 13.219585 26.625950 -21.713576
v 9.072733 27.258188 -19.380486
v 17.447138 51.347303 -15.498230
v 17.835910 51.288030 -15.716960
v 13.091336 26.332074 -16.924358
v 9.072733 27.258188 -19.380486
v 13.219585 26.625950 -21.713576
v 17.823887 51.260478 -15.267965
v 17.835910 51.288030 -15.716960
v 17.447138 51.347303 -15.498230
vt 0.500000 1.000000
vt 0.000000 0.000000
vt 1.000000 0.000000
vt 0.000000 0.000000
vt 1.000000 0.000000
vt 1.000000 1.000000
vt 0.000000 1.000000
vt 0.000000 0.000000
vt 1.000000 0.000000
vt 1.000000 1.000000
vt 0.000000 1.000000
vt 0.500000 1.000000
vt 0.000000 0.000000
vt 1.000000 0.000000
vt 0.500000 1.000000
vt 0.000000 0.000000
vt 1.000000 0.000000
vt 0.000000 0.000000
vt 1.000000 0.000000
vt 1.000000 1.000000
vt 0.000000 1.000000
vt 0.000000 0.000000
vt 1.000000 0.000000
vt 1.000000 1.000000
vt 0.000000 1.000000
vt 0.500000 1.000000
vt 0.000000 0.000000
vt 1.000000 0.000000
vt 0.500000 1.000000
vt 0.000000 0.000000
vt 1.000000 0.000000
vt 0.000000 0.000000
vt 1.000000 0.000000
vt 1.000000 1.000000
vt 0.000000 1.000000
vt 0.000000 0.000000
vt 1.000000 0.000000
vt 1.000000 1.000000
vt 0.000000 1.000000
vt 0.500000 1.000000
vt 0.000000 0.000000
vt 1.000000 0.000000
vt 0.500000 1.000000
vt 0.000000 0.000000
vt 1.000000 0.000000
vt 0.000000 0.000000
vt 1.000000 0.000000
vt 1.000000 1.000000
vt 0.000000 1.000000
vt 0.000000 0.000000
vt 1.000000 0.000000
vt 1.000000 1.000000
vt 0.000000 1.000000
vt 0.500000 1.000000
vt 0.000000 0.000000
vt 1.000000 0.000000
vt 0.500000 1.000000
vt 0.000000 0.000000
vt 1.000000 0.000000
vt 0.000000 0.000000
vt 1.000000 0.000000
vt 1.000000 1.000000
vt 0.000000 1.000000
vt 0.000000 0.000000
vt 1.000000 0.000000
vt 1.000000 1.000000
vt 0.000000 1.000000
vt 0.500000 1.000000
vt 0.000000 0.000000
vt 1.000000 0.000000
vt 0.500000 1.000000
vt 0.000000 0.000000
vt 1.000000 0.000000
vt 0.000000 0.000000
vt 1.000000 0.000000
vt 1.000000 1.000000
vt 0.000000 1.000000
vt 0.000000 0.000000
vt 1.000000 0.000000
vt 1.000000 1.000000
vt 0.000000 1.000000
vt 0.500000 1.000000
vt 0.000000 0.000000
vt 1.000000 0.000000
vt 0.500000 1.000000
vt 0.000000 0.000000
vt 1.000000 0.000000
vt 0.000000 0.000000
vt 1.000000 0.000000
vt 1.000000 1.000000
vt 0.000000 1.000000
vt 0.000000 0.000000
vt 1.000000 0.000000
vt 1.000000 1.000000
vt 0.000000 1.000000
vt 0.500000 1.000000
vt 0.000000 0.000000
vt 1.000000 0.000000
vt 0.500000 1.000000
vt 0.000000 0.000000
vt 1.000000 0.000000
vt 0.000000 0.000000
vt 1.000000 0.000000
vt 1.000000 1.000000
vt 0.000000 1.000000
vt 0.000000 0.000000
vt 1.000000 0.000000
vt 1.000000 1.000000
vt 0.000000 1.000000
vt 0.500000 1.000000
vt 0.000000 0.000000
vt 1.000000 0.000000
vt 0.500000 1.000000
vt 0.000000 0.000000
vt 1.000000 0.000000
vt 0.000000 0.000000
vt 1.000000 0.000000
vt 1.000000 1.000000
vt 0.000000 1.000000
vt 0.000000 0.000000
vt 1.000000 0.000000
vt 1.000000 1.000000
vt 0.000000 1.000000
vt 0.500000 1.000000
vt 0.000000 0.000000
vt 1.000000 0.000000
vt 0.500000 1.000000
vt 0.000000 0.000000
vt 1.000000 0.000000
vt 0.000000 0.000000
vt 1.000000 0.000000
vt 1.000000 1.000000
vt 0.000000 1.000000
vt 0.000000 0.000000
vt 1.000000 0.000000
vt 1.000000 1.000000
vt 0.000000 1.000000
vt 0.500000 1.000000
vt 0.000000 0.000000
vt 1.000000 0.000000
vt 0.000000 0.000000
vt 1.000000 0.000000
vt 1.000000 1.000000
vt 0.000000 1.000000
vt 0.500000 1.000000
vt 0.000000 0.000000
vt 1.000000 0.000000
vt 0.500000 1.000000
vt 0.000000 0.000000
vt 1.000000 0.000000
vt 0.000000 0.000000
vt 1.000000 0.000000
vt 1.000000 1.000000
vt 0.000000 1.000000
vt 0.500000 1.000000
vt 0.000000 0.000000
vt 1.000000 0.000000
vt 0.500000 1.000000
vt 0.000000 0.000000
vt 1.000000 0.000000
vt 0.000000 0.000000
vt 1.000000 0.000000
vt 1.000000 1.000000
vt 0.000000 1.000000
vt 0.500000 1.000000
vt 0.000000 0.000000
vt 1.000000 0.000000
vt 0.500000 1.000000
vt 0.000000 0.000000
vt 1.000000 0.000000
vt 0.000000 0.000000
vt 1.000000 0.000000
vt 1.000000 1.000000
vt 0.000000 1.000000
vt 0.500000 1.000000
vt 0.000000 0.000000
vt 1.000000 0.000000
vt 0.500000 1.000000
vt 0.000000 0.000000
vt 1.000000 0.000000
vt 0.000000 0.000000
vt 1.000000 0.000000
vt 1.000000 1.000000
vt 0.000000 1.000000
vt 0.500000 1.000000
vt 0.000000 0.000000
vt 1.000000 0.000000
vt 0.500000 1.000000
vt 0.000000 0.000000
vt 1.000000 0.000000
vt 0.000000 0.000000
vt 1.000000 0.000000
vt 1.000000 1.000000
vt 0.000000 1.000000
vt 0.500000 1.000000
vt 0.000000 0.000000
vt 1.000000 0.000000
vt 0.500000 1.000000
vt 0.000000 0.000000
vt 1.000000 0.000000
vt 0.000000 0.000000
vt 1.000000 0.000000
vt 1.000000 1.000000
vt 0.000000 1.000000
vt 0.500000 1.000000
vt 0.000000 0.000000
vt 1.000000 0.000000
vt 0.500000 1.000000
vt 0.000000 0.000000
vt 1.000000 0.000000
vt 0.000000 0.000000
vt 1.000000 0.000000
vt 1.000000 1.000000
vt 0.000000 1.000000
vt 0.500000 1.000000
vt 0.000000 0.000000
vt 1.000000 0.000000
vt 0.500000 1.000000
vt 0.000000 0.000000
vt 1.000000 0.000000
vt 0.000000 0.000000
vt 1.000000 0.000000
vt 1.000000 1.000000
vt 0.000000 1.000000
vt 0.500000 1.000000
vt 0.000000 0.000000
vt 1.000000 0.000000
vt 0.500000 1.000000
vt 0.000000 0.000000
vt 1.000000 0.000000
vt 0.000000 0.000000
vt 1.000000 0.000000
vt 1.000000 1.000000
vt 0.000000 1.000000
vt 0.500000 1.000000
vt 0.000000 0.000000
vt 1.000000 0.000000
vt 0.500000 1.000000
vt 0.000000 0.000000
vt 1.000000 0.000000
vt 0.000000 0.000000
vt 1.000000 0.000000
vt 1.000000 1.000000
vt 0.000000 1.000000
vt 0.500000 1.000000
vt 0.000000 0.000000
vt 1.000000 0.000000
vt 0.500000 1.000000
vt 0.000000 0.000000
vt 1.000000 0.000000
vt 0.000000 0.000000
vt 1.000000 0.000000
vt 1.000000 1.000000
vt 0.000000 1.000000
vt 0.500000 1.000000
vt 0.000000 0.000000
vt 1.000000 0.000000
vt 0.500000 1.000000
vt 0.000000 0.000000
vt 1.000000 0.000000
vt 0.000000 0.000000
vt 1.000000 0.000000
vt 1.000000 1.000000
vt 0.000000 1.000000
vt 0.500000 1.000000
vt 0.000000 0.000000
vt 1.000000 0.000000
vt 0.500000 1.000000
vt 0.000000 0.000000
vt 1.000000 0.000000
vt 0.000000 0.000000
vt 1.000000 0.000000
vt 1.000000 1.000000
vt 0.000000 1.000000
vt 0.500000 1.000000
vt 0.000000 0.000000
vt 1.000000 0.000000
vt 0.500000 1.000000
vt 0.000000 0.000000
vt 1.000000 0.000000
vt 0.000000 0.000000
vt 1.000000 0.000000
vt 1.000000 1.000000
vt 0.000000 1.000000
vt 0.500000 1.000000
vt 0.000000 0.000000
vt 1.000000 0.000000
vt 0.500000 1.000000
vt 0.000000 0.000000
vt 1.000000 0.000000
vt 0.000000 0.000000
vt 1.000000 0.000000
vt 1.000000 1.000000
vt 0.000000 1.000000
vt 0.500000 1.000000
vt 0.000000 0.000000
vt 1.000000 0.000000
vt 0.500000 1.000000
vt 0.000000 0.000000
vt 1.000000 0.000000
vt 0.000000 0.000000
vt 1.000000 0.000000
vt 1.000000 1.000000
vt 0.000000 1.000000
vt 0.500000 1.000000
vt 0.000000 0.000000
vt 1.000000 0.000000
vt 0.500000 1.000000
vt 0.000000 0.000000
vt 1.000000 0.000000
vt 0.000000 0.000000
vt 1.000000 0.000000
vt 1.000000 1.000000
vt 0.000000 1.000000
vt 0.500000 1.000000
vt 0.000000 0.000000
vt 1.000000 0.000000
vt 0.500000 1.000000
vt 0.000000 0.000000
vt 1.000000 0.000000
vt 0.000000 0.000000
vt 1.000000 0.000000
vt 1.000000 1.000000
vt 0.000000 1.000000
vt 0.500000 1.000000
vt 0.000000 0.000000
vt 1.000000 0.000000
vt 0.500000 1.000000
vt 0.000000 0.000000
vt 1.000000 0.000000
vt 0.000000 0.000000
vt 1.000000 0.000000
vt 1.000000 1.000000
vt 0.000000 1.000000
vt 0.500000 1.000000
vt 0.000000 0.000000
vt 1.000000 0.000000
vt 0.500000 1.000000
vt 0.000000 0.000000
vt 1.000000 0.000000
vt 0.000000 0.000000
vt 1.000000 0.000000
vt 1.000000 1.000000
vt 0.000000 1.000000
vt 0.500000 1.000000
vt 0.000000 0.000000
vt 1.000000 0.000000
vt 0.500000 1.000000
vt 0.000000 0.000000
vt 1.000000 0.000000
vt 0.000000 0.000000
vt 1.000000 0.000000
vt 1.000000 1.000000
vt 0.000000 1.000000
vt 0.500000 1.000000
vt 0.000000 0.000000
vt 1.000000 0.000000
vt 0.500000 1.000000
vt 0.000000 0.000000
vt 1.000000 0.000000
vt 0.000000 0.000000
vt 1.000000 0.000000
vt 1.000000 1.000000
vt 0.000000 1.000000
vt 0.500000 1.000000
vt 0.000000 0.000000
vt 1.000000 0.000000
vt 0.500000 1.000000
vt 0.000000 0.000000
vt 1.000000 0.000000
vt 0.000000 0.000000
vt 1.000000 0.000000
vt 1.000000 1.000000
vt 0.000000 1.000000
vt 0.500000 1.000000
vt 0.000000 0.000000
vt 1.000000 0.000000
vt 0.500000 1.000000
vt 0.000000 0.000000
vt 1.000000 0.000000
vt 0.000000 0.000000
vt 1.000000 0.000000
vt 1.000000 1.000000
vt 0.000000 1.000000
vt 0.500000 1.000000
vt 0.000000 0.000000
vt 1.000000 0.000000
vt 0.500000 1.000000
vt 0.000000 0.000000
vt 1.000000 0.000000
vt 0.000000 0.000000
vt 1.000000 0.000000
vt 1.000000 1.000000
vt 0.000000 1.000000
vt 0.500000 1.000000
vt 0.000000 0.000000
vt 1.000000 0.000000
vt 0.500000 1.000000
vt 0.000000 0.000000
vt 1.000000 0.000000
vt 0.000000 0.000000
vt 1.000000 0.000000
vt 1.000000 1.000000
vt 0.000000 1.000000
vt 0.500000 1.000000
vt 0.000000 0.000000
vt 1.000000 0.000000
vt 0.500000 1.000000
vt 0.000000 0.000000
vt 1.000000 0.000000
vt 0.000000 0.000000
vt 1.000000 0.000000
vt 1.000000 1.000000
vt 0.000000 1.000000
vt 0.500000 1.000000
vt 0.000000 0.000000
vt 1.000000 0.000000
vt 0.500000 1.000000
vt 0.000000 0.000000
vt 1.000000 0.000000
vt 0.000000 0.000000
vt 1.000000 0.000000
vt 1.000000 1.000000
vt 0.000000 1.000000
vt 0.500000 1.000000
vt 0.000000 0.000000
vt 1.000000 0.000000
vt 0.500000 1.000000
vt 0.000000 0.000000
vt 1.000000 0.000000
vt 0.000000 0.000000
vt 1.000000 0.000000
vt 1.000000 1.000000
vt 0.000000 1.000000
vt 0.500000 1.000000
vt 0.000000 0.000000
vt 1.000000 0.000000
vt 0.500000 1.000000
vt 0.000000 0.000000
vt 1.000000 0.000000
vt 0.000000 0.000000
vt 1.000000 0.000000
vt 1.000000 1.000000
vt 0.000000 1.000000
vt 0.500000 1.000000
vt 0.000000 0.000000
vt 1.000000 0.000000
vt 0.500000 1.000000
vt 0.000000 0.000000
vt 1.000000 0.000000
vt 0.000000 0.000000
vt 1.000000 0.000000
vt 1.000000 1.000000
vt 0.000000 1.000000
vt 0.500000 1.000000
vt 0.000000 0.000000
vt 1.000000 0.000000
vt 0.500000 1.000000
vt 0.000000 0.000000
vt 1.000000 0.000000
vt 0.000000 0.000000
vt 1.000000 0.000000
vt 1.000000 1.000000
vt 0.000000 1.000000
vt 0.500000 1.000000
vt 0.000000 0.000000
vt 1.000000 0.000000
vt 0.500000 1.000000
vt 0.000000 0.000000
vt 1.000000 0.000000
vt 0.000000 0.000000
vt 1.000000 0.000000
vt 1.000000 1.000000
vt 0.000000 1.000000
vt 0.500000 1.000000
vt 0.000000 0.000000
vt 1.000000 0.000000
vt 0.500000 1.000000
vt 0.000000 0.000000
vt 1.000000 0.000000
vt 0.000000 0.000000
vt 1.000000 0.000000
vt 1.000000 1.000000
vt 0.000000 1.000000
vt 0.500000 1.000000
vt 0.000000 0.000000
vt 1.000000 0.000000
vt 0.500000 1.000000
vt 0.000000 0.000000
vt 1.000000 0.000000
vt 0.000000 0.000000
vt 1.000000 0.000000
vt 1.000000 1.000000
vt 0.000000 1.000000
vt 0.500000 1.000000
vt 0.000000 0.000000
vt 1.000000 0.000000
vt 0.500000 1.000000
vt 0.000000 0.000000
vt 1.000000 0.000000
vt 0.000000 0.000000
vt 1.000000 0.000000
vt 1.000000 1.000000
vt 0.000000 1.000000
vt 0.500000 1.000000
vt 0.000000 0.000000
vt 1.000000 0.000000
vt 0.500000 1.000000
vt 0.000000 0.000000
vt 1.000000 0.000000
vt 0.000000 0.000000
vt 1.000000 0.000000
vt 1.000000 1.000000
vt 0.000000 1.000000
vt 0.500000 1.000000
vt 0.000000 0.000000
vt 1.000000 0.000000
vt 0.500000 1.000000
vt 0.000000 0.000000
vt 1.000000 0.000000
vt 0.000000 0.000000
vt 1.000000 0.000000
vt 1.000000 1.000000
vt 0.000000 1.000000
vt 0.500000 1.000000
vt 0.000000 0.000000
vt 1.000000 0.000000
vt 0.500000 1.000000
vt 0.000000 0.000000
vt 1.000000 0.000000
vt 0.000000 0.000000
vt 1.000000 0.000000
vt 1.000000 1.000000
vt 0.000000 1.000000
vt 0.500000 1.000000
vt 0.000000 0.000000
vt 1.000000 0.000000
vt 0.500000 1.000000
vt 0.000000 0.000000
vt 1.000000 0.000000
vt 0.000000 0.000000
vt 1.000000 0.000000
vt 1.000000 1.000000
vt 0.000000 1.000000
vt 0.500000 1.000000
vt 0.000000 0.000000
vt 1.000000 0.000000
vt 0.500000 1.000000
vt 0.000000 0.000000
vt 1.000000 0.000000
vt 0.000000 0.000000
vt 1.000000 0.000000
vt 1.000000 1.000000
vt 0.000000 1.000000
vt 0.500000 1.000000
vt 0.000000 0.000000
vt 1.000000 0.000000
vt 0.500000 1.000000
vt 0.000000 0.000000
vt 1.000000 0.000000
s 1
usemtl models/caelum/world/environment/rock_granite.png
f 1/1 2/2 3/3
f 4/4 5/5 6/6 7/7
f 8/8 9/9 10/10 11/11
f 12/12 13/13 14/14
f 15/15 16/16 17/17
f 18/18 19/19 20/20 21/21
f 22/22 23/23 24/24 25/25
f 26/26 27/27 28/28
f 29/29 30/30 31/31
f 32/32 33/33 34/34 35/35
f 36/36 37/37 38/38 39/39
f 40/40 41/41 42/42
f 43/43 44/44 45/45
f 46/46 47/47 48/48 49/49
f 50/50 51/51 52/52 53/53
f 54/54 55/55 56/56
f 57/57 58/58 59/59
f 60/60 61/61 62/62 63/63
f 64/64 65/65 66/66 67/67
f 68/68 69/69 70/70
f 71/71 72/72 73/73
f 74/74 75/75 76/76 77/77
f 78/78 79/79 80/80 81/81
f 82/82 83/83 84/84
f 85/85 86/86 87/87
f 88/88 89/89 90/90 91/91
f 92/92 93/93 94/94 95/95
f 96/96 97/97 98/98
f 99/99 100/100 101/101
f 102/102 103/103 104/104 105/105
f 106/106 107/107 108/108 109/109
f 110/110 111/111 112/112
f 113/113 114/114 115/115
f 116/116 117/117 118/118 119/119
f 120/120 121/121 122/122 123/123
f 124/124 125/125 126/126
f 127/127 128/128 129/129
f 130/130 131/131 132/132 133/133
f 134/134 135/135 136/136 137/137
f 138/138 139/139 140/140
usemtl models/caelum/world/resources/ca_vein_opal.png
f 141/141 142/142 143/143 144/144
f 145/145 146/146 147/147
f 148/148 149/149 150/150
f 151/151 152/152 153/153 154/154
f 155/155 156/156 157/157
f 158/158 159/159 160/160
f 161/161 162/162 163/163 164/164
f 165/165 166/166 167/167
f 168/168 169/169 170/170
f 171/171 172/172 173/173 174/174
f 175/175 176/176 177/177
f 178/178 179/179 180/180
f 181/181 182/182 183/183 184/184
f 185/185 186/186 187/187
f 188/188 189/189 190/190
f 191/191 192/192 193/193 194/194
f 195/195 196/196 197/197
f 198/198 199/199 200/200
f 201/201 202/202 203/203 204/204
f 205/205 206/206 207/207
f 208/208 209/209 210/210
f 211/211 212/212 213/213 214/214
f 215/215 216/216 217/217
f 218/218 219/219 220/220
f 221/221 222/222 223/223 224/224
f 225/225 226/226 227/227
f 228/228 229/229 230/230
f 231/231 232/232 233/233 234/234
f 235/235 236/236 237/237
f 238/238 239/239 240/240
f 241/241 242/242 243/243 244/244
f 245/245 246/246 247/247
f 248/248 249/249 250/250
f 251/251 252/252 253/253 254/254
f 255/255 256/256 257/257
f 258/258 259/259 260/260
f 261/261 262/262 263/263 264/264
f 265/265 266/266 267/267
f 268/268 269/269 270/270
f 271/271 272/272 273/273 274/274
f 275/275 276/276 277/277
f 278/278 279/279 280/280
f 281/281 282/282 283/283 284/284
f 285/285 286/286 287/287
f 288/288 289/289 290/290
f 291/291 292/292 293/293 294/294
f 295/295 296/296 297/297
f 298/298 299/299 300/300
f 301/301 302/302 303/303 304/304
f 305/305 306/306 307/307
f 308/308 309/309 310/310
f 311/311 312/312 313/313 314/314
f 315/315 316/316 317/317
f 318/318 319/319 320/320
f 321/321 322/322 323/323 324/324
f 325/325 326/326 327/327
f 328/328 329/329 330/330
f 331/331 332/332 333/333 334/334
f 335/335 336/336 337/337
f 338/338 339/339 340/340
f 341/341 342/342 343/343 344/344
f 345/345 346/346 347/347
f 348/348 349/349 350/350
f 351/351 352/352 353/353 354/354
f 355/355 356/356 357/357
f 358/358 359/359 360/360
f 361/361 362/362 363/363 364/364
f 365/365 366/366 367/367
f 368/368 369/369 370/370
f 371/371 372/372 373/373 374/374
f 375/375 376/376 377/377
f 378/378 379/379 380/380
f 381/381 382/382 383/383 384/384
f 385/385 386/386 387/387
f 388/388 389/389 390/390
f 391/391 392/392 393/393 394/394
f 395/395 396/396 397/397
f 398/398 399/399 400/400
f 401/401 402/402 403/403 404/404
f 405/405 406/406 407/407
f 408/408 409/409 410/410
f 411/411 412/412 413/413 414/414
f 415/415 416/416 417/417
f 418/418 419/419 420/420
f 421/421 422/422 423/423 424/424
f 425/425 426/426 427/427
f 428/428 429/429 430/430
f 431/431 432/432 433/433 434/434
f 435/435 436/436 437/437
f 438/438 439/439 440/440
f 441/441 442/442 443/443 444/444
f 445/445 446/446 447/447
f 448/448 449/449 450/450
f 451/451 452/452 453/453 454/454
f 455/455 456/456 457/457
f 458/458 459/459 460/460
f 461/461 462/462 463/463 464/464
f 465/465 466/466 467/467
f 468/468 469/469 470/470
f 471/471 472/472 473/473 474/474
f 475/475 476/476 477/477
f 478/478 479/479 480/480
f 481/481 482/482 483/483 484/484
f 485/485 486/486 487/487
f 488/488 489/489 490/490
f 491/491 492/492 493/493 494/494
f 495/495 496/496 497/497
f 498/498 499/499 500/500
f 501/501 502/502 503/503 504/504
f 505/505 506/506 507/507
f 508/508 509/509 510/510
f 511/511 512/512 513/513 514/514
f 515/515 516/516 517/517
f 518/518 519/519 520/520
f 521/521 522/522 523/523 524/524
f 525/525 526/526 527/527
f 528/528 529/529 530/530
f 531/531 532/532 533/533 534/534
f 535/535 536/536 537/537
f 538/538 539/539 540/540
f 541/541 542/542 543/543 544/544
f 545/545 546/546 547/547
f 548/548 549/549 550/550
f 551/551 552/552 553/553 554/554
f 555/555 556/556 557/557
f 558/558 559/559 560/560
