# Modelo original generado para Caelum Argenteum.
# Ejes OBJ: X ancho, Y altura, Z profundidad.
o ca_vein_tin
v 0.000000 0.000000 0.000000
v 38.753940 0.639838 0.000000
v 32.494632 0.709209 20.389359
v 38.753940 0.639838 0.000000
v 44.478745 15.967465 0.000000
v 39.704635 15.826231 24.913409
v 32.494632 0.709209 20.389359
v 44.478745 15.967465 0.000000
v 33.424018 34.702498 0.000000
v 29.279963 35.224231 18.372256
v 39.704635 15.826231 24.913409
v -10.232725 52.000000 -4.227780
v 29.279963 35.224231 18.372256
v 33.424018 34.702498 0.000000
v 0.000000 0.000000 0.000000
v 32.494632 0.709209 20.389359
v 11.127026 1.052065 29.575628
v 32.494632 0.709209 20.389359
v 39.704635 15.826231 24.913409
v 15.847878 15.251394 42.123649
v 11.127026 1.052065 29.575628
v 39.704635 15.826231 24.913409
v 29.279963 35.224231 18.372256
v 9.407327 34.724671 25.004669
v 15.847878 15.251394 42.123649
v -10.232725 52.000000 -4.227780
v 9.407327 34.724671 25.004669
v 29.279963 35.224231 18.372256
v 0.000000 0.000000 0.000000
v 11.127026 1.052065 29.575628
v -11.393991 -1.487950 30.285220
v 11.127026 1.052065 29.575628
v 15.847878 15.251394 42.123649
v -11.351897 16.495914 30.173336
v -11.393991 -1.487950 30.285220
v 15.847878 15.251394 42.123649
v 9.407327 34.724671 25.004669
v -9.621201 34.339338 25.573146
v -11.351897 16.495914 30.173336
v -10.232725 52.000000 -4.227780
v -9.621201 34.339338 25.573146
v 9.407327 34.724671 25.004669
v 0.000000 0.000000 0.000000
v -11.393991 -1.487950 30.285220
v -26.376784 1.008646 16.550602
v -11.393991 -1.487950 30.285220
v -11.351897 16.495914 30.173336
v -38.615118 15.368796 24.229772
v -26.376784 1.008646 16.550602
v -11.351897 16.495914 30.173336
v -9.621201 34.339338 25.573146
v -27.931352 35.470261 17.526045
v -38.615118 15.368796 24.229772
v -10.232725 52.000000 -4.227780
v -27.931352 35.470261 17.526045
v -9.621201 34.339338 25.573146
v 0.000000 0.000000 0.000000
v -26.376784 1.008646 16.550602
v -40.243549 -0.361353 0.000000
v -26.376784 1.008646 16.550602
v -38.615118 15.368796 24.229772
v -40.505007 15.723188 0.000000
v -40.243549 -0.361353 0.000000
v -38.615118 15.368796 24.229772
v -27.931352 35.470261 17.526045
v -36.383411 34.771865 0.000000
v -40.505007 15.723188 0.000000
v -10.232725 52.000000 -4.227780
v -36.383411 34.771865 0.000000
v -27.931352 35.470261 17.526045
v 0.000000 0.000000 0.000000
v -40.243549 -0.361353 0.000000
v -25.982306 -0.826574 -16.303079
v -40.243549 -0.361353 0.000000
v -40.505007 15.723188 0.000000
v -33.730981 15.430779 -21.165130
v -25.982306 -0.826574 -16.303079
v -40.505007 15.723188 0.000000
v -36.383411 34.771865 0.000000
v -27.824210 34.912315 -17.458817
v -33.730981 15.430779 -21.165130
v -10.232725 52.000000 -4.227780
v -27.824210 34.912315 -17.458817
v -36.383411 34.771865 0.000000
v 0.000000 0.000000 0.000000
v -25.982306 -0.826574 -16.303079
v -9.380899 -0.111263 -24.934424
v -25.982306 -0.826574 -16.303079
v -33.730981 15.430779 -21.165130
v -15.202257 17.378786 -40.407589
v -9.380899 -0.111263 -24.934424
v -33.730981 15.430779 -21.165130
v -27.824210 34.912315 -17.458817
v -9.524439 36.623400 -25.315954
v -15.202257 17.378786 -40.407589
v -10.232725 52.000000 -4.227780
v -9.524439 36.623400 -25.315954
v -27.824210 34.912315 -17.458817
v 0.000000 0.000000 0.000000
v -9.380899 -0.111263 -24.934424
v 11.765256 0.417127 -31.272044
v -9.380899 -0.111263 -24.934424
v -15.202257 17.378786 -40.407589
v 13.563536 17.358331 -36.051870
v 11.765256 0.417127 -31.272044
v -15.202257 17.378786 -40.407589
v -9.524439 36.623400 -25.315954
v 10.060627 36.943404 -26.741140
v 13.563536 17.358331 -36.051870
v -10.232725 52.000000 -4.227780
v 10.060627 36.943404 -26.741140
v -9.524439 36.623400 -25.315954
v 0.000000 0.000000 0.000000
v 11.765256 0.417127 -31.272044
v 27.662855 -1.791276 -17.357572
v 11.765256 0.417127 -31.272044
v 13.563536 17.358331 -36.051870
v 36.616941 17.053234 -22.975979
v 27.662855 -1.791276 -17.357572
v 13.563536 17.358331 -36.051870
v 10.060627 36.943404 -26.741140
v 28.057377 34.797075 -17.605121
v 36.616941 17.053234 -22.975979
v -10.232725 52.000000 -4.227780
v 28.057377 34.797075 -17.605121
v 10.060627 36.943404 -26.741140
v 0.000000 0.000000 0.000000
v 27.662855 -1.791276 -17.357572
v 38.753940 0.639838 0.000000
v 27.662855 -1.791276 -17.357572
v 36.616941 17.053234 -22.975979
v 44.478745 15.967465 0.000000
v 38.753940 0.639838 0.000000
v 36.616941 17.053234 -22.975979
v 28.057377 34.797075 -17.605121
v 33.424018 34.702498 0.000000
v 44.478745 15.967465 0.000000
v -10.232725 52.000000 -4.227780
v 33.424018 34.702498 0.000000
v 28.057377 34.797075 -17.605121
v 37.092961 27.291069 1.441447
v 42.297812 30.065436 8.330846
v 43.800116 29.720563 1.441447
v 43.800116 29.720563 1.441447
v 42.297812 30.065436 8.330846
v 41.414517 34.415576 7.161673
v 44.783116 34.225012 1.441447
v 37.092961 36.718565 1.441447
v 44.783116 34.225012 1.441447
v 41.414517 34.415576 7.161673
v 37.092961 27.291069 1.441447
v 35.412585 30.051659 9.212810
v 42.297812 30.065436 8.330846
v 42.297812 30.065436 8.330846
v 35.412585 30.051659 9.212810
v 35.540861 34.535732 8.619562
v 41.414517 34.415576 7.161673
v 37.092961 36.718565 1.441447
v 41.414517 34.415576 7.161673
v 35.540861 34.535732 8.619562
v 37.092961 27.291069 1.441447
v 29.391105 29.857594 5.356595
v 35.412585 30.051659 9.212810
v 35.412585 30.051659 9.212810
v 29.391105 29.857594 5.356595
v 29.541662 34.470896 5.280061
v 35.540861 34.535732 8.619562
v 37.092961 36.718565 1.441447
v 35.540861 34.535732 8.619562
v 29.541662 34.470896 5.280061
v 37.092961 27.291069 1.441447
v 31.197721 29.649834 -1.555329
v 29.391105 29.857594 5.356595
v 29.391105 29.857594 5.356595
v 31.197721 29.649834 -1.555329
v 30.247360 34.664027 -2.038434
v 29.541662 34.470896 5.280061
v 37.092961 36.718565 1.441447
v 29.541662 34.470896 5.280061
v 30.247360 34.664027 -2.038434
v 37.092961 27.291069 1.441447
v 35.321098 29.287993 -6.753023
v 31.197721 29.649834 -1.555329
v 31.197721 29.649834 -1.555329
v 35.321098 29.287993 -6.753023
v 35.344527 34.332842 -6.644670
v 30.247360 34.664027 -2.038434
v 37.092961 36.718565 1.441447
v 30.247360 34.664027 -2.038434
v 35.344527 34.332842 -6.644670
v 37.092961 27.291069 1.441447
v 40.880787 29.723703 -3.572308
v 35.321098 29.287993 -6.753023
v 35.321098 29.287993 -6.753023
v 40.880787 29.723703 -3.572308
v 40.956701 34.303102 -3.672792
v 35.344527 34.332842 -6.644670
v 37.092961 36.718565 1.441447
v 35.344527 34.332842 -6.644670
v 40.956701 34.303102 -3.672792
v 37.092961 27.291069 1.441447
v 43.800116 29.720563 1.441447
v 40.880787 29.723703 -3.572308
v 40.880787 29.723703 -3.572308
v 43.800116 29.720563 1.441447
v 44.783116 34.225012 1.441447
v 40.956701 34.303102 -3.672792
v 37.092961 36.718565 1.441447
v 40.956701 34.303102 -3.672792
v 44.783116 34.225012 1.441447
v 21.774896 10.672577 14.546290
v 26.713181 13.854688 19.427208
v 30.601305 13.140326 14.546290
v 30.601305 13.140326 14.546290
v 26.713181 13.854688 19.427208
v 26.980787 19.742599 19.691706
v 30.598985 19.322505 14.546290
v 21.774896 22.646812 14.546290
v 30.598985 19.322505 14.546290
v 26.980787 19.742599 19.691706
v 21.774896 10.672577 14.546290
v 19.797256 13.458030 21.375814
v 26.713181 13.854688 19.427208
v 26.713181 13.854688 19.427208
v 19.797256 13.458030 21.375814
v 19.811201 19.344055 21.327656
v 26.980787 19.742599 19.691706
v 21.774896 22.646812 14.546290
v 26.980787 19.742599 19.691706
v 19.811201 19.344055 21.327656
v 21.774896 10.672577 14.546290
v 15.925967 14.074864 16.766436
v 19.797256 13.458030 21.375814
v 19.797256 13.458030 21.375814
v 15.925967 14.074864 16.766436
v 13.894358 19.299682 17.537597
v 19.811201 19.344055 21.327656
v 21.774896 22.646812 14.546290
v 19.811201 19.344055 21.327656
v 13.894358 19.299682 17.537597
v 21.774896 10.672577 14.546290
v 15.536855 13.514855 12.178444
v 15.925967 14.074864 16.766436
v 15.925967 14.074864 16.766436
v 15.536855 13.514855 12.178444
v 15.250149 19.217023 12.069616
v 13.894358 19.299682 17.537597
v 21.774896 22.646812 14.546290
v 13.894358 19.299682 17.537597
v 15.250149 19.217023 12.069616
v 21.774896 10.672577 14.546290
v 20.308097 13.723846 9.480891
v 15.536855 13.514855 12.178444
v 15.536855 13.514855 12.178444
v 20.308097 13.723846 9.480891
v 20.010651 19.546407 8.453699
v 15.250149 19.217023 12.069616
v 21.774896 22.646812 14.546290
v 15.250149 19.217023 12.069616
v 20.010651 19.546407 8.453699
v 21.774896 10.672577 14.546290
v 27.374399 13.515244 9.011835
v 20.308097 13.723846 9.480891
v 20.308097 13.723846 9.480891
v 27.374399 13.515244 9.011835
v 26.008310 19.576429 10.362055
v 20.010651 19.546407 8.453699
v 21.774896 22.646812 14.546290
v 20.010651 19.546407 8.453699
v 26.008310 19.576429 10.362055
v 21.774896 10.672577 14.546290
v 30.601305 13.140326 14.546290
v 27.374399 13.515244 9.011835
v 27.374399 13.515244 9.011835
v 30.601305 13.140326 14.546290
v 30.598985 19.322505 14.546290
v 26.008310 19.576429 10.362055
v 21.774896 22.646812 14.546290
v 26.008310 19.576429 10.362055
v 30.598985 19.322505 14.546290
v 9.354938 6.766868 23.722514
v 12.697731 9.810841 28.328335
v 15.760500 9.906097 23.722514
v 15.760500 9.906097 23.722514
v 12.697731 9.810841 28.328335
v 12.895712 14.339847 28.601121
v 15.948668 15.117570 23.722514
v 9.354938 17.436162 23.722514
v 15.948668 15.117570 23.722514
v 12.895712 14.339847 28.601121
v 9.354938 6.766868 23.722514
v 8.032676 9.743005 30.088018
v 12.697731 9.810841 28.328335
v 12.697731 9.810841 28.328335
v 8.032676 9.743005 30.088018
v 7.799236 14.391870 31.211824
v 12.895712 14.339847 28.601121
v 9.354938 17.436162 23.722514
v 12.895712 14.339847 28.601121
v 7.799236 14.391870 31.211824
v 9.354938 6.766868 23.722514
v 4.264125 9.542677 26.416309
v 8.032676 9.743005 30.088018
v 8.032676 9.743005 30.088018
v 4.264125 9.542677 26.416309
v 3.510347 14.779151 26.815169
v 7.799236 14.391870 31.211824
v 9.354938 17.436162 23.722514
v 7.799236 14.391870 31.211824
v 3.510347 14.779151 26.815169
v 9.354938 6.766868 23.722514
v 3.314980 9.066128 20.526480
v 4.264125 9.542677 26.416309
v 4.264125 9.542677 26.416309
v 3.314980 9.066128 20.526480
v 4.602144 14.292223 21.207581
v 3.510347 14.779151 26.815169
v 9.354938 17.436162 23.722514
v 3.510347 14.779151 26.815169
v 4.602144 14.292223 21.207581
v 9.354938 6.766868 23.722514
v 7.901621 9.375840 16.726098
v 3.314980 9.066128 20.526480
v 3.314980 9.066128 20.526480
v 7.901621 9.375840 16.726098
v 8.004574 14.405590 17.221722
v 4.602144 14.292223 21.207581
v 9.354938 17.436162 23.722514
v 4.602144 14.292223 21.207581
v 8.004574 14.405590 17.221722
v 9.354938 6.766868 23.722514
v 12.629424 9.426254 19.210809
v 7.901621 9.375840 16.726098
v 7.901621 9.375840 16.726098
v 12.629424 9.426254 19.210809
v 13.163481 14.893997 18.474965
v 8.004574 14.405590 17.221722
v 9.354938 17.436162 23.722514
v 8.004574 14.405590 17.221722
v 13.163481 14.893997 18.474965
v 9.354938 6.766868 23.722514
v 15.760500 9.906097 23.722514
v 12.629424 9.426254 19.210809
v 12.629424 9.426254 19.210809
v 15.760500 9.906097 23.722514
v 15.948668 15.117570 23.722514
v 13.163481 14.893997 18.474965
v 9.354938 17.436162 23.722514
v 13.163481 14.893997 18.474965
v 15.948668 15.117570 23.722514
v -11.764745 20.033814 19.546812
v -8.762465 22.702334 23.200489
v -5.716764 22.650232 19.546812
v -5.716764 22.650232 19.546812
v -8.762465 22.702334 23.200489
v -7.730311 29.414735 24.456587
v -6.954530 29.217877 19.546812
v -11.764745 32.598272 19.546812
v -6.954530 29.217877 19.546812
v -7.730311 29.414735 24.456587
v -11.764745 20.033814 19.546812
v -13.071566 23.040360 25.103456
v -8.762465 22.702334 23.200489
v -8.762465 22.702334 23.200489
v -13.071566 23.040360 25.103456
v -13.023298 29.227465 24.898219
v -7.730311 29.414735 24.456587
v -11.764745 32.598272 19.546812
v -7.730311 29.414735 24.456587
v -13.023298 29.227465 24.898219
v -11.764745 20.033814 19.546812
v -16.346145 22.772795 21.688010
v -13.071566 23.040360 25.103456
v -13.071566 23.040360 25.103456
v -16.346145 22.772795 21.688010
v -16.225435 29.899009 21.631594
v -13.023298 29.227465 24.898219
v -11.764745 32.598272 19.546812
v -13.023298 29.227465 24.898219
v -16.225435 29.899009 21.631594
v -11.764745 20.033814 19.546812
v -17.689482 23.591067 16.777781
v -16.346145 22.772795 21.688010
v -16.346145 22.772795 21.688010
v -17.689482 23.591067 16.777781
v -17.347309 29.125941 16.937701
v -16.225435 29.899009 21.631594
v -11.764745 32.598272 19.546812
v -16.225435 29.899009 21.631594
v -17.347309 29.125941 16.937701
v -11.764745 20.033814 19.546812
v -12.960845 23.407207 14.460956
v -17.689482 23.591067 16.777781
v -17.689482 23.591067 16.777781
v -12.960845 23.407207 14.460956
v -13.207462 29.091605 13.412332
v -17.347309 29.125941 16.937701
v -11.764745 32.598272 19.546812
v -17.347309 29.125941 16.937701
v -13.207462 29.091605 13.412332
v -11.764745 20.033814 19.546812
v -8.623733 23.087240 15.724302
v -12.960845 23.407207 14.460956
v -12.960845 23.407207 14.460956
v -8.623733 23.087240 15.724302
v -8.636858 28.973605 15.740274
v -13.207462 29.091605 13.412332
v -11.764745 32.598272 19.546812
v -13.207462 29.091605 13.412332
v -8.636858 28.973605 15.740274
v -11.764745 20.033814 19.546812
v -5.716764 22.650232 19.546812
v -8.623733 23.087240 15.724302
v -8.623733 23.087240 15.724302
v -5.716764 22.650232 19.546812
v -6.954530 29.217877 19.546812
v -8.636858 28.973605 15.740274
v -11.764745 32.598272 19.546812
v -8.636858 28.973605 15.740274
v -6.954530 29.217877 19.546812
v -28.294565 7.175199 4.200947
v -23.763856 9.864095 8.677679
v -20.869017 10.246361 4.200947
v -20.869017 10.246361 4.200947
v -23.763856 9.864095 8.677679
v -23.770208 16.420274 8.671402
v -20.942965 16.460093 4.200947
v -28.294565 19.059497 4.200947
v -20.942965 16.460093 4.200947
v -23.770208 16.420274 8.671402
v -28.294565 7.175199 4.200947
v -29.750059 9.951606 9.225800
v -23.763856 9.864095 8.677679
v -23.763856 9.864095 8.677679
v -29.750059 9.951606 9.225800
v -29.823966 16.202342 9.480951
v -23.770208 16.420274 8.671402
v -28.294565 19.059497 4.200947
v -23.770208 16.420274 8.671402
v -29.823966 16.202342 9.480951
v -28.294565 7.175199 4.200947
v -34.434520 9.639043 6.530861
v -29.750059 9.951606 9.225800
v -29.750059 9.951606 9.225800
v -34.434520 9.639043 6.530861
v -33.084002 15.735129 6.018383
v -29.823966 16.202342 9.480951
v -28.294565 19.059497 4.200947
v -29.823966 16.202342 9.480951
v -33.084002 15.735129 6.018383
v -28.294565 7.175199 4.200947
v -33.135497 9.974724 2.363969
v -34.434520 9.639043 6.530861
v -34.434520 9.639043 6.530861
v -33.135497 9.974724 2.363969
v -34.988106 16.489672 1.660964
v -33.084002 15.735129 6.018383
v -28.294565 19.059497 4.200947
v -33.084002 15.735129 6.018383
v -34.988106 16.489672 1.660964
v -28.294565 7.175199 4.200947
v -29.814855 10.011268 -1.047606
v -33.135497 9.974724 2.363969
v -33.135497 9.974724 2.363969
v -29.814855 10.011268 -1.047606
v -29.458389 16.345392 0.183037
v -34.988106 16.489672 1.660964
v -28.294565 19.059497 4.200947
v -34.988106 16.489672 1.660964
v -29.458389 16.345392 0.183037
v -28.294565 7.175199 4.200947
v -23.660598 10.140202 -0.377814
v -29.814855 10.011268 -1.047606
v -29.814855 10.011268 -1.047606
v -23.660598 10.140202 -0.377814
v -24.155634 15.968800 0.111324
v -29.458389 16.345392 0.183037
v -28.294565 19.059497 4.200947
v -29.458389 16.345392 0.183037
v -24.155634 15.968800 0.111324
v -28.294565 7.175199 4.200947
v -20.869017 10.246361 4.200947
v -23.660598 10.140202 -0.377814
v -23.660598 10.140202 -0.377814
v -20.869017 10.246361 4.200947
v -20.942965 16.460093 4.200947
v -24.155634 15.968800 0.111324
v -28.294565 19.059497 4.200947
v -24.155634 15.968800 0.111324
v -20.942965 16.460093 4.200947
v -29.611896 15.256949 -6.546938
v -26.624836 18.260860 -1.084760
v -25.191941 17.870670 -6.546938
v -25.191941 17.870670 -6.546938
v -26.624836 18.260860 -1.084760
v -26.103340 24.740169 -0.131145
v -24.130553 24.804431 -6.546938
v -29.611896 27.880957 -6.546938
v -24.130553 24.804431 -6.546938
v -26.103340 24.740169 -0.131145
v -29.611896 15.256949 -6.546938
v -30.915059 18.399228 1.779101
v -26.624836 18.260860 -1.084760
v -26.624836 18.260860 -1.084760
v -30.915059 18.399228 1.779101
v -30.872605 24.220288 1.507859
v -26.103340 24.740169 -0.131145
v -29.611896 27.880957 -6.546938
v -26.103340 24.740169 -0.131145
v -30.872605 24.220288 1.507859
v -29.611896 15.256949 -6.546938
v -34.334888 17.962285 -3.230140
v -30.915059 18.399228 1.779101
v -30.915059 18.399228 1.779101
v -34.334888 17.962285 -3.230140
v -33.952278 24.298178 -3.498834
v -30.872605 24.220288 1.507859
v -29.611896 27.880957 -6.546938
v -30.872605 24.220288 1.507859
v -33.952278 24.298178 -3.498834
v -29.611896 15.256949 -6.546938
v -34.651830 18.052598 -10.086313
v -34.334888 17.962285 -3.230140
v -34.334888 17.962285 -3.230140
v -34.651830 18.052598 -10.086313
v -34.379170 24.450041 -9.894833
v -33.952278 24.298178 -3.498834
v -29.611896 27.880957 -6.546938
v -33.952278 24.298178 -3.498834
v -34.379170 24.450041 -9.894833
v -29.611896 15.256949 -6.546938
v -30.902311 18.035352 -14.791533
v -34.651830 18.052598 -10.086313
v -34.651830 18.052598 -10.086313
v -30.902311 18.035352 -14.791533
v -30.781251 24.541349 -14.018065
v -34.379170 24.450041 -9.894833
v -29.611896 27.880957 -6.546938
v -34.379170 24.450041 -9.894833
v -30.781251 24.541349 -14.018065
v -29.611896 15.256949 -6.546938
v -25.918895 17.933041 -13.300009
v -30.902311 18.035352 -14.791533
v -30.902311 18.035352 -14.791533
v -25.918895 17.933041 -13.300009
v -26.856927 24.847601 -11.584711
v -30.781251 24.541349 -14.018065
v -29.611896 27.880957 -6.546938
v -30.781251 24.541349 -14.018065
v -26.856927 24.847601 -11.584711
v -29.611896 15.256949 -6.546938
v -25.191941 17.870670 -6.546938
v -25.918895 17.933041 -13.300009
v -25.918895 17.933041 -13.300009
v -25.191941 17.870670 -6.546938
v -24.130553 24.804431 -6.546938
v -26.856927 24.847601 -11.584711
v -29.611896 27.880957 -6.546938
v -26.856927 24.847601 -11.584711
v -24.130553 24.804431 -6.546938
v -18.809265 22.354634 -25.916478
v -15.012202 24.833522 -22.023146
v -11.552637 24.708010 -25.916478
v -11.552637 24.708010 -25.916478
v -15.012202 24.833522 -22.023146
v -14.675152 30.261288 -21.677551
v -10.800156 30.203527 -25.916478
v -18.809265 32.944327 -25.916478
v -10.800156 30.203527 -25.916478
v -14.675152 30.261288 -21.677551
v -18.809265 22.354634 -25.916478
v -20.335788 24.920868 -20.447642
v -15.012202 24.833522 -22.023146
v -15.012202 24.833522 -22.023146
v -20.335788 24.920868 -20.447642
v -20.438401 30.177855 -20.080024
v -14.675152 30.261288 -21.677551
v -18.809265 32.944327 -25.916478
v -14.675152 30.261288 -21.677551
v -20.438401 30.177855 -20.080024
v -18.809265 22.354634 -25.916478
v -24.413889 25.042512 -23.709490
v -20.335788 24.920868 -20.447642
v -20.335788 24.920868 -20.447642
v -24.413889 25.042512 -23.709490
v -24.096339 30.344369 -23.834535
v -20.438401 30.177855 -20.080024
v -18.809265 32.944327 -25.916478
v -20.438401 30.177855 -20.080024
v -24.096339 30.344369 -23.834535
v -18.809265 22.354634 -25.916478
v -24.871864 25.004835 -28.303808
v -24.413889 25.042512 -23.709490
v -24.413889 25.042512 -23.709490
v -24.871864 25.004835 -28.303808
v -23.985283 29.839299 -27.954690
v -24.096339 30.344369 -23.834535
v -18.809265 32.944327 -25.916478
v -24.096339 30.344369 -23.834535
v -23.985283 29.839299 -27.954690
v -18.809265 22.354634 -25.916478
v -20.543570 24.529071 -32.129705
v -24.871864 25.004835 -28.303808
v -24.871864 25.004835 -28.303808
v -20.543570 24.529071 -32.129705
v -20.378790 30.092870 -31.539372
v -23.985283 29.839299 -27.954690
v -18.809265 32.944327 -25.916478
v -23.985283 29.839299 -27.954690
v -20.378790 30.092870 -31.539372
v -18.809265 22.354634 -25.916478
v -14.553981 25.350913 -30.279649
v -20.543570 24.529071 -32.129705
v -20.543570 24.529071 -32.129705
v -14.553981 25.350913 -30.279649
v -14.121650 30.320173 -30.722942
v -20.378790 30.092870 -31.539372
v -18.809265 32.944327 -25.916478
v -20.378790 30.092870 -31.539372
v -14.121650 30.320173 -30.722942
v -18.809265 22.354634 -25.916478
v -11.552637 24.708010 -25.916478
v -14.553981 25.350913 -30.279649
v -14.553981 25.350913 -30.279649
v -11.552637 24.708010 -25.916478
v -10.800156 30.203527 -25.916478
v -14.121650 30.320173 -30.722942
v -18.809265 32.944327 -25.916478
v -14.121650 30.320173 -30.722942
v -10.800156 30.203527 -25.916478
v 9.577851 16.109368 -26.048853
v 12.940914 18.365358 -22.168517
v 15.424980 18.210615 -26.048853
v 15.424980 18.210615 -26.048853
v 12.940914 18.365358 -22.168517
v 13.073708 22.945720 -22.015298
v 14.452461 22.965138 -26.048853
v 9.577851 25.136708 -26.048853
v 14.452461 22.965138 -26.048853
v 13.073708 22.945720 -22.015298
v 9.577851 16.109368 -26.048853
v 8.460564 18.281266 -21.544661
v 12.940914 18.365358 -22.168517
v 12.940914 18.365358 -22.168517
v 8.460564 18.281266 -21.544661
v 8.363517 22.695466 -21.153430
v 13.073708 22.945720 -22.015298
v 9.577851 25.136708 -26.048853
v 13.073708 22.945720 -22.015298
v 8.363517 22.695466 -21.153430
v 9.577851 16.109368 -26.048853
v 3.566879 18.378931 -23.385315
v 8.460564 18.281266 -21.544661
v 8.460564 18.281266 -21.544661
v 3.566879 18.378931 -23.385315
v 3.897827 23.267577 -23.531962
v 8.363517 22.695466 -21.153430
v 9.577851 25.136708 -26.048853
v 8.363517 22.695466 -21.153430
v 3.897827 23.267577 -23.531962
v 9.577851 16.109368 -26.048853
v 4.549663 18.728032 -28.276907
v 3.566879 18.378931 -23.385315
v 3.566879 18.378931 -23.385315
v 4.549663 18.728032 -28.276907
v 4.184467 22.562253 -28.438730
v 3.897827 23.267577 -23.531962
v 9.577851 25.136708 -26.048853
v 3.897827 23.267577 -23.531962
v 4.184467 22.562253 -28.438730
v 9.577851 16.109368 -26.048853
v 8.078452 18.423229 -32.093481
v 4.549663 18.728032 -28.276907
v 4.549663 18.728032 -28.276907
v 8.078452 18.423229 -32.093481
v 8.258046 23.099296 -31.369471
v 4.184467 22.562253 -28.438730
v 9.577851 25.136708 -26.048853
v 4.184467 22.562253 -28.438730
v 8.258046 23.099296 -31.369471
v 9.577851 16.109368 -26.048853
v 13.216843 18.413163 -30.247559
v 8.078452 18.423229 -32.093481
v 8.078452 18.423229 -32.093481
v 13.216843 18.413163 -30.247559
v 13.304809 23.191062 -30.349055
v 8.258046 23.099296 -31.369471
v 9.577851 25.136708 -26.048853
v 8.258046 23.099296 -31.369471
v 13.304809 23.191062 -30.349055
v 9.577851 16.109368 -26.048853
v 15.424980 18.210615 -26.048853
v 13.216843 18.413163 -30.247559
v 13.216843 18.413163 -30.247559
v 15.424980 18.210615 -26.048853
v 14.452461 22.965138 -26.048853
v 13.304809 23.191062 -30.349055
v 9.577851 25.136708 -26.048853
v 13.304809 23.191062 -30.349055
v 14.452461 22.965138 -26.048853
v 28.083025 28.681616 -16.649840
v 31.245111 31.611610 -12.570400
v 34.572926 31.836662 -16.649840
v 34.572926 31.836662 -16.649840
v 31.245111 31.611610 -12.570400
v 31.116852 37.275922 -12.735868
v 33.282763 36.872955 -16.649840
v 28.083025 39.932377 -16.649840
v 33.282763 36.872955 -16.649840
v 31.116852 37.275922 -12.735868
v 28.083025 28.681616 -16.649840
v 26.579409 31.206875 -9.872150
v 31.245111 31.611610 -12.570400
v 31.245111 31.611610 -12.570400
v 26.579409 31.206875 -9.872150
v 26.590295 36.943967 -9.921217
v 31.116852 37.275922 -12.735868
v 28.083025 39.932377 -16.649840
v 31.116852 37.275922 -12.735868
v 26.590295 36.943967 -9.921217
v 28.083025 28.681616 -16.649840
v 22.438052 31.913585 -13.852994
v 26.579409 31.206875 -9.872150
v 26.579409 31.206875 -9.872150
v 22.438052 31.913585 -13.852994
v 23.256570 36.664930 -14.258535
v 26.590295 36.943967 -9.921217
v 28.083025 39.932377 -16.649840
v 26.590295 36.943967 -9.921217
v 23.256570 36.664930 -14.258535
v 28.083025 28.681616 -16.649840
v 21.992172 31.982718 -19.667602
v 22.438052 31.913585 -13.852994
v 22.438052 31.913585 -13.852994
v 21.992172 31.982718 -19.667602
v 22.999933 36.646887 -19.168299
v 23.256570 36.664930 -14.258535
v 28.083025 39.932377 -16.649840
v 23.256570 36.664930 -14.258535
v 22.999933 36.646887 -19.168299
v 28.083025 28.681616 -16.649840
v 26.879895 31.840309 -22.073063
v 21.992172 31.982718 -19.667602
v 21.992172 31.982718 -19.667602
v 26.879895 31.840309 -22.073063
v 26.972253 37.414734 -21.656752
v 22.999933 36.646887 -19.168299
v 28.083025 39.932377 -16.649840
v 22.999933 36.646887 -19.168299
v 26.972253 37.414734 -21.656752
v 28.083025 28.681616 -16.649840
v 31.724718 31.339746 -21.348027
v 26.879895 31.840309 -22.073063
v 26.879895 31.840309 -22.073063
v 31.724718 31.339746 -21.348027
v 32.101428 37.621157 -21.834024
v 26.972253 37.414734 -21.656752
v 28.083025 39.932377 -16.649840
v 26.972253 37.414734 -21.656752
v 32.101428 37.621157 -21.834024
v 28.083025 28.681616 -16.649840
v 34.572926 31.836662 -16.649840
v 31.724718 31.339746 -21.348027
v 31.724718 31.339746 -21.348027
v 34.572926 31.836662 -16.649840
v 33.282763 36.872955 -16.649840
v 32.101428 37.621157 -21.834024
v 28.083025 39.932377 -16.649840
v 32.101428 37.621157 -21.834024
v 33.282763 36.872955 -16.649840
v -26.101038 37.706319 2.783596
v -26.050088 35.285038 1.378319
v 32.741235 39.709674 -2.719004
v 32.715760 40.920315 -2.016366
v -26.262514 37.706319 -0.011744
v -26.050088 35.285038 1.378319
v -26.101038 37.706319 2.783596
v 32.635022 40.920315 -3.414036
v 32.715760 40.920315 -2.016366
v 32.741235 39.709674 -2.719004
v -26.050088 35.285038 1.378319
v -26.211564 35.285038 -1.417021
v 32.660497 39.709674 -4.116674
v 32.741235 39.709674 -2.719004
v -26.262514 37.706319 -0.011744
v -26.211564 35.285038 -1.417021
v -26.050088 35.285038 1.378319
v 32.635022 40.920315 -3.414036
v 32.741235 39.709674 -2.719004
v 32.660497 39.709674 -4.116674
v -26.211564 35.285038 -1.417021
v -26.423991 37.706319 -2.807084
v 32.554283 40.920315 -4.811706
v 32.660497 39.709674 -4.116674
v -26.262514 37.706319 -0.011744
v -26.423991 37.706319 -2.807084
v -26.211564 35.285038 -1.417021
v 32.635022 40.920315 -3.414036
v 32.660497 39.709674 -4.116674
v 32.554283 40.920315 -4.811706
v -26.423991 37.706319 -2.807084
v -26.474940 40.127600 -1.401807
v 32.528808 42.130955 -4.109067
v 32.554283 40.920315 -4.811706
v -26.262514 37.706319 -0.011744
v -26.474940 40.127600 -1.401807
v -26.423991 37.706319 -2.807084
v 32.635022 40.920315 -3.414036
v 32.554283 40.920315 -4.811706
v 32.528808 42.130955 -4.109067
v -26.474940 40.127600 -1.401807
v -26.313464 40.127600 1.393533
v 32.609547 42.130955 -2.711397
v 32.528808 42.130955 -4.109067
v -26.262514 37.706319 -0.011744
v -26.313464 40.127600 1.393533
v -26.474940 40.127600 -1.401807
v 32.635022 40.920315 -3.414036
v 32.528808 42.130955 -4.109067
v 32.609547 42.130955 -2.711397
v -26.313464 40.127600 1.393533
v -26.101038 37.706319 2.783596
v 32.715760 40.920315 -2.016366
v 32.609547 42.130955 -2.711397
v -26.262514 37.706319 -0.011744
v -26.101038 37.706319 2.783596
v -26.313464 40.127600 1.393533
v 32.635022 40.920315 -3.414036
v 32.609547 42.130955 -2.711397
v 32.715760 40.920315 -2.016366
v -33.182963 29.290653 -11.209306
v -33.130171 26.868754 -12.613449
v 18.920573 25.487905 -6.878886
v 18.894177 26.698855 -6.176815
v -32.839159 29.290653 -13.988118
v -33.130171 26.868754 -12.613449
v -33.182963 29.290653 -11.209306
v 19.066079 26.698855 -7.566221
v 18.894177 26.698855 -6.176815
v 18.920573 25.487905 -6.878886
v -33.130171 26.868754 -12.613449
v -32.786367 26.868754 -15.392261
v 19.092475 25.487905 -8.268293
v 18.920573 25.487905 -6.878886
v -32.839159 29.290653 -13.988118
v -32.786367 26.868754 -15.392261
v -33.130171 26.868754 -12.613449
v 19.066079 26.698855 -7.566221
v 18.920573 25.487905 -6.878886
v 19.092475 25.487905 -8.268293
v -32.786367 26.868754 -15.392261
v -32.495355 29.290653 -16.766930
v 19.237981 26.698855 -8.955627
v 19.092475 25.487905 -8.268293
v -32.839159 29.290653 -13.988118
v -32.495355 29.290653 -16.766930
v -32.786367 26.868754 -15.392261
v 19.066079 26.698855 -7.566221
v 19.092475 25.487905 -8.268293
v 19.237981 26.698855 -8.955627
v -32.495355 29.290653 -16.766930
v -32.548147 31.712552 -15.362788
v 19.211585 27.909804 -8.253556
v 19.237981 26.698855 -8.955627
v -32.839159 29.290653 -13.988118
v -32.548147 31.712552 -15.362788
v -32.495355 29.290653 -16.766930
v 19.066079 26.698855 -7.566221
v 19.237981 26.698855 -8.955627
v 19.211585 27.909804 -8.253556
v -32.548147 31.712552 -15.362788
v -32.891951 31.712552 -12.583975
v 19.039683 27.909804 -6.864150
v 19.211585 27.909804 -8.253556
v -32.839159 29.290653 -13.988118
v -32.891951 31.712552 -12.583975
v -32.548147 31.712552 -15.362788
v 19.066079 26.698855 -7.566221
v 19.211585 27.909804 -8.253556
v 19.039683 27.909804 -6.864150
v -32.891951 31.712552 -12.583975
v -33.182963 29.290653 -11.209306
v 18.894177 26.698855 -6.176815
v 19.039683 27.909804 -6.864150
v -32.839159 29.290653 -13.988118
v -33.182963 29.290653 -11.209306
v -32.891951 31.712552 -12.583975
v 19.066079 26.698855 -7.566221
v 19.039683 27.909804 -6.864150
v 18.894177 26.698855 -6.176815
v -30.896660 29.585152 16.220270
v -30.986336 27.167538 14.810624
v 20.904983 32.497283 3.759152
v 20.949821 33.706089 4.463975
v -31.443722 29.585152 13.474233
v -30.986336 27.167538 14.810624
v -30.896660 29.585152 16.220270
v 20.676290 33.706089 3.090956
v 20.949821 33.706089 4.463975
v 20.904983 32.497283 3.759152
v -30.986336 27.167538 14.810624
v -31.533398 27.167538 12.064586
v 20.631452 32.497283 2.386133
v 20.904983 32.497283 3.759152
v -31.443722 29.585152 13.474233
v -31.533398 27.167538 12.064586
v -30.986336 27.167538 14.810624
v 20.676290 33.706089 3.090956
v 20.904983 32.497283 3.759152
v 20.631452 32.497283 2.386133
v -31.533398 27.167538 12.064586
v -31.990784 29.585152 10.728195
v 20.402759 33.706089 1.717937
v 20.631452 32.497283 2.386133
v -31.443722 29.585152 13.474233
v -31.990784 29.585152 10.728195
v -31.533398 27.167538 12.064586
v 20.676290 33.706089 3.090956
v 20.631452 32.497283 2.386133
v 20.402759 33.706089 1.717937
v -31.990784 29.585152 10.728195
v -31.901108 32.002765 12.137841
v 20.447597 34.914896 2.422760
v 20.402759 33.706089 1.717937
v -31.443722 29.585152 13.474233
v -31.901108 32.002765 12.137841
v -31.990784 29.585152 10.728195
v 20.676290 33.706089 3.090956
v 20.402759 33.706089 1.717937
v 20.447597 34.914896 2.422760
v -31.901108 32.002765 12.137841
v -31.354046 32.002765 14.883879
v 20.721128 34.914896 3.795779
v 20.447597 34.914896 2.422760
v -31.443722 29.585152 13.474233
v -31.354046 32.002765 14.883879
v -31.901108 32.002765 12.137841
v 20.676290 33.706089 3.090956
v 20.447597 34.914896 2.422760
v 20.721128 34.914896 3.795779
v -31.354046 32.002765 14.883879
v -30.896660 29.585152 16.220270
v 20.949821 33.706089 4.463975
v 20.721128 34.914896 3.795779
v -31.443722 29.585152 13.474233
v -30.896660 29.585152 16.220270
v -31.354046 32.002765 14.883879
v 20.676290 33.706089 3.090956
v 20.721128 34.914896 3.795779
v 20.949821 33.706089 4.463975
vt 0.500000 1.000000
vt 0.000000 0.000000
vt 1.000000 0.000000
vt 0.000000 0.000000
vt 1.000000 0.000000
vt 1.000000 1.000000
vt 0.000000 1.000000
vt 0.000000 0.000000
vt 1.000000 0.000000
vt 1.000000 1.000000
vt 0.000000 1.000000
vt 0.500000 1.000000
vt 0.000000 0.000000
vt 1.000000 0.000000
vt 0.500000 1.000000
vt 0.000000 0.000000
vt 1.000000 0.000000
vt 0.000000 0.000000
vt 1.000000 0.000000
vt 1.000000 1.000000
vt 0.000000 1.000000
vt 0.000000 0.000000
vt 1.000000 0.000000
vt 1.000000 1.000000
vt 0.000000 1.000000
vt 0.500000 1.000000
vt 0.000000 0.000000
vt 1.000000 0.000000
vt 0.500000 1.000000
vt 0.000000 0.000000
vt 1.000000 0.000000
vt 0.000000 0.000000
vt 1.000000 0.000000
vt 1.000000 1.000000
vt 0.000000 1.000000
vt 0.000000 0.000000
vt 1.000000 0.000000
vt 1.000000 1.000000
vt 0.000000 1.000000
vt 0.500000 1.000000
vt 0.000000 0.000000
vt 1.000000 0.000000
vt 0.500000 1.000000
vt 0.000000 0.000000
vt 1.000000 0.000000
vt 0.000000 0.000000
vt 1.000000 0.000000
vt 1.000000 1.000000
vt 0.000000 1.000000
vt 0.000000 0.000000
vt 1.000000 0.000000
vt 1.000000 1.000000
vt 0.000000 1.000000
vt 0.500000 1.000000
vt 0.000000 0.000000
vt 1.000000 0.000000
vt 0.500000 1.000000
vt 0.000000 0.000000
vt 1.000000 0.000000
vt 0.000000 0.000000
vt 1.000000 0.000000
vt 1.000000 1.000000
vt 0.000000 1.000000
vt 0.000000 0.000000
vt 1.000000 0.000000
vt 1.000000 1.000000
vt 0.000000 1.000000
vt 0.500000 1.000000
vt 0.000000 0.000000
vt 1.000000 0.000000
vt 0.500000 1.000000
vt 0.000000 0.000000
vt 1.000000 0.000000
vt 0.000000 0.000000
vt 1.000000 0.000000
vt 1.000000 1.000000
vt 0.000000 1.000000
vt 0.000000 0.000000
vt 1.000000 0.000000
vt 1.000000 1.000000
vt 0.000000 1.000000
vt 0.500000 1.000000
vt 0.000000 0.000000
vt 1.000000 0.000000
vt 0.500000 1.000000
vt 0.000000 0.000000
vt 1.000000 0.000000
vt 0.000000 0.000000
vt 1.000000 0.000000
vt 1.000000 1.000000
vt 0.000000 1.000000
vt 0.000000 0.000000
vt 1.000000 0.000000
vt 1.000000 1.000000
vt 0.000000 1.000000
vt 0.500000 1.000000
vt 0.000000 0.000000
vt 1.000000 0.000000
vt 0.500000 1.000000
vt 0.000000 0.000000
vt 1.000000 0.000000
vt 0.000000 0.000000
vt 1.000000 0.000000
vt 1.000000 1.000000
vt 0.000000 1.000000
vt 0.000000 0.000000
vt 1.000000 0.000000
vt 1.000000 1.000000
vt 0.000000 1.000000
vt 0.500000 1.000000
vt 0.000000 0.000000
vt 1.000000 0.000000
vt 0.500000 1.000000
vt 0.000000 0.000000
vt 1.000000 0.000000
vt 0.000000 0.000000
vt 1.000000 0.000000
vt 1.000000 1.000000
vt 0.000000 1.000000
vt 0.000000 0.000000
vt 1.000000 0.000000
vt 1.000000 1.000000
vt 0.000000 1.000000
vt 0.500000 1.000000
vt 0.000000 0.000000
vt 1.000000 0.000000
vt 0.500000 1.000000
vt 0.000000 0.000000
vt 1.000000 0.000000
vt 0.000000 0.000000
vt 1.000000 0.000000
vt 1.000000 1.000000
vt 0.000000 1.000000
vt 0.000000 0.000000
vt 1.000000 0.000000
vt 1.000000 1.000000
vt 0.000000 1.000000
vt 0.500000 1.000000
vt 0.000000 0.000000
vt 1.000000 0.000000
vt 0.500000 1.000000
vt 0.000000 0.000000
vt 1.000000 0.000000
vt 0.000000 0.000000
vt 1.000000 0.000000
vt 1.000000 1.000000
vt 0.000000 1.000000
vt 0.500000 1.000000
vt 0.000000 0.000000
vt 1.000000 0.000000
vt 0.500000 1.000000
vt 0.000000 0.000000
vt 1.000000 0.000000
vt 0.000000 0.000000
vt 1.000000 0.000000
vt 1.000000 1.000000
vt 0.000000 1.000000
vt 0.500000 1.000000
vt 0.000000 0.000000
vt 1.000000 0.000000
vt 0.500000 1.000000
vt 0.000000 0.000000
vt 1.000000 0.000000
vt 0.000000 0.000000
vt 1.000000 0.000000
vt 1.000000 1.000000
vt 0.000000 1.000000
vt 0.500000 1.000000
vt 0.000000 0.000000
vt 1.000000 0.000000
vt 0.500000 1.000000
vt 0.000000 0.000000
vt 1.000000 0.000000
vt 0.000000 0.000000
vt 1.000000 0.000000
vt 1.000000 1.000000
vt 0.000000 1.000000
vt 0.500000 1.000000
vt 0.000000 0.000000
vt 1.000000 0.000000
vt 0.500000 1.000000
vt 0.000000 0.000000
vt 1.000000 0.000000
vt 0.000000 0.000000
vt 1.000000 0.000000
vt 1.000000 1.000000
vt 0.000000 1.000000
vt 0.500000 1.000000
vt 0.000000 0.000000
vt 1.000000 0.000000
vt 0.500000 1.000000
vt 0.000000 0.000000
vt 1.000000 0.000000
vt 0.000000 0.000000
vt 1.000000 0.000000
vt 1.000000 1.000000
vt 0.000000 1.000000
vt 0.500000 1.000000
vt 0.000000 0.000000
vt 1.000000 0.000000
vt 0.500000 1.000000
vt 0.000000 0.000000
vt 1.000000 0.000000
vt 0.000000 0.000000
vt 1.000000 0.000000
vt 1.000000 1.000000
vt 0.000000 1.000000
vt 0.500000 1.000000
vt 0.000000 0.000000
vt 1.000000 0.000000
vt 0.500000 1.000000
vt 0.000000 0.000000
vt 1.000000 0.000000
vt 0.000000 0.000000
vt 1.000000 0.000000
vt 1.000000 1.000000
vt 0.000000 1.000000
vt 0.500000 1.000000
vt 0.000000 0.000000
vt 1.000000 0.000000
vt 0.500000 1.000000
vt 0.000000 0.000000
vt 1.000000 0.000000
vt 0.000000 0.000000
vt 1.000000 0.000000
vt 1.000000 1.000000
vt 0.000000 1.000000
vt 0.500000 1.000000
vt 0.000000 0.000000
vt 1.000000 0.000000
vt 0.500000 1.000000
vt 0.000000 0.000000
vt 1.000000 0.000000
vt 0.000000 0.000000
vt 1.000000 0.000000
vt 1.000000 1.000000
vt 0.000000 1.000000
vt 0.500000 1.000000
vt 0.000000 0.000000
vt 1.000000 0.000000
vt 0.500000 1.000000
vt 0.000000 0.000000
vt 1.000000 0.000000
vt 0.000000 0.000000
vt 1.000000 0.000000
vt 1.000000 1.000000
vt 0.000000 1.000000
vt 0.500000 1.000000
vt 0.000000 0.000000
vt 1.000000 0.000000
vt 0.500000 1.000000
vt 0.000000 0.000000
vt 1.000000 0.000000
vt 0.000000 0.000000
vt 1.000000 0.000000
vt 1.000000 1.000000
vt 0.000000 1.000000
vt 0.500000 1.000000
vt 0.000000 0.000000
vt 1.000000 0.000000
vt 0.500000 1.000000
vt 0.000000 0.000000
vt 1.000000 0.000000
vt 0.000000 0.000000
vt 1.000000 0.000000
vt 1.000000 1.000000
vt 0.000000 1.000000
vt 0.500000 1.000000
vt 0.000000 0.000000
vt 1.000000 0.000000
vt 0.500000 1.000000
vt 0.000000 0.000000
vt 1.000000 0.000000
vt 0.000000 0.000000
vt 1.000000 0.000000
vt 1.000000 1.000000
vt 0.000000 1.000000
vt 0.500000 1.000000
vt 0.000000 0.000000
vt 1.000000 0.000000
vt 0.500000 1.000000
vt 0.000000 0.000000
vt 1.000000 0.000000
vt 0.000000 0.000000
vt 1.000000 0.000000
vt 1.000000 1.000000
vt 0.000000 1.000000
vt 0.500000 1.000000
vt 0.000000 0.000000
vt 1.000000 0.000000
vt 0.500000 1.000000
vt 0.000000 0.000000
vt 1.000000 0.000000
vt 0.000000 0.000000
vt 1.000000 0.000000
vt 1.000000 1.000000
vt 0.000000 1.000000
vt 0.500000 1.000000
vt 0.000000 0.000000
vt 1.000000 0.000000
vt 0.500000 1.000000
vt 0.000000 0.000000
vt 1.000000 0.000000
vt 0.000000 0.000000
vt 1.000000 0.000000
vt 1.000000 1.000000
vt 0.000000 1.000000
vt 0.500000 1.000000
vt 0.000000 0.000000
vt 1.000000 0.000000
vt 0.500000 1.000000
vt 0.000000 0.000000
vt 1.000000 0.000000
vt 0.000000 0.000000
vt 1.000000 0.000000
vt 1.000000 1.000000
vt 0.000000 1.000000
vt 0.500000 1.000000
vt 0.000000 0.000000
vt 1.000000 0.000000
vt 0.500000 1.000000
vt 0.000000 0.000000
vt 1.000000 0.000000
vt 0.000000 0.000000
vt 1.000000 0.000000
vt 1.000000 1.000000
vt 0.000000 1.000000
vt 0.500000 1.000000
vt 0.000000 0.000000
vt 1.000000 0.000000
vt 0.500000 1.000000
vt 0.000000 0.000000
vt 1.000000 0.000000
vt 0.000000 0.000000
vt 1.000000 0.000000
vt 1.000000 1.000000
vt 0.000000 1.000000
vt 0.500000 1.000000
vt 0.000000 0.000000
vt 1.000000 0.000000
vt 0.500000 1.000000
vt 0.000000 0.000000
vt 1.000000 0.000000
vt 0.000000 0.000000
vt 1.000000 0.000000
vt 1.000000 1.000000
vt 0.000000 1.000000
vt 0.500000 1.000000
vt 0.000000 0.000000
vt 1.000000 0.000000
vt 0.500000 1.000000
vt 0.000000 0.000000
vt 1.000000 0.000000
vt 0.000000 0.000000
vt 1.000000 0.000000
vt 1.000000 1.000000
vt 0.000000 1.000000
vt 0.500000 1.000000
vt 0.000000 0.000000
vt 1.000000 0.000000
vt 0.500000 1.000000
vt 0.000000 0.000000
vt 1.000000 0.000000
vt 0.000000 0.000000
vt 1.000000 0.000000
vt 1.000000 1.000000
vt 0.000000 1.000000
vt 0.500000 1.000000
vt 0.000000 0.000000
vt 1.000000 0.000000
vt 0.500000 1.000000
vt 0.000000 0.000000
vt 1.000000 0.000000
vt 0.000000 0.000000
vt 1.000000 0.000000
vt 1.000000 1.000000
vt 0.000000 1.000000
vt 0.500000 1.000000
vt 0.000000 0.000000
vt 1.000000 0.000000
vt 0.500000 1.000000
vt 0.000000 0.000000
vt 1.000000 0.000000
vt 0.000000 0.000000
vt 1.000000 0.000000
vt 1.000000 1.000000
vt 0.000000 1.000000
vt 0.500000 1.000000
vt 0.000000 0.000000
vt 1.000000 0.000000
vt 0.500000 1.000000
vt 0.000000 0.000000
vt 1.000000 0.000000
vt 0.000000 0.000000
vt 1.000000 0.000000
vt 1.000000 1.000000
vt 0.000000 1.000000
vt 0.500000 1.000000
vt 0.000000 0.000000
vt 1.000000 0.000000
vt 0.500000 1.000000
vt 0.000000 0.000000
vt 1.000000 0.000000
vt 0.000000 0.000000
vt 1.000000 0.000000
vt 1.000000 1.000000
vt 0.000000 1.000000
vt 0.500000 1.000000
vt 0.000000 0.000000
vt 1.000000 0.000000
vt 0.500000 1.000000
vt 0.000000 0.000000
vt 1.000000 0.000000
vt 0.000000 0.000000
vt 1.000000 0.000000
vt 1.000000 1.000000
vt 0.000000 1.000000
vt 0.500000 1.000000
vt 0.000000 0.000000
vt 1.000000 0.000000
vt 0.500000 1.000000
vt 0.000000 0.000000
vt 1.000000 0.000000
vt 0.000000 0.000000
vt 1.000000 0.000000
vt 1.000000 1.000000
vt 0.000000 1.000000
vt 0.500000 1.000000
vt 0.000000 0.000000
vt 1.000000 0.000000
vt 0.500000 1.000000
vt 0.000000 0.000000
vt 1.000000 0.000000
vt 0.000000 0.000000
vt 1.000000 0.000000
vt 1.000000 1.000000
vt 0.000000 1.000000
vt 0.500000 1.000000
vt 0.000000 0.000000
vt 1.000000 0.000000
vt 0.500000 1.000000
vt 0.000000 0.000000
vt 1.000000 0.000000
vt 0.000000 0.000000
vt 1.000000 0.000000
vt 1.000000 1.000000
vt 0.000000 1.000000
vt 0.500000 1.000000
vt 0.000000 0.000000
vt 1.000000 0.000000
vt 0.500000 1.000000
vt 0.000000 0.000000
vt 1.000000 0.000000
vt 0.000000 0.000000
vt 1.000000 0.000000
vt 1.000000 1.000000
vt 0.000000 1.000000
vt 0.500000 1.000000
vt 0.000000 0.000000
vt 1.000000 0.000000
vt 0.500000 1.000000
vt 0.000000 0.000000
vt 1.000000 0.000000
vt 0.000000 0.000000
vt 1.000000 0.000000
vt 1.000000 1.000000
vt 0.000000 1.000000
vt 0.500000 1.000000
vt 0.000000 0.000000
vt 1.000000 0.000000
vt 0.500000 1.000000
vt 0.000000 0.000000
vt 1.000000 0.000000
vt 0.000000 0.000000
vt 1.000000 0.000000
vt 1.000000 1.000000
vt 0.000000 1.000000
vt 0.500000 1.000000
vt 0.000000 0.000000
vt 1.000000 0.000000
vt 0.500000 1.000000
vt 0.000000 0.000000
vt 1.000000 0.000000
vt 0.000000 0.000000
vt 1.000000 0.000000
vt 1.000000 1.000000
vt 0.000000 1.000000
vt 0.500000 1.000000
vt 0.000000 0.000000
vt 1.000000 0.000000
vt 0.500000 1.000000
vt 0.000000 0.000000
vt 1.000000 0.000000
vt 0.000000 0.000000
vt 1.000000 0.000000
vt 1.000000 1.000000
vt 0.000000 1.000000
vt 0.500000 1.000000
vt 0.000000 0.000000
vt 1.000000 0.000000
vt 0.500000 1.000000
vt 0.000000 0.000000
vt 1.000000 0.000000
vt 0.000000 0.000000
vt 1.000000 0.000000
vt 1.000000 1.000000
vt 0.000000 1.000000
vt 0.500000 1.000000
vt 0.000000 0.000000
vt 1.000000 0.000000
vt 0.500000 1.000000
vt 0.000000 0.000000
vt 1.000000 0.000000
vt 0.000000 0.000000
vt 1.000000 0.000000
vt 1.000000 1.000000
vt 0.000000 1.000000
vt 0.500000 1.000000
vt 0.000000 0.000000
vt 1.000000 0.000000
vt 0.500000 1.000000
vt 0.000000 0.000000
vt 1.000000 0.000000
vt 0.000000 0.000000
vt 1.000000 0.000000
vt 1.000000 1.000000
vt 0.000000 1.000000
vt 0.500000 1.000000
vt 0.000000 0.000000
vt 1.000000 0.000000
vt 0.500000 1.000000
vt 0.000000 0.000000
vt 1.000000 0.000000
vt 0.000000 0.000000
vt 1.000000 0.000000
vt 1.000000 1.000000
vt 0.000000 1.000000
vt 0.500000 1.000000
vt 0.000000 0.000000
vt 1.000000 0.000000
vt 0.500000 1.000000
vt 0.000000 0.000000
vt 1.000000 0.000000
vt 0.000000 0.000000
vt 1.000000 0.000000
vt 1.000000 1.000000
vt 0.000000 1.000000
vt 0.500000 1.000000
vt 0.000000 0.000000
vt 1.000000 0.000000
vt 0.500000 1.000000
vt 0.000000 0.000000
vt 1.000000 0.000000
vt 0.000000 0.000000
vt 1.000000 0.000000
vt 1.000000 1.000000
vt 0.000000 1.000000
vt 0.500000 1.000000
vt 0.000000 0.000000
vt 1.000000 0.000000
vt 0.500000 1.000000
vt 0.000000 0.000000
vt 1.000000 0.000000
vt 0.000000 0.000000
vt 1.000000 0.000000
vt 1.000000 1.000000
vt 0.000000 1.000000
vt 0.500000 1.000000
vt 0.000000 0.000000
vt 1.000000 0.000000
vt 0.500000 1.000000
vt 0.000000 0.000000
vt 1.000000 0.000000
vt 0.000000 0.000000
vt 1.000000 0.000000
vt 1.000000 1.000000
vt 0.000000 1.000000
vt 0.500000 1.000000
vt 0.000000 0.000000
vt 1.000000 0.000000
vt 0.500000 1.000000
vt 0.000000 0.000000
vt 1.000000 0.000000
vt 0.000000 0.000000
vt 1.000000 0.000000
vt 1.000000 1.000000
vt 0.000000 1.000000
vt 0.500000 1.000000
vt 0.000000 0.000000
vt 1.000000 0.000000
vt 0.500000 1.000000
vt 0.000000 0.000000
vt 1.000000 0.000000
vt 0.000000 0.000000
vt 1.000000 0.000000
vt 1.000000 1.000000
vt 0.000000 1.000000
vt 0.500000 1.000000
vt 0.000000 0.000000
vt 1.000000 0.000000
vt 0.500000 1.000000
vt 0.000000 0.000000
vt 1.000000 0.000000
vt 0.000000 0.000000
vt 1.000000 0.000000
vt 1.000000 1.000000
vt 0.000000 1.000000
vt 0.500000 1.000000
vt 0.000000 0.000000
vt 1.000000 0.000000
vt 0.500000 1.000000
vt 0.000000 0.000000
vt 1.000000 0.000000
vt 0.000000 0.000000
vt 1.000000 0.000000
vt 1.000000 1.000000
vt 0.000000 1.000000
vt 0.500000 1.000000
vt 0.000000 0.000000
vt 1.000000 0.000000
vt 0.500000 1.000000
vt 0.000000 0.000000
vt 1.000000 0.000000
vt 0.000000 0.000000
vt 1.000000 0.000000
vt 1.000000 1.000000
vt 0.000000 1.000000
vt 0.500000 1.000000
vt 0.000000 0.000000
vt 1.000000 0.000000
vt 0.500000 1.000000
vt 0.000000 0.000000
vt 1.000000 0.000000
vt 0.000000 0.000000
vt 1.000000 0.000000
vt 1.000000 1.000000
vt 0.000000 1.000000
vt 0.500000 1.000000
vt 0.000000 0.000000
vt 1.000000 0.000000
vt 0.500000 1.000000
vt 0.000000 0.000000
vt 1.000000 0.000000
vt 0.000000 0.000000
vt 1.000000 0.000000
vt 1.000000 1.000000
vt 0.000000 1.000000
vt 0.500000 1.000000
vt 0.000000 0.000000
vt 1.000000 0.000000
vt 0.500000 1.000000
vt 0.000000 0.000000
vt 1.000000 0.000000
vt 0.000000 0.000000
vt 1.000000 0.000000
vt 1.000000 1.000000
vt 0.000000 1.000000
vt 0.500000 1.000000
vt 0.000000 0.000000
vt 1.000000 0.000000
vt 0.500000 1.000000
vt 0.000000 0.000000
vt 1.000000 0.000000
vt 0.000000 0.000000
vt 1.000000 0.000000
vt 1.000000 1.000000
vt 0.000000 1.000000
vt 0.500000 1.000000
vt 0.000000 0.000000
vt 1.000000 0.000000
vt 0.500000 1.000000
vt 0.000000 0.000000
vt 1.000000 0.000000
vt 0.000000 0.000000
vt 1.000000 0.000000
vt 1.000000 1.000000
vt 0.000000 1.000000
vt 0.500000 1.000000
vt 0.000000 0.000000
vt 1.000000 0.000000
vt 0.500000 1.000000
vt 0.000000 0.000000
vt 1.000000 0.000000
vt 0.000000 0.000000
vt 1.000000 0.000000
vt 1.000000 1.000000
vt 0.000000 1.000000
vt 0.500000 1.000000
vt 0.000000 0.000000
vt 1.000000 0.000000
vt 0.500000 1.000000
vt 0.000000 0.000000
vt 1.000000 0.000000
vt 0.000000 0.000000
vt 1.000000 0.000000
vt 1.000000 1.000000
vt 0.000000 1.000000
vt 0.500000 1.000000
vt 0.000000 0.000000
vt 1.000000 0.000000
vt 0.500000 1.000000
vt 0.000000 0.000000
vt 1.000000 0.000000
vt 0.000000 0.000000
vt 1.000000 0.000000
vt 1.000000 1.000000
vt 0.000000 1.000000
vt 0.500000 1.000000
vt 0.000000 0.000000
vt 1.000000 0.000000
vt 0.500000 1.000000
vt 0.000000 0.000000
vt 1.000000 0.000000
vt 0.000000 0.000000
vt 1.000000 0.000000
vt 1.000000 1.000000
vt 0.000000 1.000000
vt 0.500000 1.000000
vt 0.000000 0.000000
vt 1.000000 0.000000
vt 0.500000 1.000000
vt 0.000000 0.000000
vt 1.000000 0.000000
vt 0.000000 0.000000
vt 1.000000 0.000000
vt 1.000000 1.000000
vt 0.000000 1.000000
vt 0.500000 1.000000
vt 0.000000 0.000000
vt 1.000000 0.000000
vt 0.500000 1.000000
vt 0.000000 0.000000
vt 1.000000 0.000000
vt 0.000000 0.000000
vt 1.000000 0.000000
vt 1.000000 1.000000
vt 0.000000 1.000000
vt 0.500000 1.000000
vt 0.000000 0.000000
vt 1.000000 0.000000
vt 0.500000 1.000000
vt 0.000000 0.000000
vt 1.000000 0.000000
vt 0.000000 0.000000
vt 1.000000 0.000000
vt 1.000000 1.000000
vt 0.000000 1.000000
vt 0.500000 1.000000
vt 0.000000 0.000000
vt 1.000000 0.000000
vt 0.500000 1.000000
vt 0.000000 0.000000
vt 1.000000 0.000000
vt 0.000000 0.000000
vt 1.000000 0.000000
vt 1.000000 1.000000
vt 0.000000 1.000000
vt 0.500000 1.000000
vt 0.000000 0.000000
vt 1.000000 0.000000
vt 0.500000 1.000000
vt 0.000000 0.000000
vt 1.000000 0.000000
vt 0.000000 0.000000
vt 1.000000 0.000000
vt 1.000000 1.000000
vt 0.000000 1.000000
vt 0.500000 1.000000
vt 0.000000 0.000000
vt 1.000000 0.000000
vt 0.000000 0.000000
vt 1.000000 0.000000
vt 1.000000 1.000000
vt 0.000000 1.000000
vt 0.500000 1.000000
vt 0.000000 0.000000
vt 1.000000 0.000000
vt 0.500000 1.000000
vt 0.000000 0.000000
vt 1.000000 0.000000
vt 0.000000 0.000000
vt 1.000000 0.000000
vt 1.000000 1.000000
vt 0.000000 1.000000
vt 0.500000 1.000000
vt 0.000000 0.000000
vt 1.000000 0.000000
vt 0.500000 1.000000
vt 0.000000 0.000000
vt 1.000000 0.000000
vt 0.000000 0.000000
vt 1.000000 0.000000
vt 1.000000 1.000000
vt 0.000000 1.000000
vt 0.500000 1.000000
vt 0.000000 0.000000
vt 1.000000 0.000000
vt 0.500000 1.000000
vt 0.000000 0.000000
vt 1.000000 0.000000
vt 0.000000 0.000000
vt 1.000000 0.000000
vt 1.000000 1.000000
vt 0.000000 1.000000
vt 0.500000 1.000000
vt 0.000000 0.000000
vt 1.000000 0.000000
vt 0.500000 1.000000
vt 0.000000 0.000000
vt 1.000000 0.000000
vt 0.000000 0.000000
vt 1.000000 0.000000
vt 1.000000 1.000000
vt 0.000000 1.000000
vt 0.500000 1.000000
vt 0.000000 0.000000
vt 1.000000 0.000000
vt 0.500000 1.000000
vt 0.000000 0.000000
vt 1.000000 0.000000
vt 0.000000 0.000000
vt 1.000000 0.000000
vt 1.000000 1.000000
vt 0.000000 1.000000
vt 0.500000 1.000000
vt 0.000000 0.000000
vt 1.000000 0.000000
vt 0.500000 1.000000
vt 0.000000 0.000000
vt 1.000000 0.000000
vt 0.000000 0.000000
vt 1.000000 0.000000
vt 1.000000 1.000000
vt 0.000000 1.000000
vt 0.500000 1.000000
vt 0.000000 0.000000
vt 1.000000 0.000000
vt 0.500000 1.000000
vt 0.000000 0.000000
vt 1.000000 0.000000
vt 0.000000 0.000000
vt 1.000000 0.000000
vt 1.000000 1.000000
vt 0.000000 1.000000
vt 0.500000 1.000000
vt 0.000000 0.000000
vt 1.000000 0.000000
vt 0.500000 1.000000
vt 0.000000 0.000000
vt 1.000000 0.000000
vt 0.000000 0.000000
vt 1.000000 0.000000
vt 1.000000 1.000000
vt 0.000000 1.000000
vt 0.500000 1.000000
vt 0.000000 0.000000
vt 1.000000 0.000000
vt 0.500000 1.000000
vt 0.000000 0.000000
vt 1.000000 0.000000
vt 0.000000 0.000000
vt 1.000000 0.000000
vt 1.000000 1.000000
vt 0.000000 1.000000
vt 0.500000 1.000000
vt 0.000000 0.000000
vt 1.000000 0.000000
vt 0.500000 1.000000
vt 0.000000 0.000000
vt 1.000000 0.000000
vt 0.000000 0.000000
vt 1.000000 0.000000
vt 1.000000 1.000000
vt 0.000000 1.000000
vt 0.500000 1.000000
vt 0.000000 0.000000
vt 1.000000 0.000000
vt 0.500000 1.000000
vt 0.000000 0.000000
vt 1.000000 0.000000
vt 0.000000 0.000000
vt 1.000000 0.000000
vt 1.000000 1.000000
vt 0.000000 1.000000
vt 0.500000 1.000000
vt 0.000000 0.000000
vt 1.000000 0.000000
vt 0.500000 1.000000
vt 0.000000 0.000000
vt 1.000000 0.000000
vt 0.000000 0.000000
vt 1.000000 0.000000
vt 1.000000 1.000000
vt 0.000000 1.000000
vt 0.500000 1.000000
vt 0.000000 0.000000
vt 1.000000 0.000000
vt 0.500000 1.000000
vt 0.000000 0.000000
vt 1.000000 0.000000
vt 0.000000 0.000000
vt 1.000000 0.000000
vt 1.000000 1.000000
vt 0.000000 1.000000
vt 0.500000 1.000000
vt 0.000000 0.000000
vt 1.000000 0.000000
vt 0.500000 1.000000
vt 0.000000 0.000000
vt 1.000000 0.000000
vt 0.000000 0.000000
vt 1.000000 0.000000
vt 1.000000 1.000000
vt 0.000000 1.000000
vt 0.500000 1.000000
vt 0.000000 0.000000
vt 1.000000 0.000000
vt 0.500000 1.000000
vt 0.000000 0.000000
vt 1.000000 0.000000
vt 0.000000 0.000000
vt 1.000000 0.000000
vt 1.000000 1.000000
vt 0.000000 1.000000
vt 0.500000 1.000000
vt 0.000000 0.000000
vt 1.000000 0.000000
vt 0.500000 1.000000
vt 0.000000 0.000000
vt 1.000000 0.000000
vt 0.000000 0.000000
vt 1.000000 0.000000
vt 1.000000 1.000000
vt 0.000000 1.000000
vt 0.500000 1.000000
vt 0.000000 0.000000
vt 1.000000 0.000000
vt 0.500000 1.000000
vt 0.000000 0.000000
vt 1.000000 0.000000
vt 0.000000 0.000000
vt 1.000000 0.000000
vt 1.000000 1.000000
vt 0.000000 1.000000
vt 0.500000 1.000000
vt 0.000000 0.000000
vt 1.000000 0.000000
vt 0.500000 1.000000
vt 0.000000 0.000000
vt 1.000000 0.000000
s 1
usemtl models/caelum/world/environment/rock_granite.png
f 1/1 2/2 3/3
f 4/4 5/5 6/6 7/7
f 8/8 9/9 10/10 11/11
f 12/12 13/13 14/14
f 15/15 16/16 17/17
f 18/18 19/19 20/20 21/21
f 22/22 23/23 24/24 25/25
f 26/26 27/27 28/28
f 29/29 30/30 31/31
f 32/32 33/33 34/34 35/35
f 36/36 37/37 38/38 39/39
f 40/40 41/41 42/42
f 43/43 44/44 45/45
f 46/46 47/47 48/48 49/49
f 50/50 51/51 52/52 53/53
f 54/54 55/55 56/56
f 57/57 58/58 59/59
f 60/60 61/61 62/62 63/63
f 64/64 65/65 66/66 67/67
f 68/68 69/69 70/70
f 71/71 72/72 73/73
f 74/74 75/75 76/76 77/77
f 78/78 79/79 80/80 81/81
f 82/82 83/83 84/84
f 85/85 86/86 87/87
f 88/88 89/89 90/90 91/91
f 92/92 93/93 94/94 95/95
f 96/96 97/97 98/98
f 99/99 100/100 101/101
f 102/102 103/103 104/104 105/105
f 106/106 107/107 108/108 109/109
f 110/110 111/111 112/112
f 113/113 114/114 115/115
f 116/116 117/117 118/118 119/119
f 120/120 121/121 122/122 123/123
f 124/124 125/125 126/126
f 127/127 128/128 129/129
f 130/130 131/131 132/132 133/133
f 134/134 135/135 136/136 137/137
f 138/138 139/139 140/140
usemtl models/caelum/world/resources/ca_vein_tin.png
f 141/141 142/142 143/143
f 144/144 145/145 146/146 147/147
f 148/148 149/149 150/150
f 151/151 152/152 153/153
f 154/154 155/155 156/156 157/157
f 158/158 159/159 160/160
f 161/161 162/162 163/163
f 164/164 165/165 166/166 167/167
f 168/168 169/169 170/170
f 171/171 172/172 173/173
f 174/174 175/175 176/176 177/177
f 178/178 179/179 180/180
f 181/181 182/182 183/183
f 184/184 185/185 186/186 187/187
f 188/188 189/189 190/190
f 191/191 192/192 193/193
f 194/194 195/195 196/196 197/197
f 198/198 199/199 200/200
f 201/201 202/202 203/203
f 204/204 205/205 206/206 207/207
f 208/208 209/209 210/210
f 211/211 212/212 213/213
f 214/214 215/215 216/216 217/217
f 218/218 219/219 220/220
f 221/221 222/222 223/223
f 224/224 225/225 226/226 227/227
f 228/228 229/229 230/230
f 231/231 232/232 233/233
f 234/234 235/235 236/236 237/237
f 238/238 239/239 240/240
f 241/241 242/242 243/243
f 244/244 245/245 246/246 247/247
f 248/248 249/249 250/250
f 251/251 252/252 253/253
f 254/254 255/255 256/256 257/257
f 258/258 259/259 260/260
f 261/261 262/262 263/263
f 264/264 265/265 266/266 267/267
f 268/268 269/269 270/270
f 271/271 272/272 273/273
f 274/274 275/275 276/276 277/277
f 278/278 279/279 280/280
f 281/281 282/282 283/283
f 284/284 285/285 286/286 287/287
f 288/288 289/289 290/290
f 291/291 292/292 293/293
f 294/294 295/295 296/296 297/297
f 298/298 299/299 300/300
f 301/301 302/302 303/303
f 304/304 305/305 306/306 307/307
f 308/308 309/309 310/310
f 311/311 312/312 313/313
f 314/314 315/315 316/316 317/317
f 318/318 319/319 320/320
f 321/321 322/322 323/323
f 324/324 325/325 326/326 327/327
f 328/328 329/329 330/330
f 331/331 332/332 333/333
f 334/334 335/335 336/336 337/337
f 338/338 339/339 340/340
f 341/341 342/342 343/343
f 344/344 345/345 346/346 347/347
f 348/348 349/349 350/350
f 351/351 352/352 353/353
f 354/354 355/355 356/356 357/357
f 358/358 359/359 360/360
f 361/361 362/362 363/363
f 364/364 365/365 366/366 367/367
f 368/368 369/369 370/370
f 371/371 372/372 373/373
f 374/374 375/375 376/376 377/377
f 378/378 379/379 380/380
f 381/381 382/382 383/383
f 384/384 385/385 386/386 387/387
f 388/388 389/389 390/390
f 391/391 392/392 393/393
f 394/394 395/395 396/396 397/397
f 398/398 399/399 400/400
f 401/401 402/402 403/403
f 404/404 405/405 406/406 407/407
f 408/408 409/409 410/410
f 411/411 412/412 413/413
f 414/414 415/415 416/416 417/417
f 418/418 419/419 420/420
f 421/421 422/422 423/423
f 424/424 425/425 426/426 427/427
f 428/428 429/429 430/430
f 431/431 432/432 433/433
f 434/434 435/435 436/436 437/437
f 438/438 439/439 440/440
f 441/441 442/442 443/443
f 444/444 445/445 446/446 447/447
f 448/448 449/449 450/450
f 451/451 452/452 453/453
f 454/454 455/455 456/456 457/457
f 458/458 459/459 460/460
f 461/461 462/462 463/463
f 464/464 465/465 466/466 467/467
f 468/468 469/469 470/470
f 471/471 472/472 473/473
f 474/474 475/475 476/476 477/477
f 478/478 479/479 480/480
f 481/481 482/482 483/483
f 484/484 485/485 486/486 487/487
f 488/488 489/489 490/490
f 491/491 492/492 493/493
f 494/494 495/495 496/496 497/497
f 498/498 499/499 500/500
f 501/501 502/502 503/503
f 504/504 505/505 506/506 507/507
f 508/508 509/509 510/510
f 511/511 512/512 513/513
f 514/514 515/515 516/516 517/517
f 518/518 519/519 520/520
f 521/521 522/522 523/523
f 524/524 525/525 526/526 527/527
f 528/528 529/529 530/530
f 531/531 532/532 533/533
f 534/534 535/535 536/536 537/537
f 538/538 539/539 540/540
f 541/541 542/542 543/543
f 544/544 545/545 546/546 547/547
f 548/548 549/549 550/550
f 551/551 552/552 553/553
f 554/554 555/555 556/556 557/557
f 558/558 559/559 560/560
f 561/561 562/562 563/563
f 564/564 565/565 566/566 567/567
f 568/568 569/569 570/570
f 571/571 572/572 573/573
f 574/574 575/575 576/576 577/577
f 578/578 579/579 580/580
f 581/581 582/582 583/583
f 584/584 585/585 586/586 587/587
f 588/588 589/589 590/590
f 591/591 592/592 593/593
f 594/594 595/595 596/596 597/597
f 598/598 599/599 600/600
f 601/601 602/602 603/603
f 604/604 605/605 606/606 607/607
f 608/608 609/609 610/610
f 611/611 612/612 613/613
f 614/614 615/615 616/616 617/617
f 618/618 619/619 620/620
f 621/621 622/622 623/623
f 624/624 625/625 626/626 627/627
f 628/628 629/629 630/630
f 631/631 632/632 633/633
f 634/634 635/635 636/636 637/637
f 638/638 639/639 640/640
f 641/641 642/642 643/643
f 644/644 645/645 646/646 647/647
f 648/648 649/649 650/650
f 651/651 652/652 653/653
f 654/654 655/655 656/656 657/657
f 658/658 659/659 660/660
f 661/661 662/662 663/663
f 664/664 665/665 666/666 667/667
f 668/668 669/669 670/670
f 671/671 672/672 673/673
f 674/674 675/675 676/676 677/677
f 678/678 679/679 680/680
f 681/681 682/682 683/683
f 684/684 685/685 686/686 687/687
f 688/688 689/689 690/690
f 691/691 692/692 693/693
f 694/694 695/695 696/696 697/697
f 698/698 699/699 700/700
f 701/701 702/702 703/703
f 704/704 705/705 706/706 707/707
f 708/708 709/709 710/710
f 711/711 712/712 713/713
f 714/714 715/715 716/716 717/717
f 718/718 719/719 720/720
f 721/721 722/722 723/723
f 724/724 725/725 726/726 727/727
f 728/728 729/729 730/730
f 731/731 732/732 733/733
f 734/734 735/735 736/736 737/737
f 738/738 739/739 740/740
f 741/741 742/742 743/743
f 744/744 745/745 746/746 747/747
f 748/748 749/749 750/750
f 751/751 752/752 753/753
f 754/754 755/755 756/756 757/757
f 758/758 759/759 760/760
f 761/761 762/762 763/763
f 764/764 765/765 766/766 767/767
f 768/768 769/769 770/770
f 771/771 772/772 773/773 774/774
f 775/775 776/776 777/777
f 778/778 779/779 780/780
f 781/781 782/782 783/783 784/784
f 785/785 786/786 787/787
f 788/788 789/789 790/790
f 791/791 792/792 793/793 794/794
f 795/795 796/796 797/797
f 798/798 799/799 800/800
f 801/801 802/802 803/803 804/804
f 805/805 806/806 807/807
f 808/808 809/809 810/810
f 811/811 812/812 813/813 814/814
f 815/815 816/816 817/817
f 818/818 819/819 820/820
f 821/821 822/822 823/823 824/824
f 825/825 826/826 827/827
f 828/828 829/829 830/830
f 831/831 832/832 833/833 834/834
f 835/835 836/836 837/837
f 838/838 839/839 840/840
f 841/841 842/842 843/843 844/844
f 845/845 846/846 847/847
f 848/848 849/849 850/850
f 851/851 852/852 853/853 854/854
f 855/855 856/856 857/857
f 858/858 859/859 860/860
f 861/861 862/862 863/863 864/864
f 865/865 866/866 867/867
f 868/868 869/869 870/870
f 871/871 872/872 873/873 874/874
f 875/875 876/876 877/877
f 878/878 879/879 880/880
f 881/881 882/882 883/883 884/884
f 885/885 886/886 887/887
f 888/888 889/889 890/890
f 891/891 892/892 893/893 894/894
f 895/895 896/896 897/897
f 898/898 899/899 900/900
f 901/901 902/902 903/903 904/904
f 905/905 906/906 907/907
f 908/908 909/909 910/910
f 911/911 912/912 913/913 914/914
f 915/915 916/916 917/917
f 918/918 919/919 920/920
f 921/921 922/922 923/923 924/924
f 925/925 926/926 927/927
f 928/928 929/929 930/930
f 931/931 932/932 933/933 934/934
f 935/935 936/936 937/937
f 938/938 939/939 940/940
f 941/941 942/942 943/943 944/944
f 945/945 946/946 947/947
f 948/948 949/949 950/950
