# Modelo original generado para Caelum Argenteum.
# Ejes OBJ: X ancho, Y altura, Z profundidad.
o ca_vein_sapphire2
v 0.000000 0.000000 0.000000
v 38.141445 -0.713687 0.000000
v 29.733491 -0.952387 18.656830
v 38.141445 -0.713687 0.000000
v 41.680031 14.359231 0.000000
v 35.001644 16.306758 21.962431
v 29.733491 -0.952387 18.656830
v 41.680031 14.359231 0.000000
v 31.215886 31.171397 0.000000
v 22.956938 31.581024 14.404757
v 35.001644 16.306758 21.962431
v 4.126031 47.000000 4.111409
v 22.956938 31.581024 14.404757
v 31.215886 31.171397 0.000000
v 0.000000 0.000000 0.000000
v 29.733491 -0.952387 18.656830
v 10.577224 0.062814 28.114256
v 29.733491 -0.952387 18.656830
v 35.001644 16.306758 21.962431
v 13.885651 14.197690 36.908051
v 10.577224 0.062814 28.114256
v 35.001644 16.306758 21.962431
v 22.956938 31.581024 14.404757
v 8.258959 33.524793 21.952309
v 13.885651 14.197690 36.908051
v 4.126031 47.000000 4.111409
v 8.258959 33.524793 21.952309
v 22.956938 31.581024 14.404757
v 0.000000 0.000000 0.000000
v 10.577224 0.062814 28.114256
v -9.555706 -0.781421 25.399061
v 10.577224 0.062814 28.114256
v 13.885651 14.197690 36.908051
v -14.482180 16.052606 38.493626
v -9.555706 -0.781421 25.399061
v 13.885651 14.197690 36.908051
v 8.258959 33.524793 21.952309
v -9.465331 31.310973 25.158844
v -14.482180 16.052606 38.493626
v 4.126031 47.000000 4.111409
v -9.465331 31.310973 25.158844
v 8.258959 33.524793 21.952309
v 0.000000 0.000000 0.000000
v -9.555706 -0.781421 25.399061
v -34.688693 1.016196 21.766064
v -9.555706 -0.781421 25.399061
v -14.482180 16.052606 38.493626
v -35.904391 15.672376 22.528876
v -34.688693 1.016196 21.766064
v -14.482180 16.052606 38.493626
v -9.465331 31.310973 25.158844
v -22.744339 31.511171 14.271357
v -35.904391 15.672376 22.528876
v 4.126031 47.000000 4.111409
v -22.744339 31.511171 14.271357
v -9.465331 31.310973 25.158844
v 0.000000 0.000000 0.000000
v -34.688693 1.016196 21.766064
v -42.011695 1.495462 0.000000
v -34.688693 1.016196 21.766064
v -35.904391 15.672376 22.528876
v -48.895261 14.693977 0.000000
v -42.011695 1.495462 0.000000
v -35.904391 15.672376 22.528876
v -22.744339 31.511171 14.271357
v -30.606342 32.270207 0.000000
v -48.895261 14.693977 0.000000
v 4.126031 47.000000 4.111409
v -30.606342 32.270207 0.000000
v -22.744339 31.511171 14.271357
v 0.000000 0.000000 0.000000
v -42.011695 1.495462 0.000000
v -24.862311 0.561167 -15.600318
v -42.011695 1.495462 0.000000
v -48.895261 14.693977 0.000000
v -38.081407 14.493942 -23.894885
v -24.862311 0.561167 -15.600318
v -48.895261 14.693977 0.000000
v -30.606342 32.270207 0.000000
v -24.991384 31.411694 -15.681308
v -38.081407 14.493942 -23.894885
v 4.126031 47.000000 4.111409
v -24.991384 31.411694 -15.681308
v -30.606342 32.270207 0.000000
v 0.000000 0.000000 0.000000
v -24.862311 0.561167 -15.600318
v -9.650993 0.633295 -25.652334
v -24.862311 0.561167 -15.600318
v -38.081407 14.493942 -23.894885
v -11.524681 13.572520 -30.632595
v -9.650993 0.633295 -25.652334
v -38.081407 14.493942 -23.894885
v -24.991384 31.411694 -15.681308
v -8.920500 32.450092 -23.710685
v -11.524681 13.572520 -30.632595
v 4.126031 47.000000 4.111409
v -8.920500 32.450092 -23.710685
v -24.991384 31.411694 -15.681308
v 0.000000 0.000000 0.000000
v -9.650993 0.633295 -25.652334
v 9.698928 0.387949 -25.779746
v -9.650993 0.633295 -25.652334
v -11.524681 13.572520 -30.632595
v 11.215446 14.950157 -29.810650
v 9.698928 0.387949 -25.779746
v -11.524681 13.572520 -30.632595
v -8.920500 32.450092 -23.710685
v 11.726925 30.822083 -31.170159
v 11.215446 14.950157 -29.810650
v 4.126031 47.000000 4.111409
v 11.726925 30.822083 -31.170159
v -8.920500 32.450092 -23.710685
v 0.000000 0.000000 0.000000
v 9.698928 0.387949 -25.779746
v 33.795091 1.068069 -21.205357
v 9.698928 0.387949 -25.779746
v 11.215446 14.950157 -29.810650
v 33.185383 16.567914 -20.822784
v 33.795091 1.068069 -21.205357
v 11.215446 14.950157 -29.810650
v 11.726925 30.822083 -31.170159
v 24.171159 30.984906 -15.166642
v 33.185383 16.567914 -20.822784
v 4.126031 47.000000 4.111409
v 24.171159 30.984906 -15.166642
v 11.726925 30.822083 -31.170159
v 0.000000 0.000000 0.000000
v 33.795091 1.068069 -21.205357
v 38.141445 -0.713687 0.000000
v 33.795091 1.068069 -21.205357
v 33.185383 16.567914 -20.822784
v 41.680031 14.359231 0.000000
v 38.141445 -0.713687 0.000000
v 33.185383 16.567914 -20.822784
v 24.171159 30.984906 -15.166642
v 31.215886 31.171397 0.000000
v 41.680031 14.359231 0.000000
v 4.126031 47.000000 4.111409
v 31.215886 31.171397 0.000000
v 24.171159 30.984906 -15.166642
v 13.933908 28.166615 -4.769696
v 9.346740 27.848589 -2.100360
v 11.492857 51.866779 -0.397689
v 11.881101 51.893696 -0.623614
v 13.933908 28.328552 0.544660
v 9.346740 27.848589 -2.100360
v 13.933908 28.166615 -4.769696
v 11.881101 51.907401 -0.173822
v 11.881101 51.893696 -0.623614
v 11.492857 51.866779 -0.397689
v 9.346740 27.848589 -2.100360
v 9.346740 28.010525 3.213996
v 11.492857 51.880485 0.052102
v 11.492857 51.866779 -0.397689
v 13.933908 28.328552 0.544660
v 9.346740 28.010525 3.213996
v 9.346740 27.848589 -2.100360
v 11.881101 51.907401 -0.173822
v 11.492857 51.866779 -0.397689
v 11.492857 51.880485 0.052102
v 9.346740 28.010525 3.213996
v 13.933908 28.490488 5.859016
v 11.881101 51.921107 0.275969
v 11.492857 51.880485 0.052102
v 13.933908 28.328552 0.544660
v 13.933908 28.490488 5.859016
v 9.346740 28.010525 3.213996
v 11.881101 51.907401 -0.173822
v 11.492857 51.880485 0.052102
v 11.881101 51.921107 0.275969
v 13.933908 28.490488 5.859016
v 18.521076 28.808514 3.189680
v 12.269345 51.948024 0.050044
v 11.881101 51.921107 0.275969
v 13.933908 28.328552 0.544660
v 18.521076 28.808514 3.189680
v 13.933908 28.490488 5.859016
v 11.881101 51.907401 -0.173822
v 11.881101 51.921107 0.275969
v 12.269345 51.948024 0.050044
v 18.521076 28.808514 3.189680
v 18.521076 28.646578 -2.124676
v 12.269345 51.934318 -0.399747
v 12.269345 51.948024 0.050044
v 13.933908 28.328552 0.544660
v 18.521076 28.646578 -2.124676
v 18.521076 28.808514 3.189680
v 11.881101 51.907401 -0.173822
v 12.269345 51.948024 0.050044
v 12.269345 51.934318 -0.399747
v 18.521076 28.646578 -2.124676
v 13.933908 28.166615 -4.769696
v 11.881101 51.893696 -0.623614
v 12.269345 51.934318 -0.399747
v 13.933908 28.328552 0.544660
v 13.933908 28.166615 -4.769696
v 18.521076 28.646578 -2.124676
v 11.881101 51.907401 -0.173822
v 12.269345 51.934318 -0.399747
v 11.881101 51.893696 -0.623614
v 9.202332 33.786611 1.951691
v 3.974926 34.201679 6.344879
v 13.729602 67.196291 9.858675
v 14.073464 67.168987 9.569688
v 10.352452 33.392181 8.683689
v 3.974926 34.201679 6.344879
v 9.202332 33.786611 1.951691
v 14.149120 67.143042 10.012523
v 14.073464 67.168987 9.569688
v 13.729602 67.196291 9.858675
v 3.974926 34.201679 6.344879
v 5.125046 33.807250 13.076877
v 13.805258 67.170345 10.301510
v 13.729602 67.196291 9.858675
v 10.352452 33.392181 8.683689
v 5.125046 33.807250 13.076877
v 3.974926 34.201679 6.344879
v 14.149120 67.143042 10.012523
v 13.729602 67.196291 9.858675
v 13.805258 67.170345 10.301510
v 5.125046 33.807250 13.076877
v 11.502571 32.997752 15.415687
v 14.224776 67.117096 10.455358
v 13.805258 67.170345 10.301510
v 10.352452 33.392181 8.683689
v 11.502571 32.997752 15.415687
v 5.125046 33.807250 13.076877
v 14.149120 67.143042 10.012523
v 13.805258 67.170345 10.301510
v 14.224776 67.117096 10.455358
v 11.502571 32.997752 15.415687
v 16.729977 32.582684 11.022500
v 14.568638 67.089792 10.166372
v 14.224776 67.117096 10.455358
v 10.352452 33.392181 8.683689
v 16.729977 32.582684 11.022500
v 11.502571 32.997752 15.415687
v 14.149120 67.143042 10.012523
v 14.224776 67.117096 10.455358
v 14.568638 67.089792 10.166372
v 16.729977 32.582684 11.022500
v 15.579857 32.977113 4.290502
v 14.492982 67.115738 9.723536
v 14.568638 67.089792 10.166372
v 10.352452 33.392181 8.683689
v 15.579857 32.977113 4.290502
v 16.729977 32.582684 11.022500
v 14.149120 67.143042 10.012523
v 14.568638 67.089792 10.166372
v 14.492982 67.115738 9.723536
v 15.579857 32.977113 4.290502
v 9.202332 33.786611 1.951691
v 14.073464 67.168987 9.569688
v 14.492982 67.115738 9.723536
v 10.352452 33.392181 8.683689
v 9.202332 33.786611 1.951691
v 15.579857 32.977113 4.290502
v 14.149120 67.143042 10.012523
v 14.492982 67.115738 9.723536
v 14.073464 67.168987 9.569688
v -2.279237 23.271544 16.756658
v -5.926836 22.990088 21.078938
v -5.034531 55.474793 20.532637
v -4.744667 55.497159 20.189157
v -0.406963 23.763947 22.078164
v -5.926836 22.990088 21.078938
v -2.279237 23.271544 16.756658
v -4.595882 55.536289 20.612043
v -4.744667 55.497159 20.189157
v -5.034531 55.474793 20.532637
v -5.926836 22.990088 21.078938
v -4.054562 23.482491 26.400444
v -4.885747 55.513923 20.955522
v -5.034531 55.474793 20.532637
v -0.406963 23.763947 22.078164
v -4.054562 23.482491 26.400444
v -5.926836 22.990088 21.078938
v -4.595882 55.536289 20.612043
v -5.034531 55.474793 20.532637
v -4.885747 55.513923 20.955522
v -4.054562 23.482491 26.400444
v 1.465310 24.256349 27.399671
v -4.447098 55.575419 21.034928
v -4.885747 55.513923 20.955522
v -0.406963 23.763947 22.078164
v 1.465310 24.256349 27.399671
v -4.054562 23.482491 26.400444
v -4.595882 55.536289 20.612043
v -4.885747 55.513923 20.955522
v -4.447098 55.575419 21.034928
v 1.465310 24.256349 27.399671
v 5.112909 24.537805 23.077391
v -4.157233 55.597786 20.691448
v -4.447098 55.575419 21.034928
v -0.406963 23.763947 22.078164
v 5.112909 24.537805 23.077391
v 1.465310 24.256349 27.399671
v -4.595882 55.536289 20.612043
v -4.447098 55.575419 21.034928
v -4.157233 55.597786 20.691448
v 5.112909 24.537805 23.077391
v 3.240636 24.045402 17.755884
v -4.306018 55.558656 20.268563
v -4.157233 55.597786 20.691448
v -0.406963 23.763947 22.078164
v 3.240636 24.045402 17.755884
v 5.112909 24.537805 23.077391
v -4.595882 55.536289 20.612043
v -4.157233 55.597786 20.691448
v -4.306018 55.558656 20.268563
v 3.240636 24.045402 17.755884
v -2.279237 23.271544 16.756658
v -4.744667 55.497159 20.189157
v -4.306018 55.558656 20.268563
v -0.406963 23.763947 22.078164
v -2.279237 23.271544 16.756658
v 3.240636 24.045402 17.755884
v -4.595882 55.536289 20.612043
v -4.306018 55.558656 20.268563
v -4.744667 55.497159 20.189157
v -27.483175 26.791592 1.473280
v -30.858791 26.765724 7.141883
v -25.177193 51.862855 7.062201
v -24.946954 51.864619 6.675565
v -24.262925 26.888911 7.230801
v -30.858791 26.765724 7.141883
v -27.483175 26.791592 1.473280
v -24.727312 51.871257 7.068265
v -24.946954 51.864619 6.675565
v -25.177193 51.862855 7.062201
v -30.858791 26.765724 7.141883
v -27.638542 26.863043 12.899404
v -24.957551 51.869492 7.454901
v -25.177193 51.862855 7.062201
v -24.262925 26.888911 7.230801
v -27.638542 26.863043 12.899404
v -30.858791 26.765724 7.141883
v -24.727312 51.871257 7.068265
v -25.177193 51.862855 7.062201
v -24.957551 51.869492 7.454901
v -27.638542 26.863043 12.899404
v -21.042676 26.986229 12.988322
v -24.507670 51.877895 7.460965
v -24.957551 51.869492 7.454901
v -24.262925 26.888911 7.230801
v -21.042676 26.986229 12.988322
v -27.638542 26.863043 12.899404
v -24.727312 51.871257 7.068265
v -24.957551 51.869492 7.454901
v -24.507670 51.877895 7.460965
v -21.042676 26.986229 12.988322
v -17.667060 27.012097 7.319718
v -24.277431 51.879659 7.074330
v -24.507670 51.877895 7.460965
v -24.262925 26.888911 7.230801
v -17.667060 27.012097 7.319718
v -21.042676 26.986229 12.988322
v -24.727312 51.871257 7.068265
v -24.507670 51.877895 7.460965
v -24.277431 51.879659 7.074330
v -17.667060 27.012097 7.319718
v -20.887309 26.914779 1.562197
v -24.497073 51.873021 6.681630
v -24.277431 51.879659 7.074330
v -24.262925 26.888911 7.230801
v -20.887309 26.914779 1.562197
v -17.667060 27.012097 7.319718
v -24.727312 51.871257 7.068265
v -24.277431 51.879659 7.074330
v -24.497073 51.873021 6.681630
v -20.887309 26.914779 1.562197
v -27.483175 26.791592 1.473280
v -24.946954 51.864619 6.675565
v -24.497073 51.873021 6.681630
v -24.262925 26.888911 7.230801
v -27.483175 26.791592 1.473280
v -20.887309 26.914779 1.562197
v -24.727312 51.871257 7.068265
v -24.497073 51.873021 6.681630
v -24.946954 51.864619 6.675565
v -15.396150 30.527780 -10.604485
v -17.522367 30.529142 -5.076551
v -11.876494 64.225103 -5.845079
v -11.714948 64.224999 -6.265082
v -11.672066 30.489805 -5.999204
v -17.522367 30.529142 -5.076551
v -15.396150 30.527780 -10.604485
v -11.431998 64.222114 -5.915180
v -11.714948 64.224999 -6.265082
v -11.876494 64.225103 -5.845079
v -17.522367 30.529142 -5.076551
v -13.798283 30.491167 -0.471270
v -11.593545 64.222217 -5.495177
v -11.876494 64.225103 -5.845079
v -11.672066 30.489805 -5.999204
v -13.798283 30.491167 -0.471270
v -17.522367 30.529142 -5.076551
v -11.431998 64.222114 -5.915180
v -11.876494 64.225103 -5.845079
v -11.593545 64.222217 -5.495177
v -13.798283 30.491167 -0.471270
v -7.947983 30.451830 -1.393923
v -11.149048 64.219229 -5.565279
v -11.593545 64.222217 -5.495177
v -11.672066 30.489805 -5.999204
v -7.947983 30.451830 -1.393923
v -13.798283 30.491167 -0.471270
v -11.431998 64.222114 -5.915180
v -11.593545 64.222217 -5.495177
v -11.149048 64.219229 -5.565279
v -7.947983 30.451830 -1.393923
v -5.821765 30.450467 -6.921857
v -10.987502 64.219125 -5.985282
v -11.149048 64.219229 -5.565279
v -11.672066 30.489805 -5.999204
v -5.821765 30.450467 -6.921857
v -7.947983 30.451830 -1.393923
v -11.431998 64.222114 -5.915180
v -11.149048 64.219229 -5.565279
v -10.987502 64.219125 -5.985282
v -5.821765 30.450467 -6.921857
v -9.545849 30.488442 -11.527138
v -11.270452 64.222010 -6.335184
v -10.987502 64.219125 -5.985282
v -11.672066 30.489805 -5.999204
v -9.545849 30.488442 -11.527138
v -5.821765 30.450467 -6.921857
v -11.431998 64.222114 -5.915180
v -10.987502 64.219125 -5.985282
v -11.270452 64.222010 -6.335184
v -9.545849 30.488442 -11.527138
v -15.396150 30.527780 -10.604485
v -11.714948 64.224999 -6.265082
v -11.270452 64.222010 -6.335184
v -11.672066 30.489805 -5.999204
v -15.396150 30.527780 -10.604485
v -9.545849 30.488442 -11.527138
v -11.431998 64.222114 -5.915180
v -11.270452 64.222010 -6.335184
v -11.714948 64.224999 -6.265082
v -4.173178 30.043237 -18.632313
v -4.886311 30.134435 -15.014199
v -6.092362 56.250414 -17.561277
v -6.005368 56.239289 -18.002648
v -1.438604 30.632783 -16.227700
v -4.886311 30.134435 -15.014199
v -4.173178 30.043237 -18.632313
v -5.671779 56.311207 -17.709311
v -6.005368 56.239289 -18.002648
v -6.092362 56.250414 -17.561277
v -4.886311 30.134435 -15.014199
v -2.151738 30.723981 -12.609587
v -5.758774 56.322332 -17.267941
v -6.092362 56.250414 -17.561277
v -1.438604 30.632783 -16.227700
v -2.151738 30.723981 -12.609587
v -4.886311 30.134435 -15.014199
v -5.671779 56.311207 -17.709311
v -6.092362 56.250414 -17.561277
v -5.758774 56.322332 -17.267941
v -2.151738 30.723981 -12.609587
v 1.295969 31.222330 -13.823088
v -5.338191 56.383126 -17.415975
v -5.758774 56.322332 -17.267941
v -1.438604 30.632783 -16.227700
v 1.295969 31.222330 -13.823088
v -2.151738 30.723981 -12.609587
v -5.671779 56.311207 -17.709311
v -5.758774 56.322332 -17.267941
v -5.338191 56.383126 -17.415975
v 1.295969 31.222330 -13.823088
v 2.009103 31.131132 -17.441201
v -5.251196 56.372000 -17.857345
v -5.338191 56.383126 -17.415975
v -1.438604 30.632783 -16.227700
v 2.009103 31.131132 -17.441201
v 1.295969 31.222330 -13.823088
v -5.671779 56.311207 -17.709311
v -5.338191 56.383126 -17.415975
v -5.251196 56.372000 -17.857345
v 2.009103 31.131132 -17.441201
v -0.725471 30.541585 -19.845813
v -5.584785 56.300082 -18.150682
v -5.251196 56.372000 -17.857345
v -1.438604 30.632783 -16.227700
v -0.725471 30.541585 -19.845813
v 2.009103 31.131132 -17.441201
v -5.671779 56.311207 -17.709311
v -5.251196 56.372000 -17.857345
v -5.584785 56.300082 -18.150682
v -0.725471 30.541585 -19.845813
v -4.173178 30.043237 -18.632313
v -6.005368 56.239289 -18.002648
v -5.584785 56.300082 -18.150682
v -1.438604 30.632783 -16.227700
v -4.173178 30.043237 -18.632313
v -0.725471 30.541585 -19.845813
v -5.671779 56.311207 -17.709311
v -5.584785 56.300082 -18.150682
v -6.005368 56.239289 -18.002648
v 4.187818 26.286323 -18.377094
v 4.067923 26.331168 -13.967891
v 6.402466 62.815033 -16.256842
v 6.414698 62.810458 -16.706652
v 7.944655 26.430132 -16.069940
v 4.067923 26.331168 -13.967891
v 4.187818 26.286323 -18.377094
v 6.797956 62.825129 -16.471285
v 6.414698 62.810458 -16.706652
v 6.402466 62.815033 -16.256842
v 4.067923 26.331168 -13.967891
v 7.824759 26.474976 -11.660737
v 6.785725 62.829704 -16.021474
v 6.402466 62.815033 -16.256842
v 7.944655 26.430132 -16.069940
v 7.824759 26.474976 -11.660737
v 4.067923 26.331168 -13.967891
v 6.797956 62.825129 -16.471285
v 6.402466 62.815033 -16.256842
v 6.785725 62.829704 -16.021474
v 7.824759 26.474976 -11.660737
v 11.701491 26.573940 -13.762787
v 7.181215 62.839800 -16.235918
v 6.785725 62.829704 -16.021474
v 7.944655 26.430132 -16.069940
v 11.701491 26.573940 -13.762787
v 7.824759 26.474976 -11.660737
v 6.797956 62.825129 -16.471285
v 6.785725 62.829704 -16.021474
v 7.181215 62.839800 -16.235918
v 11.701491 26.573940 -13.762787
v 11.821387 26.529096 -18.171990
v 7.193446 62.835225 -16.685728
v 7.181215 62.839800 -16.235918
v 7.944655 26.430132 -16.069940
v 11.821387 26.529096 -18.171990
v 11.701491 26.573940 -13.762787
v 6.797956 62.825129 -16.471285
v 7.181215 62.839800 -16.235918
v 7.193446 62.835225 -16.685728
v 11.821387 26.529096 -18.171990
v 8.064550 26.385287 -20.479144
v 6.810188 62.820554 -16.921095
v 7.193446 62.835225 -16.685728
v 7.944655 26.430132 -16.069940
v 8.064550 26.385287 -20.479144
v 11.821387 26.529096 -18.171990
v 6.797956 62.825129 -16.471285
v 7.193446 62.835225 -16.685728
v 6.810188 62.820554 -16.921095
v 8.064550 26.385287 -20.479144
v 4.187818 26.286323 -18.377094
v 6.414698 62.810458 -16.706652
v 6.810188 62.820554 -16.921095
v 7.944655 26.430132 -16.069940
v 4.187818 26.286323 -18.377094
v 8.064550 26.385287 -20.479144
v 6.797956 62.825129 -16.471285
v 6.810188 62.820554 -16.921095
v 6.414698 62.810458 -16.706652
vt 0.500000 1.000000
vt 0.000000 0.000000
vt 1.000000 0.000000
vt 0.000000 0.000000
vt 1.000000 0.000000
vt 1.000000 1.000000
vt 0.000000 1.000000
vt 0.000000 0.000000
vt 1.000000 0.000000
vt 1.000000 1.000000
vt 0.000000 1.000000
vt 0.500000 1.000000
vt 0.000000 0.000000
vt 1.000000 0.000000
vt 0.500000 1.000000
vt 0.000000 0.000000
vt 1.000000 0.000000
vt 0.000000 0.000000
vt 1.000000 0.000000
vt 1.000000 1.000000
vt 0.000000 1.000000
vt 0.000000 0.000000
vt 1.000000 0.000000
vt 1.000000 1.000000
vt 0.000000 1.000000
vt 0.500000 1.000000
vt 0.000000 0.000000
vt 1.000000 0.000000
vt 0.500000 1.000000
vt 0.000000 0.000000
vt 1.000000 0.000000
vt 0.000000 0.000000
vt 1.000000 0.000000
vt 1.000000 1.000000
vt 0.000000 1.000000
vt 0.000000 0.000000
vt 1.000000 0.000000
vt 1.000000 1.000000
vt 0.000000 1.000000
vt 0.500000 1.000000
vt 0.000000 0.000000
vt 1.000000 0.000000
vt 0.500000 1.000000
vt 0.000000 0.000000
vt 1.000000 0.000000
vt 0.000000 0.000000
vt 1.000000 0.000000
vt 1.000000 1.000000
vt 0.000000 1.000000
vt 0.000000 0.000000
vt 1.000000 0.000000
vt 1.000000 1.000000
vt 0.000000 1.000000
vt 0.500000 1.000000
vt 0.000000 0.000000
vt 1.000000 0.000000
vt 0.500000 1.000000
vt 0.000000 0.000000
vt 1.000000 0.000000
vt 0.000000 0.000000
vt 1.000000 0.000000
vt 1.000000 1.000000
vt 0.000000 1.000000
vt 0.000000 0.000000
vt 1.000000 0.000000
vt 1.000000 1.000000
vt 0.000000 1.000000
vt 0.500000 1.000000
vt 0.000000 0.000000
vt 1.000000 0.000000
vt 0.500000 1.000000
vt 0.000000 0.000000
vt 1.000000 0.000000
vt 0.000000 0.000000
vt 1.000000 0.000000
vt 1.000000 1.000000
vt 0.000000 1.000000
vt 0.000000 0.000000
vt 1.000000 0.000000
vt 1.000000 1.000000
vt 0.000000 1.000000
vt 0.500000 1.000000
vt 0.000000 0.000000
vt 1.000000 0.000000
vt 0.500000 1.000000
vt 0.000000 0.000000
vt 1.000000 0.000000
vt 0.000000 0.000000
vt 1.000000 0.000000
vt 1.000000 1.000000
vt 0.000000 1.000000
vt 0.000000 0.000000
vt 1.000000 0.000000
vt 1.000000 1.000000
vt 0.000000 1.000000
vt 0.500000 1.000000
vt 0.000000 0.000000
vt 1.000000 0.000000
vt 0.500000 1.000000
vt 0.000000 0.000000
vt 1.000000 0.000000
vt 0.000000 0.000000
vt 1.000000 0.000000
vt 1.000000 1.000000
vt 0.000000 1.000000
vt 0.000000 0.000000
vt 1.000000 0.000000
vt 1.000000 1.000000
vt 0.000000 1.000000
vt 0.500000 1.000000
vt 0.000000 0.000000
vt 1.000000 0.000000
vt 0.500000 1.000000
vt 0.000000 0.000000
vt 1.000000 0.000000
vt 0.000000 0.000000
vt 1.000000 0.000000
vt 1.000000 1.000000
vt 0.000000 1.000000
vt 0.000000 0.000000
vt 1.000000 0.000000
vt 1.000000 1.000000
vt 0.000000 1.000000
vt 0.500000 1.000000
vt 0.000000 0.000000
vt 1.000000 0.000000
vt 0.500000 1.000000
vt 0.000000 0.000000
vt 1.000000 0.000000
vt 0.000000 0.000000
vt 1.000000 0.000000
vt 1.000000 1.000000
vt 0.000000 1.000000
vt 0.000000 0.000000
vt 1.000000 0.000000
vt 1.000000 1.000000
vt 0.000000 1.000000
vt 0.500000 1.000000
vt 0.000000 0.000000
vt 1.000000 0.000000
vt 0.000000 0.000000
vt 1.000000 0.000000
vt 1.000000 1.000000
vt 0.000000 1.000000
vt 0.500000 1.000000
vt 0.000000 0.000000
vt 1.000000 0.000000
vt 0.500000 1.000000
vt 0.000000 0.000000
vt 1.000000 0.000000
vt 0.000000 0.000000
vt 1.000000 0.000000
vt 1.000000 1.000000
vt 0.000000 1.000000
vt 0.500000 1.000000
vt 0.000000 0.000000
vt 1.000000 0.000000
vt 0.500000 1.000000
vt 0.000000 0.000000
vt 1.000000 0.000000
vt 0.000000 0.000000
vt 1.000000 0.000000
vt 1.000000 1.000000
vt 0.000000 1.000000
vt 0.500000 1.000000
vt 0.000000 0.000000
vt 1.000000 0.000000
vt 0.500000 1.000000
vt 0.000000 0.000000
vt 1.000000 0.000000
vt 0.000000 0.000000
vt 1.000000 0.000000
vt 1.000000 1.000000
vt 0.000000 1.000000
vt 0.500000 1.000000
vt 0.000000 0.000000
vt 1.000000 0.000000
vt 0.500000 1.000000
vt 0.000000 0.000000
vt 1.000000 0.000000
vt 0.000000 0.000000
vt 1.000000 0.000000
vt 1.000000 1.000000
vt 0.000000 1.000000
vt 0.500000 1.000000
vt 0.000000 0.000000
vt 1.000000 0.000000
vt 0.500000 1.000000
vt 0.000000 0.000000
vt 1.000000 0.000000
vt 0.000000 0.000000
vt 1.000000 0.000000
vt 1.000000 1.000000
vt 0.000000 1.000000
vt 0.500000 1.000000
vt 0.000000 0.000000
vt 1.000000 0.000000
vt 0.500000 1.000000
vt 0.000000 0.000000
vt 1.000000 0.000000
vt 0.000000 0.000000
vt 1.000000 0.000000
vt 1.000000 1.000000
vt 0.000000 1.000000
vt 0.500000 1.000000
vt 0.000000 0.000000
vt 1.000000 0.000000
vt 0.500000 1.000000
vt 0.000000 0.000000
vt 1.000000 0.000000
vt 0.000000 0.000000
vt 1.000000 0.000000
vt 1.000000 1.000000
vt 0.000000 1.000000
vt 0.500000 1.000000
vt 0.000000 0.000000
vt 1.000000 0.000000
vt 0.500000 1.000000
vt 0.000000 0.000000
vt 1.000000 0.000000
vt 0.000000 0.000000
vt 1.000000 0.000000
vt 1.000000 1.000000
vt 0.000000 1.000000
vt 0.500000 1.000000
vt 0.000000 0.000000
vt 1.000000 0.000000
vt 0.500000 1.000000
vt 0.000000 0.000000
vt 1.000000 0.000000
vt 0.000000 0.000000
vt 1.000000 0.000000
vt 1.000000 1.000000
vt 0.000000 1.000000
vt 0.500000 1.000000
vt 0.000000 0.000000
vt 1.000000 0.000000
vt 0.500000 1.000000
vt 0.000000 0.000000
vt 1.000000 0.000000
vt 0.000000 0.000000
vt 1.000000 0.000000
vt 1.000000 1.000000
vt 0.000000 1.000000
vt 0.500000 1.000000
vt 0.000000 0.000000
vt 1.000000 0.000000
vt 0.500000 1.000000
vt 0.000000 0.000000
vt 1.000000 0.000000
vt 0.000000 0.000000
vt 1.000000 0.000000
vt 1.000000 1.000000
vt 0.000000 1.000000
vt 0.500000 1.000000
vt 0.000000 0.000000
vt 1.000000 0.000000
vt 0.500000 1.000000
vt 0.000000 0.000000
vt 1.000000 0.000000
vt 0.000000 0.000000
vt 1.000000 0.000000
vt 1.000000 1.000000
vt 0.000000 1.000000
vt 0.500000 1.000000
vt 0.000000 0.000000
vt 1.000000 0.000000
vt 0.500000 1.000000
vt 0.000000 0.000000
vt 1.000000 0.000000
vt 0.000000 0.000000
vt 1.000000 0.000000
vt 1.000000 1.000000
vt 0.000000 1.000000
vt 0.500000 1.000000
vt 0.000000 0.000000
vt 1.000000 0.000000
vt 0.500000 1.000000
vt 0.000000 0.000000
vt 1.000000 0.000000
vt 0.000000 0.000000
vt 1.000000 0.000000
vt 1.000000 1.000000
vt 0.000000 1.000000
vt 0.500000 1.000000
vt 0.000000 0.000000
vt 1.000000 0.000000
vt 0.500000 1.000000
vt 0.000000 0.000000
vt 1.000000 0.000000
vt 0.000000 0.000000
vt 1.000000 0.000000
vt 1.000000 1.000000
vt 0.000000 1.000000
vt 0.500000 1.000000
vt 0.000000 0.000000
vt 1.000000 0.000000
vt 0.500000 1.000000
vt 0.000000 0.000000
vt 1.000000 0.000000
vt 0.000000 0.000000
vt 1.000000 0.000000
vt 1.000000 1.000000
vt 0.000000 1.000000
vt 0.500000 1.000000
vt 0.000000 0.000000
vt 1.000000 0.000000
vt 0.500000 1.000000
vt 0.000000 0.000000
vt 1.000000 0.000000
vt 0.000000 0.000000
vt 1.000000 0.000000
vt 1.000000 1.000000
vt 0.000000 1.000000
vt 0.500000 1.000000
vt 0.000000 0.000000
vt 1.000000 0.000000
vt 0.500000 1.000000
vt 0.000000 0.000000
vt 1.000000 0.000000
vt 0.000000 0.000000
vt 1.000000 0.000000
vt 1.000000 1.000000
vt 0.000000 1.000000
vt 0.500000 1.000000
vt 0.000000 0.000000
vt 1.000000 0.000000
vt 0.500000 1.000000
vt 0.000000 0.000000
vt 1.000000 0.000000
vt 0.000000 0.000000
vt 1.000000 0.000000
vt 1.000000 1.000000
vt 0.000000 1.000000
vt 0.500000 1.000000
vt 0.000000 0.000000
vt 1.000000 0.000000
vt 0.500000 1.000000
vt 0.000000 0.000000
vt 1.000000 0.000000
vt 0.000000 0.000000
vt 1.000000 0.000000
vt 1.000000 1.000000
vt 0.000000 1.000000
vt 0.500000 1.000000
vt 0.000000 0.000000
vt 1.000000 0.000000
vt 0.500000 1.000000
vt 0.000000 0.000000
vt 1.000000 0.000000
vt 0.000000 0.000000
vt 1.000000 0.000000
vt 1.000000 1.000000
vt 0.000000 1.000000
vt 0.500000 1.000000
vt 0.000000 0.000000
vt 1.000000 0.000000
vt 0.500000 1.000000
vt 0.000000 0.000000
vt 1.000000 0.000000
vt 0.000000 0.000000
vt 1.000000 0.000000
vt 1.000000 1.000000
vt 0.000000 1.000000
vt 0.500000 1.000000
vt 0.000000 0.000000
vt 1.000000 0.000000
vt 0.500000 1.000000
vt 0.000000 0.000000
vt 1.000000 0.000000
vt 0.000000 0.000000
vt 1.000000 0.000000
vt 1.000000 1.000000
vt 0.000000 1.000000
vt 0.500000 1.000000
vt 0.000000 0.000000
vt 1.000000 0.000000
vt 0.500000 1.000000
vt 0.000000 0.000000
vt 1.000000 0.000000
vt 0.000000 0.000000
vt 1.000000 0.000000
vt 1.000000 1.000000
vt 0.000000 1.000000
vt 0.500000 1.000000
vt 0.000000 0.000000
vt 1.000000 0.000000
vt 0.500000 1.000000
vt 0.000000 0.000000
vt 1.000000 0.000000
vt 0.000000 0.000000
vt 1.000000 0.000000
vt 1.000000 1.000000
vt 0.000000 1.000000
vt 0.500000 1.000000
vt 0.000000 0.000000
vt 1.000000 0.000000
vt 0.500000 1.000000
vt 0.000000 0.000000
vt 1.000000 0.000000
vt 0.000000 0.000000
vt 1.000000 0.000000
vt 1.000000 1.000000
vt 0.000000 1.000000
vt 0.500000 1.000000
vt 0.000000 0.000000
vt 1.000000 0.000000
vt 0.500000 1.000000
vt 0.000000 0.000000
vt 1.000000 0.000000
vt 0.000000 0.000000
vt 1.000000 0.000000
vt 1.000000 1.000000
vt 0.000000 1.000000
vt 0.500000 1.000000
vt 0.000000 0.000000
vt 1.000000 0.000000
vt 0.500000 1.000000
vt 0.000000 0.000000
vt 1.000000 0.000000
vt 0.000000 0.000000
vt 1.000000 0.000000
vt 1.000000 1.000000
vt 0.000000 1.000000
vt 0.500000 1.000000
vt 0.000000 0.000000
vt 1.000000 0.000000
vt 0.500000 1.000000
vt 0.000000 0.000000
vt 1.000000 0.000000
vt 0.000000 0.000000
vt 1.000000 0.000000
vt 1.000000 1.000000
vt 0.000000 1.000000
vt 0.500000 1.000000
vt 0.000000 0.000000
vt 1.000000 0.000000
vt 0.500000 1.000000
vt 0.000000 0.000000
vt 1.000000 0.000000
vt 0.000000 0.000000
vt 1.000000 0.000000
vt 1.000000 1.000000
vt 0.000000 1.000000
vt 0.500000 1.000000
vt 0.000000 0.000000
vt 1.000000 0.000000
vt 0.500000 1.000000
vt 0.000000 0.000000
vt 1.000000 0.000000
vt 0.000000 0.000000
vt 1.000000 0.000000
vt 1.000000 1.000000
vt 0.000000 1.000000
vt 0.500000 1.000000
vt 0.000000 0.000000
vt 1.000000 0.000000
vt 0.500000 1.000000
vt 0.000000 0.000000
vt 1.000000 0.000000
vt 0.000000 0.000000
vt 1.000000 0.000000
vt 1.000000 1.000000
vt 0.000000 1.000000
vt 0.500000 1.000000
vt 0.000000 0.000000
vt 1.000000 0.000000
vt 0.500000 1.000000
vt 0.000000 0.000000
vt 1.000000 0.000000
vt 0.000000 0.000000
vt 1.000000 0.000000
vt 1.000000 1.000000
vt 0.000000 1.000000
vt 0.500000 1.000000
vt 0.000000 0.000000
vt 1.000000 0.000000
vt 0.500000 1.000000
vt 0.000000 0.000000
vt 1.000000 0.000000
vt 0.000000 0.000000
vt 1.000000 0.000000
vt 1.000000 1.000000
vt 0.000000 1.000000
vt 0.500000 1.000000
vt 0.000000 0.000000
vt 1.000000 0.000000
vt 0.500000 1.000000
vt 0.000000 0.000000
vt 1.000000 0.000000
vt 0.000000 0.000000
vt 1.000000 0.000000
vt 1.000000 1.000000
vt 0.000000 1.000000
vt 0.500000 1.000000
vt 0.000000 0.000000
vt 1.000000 0.000000
vt 0.500000 1.000000
vt 0.000000 0.000000
vt 1.000000 0.000000
vt 0.000000 0.000000
vt 1.000000 0.000000
vt 1.000000 1.000000
vt 0.000000 1.000000
vt 0.500000 1.000000
vt 0.000000 0.000000
vt 1.000000 0.000000
vt 0.500000 1.000000
vt 0.000000 0.000000
vt 1.000000 0.000000
vt 0.000000 0.000000
vt 1.000000 0.000000
vt 1.000000 1.000000
vt 0.000000 1.000000
vt 0.500000 1.000000
vt 0.000000 0.000000
vt 1.000000 0.000000
vt 0.500000 1.000000
vt 0.000000 0.000000
vt 1.000000 0.000000
vt 0.000000 0.000000
vt 1.000000 0.000000
vt 1.000000 1.000000
vt 0.000000 1.000000
vt 0.500000 1.000000
vt 0.000000 0.000000
vt 1.000000 0.000000
vt 0.500000 1.000000
vt 0.000000 0.000000
vt 1.000000 0.000000
vt 0.000000 0.000000
vt 1.000000 0.000000
vt 1.000000 1.000000
vt 0.000000 1.000000
vt 0.500000 1.000000
vt 0.000000 0.000000
vt 1.000000 0.000000
vt 0.500000 1.000000
vt 0.000000 0.000000
vt 1.000000 0.000000
vt 0.000000 0.000000
vt 1.000000 0.000000
vt 1.000000 1.000000
vt 0.000000 1.000000
vt 0.500000 1.000000
vt 0.000000 0.000000
vt 1.000000 0.000000
vt 0.500000 1.000000
vt 0.000000 0.000000
vt 1.000000 0.000000
vt 0.000000 0.000000
vt 1.000000 0.000000
vt 1.000000 1.000000
vt 0.000000 1.000000
vt 0.500000 1.000000
vt 0.000000 0.000000
vt 1.000000 0.000000
vt 0.500000 1.000000
vt 0.000000 0.000000
vt 1.000000 0.000000
s 1
usemtl models/caelum/world/environment/rock_granite.png
f 1/1 2/2 3/3
f 4/4 5/5 6/6 7/7
f 8/8 9/9 10/10 11/11
f 12/12 13/13 14/14
f 15/15 16/16 17/17
f 18/18 19/19 20/20 21/21
f 22/22 23/23 24/24 25/25
f 26/26 27/27 28/28
f 29/29 30/30 31/31
f 32/32 33/33 34/34 35/35
f 36/36 37/37 38/38 39/39
f 40/40 41/41 42/42
f 43/43 44/44 45/45
f 46/46 47/47 48/48 49/49
f 50/50 51/51 52/52 53/53
f 54/54 55/55 56/56
f 57/57 58/58 59/59
f 60/60 61/61 62/62 63/63
f 64/64 65/65 66/66 67/67
f 68/68 69/69 70/70
f 71/71 72/72 73/73
f 74/74 75/75 76/76 77/77
f 78/78 79/79 80/80 81/81
f 82/82 83/83 84/84
f 85/85 86/86 87/87
f 88/88 89/89 90/90 91/91
f 92/92 93/93 94/94 95/95
f 96/96 97/97 98/98
f 99/99 100/100 101/101
f 102/102 103/103 104/104 105/105
f 106/106 107/107 108/108 109/109
f 110/110 111/111 112/112
f 113/113 114/114 115/115
f 116/116 117/117 118/118 119/119
f 120/120 121/121 122/122 123/123
f 124/124 125/125 126/126
f 127/127 128/128 129/129
f 130/130 131/131 132/132 133/133
f 134/134 135/135 136/136 137/137
f 138/138 139/139 140/140
usemtl models/caelum/world/resources/ca_vein_sapphire.png
f 141/141 142/142 143/143 144/144
f 145/145 146/146 147/147
f 148/148 149/149 150/150
f 151/151 152/152 153/153 154/154
f 155/155 156/156 157/157
f 158/158 159/159 160/160
f 161/161 162/162 163/163 164/164
f 165/165 166/166 167/167
f 168/168 169/169 170/170
f 171/171 172/172 173/173 174/174
f 175/175 176/176 177/177
f 178/178 179/179 180/180
f 181/181 182/182 183/183 184/184
f 185/185 186/186 187/187
f 188/188 189/189 190/190
f 191/191 192/192 193/193 194/194
f 195/195 196/196 197/197
f 198/198 199/199 200/200
f 201/201 202/202 203/203 204/204
f 205/205 206/206 207/207
f 208/208 209/209 210/210
f 211/211 212/212 213/213 214/214
f 215/215 216/216 217/217
f 218/218 219/219 220/220
f 221/221 222/222 223/223 224/224
f 225/225 226/226 227/227
f 228/228 229/229 230/230
f 231/231 232/232 233/233 234/234
f 235/235 236/236 237/237
f 238/238 239/239 240/240
f 241/241 242/242 243/243 244/244
f 245/245 246/246 247/247
f 248/248 249/249 250/250
f 251/251 252/252 253/253 254/254
f 255/255 256/256 257/257
f 258/258 259/259 260/260
f 261/261 262/262 263/263 264/264
f 265/265 266/266 267/267
f 268/268 269/269 270/270
f 271/271 272/272 273/273 274/274
f 275/275 276/276 277/277
f 278/278 279/279 280/280
f 281/281 282/282 283/283 284/284
f 285/285 286/286 287/287
f 288/288 289/289 290/290
f 291/291 292/292 293/293 294/294
f 295/295 296/296 297/297
f 298/298 299/299 300/300
f 301/301 302/302 303/303 304/304
f 305/305 306/306 307/307
f 308/308 309/309 310/310
f 311/311 312/312 313/313 314/314
f 315/315 316/316 317/317
f 318/318 319/319 320/320
f 321/321 322/322 323/323 324/324
f 325/325 326/326 327/327
f 328/328 329/329 330/330
f 331/331 332/332 333/333 334/334
f 335/335 336/336 337/337
f 338/338 339/339 340/340
f 341/341 342/342 343/343 344/344
f 345/345 346/346 347/347
f 348/348 349/349 350/350
f 351/351 352/352 353/353 354/354
f 355/355 356/356 357/357
f 358/358 359/359 360/360
f 361/361 362/362 363/363 364/364
f 365/365 366/366 367/367
f 368/368 369/369 370/370
f 371/371 372/372 373/373 374/374
f 375/375 376/376 377/377
f 378/378 379/379 380/380
f 381/381 382/382 383/383 384/384
f 385/385 386/386 387/387
f 388/388 389/389 390/390
f 391/391 392/392 393/393 394/394
f 395/395 396/396 397/397
f 398/398 399/399 400/400
f 401/401 402/402 403/403 404/404
f 405/405 406/406 407/407
f 408/408 409/409 410/410
f 411/411 412/412 413/413 414/414
f 415/415 416/416 417/417
f 418/418 419/419 420/420
f 421/421 422/422 423/423 424/424
f 425/425 426/426 427/427
f 428/428 429/429 430/430
f 431/431 432/432 433/433 434/434
f 435/435 436/436 437/437
f 438/438 439/439 440/440
f 441/441 442/442 443/443 444/444
f 445/445 446/446 447/447
f 448/448 449/449 450/450
f 451/451 452/452 453/453 454/454
f 455/455 456/456 457/457
f 458/458 459/459 460/460
f 461/461 462/462 463/463 464/464
f 465/465 466/466 467/467
f 468/468 469/469 470/470
f 471/471 472/472 473/473 474/474
f 475/475 476/476 477/477
f 478/478 479/479 480/480
f 481/481 482/482 483/483 484/484
f 485/485 486/486 487/487
f 488/488 489/489 490/490
f 491/491 492/492 493/493 494/494
f 495/495 496/496 497/497
f 498/498 499/499 500/500
f 501/501 502/502 503/503 504/504
f 505/505 506/506 507/507
f 508/508 509/509 510/510
f 511/511 512/512 513/513 514/514
f 515/515 516/516 517/517
f 518/518 519/519 520/520
f 521/521 522/522 523/523 524/524
f 525/525 526/526 527/527
f 528/528 529/529 530/530
f 531/531 532/532 533/533 534/534
f 535/535 536/536 537/537
f 538/538 539/539 540/540
f 541/541 542/542 543/543 544/544
f 545/545 546/546 547/547
f 548/548 549/549 550/550
f 551/551 552/552 553/553 554/554
f 555/555 556/556 557/557
f 558/558 559/559 560/560
