# Modelo original generado para Caelum Argenteum.
# Ejes OBJ: X ancho, Y altura, Z profundidad.
o ca_vein_sapphire3
v 0.000000 0.000000 0.000000
v 42.260331 1.326086 0.000000
v 28.276237 -0.110631 17.742450
v 42.260331 1.326086 0.000000
v 47.664072 14.631572 0.000000
v 36.792028 15.565329 23.085840
v 28.276237 -0.110631 17.742450
v 47.664072 14.631572 0.000000
v 27.904478 31.309171 0.000000
v 23.726154 31.849181 14.887416
v 36.792028 15.565329 23.085840
v -7.429509 47.000000 -3.425918
v 23.726154 31.849181 14.887416
v 27.904478 31.309171 0.000000
v 0.000000 0.000000 0.000000
v 28.276237 -0.110631 17.742450
v 13.115324 0.503082 34.860524
v 28.276237 -0.110631 17.742450
v 36.792028 15.565329 23.085840
v 13.776053 15.814901 36.616740
v 13.115324 0.503082 34.860524
v 36.792028 15.565329 23.085840
v 23.726154 31.849181 14.887416
v 8.782382 31.087252 23.343567
v 13.776053 15.814901 36.616740
v -7.429509 47.000000 -3.425918
v 8.782382 31.087252 23.343567
v 23.726154 31.849181 14.887416
v 0.000000 0.000000 0.000000
v 13.115324 0.503082 34.860524
v -10.253277 0.038690 27.253204
v 13.115324 0.503082 34.860524
v 13.776053 15.814901 36.616740
v -14.155219 13.924382 37.624563
v -10.253277 0.038690 27.253204
v 13.776053 15.814901 36.616740
v 8.782382 31.087252 23.343567
v -8.417967 31.531391 22.374951
v -14.155219 13.924382 37.624563
v -7.429509 47.000000 -3.425918
v -8.417967 31.531391 22.374951
v 8.782382 31.087252 23.343567
v 0.000000 0.000000 0.000000
v -10.253277 0.038690 27.253204
v -34.230787 0.641473 21.478742
v -10.253277 0.038690 27.253204
v -14.155219 13.924382 37.624563
v -30.494960 13.805136 19.134628
v -34.230787 0.641473 21.478742
v -14.155219 13.924382 37.624563
v -8.417967 31.531391 22.374951
v -26.294957 32.182046 16.499258
v -30.494960 13.805136 19.134628
v -7.429509 47.000000 -3.425918
v -26.294957 32.182046 16.499258
v -8.417967 31.531391 22.374951
v 0.000000 0.000000 0.000000
v -34.230787 0.641473 21.478742
v -43.501856 0.909834 0.000000
v -34.230787 0.641473 21.478742
v -30.494960 13.805136 19.134628
v -40.209149 16.480744 0.000000
v -43.501856 0.909834 0.000000
v -30.494960 13.805136 19.134628
v -26.294957 32.182046 16.499258
v -34.120034 32.434322 0.000000
v -40.209149 16.480744 0.000000
v -7.429509 47.000000 -3.425918
v -34.120034 32.434322 0.000000
v -26.294957 32.182046 16.499258
v 0.000000 0.000000 0.000000
v -43.501856 0.909834 0.000000
v -28.257587 0.794664 -17.730747
v -43.501856 0.909834 0.000000
v -40.209149 16.480744 0.000000
v -37.172739 14.539814 -23.324724
v -28.257587 0.794664 -17.730747
v -40.209149 16.480744 0.000000
v -34.120034 32.434322 0.000000
v -30.361448 31.315025 -19.050854
v -37.172739 14.539814 -23.324724
v -7.429509 47.000000 -3.425918
v -30.361448 31.315025 -19.050854
v -34.120034 32.434322 0.000000
v 0.000000 0.000000 0.000000
v -28.257587 0.794664 -17.730747
v -12.559964 0.111478 -33.384377
v -28.257587 0.794664 -17.730747
v -37.172739 14.539814 -23.324724
v -13.231408 14.981719 -35.169075
v -12.559964 0.111478 -33.384377
v -37.172739 14.539814 -23.324724
v -30.361448 31.315025 -19.050854
v -9.290940 30.690970 -24.695313
v -13.231408 14.981719 -35.169075
v -7.429509 47.000000 -3.425918
v -9.290940 30.690970 -24.695313
v -30.361448 31.315025 -19.050854
v 0.000000 0.000000 0.000000
v -12.559964 0.111478 -33.384377
v 12.793794 1.334758 -34.005898
v -12.559964 0.111478 -33.384377
v -13.231408 14.981719 -35.169075
v 16.015811 14.986303 -42.570017
v 12.793794 1.334758 -34.005898
v -13.231408 14.981719 -35.169075
v -9.290940 30.690970 -24.695313
v 11.789655 31.039952 -31.336897
v 16.015811 14.986303 -42.570017
v -7.429509 47.000000 -3.425918
v 11.789655 31.039952 -31.336897
v -9.290940 30.690970 -24.695313
v 0.000000 0.000000 0.000000
v 12.793794 1.334758 -34.005898
v 26.467279 -0.932249 -16.607385
v 12.793794 1.334758 -34.005898
v 16.015811 14.986303 -42.570017
v 32.276151 15.286300 -20.252270
v 26.467279 -0.932249 -16.607385
v 16.015811 14.986303 -42.570017
v 11.789655 31.039952 -31.336897
v 28.874787 30.968972 -18.118020
v 32.276151 15.286300 -20.252270
v -7.429509 47.000000 -3.425918
v 28.874787 30.968972 -18.118020
v 11.789655 31.039952 -31.336897
v 0.000000 0.000000 0.000000
v 26.467279 -0.932249 -16.607385
v 42.260331 1.326086 0.000000
v 26.467279 -0.932249 -16.607385
v 32.276151 15.286300 -20.252270
v 47.664072 14.631572 0.000000
v 42.260331 1.326086 0.000000
v 32.276151 15.286300 -20.252270
v 28.874787 30.968972 -18.118020
v 27.904478 31.309171 0.000000
v 47.664072 14.631572 0.000000
v -7.429509 47.000000 -3.425918
v 27.904478 31.309171 0.000000
v 28.874787 30.968972 -18.118020
v 26.551248 27.137725 -1.075464
v 21.594628 27.717849 1.850940
v 30.285828 54.836089 5.922307
v 30.671378 54.790964 5.694677
v 26.551248 26.839411 4.702033
v 21.594628 27.717849 1.850940
v 26.551248 27.137725 -1.075464
v 30.671378 54.767760 6.144078
v 30.671378 54.790964 5.694677
v 30.285828 54.836089 5.922307
v 21.594628 27.717849 1.850940
v 21.594628 27.419535 7.628437
v 30.285828 54.812885 6.371708
v 30.285828 54.836089 5.922307
v 26.551248 26.839411 4.702033
v 21.594628 27.419535 7.628437
v 21.594628 27.717849 1.850940
v 30.671378 54.767760 6.144078
v 30.285828 54.836089 5.922307
v 30.285828 54.812885 6.371708
v 21.594628 27.419535 7.628437
v 26.551248 26.541097 10.479530
v 30.671378 54.744556 6.593480
v 30.285828 54.812885 6.371708
v 26.551248 26.839411 4.702033
v 26.551248 26.541097 10.479530
v 21.594628 27.419535 7.628437
v 30.671378 54.767760 6.144078
v 30.285828 54.812885 6.371708
v 30.671378 54.744556 6.593480
v 26.551248 26.541097 10.479530
v 31.507868 25.960973 7.553126
v 31.056927 54.699431 6.365850
v 30.671378 54.744556 6.593480
v 26.551248 26.839411 4.702033
v 31.507868 25.960973 7.553126
v 26.551248 26.541097 10.479530
v 30.671378 54.767760 6.144078
v 30.671378 54.744556 6.593480
v 31.056927 54.699431 6.365850
v 31.507868 25.960973 7.553126
v 31.507868 26.259287 1.775629
v 31.056927 54.722635 5.916449
v 31.056927 54.699431 6.365850
v 26.551248 26.839411 4.702033
v 31.507868 26.259287 1.775629
v 31.507868 25.960973 7.553126
v 30.671378 54.767760 6.144078
v 31.056927 54.699431 6.365850
v 31.056927 54.722635 5.916449
v 31.507868 26.259287 1.775629
v 26.551248 27.137725 -1.075464
v 30.671378 54.790964 5.694677
v 31.056927 54.722635 5.916449
v 26.551248 26.839411 4.702033
v 26.551248 27.137725 -1.075464
v 31.507868 26.259287 1.775629
v 30.671378 54.767760 6.144078
v 31.056927 54.722635 5.916449
v 30.671378 54.790964 5.694677
v 12.384907 33.415443 6.974806
v 7.659576 33.928865 10.983549
v 17.923959 64.811560 14.654169
v 18.265939 64.774403 14.364050
v 13.424562 32.924256 13.085472
v 7.659576 33.928865 10.983549
v 12.384907 33.415443 6.974806
v 18.341180 64.738855 14.806288
v 18.265939 64.774403 14.364050
v 17.923959 64.811560 14.654169
v 7.659576 33.928865 10.983549
v 8.699230 33.437678 17.094215
v 17.999200 64.776012 15.096407
v 17.923959 64.811560 14.654169
v 13.424562 32.924256 13.085472
v 8.699230 33.437678 17.094215
v 7.659576 33.928865 10.983549
v 18.341180 64.738855 14.806288
v 17.923959 64.811560 14.654169
v 17.999200 64.776012 15.096407
v 8.699230 33.437678 17.094215
v 14.464216 32.433068 19.196138
v 18.416422 64.703307 15.248527
v 17.999200 64.776012 15.096407
v 13.424562 32.924256 13.085472
v 14.464216 32.433068 19.196138
v 8.699230 33.437678 17.094215
v 18.341180 64.738855 14.806288
v 17.999200 64.776012 15.096407
v 18.416422 64.703307 15.248527
v 14.464216 32.433068 19.196138
v 19.189548 31.919646 15.187394
v 18.758402 64.666150 14.958408
v 18.416422 64.703307 15.248527
v 13.424562 32.924256 13.085472
v 19.189548 31.919646 15.187394
v 14.464216 32.433068 19.196138
v 18.341180 64.738855 14.806288
v 18.416422 64.703307 15.248527
v 18.758402 64.666150 14.958408
v 19.189548 31.919646 15.187394
v 18.149893 32.410833 9.076729
v 18.683160 64.701698 14.516169
v 18.758402 64.666150 14.958408
v 13.424562 32.924256 13.085472
v 18.149893 32.410833 9.076729
v 19.189548 31.919646 15.187394
v 18.341180 64.738855 14.806288
v 18.758402 64.666150 14.958408
v 18.683160 64.701698 14.516169
v 18.149893 32.410833 9.076729
v 12.384907 33.415443 6.974806
v 18.265939 64.774403 14.364050
v 18.683160 64.701698 14.516169
v 13.424562 32.924256 13.085472
v 12.384907 33.415443 6.974806
v 18.149893 32.410833 9.076729
v 18.341180 64.738855 14.806288
v 18.683160 64.701698 14.516169
v 18.265939 64.774403 14.364050
v -5.900493 32.052144 17.008730
v -10.205768 32.342046 22.094874
v -0.792062 60.676085 24.369894
v -0.501599 60.656526 24.026749
v -3.690642 31.546377 23.281612
v -10.205768 32.342046 22.094874
v -5.900493 32.052144 17.008730
v -0.352507 60.622404 24.449959
v -0.501599 60.656526 24.026749
v -0.792062 60.676085 24.369894
v -10.205768 32.342046 22.094874
v -7.995917 31.836279 28.367757
v -0.642970 60.641963 24.793105
v -0.792062 60.676085 24.369894
v -3.690642 31.546377 23.281612
v -7.995917 31.836279 28.367757
v -10.205768 32.342046 22.094874
v -0.352507 60.622404 24.449959
v -0.792062 60.676085 24.369894
v -0.642970 60.641963 24.793105
v -7.995917 31.836279 28.367757
v -1.480791 31.040610 29.554495
v -0.203416 60.588281 24.873170
v -0.642970 60.641963 24.793105
v -3.690642 31.546377 23.281612
v -1.480791 31.040610 29.554495
v -7.995917 31.836279 28.367757
v -0.352507 60.622404 24.449959
v -0.642970 60.641963 24.793105
v -0.203416 60.588281 24.873170
v -1.480791 31.040610 29.554495
v 2.824484 30.750708 24.468350
v 0.087047 60.568723 24.530025
v -0.203416 60.588281 24.873170
v -3.690642 31.546377 23.281612
v 2.824484 30.750708 24.468350
v -1.480791 31.040610 29.554495
v -0.352507 60.622404 24.449959
v -0.203416 60.588281 24.873170
v 0.087047 60.568723 24.530025
v 2.824484 30.750708 24.468350
v 0.614633 31.256475 18.195468
v -0.062045 60.602845 24.106814
v 0.087047 60.568723 24.530025
v -3.690642 31.546377 23.281612
v 0.614633 31.256475 18.195468
v 2.824484 30.750708 24.468350
v -0.352507 60.622404 24.449959
v 0.087047 60.568723 24.530025
v -0.062045 60.602845 24.106814
v 0.614633 31.256475 18.195468
v -5.900493 32.052144 17.008730
v -0.501599 60.656526 24.026749
v -0.062045 60.602845 24.106814
v -3.690642 31.546377 23.281612
v -5.900493 32.052144 17.008730
v 0.614633 31.256475 18.195468
v -0.352507 60.622404 24.449959
v -0.062045 60.602845 24.106814
v -0.501599 60.656526 24.026749
v -13.267684 31.207356 1.905294
v -16.238399 31.250606 6.896871
v -9.950645 57.450043 7.293853
v -9.720510 57.446692 6.907166
v -10.433699 31.044494 6.973319
v -16.238399 31.250606 6.896871
v -13.267684 31.207356 1.905294
v -9.500967 57.434076 7.299775
v -9.720510 57.446692 6.907166
v -9.950645 57.450043 7.293853
v -16.238399 31.250606 6.896871
v -13.404415 31.087744 11.964896
v -9.731102 57.437426 7.686462
v -9.950645 57.450043 7.293853
v -10.433699 31.044494 6.973319
v -13.404415 31.087744 11.964896
v -16.238399 31.250606 6.896871
v -9.500967 57.434076 7.299775
v -9.950645 57.450043 7.293853
v -9.731102 57.437426 7.686462
v -13.404415 31.087744 11.964896
v -7.599715 30.881633 12.041344
v -9.281425 57.421459 7.692384
v -9.731102 57.437426 7.686462
v -10.433699 31.044494 6.973319
v -7.599715 30.881633 12.041344
v -13.404415 31.087744 11.964896
v -9.500967 57.434076 7.299775
v -9.731102 57.437426 7.686462
v -9.281425 57.421459 7.692384
v -7.599715 30.881633 12.041344
v -4.629000 30.838383 7.049766
v -9.051290 57.418109 7.305697
v -9.281425 57.421459 7.692384
v -10.433699 31.044494 6.973319
v -4.629000 30.838383 7.049766
v -7.599715 30.881633 12.041344
v -9.500967 57.434076 7.299775
v -9.281425 57.421459 7.692384
v -9.051290 57.418109 7.305697
v -4.629000 30.838383 7.049766
v -7.462984 31.001244 1.981741
v -9.270832 57.430725 6.913088
v -9.051290 57.418109 7.305697
v -10.433699 31.044494 6.973319
v -7.462984 31.001244 1.981741
v -4.629000 30.838383 7.049766
v -9.500967 57.434076 7.299775
v -9.051290 57.418109 7.305697
v -9.270832 57.430725 6.913088
v -7.462984 31.001244 1.981741
v -13.267684 31.207356 1.905294
v -9.720510 57.446692 6.907166
v -9.270832 57.430725 6.913088
v -10.433699 31.044494 6.973319
v -13.267684 31.207356 1.905294
v -7.462984 31.001244 1.981741
v -9.500967 57.434076 7.299775
v -9.270832 57.430725 6.913088
v -9.720510 57.446692 6.907166
v -23.395737 29.142452 -13.541026
v -24.787777 29.124351 -9.859115
v -25.376600 52.418344 -11.830818
v -25.217462 52.420414 -12.251734
v -20.957571 29.755035 -10.512056
v -24.787777 29.124351 -9.859115
v -23.395737 29.142452 -13.541026
v -24.938730 52.490444 -11.905462
v -25.217462 52.420414 -12.251734
v -25.376600 52.418344 -11.830818
v -24.787777 29.124351 -9.859115
v -22.349610 29.736934 -6.830144
v -25.097869 52.488375 -11.484545
v -25.376600 52.418344 -11.830818
v -20.957571 29.755035 -10.512056
v -22.349610 29.736934 -6.830144
v -24.787777 29.124351 -9.859115
v -24.938730 52.490444 -11.905462
v -25.376600 52.418344 -11.830818
v -25.097869 52.488375 -11.484545
v -22.349610 29.736934 -6.830144
v -18.519404 30.367617 -7.483086
v -24.659999 52.560475 -11.559190
v -25.097869 52.488375 -11.484545
v -20.957571 29.755035 -10.512056
v -18.519404 30.367617 -7.483086
v -22.349610 29.736934 -6.830144
v -24.938730 52.490444 -11.905462
v -25.097869 52.488375 -11.484545
v -24.659999 52.560475 -11.559190
v -18.519404 30.367617 -7.483086
v -17.127364 30.385718 -11.164997
v -24.500861 52.562544 -11.980106
v -24.659999 52.560475 -11.559190
v -20.957571 29.755035 -10.512056
v -17.127364 30.385718 -11.164997
v -18.519404 30.367617 -7.483086
v -24.938730 52.490444 -11.905462
v -24.659999 52.560475 -11.559190
v -24.500861 52.562544 -11.980106
v -17.127364 30.385718 -11.164997
v -19.565531 29.773136 -14.193968
v -24.779592 52.492514 -12.326379
v -24.500861 52.562544 -11.980106
v -20.957571 29.755035 -10.512056
v -19.565531 29.773136 -14.193968
v -17.127364 30.385718 -11.164997
v -24.938730 52.490444 -11.905462
v -24.500861 52.562544 -11.980106
v -24.779592 52.492514 -12.326379
v -19.565531 29.773136 -14.193968
v -23.395737 29.142452 -13.541026
v -25.217462 52.420414 -12.251734
v -24.779592 52.492514 -12.326379
v -20.957571 29.755035 -10.512056
v -23.395737 29.142452 -13.541026
v -19.565531 29.773136 -14.193968
v -24.938730 52.490444 -11.905462
v -24.779592 52.492514 -12.326379
v -25.217462 52.420414 -12.251734
v -12.862962 29.706091 -29.627185
v -13.878984 29.728112 -24.539696
v -10.139379 55.757438 -26.321328
v -10.051250 55.755528 -26.762610
v -8.966936 29.852800 -26.204498
v -13.878984 29.728112 -24.539696
v -12.862962 29.706091 -29.627185
v -9.713314 55.768253 -26.465731
v -10.051250 55.755528 -26.762610
v -10.139379 55.757438 -26.321328
v -13.878984 29.728112 -24.539696
v -9.982957 29.874821 -21.117009
v -9.801443 55.770163 -26.024449
v -10.139379 55.757438 -26.321328
v -8.966936 29.852800 -26.204498
v -9.982957 29.874821 -21.117009
v -13.878984 29.728112 -24.539696
v -9.713314 55.768253 -26.465731
v -10.139379 55.757438 -26.321328
v -9.801443 55.770163 -26.024449
v -9.982957 29.874821 -21.117009
v -5.070909 29.999509 -22.781812
v -9.375378 55.780978 -26.168851
v -9.801443 55.770163 -26.024449
v -8.966936 29.852800 -26.204498
v -5.070909 29.999509 -22.781812
v -9.982957 29.874821 -21.117009
v -9.713314 55.768253 -26.465731
v -9.801443 55.770163 -26.024449
v -9.375378 55.780978 -26.168851
v -5.070909 29.999509 -22.781812
v -4.054888 29.977488 -27.869300
v -9.287250 55.779068 -26.610133
v -9.375378 55.780978 -26.168851
v -8.966936 29.852800 -26.204498
v -4.054888 29.977488 -27.869300
v -5.070909 29.999509 -22.781812
v -9.713314 55.768253 -26.465731
v -9.375378 55.780978 -26.168851
v -9.287250 55.779068 -26.610133
v -4.054888 29.977488 -27.869300
v -7.950914 29.830779 -31.291987
v -9.625186 55.766343 -26.907013
v -9.287250 55.779068 -26.610133
v -8.966936 29.852800 -26.204498
v -7.950914 29.830779 -31.291987
v -4.054888 29.977488 -27.869300
v -9.713314 55.768253 -26.465731
v -9.287250 55.779068 -26.610133
v -9.625186 55.766343 -26.907013
v -7.950914 29.830779 -31.291987
v -12.862962 29.706091 -29.627185
v -10.051250 55.755528 -26.762610
v -9.625186 55.766343 -26.907013
v -8.966936 29.852800 -26.204498
v -12.862962 29.706091 -29.627185
v -7.950914 29.830779 -31.291987
v -9.713314 55.768253 -26.465731
v -9.625186 55.766343 -26.907013
v -10.051250 55.755528 -26.762610
v 10.267351 25.025990 -13.778009
v 10.144496 25.222126 -9.226259
v 9.752950 55.380127 -12.592810
v 9.765080 55.360761 -13.042229
v 14.116914 25.649665 -11.419222
v 10.144496 25.222126 -9.226259
v 10.267351 25.025990 -13.778009
v 10.145169 55.422340 -12.809333
v 9.765080 55.360761 -13.042229
v 9.752950 55.380127 -12.592810
v 10.144496 25.222126 -9.226259
v 13.994059 25.845800 -6.867473
v 10.133039 55.441705 -12.359914
v 9.752950 55.380127 -12.592810
v 14.116914 25.649665 -11.419222
v 13.994059 25.845800 -6.867473
v 10.144496 25.222126 -9.226259
v 10.145169 55.422340 -12.809333
v 9.752950 55.380127 -12.592810
v 10.133039 55.441705 -12.359914
v 13.994059 25.845800 -6.867473
v 17.966478 26.273339 -9.060435
v 10.525257 55.483919 -12.576437
v 10.133039 55.441705 -12.359914
v 14.116914 25.649665 -11.419222
v 17.966478 26.273339 -9.060435
v 13.994059 25.845800 -6.867473
v 10.145169 55.422340 -12.809333
v 10.133039 55.441705 -12.359914
v 10.525257 55.483919 -12.576437
v 17.966478 26.273339 -9.060435
v 18.089333 26.077204 -13.612184
v 10.537388 55.464553 -13.025856
v 10.525257 55.483919 -12.576437
v 14.116914 25.649665 -11.419222
v 18.089333 26.077204 -13.612184
v 17.966478 26.273339 -9.060435
v 10.145169 55.422340 -12.809333
v 10.525257 55.483919 -12.576437
v 10.537388 55.464553 -13.025856
v 18.089333 26.077204 -13.612184
v 14.239770 25.453529 -15.970971
v 10.157299 55.402974 -13.258752
v 10.537388 55.464553 -13.025856
v 14.116914 25.649665 -11.419222
v 14.239770 25.453529 -15.970971
v 18.089333 26.077204 -13.612184
v 10.145169 55.422340 -12.809333
v 10.537388 55.464553 -13.025856
v 10.157299 55.402974 -13.258752
v 14.239770 25.453529 -15.970971
v 10.267351 25.025990 -13.778009
v 9.765080 55.360761 -13.042229
v 10.157299 55.402974 -13.258752
v 14.116914 25.649665 -11.419222
v 10.267351 25.025990 -13.778009
v 14.239770 25.453529 -15.970971
v 10.145169 55.422340 -12.809333
v 10.157299 55.402974 -13.258752
v 9.765080 55.360761 -13.042229
vt 0.500000 1.000000
vt 0.000000 0.000000
vt 1.000000 0.000000
vt 0.000000 0.000000
vt 1.000000 0.000000
vt 1.000000 1.000000
vt 0.000000 1.000000
vt 0.000000 0.000000
vt 1.000000 0.000000
vt 1.000000 1.000000
vt 0.000000 1.000000
vt 0.500000 1.000000
vt 0.000000 0.000000
vt 1.000000 0.000000
vt 0.500000 1.000000
vt 0.000000 0.000000
vt 1.000000 0.000000
vt 0.000000 0.000000
vt 1.000000 0.000000
vt 1.000000 1.000000
vt 0.000000 1.000000
vt 0.000000 0.000000
vt 1.000000 0.000000
vt 1.000000 1.000000
vt 0.000000 1.000000
vt 0.500000 1.000000
vt 0.000000 0.000000
vt 1.000000 0.000000
vt 0.500000 1.000000
vt 0.000000 0.000000
vt 1.000000 0.000000
vt 0.000000 0.000000
vt 1.000000 0.000000
vt 1.000000 1.000000
vt 0.000000 1.000000
vt 0.000000 0.000000
vt 1.000000 0.000000
vt 1.000000 1.000000
vt 0.000000 1.000000
vt 0.500000 1.000000
vt 0.000000 0.000000
vt 1.000000 0.000000
vt 0.500000 1.000000
vt 0.000000 0.000000
vt 1.000000 0.000000
vt 0.000000 0.000000
vt 1.000000 0.000000
vt 1.000000 1.000000
vt 0.000000 1.000000
vt 0.000000 0.000000
vt 1.000000 0.000000
vt 1.000000 1.000000
vt 0.000000 1.000000
vt 0.500000 1.000000
vt 0.000000 0.000000
vt 1.000000 0.000000
vt 0.500000 1.000000
vt 0.000000 0.000000
vt 1.000000 0.000000
vt 0.000000 0.000000
vt 1.000000 0.000000
vt 1.000000 1.000000
vt 0.000000 1.000000
vt 0.000000 0.000000
vt 1.000000 0.000000
vt 1.000000 1.000000
vt 0.000000 1.000000
vt 0.500000 1.000000
vt 0.000000 0.000000
vt 1.000000 0.000000
vt 0.500000 1.000000
vt 0.000000 0.000000
vt 1.000000 0.000000
vt 0.000000 0.000000
vt 1.000000 0.000000
vt 1.000000 1.000000
vt 0.000000 1.000000
vt 0.000000 0.000000
vt 1.000000 0.000000
vt 1.000000 1.000000
vt 0.000000 1.000000
vt 0.500000 1.000000
vt 0.000000 0.000000
vt 1.000000 0.000000
vt 0.500000 1.000000
vt 0.000000 0.000000
vt 1.000000 0.000000
vt 0.000000 0.000000
vt 1.000000 0.000000
vt 1.000000 1.000000
vt 0.000000 1.000000
vt 0.000000 0.000000
vt 1.000000 0.000000
vt 1.000000 1.000000
vt 0.000000 1.000000
vt 0.500000 1.000000
vt 0.000000 0.000000
vt 1.000000 0.000000
vt 0.500000 1.000000
vt 0.000000 0.000000
vt 1.000000 0.000000
vt 0.000000 0.000000
vt 1.000000 0.000000
vt 1.000000 1.000000
vt 0.000000 1.000000
vt 0.000000 0.000000
vt 1.000000 0.000000
vt 1.000000 1.000000
vt 0.000000 1.000000
vt 0.500000 1.000000
vt 0.000000 0.000000
vt 1.000000 0.000000
vt 0.500000 1.000000
vt 0.000000 0.000000
vt 1.000000 0.000000
vt 0.000000 0.000000
vt 1.000000 0.000000
vt 1.000000 1.000000
vt 0.000000 1.000000
vt 0.000000 0.000000
vt 1.000000 0.000000
vt 1.000000 1.000000
vt 0.000000 1.000000
vt 0.500000 1.000000
vt 0.000000 0.000000
vt 1.000000 0.000000
vt 0.500000 1.000000
vt 0.000000 0.000000
vt 1.000000 0.000000
vt 0.000000 0.000000
vt 1.000000 0.000000
vt 1.000000 1.000000
vt 0.000000 1.000000
vt 0.000000 0.000000
vt 1.000000 0.000000
vt 1.000000 1.000000
vt 0.000000 1.000000
vt 0.500000 1.000000
vt 0.000000 0.000000
vt 1.000000 0.000000
vt 0.000000 0.000000
vt 1.000000 0.000000
vt 1.000000 1.000000
vt 0.000000 1.000000
vt 0.500000 1.000000
vt 0.000000 0.000000
vt 1.000000 0.000000
vt 0.500000 1.000000
vt 0.000000 0.000000
vt 1.000000 0.000000
vt 0.000000 0.000000
vt 1.000000 0.000000
vt 1.000000 1.000000
vt 0.000000 1.000000
vt 0.500000 1.000000
vt 0.000000 0.000000
vt 1.000000 0.000000
vt 0.500000 1.000000
vt 0.000000 0.000000
vt 1.000000 0.000000
vt 0.000000 0.000000
vt 1.000000 0.000000
vt 1.000000 1.000000
vt 0.000000 1.000000
vt 0.500000 1.000000
vt 0.000000 0.000000
vt 1.000000 0.000000
vt 0.500000 1.000000
vt 0.000000 0.000000
vt 1.000000 0.000000
vt 0.000000 0.000000
vt 1.000000 0.000000
vt 1.000000 1.000000
vt 0.000000 1.000000
vt 0.500000 1.000000
vt 0.000000 0.000000
vt 1.000000 0.000000
vt 0.500000 1.000000
vt 0.000000 0.000000
vt 1.000000 0.000000
vt 0.000000 0.000000
vt 1.000000 0.000000
vt 1.000000 1.000000
vt 0.000000 1.000000
vt 0.500000 1.000000
vt 0.000000 0.000000
vt 1.000000 0.000000
vt 0.500000 1.000000
vt 0.000000 0.000000
vt 1.000000 0.000000
vt 0.000000 0.000000
vt 1.000000 0.000000
vt 1.000000 1.000000
vt 0.000000 1.000000
vt 0.500000 1.000000
vt 0.000000 0.000000
vt 1.000000 0.000000
vt 0.500000 1.000000
vt 0.000000 0.000000
vt 1.000000 0.000000
vt 0.000000 0.000000
vt 1.000000 0.000000
vt 1.000000 1.000000
vt 0.000000 1.000000
vt 0.500000 1.000000
vt 0.000000 0.000000
vt 1.000000 0.000000
vt 0.500000 1.000000
vt 0.000000 0.000000
vt 1.000000 0.000000
vt 0.000000 0.000000
vt 1.000000 0.000000
vt 1.000000 1.000000
vt 0.000000 1.000000
vt 0.500000 1.000000
vt 0.000000 0.000000
vt 1.000000 0.000000
vt 0.500000 1.000000
vt 0.000000 0.000000
vt 1.000000 0.000000
vt 0.000000 0.000000
vt 1.000000 0.000000
vt 1.000000 1.000000
vt 0.000000 1.000000
vt 0.500000 1.000000
vt 0.000000 0.000000
vt 1.000000 0.000000
vt 0.500000 1.000000
vt 0.000000 0.000000
vt 1.000000 0.000000
vt 0.000000 0.000000
vt 1.000000 0.000000
vt 1.000000 1.000000
vt 0.000000 1.000000
vt 0.500000 1.000000
vt 0.000000 0.000000
vt 1.000000 0.000000
vt 0.500000 1.000000
vt 0.000000 0.000000
vt 1.000000 0.000000
vt 0.000000 0.000000
vt 1.000000 0.000000
vt 1.000000 1.000000
vt 0.000000 1.000000
vt 0.500000 1.000000
vt 0.000000 0.000000
vt 1.000000 0.000000
vt 0.500000 1.000000
vt 0.000000 0.000000
vt 1.000000 0.000000
vt 0.000000 0.000000
vt 1.000000 0.000000
vt 1.000000 1.000000
vt 0.000000 1.000000
vt 0.500000 1.000000
vt 0.000000 0.000000
vt 1.000000 0.000000
vt 0.500000 1.000000
vt 0.000000 0.000000
vt 1.000000 0.000000
vt 0.000000 0.000000
vt 1.000000 0.000000
vt 1.000000 1.000000
vt 0.000000 1.000000
vt 0.500000 1.000000
vt 0.000000 0.000000
vt 1.000000 0.000000
vt 0.500000 1.000000
vt 0.000000 0.000000
vt 1.000000 0.000000
vt 0.000000 0.000000
vt 1.000000 0.000000
vt 1.000000 1.000000
vt 0.000000 1.000000
vt 0.500000 1.000000
vt 0.000000 0.000000
vt 1.000000 0.000000
vt 0.500000 1.000000
vt 0.000000 0.000000
vt 1.000000 0.000000
vt 0.000000 0.000000
vt 1.000000 0.000000
vt 1.000000 1.000000
vt 0.000000 1.000000
vt 0.500000 1.000000
vt 0.000000 0.000000
vt 1.000000 0.000000
vt 0.500000 1.000000
vt 0.000000 0.000000
vt 1.000000 0.000000
vt 0.000000 0.000000
vt 1.000000 0.000000
vt 1.000000 1.000000
vt 0.000000 1.000000
vt 0.500000 1.000000
vt 0.000000 0.000000
vt 1.000000 0.000000
vt 0.500000 1.000000
vt 0.000000 0.000000
vt 1.000000 0.000000
vt 0.000000 0.000000
vt 1.000000 0.000000
vt 1.000000 1.000000
vt 0.000000 1.000000
vt 0.500000 1.000000
vt 0.000000 0.000000
vt 1.000000 0.000000
vt 0.500000 1.000000
vt 0.000000 0.000000
vt 1.000000 0.000000
vt 0.000000 0.000000
vt 1.000000 0.000000
vt 1.000000 1.000000
vt 0.000000 1.000000
vt 0.500000 1.000000
vt 0.000000 0.000000
vt 1.000000 0.000000
vt 0.500000 1.000000
vt 0.000000 0.000000
vt 1.000000 0.000000
vt 0.000000 0.000000
vt 1.000000 0.000000
vt 1.000000 1.000000
vt 0.000000 1.000000
vt 0.500000 1.000000
vt 0.000000 0.000000
vt 1.000000 0.000000
vt 0.500000 1.000000
vt 0.000000 0.000000
vt 1.000000 0.000000
vt 0.000000 0.000000
vt 1.000000 0.000000
vt 1.000000 1.000000
vt 0.000000 1.000000
vt 0.500000 1.000000
vt 0.000000 0.000000
vt 1.000000 0.000000
vt 0.500000 1.000000
vt 0.000000 0.000000
vt 1.000000 0.000000
vt 0.000000 0.000000
vt 1.000000 0.000000
vt 1.000000 1.000000
vt 0.000000 1.000000
vt 0.500000 1.000000
vt 0.000000 0.000000
vt 1.000000 0.000000
vt 0.500000 1.000000
vt 0.000000 0.000000
vt 1.000000 0.000000
vt 0.000000 0.000000
vt 1.000000 0.000000
vt 1.000000 1.000000
vt 0.000000 1.000000
vt 0.500000 1.000000
vt 0.000000 0.000000
vt 1.000000 0.000000
vt 0.500000 1.000000
vt 0.000000 0.000000
vt 1.000000 0.000000
vt 0.000000 0.000000
vt 1.000000 0.000000
vt 1.000000 1.000000
vt 0.000000 1.000000
vt 0.500000 1.000000
vt 0.000000 0.000000
vt 1.000000 0.000000
vt 0.500000 1.000000
vt 0.000000 0.000000
vt 1.000000 0.000000
vt 0.000000 0.000000
vt 1.000000 0.000000
vt 1.000000 1.000000
vt 0.000000 1.000000
vt 0.500000 1.000000
vt 0.000000 0.000000
vt 1.000000 0.000000
vt 0.500000 1.000000
vt 0.000000 0.000000
vt 1.000000 0.000000
vt 0.000000 0.000000
vt 1.000000 0.000000
vt 1.000000 1.000000
vt 0.000000 1.000000
vt 0.500000 1.000000
vt 0.000000 0.000000
vt 1.000000 0.000000
vt 0.500000 1.000000
vt 0.000000 0.000000
vt 1.000000 0.000000
vt 0.000000 0.000000
vt 1.000000 0.000000
vt 1.000000 1.000000
vt 0.000000 1.000000
vt 0.500000 1.000000
vt 0.000000 0.000000
vt 1.000000 0.000000
vt 0.500000 1.000000
vt 0.000000 0.000000
vt 1.000000 0.000000
vt 0.000000 0.000000
vt 1.000000 0.000000
vt 1.000000 1.000000
vt 0.000000 1.000000
vt 0.500000 1.000000
vt 0.000000 0.000000
vt 1.000000 0.000000
vt 0.500000 1.000000
vt 0.000000 0.000000
vt 1.000000 0.000000
vt 0.000000 0.000000
vt 1.000000 0.000000
vt 1.000000 1.000000
vt 0.000000 1.000000
vt 0.500000 1.000000
vt 0.000000 0.000000
vt 1.000000 0.000000
vt 0.500000 1.000000
vt 0.000000 0.000000
vt 1.000000 0.000000
vt 0.000000 0.000000
vt 1.000000 0.000000
vt 1.000000 1.000000
vt 0.000000 1.000000
vt 0.500000 1.000000
vt 0.000000 0.000000
vt 1.000000 0.000000
vt 0.500000 1.000000
vt 0.000000 0.000000
vt 1.000000 0.000000
vt 0.000000 0.000000
vt 1.000000 0.000000
vt 1.000000 1.000000
vt 0.000000 1.000000
vt 0.500000 1.000000
vt 0.000000 0.000000
vt 1.000000 0.000000
vt 0.500000 1.000000
vt 0.000000 0.000000
vt 1.000000 0.000000
vt 0.000000 0.000000
vt 1.000000 0.000000
vt 1.000000 1.000000
vt 0.000000 1.000000
vt 0.500000 1.000000
vt 0.000000 0.000000
vt 1.000000 0.000000
vt 0.500000 1.000000
vt 0.000000 0.000000
vt 1.000000 0.000000
vt 0.000000 0.000000
vt 1.000000 0.000000
vt 1.000000 1.000000
vt 0.000000 1.000000
vt 0.500000 1.000000
vt 0.000000 0.000000
vt 1.000000 0.000000
vt 0.500000 1.000000
vt 0.000000 0.000000
vt 1.000000 0.000000
vt 0.000000 0.000000
vt 1.000000 0.000000
vt 1.000000 1.000000
vt 0.000000 1.000000
vt 0.500000 1.000000
vt 0.000000 0.000000
vt 1.000000 0.000000
vt 0.500000 1.000000
vt 0.000000 0.000000
vt 1.000000 0.000000
vt 0.000000 0.000000
vt 1.000000 0.000000
vt 1.000000 1.000000
vt 0.000000 1.000000
vt 0.500000 1.000000
vt 0.000000 0.000000
vt 1.000000 0.000000
vt 0.500000 1.000000
vt 0.000000 0.000000
vt 1.000000 0.000000
vt 0.000000 0.000000
vt 1.000000 0.000000
vt 1.000000 1.000000
vt 0.000000 1.000000
vt 0.500000 1.000000
vt 0.000000 0.000000
vt 1.000000 0.000000
vt 0.500000 1.000000
vt 0.000000 0.000000
vt 1.000000 0.000000
vt 0.000000 0.000000
vt 1.000000 0.000000
vt 1.000000 1.000000
vt 0.000000 1.000000
vt 0.500000 1.000000
vt 0.000000 0.000000
vt 1.000000 0.000000
vt 0.500000 1.000000
vt 0.000000 0.000000
vt 1.000000 0.000000
vt 0.000000 0.000000
vt 1.000000 0.000000
vt 1.000000 1.000000
vt 0.000000 1.000000
vt 0.500000 1.000000
vt 0.000000 0.000000
vt 1.000000 0.000000
vt 0.500000 1.000000
vt 0.000000 0.000000
vt 1.000000 0.000000
vt 0.000000 0.000000
vt 1.000000 0.000000
vt 1.000000 1.000000
vt 0.000000 1.000000
vt 0.500000 1.000000
vt 0.000000 0.000000
vt 1.000000 0.000000
vt 0.500000 1.000000
vt 0.000000 0.000000
vt 1.000000 0.000000
vt 0.000000 0.000000
vt 1.000000 0.000000
vt 1.000000 1.000000
vt 0.000000 1.000000
vt 0.500000 1.000000
vt 0.000000 0.000000
vt 1.000000 0.000000
vt 0.500000 1.000000
vt 0.000000 0.000000
vt 1.000000 0.000000
vt 0.000000 0.000000
vt 1.000000 0.000000
vt 1.000000 1.000000
vt 0.000000 1.000000
vt 0.500000 1.000000
vt 0.000000 0.000000
vt 1.000000 0.000000
vt 0.500000 1.000000
vt 0.000000 0.000000
vt 1.000000 0.000000
vt 0.000000 0.000000
vt 1.000000 0.000000
vt 1.000000 1.000000
vt 0.000000 1.000000
vt 0.500000 1.000000
vt 0.000000 0.000000
vt 1.000000 0.000000
vt 0.500000 1.000000
vt 0.000000 0.000000
vt 1.000000 0.000000
vt 0.000000 0.000000
vt 1.000000 0.000000
vt 1.000000 1.000000
vt 0.000000 1.000000
vt 0.500000 1.000000
vt 0.000000 0.000000
vt 1.000000 0.000000
vt 0.500000 1.000000
vt 0.000000 0.000000
vt 1.000000 0.000000
s 1
usemtl models/caelum/world/environment/rock_granite.png
f 1/1 2/2 3/3
f 4/4 5/5 6/6 7/7
f 8/8 9/9 10/10 11/11
f 12/12 13/13 14/14
f 15/15 16/16 17/17
f 18/18 19/19 20/20 21/21
f 22/22 23/23 24/24 25/25
f 26/26 27/27 28/28
f 29/29 30/30 31/31
f 32/32 33/33 34/34 35/35
f 36/36 37/37 38/38 39/39
f 40/40 41/41 42/42
f 43/43 44/44 45/45
f 46/46 47/47 48/48 49/49
f 50/50 51/51 52/52 53/53
f 54/54 55/55 56/56
f 57/57 58/58 59/59
f 60/60 61/61 62/62 63/63
f 64/64 65/65 66/66 67/67
f 68/68 69/69 70/70
f 71/71 72/72 73/73
f 74/74 75/75 76/76 77/77
f 78/78 79/79 80/80 81/81
f 82/82 83/83 84/84
f 85/85 86/86 87/87
f 88/88 89/89 90/90 91/91
f 92/92 93/93 94/94 95/95
f 96/96 97/97 98/98
f 99/99 100/100 101/101
f 102/102 103/103 104/104 105/105
f 106/106 107/107 108/108 109/109
f 110/110 111/111 112/112
f 113/113 114/114 115/115
f 116/116 117/117 118/118 119/119
f 120/120 121/121 122/122 123/123
f 124/124 125/125 126/126
f 127/127 128/128 129/129
f 130/130 131/131 132/132 133/133
f 134/134 135/135 136/136 137/137
f 138/138 139/139 140/140
usemtl models/caelum/world/resources/ca_vein_sapphire.png
f 141/141 142/142 143/143 144/144
f 145/145 146/146 147/147
f 148/148 149/149 150/150
f 151/151 152/152 153/153 154/154
f 155/155 156/156 157/157
f 158/158 159/159 160/160
f 161/161 162/162 163/163 164/164
f 165/165 166/166 167/167
f 168/168 169/169 170/170
f 171/171 172/172 173/173 174/174
f 175/175 176/176 177/177
f 178/178 179/179 180/180
f 181/181 182/182 183/183 184/184
f 185/185 186/186 187/187
f 188/188 189/189 190/190
f 191/191 192/192 193/193 194/194
f 195/195 196/196 197/197
f 198/198 199/199 200/200
f 201/201 202/202 203/203 204/204
f 205/205 206/206 207/207
f 208/208 209/209 210/210
f 211/211 212/212 213/213 214/214
f 215/215 216/216 217/217
f 218/218 219/219 220/220
f 221/221 222/222 223/223 224/224
f 225/225 226/226 227/227
f 228/228 229/229 230/230
f 231/231 232/232 233/233 234/234
f 235/235 236/236 237/237
f 238/238 239/239 240/240
f 241/241 242/242 243/243 244/244
f 245/245 246/246 247/247
f 248/248 249/249 250/250
f 251/251 252/252 253/253 254/254
f 255/255 256/256 257/257
f 258/258 259/259 260/260
f 261/261 262/262 263/263 264/264
f 265/265 266/266 267/267
f 268/268 269/269 270/270
f 271/271 272/272 273/273 274/274
f 275/275 276/276 277/277
f 278/278 279/279 280/280
f 281/281 282/282 283/283 284/284
f 285/285 286/286 287/287
f 288/288 289/289 290/290
f 291/291 292/292 293/293 294/294
f 295/295 296/296 297/297
f 298/298 299/299 300/300
f 301/301 302/302 303/303 304/304
f 305/305 306/306 307/307
f 308/308 309/309 310/310
f 311/311 312/312 313/313 314/314
f 315/315 316/316 317/317
f 318/318 319/319 320/320
f 321/321 322/322 323/323 324/324
f 325/325 326/326 327/327
f 328/328 329/329 330/330
f 331/331 332/332 333/333 334/334
f 335/335 336/336 337/337
f 338/338 339/339 340/340
f 341/341 342/342 343/343 344/344
f 345/345 346/346 347/347
f 348/348 349/349 350/350
f 351/351 352/352 353/353 354/354
f 355/355 356/356 357/357
f 358/358 359/359 360/360
f 361/361 362/362 363/363 364/364
f 365/365 366/366 367/367
f 368/368 369/369 370/370
f 371/371 372/372 373/373 374/374
f 375/375 376/376 377/377
f 378/378 379/379 380/380
f 381/381 382/382 383/383 384/384
f 385/385 386/386 387/387
f 388/388 389/389 390/390
f 391/391 392/392 393/393 394/394
f 395/395 396/396 397/397
f 398/398 399/399 400/400
f 401/401 402/402 403/403 404/404
f 405/405 406/406 407/407
f 408/408 409/409 410/410
f 411/411 412/412 413/413 414/414
f 415/415 416/416 417/417
f 418/418 419/419 420/420
f 421/421 422/422 423/423 424/424
f 425/425 426/426 427/427
f 428/428 429/429 430/430
f 431/431 432/432 433/433 434/434
f 435/435 436/436 437/437
f 438/438 439/439 440/440
f 441/441 442/442 443/443 444/444
f 445/445 446/446 447/447
f 448/448 449/449 450/450
f 451/451 452/452 453/453 454/454
f 455/455 456/456 457/457
f 458/458 459/459 460/460
f 461/461 462/462 463/463 464/464
f 465/465 466/466 467/467
f 468/468 469/469 470/470
f 471/471 472/472 473/473 474/474
f 475/475 476/476 477/477
f 478/478 479/479 480/480
f 481/481 482/482 483/483 484/484
f 485/485 486/486 487/487
f 488/488 489/489 490/490
f 491/491 492/492 493/493 494/494
f 495/495 496/496 497/497
f 498/498 499/499 500/500
f 501/501 502/502 503/503 504/504
f 505/505 506/506 507/507
f 508/508 509/509 510/510
f 511/511 512/512 513/513 514/514
f 515/515 516/516 517/517
f 518/518 519/519 520/520
f 521/521 522/522 523/523 524/524
f 525/525 526/526 527/527
f 528/528 529/529 530/530
f 531/531 532/532 533/533 534/534
f 535/535 536/536 537/537
f 538/538 539/539 540/540
f 541/541 542/542 543/543 544/544
f 545/545 546/546 547/547
f 548/548 549/549 550/550
f 551/551 552/552 553/553 554/554
f 555/555 556/556 557/557
f 558/558 559/559 560/560
