# Modelo original generado para Caelum Argenteum.
# Ejes OBJ: X ancho, Y altura, Z profundidad.
o ca_vein_opal
v 0.000000 0.000000 0.000000
v 35.007225 -0.195931 0.000000
v 31.891842 0.190887 20.011128
v 35.007225 -0.195931 0.000000
v 37.993322 14.097122 0.000000
v 30.542280 16.047723 19.164320
v 31.891842 0.190887 20.011128
v 37.993322 14.097122 0.000000
v 34.003120 30.931709 0.000000
v 29.304163 30.932850 18.387441
v 30.542280 16.047723 19.164320
v 5.251710 47.000000 -0.839701
v 29.304163 30.932850 18.387441
v 34.003120 30.931709 0.000000
v 0.000000 0.000000 0.000000
v 31.891842 0.190887 20.011128
v 9.638543 -0.363065 25.619242
v 31.891842 0.190887 20.011128
v 30.542280 16.047723 19.164320
v 13.229083 16.064544 35.162894
v 9.638543 -0.363065 25.619242
v 30.542280 16.047723 19.164320
v 29.304163 30.932850 18.387441
v 9.320406 30.556616 24.773633
v 13.229083 16.064544 35.162894
v 5.251710 47.000000 -0.839701
v 9.320406 30.556616 24.773633
v 29.304163 30.932850 18.387441
v 0.000000 0.000000 0.000000
v 9.638543 -0.363065 25.619242
v -12.991543 -0.913471 34.531515
v 9.638543 -0.363065 25.619242
v 13.229083 16.064544 35.162894
v -15.244986 13.579673 40.521165
v -12.991543 -0.913471 34.531515
v 13.229083 16.064544 35.162894
v 9.320406 30.556616 24.773633
v -9.053224 33.188115 24.063464
v -15.244986 13.579673 40.521165
v 5.251710 47.000000 -0.839701
v -9.053224 33.188115 24.063464
v 9.320406 30.556616 24.773633
v 0.000000 0.000000 0.000000
v -12.991543 -0.913471 34.531515
v -25.499806 -0.453950 16.000326
v -12.991543 -0.913471 34.531515
v -15.244986 13.579673 40.521165
v -32.889631 15.054607 20.637209
v -25.499806 -0.453950 16.000326
v -15.244986 13.579673 40.521165
v -9.053224 33.188115 24.063464
v -22.159630 30.926870 13.904471
v -32.889631 15.054607 20.637209
v 5.251710 47.000000 -0.839701
v -22.159630 30.926870 13.904471
v -9.053224 33.188115 24.063464
v 0.000000 0.000000 0.000000
v -25.499806 -0.453950 16.000326
v -36.372772 0.480885 0.000000
v -25.499806 -0.453950 16.000326
v -32.889631 15.054607 20.637209
v -42.234048 15.651831 0.000000
v -36.372772 0.480885 0.000000
v -32.889631 15.054607 20.637209
v -22.159630 30.926870 13.904471
v -33.876387 30.441124 0.000000
v -42.234048 15.651831 0.000000
v 5.251710 47.000000 -0.839701
v -33.876387 30.441124 0.000000
v -22.159630 30.926870 13.904471
v 0.000000 0.000000 0.000000
v -36.372772 0.480885 0.000000
v -29.401490 -0.928813 -18.448510
v -36.372772 0.480885 0.000000
v -42.234048 15.651831 0.000000
v -39.379575 14.561595 -24.709445
v -29.401490 -0.928813 -18.448510
v -42.234048 15.651831 0.000000
v -33.876387 30.441124 0.000000
v -21.862853 32.994901 -13.718253
v -39.379575 14.561595 -24.709445
v 5.251710 47.000000 -0.839701
v -21.862853 32.994901 -13.718253
v -33.876387 30.441124 0.000000
v 0.000000 0.000000 0.000000
v -29.401490 -0.928813 -18.448510
v -11.155561 0.827811 -29.651476
v -29.401490 -0.928813 -18.448510
v -39.379575 14.561595 -24.709445
v -13.497126 15.175185 -35.875353
v -11.155561 0.827811 -29.651476
v -39.379575 14.561595 -24.709445
v -21.862853 32.994901 -13.718253
v -11.455876 31.898702 -30.449713
v -13.497126 15.175185 -35.875353
v 5.251710 47.000000 -0.839701
v -11.455876 31.898702 -30.449713
v -21.862853 32.994901 -13.718253
v 0.000000 0.000000 0.000000
v -11.155561 0.827811 -29.651476
v 9.624670 -0.332268 -25.582366
v -11.155561 0.827811 -29.651476
v -13.497126 15.175185 -35.875353
v 13.512712 15.229546 -35.916780
v 9.624670 -0.332268 -25.582366
v -13.497126 15.175185 -35.875353
v -11.455876 31.898702 -30.449713
v 11.007643 32.350818 -29.258309
v 13.512712 15.229546 -35.916780
v 5.251710 47.000000 -0.839701
v 11.007643 32.350818 -29.258309
v -11.455876 31.898702 -30.449713
v 0.000000 0.000000 0.000000
v 9.624670 -0.332268 -25.582366
v 25.665438 0.933107 -16.104255
v 9.624670 -0.332268 -25.582366
v 13.512712 15.229546 -35.916780
v 30.989746 16.035314 -19.445091
v 25.665438 0.933107 -16.104255
v 13.512712 15.229546 -35.916780
v 11.007643 32.350818 -29.258309
v 30.528519 31.171057 -19.155685
v 30.989746 16.035314 -19.445091
v 5.251710 47.000000 -0.839701
v 30.528519 31.171057 -19.155685
v 11.007643 32.350818 -29.258309
v 0.000000 0.000000 0.000000
v 25.665438 0.933107 -16.104255
v 35.007225 -0.195931 0.000000
v 25.665438 0.933107 -16.104255
v 30.989746 16.035314 -19.445091
v 37.993322 14.097122 0.000000
v 35.007225 -0.195931 0.000000
v 30.989746 16.035314 -19.445091
v 30.528519 31.171057 -19.155685
v 34.003120 30.931709 0.000000
v 37.993322 14.097122 0.000000
v 5.251710 47.000000 -0.839701
v 34.003120 30.931709 0.000000
v 30.528519 31.171057 -19.155685
v 17.213426 30.284147 -5.970452
v 13.045981 29.797961 -3.510331
v 12.492067 59.952367 -2.852436
v 12.877643 59.997349 -3.080049
v 17.213426 30.534131 -1.113120
v 13.045981 29.797961 -3.510331
v 17.213426 30.284147 -5.970452
v 12.877643 60.020478 -2.630644
v 12.877643 59.997349 -3.080049
v 12.492067 59.952367 -2.852436
v 13.045981 29.797961 -3.510331
v 13.045981 30.047945 1.347000
v 12.492067 59.975495 -2.403031
v 12.492067 59.952367 -2.852436
v 17.213426 30.534131 -1.113120
v 13.045981 30.047945 1.347000
v 13.045981 29.797961 -3.510331
v 12.877643 60.020478 -2.630644
v 12.492067 59.952367 -2.852436
v 12.492067 59.975495 -2.403031
v 13.045981 30.047945 1.347000
v 17.213426 30.784115 3.744212
v 12.877643 60.043607 -2.181239
v 12.492067 59.975495 -2.403031
v 17.213426 30.534131 -1.113120
v 17.213426 30.784115 3.744212
v 13.045981 30.047945 1.347000
v 12.877643 60.020478 -2.630644
v 12.492067 59.975495 -2.403031
v 12.877643 60.043607 -2.181239
v 17.213426 30.784115 3.744212
v 21.380871 31.270301 1.284091
v 13.263219 60.088589 -2.408852
v 12.877643 60.043607 -2.181239
v 17.213426 30.534131 -1.113120
v 21.380871 31.270301 1.284091
v 17.213426 30.784115 3.744212
v 12.877643 60.020478 -2.630644
v 12.877643 60.043607 -2.181239
v 13.263219 60.088589 -2.408852
v 21.380871 31.270301 1.284091
v 21.380871 31.020317 -3.573240
v 13.263219 60.065460 -2.858257
v 13.263219 60.088589 -2.408852
v 17.213426 30.534131 -1.113120
v 21.380871 31.020317 -3.573240
v 21.380871 31.270301 1.284091
v 12.877643 60.020478 -2.630644
v 13.263219 60.088589 -2.408852
v 13.263219 60.065460 -2.858257
v 21.380871 31.020317 -3.573240
v 17.213426 30.284147 -5.970452
v 12.877643 59.997349 -3.080049
v 13.263219 60.065460 -2.858257
v 17.213426 30.534131 -1.113120
v 17.213426 30.284147 -5.970452
v 21.380871 31.020317 -3.573240
v 12.877643 60.020478 -2.630644
v 13.263219 60.065460 -2.858257
v 12.877643 59.997349 -3.080049
v 5.156659 23.952244 5.408573
v 0.726921 23.899252 9.092377
v 5.267839 50.148547 10.776653
v 5.613817 50.152686 10.488935
v 6.131278 24.002227 11.086901
v 0.726921 23.899252 9.092377
v 5.156659 23.952244 5.408573
v 5.689938 50.156589 10.932433
v 5.613817 50.152686 10.488935
v 5.267839 50.148547 10.776653
v 0.726921 23.899252 9.092377
v 1.701540 23.949234 14.770706
v 5.343960 50.152451 11.220151
v 5.267839 50.148547 10.776653
v 6.131278 24.002227 11.086901
v 1.701540 23.949234 14.770706
v 0.726921 23.899252 9.092377
v 5.689938 50.156589 10.932433
v 5.267839 50.148547 10.776653
v 5.343960 50.152451 11.220151
v 1.701540 23.949234 14.770706
v 7.105896 24.052209 16.765230
v 5.766059 50.160493 11.375930
v 5.343960 50.152451 11.220151
v 6.131278 24.002227 11.086901
v 7.105896 24.052209 16.765230
v 1.701540 23.949234 14.770706
v 5.689938 50.156589 10.932433
v 5.343960 50.152451 11.220151
v 5.766059 50.160493 11.375930
v 7.105896 24.052209 16.765230
v 11.535634 24.105202 13.081426
v 6.112038 50.164632 11.088212
v 5.766059 50.160493 11.375930
v 6.131278 24.002227 11.086901
v 11.535634 24.105202 13.081426
v 7.105896 24.052209 16.765230
v 5.689938 50.156589 10.932433
v 5.766059 50.160493 11.375930
v 6.112038 50.164632 11.088212
v 11.535634 24.105202 13.081426
v 10.561015 24.055219 7.403097
v 6.035917 50.160728 10.644714
v 6.112038 50.164632 11.088212
v 6.131278 24.002227 11.086901
v 10.561015 24.055219 7.403097
v 11.535634 24.105202 13.081426
v 5.689938 50.156589 10.932433
v 6.112038 50.164632 11.088212
v 6.035917 50.160728 10.644714
v 10.561015 24.055219 7.403097
v 5.156659 23.952244 5.408573
v 5.613817 50.152686 10.488935
v 6.035917 50.160728 10.644714
v 6.131278 24.002227 11.086901
v 5.156659 23.952244 5.408573
v 10.561015 24.055219 7.403097
v 5.689938 50.156589 10.932433
v 6.035917 50.160728 10.644714
v 5.613817 50.152686 10.488935
v -4.165097 27.358689 7.709639
v -7.318560 27.112702 11.447433
v -7.354548 60.504423 10.702119
v -7.064739 60.527030 10.358608
v -2.546457 27.789149 12.310797
v -7.318560 27.112702 11.447433
v -4.165097 27.358689 7.709639
v -6.915982 60.566590 10.781464
v -7.064739 60.527030 10.358608
v -7.354548 60.504423 10.702119
v -7.318560 27.112702 11.447433
v -5.699921 27.543163 16.048591
v -7.205792 60.543983 11.124974
v -7.354548 60.504423 10.702119
v -2.546457 27.789149 12.310797
v -5.699921 27.543163 16.048591
v -7.318560 27.112702 11.447433
v -6.915982 60.566590 10.781464
v -7.354548 60.504423 10.702119
v -7.205792 60.543983 11.124974
v -5.699921 27.543163 16.048591
v -0.927818 28.219610 16.911956
v -6.767226 60.606150 11.204319
v -7.205792 60.543983 11.124974
v -2.546457 27.789149 12.310797
v -0.927818 28.219610 16.911956
v -5.699921 27.543163 16.048591
v -6.915982 60.566590 10.781464
v -7.205792 60.543983 11.124974
v -6.767226 60.606150 11.204319
v -0.927818 28.219610 16.911956
v 2.225645 28.465596 13.174162
v -6.477417 60.628757 10.860809
v -6.767226 60.606150 11.204319
v -2.546457 27.789149 12.310797
v 2.225645 28.465596 13.174162
v -0.927818 28.219610 16.911956
v -6.915982 60.566590 10.781464
v -6.767226 60.606150 11.204319
v -6.477417 60.628757 10.860809
v 2.225645 28.465596 13.174162
v 0.607006 28.035136 8.573004
v -6.626173 60.589197 10.437953
v -6.477417 60.628757 10.860809
v -2.546457 27.789149 12.310797
v 0.607006 28.035136 8.573004
v 2.225645 28.465596 13.174162
v -6.915982 60.566590 10.781464
v -6.477417 60.628757 10.860809
v -6.626173 60.589197 10.437953
v 0.607006 28.035136 8.573004
v -4.165097 27.358689 7.709639
v -7.064739 60.527030 10.358608
v -6.626173 60.589197 10.437953
v -2.546457 27.789149 12.310797
v -4.165097 27.358689 7.709639
v 0.607006 28.035136 8.573004
v -6.915982 60.566590 10.781464
v -6.626173 60.589197 10.437953
v -7.064739 60.527030 10.358608
v -22.920911 23.500422 8.769830
v -26.112086 23.286332 14.223162
v -24.264685 47.882488 12.866101
v -24.037539 47.897727 12.477936
v -19.876614 24.328696 14.248378
v -26.112086 23.286332 14.223162
v -22.920911 23.500422 8.769830
v -23.820848 47.956683 12.867896
v -24.037539 47.897727 12.477936
v -24.264685 47.882488 12.866101
v -26.112086 23.286332 14.223162
v -23.067789 24.114606 19.701710
v -24.047994 47.941444 13.256061
v -24.264685 47.882488 12.866101
v -19.876614 24.328696 14.248378
v -23.067789 24.114606 19.701710
v -26.112086 23.286332 14.223162
v -23.820848 47.956683 12.867896
v -24.264685 47.882488 12.866101
v -24.047994 47.941444 13.256061
v -23.067789 24.114606 19.701710
v -16.832318 25.156970 19.726925
v -23.604156 48.015639 13.257856
v -24.047994 47.941444 13.256061
v -19.876614 24.328696 14.248378
v -16.832318 25.156970 19.726925
v -23.067789 24.114606 19.701710
v -23.820848 47.956683 12.867896
v -24.047994 47.941444 13.256061
v -23.604156 48.015639 13.257856
v -16.832318 25.156970 19.726925
v -13.641143 25.371060 14.273593
v -23.377010 48.030878 12.869691
v -23.604156 48.015639 13.257856
v -19.876614 24.328696 14.248378
v -13.641143 25.371060 14.273593
v -16.832318 25.156970 19.726925
v -23.820848 47.956683 12.867896
v -23.604156 48.015639 13.257856
v -23.377010 48.030878 12.869691
v -13.641143 25.371060 14.273593
v -16.685440 24.542786 8.795045
v -23.593701 47.971922 12.479730
v -23.377010 48.030878 12.869691
v -19.876614 24.328696 14.248378
v -16.685440 24.542786 8.795045
v -13.641143 25.371060 14.273593
v -23.820848 47.956683 12.867896
v -23.377010 48.030878 12.869691
v -23.593701 47.971922 12.479730
v -16.685440 24.542786 8.795045
v -22.920911 23.500422 8.769830
v -24.037539 47.897727 12.477936
v -23.593701 47.971922 12.479730
v -19.876614 24.328696 14.248378
v -22.920911 23.500422 8.769830
v -16.685440 24.542786 8.795045
v -23.820848 47.956683 12.867896
v -23.593701 47.971922 12.479730
v -24.037539 47.897727 12.477936
v -26.200874 31.727962 -14.192988
v -28.081687 31.711886 -9.274839
v -25.461373 53.116215 -10.780647
v -25.300636 53.117589 -11.200959
v -22.906617 32.204036 -10.112898
v -28.081687 31.711886 -9.274839
v -26.200874 31.727962 -14.192988
v -25.019104 53.158275 -10.852269
v -25.300636 53.117589 -11.200959
v -25.461373 53.116215 -10.780647
v -28.081687 31.711886 -9.274839
v -24.787430 32.187960 -5.194749
v -25.179841 53.156901 -10.431957
v -25.461373 53.116215 -10.780647
v -22.906617 32.204036 -10.112898
v -24.787430 32.187960 -5.194749
v -28.081687 31.711886 -9.274839
v -25.019104 53.158275 -10.852269
v -25.461373 53.116215 -10.780647
v -25.179841 53.156901 -10.431957
v -24.787430 32.187960 -5.194749
v -19.612360 32.680110 -6.032809
v -24.737573 53.198960 -10.503579
v -25.179841 53.156901 -10.431957
v -22.906617 32.204036 -10.112898
v -19.612360 32.680110 -6.032809
v -24.787430 32.187960 -5.194749
v -25.019104 53.158275 -10.852269
v -25.179841 53.156901 -10.431957
v -24.737573 53.198960 -10.503579
v -19.612360 32.680110 -6.032809
v -17.731547 32.696186 -10.950958
v -24.576836 53.200334 -10.923891
v -24.737573 53.198960 -10.503579
v -22.906617 32.204036 -10.112898
v -17.731547 32.696186 -10.950958
v -19.612360 32.680110 -6.032809
v -25.019104 53.158275 -10.852269
v -24.737573 53.198960 -10.503579
v -24.576836 53.200334 -10.923891
v -17.731547 32.696186 -10.950958
v -21.025804 32.220112 -15.031047
v -24.858368 53.159648 -11.272580
v -24.576836 53.200334 -10.923891
v -22.906617 32.204036 -10.112898
v -21.025804 32.220112 -15.031047
v -17.731547 32.696186 -10.950958
v -25.019104 53.158275 -10.852269
v -24.576836 53.200334 -10.923891
v -24.858368 53.159648 -11.272580
v -21.025804 32.220112 -15.031047
v -26.200874 31.727962 -14.192988
v -25.300636 53.117589 -11.200959
v -24.858368 53.159648 -11.272580
v -22.906617 32.204036 -10.112898
v -26.200874 31.727962 -14.192988
v -21.025804 32.220112 -15.031047
v -25.019104 53.158275 -10.852269
v -24.858368 53.159648 -11.272580
v -25.300636 53.117589 -11.200959
v -10.102883 31.705678 -25.132535
v -11.159617 31.711890 -19.843253
v -6.680492 57.772168 -21.499747
v -6.592330 57.771650 -21.941026
v -6.050740 31.747105 -21.572809
v -11.159617 31.711890 -19.843253
v -10.102883 31.705678 -25.132535
v -6.254264 57.775106 -21.644042
v -6.592330 57.771650 -21.941026
v -6.680492 57.772168 -21.499747
v -11.159617 31.711890 -19.843253
v -7.107474 31.753318 -16.283527
v -6.342426 57.775625 -21.202763
v -6.680492 57.772168 -21.499747
v -6.050740 31.747105 -21.572809
v -7.107474 31.753318 -16.283527
v -11.159617 31.711890 -19.843253
v -6.254264 57.775106 -21.644042
v -6.680492 57.772168 -21.499747
v -6.342426 57.775625 -21.202763
v -7.107474 31.753318 -16.283527
v -1.998597 31.788533 -18.013083
v -5.916198 57.778563 -21.347058
v -6.342426 57.775625 -21.202763
v -6.050740 31.747105 -21.572809
v -1.998597 31.788533 -18.013083
v -7.107474 31.753318 -16.283527
v -6.254264 57.775106 -21.644042
v -6.342426 57.775625 -21.202763
v -5.916198 57.778563 -21.347058
v -1.998597 31.788533 -18.013083
v -0.941863 31.782321 -23.302364
v -5.828036 57.778044 -21.788337
v -5.916198 57.778563 -21.347058
v -6.050740 31.747105 -21.572809
v -0.941863 31.782321 -23.302364
v -1.998597 31.788533 -18.013083
v -6.254264 57.775106 -21.644042
v -5.916198 57.778563 -21.347058
v -5.828036 57.778044 -21.788337
v -0.941863 31.782321 -23.302364
v -4.994006 31.740893 -26.862091
v -6.166102 57.774588 -22.085321
v -5.828036 57.778044 -21.788337
v -6.050740 31.747105 -21.572809
v -4.994006 31.740893 -26.862091
v -0.941863 31.782321 -23.302364
v -6.254264 57.775106 -21.644042
v -5.828036 57.778044 -21.788337
v -6.166102 57.774588 -22.085321
v -4.994006 31.740893 -26.862091
v -10.102883 31.705678 -25.132535
v -6.592330 57.771650 -21.941026
v -6.166102 57.774588 -22.085321
v -6.050740 31.747105 -21.572809
v -10.102883 31.705678 -25.132535
v -4.994006 31.740893 -26.862091
v -6.254264 57.775106 -21.644042
v -6.166102 57.774588 -22.085321
v -6.592330 57.771650 -21.941026
v 8.633089 24.702787 -17.675495
v 8.520144 24.653712 -13.521246
v 13.007886 58.200125 -14.856791
v 13.020115 58.205439 -15.306593
v 12.172144 24.545440 -15.502184
v 8.520144 24.653712 -13.521246
v 8.633089 24.702787 -17.675495
v 13.403308 58.188402 -15.071277
v 13.020115 58.205439 -15.306593
v 13.007886 58.200125 -14.856791
v 8.520144 24.653712 -13.521246
v 12.059199 24.496364 -11.347936
v 13.391078 58.183088 -14.621475
v 13.007886 58.200125 -14.856791
v 12.172144 24.545440 -15.502184
v 12.059199 24.496364 -11.347936
v 8.520144 24.653712 -13.521246
v 13.403308 58.188402 -15.071277
v 13.007886 58.200125 -14.856791
v 13.391078 58.183088 -14.621475
v 12.059199 24.496364 -11.347936
v 15.711199 24.388092 -13.328874
v 13.786500 58.171365 -14.835961
v 13.391078 58.183088 -14.621475
v 12.172144 24.545440 -15.502184
v 15.711199 24.388092 -13.328874
v 12.059199 24.496364 -11.347936
v 13.403308 58.188402 -15.071277
v 13.391078 58.183088 -14.621475
v 13.786500 58.171365 -14.835961
v 15.711199 24.388092 -13.328874
v 15.824145 24.437167 -17.483123
v 13.798729 58.176679 -15.285764
v 13.786500 58.171365 -14.835961
v 12.172144 24.545440 -15.502184
v 15.824145 24.437167 -17.483123
v 15.711199 24.388092 -13.328874
v 13.403308 58.188402 -15.071277
v 13.786500 58.171365 -14.835961
v 13.798729 58.176679 -15.285764
v 15.824145 24.437167 -17.483123
v 12.285090 24.594515 -19.656433
v 13.415537 58.193716 -15.521080
v 13.798729 58.176679 -15.285764
v 12.172144 24.545440 -15.502184
v 12.285090 24.594515 -19.656433
v 15.824145 24.437167 -17.483123
v 13.403308 58.188402 -15.071277
v 13.798729 58.176679 -15.285764
v 13.415537 58.193716 -15.521080
v 12.285090 24.594515 -19.656433
v 8.633089 24.702787 -17.675495
v 13.020115 58.205439 -15.306593
v 13.415537 58.193716 -15.521080
v 12.172144 24.545440 -15.502184
v 8.633089 24.702787 -17.675495
v 12.285090 24.594515 -19.656433
v 13.403308 58.188402 -15.071277
v 13.415537 58.193716 -15.521080
v 13.020115 58.205439 -15.306593
vt 0.500000 1.000000
vt 0.000000 0.000000
vt 1.000000 0.000000
vt 0.000000 0.000000
vt 1.000000 0.000000
vt 1.000000 1.000000
vt 0.000000 1.000000
vt 0.000000 0.000000
vt 1.000000 0.000000
vt 1.000000 1.000000
vt 0.000000 1.000000
vt 0.500000 1.000000
vt 0.000000 0.000000
vt 1.000000 0.000000
vt 0.500000 1.000000
vt 0.000000 0.000000
vt 1.000000 0.000000
vt 0.000000 0.000000
vt 1.000000 0.000000
vt 1.000000 1.000000
vt 0.000000 1.000000
vt 0.000000 0.000000
vt 1.000000 0.000000
vt 1.000000 1.000000
vt 0.000000 1.000000
vt 0.500000 1.000000
vt 0.000000 0.000000
vt 1.000000 0.000000
vt 0.500000 1.000000
vt 0.000000 0.000000
vt 1.000000 0.000000
vt 0.000000 0.000000
vt 1.000000 0.000000
vt 1.000000 1.000000
vt 0.000000 1.000000
vt 0.000000 0.000000
vt 1.000000 0.000000
vt 1.000000 1.000000
vt 0.000000 1.000000
vt 0.500000 1.000000
vt 0.000000 0.000000
vt 1.000000 0.000000
vt 0.500000 1.000000
vt 0.000000 0.000000
vt 1.000000 0.000000
vt 0.000000 0.000000
vt 1.000000 0.000000
vt 1.000000 1.000000
vt 0.000000 1.000000
vt 0.000000 0.000000
vt 1.000000 0.000000
vt 1.000000 1.000000
vt 0.000000 1.000000
vt 0.500000 1.000000
vt 0.000000 0.000000
vt 1.000000 0.000000
vt 0.500000 1.000000
vt 0.000000 0.000000
vt 1.000000 0.000000
vt 0.000000 0.000000
vt 1.000000 0.000000
vt 1.000000 1.000000
vt 0.000000 1.000000
vt 0.000000 0.000000
vt 1.000000 0.000000
vt 1.000000 1.000000
vt 0.000000 1.000000
vt 0.500000 1.000000
vt 0.000000 0.000000
vt 1.000000 0.000000
vt 0.500000 1.000000
vt 0.000000 0.000000
vt 1.000000 0.000000
vt 0.000000 0.000000
vt 1.000000 0.000000
vt 1.000000 1.000000
vt 0.000000 1.000000
vt 0.000000 0.000000
vt 1.000000 0.000000
vt 1.000000 1.000000
vt 0.000000 1.000000
vt 0.500000 1.000000
vt 0.000000 0.000000
vt 1.000000 0.000000
vt 0.500000 1.000000
vt 0.000000 0.000000
vt 1.000000 0.000000
vt 0.000000 0.000000
vt 1.000000 0.000000
vt 1.000000 1.000000
vt 0.000000 1.000000
vt 0.000000 0.000000
vt 1.000000 0.000000
vt 1.000000 1.000000
vt 0.000000 1.000000
vt 0.500000 1.000000
vt 0.000000 0.000000
vt 1.000000 0.000000
vt 0.500000 1.000000
vt 0.000000 0.000000
vt 1.000000 0.000000
vt 0.000000 0.000000
vt 1.000000 0.000000
vt 1.000000 1.000000
vt 0.000000 1.000000
vt 0.000000 0.000000
vt 1.000000 0.000000
vt 1.000000 1.000000
vt 0.000000 1.000000
vt 0.500000 1.000000
vt 0.000000 0.000000
vt 1.000000 0.000000
vt 0.500000 1.000000
vt 0.000000 0.000000
vt 1.000000 0.000000
vt 0.000000 0.000000
vt 1.000000 0.000000
vt 1.000000 1.000000
vt 0.000000 1.000000
vt 0.000000 0.000000
vt 1.000000 0.000000
vt 1.000000 1.000000
vt 0.000000 1.000000
vt 0.500000 1.000000
vt 0.000000 0.000000
vt 1.000000 0.000000
vt 0.500000 1.000000
vt 0.000000 0.000000
vt 1.000000 0.000000
vt 0.000000 0.000000
vt 1.000000 0.000000
vt 1.000000 1.000000
vt 0.000000 1.000000
vt 0.000000 0.000000
vt 1.000000 0.000000
vt 1.000000 1.000000
vt 0.000000 1.000000
vt 0.500000 1.000000
vt 0.000000 0.000000
vt 1.000000 0.000000
vt 0.000000 0.000000
vt 1.000000 0.000000
vt 1.000000 1.000000
vt 0.000000 1.000000
vt 0.500000 1.000000
vt 0.000000 0.000000
vt 1.000000 0.000000
vt 0.500000 1.000000
vt 0.000000 0.000000
vt 1.000000 0.000000
vt 0.000000 0.000000
vt 1.000000 0.000000
vt 1.000000 1.000000
vt 0.000000 1.000000
vt 0.500000 1.000000
vt 0.000000 0.000000
vt 1.000000 0.000000
vt 0.500000 1.000000
vt 0.000000 0.000000
vt 1.000000 0.000000
vt 0.000000 0.000000
vt 1.000000 0.000000
vt 1.000000 1.000000
vt 0.000000 1.000000
vt 0.500000 1.000000
vt 0.000000 0.000000
vt 1.000000 0.000000
vt 0.500000 1.000000
vt 0.000000 0.000000
vt 1.000000 0.000000
vt 0.000000 0.000000
vt 1.000000 0.000000
vt 1.000000 1.000000
vt 0.000000 1.000000
vt 0.500000 1.000000
vt 0.000000 0.000000
vt 1.000000 0.000000
vt 0.500000 1.000000
vt 0.000000 0.000000
vt 1.000000 0.000000
vt 0.000000 0.000000
vt 1.000000 0.000000
vt 1.000000 1.000000
vt 0.000000 1.000000
vt 0.500000 1.000000
vt 0.000000 0.000000
vt 1.000000 0.000000
vt 0.500000 1.000000
vt 0.000000 0.000000
vt 1.000000 0.000000
vt 0.000000 0.000000
vt 1.000000 0.000000
vt 1.000000 1.000000
vt 0.000000 1.000000
vt 0.500000 1.000000
vt 0.000000 0.000000
vt 1.000000 0.000000
vt 0.500000 1.000000
vt 0.000000 0.000000
vt 1.000000 0.000000
vt 0.000000 0.000000
vt 1.000000 0.000000
vt 1.000000 1.000000
vt 0.000000 1.000000
vt 0.500000 1.000000
vt 0.000000 0.000000
vt 1.000000 0.000000
vt 0.500000 1.000000
vt 0.000000 0.000000
vt 1.000000 0.000000
vt 0.000000 0.000000
vt 1.000000 0.000000
vt 1.000000 1.000000
vt 0.000000 1.000000
vt 0.500000 1.000000
vt 0.000000 0.000000
vt 1.000000 0.000000
vt 0.500000 1.000000
vt 0.000000 0.000000
vt 1.000000 0.000000
vt 0.000000 0.000000
vt 1.000000 0.000000
vt 1.000000 1.000000
vt 0.000000 1.000000
vt 0.500000 1.000000
vt 0.000000 0.000000
vt 1.000000 0.000000
vt 0.500000 1.000000
vt 0.000000 0.000000
vt 1.000000 0.000000
vt 0.000000 0.000000
vt 1.000000 0.000000
vt 1.000000 1.000000
vt 0.000000 1.000000
vt 0.500000 1.000000
vt 0.000000 0.000000
vt 1.000000 0.000000
vt 0.500000 1.000000
vt 0.000000 0.000000
vt 1.000000 0.000000
vt 0.000000 0.000000
vt 1.000000 0.000000
vt 1.000000 1.000000
vt 0.000000 1.000000
vt 0.500000 1.000000
vt 0.000000 0.000000
vt 1.000000 0.000000
vt 0.500000 1.000000
vt 0.000000 0.000000
vt 1.000000 0.000000
vt 0.000000 0.000000
vt 1.000000 0.000000
vt 1.000000 1.000000
vt 0.000000 1.000000
vt 0.500000 1.000000
vt 0.000000 0.000000
vt 1.000000 0.000000
vt 0.500000 1.000000
vt 0.000000 0.000000
vt 1.000000 0.000000
vt 0.000000 0.000000
vt 1.000000 0.000000
vt 1.000000 1.000000
vt 0.000000 1.000000
vt 0.500000 1.000000
vt 0.000000 0.000000
vt 1.000000 0.000000
vt 0.500000 1.000000
vt 0.000000 0.000000
vt 1.000000 0.000000
vt 0.000000 0.000000
vt 1.000000 0.000000
vt 1.000000 1.000000
vt 0.000000 1.000000
vt 0.500000 1.000000
vt 0.000000 0.000000
vt 1.000000 0.000000
vt 0.500000 1.000000
vt 0.000000 0.000000
vt 1.000000 0.000000
vt 0.000000 0.000000
vt 1.000000 0.000000
vt 1.000000 1.000000
vt 0.000000 1.000000
vt 0.500000 1.000000
vt 0.000000 0.000000
vt 1.000000 0.000000
vt 0.500000 1.000000
vt 0.000000 0.000000
vt 1.000000 0.000000
vt 0.000000 0.000000
vt 1.000000 0.000000
vt 1.000000 1.000000
vt 0.000000 1.000000
vt 0.500000 1.000000
vt 0.000000 0.000000
vt 1.000000 0.000000
vt 0.500000 1.000000
vt 0.000000 0.000000
vt 1.000000 0.000000
vt 0.000000 0.000000
vt 1.000000 0.000000
vt 1.000000 1.000000
vt 0.000000 1.000000
vt 0.500000 1.000000
vt 0.000000 0.000000
vt 1.000000 0.000000
vt 0.500000 1.000000
vt 0.000000 0.000000
vt 1.000000 0.000000
vt 0.000000 0.000000
vt 1.000000 0.000000
vt 1.000000 1.000000
vt 0.000000 1.000000
vt 0.500000 1.000000
vt 0.000000 0.000000
vt 1.000000 0.000000
vt 0.500000 1.000000
vt 0.000000 0.000000
vt 1.000000 0.000000
vt 0.000000 0.000000
vt 1.000000 0.000000
vt 1.000000 1.000000
vt 0.000000 1.000000
vt 0.500000 1.000000
vt 0.000000 0.000000
vt 1.000000 0.000000
vt 0.500000 1.000000
vt 0.000000 0.000000
vt 1.000000 0.000000
vt 0.000000 0.000000
vt 1.000000 0.000000
vt 1.000000 1.000000
vt 0.000000 1.000000
vt 0.500000 1.000000
vt 0.000000 0.000000
vt 1.000000 0.000000
vt 0.500000 1.000000
vt 0.000000 0.000000
vt 1.000000 0.000000
vt 0.000000 0.000000
vt 1.000000 0.000000
vt 1.000000 1.000000
vt 0.000000 1.000000
vt 0.500000 1.000000
vt 0.000000 0.000000
vt 1.000000 0.000000
vt 0.500000 1.000000
vt 0.000000 0.000000
vt 1.000000 0.000000
vt 0.000000 0.000000
vt 1.000000 0.000000
vt 1.000000 1.000000
vt 0.000000 1.000000
vt 0.500000 1.000000
vt 0.000000 0.000000
vt 1.000000 0.000000
vt 0.500000 1.000000
vt 0.000000 0.000000
vt 1.000000 0.000000
vt 0.000000 0.000000
vt 1.000000 0.000000
vt 1.000000 1.000000
vt 0.000000 1.000000
vt 0.500000 1.000000
vt 0.000000 0.000000
vt 1.000000 0.000000
vt 0.500000 1.000000
vt 0.000000 0.000000
vt 1.000000 0.000000
vt 0.000000 0.000000
vt 1.000000 0.000000
vt 1.000000 1.000000
vt 0.000000 1.000000
vt 0.500000 1.000000
vt 0.000000 0.000000
vt 1.000000 0.000000
vt 0.500000 1.000000
vt 0.000000 0.000000
vt 1.000000 0.000000
vt 0.000000 0.000000
vt 1.000000 0.000000
vt 1.000000 1.000000
vt 0.000000 1.000000
vt 0.500000 1.000000
vt 0.000000 0.000000
vt 1.000000 0.000000
vt 0.500000 1.000000
vt 0.000000 0.000000
vt 1.000000 0.000000
vt 0.000000 0.000000
vt 1.000000 0.000000
vt 1.000000 1.000000
vt 0.000000 1.000000
vt 0.500000 1.000000
vt 0.000000 0.000000
vt 1.000000 0.000000
vt 0.500000 1.000000
vt 0.000000 0.000000
vt 1.000000 0.000000
vt 0.000000 0.000000
vt 1.000000 0.000000
vt 1.000000 1.000000
vt 0.000000 1.000000
vt 0.500000 1.000000
vt 0.000000 0.000000
vt 1.000000 0.000000
vt 0.500000 1.000000
vt 0.000000 0.000000
vt 1.000000 0.000000
vt 0.000000 0.000000
vt 1.000000 0.000000
vt 1.000000 1.000000
vt 0.000000 1.000000
vt 0.500000 1.000000
vt 0.000000 0.000000
vt 1.000000 0.000000
vt 0.500000 1.000000
vt 0.000000 0.000000
vt 1.000000 0.000000
vt 0.000000 0.000000
vt 1.000000 0.000000
vt 1.000000 1.000000
vt 0.000000 1.000000
vt 0.500000 1.000000
vt 0.000000 0.000000
vt 1.000000 0.000000
vt 0.500000 1.000000
vt 0.000000 0.000000
vt 1.000000 0.000000
vt 0.000000 0.000000
vt 1.000000 0.000000
vt 1.000000 1.000000
vt 0.000000 1.000000
vt 0.500000 1.000000
vt 0.000000 0.000000
vt 1.000000 0.000000
vt 0.500000 1.000000
vt 0.000000 0.000000
vt 1.000000 0.000000
vt 0.000000 0.000000
vt 1.000000 0.000000
vt 1.000000 1.000000
vt 0.000000 1.000000
vt 0.500000 1.000000
vt 0.000000 0.000000
vt 1.000000 0.000000
vt 0.500000 1.000000
vt 0.000000 0.000000
vt 1.000000 0.000000
vt 0.000000 0.000000
vt 1.000000 0.000000
vt 1.000000 1.000000
vt 0.000000 1.000000
vt 0.500000 1.000000
vt 0.000000 0.000000
vt 1.000000 0.000000
vt 0.500000 1.000000
vt 0.000000 0.000000
vt 1.000000 0.000000
vt 0.000000 0.000000
vt 1.000000 0.000000
vt 1.000000 1.000000
vt 0.000000 1.000000
vt 0.500000 1.000000
vt 0.000000 0.000000
vt 1.000000 0.000000
vt 0.500000 1.000000
vt 0.000000 0.000000
vt 1.000000 0.000000
vt 0.000000 0.000000
vt 1.000000 0.000000
vt 1.000000 1.000000
vt 0.000000 1.000000
vt 0.500000 1.000000
vt 0.000000 0.000000
vt 1.000000 0.000000
vt 0.500000 1.000000
vt 0.000000 0.000000
vt 1.000000 0.000000
vt 0.000000 0.000000
vt 1.000000 0.000000
vt 1.000000 1.000000
vt 0.000000 1.000000
vt 0.500000 1.000000
vt 0.000000 0.000000
vt 1.000000 0.000000
vt 0.500000 1.000000
vt 0.000000 0.000000
vt 1.000000 0.000000
vt 0.000000 0.000000
vt 1.000000 0.000000
vt 1.000000 1.000000
vt 0.000000 1.000000
vt 0.500000 1.000000
vt 0.000000 0.000000
vt 1.000000 0.000000
vt 0.500000 1.000000
vt 0.000000 0.000000
vt 1.000000 0.000000
vt 0.000000 0.000000
vt 1.000000 0.000000
vt 1.000000 1.000000
vt 0.000000 1.000000
vt 0.500000 1.000000
vt 0.000000 0.000000
vt 1.000000 0.000000
vt 0.500000 1.000000
vt 0.000000 0.000000
vt 1.000000 0.000000
vt 0.000000 0.000000
vt 1.000000 0.000000
vt 1.000000 1.000000
vt 0.000000 1.000000
vt 0.500000 1.000000
vt 0.000000 0.000000
vt 1.000000 0.000000
vt 0.500000 1.000000
vt 0.000000 0.000000
vt 1.000000 0.000000
vt 0.000000 0.000000
vt 1.000000 0.000000
vt 1.000000 1.000000
vt 0.000000 1.000000
vt 0.500000 1.000000
vt 0.000000 0.000000
vt 1.000000 0.000000
vt 0.500000 1.000000
vt 0.000000 0.000000
vt 1.000000 0.000000
vt 0.000000 0.000000
vt 1.000000 0.000000
vt 1.000000 1.000000
vt 0.000000 1.000000
vt 0.500000 1.000000
vt 0.000000 0.000000
vt 1.000000 0.000000
vt 0.500000 1.000000
vt 0.000000 0.000000
vt 1.000000 0.000000
vt 0.000000 0.000000
vt 1.000000 0.000000
vt 1.000000 1.000000
vt 0.000000 1.000000
vt 0.500000 1.000000
vt 0.000000 0.000000
vt 1.000000 0.000000
vt 0.500000 1.000000
vt 0.000000 0.000000
vt 1.000000 0.000000
vt 0.000000 0.000000
vt 1.000000 0.000000
vt 1.000000 1.000000
vt 0.000000 1.000000
vt 0.500000 1.000000
vt 0.000000 0.000000
vt 1.000000 0.000000
vt 0.500000 1.000000
vt 0.000000 0.000000
vt 1.000000 0.000000
s 1
usemtl models/caelum/world/environment/rock_granite.png
f 1/1 2/2 3/3
f 4/4 5/5 6/6 7/7
f 8/8 9/9 10/10 11/11
f 12/12 13/13 14/14
f 15/15 16/16 17/17
f 18/18 19/19 20/20 21/21
f 22/22 23/23 24/24 25/25
f 26/26 27/27 28/28
f 29/29 30/30 31/31
f 32/32 33/33 34/34 35/35
f 36/36 37/37 38/38 39/39
f 40/40 41/41 42/42
f 43/43 44/44 45/45
f 46/46 47/47 48/48 49/49
f 50/50 51/51 52/52 53/53
f 54/54 55/55 56/56
f 57/57 58/58 59/59
f 60/60 61/61 62/62 63/63
f 64/64 65/65 66/66 67/67
f 68/68 69/69 70/70
f 71/71 72/72 73/73
f 74/74 75/75 76/76 77/77
f 78/78 79/79 80/80 81/81
f 82/82 83/83 84/84
f 85/85 86/86 87/87
f 88/88 89/89 90/90 91/91
f 92/92 93/93 94/94 95/95
f 96/96 97/97 98/98
f 99/99 100/100 101/101
f 102/102 103/103 104/104 105/105
f 106/106 107/107 108/108 109/109
f 110/110 111/111 112/112
f 113/113 114/114 115/115
f 116/116 117/117 118/118 119/119
f 120/120 121/121 122/122 123/123
f 124/124 125/125 126/126
f 127/127 128/128 129/129
f 130/130 131/131 132/132 133/133
f 134/134 135/135 136/136 137/137
f 138/138 139/139 140/140
usemtl models/caelum/world/resources/ca_vein_opal.png
f 141/141 142/142 143/143 144/144
f 145/145 146/146 147/147
f 148/148 149/149 150/150
f 151/151 152/152 153/153 154/154
f 155/155 156/156 157/157
f 158/158 159/159 160/160
f 161/161 162/162 163/163 164/164
f 165/165 166/166 167/167
f 168/168 169/169 170/170
f 171/171 172/172 173/173 174/174
f 175/175 176/176 177/177
f 178/178 179/179 180/180
f 181/181 182/182 183/183 184/184
f 185/185 186/186 187/187
f 188/188 189/189 190/190
f 191/191 192/192 193/193 194/194
f 195/195 196/196 197/197
f 198/198 199/199 200/200
f 201/201 202/202 203/203 204/204
f 205/205 206/206 207/207
f 208/208 209/209 210/210
f 211/211 212/212 213/213 214/214
f 215/215 216/216 217/217
f 218/218 219/219 220/220
f 221/221 222/222 223/223 224/224
f 225/225 226/226 227/227
f 228/228 229/229 230/230
f 231/231 232/232 233/233 234/234
f 235/235 236/236 237/237
f 238/238 239/239 240/240
f 241/241 242/242 243/243 244/244
f 245/245 246/246 247/247
f 248/248 249/249 250/250
f 251/251 252/252 253/253 254/254
f 255/255 256/256 257/257
f 258/258 259/259 260/260
f 261/261 262/262 263/263 264/264
f 265/265 266/266 267/267
f 268/268 269/269 270/270
f 271/271 272/272 273/273 274/274
f 275/275 276/276 277/277
f 278/278 279/279 280/280
f 281/281 282/282 283/283 284/284
f 285/285 286/286 287/287
f 288/288 289/289 290/290
f 291/291 292/292 293/293 294/294
f 295/295 296/296 297/297
f 298/298 299/299 300/300
f 301/301 302/302 303/303 304/304
f 305/305 306/306 307/307
f 308/308 309/309 310/310
f 311/311 312/312 313/313 314/314
f 315/315 316/316 317/317
f 318/318 319/319 320/320
f 321/321 322/322 323/323 324/324
f 325/325 326/326 327/327
f 328/328 329/329 330/330
f 331/331 332/332 333/333 334/334
f 335/335 336/336 337/337
f 338/338 339/339 340/340
f 341/341 342/342 343/343 344/344
f 345/345 346/346 347/347
f 348/348 349/349 350/350
f 351/351 352/352 353/353 354/354
f 355/355 356/356 357/357
f 358/358 359/359 360/360
f 361/361 362/362 363/363 364/364
f 365/365 366/366 367/367
f 368/368 369/369 370/370
f 371/371 372/372 373/373 374/374
f 375/375 376/376 377/377
f 378/378 379/379 380/380
f 381/381 382/382 383/383 384/384
f 385/385 386/386 387/387
f 388/388 389/389 390/390
f 391/391 392/392 393/393 394/394
f 395/395 396/396 397/397
f 398/398 399/399 400/400
f 401/401 402/402 403/403 404/404
f 405/405 406/406 407/407
f 408/408 409/409 410/410
f 411/411 412/412 413/413 414/414
f 415/415 416/416 417/417
f 418/418 419/419 420/420
f 421/421 422/422 423/423 424/424
f 425/425 426/426 427/427
f 428/428 429/429 430/430
f 431/431 432/432 433/433 434/434
f 435/435 436/436 437/437
f 438/438 439/439 440/440
f 441/441 442/442 443/443 444/444
f 445/445 446/446 447/447
f 448/448 449/449 450/450
f 451/451 452/452 453/453 454/454
f 455/455 456/456 457/457
f 458/458 459/459 460/460
f 461/461 462/462 463/463 464/464
f 465/465 466/466 467/467
f 468/468 469/469 470/470
f 471/471 472/472 473/473 474/474
f 475/475 476/476 477/477
f 478/478 479/479 480/480
f 481/481 482/482 483/483 484/484
f 485/485 486/486 487/487
f 488/488 489/489 490/490
f 491/491 492/492 493/493 494/494
f 495/495 496/496 497/497
f 498/498 499/499 500/500
f 501/501 502/502 503/503 504/504
f 505/505 506/506 507/507
f 508/508 509/509 510/510
f 511/511 512/512 513/513 514/514
f 515/515 516/516 517/517
f 518/518 519/519 520/520
f 521/521 522/522 523/523 524/524
f 525/525 526/526 527/527
f 528/528 529/529 530/530
f 531/531 532/532 533/533 534/534
f 535/535 536/536 537/537
f 538/538 539/539 540/540
f 541/541 542/542 543/543 544/544
f 545/545 546/546 547/547
f 548/548 549/549 550/550
f 551/551 552/552 553/553 554/554
f 555/555 556/556 557/557
f 558/558 559/559 560/560
