# Modelo original generado para Caelum Argenteum.
# Ejes OBJ: X ancho, Y altura, Z profundidad.
o ca_vein_topaz
v 0.000000 0.000000 0.000000
v 42.505848 -0.169377 0.000000
v 30.733583 0.144291 19.284357
v 42.505848 -0.169377 0.000000
v 42.815425 16.678403 0.000000
v 38.375701 15.989350 24.079545
v 30.733583 0.144291 19.284357
v 42.815425 16.678403 0.000000
v 28.287562 31.375660 0.000000
v 30.113667 32.286090 18.895379
v 38.375701 15.989350 24.079545
v -5.187725 47.000000 -1.303196
v 30.113667 32.286090 18.895379
v 28.287562 31.375660 0.000000
v 0.000000 0.000000 0.000000
v 30.733583 0.144291 19.284357
v 13.247851 0.213547 35.212781
v 30.733583 0.144291 19.284357
v 38.375701 15.989350 24.079545
v 14.773685 16.139369 39.268445
v 13.247851 0.213547 35.212781
v 38.375701 15.989350 24.079545
v 30.113667 32.286090 18.895379
v 11.400218 32.342586 30.301773
v 14.773685 16.139369 39.268445
v -5.187725 47.000000 -1.303196
v 11.400218 32.342586 30.301773
v 30.113667 32.286090 18.895379
v 0.000000 0.000000 0.000000
v 13.247851 0.213547 35.212781
v -11.388293 0.129367 30.270076
v 13.247851 0.213547 35.212781
v 14.773685 16.139369 39.268445
v -14.750223 16.566318 39.206084
v -11.388293 0.129367 30.270076
v 14.773685 16.139369 39.268445
v 11.400218 32.342586 30.301773
v -8.737806 32.096417 23.225084
v -14.750223 16.566318 39.206084
v -5.187725 47.000000 -1.303196
v -8.737806 32.096417 23.225084
v 11.400218 32.342586 30.301773
v 0.000000 0.000000 0.000000
v -11.388293 0.129367 30.270076
v -32.889411 0.044661 20.637071
v -11.388293 0.129367 30.270076
v -14.750223 16.566318 39.206084
v -32.662943 14.554091 20.494970
v -32.889411 0.044661 20.637071
v -14.750223 16.566318 39.206084
v -8.737806 32.096417 23.225084
v -25.514712 32.201711 16.009679
v -32.662943 14.554091 20.494970
v -5.187725 47.000000 -1.303196
v -25.514712 32.201711 16.009679
v -8.737806 32.096417 23.225084
v 0.000000 0.000000 0.000000
v -32.889411 0.044661 20.637071
v -37.667029 -1.457305 0.000000
v -32.889411 0.044661 20.637071
v -32.662943 14.554091 20.494970
v -47.174876 16.029361 0.000000
v -37.667029 -1.457305 0.000000
v -32.662943 14.554091 20.494970
v -25.514712 32.201711 16.009679
v -32.185652 33.577775 0.000000
v -47.174876 16.029361 0.000000
v -5.187725 47.000000 -1.303196
v -32.185652 33.577775 0.000000
v -25.514712 32.201711 16.009679
v 0.000000 0.000000 0.000000
v -37.667029 -1.457305 0.000000
v -26.494265 -0.978854 -16.624318
v -37.667029 -1.457305 0.000000
v -47.174876 16.029361 0.000000
v -38.667599 14.283589 -24.262702
v -26.494265 -0.978854 -16.624318
v -47.174876 16.029361 0.000000
v -32.185652 33.577775 0.000000
v -22.666937 31.588194 -14.222790
v -38.667599 14.283589 -24.262702
v -5.187725 47.000000 -1.303196
v -22.666937 31.588194 -14.222790
v -32.185652 33.577775 0.000000
v 0.000000 0.000000 0.000000
v -26.494265 -0.978854 -16.624318
v -9.520943 -0.469703 -25.306661
v -26.494265 -0.978854 -16.624318
v -38.667599 14.283589 -24.262702
v -14.994949 13.936119 -39.856567
v -9.520943 -0.469703 -25.306661
v -38.667599 14.283589 -24.262702
v -22.666937 31.588194 -14.222790
v -8.838366 33.506362 -23.492372
v -14.994949 13.936119 -39.856567
v -5.187725 47.000000 -1.303196
v -8.838366 33.506362 -23.492372
v -22.666937 31.588194 -14.222790
v 0.000000 0.000000 0.000000
v -9.520943 -0.469703 -25.306661
v 10.340790 -1.044533 -27.485814
v -9.520943 -0.469703 -25.306661
v -14.994949 13.936119 -39.856567
v 11.733799 16.393557 -31.188431
v 10.340790 -1.044533 -27.485814
v -14.994949 13.936119 -39.856567
v -8.838366 33.506362 -23.492372
v 11.729986 33.431559 -31.178295
v 11.733799 16.393557 -31.188431
v -5.187725 47.000000 -1.303196
v 11.729986 33.431559 -31.178295
v -8.838366 33.506362 -23.492372
v 0.000000 0.000000 0.000000
v 10.340790 -1.044533 -27.485814
v 30.089524 -0.588665 -18.880230
v 10.340790 -1.044533 -27.485814
v 11.733799 16.393557 -31.188431
v 41.959950 14.584541 -26.328549
v 30.089524 -0.588665 -18.880230
v 11.733799 16.393557 -31.188431
v 11.729986 33.431559 -31.178295
v 30.511675 32.006750 -19.145116
v 41.959950 14.584541 -26.328549
v -5.187725 47.000000 -1.303196
v 30.511675 32.006750 -19.145116
v 11.729986 33.431559 -31.178295
v 0.000000 0.000000 0.000000
v 30.089524 -0.588665 -18.880230
v 42.505848 -0.169377 0.000000
v 30.089524 -0.588665 -18.880230
v 41.959950 14.584541 -26.328549
v 42.815425 16.678403 0.000000
v 42.505848 -0.169377 0.000000
v 41.959950 14.584541 -26.328549
v 30.511675 32.006750 -19.145116
v 28.287562 31.375660 0.000000
v 42.815425 16.678403 0.000000
v -5.187725 47.000000 -1.303196
v 28.287562 31.375660 0.000000
v 30.511675 32.006750 -19.145116
v 17.126758 29.641314 -2.292807
v 12.437029 30.206290 0.479687
v 21.183905 58.666411 4.509925
v 21.569209 58.619993 4.282139
v 17.126758 29.350527 3.176647
v 12.437029 30.206290 0.479687
v 17.126758 29.641314 -2.292807
v 21.569209 58.596102 4.731504
v 21.569209 58.619993 4.282139
v 21.183905 58.666411 4.509925
v 12.437029 30.206290 0.479687
v 12.437029 29.915504 5.949140
v 21.183905 58.642520 4.959290
v 21.183905 58.666411 4.509925
v 17.126758 29.350527 3.176647
v 12.437029 29.915504 5.949140
v 12.437029 30.206290 0.479687
v 21.569209 58.596102 4.731504
v 21.183905 58.666411 4.509925
v 21.183905 58.642520 4.959290
v 12.437029 29.915504 5.949140
v 17.126758 29.059741 8.646100
v 21.569209 58.572211 5.180870
v 21.183905 58.642520 4.959290
v 17.126758 29.350527 3.176647
v 17.126758 29.059741 8.646100
v 12.437029 29.915504 5.949140
v 21.569209 58.596102 4.731504
v 21.183905 58.642520 4.959290
v 21.569209 58.572211 5.180870
v 17.126758 29.059741 8.646100
v 21.816487 28.494764 5.873606
v 21.954513 58.525793 4.953084
v 21.569209 58.572211 5.180870
v 17.126758 29.350527 3.176647
v 21.816487 28.494764 5.873606
v 17.126758 29.059741 8.646100
v 21.569209 58.596102 4.731504
v 21.569209 58.572211 5.180870
v 21.954513 58.525793 4.953084
v 21.816487 28.494764 5.873606
v 21.816487 28.785551 0.404153
v 21.954513 58.549684 4.503719
v 21.954513 58.525793 4.953084
v 17.126758 29.350527 3.176647
v 21.816487 28.785551 0.404153
v 21.816487 28.494764 5.873606
v 21.569209 58.596102 4.731504
v 21.954513 58.525793 4.953084
v 21.954513 58.549684 4.503719
v 21.816487 28.785551 0.404153
v 17.126758 29.641314 -2.292807
v 21.569209 58.619993 4.282139
v 21.954513 58.549684 4.503719
v 17.126758 29.350527 3.176647
v 17.126758 29.641314 -2.292807
v 21.816487 28.785551 0.404153
v 21.569209 58.596102 4.731504
v 21.954513 58.549684 4.503719
v 21.569209 58.619993 4.282139
v 11.476837 31.588706 11.420673
v 8.632457 31.626000 13.786198
v 12.211939 60.293112 15.097077
v 12.557908 60.288576 14.809353
v 12.102650 31.553528 15.066866
v 8.632457 31.626000 13.786198
v 11.476837 31.588706 11.420673
v 12.634027 60.284297 15.252847
v 12.557908 60.288576 14.809353
v 12.211939 60.293112 15.097077
v 8.632457 31.626000 13.786198
v 9.258270 31.590823 17.432391
v 12.288058 60.288834 15.540572
v 12.211939 60.293112 15.097077
v 12.102650 31.553528 15.066866
v 9.258270 31.590823 17.432391
v 8.632457 31.626000 13.786198
v 12.634027 60.284297 15.252847
v 12.211939 60.293112 15.097077
v 12.288058 60.288834 15.540572
v 9.258270 31.590823 17.432391
v 12.728463 31.518351 18.713058
v 12.710146 60.280019 15.696342
v 12.288058 60.288834 15.540572
v 12.102650 31.553528 15.066866
v 12.728463 31.518351 18.713058
v 9.258270 31.590823 17.432391
v 12.634027 60.284297 15.252847
v 12.288058 60.288834 15.540572
v 12.710146 60.280019 15.696342
v 12.728463 31.518351 18.713058
v 15.572843 31.481057 16.347533
v 13.056114 60.275482 15.408618
v 12.710146 60.280019 15.696342
v 12.102650 31.553528 15.066866
v 15.572843 31.481057 16.347533
v 12.728463 31.518351 18.713058
v 12.634027 60.284297 15.252847
v 12.710146 60.280019 15.696342
v 13.056114 60.275482 15.408618
v 15.572843 31.481057 16.347533
v 14.947030 31.516234 12.701340
v 12.979995 60.279761 14.965123
v 13.056114 60.275482 15.408618
v 12.102650 31.553528 15.066866
v 14.947030 31.516234 12.701340
v 15.572843 31.481057 16.347533
v 12.634027 60.284297 15.252847
v 13.056114 60.275482 15.408618
v 12.979995 60.279761 14.965123
v 14.947030 31.516234 12.701340
v 11.476837 31.588706 11.420673
v 12.557908 60.288576 14.809353
v 12.979995 60.279761 14.965123
v 12.102650 31.553528 15.066866
v 11.476837 31.588706 11.420673
v 14.947030 31.516234 12.701340
v 12.634027 60.284297 15.252847
v 12.979995 60.279761 14.965123
v 12.557908 60.288576 14.809353
v -2.415128 23.140226 8.313050
v -5.090590 22.981825 11.466847
v -4.109893 49.441774 11.207330
v -3.818997 49.458996 10.864426
v -1.041842 23.416021 12.207616
v -5.090590 22.981825 11.466847
v -2.415128 23.140226 8.313050
v -3.669684 49.488983 11.287872
v -3.818997 49.458996 10.864426
v -4.109893 49.441774 11.207330
v -5.090590 22.981825 11.466847
v -3.717304 23.257619 15.361413
v -3.960580 49.471760 11.630776
v -4.109893 49.441774 11.207330
v -1.041842 23.416021 12.207616
v -3.717304 23.257619 15.361413
v -5.090590 22.981825 11.466847
v -3.669684 49.488983 11.287872
v -4.109893 49.441774 11.207330
v -3.960580 49.471760 11.630776
v -3.717304 23.257619 15.361413
v 0.331443 23.691816 16.102182
v -3.520370 49.518969 11.711318
v -3.960580 49.471760 11.630776
v -1.041842 23.416021 12.207616
v 0.331443 23.691816 16.102182
v -3.717304 23.257619 15.361413
v -3.669684 49.488983 11.287872
v -3.960580 49.471760 11.630776
v -3.520370 49.518969 11.711318
v 0.331443 23.691816 16.102182
v 3.006905 23.850217 12.948385
v -3.229474 49.536192 11.368414
v -3.520370 49.518969 11.711318
v -1.041842 23.416021 12.207616
v 3.006905 23.850217 12.948385
v 0.331443 23.691816 16.102182
v -3.669684 49.488983 11.287872
v -3.520370 49.518969 11.711318
v -3.229474 49.536192 11.368414
v 3.006905 23.850217 12.948385
v 1.633619 23.574423 9.053820
v -3.378788 49.506205 10.944968
v -3.229474 49.536192 11.368414
v -1.041842 23.416021 12.207616
v 1.633619 23.574423 9.053820
v 3.006905 23.850217 12.948385
v -3.669684 49.488983 11.287872
v -3.229474 49.536192 11.368414
v -3.378788 49.506205 10.944968
v 1.633619 23.574423 9.053820
v -2.415128 23.140226 8.313050
v -3.818997 49.458996 10.864426
v -3.378788 49.506205 10.944968
v -1.041842 23.416021 12.207616
v -2.415128 23.140226 8.313050
v 1.633619 23.574423 9.053820
v -3.669684 49.488983 11.287872
v -3.378788 49.506205 10.944968
v -3.818997 49.458996 10.864426
v -16.382143 27.968419 0.835651
v -19.580052 28.045537 6.216578
v -11.612063 64.669754 7.047575
v -11.382180 64.664210 6.660764
v -13.331422 27.677378 6.294162
v -19.580052 28.045537 6.216578
v -16.382143 27.968419 0.835651
v -11.162877 64.643288 7.053153
v -11.382180 64.664210 6.660764
v -11.612063 64.669754 7.047575
v -19.580052 28.045537 6.216578
v -16.529331 27.754496 11.675088
v -11.392760 64.648832 7.439964
v -11.612063 64.669754 7.047575
v -13.331422 27.677378 6.294162
v -16.529331 27.754496 11.675088
v -19.580052 28.045537 6.216578
v -11.162877 64.643288 7.053153
v -11.612063 64.669754 7.047575
v -11.392760 64.648832 7.439964
v -16.529331 27.754496 11.675088
v -10.280700 27.386338 11.752672
v -10.943574 64.622367 7.445541
v -11.392760 64.648832 7.439964
v -13.331422 27.677378 6.294162
v -10.280700 27.386338 11.752672
v -16.529331 27.754496 11.675088
v -11.162877 64.643288 7.053153
v -11.392760 64.648832 7.439964
v -10.943574 64.622367 7.445541
v -10.280700 27.386338 11.752672
v -7.082791 27.309220 6.371746
v -10.713690 64.616823 7.058730
v -10.943574 64.622367 7.445541
v -13.331422 27.677378 6.294162
v -7.082791 27.309220 6.371746
v -10.280700 27.386338 11.752672
v -11.162877 64.643288 7.053153
v -10.943574 64.622367 7.445541
v -10.713690 64.616823 7.058730
v -7.082791 27.309220 6.371746
v -10.133513 27.600260 0.913235
v -10.932993 64.637745 6.666341
v -10.713690 64.616823 7.058730
v -13.331422 27.677378 6.294162
v -10.133513 27.600260 0.913235
v -7.082791 27.309220 6.371746
v -11.162877 64.643288 7.053153
v -10.713690 64.616823 7.058730
v -10.932993 64.637745 6.666341
v -10.133513 27.600260 0.913235
v -16.382143 27.968419 0.835651
v -11.382180 64.664210 6.660764
v -10.932993 64.637745 6.666341
v -13.331422 27.677378 6.294162
v -16.382143 27.968419 0.835651
v -10.133513 27.600260 0.913235
v -11.162877 64.643288 7.053153
v -10.932993 64.637745 6.666341
v -11.382180 64.664210 6.660764
v -24.662822 30.824352 -17.112657
v -26.358650 30.814962 -12.693824
v -24.425580 67.452561 -14.167944
v -24.264348 67.453453 -14.588068
v -21.692567 31.092169 -13.437352
v -26.358650 30.814962 -12.693824
v -24.662822 30.824352 -17.112657
v -23.981949 67.478916 -14.238636
v -24.264348 67.453453 -14.588068
v -24.425580 67.452561 -14.167944
v -26.358650 30.814962 -12.693824
v -23.388395 31.082779 -9.018519
v -24.143181 67.478023 -13.818513
v -24.425580 67.452561 -14.167944
v -21.692567 31.092169 -13.437352
v -23.388395 31.082779 -9.018519
v -26.358650 30.814962 -12.693824
v -23.981949 67.478916 -14.238636
v -24.425580 67.452561 -14.167944
v -24.143181 67.478023 -13.818513
v -23.388395 31.082779 -9.018519
v -18.722312 31.359987 -9.762047
v -23.699551 67.504379 -13.889204
v -24.143181 67.478023 -13.818513
v -21.692567 31.092169 -13.437352
v -18.722312 31.359987 -9.762047
v -23.388395 31.082779 -9.018519
v -23.981949 67.478916 -14.238636
v -24.143181 67.478023 -13.818513
v -23.699551 67.504379 -13.889204
v -18.722312 31.359987 -9.762047
v -17.026484 31.369376 -14.180880
v -23.538319 67.505272 -14.309327
v -23.699551 67.504379 -13.889204
v -21.692567 31.092169 -13.437352
v -17.026484 31.369376 -14.180880
v -18.722312 31.359987 -9.762047
v -23.981949 67.478916 -14.238636
v -23.699551 67.504379 -13.889204
v -23.538319 67.505272 -14.309327
v -17.026484 31.369376 -14.180880
v -19.996739 31.101559 -17.856185
v -23.820718 67.479809 -14.658759
v -23.538319 67.505272 -14.309327
v -21.692567 31.092169 -13.437352
v -19.996739 31.101559 -17.856185
v -17.026484 31.369376 -14.180880
v -23.981949 67.478916 -14.238636
v -23.538319 67.505272 -14.309327
v -23.820718 67.479809 -14.658759
v -19.996739 31.101559 -17.856185
v -24.662822 30.824352 -17.112657
v -24.264348 67.453453 -14.588068
v -23.820718 67.479809 -14.658759
v -21.692567 31.092169 -13.437352
v -24.662822 30.824352 -17.112657
v -19.996739 31.101559 -17.856185
v -23.981949 67.478916 -14.238636
v -23.820718 67.479809 -14.658759
v -24.264348 67.453453 -14.588068
v -6.411127 31.597941 -27.258539
v -7.204314 31.527572 -23.261427
v -0.936493 55.770691 -23.439299
v -0.848916 55.778460 -23.880626
v -3.369581 31.135959 -24.585232
v -7.204314 31.527572 -23.261427
v -6.411127 31.597941 -27.258539
v -0.513094 55.727452 -23.585462
v -0.848916 55.778460 -23.880626
v -0.936493 55.770691 -23.439299
v -7.204314 31.527572 -23.261427
v -4.162768 31.065590 -20.588121
v -0.600671 55.719683 -23.144135
v -0.936493 55.770691 -23.439299
v -3.369581 31.135959 -24.585232
v -4.162768 31.065590 -20.588121
v -7.204314 31.527572 -23.261427
v -0.513094 55.727452 -23.585462
v -0.936493 55.770691 -23.439299
v -0.600671 55.719683 -23.144135
v -4.162768 31.065590 -20.588121
v -0.328035 30.673977 -21.911926
v -0.177272 55.676444 -23.290298
v -0.600671 55.719683 -23.144135
v -3.369581 31.135959 -24.585232
v -0.328035 30.673977 -21.911926
v -4.162768 31.065590 -20.588121
v -0.513094 55.727452 -23.585462
v -0.600671 55.719683 -23.144135
v -0.177272 55.676444 -23.290298
v -0.328035 30.673977 -21.911926
v 0.465152 30.744345 -25.909037
v -0.089695 55.684214 -23.731625
v -0.177272 55.676444 -23.290298
v -3.369581 31.135959 -24.585232
v 0.465152 30.744345 -25.909037
v -0.328035 30.673977 -21.911926
v -0.513094 55.727452 -23.585462
v -0.177272 55.676444 -23.290298
v -0.089695 55.684214 -23.731625
v 0.465152 30.744345 -25.909037
v -2.576394 31.206327 -28.582344
v -0.425517 55.735222 -24.026789
v -0.089695 55.684214 -23.731625
v -3.369581 31.135959 -24.585232
v -2.576394 31.206327 -28.582344
v 0.465152 30.744345 -25.909037
v -0.513094 55.727452 -23.585462
v -0.089695 55.684214 -23.731625
v -0.425517 55.735222 -24.026789
v -2.576394 31.206327 -28.582344
v -6.411127 31.597941 -27.258539
v -0.848916 55.778460 -23.880626
v -0.425517 55.735222 -24.026789
v -3.369581 31.135959 -24.585232
v -6.411127 31.597941 -27.258539
v -2.576394 31.206327 -28.582344
v -0.513094 55.727452 -23.585462
v -0.425517 55.735222 -24.026789
v -0.848916 55.778460 -23.880626
v 9.241710 33.300758 -26.135260
v 9.117048 33.508893 -21.513262
v 9.111058 60.064552 -24.801318
v 9.123179 60.044316 -25.250699
v 13.147891 33.962049 -23.742317
v 9.117048 33.508893 -21.513262
v 9.241710 33.300758 -26.135260
v 9.502963 60.108611 -25.018042
v 9.123179 60.044316 -25.250699
v 9.111058 60.064552 -24.801318
v 9.117048 33.508893 -21.513262
v 13.023229 34.170184 -19.120318
v 9.490843 60.128847 -24.568660
v 9.111058 60.064552 -24.801318
v 13.147891 33.962049 -23.742317
v 13.023229 34.170184 -19.120318
v 9.117048 33.508893 -21.513262
v 9.502963 60.108611 -25.018042
v 9.111058 60.064552 -24.801318
v 9.490843 60.128847 -24.568660
v 13.023229 34.170184 -19.120318
v 17.054072 34.623339 -21.349374
v 9.882748 60.172906 -24.785384
v 9.490843 60.128847 -24.568660
v 13.147891 33.962049 -23.742317
v 17.054072 34.623339 -21.349374
v 13.023229 34.170184 -19.120318
v 9.502963 60.108611 -25.018042
v 9.490843 60.128847 -24.568660
v 9.882748 60.172906 -24.785384
v 17.054072 34.623339 -21.349374
v 17.178734 34.415204 -25.971372
v 9.894869 60.152670 -25.234765
v 9.882748 60.172906 -24.785384
v 13.147891 33.962049 -23.742317
v 17.178734 34.415204 -25.971372
v 17.054072 34.623339 -21.349374
v 9.502963 60.108611 -25.018042
v 9.882748 60.172906 -24.785384
v 9.894869 60.152670 -25.234765
v 17.178734 34.415204 -25.971372
v 13.272553 33.753914 -28.364316
v 9.515084 60.088375 -25.467423
v 9.894869 60.152670 -25.234765
v 13.147891 33.962049 -23.742317
v 13.272553 33.753914 -28.364316
v 17.178734 34.415204 -25.971372
v 9.502963 60.108611 -25.018042
v 9.894869 60.152670 -25.234765
v 9.515084 60.088375 -25.467423
v 13.272553 33.753914 -28.364316
v 9.241710 33.300758 -26.135260
v 9.123179 60.044316 -25.250699
v 9.515084 60.088375 -25.467423
v 13.147891 33.962049 -23.742317
v 9.241710 33.300758 -26.135260
v 13.272553 33.753914 -28.364316
v 9.502963 60.108611 -25.018042
v 9.515084 60.088375 -25.467423
v 9.123179 60.044316 -25.250699
vt 0.500000 1.000000
vt 0.000000 0.000000
vt 1.000000 0.000000
vt 0.000000 0.000000
vt 1.000000 0.000000
vt 1.000000 1.000000
vt 0.000000 1.000000
vt 0.000000 0.000000
vt 1.000000 0.000000
vt 1.000000 1.000000
vt 0.000000 1.000000
vt 0.500000 1.000000
vt 0.000000 0.000000
vt 1.000000 0.000000
vt 0.500000 1.000000
vt 0.000000 0.000000
vt 1.000000 0.000000
vt 0.000000 0.000000
vt 1.000000 0.000000
vt 1.000000 1.000000
vt 0.000000 1.000000
vt 0.000000 0.000000
vt 1.000000 0.000000
vt 1.000000 1.000000
vt 0.000000 1.000000
vt 0.500000 1.000000
vt 0.000000 0.000000
vt 1.000000 0.000000
vt 0.500000 1.000000
vt 0.000000 0.000000
vt 1.000000 0.000000
vt 0.000000 0.000000
vt 1.000000 0.000000
vt 1.000000 1.000000
vt 0.000000 1.000000
vt 0.000000 0.000000
vt 1.000000 0.000000
vt 1.000000 1.000000
vt 0.000000 1.000000
vt 0.500000 1.000000
vt 0.000000 0.000000
vt 1.000000 0.000000
vt 0.500000 1.000000
vt 0.000000 0.000000
vt 1.000000 0.000000
vt 0.000000 0.000000
vt 1.000000 0.000000
vt 1.000000 1.000000
vt 0.000000 1.000000
vt 0.000000 0.000000
vt 1.000000 0.000000
vt 1.000000 1.000000
vt 0.000000 1.000000
vt 0.500000 1.000000
vt 0.000000 0.000000
vt 1.000000 0.000000
vt 0.500000 1.000000
vt 0.000000 0.000000
vt 1.000000 0.000000
vt 0.000000 0.000000
vt 1.000000 0.000000
vt 1.000000 1.000000
vt 0.000000 1.000000
vt 0.000000 0.000000
vt 1.000000 0.000000
vt 1.000000 1.000000
vt 0.000000 1.000000
vt 0.500000 1.000000
vt 0.000000 0.000000
vt 1.000000 0.000000
vt 0.500000 1.000000
vt 0.000000 0.000000
vt 1.000000 0.000000
vt 0.000000 0.000000
vt 1.000000 0.000000
vt 1.000000 1.000000
vt 0.000000 1.000000
vt 0.000000 0.000000
vt 1.000000 0.000000
vt 1.000000 1.000000
vt 0.000000 1.000000
vt 0.500000 1.000000
vt 0.000000 0.000000
vt 1.000000 0.000000
vt 0.500000 1.000000
vt 0.000000 0.000000
vt 1.000000 0.000000
vt 0.000000 0.000000
vt 1.000000 0.000000
vt 1.000000 1.000000
vt 0.000000 1.000000
vt 0.000000 0.000000
vt 1.000000 0.000000
vt 1.000000 1.000000
vt 0.000000 1.000000
vt 0.500000 1.000000
vt 0.000000 0.000000
vt 1.000000 0.000000
vt 0.500000 1.000000
vt 0.000000 0.000000
vt 1.000000 0.000000
vt 0.000000 0.000000
vt 1.000000 0.000000
vt 1.000000 1.000000
vt 0.000000 1.000000
vt 0.000000 0.000000
vt 1.000000 0.000000
vt 1.000000 1.000000
vt 0.000000 1.000000
vt 0.500000 1.000000
vt 0.000000 0.000000
vt 1.000000 0.000000
vt 0.500000 1.000000
vt 0.000000 0.000000
vt 1.000000 0.000000
vt 0.000000 0.000000
vt 1.000000 0.000000
vt 1.000000 1.000000
vt 0.000000 1.000000
vt 0.000000 0.000000
vt 1.000000 0.000000
vt 1.000000 1.000000
vt 0.000000 1.000000
vt 0.500000 1.000000
vt 0.000000 0.000000
vt 1.000000 0.000000
vt 0.500000 1.000000
vt 0.000000 0.000000
vt 1.000000 0.000000
vt 0.000000 0.000000
vt 1.000000 0.000000
vt 1.000000 1.000000
vt 0.000000 1.000000
vt 0.000000 0.000000
vt 1.000000 0.000000
vt 1.000000 1.000000
vt 0.000000 1.000000
vt 0.500000 1.000000
vt 0.000000 0.000000
vt 1.000000 0.000000
vt 0.000000 0.000000
vt 1.000000 0.000000
vt 1.000000 1.000000
vt 0.000000 1.000000
vt 0.500000 1.000000
vt 0.000000 0.000000
vt 1.000000 0.000000
vt 0.500000 1.000000
vt 0.000000 0.000000
vt 1.000000 0.000000
vt 0.000000 0.000000
vt 1.000000 0.000000
vt 1.000000 1.000000
vt 0.000000 1.000000
vt 0.500000 1.000000
vt 0.000000 0.000000
vt 1.000000 0.000000
vt 0.500000 1.000000
vt 0.000000 0.000000
vt 1.000000 0.000000
vt 0.000000 0.000000
vt 1.000000 0.000000
vt 1.000000 1.000000
vt 0.000000 1.000000
vt 0.500000 1.000000
vt 0.000000 0.000000
vt 1.000000 0.000000
vt 0.500000 1.000000
vt 0.000000 0.000000
vt 1.000000 0.000000
vt 0.000000 0.000000
vt 1.000000 0.000000
vt 1.000000 1.000000
vt 0.000000 1.000000
vt 0.500000 1.000000
vt 0.000000 0.000000
vt 1.000000 0.000000
vt 0.500000 1.000000
vt 0.000000 0.000000
vt 1.000000 0.000000
vt 0.000000 0.000000
vt 1.000000 0.000000
vt 1.000000 1.000000
vt 0.000000 1.000000
vt 0.500000 1.000000
vt 0.000000 0.000000
vt 1.000000 0.000000
vt 0.500000 1.000000
vt 0.000000 0.000000
vt 1.000000 0.000000
vt 0.000000 0.000000
vt 1.000000 0.000000
vt 1.000000 1.000000
vt 0.000000 1.000000
vt 0.500000 1.000000
vt 0.000000 0.000000
vt 1.000000 0.000000
vt 0.500000 1.000000
vt 0.000000 0.000000
vt 1.000000 0.000000
vt 0.000000 0.000000
vt 1.000000 0.000000
vt 1.000000 1.000000
vt 0.000000 1.000000
vt 0.500000 1.000000
vt 0.000000 0.000000
vt 1.000000 0.000000
vt 0.500000 1.000000
vt 0.000000 0.000000
vt 1.000000 0.000000
vt 0.000000 0.000000
vt 1.000000 0.000000
vt 1.000000 1.000000
vt 0.000000 1.000000
vt 0.500000 1.000000
vt 0.000000 0.000000
vt 1.000000 0.000000
vt 0.500000 1.000000
vt 0.000000 0.000000
vt 1.000000 0.000000
vt 0.000000 0.000000
vt 1.000000 0.000000
vt 1.000000 1.000000
vt 0.000000 1.000000
vt 0.500000 1.000000
vt 0.000000 0.000000
vt 1.000000 0.000000
vt 0.500000 1.000000
vt 0.000000 0.000000
vt 1.000000 0.000000
vt 0.000000 0.000000
vt 1.000000 0.000000
vt 1.000000 1.000000
vt 0.000000 1.000000
vt 0.500000 1.000000
vt 0.000000 0.000000
vt 1.000000 0.000000
vt 0.500000 1.000000
vt 0.000000 0.000000
vt 1.000000 0.000000
vt 0.000000 0.000000
vt 1.000000 0.000000
vt 1.000000 1.000000
vt 0.000000 1.000000
vt 0.500000 1.000000
vt 0.000000 0.000000
vt 1.000000 0.000000
vt 0.500000 1.000000
vt 0.000000 0.000000
vt 1.000000 0.000000
vt 0.000000 0.000000
vt 1.000000 0.000000
vt 1.000000 1.000000
vt 0.000000 1.000000
vt 0.500000 1.000000
vt 0.000000 0.000000
vt 1.000000 0.000000
vt 0.500000 1.000000
vt 0.000000 0.000000
vt 1.000000 0.000000
vt 0.000000 0.000000
vt 1.000000 0.000000
vt 1.000000 1.000000
vt 0.000000 1.000000
vt 0.500000 1.000000
vt 0.000000 0.000000
vt 1.000000 0.000000
vt 0.500000 1.000000
vt 0.000000 0.000000
vt 1.000000 0.000000
vt 0.000000 0.000000
vt 1.000000 0.000000
vt 1.000000 1.000000
vt 0.000000 1.000000
vt 0.500000 1.000000
vt 0.000000 0.000000
vt 1.000000 0.000000
vt 0.500000 1.000000
vt 0.000000 0.000000
vt 1.000000 0.000000
vt 0.000000 0.000000
vt 1.000000 0.000000
vt 1.000000 1.000000
vt 0.000000 1.000000
vt 0.500000 1.000000
vt 0.000000 0.000000
vt 1.000000 0.000000
vt 0.500000 1.000000
vt 0.000000 0.000000
vt 1.000000 0.000000
vt 0.000000 0.000000
vt 1.000000 0.000000
vt 1.000000 1.000000
vt 0.000000 1.000000
vt 0.500000 1.000000
vt 0.000000 0.000000
vt 1.000000 0.000000
vt 0.500000 1.000000
vt 0.000000 0.000000
vt 1.000000 0.000000
vt 0.000000 0.000000
vt 1.000000 0.000000
vt 1.000000 1.000000
vt 0.000000 1.000000
vt 0.500000 1.000000
vt 0.000000 0.000000
vt 1.000000 0.000000
vt 0.500000 1.000000
vt 0.000000 0.000000
vt 1.000000 0.000000
vt 0.000000 0.000000
vt 1.000000 0.000000
vt 1.000000 1.000000
vt 0.000000 1.000000
vt 0.500000 1.000000
vt 0.000000 0.000000
vt 1.000000 0.000000
vt 0.500000 1.000000
vt 0.000000 0.000000
vt 1.000000 0.000000
vt 0.000000 0.000000
vt 1.000000 0.000000
vt 1.000000 1.000000
vt 0.000000 1.000000
vt 0.500000 1.000000
vt 0.000000 0.000000
vt 1.000000 0.000000
vt 0.500000 1.000000
vt 0.000000 0.000000
vt 1.000000 0.000000
vt 0.000000 0.000000
vt 1.000000 0.000000
vt 1.000000 1.000000
vt 0.000000 1.000000
vt 0.500000 1.000000
vt 0.000000 0.000000
vt 1.000000 0.000000
vt 0.500000 1.000000
vt 0.000000 0.000000
vt 1.000000 0.000000
vt 0.000000 0.000000
vt 1.000000 0.000000
vt 1.000000 1.000000
vt 0.000000 1.000000
vt 0.500000 1.000000
vt 0.000000 0.000000
vt 1.000000 0.000000
vt 0.500000 1.000000
vt 0.000000 0.000000
vt 1.000000 0.000000
vt 0.000000 0.000000
vt 1.000000 0.000000
vt 1.000000 1.000000
vt 0.000000 1.000000
vt 0.500000 1.000000
vt 0.000000 0.000000
vt 1.000000 0.000000
vt 0.500000 1.000000
vt 0.000000 0.000000
vt 1.000000 0.000000
vt 0.000000 0.000000
vt 1.000000 0.000000
vt 1.000000 1.000000
vt 0.000000 1.000000
vt 0.500000 1.000000
vt 0.000000 0.000000
vt 1.000000 0.000000
vt 0.500000 1.000000
vt 0.000000 0.000000
vt 1.000000 0.000000
vt 0.000000 0.000000
vt 1.000000 0.000000
vt 1.000000 1.000000
vt 0.000000 1.000000
vt 0.500000 1.000000
vt 0.000000 0.000000
vt 1.000000 0.000000
vt 0.500000 1.000000
vt 0.000000 0.000000
vt 1.000000 0.000000
vt 0.000000 0.000000
vt 1.000000 0.000000
vt 1.000000 1.000000
vt 0.000000 1.000000
vt 0.500000 1.000000
vt 0.000000 0.000000
vt 1.000000 0.000000
vt 0.500000 1.000000
vt 0.000000 0.000000
vt 1.000000 0.000000
vt 0.000000 0.000000
vt 1.000000 0.000000
vt 1.000000 1.000000
vt 0.000000 1.000000
vt 0.500000 1.000000
vt 0.000000 0.000000
vt 1.000000 0.000000
vt 0.500000 1.000000
vt 0.000000 0.000000
vt 1.000000 0.000000
vt 0.000000 0.000000
vt 1.000000 0.000000
vt 1.000000 1.000000
vt 0.000000 1.000000
vt 0.500000 1.000000
vt 0.000000 0.000000
vt 1.000000 0.000000
vt 0.500000 1.000000
vt 0.000000 0.000000
vt 1.000000 0.000000
vt 0.000000 0.000000
vt 1.000000 0.000000
vt 1.000000 1.000000
vt 0.000000 1.000000
vt 0.500000 1.000000
vt 0.000000 0.000000
vt 1.000000 0.000000
vt 0.500000 1.000000
vt 0.000000 0.000000
vt 1.000000 0.000000
vt 0.000000 0.000000
vt 1.000000 0.000000
vt 1.000000 1.000000
vt 0.000000 1.000000
vt 0.500000 1.000000
vt 0.000000 0.000000
vt 1.000000 0.000000
vt 0.500000 1.000000
vt 0.000000 0.000000
vt 1.000000 0.000000
vt 0.000000 0.000000
vt 1.000000 0.000000
vt 1.000000 1.000000
vt 0.000000 1.000000
vt 0.500000 1.000000
vt 0.000000 0.000000
vt 1.000000 0.000000
vt 0.500000 1.000000
vt 0.000000 0.000000
vt 1.000000 0.000000
vt 0.000000 0.000000
vt 1.000000 0.000000
vt 1.000000 1.000000
vt 0.000000 1.000000
vt 0.500000 1.000000
vt 0.000000 0.000000
vt 1.000000 0.000000
vt 0.500000 1.000000
vt 0.000000 0.000000
vt 1.000000 0.000000
vt 0.000000 0.000000
vt 1.000000 0.000000
vt 1.000000 1.000000
vt 0.000000 1.000000
vt 0.500000 1.000000
vt 0.000000 0.000000
vt 1.000000 0.000000
vt 0.500000 1.000000
vt 0.000000 0.000000
vt 1.000000 0.000000
vt 0.000000 0.000000
vt 1.000000 0.000000
vt 1.000000 1.000000
vt 0.000000 1.000000
vt 0.500000 1.000000
vt 0.000000 0.000000
vt 1.000000 0.000000
vt 0.500000 1.000000
vt 0.000000 0.000000
vt 1.000000 0.000000
vt 0.000000 0.000000
vt 1.000000 0.000000
vt 1.000000 1.000000
vt 0.000000 1.000000
vt 0.500000 1.000000
vt 0.000000 0.000000
vt 1.000000 0.000000
vt 0.500000 1.000000
vt 0.000000 0.000000
vt 1.000000 0.000000
vt 0.000000 0.000000
vt 1.000000 0.000000
vt 1.000000 1.000000
vt 0.000000 1.000000
vt 0.500000 1.000000
vt 0.000000 0.000000
vt 1.000000 0.000000
vt 0.500000 1.000000
vt 0.000000 0.000000
vt 1.000000 0.000000
vt 0.000000 0.000000
vt 1.000000 0.000000
vt 1.000000 1.000000
vt 0.000000 1.000000
vt 0.500000 1.000000
vt 0.000000 0.000000
vt 1.000000 0.000000
vt 0.500000 1.000000
vt 0.000000 0.000000
vt 1.000000 0.000000
vt 0.000000 0.000000
vt 1.000000 0.000000
vt 1.000000 1.000000
vt 0.000000 1.000000
vt 0.500000 1.000000
vt 0.000000 0.000000
vt 1.000000 0.000000
vt 0.500000 1.000000
vt 0.000000 0.000000
vt 1.000000 0.000000
vt 0.000000 0.000000
vt 1.000000 0.000000
vt 1.000000 1.000000
vt 0.000000 1.000000
vt 0.500000 1.000000
vt 0.000000 0.000000
vt 1.000000 0.000000
vt 0.500000 1.000000
vt 0.000000 0.000000
vt 1.000000 0.000000
vt 0.000000 0.000000
vt 1.000000 0.000000
vt 1.000000 1.000000
vt 0.000000 1.000000
vt 0.500000 1.000000
vt 0.000000 0.000000
vt 1.000000 0.000000
vt 0.500000 1.000000
vt 0.000000 0.000000
vt 1.000000 0.000000
vt 0.000000 0.000000
vt 1.000000 0.000000
vt 1.000000 1.000000
vt 0.000000 1.000000
vt 0.500000 1.000000
vt 0.000000 0.000000
vt 1.000000 0.000000
vt 0.500000 1.000000
vt 0.000000 0.000000
vt 1.000000 0.000000
vt 0.000000 0.000000
vt 1.000000 0.000000
vt 1.000000 1.000000
vt 0.000000 1.000000
vt 0.500000 1.000000
vt 0.000000 0.000000
vt 1.000000 0.000000
vt 0.500000 1.000000
vt 0.000000 0.000000
vt 1.000000 0.000000
vt 0.000000 0.000000
vt 1.000000 0.000000
vt 1.000000 1.000000
vt 0.000000 1.000000
vt 0.500000 1.000000
vt 0.000000 0.000000
vt 1.000000 0.000000
vt 0.500000 1.000000
vt 0.000000 0.000000
vt 1.000000 0.000000
s 1
usemtl models/caelum/world/environment/rock_granite.png
f 1/1 2/2 3/3
f 4/4 5/5 6/6 7/7
f 8/8 9/9 10/10 11/11
f 12/12 13/13 14/14
f 15/15 16/16 17/17
f 18/18 19/19 20/20 21/21
f 22/22 23/23 24/24 25/25
f 26/26 27/27 28/28
f 29/29 30/30 31/31
f 32/32 33/33 34/34 35/35
f 36/36 37/37 38/38 39/39
f 40/40 41/41 42/42
f 43/43 44/44 45/45
f 46/46 47/47 48/48 49/49
f 50/50 51/51 52/52 53/53
f 54/54 55/55 56/56
f 57/57 58/58 59/59
f 60/60 61/61 62/62 63/63
f 64/64 65/65 66/66 67/67
f 68/68 69/69 70/70
f 71/71 72/72 73/73
f 74/74 75/75 76/76 77/77
f 78/78 79/79 80/80 81/81
f 82/82 83/83 84/84
f 85/85 86/86 87/87
f 88/88 89/89 90/90 91/91
f 92/92 93/93 94/94 95/95
f 96/96 97/97 98/98
f 99/99 100/100 101/101
f 102/102 103/103 104/104 105/105
f 106/106 107/107 108/108 109/109
f 110/110 111/111 112/112
f 113/113 114/114 115/115
f 116/116 117/117 118/118 119/119
f 120/120 121/121 122/122 123/123
f 124/124 125/125 126/126
f 127/127 128/128 129/129
f 130/130 131/131 132/132 133/133
f 134/134 135/135 136/136 137/137
f 138/138 139/139 140/140
usemtl models/caelum/world/resources/ca_vein_topaz.png
f 141/141 142/142 143/143 144/144
f 145/145 146/146 147/147
f 148/148 149/149 150/150
f 151/151 152/152 153/153 154/154
f 155/155 156/156 157/157
f 158/158 159/159 160/160
f 161/161 162/162 163/163 164/164
f 165/165 166/166 167/167
f 168/168 169/169 170/170
f 171/171 172/172 173/173 174/174
f 175/175 176/176 177/177
f 178/178 179/179 180/180
f 181/181 182/182 183/183 184/184
f 185/185 186/186 187/187
f 188/188 189/189 190/190
f 191/191 192/192 193/193 194/194
f 195/195 196/196 197/197
f 198/198 199/199 200/200
f 201/201 202/202 203/203 204/204
f 205/205 206/206 207/207
f 208/208 209/209 210/210
f 211/211 212/212 213/213 214/214
f 215/215 216/216 217/217
f 218/218 219/219 220/220
f 221/221 222/222 223/223 224/224
f 225/225 226/226 227/227
f 228/228 229/229 230/230
f 231/231 232/232 233/233 234/234
f 235/235 236/236 237/237
f 238/238 239/239 240/240
f 241/241 242/242 243/243 244/244
f 245/245 246/246 247/247
f 248/248 249/249 250/250
f 251/251 252/252 253/253 254/254
f 255/255 256/256 257/257
f 258/258 259/259 260/260
f 261/261 262/262 263/263 264/264
f 265/265 266/266 267/267
f 268/268 269/269 270/270
f 271/271 272/272 273/273 274/274
f 275/275 276/276 277/277
f 278/278 279/279 280/280
f 281/281 282/282 283/283 284/284
f 285/285 286/286 287/287
f 288/288 289/289 290/290
f 291/291 292/292 293/293 294/294
f 295/295 296/296 297/297
f 298/298 299/299 300/300
f 301/301 302/302 303/303 304/304
f 305/305 306/306 307/307
f 308/308 309/309 310/310
f 311/311 312/312 313/313 314/314
f 315/315 316/316 317/317
f 318/318 319/319 320/320
f 321/321 322/322 323/323 324/324
f 325/325 326/326 327/327
f 328/328 329/329 330/330
f 331/331 332/332 333/333 334/334
f 335/335 336/336 337/337
f 338/338 339/339 340/340
f 341/341 342/342 343/343 344/344
f 345/345 346/346 347/347
f 348/348 349/349 350/350
f 351/351 352/352 353/353 354/354
f 355/355 356/356 357/357
f 358/358 359/359 360/360
f 361/361 362/362 363/363 364/364
f 365/365 366/366 367/367
f 368/368 369/369 370/370
f 371/371 372/372 373/373 374/374
f 375/375 376/376 377/377
f 378/378 379/379 380/380
f 381/381 382/382 383/383 384/384
f 385/385 386/386 387/387
f 388/388 389/389 390/390
f 391/391 392/392 393/393 394/394
f 395/395 396/396 397/397
f 398/398 399/399 400/400
f 401/401 402/402 403/403 404/404
f 405/405 406/406 407/407
f 408/408 409/409 410/410
f 411/411 412/412 413/413 414/414
f 415/415 416/416 417/417
f 418/418 419/419 420/420
f 421/421 422/422 423/423 424/424
f 425/425 426/426 427/427
f 428/428 429/429 430/430
f 431/431 432/432 433/433 434/434
f 435/435 436/436 437/437
f 438/438 439/439 440/440
f 441/441 442/442 443/443 444/444
f 445/445 446/446 447/447
f 448/448 449/449 450/450
f 451/451 452/452 453/453 454/454
f 455/455 456/456 457/457
f 458/458 459/459 460/460
f 461/461 462/462 463/463 464/464
f 465/465 466/466 467/467
f 468/468 469/469 470/470
f 471/471 472/472 473/473 474/474
f 475/475 476/476 477/477
f 478/478 479/479 480/480
f 481/481 482/482 483/483 484/484
f 485/485 486/486 487/487
f 488/488 489/489 490/490
f 491/491 492/492 493/493 494/494
f 495/495 496/496 497/497
f 498/498 499/499 500/500
f 501/501 502/502 503/503 504/504
f 505/505 506/506 507/507
f 508/508 509/509 510/510
f 511/511 512/512 513/513 514/514
f 515/515 516/516 517/517
f 518/518 519/519 520/520
f 521/521 522/522 523/523 524/524
f 525/525 526/526 527/527
f 528/528 529/529 530/530
f 531/531 532/532 533/533 534/534
f 535/535 536/536 537/537
f 538/538 539/539 540/540
f 541/541 542/542 543/543 544/544
f 545/545 546/546 547/547
f 548/548 549/549 550/550
f 551/551 552/552 553/553 554/554
f 555/555 556/556 557/557
f 558/558 559/559 560/560
