# Modelo original generado para Caelum Argenteum.
# Ejes OBJ: X ancho, Y altura, Z profundidad.
o ca_vein_silver
v 0.000000 0.000000 0.000000
v 40.807410 -0.291252 0.000000
v 29.727318 -1.460881 18.652957
v 40.807410 -0.291252 0.000000
v 45.247410 14.939141 0.000000
v 41.093427 18.099981 25.784833
v 29.727318 -1.460881 18.652957
v 45.247410 14.939141 0.000000
v 32.119366 35.186203 0.000000
v 23.626287 35.299275 14.824752
v 41.093427 18.099981 25.784833
v 10.722110 52.000000 9.708840
v 23.626287 35.299275 14.824752
v 32.119366 35.186203 0.000000
v 0.000000 0.000000 0.000000
v 29.727318 -1.460881 18.652957
v 13.229684 -1.289952 35.164491
v 29.727318 -1.460881 18.652957
v 41.093427 18.099981 25.784833
v 13.243772 16.382209 35.201940
v 13.229684 -1.289952 35.164491
v 41.093427 18.099981 25.784833
v 23.626287 35.299275 14.824752
v 10.119571 36.601424 26.897813
v 13.243772 16.382209 35.201940
v 10.722110 52.000000 9.708840
v 10.119571 36.601424 26.897813
v 23.626287 35.299275 14.824752
v 0.000000 0.000000 0.000000
v 13.229684 -1.289952 35.164491
v -13.065114 1.667328 34.727066
v 13.229684 -1.289952 35.164491
v 13.243772 16.382209 35.201940
v -15.790554 15.117301 41.971283
v -13.065114 1.667328 34.727066
v 13.243772 16.382209 35.201940
v 10.119571 36.601424 26.897813
v -9.141541 35.121645 24.298210
v -15.790554 15.117301 41.971283
v 10.722110 52.000000 9.708840
v -9.141541 35.121645 24.298210
v 10.119571 36.601424 26.897813
v 0.000000 0.000000 0.000000
v -13.065114 1.667328 34.727066
v -33.854827 1.308162 21.242839
v -13.065114 1.667328 34.727066
v -15.790554 15.117301 41.971283
v -36.997490 15.901261 23.214761
v -33.854827 1.308162 21.242839
v -15.790554 15.117301 41.971283
v -9.141541 35.121645 24.298210
v -27.994834 33.731591 17.565878
v -36.997490 15.901261 23.214761
v 10.722110 52.000000 9.708840
v -27.994834 33.731591 17.565878
v -9.141541 35.121645 24.298210
v 0.000000 0.000000 0.000000
v -33.854827 1.308162 21.242839
v -35.334596 0.387211 0.000000
v -33.854827 1.308162 21.242839
v -36.997490 15.901261 23.214761
v -45.663464 16.670618 0.000000
v -35.334596 0.387211 0.000000
v -36.997490 15.901261 23.214761
v -27.994834 33.731591 17.565878
v -33.178274 35.060895 0.000000
v -45.663464 16.670618 0.000000
v 10.722110 52.000000 9.708840
v -33.178274 35.060895 0.000000
v -27.994834 33.731591 17.565878
v 0.000000 0.000000 0.000000
v -35.334596 0.387211 0.000000
v -29.983339 0.126920 -18.813602
v -35.334596 0.387211 0.000000
v -45.663464 16.670618 0.000000
v -33.298778 14.835702 -20.893936
v -29.983339 0.126920 -18.813602
v -45.663464 16.670618 0.000000
v -33.178274 35.060895 0.000000
v -26.772366 34.953802 -16.798818
v -33.298778 14.835702 -20.893936
v 10.722110 52.000000 9.708840
v -26.772366 34.953802 -16.798818
v -33.178274 35.060895 0.000000
v 0.000000 0.000000 0.000000
v -29.983339 0.126920 -18.813602
v -9.513754 1.383566 -25.287552
v -29.983339 0.126920 -18.813602
v -33.298778 14.835702 -20.893936
v -13.628367 17.234104 -36.224191
v -9.513754 1.383566 -25.287552
v -33.298778 14.835702 -20.893936
v -26.772366 34.953802 -16.798818
v -10.798236 33.712133 -28.701704
v -13.628367 17.234104 -36.224191
v 10.722110 52.000000 9.708840
v -10.798236 33.712133 -28.701704
v -26.772366 34.953802 -16.798818
v 0.000000 0.000000 0.000000
v -9.513754 1.383566 -25.287552
v 11.740301 1.111299 -31.205712
v -9.513754 1.383566 -25.287552
v -13.628367 17.234104 -36.224191
v 12.814655 17.472931 -34.061345
v 11.740301 1.111299 -31.205712
v -13.628367 17.234104 -36.224191
v -10.798236 33.712133 -28.701704
v 10.798647 35.478576 -28.702799
v 12.814655 17.472931 -34.061345
v 10.722110 52.000000 9.708840
v 10.798647 35.478576 -28.702799
v -10.798236 33.712133 -28.701704
v 0.000000 0.000000 0.000000
v 11.740301 1.111299 -31.205712
v 25.034385 1.165024 -15.708289
v 11.740301 1.111299 -31.205712
v 12.814655 17.472931 -34.061345
v 41.405585 17.909489 -25.980702
v 25.034385 1.165024 -15.708289
v 12.814655 17.472931 -34.061345
v 10.798647 35.478576 -28.702799
v 21.609068 33.793176 -13.559010
v 41.405585 17.909489 -25.980702
v 10.722110 52.000000 9.708840
v 21.609068 33.793176 -13.559010
v 10.798647 35.478576 -28.702799
v 0.000000 0.000000 0.000000
v 25.034385 1.165024 -15.708289
v 40.807410 -0.291252 0.000000
v 25.034385 1.165024 -15.708289
v 41.405585 17.909489 -25.980702
v 45.247410 14.939141 0.000000
v 40.807410 -0.291252 0.000000
v 41.405585 17.909489 -25.980702
v 21.609068 33.793176 -13.559010
v 32.119366 35.186203 0.000000
v 45.247410 14.939141 0.000000
v 10.722110 52.000000 9.708840
v 32.119366 35.186203 0.000000
v 21.609068 33.793176 -13.559010
v 33.119528 18.304382 2.768110
v 35.941426 21.341062 6.457901
v 37.655264 21.761880 2.768110
v 37.655264 21.761880 2.768110
v 35.941426 21.341062 6.457901
v 35.846538 28.862739 6.333829
v 38.728867 27.926528 2.768110
v 33.119528 31.822994 2.768110
v 38.728867 27.926528 2.768110
v 35.846538 28.862739 6.333829
v 33.119528 18.304382 2.768110
v 32.141227 22.127457 7.237528
v 35.941426 21.341062 6.457901
v 35.941426 21.341062 6.457901
v 32.141227 22.127457 7.237528
v 31.914046 28.247055 8.275414
v 35.846538 28.862739 6.333829
v 33.119528 31.822994 2.768110
v 35.846538 28.862739 6.333829
v 31.914046 28.247055 8.275414
v 33.119528 18.304382 2.768110
v 28.591939 21.797533 5.041675
v 32.141227 22.127457 7.237528
v 32.141227 22.127457 7.237528
v 28.591939 21.797533 5.041675
v 28.966553 28.618823 4.853559
v 31.914046 28.247055 8.275414
v 33.119528 31.822994 2.768110
v 31.914046 28.247055 8.275414
v 28.966553 28.618823 4.853559
v 33.119528 18.304382 2.768110
v 28.924423 21.138517 0.661505
v 28.591939 21.797533 5.041675
v 28.591939 21.797533 5.041675
v 28.924423 21.138517 0.661505
v 29.340045 27.919832 0.870213
v 28.966553 28.618823 4.853559
v 33.119528 31.822994 2.768110
v 28.966553 28.618823 4.853559
v 29.340045 27.919832 0.870213
v 33.119528 18.304382 2.768110
v 32.018518 21.330571 -2.261908
v 28.924423 21.138517 0.661505
v 28.924423 21.138517 0.661505
v 32.018518 21.330571 -2.261908
v 32.059701 28.274040 -2.073763
v 29.340045 27.919832 0.870213
v 33.119528 31.822994 2.768110
v 29.340045 27.919832 0.870213
v 32.059701 28.274040 -2.073763
v 33.119528 18.304382 2.768110
v 35.871858 21.587269 -0.830717
v 32.018518 21.330571 -2.261908
v 32.018518 21.330571 -2.261908
v 35.871858 21.587269 -0.830717
v 36.302521 27.968178 -1.393833
v 32.059701 28.274040 -2.073763
v 33.119528 31.822994 2.768110
v 32.059701 28.274040 -2.073763
v 36.302521 27.968178 -1.393833
v 33.119528 18.304382 2.768110
v 37.655264 21.761880 2.768110
v 35.871858 21.587269 -0.830717
v 35.871858 21.587269 -0.830717
v 37.655264 21.761880 2.768110
v 38.728867 27.926528 2.768110
v 36.302521 27.968178 -1.393833
v 33.119528 31.822994 2.768110
v 36.302521 27.968178 -1.393833
v 38.728867 27.926528 2.768110
v 27.549982 30.905170 24.690679
v 33.305972 32.965270 30.926330
v 35.467716 33.420300 24.690679
v 35.467716 33.420300 24.690679
v 33.305972 32.965270 30.926330
v 31.981387 37.362976 29.491363
v 36.437298 37.698512 24.690679
v 27.549982 39.927896 24.690679
v 36.437298 37.698512 24.690679
v 31.981387 37.362976 29.491363
v 27.549982 30.905170 24.690679
v 25.858648 33.116415 31.092582
v 33.305972 32.965270 30.926330
v 33.305972 32.965270 30.926330
v 25.858648 33.116415 31.092582
v 25.461034 37.569092 32.597597
v 31.981387 37.362976 29.491363
v 27.549982 39.927896 24.690679
v 31.981387 37.362976 29.491363
v 25.461034 37.569092 32.597597
v 27.549982 30.905170 24.690679
v 19.844936 33.541806 27.896334
v 25.858648 33.116415 31.092582
v 25.858648 33.116415 31.092582
v 19.844936 33.541806 27.896334
v 18.994732 38.051667 28.250058
v 25.461034 37.569092 32.597597
v 27.549982 39.927896 24.690679
v 25.461034 37.569092 32.597597
v 18.994732 38.051667 28.250058
v 27.549982 30.905170 24.690679
v 20.133799 32.998840 21.605204
v 19.844936 33.541806 27.896334
v 19.844936 33.541806 27.896334
v 20.133799 32.998840 21.605204
v 19.359159 38.012625 21.282917
v 18.994732 38.051667 28.250058
v 27.549982 39.927896 24.690679
v 18.994732 38.051667 28.250058
v 19.359159 38.012625 21.282917
v 27.549982 30.905170 24.690679
v 25.693855 33.040351 17.665014
v 20.133799 32.998840 21.605204
v 20.133799 32.998840 21.605204
v 25.693855 33.040351 17.665014
v 25.710633 37.349056 17.728520
v 19.359159 38.012625 21.282917
v 27.549982 39.927896 24.690679
v 19.359159 38.012625 21.282917
v 25.710633 37.349056 17.728520
v 27.549982 30.905170 24.690679
v 33.315299 33.231703 18.444923
v 25.693855 33.040351 17.665014
v 25.693855 33.040351 17.665014
v 33.315299 33.231703 18.444923
v 32.887720 37.610764 18.908133
v 25.710633 37.349056 17.728520
v 27.549982 39.927896 24.690679
v 25.710633 37.349056 17.728520
v 32.887720 37.610764 18.908133
v 27.549982 30.905170 24.690679
v 35.467716 33.420300 24.690679
v 33.315299 33.231703 18.444923
v 33.315299 33.231703 18.444923
v 35.467716 33.420300 24.690679
v 36.437298 37.698512 24.690679
v 32.887720 37.610764 18.908133
v 27.549982 39.927896 24.690679
v 32.887720 37.610764 18.908133
v 36.437298 37.698512 24.690679
v 5.986993 7.663564 27.606005
v 11.443320 9.870692 34.175818
v 14.825514 10.777374 27.606005
v 14.825514 10.777374 27.606005
v 11.443320 9.870692 34.175818
v 11.309627 15.844160 34.014841
v 13.981778 15.154080 27.606005
v 5.986993 18.284302 27.606005
v 13.981778 15.154080 27.606005
v 11.309627 15.844160 34.014841
v 5.986993 7.663564 27.606005
v 4.444154 10.505797 34.096697
v 11.443320 9.870692 34.175818
v 11.443320 9.870692 34.175818
v 4.444154 10.505797 34.096697
v 4.472045 15.936696 33.979359
v 11.309627 15.844160 34.014841
v 5.986993 18.284302 27.606005
v 11.309627 15.844160 34.014841
v 4.472045 15.936696 33.979359
v 5.986993 7.663564 27.606005
v -1.867610 10.528552 31.238095
v 4.444154 10.505797 34.096697
v 4.444154 10.505797 34.096697
v -1.867610 10.528552 31.238095
v -2.369045 15.804453 31.469966
v 4.472045 15.936696 33.979359
v 5.986993 18.284302 27.606005
v 4.472045 15.936696 33.979359
v -2.369045 15.804453 31.469966
v 5.986993 7.663564 27.606005
v -1.743176 10.743540 24.031455
v -1.867610 10.528552 31.238095
v -1.867610 10.528552 31.238095
v -1.743176 10.743540 24.031455
v -2.051575 15.902468 23.888847
v -2.369045 15.804453 31.469966
v 5.986993 18.284302 27.606005
v -2.369045 15.804453 31.469966
v -2.051575 15.902468 23.888847
v 5.986993 7.663564 27.606005
v 4.000840 10.777379 19.250298
v -1.743176 10.743540 24.031455
v -1.743176 10.743540 24.031455
v 4.000840 10.777379 19.250298
v 4.359043 15.170350 20.757251
v -2.051575 15.902468 23.888847
v 5.986993 18.284302 27.606005
v -2.051575 15.902468 23.888847
v 4.359043 15.170350 20.757251
v 5.986993 7.663564 27.606005
v 10.761788 9.879925 21.856806
v 4.000840 10.777379 19.250298
v 4.000840 10.777379 19.250298
v 10.761788 9.879925 21.856806
v 11.970543 15.167179 20.401378
v 4.359043 15.170350 20.757251
v 5.986993 18.284302 27.606005
v 4.359043 15.170350 20.757251
v 11.970543 15.167179 20.401378
v 5.986993 7.663564 27.606005
v 14.825514 10.777374 27.606005
v 10.761788 9.879925 21.856806
v 10.761788 9.879925 21.856806
v 14.825514 10.777374 27.606005
v 13.981778 15.154080 27.606005
v 11.970543 15.167179 20.401378
v 5.986993 18.284302 27.606005
v 11.970543 15.167179 20.401378
v 13.981778 15.154080 27.606005
v -13.875362 20.910543 29.416045
v -10.698204 23.966467 36.750010
v -9.972454 23.868966 29.416045
v -9.972454 23.868966 29.416045
v -10.698204 23.966467 36.750010
v -10.663567 30.558613 36.829964
v -9.699077 31.081560 29.416045
v -13.875362 34.341992 29.416045
v -9.699077 31.081560 29.416045
v -10.663567 30.558613 36.829964
v -13.875362 20.910543 29.416045
v -15.026325 24.871487 38.698853
v -10.698204 23.966467 36.750010
v -10.698204 23.966467 36.750010
v -15.026325 24.871487 38.698853
v -14.997366 30.818964 38.465288
v -10.663567 30.558613 36.829964
v -13.875362 34.341992 29.416045
v -10.663567 30.558613 36.829964
v -14.997366 30.818964 38.465288
v -13.875362 20.910543 29.416045
v -18.042160 24.444408 33.109921
v -15.026325 24.871487 38.698853
v -15.026325 24.871487 38.698853
v -18.042160 24.444408 33.109921
v -17.879241 31.537895 32.965493
v -14.997366 30.818964 38.465288
v -13.875362 34.341992 29.416045
v -14.997366 30.818964 38.465288
v -17.879241 31.537895 32.965493
v -13.875362 20.910543 29.416045
v -18.560862 24.710566 25.262338
v -18.042160 24.444408 33.109921
v -18.042160 24.444408 33.109921
v -18.560862 24.710566 25.262338
v -17.701590 31.037592 26.024085
v -17.879241 31.537895 32.965493
v -13.875362 34.341992 29.416045
v -17.879241 31.537895 32.965493
v -17.701590 31.037592 26.024085
v -13.875362 20.910543 29.416045
v -14.880414 23.950908 21.310049
v -18.560862 24.710566 25.262338
v -18.560862 24.710566 25.262338
v -14.880414 23.950908 21.310049
v -14.808030 30.737295 21.893843
v -17.701590 31.037592 26.024085
v -13.875362 34.341992 29.416045
v -17.701590 31.037592 26.024085
v -14.808030 30.737295 21.893843
v -13.875362 20.910543 29.416045
v -11.036006 24.769553 22.861842
v -14.880414 23.950908 21.310049
v -14.880414 23.950908 21.310049
v -11.036006 24.769553 22.861842
v -10.741764 30.399031 22.182632
v -14.808030 30.737295 21.893843
v -13.875362 34.341992 29.416045
v -14.808030 30.737295 21.893843
v -10.741764 30.399031 22.182632
v -13.875362 20.910543 29.416045
v -9.972454 23.868966 29.416045
v -11.036006 24.769553 22.861842
v -11.036006 24.769553 22.861842
v -9.972454 23.868966 29.416045
v -9.699077 31.081560 29.416045
v -10.741764 30.399031 22.182632
v -13.875362 34.341992 29.416045
v -10.741764 30.399031 22.182632
v -9.699077 31.081560 29.416045
v -31.113691 32.163864 9.798491
v -28.212652 34.996226 14.160602
v -26.951472 34.909336 9.798491
v -26.951472 34.909336 9.798491
v -28.212652 34.996226 14.160602
v -27.694112 40.575172 14.940299
v -26.606346 39.871884 9.798491
v -31.113691 43.038315 9.798491
v -26.606346 39.871884 9.798491
v -27.694112 40.575172 14.940299
v -31.113691 32.163864 9.798491
v -32.205602 34.736248 15.535011
v -28.212652 34.996226 14.160602
v -28.212652 34.996226 14.160602
v -32.205602 34.736248 15.535011
v -32.224281 40.331585 15.633141
v -27.694112 40.575172 14.940299
v -31.113691 43.038315 9.798491
v -27.694112 40.575172 14.940299
v -32.224281 40.331585 15.633141
v -31.113691 32.163864 9.798491
v -36.058440 34.990266 12.653893
v -32.205602 34.736248 15.535011
v -32.205602 34.736248 15.535011
v -36.058440 34.990266 12.653893
v -35.583550 40.119264 12.379662
v -32.224281 40.331585 15.633141
v -31.113691 43.038315 9.798491
v -32.224281 40.331585 15.633141
v -35.583550 40.119264 12.379662
v -31.113691 32.163864 9.798491
v -35.960335 34.794587 6.999742
v -36.058440 34.990266 12.653893
v -36.058440 34.990266 12.653893
v -35.960335 34.794587 6.999742
v -35.628699 40.413448 7.191248
v -35.583550 40.119264 12.379662
v -31.113691 43.038315 9.798491
v -35.583550 40.119264 12.379662
v -35.628699 40.413448 7.191248
v -31.113691 32.163864 9.798491
v -32.131293 34.790140 4.452365
v -35.960335 34.794587 6.999742
v -35.960335 34.794587 6.999742
v -32.131293 34.790140 4.452365
v -32.122835 40.174625 4.496803
v -35.628699 40.413448 7.191248
v -31.113691 43.038315 9.798491
v -35.628699 40.413448 7.191248
v -32.122835 40.174625 4.496803
v -31.113691 32.163864 9.798491
v -28.663224 34.690211 6.113877
v -32.131293 34.790140 4.452365
v -32.131293 34.790140 4.452365
v -28.663224 34.690211 6.113877
v -27.675520 40.411714 4.628728
v -32.122835 40.174625 4.496803
v -31.113691 43.038315 9.798491
v -32.122835 40.174625 4.496803
v -27.675520 40.411714 4.628728
v -31.113691 32.163864 9.798491
v -26.951472 34.909336 9.798491
v -28.663224 34.690211 6.113877
v -28.663224 34.690211 6.113877
v -26.951472 34.909336 9.798491
v -26.606346 39.871884 9.798491
v -27.675520 40.411714 4.628728
v -31.113691 43.038315 9.798491
v -27.675520 40.411714 4.628728
v -26.606346 39.871884 9.798491
v -32.067087 15.632490 -10.451379
v -28.966419 18.009220 -4.012384
v -27.226111 18.159534 -10.451379
v -27.226111 18.159534 -10.451379
v -28.966419 18.009220 -4.012384
v -29.282076 22.952024 -4.667892
v -28.149625 22.891222 -10.451379
v -32.067087 25.684167 -10.451379
v -28.149625 22.891222 -10.451379
v -29.282076 22.952024 -4.667892
v -32.067087 15.632490 -10.451379
v -33.037198 17.848962 -3.412523
v -28.966419 18.009220 -4.012384
v -28.966419 18.009220 -4.012384
v -33.037198 17.848962 -3.412523
v -33.169007 23.237667 -2.456153
v -29.282076 22.952024 -4.667892
v -32.067087 25.684167 -10.451379
v -29.282076 22.952024 -4.667892
v -33.169007 23.237667 -2.456153
v -32.067087 15.632490 -10.451379
v -35.457265 18.354454 -7.747637
v -33.037198 17.848962 -3.412523
v -33.037198 17.848962 -3.412523
v -35.457265 18.354454 -7.747637
v -35.759478 22.987069 -7.506616
v -33.169007 23.237667 -2.456153
v -32.067087 25.684167 -10.451379
v -33.169007 23.237667 -2.456153
v -35.759478 22.987069 -7.506616
v -32.067087 15.632490 -10.451379
v -35.612472 18.383877 -13.278902
v -35.457265 18.354454 -7.747637
v -35.457265 18.354454 -7.747637
v -35.612472 18.383877 -13.278902
v -35.597374 23.341515 -13.266861
v -35.759478 22.987069 -7.506616
v -32.067087 25.684167 -10.451379
v -35.759478 22.987069 -7.506616
v -35.597374 23.341515 -13.266861
v -32.067087 15.632490 -10.451379
v -33.163667 18.441577 -18.407863
v -35.612472 18.383877 -13.278902
v -35.612472 18.383877 -13.278902
v -33.163667 18.441577 -18.407863
v -33.122576 23.050110 -18.109720
v -35.597374 23.341515 -13.266861
v -32.067087 25.684167 -10.451379
v -35.597374 23.341515 -13.266861
v -33.122576 23.050110 -18.109720
v -32.067087 15.632490 -10.451379
v -29.634716 18.454060 -15.502558
v -33.163667 18.441577 -18.407863
v -33.163667 18.441577 -18.407863
v -29.634716 18.454060 -15.502558
v -29.410682 23.211159 -15.967797
v -33.122576 23.050110 -18.109720
v -32.067087 25.684167 -10.451379
v -33.122576 23.050110 -18.109720
v -29.410682 23.211159 -15.967797
v -32.067087 15.632490 -10.451379
v -27.226111 18.159534 -10.451379
v -29.634716 18.454060 -15.502558
v -29.634716 18.454060 -15.502558
v -27.226111 18.159534 -10.451379
v -28.149625 22.891222 -10.451379
v -29.410682 23.211159 -15.967797
v -32.067087 25.684167 -10.451379
v -29.410682 23.211159 -15.967797
v -28.149625 22.891222 -10.451379
v -20.823371 32.889203 -25.364603
v -15.709291 35.435670 -20.327127
v -12.014178 34.968304 -25.364603
v -12.014178 34.968304 -25.364603
v -15.709291 35.435670 -20.327127
v -16.199849 40.112118 -20.810337
v -11.622154 40.004692 -25.364603
v -20.823371 42.588470 -25.364603
v -11.622154 40.004692 -25.364603
v -16.199849 40.112118 -20.810337
v -20.823371 32.889203 -25.364603
v -22.474769 35.577234 -19.681113
v -15.709291 35.435670 -20.327127
v -15.709291 35.435670 -20.327127
v -22.474769 35.577234 -19.681113
v -22.856830 40.124597 -18.366202
v -16.199849 40.112118 -20.810337
v -20.823371 42.588470 -25.364603
v -16.199849 40.112118 -20.810337
v -22.856830 40.124597 -18.366202
v -20.823371 32.889203 -25.364603
v -26.974654 34.983010 -23.037632
v -22.474769 35.577234 -19.681113
v -22.474769 35.577234 -19.681113
v -26.974654 34.983010 -23.037632
v -28.794299 39.745958 -22.349278
v -22.856830 40.124597 -18.366202
v -20.823371 42.588470 -25.364603
v -22.856830 40.124597 -18.366202
v -28.794299 39.745958 -22.349278
v -20.823371 32.889203 -25.364603
v -29.018320 35.683521 -28.464673
v -26.974654 34.983010 -23.037632
v -26.974654 34.983010 -23.037632
v -29.018320 35.683521 -28.464673
v -27.650309 40.111772 -27.947168
v -28.794299 39.745958 -22.349278
v -20.823371 42.588470 -25.364603
v -28.794299 39.745958 -22.349278
v -27.650309 40.111772 -27.947168
v -20.823371 32.889203 -25.364603
v -22.666304 35.018273 -31.707284
v -29.018320 35.683521 -28.464673
v -29.018320 35.683521 -28.464673
v -22.666304 35.018273 -31.707284
v -22.330993 39.998720 -30.553271
v -27.650309 40.111772 -27.947168
v -20.823371 42.588470 -25.364603
v -27.650309 40.111772 -27.947168
v -22.330993 39.998720 -30.553271
v -20.823371 32.889203 -25.364603
v -16.539751 35.742764 -29.584059
v -22.666304 35.018273 -31.707284
v -22.666304 35.018273 -31.707284
v -16.539751 35.742764 -29.584059
v -15.966434 40.316318 -30.148788
v -22.330993 39.998720 -30.553271
v -20.823371 42.588470 -25.364603
v -22.330993 39.998720 -30.553271
v -15.966434 40.316318 -30.148788
v -20.823371 32.889203 -25.364603
v -12.014178 34.968304 -25.364603
v -16.539751 35.742764 -29.584059
v -16.539751 35.742764 -29.584059
v -12.014178 34.968304 -25.364603
v -11.622154 40.004692 -25.364603
v -15.966434 40.316318 -30.148788
v -20.823371 42.588470 -25.364603
v -15.966434 40.316318 -30.148788
v -11.622154 40.004692 -25.364603
v 2.445144 21.948192 -27.329893
v 7.081961 23.636883 -22.799415
v 10.368858 23.757687 -27.329893
v 10.368858 23.757687 -27.329893
v 7.081961 23.636883 -22.799415
v 8.151543 27.662211 -21.754362
v 10.409932 28.087146 -27.329893
v 2.445144 29.916147 -27.329893
v 10.409932 28.087146 -27.329893
v 8.151543 27.662211 -21.754362
v 2.445144 21.948192 -27.329893
v 0.875170 24.266402 -21.970270
v 7.081961 23.636883 -22.799415
v 7.081961 23.636883 -22.799415
v 0.875170 24.266402 -21.970270
v 0.958309 27.603882 -22.254093
v 8.151543 27.662211 -21.754362
v 2.445144 29.916147 -27.329893
v 8.151543 27.662211 -21.754362
v 0.958309 27.603882 -22.254093
v 2.445144 21.948192 -27.329893
v -6.024152 23.746172 -24.151913
v 0.875170 24.266402 -21.970270
v 0.875170 24.266402 -21.970270
v -6.024152 23.746172 -24.151913
v -3.802992 28.135491 -24.985371
v 0.958309 27.603882 -22.254093
v 2.445144 29.916147 -27.329893
v 0.958309 27.603882 -22.254093
v -3.802992 28.135491 -24.985371
v 2.445144 21.948192 -27.329893
v -5.839363 23.859344 -30.438533
v -6.024152 23.746172 -24.151913
v -6.024152 23.746172 -24.151913
v -5.839363 23.859344 -30.438533
v -5.214098 27.766091 -30.203912
v -3.802992 28.135491 -24.985371
v 2.445144 29.916147 -27.329893
v -3.802992 28.135491 -24.985371
v -5.214098 27.766091 -30.203912
v 2.445144 21.948192 -27.329893
v 0.494618 24.210340 -33.988655
v -5.839363 23.859344 -30.438533
v -5.839363 23.859344 -30.438533
v 0.494618 24.210340 -33.988655
v 0.523346 27.839043 -33.890583
v -5.214098 27.766091 -30.203912
v 2.445144 29.916147 -27.329893
v -5.214098 27.766091 -30.203912
v 0.523346 27.839043 -33.890583
v 2.445144 21.948192 -27.329893
v 6.755259 24.133824 -31.541162
v 0.494618 24.210340 -33.988655
v 0.494618 24.210340 -33.988655
v 6.755259 24.133824 -31.541162
v 6.671091 27.907904 -31.458924
v 0.523346 27.839043 -33.890583
v 2.445144 29.916147 -27.329893
v 0.523346 27.839043 -33.890583
v 6.671091 27.907904 -31.458924
v 2.445144 21.948192 -27.329893
v 10.368858 23.757687 -27.329893
v 6.755259 24.133824 -31.541162
v 6.755259 24.133824 -31.541162
v 10.368858 23.757687 -27.329893
v 10.409932 28.087146 -27.329893
v 6.671091 27.907904 -31.458924
v 2.445144 29.916147 -27.329893
v 6.671091 27.907904 -31.458924
v 10.409932 28.087146 -27.329893
v 22.366455 21.742453 -13.193919
v 26.194746 24.146029 -8.493009
v 27.706472 24.075922 -13.193919
v 27.706472 24.075922 -13.193919
v 26.194746 24.146029 -8.493009
v 26.414367 29.151159 -8.223326
v 28.328280 29.176426 -13.193919
v 22.366455 32.105861 -13.193919
v 28.328280 29.176426 -13.193919
v 26.414367 29.151159 -8.223326
v 22.366455 21.742453 -13.193919
v 20.816525 24.433426 -6.544146
v 26.194746 24.146029 -8.493009
v 26.194746 24.146029 -8.493009
v 20.816525 24.433426 -6.544146
v 21.040810 29.445557 -7.506412
v 26.414367 29.151159 -8.223326
v 22.366455 32.105861 -13.193919
v 26.414367 29.151159 -8.223326
v 21.040810 29.445557 -7.506412
v 22.366455 21.742453 -13.193919
v 17.485176 24.793921 -10.891998
v 20.816525 24.433426 -6.544146
v 20.816525 24.433426 -6.544146
v 17.485176 24.793921 -10.891998
v 16.299235 29.388222 -10.332729
v 21.040810 29.445557 -7.506412
v 22.366455 32.105861 -13.193919
v 21.040810 29.445557 -7.506412
v 16.299235 29.388222 -10.332729
v 22.366455 21.742453 -13.193919
v 16.237190 24.121612 -16.084367
v 17.485176 24.793921 -10.891998
v 17.485176 24.793921 -10.891998
v 16.237190 24.121612 -16.084367
v 17.729720 29.508972 -15.380518
v 16.299235 29.388222 -10.332729
v 22.366455 32.105861 -13.193919
v 16.299235 29.388222 -10.332729
v 17.729720 29.508972 -15.380518
v 22.366455 21.742453 -13.193919
v 20.837128 24.167653 -19.755299
v 16.237190 24.121612 -16.084367
v 16.237190 24.121612 -16.084367
v 20.837128 24.167653 -19.755299
v 20.957389 29.923055 -19.239335
v 17.729720 29.508972 -15.380518
v 22.366455 32.105861 -13.193919
v 17.729720 29.508972 -15.380518
v 20.957389 29.923055 -19.239335
v 22.366455 21.742453 -13.193919
v 26.341038 24.042801 -18.074467
v 20.837128 24.167653 -19.755299
v 20.837128 24.167653 -19.755299
v 26.341038 24.042801 -18.074467
v 25.562498 29.183229 -17.118467
v 20.957389 29.923055 -19.239335
v 22.366455 32.105861 -13.193919
v 20.957389 29.923055 -19.239335
v 25.562498 29.183229 -17.118467
v 22.366455 21.742453 -13.193919
v 27.706472 24.075922 -13.193919
v 26.341038 24.042801 -18.074467
v 26.341038 24.042801 -18.074467
v 27.706472 24.075922 -13.193919
v 28.328280 29.176426 -13.193919
v 25.562498 29.183229 -17.118467
v 22.366455 32.105861 -13.193919
v 25.562498 29.183229 -17.118467
v 28.328280 29.176426 -13.193919
v -17.919747 25.709339 11.686904
v -18.596108 23.314806 10.402870
v 24.148962 17.526247 0.208264
v 24.487143 18.723514 0.850281
v -18.525854 25.709339 8.953293
v -18.596108 23.314806 10.402870
v -17.919747 25.709339 11.686904
v 24.184090 18.723514 -0.516525
v 24.487143 18.723514 0.850281
v 24.148962 17.526247 0.208264
v -18.596108 23.314806 10.402870
v -19.202215 23.314806 7.669258
v 23.845909 17.526247 -1.158542
v 24.148962 17.526247 0.208264
v -18.525854 25.709339 8.953293
v -19.202215 23.314806 7.669258
v -18.596108 23.314806 10.402870
v 24.184090 18.723514 -0.516525
v 24.148962 17.526247 0.208264
v 23.845909 17.526247 -1.158542
v -19.202215 23.314806 7.669258
v -19.131961 25.709339 6.219681
v 23.881036 18.723514 -1.883331
v 23.845909 17.526247 -1.158542
v -18.525854 25.709339 8.953293
v -19.131961 25.709339 6.219681
v -19.202215 23.314806 7.669258
v 24.184090 18.723514 -0.516525
v 23.845909 17.526247 -1.158542
v 23.881036 18.723514 -1.883331
v -19.131961 25.709339 6.219681
v -18.455600 28.103872 7.503715
v 24.219217 19.920781 -1.241314
v 23.881036 18.723514 -1.883331
v -18.525854 25.709339 8.953293
v -18.455600 28.103872 7.503715
v -19.131961 25.709339 6.219681
v 24.184090 18.723514 -0.516525
v 23.881036 18.723514 -1.883331
v 24.219217 19.920781 -1.241314
v -18.455600 28.103872 7.503715
v -17.849492 28.103872 10.237327
v 24.522270 19.920781 0.125492
v 24.219217 19.920781 -1.241314
v -18.525854 25.709339 8.953293
v -17.849492 28.103872 10.237327
v -18.455600 28.103872 7.503715
v 24.184090 18.723514 -0.516525
v 24.219217 19.920781 -1.241314
v 24.522270 19.920781 0.125492
v -17.849492 28.103872 10.237327
v -17.919747 25.709339 11.686904
v 24.487143 18.723514 0.850281
v 24.522270 19.920781 0.125492
v -18.525854 25.709339 8.953293
v -17.919747 25.709339 11.686904
v -17.849492 28.103872 10.237327
v 24.184090 18.723514 -0.516525
v 24.522270 19.920781 0.125492
v 24.487143 18.723514 0.850281
v -12.135197 39.870071 -7.044422
v -12.317028 37.447167 -8.435994
v 33.509151 40.550596 -18.418869
v 33.600066 41.762048 -17.723083
v -12.690279 39.870071 -9.788850
v -12.317028 37.447167 -8.435994
v -12.135197 39.870071 -7.044422
v 33.322525 41.762048 -19.095297
v 33.600066 41.762048 -17.723083
v 33.509151 40.550596 -18.418869
v -12.317028 37.447167 -8.435994
v -12.872109 37.447167 -11.180422
v 33.231610 40.550596 -19.791083
v 33.509151 40.550596 -18.418869
v -12.690279 39.870071 -9.788850
v -12.872109 37.447167 -11.180422
v -12.317028 37.447167 -8.435994
v 33.322525 41.762048 -19.095297
v 33.509151 40.550596 -18.418869
v 33.231610 40.550596 -19.791083
v -12.872109 37.447167 -11.180422
v -13.245361 39.870071 -12.533278
v 33.044984 41.762048 -20.467511
v 33.231610 40.550596 -19.791083
v -12.690279 39.870071 -9.788850
v -13.245361 39.870071 -12.533278
v -12.872109 37.447167 -11.180422
v 33.322525 41.762048 -19.095297
v 33.231610 40.550596 -19.791083
v 33.044984 41.762048 -20.467511
v -13.245361 39.870071 -12.533278
v -13.063531 42.292975 -11.141705
v 33.135899 42.973500 -19.771725
v 33.044984 41.762048 -20.467511
v -12.690279 39.870071 -9.788850
v -13.063531 42.292975 -11.141705
v -13.245361 39.870071 -12.533278
v 33.322525 41.762048 -19.095297
v 33.044984 41.762048 -20.467511
v 33.135899 42.973500 -19.771725
v -13.063531 42.292975 -11.141705
v -12.508449 42.292975 -8.397278
v 33.413440 42.973500 -18.399511
v 33.135899 42.973500 -19.771725
v -12.690279 39.870071 -9.788850
v -12.508449 42.292975 -8.397278
v -13.063531 42.292975 -11.141705
v 33.322525 41.762048 -19.095297
v 33.135899 42.973500 -19.771725
v 33.413440 42.973500 -18.399511
v -12.508449 42.292975 -8.397278
v -12.135197 39.870071 -7.044422
v 33.600066 41.762048 -17.723083
v 33.413440 42.973500 -18.399511
v -12.690279 39.870071 -9.788850
v -12.135197 39.870071 -7.044422
v -12.508449 42.292975 -8.397278
v 33.322525 41.762048 -19.095297
v 33.413440 42.973500 -18.399511
v 33.600066 41.762048 -17.723083
v -24.861301 34.076593 11.815997
v -24.822162 31.652763 10.414741
v 22.859112 31.465180 13.469733
v 22.839543 32.677095 14.170361
v -24.641350 34.076593 9.024649
v -24.822162 31.652763 10.414741
v -24.861301 34.076593 11.815997
v 22.949519 32.677095 12.774687
v 22.839543 32.677095 14.170361
v 22.859112 31.465180 13.469733
v -24.822162 31.652763 10.414741
v -24.602212 31.652763 7.623394
v 22.969088 31.465180 12.074059
v 22.859112 31.465180 13.469733
v -24.641350 34.076593 9.024649
v -24.602212 31.652763 7.623394
v -24.822162 31.652763 10.414741
v 22.949519 32.677095 12.774687
v 22.859112 31.465180 13.469733
v 22.969088 31.465180 12.074059
v -24.602212 31.652763 7.623394
v -24.421399 34.076593 6.233302
v 23.059494 32.677095 11.379013
v 22.969088 31.465180 12.074059
v -24.641350 34.076593 9.024649
v -24.421399 34.076593 6.233302
v -24.602212 31.652763 7.623394
v 22.949519 32.677095 12.774687
v 22.969088 31.465180 12.074059
v 23.059494 32.677095 11.379013
v -24.421399 34.076593 6.233302
v -24.460537 36.500423 7.634557
v 23.039925 33.889010 12.079641
v 23.059494 32.677095 11.379013
v -24.641350 34.076593 9.024649
v -24.460537 36.500423 7.634557
v -24.421399 34.076593 6.233302
v 22.949519 32.677095 12.774687
v 23.059494 32.677095 11.379013
v 23.039925 33.889010 12.079641
v -24.460537 36.500423 7.634557
v -24.680488 36.500423 10.425905
v 22.929949 33.889010 13.475315
v 23.039925 33.889010 12.079641
v -24.641350 34.076593 9.024649
v -24.680488 36.500423 10.425905
v -24.460537 36.500423 7.634557
v 22.949519 32.677095 12.774687
v 23.039925 33.889010 12.079641
v 22.929949 33.889010 13.475315
v -24.680488 36.500423 10.425905
v -24.861301 34.076593 11.815997
v 22.839543 32.677095 14.170361
v 22.929949 33.889010 13.475315
v -24.641350 34.076593 9.024649
v -24.861301 34.076593 11.815997
v -24.680488 36.500423 10.425905
v 22.949519 32.677095 12.774687
v 22.929949 33.889010 13.475315
v 22.839543 32.677095 14.170361
vt 0.500000 1.000000
vt 0.000000 0.000000
vt 1.000000 0.000000
vt 0.000000 0.000000
vt 1.000000 0.000000
vt 1.000000 1.000000
vt 0.000000 1.000000
vt 0.000000 0.000000
vt 1.000000 0.000000
vt 1.000000 1.000000
vt 0.000000 1.000000
vt 0.500000 1.000000
vt 0.000000 0.000000
vt 1.000000 0.000000
vt 0.500000 1.000000
vt 0.000000 0.000000
vt 1.000000 0.000000
vt 0.000000 0.000000
vt 1.000000 0.000000
vt 1.000000 1.000000
vt 0.000000 1.000000
vt 0.000000 0.000000
vt 1.000000 0.000000
vt 1.000000 1.000000
vt 0.000000 1.000000
vt 0.500000 1.000000
vt 0.000000 0.000000
vt 1.000000 0.000000
vt 0.500000 1.000000
vt 0.000000 0.000000
vt 1.000000 0.000000
vt 0.000000 0.000000
vt 1.000000 0.000000
vt 1.000000 1.000000
vt 0.000000 1.000000
vt 0.000000 0.000000
vt 1.000000 0.000000
vt 1.000000 1.000000
vt 0.000000 1.000000
vt 0.500000 1.000000
vt 0.000000 0.000000
vt 1.000000 0.000000
vt 0.500000 1.000000
vt 0.000000 0.000000
vt 1.000000 0.000000
vt 0.000000 0.000000
vt 1.000000 0.000000
vt 1.000000 1.000000
vt 0.000000 1.000000
vt 0.000000 0.000000
vt 1.000000 0.000000
vt 1.000000 1.000000
vt 0.000000 1.000000
vt 0.500000 1.000000
vt 0.000000 0.000000
vt 1.000000 0.000000
vt 0.500000 1.000000
vt 0.000000 0.000000
vt 1.000000 0.000000
vt 0.000000 0.000000
vt 1.000000 0.000000
vt 1.000000 1.000000
vt 0.000000 1.000000
vt 0.000000 0.000000
vt 1.000000 0.000000
vt 1.000000 1.000000
vt 0.000000 1.000000
vt 0.500000 1.000000
vt 0.000000 0.000000
vt 1.000000 0.000000
vt 0.500000 1.000000
vt 0.000000 0.000000
vt 1.000000 0.000000
vt 0.000000 0.000000
vt 1.000000 0.000000
vt 1.000000 1.000000
vt 0.000000 1.000000
vt 0.000000 0.000000
vt 1.000000 0.000000
vt 1.000000 1.000000
vt 0.000000 1.000000
vt 0.500000 1.000000
vt 0.000000 0.000000
vt 1.000000 0.000000
vt 0.500000 1.000000
vt 0.000000 0.000000
vt 1.000000 0.000000
vt 0.000000 0.000000
vt 1.000000 0.000000
vt 1.000000 1.000000
vt 0.000000 1.000000
vt 0.000000 0.000000
vt 1.000000 0.000000
vt 1.000000 1.000000
vt 0.000000 1.000000
vt 0.500000 1.000000
vt 0.000000 0.000000
vt 1.000000 0.000000
vt 0.500000 1.000000
vt 0.000000 0.000000
vt 1.000000 0.000000
vt 0.000000 0.000000
vt 1.000000 0.000000
vt 1.000000 1.000000
vt 0.000000 1.000000
vt 0.000000 0.000000
vt 1.000000 0.000000
vt 1.000000 1.000000
vt 0.000000 1.000000
vt 0.500000 1.000000
vt 0.000000 0.000000
vt 1.000000 0.000000
vt 0.500000 1.000000
vt 0.000000 0.000000
vt 1.000000 0.000000
vt 0.000000 0.000000
vt 1.000000 0.000000
vt 1.000000 1.000000
vt 0.000000 1.000000
vt 0.000000 0.000000
vt 1.000000 0.000000
vt 1.000000 1.000000
vt 0.000000 1.000000
vt 0.500000 1.000000
vt 0.000000 0.000000
vt 1.000000 0.000000
vt 0.500000 1.000000
vt 0.000000 0.000000
vt 1.000000 0.000000
vt 0.000000 0.000000
vt 1.000000 0.000000
vt 1.000000 1.000000
vt 0.000000 1.000000
vt 0.000000 0.000000
vt 1.000000 0.000000
vt 1.000000 1.000000
vt 0.000000 1.000000
vt 0.500000 1.000000
vt 0.000000 0.000000
vt 1.000000 0.000000
vt 0.500000 1.000000
vt 0.000000 0.000000
vt 1.000000 0.000000
vt 0.000000 0.000000
vt 1.000000 0.000000
vt 1.000000 1.000000
vt 0.000000 1.000000
vt 0.500000 1.000000
vt 0.000000 0.000000
vt 1.000000 0.000000
vt 0.500000 1.000000
vt 0.000000 0.000000
vt 1.000000 0.000000
vt 0.000000 0.000000
vt 1.000000 0.000000
vt 1.000000 1.000000
vt 0.000000 1.000000
vt 0.500000 1.000000
vt 0.000000 0.000000
vt 1.000000 0.000000
vt 0.500000 1.000000
vt 0.000000 0.000000
vt 1.000000 0.000000
vt 0.000000 0.000000
vt 1.000000 0.000000
vt 1.000000 1.000000
vt 0.000000 1.000000
vt 0.500000 1.000000
vt 0.000000 0.000000
vt 1.000000 0.000000
vt 0.500000 1.000000
vt 0.000000 0.000000
vt 1.000000 0.000000
vt 0.000000 0.000000
vt 1.000000 0.000000
vt 1.000000 1.000000
vt 0.000000 1.000000
vt 0.500000 1.000000
vt 0.000000 0.000000
vt 1.000000 0.000000
vt 0.500000 1.000000
vt 0.000000 0.000000
vt 1.000000 0.000000
vt 0.000000 0.000000
vt 1.000000 0.000000
vt 1.000000 1.000000
vt 0.000000 1.000000
vt 0.500000 1.000000
vt 0.000000 0.000000
vt 1.000000 0.000000
vt 0.500000 1.000000
vt 0.000000 0.000000
vt 1.000000 0.000000
vt 0.000000 0.000000
vt 1.000000 0.000000
vt 1.000000 1.000000
vt 0.000000 1.000000
vt 0.500000 1.000000
vt 0.000000 0.000000
vt 1.000000 0.000000
vt 0.500000 1.000000
vt 0.000000 0.000000
vt 1.000000 0.000000
vt 0.000000 0.000000
vt 1.000000 0.000000
vt 1.000000 1.000000
vt 0.000000 1.000000
vt 0.500000 1.000000
vt 0.000000 0.000000
vt 1.000000 0.000000
vt 0.500000 1.000000
vt 0.000000 0.000000
vt 1.000000 0.000000
vt 0.000000 0.000000
vt 1.000000 0.000000
vt 1.000000 1.000000
vt 0.000000 1.000000
vt 0.500000 1.000000
vt 0.000000 0.000000
vt 1.000000 0.000000
vt 0.500000 1.000000
vt 0.000000 0.000000
vt 1.000000 0.000000
vt 0.000000 0.000000
vt 1.000000 0.000000
vt 1.000000 1.000000
vt 0.000000 1.000000
vt 0.500000 1.000000
vt 0.000000 0.000000
vt 1.000000 0.000000
vt 0.500000 1.000000
vt 0.000000 0.000000
vt 1.000000 0.000000
vt 0.000000 0.000000
vt 1.000000 0.000000
vt 1.000000 1.000000
vt 0.000000 1.000000
vt 0.500000 1.000000
vt 0.000000 0.000000
vt 1.000000 0.000000
vt 0.500000 1.000000
vt 0.000000 0.000000
vt 1.000000 0.000000
vt 0.000000 0.000000
vt 1.000000 0.000000
vt 1.000000 1.000000
vt 0.000000 1.000000
vt 0.500000 1.000000
vt 0.000000 0.000000
vt 1.000000 0.000000
vt 0.500000 1.000000
vt 0.000000 0.000000
vt 1.000000 0.000000
vt 0.000000 0.000000
vt 1.000000 0.000000
vt 1.000000 1.000000
vt 0.000000 1.000000
vt 0.500000 1.000000
vt 0.000000 0.000000
vt 1.000000 0.000000
vt 0.500000 1.000000
vt 0.000000 0.000000
vt 1.000000 0.000000
vt 0.000000 0.000000
vt 1.000000 0.000000
vt 1.000000 1.000000
vt 0.000000 1.000000
vt 0.500000 1.000000
vt 0.000000 0.000000
vt 1.000000 0.000000
vt 0.500000 1.000000
vt 0.000000 0.000000
vt 1.000000 0.000000
vt 0.000000 0.000000
vt 1.000000 0.000000
vt 1.000000 1.000000
vt 0.000000 1.000000
vt 0.500000 1.000000
vt 0.000000 0.000000
vt 1.000000 0.000000
vt 0.500000 1.000000
vt 0.000000 0.000000
vt 1.000000 0.000000
vt 0.000000 0.000000
vt 1.000000 0.000000
vt 1.000000 1.000000
vt 0.000000 1.000000
vt 0.500000 1.000000
vt 0.000000 0.000000
vt 1.000000 0.000000
vt 0.500000 1.000000
vt 0.000000 0.000000
vt 1.000000 0.000000
vt 0.000000 0.000000
vt 1.000000 0.000000
vt 1.000000 1.000000
vt 0.000000 1.000000
vt 0.500000 1.000000
vt 0.000000 0.000000
vt 1.000000 0.000000
vt 0.500000 1.000000
vt 0.000000 0.000000
vt 1.000000 0.000000
vt 0.000000 0.000000
vt 1.000000 0.000000
vt 1.000000 1.000000
vt 0.000000 1.000000
vt 0.500000 1.000000
vt 0.000000 0.000000
vt 1.000000 0.000000
vt 0.500000 1.000000
vt 0.000000 0.000000
vt 1.000000 0.000000
vt 0.000000 0.000000
vt 1.000000 0.000000
vt 1.000000 1.000000
vt 0.000000 1.000000
vt 0.500000 1.000000
vt 0.000000 0.000000
vt 1.000000 0.000000
vt 0.500000 1.000000
vt 0.000000 0.000000
vt 1.000000 0.000000
vt 0.000000 0.000000
vt 1.000000 0.000000
vt 1.000000 1.000000
vt 0.000000 1.000000
vt 0.500000 1.000000
vt 0.000000 0.000000
vt 1.000000 0.000000
vt 0.500000 1.000000
vt 0.000000 0.000000
vt 1.000000 0.000000
vt 0.000000 0.000000
vt 1.000000 0.000000
vt 1.000000 1.000000
vt 0.000000 1.000000
vt 0.500000 1.000000
vt 0.000000 0.000000
vt 1.000000 0.000000
vt 0.500000 1.000000
vt 0.000000 0.000000
vt 1.000000 0.000000
vt 0.000000 0.000000
vt 1.000000 0.000000
vt 1.000000 1.000000
vt 0.000000 1.000000
vt 0.500000 1.000000
vt 0.000000 0.000000
vt 1.000000 0.000000
vt 0.500000 1.000000
vt 0.000000 0.000000
vt 1.000000 0.000000
vt 0.000000 0.000000
vt 1.000000 0.000000
vt 1.000000 1.000000
vt 0.000000 1.000000
vt 0.500000 1.000000
vt 0.000000 0.000000
vt 1.000000 0.000000
vt 0.500000 1.000000
vt 0.000000 0.000000
vt 1.000000 0.000000
vt 0.000000 0.000000
vt 1.000000 0.000000
vt 1.000000 1.000000
vt 0.000000 1.000000
vt 0.500000 1.000000
vt 0.000000 0.000000
vt 1.000000 0.000000
vt 0.500000 1.000000
vt 0.000000 0.000000
vt 1.000000 0.000000
vt 0.000000 0.000000
vt 1.000000 0.000000
vt 1.000000 1.000000
vt 0.000000 1.000000
vt 0.500000 1.000000
vt 0.000000 0.000000
vt 1.000000 0.000000
vt 0.500000 1.000000
vt 0.000000 0.000000
vt 1.000000 0.000000
vt 0.000000 0.000000
vt 1.000000 0.000000
vt 1.000000 1.000000
vt 0.000000 1.000000
vt 0.500000 1.000000
vt 0.000000 0.000000
vt 1.000000 0.000000
vt 0.500000 1.000000
vt 0.000000 0.000000
vt 1.000000 0.000000
vt 0.000000 0.000000
vt 1.000000 0.000000
vt 1.000000 1.000000
vt 0.000000 1.000000
vt 0.500000 1.000000
vt 0.000000 0.000000
vt 1.000000 0.000000
vt 0.500000 1.000000
vt 0.000000 0.000000
vt 1.000000 0.000000
vt 0.000000 0.000000
vt 1.000000 0.000000
vt 1.000000 1.000000
vt 0.000000 1.000000
vt 0.500000 1.000000
vt 0.000000 0.000000
vt 1.000000 0.000000
vt 0.500000 1.000000
vt 0.000000 0.000000
vt 1.000000 0.000000
vt 0.000000 0.000000
vt 1.000000 0.000000
vt 1.000000 1.000000
vt 0.000000 1.000000
vt 0.500000 1.000000
vt 0.000000 0.000000
vt 1.000000 0.000000
vt 0.500000 1.000000
vt 0.000000 0.000000
vt 1.000000 0.000000
vt 0.000000 0.000000
vt 1.000000 0.000000
vt 1.000000 1.000000
vt 0.000000 1.000000
vt 0.500000 1.000000
vt 0.000000 0.000000
vt 1.000000 0.000000
vt 0.500000 1.000000
vt 0.000000 0.000000
vt 1.000000 0.000000
vt 0.000000 0.000000
vt 1.000000 0.000000
vt 1.000000 1.000000
vt 0.000000 1.000000
vt 0.500000 1.000000
vt 0.000000 0.000000
vt 1.000000 0.000000
vt 0.500000 1.000000
vt 0.000000 0.000000
vt 1.000000 0.000000
vt 0.000000 0.000000
vt 1.000000 0.000000
vt 1.000000 1.000000
vt 0.000000 1.000000
vt 0.500000 1.000000
vt 0.000000 0.000000
vt 1.000000 0.000000
vt 0.500000 1.000000
vt 0.000000 0.000000
vt 1.000000 0.000000
vt 0.000000 0.000000
vt 1.000000 0.000000
vt 1.000000 1.000000
vt 0.000000 1.000000
vt 0.500000 1.000000
vt 0.000000 0.000000
vt 1.000000 0.000000
vt 0.500000 1.000000
vt 0.000000 0.000000
vt 1.000000 0.000000
vt 0.000000 0.000000
vt 1.000000 0.000000
vt 1.000000 1.000000
vt 0.000000 1.000000
vt 0.500000 1.000000
vt 0.000000 0.000000
vt 1.000000 0.000000
vt 0.500000 1.000000
vt 0.000000 0.000000
vt 1.000000 0.000000
vt 0.000000 0.000000
vt 1.000000 0.000000
vt 1.000000 1.000000
vt 0.000000 1.000000
vt 0.500000 1.000000
vt 0.000000 0.000000
vt 1.000000 0.000000
vt 0.500000 1.000000
vt 0.000000 0.000000
vt 1.000000 0.000000
vt 0.000000 0.000000
vt 1.000000 0.000000
vt 1.000000 1.000000
vt 0.000000 1.000000
vt 0.500000 1.000000
vt 0.000000 0.000000
vt 1.000000 0.000000
vt 0.500000 1.000000
vt 0.000000 0.000000
vt 1.000000 0.000000
vt 0.000000 0.000000
vt 1.000000 0.000000
vt 1.000000 1.000000
vt 0.000000 1.000000
vt 0.500000 1.000000
vt 0.000000 0.000000
vt 1.000000 0.000000
vt 0.500000 1.000000
vt 0.000000 0.000000
vt 1.000000 0.000000
vt 0.000000 0.000000
vt 1.000000 0.000000
vt 1.000000 1.000000
vt 0.000000 1.000000
vt 0.500000 1.000000
vt 0.000000 0.000000
vt 1.000000 0.000000
vt 0.500000 1.000000
vt 0.000000 0.000000
vt 1.000000 0.000000
vt 0.000000 0.000000
vt 1.000000 0.000000
vt 1.000000 1.000000
vt 0.000000 1.000000
vt 0.500000 1.000000
vt 0.000000 0.000000
vt 1.000000 0.000000
vt 0.500000 1.000000
vt 0.000000 0.000000
vt 1.000000 0.000000
vt 0.000000 0.000000
vt 1.000000 0.000000
vt 1.000000 1.000000
vt 0.000000 1.000000
vt 0.500000 1.000000
vt 0.000000 0.000000
vt 1.000000 0.000000
vt 0.500000 1.000000
vt 0.000000 0.000000
vt 1.000000 0.000000
vt 0.000000 0.000000
vt 1.000000 0.000000
vt 1.000000 1.000000
vt 0.000000 1.000000
vt 0.500000 1.000000
vt 0.000000 0.000000
vt 1.000000 0.000000
vt 0.500000 1.000000
vt 0.000000 0.000000
vt 1.000000 0.000000
vt 0.000000 0.000000
vt 1.000000 0.000000
vt 1.000000 1.000000
vt 0.000000 1.000000
vt 0.500000 1.000000
vt 0.000000 0.000000
vt 1.000000 0.000000
vt 0.500000 1.000000
vt 0.000000 0.000000
vt 1.000000 0.000000
vt 0.000000 0.000000
vt 1.000000 0.000000
vt 1.000000 1.000000
vt 0.000000 1.000000
vt 0.500000 1.000000
vt 0.000000 0.000000
vt 1.000000 0.000000
vt 0.500000 1.000000
vt 0.000000 0.000000
vt 1.000000 0.000000
vt 0.000000 0.000000
vt 1.000000 0.000000
vt 1.000000 1.000000
vt 0.000000 1.000000
vt 0.500000 1.000000
vt 0.000000 0.000000
vt 1.000000 0.000000
vt 0.500000 1.000000
vt 0.000000 0.000000
vt 1.000000 0.000000
vt 0.000000 0.000000
vt 1.000000 0.000000
vt 1.000000 1.000000
vt 0.000000 1.000000
vt 0.500000 1.000000
vt 0.000000 0.000000
vt 1.000000 0.000000
vt 0.500000 1.000000
vt 0.000000 0.000000
vt 1.000000 0.000000
vt 0.000000 0.000000
vt 1.000000 0.000000
vt 1.000000 1.000000
vt 0.000000 1.000000
vt 0.500000 1.000000
vt 0.000000 0.000000
vt 1.000000 0.000000
vt 0.500000 1.000000
vt 0.000000 0.000000
vt 1.000000 0.000000
vt 0.000000 0.000000
vt 1.000000 0.000000
vt 1.000000 1.000000
vt 0.000000 1.000000
vt 0.500000 1.000000
vt 0.000000 0.000000
vt 1.000000 0.000000
vt 0.500000 1.000000
vt 0.000000 0.000000
vt 1.000000 0.000000
vt 0.000000 0.000000
vt 1.000000 0.000000
vt 1.000000 1.000000
vt 0.000000 1.000000
vt 0.500000 1.000000
vt 0.000000 0.000000
vt 1.000000 0.000000
vt 0.500000 1.000000
vt 0.000000 0.000000
vt 1.000000 0.000000
vt 0.000000 0.000000
vt 1.000000 0.000000
vt 1.000000 1.000000
vt 0.000000 1.000000
vt 0.500000 1.000000
vt 0.000000 0.000000
vt 1.000000 0.000000
vt 0.500000 1.000000
vt 0.000000 0.000000
vt 1.000000 0.000000
vt 0.000000 0.000000
vt 1.000000 0.000000
vt 1.000000 1.000000
vt 0.000000 1.000000
vt 0.500000 1.000000
vt 0.000000 0.000000
vt 1.000000 0.000000
vt 0.500000 1.000000
vt 0.000000 0.000000
vt 1.000000 0.000000
vt 0.000000 0.000000
vt 1.000000 0.000000
vt 1.000000 1.000000
vt 0.000000 1.000000
vt 0.500000 1.000000
vt 0.000000 0.000000
vt 1.000000 0.000000
vt 0.500000 1.000000
vt 0.000000 0.000000
vt 1.000000 0.000000
vt 0.000000 0.000000
vt 1.000000 0.000000
vt 1.000000 1.000000
vt 0.000000 1.000000
vt 0.500000 1.000000
vt 0.000000 0.000000
vt 1.000000 0.000000
vt 0.500000 1.000000
vt 0.000000 0.000000
vt 1.000000 0.000000
vt 0.000000 0.000000
vt 1.000000 0.000000
vt 1.000000 1.000000
vt 0.000000 1.000000
vt 0.500000 1.000000
vt 0.000000 0.000000
vt 1.000000 0.000000
vt 0.500000 1.000000
vt 0.000000 0.000000
vt 1.000000 0.000000
vt 0.000000 0.000000
vt 1.000000 0.000000
vt 1.000000 1.000000
vt 0.000000 1.000000
vt 0.500000 1.000000
vt 0.000000 0.000000
vt 1.000000 0.000000
vt 0.500000 1.000000
vt 0.000000 0.000000
vt 1.000000 0.000000
vt 0.000000 0.000000
vt 1.000000 0.000000
vt 1.000000 1.000000
vt 0.000000 1.000000
vt 0.500000 1.000000
vt 0.000000 0.000000
vt 1.000000 0.000000
vt 0.500000 1.000000
vt 0.000000 0.000000
vt 1.000000 0.000000
vt 0.000000 0.000000
vt 1.000000 0.000000
vt 1.000000 1.000000
vt 0.000000 1.000000
vt 0.500000 1.000000
vt 0.000000 0.000000
vt 1.000000 0.000000
vt 0.500000 1.000000
vt 0.000000 0.000000
vt 1.000000 0.000000
vt 0.000000 0.000000
vt 1.000000 0.000000
vt 1.000000 1.000000
vt 0.000000 1.000000
vt 0.500000 1.000000
vt 0.000000 0.000000
vt 1.000000 0.000000
vt 0.500000 1.000000
vt 0.000000 0.000000
vt 1.000000 0.000000
vt 0.000000 0.000000
vt 1.000000 0.000000
vt 1.000000 1.000000
vt 0.000000 1.000000
vt 0.500000 1.000000
vt 0.000000 0.000000
vt 1.000000 0.000000
vt 0.500000 1.000000
vt 0.000000 0.000000
vt 1.000000 0.000000
vt 0.000000 0.000000
vt 1.000000 0.000000
vt 1.000000 1.000000
vt 0.000000 1.000000
vt 0.500000 1.000000
vt 0.000000 0.000000
vt 1.000000 0.000000
vt 0.500000 1.000000
vt 0.000000 0.000000
vt 1.000000 0.000000
vt 0.000000 0.000000
vt 1.000000 0.000000
vt 1.000000 1.000000
vt 0.000000 1.000000
vt 0.500000 1.000000
vt 0.000000 0.000000
vt 1.000000 0.000000
vt 0.500000 1.000000
vt 0.000000 0.000000
vt 1.000000 0.000000
vt 0.000000 0.000000
vt 1.000000 0.000000
vt 1.000000 1.000000
vt 0.000000 1.000000
vt 0.500000 1.000000
vt 0.000000 0.000000
vt 1.000000 0.000000
vt 0.500000 1.000000
vt 0.000000 0.000000
vt 1.000000 0.000000
vt 0.000000 0.000000
vt 1.000000 0.000000
vt 1.000000 1.000000
vt 0.000000 1.000000
vt 0.500000 1.000000
vt 0.000000 0.000000
vt 1.000000 0.000000
vt 0.500000 1.000000
vt 0.000000 0.000000
vt 1.000000 0.000000
vt 0.000000 0.000000
vt 1.000000 0.000000
vt 1.000000 1.000000
vt 0.000000 1.000000
vt 0.500000 1.000000
vt 0.000000 0.000000
vt 1.000000 0.000000
vt 0.500000 1.000000
vt 0.000000 0.000000
vt 1.000000 0.000000
vt 0.000000 0.000000
vt 1.000000 0.000000
vt 1.000000 1.000000
vt 0.000000 1.000000
vt 0.500000 1.000000
vt 0.000000 0.000000
vt 1.000000 0.000000
vt 0.000000 0.000000
vt 1.000000 0.000000
vt 1.000000 1.000000
vt 0.000000 1.000000
vt 0.500000 1.000000
vt 0.000000 0.000000
vt 1.000000 0.000000
vt 0.500000 1.000000
vt 0.000000 0.000000
vt 1.000000 0.000000
vt 0.000000 0.000000
vt 1.000000 0.000000
vt 1.000000 1.000000
vt 0.000000 1.000000
vt 0.500000 1.000000
vt 0.000000 0.000000
vt 1.000000 0.000000
vt 0.500000 1.000000
vt 0.000000 0.000000
vt 1.000000 0.000000
vt 0.000000 0.000000
vt 1.000000 0.000000
vt 1.000000 1.000000
vt 0.000000 1.000000
vt 0.500000 1.000000
vt 0.000000 0.000000
vt 1.000000 0.000000
vt 0.500000 1.000000
vt 0.000000 0.000000
vt 1.000000 0.000000
vt 0.000000 0.000000
vt 1.000000 0.000000
vt 1.000000 1.000000
vt 0.000000 1.000000
vt 0.500000 1.000000
vt 0.000000 0.000000
vt 1.000000 0.000000
vt 0.500000 1.000000
vt 0.000000 0.000000
vt 1.000000 0.000000
vt 0.000000 0.000000
vt 1.000000 0.000000
vt 1.000000 1.000000
vt 0.000000 1.000000
vt 0.500000 1.000000
vt 0.000000 0.000000
vt 1.000000 0.000000
vt 0.500000 1.000000
vt 0.000000 0.000000
vt 1.000000 0.000000
vt 0.000000 0.000000
vt 1.000000 0.000000
vt 1.000000 1.000000
vt 0.000000 1.000000
vt 0.500000 1.000000
vt 0.000000 0.000000
vt 1.000000 0.000000
vt 0.500000 1.000000
vt 0.000000 0.000000
vt 1.000000 0.000000
vt 0.000000 0.000000
vt 1.000000 0.000000
vt 1.000000 1.000000
vt 0.000000 1.000000
vt 0.500000 1.000000
vt 0.000000 0.000000
vt 1.000000 0.000000
vt 0.500000 1.000000
vt 0.000000 0.000000
vt 1.000000 0.000000
vt 0.000000 0.000000
vt 1.000000 0.000000
vt 1.000000 1.000000
vt 0.000000 1.000000
vt 0.500000 1.000000
vt 0.000000 0.000000
vt 1.000000 0.000000
vt 0.500000 1.000000
vt 0.000000 0.000000
vt 1.000000 0.000000
vt 0.000000 0.000000
vt 1.000000 0.000000
vt 1.000000 1.000000
vt 0.000000 1.000000
vt 0.500000 1.000000
vt 0.000000 0.000000
vt 1.000000 0.000000
vt 0.500000 1.000000
vt 0.000000 0.000000
vt 1.000000 0.000000
vt 0.000000 0.000000
vt 1.000000 0.000000
vt 1.000000 1.000000
vt 0.000000 1.000000
vt 0.500000 1.000000
vt 0.000000 0.000000
vt 1.000000 0.000000
vt 0.500000 1.000000
vt 0.000000 0.000000
vt 1.000000 0.000000
vt 0.000000 0.000000
vt 1.000000 0.000000
vt 1.000000 1.000000
vt 0.000000 1.000000
vt 0.500000 1.000000
vt 0.000000 0.000000
vt 1.000000 0.000000
vt 0.500000 1.000000
vt 0.000000 0.000000
vt 1.000000 0.000000
vt 0.000000 0.000000
vt 1.000000 0.000000
vt 1.000000 1.000000
vt 0.000000 1.000000
vt 0.500000 1.000000
vt 0.000000 0.000000
vt 1.000000 0.000000
vt 0.500000 1.000000
vt 0.000000 0.000000
vt 1.000000 0.000000
vt 0.000000 0.000000
vt 1.000000 0.000000
vt 1.000000 1.000000
vt 0.000000 1.000000
vt 0.500000 1.000000
vt 0.000000 0.000000
vt 1.000000 0.000000
vt 0.500000 1.000000
vt 0.000000 0.000000
vt 1.000000 0.000000
vt 0.000000 0.000000
vt 1.000000 0.000000
vt 1.000000 1.000000
vt 0.000000 1.000000
vt 0.500000 1.000000
vt 0.000000 0.000000
vt 1.000000 0.000000
vt 0.500000 1.000000
vt 0.000000 0.000000
vt 1.000000 0.000000
vt 0.000000 0.000000
vt 1.000000 0.000000
vt 1.000000 1.000000
vt 0.000000 1.000000
vt 0.500000 1.000000
vt 0.000000 0.000000
vt 1.000000 0.000000
vt 0.500000 1.000000
vt 0.000000 0.000000
vt 1.000000 0.000000
vt 0.000000 0.000000
vt 1.000000 0.000000
vt 1.000000 1.000000
vt 0.000000 1.000000
vt 0.500000 1.000000
vt 0.000000 0.000000
vt 1.000000 0.000000
vt 0.500000 1.000000
vt 0.000000 0.000000
vt 1.000000 0.000000
vt 0.000000 0.000000
vt 1.000000 0.000000
vt 1.000000 1.000000
vt 0.000000 1.000000
vt 0.500000 1.000000
vt 0.000000 0.000000
vt 1.000000 0.000000
vt 0.500000 1.000000
vt 0.000000 0.000000
vt 1.000000 0.000000
vt 0.000000 0.000000
vt 1.000000 0.000000
vt 1.000000 1.000000
vt 0.000000 1.000000
vt 0.500000 1.000000
vt 0.000000 0.000000
vt 1.000000 0.000000
vt 0.500000 1.000000
vt 0.000000 0.000000
vt 1.000000 0.000000
s 1
usemtl models/caelum/world/environment/rock_granite.png
f 1/1 2/2 3/3
f 4/4 5/5 6/6 7/7
f 8/8 9/9 10/10 11/11
f 12/12 13/13 14/14
f 15/15 16/16 17/17
f 18/18 19/19 20/20 21/21
f 22/22 23/23 24/24 25/25
f 26/26 27/27 28/28
f 29/29 30/30 31/31
f 32/32 33/33 34/34 35/35
f 36/36 37/37 38/38 39/39
f 40/40 41/41 42/42
f 43/43 44/44 45/45
f 46/46 47/47 48/48 49/49
f 50/50 51/51 52/52 53/53
f 54/54 55/55 56/56
f 57/57 58/58 59/59
f 60/60 61/61 62/62 63/63
f 64/64 65/65 66/66 67/67
f 68/68 69/69 70/70
f 71/71 72/72 73/73
f 74/74 75/75 76/76 77/77
f 78/78 79/79 80/80 81/81
f 82/82 83/83 84/84
f 85/85 86/86 87/87
f 88/88 89/89 90/90 91/91
f 92/92 93/93 94/94 95/95
f 96/96 97/97 98/98
f 99/99 100/100 101/101
f 102/102 103/103 104/104 105/105
f 106/106 107/107 108/108 109/109
f 110/110 111/111 112/112
f 113/113 114/114 115/115
f 116/116 117/117 118/118 119/119
f 120/120 121/121 122/122 123/123
f 124/124 125/125 126/126
f 127/127 128/128 129/129
f 130/130 131/131 132/132 133/133
f 134/134 135/135 136/136 137/137
f 138/138 139/139 140/140
usemtl models/caelum/world/resources/ca_vein_silver.png
f 141/141 142/142 143/143
f 144/144 145/145 146/146 147/147
f 148/148 149/149 150/150
f 151/151 152/152 153/153
f 154/154 155/155 156/156 157/157
f 158/158 159/159 160/160
f 161/161 162/162 163/163
f 164/164 165/165 166/166 167/167
f 168/168 169/169 170/170
f 171/171 172/172 173/173
f 174/174 175/175 176/176 177/177
f 178/178 179/179 180/180
f 181/181 182/182 183/183
f 184/184 185/185 186/186 187/187
f 188/188 189/189 190/190
f 191/191 192/192 193/193
f 194/194 195/195 196/196 197/197
f 198/198 199/199 200/200
f 201/201 202/202 203/203
f 204/204 205/205 206/206 207/207
f 208/208 209/209 210/210
f 211/211 212/212 213/213
f 214/214 215/215 216/216 217/217
f 218/218 219/219 220/220
f 221/221 222/222 223/223
f 224/224 225/225 226/226 227/227
f 228/228 229/229 230/230
f 231/231 232/232 233/233
f 234/234 235/235 236/236 237/237
f 238/238 239/239 240/240
f 241/241 242/242 243/243
f 244/244 245/245 246/246 247/247
f 248/248 249/249 250/250
f 251/251 252/252 253/253
f 254/254 255/255 256/256 257/257
f 258/258 259/259 260/260
f 261/261 262/262 263/263
f 264/264 265/265 266/266 267/267
f 268/268 269/269 270/270
f 271/271 272/272 273/273
f 274/274 275/275 276/276 277/277
f 278/278 279/279 280/280
f 281/281 282/282 283/283
f 284/284 285/285 286/286 287/287
f 288/288 289/289 290/290
f 291/291 292/292 293/293
f 294/294 295/295 296/296 297/297
f 298/298 299/299 300/300
f 301/301 302/302 303/303
f 304/304 305/305 306/306 307/307
f 308/308 309/309 310/310
f 311/311 312/312 313/313
f 314/314 315/315 316/316 317/317
f 318/318 319/319 320/320
f 321/321 322/322 323/323
f 324/324 325/325 326/326 327/327
f 328/328 329/329 330/330
f 331/331 332/332 333/333
f 334/334 335/335 336/336 337/337
f 338/338 339/339 340/340
f 341/341 342/342 343/343
f 344/344 345/345 346/346 347/347
f 348/348 349/349 350/350
f 351/351 352/352 353/353
f 354/354 355/355 356/356 357/357
f 358/358 359/359 360/360
f 361/361 362/362 363/363
f 364/364 365/365 366/366 367/367
f 368/368 369/369 370/370
f 371/371 372/372 373/373
f 374/374 375/375 376/376 377/377
f 378/378 379/379 380/380
f 381/381 382/382 383/383
f 384/384 385/385 386/386 387/387
f 388/388 389/389 390/390
f 391/391 392/392 393/393
f 394/394 395/395 396/396 397/397
f 398/398 399/399 400/400
f 401/401 402/402 403/403
f 404/404 405/405 406/406 407/407
f 408/408 409/409 410/410
f 411/411 412/412 413/413
f 414/414 415/415 416/416 417/417
f 418/418 419/419 420/420
f 421/421 422/422 423/423
f 424/424 425/425 426/426 427/427
f 428/428 429/429 430/430
f 431/431 432/432 433/433
f 434/434 435/435 436/436 437/437
f 438/438 439/439 440/440
f 441/441 442/442 443/443
f 444/444 445/445 446/446 447/447
f 448/448 449/449 450/450
f 451/451 452/452 453/453
f 454/454 455/455 456/456 457/457
f 458/458 459/459 460/460
f 461/461 462/462 463/463
f 464/464 465/465 466/466 467/467
f 468/468 469/469 470/470
f 471/471 472/472 473/473
f 474/474 475/475 476/476 477/477
f 478/478 479/479 480/480
f 481/481 482/482 483/483
f 484/484 485/485 486/486 487/487
f 488/488 489/489 490/490
f 491/491 492/492 493/493
f 494/494 495/495 496/496 497/497
f 498/498 499/499 500/500
f 501/501 502/502 503/503
f 504/504 505/505 506/506 507/507
f 508/508 509/509 510/510
f 511/511 512/512 513/513
f 514/514 515/515 516/516 517/517
f 518/518 519/519 520/520
f 521/521 522/522 523/523
f 524/524 525/525 526/526 527/527
f 528/528 529/529 530/530
f 531/531 532/532 533/533
f 534/534 535/535 536/536 537/537
f 538/538 539/539 540/540
f 541/541 542/542 543/543
f 544/544 545/545 546/546 547/547
f 548/548 549/549 550/550
f 551/551 552/552 553/553
f 554/554 555/555 556/556 557/557
f 558/558 559/559 560/560
f 561/561 562/562 563/563
f 564/564 565/565 566/566 567/567
f 568/568 569/569 570/570
f 571/571 572/572 573/573
f 574/574 575/575 576/576 577/577
f 578/578 579/579 580/580
f 581/581 582/582 583/583
f 584/584 585/585 586/586 587/587
f 588/588 589/589 590/590
f 591/591 592/592 593/593
f 594/594 595/595 596/596 597/597
f 598/598 599/599 600/600
f 601/601 602/602 603/603
f 604/604 605/605 606/606 607/607
f 608/608 609/609 610/610
f 611/611 612/612 613/613
f 614/614 615/615 616/616 617/617
f 618/618 619/619 620/620
f 621/621 622/622 623/623
f 624/624 625/625 626/626 627/627
f 628/628 629/629 630/630
f 631/631 632/632 633/633
f 634/634 635/635 636/636 637/637
f 638/638 639/639 640/640
f 641/641 642/642 643/643
f 644/644 645/645 646/646 647/647
f 648/648 649/649 650/650
f 651/651 652/652 653/653
f 654/654 655/655 656/656 657/657
f 658/658 659/659 660/660
f 661/661 662/662 663/663
f 664/664 665/665 666/666 667/667
f 668/668 669/669 670/670
f 671/671 672/672 673/673
f 674/674 675/675 676/676 677/677
f 678/678 679/679 680/680
f 681/681 682/682 683/683
f 684/684 685/685 686/686 687/687
f 688/688 689/689 690/690
f 691/691 692/692 693/693
f 694/694 695/695 696/696 697/697
f 698/698 699/699 700/700
f 701/701 702/702 703/703
f 704/704 705/705 706/706 707/707
f 708/708 709/709 710/710
f 711/711 712/712 713/713
f 714/714 715/715 716/716 717/717
f 718/718 719/719 720/720
f 721/721 722/722 723/723
f 724/724 725/725 726/726 727/727
f 728/728 729/729 730/730
f 731/731 732/732 733/733
f 734/734 735/735 736/736 737/737
f 738/738 739/739 740/740
f 741/741 742/742 743/743
f 744/744 745/745 746/746 747/747
f 748/748 749/749 750/750
f 751/751 752/752 753/753
f 754/754 755/755 756/756 757/757
f 758/758 759/759 760/760
f 761/761 762/762 763/763
f 764/764 765/765 766/766 767/767
f 768/768 769/769 770/770
f 771/771 772/772 773/773 774/774
f 775/775 776/776 777/777
f 778/778 779/779 780/780
f 781/781 782/782 783/783 784/784
f 785/785 786/786 787/787
f 788/788 789/789 790/790
f 791/791 792/792 793/793 794/794
f 795/795 796/796 797/797
f 798/798 799/799 800/800
f 801/801 802/802 803/803 804/804
f 805/805 806/806 807/807
f 808/808 809/809 810/810
f 811/811 812/812 813/813 814/814
f 815/815 816/816 817/817
f 818/818 819/819 820/820
f 821/821 822/822 823/823 824/824
f 825/825 826/826 827/827
f 828/828 829/829 830/830
f 831/831 832/832 833/833 834/834
f 835/835 836/836 837/837
f 838/838 839/839 840/840
f 841/841 842/842 843/843 844/844
f 845/845 846/846 847/847
f 848/848 849/849 850/850
f 851/851 852/852 853/853 854/854
f 855/855 856/856 857/857
f 858/858 859/859 860/860
f 861/861 862/862 863/863 864/864
f 865/865 866/866 867/867
f 868/868 869/869 870/870
f 871/871 872/872 873/873 874/874
f 875/875 876/876 877/877
f 878/878 879/879 880/880
f 881/881 882/882 883/883 884/884
f 885/885 886/886 887/887
f 888/888 889/889 890/890
f 891/891 892/892 893/893 894/894
f 895/895 896/896 897/897
f 898/898 899/899 900/900
f 901/901 902/902 903/903 904/904
f 905/905 906/906 907/907
f 908/908 909/909 910/910
f 911/911 912/912 913/913 914/914
f 915/915 916/916 917/917
f 918/918 919/919 920/920
f 921/921 922/922 923/923 924/924
f 925/925 926/926 927/927
f 928/928 929/929 930/930
f 931/931 932/932 933/933 934/934
f 935/935 936/936 937/937
f 938/938 939/939 940/940
f 941/941 942/942 943/943 944/944
f 945/945 946/946 947/947
f 948/948 949/949 950/950
