# Modelo original generado para Caelum Argenteum.
# Ejes OBJ: X ancho, Y altura, Z profundidad.
o ca_vein_iron3
v 0.000000 0.000000 0.000000
v 37.774457 1.479036 0.000000
v 24.620281 0.971313 15.448452
v 37.774457 1.479036 0.000000
v 38.337092 15.089006 0.000000
v 31.580243 17.663147 19.815609
v 24.620281 0.971313 15.448452
v 38.337092 15.089006 0.000000
v 36.281261 35.248414 0.000000
v 21.920037 34.943889 13.754134
v 31.580243 17.663147 19.815609
v 6.080321 52.000000 -7.265525
v 21.920037 34.943889 13.754134
v 36.281261 35.248414 0.000000
v 0.000000 0.000000 0.000000
v 24.620281 0.971313 15.448452
v 11.574645 -0.044360 30.765399
v 24.620281 0.971313 15.448452
v 31.580243 17.663147 19.815609
v 15.871284 18.106896 42.185863
v 11.574645 -0.044360 30.765399
v 31.580243 17.663147 19.815609
v 21.920037 34.943889 13.754134
v 10.883007 33.971502 28.927028
v 15.871284 18.106896 42.185863
v 6.080321 52.000000 -7.265525
v 10.883007 33.971502 28.927028
v 21.920037 34.943889 13.754134
v 0.000000 0.000000 0.000000
v 11.574645 -0.044360 30.765399
v -11.751656 -1.058383 31.235894
v 11.574645 -0.044360 30.765399
v 15.871284 18.106896 42.185863
v -13.575377 15.380204 36.083344
v -11.751656 -1.058383 31.235894
v 15.871284 18.106896 42.185863
v 10.883007 33.971502 28.927028
v -10.221100 34.522976 27.167677
v -13.575377 15.380204 36.083344
v 6.080321 52.000000 -7.265525
v -10.221100 34.522976 27.167677
v 10.883007 33.971502 28.927028
v 0.000000 0.000000 0.000000
v -11.751656 -1.058383 31.235894
v -30.880208 1.225983 19.376359
v -11.751656 -1.058383 31.235894
v -13.575377 15.380204 36.083344
v -38.018319 15.529975 23.855299
v -30.880208 1.225983 19.376359
v -13.575377 15.380204 36.083344
v -10.221100 34.522976 27.167677
v -24.086277 35.115336 15.113381
v -38.018319 15.529975 23.855299
v 6.080321 52.000000 -7.265525
v -24.086277 35.115336 15.113381
v -10.221100 34.522976 27.167677
v 0.000000 0.000000 0.000000
v -30.880208 1.225983 19.376359
v -41.907005 1.265038 0.000000
v -30.880208 1.225983 19.376359
v -38.018319 15.529975 23.855299
v -38.901274 15.471366 0.000000
v -41.907005 1.265038 0.000000
v -38.018319 15.529975 23.855299
v -24.086277 35.115336 15.113381
v -30.315413 34.497274 0.000000
v -38.901274 15.471366 0.000000
v 6.080321 52.000000 -7.265525
v -30.315413 34.497274 0.000000
v -24.086277 35.115336 15.113381
v 0.000000 0.000000 0.000000
v -41.907005 1.265038 0.000000
v -25.668578 1.604242 -16.106225
v -41.907005 1.265038 0.000000
v -38.901274 15.471366 0.000000
v -35.857219 16.120373 -22.499277
v -25.668578 1.604242 -16.106225
v -38.901274 15.471366 0.000000
v -30.315413 34.497274 0.000000
v -26.230661 34.443015 -16.458915
v -35.857219 16.120373 -22.499277
v 6.080321 52.000000 -7.265525
v -26.230661 34.443015 -16.458915
v -30.315413 34.497274 0.000000
v 0.000000 0.000000 0.000000
v -25.668578 1.604242 -16.106225
v -10.144517 0.869718 -26.964121
v -25.668578 1.604242 -16.106225
v -35.857219 16.120373 -22.499277
v -15.819414 15.989642 -42.047992
v -10.144517 0.869718 -26.964121
v -35.857219 16.120373 -22.499277
v -26.230661 34.443015 -16.458915
v -11.473967 35.958924 -30.497797
v -15.819414 15.989642 -42.047992
v 6.080321 52.000000 -7.265525
v -11.473967 35.958924 -30.497797
v -26.230661 34.443015 -16.458915
v 0.000000 0.000000 0.000000
v -10.144517 0.869718 -26.964121
v 12.092456 -1.490200 -32.141741
v -10.144517 0.869718 -26.964121
v -15.819414 15.989642 -42.047992
v 12.084878 15.195654 -32.121598
v 12.092456 -1.490200 -32.141741
v -15.819414 15.989642 -42.047992
v -11.473967 35.958924 -30.497797
v 8.457927 35.457005 -22.481166
v 12.084878 15.195654 -32.121598
v 6.080321 52.000000 -7.265525
v 8.457927 35.457005 -22.481166
v -11.473967 35.958924 -30.497797
v 0.000000 0.000000 0.000000
v 12.092456 -1.490200 -32.141741
v 27.131401 0.320115 -17.024101
v 12.092456 -1.490200 -32.141741
v 12.084878 15.195654 -32.121598
v 32.095444 16.435121 -20.138882
v 27.131401 0.320115 -17.024101
v 12.084878 15.195654 -32.121598
v 8.457927 35.457005 -22.481166
v 22.911338 33.788900 -14.376144
v 32.095444 16.435121 -20.138882
v 6.080321 52.000000 -7.265525
v 22.911338 33.788900 -14.376144
v 8.457927 35.457005 -22.481166
v 0.000000 0.000000 0.000000
v 27.131401 0.320115 -17.024101
v 37.774457 1.479036 0.000000
v 27.131401 0.320115 -17.024101
v 32.095444 16.435121 -20.138882
v 38.337092 15.089006 0.000000
v 37.774457 1.479036 0.000000
v 32.095444 16.435121 -20.138882
v 22.911338 33.788900 -14.376144
v 36.281261 35.248414 0.000000
v 38.337092 15.089006 0.000000
v 6.080321 52.000000 -7.265525
v 36.281261 35.248414 0.000000
v 22.911338 33.788900 -14.376144
v 40.585073 7.104727 0.715587
v 45.271232 9.741823 5.663830
v 49.421929 9.525737 0.715587
v 49.421929 9.525737 0.715587
v 45.271232 9.741823 5.663830
v 44.819999 14.675743 5.187360
v 46.952636 14.770474 0.715587
v 40.585073 17.403150 0.715587
v 46.952636 14.770474 0.715587
v 44.819999 14.675743 5.187360
v 40.585073 7.104727 0.715587
v 38.974380 9.246788 6.658023
v 45.271232 9.741823 5.663830
v 45.271232 9.741823 5.663830
v 38.974380 9.246788 6.658023
v 38.785498 14.881448 7.354877
v 44.819999 14.675743 5.187360
v 40.585073 17.403150 0.715587
v 44.819999 14.675743 5.187360
v 38.785498 14.881448 7.354877
v 40.585073 7.104727 0.715587
v 33.476850 9.216680 3.598124
v 38.974380 9.246788 6.658023
v 38.974380 9.246788 6.658023
v 33.476850 9.216680 3.598124
v 34.719462 15.023610 3.094218
v 38.785498 14.881448 7.354877
v 40.585073 17.403150 0.715587
v 38.785498 14.881448 7.354877
v 34.719462 15.023610 3.094218
v 40.585073 7.104727 0.715587
v 32.538485 9.265051 -2.547476
v 33.476850 9.216680 3.598124
v 33.476850 9.216680 3.598124
v 32.538485 9.265051 -2.547476
v 34.618154 14.372011 -1.704126
v 34.719462 15.023610 3.094218
v 40.585073 17.403150 0.715587
v 34.719462 15.023610 3.094218
v 34.618154 14.372011 -1.704126
v 40.585073 7.104727 0.715587
v 38.973253 9.513763 -5.231007
v 32.538485 9.265051 -2.547476
v 32.538485 9.265051 -2.547476
v 38.973253 9.513763 -5.231007
v 39.049583 14.675254 -4.949397
v 34.618154 14.372011 -1.704126
v 40.585073 17.403150 0.715587
v 34.618154 14.372011 -1.704126
v 39.049583 14.675254 -4.949397
v 40.585073 7.104727 0.715587
v 45.768079 9.982191 -4.757290
v 38.973253 9.513763 -5.231007
v 38.973253 9.513763 -5.231007
v 45.768079 9.982191 -4.757290
v 45.024167 14.557314 -3.971773
v 39.049583 14.675254 -4.949397
v 40.585073 17.403150 0.715587
v 39.049583 14.675254 -4.949397
v 45.024167 14.557314 -3.971773
v 40.585073 7.104727 0.715587
v 49.421929 9.525737 0.715587
v 45.768079 9.982191 -4.757290
v 45.768079 9.982191 -4.757290
v 49.421929 9.525737 0.715587
v 46.952636 14.770474 0.715587
v 45.024167 14.557314 -3.971773
v 40.585073 17.403150 0.715587
v 45.024167 14.557314 -3.971773
v 46.952636 14.770474 0.715587
v 22.517471 21.468236 16.025869
v 27.650838 24.977148 22.500508
v 29.453754 24.833658 16.025869
v 29.453754 24.833658 16.025869
v 27.650838 24.977148 22.500508
v 26.928389 31.026702 21.589293
v 29.844265 31.367594 16.025869
v 22.517471 34.442626 16.025869
v 29.844265 31.367594 16.025869
v 26.928389 31.026702 21.589293
v 22.517471 21.468236 16.025869
v 20.442599 24.477492 25.169577
v 27.650838 24.977148 22.500508
v 27.650838 24.977148 22.500508
v 20.442599 24.477492 25.169577
v 20.842100 30.668215 23.409027
v 26.928389 31.026702 21.589293
v 22.517471 34.442626 16.025869
v 26.928389 31.026702 21.589293
v 20.842100 30.668215 23.409027
v 22.517471 21.468236 16.025869
v 15.453556 24.505637 19.447542
v 20.442599 24.477492 25.169577
v 20.442599 24.477492 25.169577
v 15.453556 24.505637 19.447542
v 15.069740 31.577092 19.633458
v 20.842100 30.668215 23.409027
v 22.517471 34.442626 16.025869
v 20.842100 30.668215 23.409027
v 15.069740 31.577092 19.633458
v 22.517471 21.468236 16.025869
v 15.757576 25.214987 12.751459
v 15.453556 24.505637 19.447542
v 15.453556 24.505637 19.447542
v 15.757576 25.214987 12.751459
v 16.437600 31.612393 13.080855
v 15.069740 31.577092 19.633458
v 22.517471 34.442626 16.025869
v 15.069740 31.577092 19.633458
v 16.437600 31.612393 13.080855
v 22.517471 21.468236 16.025869
v 20.967211 24.993995 9.194060
v 15.757576 25.214987 12.751459
v 15.757576 25.214987 12.751459
v 20.967211 24.993995 9.194060
v 20.963600 30.800910 9.178147
v 16.437600 31.612393 13.080855
v 22.517471 34.442626 16.025869
v 16.437600 31.612393 13.080855
v 20.963600 30.800910 9.178147
v 22.517471 21.468236 16.025869
v 28.217663 24.988873 8.836303
v 20.967211 24.993995 9.194060
v 20.967211 24.993995 9.194060
v 28.217663 24.988873 8.836303
v 27.517579 31.205106 9.719308
v 20.963600 30.800910 9.178147
v 22.517471 34.442626 16.025869
v 20.963600 30.800910 9.178147
v 27.517579 31.205106 9.719308
v 22.517471 21.468236 16.025869
v 29.453754 24.833658 16.025869
v 28.217663 24.988873 8.836303
v 28.217663 24.988873 8.836303
v 29.453754 24.833658 16.025869
v 29.844265 31.367594 16.025869
v 27.517579 31.205106 9.719308
v 22.517471 34.442626 16.025869
v 27.517579 31.205106 9.719308
v 29.844265 31.367594 16.025869
v 12.779370 11.463004 31.259358
v 17.211825 14.648856 34.745238
v 20.987761 14.143471 31.259358
v 20.987761 14.143471 31.259358
v 17.211825 14.648856 34.745238
v 17.980386 20.104863 35.349668
v 20.903348 19.623983 31.259358
v 12.779370 22.768926 31.259358
v 20.903348 19.623983 31.259358
v 17.980386 20.104863 35.349668
v 12.779370 11.463004 31.259358
v 11.401256 14.529885 35.046146
v 17.211825 14.648856 34.745238
v 17.211825 14.648856 34.745238
v 11.401256 14.529885 35.046146
v 11.323032 19.814108 35.261088
v 17.980386 20.104863 35.349668
v 12.779370 22.768926 31.259358
v 17.980386 20.104863 35.349668
v 11.323032 19.814108 35.261088
v 12.779370 11.463004 31.259358
v 6.470698 14.694688 33.164756
v 11.401256 14.529885 35.046146
v 11.401256 14.529885 35.046146
v 6.470698 14.694688 33.164756
v 5.264250 20.413417 33.529138
v 11.323032 19.814108 35.261088
v 12.779370 22.768926 31.259358
v 11.323032 19.814108 35.261088
v 5.264250 20.413417 33.529138
v 12.779370 11.463004 31.259358
v 5.418501 14.796954 29.036166
v 6.470698 14.694688 33.164756
v 6.470698 14.694688 33.164756
v 5.418501 14.796954 29.036166
v 5.936637 19.561926 29.192658
v 5.264250 20.413417 33.529138
v 12.779370 22.768926 31.259358
v 5.264250 20.413417 33.529138
v 5.936637 19.561926 29.192658
v 12.779370 11.463004 31.259358
v 11.127339 14.170964 26.719901
v 5.418501 14.796954 29.036166
v 5.418501 14.796954 29.036166
v 11.127339 14.170964 26.719901
v 11.083494 20.408289 26.599423
v 5.936637 19.561926 29.192658
v 12.779370 22.768926 31.259358
v 5.936637 19.561926 29.192658
v 11.083494 20.408289 26.599423
v 12.779370 11.463004 31.259358
v 17.514240 14.006444 27.535645
v 11.127339 14.170964 26.719901
v 11.127339 14.170964 26.719901
v 17.514240 14.006444 27.535645
v 16.922891 19.762720 28.000709
v 11.083494 20.408289 26.599423
v 12.779370 22.768926 31.259358
v 11.083494 20.408289 26.599423
v 16.922891 19.762720 28.000709
v 12.779370 11.463004 31.259358
v 20.987761 14.143471 31.259358
v 17.514240 14.006444 27.535645
v 17.514240 14.006444 27.535645
v 20.987761 14.143471 31.259358
v 20.903348 19.623983 31.259358
v 16.922891 19.762720 28.000709
v 12.779370 22.768926 31.259358
v 16.922891 19.762720 28.000709
v 20.903348 19.623983 31.259358
v -14.963373 12.101021 26.035170
v -11.743449 14.286678 32.731687
v -9.501022 13.974672 26.035170
v -9.501022 13.974672 26.035170
v -11.743449 14.286678 32.731687
v -12.472272 17.510889 31.215944
v -10.867745 17.673235 26.035170
v -14.963373 19.593610 26.035170
v -10.867745 17.673235 26.035170
v -12.472272 17.510889 31.215944
v -14.963373 12.101021 26.035170
v -16.077548 13.798963 34.131247
v -11.743449 14.286678 32.731687
v -11.743449 14.286678 32.731687
v -16.077548 13.798963 34.131247
v -16.121539 17.798420 34.450907
v -12.472272 17.510889 31.215944
v -14.963373 19.593610 26.035170
v -12.472272 17.510889 31.215944
v -16.121539 17.798420 34.450907
v -14.963373 12.101021 26.035170
v -19.441407 14.137219 29.611771
v -16.077548 13.798963 34.131247
v -16.077548 13.798963 34.131247
v -19.441407 14.137219 29.611771
v -19.396903 17.550843 29.576226
v -16.121539 17.798420 34.450907
v -14.963373 19.593610 26.035170
v -16.121539 17.798420 34.450907
v -19.396903 17.550843 29.576226
v -14.963373 12.101021 26.035170
v -19.115147 13.673604 22.719152
v -19.441407 14.137219 29.611771
v -19.441407 14.137219 29.611771
v -19.115147 13.673604 22.719152
v -19.303008 17.904714 22.569108
v -19.396903 17.550843 29.576226
v -14.963373 19.593610 26.035170
v -19.396903 17.550843 29.576226
v -19.303008 17.904714 22.569108
v -14.963373 12.101021 26.035170
v -16.079396 14.176504 17.925664
v -19.115147 13.673604 22.719152
v -19.115147 13.673604 22.719152
v -16.079396 14.176504 17.925664
v -16.159239 17.520178 17.345487
v -19.303008 17.904714 22.569108
v -14.963373 19.593610 26.035170
v -19.303008 17.904714 22.569108
v -16.159239 17.520178 17.345487
v -14.963373 12.101021 26.035170
v -11.563714 13.693363 18.964857
v -16.079396 14.176504 17.925664
v -16.079396 14.176504 17.925664
v -11.563714 13.693363 18.964857
v -12.301332 17.967679 20.498889
v -16.159239 17.520178 17.345487
v -14.963373 19.593610 26.035170
v -16.159239 17.520178 17.345487
v -12.301332 17.967679 20.498889
v -14.963373 12.101021 26.035170
v -9.501022 13.974672 26.035170
v -11.563714 13.693363 18.964857
v -11.563714 13.693363 18.964857
v -9.501022 13.974672 26.035170
v -10.867745 17.673235 26.035170
v -12.301332 17.967679 20.498889
v -14.963373 19.593610 26.035170
v -12.301332 17.967679 20.498889
v -10.867745 17.673235 26.035170
v -39.876858 19.626253 5.863801
v -36.345592 22.049280 10.449765
v -35.719114 22.995356 5.863801
v -35.719114 22.995356 5.863801
v -36.345592 22.049280 10.449765
v -36.330156 28.703229 10.469811
v -34.056729 28.233758 5.863801
v -39.876858 31.137983 5.863801
v -34.056729 28.233758 5.863801
v -36.330156 28.703229 10.469811
v -39.876858 19.626253 5.863801
v -40.859730 22.490317 10.323599
v -36.345592 22.049280 10.449765
v -36.345592 22.049280 10.449765
v -40.859730 22.490317 10.323599
v -41.011422 28.743164 11.011905
v -36.330156 28.703229 10.469811
v -39.876858 31.137983 5.863801
v -36.330156 28.703229 10.469811
v -41.011422 28.743164 11.011905
v -39.876858 19.626253 5.863801
v -44.511284 22.842081 8.175205
v -40.859730 22.490317 10.323599
v -40.859730 22.490317 10.323599
v -44.511284 22.842081 8.175205
v -44.385582 28.150232 8.112512
v -41.011422 28.743164 11.011905
v -39.876858 31.137983 5.863801
v -41.011422 28.743164 11.011905
v -44.385582 28.150232 8.112512
v -39.876858 19.626253 5.863801
v -44.727441 22.708492 3.444589
v -44.511284 22.842081 8.175205
v -44.511284 22.842081 8.175205
v -44.727441 22.708492 3.444589
v -44.318466 28.536092 3.648564
v -44.385582 28.150232 8.112512
v -39.876858 31.137983 5.863801
v -44.385582 28.150232 8.112512
v -44.318466 28.536092 3.648564
v -39.876858 19.626253 5.863801
v -40.995239 22.205032 0.789129
v -44.727441 22.708492 3.444589
v -44.727441 22.708492 3.444589
v -40.995239 22.205032 0.789129
v -41.083946 28.396947 0.386620
v -44.318466 28.536092 3.648564
v -39.876858 31.137983 5.863801
v -44.318466 28.536092 3.648564
v -41.083946 28.396947 0.386620
v -39.876858 19.626253 5.863801
v -36.804549 22.265284 1.873873
v -40.995239 22.205032 0.789129
v -40.995239 22.205032 0.789129
v -36.804549 22.265284 1.873873
v -36.525470 28.154170 1.511441
v -41.083946 28.396947 0.386620
v -39.876858 31.137983 5.863801
v -41.083946 28.396947 0.386620
v -36.525470 28.154170 1.511441
v -39.876858 19.626253 5.863801
v -35.719114 22.995356 5.863801
v -36.804549 22.265284 1.873873
v -36.804549 22.265284 1.873873
v -35.719114 22.995356 5.863801
v -34.056729 28.233758 5.863801
v -36.525470 28.154170 1.511441
v -39.876858 31.137983 5.863801
v -36.525470 28.154170 1.511441
v -34.056729 28.233758 5.863801
v -28.880801 19.232457 -5.487497
v -25.572653 22.996577 -1.448981
v -23.835048 23.163863 -5.487497
v -23.835048 23.163863 -5.487497
v -25.572653 22.996577 -1.448981
v -25.305393 28.980657 -1.122715
v -22.771876 29.494011 -5.487497
v -28.880801 32.865132 -5.487497
v -22.771876 29.494011 -5.487497
v -25.305393 28.980657 -1.122715
v -28.880801 19.232457 -5.487497
v -30.231464 22.457033 0.273550
v -25.572653 22.996577 -1.448981
v -25.572653 22.996577 -1.448981
v -30.231464 22.457033 0.273550
v -30.252419 30.010636 0.362932
v -25.305393 28.980657 -1.122715
v -28.880801 32.865132 -5.487497
v -25.305393 28.980657 -1.122715
v -30.252419 30.010636 0.362932
v -28.880801 19.232457 -5.487497
v -33.396097 22.320219 -3.370585
v -30.231464 22.457033 0.273550
v -30.231464 22.457033 0.273550
v -33.396097 22.320219 -3.370585
v -34.597556 28.898813 -2.807303
v -30.252419 30.010636 0.362932
v -28.880801 32.865132 -5.487497
v -30.252419 30.010636 0.362932
v -34.597556 28.898813 -2.807303
v -28.880801 19.232457 -5.487497
v -34.162660 22.389347 -7.963797
v -33.396097 22.320219 -3.370585
v -33.396097 22.320219 -3.370585
v -34.162660 22.389347 -7.963797
v -33.294965 29.978274 -7.556995
v -34.597556 28.898813 -2.807303
v -28.880801 32.865132 -5.487497
v -34.597556 28.898813 -2.807303
v -33.294965 29.978274 -7.556995
v -28.880801 19.232457 -5.487497
v -30.003714 22.541188 -10.277110
v -34.162660 22.389347 -7.963797
v -34.162660 22.389347 -7.963797
v -30.003714 22.541188 -10.277110
v -30.089883 29.631853 -10.644651
v -33.294965 29.978274 -7.556995
v -28.880801 32.865132 -5.487497
v -33.294965 29.978274 -7.556995
v -30.089883 29.631853 -10.644651
v -28.880801 19.232457 -5.487497
v -24.679829 22.206189 -10.615953
v -30.003714 22.541188 -10.277110
v -30.003714 22.541188 -10.277110
v -24.679829 22.206189 -10.615953
v -25.668182 29.554534 -9.409393
v -30.089883 29.631853 -10.644651
v -28.880801 32.865132 -5.487497
v -30.089883 29.631853 -10.644651
v -25.668182 29.554534 -9.409393
v -28.880801 19.232457 -5.487497
v -23.835048 23.163863 -5.487497
v -24.679829 22.206189 -10.615953
v -24.679829 22.206189 -10.615953
v -23.835048 23.163863 -5.487497
v -22.771876 29.494011 -5.487497
v -25.668182 29.554534 -9.409393
v -28.880801 32.865132 -5.487497
v -25.668182 29.554534 -9.409393
v -22.771876 29.494011 -5.487497
v -16.929273 11.853103 -18.389380
v -13.239426 14.946328 -13.680318
v -10.961608 15.230839 -18.389380
v -10.961608 15.230839 -18.389380
v -13.239426 14.946328 -13.680318
v -13.085722 20.909004 -13.484158
v -11.217687 21.070256 -18.389380
v -16.929273 24.392866 -18.389380
v -11.217687 21.070256 -18.389380
v -13.085722 20.909004 -13.484158
v -16.929273 11.853103 -18.389380
v -18.525873 14.655770 -11.270034
v -13.239426 14.946328 -13.680318
v -13.239426 14.946328 -13.680318
v -18.525873 14.655770 -11.270034
v -18.331948 21.480677 -12.134759
v -13.085722 20.909004 -13.484158
v -16.929273 24.392866 -18.389380
v -13.085722 20.909004 -13.484158
v -18.331948 21.480677 -12.134759
v -16.929273 11.853103 -18.389380
v -22.414217 15.069126 -15.701078
v -18.525873 14.655770 -11.270034
v -18.525873 14.655770 -11.270034
v -22.414217 15.069126 -15.701078
v -22.935110 21.238400 -15.445775
v -18.331948 21.480677 -12.134759
v -16.929273 24.392866 -18.389380
v -18.331948 21.480677 -12.134759
v -22.935110 21.238400 -15.445775
v -16.929273 11.853103 -18.389380
v -23.398032 14.955220 -21.559874
v -22.414217 15.069126 -15.701078
v -22.414217 15.069126 -15.701078
v -23.398032 14.955220 -21.559874
v -23.008279 21.614064 -21.368847
v -22.935110 21.238400 -15.445775
v -16.929273 24.392866 -18.389380
v -22.935110 21.238400 -15.445775
v -23.008279 21.614064 -21.368847
v -16.929273 11.853103 -18.389380
v -18.226174 15.323443 -24.172350
v -23.398032 14.955220 -21.559874
v -23.398032 14.955220 -21.559874
v -18.226174 15.323443 -24.172350
v -18.307298 21.116603 -24.534086
v -23.008279 21.614064 -21.368847
v -16.929273 24.392866 -18.389380
v -23.008279 21.614064 -21.368847
v -18.307298 21.116603 -24.534086
v -16.929273 11.853103 -18.389380
v -12.495184 14.791747 -24.048260
v -18.226174 15.323443 -24.172350
v -18.226174 15.323443 -24.172350
v -12.495184 14.791747 -24.048260
v -13.439139 20.965656 -22.843564
v -18.307298 21.116603 -24.534086
v -16.929273 24.392866 -18.389380
v -18.307298 21.116603 -24.534086
v -13.439139 20.965656 -22.843564
v -16.929273 11.853103 -18.389380
v -10.961608 15.230839 -18.389380
v -12.495184 14.791747 -24.048260
v -12.495184 14.791747 -24.048260
v -10.961608 15.230839 -18.389380
v -11.217687 21.070256 -18.389380
v -13.439139 20.965656 -22.843564
v -16.929273 24.392866 -18.389380
v -13.439139 20.965656 -22.843564
v -11.217687 21.070256 -18.389380
v 0.218950 26.446749 -26.227622
v 3.176623 29.246179 -22.016470
v 5.040177 29.454672 -26.227622
v 5.040177 29.454672 -26.227622
v 3.176623 29.246179 -22.016470
v 2.920209 34.272230 -22.381554
v 4.887355 34.614831 -26.227622
v 0.218950 36.799038 -26.227622
v 4.887355 34.614831 -26.227622
v 2.920209 34.272230 -22.381554
v 0.218950 26.446749 -26.227622
v -0.759769 28.856163 -21.358768
v 3.176623 29.246179 -22.016470
v 3.176623 29.246179 -22.016470
v -0.759769 28.856163 -21.358768
v -0.739176 34.222734 -21.461212
v 2.920209 34.272230 -22.381554
v 0.218950 36.799038 -26.227622
v 2.920209 34.272230 -22.381554
v -0.739176 34.222734 -21.461212
v 0.218950 26.446749 -26.227622
v -4.871966 28.820070 -23.443896
v -0.759769 28.856163 -21.358768
v -0.759769 28.856163 -21.358768
v -4.871966 28.820070 -23.443896
v -4.758417 34.620529 -23.505985
v -0.739176 34.222734 -21.461212
v 0.218950 36.799038 -26.227622
v -0.739176 34.222734 -21.461212
v -4.758417 34.620529 -23.505985
v 0.218950 26.446749 -26.227622
v -4.469560 29.110465 -28.791312
v -4.871966 28.820070 -23.443896
v -4.871966 28.820070 -23.443896
v -4.469560 29.110465 -28.791312
v -3.672322 34.030067 -28.355380
v -4.758417 34.620529 -23.505985
v 0.218950 36.799038 -26.227622
v -4.758417 34.620529 -23.505985
v -3.672322 34.030067 -28.355380
v 0.218950 26.446749 -26.227622
v -0.685188 28.693604 -30.725455
v -4.469560 29.110465 -28.791312
v -4.469560 29.110465 -28.791312
v -0.685188 28.693604 -30.725455
v -0.753642 34.488142 -31.065994
v -3.672322 34.030067 -28.355380
v 0.218950 36.799038 -26.227622
v -3.672322 34.030067 -28.355380
v -0.753642 34.488142 -31.065994
v 0.218950 26.446749 -26.227622
v 2.767381 29.298349 -29.856093
v -0.685188 28.693604 -30.725455
v -0.685188 28.693604 -30.725455
v 2.767381 29.298349 -29.856093
v 3.426262 34.437384 -30.794213
v -0.753642 34.488142 -31.065994
v 0.218950 36.799038 -26.227622
v -0.753642 34.488142 -31.065994
v 3.426262 34.437384 -30.794213
v 0.218950 26.446749 -26.227622
v 5.040177 29.454672 -26.227622
v 2.767381 29.298349 -29.856093
v 2.767381 29.298349 -29.856093
v 5.040177 29.454672 -26.227622
v 4.887355 34.614831 -26.227622
v 3.426262 34.437384 -30.794213
v 0.218950 36.799038 -26.227622
v 3.426262 34.437384 -30.794213
v 4.887355 34.614831 -26.227622
v 23.721261 15.376522 -18.914549
v 27.738859 18.036128 -13.936101
v 29.413678 18.193153 -18.914549
v 29.413678 18.193153 -18.914549
v 27.738859 18.036128 -13.936101
v 27.294512 22.929590 -14.486717
v 28.727863 22.927138 -18.914549
v 23.721261 25.282937 -18.914549
v 28.727863 22.927138 -18.914549
v 27.294512 22.929590 -14.486717
v 23.721261 15.376522 -18.914549
v 22.369257 17.819448 -13.060943
v 27.738859 18.036128 -13.936101
v 27.738859 18.036128 -13.936101
v 22.369257 17.819448 -13.060943
v 22.298865 23.107560 -12.756173
v 27.294512 22.929590 -14.486717
v 23.721261 25.282937 -18.914549
v 27.294512 22.929590 -14.486717
v 22.298865 23.107560 -12.756173
v 23.721261 15.376522 -18.914549
v 17.984673 17.697449 -16.184559
v 22.369257 17.819448 -13.060943
v 22.369257 17.819448 -13.060943
v 17.984673 17.697449 -16.184559
v 18.687621 22.769210 -16.519085
v 22.298865 23.107560 -12.756173
v 23.721261 25.282937 -18.914549
v 22.298865 23.107560 -12.756173
v 18.687621 22.769210 -16.519085
v 23.721261 15.376522 -18.914549
v 18.407168 17.653999 -21.443478
v 17.984673 17.697449 -16.184559
v 17.984673 17.697449 -16.184559
v 18.407168 17.653999 -21.443478
v 19.102066 22.378713 -21.112782
v 18.687621 22.769210 -16.519085
v 23.721261 25.282937 -18.914549
v 18.687621 22.769210 -16.519085
v 19.102066 22.378713 -21.112782
v 23.721261 15.376522 -18.914549
v 22.285860 17.784096 -25.129230
v 18.407168 17.653999 -21.443478
v 18.407168 17.653999 -21.443478
v 22.285860 17.784096 -25.129230
v 22.342539 23.231613 -24.883834
v 19.102066 22.378713 -21.112782
v 23.721261 25.282937 -18.914549
v 19.102066 22.378713 -21.112782
v 22.342539 23.231613 -24.883834
v 23.721261 15.376522 -18.914549
v 26.680431 18.042451 -22.581436
v 22.285860 17.784096 -25.129230
v 22.285860 17.784096 -25.129230
v 26.680431 18.042451 -22.581436
v 26.799432 22.434345 -22.728896
v 22.342539 23.231613 -24.883834
v 23.721261 25.282937 -18.914549
v 22.342539 23.231613 -24.883834
v 26.799432 22.434345 -22.728896
v 23.721261 15.376522 -18.914549
v 29.413678 18.193153 -18.914549
v 26.680431 18.042451 -22.581436
v 26.680431 18.042451 -22.581436
v 29.413678 18.193153 -18.914549
v 28.727863 22.927138 -18.914549
v 26.799432 22.434345 -22.728896
v 23.721261 25.282937 -18.914549
v 26.799432 22.434345 -22.728896
v 28.727863 22.927138 -18.914549
v -13.750858 34.968094 -16.761919
v -14.376616 32.561736 -18.049500
v 24.082169 28.838997 -28.260595
v 24.395048 30.042177 -27.616804
v -14.421666 34.968094 -19.480377
v -14.376616 32.561736 -18.049500
v -13.750858 34.968094 -16.761919
v 24.059644 30.042177 -28.976034
v 24.395048 30.042177 -27.616804
v 24.082169 28.838997 -28.260595
v -14.376616 32.561736 -18.049500
v -15.047423 32.561736 -20.767959
v 23.746765 28.838997 -29.619824
v 24.082169 28.838997 -28.260595
v -14.421666 34.968094 -19.480377
v -15.047423 32.561736 -20.767959
v -14.376616 32.561736 -18.049500
v 24.059644 30.042177 -28.976034
v 24.082169 28.838997 -28.260595
v 23.746765 28.838997 -29.619824
v -15.047423 32.561736 -20.767959
v -15.092473 34.968094 -22.198836
v 23.724240 30.042177 -30.335263
v 23.746765 28.838997 -29.619824
v -14.421666 34.968094 -19.480377
v -15.092473 34.968094 -22.198836
v -15.047423 32.561736 -20.767959
v 24.059644 30.042177 -28.976034
v 23.746765 28.838997 -29.619824
v 23.724240 30.042177 -30.335263
v -15.092473 34.968094 -22.198836
v -14.466716 37.374453 -20.911254
v 24.037119 31.245356 -29.691472
v 23.724240 30.042177 -30.335263
v -14.421666 34.968094 -19.480377
v -14.466716 37.374453 -20.911254
v -15.092473 34.968094 -22.198836
v 24.059644 30.042177 -28.976034
v 23.724240 30.042177 -30.335263
v 24.037119 31.245356 -29.691472
v -14.466716 37.374453 -20.911254
v -13.795909 37.374453 -18.192796
v 24.372522 31.245356 -28.332243
v 24.037119 31.245356 -29.691472
v -14.421666 34.968094 -19.480377
v -13.795909 37.374453 -18.192796
v -14.466716 37.374453 -20.911254
v 24.059644 30.042177 -28.976034
v 24.037119 31.245356 -29.691472
v 24.372522 31.245356 -28.332243
v -13.795909 37.374453 -18.192796
v -13.750858 34.968094 -16.761919
v 24.395048 30.042177 -27.616804
v 24.372522 31.245356 -28.332243
v -14.421666 34.968094 -19.480377
v -13.750858 34.968094 -16.761919
v -13.795909 37.374453 -18.192796
v 24.059644 30.042177 -28.976034
v 24.372522 31.245356 -28.332243
v 24.395048 30.042177 -27.616804
v -17.891061 26.984672 20.254500
v -17.890286 24.589993 18.803463
v 20.025387 19.587344 28.430468
v 20.025000 20.784684 29.155987
v -17.153537 26.984672 17.553378
v -17.890286 24.589993 18.803463
v -17.891061 26.984672 20.254500
v 20.393762 20.784684 27.805426
v 20.025000 20.784684 29.155987
v 20.025387 19.587344 28.430468
v -17.890286 24.589993 18.803463
v -17.152762 24.589993 16.102341
v 20.394149 19.587344 27.079907
v 20.025387 19.587344 28.430468
v -17.153537 26.984672 17.553378
v -17.152762 24.589993 16.102341
v -17.890286 24.589993 18.803463
v 20.393762 20.784684 27.805426
v 20.025387 19.587344 28.430468
v 20.394149 19.587344 27.079907
v -17.152762 24.589993 16.102341
v -16.416013 26.984672 14.852256
v 20.762524 20.784684 26.454865
v 20.394149 19.587344 27.079907
v -17.153537 26.984672 17.553378
v -16.416013 26.984672 14.852256
v -17.152762 24.589993 16.102341
v 20.393762 20.784684 27.805426
v 20.394149 19.587344 27.079907
v 20.762524 20.784684 26.454865
v -16.416013 26.984672 14.852256
v -16.416789 29.379352 16.303294
v 20.762136 21.982023 27.180383
v 20.762524 20.784684 26.454865
v -17.153537 26.984672 17.553378
v -16.416789 29.379352 16.303294
v -16.416013 26.984672 14.852256
v 20.393762 20.784684 27.805426
v 20.762524 20.784684 26.454865
v 20.762136 21.982023 27.180383
v -16.416789 29.379352 16.303294
v -17.154313 29.379352 19.004415
v 20.393374 21.982023 28.530944
v 20.762136 21.982023 27.180383
v -17.153537 26.984672 17.553378
v -17.154313 29.379352 19.004415
v -16.416789 29.379352 16.303294
v 20.393762 20.784684 27.805426
v 20.762136 21.982023 27.180383
v 20.393374 21.982023 28.530944
v -17.154313 29.379352 19.004415
v -17.891061 26.984672 20.254500
v 20.025000 20.784684 29.155987
v 20.393374 21.982023 28.530944
v -17.153537 26.984672 17.553378
v -17.891061 26.984672 20.254500
v -17.154313 29.379352 19.004415
v 20.393762 20.784684 27.805426
v 20.393374 21.982023 28.530944
v 20.025000 20.784684 29.155987
v -17.421619 25.683200 14.897843
v -18.008046 23.273749 13.597595
v 25.686110 19.388874 2.597381
v 25.979324 20.593600 3.247506
v -18.062936 25.683200 12.172277
v -18.008046 23.273749 13.597595
v -17.421619 25.683200 14.897843
v 25.658665 20.593600 1.884722
v 25.979324 20.593600 3.247506
v 25.686110 19.388874 2.597381
v -18.008046 23.273749 13.597595
v -18.649363 23.273749 10.872028
v 25.365452 19.388874 1.234598
v 25.686110 19.388874 2.597381
v -18.062936 25.683200 12.172277
v -18.649363 23.273749 10.872028
v -18.008046 23.273749 13.597595
v 25.658665 20.593600 1.884722
v 25.686110 19.388874 2.597381
v 25.365452 19.388874 1.234598
v -18.649363 23.273749 10.872028
v -18.704253 25.683200 9.446711
v 25.338007 20.593600 0.521939
v 25.365452 19.388874 1.234598
v -18.062936 25.683200 12.172277
v -18.704253 25.683200 9.446711
v -18.649363 23.273749 10.872028
v 25.658665 20.593600 1.884722
v 25.365452 19.388874 1.234598
v 25.338007 20.593600 0.521939
v -18.704253 25.683200 9.446711
v -18.117826 28.092652 10.746959
v 25.631220 21.798326 1.172064
v 25.338007 20.593600 0.521939
v -18.062936 25.683200 12.172277
v -18.117826 28.092652 10.746959
v -18.704253 25.683200 9.446711
v 25.658665 20.593600 1.884722
v 25.338007 20.593600 0.521939
v 25.631220 21.798326 1.172064
v -18.117826 28.092652 10.746959
v -17.476509 28.092652 13.472526
v 25.951879 21.798326 2.534847
v 25.631220 21.798326 1.172064
v -18.062936 25.683200 12.172277
v -17.476509 28.092652 13.472526
v -18.117826 28.092652 10.746959
v 25.658665 20.593600 1.884722
v 25.631220 21.798326 1.172064
v 25.951879 21.798326 2.534847
v -17.476509 28.092652 13.472526
v -17.421619 25.683200 14.897843
v 25.979324 20.593600 3.247506
v 25.951879 21.798326 2.534847
v -18.062936 25.683200 12.172277
v -17.421619 25.683200 14.897843
v -17.476509 28.092652 13.472526
v 25.658665 20.593600 1.884722
v 25.951879 21.798326 2.534847
v 25.979324 20.593600 3.247506
vt 0.500000 1.000000
vt 0.000000 0.000000
vt 1.000000 0.000000
vt 0.000000 0.000000
vt 1.000000 0.000000
vt 1.000000 1.000000
vt 0.000000 1.000000
vt 0.000000 0.000000
vt 1.000000 0.000000
vt 1.000000 1.000000
vt 0.000000 1.000000
vt 0.500000 1.000000
vt 0.000000 0.000000
vt 1.000000 0.000000
vt 0.500000 1.000000
vt 0.000000 0.000000
vt 1.000000 0.000000
vt 0.000000 0.000000
vt 1.000000 0.000000
vt 1.000000 1.000000
vt 0.000000 1.000000
vt 0.000000 0.000000
vt 1.000000 0.000000
vt 1.000000 1.000000
vt 0.000000 1.000000
vt 0.500000 1.000000
vt 0.000000 0.000000
vt 1.000000 0.000000
vt 0.500000 1.000000
vt 0.000000 0.000000
vt 1.000000 0.000000
vt 0.000000 0.000000
vt 1.000000 0.000000
vt 1.000000 1.000000
vt 0.000000 1.000000
vt 0.000000 0.000000
vt 1.000000 0.000000
vt 1.000000 1.000000
vt 0.000000 1.000000
vt 0.500000 1.000000
vt 0.000000 0.000000
vt 1.000000 0.000000
vt 0.500000 1.000000
vt 0.000000 0.000000
vt 1.000000 0.000000
vt 0.000000 0.000000
vt 1.000000 0.000000
vt 1.000000 1.000000
vt 0.000000 1.000000
vt 0.000000 0.000000
vt 1.000000 0.000000
vt 1.000000 1.000000
vt 0.000000 1.000000
vt 0.500000 1.000000
vt 0.000000 0.000000
vt 1.000000 0.000000
vt 0.500000 1.000000
vt 0.000000 0.000000
vt 1.000000 0.000000
vt 0.000000 0.000000
vt 1.000000 0.000000
vt 1.000000 1.000000
vt 0.000000 1.000000
vt 0.000000 0.000000
vt 1.000000 0.000000
vt 1.000000 1.000000
vt 0.000000 1.000000
vt 0.500000 1.000000
vt 0.000000 0.000000
vt 1.000000 0.000000
vt 0.500000 1.000000
vt 0.000000 0.000000
vt 1.000000 0.000000
vt 0.000000 0.000000
vt 1.000000 0.000000
vt 1.000000 1.000000
vt 0.000000 1.000000
vt 0.000000 0.000000
vt 1.000000 0.000000
vt 1.000000 1.000000
vt 0.000000 1.000000
vt 0.500000 1.000000
vt 0.000000 0.000000
vt 1.000000 0.000000
vt 0.500000 1.000000
vt 0.000000 0.000000
vt 1.000000 0.000000
vt 0.000000 0.000000
vt 1.000000 0.000000
vt 1.000000 1.000000
vt 0.000000 1.000000
vt 0.000000 0.000000
vt 1.000000 0.000000
vt 1.000000 1.000000
vt 0.000000 1.000000
vt 0.500000 1.000000
vt 0.000000 0.000000
vt 1.000000 0.000000
vt 0.500000 1.000000
vt 0.000000 0.000000
vt 1.000000 0.000000
vt 0.000000 0.000000
vt 1.000000 0.000000
vt 1.000000 1.000000
vt 0.000000 1.000000
vt 0.000000 0.000000
vt 1.000000 0.000000
vt 1.000000 1.000000
vt 0.000000 1.000000
vt 0.500000 1.000000
vt 0.000000 0.000000
vt 1.000000 0.000000
vt 0.500000 1.000000
vt 0.000000 0.000000
vt 1.000000 0.000000
vt 0.000000 0.000000
vt 1.000000 0.000000
vt 1.000000 1.000000
vt 0.000000 1.000000
vt 0.000000 0.000000
vt 1.000000 0.000000
vt 1.000000 1.000000
vt 0.000000 1.000000
vt 0.500000 1.000000
vt 0.000000 0.000000
vt 1.000000 0.000000
vt 0.500000 1.000000
vt 0.000000 0.000000
vt 1.000000 0.000000
vt 0.000000 0.000000
vt 1.000000 0.000000
vt 1.000000 1.000000
vt 0.000000 1.000000
vt 0.000000 0.000000
vt 1.000000 0.000000
vt 1.000000 1.000000
vt 0.000000 1.000000
vt 0.500000 1.000000
vt 0.000000 0.000000
vt 1.000000 0.000000
vt 0.500000 1.000000
vt 0.000000 0.000000
vt 1.000000 0.000000
vt 0.000000 0.000000
vt 1.000000 0.000000
vt 1.000000 1.000000
vt 0.000000 1.000000
vt 0.500000 1.000000
vt 0.000000 0.000000
vt 1.000000 0.000000
vt 0.500000 1.000000
vt 0.000000 0.000000
vt 1.000000 0.000000
vt 0.000000 0.000000
vt 1.000000 0.000000
vt 1.000000 1.000000
vt 0.000000 1.000000
vt 0.500000 1.000000
vt 0.000000 0.000000
vt 1.000000 0.000000
vt 0.500000 1.000000
vt 0.000000 0.000000
vt 1.000000 0.000000
vt 0.000000 0.000000
vt 1.000000 0.000000
vt 1.000000 1.000000
vt 0.000000 1.000000
vt 0.500000 1.000000
vt 0.000000 0.000000
vt 1.000000 0.000000
vt 0.500000 1.000000
vt 0.000000 0.000000
vt 1.000000 0.000000
vt 0.000000 0.000000
vt 1.000000 0.000000
vt 1.000000 1.000000
vt 0.000000 1.000000
vt 0.500000 1.000000
vt 0.000000 0.000000
vt 1.000000 0.000000
vt 0.500000 1.000000
vt 0.000000 0.000000
vt 1.000000 0.000000
vt 0.000000 0.000000
vt 1.000000 0.000000
vt 1.000000 1.000000
vt 0.000000 1.000000
vt 0.500000 1.000000
vt 0.000000 0.000000
vt 1.000000 0.000000
vt 0.500000 1.000000
vt 0.000000 0.000000
vt 1.000000 0.000000
vt 0.000000 0.000000
vt 1.000000 0.000000
vt 1.000000 1.000000
vt 0.000000 1.000000
vt 0.500000 1.000000
vt 0.000000 0.000000
vt 1.000000 0.000000
vt 0.500000 1.000000
vt 0.000000 0.000000
vt 1.000000 0.000000
vt 0.000000 0.000000
vt 1.000000 0.000000
vt 1.000000 1.000000
vt 0.000000 1.000000
vt 0.500000 1.000000
vt 0.000000 0.000000
vt 1.000000 0.000000
vt 0.500000 1.000000
vt 0.000000 0.000000
vt 1.000000 0.000000
vt 0.000000 0.000000
vt 1.000000 0.000000
vt 1.000000 1.000000
vt 0.000000 1.000000
vt 0.500000 1.000000
vt 0.000000 0.000000
vt 1.000000 0.000000
vt 0.500000 1.000000
vt 0.000000 0.000000
vt 1.000000 0.000000
vt 0.000000 0.000000
vt 1.000000 0.000000
vt 1.000000 1.000000
vt 0.000000 1.000000
vt 0.500000 1.000000
vt 0.000000 0.000000
vt 1.000000 0.000000
vt 0.500000 1.000000
vt 0.000000 0.000000
vt 1.000000 0.000000
vt 0.000000 0.000000
vt 1.000000 0.000000
vt 1.000000 1.000000
vt 0.000000 1.000000
vt 0.500000 1.000000
vt 0.000000 0.000000
vt 1.000000 0.000000
vt 0.500000 1.000000
vt 0.000000 0.000000
vt 1.000000 0.000000
vt 0.000000 0.000000
vt 1.000000 0.000000
vt 1.000000 1.000000
vt 0.000000 1.000000
vt 0.500000 1.000000
vt 0.000000 0.000000
vt 1.000000 0.000000
vt 0.500000 1.000000
vt 0.000000 0.000000
vt 1.000000 0.000000
vt 0.000000 0.000000
vt 1.000000 0.000000
vt 1.000000 1.000000
vt 0.000000 1.000000
vt 0.500000 1.000000
vt 0.000000 0.000000
vt 1.000000 0.000000
vt 0.500000 1.000000
vt 0.000000 0.000000
vt 1.000000 0.000000
vt 0.000000 0.000000
vt 1.000000 0.000000
vt 1.000000 1.000000
vt 0.000000 1.000000
vt 0.500000 1.000000
vt 0.000000 0.000000
vt 1.000000 0.000000
vt 0.500000 1.000000
vt 0.000000 0.000000
vt 1.000000 0.000000
vt 0.000000 0.000000
vt 1.000000 0.000000
vt 1.000000 1.000000
vt 0.000000 1.000000
vt 0.500000 1.000000
vt 0.000000 0.000000
vt 1.000000 0.000000
vt 0.500000 1.000000
vt 0.000000 0.000000
vt 1.000000 0.000000
vt 0.000000 0.000000
vt 1.000000 0.000000
vt 1.000000 1.000000
vt 0.000000 1.000000
vt 0.500000 1.000000
vt 0.000000 0.000000
vt 1.000000 0.000000
vt 0.500000 1.000000
vt 0.000000 0.000000
vt 1.000000 0.000000
vt 0.000000 0.000000
vt 1.000000 0.000000
vt 1.000000 1.000000
vt 0.000000 1.000000
vt 0.500000 1.000000
vt 0.000000 0.000000
vt 1.000000 0.000000
vt 0.500000 1.000000
vt 0.000000 0.000000
vt 1.000000 0.000000
vt 0.000000 0.000000
vt 1.000000 0.000000
vt 1.000000 1.000000
vt 0.000000 1.000000
vt 0.500000 1.000000
vt 0.000000 0.000000
vt 1.000000 0.000000
vt 0.500000 1.000000
vt 0.000000 0.000000
vt 1.000000 0.000000
vt 0.000000 0.000000
vt 1.000000 0.000000
vt 1.000000 1.000000
vt 0.000000 1.000000
vt 0.500000 1.000000
vt 0.000000 0.000000
vt 1.000000 0.000000
vt 0.500000 1.000000
vt 0.000000 0.000000
vt 1.000000 0.000000
vt 0.000000 0.000000
vt 1.000000 0.000000
vt 1.000000 1.000000
vt 0.000000 1.000000
vt 0.500000 1.000000
vt 0.000000 0.000000
vt 1.000000 0.000000
vt 0.500000 1.000000
vt 0.000000 0.000000
vt 1.000000 0.000000
vt 0.000000 0.000000
vt 1.000000 0.000000
vt 1.000000 1.000000
vt 0.000000 1.000000
vt 0.500000 1.000000
vt 0.000000 0.000000
vt 1.000000 0.000000
vt 0.500000 1.000000
vt 0.000000 0.000000
vt 1.000000 0.000000
vt 0.000000 0.000000
vt 1.000000 0.000000
vt 1.000000 1.000000
vt 0.000000 1.000000
vt 0.500000 1.000000
vt 0.000000 0.000000
vt 1.000000 0.000000
vt 0.500000 1.000000
vt 0.000000 0.000000
vt 1.000000 0.000000
vt 0.000000 0.000000
vt 1.000000 0.000000
vt 1.000000 1.000000
vt 0.000000 1.000000
vt 0.500000 1.000000
vt 0.000000 0.000000
vt 1.000000 0.000000
vt 0.500000 1.000000
vt 0.000000 0.000000
vt 1.000000 0.000000
vt 0.000000 0.000000
vt 1.000000 0.000000
vt 1.000000 1.000000
vt 0.000000 1.000000
vt 0.500000 1.000000
vt 0.000000 0.000000
vt 1.000000 0.000000
vt 0.500000 1.000000
vt 0.000000 0.000000
vt 1.000000 0.000000
vt 0.000000 0.000000
vt 1.000000 0.000000
vt 1.000000 1.000000
vt 0.000000 1.000000
vt 0.500000 1.000000
vt 0.000000 0.000000
vt 1.000000 0.000000
vt 0.500000 1.000000
vt 0.000000 0.000000
vt 1.000000 0.000000
vt 0.000000 0.000000
vt 1.000000 0.000000
vt 1.000000 1.000000
vt 0.000000 1.000000
vt 0.500000 1.000000
vt 0.000000 0.000000
vt 1.000000 0.000000
vt 0.500000 1.000000
vt 0.000000 0.000000
vt 1.000000 0.000000
vt 0.000000 0.000000
vt 1.000000 0.000000
vt 1.000000 1.000000
vt 0.000000 1.000000
vt 0.500000 1.000000
vt 0.000000 0.000000
vt 1.000000 0.000000
vt 0.500000 1.000000
vt 0.000000 0.000000
vt 1.000000 0.000000
vt 0.000000 0.000000
vt 1.000000 0.000000
vt 1.000000 1.000000
vt 0.000000 1.000000
vt 0.500000 1.000000
vt 0.000000 0.000000
vt 1.000000 0.000000
vt 0.500000 1.000000
vt 0.000000 0.000000
vt 1.000000 0.000000
vt 0.000000 0.000000
vt 1.000000 0.000000
vt 1.000000 1.000000
vt 0.000000 1.000000
vt 0.500000 1.000000
vt 0.000000 0.000000
vt 1.000000 0.000000
vt 0.500000 1.000000
vt 0.000000 0.000000
vt 1.000000 0.000000
vt 0.000000 0.000000
vt 1.000000 0.000000
vt 1.000000 1.000000
vt 0.000000 1.000000
vt 0.500000 1.000000
vt 0.000000 0.000000
vt 1.000000 0.000000
vt 0.500000 1.000000
vt 0.000000 0.000000
vt 1.000000 0.000000
vt 0.000000 0.000000
vt 1.000000 0.000000
vt 1.000000 1.000000
vt 0.000000 1.000000
vt 0.500000 1.000000
vt 0.000000 0.000000
vt 1.000000 0.000000
vt 0.500000 1.000000
vt 0.000000 0.000000
vt 1.000000 0.000000
vt 0.000000 0.000000
vt 1.000000 0.000000
vt 1.000000 1.000000
vt 0.000000 1.000000
vt 0.500000 1.000000
vt 0.000000 0.000000
vt 1.000000 0.000000
vt 0.500000 1.000000
vt 0.000000 0.000000
vt 1.000000 0.000000
vt 0.000000 0.000000
vt 1.000000 0.000000
vt 1.000000 1.000000
vt 0.000000 1.000000
vt 0.500000 1.000000
vt 0.000000 0.000000
vt 1.000000 0.000000
vt 0.500000 1.000000
vt 0.000000 0.000000
vt 1.000000 0.000000
vt 0.000000 0.000000
vt 1.000000 0.000000
vt 1.000000 1.000000
vt 0.000000 1.000000
vt 0.500000 1.000000
vt 0.000000 0.000000
vt 1.000000 0.000000
vt 0.500000 1.000000
vt 0.000000 0.000000
vt 1.000000 0.000000
vt 0.000000 0.000000
vt 1.000000 0.000000
vt 1.000000 1.000000
vt 0.000000 1.000000
vt 0.500000 1.000000
vt 0.000000 0.000000
vt 1.000000 0.000000
vt 0.500000 1.000000
vt 0.000000 0.000000
vt 1.000000 0.000000
vt 0.000000 0.000000
vt 1.000000 0.000000
vt 1.000000 1.000000
vt 0.000000 1.000000
vt 0.500000 1.000000
vt 0.000000 0.000000
vt 1.000000 0.000000
vt 0.500000 1.000000
vt 0.000000 0.000000
vt 1.000000 0.000000
vt 0.000000 0.000000
vt 1.000000 0.000000
vt 1.000000 1.000000
vt 0.000000 1.000000
vt 0.500000 1.000000
vt 0.000000 0.000000
vt 1.000000 0.000000
vt 0.500000 1.000000
vt 0.000000 0.000000
vt 1.000000 0.000000
vt 0.000000 0.000000
vt 1.000000 0.000000
vt 1.000000 1.000000
vt 0.000000 1.000000
vt 0.500000 1.000000
vt 0.000000 0.000000
vt 1.000000 0.000000
vt 0.500000 1.000000
vt 0.000000 0.000000
vt 1.000000 0.000000
vt 0.000000 0.000000
vt 1.000000 0.000000
vt 1.000000 1.000000
vt 0.000000 1.000000
vt 0.500000 1.000000
vt 0.000000 0.000000
vt 1.000000 0.000000
vt 0.500000 1.000000
vt 0.000000 0.000000
vt 1.000000 0.000000
vt 0.000000 0.000000
vt 1.000000 0.000000
vt 1.000000 1.000000
vt 0.000000 1.000000
vt 0.500000 1.000000
vt 0.000000 0.000000
vt 1.000000 0.000000
vt 0.500000 1.000000
vt 0.000000 0.000000
vt 1.000000 0.000000
vt 0.000000 0.000000
vt 1.000000 0.000000
vt 1.000000 1.000000
vt 0.000000 1.000000
vt 0.500000 1.000000
vt 0.000000 0.000000
vt 1.000000 0.000000
vt 0.500000 1.000000
vt 0.000000 0.000000
vt 1.000000 0.000000
vt 0.000000 0.000000
vt 1.000000 0.000000
vt 1.000000 1.000000
vt 0.000000 1.000000
vt 0.500000 1.000000
vt 0.000000 0.000000
vt 1.000000 0.000000
vt 0.500000 1.000000
vt 0.000000 0.000000
vt 1.000000 0.000000
vt 0.000000 0.000000
vt 1.000000 0.000000
vt 1.000000 1.000000
vt 0.000000 1.000000
vt 0.500000 1.000000
vt 0.000000 0.000000
vt 1.000000 0.000000
vt 0.500000 1.000000
vt 0.000000 0.000000
vt 1.000000 0.000000
vt 0.000000 0.000000
vt 1.000000 0.000000
vt 1.000000 1.000000
vt 0.000000 1.000000
vt 0.500000 1.000000
vt 0.000000 0.000000
vt 1.000000 0.000000
vt 0.500000 1.000000
vt 0.000000 0.000000
vt 1.000000 0.000000
vt 0.000000 0.000000
vt 1.000000 0.000000
vt 1.000000 1.000000
vt 0.000000 1.000000
vt 0.500000 1.000000
vt 0.000000 0.000000
vt 1.000000 0.000000
vt 0.500000 1.000000
vt 0.000000 0.000000
vt 1.000000 0.000000
vt 0.000000 0.000000
vt 1.000000 0.000000
vt 1.000000 1.000000
vt 0.000000 1.000000
vt 0.500000 1.000000
vt 0.000000 0.000000
vt 1.000000 0.000000
vt 0.500000 1.000000
vt 0.000000 0.000000
vt 1.000000 0.000000
vt 0.000000 0.000000
vt 1.000000 0.000000
vt 1.000000 1.000000
vt 0.000000 1.000000
vt 0.500000 1.000000
vt 0.000000 0.000000
vt 1.000000 0.000000
vt 0.500000 1.000000
vt 0.000000 0.000000
vt 1.000000 0.000000
vt 0.000000 0.000000
vt 1.000000 0.000000
vt 1.000000 1.000000
vt 0.000000 1.000000
vt 0.500000 1.000000
vt 0.000000 0.000000
vt 1.000000 0.000000
vt 0.500000 1.000000
vt 0.000000 0.000000
vt 1.000000 0.000000
vt 0.000000 0.000000
vt 1.000000 0.000000
vt 1.000000 1.000000
vt 0.000000 1.000000
vt 0.500000 1.000000
vt 0.000000 0.000000
vt 1.000000 0.000000
vt 0.500000 1.000000
vt 0.000000 0.000000
vt 1.000000 0.000000
vt 0.000000 0.000000
vt 1.000000 0.000000
vt 1.000000 1.000000
vt 0.000000 1.000000
vt 0.500000 1.000000
vt 0.000000 0.000000
vt 1.000000 0.000000
vt 0.500000 1.000000
vt 0.000000 0.000000
vt 1.000000 0.000000
vt 0.000000 0.000000
vt 1.000000 0.000000
vt 1.000000 1.000000
vt 0.000000 1.000000
vt 0.500000 1.000000
vt 0.000000 0.000000
vt 1.000000 0.000000
vt 0.500000 1.000000
vt 0.000000 0.000000
vt 1.000000 0.000000
vt 0.000000 0.000000
vt 1.000000 0.000000
vt 1.000000 1.000000
vt 0.000000 1.000000
vt 0.500000 1.000000
vt 0.000000 0.000000
vt 1.000000 0.000000
vt 0.500000 1.000000
vt 0.000000 0.000000
vt 1.000000 0.000000
vt 0.000000 0.000000
vt 1.000000 0.000000
vt 1.000000 1.000000
vt 0.000000 1.000000
vt 0.500000 1.000000
vt 0.000000 0.000000
vt 1.000000 0.000000
vt 0.500000 1.000000
vt 0.000000 0.000000
vt 1.000000 0.000000
vt 0.000000 0.000000
vt 1.000000 0.000000
vt 1.000000 1.000000
vt 0.000000 1.000000
vt 0.500000 1.000000
vt 0.000000 0.000000
vt 1.000000 0.000000
vt 0.500000 1.000000
vt 0.000000 0.000000
vt 1.000000 0.000000
vt 0.000000 0.000000
vt 1.000000 0.000000
vt 1.000000 1.000000
vt 0.000000 1.000000
vt 0.500000 1.000000
vt 0.000000 0.000000
vt 1.000000 0.000000
vt 0.500000 1.000000
vt 0.000000 0.000000
vt 1.000000 0.000000
vt 0.000000 0.000000
vt 1.000000 0.000000
vt 1.000000 1.000000
vt 0.000000 1.000000
vt 0.500000 1.000000
vt 0.000000 0.000000
vt 1.000000 0.000000
vt 0.500000 1.000000
vt 0.000000 0.000000
vt 1.000000 0.000000
vt 0.000000 0.000000
vt 1.000000 0.000000
vt 1.000000 1.000000
vt 0.000000 1.000000
vt 0.500000 1.000000
vt 0.000000 0.000000
vt 1.000000 0.000000
vt 0.500000 1.000000
vt 0.000000 0.000000
vt 1.000000 0.000000
vt 0.000000 0.000000
vt 1.000000 0.000000
vt 1.000000 1.000000
vt 0.000000 1.000000
vt 0.500000 1.000000
vt 0.000000 0.000000
vt 1.000000 0.000000
vt 0.500000 1.000000
vt 0.000000 0.000000
vt 1.000000 0.000000
vt 0.000000 0.000000
vt 1.000000 0.000000
vt 1.000000 1.000000
vt 0.000000 1.000000
vt 0.500000 1.000000
vt 0.000000 0.000000
vt 1.000000 0.000000
vt 0.500000 1.000000
vt 0.000000 0.000000
vt 1.000000 0.000000
vt 0.000000 0.000000
vt 1.000000 0.000000
vt 1.000000 1.000000
vt 0.000000 1.000000
vt 0.500000 1.000000
vt 0.000000 0.000000
vt 1.000000 0.000000
vt 0.500000 1.000000
vt 0.000000 0.000000
vt 1.000000 0.000000
vt 0.000000 0.000000
vt 1.000000 0.000000
vt 1.000000 1.000000
vt 0.000000 1.000000
vt 0.500000 1.000000
vt 0.000000 0.000000
vt 1.000000 0.000000
vt 0.500000 1.000000
vt 0.000000 0.000000
vt 1.000000 0.000000
vt 0.000000 0.000000
vt 1.000000 0.000000
vt 1.000000 1.000000
vt 0.000000 1.000000
vt 0.500000 1.000000
vt 0.000000 0.000000
vt 1.000000 0.000000
vt 0.500000 1.000000
vt 0.000000 0.000000
vt 1.000000 0.000000
vt 0.000000 0.000000
vt 1.000000 0.000000
vt 1.000000 1.000000
vt 0.000000 1.000000
vt 0.500000 1.000000
vt 0.000000 0.000000
vt 1.000000 0.000000
vt 0.500000 1.000000
vt 0.000000 0.000000
vt 1.000000 0.000000
vt 0.000000 0.000000
vt 1.000000 0.000000
vt 1.000000 1.000000
vt 0.000000 1.000000
vt 0.500000 1.000000
vt 0.000000 0.000000
vt 1.000000 0.000000
vt 0.000000 0.000000
vt 1.000000 0.000000
vt 1.000000 1.000000
vt 0.000000 1.000000
vt 0.500000 1.000000
vt 0.000000 0.000000
vt 1.000000 0.000000
vt 0.500000 1.000000
vt 0.000000 0.000000
vt 1.000000 0.000000
vt 0.000000 0.000000
vt 1.000000 0.000000
vt 1.000000 1.000000
vt 0.000000 1.000000
vt 0.500000 1.000000
vt 0.000000 0.000000
vt 1.000000 0.000000
vt 0.500000 1.000000
vt 0.000000 0.000000
vt 1.000000 0.000000
vt 0.000000 0.000000
vt 1.000000 0.000000
vt 1.000000 1.000000
vt 0.000000 1.000000
vt 0.500000 1.000000
vt 0.000000 0.000000
vt 1.000000 0.000000
vt 0.500000 1.000000
vt 0.000000 0.000000
vt 1.000000 0.000000
vt 0.000000 0.000000
vt 1.000000 0.000000
vt 1.000000 1.000000
vt 0.000000 1.000000
vt 0.500000 1.000000
vt 0.000000 0.000000
vt 1.000000 0.000000
vt 0.500000 1.000000
vt 0.000000 0.000000
vt 1.000000 0.000000
vt 0.000000 0.000000
vt 1.000000 0.000000
vt 1.000000 1.000000
vt 0.000000 1.000000
vt 0.500000 1.000000
vt 0.000000 0.000000
vt 1.000000 0.000000
vt 0.500000 1.000000
vt 0.000000 0.000000
vt 1.000000 0.000000
vt 0.000000 0.000000
vt 1.000000 0.000000
vt 1.000000 1.000000
vt 0.000000 1.000000
vt 0.500000 1.000000
vt 0.000000 0.000000
vt 1.000000 0.000000
vt 0.500000 1.000000
vt 0.000000 0.000000
vt 1.000000 0.000000
vt 0.000000 0.000000
vt 1.000000 0.000000
vt 1.000000 1.000000
vt 0.000000 1.000000
vt 0.500000 1.000000
vt 0.000000 0.000000
vt 1.000000 0.000000
vt 0.500000 1.000000
vt 0.000000 0.000000
vt 1.000000 0.000000
vt 0.000000 0.000000
vt 1.000000 0.000000
vt 1.000000 1.000000
vt 0.000000 1.000000
vt 0.500000 1.000000
vt 0.000000 0.000000
vt 1.000000 0.000000
vt 0.500000 1.000000
vt 0.000000 0.000000
vt 1.000000 0.000000
vt 0.000000 0.000000
vt 1.000000 0.000000
vt 1.000000 1.000000
vt 0.000000 1.000000
vt 0.500000 1.000000
vt 0.000000 0.000000
vt 1.000000 0.000000
vt 0.500000 1.000000
vt 0.000000 0.000000
vt 1.000000 0.000000
vt 0.000000 0.000000
vt 1.000000 0.000000
vt 1.000000 1.000000
vt 0.000000 1.000000
vt 0.500000 1.000000
vt 0.000000 0.000000
vt 1.000000 0.000000
vt 0.500000 1.000000
vt 0.000000 0.000000
vt 1.000000 0.000000
vt 0.000000 0.000000
vt 1.000000 0.000000
vt 1.000000 1.000000
vt 0.000000 1.000000
vt 0.500000 1.000000
vt 0.000000 0.000000
vt 1.000000 0.000000
vt 0.500000 1.000000
vt 0.000000 0.000000
vt 1.000000 0.000000
vt 0.000000 0.000000
vt 1.000000 0.000000
vt 1.000000 1.000000
vt 0.000000 1.000000
vt 0.500000 1.000000
vt 0.000000 0.000000
vt 1.000000 0.000000
vt 0.500000 1.000000
vt 0.000000 0.000000
vt 1.000000 0.000000
vt 0.000000 0.000000
vt 1.000000 0.000000
vt 1.000000 1.000000
vt 0.000000 1.000000
vt 0.500000 1.000000
vt 0.000000 0.000000
vt 1.000000 0.000000
vt 0.500000 1.000000
vt 0.000000 0.000000
vt 1.000000 0.000000
vt 0.000000 0.000000
vt 1.000000 0.000000
vt 1.000000 1.000000
vt 0.000000 1.000000
vt 0.500000 1.000000
vt 0.000000 0.000000
vt 1.000000 0.000000
vt 0.500000 1.000000
vt 0.000000 0.000000
vt 1.000000 0.000000
vt 0.000000 0.000000
vt 1.000000 0.000000
vt 1.000000 1.000000
vt 0.000000 1.000000
vt 0.500000 1.000000
vt 0.000000 0.000000
vt 1.000000 0.000000
vt 0.500000 1.000000
vt 0.000000 0.000000
vt 1.000000 0.000000
vt 0.000000 0.000000
vt 1.000000 0.000000
vt 1.000000 1.000000
vt 0.000000 1.000000
vt 0.500000 1.000000
vt 0.000000 0.000000
vt 1.000000 0.000000
vt 0.500000 1.000000
vt 0.000000 0.000000
vt 1.000000 0.000000
vt 0.000000 0.000000
vt 1.000000 0.000000
vt 1.000000 1.000000
vt 0.000000 1.000000
vt 0.500000 1.000000
vt 0.000000 0.000000
vt 1.000000 0.000000
vt 0.500000 1.000000
vt 0.000000 0.000000
vt 1.000000 0.000000
vt 0.000000 0.000000
vt 1.000000 0.000000
vt 1.000000 1.000000
vt 0.000000 1.000000
vt 0.500000 1.000000
vt 0.000000 0.000000
vt 1.000000 0.000000
vt 0.500000 1.000000
vt 0.000000 0.000000
vt 1.000000 0.000000
s 1
usemtl models/caelum/world/environment/rock_granite.png
f 1/1 2/2 3/3
f 4/4 5/5 6/6 7/7
f 8/8 9/9 10/10 11/11
f 12/12 13/13 14/14
f 15/15 16/16 17/17
f 18/18 19/19 20/20 21/21
f 22/22 23/23 24/24 25/25
f 26/26 27/27 28/28
f 29/29 30/30 31/31
f 32/32 33/33 34/34 35/35
f 36/36 37/37 38/38 39/39
f 40/40 41/41 42/42
f 43/43 44/44 45/45
f 46/46 47/47 48/48 49/49
f 50/50 51/51 52/52 53/53
f 54/54 55/55 56/56
f 57/57 58/58 59/59
f 60/60 61/61 62/62 63/63
f 64/64 65/65 66/66 67/67
f 68/68 69/69 70/70
f 71/71 72/72 73/73
f 74/74 75/75 76/76 77/77
f 78/78 79/79 80/80 81/81
f 82/82 83/83 84/84
f 85/85 86/86 87/87
f 88/88 89/89 90/90 91/91
f 92/92 93/93 94/94 95/95
f 96/96 97/97 98/98
f 99/99 100/100 101/101
f 102/102 103/103 104/104 105/105
f 106/106 107/107 108/108 109/109
f 110/110 111/111 112/112
f 113/113 114/114 115/115
f 116/116 117/117 118/118 119/119
f 120/120 121/121 122/122 123/123
f 124/124 125/125 126/126
f 127/127 128/128 129/129
f 130/130 131/131 132/132 133/133
f 134/134 135/135 136/136 137/137
f 138/138 139/139 140/140
usemtl models/caelum/world/resources/ca_vein_iron.png
f 141/141 142/142 143/143
f 144/144 145/145 146/146 147/147
f 148/148 149/149 150/150
f 151/151 152/152 153/153
f 154/154 155/155 156/156 157/157
f 158/158 159/159 160/160
f 161/161 162/162 163/163
f 164/164 165/165 166/166 167/167
f 168/168 169/169 170/170
f 171/171 172/172 173/173
f 174/174 175/175 176/176 177/177
f 178/178 179/179 180/180
f 181/181 182/182 183/183
f 184/184 185/185 186/186 187/187
f 188/188 189/189 190/190
f 191/191 192/192 193/193
f 194/194 195/195 196/196 197/197
f 198/198 199/199 200/200
f 201/201 202/202 203/203
f 204/204 205/205 206/206 207/207
f 208/208 209/209 210/210
f 211/211 212/212 213/213
f 214/214 215/215 216/216 217/217
f 218/218 219/219 220/220
f 221/221 222/222 223/223
f 224/224 225/225 226/226 227/227
f 228/228 229/229 230/230
f 231/231 232/232 233/233
f 234/234 235/235 236/236 237/237
f 238/238 239/239 240/240
f 241/241 242/242 243/243
f 244/244 245/245 246/246 247/247
f 248/248 249/249 250/250
f 251/251 252/252 253/253
f 254/254 255/255 256/256 257/257
f 258/258 259/259 260/260
f 261/261 262/262 263/263
f 264/264 265/265 266/266 267/267
f 268/268 269/269 270/270
f 271/271 272/272 273/273
f 274/274 275/275 276/276 277/277
f 278/278 279/279 280/280
f 281/281 282/282 283/283
f 284/284 285/285 286/286 287/287
f 288/288 289/289 290/290
f 291/291 292/292 293/293
f 294/294 295/295 296/296 297/297
f 298/298 299/299 300/300
f 301/301 302/302 303/303
f 304/304 305/305 306/306 307/307
f 308/308 309/309 310/310
f 311/311 312/312 313/313
f 314/314 315/315 316/316 317/317
f 318/318 319/319 320/320
f 321/321 322/322 323/323
f 324/324 325/325 326/326 327/327
f 328/328 329/329 330/330
f 331/331 332/332 333/333
f 334/334 335/335 336/336 337/337
f 338/338 339/339 340/340
f 341/341 342/342 343/343
f 344/344 345/345 346/346 347/347
f 348/348 349/349 350/350
f 351/351 352/352 353/353
f 354/354 355/355 356/356 357/357
f 358/358 359/359 360/360
f 361/361 362/362 363/363
f 364/364 365/365 366/366 367/367
f 368/368 369/369 370/370
f 371/371 372/372 373/373
f 374/374 375/375 376/376 377/377
f 378/378 379/379 380/380
f 381/381 382/382 383/383
f 384/384 385/385 386/386 387/387
f 388/388 389/389 390/390
f 391/391 392/392 393/393
f 394/394 395/395 396/396 397/397
f 398/398 399/399 400/400
f 401/401 402/402 403/403
f 404/404 405/405 406/406 407/407
f 408/408 409/409 410/410
f 411/411 412/412 413/413
f 414/414 415/415 416/416 417/417
f 418/418 419/419 420/420
f 421/421 422/422 423/423
f 424/424 425/425 426/426 427/427
f 428/428 429/429 430/430
f 431/431 432/432 433/433
f 434/434 435/435 436/436 437/437
f 438/438 439/439 440/440
f 441/441 442/442 443/443
f 444/444 445/445 446/446 447/447
f 448/448 449/449 450/450
f 451/451 452/452 453/453
f 454/454 455/455 456/456 457/457
f 458/458 459/459 460/460
f 461/461 462/462 463/463
f 464/464 465/465 466/466 467/467
f 468/468 469/469 470/470
f 471/471 472/472 473/473
f 474/474 475/475 476/476 477/477
f 478/478 479/479 480/480
f 481/481 482/482 483/483
f 484/484 485/485 486/486 487/487
f 488/488 489/489 490/490
f 491/491 492/492 493/493
f 494/494 495/495 496/496 497/497
f 498/498 499/499 500/500
f 501/501 502/502 503/503
f 504/504 505/505 506/506 507/507
f 508/508 509/509 510/510
f 511/511 512/512 513/513
f 514/514 515/515 516/516 517/517
f 518/518 519/519 520/520
f 521/521 522/522 523/523
f 524/524 525/525 526/526 527/527
f 528/528 529/529 530/530
f 531/531 532/532 533/533
f 534/534 535/535 536/536 537/537
f 538/538 539/539 540/540
f 541/541 542/542 543/543
f 544/544 545/545 546/546 547/547
f 548/548 549/549 550/550
f 551/551 552/552 553/553
f 554/554 555/555 556/556 557/557
f 558/558 559/559 560/560
f 561/561 562/562 563/563
f 564/564 565/565 566/566 567/567
f 568/568 569/569 570/570
f 571/571 572/572 573/573
f 574/574 575/575 576/576 577/577
f 578/578 579/579 580/580
f 581/581 582/582 583/583
f 584/584 585/585 586/586 587/587
f 588/588 589/589 590/590
f 591/591 592/592 593/593
f 594/594 595/595 596/596 597/597
f 598/598 599/599 600/600
f 601/601 602/602 603/603
f 604/604 605/605 606/606 607/607
f 608/608 609/609 610/610
f 611/611 612/612 613/613
f 614/614 615/615 616/616 617/617
f 618/618 619/619 620/620
f 621/621 622/622 623/623
f 624/624 625/625 626/626 627/627
f 628/628 629/629 630/630
f 631/631 632/632 633/633
f 634/634 635/635 636/636 637/637
f 638/638 639/639 640/640
f 641/641 642/642 643/643
f 644/644 645/645 646/646 647/647
f 648/648 649/649 650/650
f 651/651 652/652 653/653
f 654/654 655/655 656/656 657/657
f 658/658 659/659 660/660
f 661/661 662/662 663/663
f 664/664 665/665 666/666 667/667
f 668/668 669/669 670/670
f 671/671 672/672 673/673
f 674/674 675/675 676/676 677/677
f 678/678 679/679 680/680
f 681/681 682/682 683/683
f 684/684 685/685 686/686 687/687
f 688/688 689/689 690/690
f 691/691 692/692 693/693
f 694/694 695/695 696/696 697/697
f 698/698 699/699 700/700
f 701/701 702/702 703/703
f 704/704 705/705 706/706 707/707
f 708/708 709/709 710/710
f 711/711 712/712 713/713
f 714/714 715/715 716/716 717/717
f 718/718 719/719 720/720
f 721/721 722/722 723/723
f 724/724 725/725 726/726 727/727
f 728/728 729/729 730/730
f 731/731 732/732 733/733
f 734/734 735/735 736/736 737/737
f 738/738 739/739 740/740
f 741/741 742/742 743/743
f 744/744 745/745 746/746 747/747
f 748/748 749/749 750/750
f 751/751 752/752 753/753
f 754/754 755/755 756/756 757/757
f 758/758 759/759 760/760
f 761/761 762/762 763/763
f 764/764 765/765 766/766 767/767
f 768/768 769/769 770/770
f 771/771 772/772 773/773 774/774
f 775/775 776/776 777/777
f 778/778 779/779 780/780
f 781/781 782/782 783/783 784/784
f 785/785 786/786 787/787
f 788/788 789/789 790/790
f 791/791 792/792 793/793 794/794
f 795/795 796/796 797/797
f 798/798 799/799 800/800
f 801/801 802/802 803/803 804/804
f 805/805 806/806 807/807
f 808/808 809/809 810/810
f 811/811 812/812 813/813 814/814
f 815/815 816/816 817/817
f 818/818 819/819 820/820
f 821/821 822/822 823/823 824/824
f 825/825 826/826 827/827
f 828/828 829/829 830/830
f 831/831 832/832 833/833 834/834
f 835/835 836/836 837/837
f 838/838 839/839 840/840
f 841/841 842/842 843/843 844/844
f 845/845 846/846 847/847
f 848/848 849/849 850/850
f 851/851 852/852 853/853 854/854
f 855/855 856/856 857/857
f 858/858 859/859 860/860
f 861/861 862/862 863/863 864/864
f 865/865 866/866 867/867
f 868/868 869/869 870/870
f 871/871 872/872 873/873 874/874
f 875/875 876/876 877/877
f 878/878 879/879 880/880
f 881/881 882/882 883/883 884/884
f 885/885 886/886 887/887
f 888/888 889/889 890/890
f 891/891 892/892 893/893 894/894
f 895/895 896/896 897/897
f 898/898 899/899 900/900
f 901/901 902/902 903/903 904/904
f 905/905 906/906 907/907
f 908/908 909/909 910/910
f 911/911 912/912 913/913 914/914
f 915/915 916/916 917/917
f 918/918 919/919 920/920
f 921/921 922/922 923/923 924/924
f 925/925 926/926 927/927
f 928/928 929/929 930/930
f 931/931 932/932 933/933 934/934
f 935/935 936/936 937/937
f 938/938 939/939 940/940
f 941/941 942/942 943/943 944/944
f 945/945 946/946 947/947
f 948/948 949/949 950/950
