# Modelo original generado para Caelum Argenteum.
# Ejes OBJ: X ancho, Y altura, Z profundidad.
o ca_vein_topaz3
v 0.000000 0.000000 0.000000
v 38.098594 0.004173 0.000000
v 27.472111 -1.629233 17.237886
v 38.098594 0.004173 0.000000
v 39.312875 14.407975 0.000000
v 34.952744 15.439734 21.931748
v 27.472111 -1.629233 17.237886
v 39.312875 14.407975 0.000000
v 33.586558 30.683992 0.000000
v 22.662920 32.259557 14.220270
v 34.952744 15.439734 21.931748
v 4.219908 47.000000 -9.725361
v 22.662920 32.259557 14.220270
v 33.586558 30.683992 0.000000
v 0.000000 0.000000 0.000000
v 27.472111 -1.629233 17.237886
v 10.269787 1.568747 27.297088
v 27.472111 -1.629233 17.237886
v 34.952744 15.439734 21.931748
v 12.003400 14.686794 31.905030
v 10.269787 1.568747 27.297088
v 34.952744 15.439734 21.931748
v 22.662920 32.259557 14.220270
v 10.170320 32.038218 27.032705
v 12.003400 14.686794 31.905030
v 4.219908 47.000000 -9.725361
v 10.170320 32.038218 27.032705
v 22.662920 32.259557 14.220270
v 0.000000 0.000000 0.000000
v 10.269787 1.568747 27.297088
v -10.372954 0.807444 27.571306
v 10.269787 1.568747 27.297088
v 12.003400 14.686794 31.905030
v -11.910365 15.339282 31.657744
v -10.372954 0.807444 27.571306
v 12.003400 14.686794 31.905030
v 10.170320 32.038218 27.032705
v -8.352355 31.167901 22.200556
v -11.910365 15.339282 31.657744
v 4.219908 47.000000 -9.725361
v -8.352355 31.167901 22.200556
v 10.170320 32.038218 27.032705
v 0.000000 0.000000 0.000000
v -10.372954 0.807444 27.571306
v -25.902650 -1.225492 16.253098
v -10.372954 0.807444 27.571306
v -11.910365 15.339282 31.657744
v -36.659758 16.399146 23.002845
v -25.902650 -1.225492 16.253098
v -11.910365 15.339282 31.657744
v -8.352355 31.167901 22.200556
v -30.550306 31.745339 19.169356
v -36.659758 16.399146 23.002845
v 4.219908 47.000000 -9.725361
v -30.550306 31.745339 19.169356
v -8.352355 31.167901 22.200556
v 0.000000 0.000000 0.000000
v -25.902650 -1.225492 16.253098
v -37.933457 -1.108427 0.000000
v -25.902650 -1.225492 16.253098
v -36.659758 16.399146 23.002845
v -40.592020 14.046665 0.000000
v -37.933457 -1.108427 0.000000
v -36.659758 16.399146 23.002845
v -30.550306 31.745339 19.169356
v -36.455057 33.259155 0.000000
v -40.592020 14.046665 0.000000
v 4.219908 47.000000 -9.725361
v -36.455057 33.259155 0.000000
v -30.550306 31.745339 19.169356
v 0.000000 0.000000 0.000000
v -37.933457 -1.108427 0.000000
v -31.724645 -0.632793 -19.906217
v -37.933457 -1.108427 0.000000
v -40.592020 14.046665 0.000000
v -35.174091 13.899305 -22.070636
v -31.724645 -0.632793 -19.906217
v -40.592020 14.046665 0.000000
v -36.455057 33.259155 0.000000
v -26.006961 32.217366 -16.318550
v -35.174091 13.899305 -22.070636
v 4.219908 47.000000 -9.725361
v -26.006961 32.217366 -16.318550
v -36.455057 33.259155 0.000000
v 0.000000 0.000000 0.000000
v -31.724645 -0.632793 -19.906217
v -12.775695 0.049181 -33.957791
v -31.724645 -0.632793 -19.906217
v -35.174091 13.899305 -22.070636
v -13.376110 15.565041 -35.553692
v -12.775695 0.049181 -33.957791
v -35.174091 13.899305 -22.070636
v -26.006961 32.217366 -16.318550
v -10.580244 33.052980 -28.122283
v -13.376110 15.565041 -35.553692
v 4.219908 47.000000 -9.725361
v -10.580244 33.052980 -28.122283
v -26.006961 32.217366 -16.318550
v 0.000000 0.000000 0.000000
v -12.775695 0.049181 -33.957791
v 9.579546 -0.219141 -25.462428
v -12.775695 0.049181 -33.957791
v -13.376110 15.565041 -35.553692
v 12.797375 15.072793 -34.015414
v 9.579546 -0.219141 -25.462428
v -13.376110 15.565041 -35.553692
v -10.580244 33.052980 -28.122283
v 9.670485 30.590213 -25.704144
v 12.797375 15.072793 -34.015414
v 4.219908 47.000000 -9.725361
v 9.670485 30.590213 -25.704144
v -10.580244 33.052980 -28.122283
v 0.000000 0.000000 0.000000
v 9.579546 -0.219141 -25.462428
v 34.669783 1.143659 -21.754198
v 9.579546 -0.219141 -25.462428
v 12.797375 15.072793 -34.015414
v 33.880166 14.858824 -21.258739
v 34.669783 1.143659 -21.754198
v 12.797375 15.072793 -34.015414
v 9.670485 30.590213 -25.704144
v 30.994104 32.234963 -19.447825
v 33.880166 14.858824 -21.258739
v 4.219908 47.000000 -9.725361
v 30.994104 32.234963 -19.447825
v 9.670485 30.590213 -25.704144
v 0.000000 0.000000 0.000000
v 34.669783 1.143659 -21.754198
v 38.098594 0.004173 0.000000
v 34.669783 1.143659 -21.754198
v 33.880166 14.858824 -21.258739
v 39.312875 14.407975 0.000000
v 38.098594 0.004173 0.000000
v 33.880166 14.858824 -21.258739
v 30.994104 32.234963 -19.447825
v 33.586558 30.683992 0.000000
v 39.312875 14.407975 0.000000
v 4.219908 47.000000 -9.725361
v 33.586558 30.683992 0.000000
v 30.994104 32.234963 -19.447825
v 18.513504 25.680378 -6.213254
v 12.578875 25.023367 -2.717627
v 15.326990 46.034492 -0.504898
v 15.712975 46.077224 -0.732252
v 18.513504 26.017689 0.697398
v 12.578875 25.023367 -2.717627
v 18.513504 25.680378 -6.213254
v 15.712975 46.099162 -0.282787
v 15.712975 46.077224 -0.732252
v 15.326990 46.034492 -0.504898
v 12.578875 25.023367 -2.717627
v 12.578875 25.360679 4.193026
v 15.326990 46.056431 -0.055433
v 15.326990 46.034492 -0.504898
v 18.513504 26.017689 0.697398
v 12.578875 25.360679 4.193026
v 12.578875 25.023367 -2.717627
v 15.712975 46.099162 -0.282787
v 15.326990 46.034492 -0.504898
v 15.326990 46.056431 -0.055433
v 12.578875 25.360679 4.193026
v 18.513504 26.355001 7.608051
v 15.712975 46.121101 0.166678
v 15.326990 46.056431 -0.055433
v 18.513504 26.017689 0.697398
v 18.513504 26.355001 7.608051
v 12.578875 25.360679 4.193026
v 15.712975 46.099162 -0.282787
v 15.326990 46.056431 -0.055433
v 15.712975 46.121101 0.166678
v 18.513504 26.355001 7.608051
v 24.448133 27.012012 4.112423
v 16.098960 46.163832 -0.060675
v 15.712975 46.121101 0.166678
v 18.513504 26.017689 0.697398
v 24.448133 27.012012 4.112423
v 18.513504 26.355001 7.608051
v 15.712975 46.099162 -0.282787
v 15.712975 46.121101 0.166678
v 16.098960 46.163832 -0.060675
v 24.448133 27.012012 4.112423
v 24.448133 26.674700 -2.798229
v 16.098960 46.141894 -0.510140
v 16.098960 46.163832 -0.060675
v 18.513504 26.017689 0.697398
v 24.448133 26.674700 -2.798229
v 24.448133 27.012012 4.112423
v 15.712975 46.099162 -0.282787
v 16.098960 46.163832 -0.060675
v 16.098960 46.141894 -0.510140
v 24.448133 26.674700 -2.798229
v 18.513504 25.680378 -6.213254
v 15.712975 46.077224 -0.732252
v 16.098960 46.141894 -0.510140
v 18.513504 26.017689 0.697398
v 18.513504 25.680378 -6.213254
v 24.448133 26.674700 -2.798229
v 15.712975 46.099162 -0.282787
v 16.098960 46.141894 -0.510140
v 15.712975 46.077224 -0.732252
v 16.037218 24.482942 12.714502
v 12.908661 24.556122 15.318033
v 17.035239 46.597281 16.826525
v 17.381078 46.589191 16.538723
v 16.725555 24.413885 16.726113
v 12.908661 24.556122 15.318033
v 16.037218 24.482942 12.714502
v 17.457169 46.581557 16.982178
v 17.381078 46.589191 16.538723
v 17.035239 46.597281 16.826525
v 12.908661 24.556122 15.318033
v 13.596998 24.487065 19.329643
v 17.111330 46.589647 17.269979
v 17.035239 46.597281 16.826525
v 16.725555 24.413885 16.726113
v 13.596998 24.487065 19.329643
v 12.908661 24.556122 15.318033
v 17.457169 46.581557 16.982178
v 17.035239 46.597281 16.826525
v 17.111330 46.589647 17.269979
v 13.596998 24.487065 19.329643
v 17.413891 24.344829 20.737723
v 17.533260 46.573924 17.425632
v 17.111330 46.589647 17.269979
v 16.725555 24.413885 16.726113
v 17.413891 24.344829 20.737723
v 13.596998 24.487065 19.329643
v 17.457169 46.581557 16.982178
v 17.111330 46.589647 17.269979
v 17.533260 46.573924 17.425632
v 17.413891 24.344829 20.737723
v 20.542448 24.271649 18.134192
v 17.879099 46.565834 17.137831
v 17.533260 46.573924 17.425632
v 16.725555 24.413885 16.726113
v 20.542448 24.271649 18.134192
v 17.413891 24.344829 20.737723
v 17.457169 46.581557 16.982178
v 17.533260 46.573924 17.425632
v 17.879099 46.565834 17.137831
v 20.542448 24.271649 18.134192
v 19.854111 24.340706 14.122582
v 17.803008 46.573468 16.694376
v 17.879099 46.565834 17.137831
v 16.725555 24.413885 16.726113
v 19.854111 24.340706 14.122582
v 20.542448 24.271649 18.134192
v 17.457169 46.581557 16.982178
v 17.879099 46.565834 17.137831
v 17.803008 46.573468 16.694376
v 19.854111 24.340706 14.122582
v 16.037218 24.482942 12.714502
v 17.381078 46.589191 16.538723
v 17.803008 46.573468 16.694376
v 16.725555 24.413885 16.726113
v 16.037218 24.482942 12.714502
v 19.854111 24.340706 14.122582
v 17.457169 46.581557 16.982178
v 17.803008 46.573468 16.694376
v 17.381078 46.589191 16.538723
v -5.911892 31.609269 9.110921
v -9.132652 31.316658 12.946293
v -9.175160 60.805281 12.173509
v -8.886266 60.831528 11.829487
v -4.258710 32.123527 13.819586
v -9.132652 31.316658 12.946293
v -5.911892 31.609269 9.110921
v -8.737980 60.877655 12.251842
v -8.886266 60.831528 11.829487
v -9.175160 60.805281 12.173509
v -9.132652 31.316658 12.946293
v -7.479470 31.830916 17.654958
v -9.026874 60.851409 12.595864
v -9.175160 60.805281 12.173509
v -4.258710 32.123527 13.819586
v -7.479470 31.830916 17.654958
v -9.132652 31.316658 12.946293
v -8.737980 60.877655 12.251842
v -9.175160 60.805281 12.173509
v -9.026874 60.851409 12.595864
v -7.479470 31.830916 17.654958
v -2.605528 32.637785 18.528251
v -8.589694 60.923783 12.674196
v -9.026874 60.851409 12.595864
v -4.258710 32.123527 13.819586
v -2.605528 32.637785 18.528251
v -7.479470 31.830916 17.654958
v -8.737980 60.877655 12.251842
v -9.026874 60.851409 12.595864
v -8.589694 60.923783 12.674196
v -2.605528 32.637785 18.528251
v 0.615233 32.930396 14.692879
v -8.300800 60.950029 12.330174
v -8.589694 60.923783 12.674196
v -4.258710 32.123527 13.819586
v 0.615233 32.930396 14.692879
v -2.605528 32.637785 18.528251
v -8.737980 60.877655 12.251842
v -8.589694 60.923783 12.674196
v -8.300800 60.950029 12.330174
v 0.615233 32.930396 14.692879
v -1.037949 32.416138 9.984215
v -8.449086 60.903902 11.907819
v -8.300800 60.950029 12.330174
v -4.258710 32.123527 13.819586
v -1.037949 32.416138 9.984215
v 0.615233 32.930396 14.692879
v -8.737980 60.877655 12.251842
v -8.300800 60.950029 12.330174
v -8.449086 60.903902 11.907819
v -1.037949 32.416138 9.984215
v -5.911892 31.609269 9.110921
v -8.886266 60.831528 11.829487
v -8.449086 60.903902 11.907819
v -4.258710 32.123527 13.819586
v -5.911892 31.609269 9.110921
v -1.037949 32.416138 9.984215
v -8.737980 60.877655 12.251842
v -8.449086 60.903902 11.907819
v -8.886266 60.831528 11.829487
v -27.742888 25.155366 1.527533
v -30.646509 25.131528 6.403685
v -25.925325 50.470266 6.298122
v -25.695092 50.472156 5.911484
v -24.972910 25.245052 6.480070
v -30.646509 25.131528 6.403685
v -27.742888 25.155366 1.527533
v -25.475456 50.479267 6.304179
v -25.695092 50.472156 5.911484
v -25.925325 50.470266 6.298122
v -30.646509 25.131528 6.403685
v -27.876531 25.221214 11.356222
v -25.705689 50.477377 6.690817
v -25.925325 50.470266 6.298122
v -24.972910 25.245052 6.480070
v -27.876531 25.221214 11.356222
v -30.646509 25.131528 6.403685
v -25.475456 50.479267 6.304179
v -25.925325 50.470266 6.298122
v -25.705689 50.477377 6.690817
v -27.876531 25.221214 11.356222
v -22.202932 25.334738 11.432607
v -25.255819 50.486379 6.696874
v -25.705689 50.477377 6.690817
v -24.972910 25.245052 6.480070
v -22.202932 25.334738 11.432607
v -27.876531 25.221214 11.356222
v -25.475456 50.479267 6.304179
v -25.705689 50.477377 6.690817
v -25.255819 50.486379 6.696874
v -22.202932 25.334738 11.432607
v -19.299311 25.358575 6.556455
v -25.025586 50.488269 6.310236
v -25.255819 50.486379 6.696874
v -24.972910 25.245052 6.480070
v -19.299311 25.358575 6.556455
v -22.202932 25.334738 11.432607
v -25.475456 50.479267 6.304179
v -25.255819 50.486379 6.696874
v -25.025586 50.488269 6.310236
v -19.299311 25.358575 6.556455
v -22.069289 25.268890 1.603917
v -25.245223 50.481157 5.917541
v -25.025586 50.488269 6.310236
v -24.972910 25.245052 6.480070
v -22.069289 25.268890 1.603917
v -19.299311 25.358575 6.556455
v -25.475456 50.479267 6.304179
v -25.025586 50.488269 6.310236
v -25.245223 50.481157 5.917541
v -22.069289 25.268890 1.603917
v -27.742888 25.155366 1.527533
v -25.695092 50.472156 5.911484
v -25.245223 50.481157 5.917541
v -24.972910 25.245052 6.480070
v -27.742888 25.155366 1.527533
v -22.069289 25.268890 1.603917
v -25.475456 50.479267 6.304179
v -25.245223 50.481157 5.917541
v -25.695092 50.472156 5.911484
v -19.701655 24.876735 -10.092452
v -22.104575 24.882683 -3.842571
v -15.107745 54.768274 -4.526729
v -14.946256 54.767874 -4.946754
v -15.492923 24.710244 -4.887269
v -22.104575 24.882683 -3.842571
v -19.701655 24.876735 -10.092452
v -14.663407 54.756685 -4.596938
v -14.946256 54.767874 -4.946754
v -15.107745 54.768274 -4.526729
v -22.104575 24.882683 -3.842571
v -17.895843 24.716193 1.362613
v -14.824896 54.757085 -4.176913
v -15.107745 54.768274 -4.526729
v -15.492923 24.710244 -4.887269
v -17.895843 24.716193 1.362613
v -22.104575 24.882683 -3.842571
v -14.663407 54.756685 -4.596938
v -15.107745 54.768274 -4.526729
v -14.824896 54.757085 -4.176913
v -17.895843 24.716193 1.362613
v -11.284191 24.543754 0.317915
v -14.380558 54.745496 -4.247122
v -14.824896 54.757085 -4.176913
v -15.492923 24.710244 -4.887269
v -11.284191 24.543754 0.317915
v -17.895843 24.716193 1.362613
v -14.663407 54.756685 -4.596938
v -14.824896 54.757085 -4.176913
v -14.380558 54.745496 -4.247122
v -11.284191 24.543754 0.317915
v -8.881270 24.537806 -5.931966
v -14.219069 54.745096 -4.667147
v -14.380558 54.745496 -4.247122
v -15.492923 24.710244 -4.887269
v -8.881270 24.537806 -5.931966
v -11.284191 24.543754 0.317915
v -14.663407 54.756685 -4.596938
v -14.380558 54.745496 -4.247122
v -14.219069 54.745096 -4.667147
v -8.881270 24.537806 -5.931966
v -13.090002 24.704296 -11.137150
v -14.501918 54.756285 -5.016963
v -14.219069 54.745096 -4.667147
v -15.492923 24.710244 -4.887269
v -13.090002 24.704296 -11.137150
v -8.881270 24.537806 -5.931966
v -14.663407 54.756685 -4.596938
v -14.219069 54.745096 -4.667147
v -14.501918 54.756285 -5.016963
v -13.090002 24.704296 -11.137150
v -19.701655 24.876735 -10.092452
v -14.946256 54.767874 -4.946754
v -14.501918 54.756285 -5.016963
v -15.492923 24.710244 -4.887269
v -19.701655 24.876735 -10.092452
v -13.090002 24.704296 -11.137150
v -14.663407 54.756685 -4.596938
v -14.501918 54.756285 -5.016963
v -14.946256 54.767874 -4.946754
v -8.177191 28.023453 -15.378705
v -9.314988 28.040517 -9.682704
v -4.691119 50.735541 -11.559281
v -4.602972 50.734219 -12.000561
v -3.814205 28.137199 -11.545858
v -9.314988 28.040517 -9.682704
v -8.177191 28.023453 -15.378705
v -4.264963 50.743031 -11.703623
v -4.602972 50.734219 -12.000561
v -4.691119 50.735541 -11.559281
v -9.314988 28.040517 -9.682704
v -4.952002 28.154264 -5.849857
v -4.353110 50.744353 -11.262343
v -4.691119 50.735541 -11.559281
v -3.814205 28.137199 -11.545858
v -4.952002 28.154264 -5.849857
v -9.314988 28.040517 -9.682704
v -4.264963 50.743031 -11.703623
v -4.691119 50.735541 -11.559281
v -4.353110 50.744353 -11.262343
v -4.952002 28.154264 -5.849857
v 0.548780 28.250946 -7.713011
v -3.926954 50.751843 -11.406685
v -4.353110 50.744353 -11.262343
v -3.814205 28.137199 -11.545858
v 0.548780 28.250946 -7.713011
v -4.952002 28.154264 -5.849857
v -4.264963 50.743031 -11.703623
v -4.353110 50.744353 -11.262343
v -3.926954 50.751843 -11.406685
v 0.548780 28.250946 -7.713011
v 1.686578 28.233881 -13.409011
v -3.838806 50.750521 -11.847965
v -3.926954 50.751843 -11.406685
v -3.814205 28.137199 -11.545858
v 1.686578 28.233881 -13.409011
v 0.548780 28.250946 -7.713011
v -4.264963 50.743031 -11.703623
v -3.926954 50.751843 -11.406685
v -3.838806 50.750521 -11.847965
v 1.686578 28.233881 -13.409011
v -2.676408 28.120135 -17.241859
v -4.176815 50.741709 -12.144903
v -3.838806 50.750521 -11.847965
v -3.814205 28.137199 -11.545858
v -2.676408 28.120135 -17.241859
v 1.686578 28.233881 -13.409011
v -4.264963 50.743031 -11.703623
v -3.838806 50.750521 -11.847965
v -4.176815 50.741709 -12.144903
v -2.676408 28.120135 -17.241859
v -8.177191 28.023453 -15.378705
v -4.602972 50.734219 -12.000561
v -4.176815 50.741709 -12.144903
v -3.814205 28.137199 -11.545858
v -8.177191 28.023453 -15.378705
v -2.676408 28.120135 -17.241859
v -4.264963 50.743031 -11.703623
v -4.176815 50.741709 -12.144903
v -4.602972 50.734219 -12.000561
v 7.269593 27.154494 -17.463199
v 7.163791 27.114587 -13.572297
v 11.065085 54.600535 -14.906301
v 11.077316 54.605149 -15.356112
v 10.584789 27.026520 -15.427271
v 7.163791 27.114587 -13.572297
v 7.269593 27.154494 -17.463199
v 11.460571 54.590354 -15.120747
v 11.077316 54.605149 -15.356112
v 11.065085 54.600535 -14.906301
v 7.163791 27.114587 -13.572297
v 10.478987 26.986613 -11.536369
v 11.448340 54.585741 -14.670937
v 11.065085 54.600535 -14.906301
v 10.584789 27.026520 -15.427271
v 10.478987 26.986613 -11.536369
v 7.163791 27.114587 -13.572297
v 11.460571 54.590354 -15.120747
v 11.065085 54.600535 -14.906301
v 11.448340 54.585741 -14.670937
v 10.478987 26.986613 -11.536369
v 13.899984 26.898546 -13.391343
v 11.843826 54.575560 -14.885382
v 11.448340 54.585741 -14.670937
v 10.584789 27.026520 -15.427271
v 13.899984 26.898546 -13.391343
v 10.478987 26.986613 -11.536369
v 11.460571 54.590354 -15.120747
v 11.448340 54.585741 -14.670937
v 11.843826 54.575560 -14.885382
v 13.899984 26.898546 -13.391343
v 14.005786 26.938453 -17.282245
v 11.856058 54.580173 -15.335192
v 11.843826 54.575560 -14.885382
v 10.584789 27.026520 -15.427271
v 14.005786 26.938453 -17.282245
v 13.899984 26.898546 -13.391343
v 11.460571 54.590354 -15.120747
v 11.843826 54.575560 -14.885382
v 11.856058 54.580173 -15.335192
v 14.005786 26.938453 -17.282245
v 10.690590 27.066427 -19.318173
v 11.472802 54.594968 -15.570557
v 11.856058 54.580173 -15.335192
v 10.584789 27.026520 -15.427271
v 10.690590 27.066427 -19.318173
v 14.005786 26.938453 -17.282245
v 11.460571 54.590354 -15.120747
v 11.856058 54.580173 -15.335192
v 11.472802 54.594968 -15.570557
v 10.690590 27.066427 -19.318173
v 7.269593 27.154494 -17.463199
v 11.077316 54.605149 -15.356112
v 11.472802 54.594968 -15.570557
v 10.584789 27.026520 -15.427271
v 7.269593 27.154494 -17.463199
v 10.690590 27.066427 -19.318173
v 11.460571 54.590354 -15.120747
v 11.472802 54.594968 -15.570557
v 11.077316 54.605149 -15.356112
vt 0.500000 1.000000
vt 0.000000 0.000000
vt 1.000000 0.000000
vt 0.000000 0.000000
vt 1.000000 0.000000
vt 1.000000 1.000000
vt 0.000000 1.000000
vt 0.000000 0.000000
vt 1.000000 0.000000
vt 1.000000 1.000000
vt 0.000000 1.000000
vt 0.500000 1.000000
vt 0.000000 0.000000
vt 1.000000 0.000000
vt 0.500000 1.000000
vt 0.000000 0.000000
vt 1.000000 0.000000
vt 0.000000 0.000000
vt 1.000000 0.000000
vt 1.000000 1.000000
vt 0.000000 1.000000
vt 0.000000 0.000000
vt 1.000000 0.000000
vt 1.000000 1.000000
vt 0.000000 1.000000
vt 0.500000 1.000000
vt 0.000000 0.000000
vt 1.000000 0.000000
vt 0.500000 1.000000
vt 0.000000 0.000000
vt 1.000000 0.000000
vt 0.000000 0.000000
vt 1.000000 0.000000
vt 1.000000 1.000000
vt 0.000000 1.000000
vt 0.000000 0.000000
vt 1.000000 0.000000
vt 1.000000 1.000000
vt 0.000000 1.000000
vt 0.500000 1.000000
vt 0.000000 0.000000
vt 1.000000 0.000000
vt 0.500000 1.000000
vt 0.000000 0.000000
vt 1.000000 0.000000
vt 0.000000 0.000000
vt 1.000000 0.000000
vt 1.000000 1.000000
vt 0.000000 1.000000
vt 0.000000 0.000000
vt 1.000000 0.000000
vt 1.000000 1.000000
vt 0.000000 1.000000
vt 0.500000 1.000000
vt 0.000000 0.000000
vt 1.000000 0.000000
vt 0.500000 1.000000
vt 0.000000 0.000000
vt 1.000000 0.000000
vt 0.000000 0.000000
vt 1.000000 0.000000
vt 1.000000 1.000000
vt 0.000000 1.000000
vt 0.000000 0.000000
vt 1.000000 0.000000
vt 1.000000 1.000000
vt 0.000000 1.000000
vt 0.500000 1.000000
vt 0.000000 0.000000
vt 1.000000 0.000000
vt 0.500000 1.000000
vt 0.000000 0.000000
vt 1.000000 0.000000
vt 0.000000 0.000000
vt 1.000000 0.000000
vt 1.000000 1.000000
vt 0.000000 1.000000
vt 0.000000 0.000000
vt 1.000000 0.000000
vt 1.000000 1.000000
vt 0.000000 1.000000
vt 0.500000 1.000000
vt 0.000000 0.000000
vt 1.000000 0.000000
vt 0.500000 1.000000
vt 0.000000 0.000000
vt 1.000000 0.000000
vt 0.000000 0.000000
vt 1.000000 0.000000
vt 1.000000 1.000000
vt 0.000000 1.000000
vt 0.000000 0.000000
vt 1.000000 0.000000
vt 1.000000 1.000000
vt 0.000000 1.000000
vt 0.500000 1.000000
vt 0.000000 0.000000
vt 1.000000 0.000000
vt 0.500000 1.000000
vt 0.000000 0.000000
vt 1.000000 0.000000
vt 0.000000 0.000000
vt 1.000000 0.000000
vt 1.000000 1.000000
vt 0.000000 1.000000
vt 0.000000 0.000000
vt 1.000000 0.000000
vt 1.000000 1.000000
vt 0.000000 1.000000
vt 0.500000 1.000000
vt 0.000000 0.000000
vt 1.000000 0.000000
vt 0.500000 1.000000
vt 0.000000 0.000000
vt 1.000000 0.000000
vt 0.000000 0.000000
vt 1.000000 0.000000
vt 1.000000 1.000000
vt 0.000000 1.000000
vt 0.000000 0.000000
vt 1.000000 0.000000
vt 1.000000 1.000000
vt 0.000000 1.000000
vt 0.500000 1.000000
vt 0.000000 0.000000
vt 1.000000 0.000000
vt 0.500000 1.000000
vt 0.000000 0.000000
vt 1.000000 0.000000
vt 0.000000 0.000000
vt 1.000000 0.000000
vt 1.000000 1.000000
vt 0.000000 1.000000
vt 0.000000 0.000000
vt 1.000000 0.000000
vt 1.000000 1.000000
vt 0.000000 1.000000
vt 0.500000 1.000000
vt 0.000000 0.000000
vt 1.000000 0.000000
vt 0.000000 0.000000
vt 1.000000 0.000000
vt 1.000000 1.000000
vt 0.000000 1.000000
vt 0.500000 1.000000
vt 0.000000 0.000000
vt 1.000000 0.000000
vt 0.500000 1.000000
vt 0.000000 0.000000
vt 1.000000 0.000000
vt 0.000000 0.000000
vt 1.000000 0.000000
vt 1.000000 1.000000
vt 0.000000 1.000000
vt 0.500000 1.000000
vt 0.000000 0.000000
vt 1.000000 0.000000
vt 0.500000 1.000000
vt 0.000000 0.000000
vt 1.000000 0.000000
vt 0.000000 0.000000
vt 1.000000 0.000000
vt 1.000000 1.000000
vt 0.000000 1.000000
vt 0.500000 1.000000
vt 0.000000 0.000000
vt 1.000000 0.000000
vt 0.500000 1.000000
vt 0.000000 0.000000
vt 1.000000 0.000000
vt 0.000000 0.000000
vt 1.000000 0.000000
vt 1.000000 1.000000
vt 0.000000 1.000000
vt 0.500000 1.000000
vt 0.000000 0.000000
vt 1.000000 0.000000
vt 0.500000 1.000000
vt 0.000000 0.000000
vt 1.000000 0.000000
vt 0.000000 0.000000
vt 1.000000 0.000000
vt 1.000000 1.000000
vt 0.000000 1.000000
vt 0.500000 1.000000
vt 0.000000 0.000000
vt 1.000000 0.000000
vt 0.500000 1.000000
vt 0.000000 0.000000
vt 1.000000 0.000000
vt 0.000000 0.000000
vt 1.000000 0.000000
vt 1.000000 1.000000
vt 0.000000 1.000000
vt 0.500000 1.000000
vt 0.000000 0.000000
vt 1.000000 0.000000
vt 0.500000 1.000000
vt 0.000000 0.000000
vt 1.000000 0.000000
vt 0.000000 0.000000
vt 1.000000 0.000000
vt 1.000000 1.000000
vt 0.000000 1.000000
vt 0.500000 1.000000
vt 0.000000 0.000000
vt 1.000000 0.000000
vt 0.500000 1.000000
vt 0.000000 0.000000
vt 1.000000 0.000000
vt 0.000000 0.000000
vt 1.000000 0.000000
vt 1.000000 1.000000
vt 0.000000 1.000000
vt 0.500000 1.000000
vt 0.000000 0.000000
vt 1.000000 0.000000
vt 0.500000 1.000000
vt 0.000000 0.000000
vt 1.000000 0.000000
vt 0.000000 0.000000
vt 1.000000 0.000000
vt 1.000000 1.000000
vt 0.000000 1.000000
vt 0.500000 1.000000
vt 0.000000 0.000000
vt 1.000000 0.000000
vt 0.500000 1.000000
vt 0.000000 0.000000
vt 1.000000 0.000000
vt 0.000000 0.000000
vt 1.000000 0.000000
vt 1.000000 1.000000
vt 0.000000 1.000000
vt 0.500000 1.000000
vt 0.000000 0.000000
vt 1.000000 0.000000
vt 0.500000 1.000000
vt 0.000000 0.000000
vt 1.000000 0.000000
vt 0.000000 0.000000
vt 1.000000 0.000000
vt 1.000000 1.000000
vt 0.000000 1.000000
vt 0.500000 1.000000
vt 0.000000 0.000000
vt 1.000000 0.000000
vt 0.500000 1.000000
vt 0.000000 0.000000
vt 1.000000 0.000000
vt 0.000000 0.000000
vt 1.000000 0.000000
vt 1.000000 1.000000
vt 0.000000 1.000000
vt 0.500000 1.000000
vt 0.000000 0.000000
vt 1.000000 0.000000
vt 0.500000 1.000000
vt 0.000000 0.000000
vt 1.000000 0.000000
vt 0.000000 0.000000
vt 1.000000 0.000000
vt 1.000000 1.000000
vt 0.000000 1.000000
vt 0.500000 1.000000
vt 0.000000 0.000000
vt 1.000000 0.000000
vt 0.500000 1.000000
vt 0.000000 0.000000
vt 1.000000 0.000000
vt 0.000000 0.000000
vt 1.000000 0.000000
vt 1.000000 1.000000
vt 0.000000 1.000000
vt 0.500000 1.000000
vt 0.000000 0.000000
vt 1.000000 0.000000
vt 0.500000 1.000000
vt 0.000000 0.000000
vt 1.000000 0.000000
vt 0.000000 0.000000
vt 1.000000 0.000000
vt 1.000000 1.000000
vt 0.000000 1.000000
vt 0.500000 1.000000
vt 0.000000 0.000000
vt 1.000000 0.000000
vt 0.500000 1.000000
vt 0.000000 0.000000
vt 1.000000 0.000000
vt 0.000000 0.000000
vt 1.000000 0.000000
vt 1.000000 1.000000
vt 0.000000 1.000000
vt 0.500000 1.000000
vt 0.000000 0.000000
vt 1.000000 0.000000
vt 0.500000 1.000000
vt 0.000000 0.000000
vt 1.000000 0.000000
vt 0.000000 0.000000
vt 1.000000 0.000000
vt 1.000000 1.000000
vt 0.000000 1.000000
vt 0.500000 1.000000
vt 0.000000 0.000000
vt 1.000000 0.000000
vt 0.500000 1.000000
vt 0.000000 0.000000
vt 1.000000 0.000000
vt 0.000000 0.000000
vt 1.000000 0.000000
vt 1.000000 1.000000
vt 0.000000 1.000000
vt 0.500000 1.000000
vt 0.000000 0.000000
vt 1.000000 0.000000
vt 0.500000 1.000000
vt 0.000000 0.000000
vt 1.000000 0.000000
vt 0.000000 0.000000
vt 1.000000 0.000000
vt 1.000000 1.000000
vt 0.000000 1.000000
vt 0.500000 1.000000
vt 0.000000 0.000000
vt 1.000000 0.000000
vt 0.500000 1.000000
vt 0.000000 0.000000
vt 1.000000 0.000000
vt 0.000000 0.000000
vt 1.000000 0.000000
vt 1.000000 1.000000
vt 0.000000 1.000000
vt 0.500000 1.000000
vt 0.000000 0.000000
vt 1.000000 0.000000
vt 0.500000 1.000000
vt 0.000000 0.000000
vt 1.000000 0.000000
vt 0.000000 0.000000
vt 1.000000 0.000000
vt 1.000000 1.000000
vt 0.000000 1.000000
vt 0.500000 1.000000
vt 0.000000 0.000000
vt 1.000000 0.000000
vt 0.500000 1.000000
vt 0.000000 0.000000
vt 1.000000 0.000000
vt 0.000000 0.000000
vt 1.000000 0.000000
vt 1.000000 1.000000
vt 0.000000 1.000000
vt 0.500000 1.000000
vt 0.000000 0.000000
vt 1.000000 0.000000
vt 0.500000 1.000000
vt 0.000000 0.000000
vt 1.000000 0.000000
vt 0.000000 0.000000
vt 1.000000 0.000000
vt 1.000000 1.000000
vt 0.000000 1.000000
vt 0.500000 1.000000
vt 0.000000 0.000000
vt 1.000000 0.000000
vt 0.500000 1.000000
vt 0.000000 0.000000
vt 1.000000 0.000000
vt 0.000000 0.000000
vt 1.000000 0.000000
vt 1.000000 1.000000
vt 0.000000 1.000000
vt 0.500000 1.000000
vt 0.000000 0.000000
vt 1.000000 0.000000
vt 0.500000 1.000000
vt 0.000000 0.000000
vt 1.000000 0.000000
vt 0.000000 0.000000
vt 1.000000 0.000000
vt 1.000000 1.000000
vt 0.000000 1.000000
vt 0.500000 1.000000
vt 0.000000 0.000000
vt 1.000000 0.000000
vt 0.500000 1.000000
vt 0.000000 0.000000
vt 1.000000 0.000000
vt 0.000000 0.000000
vt 1.000000 0.000000
vt 1.000000 1.000000
vt 0.000000 1.000000
vt 0.500000 1.000000
vt 0.000000 0.000000
vt 1.000000 0.000000
vt 0.500000 1.000000
vt 0.000000 0.000000
vt 1.000000 0.000000
vt 0.000000 0.000000
vt 1.000000 0.000000
vt 1.000000 1.000000
vt 0.000000 1.000000
vt 0.500000 1.000000
vt 0.000000 0.000000
vt 1.000000 0.000000
vt 0.500000 1.000000
vt 0.000000 0.000000
vt 1.000000 0.000000
vt 0.000000 0.000000
vt 1.000000 0.000000
vt 1.000000 1.000000
vt 0.000000 1.000000
vt 0.500000 1.000000
vt 0.000000 0.000000
vt 1.000000 0.000000
vt 0.500000 1.000000
vt 0.000000 0.000000
vt 1.000000 0.000000
vt 0.000000 0.000000
vt 1.000000 0.000000
vt 1.000000 1.000000
vt 0.000000 1.000000
vt 0.500000 1.000000
vt 0.000000 0.000000
vt 1.000000 0.000000
vt 0.500000 1.000000
vt 0.000000 0.000000
vt 1.000000 0.000000
vt 0.000000 0.000000
vt 1.000000 0.000000
vt 1.000000 1.000000
vt 0.000000 1.000000
vt 0.500000 1.000000
vt 0.000000 0.000000
vt 1.000000 0.000000
vt 0.500000 1.000000
vt 0.000000 0.000000
vt 1.000000 0.000000
vt 0.000000 0.000000
vt 1.000000 0.000000
vt 1.000000 1.000000
vt 0.000000 1.000000
vt 0.500000 1.000000
vt 0.000000 0.000000
vt 1.000000 0.000000
vt 0.500000 1.000000
vt 0.000000 0.000000
vt 1.000000 0.000000
vt 0.000000 0.000000
vt 1.000000 0.000000
vt 1.000000 1.000000
vt 0.000000 1.000000
vt 0.500000 1.000000
vt 0.000000 0.000000
vt 1.000000 0.000000
vt 0.500000 1.000000
vt 0.000000 0.000000
vt 1.000000 0.000000
vt 0.000000 0.000000
vt 1.000000 0.000000
vt 1.000000 1.000000
vt 0.000000 1.000000
vt 0.500000 1.000000
vt 0.000000 0.000000
vt 1.000000 0.000000
vt 0.500000 1.000000
vt 0.000000 0.000000
vt 1.000000 0.000000
vt 0.000000 0.000000
vt 1.000000 0.000000
vt 1.000000 1.000000
vt 0.000000 1.000000
vt 0.500000 1.000000
vt 0.000000 0.000000
vt 1.000000 0.000000
vt 0.500000 1.000000
vt 0.000000 0.000000
vt 1.000000 0.000000
vt 0.000000 0.000000
vt 1.000000 0.000000
vt 1.000000 1.000000
vt 0.000000 1.000000
vt 0.500000 1.000000
vt 0.000000 0.000000
vt 1.000000 0.000000
vt 0.500000 1.000000
vt 0.000000 0.000000
vt 1.000000 0.000000
vt 0.000000 0.000000
vt 1.000000 0.000000
vt 1.000000 1.000000
vt 0.000000 1.000000
vt 0.500000 1.000000
vt 0.000000 0.000000
vt 1.000000 0.000000
vt 0.500000 1.000000
vt 0.000000 0.000000
vt 1.000000 0.000000
vt 0.000000 0.000000
vt 1.000000 0.000000
vt 1.000000 1.000000
vt 0.000000 1.000000
vt 0.500000 1.000000
vt 0.000000 0.000000
vt 1.000000 0.000000
vt 0.500000 1.000000
vt 0.000000 0.000000
vt 1.000000 0.000000
vt 0.000000 0.000000
vt 1.000000 0.000000
vt 1.000000 1.000000
vt 0.000000 1.000000
vt 0.500000 1.000000
vt 0.000000 0.000000
vt 1.000000 0.000000
vt 0.500000 1.000000
vt 0.000000 0.000000
vt 1.000000 0.000000
vt 0.000000 0.000000
vt 1.000000 0.000000
vt 1.000000 1.000000
vt 0.000000 1.000000
vt 0.500000 1.000000
vt 0.000000 0.000000
vt 1.000000 0.000000
vt 0.500000 1.000000
vt 0.000000 0.000000
vt 1.000000 0.000000
vt 0.000000 0.000000
vt 1.000000 0.000000
vt 1.000000 1.000000
vt 0.000000 1.000000
vt 0.500000 1.000000
vt 0.000000 0.000000
vt 1.000000 0.000000
vt 0.500000 1.000000
vt 0.000000 0.000000
vt 1.000000 0.000000
vt 0.000000 0.000000
vt 1.000000 0.000000
vt 1.000000 1.000000
vt 0.000000 1.000000
vt 0.500000 1.000000
vt 0.000000 0.000000
vt 1.000000 0.000000
vt 0.500000 1.000000
vt 0.000000 0.000000
vt 1.000000 0.000000
vt 0.000000 0.000000
vt 1.000000 0.000000
vt 1.000000 1.000000
vt 0.000000 1.000000
vt 0.500000 1.000000
vt 0.000000 0.000000
vt 1.000000 0.000000
vt 0.500000 1.000000
vt 0.000000 0.000000
vt 1.000000 0.000000
s 1
usemtl models/caelum/world/environment/rock_granite.png
f 1/1 2/2 3/3
f 4/4 5/5 6/6 7/7
f 8/8 9/9 10/10 11/11
f 12/12 13/13 14/14
f 15/15 16/16 17/17
f 18/18 19/19 20/20 21/21
f 22/22 23/23 24/24 25/25
f 26/26 27/27 28/28
f 29/29 30/30 31/31
f 32/32 33/33 34/34 35/35
f 36/36 37/37 38/38 39/39
f 40/40 41/41 42/42
f 43/43 44/44 45/45
f 46/46 47/47 48/48 49/49
f 50/50 51/51 52/52 53/53
f 54/54 55/55 56/56
f 57/57 58/58 59/59
f 60/60 61/61 62/62 63/63
f 64/64 65/65 66/66 67/67
f 68/68 69/69 70/70
f 71/71 72/72 73/73
f 74/74 75/75 76/76 77/77
f 78/78 79/79 80/80 81/81
f 82/82 83/83 84/84
f 85/85 86/86 87/87
f 88/88 89/89 90/90 91/91
f 92/92 93/93 94/94 95/95
f 96/96 97/97 98/98
f 99/99 100/100 101/101
f 102/102 103/103 104/104 105/105
f 106/106 107/107 108/108 109/109
f 110/110 111/111 112/112
f 113/113 114/114 115/115
f 116/116 117/117 118/118 119/119
f 120/120 121/121 122/122 123/123
f 124/124 125/125 126/126
f 127/127 128/128 129/129
f 130/130 131/131 132/132 133/133
f 134/134 135/135 136/136 137/137
f 138/138 139/139 140/140
usemtl models/caelum/world/resources/ca_vein_topaz.png
f 141/141 142/142 143/143 144/144
f 145/145 146/146 147/147
f 148/148 149/149 150/150
f 151/151 152/152 153/153 154/154
f 155/155 156/156 157/157
f 158/158 159/159 160/160
f 161/161 162/162 163/163 164/164
f 165/165 166/166 167/167
f 168/168 169/169 170/170
f 171/171 172/172 173/173 174/174
f 175/175 176/176 177/177
f 178/178 179/179 180/180
f 181/181 182/182 183/183 184/184
f 185/185 186/186 187/187
f 188/188 189/189 190/190
f 191/191 192/192 193/193 194/194
f 195/195 196/196 197/197
f 198/198 199/199 200/200
f 201/201 202/202 203/203 204/204
f 205/205 206/206 207/207
f 208/208 209/209 210/210
f 211/211 212/212 213/213 214/214
f 215/215 216/216 217/217
f 218/218 219/219 220/220
f 221/221 222/222 223/223 224/224
f 225/225 226/226 227/227
f 228/228 229/229 230/230
f 231/231 232/232 233/233 234/234
f 235/235 236/236 237/237
f 238/238 239/239 240/240
f 241/241 242/242 243/243 244/244
f 245/245 246/246 247/247
f 248/248 249/249 250/250
f 251/251 252/252 253/253 254/254
f 255/255 256/256 257/257
f 258/258 259/259 260/260
f 261/261 262/262 263/263 264/264
f 265/265 266/266 267/267
f 268/268 269/269 270/270
f 271/271 272/272 273/273 274/274
f 275/275 276/276 277/277
f 278/278 279/279 280/280
f 281/281 282/282 283/283 284/284
f 285/285 286/286 287/287
f 288/288 289/289 290/290
f 291/291 292/292 293/293 294/294
f 295/295 296/296 297/297
f 298/298 299/299 300/300
f 301/301 302/302 303/303 304/304
f 305/305 306/306 307/307
f 308/308 309/309 310/310
f 311/311 312/312 313/313 314/314
f 315/315 316/316 317/317
f 318/318 319/319 320/320
f 321/321 322/322 323/323 324/324
f 325/325 326/326 327/327
f 328/328 329/329 330/330
f 331/331 332/332 333/333 334/334
f 335/335 336/336 337/337
f 338/338 339/339 340/340
f 341/341 342/342 343/343 344/344
f 345/345 346/346 347/347
f 348/348 349/349 350/350
f 351/351 352/352 353/353 354/354
f 355/355 356/356 357/357
f 358/358 359/359 360/360
f 361/361 362/362 363/363 364/364
f 365/365 366/366 367/367
f 368/368 369/369 370/370
f 371/371 372/372 373/373 374/374
f 375/375 376/376 377/377
f 378/378 379/379 380/380
f 381/381 382/382 383/383 384/384
f 385/385 386/386 387/387
f 388/388 389/389 390/390
f 391/391 392/392 393/393 394/394
f 395/395 396/396 397/397
f 398/398 399/399 400/400
f 401/401 402/402 403/403 404/404
f 405/405 406/406 407/407
f 408/408 409/409 410/410
f 411/411 412/412 413/413 414/414
f 415/415 416/416 417/417
f 418/418 419/419 420/420
f 421/421 422/422 423/423 424/424
f 425/425 426/426 427/427
f 428/428 429/429 430/430
f 431/431 432/432 433/433 434/434
f 435/435 436/436 437/437
f 438/438 439/439 440/440
f 441/441 442/442 443/443 444/444
f 445/445 446/446 447/447
f 448/448 449/449 450/450
f 451/451 452/452 453/453 454/454
f 455/455 456/456 457/457
f 458/458 459/459 460/460
f 461/461 462/462 463/463 464/464
f 465/465 466/466 467/467
f 468/468 469/469 470/470
f 471/471 472/472 473/473 474/474
f 475/475 476/476 477/477
f 478/478 479/479 480/480
f 481/481 482/482 483/483 484/484
f 485/485 486/486 487/487
f 488/488 489/489 490/490
f 491/491 492/492 493/493 494/494
f 495/495 496/496 497/497
f 498/498 499/499 500/500
f 501/501 502/502 503/503 504/504
f 505/505 506/506 507/507
f 508/508 509/509 510/510
f 511/511 512/512 513/513 514/514
f 515/515 516/516 517/517
f 518/518 519/519 520/520
f 521/521 522/522 523/523 524/524
f 525/525 526/526 527/527
f 528/528 529/529 530/530
f 531/531 532/532 533/533 534/534
f 535/535 536/536 537/537
f 538/538 539/539 540/540
f 541/541 542/542 543/543 544/544
f 545/545 546/546 547/547
f 548/548 549/549 550/550
f 551/551 552/552 553/553 554/554
f 555/555 556/556 557/557
f 558/558 559/559 560/560
