# Modelo original generado para Caelum Argenteum.
# Ejes OBJ: X ancho, Y altura, Z profundidad.
o ca_vein_coal
v 0.000000 0.000000 0.000000
v 31.413833 -1.123537 0.000000
v 33.406287 0.174626 20.961394
v 31.413833 -1.123537 0.000000
v 43.309578 16.537361 0.000000
v 40.922143 16.352748 25.677358
v 33.406287 0.174626 20.961394
v 43.309578 16.537361 0.000000
v 32.746035 36.327832 0.000000
v 21.717368 36.918825 13.626965
v 40.922143 16.352748 25.677358
v -2.259190 52.000000 -8.506889
v 21.717368 36.918825 13.626965
v 32.746035 36.327832 0.000000
v 0.000000 0.000000 0.000000
v 33.406287 0.174626 20.961394
v 10.795402 1.320064 28.694172
v 33.406287 0.174626 20.961394
v 40.922143 16.352748 25.677358
v 11.593139 15.296324 30.814556
v 10.795402 1.320064 28.694172
v 40.922143 16.352748 25.677358
v 21.717368 36.918825 13.626965
v 11.771871 34.095335 31.289627
v 11.593139 15.296324 30.814556
v -2.259190 52.000000 -8.506889
v 11.771871 34.095335 31.289627
v 21.717368 36.918825 13.626965
v 0.000000 0.000000 0.000000
v 10.795402 1.320064 28.694172
v -11.581881 1.419447 30.784632
v 10.795402 1.320064 28.694172
v 11.593139 15.296324 30.814556
v -12.019535 16.654921 31.947916
v -11.581881 1.419447 30.784632
v 11.593139 15.296324 30.814556
v 11.771871 34.095335 31.289627
v -11.504775 33.579061 30.579686
v -12.019535 16.654921 31.947916
v -2.259190 52.000000 -8.506889
v -11.504775 33.579061 30.579686
v 11.771871 34.095335 31.289627
v 0.000000 0.000000 0.000000
v -11.581881 1.419447 30.784632
v -30.327518 -0.158391 19.029563
v -11.581881 1.419447 30.784632
v -12.019535 16.654921 31.947916
v -32.705215 17.811197 20.521493
v -30.327518 -0.158391 19.029563
v -12.019535 16.654921 31.947916
v -11.504775 33.579061 30.579686
v -30.971473 36.768623 19.433625
v -32.705215 17.811197 20.521493
v -2.259190 52.000000 -8.506889
v -30.971473 36.768623 19.433625
v -11.504775 33.579061 30.579686
v 0.000000 0.000000 0.000000
v -30.327518 -0.158391 19.029563
v -41.816849 -1.395267 0.000000
v -30.327518 -0.158391 19.029563
v -32.705215 17.811197 20.521493
v -41.185611 14.870477 0.000000
v -41.816849 -1.395267 0.000000
v -32.705215 17.811197 20.521493
v -30.971473 36.768623 19.433625
v -36.778644 34.927379 0.000000
v -41.185611 14.870477 0.000000
v -2.259190 52.000000 -8.506889
v -36.778644 34.927379 0.000000
v -30.971473 36.768623 19.433625
v 0.000000 0.000000 0.000000
v -41.816849 -1.395267 0.000000
v -29.203446 -1.626448 -18.324244
v -41.816849 -1.395267 0.000000
v -41.185611 14.870477 0.000000
v -39.616870 17.301807 -24.858340
v -29.203446 -1.626448 -18.324244
v -41.185611 14.870477 0.000000
v -36.778644 34.927379 0.000000
v -27.664518 37.168086 -17.358615
v -39.616870 17.301807 -24.858340
v -2.259190 52.000000 -8.506889
v -27.664518 37.168086 -17.358615
v -36.778644 34.927379 0.000000
v 0.000000 0.000000 0.000000
v -29.203446 -1.626448 -18.324244
v -10.068647 0.373080 -26.762457
v -29.203446 -1.626448 -18.324244
v -39.616870 17.301807 -24.858340
v -13.608402 16.994071 -36.171124
v -10.068647 0.373080 -26.762457
v -39.616870 17.301807 -24.858340
v -27.664518 37.168086 -17.358615
v -11.244515 34.778421 -29.887914
v -13.608402 16.994071 -36.171124
v -2.259190 52.000000 -8.506889
v -11.244515 34.778421 -29.887914
v -27.664518 37.168086 -17.358615
v 0.000000 0.000000 0.000000
v -10.068647 0.373080 -26.762457
v 13.114616 1.666661 -34.858641
v -10.068647 0.373080 -26.762457
v -13.608402 16.994071 -36.171124
v 15.240144 16.840948 -40.508293
v 13.114616 1.666661 -34.858641
v -13.608402 16.994071 -36.171124
v -11.244515 34.778421 -29.887914
v 10.031861 36.249123 -26.664681
v 15.240144 16.840948 -40.508293
v -2.259190 52.000000 -8.506889
v 10.031861 36.249123 -26.664681
v -11.244515 34.778421 -29.887914
v 0.000000 0.000000 0.000000
v 13.114616 1.666661 -34.858641
v 24.804169 0.171208 -15.563836
v 13.114616 1.666661 -34.858641
v 15.240144 16.840948 -40.508293
v 37.624223 16.206388 -23.608017
v 24.804169 0.171208 -15.563836
v 15.240144 16.840948 -40.508293
v 10.031861 36.249123 -26.664681
v 28.671992 36.708064 -17.990773
v 37.624223 16.206388 -23.608017
v -2.259190 52.000000 -8.506889
v 28.671992 36.708064 -17.990773
v 10.031861 36.249123 -26.664681
v 0.000000 0.000000 0.000000
v 24.804169 0.171208 -15.563836
v 31.413833 -1.123537 0.000000
v 24.804169 0.171208 -15.563836
v 37.624223 16.206388 -23.608017
v 43.309578 16.537361 0.000000
v 31.413833 -1.123537 0.000000
v 37.624223 16.206388 -23.608017
v 28.671992 36.708064 -17.990773
v 32.746035 36.327832 0.000000
v 43.309578 16.537361 0.000000
v -2.259190 52.000000 -8.506889
v 32.746035 36.327832 0.000000
v 28.671992 36.708064 -17.990773
v 29.534369 29.900351 -3.572363
v 33.262854 32.490737 2.053445
v 36.028411 31.847893 -3.572363
v 36.028411 31.847893 -3.572363
v 33.262854 32.490737 2.053445
v 33.025082 36.502997 1.694677
v 35.639211 36.837101 -3.572363
v 29.534369 38.682611 -3.572363
v 35.639211 36.837101 -3.572363
v 33.025082 36.502997 1.694677
v 29.534369 29.900351 -3.572363
v 28.212687 32.011556 3.395462
v 33.262854 32.490737 2.053445
v 33.262854 32.490737 2.053445
v 28.212687 32.011556 3.395462
v 28.228534 36.289426 3.311916
v 33.025082 36.502997 1.694677
v 29.534369 38.682611 -3.572363
v 33.025082 36.502997 1.694677
v 28.228534 36.289426 3.311916
v 29.534369 29.900351 -3.572363
v 24.294273 31.942594 -0.535876
v 28.212687 32.011556 3.395462
v 28.212687 32.011556 3.395462
v 24.294273 31.942594 -0.535876
v 24.064623 36.670526 -0.402800
v 28.228534 36.289426 3.311916
v 29.534369 38.682611 -3.572363
v 28.228534 36.289426 3.311916
v 24.064623 36.670526 -0.402800
v 29.534369 29.900351 -3.572363
v 24.289733 32.009785 -6.611482
v 24.294273 31.942594 -0.535876
v 24.294273 31.942594 -0.535876
v 24.289733 32.009785 -6.611482
v 24.298296 36.324406 -6.606520
v 24.064623 36.670526 -0.402800
v 29.534369 38.682611 -3.572363
v 24.064623 36.670526 -0.402800
v 24.298296 36.324406 -6.606520
v 29.534369 29.900351 -3.572363
v 28.220227 31.769196 -10.500436
v 24.289733 32.009785 -6.611482
v 24.289733 32.009785 -6.611482
v 28.220227 31.769196 -10.500436
v 28.037481 36.530763 -11.463867
v 24.298296 36.324406 -6.606520
v 29.534369 38.682611 -3.572363
v 24.298296 36.324406 -6.606520
v 28.037481 36.530763 -11.463867
v 29.534369 29.900351 -3.572363
v 33.688982 32.112606 -9.841144
v 28.220227 31.769196 -10.500436
v 28.220227 31.769196 -10.500436
v 33.688982 32.112606 -9.841144
v 34.134579 36.145596 -10.513494
v 28.037481 36.530763 -11.463867
v 29.534369 38.682611 -3.572363
v 28.037481 36.530763 -11.463867
v 34.134579 36.145596 -10.513494
v 29.534369 29.900351 -3.572363
v 36.028411 31.847893 -3.572363
v 33.688982 32.112606 -9.841144
v 33.688982 32.112606 -9.841144
v 36.028411 31.847893 -3.572363
v 35.639211 36.837101 -3.572363
v 34.134579 36.145596 -10.513494
v 29.534369 38.682611 -3.572363
v 34.134579 36.145596 -10.513494
v 35.639211 36.837101 -3.572363
v 30.541638 20.109051 21.094530
v 34.889557 22.918273 25.274657
v 36.327063 23.165283 21.094530
v 36.327063 23.165283 21.094530
v 34.889557 22.918273 25.274657
v 34.273005 29.404716 24.681898
v 37.936261 30.299814 21.094530
v 30.541638 33.029234 21.094530
v 37.936261 30.299814 21.094530
v 34.273005 29.404716 24.681898
v 30.541638 20.109051 21.094530
v 29.052534 23.683425 26.096616
v 34.889557 22.918273 25.274657
v 34.889557 22.918273 25.274657
v 29.052534 23.683425 26.096616
v 28.950131 29.901131 26.440599
v 34.273005 29.404716 24.681898
v 30.541638 33.029234 21.094530
v 34.273005 29.404716 24.681898
v 28.950131 29.901131 26.440599
v 30.541638 20.109051 21.094530
v 24.111748 23.161864 23.468589
v 29.052534 23.683425 26.096616
v 29.052534 23.683425 26.096616
v 24.111748 23.161864 23.468589
v 25.714646 30.067412 22.876763
v 28.950131 29.901131 26.440599
v 30.541638 33.029234 21.094530
v 28.950131 29.901131 26.440599
v 25.714646 30.067412 22.876763
v 30.541638 20.109051 21.094530
v 24.326626 23.645778 18.799809
v 24.111748 23.161864 23.468589
v 24.111748 23.161864 23.468589
v 24.326626 23.645778 18.799809
v 24.645150 29.895189 18.917415
v 25.714646 30.067412 22.876763
v 30.541638 33.029234 21.094530
v 25.714646 30.067412 22.876763
v 24.645150 29.895189 18.917415
v 30.541638 20.109051 21.094530
v 29.024473 23.313216 15.998184
v 24.326626 23.645778 18.799809
v 24.326626 23.645778 18.799809
v 29.024473 23.313216 15.998184
v 29.389002 29.964974 17.222681
v 24.645150 29.895189 18.917415
v 30.541638 33.029234 21.094530
v 24.645150 29.895189 18.917415
v 29.389002 29.964974 17.222681
v 30.541638 20.109051 21.094530
v 34.723773 23.362987 17.073790
v 29.024473 23.313216 15.998184
v 29.024473 23.313216 15.998184
v 34.723773 23.362987 17.073790
v 33.779088 29.638514 17.982017
v 29.389002 29.964974 17.222681
v 30.541638 33.029234 21.094530
v 29.389002 29.964974 17.222681
v 33.779088 29.638514 17.982017
v 30.541638 20.109051 21.094530
v 36.327063 23.165283 21.094530
v 34.723773 23.362987 17.073790
v 34.723773 23.362987 17.073790
v 36.327063 23.165283 21.094530
v 37.936261 30.299814 21.094530
v 33.779088 29.638514 17.982017
v 30.541638 33.029234 21.094530
v 33.779088 29.638514 17.982017
v 37.936261 30.299814 21.094530
v 5.464503 9.970382 21.804161
v 9.017626 12.869084 27.247711
v 12.223817 13.214144 21.804161
v 12.223817 13.214144 21.804161
v 9.017626 12.869084 27.247711
v 10.389164 19.509174 29.348970
v 12.312217 19.718403 21.804161
v 5.464503 23.265108 21.804161
v 12.312217 19.718403 21.804161
v 10.389164 19.509174 29.348970
v 5.464503 9.970382 21.804161
v 3.763177 13.614853 30.911203
v 9.017626 12.869084 27.247711
v 9.017626 12.869084 27.247711
v 3.763177 13.614853 30.911203
v 3.761860 20.412777 30.918252
v 10.389164 19.509174 29.348970
v 5.464503 23.265108 21.804161
v 10.389164 19.509174 29.348970
v 3.761860 20.412777 30.918252
v 5.464503 9.970382 21.804161
v 0.319664 13.769257 24.831239
v 3.763177 13.614853 30.911203
v 3.763177 13.614853 30.911203
v 0.319664 13.769257 24.831239
v 0.238138 19.467184 24.879207
v 3.761860 20.412777 30.918252
v 5.464503 23.265108 21.804161
v 3.761860 20.412777 30.918252
v 0.238138 19.467184 24.879207
v 5.464503 9.970382 21.804161
v -1.846797 13.488844 17.502399
v 0.319664 13.769257 24.831239
v 0.319664 13.769257 24.831239
v -1.846797 13.488844 17.502399
v -1.271858 19.533168 17.840677
v 0.238138 19.467184 24.879207
v 5.464503 23.265108 21.804161
v 0.238138 19.467184 24.879207
v -1.271858 19.533168 17.840677
v 5.464503 9.970382 21.804161
v 3.862007 13.126748 13.226147
v -1.846797 13.488844 17.502399
v -1.846797 13.488844 17.502399
v 3.862007 13.126748 13.226147
v 3.929695 19.563126 13.588472
v -1.271858 19.533168 17.840677
v 5.464503 23.265108 21.804161
v -1.271858 19.533168 17.840677
v 3.929695 19.563126 13.588472
v 5.464503 9.970382 21.804161
v 10.298209 13.070223 14.398698
v 3.862007 13.126748 13.226147
v 3.862007 13.126748 13.226147
v 10.298209 13.070223 14.398698
v 9.730208 19.992646 15.268902
v 3.929695 19.563126 13.588472
v 5.464503 23.265108 21.804161
v 3.929695 19.563126 13.588472
v 9.730208 19.992646 15.268902
v 5.464503 9.970382 21.804161
v 12.223817 13.214144 21.804161
v 10.298209 13.070223 14.398698
v 10.298209 13.070223 14.398698
v 12.223817 13.214144 21.804161
v 12.312217 19.718403 21.804161
v 9.730208 19.992646 15.268902
v 5.464503 23.265108 21.804161
v 9.730208 19.992646 15.268902
v 12.312217 19.718403 21.804161
v -12.175499 17.660884 26.426489
v -8.501033 21.274166 30.875347
v -5.533049 20.925344 26.426489
v -5.533049 20.925344 26.426489
v -8.501033 21.274166 30.875347
v -8.011463 27.290414 31.468094
v -5.900768 27.122593 26.426489
v -12.175499 30.985405 26.426489
v -5.900768 27.122593 26.426489
v -8.011463 27.290414 31.468094
v -12.175499 17.660884 26.426489
v -13.445231 20.707903 31.797846
v -8.501033 21.274166 30.875347
v -8.501033 21.274166 30.875347
v -13.445231 20.707903 31.797846
v -13.644133 27.277642 32.639265
v -8.011463 27.290414 31.468094
v -12.175499 30.985405 26.426489
v -8.011463 27.290414 31.468094
v -13.644133 27.277642 32.639265
v -12.175499 17.660884 26.426489
v -18.317689 20.416967 29.282483
v -13.445231 20.707903 31.797846
v -13.445231 20.707903 31.797846
v -18.317689 20.416967 29.282483
v -18.946305 28.000372 29.574777
v -13.644133 27.277642 32.639265
v -12.175499 30.985405 26.426489
v -13.644133 27.277642 32.639265
v -18.946305 28.000372 29.574777
v -12.175499 17.660884 26.426489
v -18.193433 21.094184 23.628272
v -18.317689 20.416967 29.282483
v -18.317689 20.416967 29.282483
v -18.193433 21.094184 23.628272
v -18.534239 27.713408 23.469804
v -18.946305 28.000372 29.574777
v -12.175499 30.985405 26.426489
v -18.946305 28.000372 29.574777
v -18.534239 27.713408 23.469804
v -12.175499 17.660884 26.426489
v -13.766240 21.056865 19.697166
v -18.193433 21.094184 23.628272
v -18.193433 21.094184 23.628272
v -13.766240 21.056865 19.697166
v -13.670110 27.635950 20.103822
v -18.534239 27.713408 23.469804
v -12.175499 30.985405 26.426489
v -18.534239 27.713408 23.469804
v -13.670110 27.635950 20.103822
v -12.175499 17.660884 26.426489
v -8.645235 21.210150 22.152224
v -13.766240 21.056865 19.697166
v -13.766240 21.056865 19.697166
v -8.645235 21.210150 22.152224
v -8.626651 27.774338 22.129723
v -13.670110 27.635950 20.103822
v -12.175499 30.985405 26.426489
v -13.670110 27.635950 20.103822
v -8.626651 27.774338 22.129723
v -12.175499 17.660884 26.426489
v -5.533049 20.925344 26.426489
v -8.645235 21.210150 22.152224
v -8.645235 21.210150 22.152224
v -5.533049 20.925344 26.426489
v -5.900768 27.122593 26.426489
v -8.626651 27.774338 22.129723
v -12.175499 30.985405 26.426489
v -8.626651 27.774338 22.129723
v -5.900768 27.122593 26.426489
v -25.466788 12.702612 11.035675
v -21.886083 14.417674 16.474015
v -17.849470 14.959575 11.035675
v -17.849470 14.959575 11.035675
v -21.886083 14.417674 16.474015
v -22.017489 18.666737 16.274437
v -19.105699 18.573455 11.035675
v -25.466788 20.897495 11.035675
v -19.105699 18.573455 11.035675
v -22.017489 18.666737 16.274437
v -25.466788 12.702612 11.035675
v -26.707249 14.949304 17.618297
v -21.886083 14.417674 16.474015
v -21.886083 14.417674 16.474015
v -26.707249 14.949304 17.618297
v -26.761467 18.769698 17.906012
v -22.017489 18.666737 16.274437
v -25.466788 20.897495 11.035675
v -22.017489 18.666737 16.274437
v -26.761467 18.769698 17.906012
v -25.466788 12.702612 11.035675
v -30.479125 15.100623 13.959275
v -26.707249 14.949304 17.618297
v -26.707249 14.949304 17.618297
v -30.479125 15.100623 13.959275
v -32.124834 19.046864 14.919185
v -26.761467 18.769698 17.906012
v -25.466788 20.897495 11.035675
v -26.761467 18.769698 17.906012
v -32.124834 19.046864 14.919185
v -25.466788 12.702612 11.035675
v -30.377789 14.570725 8.171182
v -30.479125 15.100623 13.959275
v -30.479125 15.100623 13.959275
v -30.377789 14.570725 8.171182
v -31.648284 18.760514 7.430127
v -32.124834 19.046864 14.919185
v -25.466788 20.897495 11.035675
v -32.124834 19.046864 14.919185
v -31.648284 18.760514 7.430127
v -25.466788 12.702612 11.035675
v -26.755768 14.518447 4.195584
v -30.377789 14.570725 8.171182
v -30.377789 14.570725 8.171182
v -26.755768 14.518447 4.195584
v -26.731113 18.708649 4.326418
v -31.648284 18.760514 7.430127
v -25.466788 20.897495 11.035675
v -31.648284 18.760514 7.430127
v -26.731113 18.708649 4.326418
v -25.466788 12.702612 11.035675
v -21.720659 14.629308 5.346090
v -26.755768 14.518447 4.195584
v -26.755768 14.518447 4.195584
v -21.720659 14.629308 5.346090
v -21.272216 18.848345 4.664999
v -26.731113 18.708649 4.326418
v -25.466788 20.897495 11.035675
v -26.731113 18.708649 4.326418
v -21.272216 18.848345 4.664999
v -25.466788 12.702612 11.035675
v -17.849470 14.959575 11.035675
v -21.720659 14.629308 5.346090
v -21.720659 14.629308 5.346090
v -17.849470 14.959575 11.035675
v -19.105699 18.573455 11.035675
v -21.272216 18.848345 4.664999
v -25.466788 20.897495 11.035675
v -21.272216 18.848345 4.664999
v -19.105699 18.573455 11.035675
v -26.109699 28.960609 -6.121928
v -22.377854 31.357928 -1.677580
v -19.584292 31.609760 -6.121928
v -19.584292 31.609760 -6.121928
v -22.377854 31.357928 -1.677580
v -22.250588 36.395035 -1.526016
v -18.375480 36.677423 -6.121928
v -26.109699 38.979656 -6.121928
v -18.375480 36.677423 -6.121928
v -22.250588 36.395035 -1.526016
v -26.109699 28.960609 -6.121928
v -27.889531 31.206126 1.284032
v -22.377854 31.357928 -1.677580
v -22.377854 31.357928 -1.677580
v -27.889531 31.206126 1.284032
v -27.721391 36.599861 0.584396
v -22.250588 36.395035 -1.526016
v -26.109699 38.979656 -6.121928
v -22.250588 36.395035 -1.526016
v -27.721391 36.599861 0.584396
v -26.109699 28.960609 -6.121928
v -32.306151 31.850544 -3.287879
v -27.889531 31.206126 1.284032
v -27.889531 31.206126 1.284032
v -32.306151 31.850544 -3.287879
v -31.646597 36.925732 -3.589536
v -27.721391 36.599861 0.584396
v -26.109699 38.979656 -6.121928
v -27.721391 36.599861 0.584396
v -31.646597 36.925732 -3.589536
v -26.109699 28.960609 -6.121928
v -33.779256 31.474629 -9.629726
v -32.306151 31.850544 -3.287879
v -32.306151 31.850544 -3.287879
v -33.779256 31.474629 -9.629726
v -33.341142 36.720805 -9.429347
v -31.646597 36.925732 -3.589536
v -26.109699 38.979656 -6.121928
v -31.646597 36.925732 -3.589536
v -33.341142 36.720805 -9.429347
v -26.109699 28.960609 -6.121928
v -27.513629 31.072935 -11.963746
v -33.779256 31.474629 -9.629726
v -33.779256 31.474629 -9.629726
v -27.513629 31.072935 -11.963746
v -27.938433 36.400291 -13.731374
v -33.341142 36.720805 -9.429347
v -26.109699 38.979656 -6.121928
v -33.341142 36.720805 -9.429347
v -27.938433 36.400291 -13.731374
v -26.109699 28.960609 -6.121928
v -20.950014 31.372503 -12.266726
v -27.513629 31.072935 -11.963746
v -27.513629 31.072935 -11.963746
v -20.950014 31.372503 -12.266726
v -21.085521 36.868111 -12.105348
v -27.938433 36.400291 -13.731374
v -26.109699 38.979656 -6.121928
v -27.938433 36.400291 -13.731374
v -21.085521 36.868111 -12.105348
v -26.109699 28.960609 -6.121928
v -19.584292 31.609760 -6.121928
v -20.950014 31.372503 -12.266726
v -20.950014 31.372503 -12.266726
v -19.584292 31.609760 -6.121928
v -18.375480 36.677423 -6.121928
v -21.085521 36.868111 -12.105348
v -26.109699 38.979656 -6.121928
v -21.085521 36.868111 -12.105348
v -18.375480 36.677423 -6.121928
v -13.846248 24.708273 -26.001291
v -9.661189 26.995630 -19.290188
v -8.329847 27.497839 -26.001291
v -8.329847 27.497839 -26.001291
v -9.661189 26.995630 -19.290188
v -10.685340 32.692281 -20.932503
v -8.878039 31.899425 -26.001291
v -13.846248 34.835242 -26.001291
v -8.878039 31.899425 -26.001291
v -10.685340 32.692281 -20.932503
v -13.846248 24.708273 -26.001291
v -15.342685 27.443736 -17.616952
v -9.661189 26.995630 -19.290188
v -9.661189 26.995630 -19.290188
v -15.342685 27.443736 -17.616952
v -15.347588 32.672396 -17.589483
v -10.685340 32.692281 -20.932503
v -13.846248 34.835242 -26.001291
v -10.685340 32.692281 -20.932503
v -15.347588 32.672396 -17.589483
v -13.846248 24.708273 -26.001291
v -19.871822 26.941320 -22.290465
v -15.342685 27.443736 -17.616952
v -15.342685 27.443736 -17.616952
v -19.871822 26.941320 -22.290465
v -18.660752 32.251652 -23.036298
v -15.347588 32.672396 -17.589483
v -13.846248 34.835242 -26.001291
v -15.347588 32.672396 -17.589483
v -18.660752 32.251652 -23.036298
v -13.846248 24.708273 -26.001291
v -20.138790 26.980541 -29.876528
v -19.871822 26.941320 -22.290465
v -19.871822 26.941320 -22.290465
v -20.138790 26.980541 -29.876528
v -18.661618 32.309775 -28.966818
v -18.660752 32.251652 -23.036298
v -13.846248 34.835242 -26.001291
v -18.660752 32.251652 -23.036298
v -18.661618 32.309775 -28.966818
v -13.846248 24.708273 -26.001291
v -15.090071 26.843790 -32.970265
v -20.138790 26.980541 -29.876528
v -20.138790 26.980541 -29.876528
v -15.090071 26.843790 -32.970265
v -15.001019 32.613888 -32.471317
v -18.661618 32.309775 -28.966818
v -13.846248 34.835242 -26.001291
v -18.661618 32.309775 -28.966818
v -15.001019 32.613888 -32.471317
v -13.846248 24.708273 -26.001291
v -10.670747 27.236303 -31.093480
v -15.090071 26.843790 -32.970265
v -15.090071 26.843790 -32.970265
v -10.670747 27.236303 -31.093480
v -9.654463 32.519360 -32.723179
v -15.001019 32.613888 -32.471317
v -13.846248 34.835242 -26.001291
v -15.001019 32.613888 -32.471317
v -9.654463 32.519360 -32.723179
v -13.846248 24.708273 -26.001291
v -8.329847 27.497839 -26.001291
v -10.670747 27.236303 -31.093480
v -10.670747 27.236303 -31.093480
v -8.329847 27.497839 -26.001291
v -8.878039 31.899425 -26.001291
v -9.654463 32.519360 -32.723179
v -13.846248 34.835242 -26.001291
v -9.654463 32.519360 -32.723179
v -8.878039 31.899425 -26.001291
v -0.041558 31.654844 -32.738968
v 3.138253 35.337796 -29.242292
v 5.183502 35.143621 -32.738968
v 5.183502 35.143621 -32.738968
v 3.138253 35.337796 -29.242292
v 3.526691 41.981291 -28.815147
v 5.526102 41.510538 -32.738968
v -0.041558 44.842282 -32.738968
v 5.526102 41.510538 -32.738968
v 3.526691 41.981291 -28.815147
v -0.041558 31.654844 -32.738968
v -1.083696 35.056053 -28.734940
v 3.138253 35.337796 -29.242292
v 3.138253 35.337796 -29.242292
v -1.083696 35.056053 -28.734940
v -1.294219 41.282629 -27.926084
v 3.526691 41.981291 -28.815147
v -0.041558 44.842282 -32.738968
v 3.526691 41.981291 -28.815147
v -1.294219 41.282629 -27.926084
v -0.041558 31.654844 -32.738968
v -4.170188 34.930431 -30.995396
v -1.083696 35.056053 -28.734940
v -1.083696 35.056053 -28.734940
v -4.170188 34.930431 -30.995396
v -4.028839 41.537290 -31.055090
v -1.294219 41.282629 -27.926084
v -0.041558 44.842282 -32.738968
v -1.294219 41.282629 -27.926084
v -4.028839 41.537290 -31.055090
v -0.041558 31.654844 -32.738968
v -4.150142 34.620026 -34.474074
v -4.170188 34.930431 -30.995396
v -4.170188 34.930431 -30.995396
v -4.150142 34.620026 -34.474074
v -4.321292 41.262544 -34.546353
v -4.028839 41.537290 -31.055090
v -0.041558 44.842282 -32.738968
v -4.028839 41.537290 -31.055090
v -4.321292 41.262544 -34.546353
v -0.041558 31.654844 -32.738968
v -1.093921 35.165459 -36.782282
v -4.150142 34.620026 -34.474074
v -4.150142 34.620026 -34.474074
v -1.093921 35.165459 -36.782282
v -0.956054 41.306561 -36.252580
v -4.321292 41.262544 -34.546353
v -0.041558 44.842282 -32.738968
v -4.321292 41.262544 -34.546353
v -0.956054 41.306561 -36.252580
v -0.041558 31.654844 -32.738968
v 2.824817 34.678193 -35.890975
v -1.093921 35.165459 -36.782282
v -1.093921 35.165459 -36.782282
v 2.824817 34.678193 -35.890975
v 3.304240 41.798623 -36.418172
v -0.956054 41.306561 -36.252580
v -0.041558 44.842282 -32.738968
v -0.956054 41.306561 -36.252580
v 3.304240 41.798623 -36.418172
v -0.041558 31.654844 -32.738968
v 5.183502 35.143621 -32.738968
v 2.824817 34.678193 -35.890975
v 2.824817 34.678193 -35.890975
v 5.183502 35.143621 -32.738968
v 5.526102 41.510538 -32.738968
v 3.304240 41.798623 -36.418172
v -0.041558 44.842282 -32.738968
v 3.304240 41.798623 -36.418172
v 5.526102 41.510538 -32.738968
v 34.929716 29.659372 -16.087543
v 38.879119 32.042851 -8.927864
v 41.837713 32.570063 -16.087543
v 41.837713 32.570063 -16.087543
v 38.879119 32.042851 -8.927864
v 38.452200 37.910313 -9.701804
v 40.512035 38.114994 -16.087543
v 34.929716 40.775415 -16.087543
v 40.512035 38.114994 -16.087543
v 38.452200 37.910313 -9.701804
v 34.929716 29.659372 -16.087543
v 33.408161 32.111382 -6.449969
v 38.879119 32.042851 -8.927864
v 38.879119 32.042851 -8.927864
v 33.408161 32.111382 -6.449969
v 33.763635 37.532804 -8.701553
v 38.452200 37.910313 -9.701804
v 34.929716 40.775415 -16.087543
v 38.452200 37.910313 -9.701804
v 33.763635 37.532804 -8.701553
v 34.929716 29.659372 -16.087543
v 29.664929 32.316357 -12.422131
v 33.408161 32.111382 -6.449969
v 33.408161 32.111382 -6.449969
v 29.664929 32.316357 -12.422131
v 29.729774 38.484833 -12.467277
v 33.763635 37.532804 -8.701553
v 34.929716 40.775415 -16.087543
v 33.763635 37.532804 -8.701553
v 29.729774 38.484833 -12.467277
v 34.929716 29.659372 -16.087543
v 28.623865 32.130448 -20.477757
v 29.664929 32.316357 -12.422131
v 29.664929 32.316357 -12.422131
v 28.623865 32.130448 -20.477757
v 29.705229 37.788257 -19.724898
v 29.729774 38.484833 -12.467277
v 34.929716 40.775415 -16.087543
v 29.729774 38.484833 -12.467277
v 29.705229 37.788257 -19.724898
v 34.929716 29.659372 -16.087543
v 33.808767 32.387282 -23.187670
v 28.623865 32.130448 -20.477757
v 28.623865 32.130448 -20.477757
v 33.808767 32.387282 -23.187670
v 33.779101 37.518613 -23.375576
v 29.705229 37.788257 -19.724898
v 34.929716 40.775415 -16.087543
v 29.705229 37.788257 -19.724898
v 33.779101 37.518613 -23.375576
v 34.929716 29.659372 -16.087543
v 38.651234 31.980086 -22.834101
v 33.808767 32.387282 -23.187670
v 33.808767 32.387282 -23.187670
v 38.651234 31.980086 -22.834101
v 38.734973 38.203732 -22.985908
v 33.779101 37.518613 -23.375576
v 34.929716 40.775415 -16.087543
v 33.779101 37.518613 -23.375576
v 38.734973 38.203732 -22.985908
v 34.929716 29.659372 -16.087543
v 41.837713 32.570063 -16.087543
v 38.651234 31.980086 -22.834101
v 38.651234 31.980086 -22.834101
v 41.837713 32.570063 -16.087543
v 40.512035 38.114994 -16.087543
v 38.734973 38.203732 -22.985908
v 34.929716 40.775415 -16.087543
v 38.734973 38.203732 -22.985908
v 40.512035 38.114994 -16.087543
v -16.320171 30.103384 2.392936
v -15.847704 27.688853 1.056219
v 28.613347 33.082302 8.495165
v 28.377113 34.289567 9.163524
v -15.815288 30.103384 -0.361168
v -15.847704 27.688853 1.056219
v -16.320171 30.103384 2.392936
v 28.629554 34.289567 7.786471
v 28.377113 34.289567 9.163524
v 28.613347 33.082302 8.495165
v -15.847704 27.688853 1.056219
v -15.342820 27.688853 -1.697886
v 28.865788 33.082302 7.118113
v 28.613347 33.082302 8.495165
v -15.815288 30.103384 -0.361168
v -15.342820 27.688853 -1.697886
v -15.847704 27.688853 1.056219
v 28.629554 34.289567 7.786471
v 28.613347 33.082302 8.495165
v 28.865788 33.082302 7.118113
v -15.342820 27.688853 -1.697886
v -15.310405 30.103384 -3.115273
v 28.881996 34.289567 6.409419
v 28.865788 33.082302 7.118113
v -15.815288 30.103384 -0.361168
v -15.310405 30.103384 -3.115273
v -15.342820 27.688853 -1.697886
v 28.629554 34.289567 7.786471
v 28.865788 33.082302 7.118113
v 28.881996 34.289567 6.409419
v -15.310405 30.103384 -3.115273
v -15.782873 32.517915 -1.778556
v 28.645762 35.496833 7.077777
v 28.881996 34.289567 6.409419
v -15.815288 30.103384 -0.361168
v -15.782873 32.517915 -1.778556
v -15.310405 30.103384 -3.115273
v 28.629554 34.289567 7.786471
v 28.881996 34.289567 6.409419
v 28.645762 35.496833 7.077777
v -15.782873 32.517915 -1.778556
v -16.287756 32.517915 0.975549
v 28.393320 35.496833 8.454830
v 28.645762 35.496833 7.077777
v -15.815288 30.103384 -0.361168
v -16.287756 32.517915 0.975549
v -15.782873 32.517915 -1.778556
v 28.629554 34.289567 7.786471
v 28.645762 35.496833 7.077777
v 28.393320 35.496833 8.454830
v -16.287756 32.517915 0.975549
v -16.320171 30.103384 2.392936
v 28.377113 34.289567 9.163524
v 28.393320 35.496833 8.454830
v -15.815288 30.103384 -0.361168
v -16.320171 30.103384 2.392936
v -16.287756 32.517915 0.975549
v 28.629554 34.289567 7.786471
v 28.393320 35.496833 8.454830
v 28.377113 34.289567 9.163524
v -25.271731 26.042342 -18.049363
v -25.341015 23.620396 -19.452708
v 15.990376 22.802179 -18.684471
v 16.025018 24.013152 -17.982798
v -25.172298 26.042342 -20.847597
v -25.341015 23.620396 -19.452708
v -25.271731 26.042342 -18.049363
v 16.074735 24.013152 -19.381915
v 16.025018 24.013152 -17.982798
v 15.990376 22.802179 -18.684471
v -25.341015 23.620396 -19.452708
v -25.241582 23.620396 -22.250942
v 16.040093 22.802179 -20.083588
v 15.990376 22.802179 -18.684471
v -25.172298 26.042342 -20.847597
v -25.241582 23.620396 -22.250942
v -25.341015 23.620396 -19.452708
v 16.074735 24.013152 -19.381915
v 15.990376 22.802179 -18.684471
v 16.040093 22.802179 -20.083588
v -25.241582 23.620396 -22.250942
v -25.072865 26.042342 -23.645830
v 16.124451 24.013152 -20.781032
v 16.040093 22.802179 -20.083588
v -25.172298 26.042342 -20.847597
v -25.072865 26.042342 -23.645830
v -25.241582 23.620396 -22.250942
v 16.074735 24.013152 -19.381915
v 16.040093 22.802179 -20.083588
v 16.124451 24.013152 -20.781032
v -25.072865 26.042342 -23.645830
v -25.003582 28.464287 -22.242485
v 16.159093 25.224125 -20.079359
v 16.124451 24.013152 -20.781032
v -25.172298 26.042342 -20.847597
v -25.003582 28.464287 -22.242485
v -25.072865 26.042342 -23.645830
v 16.074735 24.013152 -19.381915
v 16.124451 24.013152 -20.781032
v 16.159093 25.224125 -20.079359
v -25.003582 28.464287 -22.242485
v -25.103015 28.464287 -19.444251
v 16.109376 25.224125 -18.680242
v 16.159093 25.224125 -20.079359
v -25.172298 26.042342 -20.847597
v -25.103015 28.464287 -19.444251
v -25.003582 28.464287 -22.242485
v 16.074735 24.013152 -19.381915
v 16.159093 25.224125 -20.079359
v 16.109376 25.224125 -18.680242
v -25.103015 28.464287 -19.444251
v -25.271731 26.042342 -18.049363
v 16.025018 24.013152 -17.982798
v 16.109376 25.224125 -18.680242
v -25.172298 26.042342 -20.847597
v -25.271731 26.042342 -18.049363
v -25.103015 28.464287 -19.444251
v 16.074735 24.013152 -19.381915
v 16.109376 25.224125 -18.680242
v 16.025018 24.013152 -17.982798
v -26.635951 25.103858 6.131301
v -26.278366 22.682813 4.770907
v 14.662408 26.223172 10.672432
v 14.483616 27.433694 11.352629
v -26.189623 25.103858 3.367103
v -26.278366 22.682813 4.770907
v -26.635951 25.103858 6.131301
v 14.706780 27.433694 9.970530
v 14.483616 27.433694 11.352629
v 14.662408 26.223172 10.672432
v -26.278366 22.682813 4.770907
v -25.832039 22.682813 2.006708
v 14.885572 26.223172 9.290333
v 14.662408 26.223172 10.672432
v -26.189623 25.103858 3.367103
v -25.832039 22.682813 2.006708
v -26.278366 22.682813 4.770907
v 14.706780 27.433694 9.970530
v 14.662408 26.223172 10.672432
v 14.885572 26.223172 9.290333
v -25.832039 22.682813 2.006708
v -25.743296 25.103858 0.602905
v 14.929943 27.433694 8.588431
v 14.885572 26.223172 9.290333
v -26.189623 25.103858 3.367103
v -25.743296 25.103858 0.602905
v -25.832039 22.682813 2.006708
v 14.706780 27.433694 9.970530
v 14.885572 26.223172 9.290333
v 14.929943 27.433694 8.588431
v -25.743296 25.103858 0.602905
v -26.100880 27.524904 1.963299
v 14.751151 28.644217 9.268628
v 14.929943 27.433694 8.588431
v -26.189623 25.103858 3.367103
v -26.100880 27.524904 1.963299
v -25.743296 25.103858 0.602905
v 14.706780 27.433694 9.970530
v 14.929943 27.433694 8.588431
v 14.751151 28.644217 9.268628
v -26.100880 27.524904 1.963299
v -26.547207 27.524904 4.727498
v 14.527988 28.644217 10.650727
v 14.751151 28.644217 9.268628
v -26.189623 25.103858 3.367103
v -26.547207 27.524904 4.727498
v -26.100880 27.524904 1.963299
v 14.706780 27.433694 9.970530
v 14.751151 28.644217 9.268628
v 14.527988 28.644217 10.650727
v -26.547207 27.524904 4.727498
v -26.635951 25.103858 6.131301
v 14.483616 27.433694 11.352629
v 14.527988 28.644217 10.650727
v -26.189623 25.103858 3.367103
v -26.635951 25.103858 6.131301
v -26.547207 27.524904 4.727498
v 14.706780 27.433694 9.970530
v 14.527988 28.644217 10.650727
v 14.483616 27.433694 11.352629
vt 0.500000 1.000000
vt 0.000000 0.000000
vt 1.000000 0.000000
vt 0.000000 0.000000
vt 1.000000 0.000000
vt 1.000000 1.000000
vt 0.000000 1.000000
vt 0.000000 0.000000
vt 1.000000 0.000000
vt 1.000000 1.000000
vt 0.000000 1.000000
vt 0.500000 1.000000
vt 0.000000 0.000000
vt 1.000000 0.000000
vt 0.500000 1.000000
vt 0.000000 0.000000
vt 1.000000 0.000000
vt 0.000000 0.000000
vt 1.000000 0.000000
vt 1.000000 1.000000
vt 0.000000 1.000000
vt 0.000000 0.000000
vt 1.000000 0.000000
vt 1.000000 1.000000
vt 0.000000 1.000000
vt 0.500000 1.000000
vt 0.000000 0.000000
vt 1.000000 0.000000
vt 0.500000 1.000000
vt 0.000000 0.000000
vt 1.000000 0.000000
vt 0.000000 0.000000
vt 1.000000 0.000000
vt 1.000000 1.000000
vt 0.000000 1.000000
vt 0.000000 0.000000
vt 1.000000 0.000000
vt 1.000000 1.000000
vt 0.000000 1.000000
vt 0.500000 1.000000
vt 0.000000 0.000000
vt 1.000000 0.000000
vt 0.500000 1.000000
vt 0.000000 0.000000
vt 1.000000 0.000000
vt 0.000000 0.000000
vt 1.000000 0.000000
vt 1.000000 1.000000
vt 0.000000 1.000000
vt 0.000000 0.000000
vt 1.000000 0.000000
vt 1.000000 1.000000
vt 0.000000 1.000000
vt 0.500000 1.000000
vt 0.000000 0.000000
vt 1.000000 0.000000
vt 0.500000 1.000000
vt 0.000000 0.000000
vt 1.000000 0.000000
vt 0.000000 0.000000
vt 1.000000 0.000000
vt 1.000000 1.000000
vt 0.000000 1.000000
vt 0.000000 0.000000
vt 1.000000 0.000000
vt 1.000000 1.000000
vt 0.000000 1.000000
vt 0.500000 1.000000
vt 0.000000 0.000000
vt 1.000000 0.000000
vt 0.500000 1.000000
vt 0.000000 0.000000
vt 1.000000 0.000000
vt 0.000000 0.000000
vt 1.000000 0.000000
vt 1.000000 1.000000
vt 0.000000 1.000000
vt 0.000000 0.000000
vt 1.000000 0.000000
vt 1.000000 1.000000
vt 0.000000 1.000000
vt 0.500000 1.000000
vt 0.000000 0.000000
vt 1.000000 0.000000
vt 0.500000 1.000000
vt 0.000000 0.000000
vt 1.000000 0.000000
vt 0.000000 0.000000
vt 1.000000 0.000000
vt 1.000000 1.000000
vt 0.000000 1.000000
vt 0.000000 0.000000
vt 1.000000 0.000000
vt 1.000000 1.000000
vt 0.000000 1.000000
vt 0.500000 1.000000
vt 0.000000 0.000000
vt 1.000000 0.000000
vt 0.500000 1.000000
vt 0.000000 0.000000
vt 1.000000 0.000000
vt 0.000000 0.000000
vt 1.000000 0.000000
vt 1.000000 1.000000
vt 0.000000 1.000000
vt 0.000000 0.000000
vt 1.000000 0.000000
vt 1.000000 1.000000
vt 0.000000 1.000000
vt 0.500000 1.000000
vt 0.000000 0.000000
vt 1.000000 0.000000
vt 0.500000 1.000000
vt 0.000000 0.000000
vt 1.000000 0.000000
vt 0.000000 0.000000
vt 1.000000 0.000000
vt 1.000000 1.000000
vt 0.000000 1.000000
vt 0.000000 0.000000
vt 1.000000 0.000000
vt 1.000000 1.000000
vt 0.000000 1.000000
vt 0.500000 1.000000
vt 0.000000 0.000000
vt 1.000000 0.000000
vt 0.500000 1.000000
vt 0.000000 0.000000
vt 1.000000 0.000000
vt 0.000000 0.000000
vt 1.000000 0.000000
vt 1.000000 1.000000
vt 0.000000 1.000000
vt 0.000000 0.000000
vt 1.000000 0.000000
vt 1.000000 1.000000
vt 0.000000 1.000000
vt 0.500000 1.000000
vt 0.000000 0.000000
vt 1.000000 0.000000
vt 0.500000 1.000000
vt 0.000000 0.000000
vt 1.000000 0.000000
vt 0.000000 0.000000
vt 1.000000 0.000000
vt 1.000000 1.000000
vt 0.000000 1.000000
vt 0.500000 1.000000
vt 0.000000 0.000000
vt 1.000000 0.000000
vt 0.500000 1.000000
vt 0.000000 0.000000
vt 1.000000 0.000000
vt 0.000000 0.000000
vt 1.000000 0.000000
vt 1.000000 1.000000
vt 0.000000 1.000000
vt 0.500000 1.000000
vt 0.000000 0.000000
vt 1.000000 0.000000
vt 0.500000 1.000000
vt 0.000000 0.000000
vt 1.000000 0.000000
vt 0.000000 0.000000
vt 1.000000 0.000000
vt 1.000000 1.000000
vt 0.000000 1.000000
vt 0.500000 1.000000
vt 0.000000 0.000000
vt 1.000000 0.000000
vt 0.500000 1.000000
vt 0.000000 0.000000
vt 1.000000 0.000000
vt 0.000000 0.000000
vt 1.000000 0.000000
vt 1.000000 1.000000
vt 0.000000 1.000000
vt 0.500000 1.000000
vt 0.000000 0.000000
vt 1.000000 0.000000
vt 0.500000 1.000000
vt 0.000000 0.000000
vt 1.000000 0.000000
vt 0.000000 0.000000
vt 1.000000 0.000000
vt 1.000000 1.000000
vt 0.000000 1.000000
vt 0.500000 1.000000
vt 0.000000 0.000000
vt 1.000000 0.000000
vt 0.500000 1.000000
vt 0.000000 0.000000
vt 1.000000 0.000000
vt 0.000000 0.000000
vt 1.000000 0.000000
vt 1.000000 1.000000
vt 0.000000 1.000000
vt 0.500000 1.000000
vt 0.000000 0.000000
vt 1.000000 0.000000
vt 0.500000 1.000000
vt 0.000000 0.000000
vt 1.000000 0.000000
vt 0.000000 0.000000
vt 1.000000 0.000000
vt 1.000000 1.000000
vt 0.000000 1.000000
vt 0.500000 1.000000
vt 0.000000 0.000000
vt 1.000000 0.000000
vt 0.500000 1.000000
vt 0.000000 0.000000
vt 1.000000 0.000000
vt 0.000000 0.000000
vt 1.000000 0.000000
vt 1.000000 1.000000
vt 0.000000 1.000000
vt 0.500000 1.000000
vt 0.000000 0.000000
vt 1.000000 0.000000
vt 0.500000 1.000000
vt 0.000000 0.000000
vt 1.000000 0.000000
vt 0.000000 0.000000
vt 1.000000 0.000000
vt 1.000000 1.000000
vt 0.000000 1.000000
vt 0.500000 1.000000
vt 0.000000 0.000000
vt 1.000000 0.000000
vt 0.500000 1.000000
vt 0.000000 0.000000
vt 1.000000 0.000000
vt 0.000000 0.000000
vt 1.000000 0.000000
vt 1.000000 1.000000
vt 0.000000 1.000000
vt 0.500000 1.000000
vt 0.000000 0.000000
vt 1.000000 0.000000
vt 0.500000 1.000000
vt 0.000000 0.000000
vt 1.000000 0.000000
vt 0.000000 0.000000
vt 1.000000 0.000000
vt 1.000000 1.000000
vt 0.000000 1.000000
vt 0.500000 1.000000
vt 0.000000 0.000000
vt 1.000000 0.000000
vt 0.500000 1.000000
vt 0.000000 0.000000
vt 1.000000 0.000000
vt 0.000000 0.000000
vt 1.000000 0.000000
vt 1.000000 1.000000
vt 0.000000 1.000000
vt 0.500000 1.000000
vt 0.000000 0.000000
vt 1.000000 0.000000
vt 0.500000 1.000000
vt 0.000000 0.000000
vt 1.000000 0.000000
vt 0.000000 0.000000
vt 1.000000 0.000000
vt 1.000000 1.000000
vt 0.000000 1.000000
vt 0.500000 1.000000
vt 0.000000 0.000000
vt 1.000000 0.000000
vt 0.500000 1.000000
vt 0.000000 0.000000
vt 1.000000 0.000000
vt 0.000000 0.000000
vt 1.000000 0.000000
vt 1.000000 1.000000
vt 0.000000 1.000000
vt 0.500000 1.000000
vt 0.000000 0.000000
vt 1.000000 0.000000
vt 0.500000 1.000000
vt 0.000000 0.000000
vt 1.000000 0.000000
vt 0.000000 0.000000
vt 1.000000 0.000000
vt 1.000000 1.000000
vt 0.000000 1.000000
vt 0.500000 1.000000
vt 0.000000 0.000000
vt 1.000000 0.000000
vt 0.500000 1.000000
vt 0.000000 0.000000
vt 1.000000 0.000000
vt 0.000000 0.000000
vt 1.000000 0.000000
vt 1.000000 1.000000
vt 0.000000 1.000000
vt 0.500000 1.000000
vt 0.000000 0.000000
vt 1.000000 0.000000
vt 0.500000 1.000000
vt 0.000000 0.000000
vt 1.000000 0.000000
vt 0.000000 0.000000
vt 1.000000 0.000000
vt 1.000000 1.000000
vt 0.000000 1.000000
vt 0.500000 1.000000
vt 0.000000 0.000000
vt 1.000000 0.000000
vt 0.500000 1.000000
vt 0.000000 0.000000
vt 1.000000 0.000000
vt 0.000000 0.000000
vt 1.000000 0.000000
vt 1.000000 1.000000
vt 0.000000 1.000000
vt 0.500000 1.000000
vt 0.000000 0.000000
vt 1.000000 0.000000
vt 0.500000 1.000000
vt 0.000000 0.000000
vt 1.000000 0.000000
vt 0.000000 0.000000
vt 1.000000 0.000000
vt 1.000000 1.000000
vt 0.000000 1.000000
vt 0.500000 1.000000
vt 0.000000 0.000000
vt 1.000000 0.000000
vt 0.500000 1.000000
vt 0.000000 0.000000
vt 1.000000 0.000000
vt 0.000000 0.000000
vt 1.000000 0.000000
vt 1.000000 1.000000
vt 0.000000 1.000000
vt 0.500000 1.000000
vt 0.000000 0.000000
vt 1.000000 0.000000
vt 0.500000 1.000000
vt 0.000000 0.000000
vt 1.000000 0.000000
vt 0.000000 0.000000
vt 1.000000 0.000000
vt 1.000000 1.000000
vt 0.000000 1.000000
vt 0.500000 1.000000
vt 0.000000 0.000000
vt 1.000000 0.000000
vt 0.500000 1.000000
vt 0.000000 0.000000
vt 1.000000 0.000000
vt 0.000000 0.000000
vt 1.000000 0.000000
vt 1.000000 1.000000
vt 0.000000 1.000000
vt 0.500000 1.000000
vt 0.000000 0.000000
vt 1.000000 0.000000
vt 0.500000 1.000000
vt 0.000000 0.000000
vt 1.000000 0.000000
vt 0.000000 0.000000
vt 1.000000 0.000000
vt 1.000000 1.000000
vt 0.000000 1.000000
vt 0.500000 1.000000
vt 0.000000 0.000000
vt 1.000000 0.000000
vt 0.500000 1.000000
vt 0.000000 0.000000
vt 1.000000 0.000000
vt 0.000000 0.000000
vt 1.000000 0.000000
vt 1.000000 1.000000
vt 0.000000 1.000000
vt 0.500000 1.000000
vt 0.000000 0.000000
vt 1.000000 0.000000
vt 0.500000 1.000000
vt 0.000000 0.000000
vt 1.000000 0.000000
vt 0.000000 0.000000
vt 1.000000 0.000000
vt 1.000000 1.000000
vt 0.000000 1.000000
vt 0.500000 1.000000
vt 0.000000 0.000000
vt 1.000000 0.000000
vt 0.500000 1.000000
vt 0.000000 0.000000
vt 1.000000 0.000000
vt 0.000000 0.000000
vt 1.000000 0.000000
vt 1.000000 1.000000
vt 0.000000 1.000000
vt 0.500000 1.000000
vt 0.000000 0.000000
vt 1.000000 0.000000
vt 0.500000 1.000000
vt 0.000000 0.000000
vt 1.000000 0.000000
vt 0.000000 0.000000
vt 1.000000 0.000000
vt 1.000000 1.000000
vt 0.000000 1.000000
vt 0.500000 1.000000
vt 0.000000 0.000000
vt 1.000000 0.000000
vt 0.500000 1.000000
vt 0.000000 0.000000
vt 1.000000 0.000000
vt 0.000000 0.000000
vt 1.000000 0.000000
vt 1.000000 1.000000
vt 0.000000 1.000000
vt 0.500000 1.000000
vt 0.000000 0.000000
vt 1.000000 0.000000
vt 0.500000 1.000000
vt 0.000000 0.000000
vt 1.000000 0.000000
vt 0.000000 0.000000
vt 1.000000 0.000000
vt 1.000000 1.000000
vt 0.000000 1.000000
vt 0.500000 1.000000
vt 0.000000 0.000000
vt 1.000000 0.000000
vt 0.500000 1.000000
vt 0.000000 0.000000
vt 1.000000 0.000000
vt 0.000000 0.000000
vt 1.000000 0.000000
vt 1.000000 1.000000
vt 0.000000 1.000000
vt 0.500000 1.000000
vt 0.000000 0.000000
vt 1.000000 0.000000
vt 0.500000 1.000000
vt 0.000000 0.000000
vt 1.000000 0.000000
vt 0.000000 0.000000
vt 1.000000 0.000000
vt 1.000000 1.000000
vt 0.000000 1.000000
vt 0.500000 1.000000
vt 0.000000 0.000000
vt 1.000000 0.000000
vt 0.500000 1.000000
vt 0.000000 0.000000
vt 1.000000 0.000000
vt 0.000000 0.000000
vt 1.000000 0.000000
vt 1.000000 1.000000
vt 0.000000 1.000000
vt 0.500000 1.000000
vt 0.000000 0.000000
vt 1.000000 0.000000
vt 0.500000 1.000000
vt 0.000000 0.000000
vt 1.000000 0.000000
vt 0.000000 0.000000
vt 1.000000 0.000000
vt 1.000000 1.000000
vt 0.000000 1.000000
vt 0.500000 1.000000
vt 0.000000 0.000000
vt 1.000000 0.000000
vt 0.500000 1.000000
vt 0.000000 0.000000
vt 1.000000 0.000000
vt 0.000000 0.000000
vt 1.000000 0.000000
vt 1.000000 1.000000
vt 0.000000 1.000000
vt 0.500000 1.000000
vt 0.000000 0.000000
vt 1.000000 0.000000
vt 0.500000 1.000000
vt 0.000000 0.000000
vt 1.000000 0.000000
vt 0.000000 0.000000
vt 1.000000 0.000000
vt 1.000000 1.000000
vt 0.000000 1.000000
vt 0.500000 1.000000
vt 0.000000 0.000000
vt 1.000000 0.000000
vt 0.500000 1.000000
vt 0.000000 0.000000
vt 1.000000 0.000000
vt 0.000000 0.000000
vt 1.000000 0.000000
vt 1.000000 1.000000
vt 0.000000 1.000000
vt 0.500000 1.000000
vt 0.000000 0.000000
vt 1.000000 0.000000
vt 0.500000 1.000000
vt 0.000000 0.000000
vt 1.000000 0.000000
vt 0.000000 0.000000
vt 1.000000 0.000000
vt 1.000000 1.000000
vt 0.000000 1.000000
vt 0.500000 1.000000
vt 0.000000 0.000000
vt 1.000000 0.000000
vt 0.500000 1.000000
vt 0.000000 0.000000
vt 1.000000 0.000000
vt 0.000000 0.000000
vt 1.000000 0.000000
vt 1.000000 1.000000
vt 0.000000 1.000000
vt 0.500000 1.000000
vt 0.000000 0.000000
vt 1.000000 0.000000
vt 0.500000 1.000000
vt 0.000000 0.000000
vt 1.000000 0.000000
vt 0.000000 0.000000
vt 1.000000 0.000000
vt 1.000000 1.000000
vt 0.000000 1.000000
vt 0.500000 1.000000
vt 0.000000 0.000000
vt 1.000000 0.000000
vt 0.500000 1.000000
vt 0.000000 0.000000
vt 1.000000 0.000000
vt 0.000000 0.000000
vt 1.000000 0.000000
vt 1.000000 1.000000
vt 0.000000 1.000000
vt 0.500000 1.000000
vt 0.000000 0.000000
vt 1.000000 0.000000
vt 0.500000 1.000000
vt 0.000000 0.000000
vt 1.000000 0.000000
vt 0.000000 0.000000
vt 1.000000 0.000000
vt 1.000000 1.000000
vt 0.000000 1.000000
vt 0.500000 1.000000
vt 0.000000 0.000000
vt 1.000000 0.000000
vt 0.500000 1.000000
vt 0.000000 0.000000
vt 1.000000 0.000000
vt 0.000000 0.000000
vt 1.000000 0.000000
vt 1.000000 1.000000
vt 0.000000 1.000000
vt 0.500000 1.000000
vt 0.000000 0.000000
vt 1.000000 0.000000
vt 0.500000 1.000000
vt 0.000000 0.000000
vt 1.000000 0.000000
vt 0.000000 0.000000
vt 1.000000 0.000000
vt 1.000000 1.000000
vt 0.000000 1.000000
vt 0.500000 1.000000
vt 0.000000 0.000000
vt 1.000000 0.000000
vt 0.500000 1.000000
vt 0.000000 0.000000
vt 1.000000 0.000000
vt 0.000000 0.000000
vt 1.000000 0.000000
vt 1.000000 1.000000
vt 0.000000 1.000000
vt 0.500000 1.000000
vt 0.000000 0.000000
vt 1.000000 0.000000
vt 0.500000 1.000000
vt 0.000000 0.000000
vt 1.000000 0.000000
vt 0.000000 0.000000
vt 1.000000 0.000000
vt 1.000000 1.000000
vt 0.000000 1.000000
vt 0.500000 1.000000
vt 0.000000 0.000000
vt 1.000000 0.000000
vt 0.500000 1.000000
vt 0.000000 0.000000
vt 1.000000 0.000000
vt 0.000000 0.000000
vt 1.000000 0.000000
vt 1.000000 1.000000
vt 0.000000 1.000000
vt 0.500000 1.000000
vt 0.000000 0.000000
vt 1.000000 0.000000
vt 0.500000 1.000000
vt 0.000000 0.000000
vt 1.000000 0.000000
vt 0.000000 0.000000
vt 1.000000 0.000000
vt 1.000000 1.000000
vt 0.000000 1.000000
vt 0.500000 1.000000
vt 0.000000 0.000000
vt 1.000000 0.000000
vt 0.500000 1.000000
vt 0.000000 0.000000
vt 1.000000 0.000000
vt 0.000000 0.000000
vt 1.000000 0.000000
vt 1.000000 1.000000
vt 0.000000 1.000000
vt 0.500000 1.000000
vt 0.000000 0.000000
vt 1.000000 0.000000
vt 0.500000 1.000000
vt 0.000000 0.000000
vt 1.000000 0.000000
vt 0.000000 0.000000
vt 1.000000 0.000000
vt 1.000000 1.000000
vt 0.000000 1.000000
vt 0.500000 1.000000
vt 0.000000 0.000000
vt 1.000000 0.000000
vt 0.500000 1.000000
vt 0.000000 0.000000
vt 1.000000 0.000000
vt 0.000000 0.000000
vt 1.000000 0.000000
vt 1.000000 1.000000
vt 0.000000 1.000000
vt 0.500000 1.000000
vt 0.000000 0.000000
vt 1.000000 0.000000
vt 0.500000 1.000000
vt 0.000000 0.000000
vt 1.000000 0.000000
vt 0.000000 0.000000
vt 1.000000 0.000000
vt 1.000000 1.000000
vt 0.000000 1.000000
vt 0.500000 1.000000
vt 0.000000 0.000000
vt 1.000000 0.000000
vt 0.500000 1.000000
vt 0.000000 0.000000
vt 1.000000 0.000000
vt 0.000000 0.000000
vt 1.000000 0.000000
vt 1.000000 1.000000
vt 0.000000 1.000000
vt 0.500000 1.000000
vt 0.000000 0.000000
vt 1.000000 0.000000
vt 0.500000 1.000000
vt 0.000000 0.000000
vt 1.000000 0.000000
vt 0.000000 0.000000
vt 1.000000 0.000000
vt 1.000000 1.000000
vt 0.000000 1.000000
vt 0.500000 1.000000
vt 0.000000 0.000000
vt 1.000000 0.000000
vt 0.500000 1.000000
vt 0.000000 0.000000
vt 1.000000 0.000000
vt 0.000000 0.000000
vt 1.000000 0.000000
vt 1.000000 1.000000
vt 0.000000 1.000000
vt 0.500000 1.000000
vt 0.000000 0.000000
vt 1.000000 0.000000
vt 0.500000 1.000000
vt 0.000000 0.000000
vt 1.000000 0.000000
vt 0.000000 0.000000
vt 1.000000 0.000000
vt 1.000000 1.000000
vt 0.000000 1.000000
vt 0.500000 1.000000
vt 0.000000 0.000000
vt 1.000000 0.000000
vt 0.500000 1.000000
vt 0.000000 0.000000
vt 1.000000 0.000000
vt 0.000000 0.000000
vt 1.000000 0.000000
vt 1.000000 1.000000
vt 0.000000 1.000000
vt 0.500000 1.000000
vt 0.000000 0.000000
vt 1.000000 0.000000
vt 0.500000 1.000000
vt 0.000000 0.000000
vt 1.000000 0.000000
vt 0.000000 0.000000
vt 1.000000 0.000000
vt 1.000000 1.000000
vt 0.000000 1.000000
vt 0.500000 1.000000
vt 0.000000 0.000000
vt 1.000000 0.000000
vt 0.500000 1.000000
vt 0.000000 0.000000
vt 1.000000 0.000000
vt 0.000000 0.000000
vt 1.000000 0.000000
vt 1.000000 1.000000
vt 0.000000 1.000000
vt 0.500000 1.000000
vt 0.000000 0.000000
vt 1.000000 0.000000
vt 0.500000 1.000000
vt 0.000000 0.000000
vt 1.000000 0.000000
vt 0.000000 0.000000
vt 1.000000 0.000000
vt 1.000000 1.000000
vt 0.000000 1.000000
vt 0.500000 1.000000
vt 0.000000 0.000000
vt 1.000000 0.000000
vt 0.500000 1.000000
vt 0.000000 0.000000
vt 1.000000 0.000000
vt 0.000000 0.000000
vt 1.000000 0.000000
vt 1.000000 1.000000
vt 0.000000 1.000000
vt 0.500000 1.000000
vt 0.000000 0.000000
vt 1.000000 0.000000
vt 0.500000 1.000000
vt 0.000000 0.000000
vt 1.000000 0.000000
vt 0.000000 0.000000
vt 1.000000 0.000000
vt 1.000000 1.000000
vt 0.000000 1.000000
vt 0.500000 1.000000
vt 0.000000 0.000000
vt 1.000000 0.000000
vt 0.500000 1.000000
vt 0.000000 0.000000
vt 1.000000 0.000000
vt 0.000000 0.000000
vt 1.000000 0.000000
vt 1.000000 1.000000
vt 0.000000 1.000000
vt 0.500000 1.000000
vt 0.000000 0.000000
vt 1.000000 0.000000
vt 0.500000 1.000000
vt 0.000000 0.000000
vt 1.000000 0.000000
vt 0.000000 0.000000
vt 1.000000 0.000000
vt 1.000000 1.000000
vt 0.000000 1.000000
vt 0.500000 1.000000
vt 0.000000 0.000000
vt 1.000000 0.000000
vt 0.000000 0.000000
vt 1.000000 0.000000
vt 1.000000 1.000000
vt 0.000000 1.000000
vt 0.500000 1.000000
vt 0.000000 0.000000
vt 1.000000 0.000000
vt 0.500000 1.000000
vt 0.000000 0.000000
vt 1.000000 0.000000
vt 0.000000 0.000000
vt 1.000000 0.000000
vt 1.000000 1.000000
vt 0.000000 1.000000
vt 0.500000 1.000000
vt 0.000000 0.000000
vt 1.000000 0.000000
vt 0.500000 1.000000
vt 0.000000 0.000000
vt 1.000000 0.000000
vt 0.000000 0.000000
vt 1.000000 0.000000
vt 1.000000 1.000000
vt 0.000000 1.000000
vt 0.500000 1.000000
vt 0.000000 0.000000
vt 1.000000 0.000000
vt 0.500000 1.000000
vt 0.000000 0.000000
vt 1.000000 0.000000
vt 0.000000 0.000000
vt 1.000000 0.000000
vt 1.000000 1.000000
vt 0.000000 1.000000
vt 0.500000 1.000000
vt 0.000000 0.000000
vt 1.000000 0.000000
vt 0.500000 1.000000
vt 0.000000 0.000000
vt 1.000000 0.000000
vt 0.000000 0.000000
vt 1.000000 0.000000
vt 1.000000 1.000000
vt 0.000000 1.000000
vt 0.500000 1.000000
vt 0.000000 0.000000
vt 1.000000 0.000000
vt 0.500000 1.000000
vt 0.000000 0.000000
vt 1.000000 0.000000
vt 0.000000 0.000000
vt 1.000000 0.000000
vt 1.000000 1.000000
vt 0.000000 1.000000
vt 0.500000 1.000000
vt 0.000000 0.000000
vt 1.000000 0.000000
vt 0.500000 1.000000
vt 0.000000 0.000000
vt 1.000000 0.000000
vt 0.000000 0.000000
vt 1.000000 0.000000
vt 1.000000 1.000000
vt 0.000000 1.000000
vt 0.500000 1.000000
vt 0.000000 0.000000
vt 1.000000 0.000000
vt 0.500000 1.000000
vt 0.000000 0.000000
vt 1.000000 0.000000
vt 0.000000 0.000000
vt 1.000000 0.000000
vt 1.000000 1.000000
vt 0.000000 1.000000
vt 0.500000 1.000000
vt 0.000000 0.000000
vt 1.000000 0.000000
vt 0.500000 1.000000
vt 0.000000 0.000000
vt 1.000000 0.000000
vt 0.000000 0.000000
vt 1.000000 0.000000
vt 1.000000 1.000000
vt 0.000000 1.000000
vt 0.500000 1.000000
vt 0.000000 0.000000
vt 1.000000 0.000000
vt 0.500000 1.000000
vt 0.000000 0.000000
vt 1.000000 0.000000
vt 0.000000 0.000000
vt 1.000000 0.000000
vt 1.000000 1.000000
vt 0.000000 1.000000
vt 0.500000 1.000000
vt 0.000000 0.000000
vt 1.000000 0.000000
vt 0.500000 1.000000
vt 0.000000 0.000000
vt 1.000000 0.000000
vt 0.000000 0.000000
vt 1.000000 0.000000
vt 1.000000 1.000000
vt 0.000000 1.000000
vt 0.500000 1.000000
vt 0.000000 0.000000
vt 1.000000 0.000000
vt 0.500000 1.000000
vt 0.000000 0.000000
vt 1.000000 0.000000
vt 0.000000 0.000000
vt 1.000000 0.000000
vt 1.000000 1.000000
vt 0.000000 1.000000
vt 0.500000 1.000000
vt 0.000000 0.000000
vt 1.000000 0.000000
vt 0.500000 1.000000
vt 0.000000 0.000000
vt 1.000000 0.000000
vt 0.000000 0.000000
vt 1.000000 0.000000
vt 1.000000 1.000000
vt 0.000000 1.000000
vt 0.500000 1.000000
vt 0.000000 0.000000
vt 1.000000 0.000000
vt 0.500000 1.000000
vt 0.000000 0.000000
vt 1.000000 0.000000
vt 0.000000 0.000000
vt 1.000000 0.000000
vt 1.000000 1.000000
vt 0.000000 1.000000
vt 0.500000 1.000000
vt 0.000000 0.000000
vt 1.000000 0.000000
vt 0.500000 1.000000
vt 0.000000 0.000000
vt 1.000000 0.000000
vt 0.000000 0.000000
vt 1.000000 0.000000
vt 1.000000 1.000000
vt 0.000000 1.000000
vt 0.500000 1.000000
vt 0.000000 0.000000
vt 1.000000 0.000000
vt 0.500000 1.000000
vt 0.000000 0.000000
vt 1.000000 0.000000
vt 0.000000 0.000000
vt 1.000000 0.000000
vt 1.000000 1.000000
vt 0.000000 1.000000
vt 0.500000 1.000000
vt 0.000000 0.000000
vt 1.000000 0.000000
vt 0.500000 1.000000
vt 0.000000 0.000000
vt 1.000000 0.000000
vt 0.000000 0.000000
vt 1.000000 0.000000
vt 1.000000 1.000000
vt 0.000000 1.000000
vt 0.500000 1.000000
vt 0.000000 0.000000
vt 1.000000 0.000000
vt 0.500000 1.000000
vt 0.000000 0.000000
vt 1.000000 0.000000
vt 0.000000 0.000000
vt 1.000000 0.000000
vt 1.000000 1.000000
vt 0.000000 1.000000
vt 0.500000 1.000000
vt 0.000000 0.000000
vt 1.000000 0.000000
vt 0.500000 1.000000
vt 0.000000 0.000000
vt 1.000000 0.000000
s 1
usemtl models/caelum/world/environment/rock_granite.png
f 1/1 2/2 3/3
f 4/4 5/5 6/6 7/7
f 8/8 9/9 10/10 11/11
f 12/12 13/13 14/14
f 15/15 16/16 17/17
f 18/18 19/19 20/20 21/21
f 22/22 23/23 24/24 25/25
f 26/26 27/27 28/28
f 29/29 30/30 31/31
f 32/32 33/33 34/34 35/35
f 36/36 37/37 38/38 39/39
f 40/40 41/41 42/42
f 43/43 44/44 45/45
f 46/46 47/47 48/48 49/49
f 50/50 51/51 52/52 53/53
f 54/54 55/55 56/56
f 57/57 58/58 59/59
f 60/60 61/61 62/62 63/63
f 64/64 65/65 66/66 67/67
f 68/68 69/69 70/70
f 71/71 72/72 73/73
f 74/74 75/75 76/76 77/77
f 78/78 79/79 80/80 81/81
f 82/82 83/83 84/84
f 85/85 86/86 87/87
f 88/88 89/89 90/90 91/91
f 92/92 93/93 94/94 95/95
f 96/96 97/97 98/98
f 99/99 100/100 101/101
f 102/102 103/103 104/104 105/105
f 106/106 107/107 108/108 109/109
f 110/110 111/111 112/112
f 113/113 114/114 115/115
f 116/116 117/117 118/118 119/119
f 120/120 121/121 122/122 123/123
f 124/124 125/125 126/126
f 127/127 128/128 129/129
f 130/130 131/131 132/132 133/133
f 134/134 135/135 136/136 137/137
f 138/138 139/139 140/140
usemtl models/caelum/world/resources/ca_vein_coal.png
f 141/141 142/142 143/143
f 144/144 145/145 146/146 147/147
f 148/148 149/149 150/150
f 151/151 152/152 153/153
f 154/154 155/155 156/156 157/157
f 158/158 159/159 160/160
f 161/161 162/162 163/163
f 164/164 165/165 166/166 167/167
f 168/168 169/169 170/170
f 171/171 172/172 173/173
f 174/174 175/175 176/176 177/177
f 178/178 179/179 180/180
f 181/181 182/182 183/183
f 184/184 185/185 186/186 187/187
f 188/188 189/189 190/190
f 191/191 192/192 193/193
f 194/194 195/195 196/196 197/197
f 198/198 199/199 200/200
f 201/201 202/202 203/203
f 204/204 205/205 206/206 207/207
f 208/208 209/209 210/210
f 211/211 212/212 213/213
f 214/214 215/215 216/216 217/217
f 218/218 219/219 220/220
f 221/221 222/222 223/223
f 224/224 225/225 226/226 227/227
f 228/228 229/229 230/230
f 231/231 232/232 233/233
f 234/234 235/235 236/236 237/237
f 238/238 239/239 240/240
f 241/241 242/242 243/243
f 244/244 245/245 246/246 247/247
f 248/248 249/249 250/250
f 251/251 252/252 253/253
f 254/254 255/255 256/256 257/257
f 258/258 259/259 260/260
f 261/261 262/262 263/263
f 264/264 265/265 266/266 267/267
f 268/268 269/269 270/270
f 271/271 272/272 273/273
f 274/274 275/275 276/276 277/277
f 278/278 279/279 280/280
f 281/281 282/282 283/283
f 284/284 285/285 286/286 287/287
f 288/288 289/289 290/290
f 291/291 292/292 293/293
f 294/294 295/295 296/296 297/297
f 298/298 299/299 300/300
f 301/301 302/302 303/303
f 304/304 305/305 306/306 307/307
f 308/308 309/309 310/310
f 311/311 312/312 313/313
f 314/314 315/315 316/316 317/317
f 318/318 319/319 320/320
f 321/321 322/322 323/323
f 324/324 325/325 326/326 327/327
f 328/328 329/329 330/330
f 331/331 332/332 333/333
f 334/334 335/335 336/336 337/337
f 338/338 339/339 340/340
f 341/341 342/342 343/343
f 344/344 345/345 346/346 347/347
f 348/348 349/349 350/350
f 351/351 352/352 353/353
f 354/354 355/355 356/356 357/357
f 358/358 359/359 360/360
f 361/361 362/362 363/363
f 364/364 365/365 366/366 367/367
f 368/368 369/369 370/370
f 371/371 372/372 373/373
f 374/374 375/375 376/376 377/377
f 378/378 379/379 380/380
f 381/381 382/382 383/383
f 384/384 385/385 386/386 387/387
f 388/388 389/389 390/390
f 391/391 392/392 393/393
f 394/394 395/395 396/396 397/397
f 398/398 399/399 400/400
f 401/401 402/402 403/403
f 404/404 405/405 406/406 407/407
f 408/408 409/409 410/410
f 411/411 412/412 413/413
f 414/414 415/415 416/416 417/417
f 418/418 419/419 420/420
f 421/421 422/422 423/423
f 424/424 425/425 426/426 427/427
f 428/428 429/429 430/430
f 431/431 432/432 433/433
f 434/434 435/435 436/436 437/437
f 438/438 439/439 440/440
f 441/441 442/442 443/443
f 444/444 445/445 446/446 447/447
f 448/448 449/449 450/450
f 451/451 452/452 453/453
f 454/454 455/455 456/456 457/457
f 458/458 459/459 460/460
f 461/461 462/462 463/463
f 464/464 465/465 466/466 467/467
f 468/468 469/469 470/470
f 471/471 472/472 473/473
f 474/474 475/475 476/476 477/477
f 478/478 479/479 480/480
f 481/481 482/482 483/483
f 484/484 485/485 486/486 487/487
f 488/488 489/489 490/490
f 491/491 492/492 493/493
f 494/494 495/495 496/496 497/497
f 498/498 499/499 500/500
f 501/501 502/502 503/503
f 504/504 505/505 506/506 507/507
f 508/508 509/509 510/510
f 511/511 512/512 513/513
f 514/514 515/515 516/516 517/517
f 518/518 519/519 520/520
f 521/521 522/522 523/523
f 524/524 525/525 526/526 527/527
f 528/528 529/529 530/530
f 531/531 532/532 533/533
f 534/534 535/535 536/536 537/537
f 538/538 539/539 540/540
f 541/541 542/542 543/543
f 544/544 545/545 546/546 547/547
f 548/548 549/549 550/550
f 551/551 552/552 553/553
f 554/554 555/555 556/556 557/557
f 558/558 559/559 560/560
f 561/561 562/562 563/563
f 564/564 565/565 566/566 567/567
f 568/568 569/569 570/570
f 571/571 572/572 573/573
f 574/574 575/575 576/576 577/577
f 578/578 579/579 580/580
f 581/581 582/582 583/583
f 584/584 585/585 586/586 587/587
f 588/588 589/589 590/590
f 591/591 592/592 593/593
f 594/594 595/595 596/596 597/597
f 598/598 599/599 600/600
f 601/601 602/602 603/603
f 604/604 605/605 606/606 607/607
f 608/608 609/609 610/610
f 611/611 612/612 613/613
f 614/614 615/615 616/616 617/617
f 618/618 619/619 620/620
f 621/621 622/622 623/623
f 624/624 625/625 626/626 627/627
f 628/628 629/629 630/630
f 631/631 632/632 633/633
f 634/634 635/635 636/636 637/637
f 638/638 639/639 640/640
f 641/641 642/642 643/643
f 644/644 645/645 646/646 647/647
f 648/648 649/649 650/650
f 651/651 652/652 653/653
f 654/654 655/655 656/656 657/657
f 658/658 659/659 660/660
f 661/661 662/662 663/663
f 664/664 665/665 666/666 667/667
f 668/668 669/669 670/670
f 671/671 672/672 673/673
f 674/674 675/675 676/676 677/677
f 678/678 679/679 680/680
f 681/681 682/682 683/683
f 684/684 685/685 686/686 687/687
f 688/688 689/689 690/690
f 691/691 692/692 693/693
f 694/694 695/695 696/696 697/697
f 698/698 699/699 700/700
f 701/701 702/702 703/703
f 704/704 705/705 706/706 707/707
f 708/708 709/709 710/710
f 711/711 712/712 713/713
f 714/714 715/715 716/716 717/717
f 718/718 719/719 720/720
f 721/721 722/722 723/723
f 724/724 725/725 726/726 727/727
f 728/728 729/729 730/730
f 731/731 732/732 733/733
f 734/734 735/735 736/736 737/737
f 738/738 739/739 740/740
f 741/741 742/742 743/743
f 744/744 745/745 746/746 747/747
f 748/748 749/749 750/750
f 751/751 752/752 753/753
f 754/754 755/755 756/756 757/757
f 758/758 759/759 760/760
f 761/761 762/762 763/763
f 764/764 765/765 766/766 767/767
f 768/768 769/769 770/770
f 771/771 772/772 773/773 774/774
f 775/775 776/776 777/777
f 778/778 779/779 780/780
f 781/781 782/782 783/783 784/784
f 785/785 786/786 787/787
f 788/788 789/789 790/790
f 791/791 792/792 793/793 794/794
f 795/795 796/796 797/797
f 798/798 799/799 800/800
f 801/801 802/802 803/803 804/804
f 805/805 806/806 807/807
f 808/808 809/809 810/810
f 811/811 812/812 813/813 814/814
f 815/815 816/816 817/817
f 818/818 819/819 820/820
f 821/821 822/822 823/823 824/824
f 825/825 826/826 827/827
f 828/828 829/829 830/830
f 831/831 832/832 833/833 834/834
f 835/835 836/836 837/837
f 838/838 839/839 840/840
f 841/841 842/842 843/843 844/844
f 845/845 846/846 847/847
f 848/848 849/849 850/850
f 851/851 852/852 853/853 854/854
f 855/855 856/856 857/857
f 858/858 859/859 860/860
f 861/861 862/862 863/863 864/864
f 865/865 866/866 867/867
f 868/868 869/869 870/870
f 871/871 872/872 873/873 874/874
f 875/875 876/876 877/877
f 878/878 879/879 880/880
f 881/881 882/882 883/883 884/884
f 885/885 886/886 887/887
f 888/888 889/889 890/890
f 891/891 892/892 893/893 894/894
f 895/895 896/896 897/897
f 898/898 899/899 900/900
f 901/901 902/902 903/903 904/904
f 905/905 906/906 907/907
f 908/908 909/909 910/910
f 911/911 912/912 913/913 914/914
f 915/915 916/916 917/917
f 918/918 919/919 920/920
f 921/921 922/922 923/923 924/924
f 925/925 926/926 927/927
f 928/928 929/929 930/930
f 931/931 932/932 933/933 934/934
f 935/935 936/936 937/937
f 938/938 939/939 940/940
f 941/941 942/942 943/943 944/944
f 945/945 946/946 947/947
f 948/948 949/949 950/950
