# Modelo original generado para Caelum Argenteum.
# Ejes OBJ: X ancho, Y altura, Z profundidad.
o ca_vein_silver3
v 0.000000 0.000000 0.000000
v 38.460537 1.592333 0.000000
v 26.779082 -0.186182 16.803032
v 38.460537 1.592333 0.000000
v 42.601168 16.977848 0.000000
v 34.773643 15.006172 21.819367
v 26.779082 -0.186182 16.803032
v 42.601168 16.977848 0.000000
v 30.476110 34.037194 0.000000
v 28.518916 36.663081 17.894723
v 34.773643 15.006172 21.819367
v 6.859947 52.000000 -1.968786
v 28.518916 36.663081 17.894723
v 30.476110 34.037194 0.000000
v 0.000000 0.000000 0.000000
v 26.779082 -0.186182 16.803032
v 9.513401 0.930680 25.286615
v 26.779082 -0.186182 16.803032
v 34.773643 15.006172 21.819367
v 15.205480 17.749951 40.416156
v 9.513401 0.930680 25.286615
v 34.773643 15.006172 21.819367
v 28.518916 36.663081 17.894723
v 11.198687 35.911524 29.766103
v 15.205480 17.749951 40.416156
v 6.859947 52.000000 -1.968786
v 11.198687 35.911524 29.766103
v 28.518916 36.663081 17.894723
v 0.000000 0.000000 0.000000
v 9.513401 0.930680 25.286615
v -10.661477 0.920512 28.338200
v 9.513401 0.930680 25.286615
v 15.205480 17.749951 40.416156
v -12.034053 17.943366 31.986507
v -10.661477 0.920512 28.338200
v 15.205480 17.749951 40.416156
v 11.198687 35.911524 29.766103
v -11.342679 36.556632 30.148834
v -12.034053 17.943366 31.986507
v 6.859947 52.000000 -1.968786
v -11.342679 36.556632 30.148834
v 11.198687 35.911524 29.766103
v 0.000000 0.000000 0.000000
v -10.661477 0.920512 28.338200
v -30.502639 0.459340 19.139447
v -10.661477 0.920512 28.338200
v -12.034053 17.943366 31.986507
v -32.066629 17.269433 20.120801
v -30.502639 0.459340 19.139447
v -12.034053 17.943366 31.986507
v -11.342679 36.556632 30.148834
v -24.741600 35.025701 15.524576
v -32.066629 17.269433 20.120801
v 6.859947 52.000000 -1.968786
v -24.741600 35.025701 15.524576
v -11.342679 36.556632 30.148834
v 0.000000 0.000000 0.000000
v -30.502639 0.459340 19.139447
v -33.802077 -0.074384 0.000000
v -30.502639 0.459340 19.139447
v -32.066629 17.269433 20.120801
v -42.939267 15.363916 0.000000
v -33.802077 -0.074384 0.000000
v -32.066629 17.269433 20.120801
v -24.741600 35.025701 15.524576
v -36.374127 34.709970 0.000000
v -42.939267 15.363916 0.000000
v 6.859947 52.000000 -1.968786
v -36.374127 34.709970 0.000000
v -24.741600 35.025701 15.524576
v 0.000000 0.000000 0.000000
v -33.802077 -0.074384 0.000000
v -30.896259 0.348174 -19.386430
v -33.802077 -0.074384 0.000000
v -42.939267 15.363916 0.000000
v -33.800245 18.441446 -21.208591
v -30.896259 0.348174 -19.386430
v -42.939267 15.363916 0.000000
v -36.374127 34.709970 0.000000
v -23.884173 35.351962 -14.986567
v -33.800245 18.441446 -21.208591
v 6.859947 52.000000 -1.968786
v -23.884173 35.351962 -14.986567
v -36.374127 34.709970 0.000000
v 0.000000 0.000000 0.000000
v -30.896259 0.348174 -19.386430
v -9.571466 -1.202943 -25.440950
v -30.896259 0.348174 -19.386430
v -33.800245 18.441446 -21.208591
v -11.862630 17.017971 -31.530864
v -9.571466 -1.202943 -25.440950
v -33.800245 18.441446 -21.208591
v -23.884173 35.351962 -14.986567
v -8.477819 36.644797 -22.534037
v -11.862630 17.017971 -31.530864
v 6.859947 52.000000 -1.968786
v -8.477819 36.644797 -22.534037
v -23.884173 35.351962 -14.986567
v 0.000000 0.000000 0.000000
v -9.571466 -1.202943 -25.440950
v 10.881664 -1.094492 -28.923458
v -9.571466 -1.202943 -25.440950
v -11.862630 17.017971 -31.530864
v 13.357958 16.057181 -35.505445
v 10.881664 -1.094492 -28.923458
v -11.862630 17.017971 -31.530864
v -8.477819 36.644797 -22.534037
v 9.084972 35.027200 -24.147850
v 13.357958 16.057181 -35.505445
v 6.859947 52.000000 -1.968786
v 9.084972 35.027200 -24.147850
v -8.477819 36.644797 -22.534037
v 0.000000 0.000000 0.000000
v 10.881664 -1.094492 -28.923458
v 26.056523 -0.810310 -16.349649
v 10.881664 -1.094492 -28.923458
v 13.357958 16.057181 -35.505445
v 30.887055 15.174934 -19.380656
v 26.056523 -0.810310 -16.349649
v 13.357958 16.057181 -35.505445
v 9.084972 35.027200 -24.147850
v 27.276690 35.580338 -17.115265
v 30.887055 15.174934 -19.380656
v 6.859947 52.000000 -1.968786
v 27.276690 35.580338 -17.115265
v 9.084972 35.027200 -24.147850
v 0.000000 0.000000 0.000000
v 26.056523 -0.810310 -16.349649
v 38.460537 1.592333 0.000000
v 26.056523 -0.810310 -16.349649
v 30.887055 15.174934 -19.380656
v 42.601168 16.977848 0.000000
v 38.460537 1.592333 0.000000
v 30.887055 15.174934 -19.380656
v 27.276690 35.580338 -17.115265
v 30.476110 34.037194 0.000000
v 42.601168 16.977848 0.000000
v 6.859947 52.000000 -1.968786
v 30.476110 34.037194 0.000000
v 27.276690 35.580338 -17.115265
v 41.027974 14.524818 1.333287
v 44.336038 16.378266 6.359947
v 46.409010 16.231614 1.333287
v 46.409010 16.231614 1.333287
v 44.336038 16.378266 6.359947
v 44.321703 19.211561 6.338165
v 47.788350 19.129488 1.333287
v 41.027974 20.812705 1.333287
v 47.788350 19.129488 1.333287
v 44.321703 19.211561 6.338165
v 41.027974 14.524818 1.333287
v 39.674877 15.893119 8.517059
v 44.336038 16.378266 6.359947
v 44.336038 16.378266 6.359947
v 39.674877 15.893119 8.517059
v 39.768410 19.377005 8.020477
v 44.321703 19.211561 6.338165
v 41.027974 20.812705 1.333287
v 44.321703 19.211561 6.338165
v 39.768410 19.377005 8.020477
v 41.027974 14.524818 1.333287
v 36.024637 15.946901 4.253034
v 39.674877 15.893119 8.517059
v 39.674877 15.893119 8.517059
v 36.024637 15.946901 4.253034
v 35.408988 19.483759 4.612302
v 39.768410 19.377005 8.020477
v 41.027974 20.812705 1.333287
v 39.768410 19.377005 8.020477
v 35.408988 19.483759 4.612302
v 41.027974 14.524818 1.333287
v 36.320975 15.939474 -1.413529
v 36.024637 15.946901 4.253034
v 36.024637 15.946901 4.253034
v 36.320975 15.939474 -1.413529
v 35.040311 19.293644 -2.160874
v 35.408988 19.483759 4.612302
v 41.027974 20.812705 1.333287
v 35.408988 19.483759 4.612302
v 35.040311 19.293644 -2.160874
v 41.027974 14.524818 1.333287
v 39.855533 16.233405 -4.891360
v 36.320975 15.939474 -1.413529
v 36.320975 15.939474 -1.413529
v 39.855533 16.233405 -4.891360
v 39.753014 18.984449 -5.435648
v 35.040311 19.293644 -2.160874
v 41.027974 20.812705 1.333287
v 35.040311 19.293644 -2.160874
v 39.753014 18.984449 -5.435648
v 41.027974 14.524818 1.333287
v 44.526549 15.994019 -3.982858
v 39.855533 16.233405 -4.891360
v 39.855533 16.233405 -4.891360
v 44.526549 15.994019 -3.982858
v 44.869855 19.451650 -4.504518
v 39.753014 18.984449 -5.435648
v 41.027974 20.812705 1.333287
v 39.753014 18.984449 -5.435648
v 44.869855 19.451650 -4.504518
v 41.027974 14.524818 1.333287
v 46.409010 16.231614 1.333287
v 44.526549 15.994019 -3.982858
v 44.526549 15.994019 -3.982858
v 46.409010 16.231614 1.333287
v 47.788350 19.129488 1.333287
v 44.869855 19.451650 -4.504518
v 41.027974 20.812705 1.333287
v 44.869855 19.451650 -4.504518
v 47.788350 19.129488 1.333287
v 30.905751 22.957743 18.088015
v 35.712383 24.718905 23.571879
v 38.614777 25.319899 18.088015
v 38.614777 25.319899 18.088015
v 35.712383 24.718905 23.571879
v 35.302454 28.743468 23.104194
v 38.180664 28.680180 18.088015
v 30.905751 31.059040 18.088015
v 38.180664 28.680180 18.088015
v 35.302454 28.743468 23.104194
v 30.905751 22.957743 18.088015
v 29.293704 24.748608 24.514025
v 35.712383 24.718905 23.571879
v 35.712383 24.718905 23.571879
v 29.293704 24.748608 24.514025
v 29.279630 28.775164 24.570128
v 35.302454 28.743468 23.104194
v 30.905751 31.059040 18.088015
v 35.302454 28.743468 23.104194
v 29.279630 28.775164 24.570128
v 30.905751 22.957743 18.088015
v 25.130402 25.266773 20.618501
v 29.293704 24.748608 24.514025
v 29.293704 24.748608 24.514025
v 25.130402 25.266773 20.618501
v 25.313279 29.168189 20.538373
v 29.279630 28.775164 24.570128
v 30.905751 31.059040 18.088015
v 29.279630 28.775164 24.570128
v 25.313279 29.168189 20.538373
v 30.905751 22.957743 18.088015
v 23.820662 25.264418 14.983663
v 25.130402 25.266773 20.618501
v 25.130402 25.266773 20.618501
v 23.820662 25.264418 14.983663
v 23.788419 29.024173 14.969536
v 25.313279 29.168189 20.538373
v 30.905751 31.059040 18.088015
v 25.313279 29.168189 20.538373
v 23.788419 29.024173 14.969536
v 30.905751 22.957743 18.088015
v 29.439689 25.317484 12.243936
v 23.820662 25.264418 14.983663
v 23.820662 25.264418 14.983663
v 29.439689 25.317484 12.243936
v 29.453863 29.385307 12.300439
v 23.788419 29.024173 14.969536
v 30.905751 31.059040 18.088015
v 23.788419 29.024173 14.969536
v 29.453863 29.385307 12.300439
v 30.905751 22.957743 18.088015
v 35.743900 25.016374 12.568194
v 29.439689 25.317484 12.243936
v 29.439689 25.317484 12.243936
v 35.743900 25.016374 12.568194
v 34.629933 28.861301 13.839113
v 29.453863 29.385307 12.300439
v 30.905751 31.059040 18.088015
v 29.453863 29.385307 12.300439
v 34.629933 28.861301 13.839113
v 30.905751 22.957743 18.088015
v 38.614777 25.319899 18.088015
v 35.743900 25.016374 12.568194
v 35.743900 25.016374 12.568194
v 38.614777 25.319899 18.088015
v 38.180664 28.680180 18.088015
v 34.629933 28.861301 13.839113
v 30.905751 31.059040 18.088015
v 34.629933 28.861301 13.839113
v 38.180664 28.680180 18.088015
v 5.059178 8.877859 28.461494
v 8.764029 11.152221 33.225582
v 10.760098 10.744175 28.461494
v 10.760098 10.744175 28.461494
v 8.764029 11.152221 33.225582
v 8.347896 15.392605 32.690475
v 9.251177 15.773461 28.461494
v 5.059178 17.827959 28.461494
v 9.251177 15.773461 28.461494
v 8.347896 15.392605 32.690475
v 5.059178 8.877859 28.461494
v 3.790479 11.385882 34.161635
v 8.764029 11.152221 33.225582
v 8.764029 11.152221 33.225582
v 3.790479 11.385882 34.161635
v 3.787839 15.863949 34.173496
v 8.347896 15.392605 32.690475
v 5.059178 17.827959 28.461494
v 8.347896 15.392605 32.690475
v 3.787839 15.863949 34.173496
v 5.059178 8.877859 28.461494
v 0.937829 11.065011 30.496793
v 3.790479 11.385882 34.161635
v 3.790479 11.385882 34.161635
v 0.937829 11.065011 30.496793
v 0.925354 15.789781 30.502954
v 3.787839 15.863949 34.173496
v 5.059178 17.827959 28.461494
v 3.787839 15.863949 34.173496
v 0.925354 15.789781 30.502954
v 5.059178 8.877859 28.461494
v 1.174012 11.053774 26.542832
v 0.937829 11.065011 30.496793
v 0.937829 11.065011 30.496793
v 1.174012 11.053774 26.542832
v 0.509346 15.459167 26.214591
v 0.925354 15.789781 30.502954
v 5.059178 17.827959 28.461494
v 0.925354 15.789781 30.502954
v 0.509346 15.459167 26.214591
v 5.059178 8.877859 28.461494
v 3.874431 11.341179 23.138540
v 1.174012 11.053774 26.542832
v 1.174012 11.053774 26.542832
v 3.874431 11.341179 23.138540
v 4.127051 15.324319 24.273537
v 0.509346 15.459167 26.214591
v 5.059178 17.827959 28.461494
v 0.509346 15.459167 26.214591
v 4.127051 15.324319 24.273537
v 5.059178 8.877859 28.461494
v 8.528606 11.195256 24.000136
v 3.874431 11.341179 23.138540
v 3.874431 11.341179 23.138540
v 8.528606 11.195256 24.000136
v 8.393644 15.858342 24.173685
v 4.127051 15.324319 24.273537
v 5.059178 17.827959 28.461494
v 4.127051 15.324319 24.273537
v 8.393644 15.858342 24.173685
v 5.059178 8.877859 28.461494
v 10.760098 10.744175 28.461494
v 8.528606 11.195256 24.000136
v 8.528606 11.195256 24.000136
v 10.760098 10.744175 28.461494
v 9.251177 15.773461 28.461494
v 8.393644 15.858342 24.173685
v 5.059178 17.827959 28.461494
v 8.393644 15.858342 24.173685
v 9.251177 15.773461 28.461494
v -11.991436 18.372549 23.008889
v -7.031323 20.975408 27.113510
v -5.821430 20.929283 23.008889
v -5.821430 20.929283 23.008889
v -7.031323 20.975408 27.113510
v -7.442478 25.745078 26.773269
v -6.062136 25.732613 23.008889
v -11.991436 27.858704 23.008889
v -6.062136 25.732613 23.008889
v -7.442478 25.745078 26.773269
v -11.991436 18.372549 23.008889
v -13.430936 20.629112 27.170974
v -7.031323 20.975408 27.113510
v -7.031323 20.975408 27.113510
v -13.430936 20.629112 27.170974
v -13.768853 25.381087 28.148005
v -7.442478 25.745078 26.773269
v -11.991436 27.858704 23.008889
v -7.442478 25.745078 26.773269
v -13.768853 25.381087 28.148005
v -11.991436 18.372549 23.008889
v -17.147759 20.562772 24.647596
v -13.430936 20.629112 27.170974
v -13.430936 20.629112 27.170974
v -17.147759 20.562772 24.647596
v -18.477495 25.145087 25.070193
v -13.768853 25.381087 28.148005
v -11.991436 27.858704 23.008889
v -13.768853 25.381087 28.148005
v -18.477495 25.145087 25.070193
v -11.991436 18.372549 23.008889
v -17.152482 20.724569 21.368681
v -17.147759 20.562772 24.647596
v -17.147759 20.562772 24.647596
v -17.152482 20.724569 21.368681
v -18.584963 25.622316 20.913431
v -18.477495 25.145087 25.070193
v -11.991436 27.858704 23.008889
v -18.477495 25.145087 25.070193
v -18.584963 25.622316 20.913431
v -11.991436 18.372549 23.008889
v -13.522196 20.476432 18.582942
v -17.152482 20.724569 21.368681
v -17.152482 20.724569 21.368681
v -13.522196 20.476432 18.582942
v -13.749340 25.491586 17.926190
v -18.584963 25.622316 20.913431
v -11.991436 27.858704 23.008889
v -18.584963 25.622316 20.913431
v -13.749340 25.491586 17.926190
v -11.991436 18.372549 23.008889
v -8.091643 20.599520 19.781710
v -13.522196 20.476432 18.582942
v -13.522196 20.476432 18.582942
v -8.091643 20.599520 19.781710
v -8.371736 25.912064 20.013494
v -13.749340 25.491586 17.926190
v -11.991436 27.858704 23.008889
v -13.749340 25.491586 17.926190
v -8.371736 25.912064 20.013494
v -11.991436 18.372549 23.008889
v -5.821430 20.929283 23.008889
v -8.091643 20.599520 19.781710
v -8.091643 20.599520 19.781710
v -5.821430 20.929283 23.008889
v -6.062136 25.732613 23.008889
v -8.371736 25.912064 20.013494
v -11.991436 27.858704 23.008889
v -8.371736 25.912064 20.013494
v -6.062136 25.732613 23.008889
v -38.038338 12.982024 7.149168
v -33.189412 14.906396 12.623654
v -28.833525 14.592331 7.149168
v -28.833525 14.592331 7.149168
v -33.189412 14.906396 12.623654
v -33.875341 18.571691 11.849232
v -29.805554 18.523680 7.149168
v -38.038338 20.778253 7.149168
v -29.805554 18.523680 7.149168
v -33.875341 18.571691 11.849232
v -38.038338 12.982024 7.149168
v -39.545386 14.897632 13.094044
v -33.189412 14.906396 12.623654
v -33.189412 14.906396 12.623654
v -39.545386 14.897632 13.094044
v -40.014988 18.855603 14.946487
v -33.875341 18.571691 11.849232
v -38.038338 20.778253 7.149168
v -33.875341 18.571691 11.849232
v -40.014988 18.855603 14.946487
v -38.038338 12.982024 7.149168
v -45.677355 15.124522 10.461356
v -39.545386 14.897632 13.094044
v -39.545386 14.897632 13.094044
v -45.677355 15.124522 10.461356
v -44.341157 18.959552 9.881997
v -40.014988 18.855603 14.946487
v -38.038338 20.778253 7.149168
v -40.014988 18.855603 14.946487
v -44.341157 18.959552 9.881997
v -38.038338 12.982024 7.149168
v -46.204268 14.967052 3.608517
v -45.677355 15.124522 10.461356
v -45.677355 15.124522 10.461356
v -46.204268 14.967052 3.608517
v -46.579187 18.496903 3.445956
v -44.341157 18.959552 9.881997
v -38.038338 20.778253 7.149168
v -44.341157 18.959552 9.881997
v -46.579187 18.496903 3.445956
v -38.038338 12.982024 7.149168
v -39.836780 14.901864 0.054829
v -46.204268 14.967052 3.608517
v -46.204268 14.967052 3.608517
v -39.836780 14.901864 0.054829
v -39.673509 19.118720 0.698885
v -46.579187 18.496903 3.445956
v -38.038338 20.778253 7.149168
v -46.579187 18.496903 3.445956
v -39.673509 19.118720 0.698885
v -38.038338 12.982024 7.149168
v -33.432862 15.240744 1.949541
v -39.836780 14.901864 0.054829
v -39.836780 14.901864 0.054829
v -33.432862 15.240744 1.949541
v -32.638542 18.795668 1.052745
v -39.673509 19.118720 0.698885
v -38.038338 20.778253 7.149168
v -39.673509 19.118720 0.698885
v -32.638542 18.795668 1.052745
v -38.038338 12.982024 7.149168
v -28.833525 14.592331 7.149168
v -33.432862 15.240744 1.949541
v -33.432862 15.240744 1.949541
v -28.833525 14.592331 7.149168
v -29.805554 18.523680 7.149168
v -32.638542 18.795668 1.052745
v -38.038338 20.778253 7.149168
v -32.638542 18.795668 1.052745
v -29.805554 18.523680 7.149168
v -27.711036 18.131989 -7.468707
v -21.777102 19.747947 -1.486447
v -19.521497 20.155489 -7.468707
v -19.521497 20.155489 -7.468707
v -21.777102 19.747947 -1.486447
v -21.658280 23.730242 -1.366658
v -18.754536 23.601192 -7.468707
v -27.711036 25.297786 -7.468707
v -18.754536 23.601192 -7.468707
v -21.658280 23.730242 -1.366658
v -27.711036 18.131989 -7.468707
v -29.799689 19.676277 -0.111607
v -21.777102 19.747947 -1.486447
v -21.777102 19.747947 -1.486447
v -29.799689 19.676277 -0.111607
v -29.399284 23.705645 -1.521998
v -21.658280 23.730242 -1.366658
v -27.711036 25.297786 -7.468707
v -21.658280 23.730242 -1.366658
v -29.399284 23.705645 -1.521998
v -27.711036 18.131989 -7.468707
v -34.842744 19.826358 -4.707520
v -29.799689 19.676277 -0.111607
v -29.799689 19.676277 -0.111607
v -34.842744 19.826358 -4.707520
v -36.360196 23.742079 -4.120007
v -29.399284 23.705645 -1.521998
v -27.711036 25.297786 -7.468707
v -29.399284 23.705645 -1.521998
v -36.360196 23.742079 -4.120007
v -27.711036 18.131989 -7.468707
v -34.981912 19.684482 -10.283777
v -34.842744 19.826358 -4.707520
v -34.842744 19.826358 -4.707520
v -34.981912 19.684482 -10.283777
v -34.336915 23.416802 -10.034053
v -36.360196 23.742079 -4.120007
v -27.711036 25.297786 -7.468707
v -36.360196 23.742079 -4.120007
v -34.336915 23.416802 -10.034053
v -27.711036 18.131989 -7.468707
v -29.903395 20.041818 -15.191103
v -34.981912 19.684482 -10.283777
v -34.981912 19.684482 -10.283777
v -29.903395 20.041818 -15.191103
v -29.542099 23.507869 -13.918471
v -34.336915 23.416802 -10.034053
v -27.711036 25.297786 -7.468707
v -34.336915 23.416802 -10.034053
v -29.542099 23.507869 -13.918471
v -27.711036 18.131989 -7.468707
v -23.278594 20.014726 -11.937247
v -29.903395 20.041818 -15.191103
v -29.903395 20.041818 -15.191103
v -23.278594 20.014726 -11.937247
v -22.560072 23.353796 -12.661621
v -29.542099 23.507869 -13.918471
v -27.711036 25.297786 -7.468707
v -29.542099 23.507869 -13.918471
v -22.560072 23.353796 -12.661621
v -27.711036 18.131989 -7.468707
v -19.521497 20.155489 -7.468707
v -23.278594 20.014726 -11.937247
v -23.278594 20.014726 -11.937247
v -19.521497 20.155489 -7.468707
v -18.754536 23.601192 -7.468707
v -22.560072 23.353796 -12.661621
v -27.711036 25.297786 -7.468707
v -22.560072 23.353796 -12.661621
v -18.754536 23.601192 -7.468707
v -16.534832 11.288117 -22.009432
v -13.296635 13.198980 -17.804265
v -11.004126 13.708690 -22.009432
v -11.004126 13.708690 -22.009432
v -13.296635 13.198980 -17.804265
v -13.106347 17.826227 -17.557154
v -11.301766 17.653942 -22.009432
v -16.534832 19.865861 -22.009432
v -11.301766 17.653942 -22.009432
v -13.106347 17.826227 -17.557154
v -16.534832 11.288117 -22.009432
v -17.727103 13.549874 -16.599739
v -13.296635 13.198980 -17.804265
v -13.296635 13.198980 -17.804265
v -17.727103 13.549874 -16.599739
v -17.610109 17.643747 -17.130577
v -13.106347 17.826227 -17.557154
v -16.534832 19.865861 -22.009432
v -13.106347 17.826227 -17.557154
v -17.610109 17.643747 -17.130577
v -16.534832 11.288117 -22.009432
v -20.994291 13.610543 -19.785395
v -17.727103 13.549874 -16.599739
v -17.727103 13.549874 -16.599739
v -20.994291 13.610543 -19.785395
v -20.436238 17.367719 -20.063709
v -17.610109 17.643747 -17.130577
v -16.534832 19.865861 -22.009432
v -17.610109 17.643747 -17.130577
v -20.436238 17.367719 -20.063709
v -16.534832 11.288117 -22.009432
v -20.665270 13.593712 -24.069378
v -20.994291 13.610543 -19.785395
v -20.994291 13.610543 -19.785395
v -20.665270 13.593712 -24.069378
v -21.201852 17.444005 -24.336984
v -20.436238 17.367719 -20.063709
v -16.534832 19.865861 -22.009432
v -20.436238 17.367719 -20.063709
v -21.201852 17.444005 -24.336984
v -16.534832 11.288117 -22.009432
v -17.549474 13.136931 -26.613168
v -20.665270 13.593712 -24.069378
v -20.665270 13.593712 -24.069378
v -17.549474 13.136931 -26.613168
v -17.404215 17.363571 -25.954084
v -21.201852 17.444005 -24.336984
v -16.534832 19.865861 -22.009432
v -21.201852 17.444005 -24.336984
v -17.404215 17.363571 -25.954084
v -16.534832 11.288117 -22.009432
v -13.232694 13.497876 -26.297634
v -17.549474 13.136931 -26.613168
v -17.549474 13.136931 -26.613168
v -13.232694 13.497876 -26.297634
v -13.866855 17.794408 -25.474104
v -17.404215 17.363571 -25.954084
v -16.534832 19.865861 -22.009432
v -17.404215 17.363571 -25.954084
v -13.866855 17.794408 -25.474104
v -16.534832 11.288117 -22.009432
v -11.004126 13.708690 -22.009432
v -13.232694 13.497876 -26.297634
v -13.232694 13.497876 -26.297634
v -11.004126 13.708690 -22.009432
v -11.301766 17.653942 -22.009432
v -13.866855 17.794408 -25.474104
v -16.534832 19.865861 -22.009432
v -13.866855 17.794408 -25.474104
v -11.301766 17.653942 -22.009432
v 10.141457 27.561280 -30.846770
v 13.845226 30.226208 -25.703992
v 16.308365 30.360632 -30.846770
v 16.308365 30.360632 -30.846770
v 13.845226 30.226208 -25.703992
v 14.635121 37.210408 -24.607204
v 18.560041 36.739815 -30.846770
v 10.141457 40.390709 -30.846770
v 18.560041 36.739815 -30.846770
v 14.635121 37.210408 -24.607204
v 10.141457 27.561280 -30.846770
v 8.649544 31.148222 -23.608827
v 13.845226 30.226208 -25.703992
v 13.845226 30.226208 -25.703992
v 8.649544 31.148222 -23.608827
v 8.482947 36.660182 -22.800593
v 14.635121 37.210408 -24.607204
v 10.141457 40.390709 -30.846770
v 14.635121 37.210408 -24.607204
v 8.482947 36.660182 -22.800593
v 10.141457 27.561280 -30.846770
v 4.063041 30.884220 -27.605435
v 8.649544 31.148222 -23.608827
v 8.649544 31.148222 -23.608827
v 4.063041 30.884220 -27.605435
v 3.016634 36.609722 -27.047434
v 8.482947 36.660182 -22.800593
v 10.141457 40.390709 -30.846770
v 8.482947 36.660182 -22.800593
v 3.016634 36.609722 -27.047434
v 10.141457 27.561280 -30.846770
v 3.190684 31.005866 -34.553293
v 4.063041 30.884220 -27.605435
v 4.063041 30.884220 -27.605435
v 3.190684 31.005866 -34.553293
v 2.941896 37.233943 -34.685960
v 3.016634 36.609722 -27.047434
v 10.141457 40.390709 -30.846770
v 3.016634 36.609722 -27.047434
v 2.941896 37.233943 -34.685960
v 10.141457 27.561280 -30.846770
v 8.500816 31.266750 -38.806260
v 3.190684 31.005866 -34.553293
v 3.190684 31.005866 -34.553293
v 8.500816 31.266750 -38.806260
v 8.436567 36.712463 -39.117957
v 2.941896 37.233943 -34.685960
v 10.141457 40.390709 -30.846770
v 2.941896 37.233943 -34.685960
v 8.436567 36.712463 -39.117957
v 10.141457 27.561280 -30.846770
v 14.404406 30.961809 -36.765983
v 8.500816 31.266750 -38.806260
v 8.500816 31.266750 -38.806260
v 14.404406 30.961809 -36.765983
v 14.543390 36.771102 -36.958967
v 8.436567 36.712463 -39.117957
v 10.141457 40.390709 -30.846770
v 8.436567 36.712463 -39.117957
v 14.543390 36.771102 -36.958967
v 10.141457 27.561280 -30.846770
v 16.308365 30.360632 -30.846770
v 14.404406 30.961809 -36.765983
v 14.404406 30.961809 -36.765983
v 16.308365 30.360632 -30.846770
v 18.560041 36.739815 -30.846770
v 14.543390 36.771102 -36.958967
v 10.141457 40.390709 -30.846770
v 14.543390 36.771102 -36.958967
v 18.560041 36.739815 -30.846770
v 24.034031 30.322173 -18.233303
v 28.052079 32.474931 -12.522340
v 29.922940 32.243332 -18.233303
v 29.922940 32.243332 -18.233303
v 28.052079 32.474931 -12.522340
v 27.048042 36.123794 -13.949407
v 30.602217 36.161838 -18.233303
v 24.034031 38.249051 -18.233303
v 30.602217 36.161838 -18.233303
v 27.048042 36.123794 -13.949407
v 24.034031 30.322173 -18.233303
v 22.771406 32.619185 -11.963029
v 28.052079 32.474931 -12.522340
v 28.052079 32.474931 -12.522340
v 22.771406 32.619185 -11.963029
v 22.699276 36.427444 -11.604826
v 27.048042 36.123794 -13.949407
v 24.034031 38.249051 -18.233303
v 27.048042 36.123794 -13.949407
v 22.699276 36.427444 -11.604826
v 24.034031 30.322173 -18.233303
v 18.428286 32.515030 -15.173402
v 22.771406 32.619185 -11.963029
v 22.771406 32.619185 -11.963029
v 18.428286 32.515030 -15.173402
v 19.052679 36.317266 -15.514227
v 22.699276 36.427444 -11.604826
v 24.034031 38.249051 -18.233303
v 22.699276 36.427444 -11.604826
v 19.052679 36.317266 -15.514227
v 24.034031 30.322173 -18.233303
v 19.602727 32.112460 -20.652135
v 18.428286 32.515030 -15.173402
v 18.428286 32.515030 -15.173402
v 19.602727 32.112460 -20.652135
v 18.635407 36.418285 -21.180147
v 19.052679 36.317266 -15.514227
v 24.034031 38.249051 -18.233303
v 19.052679 36.317266 -15.514227
v 18.635407 36.418285 -21.180147
v 24.034031 30.322173 -18.233303
v 22.591745 32.202030 -25.395788
v 19.602727 32.112460 -20.652135
v 19.602727 32.112460 -20.652135
v 22.591745 32.202030 -25.395788
v 22.877631 36.072083 -23.976061
v 18.635407 36.418285 -21.180147
v 24.034031 38.249051 -18.233303
v 18.635407 36.418285 -21.180147
v 22.877631 36.072083 -23.976061
v 24.034031 30.322173 -18.233303
v 27.167566 32.068204 -22.687084
v 22.591745 32.202030 -25.395788
v 22.591745 32.202030 -25.395788
v 27.167566 32.068204 -22.687084
v 28.044603 36.260631 -23.933641
v 22.877631 36.072083 -23.976061
v 24.034031 38.249051 -18.233303
v 22.877631 36.072083 -23.976061
v 28.044603 36.260631 -23.933641
v 24.034031 30.322173 -18.233303
v 29.922940 32.243332 -18.233303
v 27.167566 32.068204 -22.687084
v 27.167566 32.068204 -22.687084
v 29.922940 32.243332 -18.233303
v 30.602217 36.161838 -18.233303
v 28.044603 36.260631 -23.933641
v 24.034031 38.249051 -18.233303
v 28.044603 36.260631 -23.933641
v 30.602217 36.161838 -18.233303
v -32.688151 37.794494 -9.064261
v -32.565329 35.371237 -10.461665
v 21.607023 38.561984 -9.830829
v 21.545612 39.773613 -9.132126
v -32.619374 37.794494 -11.863416
v -32.565329 35.371237 -10.461665
v -32.688151 37.794494 -9.064261
v 21.580000 39.773613 -10.531704
v 21.545612 39.773613 -9.132126
v 21.607023 38.561984 -9.830829
v -32.565329 35.371237 -10.461665
v -32.496552 35.371237 -13.260821
v 21.641411 38.561984 -11.230406
v 21.607023 38.561984 -9.830829
v -32.619374 37.794494 -11.863416
v -32.496552 35.371237 -13.260821
v -32.565329 35.371237 -10.461665
v 21.580000 39.773613 -10.531704
v 21.607023 38.561984 -9.830829
v 21.641411 38.561984 -11.230406
v -32.496552 35.371237 -13.260821
v -32.550597 37.794494 -14.662571
v 21.614389 39.773613 -11.931282
v 21.641411 38.561984 -11.230406
v -32.619374 37.794494 -11.863416
v -32.550597 37.794494 -14.662571
v -32.496552 35.371237 -13.260821
v 21.580000 39.773613 -10.531704
v 21.641411 38.561984 -11.230406
v 21.614389 39.773613 -11.931282
v -32.550597 37.794494 -14.662571
v -32.673418 40.217751 -13.265166
v 21.552978 40.985241 -11.232579
v 21.614389 39.773613 -11.931282
v -32.619374 37.794494 -11.863416
v -32.673418 40.217751 -13.265166
v -32.550597 37.794494 -14.662571
v 21.580000 39.773613 -10.531704
v 21.614389 39.773613 -11.931282
v 21.552978 40.985241 -11.232579
v -32.673418 40.217751 -13.265166
v -32.742195 40.217751 -10.466011
v 21.518590 40.985241 -9.833002
v 21.552978 40.985241 -11.232579
v -32.619374 37.794494 -11.863416
v -32.742195 40.217751 -10.466011
v -32.673418 40.217751 -13.265166
v 21.580000 39.773613 -10.531704
v 21.552978 40.985241 -11.232579
v 21.518590 40.985241 -9.833002
v -32.742195 40.217751 -10.466011
v -32.688151 37.794494 -9.064261
v 21.545612 39.773613 -9.132126
v 21.518590 40.985241 -9.833002
v -32.619374 37.794494 -11.863416
v -32.688151 37.794494 -9.064261
v -32.742195 40.217751 -10.466011
v 21.580000 39.773613 -10.531704
v 21.518590 40.985241 -9.833002
v 21.545612 39.773613 -9.132126
v -17.081697 31.005476 -7.990687
v -16.842376 28.582778 -9.373893
v 20.642002 28.167100 -0.743323
v 20.522341 29.378449 -0.051720
v -16.403897 31.005476 -10.707411
v -16.842376 28.582778 -9.373893
v -17.081697 31.005476 -7.990687
v 20.861241 29.378449 -1.410082
v 20.522341 29.378449 -0.051720
v 20.642002 28.167100 -0.743323
v -16.842376 28.582778 -9.373893
v -16.164577 28.582778 -12.090617
v 20.980901 28.167100 -2.101685
v 20.642002 28.167100 -0.743323
v -16.403897 31.005476 -10.707411
v -16.164577 28.582778 -12.090617
v -16.842376 28.582778 -9.373893
v 20.861241 29.378449 -1.410082
v 20.642002 28.167100 -0.743323
v 20.980901 28.167100 -2.101685
v -16.164577 28.582778 -12.090617
v -15.726098 31.005476 -13.424135
v 21.200140 29.378449 -2.768444
v 20.980901 28.167100 -2.101685
v -16.403897 31.005476 -10.707411
v -15.726098 31.005476 -13.424135
v -16.164577 28.582778 -12.090617
v 20.861241 29.378449 -1.410082
v 20.980901 28.167100 -2.101685
v 21.200140 29.378449 -2.768444
v -15.726098 31.005476 -13.424135
v -15.965419 33.428174 -12.040929
v 21.080480 30.589798 -2.076841
v 21.200140 29.378449 -2.768444
v -16.403897 31.005476 -10.707411
v -15.965419 33.428174 -12.040929
v -15.726098 31.005476 -13.424135
v 20.861241 29.378449 -1.410082
v 21.200140 29.378449 -2.768444
v 21.080480 30.589798 -2.076841
v -15.965419 33.428174 -12.040929
v -16.643218 33.428174 -9.324205
v 20.741580 30.589798 -0.718479
v 21.080480 30.589798 -2.076841
v -16.403897 31.005476 -10.707411
v -16.643218 33.428174 -9.324205
v -15.965419 33.428174 -12.040929
v 20.861241 29.378449 -1.410082
v 21.080480 30.589798 -2.076841
v 20.741580 30.589798 -0.718479
v -16.643218 33.428174 -9.324205
v -17.081697 31.005476 -7.990687
v 20.522341 29.378449 -0.051720
v 20.741580 30.589798 -0.718479
v -16.403897 31.005476 -10.707411
v -17.081697 31.005476 -7.990687
v -16.643218 33.428174 -9.324205
v 20.861241 29.378449 -1.410082
v 20.741580 30.589798 -0.718479
v 20.522341 29.378449 -0.051720
v -16.879489 28.649351 23.073765
v -17.239208 26.224715 21.720346
v 26.666104 26.805912 10.457930
v 26.845963 28.018230 11.134640
v -17.533241 28.649351 20.351154
v -17.239208 26.224715 21.720346
v -16.879489 28.649351 23.073765
v 26.519087 28.018230 9.773334
v 26.845963 28.018230 11.134640
v 26.666104 26.805912 10.457930
v -17.239208 26.224715 21.720346
v -17.892960 26.224715 18.997735
v 26.339228 26.805912 9.096625
v 26.666104 26.805912 10.457930
v -17.533241 28.649351 20.351154
v -17.892960 26.224715 18.997735
v -17.239208 26.224715 21.720346
v 26.519087 28.018230 9.773334
v 26.666104 26.805912 10.457930
v 26.339228 26.805912 9.096625
v -17.892960 26.224715 18.997735
v -18.186993 28.649351 17.628543
v 26.192211 28.018230 8.412029
v 26.339228 26.805912 9.096625
v -17.533241 28.649351 20.351154
v -18.186993 28.649351 17.628543
v -17.892960 26.224715 18.997735
v 26.519087 28.018230 9.773334
v 26.339228 26.805912 9.096625
v 26.192211 28.018230 8.412029
v -18.186993 28.649351 17.628543
v -17.827274 31.073987 18.981962
v 26.372071 29.230548 9.088739
v 26.192211 28.018230 8.412029
v -17.533241 28.649351 20.351154
v -17.827274 31.073987 18.981962
v -18.186993 28.649351 17.628543
v 26.519087 28.018230 9.773334
v 26.192211 28.018230 8.412029
v 26.372071 29.230548 9.088739
v -17.827274 31.073987 18.981962
v -17.173522 31.073987 21.704573
v 26.698947 29.230548 10.450044
v 26.372071 29.230548 9.088739
v -17.533241 28.649351 20.351154
v -17.173522 31.073987 21.704573
v -17.827274 31.073987 18.981962
v 26.519087 28.018230 9.773334
v 26.372071 29.230548 9.088739
v 26.698947 29.230548 10.450044
v -17.173522 31.073987 21.704573
v -16.879489 28.649351 23.073765
v 26.845963 28.018230 11.134640
v 26.698947 29.230548 10.450044
v -17.533241 28.649351 20.351154
v -16.879489 28.649351 23.073765
v -17.173522 31.073987 21.704573
v 26.519087 28.018230 9.773334
v 26.698947 29.230548 10.450044
v 26.845963 28.018230 11.134640
vt 0.500000 1.000000
vt 0.000000 0.000000
vt 1.000000 0.000000
vt 0.000000 0.000000
vt 1.000000 0.000000
vt 1.000000 1.000000
vt 0.000000 1.000000
vt 0.000000 0.000000
vt 1.000000 0.000000
vt 1.000000 1.000000
vt 0.000000 1.000000
vt 0.500000 1.000000
vt 0.000000 0.000000
vt 1.000000 0.000000
vt 0.500000 1.000000
vt 0.000000 0.000000
vt 1.000000 0.000000
vt 0.000000 0.000000
vt 1.000000 0.000000
vt 1.000000 1.000000
vt 0.000000 1.000000
vt 0.000000 0.000000
vt 1.000000 0.000000
vt 1.000000 1.000000
vt 0.000000 1.000000
vt 0.500000 1.000000
vt 0.000000 0.000000
vt 1.000000 0.000000
vt 0.500000 1.000000
vt 0.000000 0.000000
vt 1.000000 0.000000
vt 0.000000 0.000000
vt 1.000000 0.000000
vt 1.000000 1.000000
vt 0.000000 1.000000
vt 0.000000 0.000000
vt 1.000000 0.000000
vt 1.000000 1.000000
vt 0.000000 1.000000
vt 0.500000 1.000000
vt 0.000000 0.000000
vt 1.000000 0.000000
vt 0.500000 1.000000
vt 0.000000 0.000000
vt 1.000000 0.000000
vt 0.000000 0.000000
vt 1.000000 0.000000
vt 1.000000 1.000000
vt 0.000000 1.000000
vt 0.000000 0.000000
vt 1.000000 0.000000
vt 1.000000 1.000000
vt 0.000000 1.000000
vt 0.500000 1.000000
vt 0.000000 0.000000
vt 1.000000 0.000000
vt 0.500000 1.000000
vt 0.000000 0.000000
vt 1.000000 0.000000
vt 0.000000 0.000000
vt 1.000000 0.000000
vt 1.000000 1.000000
vt 0.000000 1.000000
vt 0.000000 0.000000
vt 1.000000 0.000000
vt 1.000000 1.000000
vt 0.000000 1.000000
vt 0.500000 1.000000
vt 0.000000 0.000000
vt 1.000000 0.000000
vt 0.500000 1.000000
vt 0.000000 0.000000
vt 1.000000 0.000000
vt 0.000000 0.000000
vt 1.000000 0.000000
vt 1.000000 1.000000
vt 0.000000 1.000000
vt 0.000000 0.000000
vt 1.000000 0.000000
vt 1.000000 1.000000
vt 0.000000 1.000000
vt 0.500000 1.000000
vt 0.000000 0.000000
vt 1.000000 0.000000
vt 0.500000 1.000000
vt 0.000000 0.000000
vt 1.000000 0.000000
vt 0.000000 0.000000
vt 1.000000 0.000000
vt 1.000000 1.000000
vt 0.000000 1.000000
vt 0.000000 0.000000
vt 1.000000 0.000000
vt 1.000000 1.000000
vt 0.000000 1.000000
vt 0.500000 1.000000
vt 0.000000 0.000000
vt 1.000000 0.000000
vt 0.500000 1.000000
vt 0.000000 0.000000
vt 1.000000 0.000000
vt 0.000000 0.000000
vt 1.000000 0.000000
vt 1.000000 1.000000
vt 0.000000 1.000000
vt 0.000000 0.000000
vt 1.000000 0.000000
vt 1.000000 1.000000
vt 0.000000 1.000000
vt 0.500000 1.000000
vt 0.000000 0.000000
vt 1.000000 0.000000
vt 0.500000 1.000000
vt 0.000000 0.000000
vt 1.000000 0.000000
vt 0.000000 0.000000
vt 1.000000 0.000000
vt 1.000000 1.000000
vt 0.000000 1.000000
vt 0.000000 0.000000
vt 1.000000 0.000000
vt 1.000000 1.000000
vt 0.000000 1.000000
vt 0.500000 1.000000
vt 0.000000 0.000000
vt 1.000000 0.000000
vt 0.500000 1.000000
vt 0.000000 0.000000
vt 1.000000 0.000000
vt 0.000000 0.000000
vt 1.000000 0.000000
vt 1.000000 1.000000
vt 0.000000 1.000000
vt 0.000000 0.000000
vt 1.000000 0.000000
vt 1.000000 1.000000
vt 0.000000 1.000000
vt 0.500000 1.000000
vt 0.000000 0.000000
vt 1.000000 0.000000
vt 0.500000 1.000000
vt 0.000000 0.000000
vt 1.000000 0.000000
vt 0.000000 0.000000
vt 1.000000 0.000000
vt 1.000000 1.000000
vt 0.000000 1.000000
vt 0.500000 1.000000
vt 0.000000 0.000000
vt 1.000000 0.000000
vt 0.500000 1.000000
vt 0.000000 0.000000
vt 1.000000 0.000000
vt 0.000000 0.000000
vt 1.000000 0.000000
vt 1.000000 1.000000
vt 0.000000 1.000000
vt 0.500000 1.000000
vt 0.000000 0.000000
vt 1.000000 0.000000
vt 0.500000 1.000000
vt 0.000000 0.000000
vt 1.000000 0.000000
vt 0.000000 0.000000
vt 1.000000 0.000000
vt 1.000000 1.000000
vt 0.000000 1.000000
vt 0.500000 1.000000
vt 0.000000 0.000000
vt 1.000000 0.000000
vt 0.500000 1.000000
vt 0.000000 0.000000
vt 1.000000 0.000000
vt 0.000000 0.000000
vt 1.000000 0.000000
vt 1.000000 1.000000
vt 0.000000 1.000000
vt 0.500000 1.000000
vt 0.000000 0.000000
vt 1.000000 0.000000
vt 0.500000 1.000000
vt 0.000000 0.000000
vt 1.000000 0.000000
vt 0.000000 0.000000
vt 1.000000 0.000000
vt 1.000000 1.000000
vt 0.000000 1.000000
vt 0.500000 1.000000
vt 0.000000 0.000000
vt 1.000000 0.000000
vt 0.500000 1.000000
vt 0.000000 0.000000
vt 1.000000 0.000000
vt 0.000000 0.000000
vt 1.000000 0.000000
vt 1.000000 1.000000
vt 0.000000 1.000000
vt 0.500000 1.000000
vt 0.000000 0.000000
vt 1.000000 0.000000
vt 0.500000 1.000000
vt 0.000000 0.000000
vt 1.000000 0.000000
vt 0.000000 0.000000
vt 1.000000 0.000000
vt 1.000000 1.000000
vt 0.000000 1.000000
vt 0.500000 1.000000
vt 0.000000 0.000000
vt 1.000000 0.000000
vt 0.500000 1.000000
vt 0.000000 0.000000
vt 1.000000 0.000000
vt 0.000000 0.000000
vt 1.000000 0.000000
vt 1.000000 1.000000
vt 0.000000 1.000000
vt 0.500000 1.000000
vt 0.000000 0.000000
vt 1.000000 0.000000
vt 0.500000 1.000000
vt 0.000000 0.000000
vt 1.000000 0.000000
vt 0.000000 0.000000
vt 1.000000 0.000000
vt 1.000000 1.000000
vt 0.000000 1.000000
vt 0.500000 1.000000
vt 0.000000 0.000000
vt 1.000000 0.000000
vt 0.500000 1.000000
vt 0.000000 0.000000
vt 1.000000 0.000000
vt 0.000000 0.000000
vt 1.000000 0.000000
vt 1.000000 1.000000
vt 0.000000 1.000000
vt 0.500000 1.000000
vt 0.000000 0.000000
vt 1.000000 0.000000
vt 0.500000 1.000000
vt 0.000000 0.000000
vt 1.000000 0.000000
vt 0.000000 0.000000
vt 1.000000 0.000000
vt 1.000000 1.000000
vt 0.000000 1.000000
vt 0.500000 1.000000
vt 0.000000 0.000000
vt 1.000000 0.000000
vt 0.500000 1.000000
vt 0.000000 0.000000
vt 1.000000 0.000000
vt 0.000000 0.000000
vt 1.000000 0.000000
vt 1.000000 1.000000
vt 0.000000 1.000000
vt 0.500000 1.000000
vt 0.000000 0.000000
vt 1.000000 0.000000
vt 0.500000 1.000000
vt 0.000000 0.000000
vt 1.000000 0.000000
vt 0.000000 0.000000
vt 1.000000 0.000000
vt 1.000000 1.000000
vt 0.000000 1.000000
vt 0.500000 1.000000
vt 0.000000 0.000000
vt 1.000000 0.000000
vt 0.500000 1.000000
vt 0.000000 0.000000
vt 1.000000 0.000000
vt 0.000000 0.000000
vt 1.000000 0.000000
vt 1.000000 1.000000
vt 0.000000 1.000000
vt 0.500000 1.000000
vt 0.000000 0.000000
vt 1.000000 0.000000
vt 0.500000 1.000000
vt 0.000000 0.000000
vt 1.000000 0.000000
vt 0.000000 0.000000
vt 1.000000 0.000000
vt 1.000000 1.000000
vt 0.000000 1.000000
vt 0.500000 1.000000
vt 0.000000 0.000000
vt 1.000000 0.000000
vt 0.500000 1.000000
vt 0.000000 0.000000
vt 1.000000 0.000000
vt 0.000000 0.000000
vt 1.000000 0.000000
vt 1.000000 1.000000
vt 0.000000 1.000000
vt 0.500000 1.000000
vt 0.000000 0.000000
vt 1.000000 0.000000
vt 0.500000 1.000000
vt 0.000000 0.000000
vt 1.000000 0.000000
vt 0.000000 0.000000
vt 1.000000 0.000000
vt 1.000000 1.000000
vt 0.000000 1.000000
vt 0.500000 1.000000
vt 0.000000 0.000000
vt 1.000000 0.000000
vt 0.500000 1.000000
vt 0.000000 0.000000
vt 1.000000 0.000000
vt 0.000000 0.000000
vt 1.000000 0.000000
vt 1.000000 1.000000
vt 0.000000 1.000000
vt 0.500000 1.000000
vt 0.000000 0.000000
vt 1.000000 0.000000
vt 0.500000 1.000000
vt 0.000000 0.000000
vt 1.000000 0.000000
vt 0.000000 0.000000
vt 1.000000 0.000000
vt 1.000000 1.000000
vt 0.000000 1.000000
vt 0.500000 1.000000
vt 0.000000 0.000000
vt 1.000000 0.000000
vt 0.500000 1.000000
vt 0.000000 0.000000
vt 1.000000 0.000000
vt 0.000000 0.000000
vt 1.000000 0.000000
vt 1.000000 1.000000
vt 0.000000 1.000000
vt 0.500000 1.000000
vt 0.000000 0.000000
vt 1.000000 0.000000
vt 0.500000 1.000000
vt 0.000000 0.000000
vt 1.000000 0.000000
vt 0.000000 0.000000
vt 1.000000 0.000000
vt 1.000000 1.000000
vt 0.000000 1.000000
vt 0.500000 1.000000
vt 0.000000 0.000000
vt 1.000000 0.000000
vt 0.500000 1.000000
vt 0.000000 0.000000
vt 1.000000 0.000000
vt 0.000000 0.000000
vt 1.000000 0.000000
vt 1.000000 1.000000
vt 0.000000 1.000000
vt 0.500000 1.000000
vt 0.000000 0.000000
vt 1.000000 0.000000
vt 0.500000 1.000000
vt 0.000000 0.000000
vt 1.000000 0.000000
vt 0.000000 0.000000
vt 1.000000 0.000000
vt 1.000000 1.000000
vt 0.000000 1.000000
vt 0.500000 1.000000
vt 0.000000 0.000000
vt 1.000000 0.000000
vt 0.500000 1.000000
vt 0.000000 0.000000
vt 1.000000 0.000000
vt 0.000000 0.000000
vt 1.000000 0.000000
vt 1.000000 1.000000
vt 0.000000 1.000000
vt 0.500000 1.000000
vt 0.000000 0.000000
vt 1.000000 0.000000
vt 0.500000 1.000000
vt 0.000000 0.000000
vt 1.000000 0.000000
vt 0.000000 0.000000
vt 1.000000 0.000000
vt 1.000000 1.000000
vt 0.000000 1.000000
vt 0.500000 1.000000
vt 0.000000 0.000000
vt 1.000000 0.000000
vt 0.500000 1.000000
vt 0.000000 0.000000
vt 1.000000 0.000000
vt 0.000000 0.000000
vt 1.000000 0.000000
vt 1.000000 1.000000
vt 0.000000 1.000000
vt 0.500000 1.000000
vt 0.000000 0.000000
vt 1.000000 0.000000
vt 0.500000 1.000000
vt 0.000000 0.000000
vt 1.000000 0.000000
vt 0.000000 0.000000
vt 1.000000 0.000000
vt 1.000000 1.000000
vt 0.000000 1.000000
vt 0.500000 1.000000
vt 0.000000 0.000000
vt 1.000000 0.000000
vt 0.500000 1.000000
vt 0.000000 0.000000
vt 1.000000 0.000000
vt 0.000000 0.000000
vt 1.000000 0.000000
vt 1.000000 1.000000
vt 0.000000 1.000000
vt 0.500000 1.000000
vt 0.000000 0.000000
vt 1.000000 0.000000
vt 0.500000 1.000000
vt 0.000000 0.000000
vt 1.000000 0.000000
vt 0.000000 0.000000
vt 1.000000 0.000000
vt 1.000000 1.000000
vt 0.000000 1.000000
vt 0.500000 1.000000
vt 0.000000 0.000000
vt 1.000000 0.000000
vt 0.500000 1.000000
vt 0.000000 0.000000
vt 1.000000 0.000000
vt 0.000000 0.000000
vt 1.000000 0.000000
vt 1.000000 1.000000
vt 0.000000 1.000000
vt 0.500000 1.000000
vt 0.000000 0.000000
vt 1.000000 0.000000
vt 0.500000 1.000000
vt 0.000000 0.000000
vt 1.000000 0.000000
vt 0.000000 0.000000
vt 1.000000 0.000000
vt 1.000000 1.000000
vt 0.000000 1.000000
vt 0.500000 1.000000
vt 0.000000 0.000000
vt 1.000000 0.000000
vt 0.500000 1.000000
vt 0.000000 0.000000
vt 1.000000 0.000000
vt 0.000000 0.000000
vt 1.000000 0.000000
vt 1.000000 1.000000
vt 0.000000 1.000000
vt 0.500000 1.000000
vt 0.000000 0.000000
vt 1.000000 0.000000
vt 0.500000 1.000000
vt 0.000000 0.000000
vt 1.000000 0.000000
vt 0.000000 0.000000
vt 1.000000 0.000000
vt 1.000000 1.000000
vt 0.000000 1.000000
vt 0.500000 1.000000
vt 0.000000 0.000000
vt 1.000000 0.000000
vt 0.500000 1.000000
vt 0.000000 0.000000
vt 1.000000 0.000000
vt 0.000000 0.000000
vt 1.000000 0.000000
vt 1.000000 1.000000
vt 0.000000 1.000000
vt 0.500000 1.000000
vt 0.000000 0.000000
vt 1.000000 0.000000
vt 0.500000 1.000000
vt 0.000000 0.000000
vt 1.000000 0.000000
vt 0.000000 0.000000
vt 1.000000 0.000000
vt 1.000000 1.000000
vt 0.000000 1.000000
vt 0.500000 1.000000
vt 0.000000 0.000000
vt 1.000000 0.000000
vt 0.500000 1.000000
vt 0.000000 0.000000
vt 1.000000 0.000000
vt 0.000000 0.000000
vt 1.000000 0.000000
vt 1.000000 1.000000
vt 0.000000 1.000000
vt 0.500000 1.000000
vt 0.000000 0.000000
vt 1.000000 0.000000
vt 0.500000 1.000000
vt 0.000000 0.000000
vt 1.000000 0.000000
vt 0.000000 0.000000
vt 1.000000 0.000000
vt 1.000000 1.000000
vt 0.000000 1.000000
vt 0.500000 1.000000
vt 0.000000 0.000000
vt 1.000000 0.000000
vt 0.500000 1.000000
vt 0.000000 0.000000
vt 1.000000 0.000000
vt 0.000000 0.000000
vt 1.000000 0.000000
vt 1.000000 1.000000
vt 0.000000 1.000000
vt 0.500000 1.000000
vt 0.000000 0.000000
vt 1.000000 0.000000
vt 0.500000 1.000000
vt 0.000000 0.000000
vt 1.000000 0.000000
vt 0.000000 0.000000
vt 1.000000 0.000000
vt 1.000000 1.000000
vt 0.000000 1.000000
vt 0.500000 1.000000
vt 0.000000 0.000000
vt 1.000000 0.000000
vt 0.500000 1.000000
vt 0.000000 0.000000
vt 1.000000 0.000000
vt 0.000000 0.000000
vt 1.000000 0.000000
vt 1.000000 1.000000
vt 0.000000 1.000000
vt 0.500000 1.000000
vt 0.000000 0.000000
vt 1.000000 0.000000
vt 0.500000 1.000000
vt 0.000000 0.000000
vt 1.000000 0.000000
vt 0.000000 0.000000
vt 1.000000 0.000000
vt 1.000000 1.000000
vt 0.000000 1.000000
vt 0.500000 1.000000
vt 0.000000 0.000000
vt 1.000000 0.000000
vt 0.500000 1.000000
vt 0.000000 0.000000
vt 1.000000 0.000000
vt 0.000000 0.000000
vt 1.000000 0.000000
vt 1.000000 1.000000
vt 0.000000 1.000000
vt 0.500000 1.000000
vt 0.000000 0.000000
vt 1.000000 0.000000
vt 0.500000 1.000000
vt 0.000000 0.000000
vt 1.000000 0.000000
vt 0.000000 0.000000
vt 1.000000 0.000000
vt 1.000000 1.000000
vt 0.000000 1.000000
vt 0.500000 1.000000
vt 0.000000 0.000000
vt 1.000000 0.000000
vt 0.500000 1.000000
vt 0.000000 0.000000
vt 1.000000 0.000000
vt 0.000000 0.000000
vt 1.000000 0.000000
vt 1.000000 1.000000
vt 0.000000 1.000000
vt 0.500000 1.000000
vt 0.000000 0.000000
vt 1.000000 0.000000
vt 0.500000 1.000000
vt 0.000000 0.000000
vt 1.000000 0.000000
vt 0.000000 0.000000
vt 1.000000 0.000000
vt 1.000000 1.000000
vt 0.000000 1.000000
vt 0.500000 1.000000
vt 0.000000 0.000000
vt 1.000000 0.000000
vt 0.500000 1.000000
vt 0.000000 0.000000
vt 1.000000 0.000000
vt 0.000000 0.000000
vt 1.000000 0.000000
vt 1.000000 1.000000
vt 0.000000 1.000000
vt 0.500000 1.000000
vt 0.000000 0.000000
vt 1.000000 0.000000
vt 0.500000 1.000000
vt 0.000000 0.000000
vt 1.000000 0.000000
vt 0.000000 0.000000
vt 1.000000 0.000000
vt 1.000000 1.000000
vt 0.000000 1.000000
vt 0.500000 1.000000
vt 0.000000 0.000000
vt 1.000000 0.000000
vt 0.500000 1.000000
vt 0.000000 0.000000
vt 1.000000 0.000000
vt 0.000000 0.000000
vt 1.000000 0.000000
vt 1.000000 1.000000
vt 0.000000 1.000000
vt 0.500000 1.000000
vt 0.000000 0.000000
vt 1.000000 0.000000
vt 0.500000 1.000000
vt 0.000000 0.000000
vt 1.000000 0.000000
vt 0.000000 0.000000
vt 1.000000 0.000000
vt 1.000000 1.000000
vt 0.000000 1.000000
vt 0.500000 1.000000
vt 0.000000 0.000000
vt 1.000000 0.000000
vt 0.500000 1.000000
vt 0.000000 0.000000
vt 1.000000 0.000000
vt 0.000000 0.000000
vt 1.000000 0.000000
vt 1.000000 1.000000
vt 0.000000 1.000000
vt 0.500000 1.000000
vt 0.000000 0.000000
vt 1.000000 0.000000
vt 0.500000 1.000000
vt 0.000000 0.000000
vt 1.000000 0.000000
vt 0.000000 0.000000
vt 1.000000 0.000000
vt 1.000000 1.000000
vt 0.000000 1.000000
vt 0.500000 1.000000
vt 0.000000 0.000000
vt 1.000000 0.000000
vt 0.500000 1.000000
vt 0.000000 0.000000
vt 1.000000 0.000000
vt 0.000000 0.000000
vt 1.000000 0.000000
vt 1.000000 1.000000
vt 0.000000 1.000000
vt 0.500000 1.000000
vt 0.000000 0.000000
vt 1.000000 0.000000
vt 0.500000 1.000000
vt 0.000000 0.000000
vt 1.000000 0.000000
vt 0.000000 0.000000
vt 1.000000 0.000000
vt 1.000000 1.000000
vt 0.000000 1.000000
vt 0.500000 1.000000
vt 0.000000 0.000000
vt 1.000000 0.000000
vt 0.500000 1.000000
vt 0.000000 0.000000
vt 1.000000 0.000000
vt 0.000000 0.000000
vt 1.000000 0.000000
vt 1.000000 1.000000
vt 0.000000 1.000000
vt 0.500000 1.000000
vt 0.000000 0.000000
vt 1.000000 0.000000
vt 0.500000 1.000000
vt 0.000000 0.000000
vt 1.000000 0.000000
vt 0.000000 0.000000
vt 1.000000 0.000000
vt 1.000000 1.000000
vt 0.000000 1.000000
vt 0.500000 1.000000
vt 0.000000 0.000000
vt 1.000000 0.000000
vt 0.500000 1.000000
vt 0.000000 0.000000
vt 1.000000 0.000000
vt 0.000000 0.000000
vt 1.000000 0.000000
vt 1.000000 1.000000
vt 0.000000 1.000000
vt 0.500000 1.000000
vt 0.000000 0.000000
vt 1.000000 0.000000
vt 0.500000 1.000000
vt 0.000000 0.000000
vt 1.000000 0.000000
vt 0.000000 0.000000
vt 1.000000 0.000000
vt 1.000000 1.000000
vt 0.000000 1.000000
vt 0.500000 1.000000
vt 0.000000 0.000000
vt 1.000000 0.000000
vt 0.500000 1.000000
vt 0.000000 0.000000
vt 1.000000 0.000000
vt 0.000000 0.000000
vt 1.000000 0.000000
vt 1.000000 1.000000
vt 0.000000 1.000000
vt 0.500000 1.000000
vt 0.000000 0.000000
vt 1.000000 0.000000
vt 0.500000 1.000000
vt 0.000000 0.000000
vt 1.000000 0.000000
vt 0.000000 0.000000
vt 1.000000 0.000000
vt 1.000000 1.000000
vt 0.000000 1.000000
vt 0.500000 1.000000
vt 0.000000 0.000000
vt 1.000000 0.000000
vt 0.500000 1.000000
vt 0.000000 0.000000
vt 1.000000 0.000000
vt 0.000000 0.000000
vt 1.000000 0.000000
vt 1.000000 1.000000
vt 0.000000 1.000000
vt 0.500000 1.000000
vt 0.000000 0.000000
vt 1.000000 0.000000
vt 0.500000 1.000000
vt 0.000000 0.000000
vt 1.000000 0.000000
vt 0.000000 0.000000
vt 1.000000 0.000000
vt 1.000000 1.000000
vt 0.000000 1.000000
vt 0.500000 1.000000
vt 0.000000 0.000000
vt 1.000000 0.000000
vt 0.500000 1.000000
vt 0.000000 0.000000
vt 1.000000 0.000000
vt 0.000000 0.000000
vt 1.000000 0.000000
vt 1.000000 1.000000
vt 0.000000 1.000000
vt 0.500000 1.000000
vt 0.000000 0.000000
vt 1.000000 0.000000
vt 0.500000 1.000000
vt 0.000000 0.000000
vt 1.000000 0.000000
vt 0.000000 0.000000
vt 1.000000 0.000000
vt 1.000000 1.000000
vt 0.000000 1.000000
vt 0.500000 1.000000
vt 0.000000 0.000000
vt 1.000000 0.000000
vt 0.000000 0.000000
vt 1.000000 0.000000
vt 1.000000 1.000000
vt 0.000000 1.000000
vt 0.500000 1.000000
vt 0.000000 0.000000
vt 1.000000 0.000000
vt 0.500000 1.000000
vt 0.000000 0.000000
vt 1.000000 0.000000
vt 0.000000 0.000000
vt 1.000000 0.000000
vt 1.000000 1.000000
vt 0.000000 1.000000
vt 0.500000 1.000000
vt 0.000000 0.000000
vt 1.000000 0.000000
vt 0.500000 1.000000
vt 0.000000 0.000000
vt 1.000000 0.000000
vt 0.000000 0.000000
vt 1.000000 0.000000
vt 1.000000 1.000000
vt 0.000000 1.000000
vt 0.500000 1.000000
vt 0.000000 0.000000
vt 1.000000 0.000000
vt 0.500000 1.000000
vt 0.000000 0.000000
vt 1.000000 0.000000
vt 0.000000 0.000000
vt 1.000000 0.000000
vt 1.000000 1.000000
vt 0.000000 1.000000
vt 0.500000 1.000000
vt 0.000000 0.000000
vt 1.000000 0.000000
vt 0.500000 1.000000
vt 0.000000 0.000000
vt 1.000000 0.000000
vt 0.000000 0.000000
vt 1.000000 0.000000
vt 1.000000 1.000000
vt 0.000000 1.000000
vt 0.500000 1.000000
vt 0.000000 0.000000
vt 1.000000 0.000000
vt 0.500000 1.000000
vt 0.000000 0.000000
vt 1.000000 0.000000
vt 0.000000 0.000000
vt 1.000000 0.000000
vt 1.000000 1.000000
vt 0.000000 1.000000
vt 0.500000 1.000000
vt 0.000000 0.000000
vt 1.000000 0.000000
vt 0.500000 1.000000
vt 0.000000 0.000000
vt 1.000000 0.000000
vt 0.000000 0.000000
vt 1.000000 0.000000
vt 1.000000 1.000000
vt 0.000000 1.000000
vt 0.500000 1.000000
vt 0.000000 0.000000
vt 1.000000 0.000000
vt 0.500000 1.000000
vt 0.000000 0.000000
vt 1.000000 0.000000
vt 0.000000 0.000000
vt 1.000000 0.000000
vt 1.000000 1.000000
vt 0.000000 1.000000
vt 0.500000 1.000000
vt 0.000000 0.000000
vt 1.000000 0.000000
vt 0.500000 1.000000
vt 0.000000 0.000000
vt 1.000000 0.000000
vt 0.000000 0.000000
vt 1.000000 0.000000
vt 1.000000 1.000000
vt 0.000000 1.000000
vt 0.500000 1.000000
vt 0.000000 0.000000
vt 1.000000 0.000000
vt 0.500000 1.000000
vt 0.000000 0.000000
vt 1.000000 0.000000
vt 0.000000 0.000000
vt 1.000000 0.000000
vt 1.000000 1.000000
vt 0.000000 1.000000
vt 0.500000 1.000000
vt 0.000000 0.000000
vt 1.000000 0.000000
vt 0.500000 1.000000
vt 0.000000 0.000000
vt 1.000000 0.000000
vt 0.000000 0.000000
vt 1.000000 0.000000
vt 1.000000 1.000000
vt 0.000000 1.000000
vt 0.500000 1.000000
vt 0.000000 0.000000
vt 1.000000 0.000000
vt 0.500000 1.000000
vt 0.000000 0.000000
vt 1.000000 0.000000
vt 0.000000 0.000000
vt 1.000000 0.000000
vt 1.000000 1.000000
vt 0.000000 1.000000
vt 0.500000 1.000000
vt 0.000000 0.000000
vt 1.000000 0.000000
vt 0.500000 1.000000
vt 0.000000 0.000000
vt 1.000000 0.000000
vt 0.000000 0.000000
vt 1.000000 0.000000
vt 1.000000 1.000000
vt 0.000000 1.000000
vt 0.500000 1.000000
vt 0.000000 0.000000
vt 1.000000 0.000000
vt 0.500000 1.000000
vt 0.000000 0.000000
vt 1.000000 0.000000
vt 0.000000 0.000000
vt 1.000000 0.000000
vt 1.000000 1.000000
vt 0.000000 1.000000
vt 0.500000 1.000000
vt 0.000000 0.000000
vt 1.000000 0.000000
vt 0.500000 1.000000
vt 0.000000 0.000000
vt 1.000000 0.000000
vt 0.000000 0.000000
vt 1.000000 0.000000
vt 1.000000 1.000000
vt 0.000000 1.000000
vt 0.500000 1.000000
vt 0.000000 0.000000
vt 1.000000 0.000000
vt 0.500000 1.000000
vt 0.000000 0.000000
vt 1.000000 0.000000
vt 0.000000 0.000000
vt 1.000000 0.000000
vt 1.000000 1.000000
vt 0.000000 1.000000
vt 0.500000 1.000000
vt 0.000000 0.000000
vt 1.000000 0.000000
vt 0.500000 1.000000
vt 0.000000 0.000000
vt 1.000000 0.000000
vt 0.000000 0.000000
vt 1.000000 0.000000
vt 1.000000 1.000000
vt 0.000000 1.000000
vt 0.500000 1.000000
vt 0.000000 0.000000
vt 1.000000 0.000000
vt 0.500000 1.000000
vt 0.000000 0.000000
vt 1.000000 0.000000
vt 0.000000 0.000000
vt 1.000000 0.000000
vt 1.000000 1.000000
vt 0.000000 1.000000
vt 0.500000 1.000000
vt 0.000000 0.000000
vt 1.000000 0.000000
vt 0.500000 1.000000
vt 0.000000 0.000000
vt 1.000000 0.000000
s 1
usemtl models/caelum/world/environment/rock_granite.png
f 1/1 2/2 3/3
f 4/4 5/5 6/6 7/7
f 8/8 9/9 10/10 11/11
f 12/12 13/13 14/14
f 15/15 16/16 17/17
f 18/18 19/19 20/20 21/21
f 22/22 23/23 24/24 25/25
f 26/26 27/27 28/28
f 29/29 30/30 31/31
f 32/32 33/33 34/34 35/35
f 36/36 37/37 38/38 39/39
f 40/40 41/41 42/42
f 43/43 44/44 45/45
f 46/46 47/47 48/48 49/49
f 50/50 51/51 52/52 53/53
f 54/54 55/55 56/56
f 57/57 58/58 59/59
f 60/60 61/61 62/62 63/63
f 64/64 65/65 66/66 67/67
f 68/68 69/69 70/70
f 71/71 72/72 73/73
f 74/74 75/75 76/76 77/77
f 78/78 79/79 80/80 81/81
f 82/82 83/83 84/84
f 85/85 86/86 87/87
f 88/88 89/89 90/90 91/91
f 92/92 93/93 94/94 95/95
f 96/96 97/97 98/98
f 99/99 100/100 101/101
f 102/102 103/103 104/104 105/105
f 106/106 107/107 108/108 109/109
f 110/110 111/111 112/112
f 113/113 114/114 115/115
f 116/116 117/117 118/118 119/119
f 120/120 121/121 122/122 123/123
f 124/124 125/125 126/126
f 127/127 128/128 129/129
f 130/130 131/131 132/132 133/133
f 134/134 135/135 136/136 137/137
f 138/138 139/139 140/140
usemtl models/caelum/world/resources/ca_vein_silver.png
f 141/141 142/142 143/143
f 144/144 145/145 146/146 147/147
f 148/148 149/149 150/150
f 151/151 152/152 153/153
f 154/154 155/155 156/156 157/157
f 158/158 159/159 160/160
f 161/161 162/162 163/163
f 164/164 165/165 166/166 167/167
f 168/168 169/169 170/170
f 171/171 172/172 173/173
f 174/174 175/175 176/176 177/177
f 178/178 179/179 180/180
f 181/181 182/182 183/183
f 184/184 185/185 186/186 187/187
f 188/188 189/189 190/190
f 191/191 192/192 193/193
f 194/194 195/195 196/196 197/197
f 198/198 199/199 200/200
f 201/201 202/202 203/203
f 204/204 205/205 206/206 207/207
f 208/208 209/209 210/210
f 211/211 212/212 213/213
f 214/214 215/215 216/216 217/217
f 218/218 219/219 220/220
f 221/221 222/222 223/223
f 224/224 225/225 226/226 227/227
f 228/228 229/229 230/230
f 231/231 232/232 233/233
f 234/234 235/235 236/236 237/237
f 238/238 239/239 240/240
f 241/241 242/242 243/243
f 244/244 245/245 246/246 247/247
f 248/248 249/249 250/250
f 251/251 252/252 253/253
f 254/254 255/255 256/256 257/257
f 258/258 259/259 260/260
f 261/261 262/262 263/263
f 264/264 265/265 266/266 267/267
f 268/268 269/269 270/270
f 271/271 272/272 273/273
f 274/274 275/275 276/276 277/277
f 278/278 279/279 280/280
f 281/281 282/282 283/283
f 284/284 285/285 286/286 287/287
f 288/288 289/289 290/290
f 291/291 292/292 293/293
f 294/294 295/295 296/296 297/297
f 298/298 299/299 300/300
f 301/301 302/302 303/303
f 304/304 305/305 306/306 307/307
f 308/308 309/309 310/310
f 311/311 312/312 313/313
f 314/314 315/315 316/316 317/317
f 318/318 319/319 320/320
f 321/321 322/322 323/323
f 324/324 325/325 326/326 327/327
f 328/328 329/329 330/330
f 331/331 332/332 333/333
f 334/334 335/335 336/336 337/337
f 338/338 339/339 340/340
f 341/341 342/342 343/343
f 344/344 345/345 346/346 347/347
f 348/348 349/349 350/350
f 351/351 352/352 353/353
f 354/354 355/355 356/356 357/357
f 358/358 359/359 360/360
f 361/361 362/362 363/363
f 364/364 365/365 366/366 367/367
f 368/368 369/369 370/370
f 371/371 372/372 373/373
f 374/374 375/375 376/376 377/377
f 378/378 379/379 380/380
f 381/381 382/382 383/383
f 384/384 385/385 386/386 387/387
f 388/388 389/389 390/390
f 391/391 392/392 393/393
f 394/394 395/395 396/396 397/397
f 398/398 399/399 400/400
f 401/401 402/402 403/403
f 404/404 405/405 406/406 407/407
f 408/408 409/409 410/410
f 411/411 412/412 413/413
f 414/414 415/415 416/416 417/417
f 418/418 419/419 420/420
f 421/421 422/422 423/423
f 424/424 425/425 426/426 427/427
f 428/428 429/429 430/430
f 431/431 432/432 433/433
f 434/434 435/435 436/436 437/437
f 438/438 439/439 440/440
f 441/441 442/442 443/443
f 444/444 445/445 446/446 447/447
f 448/448 449/449 450/450
f 451/451 452/452 453/453
f 454/454 455/455 456/456 457/457
f 458/458 459/459 460/460
f 461/461 462/462 463/463
f 464/464 465/465 466/466 467/467
f 468/468 469/469 470/470
f 471/471 472/472 473/473
f 474/474 475/475 476/476 477/477
f 478/478 479/479 480/480
f 481/481 482/482 483/483
f 484/484 485/485 486/486 487/487
f 488/488 489/489 490/490
f 491/491 492/492 493/493
f 494/494 495/495 496/496 497/497
f 498/498 499/499 500/500
f 501/501 502/502 503/503
f 504/504 505/505 506/506 507/507
f 508/508 509/509 510/510
f 511/511 512/512 513/513
f 514/514 515/515 516/516 517/517
f 518/518 519/519 520/520
f 521/521 522/522 523/523
f 524/524 525/525 526/526 527/527
f 528/528 529/529 530/530
f 531/531 532/532 533/533
f 534/534 535/535 536/536 537/537
f 538/538 539/539 540/540
f 541/541 542/542 543/543
f 544/544 545/545 546/546 547/547
f 548/548 549/549 550/550
f 551/551 552/552 553/553
f 554/554 555/555 556/556 557/557
f 558/558 559/559 560/560
f 561/561 562/562 563/563
f 564/564 565/565 566/566 567/567
f 568/568 569/569 570/570
f 571/571 572/572 573/573
f 574/574 575/575 576/576 577/577
f 578/578 579/579 580/580
f 581/581 582/582 583/583
f 584/584 585/585 586/586 587/587
f 588/588 589/589 590/590
f 591/591 592/592 593/593
f 594/594 595/595 596/596 597/597
f 598/598 599/599 600/600
f 601/601 602/602 603/603
f 604/604 605/605 606/606 607/607
f 608/608 609/609 610/610
f 611/611 612/612 613/613
f 614/614 615/615 616/616 617/617
f 618/618 619/619 620/620
f 621/621 622/622 623/623
f 624/624 625/625 626/626 627/627
f 628/628 629/629 630/630
f 631/631 632/632 633/633
f 634/634 635/635 636/636 637/637
f 638/638 639/639 640/640
f 641/641 642/642 643/643
f 644/644 645/645 646/646 647/647
f 648/648 649/649 650/650
f 651/651 652/652 653/653
f 654/654 655/655 656/656 657/657
f 658/658 659/659 660/660
f 661/661 662/662 663/663
f 664/664 665/665 666/666 667/667
f 668/668 669/669 670/670
f 671/671 672/672 673/673
f 674/674 675/675 676/676 677/677
f 678/678 679/679 680/680
f 681/681 682/682 683/683
f 684/684 685/685 686/686 687/687
f 688/688 689/689 690/690
f 691/691 692/692 693/693
f 694/694 695/695 696/696 697/697
f 698/698 699/699 700/700
f 701/701 702/702 703/703
f 704/704 705/705 706/706 707/707
f 708/708 709/709 710/710
f 711/711 712/712 713/713
f 714/714 715/715 716/716 717/717
f 718/718 719/719 720/720
f 721/721 722/722 723/723
f 724/724 725/725 726/726 727/727
f 728/728 729/729 730/730
f 731/731 732/732 733/733
f 734/734 735/735 736/736 737/737
f 738/738 739/739 740/740
f 741/741 742/742 743/743
f 744/744 745/745 746/746 747/747
f 748/748 749/749 750/750
f 751/751 752/752 753/753
f 754/754 755/755 756/756 757/757
f 758/758 759/759 760/760
f 761/761 762/762 763/763
f 764/764 765/765 766/766 767/767
f 768/768 769/769 770/770
f 771/771 772/772 773/773 774/774
f 775/775 776/776 777/777
f 778/778 779/779 780/780
f 781/781 782/782 783/783 784/784
f 785/785 786/786 787/787
f 788/788 789/789 790/790
f 791/791 792/792 793/793 794/794
f 795/795 796/796 797/797
f 798/798 799/799 800/800
f 801/801 802/802 803/803 804/804
f 805/805 806/806 807/807
f 808/808 809/809 810/810
f 811/811 812/812 813/813 814/814
f 815/815 816/816 817/817
f 818/818 819/819 820/820
f 821/821 822/822 823/823 824/824
f 825/825 826/826 827/827
f 828/828 829/829 830/830
f 831/831 832/832 833/833 834/834
f 835/835 836/836 837/837
f 838/838 839/839 840/840
f 841/841 842/842 843/843 844/844
f 845/845 846/846 847/847
f 848/848 849/849 850/850
f 851/851 852/852 853/853 854/854
f 855/855 856/856 857/857
f 858/858 859/859 860/860
f 861/861 862/862 863/863 864/864
f 865/865 866/866 867/867
f 868/868 869/869 870/870
f 871/871 872/872 873/873 874/874
f 875/875 876/876 877/877
f 878/878 879/879 880/880
f 881/881 882/882 883/883 884/884
f 885/885 886/886 887/887
f 888/888 889/889 890/890
f 891/891 892/892 893/893 894/894
f 895/895 896/896 897/897
f 898/898 899/899 900/900
f 901/901 902/902 903/903 904/904
f 905/905 906/906 907/907
f 908/908 909/909 910/910
f 911/911 912/912 913/913 914/914
f 915/915 916/916 917/917
f 918/918 919/919 920/920
f 921/921 922/922 923/923 924/924
f 925/925 926/926 927/927
f 928/928 929/929 930/930
f 931/931 932/932 933/933 934/934
f 935/935 936/936 937/937
f 938/938 939/939 940/940
f 941/941 942/942 943/943 944/944
f 945/945 946/946 947/947
f 948/948 949/949 950/950
