# Modelo original generado para Caelum Argenteum.
# Ejes OBJ: X ancho, Y altura, Z profundidad.
o ca_vein_coal3
v 0.000000 0.000000 0.000000
v 43.343024 0.827167 0.000000
v 30.018670 1.652987 18.835771
v 43.343024 0.827167 0.000000
v 36.917263 18.252592 0.000000
v 39.383720 16.030712 24.712046
v 30.018670 1.652987 18.835771
v 36.917263 18.252592 0.000000
v 27.549404 34.931022 0.000000
v 25.332353 35.753984 15.895255
v 39.383720 16.030712 24.712046
v -9.821558 52.000000 9.610782
v 25.332353 35.753984 15.895255
v 27.549404 34.931022 0.000000
v 0.000000 0.000000 0.000000
v 30.018670 1.652987 18.835771
v 9.389398 -1.541479 24.957014
v 30.018670 1.652987 18.835771
v 39.383720 16.030712 24.712046
v 13.219532 16.069207 35.137508
v 9.389398 -1.541479 24.957014
v 39.383720 16.030712 24.712046
v 25.332353 35.753984 15.895255
v 11.117860 36.535550 29.551265
v 13.219532 16.069207 35.137508
v -9.821558 52.000000 9.610782
v 11.117860 36.535550 29.551265
v 25.332353 35.753984 15.895255
v 0.000000 0.000000 0.000000
v 9.389398 -1.541479 24.957014
v -12.315560 -0.865059 32.734750
v 9.389398 -1.541479 24.957014
v 13.219532 16.069207 35.137508
v -11.190764 15.957248 29.745044
v -12.315560 -0.865059 32.734750
v 13.219532 16.069207 35.137508
v 11.117860 36.535550 29.551265
v -8.535359 34.205146 22.686979
v -11.190764 15.957248 29.745044
v -9.821558 52.000000 9.610782
v -8.535359 34.205146 22.686979
v 11.117860 36.535550 29.551265
v 0.000000 0.000000 0.000000
v -12.315560 -0.865059 32.734750
v -31.596235 -1.284718 19.825643
v -12.315560 -0.865059 32.734750
v -11.190764 15.957248 29.745044
v -29.580253 16.838812 18.560678
v -31.596235 -1.284718 19.825643
v -11.190764 15.957248 29.745044
v -8.535359 34.205146 22.686979
v -27.416683 36.077495 17.203106
v -29.580253 16.838812 18.560678
v -9.821558 52.000000 9.610782
v -27.416683 36.077495 17.203106
v -8.535359 34.205146 22.686979
v 0.000000 0.000000 0.000000
v -31.596235 -1.284718 19.825643
v -39.059098 -1.143389 0.000000
v -31.596235 -1.284718 19.825643
v -29.580253 16.838812 18.560678
v -49.142994 16.588521 0.000000
v -39.059098 -1.143389 0.000000
v -29.580253 16.838812 18.560678
v -27.416683 36.077495 17.203106
v -27.943637 34.630441 0.000000
v -49.142994 16.588521 0.000000
v -9.821558 52.000000 9.610782
v -27.943637 34.630441 0.000000
v -27.416683 36.077495 17.203106
v 0.000000 0.000000 0.000000
v -39.059098 -1.143389 0.000000
v -31.718220 -1.169001 -19.902185
v -39.059098 -1.143389 0.000000
v -49.142994 16.588521 0.000000
v -41.001270 17.604241 -25.727007
v -31.718220 -1.169001 -19.902185
v -49.142994 16.588521 0.000000
v -27.943637 34.630441 0.000000
v -21.998459 37.001014 -13.803341
v -41.001270 17.604241 -25.727007
v -9.821558 52.000000 9.610782
v -21.998459 37.001014 -13.803341
v -27.943637 34.630441 0.000000
v 0.000000 0.000000 0.000000
v -31.718220 -1.169001 -19.902185
v -12.666553 1.292222 -33.667689
v -31.718220 -1.169001 -19.902185
v -41.001270 17.604241 -25.727007
v -15.389544 14.917578 -40.905400
v -12.666553 1.292222 -33.667689
v -41.001270 17.604241 -25.727007
v -21.998459 37.001014 -13.803341
v -9.007293 36.370187 -23.941379
v -15.389544 14.917578 -40.905400
v -9.821558 52.000000 9.610782
v -9.007293 36.370187 -23.941379
v -21.998459 37.001014 -13.803341
v 0.000000 0.000000 0.000000
v -12.666553 1.292222 -33.667689
v 10.947707 -0.752845 -29.099000
v -12.666553 1.292222 -33.667689
v -15.389544 14.917578 -40.905400
v 13.725746 15.489628 -36.483024
v 10.947707 -0.752845 -29.099000
v -15.389544 14.917578 -40.905400
v -9.007293 36.370187 -23.941379
v 11.061015 33.999503 -29.400172
v 13.725746 15.489628 -36.483024
v -9.821558 52.000000 9.610782
v 11.061015 33.999503 -29.400172
v -9.007293 36.370187 -23.941379
v 0.000000 0.000000 0.000000
v 10.947707 -0.752845 -29.099000
v 24.740897 -0.905960 -15.524134
v 10.947707 -0.752845 -29.099000
v 13.725746 15.489628 -36.483024
v 36.011482 15.661338 -22.596073
v 24.740897 -0.905960 -15.524134
v 13.725746 15.489628 -36.483024
v 11.061015 33.999503 -29.400172
v 27.524350 35.534045 -17.270664
v 36.011482 15.661338 -22.596073
v -9.821558 52.000000 9.610782
v 27.524350 35.534045 -17.270664
v 11.061015 33.999503 -29.400172
v 0.000000 0.000000 0.000000
v 24.740897 -0.905960 -15.524134
v 43.343024 0.827167 0.000000
v 24.740897 -0.905960 -15.524134
v 36.011482 15.661338 -22.596073
v 36.917263 18.252592 0.000000
v 43.343024 0.827167 0.000000
v 36.011482 15.661338 -22.596073
v 27.524350 35.534045 -17.270664
v 27.549404 34.931022 0.000000
v 36.917263 18.252592 0.000000
v -9.821558 52.000000 9.610782
v 27.549404 34.931022 0.000000
v 27.524350 35.534045 -17.270664
v 37.344734 22.771165 5.211490
v 42.515846 24.016876 8.783707
v 45.548899 24.261006 5.211490
v 45.548899 24.261006 5.211490
v 42.515846 24.016876 8.783707
v 42.009329 27.274093 8.433804
v 45.038957 27.095221 5.211490
v 37.344734 28.817780 5.211490
v 45.038957 27.095221 5.211490
v 42.009329 27.274093 8.433804
v 37.344734 22.771165 5.211490
v 35.513746 24.230234 9.630830
v 42.515846 24.016876 8.783707
v 42.515846 24.016876 8.783707
v 35.513746 24.230234 9.630830
v 35.686508 27.560307 9.213845
v 42.009329 27.274093 8.433804
v 37.344734 28.817780 5.211490
v 42.009329 27.274093 8.433804
v 35.686508 27.560307 9.213845
v 37.344734 22.771165 5.211490
v 30.658574 24.050726 6.985314
v 35.513746 24.230234 9.630830
v 35.513746 24.230234 9.630830
v 30.658574 24.050726 6.985314
v 29.342717 27.309627 7.334408
v 35.686508 27.560307 9.213845
v 37.344734 28.817780 5.211490
v 35.686508 27.560307 9.213845
v 29.342717 27.309627 7.334408
v 37.344734 22.771165 5.211490
v 29.976809 24.163445 3.256795
v 30.658574 24.050726 6.985314
v 30.658574 24.050726 6.985314
v 29.976809 24.163445 3.256795
v 29.258469 27.404593 3.066221
v 29.342717 27.309627 7.334408
v 37.344734 28.817780 5.211490
v 29.342717 27.309627 7.334408
v 29.258469 27.404593 3.066221
v 37.344734 22.771165 5.211490
v 35.221656 24.492972 0.087153
v 29.976809 24.163445 3.256795
v 29.976809 24.163445 3.256795
v 35.221656 24.492972 0.087153
v 35.350306 27.070510 0.397666
v 29.258469 27.404593 3.066221
v 37.344734 28.817780 5.211490
v 29.258469 27.404593 3.066221
v 35.350306 27.070510 0.397666
v 37.344734 22.771165 5.211490
v 41.902304 24.216602 2.063109
v 35.221656 24.492972 0.087153
v 35.221656 24.492972 0.087153
v 41.902304 24.216602 2.063109
v 42.401633 27.372783 1.718172
v 35.350306 27.070510 0.397666
v 37.344734 28.817780 5.211490
v 35.350306 27.070510 0.397666
v 42.401633 27.372783 1.718172
v 37.344734 22.771165 5.211490
v 45.548899 24.261006 5.211490
v 41.902304 24.216602 2.063109
v 41.902304 24.216602 2.063109
v 45.548899 24.261006 5.211490
v 45.038957 27.095221 5.211490
v 42.401633 27.372783 1.718172
v 37.344734 28.817780 5.211490
v 42.401633 27.372783 1.718172
v 45.038957 27.095221 5.211490
v 22.069730 24.120366 17.341988
v 25.464378 27.255487 21.742829
v 26.619331 26.823899 17.341988
v 26.619331 26.823899 17.341988
v 25.464378 27.255487 21.742829
v 24.809430 32.926951 20.893751
v 26.477606 32.821634 17.341988
v 22.069730 35.382450 17.341988
v 26.477606 32.821634 17.341988
v 24.809430 32.926951 20.893751
v 22.069730 24.120366 17.341988
v 20.834682 26.627370 22.936248
v 25.464378 27.255487 21.742829
v 25.464378 27.255487 21.742829
v 20.834682 26.627370 22.936248
v 21.010728 32.420817 22.138832
v 24.809430 32.926951 20.893751
v 22.069730 35.382450 17.341988
v 24.809430 32.926951 20.893751
v 21.010728 32.420817 22.138832
v 22.069730 24.120366 17.341988
v 17.032130 27.361587 19.850086
v 20.834682 26.627370 22.936248
v 20.834682 26.627370 22.936248
v 17.032130 27.361587 19.850086
v 18.373216 32.983191 19.182392
v 21.010728 32.420817 22.138832
v 22.069730 35.382450 17.341988
v 21.010728 32.420817 22.138832
v 18.373216 32.983191 19.182392
v 22.069730 24.120366 17.341988
v 17.401003 27.115962 15.017544
v 17.032130 27.361587 19.850086
v 17.032130 27.361587 19.850086
v 17.401003 27.115962 15.017544
v 18.001955 32.966905 15.316743
v 18.373216 32.983191 19.182392
v 22.069730 35.382450 17.341988
v 18.373216 32.983191 19.182392
v 18.001955 32.966905 15.316743
v 22.069730 24.120366 17.341988
v 20.953277 27.380502 12.284916
v 17.401003 27.115962 15.017544
v 17.401003 27.115962 15.017544
v 20.953277 27.380502 12.284916
v 20.773374 32.480097 11.470030
v 18.001955 32.966905 15.316743
v 22.069730 35.382450 17.341988
v 18.001955 32.966905 15.316743
v 20.773374 32.480097 11.470030
v 22.069730 24.120366 17.341988
v 24.655073 27.441640 13.990335
v 20.953277 27.380502 12.284916
v 20.953277 27.380502 12.284916
v 24.655073 27.441640 13.990335
v 24.823027 32.502400 13.772599
v 20.773374 32.480097 11.470030
v 22.069730 35.382450 17.341988
v 20.773374 32.480097 11.470030
v 24.823027 32.502400 13.772599
v 22.069730 24.120366 17.341988
v 26.619331 26.823899 17.341988
v 24.655073 27.441640 13.990335
v 24.655073 27.441640 13.990335
v 26.619331 26.823899 17.341988
v 26.477606 32.821634 17.341988
v 24.823027 32.502400 13.772599
v 22.069730 35.382450 17.341988
v 24.823027 32.502400 13.772599
v 26.477606 32.821634 17.341988
v 3.369657 29.138105 23.592641
v 9.253868 31.580884 28.736438
v 12.281646 31.155859 23.592641
v 12.281646 31.155859 23.592641
v 9.253868 31.580884 28.736438
v 8.590631 36.072405 28.156657
v 11.525722 36.081361 23.592641
v 3.369657 38.216704 23.592641
v 11.525722 36.081361 23.592641
v 8.590631 36.072405 28.156657
v 3.369657 29.138105 23.592641
v 1.881081 31.803513 28.139216
v 9.253868 31.580884 28.736438
v 9.253868 31.580884 28.736438
v 1.881081 31.803513 28.139216
v 1.622692 36.016448 28.928417
v 8.590631 36.072405 28.156657
v 3.369657 38.216704 23.592641
v 8.590631 36.072405 28.156657
v 1.622692 36.016448 28.928417
v 3.369657 29.138105 23.592641
v -2.925625 31.196254 25.706084
v 1.881081 31.803513 28.139216
v 1.881081 31.803513 28.139216
v -2.925625 31.196254 25.706084
v -2.792107 35.604751 25.661260
v 1.622692 36.016448 28.928417
v 3.369657 38.216704 23.592641
v 1.622692 36.016448 28.928417
v -2.792107 35.604751 25.661260
v 3.369657 29.138105 23.592641
v -5.015495 31.079320 20.777590
v -2.925625 31.196254 25.706084
v -2.925625 31.196254 25.706084
v -5.015495 31.079320 20.777590
v -2.685172 35.657332 21.559923
v -2.792107 35.604751 25.661260
v 3.369657 38.216704 23.592641
v -2.792107 35.604751 25.661260
v -2.685172 35.657332 21.559923
v 3.369657 29.138105 23.592641
v 1.643605 31.338946 18.320742
v -5.015495 31.079320 20.777590
v -5.015495 31.079320 20.777590
v 1.643605 31.338946 18.320742
v 1.757102 35.700715 18.667397
v -2.685172 35.657332 21.559923
v 3.369657 38.216704 23.592641
v -2.685172 35.657332 21.559923
v 1.757102 35.700715 18.667397
v 3.369657 29.138105 23.592641
v 7.763184 31.660094 19.751955
v 1.643605 31.338946 18.320742
v 1.643605 31.338946 18.320742
v 7.763184 31.660094 19.751955
v 9.144833 35.630583 18.544159
v 1.757102 35.700715 18.667397
v 3.369657 38.216704 23.592641
v 1.757102 35.700715 18.667397
v 9.144833 35.630583 18.544159
v 3.369657 29.138105 23.592641
v 12.281646 31.155859 23.592641
v 7.763184 31.660094 19.751955
v 7.763184 31.660094 19.751955
v 12.281646 31.155859 23.592641
v 11.525722 36.081361 23.592641
v 9.144833 35.630583 18.544159
v 3.369657 38.216704 23.592641
v 9.144833 35.630583 18.544159
v 11.525722 36.081361 23.592641
v -10.579244 7.245094 23.112473
v -5.998943 10.670726 27.051643
v -3.374972 10.501868 23.112473
v -3.374972 10.501868 23.112473
v -5.998943 10.670726 27.051643
v -4.918663 16.579208 27.980710
v -2.192579 16.849974 23.112473
v -10.579244 19.609213 23.112473
v -2.192579 16.849974 23.112473
v -4.918663 16.579208 27.980710
v -10.579244 7.245094 23.112473
v -12.756545 10.273525 29.655020
v -5.998943 10.670726 27.051643
v -5.998943 10.670726 27.051643
v -12.756545 10.273525 29.655020
v -12.471232 16.424750 28.797688
v -4.918663 16.579208 27.980710
v -10.579244 19.609213 23.112473
v -4.918663 16.579208 27.980710
v -12.471232 16.424750 28.797688
v -10.579244 7.245094 23.112473
v -17.056183 9.970762 25.251716
v -12.756545 10.273525 29.655020
v -12.756545 10.273525 29.655020
v -17.056183 9.970762 25.251716
v -17.849507 16.499162 25.513740
v -12.471232 16.424750 28.797688
v -10.579244 19.609213 23.112473
v -12.471232 16.424750 28.797688
v -17.849507 16.499162 25.513740
v -10.579244 7.245094 23.112473
v -18.811953 10.597538 20.393322
v -17.056183 9.970762 25.251716
v -17.056183 9.970762 25.251716
v -18.811953 10.597538 20.393322
v -18.881951 16.832857 20.370202
v -17.849507 16.499162 25.513740
v -10.579244 19.609213 23.112473
v -17.849507 16.499162 25.513740
v -18.881951 16.832857 20.370202
v -10.579244 7.245094 23.112473
v -12.574725 10.264696 17.116273
v -18.811953 10.597538 20.393322
v -18.811953 10.597538 20.393322
v -12.574725 10.264696 17.116273
v -12.788011 16.846250 16.475373
v -18.881951 16.832857 20.370202
v -10.579244 19.609213 23.112473
v -18.881951 16.832857 20.370202
v -12.788011 16.846250 16.475373
v -10.579244 7.245094 23.112473
v -4.778574 10.082259 18.123754
v -12.574725 10.264696 17.116273
v -12.574725 10.264696 17.116273
v -4.778574 10.082259 18.123754
v -4.793253 16.419727 18.136379
v -12.788011 16.846250 16.475373
v -10.579244 19.609213 23.112473
v -12.788011 16.846250 16.475373
v -4.793253 16.419727 18.136379
v -10.579244 7.245094 23.112473
v -3.374972 10.501868 23.112473
v -4.778574 10.082259 18.123754
v -4.778574 10.082259 18.123754
v -3.374972 10.501868 23.112473
v -2.192579 16.849974 23.112473
v -4.793253 16.419727 18.136379
v -10.579244 19.609213 23.112473
v -4.793253 16.419727 18.136379
v -2.192579 16.849974 23.112473
v -29.892451 9.106512 9.463168
v -26.404939 10.618156 14.643374
v -24.455686 10.643743 9.463168
v -24.455686 10.643743 9.463168
v -26.404939 10.618156 14.643374
v -25.878559 13.784021 15.425237
v -23.365140 13.711183 9.463168
v -29.892451 15.350554 9.463168
v -23.365140 13.711183 9.463168
v -25.878559 13.784021 15.425237
v -29.892451 9.106512 9.463168
v -31.166452 10.894807 16.074951
v -26.404939 10.618156 14.643374
v -26.404939 10.618156 14.643374
v -31.166452 10.894807 16.074951
v -31.169554 13.575120 16.091053
v -25.878559 13.784021 15.425237
v -29.892451 15.350554 9.463168
v -25.878559 13.784021 15.425237
v -31.169554 13.575120 16.091053
v -29.892451 9.106512 9.463168
v -34.527818 10.882102 12.107373
v -31.166452 10.894807 16.074951
v -31.166452 10.894807 16.074951
v -34.527818 10.882102 12.107373
v -35.877830 13.560340 12.877476
v -31.169554 13.575120 16.091053
v -29.892451 15.350554 9.463168
v -31.169554 13.575120 16.091053
v -35.877830 13.560340 12.877476
v -29.892451 9.106512 9.463168
v -34.932846 10.712034 6.587918
v -34.527818 10.882102 12.107373
v -34.527818 10.882102 12.107373
v -34.932846 10.712034 6.587918
v -35.168887 13.977544 6.453270
v -35.877830 13.560340 12.877476
v -29.892451 15.350554 9.463168
v -35.877830 13.560340 12.877476
v -35.168887 13.977544 6.453270
v -29.892451 9.106512 9.463168
v -31.036695 10.583767 3.524792
v -34.932846 10.712034 6.587918
v -34.932846 10.712034 6.587918
v -31.036695 10.583767 3.524792
v -31.169649 13.883690 2.834793
v -35.168887 13.977544 6.453270
v -29.892451 15.350554 9.463168
v -35.168887 13.977544 6.453270
v -31.169649 13.883690 2.834793
v -29.892451 9.106512 9.463168
v -26.949247 10.633979 5.091454
v -31.036695 10.583767 3.524792
v -31.036695 10.583767 3.524792
v -26.949247 10.633979 5.091454
v -25.869425 13.640090 3.487531
v -31.169649 13.883690 2.834793
v -29.892451 15.350554 9.463168
v -31.169649 13.883690 2.834793
v -25.869425 13.640090 3.487531
v -29.892451 9.106512 9.463168
v -24.455686 10.643743 9.463168
v -26.949247 10.633979 5.091454
v -26.949247 10.633979 5.091454
v -24.455686 10.643743 9.463168
v -23.365140 13.711183 9.463168
v -25.869425 13.640090 3.487531
v -29.892451 15.350554 9.463168
v -25.869425 13.640090 3.487531
v -23.365140 13.711183 9.463168
v -30.632578 30.421918 -12.323704
v -25.568898 34.108181 -8.629521
v -23.863850 33.373825 -12.323704
v -23.863850 33.373825 -12.323704
v -25.568898 34.108181 -8.629521
v -26.491924 40.268983 -9.302910
v -22.867645 40.204581 -12.323704
v -30.632578 43.352025 -12.323704
v -22.867645 40.204581 -12.323704
v -26.491924 40.268983 -9.302910
v -30.632578 30.421918 -12.323704
v -32.360682 33.808588 -7.918763
v -25.568898 34.108181 -8.629521
v -25.568898 34.108181 -8.629521
v -32.360682 33.808588 -7.918763
v -32.420061 39.610254 -7.767406
v -26.491924 40.268983 -9.302910
v -30.632578 43.352025 -12.323704
v -26.491924 40.268983 -9.302910
v -32.420061 39.610254 -7.767406
v -30.632578 30.421918 -12.323704
v -36.668699 33.945307 -10.632524
v -32.360682 33.808588 -7.918763
v -32.360682 33.808588 -7.918763
v -36.668699 33.945307 -10.632524
v -38.031049 40.416426 -10.250825
v -32.420061 39.610254 -7.767406
v -30.632578 43.352025 -12.323704
v -32.420061 39.610254 -7.767406
v -38.031049 40.416426 -10.250825
v -30.632578 30.421918 -12.323704
v -37.487558 33.134932 -14.244310
v -36.668699 33.945307 -10.632524
v -36.668699 33.945307 -10.632524
v -37.487558 33.134932 -14.244310
v -36.431362 40.500172 -13.948389
v -38.031049 40.416426 -10.250825
v -30.632578 43.352025 -12.323704
v -38.031049 40.416426 -10.250825
v -36.431362 40.500172 -13.948389
v -30.632578 30.421918 -12.323704
v -32.441499 33.195353 -16.934648
v -37.487558 33.134932 -14.244310
v -37.487558 33.134932 -14.244310
v -32.441499 33.195353 -16.934648
v -32.075910 40.200731 -16.002761
v -36.431362 40.500172 -13.948389
v -30.632578 43.352025 -12.323704
v -36.431362 40.500172 -13.948389
v -32.075910 40.200731 -16.002761
v -30.632578 30.421918 -12.323704
v -26.324222 34.117099 -15.466845
v -32.441499 33.195353 -16.934648
v -32.441499 33.195353 -16.934648
v -26.324222 34.117099 -15.466845
v -26.068491 40.253804 -15.653412
v -32.075910 40.200731 -16.002761
v -30.632578 43.352025 -12.323704
v -32.075910 40.200731 -16.002761
v -26.068491 40.253804 -15.653412
v -30.632578 30.421918 -12.323704
v -23.863850 33.373825 -12.323704
v -26.324222 34.117099 -15.466845
v -26.324222 34.117099 -15.466845
v -23.863850 33.373825 -12.323704
v -22.867645 40.204581 -12.323704
v -26.068491 40.253804 -15.653412
v -30.632578 43.352025 -12.323704
v -26.068491 40.253804 -15.653412
v -22.867645 40.204581 -12.323704
v -14.634549 23.083686 -20.729964
v -10.933614 24.532494 -15.519891
v -9.465722 24.702128 -20.729964
v -9.465722 24.702128 -20.729964
v -10.933614 24.532494 -15.519891
v -11.204330 27.817925 -15.900998
v -8.900411 28.079622 -20.729964
v -14.634549 29.663951 -20.729964
v -8.900411 28.079622 -20.729964
v -11.204330 27.817925 -15.900998
v -14.634549 23.083686 -20.729964
v -15.672573 24.510855 -15.624238
v -10.933614 24.532494 -15.519891
v -10.933614 24.532494 -15.519891
v -15.672573 24.510855 -15.624238
v -15.784845 28.173799 -15.072006
v -11.204330 27.817925 -15.900998
v -14.634549 29.663951 -20.729964
v -11.204330 27.817925 -15.900998
v -15.784845 28.173799 -15.072006
v -14.634549 23.083686 -20.729964
v -19.629031 24.720843 -18.029723
v -15.672573 24.510855 -15.624238
v -15.672573 24.510855 -15.624238
v -19.629031 24.720843 -18.029723
v -19.513872 28.088833 -18.091983
v -15.784845 28.173799 -15.072006
v -14.634549 29.663951 -20.729964
v -15.784845 28.173799 -15.072006
v -19.513872 28.088833 -18.091983
v -14.634549 23.083686 -20.729964
v -20.087334 24.940588 -23.677984
v -19.629031 24.720843 -18.029723
v -19.629031 24.720843 -18.029723
v -20.087334 24.940588 -23.677984
v -20.277266 27.846003 -23.780670
v -19.513872 28.088833 -18.091983
v -14.634549 29.663951 -20.729964
v -19.513872 28.088833 -18.091983
v -20.277266 27.846003 -23.780670
v -14.634549 23.083686 -20.729964
v -15.698959 24.808207 -25.965474
v -20.087334 24.940588 -23.677984
v -20.087334 24.940588 -23.677984
v -15.698959 24.808207 -25.965474
v -15.914180 27.863035 -27.024083
v -20.277266 27.846003 -23.780670
v -14.634549 29.663951 -20.729964
v -20.277266 27.846003 -23.780670
v -15.914180 27.863035 -27.024083
v -14.634549 23.083686 -20.729964
v -11.868049 24.676059 -24.624566
v -15.698959 24.808207 -25.965474
v -15.698959 24.808207 -25.965474
v -11.868049 24.676059 -24.624566
v -11.371354 27.953539 -25.323798
v -15.914180 27.863035 -27.024083
v -14.634549 29.663951 -20.729964
v -15.914180 27.863035 -27.024083
v -11.371354 27.953539 -25.323798
v -14.634549 23.083686 -20.729964
v -9.465722 24.702128 -20.729964
v -11.868049 24.676059 -24.624566
v -11.868049 24.676059 -24.624566
v -9.465722 24.702128 -20.729964
v -8.900411 28.079622 -20.729964
v -11.371354 27.953539 -25.323798
v -14.634549 29.663951 -20.729964
v -11.371354 27.953539 -25.323798
v -8.900411 28.079622 -20.729964
v 4.905525 30.058938 -28.631144
v 10.596914 31.832209 -24.000803
v 11.987809 31.833407 -28.631144
v 11.987809 31.833407 -28.631144
v 10.596914 31.832209 -24.000803
v 9.271206 35.011235 -25.079358
v 13.818733 35.046424 -28.631144
v 4.905525 36.688068 -28.631144
v 13.818733 35.046424 -28.631144
v 9.271206 35.011235 -25.079358
v 4.905525 30.058938 -28.631144
v 3.070700 31.918774 -23.415510
v 10.596914 31.832209 -24.000803
v 10.596914 31.832209 -24.000803
v 3.070700 31.918774 -23.415510
v 3.367382 34.869187 -24.258851
v 9.271206 35.011235 -25.079358
v 4.905525 36.688068 -28.631144
v 9.271206 35.011235 -25.079358
v 3.367382 34.869187 -24.258851
v 4.905525 30.058938 -28.631144
v -1.964814 31.536520 -26.484537
v 3.070700 31.918774 -23.415510
v 3.070700 31.918774 -23.415510
v -1.964814 31.536520 -26.484537
v -3.366089 34.992828 -26.046714
v 3.367382 34.869187 -24.258851
v 4.905525 36.688068 -28.631144
v 3.367382 34.869187 -24.258851
v -3.366089 34.992828 -26.046714
v 4.905525 30.058938 -28.631144
v -1.808032 31.437983 -30.728766
v -1.964814 31.536520 -26.484537
v -1.964814 31.536520 -26.484537
v -1.808032 31.437983 -30.728766
v -0.934194 34.870141 -30.455739
v -3.366089 34.992828 -26.046714
v 4.905525 36.688068 -28.631144
v -3.366089 34.992828 -26.046714
v -0.934194 34.870141 -30.455739
v 4.905525 30.058938 -28.631144
v 2.924200 31.427012 -34.263217
v -1.808032 31.437983 -30.728766
v -1.808032 31.437983 -30.728766
v 2.924200 31.427012 -34.263217
v 3.229849 34.953633 -33.394384
v -0.934194 34.870141 -30.455739
v 4.905525 36.688068 -28.631144
v -0.934194 34.870141 -30.455739
v 3.229849 34.953633 -33.394384
v 4.905525 30.058938 -28.631144
v 9.654678 31.958595 -32.494911
v 2.924200 31.427012 -34.263217
v 2.924200 31.427012 -34.263217
v 9.654678 31.958595 -32.494911
v 9.947538 35.047985 -32.733173
v 3.229849 34.953633 -33.394384
v 4.905525 36.688068 -28.631144
v 3.229849 34.953633 -33.394384
v 9.947538 35.047985 -32.733173
v 4.905525 30.058938 -28.631144
v 11.987809 31.833407 -28.631144
v 9.654678 31.958595 -32.494911
v 9.654678 31.958595 -32.494911
v 11.987809 31.833407 -28.631144
v 13.818733 35.046424 -28.631144
v 9.947538 35.047985 -32.733173
v 4.905525 36.688068 -28.631144
v 9.947538 35.047985 -32.733173
v 13.818733 35.046424 -28.631144
v 29.651988 11.698457 -18.308723
v 33.477436 13.271728 -11.107857
v 35.895003 13.313500 -18.308723
v 35.895003 13.313500 -18.308723
v 33.477436 13.271728 -11.107857
v 33.713527 16.375200 -10.663448
v 35.403992 16.695038 -18.308723
v 29.651988 18.034514 -18.308723
v 35.403992 16.695038 -18.308723
v 33.713527 16.375200 -10.663448
v 29.651988 11.698457 -18.308723
v 28.432515 13.496799 -10.288386
v 33.477436 13.271728 -11.107857
v 33.477436 13.271728 -11.107857
v 28.432515 13.496799 -10.288386
v 28.189791 16.437703 -8.692019
v 33.713527 16.375200 -10.663448
v 29.651988 18.034514 -18.308723
v 33.713527 16.375200 -10.663448
v 28.189791 16.437703 -8.692019
v 29.651988 11.698457 -18.308723
v 25.173490 13.521061 -15.071186
v 28.432515 13.496799 -10.288386
v 28.432515 13.496799 -10.288386
v 25.173490 13.521061 -15.071186
v 24.557715 16.323460 -14.626038
v 28.189791 16.437703 -8.692019
v 29.651988 18.034514 -18.308723
v 28.189791 16.437703 -8.692019
v 24.557715 16.323460 -14.626038
v 29.651988 11.698457 -18.308723
v 24.838707 13.231049 -21.788277
v 25.173490 13.521061 -15.071186
v 25.173490 13.521061 -15.071186
v 24.838707 13.231049 -21.788277
v 24.295293 16.564567 -22.181114
v 24.557715 16.323460 -14.626038
v 29.651988 18.034514 -18.308723
v 24.557715 16.323460 -14.626038
v 24.295293 16.564567 -22.181114
v 29.651988 11.698457 -18.308723
v 28.518138 13.016093 -25.765928
v 24.838707 13.231049 -21.788277
v 24.838707 13.231049 -21.788277
v 28.518138 13.016093 -25.765928
v 28.247752 16.193884 -27.544225
v 24.295293 16.564567 -22.181114
v 29.651988 18.034514 -18.308723
v 24.295293 16.564567 -22.181114
v 28.247752 16.193884 -27.544225
v 29.651988 11.698457 -18.308723
v 33.435268 13.088558 -25.430214
v 28.518138 13.016093 -25.765928
v 28.518138 13.016093 -25.765928
v 33.435268 13.088558 -25.430214
v 32.965012 16.628319 -24.545024
v 28.247752 16.193884 -27.544225
v 29.651988 18.034514 -18.308723
v 28.247752 16.193884 -27.544225
v 32.965012 16.628319 -24.545024
v 29.651988 11.698457 -18.308723
v 35.895003 13.313500 -18.308723
v 33.435268 13.088558 -25.430214
v 33.435268 13.088558 -25.430214
v 35.895003 13.313500 -18.308723
v 35.403992 16.695038 -18.308723
v 32.965012 16.628319 -24.545024
v 29.651988 18.034514 -18.308723
v 32.965012 16.628319 -24.545024
v 35.403992 16.695038 -18.308723
v -29.468862 36.662859 14.939615
v -29.308828 34.241336 13.542969
v 15.698315 37.822961 13.893596
v 15.618298 39.033723 14.591919
v -29.403506 36.662859 12.140377
v -29.308828 34.241336 13.542969
v -29.468862 36.662859 14.939615
v 15.650976 39.033723 13.192300
v 15.618298 39.033723 14.591919
v 15.698315 37.822961 13.893596
v -29.308828 34.241336 13.542969
v -29.243472 34.241336 10.743732
v 15.730993 37.822961 12.493978
v 15.698315 37.822961 13.893596
v -29.403506 36.662859 12.140377
v -29.243472 34.241336 10.743732
v -29.308828 34.241336 13.542969
v 15.650976 39.033723 13.192300
v 15.698315 37.822961 13.893596
v 15.730993 37.822961 12.493978
v -29.243472 34.241336 10.743732
v -29.338150 36.662859 9.341140
v 15.683654 39.033723 11.792682
v 15.730993 37.822961 12.493978
v -29.403506 36.662859 12.140377
v -29.338150 36.662859 9.341140
v -29.243472 34.241336 10.743732
v 15.650976 39.033723 13.192300
v 15.730993 37.822961 12.493978
v 15.683654 39.033723 11.792682
v -29.338150 36.662859 9.341140
v -29.498185 39.084381 10.737785
v 15.603637 40.244484 12.491004
v 15.683654 39.033723 11.792682
v -29.403506 36.662859 12.140377
v -29.498185 39.084381 10.737785
v -29.338150 36.662859 9.341140
v 15.650976 39.033723 13.192300
v 15.683654 39.033723 11.792682
v 15.603637 40.244484 12.491004
v -29.498185 39.084381 10.737785
v -29.563541 39.084381 13.537022
v 15.570959 40.244484 13.890623
v 15.603637 40.244484 12.491004
v -29.403506 36.662859 12.140377
v -29.563541 39.084381 13.537022
v -29.498185 39.084381 10.737785
v 15.650976 39.033723 13.192300
v 15.603637 40.244484 12.491004
v 15.570959 40.244484 13.890623
v -29.563541 39.084381 13.537022
v -29.468862 36.662859 14.939615
v 15.618298 39.033723 14.591919
v 15.570959 40.244484 13.890623
v -29.403506 36.662859 12.140377
v -29.468862 36.662859 14.939615
v -29.563541 39.084381 13.537022
v 15.650976 39.033723 13.192300
v 15.570959 40.244484 13.890623
v 15.618298 39.033723 14.591919
v -31.998226 39.795634 -18.685306
v -31.933992 37.388255 -20.113731
v 32.751730 46.535778 -31.249448
v 32.719612 47.739468 -30.535235
v -32.443806 39.795634 -21.449625
v -31.933992 37.388255 -20.113731
v -31.998226 39.795634 -18.685306
v 32.496822 47.739468 -31.917395
v 32.719612 47.739468 -30.535235
v 32.751730 46.535778 -31.249448
v -31.933992 37.388255 -20.113731
v -32.379572 37.388255 -22.878049
v 32.528939 46.535778 -32.631607
v 32.751730 46.535778 -31.249448
v -32.443806 39.795634 -21.449625
v -32.379572 37.388255 -22.878049
v -31.933992 37.388255 -20.113731
v 32.496822 47.739468 -31.917395
v 32.751730 46.535778 -31.249448
v 32.528939 46.535778 -32.631607
v -32.379572 37.388255 -22.878049
v -32.889386 39.795634 -24.213943
v 32.274032 47.739468 -33.299554
v 32.528939 46.535778 -32.631607
v -32.443806 39.795634 -21.449625
v -32.889386 39.795634 -24.213943
v -32.379572 37.388255 -22.878049
v 32.496822 47.739468 -31.917395
v 32.528939 46.535778 -32.631607
v 32.274032 47.739468 -33.299554
v -32.889386 39.795634 -24.213943
v -32.953620 42.203014 -22.785519
v 32.241915 48.943158 -32.585342
v 32.274032 47.739468 -33.299554
v -32.443806 39.795634 -21.449625
v -32.953620 42.203014 -22.785519
v -32.889386 39.795634 -24.213943
v 32.496822 47.739468 -31.917395
v 32.274032 47.739468 -33.299554
v 32.241915 48.943158 -32.585342
v -32.953620 42.203014 -22.785519
v -32.508040 42.203014 -20.021200
v 32.464705 48.943158 -31.203182
v 32.241915 48.943158 -32.585342
v -32.443806 39.795634 -21.449625
v -32.508040 42.203014 -20.021200
v -32.953620 42.203014 -22.785519
v 32.496822 47.739468 -31.917395
v 32.241915 48.943158 -32.585342
v 32.464705 48.943158 -31.203182
v -32.508040 42.203014 -20.021200
v -31.998226 39.795634 -18.685306
v 32.719612 47.739468 -30.535235
v 32.464705 48.943158 -31.203182
v -32.443806 39.795634 -21.449625
v -31.998226 39.795634 -18.685306
v -32.508040 42.203014 -20.021200
v 32.496822 47.739468 -31.917395
v 32.464705 48.943158 -31.203182
v 32.719612 47.739468 -30.535235
v -23.171970 35.373345 13.699665
v -23.025912 32.974417 12.263069
v 19.229216 40.513381 5.334386
v 19.156186 41.712845 6.052684
v -23.579812 35.373345 10.929527
v -23.025912 32.974417 12.263069
v -23.171970 35.373345 13.699665
v 18.952265 41.712845 4.667615
v 19.156186 41.712845 6.052684
v 19.229216 40.513381 5.334386
v -23.025912 32.974417 12.263069
v -23.433754 32.974417 9.492931
v 19.025295 40.513381 3.949317
v 19.229216 40.513381 5.334386
v -23.579812 35.373345 10.929527
v -23.433754 32.974417 9.492931
v -23.025912 32.974417 12.263069
v 18.952265 41.712845 4.667615
v 19.229216 40.513381 5.334386
v 19.025295 40.513381 3.949317
v -23.433754 32.974417 9.492931
v -23.987654 35.373345 8.159389
v 18.748344 41.712845 3.282546
v 19.025295 40.513381 3.949317
v -23.579812 35.373345 10.929527
v -23.987654 35.373345 8.159389
v -23.433754 32.974417 9.492931
v 18.952265 41.712845 4.667615
v 19.025295 40.513381 3.949317
v 18.748344 41.712845 3.282546
v -23.987654 35.373345 8.159389
v -24.133712 37.772274 9.595984
v 18.675315 42.912310 4.000844
v 18.748344 41.712845 3.282546
v -23.579812 35.373345 10.929527
v -24.133712 37.772274 9.595984
v -23.987654 35.373345 8.159389
v 18.952265 41.712845 4.667615
v 18.748344 41.712845 3.282546
v 18.675315 42.912310 4.000844
v -24.133712 37.772274 9.595984
v -23.725871 37.772274 12.366122
v 18.879236 42.912310 5.385913
v 18.675315 42.912310 4.000844
v -23.579812 35.373345 10.929527
v -23.725871 37.772274 12.366122
v -24.133712 37.772274 9.595984
v 18.952265 41.712845 4.667615
v 18.675315 42.912310 4.000844
v 18.879236 42.912310 5.385913
v -23.725871 37.772274 12.366122
v -23.171970 35.373345 13.699665
v 19.156186 41.712845 6.052684
v 18.879236 42.912310 5.385913
v -23.579812 35.373345 10.929527
v -23.171970 35.373345 13.699665
v -23.725871 37.772274 12.366122
v 18.952265 41.712845 4.667615
v 18.879236 42.912310 5.385913
v 19.156186 41.712845 6.052684
vt 0.500000 1.000000
vt 0.000000 0.000000
vt 1.000000 0.000000
vt 0.000000 0.000000
vt 1.000000 0.000000
vt 1.000000 1.000000
vt 0.000000 1.000000
vt 0.000000 0.000000
vt 1.000000 0.000000
vt 1.000000 1.000000
vt 0.000000 1.000000
vt 0.500000 1.000000
vt 0.000000 0.000000
vt 1.000000 0.000000
vt 0.500000 1.000000
vt 0.000000 0.000000
vt 1.000000 0.000000
vt 0.000000 0.000000
vt 1.000000 0.000000
vt 1.000000 1.000000
vt 0.000000 1.000000
vt 0.000000 0.000000
vt 1.000000 0.000000
vt 1.000000 1.000000
vt 0.000000 1.000000
vt 0.500000 1.000000
vt 0.000000 0.000000
vt 1.000000 0.000000
vt 0.500000 1.000000
vt 0.000000 0.000000
vt 1.000000 0.000000
vt 0.000000 0.000000
vt 1.000000 0.000000
vt 1.000000 1.000000
vt 0.000000 1.000000
vt 0.000000 0.000000
vt 1.000000 0.000000
vt 1.000000 1.000000
vt 0.000000 1.000000
vt 0.500000 1.000000
vt 0.000000 0.000000
vt 1.000000 0.000000
vt 0.500000 1.000000
vt 0.000000 0.000000
vt 1.000000 0.000000
vt 0.000000 0.000000
vt 1.000000 0.000000
vt 1.000000 1.000000
vt 0.000000 1.000000
vt 0.000000 0.000000
vt 1.000000 0.000000
vt 1.000000 1.000000
vt 0.000000 1.000000
vt 0.500000 1.000000
vt 0.000000 0.000000
vt 1.000000 0.000000
vt 0.500000 1.000000
vt 0.000000 0.000000
vt 1.000000 0.000000
vt 0.000000 0.000000
vt 1.000000 0.000000
vt 1.000000 1.000000
vt 0.000000 1.000000
vt 0.000000 0.000000
vt 1.000000 0.000000
vt 1.000000 1.000000
vt 0.000000 1.000000
vt 0.500000 1.000000
vt 0.000000 0.000000
vt 1.000000 0.000000
vt 0.500000 1.000000
vt 0.000000 0.000000
vt 1.000000 0.000000
vt 0.000000 0.000000
vt 1.000000 0.000000
vt 1.000000 1.000000
vt 0.000000 1.000000
vt 0.000000 0.000000
vt 1.000000 0.000000
vt 1.000000 1.000000
vt 0.000000 1.000000
vt 0.500000 1.000000
vt 0.000000 0.000000
vt 1.000000 0.000000
vt 0.500000 1.000000
vt 0.000000 0.000000
vt 1.000000 0.000000
vt 0.000000 0.000000
vt 1.000000 0.000000
vt 1.000000 1.000000
vt 0.000000 1.000000
vt 0.000000 0.000000
vt 1.000000 0.000000
vt 1.000000 1.000000
vt 0.000000 1.000000
vt 0.500000 1.000000
vt 0.000000 0.000000
vt 1.000000 0.000000
vt 0.500000 1.000000
vt 0.000000 0.000000
vt 1.000000 0.000000
vt 0.000000 0.000000
vt 1.000000 0.000000
vt 1.000000 1.000000
vt 0.000000 1.000000
vt 0.000000 0.000000
vt 1.000000 0.000000
vt 1.000000 1.000000
vt 0.000000 1.000000
vt 0.500000 1.000000
vt 0.000000 0.000000
vt 1.000000 0.000000
vt 0.500000 1.000000
vt 0.000000 0.000000
vt 1.000000 0.000000
vt 0.000000 0.000000
vt 1.000000 0.000000
vt 1.000000 1.000000
vt 0.000000 1.000000
vt 0.000000 0.000000
vt 1.000000 0.000000
vt 1.000000 1.000000
vt 0.000000 1.000000
vt 0.500000 1.000000
vt 0.000000 0.000000
vt 1.000000 0.000000
vt 0.500000 1.000000
vt 0.000000 0.000000
vt 1.000000 0.000000
vt 0.000000 0.000000
vt 1.000000 0.000000
vt 1.000000 1.000000
vt 0.000000 1.000000
vt 0.000000 0.000000
vt 1.000000 0.000000
vt 1.000000 1.000000
vt 0.000000 1.000000
vt 0.500000 1.000000
vt 0.000000 0.000000
vt 1.000000 0.000000
vt 0.500000 1.000000
vt 0.000000 0.000000
vt 1.000000 0.000000
vt 0.000000 0.000000
vt 1.000000 0.000000
vt 1.000000 1.000000
vt 0.000000 1.000000
vt 0.500000 1.000000
vt 0.000000 0.000000
vt 1.000000 0.000000
vt 0.500000 1.000000
vt 0.000000 0.000000
vt 1.000000 0.000000
vt 0.000000 0.000000
vt 1.000000 0.000000
vt 1.000000 1.000000
vt 0.000000 1.000000
vt 0.500000 1.000000
vt 0.000000 0.000000
vt 1.000000 0.000000
vt 0.500000 1.000000
vt 0.000000 0.000000
vt 1.000000 0.000000
vt 0.000000 0.000000
vt 1.000000 0.000000
vt 1.000000 1.000000
vt 0.000000 1.000000
vt 0.500000 1.000000
vt 0.000000 0.000000
vt 1.000000 0.000000
vt 0.500000 1.000000
vt 0.000000 0.000000
vt 1.000000 0.000000
vt 0.000000 0.000000
vt 1.000000 0.000000
vt 1.000000 1.000000
vt 0.000000 1.000000
vt 0.500000 1.000000
vt 0.000000 0.000000
vt 1.000000 0.000000
vt 0.500000 1.000000
vt 0.000000 0.000000
vt 1.000000 0.000000
vt 0.000000 0.000000
vt 1.000000 0.000000
vt 1.000000 1.000000
vt 0.000000 1.000000
vt 0.500000 1.000000
vt 0.000000 0.000000
vt 1.000000 0.000000
vt 0.500000 1.000000
vt 0.000000 0.000000
vt 1.000000 0.000000
vt 0.000000 0.000000
vt 1.000000 0.000000
vt 1.000000 1.000000
vt 0.000000 1.000000
vt 0.500000 1.000000
vt 0.000000 0.000000
vt 1.000000 0.000000
vt 0.500000 1.000000
vt 0.000000 0.000000
vt 1.000000 0.000000
vt 0.000000 0.000000
vt 1.000000 0.000000
vt 1.000000 1.000000
vt 0.000000 1.000000
vt 0.500000 1.000000
vt 0.000000 0.000000
vt 1.000000 0.000000
vt 0.500000 1.000000
vt 0.000000 0.000000
vt 1.000000 0.000000
vt 0.000000 0.000000
vt 1.000000 0.000000
vt 1.000000 1.000000
vt 0.000000 1.000000
vt 0.500000 1.000000
vt 0.000000 0.000000
vt 1.000000 0.000000
vt 0.500000 1.000000
vt 0.000000 0.000000
vt 1.000000 0.000000
vt 0.000000 0.000000
vt 1.000000 0.000000
vt 1.000000 1.000000
vt 0.000000 1.000000
vt 0.500000 1.000000
vt 0.000000 0.000000
vt 1.000000 0.000000
vt 0.500000 1.000000
vt 0.000000 0.000000
vt 1.000000 0.000000
vt 0.000000 0.000000
vt 1.000000 0.000000
vt 1.000000 1.000000
vt 0.000000 1.000000
vt 0.500000 1.000000
vt 0.000000 0.000000
vt 1.000000 0.000000
vt 0.500000 1.000000
vt 0.000000 0.000000
vt 1.000000 0.000000
vt 0.000000 0.000000
vt 1.000000 0.000000
vt 1.000000 1.000000
vt 0.000000 1.000000
vt 0.500000 1.000000
vt 0.000000 0.000000
vt 1.000000 0.000000
vt 0.500000 1.000000
vt 0.000000 0.000000
vt 1.000000 0.000000
vt 0.000000 0.000000
vt 1.000000 0.000000
vt 1.000000 1.000000
vt 0.000000 1.000000
vt 0.500000 1.000000
vt 0.000000 0.000000
vt 1.000000 0.000000
vt 0.500000 1.000000
vt 0.000000 0.000000
vt 1.000000 0.000000
vt 0.000000 0.000000
vt 1.000000 0.000000
vt 1.000000 1.000000
vt 0.000000 1.000000
vt 0.500000 1.000000
vt 0.000000 0.000000
vt 1.000000 0.000000
vt 0.500000 1.000000
vt 0.000000 0.000000
vt 1.000000 0.000000
vt 0.000000 0.000000
vt 1.000000 0.000000
vt 1.000000 1.000000
vt 0.000000 1.000000
vt 0.500000 1.000000
vt 0.000000 0.000000
vt 1.000000 0.000000
vt 0.500000 1.000000
vt 0.000000 0.000000
vt 1.000000 0.000000
vt 0.000000 0.000000
vt 1.000000 0.000000
vt 1.000000 1.000000
vt 0.000000 1.000000
vt 0.500000 1.000000
vt 0.000000 0.000000
vt 1.000000 0.000000
vt 0.500000 1.000000
vt 0.000000 0.000000
vt 1.000000 0.000000
vt 0.000000 0.000000
vt 1.000000 0.000000
vt 1.000000 1.000000
vt 0.000000 1.000000
vt 0.500000 1.000000
vt 0.000000 0.000000
vt 1.000000 0.000000
vt 0.500000 1.000000
vt 0.000000 0.000000
vt 1.000000 0.000000
vt 0.000000 0.000000
vt 1.000000 0.000000
vt 1.000000 1.000000
vt 0.000000 1.000000
vt 0.500000 1.000000
vt 0.000000 0.000000
vt 1.000000 0.000000
vt 0.500000 1.000000
vt 0.000000 0.000000
vt 1.000000 0.000000
vt 0.000000 0.000000
vt 1.000000 0.000000
vt 1.000000 1.000000
vt 0.000000 1.000000
vt 0.500000 1.000000
vt 0.000000 0.000000
vt 1.000000 0.000000
vt 0.500000 1.000000
vt 0.000000 0.000000
vt 1.000000 0.000000
vt 0.000000 0.000000
vt 1.000000 0.000000
vt 1.000000 1.000000
vt 0.000000 1.000000
vt 0.500000 1.000000
vt 0.000000 0.000000
vt 1.000000 0.000000
vt 0.500000 1.000000
vt 0.000000 0.000000
vt 1.000000 0.000000
vt 0.000000 0.000000
vt 1.000000 0.000000
vt 1.000000 1.000000
vt 0.000000 1.000000
vt 0.500000 1.000000
vt 0.000000 0.000000
vt 1.000000 0.000000
vt 0.500000 1.000000
vt 0.000000 0.000000
vt 1.000000 0.000000
vt 0.000000 0.000000
vt 1.000000 0.000000
vt 1.000000 1.000000
vt 0.000000 1.000000
vt 0.500000 1.000000
vt 0.000000 0.000000
vt 1.000000 0.000000
vt 0.500000 1.000000
vt 0.000000 0.000000
vt 1.000000 0.000000
vt 0.000000 0.000000
vt 1.000000 0.000000
vt 1.000000 1.000000
vt 0.000000 1.000000
vt 0.500000 1.000000
vt 0.000000 0.000000
vt 1.000000 0.000000
vt 0.500000 1.000000
vt 0.000000 0.000000
vt 1.000000 0.000000
vt 0.000000 0.000000
vt 1.000000 0.000000
vt 1.000000 1.000000
vt 0.000000 1.000000
vt 0.500000 1.000000
vt 0.000000 0.000000
vt 1.000000 0.000000
vt 0.500000 1.000000
vt 0.000000 0.000000
vt 1.000000 0.000000
vt 0.000000 0.000000
vt 1.000000 0.000000
vt 1.000000 1.000000
vt 0.000000 1.000000
vt 0.500000 1.000000
vt 0.000000 0.000000
vt 1.000000 0.000000
vt 0.500000 1.000000
vt 0.000000 0.000000
vt 1.000000 0.000000
vt 0.000000 0.000000
vt 1.000000 0.000000
vt 1.000000 1.000000
vt 0.000000 1.000000
vt 0.500000 1.000000
vt 0.000000 0.000000
vt 1.000000 0.000000
vt 0.500000 1.000000
vt 0.000000 0.000000
vt 1.000000 0.000000
vt 0.000000 0.000000
vt 1.000000 0.000000
vt 1.000000 1.000000
vt 0.000000 1.000000
vt 0.500000 1.000000
vt 0.000000 0.000000
vt 1.000000 0.000000
vt 0.500000 1.000000
vt 0.000000 0.000000
vt 1.000000 0.000000
vt 0.000000 0.000000
vt 1.000000 0.000000
vt 1.000000 1.000000
vt 0.000000 1.000000
vt 0.500000 1.000000
vt 0.000000 0.000000
vt 1.000000 0.000000
vt 0.500000 1.000000
vt 0.000000 0.000000
vt 1.000000 0.000000
vt 0.000000 0.000000
vt 1.000000 0.000000
vt 1.000000 1.000000
vt 0.000000 1.000000
vt 0.500000 1.000000
vt 0.000000 0.000000
vt 1.000000 0.000000
vt 0.500000 1.000000
vt 0.000000 0.000000
vt 1.000000 0.000000
vt 0.000000 0.000000
vt 1.000000 0.000000
vt 1.000000 1.000000
vt 0.000000 1.000000
vt 0.500000 1.000000
vt 0.000000 0.000000
vt 1.000000 0.000000
vt 0.500000 1.000000
vt 0.000000 0.000000
vt 1.000000 0.000000
vt 0.000000 0.000000
vt 1.000000 0.000000
vt 1.000000 1.000000
vt 0.000000 1.000000
vt 0.500000 1.000000
vt 0.000000 0.000000
vt 1.000000 0.000000
vt 0.500000 1.000000
vt 0.000000 0.000000
vt 1.000000 0.000000
vt 0.000000 0.000000
vt 1.000000 0.000000
vt 1.000000 1.000000
vt 0.000000 1.000000
vt 0.500000 1.000000
vt 0.000000 0.000000
vt 1.000000 0.000000
vt 0.500000 1.000000
vt 0.000000 0.000000
vt 1.000000 0.000000
vt 0.000000 0.000000
vt 1.000000 0.000000
vt 1.000000 1.000000
vt 0.000000 1.000000
vt 0.500000 1.000000
vt 0.000000 0.000000
vt 1.000000 0.000000
vt 0.500000 1.000000
vt 0.000000 0.000000
vt 1.000000 0.000000
vt 0.000000 0.000000
vt 1.000000 0.000000
vt 1.000000 1.000000
vt 0.000000 1.000000
vt 0.500000 1.000000
vt 0.000000 0.000000
vt 1.000000 0.000000
vt 0.500000 1.000000
vt 0.000000 0.000000
vt 1.000000 0.000000
vt 0.000000 0.000000
vt 1.000000 0.000000
vt 1.000000 1.000000
vt 0.000000 1.000000
vt 0.500000 1.000000
vt 0.000000 0.000000
vt 1.000000 0.000000
vt 0.500000 1.000000
vt 0.000000 0.000000
vt 1.000000 0.000000
vt 0.000000 0.000000
vt 1.000000 0.000000
vt 1.000000 1.000000
vt 0.000000 1.000000
vt 0.500000 1.000000
vt 0.000000 0.000000
vt 1.000000 0.000000
vt 0.500000 1.000000
vt 0.000000 0.000000
vt 1.000000 0.000000
vt 0.000000 0.000000
vt 1.000000 0.000000
vt 1.000000 1.000000
vt 0.000000 1.000000
vt 0.500000 1.000000
vt 0.000000 0.000000
vt 1.000000 0.000000
vt 0.500000 1.000000
vt 0.000000 0.000000
vt 1.000000 0.000000
vt 0.000000 0.000000
vt 1.000000 0.000000
vt 1.000000 1.000000
vt 0.000000 1.000000
vt 0.500000 1.000000
vt 0.000000 0.000000
vt 1.000000 0.000000
vt 0.500000 1.000000
vt 0.000000 0.000000
vt 1.000000 0.000000
vt 0.000000 0.000000
vt 1.000000 0.000000
vt 1.000000 1.000000
vt 0.000000 1.000000
vt 0.500000 1.000000
vt 0.000000 0.000000
vt 1.000000 0.000000
vt 0.500000 1.000000
vt 0.000000 0.000000
vt 1.000000 0.000000
vt 0.000000 0.000000
vt 1.000000 0.000000
vt 1.000000 1.000000
vt 0.000000 1.000000
vt 0.500000 1.000000
vt 0.000000 0.000000
vt 1.000000 0.000000
vt 0.500000 1.000000
vt 0.000000 0.000000
vt 1.000000 0.000000
vt 0.000000 0.000000
vt 1.000000 0.000000
vt 1.000000 1.000000
vt 0.000000 1.000000
vt 0.500000 1.000000
vt 0.000000 0.000000
vt 1.000000 0.000000
vt 0.500000 1.000000
vt 0.000000 0.000000
vt 1.000000 0.000000
vt 0.000000 0.000000
vt 1.000000 0.000000
vt 1.000000 1.000000
vt 0.000000 1.000000
vt 0.500000 1.000000
vt 0.000000 0.000000
vt 1.000000 0.000000
vt 0.500000 1.000000
vt 0.000000 0.000000
vt 1.000000 0.000000
vt 0.000000 0.000000
vt 1.000000 0.000000
vt 1.000000 1.000000
vt 0.000000 1.000000
vt 0.500000 1.000000
vt 0.000000 0.000000
vt 1.000000 0.000000
vt 0.500000 1.000000
vt 0.000000 0.000000
vt 1.000000 0.000000
vt 0.000000 0.000000
vt 1.000000 0.000000
vt 1.000000 1.000000
vt 0.000000 1.000000
vt 0.500000 1.000000
vt 0.000000 0.000000
vt 1.000000 0.000000
vt 0.500000 1.000000
vt 0.000000 0.000000
vt 1.000000 0.000000
vt 0.000000 0.000000
vt 1.000000 0.000000
vt 1.000000 1.000000
vt 0.000000 1.000000
vt 0.500000 1.000000
vt 0.000000 0.000000
vt 1.000000 0.000000
vt 0.500000 1.000000
vt 0.000000 0.000000
vt 1.000000 0.000000
vt 0.000000 0.000000
vt 1.000000 0.000000
vt 1.000000 1.000000
vt 0.000000 1.000000
vt 0.500000 1.000000
vt 0.000000 0.000000
vt 1.000000 0.000000
vt 0.500000 1.000000
vt 0.000000 0.000000
vt 1.000000 0.000000
vt 0.000000 0.000000
vt 1.000000 0.000000
vt 1.000000 1.000000
vt 0.000000 1.000000
vt 0.500000 1.000000
vt 0.000000 0.000000
vt 1.000000 0.000000
vt 0.500000 1.000000
vt 0.000000 0.000000
vt 1.000000 0.000000
vt 0.000000 0.000000
vt 1.000000 0.000000
vt 1.000000 1.000000
vt 0.000000 1.000000
vt 0.500000 1.000000
vt 0.000000 0.000000
vt 1.000000 0.000000
vt 0.500000 1.000000
vt 0.000000 0.000000
vt 1.000000 0.000000
vt 0.000000 0.000000
vt 1.000000 0.000000
vt 1.000000 1.000000
vt 0.000000 1.000000
vt 0.500000 1.000000
vt 0.000000 0.000000
vt 1.000000 0.000000
vt 0.500000 1.000000
vt 0.000000 0.000000
vt 1.000000 0.000000
vt 0.000000 0.000000
vt 1.000000 0.000000
vt 1.000000 1.000000
vt 0.000000 1.000000
vt 0.500000 1.000000
vt 0.000000 0.000000
vt 1.000000 0.000000
vt 0.500000 1.000000
vt 0.000000 0.000000
vt 1.000000 0.000000
vt 0.000000 0.000000
vt 1.000000 0.000000
vt 1.000000 1.000000
vt 0.000000 1.000000
vt 0.500000 1.000000
vt 0.000000 0.000000
vt 1.000000 0.000000
vt 0.500000 1.000000
vt 0.000000 0.000000
vt 1.000000 0.000000
vt 0.000000 0.000000
vt 1.000000 0.000000
vt 1.000000 1.000000
vt 0.000000 1.000000
vt 0.500000 1.000000
vt 0.000000 0.000000
vt 1.000000 0.000000
vt 0.500000 1.000000
vt 0.000000 0.000000
vt 1.000000 0.000000
vt 0.000000 0.000000
vt 1.000000 0.000000
vt 1.000000 1.000000
vt 0.000000 1.000000
vt 0.500000 1.000000
vt 0.000000 0.000000
vt 1.000000 0.000000
vt 0.500000 1.000000
vt 0.000000 0.000000
vt 1.000000 0.000000
vt 0.000000 0.000000
vt 1.000000 0.000000
vt 1.000000 1.000000
vt 0.000000 1.000000
vt 0.500000 1.000000
vt 0.000000 0.000000
vt 1.000000 0.000000
vt 0.500000 1.000000
vt 0.000000 0.000000
vt 1.000000 0.000000
vt 0.000000 0.000000
vt 1.000000 0.000000
vt 1.000000 1.000000
vt 0.000000 1.000000
vt 0.500000 1.000000
vt 0.000000 0.000000
vt 1.000000 0.000000
vt 0.500000 1.000000
vt 0.000000 0.000000
vt 1.000000 0.000000
vt 0.000000 0.000000
vt 1.000000 0.000000
vt 1.000000 1.000000
vt 0.000000 1.000000
vt 0.500000 1.000000
vt 0.000000 0.000000
vt 1.000000 0.000000
vt 0.500000 1.000000
vt 0.000000 0.000000
vt 1.000000 0.000000
vt 0.000000 0.000000
vt 1.000000 0.000000
vt 1.000000 1.000000
vt 0.000000 1.000000
vt 0.500000 1.000000
vt 0.000000 0.000000
vt 1.000000 0.000000
vt 0.500000 1.000000
vt 0.000000 0.000000
vt 1.000000 0.000000
vt 0.000000 0.000000
vt 1.000000 0.000000
vt 1.000000 1.000000
vt 0.000000 1.000000
vt 0.500000 1.000000
vt 0.000000 0.000000
vt 1.000000 0.000000
vt 0.500000 1.000000
vt 0.000000 0.000000
vt 1.000000 0.000000
vt 0.000000 0.000000
vt 1.000000 0.000000
vt 1.000000 1.000000
vt 0.000000 1.000000
vt 0.500000 1.000000
vt 0.000000 0.000000
vt 1.000000 0.000000
vt 0.500000 1.000000
vt 0.000000 0.000000
vt 1.000000 0.000000
vt 0.000000 0.000000
vt 1.000000 0.000000
vt 1.000000 1.000000
vt 0.000000 1.000000
vt 0.500000 1.000000
vt 0.000000 0.000000
vt 1.000000 0.000000
vt 0.500000 1.000000
vt 0.000000 0.000000
vt 1.000000 0.000000
vt 0.000000 0.000000
vt 1.000000 0.000000
vt 1.000000 1.000000
vt 0.000000 1.000000
vt 0.500000 1.000000
vt 0.000000 0.000000
vt 1.000000 0.000000
vt 0.500000 1.000000
vt 0.000000 0.000000
vt 1.000000 0.000000
vt 0.000000 0.000000
vt 1.000000 0.000000
vt 1.000000 1.000000
vt 0.000000 1.000000
vt 0.500000 1.000000
vt 0.000000 0.000000
vt 1.000000 0.000000
vt 0.500000 1.000000
vt 0.000000 0.000000
vt 1.000000 0.000000
vt 0.000000 0.000000
vt 1.000000 0.000000
vt 1.000000 1.000000
vt 0.000000 1.000000
vt 0.500000 1.000000
vt 0.000000 0.000000
vt 1.000000 0.000000
vt 0.500000 1.000000
vt 0.000000 0.000000
vt 1.000000 0.000000
vt 0.000000 0.000000
vt 1.000000 0.000000
vt 1.000000 1.000000
vt 0.000000 1.000000
vt 0.500000 1.000000
vt 0.000000 0.000000
vt 1.000000 0.000000
vt 0.000000 0.000000
vt 1.000000 0.000000
vt 1.000000 1.000000
vt 0.000000 1.000000
vt 0.500000 1.000000
vt 0.000000 0.000000
vt 1.000000 0.000000
vt 0.500000 1.000000
vt 0.000000 0.000000
vt 1.000000 0.000000
vt 0.000000 0.000000
vt 1.000000 0.000000
vt 1.000000 1.000000
vt 0.000000 1.000000
vt 0.500000 1.000000
vt 0.000000 0.000000
vt 1.000000 0.000000
vt 0.500000 1.000000
vt 0.000000 0.000000
vt 1.000000 0.000000
vt 0.000000 0.000000
vt 1.000000 0.000000
vt 1.000000 1.000000
vt 0.000000 1.000000
vt 0.500000 1.000000
vt 0.000000 0.000000
vt 1.000000 0.000000
vt 0.500000 1.000000
vt 0.000000 0.000000
vt 1.000000 0.000000
vt 0.000000 0.000000
vt 1.000000 0.000000
vt 1.000000 1.000000
vt 0.000000 1.000000
vt 0.500000 1.000000
vt 0.000000 0.000000
vt 1.000000 0.000000
vt 0.500000 1.000000
vt 0.000000 0.000000
vt 1.000000 0.000000
vt 0.000000 0.000000
vt 1.000000 0.000000
vt 1.000000 1.000000
vt 0.000000 1.000000
vt 0.500000 1.000000
vt 0.000000 0.000000
vt 1.000000 0.000000
vt 0.500000 1.000000
vt 0.000000 0.000000
vt 1.000000 0.000000
vt 0.000000 0.000000
vt 1.000000 0.000000
vt 1.000000 1.000000
vt 0.000000 1.000000
vt 0.500000 1.000000
vt 0.000000 0.000000
vt 1.000000 0.000000
vt 0.500000 1.000000
vt 0.000000 0.000000
vt 1.000000 0.000000
vt 0.000000 0.000000
vt 1.000000 0.000000
vt 1.000000 1.000000
vt 0.000000 1.000000
vt 0.500000 1.000000
vt 0.000000 0.000000
vt 1.000000 0.000000
vt 0.500000 1.000000
vt 0.000000 0.000000
vt 1.000000 0.000000
vt 0.000000 0.000000
vt 1.000000 0.000000
vt 1.000000 1.000000
vt 0.000000 1.000000
vt 0.500000 1.000000
vt 0.000000 0.000000
vt 1.000000 0.000000
vt 0.500000 1.000000
vt 0.000000 0.000000
vt 1.000000 0.000000
vt 0.000000 0.000000
vt 1.000000 0.000000
vt 1.000000 1.000000
vt 0.000000 1.000000
vt 0.500000 1.000000
vt 0.000000 0.000000
vt 1.000000 0.000000
vt 0.500000 1.000000
vt 0.000000 0.000000
vt 1.000000 0.000000
vt 0.000000 0.000000
vt 1.000000 0.000000
vt 1.000000 1.000000
vt 0.000000 1.000000
vt 0.500000 1.000000
vt 0.000000 0.000000
vt 1.000000 0.000000
vt 0.500000 1.000000
vt 0.000000 0.000000
vt 1.000000 0.000000
vt 0.000000 0.000000
vt 1.000000 0.000000
vt 1.000000 1.000000
vt 0.000000 1.000000
vt 0.500000 1.000000
vt 0.000000 0.000000
vt 1.000000 0.000000
vt 0.500000 1.000000
vt 0.000000 0.000000
vt 1.000000 0.000000
vt 0.000000 0.000000
vt 1.000000 0.000000
vt 1.000000 1.000000
vt 0.000000 1.000000
vt 0.500000 1.000000
vt 0.000000 0.000000
vt 1.000000 0.000000
vt 0.500000 1.000000
vt 0.000000 0.000000
vt 1.000000 0.000000
vt 0.000000 0.000000
vt 1.000000 0.000000
vt 1.000000 1.000000
vt 0.000000 1.000000
vt 0.500000 1.000000
vt 0.000000 0.000000
vt 1.000000 0.000000
vt 0.500000 1.000000
vt 0.000000 0.000000
vt 1.000000 0.000000
vt 0.000000 0.000000
vt 1.000000 0.000000
vt 1.000000 1.000000
vt 0.000000 1.000000
vt 0.500000 1.000000
vt 0.000000 0.000000
vt 1.000000 0.000000
vt 0.500000 1.000000
vt 0.000000 0.000000
vt 1.000000 0.000000
vt 0.000000 0.000000
vt 1.000000 0.000000
vt 1.000000 1.000000
vt 0.000000 1.000000
vt 0.500000 1.000000
vt 0.000000 0.000000
vt 1.000000 0.000000
vt 0.500000 1.000000
vt 0.000000 0.000000
vt 1.000000 0.000000
vt 0.000000 0.000000
vt 1.000000 0.000000
vt 1.000000 1.000000
vt 0.000000 1.000000
vt 0.500000 1.000000
vt 0.000000 0.000000
vt 1.000000 0.000000
vt 0.500000 1.000000
vt 0.000000 0.000000
vt 1.000000 0.000000
vt 0.000000 0.000000
vt 1.000000 0.000000
vt 1.000000 1.000000
vt 0.000000 1.000000
vt 0.500000 1.000000
vt 0.000000 0.000000
vt 1.000000 0.000000
vt 0.500000 1.000000
vt 0.000000 0.000000
vt 1.000000 0.000000
vt 0.000000 0.000000
vt 1.000000 0.000000
vt 1.000000 1.000000
vt 0.000000 1.000000
vt 0.500000 1.000000
vt 0.000000 0.000000
vt 1.000000 0.000000
vt 0.500000 1.000000
vt 0.000000 0.000000
vt 1.000000 0.000000
s 1
usemtl models/caelum/world/environment/rock_granite.png
f 1/1 2/2 3/3
f 4/4 5/5 6/6 7/7
f 8/8 9/9 10/10 11/11
f 12/12 13/13 14/14
f 15/15 16/16 17/17
f 18/18 19/19 20/20 21/21
f 22/22 23/23 24/24 25/25
f 26/26 27/27 28/28
f 29/29 30/30 31/31
f 32/32 33/33 34/34 35/35
f 36/36 37/37 38/38 39/39
f 40/40 41/41 42/42
f 43/43 44/44 45/45
f 46/46 47/47 48/48 49/49
f 50/50 51/51 52/52 53/53
f 54/54 55/55 56/56
f 57/57 58/58 59/59
f 60/60 61/61 62/62 63/63
f 64/64 65/65 66/66 67/67
f 68/68 69/69 70/70
f 71/71 72/72 73/73
f 74/74 75/75 76/76 77/77
f 78/78 79/79 80/80 81/81
f 82/82 83/83 84/84
f 85/85 86/86 87/87
f 88/88 89/89 90/90 91/91
f 92/92 93/93 94/94 95/95
f 96/96 97/97 98/98
f 99/99 100/100 101/101
f 102/102 103/103 104/104 105/105
f 106/106 107/107 108/108 109/109
f 110/110 111/111 112/112
f 113/113 114/114 115/115
f 116/116 117/117 118/118 119/119
f 120/120 121/121 122/122 123/123
f 124/124 125/125 126/126
f 127/127 128/128 129/129
f 130/130 131/131 132/132 133/133
f 134/134 135/135 136/136 137/137
f 138/138 139/139 140/140
usemtl models/caelum/world/resources/ca_vein_coal.png
f 141/141 142/142 143/143
f 144/144 145/145 146/146 147/147
f 148/148 149/149 150/150
f 151/151 152/152 153/153
f 154/154 155/155 156/156 157/157
f 158/158 159/159 160/160
f 161/161 162/162 163/163
f 164/164 165/165 166/166 167/167
f 168/168 169/169 170/170
f 171/171 172/172 173/173
f 174/174 175/175 176/176 177/177
f 178/178 179/179 180/180
f 181/181 182/182 183/183
f 184/184 185/185 186/186 187/187
f 188/188 189/189 190/190
f 191/191 192/192 193/193
f 194/194 195/195 196/196 197/197
f 198/198 199/199 200/200
f 201/201 202/202 203/203
f 204/204 205/205 206/206 207/207
f 208/208 209/209 210/210
f 211/211 212/212 213/213
f 214/214 215/215 216/216 217/217
f 218/218 219/219 220/220
f 221/221 222/222 223/223
f 224/224 225/225 226/226 227/227
f 228/228 229/229 230/230
f 231/231 232/232 233/233
f 234/234 235/235 236/236 237/237
f 238/238 239/239 240/240
f 241/241 242/242 243/243
f 244/244 245/245 246/246 247/247
f 248/248 249/249 250/250
f 251/251 252/252 253/253
f 254/254 255/255 256/256 257/257
f 258/258 259/259 260/260
f 261/261 262/262 263/263
f 264/264 265/265 266/266 267/267
f 268/268 269/269 270/270
f 271/271 272/272 273/273
f 274/274 275/275 276/276 277/277
f 278/278 279/279 280/280
f 281/281 282/282 283/283
f 284/284 285/285 286/286 287/287
f 288/288 289/289 290/290
f 291/291 292/292 293/293
f 294/294 295/295 296/296 297/297
f 298/298 299/299 300/300
f 301/301 302/302 303/303
f 304/304 305/305 306/306 307/307
f 308/308 309/309 310/310
f 311/311 312/312 313/313
f 314/314 315/315 316/316 317/317
f 318/318 319/319 320/320
f 321/321 322/322 323/323
f 324/324 325/325 326/326 327/327
f 328/328 329/329 330/330
f 331/331 332/332 333/333
f 334/334 335/335 336/336 337/337
f 338/338 339/339 340/340
f 341/341 342/342 343/343
f 344/344 345/345 346/346 347/347
f 348/348 349/349 350/350
f 351/351 352/352 353/353
f 354/354 355/355 356/356 357/357
f 358/358 359/359 360/360
f 361/361 362/362 363/363
f 364/364 365/365 366/366 367/367
f 368/368 369/369 370/370
f 371/371 372/372 373/373
f 374/374 375/375 376/376 377/377
f 378/378 379/379 380/380
f 381/381 382/382 383/383
f 384/384 385/385 386/386 387/387
f 388/388 389/389 390/390
f 391/391 392/392 393/393
f 394/394 395/395 396/396 397/397
f 398/398 399/399 400/400
f 401/401 402/402 403/403
f 404/404 405/405 406/406 407/407
f 408/408 409/409 410/410
f 411/411 412/412 413/413
f 414/414 415/415 416/416 417/417
f 418/418 419/419 420/420
f 421/421 422/422 423/423
f 424/424 425/425 426/426 427/427
f 428/428 429/429 430/430
f 431/431 432/432 433/433
f 434/434 435/435 436/436 437/437
f 438/438 439/439 440/440
f 441/441 442/442 443/443
f 444/444 445/445 446/446 447/447
f 448/448 449/449 450/450
f 451/451 452/452 453/453
f 454/454 455/455 456/456 457/457
f 458/458 459/459 460/460
f 461/461 462/462 463/463
f 464/464 465/465 466/466 467/467
f 468/468 469/469 470/470
f 471/471 472/472 473/473
f 474/474 475/475 476/476 477/477
f 478/478 479/479 480/480
f 481/481 482/482 483/483
f 484/484 485/485 486/486 487/487
f 488/488 489/489 490/490
f 491/491 492/492 493/493
f 494/494 495/495 496/496 497/497
f 498/498 499/499 500/500
f 501/501 502/502 503/503
f 504/504 505/505 506/506 507/507
f 508/508 509/509 510/510
f 511/511 512/512 513/513
f 514/514 515/515 516/516 517/517
f 518/518 519/519 520/520
f 521/521 522/522 523/523
f 524/524 525/525 526/526 527/527
f 528/528 529/529 530/530
f 531/531 532/532 533/533
f 534/534 535/535 536/536 537/537
f 538/538 539/539 540/540
f 541/541 542/542 543/543
f 544/544 545/545 546/546 547/547
f 548/548 549/549 550/550
f 551/551 552/552 553/553
f 554/554 555/555 556/556 557/557
f 558/558 559/559 560/560
f 561/561 562/562 563/563
f 564/564 565/565 566/566 567/567
f 568/568 569/569 570/570
f 571/571 572/572 573/573
f 574/574 575/575 576/576 577/577
f 578/578 579/579 580/580
f 581/581 582/582 583/583
f 584/584 585/585 586/586 587/587
f 588/588 589/589 590/590
f 591/591 592/592 593/593
f 594/594 595/595 596/596 597/597
f 598/598 599/599 600/600
f 601/601 602/602 603/603
f 604/604 605/605 606/606 607/607
f 608/608 609/609 610/610
f 611/611 612/612 613/613
f 614/614 615/615 616/616 617/617
f 618/618 619/619 620/620
f 621/621 622/622 623/623
f 624/624 625/625 626/626 627/627
f 628/628 629/629 630/630
f 631/631 632/632 633/633
f 634/634 635/635 636/636 637/637
f 638/638 639/639 640/640
f 641/641 642/642 643/643
f 644/644 645/645 646/646 647/647
f 648/648 649/649 650/650
f 651/651 652/652 653/653
f 654/654 655/655 656/656 657/657
f 658/658 659/659 660/660
f 661/661 662/662 663/663
f 664/664 665/665 666/666 667/667
f 668/668 669/669 670/670
f 671/671 672/672 673/673
f 674/674 675/675 676/676 677/677
f 678/678 679/679 680/680
f 681/681 682/682 683/683
f 684/684 685/685 686/686 687/687
f 688/688 689/689 690/690
f 691/691 692/692 693/693
f 694/694 695/695 696/696 697/697
f 698/698 699/699 700/700
f 701/701 702/702 703/703
f 704/704 705/705 706/706 707/707
f 708/708 709/709 710/710
f 711/711 712/712 713/713
f 714/714 715/715 716/716 717/717
f 718/718 719/719 720/720
f 721/721 722/722 723/723
f 724/724 725/725 726/726 727/727
f 728/728 729/729 730/730
f 731/731 732/732 733/733
f 734/734 735/735 736/736 737/737
f 738/738 739/739 740/740
f 741/741 742/742 743/743
f 744/744 745/745 746/746 747/747
f 748/748 749/749 750/750
f 751/751 752/752 753/753
f 754/754 755/755 756/756 757/757
f 758/758 759/759 760/760
f 761/761 762/762 763/763
f 764/764 765/765 766/766 767/767
f 768/768 769/769 770/770
f 771/771 772/772 773/773 774/774
f 775/775 776/776 777/777
f 778/778 779/779 780/780
f 781/781 782/782 783/783 784/784
f 785/785 786/786 787/787
f 788/788 789/789 790/790
f 791/791 792/792 793/793 794/794
f 795/795 796/796 797/797
f 798/798 799/799 800/800
f 801/801 802/802 803/803 804/804
f 805/805 806/806 807/807
f 808/808 809/809 810/810
f 811/811 812/812 813/813 814/814
f 815/815 816/816 817/817
f 818/818 819/819 820/820
f 821/821 822/822 823/823 824/824
f 825/825 826/826 827/827
f 828/828 829/829 830/830
f 831/831 832/832 833/833 834/834
f 835/835 836/836 837/837
f 838/838 839/839 840/840
f 841/841 842/842 843/843 844/844
f 845/845 846/846 847/847
f 848/848 849/849 850/850
f 851/851 852/852 853/853 854/854
f 855/855 856/856 857/857
f 858/858 859/859 860/860
f 861/861 862/862 863/863 864/864
f 865/865 866/866 867/867
f 868/868 869/869 870/870
f 871/871 872/872 873/873 874/874
f 875/875 876/876 877/877
f 878/878 879/879 880/880
f 881/881 882/882 883/883 884/884
f 885/885 886/886 887/887
f 888/888 889/889 890/890
f 891/891 892/892 893/893 894/894
f 895/895 896/896 897/897
f 898/898 899/899 900/900
f 901/901 902/902 903/903 904/904
f 905/905 906/906 907/907
f 908/908 909/909 910/910
f 911/911 912/912 913/913 914/914
f 915/915 916/916 917/917
f 918/918 919/919 920/920
f 921/921 922/922 923/923 924/924
f 925/925 926/926 927/927
f 928/928 929/929 930/930
f 931/931 932/932 933/933 934/934
f 935/935 936/936 937/937
f 938/938 939/939 940/940
f 941/941 942/942 943/943 944/944
f 945/945 946/946 947/947
f 948/948 949/949 950/950
