# Modelo original generado para Caelum Argenteum.
# Ejes OBJ: X ancho, Y altura, Z profundidad.
o ca_vein_opal2
v 0.000000 0.000000 0.000000
v 38.178180 1.517846 0.000000
v 34.765457 -0.784596 21.814231
v 38.178180 1.517846 0.000000
v 38.090181 14.882303 0.000000
v 30.427044 15.181974 19.092013
v 34.765457 -0.784596 21.814231
v 38.090181 14.882303 0.000000
v 38.339952 31.136043 0.000000
v 30.590821 31.036013 19.194778
v 30.427044 15.181974 19.092013
v -9.517305 47.000000 -8.124856
v 30.590821 31.036013 19.194778
v 38.339952 31.136043 0.000000
v 0.000000 0.000000 0.000000
v 34.765457 -0.784596 21.814231
v 12.710580 0.051866 33.784713
v 34.765457 -0.784596 21.814231
v 30.427044 15.181974 19.092013
v 15.441633 16.329703 41.043851
v 12.710580 0.051866 33.784713
v 30.427044 15.181974 19.092013
v 30.590821 31.036013 19.194778
v 11.046599 32.100727 29.361853
v 15.441633 16.329703 41.043851
v -9.517305 47.000000 -8.124856
v 11.046599 32.100727 29.361853
v 30.590821 31.036013 19.194778
v 0.000000 0.000000 0.000000
v 12.710580 0.051866 33.784713
v -11.408711 -0.928355 30.324348
v 12.710580 0.051866 33.784713
v 15.441633 16.329703 41.043851
v -14.746844 15.693664 39.197102
v -11.408711 -0.928355 30.324348
v 15.441633 16.329703 41.043851
v 11.046599 32.100727 29.361853
v -8.681241 31.872892 23.074734
v -14.746844 15.693664 39.197102
v -9.517305 47.000000 -8.124856
v -8.681241 31.872892 23.074734
v 11.046599 32.100727 29.361853
v 0.000000 0.000000 0.000000
v -11.408711 -0.928355 30.324348
v -33.255098 -0.292393 20.866528
v -11.408711 -0.928355 30.324348
v -14.746844 15.693664 39.197102
v -41.836750 16.125881 26.251245
v -33.255098 -0.292393 20.866528
v -14.746844 15.693664 39.197102
v -8.681241 31.872892 23.074734
v -30.881762 30.742793 19.377334
v -41.836750 16.125881 26.251245
v -9.517305 47.000000 -8.124856
v -30.881762 30.742793 19.377334
v -8.681241 31.872892 23.074734
v 0.000000 0.000000 0.000000
v -33.255098 -0.292393 20.866528
v -40.642124 -0.176046 0.000000
v -33.255098 -0.292393 20.866528
v -41.836750 16.125881 26.251245
v -48.270640 13.785183 0.000000
v -40.642124 -0.176046 0.000000
v -41.836750 16.125881 26.251245
v -30.881762 30.742793 19.377334
v -34.283744 33.480324 0.000000
v -48.270640 13.785183 0.000000
v -9.517305 47.000000 -8.124856
v -34.283744 33.480324 0.000000
v -30.881762 30.742793 19.377334
v 0.000000 0.000000 0.000000
v -40.642124 -0.176046 0.000000
v -33.653746 -0.137142 -21.116667
v -40.642124 -0.176046 0.000000
v -48.270640 13.785183 0.000000
v -33.370447 16.576163 -20.938906
v -33.653746 -0.137142 -21.116667
v -48.270640 13.785183 0.000000
v -34.283744 33.480324 0.000000
v -27.707306 33.068138 -17.385463
v -33.370447 16.576163 -20.938906
v -9.517305 47.000000 -8.124856
v -27.707306 33.068138 -17.385463
v -34.283744 33.480324 0.000000
v 0.000000 0.000000 0.000000
v -33.653746 -0.137142 -21.116667
v -13.211552 0.437206 -35.116297
v -33.653746 -0.137142 -21.116667
v -33.370447 16.576163 -20.938906
v -11.930015 14.431519 -31.709972
v -13.211552 0.437206 -35.116297
v -33.370447 16.576163 -20.938906
v -27.707306 33.068138 -17.385463
v -10.589541 30.887283 -28.146995
v -11.930015 14.431519 -31.709972
v -9.517305 47.000000 -8.124856
v -10.589541 30.887283 -28.146995
v -27.707306 33.068138 -17.385463
v 0.000000 0.000000 0.000000
v -13.211552 0.437206 -35.116297
v 12.590635 -1.175783 -33.465901
v -13.211552 0.437206 -35.116297
v -11.930015 14.431519 -31.709972
v 12.385221 14.648486 -32.919910
v 12.590635 -1.175783 -33.465901
v -11.930015 14.431519 -31.709972
v -10.589541 30.887283 -28.146995
v 9.351313 32.288552 -24.855785
v 12.385221 14.648486 -32.919910
v -9.517305 47.000000 -8.124856
v 9.351313 32.288552 -24.855785
v -10.589541 30.887283 -28.146995
v 0.000000 0.000000 0.000000
v 12.590635 -1.175783 -33.465901
v 25.245510 -1.539411 -15.840764
v 12.590635 -1.175783 -33.465901
v 12.385221 14.648486 -32.919910
v 39.294968 16.596811 -24.656357
v 25.245510 -1.539411 -15.840764
v 12.385221 14.648486 -32.919910
v 9.351313 32.288552 -24.855785
v 25.759257 31.098522 -16.163124
v 39.294968 16.596811 -24.656357
v -9.517305 47.000000 -8.124856
v 25.759257 31.098522 -16.163124
v 9.351313 32.288552 -24.855785
v 0.000000 0.000000 0.000000
v 25.245510 -1.539411 -15.840764
v 38.178180 1.517846 0.000000
v 25.245510 -1.539411 -15.840764
v 39.294968 16.596811 -24.656357
v 38.090181 14.882303 0.000000
v 38.178180 1.517846 0.000000
v 39.294968 16.596811 -24.656357
v 25.759257 31.098522 -16.163124
v 38.339952 31.136043 0.000000
v 38.090181 14.882303 0.000000
v -9.517305 47.000000 -8.124856
v 38.339952 31.136043 0.000000
v 25.759257 31.098522 -16.163124
v 28.165512 33.708565 -4.164612
v 23.608358 34.172980 -1.488502
v 30.914708 57.976059 2.010185
v 31.301259 57.936666 1.783190
v 28.165512 33.470625 1.135226
v 23.608358 34.172980 -1.488502
v 28.165512 33.708565 -4.164612
v 31.301259 57.916483 2.232737
v 31.301259 57.936666 1.783190
v 30.914708 57.976059 2.010185
v 23.608358 34.172980 -1.488502
v 23.608358 33.935040 3.811336
v 30.914708 57.955876 2.459732
v 30.914708 57.976059 2.010185
v 28.165512 33.470625 1.135226
v 23.608358 33.935040 3.811336
v 23.608358 34.172980 -1.488502
v 31.301259 57.916483 2.232737
v 30.914708 57.976059 2.010185
v 30.914708 57.955876 2.459732
v 23.608358 33.935040 3.811336
v 28.165512 33.232686 6.435064
v 31.301259 57.896301 2.682284
v 30.914708 57.955876 2.459732
v 28.165512 33.470625 1.135226
v 28.165512 33.232686 6.435064
v 23.608358 33.935040 3.811336
v 31.301259 57.916483 2.232737
v 30.914708 57.955876 2.459732
v 31.301259 57.896301 2.682284
v 28.165512 33.232686 6.435064
v 32.722666 32.768271 3.758953
v 31.687810 57.856908 2.455289
v 31.301259 57.896301 2.682284
v 28.165512 33.470625 1.135226
v 32.722666 32.768271 3.758953
v 28.165512 33.232686 6.435064
v 31.301259 57.916483 2.232737
v 31.301259 57.896301 2.682284
v 31.687810 57.856908 2.455289
v 32.722666 32.768271 3.758953
v 32.722666 33.006211 -1.540885
v 31.687810 57.877090 2.005742
v 31.687810 57.856908 2.455289
v 28.165512 33.470625 1.135226
v 32.722666 33.006211 -1.540885
v 32.722666 32.768271 3.758953
v 31.301259 57.916483 2.232737
v 31.687810 57.856908 2.455289
v 31.687810 57.877090 2.005742
v 32.722666 33.006211 -1.540885
v 28.165512 33.708565 -4.164612
v 31.301259 57.936666 1.783190
v 31.687810 57.877090 2.005742
v 28.165512 33.470625 1.135226
v 28.165512 33.708565 -4.164612
v 32.722666 33.006211 -1.540885
v 31.301259 57.916483 2.232737
v 31.687810 57.877090 2.005742
v 31.301259 57.936666 1.783190
v 7.001110 32.193425 4.837069
v 3.128411 32.473923 8.085858
v 10.200559 58.964966 10.634856
v 10.544784 58.940034 10.346087
v 7.853171 31.927217 9.820465
v 3.128411 32.473923 8.085858
v 7.001110 32.193425 4.837069
v 10.620520 58.916372 10.789037
v 10.544784 58.940034 10.346087
v 10.200559 58.964966 10.634856
v 3.128411 32.473923 8.085858
v 3.980471 32.207715 13.069253
v 10.276294 58.941304 11.077805
v 10.200559 58.964966 10.634856
v 7.853171 31.927217 9.820465
v 3.980471 32.207715 13.069253
v 3.128411 32.473923 8.085858
v 10.620520 58.916372 10.789037
v 10.200559 58.964966 10.634856
v 10.276294 58.941304 11.077805
v 3.980471 32.207715 13.069253
v 8.705231 31.661009 14.803860
v 10.696255 58.892710 11.231986
v 10.276294 58.941304 11.077805
v 7.853171 31.927217 9.820465
v 8.705231 31.661009 14.803860
v 3.980471 32.207715 13.069253
v 10.620520 58.916372 10.789037
v 10.276294 58.941304 11.077805
v 10.696255 58.892710 11.231986
v 8.705231 31.661009 14.803860
v 12.577931 31.380510 11.555072
v 11.040480 58.867778 10.943217
v 10.696255 58.892710 11.231986
v 7.853171 31.927217 9.820465
v 12.577931 31.380510 11.555072
v 8.705231 31.661009 14.803860
v 10.620520 58.916372 10.789037
v 10.696255 58.892710 11.231986
v 11.040480 58.867778 10.943217
v 12.577931 31.380510 11.555072
v 11.725870 31.646718 6.571676
v 10.964745 58.891440 10.500268
v 11.040480 58.867778 10.943217
v 7.853171 31.927217 9.820465
v 11.725870 31.646718 6.571676
v 12.577931 31.380510 11.555072
v 10.620520 58.916372 10.789037
v 11.040480 58.867778 10.943217
v 10.964745 58.891440 10.500268
v 11.725870 31.646718 6.571676
v 7.001110 32.193425 4.837069
v 10.544784 58.940034 10.346087
v 10.964745 58.891440 10.500268
v 7.853171 31.927217 9.820465
v 7.001110 32.193425 4.837069
v 11.725870 31.646718 6.571676
v 10.620520 58.916372 10.789037
v 10.964745 58.891440 10.500268
v 10.544784 58.940034 10.346087
v -7.829043 33.534190 12.617528
v -10.416302 33.674831 15.663780
v -4.097562 64.092049 17.296433
v -3.806434 64.076224 16.953658
v -6.501031 33.289583 16.381819
v -10.416302 33.674831 15.663780
v -7.829043 33.534190 12.617528
v -3.657002 64.048699 17.377229
v -3.806434 64.076224 16.953658
v -4.097562 64.092049 17.296433
v -10.416302 33.674831 15.663780
v -9.088290 33.430223 19.428071
v -3.948129 64.064525 17.720004
v -4.097562 64.092049 17.296433
v -6.501031 33.289583 16.381819
v -9.088290 33.430223 19.428071
v -10.416302 33.674831 15.663780
v -3.657002 64.048699 17.377229
v -4.097562 64.092049 17.296433
v -3.948129 64.064525 17.720004
v -9.088290 33.430223 19.428071
v -5.173019 33.044975 20.146110
v -3.507570 64.021175 17.800800
v -3.948129 64.064525 17.720004
v -6.501031 33.289583 16.381819
v -5.173019 33.044975 20.146110
v -9.088290 33.430223 19.428071
v -3.657002 64.048699 17.377229
v -3.948129 64.064525 17.720004
v -3.507570 64.021175 17.800800
v -5.173019 33.044975 20.146110
v -2.585761 32.904335 17.099858
v -3.216442 64.005350 17.458026
v -3.507570 64.021175 17.800800
v -6.501031 33.289583 16.381819
v -2.585761 32.904335 17.099858
v -5.173019 33.044975 20.146110
v -3.657002 64.048699 17.377229
v -3.507570 64.021175 17.800800
v -3.216442 64.005350 17.458026
v -2.585761 32.904335 17.099858
v -3.913773 33.148942 13.335567
v -3.365875 64.032874 17.034455
v -3.216442 64.005350 17.458026
v -6.501031 33.289583 16.381819
v -3.913773 33.148942 13.335567
v -2.585761 32.904335 17.099858
v -3.657002 64.048699 17.377229
v -3.216442 64.005350 17.458026
v -3.365875 64.032874 17.034455
v -3.913773 33.148942 13.335567
v -7.829043 33.534190 12.617528
v -3.806434 64.076224 16.953658
v -3.365875 64.032874 17.034455
v -6.501031 33.289583 16.381819
v -7.829043 33.534190 12.617528
v -3.913773 33.148942 13.335567
v -3.657002 64.048699 17.377229
v -3.365875 64.032874 17.034455
v -3.806434 64.076224 16.953658
v -9.571173 23.776657 0.485557
v -12.306237 23.615499 5.140086
v -11.441419 52.016087 3.759057
v -11.213541 52.029515 3.371254
v -6.961994 24.395959 5.173823
v -12.306237 23.615499 5.140086
v -9.571173 23.776657 0.485557
v -10.996151 52.081113 3.761868
v -11.213541 52.029515 3.371254
v -11.441419 52.016087 3.759057
v -12.306237 23.615499 5.140086
v -9.697058 24.234800 9.828353
v -11.224030 52.067686 4.149671
v -11.441419 52.016087 3.759057
v -6.961994 24.395959 5.173823
v -9.697058 24.234800 9.828353
v -12.306237 23.615499 5.140086
v -10.996151 52.081113 3.761868
v -11.441419 52.016087 3.759057
v -11.224030 52.067686 4.149671
v -9.697058 24.234800 9.828353
v -4.352815 25.015260 9.862089
v -10.778761 52.132712 4.152482
v -11.224030 52.067686 4.149671
v -6.961994 24.395959 5.173823
v -4.352815 25.015260 9.862089
v -9.697058 24.234800 9.828353
v -10.996151 52.081113 3.761868
v -11.224030 52.067686 4.149671
v -10.778761 52.132712 4.152482
v -4.352815 25.015260 9.862089
v -1.617751 25.176419 5.207560
v -10.550883 52.146139 3.764679
v -10.778761 52.132712 4.152482
v -6.961994 24.395959 5.173823
v -1.617751 25.176419 5.207560
v -4.352815 25.015260 9.862089
v -10.996151 52.081113 3.761868
v -10.778761 52.132712 4.152482
v -10.550883 52.146139 3.764679
v -1.617751 25.176419 5.207560
v -4.226930 24.557117 0.519294
v -10.768273 52.094540 3.374065
v -10.550883 52.146139 3.764679
v -6.961994 24.395959 5.173823
v -4.226930 24.557117 0.519294
v -1.617751 25.176419 5.207560
v -10.996151 52.081113 3.761868
v -10.550883 52.146139 3.764679
v -10.768273 52.094540 3.374065
v -4.226930 24.557117 0.519294
v -9.571173 23.776657 0.485557
v -11.213541 52.029515 3.371254
v -10.768273 52.094540 3.374065
v -6.961994 24.395959 5.173823
v -9.571173 23.776657 0.485557
v -4.226930 24.557117 0.519294
v -10.996151 52.081113 3.761868
v -10.768273 52.094540 3.374065
v -11.213541 52.029515 3.371254
v -25.821194 31.956915 -20.356394
v -28.094373 31.984000 -14.368205
v -17.409769 63.025362 -13.637568
v -17.250066 63.023459 -14.058271
v -21.839705 31.084575 -15.415417
v -28.094373 31.984000 -14.368205
v -25.821194 31.956915 -20.356394
v -16.970345 62.962172 -13.711140
v -17.250066 63.023459 -14.058271
v -17.409769 63.025362 -13.637568
v -28.094373 31.984000 -14.368205
v -24.112884 31.111660 -9.427227
v -17.130048 62.964075 -13.290437
v -17.409769 63.025362 -13.637568
v -21.839705 31.084575 -15.415417
v -24.112884 31.111660 -9.427227
v -28.094373 31.984000 -14.368205
v -16.970345 62.962172 -13.711140
v -17.409769 63.025362 -13.637568
v -17.130048 62.964075 -13.290437
v -24.112884 31.111660 -9.427227
v -17.858216 30.212236 -10.474439
v -16.690623 62.900886 -13.364010
v -17.130048 62.964075 -13.290437
v -21.839705 31.084575 -15.415417
v -17.858216 30.212236 -10.474439
v -24.112884 31.111660 -9.427227
v -16.970345 62.962172 -13.711140
v -17.130048 62.964075 -13.290437
v -16.690623 62.900886 -13.364010
v -17.858216 30.212236 -10.474439
v -15.585037 30.185151 -16.462628
v -16.530920 62.898983 -13.784713
v -16.690623 62.900886 -13.364010
v -21.839705 31.084575 -15.415417
v -15.585037 30.185151 -16.462628
v -17.858216 30.212236 -10.474439
v -16.970345 62.962172 -13.711140
v -16.690623 62.900886 -13.364010
v -16.530920 62.898983 -13.784713
v -15.585037 30.185151 -16.462628
v -19.566526 31.057490 -21.403606
v -16.810641 62.960270 -14.131844
v -16.530920 62.898983 -13.784713
v -21.839705 31.084575 -15.415417
v -19.566526 31.057490 -21.403606
v -15.585037 30.185151 -16.462628
v -16.970345 62.962172 -13.711140
v -16.530920 62.898983 -13.784713
v -16.810641 62.960270 -14.131844
v -19.566526 31.057490 -21.403606
v -25.821194 31.956915 -20.356394
v -17.250066 63.023459 -14.058271
v -16.810641 62.960270 -14.131844
v -21.839705 31.084575 -15.415417
v -25.821194 31.956915 -20.356394
v -19.566526 31.057490 -21.403606
v -16.970345 62.962172 -13.711140
v -16.810641 62.960270 -14.131844
v -17.250066 63.023459 -14.058271
v -4.550440 26.168289 -13.457460
v -5.448299 26.232019 -8.943653
v -4.937005 62.991708 -11.478180
v -4.849222 62.985477 -11.919491
v -1.107522 26.588987 -10.431904
v -5.448299 26.232019 -8.943653
v -4.550440 26.168289 -13.457460
v -4.512611 63.026608 -11.623685
v -4.849222 62.985477 -11.919491
v -4.937005 62.991708 -11.478180
v -5.448299 26.232019 -8.943653
v -2.005380 26.652717 -5.918098
v -4.600394 63.032839 -11.182374
v -4.937005 62.991708 -11.478180
v -1.107522 26.588987 -10.431904
v -2.005380 26.652717 -5.918098
v -5.448299 26.232019 -8.943653
v -4.512611 63.026608 -11.623685
v -4.937005 62.991708 -11.478180
v -4.600394 63.032839 -11.182374
v -2.005380 26.652717 -5.918098
v 2.335396 27.009685 -7.406349
v -4.176000 63.067739 -11.327879
v -4.600394 63.032839 -11.182374
v -1.107522 26.588987 -10.431904
v 2.335396 27.009685 -7.406349
v -2.005380 26.652717 -5.918098
v -4.512611 63.026608 -11.623685
v -4.600394 63.032839 -11.182374
v -4.176000 63.067739 -11.327879
v 2.335396 27.009685 -7.406349
v 3.233255 26.945955 -11.920155
v -4.088217 63.061509 -11.769190
v -4.176000 63.067739 -11.327879
v -1.107522 26.588987 -10.431904
v 3.233255 26.945955 -11.920155
v 2.335396 27.009685 -7.406349
v -4.512611 63.026608 -11.623685
v -4.176000 63.067739 -11.327879
v -4.088217 63.061509 -11.769190
v 3.233255 26.945955 -11.920155
v -0.209664 26.525256 -14.945711
v -4.424828 63.020377 -12.064996
v -4.088217 63.061509 -11.769190
v -1.107522 26.588987 -10.431904
v -0.209664 26.525256 -14.945711
v 3.233255 26.945955 -11.920155
v -4.512611 63.026608 -11.623685
v -4.088217 63.061509 -11.769190
v -4.424828 63.020377 -12.064996
v -0.209664 26.525256 -14.945711
v -4.550440 26.168289 -13.457460
v -4.849222 62.985477 -11.919491
v -4.424828 63.020377 -12.064996
v -1.107522 26.588987 -10.431904
v -4.550440 26.168289 -13.457460
v -0.209664 26.525256 -14.945711
v -4.512611 63.026608 -11.623685
v -4.424828 63.020377 -12.064996
v -4.849222 62.985477 -11.919491
v 4.864368 32.279690 -15.783178
v 4.746501 32.089322 -11.415463
v 13.096511 68.261479 -11.577861
v 13.108638 68.281066 -12.027271
v 8.557624 31.674480 -13.520294
v 4.746501 32.089322 -11.415463
v 4.864368 32.279690 -15.783178
v 13.488651 68.218794 -11.794435
v 13.108638 68.281066 -12.027271
v 13.096511 68.261479 -11.577861
v 4.746501 32.089322 -11.415463
v 8.439758 31.484113 -9.152579
v 13.476523 68.199206 -11.345025
v 13.096511 68.261479 -11.577861
v 8.557624 31.674480 -13.520294
v 8.439758 31.484113 -9.152579
v 4.746501 32.089322 -11.415463
v 13.488651 68.218794 -11.794435
v 13.096511 68.261479 -11.577861
v 13.476523 68.199206 -11.345025
v 8.439758 31.484113 -9.152579
v 12.250881 31.069271 -11.257410
v 13.868663 68.156522 -11.561599
v 13.476523 68.199206 -11.345025
v 8.557624 31.674480 -13.520294
v 12.250881 31.069271 -11.257410
v 8.439758 31.484113 -9.152579
v 13.488651 68.218794 -11.794435
v 13.476523 68.199206 -11.345025
v 13.868663 68.156522 -11.561599
v 12.250881 31.069271 -11.257410
v 12.368747 31.259639 -15.625125
v 13.880791 68.176109 -12.011008
v 13.868663 68.156522 -11.561599
v 8.557624 31.674480 -13.520294
v 12.368747 31.259639 -15.625125
v 12.250881 31.069271 -11.257410
v 13.488651 68.218794 -11.794435
v 13.868663 68.156522 -11.561599
v 13.880791 68.176109 -12.011008
v 12.368747 31.259639 -15.625125
v 8.675491 31.864848 -17.888009
v 13.500779 68.238382 -12.243845
v 13.880791 68.176109 -12.011008
v 8.557624 31.674480 -13.520294
v 8.675491 31.864848 -17.888009
v 12.368747 31.259639 -15.625125
v 13.488651 68.218794 -11.794435
v 13.880791 68.176109 -12.011008
v 13.500779 68.238382 -12.243845
v 8.675491 31.864848 -17.888009
v 4.864368 32.279690 -15.783178
v 13.108638 68.281066 -12.027271
v 13.500779 68.238382 -12.243845
v 8.557624 31.674480 -13.520294
v 4.864368 32.279690 -15.783178
v 8.675491 31.864848 -17.888009
v 13.488651 68.218794 -11.794435
v 13.500779 68.238382 -12.243845
v 13.108638 68.281066 -12.027271
vt 0.500000 1.000000
vt 0.000000 0.000000
vt 1.000000 0.000000
vt 0.000000 0.000000
vt 1.000000 0.000000
vt 1.000000 1.000000
vt 0.000000 1.000000
vt 0.000000 0.000000
vt 1.000000 0.000000
vt 1.000000 1.000000
vt 0.000000 1.000000
vt 0.500000 1.000000
vt 0.000000 0.000000
vt 1.000000 0.000000
vt 0.500000 1.000000
vt 0.000000 0.000000
vt 1.000000 0.000000
vt 0.000000 0.000000
vt 1.000000 0.000000
vt 1.000000 1.000000
vt 0.000000 1.000000
vt 0.000000 0.000000
vt 1.000000 0.000000
vt 1.000000 1.000000
vt 0.000000 1.000000
vt 0.500000 1.000000
vt 0.000000 0.000000
vt 1.000000 0.000000
vt 0.500000 1.000000
vt 0.000000 0.000000
vt 1.000000 0.000000
vt 0.000000 0.000000
vt 1.000000 0.000000
vt 1.000000 1.000000
vt 0.000000 1.000000
vt 0.000000 0.000000
vt 1.000000 0.000000
vt 1.000000 1.000000
vt 0.000000 1.000000
vt 0.500000 1.000000
vt 0.000000 0.000000
vt 1.000000 0.000000
vt 0.500000 1.000000
vt 0.000000 0.000000
vt 1.000000 0.000000
vt 0.000000 0.000000
vt 1.000000 0.000000
vt 1.000000 1.000000
vt 0.000000 1.000000
vt 0.000000 0.000000
vt 1.000000 0.000000
vt 1.000000 1.000000
vt 0.000000 1.000000
vt 0.500000 1.000000
vt 0.000000 0.000000
vt 1.000000 0.000000
vt 0.500000 1.000000
vt 0.000000 0.000000
vt 1.000000 0.000000
vt 0.000000 0.000000
vt 1.000000 0.000000
vt 1.000000 1.000000
vt 0.000000 1.000000
vt 0.000000 0.000000
vt 1.000000 0.000000
vt 1.000000 1.000000
vt 0.000000 1.000000
vt 0.500000 1.000000
vt 0.000000 0.000000
vt 1.000000 0.000000
vt 0.500000 1.000000
vt 0.000000 0.000000
vt 1.000000 0.000000
vt 0.000000 0.000000
vt 1.000000 0.000000
vt 1.000000 1.000000
vt 0.000000 1.000000
vt 0.000000 0.000000
vt 1.000000 0.000000
vt 1.000000 1.000000
vt 0.000000 1.000000
vt 0.500000 1.000000
vt 0.000000 0.000000
vt 1.000000 0.000000
vt 0.500000 1.000000
vt 0.000000 0.000000
vt 1.000000 0.000000
vt 0.000000 0.000000
vt 1.000000 0.000000
vt 1.000000 1.000000
vt 0.000000 1.000000
vt 0.000000 0.000000
vt 1.000000 0.000000
vt 1.000000 1.000000
vt 0.000000 1.000000
vt 0.500000 1.000000
vt 0.000000 0.000000
vt 1.000000 0.000000
vt 0.500000 1.000000
vt 0.000000 0.000000
vt 1.000000 0.000000
vt 0.000000 0.000000
vt 1.000000 0.000000
vt 1.000000 1.000000
vt 0.000000 1.000000
vt 0.000000 0.000000
vt 1.000000 0.000000
vt 1.000000 1.000000
vt 0.000000 1.000000
vt 0.500000 1.000000
vt 0.000000 0.000000
vt 1.000000 0.000000
vt 0.500000 1.000000
vt 0.000000 0.000000
vt 1.000000 0.000000
vt 0.000000 0.000000
vt 1.000000 0.000000
vt 1.000000 1.000000
vt 0.000000 1.000000
vt 0.000000 0.000000
vt 1.000000 0.000000
vt 1.000000 1.000000
vt 0.000000 1.000000
vt 0.500000 1.000000
vt 0.000000 0.000000
vt 1.000000 0.000000
vt 0.500000 1.000000
vt 0.000000 0.000000
vt 1.000000 0.000000
vt 0.000000 0.000000
vt 1.000000 0.000000
vt 1.000000 1.000000
vt 0.000000 1.000000
vt 0.000000 0.000000
vt 1.000000 0.000000
vt 1.000000 1.000000
vt 0.000000 1.000000
vt 0.500000 1.000000
vt 0.000000 0.000000
vt 1.000000 0.000000
vt 0.000000 0.000000
vt 1.000000 0.000000
vt 1.000000 1.000000
vt 0.000000 1.000000
vt 0.500000 1.000000
vt 0.000000 0.000000
vt 1.000000 0.000000
vt 0.500000 1.000000
vt 0.000000 0.000000
vt 1.000000 0.000000
vt 0.000000 0.000000
vt 1.000000 0.000000
vt 1.000000 1.000000
vt 0.000000 1.000000
vt 0.500000 1.000000
vt 0.000000 0.000000
vt 1.000000 0.000000
vt 0.500000 1.000000
vt 0.000000 0.000000
vt 1.000000 0.000000
vt 0.000000 0.000000
vt 1.000000 0.000000
vt 1.000000 1.000000
vt 0.000000 1.000000
vt 0.500000 1.000000
vt 0.000000 0.000000
vt 1.000000 0.000000
vt 0.500000 1.000000
vt 0.000000 0.000000
vt 1.000000 0.000000
vt 0.000000 0.000000
vt 1.000000 0.000000
vt 1.000000 1.000000
vt 0.000000 1.000000
vt 0.500000 1.000000
vt 0.000000 0.000000
vt 1.000000 0.000000
vt 0.500000 1.000000
vt 0.000000 0.000000
vt 1.000000 0.000000
vt 0.000000 0.000000
vt 1.000000 0.000000
vt 1.000000 1.000000
vt 0.000000 1.000000
vt 0.500000 1.000000
vt 0.000000 0.000000
vt 1.000000 0.000000
vt 0.500000 1.000000
vt 0.000000 0.000000
vt 1.000000 0.000000
vt 0.000000 0.000000
vt 1.000000 0.000000
vt 1.000000 1.000000
vt 0.000000 1.000000
vt 0.500000 1.000000
vt 0.000000 0.000000
vt 1.000000 0.000000
vt 0.500000 1.000000
vt 0.000000 0.000000
vt 1.000000 0.000000
vt 0.000000 0.000000
vt 1.000000 0.000000
vt 1.000000 1.000000
vt 0.000000 1.000000
vt 0.500000 1.000000
vt 0.000000 0.000000
vt 1.000000 0.000000
vt 0.500000 1.000000
vt 0.000000 0.000000
vt 1.000000 0.000000
vt 0.000000 0.000000
vt 1.000000 0.000000
vt 1.000000 1.000000
vt 0.000000 1.000000
vt 0.500000 1.000000
vt 0.000000 0.000000
vt 1.000000 0.000000
vt 0.500000 1.000000
vt 0.000000 0.000000
vt 1.000000 0.000000
vt 0.000000 0.000000
vt 1.000000 0.000000
vt 1.000000 1.000000
vt 0.000000 1.000000
vt 0.500000 1.000000
vt 0.000000 0.000000
vt 1.000000 0.000000
vt 0.500000 1.000000
vt 0.000000 0.000000
vt 1.000000 0.000000
vt 0.000000 0.000000
vt 1.000000 0.000000
vt 1.000000 1.000000
vt 0.000000 1.000000
vt 0.500000 1.000000
vt 0.000000 0.000000
vt 1.000000 0.000000
vt 0.500000 1.000000
vt 0.000000 0.000000
vt 1.000000 0.000000
vt 0.000000 0.000000
vt 1.000000 0.000000
vt 1.000000 1.000000
vt 0.000000 1.000000
vt 0.500000 1.000000
vt 0.000000 0.000000
vt 1.000000 0.000000
vt 0.500000 1.000000
vt 0.000000 0.000000
vt 1.000000 0.000000
vt 0.000000 0.000000
vt 1.000000 0.000000
vt 1.000000 1.000000
vt 0.000000 1.000000
vt 0.500000 1.000000
vt 0.000000 0.000000
vt 1.000000 0.000000
vt 0.500000 1.000000
vt 0.000000 0.000000
vt 1.000000 0.000000
vt 0.000000 0.000000
vt 1.000000 0.000000
vt 1.000000 1.000000
vt 0.000000 1.000000
vt 0.500000 1.000000
vt 0.000000 0.000000
vt 1.000000 0.000000
vt 0.500000 1.000000
vt 0.000000 0.000000
vt 1.000000 0.000000
vt 0.000000 0.000000
vt 1.000000 0.000000
vt 1.000000 1.000000
vt 0.000000 1.000000
vt 0.500000 1.000000
vt 0.000000 0.000000
vt 1.000000 0.000000
vt 0.500000 1.000000
vt 0.000000 0.000000
vt 1.000000 0.000000
vt 0.000000 0.000000
vt 1.000000 0.000000
vt 1.000000 1.000000
vt 0.000000 1.000000
vt 0.500000 1.000000
vt 0.000000 0.000000
vt 1.000000 0.000000
vt 0.500000 1.000000
vt 0.000000 0.000000
vt 1.000000 0.000000
vt 0.000000 0.000000
vt 1.000000 0.000000
vt 1.000000 1.000000
vt 0.000000 1.000000
vt 0.500000 1.000000
vt 0.000000 0.000000
vt 1.000000 0.000000
vt 0.500000 1.000000
vt 0.000000 0.000000
vt 1.000000 0.000000
vt 0.000000 0.000000
vt 1.000000 0.000000
vt 1.000000 1.000000
vt 0.000000 1.000000
vt 0.500000 1.000000
vt 0.000000 0.000000
vt 1.000000 0.000000
vt 0.500000 1.000000
vt 0.000000 0.000000
vt 1.000000 0.000000
vt 0.000000 0.000000
vt 1.000000 0.000000
vt 1.000000 1.000000
vt 0.000000 1.000000
vt 0.500000 1.000000
vt 0.000000 0.000000
vt 1.000000 0.000000
vt 0.500000 1.000000
vt 0.000000 0.000000
vt 1.000000 0.000000
vt 0.000000 0.000000
vt 1.000000 0.000000
vt 1.000000 1.000000
vt 0.000000 1.000000
vt 0.500000 1.000000
vt 0.000000 0.000000
vt 1.000000 0.000000
vt 0.500000 1.000000
vt 0.000000 0.000000
vt 1.000000 0.000000
vt 0.000000 0.000000
vt 1.000000 0.000000
vt 1.000000 1.000000
vt 0.000000 1.000000
vt 0.500000 1.000000
vt 0.000000 0.000000
vt 1.000000 0.000000
vt 0.500000 1.000000
vt 0.000000 0.000000
vt 1.000000 0.000000
vt 0.000000 0.000000
vt 1.000000 0.000000
vt 1.000000 1.000000
vt 0.000000 1.000000
vt 0.500000 1.000000
vt 0.000000 0.000000
vt 1.000000 0.000000
vt 0.500000 1.000000
vt 0.000000 0.000000
vt 1.000000 0.000000
vt 0.000000 0.000000
vt 1.000000 0.000000
vt 1.000000 1.000000
vt 0.000000 1.000000
vt 0.500000 1.000000
vt 0.000000 0.000000
vt 1.000000 0.000000
vt 0.500000 1.000000
vt 0.000000 0.000000
vt 1.000000 0.000000
vt 0.000000 0.000000
vt 1.000000 0.000000
vt 1.000000 1.000000
vt 0.000000 1.000000
vt 0.500000 1.000000
vt 0.000000 0.000000
vt 1.000000 0.000000
vt 0.500000 1.000000
vt 0.000000 0.000000
vt 1.000000 0.000000
vt 0.000000 0.000000
vt 1.000000 0.000000
vt 1.000000 1.000000
vt 0.000000 1.000000
vt 0.500000 1.000000
vt 0.000000 0.000000
vt 1.000000 0.000000
vt 0.500000 1.000000
vt 0.000000 0.000000
vt 1.000000 0.000000
vt 0.000000 0.000000
vt 1.000000 0.000000
vt 1.000000 1.000000
vt 0.000000 1.000000
vt 0.500000 1.000000
vt 0.000000 0.000000
vt 1.000000 0.000000
vt 0.500000 1.000000
vt 0.000000 0.000000
vt 1.000000 0.000000
vt 0.000000 0.000000
vt 1.000000 0.000000
vt 1.000000 1.000000
vt 0.000000 1.000000
vt 0.500000 1.000000
vt 0.000000 0.000000
vt 1.000000 0.000000
vt 0.500000 1.000000
vt 0.000000 0.000000
vt 1.000000 0.000000
vt 0.000000 0.000000
vt 1.000000 0.000000
vt 1.000000 1.000000
vt 0.000000 1.000000
vt 0.500000 1.000000
vt 0.000000 0.000000
vt 1.000000 0.000000
vt 0.500000 1.000000
vt 0.000000 0.000000
vt 1.000000 0.000000
vt 0.000000 0.000000
vt 1.000000 0.000000
vt 1.000000 1.000000
vt 0.000000 1.000000
vt 0.500000 1.000000
vt 0.000000 0.000000
vt 1.000000 0.000000
vt 0.500000 1.000000
vt 0.000000 0.000000
vt 1.000000 0.000000
vt 0.000000 0.000000
vt 1.000000 0.000000
vt 1.000000 1.000000
vt 0.000000 1.000000
vt 0.500000 1.000000
vt 0.000000 0.000000
vt 1.000000 0.000000
vt 0.500000 1.000000
vt 0.000000 0.000000
vt 1.000000 0.000000
vt 0.000000 0.000000
vt 1.000000 0.000000
vt 1.000000 1.000000
vt 0.000000 1.000000
vt 0.500000 1.000000
vt 0.000000 0.000000
vt 1.000000 0.000000
vt 0.500000 1.000000
vt 0.000000 0.000000
vt 1.000000 0.000000
vt 0.000000 0.000000
vt 1.000000 0.000000
vt 1.000000 1.000000
vt 0.000000 1.000000
vt 0.500000 1.000000
vt 0.000000 0.000000
vt 1.000000 0.000000
vt 0.500000 1.000000
vt 0.000000 0.000000
vt 1.000000 0.000000
vt 0.000000 0.000000
vt 1.000000 0.000000
vt 1.000000 1.000000
vt 0.000000 1.000000
vt 0.500000 1.000000
vt 0.000000 0.000000
vt 1.000000 0.000000
vt 0.500000 1.000000
vt 0.000000 0.000000
vt 1.000000 0.000000
vt 0.000000 0.000000
vt 1.000000 0.000000
vt 1.000000 1.000000
vt 0.000000 1.000000
vt 0.500000 1.000000
vt 0.000000 0.000000
vt 1.000000 0.000000
vt 0.500000 1.000000
vt 0.000000 0.000000
vt 1.000000 0.000000
vt 0.000000 0.000000
vt 1.000000 0.000000
vt 1.000000 1.000000
vt 0.000000 1.000000
vt 0.500000 1.000000
vt 0.000000 0.000000
vt 1.000000 0.000000
vt 0.500000 1.000000
vt 0.000000 0.000000
vt 1.000000 0.000000
vt 0.000000 0.000000
vt 1.000000 0.000000
vt 1.000000 1.000000
vt 0.000000 1.000000
vt 0.500000 1.000000
vt 0.000000 0.000000
vt 1.000000 0.000000
vt 0.500000 1.000000
vt 0.000000 0.000000
vt 1.000000 0.000000
vt 0.000000 0.000000
vt 1.000000 0.000000
vt 1.000000 1.000000
vt 0.000000 1.000000
vt 0.500000 1.000000
vt 0.000000 0.000000
vt 1.000000 0.000000
vt 0.500000 1.000000
vt 0.000000 0.000000
vt 1.000000 0.000000
vt 0.000000 0.000000
vt 1.000000 0.000000
vt 1.000000 1.000000
vt 0.000000 1.000000
vt 0.500000 1.000000
vt 0.000000 0.000000
vt 1.000000 0.000000
vt 0.500000 1.000000
vt 0.000000 0.000000
vt 1.000000 0.000000
vt 0.000000 0.000000
vt 1.000000 0.000000
vt 1.000000 1.000000
vt 0.000000 1.000000
vt 0.500000 1.000000
vt 0.000000 0.000000
vt 1.000000 0.000000
vt 0.500000 1.000000
vt 0.000000 0.000000
vt 1.000000 0.000000
vt 0.000000 0.000000
vt 1.000000 0.000000
vt 1.000000 1.000000
vt 0.000000 1.000000
vt 0.500000 1.000000
vt 0.000000 0.000000
vt 1.000000 0.000000
vt 0.500000 1.000000
vt 0.000000 0.000000
vt 1.000000 0.000000
vt 0.000000 0.000000
vt 1.000000 0.000000
vt 1.000000 1.000000
vt 0.000000 1.000000
vt 0.500000 1.000000
vt 0.000000 0.000000
vt 1.000000 0.000000
vt 0.500000 1.000000
vt 0.000000 0.000000
vt 1.000000 0.000000
vt 0.000000 0.000000
vt 1.000000 0.000000
vt 1.000000 1.000000
vt 0.000000 1.000000
vt 0.500000 1.000000
vt 0.000000 0.000000
vt 1.000000 0.000000
vt 0.500000 1.000000
vt 0.000000 0.000000
vt 1.000000 0.000000
vt 0.000000 0.000000
vt 1.000000 0.000000
vt 1.000000 1.000000
vt 0.000000 1.000000
vt 0.500000 1.000000
vt 0.000000 0.000000
vt 1.000000 0.000000
vt 0.500000 1.000000
vt 0.000000 0.000000
vt 1.000000 0.000000
s 1
usemtl models/caelum/world/environment/rock_granite.png
f 1/1 2/2 3/3
f 4/4 5/5 6/6 7/7
f 8/8 9/9 10/10 11/11
f 12/12 13/13 14/14
f 15/15 16/16 17/17
f 18/18 19/19 20/20 21/21
f 22/22 23/23 24/24 25/25
f 26/26 27/27 28/28
f 29/29 30/30 31/31
f 32/32 33/33 34/34 35/35
f 36/36 37/37 38/38 39/39
f 40/40 41/41 42/42
f 43/43 44/44 45/45
f 46/46 47/47 48/48 49/49
f 50/50 51/51 52/52 53/53
f 54/54 55/55 56/56
f 57/57 58/58 59/59
f 60/60 61/61 62/62 63/63
f 64/64 65/65 66/66 67/67
f 68/68 69/69 70/70
f 71/71 72/72 73/73
f 74/74 75/75 76/76 77/77
f 78/78 79/79 80/80 81/81
f 82/82 83/83 84/84
f 85/85 86/86 87/87
f 88/88 89/89 90/90 91/91
f 92/92 93/93 94/94 95/95
f 96/96 97/97 98/98
f 99/99 100/100 101/101
f 102/102 103/103 104/104 105/105
f 106/106 107/107 108/108 109/109
f 110/110 111/111 112/112
f 113/113 114/114 115/115
f 116/116 117/117 118/118 119/119
f 120/120 121/121 122/122 123/123
f 124/124 125/125 126/126
f 127/127 128/128 129/129
f 130/130 131/131 132/132 133/133
f 134/134 135/135 136/136 137/137
f 138/138 139/139 140/140
usemtl models/caelum/world/resources/ca_vein_opal.png
f 141/141 142/142 143/143 144/144
f 145/145 146/146 147/147
f 148/148 149/149 150/150
f 151/151 152/152 153/153 154/154
f 155/155 156/156 157/157
f 158/158 159/159 160/160
f 161/161 162/162 163/163 164/164
f 165/165 166/166 167/167
f 168/168 169/169 170/170
f 171/171 172/172 173/173 174/174
f 175/175 176/176 177/177
f 178/178 179/179 180/180
f 181/181 182/182 183/183 184/184
f 185/185 186/186 187/187
f 188/188 189/189 190/190
f 191/191 192/192 193/193 194/194
f 195/195 196/196 197/197
f 198/198 199/199 200/200
f 201/201 202/202 203/203 204/204
f 205/205 206/206 207/207
f 208/208 209/209 210/210
f 211/211 212/212 213/213 214/214
f 215/215 216/216 217/217
f 218/218 219/219 220/220
f 221/221 222/222 223/223 224/224
f 225/225 226/226 227/227
f 228/228 229/229 230/230
f 231/231 232/232 233/233 234/234
f 235/235 236/236 237/237
f 238/238 239/239 240/240
f 241/241 242/242 243/243 244/244
f 245/245 246/246 247/247
f 248/248 249/249 250/250
f 251/251 252/252 253/253 254/254
f 255/255 256/256 257/257
f 258/258 259/259 260/260
f 261/261 262/262 263/263 264/264
f 265/265 266/266 267/267
f 268/268 269/269 270/270
f 271/271 272/272 273/273 274/274
f 275/275 276/276 277/277
f 278/278 279/279 280/280
f 281/281 282/282 283/283 284/284
f 285/285 286/286 287/287
f 288/288 289/289 290/290
f 291/291 292/292 293/293 294/294
f 295/295 296/296 297/297
f 298/298 299/299 300/300
f 301/301 302/302 303/303 304/304
f 305/305 306/306 307/307
f 308/308 309/309 310/310
f 311/311 312/312 313/313 314/314
f 315/315 316/316 317/317
f 318/318 319/319 320/320
f 321/321 322/322 323/323 324/324
f 325/325 326/326 327/327
f 328/328 329/329 330/330
f 331/331 332/332 333/333 334/334
f 335/335 336/336 337/337
f 338/338 339/339 340/340
f 341/341 342/342 343/343 344/344
f 345/345 346/346 347/347
f 348/348 349/349 350/350
f 351/351 352/352 353/353 354/354
f 355/355 356/356 357/357
f 358/358 359/359 360/360
f 361/361 362/362 363/363 364/364
f 365/365 366/366 367/367
f 368/368 369/369 370/370
f 371/371 372/372 373/373 374/374
f 375/375 376/376 377/377
f 378/378 379/379 380/380
f 381/381 382/382 383/383 384/384
f 385/385 386/386 387/387
f 388/388 389/389 390/390
f 391/391 392/392 393/393 394/394
f 395/395 396/396 397/397
f 398/398 399/399 400/400
f 401/401 402/402 403/403 404/404
f 405/405 406/406 407/407
f 408/408 409/409 410/410
f 411/411 412/412 413/413 414/414
f 415/415 416/416 417/417
f 418/418 419/419 420/420
f 421/421 422/422 423/423 424/424
f 425/425 426/426 427/427
f 428/428 429/429 430/430
f 431/431 432/432 433/433 434/434
f 435/435 436/436 437/437
f 438/438 439/439 440/440
f 441/441 442/442 443/443 444/444
f 445/445 446/446 447/447
f 448/448 449/449 450/450
f 451/451 452/452 453/453 454/454
f 455/455 456/456 457/457
f 458/458 459/459 460/460
f 461/461 462/462 463/463 464/464
f 465/465 466/466 467/467
f 468/468 469/469 470/470
f 471/471 472/472 473/473 474/474
f 475/475 476/476 477/477
f 478/478 479/479 480/480
f 481/481 482/482 483/483 484/484
f 485/485 486/486 487/487
f 488/488 489/489 490/490
f 491/491 492/492 493/493 494/494
f 495/495 496/496 497/497
f 498/498 499/499 500/500
f 501/501 502/502 503/503 504/504
f 505/505 506/506 507/507
f 508/508 509/509 510/510
f 511/511 512/512 513/513 514/514
f 515/515 516/516 517/517
f 518/518 519/519 520/520
f 521/521 522/522 523/523 524/524
f 525/525 526/526 527/527
f 528/528 529/529 530/530
f 531/531 532/532 533/533 534/534
f 535/535 536/536 537/537
f 538/538 539/539 540/540
f 541/541 542/542 543/543 544/544
f 545/545 546/546 547/547
f 548/548 549/549 550/550
f 551/551 552/552 553/553 554/554
f 555/555 556/556 557/557
f 558/558 559/559 560/560
