# Modelo original generado para Caelum Argenteum.
# Ejes OBJ: X ancho, Y altura, Z profundidad.
o ca_vein_gold2
v 0.000000 0.000000 0.000000
v 33.203584 1.218717 0.000000
v 29.828957 -0.773811 18.716732
v 33.203584 1.218717 0.000000
v 46.222506 16.236896 0.000000
v 30.454522 18.069963 19.109255
v 29.828957 -0.773811 18.716732
v 46.222506 16.236896 0.000000
v 31.796401 34.590068 0.000000
v 23.745510 35.647923 14.899560
v 30.454522 18.069963 19.109255
v 0.142270 52.000000 -8.570255
v 23.745510 35.647923 14.899560
v 31.796401 34.590068 0.000000
v 0.000000 0.000000 0.000000
v 29.828957 -0.773811 18.716732
v 11.054316 0.203120 29.382365
v 29.828957 -0.773811 18.716732
v 30.454522 18.069963 19.109255
v 12.015846 15.327533 31.938111
v 11.054316 0.203120 29.382365
v 30.454522 18.069963 19.109255
v 23.745510 35.647923 14.899560
v 10.646240 34.343908 28.297700
v 12.015846 15.327533 31.938111
v 0.142270 52.000000 -8.570255
v 10.646240 34.343908 28.297700
v 23.745510 35.647923 14.899560
v 0.000000 0.000000 0.000000
v 11.054316 0.203120 29.382365
v -13.467388 1.146041 35.796309
v 11.054316 0.203120 29.382365
v 12.015846 15.327533 31.938111
v -15.441914 15.040945 41.044599
v -13.467388 1.146041 35.796309
v 12.015846 15.327533 31.938111
v 10.646240 34.343908 28.297700
v -11.771156 35.402039 31.287725
v -15.441914 15.040945 41.044599
v 0.142270 52.000000 -8.570255
v -11.771156 35.402039 31.287725
v 10.646240 34.343908 28.297700
v 0.000000 0.000000 0.000000
v -13.467388 1.146041 35.796309
v -30.448063 0.057180 19.105202
v -13.467388 1.146041 35.796309
v -15.441914 15.040945 41.044599
v -40.905607 16.727601 25.666982
v -30.448063 0.057180 19.105202
v -15.441914 15.040945 41.044599
v -11.771156 35.402039 31.287725
v -21.736423 36.906476 13.638922
v -40.905607 16.727601 25.666982
v 0.142270 52.000000 -8.570255
v -21.736423 36.906476 13.638922
v -11.771156 35.402039 31.287725
v 0.000000 0.000000 0.000000
v -30.448063 0.057180 19.105202
v -33.653149 -0.725495 0.000000
v -30.448063 0.057180 19.105202
v -40.905607 16.727601 25.666982
v -36.297315 15.639162 0.000000
v -33.653149 -0.725495 0.000000
v -40.905607 16.727601 25.666982
v -21.736423 36.906476 13.638922
v -30.471276 34.864538 0.000000
v -36.297315 15.639162 0.000000
v 0.142270 52.000000 -8.570255
v -30.471276 34.864538 0.000000
v -21.736423 36.906476 13.638922
v 0.000000 0.000000 0.000000
v -33.653149 -0.725495 0.000000
v -34.418645 -1.748034 -21.596617
v -33.653149 -0.725495 0.000000
v -36.297315 15.639162 0.000000
v -32.089696 15.881384 -20.135275
v -34.418645 -1.748034 -21.596617
v -36.297315 15.639162 0.000000
v -30.471276 34.864538 0.000000
v -28.501245 36.980387 -17.883635
v -32.089696 15.881384 -20.135275
v 0.142270 52.000000 -8.570255
v -28.501245 36.980387 -17.883635
v -30.471276 34.864538 0.000000
v 0.000000 0.000000 0.000000
v -34.418645 -1.748034 -21.596617
v -11.235210 -0.195349 -29.863182
v -34.418645 -1.748034 -21.596617
v -32.089696 15.881384 -20.135275
v -13.390081 16.359490 -35.590827
v -11.235210 -0.195349 -29.863182
v -32.089696 15.881384 -20.135275
v -28.501245 36.980387 -17.883635
v -10.986809 37.149211 -29.202933
v -13.390081 16.359490 -35.590827
v 0.142270 52.000000 -8.570255
v -10.986809 37.149211 -29.202933
v -28.501245 36.980387 -17.883635
v 0.000000 0.000000 0.000000
v -11.235210 -0.195349 -29.863182
v 11.089667 -0.099782 -29.476328
v -11.235210 -0.195349 -29.863182
v -13.390081 16.359490 -35.590827
v 12.761027 18.329115 -33.918803
v 11.089667 -0.099782 -29.476328
v -13.390081 16.359490 -35.590827
v -10.986809 37.149211 -29.202933
v 10.858792 36.768746 -28.862664
v 12.761027 18.329115 -33.918803
v 0.142270 52.000000 -8.570255
v 10.858792 36.768746 -28.862664
v -10.986809 37.149211 -29.202933
v 0.000000 0.000000 0.000000
v 11.089667 -0.099782 -29.476328
v 25.634208 -0.491461 -16.084659
v 11.089667 -0.099782 -29.476328
v 12.761027 18.329115 -33.918803
v 33.711743 15.976592 -21.153058
v 25.634208 -0.491461 -16.084659
v 12.761027 18.329115 -33.918803
v 10.858792 36.768746 -28.862664
v 27.945964 36.530713 -17.535213
v 33.711743 15.976592 -21.153058
v 0.142270 52.000000 -8.570255
v 27.945964 36.530713 -17.535213
v 10.858792 36.768746 -28.862664
v 0.000000 0.000000 0.000000
v 25.634208 -0.491461 -16.084659
v 33.203584 1.218717 0.000000
v 25.634208 -0.491461 -16.084659
v 33.711743 15.976592 -21.153058
v 46.222506 16.236896 0.000000
v 33.203584 1.218717 0.000000
v 33.711743 15.976592 -21.153058
v 27.945964 36.530713 -17.535213
v 31.796401 34.590068 0.000000
v 46.222506 16.236896 0.000000
v 0.142270 52.000000 -8.570255
v 31.796401 34.590068 0.000000
v 27.945964 36.530713 -17.535213
v 39.318238 20.675612 -3.207929
v 42.898104 23.292285 2.216905
v 45.298163 23.273723 -3.207929
v 45.298163 23.273723 -3.207929
v 42.898104 23.292285 2.216905
v 43.316246 27.412964 2.850547
v 45.227528 27.934312 -3.207929
v 39.318238 29.961637 -3.207929
v 45.227528 27.934312 -3.207929
v 43.316246 27.412964 2.850547
v 39.318238 20.675612 -3.207929
v 38.141176 22.944324 3.024207
v 42.898104 23.292285 2.216905
v 42.898104 23.292285 2.216905
v 38.141176 22.944324 3.024207
v 38.196906 27.857007 2.729141
v 43.316246 27.412964 2.850547
v 39.318238 29.961637 -3.207929
v 43.316246 27.412964 2.850547
v 38.196906 27.857007 2.729141
v 39.318238 20.675612 -3.207929
v 34.625991 22.969001 -0.477188
v 38.141176 22.944324 3.024207
v 38.141176 22.944324 3.024207
v 34.625991 22.969001 -0.477188
v 35.110088 27.438459 -0.758917
v 38.196906 27.857007 2.729141
v 39.318238 29.961637 -3.207929
v 38.196906 27.857007 2.729141
v 35.110088 27.438459 -0.758917
v 39.318238 20.675612 -3.207929
v 34.192123 22.807074 -6.191167
v 34.625991 22.969001 -0.477188
v 34.625991 22.969001 -0.477188
v 34.192123 22.807074 -6.191167
v 34.780919 27.527786 -5.848506
v 35.110088 27.438459 -0.758917
v 39.318238 29.961637 -3.207929
v 35.110088 27.438459 -0.758917
v 34.780919 27.527786 -5.848506
v 39.318238 20.675612 -3.207929
v 38.110857 23.096273 -9.600595
v 34.192123 22.807074 -6.191167
v 34.192123 22.807074 -6.191167
v 38.110857 23.096273 -9.600595
v 37.914095 27.393195 -10.642384
v 34.780919 27.527786 -5.848506
v 39.318238 29.961637 -3.207929
v 34.780919 27.527786 -5.848506
v 37.914095 27.393195 -10.642384
v 39.318238 20.675612 -3.207929
v 42.419969 22.963454 -7.908209
v 38.110857 23.096273 -9.600595
v 38.110857 23.096273 -9.600595
v 42.419969 22.963454 -7.908209
v 43.051800 27.579838 -8.865670
v 37.914095 27.393195 -10.642384
v 39.318238 29.961637 -3.207929
v 37.914095 27.393195 -10.642384
v 43.051800 27.579838 -8.865670
v 39.318238 20.675612 -3.207929
v 45.298163 23.273723 -3.207929
v 42.419969 22.963454 -7.908209
v 42.419969 22.963454 -7.908209
v 45.298163 23.273723 -3.207929
v 45.227528 27.934312 -3.207929
v 43.051800 27.579838 -8.865670
v 39.318238 29.961637 -3.207929
v 43.051800 27.579838 -8.865670
v 45.227528 27.934312 -3.207929
v 25.072870 22.865624 24.129930
v 28.926644 24.892746 28.276867
v 32.116552 24.841965 24.129930
v 32.116552 24.841965 24.129930
v 28.926644 24.892746 28.276867
v 28.597185 28.637024 27.922346
v 31.393823 28.641472 24.129930
v 25.072870 30.877378 24.129930
v 31.393823 28.641472 24.129930
v 28.597185 28.637024 27.922346
v 25.072870 22.865624 24.129930
v 23.816704 25.223087 28.852802
v 28.926644 24.892746 28.276867
v 28.926644 24.892746 28.276867
v 23.816704 25.223087 28.852802
v 23.843111 29.027863 28.753518
v 28.597185 28.637024 27.922346
v 25.072870 30.877378 24.129930
v 28.597185 28.637024 27.922346
v 23.843111 29.027863 28.753518
v 25.072870 22.865624 24.129930
v 19.695887 25.206933 26.352010
v 23.816704 25.223087 28.852802
v 23.816704 25.223087 28.852802
v 19.695887 25.206933 26.352010
v 18.173920 28.796346 26.980975
v 23.843111 29.027863 28.753518
v 25.072870 30.877378 24.129930
v 23.843111 29.027863 28.753518
v 18.173920 28.796346 26.980975
v 25.072870 22.865624 24.129930
v 19.137406 24.776345 21.677054
v 19.695887 25.206933 26.352010
v 19.695887 25.206933 26.352010
v 19.137406 24.776345 21.677054
v 18.223748 29.029445 21.299478
v 18.173920 28.796346 26.980975
v 25.072870 30.877378 24.129930
v 18.173920 28.796346 26.980975
v 18.223748 29.029445 21.299478
v 25.072870 22.865624 24.129930
v 23.852623 24.563481 19.542104
v 19.137406 24.776345 21.677054
v 19.137406 24.776345 21.677054
v 23.852623 24.563481 19.542104
v 23.706163 28.821155 18.991454
v 18.223748 29.029445 21.299478
v 25.072870 30.877378 24.129930
v 18.223748 29.029445 21.299478
v 23.706163 28.821155 18.991454
v 25.072870 22.865624 24.129930
v 29.784291 25.148363 19.060104
v 23.852623 24.563481 19.542104
v 23.852623 24.563481 19.542104
v 29.784291 25.148363 19.060104
v 29.066893 28.585042 19.832075
v 23.706163 28.821155 18.991454
v 25.072870 30.877378 24.129930
v 23.706163 28.821155 18.991454
v 29.066893 28.585042 19.832075
v 25.072870 22.865624 24.129930
v 32.116552 24.841965 24.129930
v 29.784291 25.148363 19.060104
v 29.784291 25.148363 19.060104
v 32.116552 24.841965 24.129930
v 31.393823 28.641472 24.129930
v 29.066893 28.585042 19.832075
v 25.072870 30.877378 24.129930
v 29.066893 28.585042 19.832075
v 31.393823 28.641472 24.129930
v 0.640223 19.600809 21.831244
v 3.913643 21.920246 26.010494
v 7.023021 21.652381 21.831244
v 7.023021 21.652381 21.831244
v 3.913643 21.920246 26.010494
v 4.531635 26.704715 26.799499
v 6.519078 26.285946 21.831244
v 0.640223 28.955616 21.831244
v 6.519078 26.285946 21.831244
v 4.531635 26.704715 26.799499
v 0.640223 19.600809 21.831244
v -0.950569 21.896257 28.927478
v 3.913643 21.920246 26.010494
v 3.913643 21.920246 26.010494
v -0.950569 21.896257 28.927478
v -0.740104 26.851134 27.988631
v 4.531635 26.704715 26.799499
v 0.640223 28.955616 21.831244
v 4.531635 26.704715 26.799499
v -0.740104 26.851134 27.988631
v 0.640223 19.600809 21.831244
v -4.269226 22.015669 24.238428
v -0.950569 21.896257 28.927478
v -0.950569 21.896257 28.927478
v -4.269226 22.015669 24.238428
v -5.824214 26.987950 25.000864
v -0.740104 26.851134 27.988631
v 0.640223 28.955616 21.831244
v -0.740104 26.851134 27.988631
v -5.824214 26.987950 25.000864
v 0.640223 19.600809 21.831244
v -5.904496 22.220109 18.622261
v -4.269226 22.015669 24.238428
v -4.269226 22.015669 24.238428
v -5.904496 22.220109 18.622261
v -4.935888 26.407936 19.097185
v -5.824214 26.987950 25.000864
v 0.640223 28.955616 21.831244
v -5.824214 26.987950 25.000864
v -4.935888 26.407936 19.097185
v 0.640223 19.600809 21.831244
v -0.741012 22.016029 15.669806
v -5.904496 22.220109 18.622261
v -5.904496 22.220109 18.622261
v -0.741012 22.016029 15.669806
v -0.577082 26.300627 16.401065
v -4.935888 26.407936 19.097185
v 0.640223 28.955616 21.831244
v -4.935888 26.407936 19.097185
v -0.577082 26.300627 16.401065
v 0.640223 19.600809 21.831244
v 4.699752 22.137167 16.648350
v -0.741012 22.016029 15.669806
v -0.741012 22.016029 15.669806
v 4.699752 22.137167 16.648350
v 4.636133 26.834280 16.729575
v -0.577082 26.300627 16.401065
v 0.640223 28.955616 21.831244
v -0.577082 26.300627 16.401065
v 4.636133 26.834280 16.729575
v 0.640223 19.600809 21.831244
v 7.023021 21.652381 21.831244
v 4.699752 22.137167 16.648350
v 4.699752 22.137167 16.648350
v 7.023021 21.652381 21.831244
v 6.519078 26.285946 21.831244
v 4.636133 26.834280 16.729575
v 0.640223 28.955616 21.831244
v 4.636133 26.834280 16.729575
v 6.519078 26.285946 21.831244
v -12.072499 25.893448 24.117897
v -7.689031 27.882932 31.607081
v -5.121571 27.878106 24.117897
v -5.121571 27.878106 24.117897
v -7.689031 27.882932 31.607081
v -8.496416 31.206936 30.227660
v -5.194172 31.286063 24.117897
v -12.072499 32.683276 24.117897
v -5.194172 31.286063 24.117897
v -8.496416 31.206936 30.227660
v -12.072499 25.893448 24.117897
v -13.204163 27.292503 30.873311
v -7.689031 27.882932 31.607081
v -7.689031 27.882932 31.607081
v -13.204163 27.292503 30.873311
v -13.463173 30.904099 32.419458
v -8.496416 31.206936 30.227660
v -12.072499 32.683276 24.117897
v -8.496416 31.206936 30.227660
v -13.463173 30.904099 32.419458
v -12.072499 25.893448 24.117897
v -17.842869 27.646348 27.904067
v -13.204163 27.292503 30.873311
v -13.204163 27.292503 30.873311
v -17.842869 27.646348 27.904067
v -17.337221 30.865613 27.572291
v -13.463173 30.904099 32.419458
v -12.072499 32.683276 24.117897
v -13.463173 30.904099 32.419458
v -17.337221 30.865613 27.572291
v -12.072499 25.893448 24.117897
v -17.651488 27.537826 20.457300
v -17.842869 27.646348 27.904067
v -17.842869 27.646348 27.904067
v -17.651488 27.537826 20.457300
v -17.605209 30.996815 20.487665
v -17.337221 30.865613 27.572291
v -12.072499 32.683276 24.117897
v -17.337221 30.865613 27.572291
v -17.605209 30.996815 20.487665
v -12.072499 25.893448 24.117897
v -13.413718 27.378726 16.111554
v -17.651488 27.537826 20.457300
v -17.651488 27.537826 20.457300
v -13.413718 27.378726 16.111554
v -13.318581 30.975704 16.679467
v -17.605209 30.996815 20.487665
v -12.072499 32.683276 24.117897
v -17.605209 30.996815 20.487665
v -13.318581 30.975704 16.679467
v -12.072499 25.893448 24.117897
v -8.820957 27.473599 18.562616
v -13.413718 27.378726 16.111554
v -13.413718 27.378726 16.111554
v -8.820957 27.473599 18.562616
v -8.778924 30.742245 18.490802
v -13.318581 30.975704 16.679467
v -12.072499 32.683276 24.117897
v -13.318581 30.975704 16.679467
v -8.778924 30.742245 18.490802
v -12.072499 25.893448 24.117897
v -5.121571 27.878106 24.117897
v -8.820957 27.473599 18.562616
v -8.820957 27.473599 18.562616
v -5.121571 27.878106 24.117897
v -5.194172 31.286063 24.117897
v -8.778924 30.742245 18.490802
v -12.072499 32.683276 24.117897
v -8.778924 30.742245 18.490802
v -5.194172 31.286063 24.117897
v -25.998205 29.020885 10.443226
v -22.622499 32.612473 16.525418
v -21.219800 32.789892 10.443226
v -21.219800 32.789892 10.443226
v -22.622499 32.612473 16.525418
v -22.775132 38.806368 16.250410
v -21.647200 38.624198 10.443226
v -25.998205 42.335082 10.443226
v -21.647200 38.624198 10.443226
v -22.775132 38.806368 16.250410
v -25.998205 29.020885 10.443226
v -27.087194 32.485204 17.298689
v -22.622499 32.612473 16.525418
v -22.622499 32.612473 16.525418
v -27.087194 32.485204 17.298689
v -26.923755 39.055918 16.269802
v -22.775132 38.806368 16.250410
v -25.998205 42.335082 10.443226
v -22.775132 38.806368 16.250410
v -26.923755 39.055918 16.269802
v -25.998205 29.020885 10.443226
v -30.621561 32.479327 13.642361
v -27.087194 32.485204 17.298689
v -27.087194 32.485204 17.298689
v -30.621561 32.479327 13.642361
v -30.635722 38.799372 13.652160
v -26.923755 39.055918 16.269802
v -25.998205 42.335082 10.443226
v -26.923755 39.055918 16.269802
v -30.635722 38.799372 13.652160
v -25.998205 29.020885 10.443226
v -30.432035 32.481619 7.375234
v -30.621561 32.479327 13.642361
v -30.621561 32.479327 13.642361
v -30.432035 32.481619 7.375234
v -30.040926 39.398756 7.645862
v -30.635722 38.799372 13.652160
v -25.998205 42.335082 10.443226
v -30.635722 38.799372 13.652160
v -30.040926 39.398756 7.645862
v -25.998205 29.020885 10.443226
v -26.949946 31.939259 4.451771
v -30.432035 32.481619 7.375234
v -30.432035 32.481619 7.375234
v -26.949946 31.939259 4.451771
v -26.971553 39.398676 4.315752
v -30.040926 39.398756 7.645862
v -25.998205 42.335082 10.443226
v -30.040926 39.398756 7.645862
v -26.971553 39.398676 4.315752
v -25.998205 29.020885 10.443226
v -23.402900 31.857756 5.767127
v -26.949946 31.939259 4.451771
v -26.949946 31.939259 4.451771
v -23.402900 31.857756 5.767127
v -22.663656 38.811584 4.435190
v -26.971553 39.398676 4.315752
v -25.998205 42.335082 10.443226
v -26.971553 39.398676 4.315752
v -22.663656 38.811584 4.435190
v -25.998205 29.020885 10.443226
v -21.219800 32.789892 10.443226
v -23.402900 31.857756 5.767127
v -23.402900 31.857756 5.767127
v -21.219800 32.789892 10.443226
v -21.647200 38.624198 10.443226
v -22.663656 38.811584 4.435190
v -25.998205 42.335082 10.443226
v -22.663656 38.811584 4.435190
v -21.647200 38.624198 10.443226
v -29.916974 13.279759 -4.207105
v -26.946223 15.910665 -0.103067
v -24.598246 15.413417 -4.207105
v -24.598246 15.413417 -4.207105
v -26.946223 15.910665 -0.103067
v -25.910516 20.323215 1.327743
v -25.149470 20.434820 -4.207105
v -29.916974 22.941987 -4.207105
v -25.149470 20.434820 -4.207105
v -25.910516 20.323215 1.327743
v -29.916974 13.279759 -4.207105
v -31.009916 15.756352 1.068352
v -26.946223 15.910665 -0.103067
v -26.946223 15.910665 -0.103067
v -31.009916 15.756352 1.068352
v -31.054886 20.426992 1.285414
v -25.910516 20.323215 1.327743
v -29.916974 22.941987 -4.207105
v -25.910516 20.323215 1.327743
v -31.054886 20.426992 1.285414
v -29.916974 13.279759 -4.207105
v -35.468718 15.344832 -1.261637
v -31.009916 15.756352 1.068352
v -31.009916 15.756352 1.068352
v -35.468718 15.344832 -1.261637
v -34.052917 20.232416 -2.012788
v -31.054886 20.426992 1.285414
v -29.916974 22.941987 -4.207105
v -31.054886 20.426992 1.285414
v -34.052917 20.232416 -2.012788
v -29.916974 13.279759 -4.207105
v -35.562992 15.774145 -7.202589
v -35.468718 15.344832 -1.261637
v -35.468718 15.344832 -1.261637
v -35.562992 15.774145 -7.202589
v -34.063997 20.256621 -6.407300
v -34.052917 20.232416 -2.012788
v -29.916974 22.941987 -4.207105
v -34.052917 20.232416 -2.012788
v -34.063997 20.256621 -6.407300
v -29.916974 13.279759 -4.207105
v -31.378469 15.701684 -11.261505
v -35.562992 15.774145 -7.202589
v -35.562992 15.774145 -7.202589
v -31.378469 15.701684 -11.261505
v -31.282596 20.788391 -10.798741
v -34.063997 20.256621 -6.407300
v -29.916974 22.941987 -4.207105
v -34.063997 20.256621 -6.407300
v -31.282596 20.788391 -10.798741
v -29.916974 13.279759 -4.207105
v -26.212481 15.349696 -9.324793
v -31.378469 15.701684 -11.261505
v -31.378469 15.701684 -11.261505
v -26.212481 15.349696 -9.324793
v -26.337733 20.480577 -9.151760
v -31.282596 20.788391 -10.798741
v -29.916974 22.941987 -4.207105
v -31.282596 20.788391 -10.798741
v -26.337733 20.480577 -9.151760
v -29.916974 13.279759 -4.207105
v -24.598246 15.413417 -4.207105
v -26.212481 15.349696 -9.324793
v -26.212481 15.349696 -9.324793
v -24.598246 15.413417 -4.207105
v -25.149470 20.434820 -4.207105
v -26.337733 20.480577 -9.151760
v -29.916974 22.941987 -4.207105
v -26.337733 20.480577 -9.151760
v -25.149470 20.434820 -4.207105
v -22.896734 16.788998 -27.651824
v -19.029205 19.287855 -22.909800
v -17.562774 19.044846 -27.651824
v -17.562774 19.044846 -27.651824
v -19.029205 19.287855 -22.909800
v -19.063041 24.191049 -22.951287
v -16.787544 23.758047 -27.651824
v -22.896734 26.267841 -27.651824
v -16.787544 23.758047 -27.651824
v -19.063041 24.191049 -22.951287
v -22.896734 16.788998 -27.651824
v -24.314626 19.321480 -21.577596
v -19.029205 19.287855 -22.909800
v -19.029205 19.287855 -22.909800
v -24.314626 19.321480 -21.577596
v -23.942862 24.126372 -23.170226
v -19.063041 24.191049 -22.951287
v -22.896734 26.267841 -27.651824
v -19.063041 24.191049 -22.951287
v -23.942862 24.126372 -23.170226
v -22.896734 16.788998 -27.651824
v -27.842119 18.774751 -25.323143
v -24.314626 19.321480 -21.577596
v -24.314626 19.321480 -21.577596
v -27.842119 18.774751 -25.323143
v -28.101634 23.693888 -25.200942
v -23.942862 24.126372 -23.170226
v -22.896734 26.267841 -27.651824
v -23.942862 24.126372 -23.170226
v -28.101634 23.693888 -25.200942
v -22.896734 16.788998 -27.651824
v -27.284129 19.522361 -29.717760
v -27.842119 18.774751 -25.323143
v -27.842119 18.774751 -25.323143
v -27.284129 19.522361 -29.717760
v -27.785098 23.899748 -29.953656
v -28.101634 23.693888 -25.200942
v -22.896734 26.267841 -27.651824
v -28.101634 23.693888 -25.200942
v -27.785098 23.899748 -29.953656
v -22.896734 16.788998 -27.651824
v -24.204317 18.969319 -33.253490
v -27.284129 19.522361 -29.717760
v -27.284129 19.522361 -29.717760
v -24.204317 18.969319 -33.253490
v -23.993809 23.784087 -32.351680
v -27.785098 23.899748 -29.953656
v -22.896734 26.267841 -27.651824
v -27.785098 23.899748 -29.953656
v -23.993809 23.784087 -32.351680
v -22.896734 16.788998 -27.651824
v -19.710038 19.273782 -31.559071
v -24.204317 18.969319 -33.253490
v -24.204317 18.969319 -33.253490
v -19.710038 19.273782 -31.559071
v -18.845427 23.545414 -32.619181
v -23.993809 23.784087 -32.351680
v -22.896734 26.267841 -27.651824
v -23.993809 23.784087 -32.351680
v -18.845427 23.545414 -32.619181
v -22.896734 16.788998 -27.651824
v -17.562774 19.044846 -27.651824
v -19.710038 19.273782 -31.559071
v -19.710038 19.273782 -31.559071
v -17.562774 19.044846 -27.651824
v -16.787544 23.758047 -27.651824
v -18.845427 23.545414 -32.619181
v -22.896734 26.267841 -27.651824
v -18.845427 23.545414 -32.619181
v -16.787544 23.758047 -27.651824
v 2.708794 22.970123 -28.466834
v 5.959526 26.872929 -23.419948
v 7.572472 25.894681 -28.466834
v 7.572472 25.894681 -28.466834
v 5.959526 26.872929 -23.419948
v 5.936486 32.801158 -23.455718
v 7.350940 33.571247 -28.466834
v 2.708794 36.745894 -28.466834
v 7.350940 33.571247 -28.466834
v 5.936486 32.801158 -23.455718
v 2.708794 22.970123 -28.466834
v 1.577086 26.383450 -22.327875
v 5.959526 26.872929 -23.419948
v 5.959526 26.872929 -23.419948
v 1.577086 26.383450 -22.327875
v 1.363700 33.533398 -21.170362
v 5.936486 32.801158 -23.455718
v 2.708794 36.745894 -28.466834
v 5.936486 32.801158 -23.455718
v 1.363700 33.533398 -21.170362
v 2.708794 22.970123 -28.466834
v -2.057361 26.441465 -25.625054
v 1.577086 26.383450 -22.327875
v 1.577086 26.383450 -22.327875
v -2.057361 26.441465 -25.625054
v -2.309693 33.248848 -25.474603
v 1.363700 33.533398 -21.170362
v 2.708794 36.745894 -28.466834
v 1.363700 33.533398 -21.170362
v -2.309693 33.248848 -25.474603
v 2.708794 22.970123 -28.466834
v -2.251541 26.962032 -31.424391
v -2.057361 26.441465 -25.625054
v -2.057361 26.441465 -25.625054
v -2.251541 26.962032 -31.424391
v -2.864115 33.556037 -31.789634
v -2.309693 33.248848 -25.474603
v 2.708794 36.745894 -28.466834
v -2.309693 33.248848 -25.474603
v -2.864115 33.556037 -31.789634
v 2.708794 22.970123 -28.466834
v 1.555079 25.997064 -34.725169
v -2.251541 26.962032 -31.424391
v -2.251541 26.962032 -31.424391
v 1.555079 25.997064 -34.725169
v 1.343956 32.710270 -35.870410
v -2.864115 33.556037 -31.789634
v 2.708794 36.745894 -28.466834
v -2.864115 33.556037 -31.789634
v 1.343956 32.710270 -35.870410
v 2.708794 22.970123 -28.466834
v 6.489185 26.076015 -34.336036
v 1.555079 25.997064 -34.725169
v 1.555079 25.997064 -34.725169
v 6.489185 26.076015 -34.336036
v 6.471333 33.096126 -34.308319
v 1.343956 32.710270 -35.870410
v 2.708794 36.745894 -28.466834
v 1.343956 32.710270 -35.870410
v 6.471333 33.096126 -34.308319
v 2.708794 22.970123 -28.466834
v 7.572472 25.894681 -28.466834
v 6.489185 26.076015 -34.336036
v 6.489185 26.076015 -34.336036
v 7.572472 25.894681 -28.466834
v 7.350940 33.571247 -28.466834
v 6.471333 33.096126 -34.308319
v 2.708794 36.745894 -28.466834
v 6.471333 33.096126 -34.308319
v 7.350940 33.571247 -28.466834
v 26.263407 14.777790 -25.054467
v 30.053708 17.961577 -18.275934
v 32.369724 17.448940 -25.054467
v 32.369724 17.448940 -25.054467
v 30.053708 17.961577 -18.275934
v 29.339018 23.770530 -19.554078
v 31.718151 23.519748 -25.054467
v 26.263407 26.599710 -25.054467
v 31.718151 23.519748 -25.054467
v 29.339018 23.770530 -19.554078
v 26.263407 14.777790 -25.054467
v 24.751112 17.865416 -15.604803
v 30.053708 17.961577 -18.275934
v 30.053708 17.961577 -18.275934
v 24.751112 17.865416 -15.604803
v 24.716184 23.247332 -15.386555
v 29.339018 23.770530 -19.554078
v 26.263407 26.599710 -25.054467
v 29.339018 23.770530 -19.554078
v 24.716184 23.247332 -15.386555
v 26.263407 14.777790 -25.054467
v 20.735993 18.085960 -21.258139
v 24.751112 17.865416 -15.604803
v 24.751112 17.865416 -15.604803
v 20.735993 18.085960 -21.258139
v 21.115585 24.020856 -21.518850
v 24.716184 23.247332 -15.386555
v 26.263407 26.599710 -25.054467
v 24.716184 23.247332 -15.386555
v 21.115585 24.020856 -21.518850
v 26.263407 14.777790 -25.054467
v 21.850905 17.469008 -28.085054
v 20.735993 18.085960 -21.258139
v 20.735993 18.085960 -21.258139
v 21.850905 17.469008 -28.085054
v 20.336977 24.138350 -29.124847
v 21.115585 24.020856 -21.518850
v 26.263407 26.599710 -25.054467
v 21.115585 24.020856 -21.518850
v 20.336977 24.138350 -29.124847
v 26.263407 14.777790 -25.054467
v 24.903190 17.743526 -33.553863
v 21.850905 17.469008 -28.085054
v 21.850905 17.469008 -28.085054
v 24.903190 17.743526 -33.553863
v 24.842314 24.046217 -33.934246
v 20.336977 24.138350 -29.124847
v 26.263407 26.599710 -25.054467
v 20.336977 24.138350 -29.124847
v 24.842314 24.046217 -33.934246
v 26.263407 14.777790 -25.054467
v 29.934152 17.564230 -31.619187
v 24.903190 17.743526 -33.553863
v 24.903190 17.743526 -33.553863
v 29.934152 17.564230 -31.619187
v 29.838101 23.449135 -31.447410
v 24.842314 24.046217 -33.934246
v 26.263407 26.599710 -25.054467
v 24.842314 24.046217 -33.934246
v 29.838101 23.449135 -31.447410
v 26.263407 14.777790 -25.054467
v 32.369724 17.448940 -25.054467
v 29.934152 17.564230 -31.619187
v 29.934152 17.564230 -31.619187
v 32.369724 17.448940 -25.054467
v 31.718151 23.519748 -25.054467
v 29.838101 23.449135 -31.447410
v 26.263407 26.599710 -25.054467
v 29.838101 23.449135 -31.447410
v 31.718151 23.519748 -25.054467
v -17.780629 39.873122 12.455162
v -17.433611 37.452801 11.090748
v 31.600833 41.700726 17.463062
v 31.427324 42.910887 18.145269
v -17.380515 39.873122 9.683898
v -17.433611 37.452801 11.090748
v -17.780629 39.873122 12.455162
v 31.627381 42.910887 16.759637
v 31.427324 42.910887 18.145269
v 31.600833 41.700726 17.463062
v -17.433611 37.452801 11.090748
v -17.033497 37.452801 8.319483
v 31.800890 41.700726 16.077430
v 31.600833 41.700726 17.463062
v -17.380515 39.873122 9.683898
v -17.033497 37.452801 8.319483
v -17.433611 37.452801 11.090748
v 31.627381 42.910887 16.759637
v 31.600833 41.700726 17.463062
v 31.800890 41.700726 16.077430
v -17.033497 37.452801 8.319483
v -16.980401 39.873122 6.912633
v 31.827439 42.910887 15.374004
v 31.800890 41.700726 16.077430
v -17.380515 39.873122 9.683898
v -16.980401 39.873122 6.912633
v -17.033497 37.452801 8.319483
v 31.627381 42.910887 16.759637
v 31.800890 41.700726 16.077430
v 31.827439 42.910887 15.374004
v -16.980401 39.873122 6.912633
v -17.327418 42.293442 8.277047
v 31.653930 44.121047 16.056211
v 31.827439 42.910887 15.374004
v -17.380515 39.873122 9.683898
v -17.327418 42.293442 8.277047
v -16.980401 39.873122 6.912633
v 31.627381 42.910887 16.759637
v 31.827439 42.910887 15.374004
v 31.653930 44.121047 16.056211
v -17.327418 42.293442 8.277047
v -17.727532 42.293442 11.048312
v 31.453873 44.121047 17.441844
v 31.653930 44.121047 16.056211
v -17.380515 39.873122 9.683898
v -17.727532 42.293442 11.048312
v -17.327418 42.293442 8.277047
v 31.627381 42.910887 16.759637
v 31.653930 44.121047 16.056211
v 31.453873 44.121047 17.441844
v -17.727532 42.293442 11.048312
v -17.780629 39.873122 12.455162
v 31.427324 42.910887 18.145269
v 31.453873 44.121047 17.441844
v -17.380515 39.873122 9.683898
v -17.780629 39.873122 12.455162
v -17.727532 42.293442 11.048312
v 31.627381 42.910887 16.759637
v 31.453873 44.121047 17.441844
v 31.427324 42.910887 18.145269
v -22.745249 25.994239 -11.949899
v -22.334237 23.615433 -13.368473
v 13.334920 31.916988 -15.573033
v 13.129414 33.106391 -14.863747
v -22.863202 25.994239 -14.747414
v -22.334237 23.615433 -13.368473
v -22.745249 25.994239 -11.949899
v 13.070438 33.106391 -16.262504
v 13.129414 33.106391 -14.863747
v 13.334920 31.916988 -15.573033
v -22.334237 23.615433 -13.368473
v -22.452190 23.615433 -16.165987
v 13.275944 31.916988 -16.971791
v 13.334920 31.916988 -15.573033
v -22.863202 25.994239 -14.747414
v -22.452190 23.615433 -16.165987
v -22.334237 23.615433 -13.368473
v 13.070438 33.106391 -16.262504
v 13.334920 31.916988 -15.573033
v 13.275944 31.916988 -16.971791
v -22.452190 23.615433 -16.165987
v -22.981155 25.994239 -17.544928
v 13.011461 33.106391 -17.661261
v 13.275944 31.916988 -16.971791
v -22.863202 25.994239 -14.747414
v -22.981155 25.994239 -17.544928
v -22.452190 23.615433 -16.165987
v 13.070438 33.106391 -16.262504
v 13.275944 31.916988 -16.971791
v 13.011461 33.106391 -17.661261
v -22.981155 25.994239 -17.544928
v -23.392167 28.373045 -16.126355
v 12.805955 34.295794 -16.951974
v 13.011461 33.106391 -17.661261
v -22.863202 25.994239 -14.747414
v -23.392167 28.373045 -16.126355
v -22.981155 25.994239 -17.544928
v 13.070438 33.106391 -16.262504
v 13.011461 33.106391 -17.661261
v 12.805955 34.295794 -16.951974
v -23.392167 28.373045 -16.126355
v -23.274214 28.373045 -13.328840
v 12.864932 34.295794 -15.553217
v 12.805955 34.295794 -16.951974
v -22.863202 25.994239 -14.747414
v -23.274214 28.373045 -13.328840
v -23.392167 28.373045 -16.126355
v 13.070438 33.106391 -16.262504
v 12.805955 34.295794 -16.951974
v 12.864932 34.295794 -15.553217
v -23.274214 28.373045 -13.328840
v -22.745249 25.994239 -11.949899
v 13.129414 33.106391 -14.863747
v 12.864932 34.295794 -15.553217
v -22.863202 25.994239 -14.747414
v -22.745249 25.994239 -11.949899
v -23.274214 28.373045 -13.328840
v 13.070438 33.106391 -16.262504
v 12.864932 34.295794 -15.553217
v 13.129414 33.106391 -14.863747
v -23.765150 36.856003 -9.998729
v -23.376242 34.436827 -11.353845
v 17.585457 38.493752 -5.394266
v 17.391003 39.703340 -4.716708
v -23.315218 36.856003 -12.762343
v -23.376242 34.436827 -11.353845
v -23.765150 36.856003 -9.998729
v 17.615969 39.703340 -6.098515
v 17.391003 39.703340 -4.716708
v 17.585457 38.493752 -5.394266
v -23.376242 34.436827 -11.353845
v -22.926310 34.436827 -14.117459
v 17.810423 38.493752 -6.776073
v 17.585457 38.493752 -5.394266
v -23.315218 36.856003 -12.762343
v -22.926310 34.436827 -14.117459
v -23.376242 34.436827 -11.353845
v 17.615969 39.703340 -6.098515
v 17.585457 38.493752 -5.394266
v 17.810423 38.493752 -6.776073
v -22.926310 34.436827 -14.117459
v -22.865286 36.856003 -15.525956
v 17.840935 39.703340 -7.480322
v 17.810423 38.493752 -6.776073
v -23.315218 36.856003 -12.762343
v -22.865286 36.856003 -15.525956
v -22.926310 34.436827 -14.117459
v 17.615969 39.703340 -6.098515
v 17.810423 38.493752 -6.776073
v 17.840935 39.703340 -7.480322
v -22.865286 36.856003 -15.525956
v -23.254194 39.275178 -14.170840
v 17.646481 40.912928 -6.802763
v 17.840935 39.703340 -7.480322
v -23.315218 36.856003 -12.762343
v -23.254194 39.275178 -14.170840
v -22.865286 36.856003 -15.525956
v 17.615969 39.703340 -6.098515
v 17.840935 39.703340 -7.480322
v 17.646481 40.912928 -6.802763
v -23.254194 39.275178 -14.170840
v -23.704126 39.275178 -11.407226
v 17.421515 40.912928 -5.420957
v 17.646481 40.912928 -6.802763
v -23.315218 36.856003 -12.762343
v -23.704126 39.275178 -11.407226
v -23.254194 39.275178 -14.170840
v 17.615969 39.703340 -6.098515
v 17.646481 40.912928 -6.802763
v 17.421515 40.912928 -5.420957
v -23.704126 39.275178 -11.407226
v -23.765150 36.856003 -9.998729
v 17.391003 39.703340 -4.716708
v 17.421515 40.912928 -5.420957
v -23.315218 36.856003 -12.762343
v -23.765150 36.856003 -9.998729
v -23.704126 39.275178 -11.407226
v 17.615969 39.703340 -6.098515
v 17.421515 40.912928 -5.420957
v 17.391003 39.703340 -4.716708
vt 0.500000 1.000000
vt 0.000000 0.000000
vt 1.000000 0.000000
vt 0.000000 0.000000
vt 1.000000 0.000000
vt 1.000000 1.000000
vt 0.000000 1.000000
vt 0.000000 0.000000
vt 1.000000 0.000000
vt 1.000000 1.000000
vt 0.000000 1.000000
vt 0.500000 1.000000
vt 0.000000 0.000000
vt 1.000000 0.000000
vt 0.500000 1.000000
vt 0.000000 0.000000
vt 1.000000 0.000000
vt 0.000000 0.000000
vt 1.000000 0.000000
vt 1.000000 1.000000
vt 0.000000 1.000000
vt 0.000000 0.000000
vt 1.000000 0.000000
vt 1.000000 1.000000
vt 0.000000 1.000000
vt 0.500000 1.000000
vt 0.000000 0.000000
vt 1.000000 0.000000
vt 0.500000 1.000000
vt 0.000000 0.000000
vt 1.000000 0.000000
vt 0.000000 0.000000
vt 1.000000 0.000000
vt 1.000000 1.000000
vt 0.000000 1.000000
vt 0.000000 0.000000
vt 1.000000 0.000000
vt 1.000000 1.000000
vt 0.000000 1.000000
vt 0.500000 1.000000
vt 0.000000 0.000000
vt 1.000000 0.000000
vt 0.500000 1.000000
vt 0.000000 0.000000
vt 1.000000 0.000000
vt 0.000000 0.000000
vt 1.000000 0.000000
vt 1.000000 1.000000
vt 0.000000 1.000000
vt 0.000000 0.000000
vt 1.000000 0.000000
vt 1.000000 1.000000
vt 0.000000 1.000000
vt 0.500000 1.000000
vt 0.000000 0.000000
vt 1.000000 0.000000
vt 0.500000 1.000000
vt 0.000000 0.000000
vt 1.000000 0.000000
vt 0.000000 0.000000
vt 1.000000 0.000000
vt 1.000000 1.000000
vt 0.000000 1.000000
vt 0.000000 0.000000
vt 1.000000 0.000000
vt 1.000000 1.000000
vt 0.000000 1.000000
vt 0.500000 1.000000
vt 0.000000 0.000000
vt 1.000000 0.000000
vt 0.500000 1.000000
vt 0.000000 0.000000
vt 1.000000 0.000000
vt 0.000000 0.000000
vt 1.000000 0.000000
vt 1.000000 1.000000
vt 0.000000 1.000000
vt 0.000000 0.000000
vt 1.000000 0.000000
vt 1.000000 1.000000
vt 0.000000 1.000000
vt 0.500000 1.000000
vt 0.000000 0.000000
vt 1.000000 0.000000
vt 0.500000 1.000000
vt 0.000000 0.000000
vt 1.000000 0.000000
vt 0.000000 0.000000
vt 1.000000 0.000000
vt 1.000000 1.000000
vt 0.000000 1.000000
vt 0.000000 0.000000
vt 1.000000 0.000000
vt 1.000000 1.000000
vt 0.000000 1.000000
vt 0.500000 1.000000
vt 0.000000 0.000000
vt 1.000000 0.000000
vt 0.500000 1.000000
vt 0.000000 0.000000
vt 1.000000 0.000000
vt 0.000000 0.000000
vt 1.000000 0.000000
vt 1.000000 1.000000
vt 0.000000 1.000000
vt 0.000000 0.000000
vt 1.000000 0.000000
vt 1.000000 1.000000
vt 0.000000 1.000000
vt 0.500000 1.000000
vt 0.000000 0.000000
vt 1.000000 0.000000
vt 0.500000 1.000000
vt 0.000000 0.000000
vt 1.000000 0.000000
vt 0.000000 0.000000
vt 1.000000 0.000000
vt 1.000000 1.000000
vt 0.000000 1.000000
vt 0.000000 0.000000
vt 1.000000 0.000000
vt 1.000000 1.000000
vt 0.000000 1.000000
vt 0.500000 1.000000
vt 0.000000 0.000000
vt 1.000000 0.000000
vt 0.500000 1.000000
vt 0.000000 0.000000
vt 1.000000 0.000000
vt 0.000000 0.000000
vt 1.000000 0.000000
vt 1.000000 1.000000
vt 0.000000 1.000000
vt 0.000000 0.000000
vt 1.000000 0.000000
vt 1.000000 1.000000
vt 0.000000 1.000000
vt 0.500000 1.000000
vt 0.000000 0.000000
vt 1.000000 0.000000
vt 0.500000 1.000000
vt 0.000000 0.000000
vt 1.000000 0.000000
vt 0.000000 0.000000
vt 1.000000 0.000000
vt 1.000000 1.000000
vt 0.000000 1.000000
vt 0.500000 1.000000
vt 0.000000 0.000000
vt 1.000000 0.000000
vt 0.500000 1.000000
vt 0.000000 0.000000
vt 1.000000 0.000000
vt 0.000000 0.000000
vt 1.000000 0.000000
vt 1.000000 1.000000
vt 0.000000 1.000000
vt 0.500000 1.000000
vt 0.000000 0.000000
vt 1.000000 0.000000
vt 0.500000 1.000000
vt 0.000000 0.000000
vt 1.000000 0.000000
vt 0.000000 0.000000
vt 1.000000 0.000000
vt 1.000000 1.000000
vt 0.000000 1.000000
vt 0.500000 1.000000
vt 0.000000 0.000000
vt 1.000000 0.000000
vt 0.500000 1.000000
vt 0.000000 0.000000
vt 1.000000 0.000000
vt 0.000000 0.000000
vt 1.000000 0.000000
vt 1.000000 1.000000
vt 0.000000 1.000000
vt 0.500000 1.000000
vt 0.000000 0.000000
vt 1.000000 0.000000
vt 0.500000 1.000000
vt 0.000000 0.000000
vt 1.000000 0.000000
vt 0.000000 0.000000
vt 1.000000 0.000000
vt 1.000000 1.000000
vt 0.000000 1.000000
vt 0.500000 1.000000
vt 0.000000 0.000000
vt 1.000000 0.000000
vt 0.500000 1.000000
vt 0.000000 0.000000
vt 1.000000 0.000000
vt 0.000000 0.000000
vt 1.000000 0.000000
vt 1.000000 1.000000
vt 0.000000 1.000000
vt 0.500000 1.000000
vt 0.000000 0.000000
vt 1.000000 0.000000
vt 0.500000 1.000000
vt 0.000000 0.000000
vt 1.000000 0.000000
vt 0.000000 0.000000
vt 1.000000 0.000000
vt 1.000000 1.000000
vt 0.000000 1.000000
vt 0.500000 1.000000
vt 0.000000 0.000000
vt 1.000000 0.000000
vt 0.500000 1.000000
vt 0.000000 0.000000
vt 1.000000 0.000000
vt 0.000000 0.000000
vt 1.000000 0.000000
vt 1.000000 1.000000
vt 0.000000 1.000000
vt 0.500000 1.000000
vt 0.000000 0.000000
vt 1.000000 0.000000
vt 0.500000 1.000000
vt 0.000000 0.000000
vt 1.000000 0.000000
vt 0.000000 0.000000
vt 1.000000 0.000000
vt 1.000000 1.000000
vt 0.000000 1.000000
vt 0.500000 1.000000
vt 0.000000 0.000000
vt 1.000000 0.000000
vt 0.500000 1.000000
vt 0.000000 0.000000
vt 1.000000 0.000000
vt 0.000000 0.000000
vt 1.000000 0.000000
vt 1.000000 1.000000
vt 0.000000 1.000000
vt 0.500000 1.000000
vt 0.000000 0.000000
vt 1.000000 0.000000
vt 0.500000 1.000000
vt 0.000000 0.000000
vt 1.000000 0.000000
vt 0.000000 0.000000
vt 1.000000 0.000000
vt 1.000000 1.000000
vt 0.000000 1.000000
vt 0.500000 1.000000
vt 0.000000 0.000000
vt 1.000000 0.000000
vt 0.500000 1.000000
vt 0.000000 0.000000
vt 1.000000 0.000000
vt 0.000000 0.000000
vt 1.000000 0.000000
vt 1.000000 1.000000
vt 0.000000 1.000000
vt 0.500000 1.000000
vt 0.000000 0.000000
vt 1.000000 0.000000
vt 0.500000 1.000000
vt 0.000000 0.000000
vt 1.000000 0.000000
vt 0.000000 0.000000
vt 1.000000 0.000000
vt 1.000000 1.000000
vt 0.000000 1.000000
vt 0.500000 1.000000
vt 0.000000 0.000000
vt 1.000000 0.000000
vt 0.500000 1.000000
vt 0.000000 0.000000
vt 1.000000 0.000000
vt 0.000000 0.000000
vt 1.000000 0.000000
vt 1.000000 1.000000
vt 0.000000 1.000000
vt 0.500000 1.000000
vt 0.000000 0.000000
vt 1.000000 0.000000
vt 0.500000 1.000000
vt 0.000000 0.000000
vt 1.000000 0.000000
vt 0.000000 0.000000
vt 1.000000 0.000000
vt 1.000000 1.000000
vt 0.000000 1.000000
vt 0.500000 1.000000
vt 0.000000 0.000000
vt 1.000000 0.000000
vt 0.500000 1.000000
vt 0.000000 0.000000
vt 1.000000 0.000000
vt 0.000000 0.000000
vt 1.000000 0.000000
vt 1.000000 1.000000
vt 0.000000 1.000000
vt 0.500000 1.000000
vt 0.000000 0.000000
vt 1.000000 0.000000
vt 0.500000 1.000000
vt 0.000000 0.000000
vt 1.000000 0.000000
vt 0.000000 0.000000
vt 1.000000 0.000000
vt 1.000000 1.000000
vt 0.000000 1.000000
vt 0.500000 1.000000
vt 0.000000 0.000000
vt 1.000000 0.000000
vt 0.500000 1.000000
vt 0.000000 0.000000
vt 1.000000 0.000000
vt 0.000000 0.000000
vt 1.000000 0.000000
vt 1.000000 1.000000
vt 0.000000 1.000000
vt 0.500000 1.000000
vt 0.000000 0.000000
vt 1.000000 0.000000
vt 0.500000 1.000000
vt 0.000000 0.000000
vt 1.000000 0.000000
vt 0.000000 0.000000
vt 1.000000 0.000000
vt 1.000000 1.000000
vt 0.000000 1.000000
vt 0.500000 1.000000
vt 0.000000 0.000000
vt 1.000000 0.000000
vt 0.500000 1.000000
vt 0.000000 0.000000
vt 1.000000 0.000000
vt 0.000000 0.000000
vt 1.000000 0.000000
vt 1.000000 1.000000
vt 0.000000 1.000000
vt 0.500000 1.000000
vt 0.000000 0.000000
vt 1.000000 0.000000
vt 0.500000 1.000000
vt 0.000000 0.000000
vt 1.000000 0.000000
vt 0.000000 0.000000
vt 1.000000 0.000000
vt 1.000000 1.000000
vt 0.000000 1.000000
vt 0.500000 1.000000
vt 0.000000 0.000000
vt 1.000000 0.000000
vt 0.500000 1.000000
vt 0.000000 0.000000
vt 1.000000 0.000000
vt 0.000000 0.000000
vt 1.000000 0.000000
vt 1.000000 1.000000
vt 0.000000 1.000000
vt 0.500000 1.000000
vt 0.000000 0.000000
vt 1.000000 0.000000
vt 0.500000 1.000000
vt 0.000000 0.000000
vt 1.000000 0.000000
vt 0.000000 0.000000
vt 1.000000 0.000000
vt 1.000000 1.000000
vt 0.000000 1.000000
vt 0.500000 1.000000
vt 0.000000 0.000000
vt 1.000000 0.000000
vt 0.500000 1.000000
vt 0.000000 0.000000
vt 1.000000 0.000000
vt 0.000000 0.000000
vt 1.000000 0.000000
vt 1.000000 1.000000
vt 0.000000 1.000000
vt 0.500000 1.000000
vt 0.000000 0.000000
vt 1.000000 0.000000
vt 0.500000 1.000000
vt 0.000000 0.000000
vt 1.000000 0.000000
vt 0.000000 0.000000
vt 1.000000 0.000000
vt 1.000000 1.000000
vt 0.000000 1.000000
vt 0.500000 1.000000
vt 0.000000 0.000000
vt 1.000000 0.000000
vt 0.500000 1.000000
vt 0.000000 0.000000
vt 1.000000 0.000000
vt 0.000000 0.000000
vt 1.000000 0.000000
vt 1.000000 1.000000
vt 0.000000 1.000000
vt 0.500000 1.000000
vt 0.000000 0.000000
vt 1.000000 0.000000
vt 0.500000 1.000000
vt 0.000000 0.000000
vt 1.000000 0.000000
vt 0.000000 0.000000
vt 1.000000 0.000000
vt 1.000000 1.000000
vt 0.000000 1.000000
vt 0.500000 1.000000
vt 0.000000 0.000000
vt 1.000000 0.000000
vt 0.500000 1.000000
vt 0.000000 0.000000
vt 1.000000 0.000000
vt 0.000000 0.000000
vt 1.000000 0.000000
vt 1.000000 1.000000
vt 0.000000 1.000000
vt 0.500000 1.000000
vt 0.000000 0.000000
vt 1.000000 0.000000
vt 0.500000 1.000000
vt 0.000000 0.000000
vt 1.000000 0.000000
vt 0.000000 0.000000
vt 1.000000 0.000000
vt 1.000000 1.000000
vt 0.000000 1.000000
vt 0.500000 1.000000
vt 0.000000 0.000000
vt 1.000000 0.000000
vt 0.500000 1.000000
vt 0.000000 0.000000
vt 1.000000 0.000000
vt 0.000000 0.000000
vt 1.000000 0.000000
vt 1.000000 1.000000
vt 0.000000 1.000000
vt 0.500000 1.000000
vt 0.000000 0.000000
vt 1.000000 0.000000
vt 0.500000 1.000000
vt 0.000000 0.000000
vt 1.000000 0.000000
vt 0.000000 0.000000
vt 1.000000 0.000000
vt 1.000000 1.000000
vt 0.000000 1.000000
vt 0.500000 1.000000
vt 0.000000 0.000000
vt 1.000000 0.000000
vt 0.500000 1.000000
vt 0.000000 0.000000
vt 1.000000 0.000000
vt 0.000000 0.000000
vt 1.000000 0.000000
vt 1.000000 1.000000
vt 0.000000 1.000000
vt 0.500000 1.000000
vt 0.000000 0.000000
vt 1.000000 0.000000
vt 0.500000 1.000000
vt 0.000000 0.000000
vt 1.000000 0.000000
vt 0.000000 0.000000
vt 1.000000 0.000000
vt 1.000000 1.000000
vt 0.000000 1.000000
vt 0.500000 1.000000
vt 0.000000 0.000000
vt 1.000000 0.000000
vt 0.500000 1.000000
vt 0.000000 0.000000
vt 1.000000 0.000000
vt 0.000000 0.000000
vt 1.000000 0.000000
vt 1.000000 1.000000
vt 0.000000 1.000000
vt 0.500000 1.000000
vt 0.000000 0.000000
vt 1.000000 0.000000
vt 0.500000 1.000000
vt 0.000000 0.000000
vt 1.000000 0.000000
vt 0.000000 0.000000
vt 1.000000 0.000000
vt 1.000000 1.000000
vt 0.000000 1.000000
vt 0.500000 1.000000
vt 0.000000 0.000000
vt 1.000000 0.000000
vt 0.500000 1.000000
vt 0.000000 0.000000
vt 1.000000 0.000000
vt 0.000000 0.000000
vt 1.000000 0.000000
vt 1.000000 1.000000
vt 0.000000 1.000000
vt 0.500000 1.000000
vt 0.000000 0.000000
vt 1.000000 0.000000
vt 0.500000 1.000000
vt 0.000000 0.000000
vt 1.000000 0.000000
vt 0.000000 0.000000
vt 1.000000 0.000000
vt 1.000000 1.000000
vt 0.000000 1.000000
vt 0.500000 1.000000
vt 0.000000 0.000000
vt 1.000000 0.000000
vt 0.500000 1.000000
vt 0.000000 0.000000
vt 1.000000 0.000000
vt 0.000000 0.000000
vt 1.000000 0.000000
vt 1.000000 1.000000
vt 0.000000 1.000000
vt 0.500000 1.000000
vt 0.000000 0.000000
vt 1.000000 0.000000
vt 0.500000 1.000000
vt 0.000000 0.000000
vt 1.000000 0.000000
vt 0.000000 0.000000
vt 1.000000 0.000000
vt 1.000000 1.000000
vt 0.000000 1.000000
vt 0.500000 1.000000
vt 0.000000 0.000000
vt 1.000000 0.000000
vt 0.500000 1.000000
vt 0.000000 0.000000
vt 1.000000 0.000000
vt 0.000000 0.000000
vt 1.000000 0.000000
vt 1.000000 1.000000
vt 0.000000 1.000000
vt 0.500000 1.000000
vt 0.000000 0.000000
vt 1.000000 0.000000
vt 0.500000 1.000000
vt 0.000000 0.000000
vt 1.000000 0.000000
vt 0.000000 0.000000
vt 1.000000 0.000000
vt 1.000000 1.000000
vt 0.000000 1.000000
vt 0.500000 1.000000
vt 0.000000 0.000000
vt 1.000000 0.000000
vt 0.500000 1.000000
vt 0.000000 0.000000
vt 1.000000 0.000000
vt 0.000000 0.000000
vt 1.000000 0.000000
vt 1.000000 1.000000
vt 0.000000 1.000000
vt 0.500000 1.000000
vt 0.000000 0.000000
vt 1.000000 0.000000
vt 0.500000 1.000000
vt 0.000000 0.000000
vt 1.000000 0.000000
vt 0.000000 0.000000
vt 1.000000 0.000000
vt 1.000000 1.000000
vt 0.000000 1.000000
vt 0.500000 1.000000
vt 0.000000 0.000000
vt 1.000000 0.000000
vt 0.500000 1.000000
vt 0.000000 0.000000
vt 1.000000 0.000000
vt 0.000000 0.000000
vt 1.000000 0.000000
vt 1.000000 1.000000
vt 0.000000 1.000000
vt 0.500000 1.000000
vt 0.000000 0.000000
vt 1.000000 0.000000
vt 0.500000 1.000000
vt 0.000000 0.000000
vt 1.000000 0.000000
vt 0.000000 0.000000
vt 1.000000 0.000000
vt 1.000000 1.000000
vt 0.000000 1.000000
vt 0.500000 1.000000
vt 0.000000 0.000000
vt 1.000000 0.000000
vt 0.500000 1.000000
vt 0.000000 0.000000
vt 1.000000 0.000000
vt 0.000000 0.000000
vt 1.000000 0.000000
vt 1.000000 1.000000
vt 0.000000 1.000000
vt 0.500000 1.000000
vt 0.000000 0.000000
vt 1.000000 0.000000
vt 0.500000 1.000000
vt 0.000000 0.000000
vt 1.000000 0.000000
vt 0.000000 0.000000
vt 1.000000 0.000000
vt 1.000000 1.000000
vt 0.000000 1.000000
vt 0.500000 1.000000
vt 0.000000 0.000000
vt 1.000000 0.000000
vt 0.500000 1.000000
vt 0.000000 0.000000
vt 1.000000 0.000000
vt 0.000000 0.000000
vt 1.000000 0.000000
vt 1.000000 1.000000
vt 0.000000 1.000000
vt 0.500000 1.000000
vt 0.000000 0.000000
vt 1.000000 0.000000
vt 0.500000 1.000000
vt 0.000000 0.000000
vt 1.000000 0.000000
vt 0.000000 0.000000
vt 1.000000 0.000000
vt 1.000000 1.000000
vt 0.000000 1.000000
vt 0.500000 1.000000
vt 0.000000 0.000000
vt 1.000000 0.000000
vt 0.500000 1.000000
vt 0.000000 0.000000
vt 1.000000 0.000000
vt 0.000000 0.000000
vt 1.000000 0.000000
vt 1.000000 1.000000
vt 0.000000 1.000000
vt 0.500000 1.000000
vt 0.000000 0.000000
vt 1.000000 0.000000
vt 0.500000 1.000000
vt 0.000000 0.000000
vt 1.000000 0.000000
vt 0.000000 0.000000
vt 1.000000 0.000000
vt 1.000000 1.000000
vt 0.000000 1.000000
vt 0.500000 1.000000
vt 0.000000 0.000000
vt 1.000000 0.000000
vt 0.500000 1.000000
vt 0.000000 0.000000
vt 1.000000 0.000000
vt 0.000000 0.000000
vt 1.000000 0.000000
vt 1.000000 1.000000
vt 0.000000 1.000000
vt 0.500000 1.000000
vt 0.000000 0.000000
vt 1.000000 0.000000
vt 0.500000 1.000000
vt 0.000000 0.000000
vt 1.000000 0.000000
vt 0.000000 0.000000
vt 1.000000 0.000000
vt 1.000000 1.000000
vt 0.000000 1.000000
vt 0.500000 1.000000
vt 0.000000 0.000000
vt 1.000000 0.000000
vt 0.500000 1.000000
vt 0.000000 0.000000
vt 1.000000 0.000000
vt 0.000000 0.000000
vt 1.000000 0.000000
vt 1.000000 1.000000
vt 0.000000 1.000000
vt 0.500000 1.000000
vt 0.000000 0.000000
vt 1.000000 0.000000
vt 0.500000 1.000000
vt 0.000000 0.000000
vt 1.000000 0.000000
vt 0.000000 0.000000
vt 1.000000 0.000000
vt 1.000000 1.000000
vt 0.000000 1.000000
vt 0.500000 1.000000
vt 0.000000 0.000000
vt 1.000000 0.000000
vt 0.500000 1.000000
vt 0.000000 0.000000
vt 1.000000 0.000000
vt 0.000000 0.000000
vt 1.000000 0.000000
vt 1.000000 1.000000
vt 0.000000 1.000000
vt 0.500000 1.000000
vt 0.000000 0.000000
vt 1.000000 0.000000
vt 0.500000 1.000000
vt 0.000000 0.000000
vt 1.000000 0.000000
vt 0.000000 0.000000
vt 1.000000 0.000000
vt 1.000000 1.000000
vt 0.000000 1.000000
vt 0.500000 1.000000
vt 0.000000 0.000000
vt 1.000000 0.000000
vt 0.500000 1.000000
vt 0.000000 0.000000
vt 1.000000 0.000000
vt 0.000000 0.000000
vt 1.000000 0.000000
vt 1.000000 1.000000
vt 0.000000 1.000000
vt 0.500000 1.000000
vt 0.000000 0.000000
vt 1.000000 0.000000
vt 0.500000 1.000000
vt 0.000000 0.000000
vt 1.000000 0.000000
vt 0.000000 0.000000
vt 1.000000 0.000000
vt 1.000000 1.000000
vt 0.000000 1.000000
vt 0.500000 1.000000
vt 0.000000 0.000000
vt 1.000000 0.000000
vt 0.500000 1.000000
vt 0.000000 0.000000
vt 1.000000 0.000000
vt 0.000000 0.000000
vt 1.000000 0.000000
vt 1.000000 1.000000
vt 0.000000 1.000000
vt 0.500000 1.000000
vt 0.000000 0.000000
vt 1.000000 0.000000
vt 0.500000 1.000000
vt 0.000000 0.000000
vt 1.000000 0.000000
vt 0.000000 0.000000
vt 1.000000 0.000000
vt 1.000000 1.000000
vt 0.000000 1.000000
vt 0.500000 1.000000
vt 0.000000 0.000000
vt 1.000000 0.000000
vt 0.500000 1.000000
vt 0.000000 0.000000
vt 1.000000 0.000000
vt 0.000000 0.000000
vt 1.000000 0.000000
vt 1.000000 1.000000
vt 0.000000 1.000000
vt 0.500000 1.000000
vt 0.000000 0.000000
vt 1.000000 0.000000
vt 0.500000 1.000000
vt 0.000000 0.000000
vt 1.000000 0.000000
vt 0.000000 0.000000
vt 1.000000 0.000000
vt 1.000000 1.000000
vt 0.000000 1.000000
vt 0.500000 1.000000
vt 0.000000 0.000000
vt 1.000000 0.000000
vt 0.000000 0.000000
vt 1.000000 0.000000
vt 1.000000 1.000000
vt 0.000000 1.000000
vt 0.500000 1.000000
vt 0.000000 0.000000
vt 1.000000 0.000000
vt 0.500000 1.000000
vt 0.000000 0.000000
vt 1.000000 0.000000
vt 0.000000 0.000000
vt 1.000000 0.000000
vt 1.000000 1.000000
vt 0.000000 1.000000
vt 0.500000 1.000000
vt 0.000000 0.000000
vt 1.000000 0.000000
vt 0.500000 1.000000
vt 0.000000 0.000000
vt 1.000000 0.000000
vt 0.000000 0.000000
vt 1.000000 0.000000
vt 1.000000 1.000000
vt 0.000000 1.000000
vt 0.500000 1.000000
vt 0.000000 0.000000
vt 1.000000 0.000000
vt 0.500000 1.000000
vt 0.000000 0.000000
vt 1.000000 0.000000
vt 0.000000 0.000000
vt 1.000000 0.000000
vt 1.000000 1.000000
vt 0.000000 1.000000
vt 0.500000 1.000000
vt 0.000000 0.000000
vt 1.000000 0.000000
vt 0.500000 1.000000
vt 0.000000 0.000000
vt 1.000000 0.000000
vt 0.000000 0.000000
vt 1.000000 0.000000
vt 1.000000 1.000000
vt 0.000000 1.000000
vt 0.500000 1.000000
vt 0.000000 0.000000
vt 1.000000 0.000000
vt 0.500000 1.000000
vt 0.000000 0.000000
vt 1.000000 0.000000
vt 0.000000 0.000000
vt 1.000000 0.000000
vt 1.000000 1.000000
vt 0.000000 1.000000
vt 0.500000 1.000000
vt 0.000000 0.000000
vt 1.000000 0.000000
vt 0.500000 1.000000
vt 0.000000 0.000000
vt 1.000000 0.000000
vt 0.000000 0.000000
vt 1.000000 0.000000
vt 1.000000 1.000000
vt 0.000000 1.000000
vt 0.500000 1.000000
vt 0.000000 0.000000
vt 1.000000 0.000000
vt 0.500000 1.000000
vt 0.000000 0.000000
vt 1.000000 0.000000
vt 0.000000 0.000000
vt 1.000000 0.000000
vt 1.000000 1.000000
vt 0.000000 1.000000
vt 0.500000 1.000000
vt 0.000000 0.000000
vt 1.000000 0.000000
vt 0.500000 1.000000
vt 0.000000 0.000000
vt 1.000000 0.000000
vt 0.000000 0.000000
vt 1.000000 0.000000
vt 1.000000 1.000000
vt 0.000000 1.000000
vt 0.500000 1.000000
vt 0.000000 0.000000
vt 1.000000 0.000000
vt 0.500000 1.000000
vt 0.000000 0.000000
vt 1.000000 0.000000
vt 0.000000 0.000000
vt 1.000000 0.000000
vt 1.000000 1.000000
vt 0.000000 1.000000
vt 0.500000 1.000000
vt 0.000000 0.000000
vt 1.000000 0.000000
vt 0.500000 1.000000
vt 0.000000 0.000000
vt 1.000000 0.000000
vt 0.000000 0.000000
vt 1.000000 0.000000
vt 1.000000 1.000000
vt 0.000000 1.000000
vt 0.500000 1.000000
vt 0.000000 0.000000
vt 1.000000 0.000000
vt 0.500000 1.000000
vt 0.000000 0.000000
vt 1.000000 0.000000
vt 0.000000 0.000000
vt 1.000000 0.000000
vt 1.000000 1.000000
vt 0.000000 1.000000
vt 0.500000 1.000000
vt 0.000000 0.000000
vt 1.000000 0.000000
vt 0.500000 1.000000
vt 0.000000 0.000000
vt 1.000000 0.000000
vt 0.000000 0.000000
vt 1.000000 0.000000
vt 1.000000 1.000000
vt 0.000000 1.000000
vt 0.500000 1.000000
vt 0.000000 0.000000
vt 1.000000 0.000000
vt 0.500000 1.000000
vt 0.000000 0.000000
vt 1.000000 0.000000
vt 0.000000 0.000000
vt 1.000000 0.000000
vt 1.000000 1.000000
vt 0.000000 1.000000
vt 0.500000 1.000000
vt 0.000000 0.000000
vt 1.000000 0.000000
vt 0.500000 1.000000
vt 0.000000 0.000000
vt 1.000000 0.000000
vt 0.000000 0.000000
vt 1.000000 0.000000
vt 1.000000 1.000000
vt 0.000000 1.000000
vt 0.500000 1.000000
vt 0.000000 0.000000
vt 1.000000 0.000000
vt 0.500000 1.000000
vt 0.000000 0.000000
vt 1.000000 0.000000
vt 0.000000 0.000000
vt 1.000000 0.000000
vt 1.000000 1.000000
vt 0.000000 1.000000
vt 0.500000 1.000000
vt 0.000000 0.000000
vt 1.000000 0.000000
vt 0.500000 1.000000
vt 0.000000 0.000000
vt 1.000000 0.000000
vt 0.000000 0.000000
vt 1.000000 0.000000
vt 1.000000 1.000000
vt 0.000000 1.000000
vt 0.500000 1.000000
vt 0.000000 0.000000
vt 1.000000 0.000000
vt 0.500000 1.000000
vt 0.000000 0.000000
vt 1.000000 0.000000
vt 0.000000 0.000000
vt 1.000000 0.000000
vt 1.000000 1.000000
vt 0.000000 1.000000
vt 0.500000 1.000000
vt 0.000000 0.000000
vt 1.000000 0.000000
vt 0.500000 1.000000
vt 0.000000 0.000000
vt 1.000000 0.000000
s 1
usemtl models/caelum/world/environment/rock_granite.png
f 1/1 2/2 3/3
f 4/4 5/5 6/6 7/7
f 8/8 9/9 10/10 11/11
f 12/12 13/13 14/14
f 15/15 16/16 17/17
f 18/18 19/19 20/20 21/21
f 22/22 23/23 24/24 25/25
f 26/26 27/27 28/28
f 29/29 30/30 31/31
f 32/32 33/33 34/34 35/35
f 36/36 37/37 38/38 39/39
f 40/40 41/41 42/42
f 43/43 44/44 45/45
f 46/46 47/47 48/48 49/49
f 50/50 51/51 52/52 53/53
f 54/54 55/55 56/56
f 57/57 58/58 59/59
f 60/60 61/61 62/62 63/63
f 64/64 65/65 66/66 67/67
f 68/68 69/69 70/70
f 71/71 72/72 73/73
f 74/74 75/75 76/76 77/77
f 78/78 79/79 80/80 81/81
f 82/82 83/83 84/84
f 85/85 86/86 87/87
f 88/88 89/89 90/90 91/91
f 92/92 93/93 94/94 95/95
f 96/96 97/97 98/98
f 99/99 100/100 101/101
f 102/102 103/103 104/104 105/105
f 106/106 107/107 108/108 109/109
f 110/110 111/111 112/112
f 113/113 114/114 115/115
f 116/116 117/117 118/118 119/119
f 120/120 121/121 122/122 123/123
f 124/124 125/125 126/126
f 127/127 128/128 129/129
f 130/130 131/131 132/132 133/133
f 134/134 135/135 136/136 137/137
f 138/138 139/139 140/140
usemtl models/caelum/world/resources/ca_vein_gold.png
f 141/141 142/142 143/143
f 144/144 145/145 146/146 147/147
f 148/148 149/149 150/150
f 151/151 152/152 153/153
f 154/154 155/155 156/156 157/157
f 158/158 159/159 160/160
f 161/161 162/162 163/163
f 164/164 165/165 166/166 167/167
f 168/168 169/169 170/170
f 171/171 172/172 173/173
f 174/174 175/175 176/176 177/177
f 178/178 179/179 180/180
f 181/181 182/182 183/183
f 184/184 185/185 186/186 187/187
f 188/188 189/189 190/190
f 191/191 192/192 193/193
f 194/194 195/195 196/196 197/197
f 198/198 199/199 200/200
f 201/201 202/202 203/203
f 204/204 205/205 206/206 207/207
f 208/208 209/209 210/210
f 211/211 212/212 213/213
f 214/214 215/215 216/216 217/217
f 218/218 219/219 220/220
f 221/221 222/222 223/223
f 224/224 225/225 226/226 227/227
f 228/228 229/229 230/230
f 231/231 232/232 233/233
f 234/234 235/235 236/236 237/237
f 238/238 239/239 240/240
f 241/241 242/242 243/243
f 244/244 245/245 246/246 247/247
f 248/248 249/249 250/250
f 251/251 252/252 253/253
f 254/254 255/255 256/256 257/257
f 258/258 259/259 260/260
f 261/261 262/262 263/263
f 264/264 265/265 266/266 267/267
f 268/268 269/269 270/270
f 271/271 272/272 273/273
f 274/274 275/275 276/276 277/277
f 278/278 279/279 280/280
f 281/281 282/282 283/283
f 284/284 285/285 286/286 287/287
f 288/288 289/289 290/290
f 291/291 292/292 293/293
f 294/294 295/295 296/296 297/297
f 298/298 299/299 300/300
f 301/301 302/302 303/303
f 304/304 305/305 306/306 307/307
f 308/308 309/309 310/310
f 311/311 312/312 313/313
f 314/314 315/315 316/316 317/317
f 318/318 319/319 320/320
f 321/321 322/322 323/323
f 324/324 325/325 326/326 327/327
f 328/328 329/329 330/330
f 331/331 332/332 333/333
f 334/334 335/335 336/336 337/337
f 338/338 339/339 340/340
f 341/341 342/342 343/343
f 344/344 345/345 346/346 347/347
f 348/348 349/349 350/350
f 351/351 352/352 353/353
f 354/354 355/355 356/356 357/357
f 358/358 359/359 360/360
f 361/361 362/362 363/363
f 364/364 365/365 366/366 367/367
f 368/368 369/369 370/370
f 371/371 372/372 373/373
f 374/374 375/375 376/376 377/377
f 378/378 379/379 380/380
f 381/381 382/382 383/383
f 384/384 385/385 386/386 387/387
f 388/388 389/389 390/390
f 391/391 392/392 393/393
f 394/394 395/395 396/396 397/397
f 398/398 399/399 400/400
f 401/401 402/402 403/403
f 404/404 405/405 406/406 407/407
f 408/408 409/409 410/410
f 411/411 412/412 413/413
f 414/414 415/415 416/416 417/417
f 418/418 419/419 420/420
f 421/421 422/422 423/423
f 424/424 425/425 426/426 427/427
f 428/428 429/429 430/430
f 431/431 432/432 433/433
f 434/434 435/435 436/436 437/437
f 438/438 439/439 440/440
f 441/441 442/442 443/443
f 444/444 445/445 446/446 447/447
f 448/448 449/449 450/450
f 451/451 452/452 453/453
f 454/454 455/455 456/456 457/457
f 458/458 459/459 460/460
f 461/461 462/462 463/463
f 464/464 465/465 466/466 467/467
f 468/468 469/469 470/470
f 471/471 472/472 473/473
f 474/474 475/475 476/476 477/477
f 478/478 479/479 480/480
f 481/481 482/482 483/483
f 484/484 485/485 486/486 487/487
f 488/488 489/489 490/490
f 491/491 492/492 493/493
f 494/494 495/495 496/496 497/497
f 498/498 499/499 500/500
f 501/501 502/502 503/503
f 504/504 505/505 506/506 507/507
f 508/508 509/509 510/510
f 511/511 512/512 513/513
f 514/514 515/515 516/516 517/517
f 518/518 519/519 520/520
f 521/521 522/522 523/523
f 524/524 525/525 526/526 527/527
f 528/528 529/529 530/530
f 531/531 532/532 533/533
f 534/534 535/535 536/536 537/537
f 538/538 539/539 540/540
f 541/541 542/542 543/543
f 544/544 545/545 546/546 547/547
f 548/548 549/549 550/550
f 551/551 552/552 553/553
f 554/554 555/555 556/556 557/557
f 558/558 559/559 560/560
f 561/561 562/562 563/563
f 564/564 565/565 566/566 567/567
f 568/568 569/569 570/570
f 571/571 572/572 573/573
f 574/574 575/575 576/576 577/577
f 578/578 579/579 580/580
f 581/581 582/582 583/583
f 584/584 585/585 586/586 587/587
f 588/588 589/589 590/590
f 591/591 592/592 593/593
f 594/594 595/595 596/596 597/597
f 598/598 599/599 600/600
f 601/601 602/602 603/603
f 604/604 605/605 606/606 607/607
f 608/608 609/609 610/610
f 611/611 612/612 613/613
f 614/614 615/615 616/616 617/617
f 618/618 619/619 620/620
f 621/621 622/622 623/623
f 624/624 625/625 626/626 627/627
f 628/628 629/629 630/630
f 631/631 632/632 633/633
f 634/634 635/635 636/636 637/637
f 638/638 639/639 640/640
f 641/641 642/642 643/643
f 644/644 645/645 646/646 647/647
f 648/648 649/649 650/650
f 651/651 652/652 653/653
f 654/654 655/655 656/656 657/657
f 658/658 659/659 660/660
f 661/661 662/662 663/663
f 664/664 665/665 666/666 667/667
f 668/668 669/669 670/670
f 671/671 672/672 673/673
f 674/674 675/675 676/676 677/677
f 678/678 679/679 680/680
f 681/681 682/682 683/683
f 684/684 685/685 686/686 687/687
f 688/688 689/689 690/690
f 691/691 692/692 693/693
f 694/694 695/695 696/696 697/697
f 698/698 699/699 700/700
f 701/701 702/702 703/703
f 704/704 705/705 706/706 707/707
f 708/708 709/709 710/710
f 711/711 712/712 713/713
f 714/714 715/715 716/716 717/717
f 718/718 719/719 720/720
f 721/721 722/722 723/723
f 724/724 725/725 726/726 727/727
f 728/728 729/729 730/730
f 731/731 732/732 733/733
f 734/734 735/735 736/736 737/737
f 738/738 739/739 740/740
f 741/741 742/742 743/743
f 744/744 745/745 746/746 747/747
f 748/748 749/749 750/750
f 751/751 752/752 753/753
f 754/754 755/755 756/756 757/757
f 758/758 759/759 760/760
f 761/761 762/762 763/763
f 764/764 765/765 766/766 767/767
f 768/768 769/769 770/770
f 771/771 772/772 773/773 774/774
f 775/775 776/776 777/777
f 778/778 779/779 780/780
f 781/781 782/782 783/783 784/784
f 785/785 786/786 787/787
f 788/788 789/789 790/790
f 791/791 792/792 793/793 794/794
f 795/795 796/796 797/797
f 798/798 799/799 800/800
f 801/801 802/802 803/803 804/804
f 805/805 806/806 807/807
f 808/808 809/809 810/810
f 811/811 812/812 813/813 814/814
f 815/815 816/816 817/817
f 818/818 819/819 820/820
f 821/821 822/822 823/823 824/824
f 825/825 826/826 827/827
f 828/828 829/829 830/830
f 831/831 832/832 833/833 834/834
f 835/835 836/836 837/837
f 838/838 839/839 840/840
f 841/841 842/842 843/843 844/844
f 845/845 846/846 847/847
f 848/848 849/849 850/850
f 851/851 852/852 853/853 854/854
f 855/855 856/856 857/857
f 858/858 859/859 860/860
f 861/861 862/862 863/863 864/864
f 865/865 866/866 867/867
f 868/868 869/869 870/870
f 871/871 872/872 873/873 874/874
f 875/875 876/876 877/877
f 878/878 879/879 880/880
f 881/881 882/882 883/883 884/884
f 885/885 886/886 887/887
f 888/888 889/889 890/890
f 891/891 892/892 893/893 894/894
f 895/895 896/896 897/897
f 898/898 899/899 900/900
f 901/901 902/902 903/903 904/904
f 905/905 906/906 907/907
f 908/908 909/909 910/910
f 911/911 912/912 913/913 914/914
f 915/915 916/916 917/917
f 918/918 919/919 920/920
f 921/921 922/922 923/923 924/924
f 925/925 926/926 927/927
f 928/928 929/929 930/930
f 931/931 932/932 933/933 934/934
f 935/935 936/936 937/937
f 938/938 939/939 940/940
f 941/941 942/942 943/943 944/944
f 945/945 946/946 947/947
f 948/948 949/949 950/950
