# Modelo original generado para Caelum Argenteum.
# Ejes OBJ: X ancho, Y altura, Z profundidad.
o ca_vein_emerald3
v 0.000000 0.000000 0.000000
v 38.648508 -1.617155 0.000000
v 25.034894 0.233511 15.708609
v 38.648508 -1.617155 0.000000
v 37.595932 16.149968 0.000000
v 41.715743 13.577150 26.175317
v 25.034894 0.233511 15.708609
v 37.595932 16.149968 0.000000
v 35.461093 33.010560 0.000000
v 25.924707 32.375747 16.266938
v 41.715743 13.577150 26.175317
v -10.949426 47.000000 -6.436882
v 25.924707 32.375747 16.266938
v 35.461093 33.010560 0.000000
v 0.000000 0.000000 0.000000
v 25.034894 0.233511 15.708609
v 10.152848 -0.951183 26.986265
v 25.034894 0.233511 15.708609
v 41.715743 13.577150 26.175317
v 13.408599 16.185377 35.640049
v 10.152848 -0.951183 26.986265
v 41.715743 13.577150 26.175317
v 25.924707 32.375747 16.266938
v 11.636650 30.789657 30.930209
v 13.408599 16.185377 35.640049
v -10.949426 47.000000 -6.436882
v 11.636650 30.789657 30.930209
v 25.924707 32.375747 16.266938
v 0.000000 0.000000 0.000000
v 10.152848 -0.951183 26.986265
v -11.242056 -1.313742 29.881377
v 10.152848 -0.951183 26.986265
v 13.408599 16.185377 35.640049
v -14.151937 13.559254 37.615841
v -11.242056 -1.313742 29.881377
v 13.408599 16.185377 35.640049
v 11.636650 30.789657 30.930209
v -11.706671 30.688749 31.116324
v -14.151937 13.559254 37.615841
v -10.949426 47.000000 -6.436882
v -11.706671 30.688749 31.116324
v 11.636650 30.789657 30.930209
v 0.000000 0.000000 0.000000
v -11.242056 -1.313742 29.881377
v -30.506143 -0.536102 19.141645
v -11.242056 -1.313742 29.881377
v -14.151937 13.559254 37.615841
v -37.956510 14.334476 23.816516
v -30.506143 -0.536102 19.141645
v -14.151937 13.559254 37.615841
v -11.706671 30.688749 31.116324
v -22.999695 32.692671 14.431585
v -37.956510 14.334476 23.816516
v -10.949426 47.000000 -6.436882
v -22.999695 32.692671 14.431585
v -11.706671 30.688749 31.116324
v 0.000000 0.000000 0.000000
v -30.506143 -0.536102 19.141645
v -33.947913 0.439738 0.000000
v -30.506143 -0.536102 19.141645
v -37.956510 14.334476 23.816516
v -37.570412 16.318969 0.000000
v -33.947913 0.439738 0.000000
v -37.956510 14.334476 23.816516
v -22.999695 32.692671 14.431585
v -31.867515 32.600329 0.000000
v -37.570412 16.318969 0.000000
v -10.949426 47.000000 -6.436882
v -31.867515 32.600329 0.000000
v -22.999695 32.692671 14.431585
v 0.000000 0.000000 0.000000
v -33.947913 0.439738 0.000000
v -32.126328 0.569996 -20.158260
v -33.947913 0.439738 0.000000
v -37.570412 16.318969 0.000000
v -38.793627 13.493711 -24.341781
v -32.126328 0.569996 -20.158260
v -37.570412 16.318969 0.000000
v -31.867515 32.600329 0.000000
v -29.304234 30.790739 -18.387485
v -38.793627 13.493711 -24.341781
v -10.949426 47.000000 -6.436882
v -29.304234 30.790739 -18.387485
v -31.867515 32.600329 0.000000
v 0.000000 0.000000 0.000000
v -32.126328 0.569996 -20.158260
v -12.290040 -0.125437 -32.666920
v -32.126328 0.569996 -20.158260
v -38.793627 13.493711 -24.341781
v -15.822924 15.260686 -42.057322
v -12.290040 -0.125437 -32.666920
v -38.793627 13.493711 -24.341781
v -29.304234 30.790739 -18.387485
v -8.363552 33.046706 -22.230317
v -15.822924 15.260686 -42.057322
v -10.949426 47.000000 -6.436882
v -8.363552 33.046706 -22.230317
v -29.304234 30.790739 -18.387485
v 0.000000 0.000000 0.000000
v -12.290040 -0.125437 -32.666920
v 9.636257 1.384354 -25.613165
v -12.290040 -0.125437 -32.666920
v -15.822924 15.260686 -42.057322
v 11.897572 14.616960 -31.623739
v 9.636257 1.384354 -25.613165
v -15.822924 15.260686 -42.057322
v -8.363552 33.046706 -22.230317
v 10.306053 31.193928 -27.393482
v 11.897572 14.616960 -31.623739
v -10.949426 47.000000 -6.436882
v 10.306053 31.193928 -27.393482
v -8.363552 33.046706 -22.230317
v 0.000000 0.000000 0.000000
v 9.636257 1.384354 -25.613165
v 33.893750 0.688250 -21.267262
v 9.636257 1.384354 -25.613165
v 11.897572 14.616960 -31.623739
v 33.609211 14.748506 -21.088723
v 33.893750 0.688250 -21.267262
v 11.897572 14.616960 -31.623739
v 10.306053 31.193928 -27.393482
v 29.396885 32.141864 -18.445621
v 33.609211 14.748506 -21.088723
v -10.949426 47.000000 -6.436882
v 29.396885 32.141864 -18.445621
v 10.306053 31.193928 -27.393482
v 0.000000 0.000000 0.000000
v 33.893750 0.688250 -21.267262
v 38.648508 -1.617155 0.000000
v 33.893750 0.688250 -21.267262
v 33.609211 14.748506 -21.088723
v 37.595932 16.149968 0.000000
v 38.648508 -1.617155 0.000000
v 33.609211 14.748506 -21.088723
v 29.396885 32.141864 -18.445621
v 35.461093 33.010560 0.000000
v 37.595932 16.149968 0.000000
v -10.949426 47.000000 -6.436882
v 35.461093 33.010560 0.000000
v 29.396885 32.141864 -18.445621
v 8.164987 23.373204 -3.778925
v 4.514288 23.071560 -1.647510
v 4.692421 53.185363 -0.846736
v 5.080051 53.217391 -1.073049
v 8.164987 23.527142 0.456382
v 4.514288 23.071560 -1.647510
v 8.164987 23.373204 -3.778925
v 5.080051 53.233736 -0.623346
v 5.080051 53.217391 -1.073049
v 4.692421 53.185363 -0.846736
v 4.514288 23.071560 -1.647510
v 4.514288 23.225498 2.587796
v 4.692421 53.201708 -0.397033
v 4.692421 53.185363 -0.846736
v 8.164987 23.527142 0.456382
v 4.514288 23.225498 2.587796
v 4.514288 23.071560 -1.647510
v 5.080051 53.233736 -0.623346
v 4.692421 53.185363 -0.846736
v 4.692421 53.201708 -0.397033
v 4.514288 23.225498 2.587796
v 8.164987 23.681080 4.691688
v 5.080051 53.250082 -0.173643
v 4.692421 53.201708 -0.397033
v 8.164987 23.527142 0.456382
v 8.164987 23.681080 4.691688
v 4.514288 23.225498 2.587796
v 5.080051 53.233736 -0.623346
v 4.692421 53.201708 -0.397033
v 5.080051 53.250082 -0.173643
v 8.164987 23.681080 4.691688
v 11.815685 23.982725 2.560274
v 5.467680 53.282110 -0.399955
v 5.080051 53.250082 -0.173643
v 8.164987 23.527142 0.456382
v 11.815685 23.982725 2.560274
v 8.164987 23.681080 4.691688
v 5.080051 53.233736 -0.623346
v 5.080051 53.250082 -0.173643
v 5.467680 53.282110 -0.399955
v 11.815685 23.982725 2.560274
v 11.815685 23.828787 -1.675033
v 5.467680 53.265765 -0.849658
v 5.467680 53.282110 -0.399955
v 8.164987 23.527142 0.456382
v 11.815685 23.828787 -1.675033
v 11.815685 23.982725 2.560274
v 5.080051 53.233736 -0.623346
v 5.467680 53.282110 -0.399955
v 5.467680 53.265765 -0.849658
v 11.815685 23.828787 -1.675033
v 8.164987 23.373204 -3.778925
v 5.080051 53.217391 -1.073049
v 5.467680 53.265765 -0.849658
v 8.164987 23.527142 0.456382
v 8.164987 23.373204 -3.778925
v 11.815685 23.828787 -1.675033
v 5.080051 53.233736 -0.623346
v 5.467680 53.265765 -0.849658
v 5.080051 53.217391 -1.073049
v 5.493088 28.859955 2.155276
v 1.113283 28.587487 5.820842
v 3.772411 54.806220 6.838447
v 4.117108 54.827663 6.549962
v 6.456721 29.118110 7.785380
v 1.113283 28.587487 5.820842
v 5.493088 28.859955 2.155276
v 4.192947 54.847981 6.993059
v 4.117108 54.827663 6.549962
v 3.772411 54.806220 6.838447
v 1.113283 28.587487 5.820842
v 2.076916 28.845642 11.450946
v 3.848250 54.826537 7.281545
v 3.772411 54.806220 6.838447
v 6.456721 29.118110 7.785380
v 2.076916 28.845642 11.450946
v 1.113283 28.587487 5.820842
v 4.192947 54.847981 6.993059
v 3.772411 54.806220 6.838447
v 3.848250 54.826537 7.281545
v 2.076916 28.845642 11.450946
v 7.420354 29.376265 13.415485
v 4.268787 54.868298 7.436157
v 3.848250 54.826537 7.281545
v 6.456721 29.118110 7.785380
v 7.420354 29.376265 13.415485
v 2.076916 28.845642 11.450946
v 4.192947 54.847981 6.993059
v 3.848250 54.826537 7.281545
v 4.268787 54.868298 7.436157
v 7.420354 29.376265 13.415485
v 11.800160 29.648734 9.749919
v 4.613484 54.889741 7.147671
v 4.268787 54.868298 7.436157
v 6.456721 29.118110 7.785380
v 11.800160 29.648734 9.749919
v 7.420354 29.376265 13.415485
v 4.192947 54.847981 6.993059
v 4.268787 54.868298 7.436157
v 4.613484 54.889741 7.147671
v 11.800160 29.648734 9.749919
v 10.836527 29.390579 4.119814
v 4.537645 54.869424 6.704574
v 4.613484 54.889741 7.147671
v 6.456721 29.118110 7.785380
v 10.836527 29.390579 4.119814
v 11.800160 29.648734 9.749919
v 4.192947 54.847981 6.993059
v 4.613484 54.889741 7.147671
v 4.537645 54.869424 6.704574
v 10.836527 29.390579 4.119814
v 5.493088 28.859955 2.155276
v 4.117108 54.827663 6.549962
v 4.537645 54.869424 6.704574
v 6.456721 29.118110 7.785380
v 5.493088 28.859955 2.155276
v 10.836527 29.390579 4.119814
v 4.192947 54.847981 6.993059
v 4.537645 54.869424 6.704574
v 4.117108 54.827663 6.549962
v -9.081424 30.134717 14.736912
v -13.397252 29.742386 19.876428
v -11.644672 58.603675 19.448794
v -11.355783 58.629937 19.104769
v -6.866155 30.824245 21.046592
v -13.397252 29.742386 19.876428
v -9.081424 30.134717 14.736912
v -11.207499 58.676092 19.527122
v -11.355783 58.629937 19.104769
v -11.644672 58.603675 19.448794
v -13.397252 29.742386 19.876428
v -11.181983 30.431913 26.186108
v -11.496389 58.649830 19.871147
v -11.644672 58.603675 19.448794
v -6.866155 30.824245 21.046592
v -11.181983 30.431913 26.186108
v -13.397252 29.742386 19.876428
v -11.207499 58.676092 19.527122
v -11.644672 58.603675 19.448794
v -11.496389 58.649830 19.871147
v -11.181983 30.431913 26.186108
v -4.650887 31.513772 27.356272
v -11.059215 58.722247 19.949474
v -11.496389 58.649830 19.871147
v -6.866155 30.824245 21.046592
v -4.650887 31.513772 27.356272
v -11.181983 30.431913 26.186108
v -11.207499 58.676092 19.527122
v -11.496389 58.649830 19.871147
v -11.059215 58.722247 19.949474
v -4.650887 31.513772 27.356272
v -0.335059 31.906103 22.216756
v -10.770325 58.748509 19.605449
v -11.059215 58.722247 19.949474
v -6.866155 30.824245 21.046592
v -0.335059 31.906103 22.216756
v -4.650887 31.513772 27.356272
v -11.207499 58.676092 19.527122
v -11.059215 58.722247 19.949474
v -10.770325 58.748509 19.605449
v -0.335059 31.906103 22.216756
v -2.550327 31.216576 15.907076
v -10.918609 58.702354 19.183097
v -10.770325 58.748509 19.605449
v -6.866155 30.824245 21.046592
v -2.550327 31.216576 15.907076
v -0.335059 31.906103 22.216756
v -11.207499 58.676092 19.527122
v -10.770325 58.748509 19.605449
v -10.918609 58.702354 19.183097
v -2.550327 31.216576 15.907076
v -9.081424 30.134717 14.736912
v -11.355783 58.629937 19.104769
v -10.918609 58.702354 19.183097
v -6.866155 30.824245 21.046592
v -9.081424 30.134717 14.736912
v -2.550327 31.216576 15.907076
v -11.207499 58.676092 19.527122
v -10.918609 58.702354 19.183097
v -11.355783 58.629937 19.104769
v -23.751687 24.458416 3.242098
v -25.623825 24.564177 6.424534
v -17.636437 58.350438 8.117998
v -17.408361 58.337553 7.730293
v -21.965716 24.052731 6.449856
v -25.623825 24.564177 6.424534
v -23.751687 24.458416 3.242098
v -17.190783 58.288130 8.121083
v -17.408361 58.337553 7.730293
v -17.636437 58.350438 8.117998
v -25.623825 24.564177 6.424534
v -23.837854 24.158492 9.632291
v -17.418859 58.301014 8.508788
v -17.636437 58.350438 8.117998
v -21.965716 24.052731 6.449856
v -23.837854 24.158492 9.632291
v -25.623825 24.564177 6.424534
v -17.190783 58.288130 8.121083
v -17.636437 58.350438 8.117998
v -17.418859 58.301014 8.508788
v -23.837854 24.158492 9.632291
v -20.179745 23.647046 9.657614
v -16.973204 58.238707 8.511873
v -17.418859 58.301014 8.508788
v -21.965716 24.052731 6.449856
v -20.179745 23.647046 9.657614
v -23.837854 24.158492 9.632291
v -17.190783 58.288130 8.121083
v -17.418859 58.301014 8.508788
v -16.973204 58.238707 8.511873
v -20.179745 23.647046 9.657614
v -18.307606 23.541285 6.475179
v -16.745128 58.225822 8.124168
v -16.973204 58.238707 8.511873
v -21.965716 24.052731 6.449856
v -18.307606 23.541285 6.475179
v -20.179745 23.647046 9.657614
v -17.190783 58.288130 8.121083
v -16.973204 58.238707 8.511873
v -16.745128 58.225822 8.124168
v -18.307606 23.541285 6.475179
v -20.093577 23.946970 3.267421
v -16.962706 58.275245 7.733378
v -16.745128 58.225822 8.124168
v -21.965716 24.052731 6.449856
v -20.093577 23.946970 3.267421
v -18.307606 23.541285 6.475179
v -17.190783 58.288130 8.121083
v -16.745128 58.225822 8.124168
v -16.962706 58.275245 7.733378
v -20.093577 23.946970 3.267421
v -23.751687 24.458416 3.242098
v -17.408361 58.337553 7.730293
v -16.962706 58.275245 7.733378
v -21.965716 24.052731 6.449856
v -23.751687 24.458416 3.242098
v -20.093577 23.946970 3.267421
v -17.190783 58.288130 8.121083
v -16.962706 58.275245 7.733378
v -17.408361 58.337553 7.730293
v -26.259158 30.104444 -14.293334
v -27.868206 30.116667 -10.091454
v -22.042256 50.633297 -10.088280
v -21.881331 50.632074 -10.508520
v -23.440901 29.747661 -10.804049
v -27.868206 30.116667 -10.091454
v -26.259158 30.104444 -14.293334
v -21.599470 50.596392 -10.159548
v -21.881331 50.632074 -10.508520
v -22.042256 50.633297 -10.088280
v -27.868206 30.116667 -10.091454
v -25.049948 29.759884 -6.602168
v -21.760395 50.597614 -9.739308
v -22.042256 50.633297 -10.088280
v -23.440901 29.747661 -10.804049
v -25.049948 29.759884 -6.602168
v -27.868206 30.116667 -10.091454
v -21.599470 50.596392 -10.159548
v -22.042256 50.633297 -10.088280
v -21.760395 50.597614 -9.739308
v -25.049948 29.759884 -6.602168
v -20.622644 29.390878 -7.314763
v -21.317610 50.560709 -9.810576
v -21.760395 50.597614 -9.739308
v -23.440901 29.747661 -10.804049
v -20.622644 29.390878 -7.314763
v -25.049948 29.759884 -6.602168
v -21.599470 50.596392 -10.159548
v -21.760395 50.597614 -9.739308
v -21.317610 50.560709 -9.810576
v -20.622644 29.390878 -7.314763
v -19.013596 29.378655 -11.516643
v -21.156685 50.559486 -10.230816
v -21.317610 50.560709 -9.810576
v -23.440901 29.747661 -10.804049
v -19.013596 29.378655 -11.516643
v -20.622644 29.390878 -7.314763
v -21.599470 50.596392 -10.159548
v -21.317610 50.560709 -9.810576
v -21.156685 50.559486 -10.230816
v -19.013596 29.378655 -11.516643
v -21.831854 29.735438 -15.005929
v -21.438546 50.595169 -10.579788
v -21.156685 50.559486 -10.230816
v -23.440901 29.747661 -10.804049
v -21.831854 29.735438 -15.005929
v -19.013596 29.378655 -11.516643
v -21.599470 50.596392 -10.159548
v -21.156685 50.559486 -10.230816
v -21.438546 50.595169 -10.579788
v -21.831854 29.735438 -15.005929
v -26.259158 30.104444 -14.293334
v -21.881331 50.632074 -10.508520
v -21.438546 50.595169 -10.579788
v -23.440901 29.747661 -10.804049
v -26.259158 30.104444 -14.293334
v -21.831854 29.735438 -15.005929
v -21.599470 50.596392 -10.159548
v -21.438546 50.595169 -10.579788
v -21.881331 50.632074 -10.508520
v -14.480364 32.411078 -28.067756
v -15.529616 32.226174 -22.687457
v -6.325092 51.834767 -22.784801
v -6.239005 51.849938 -23.226230
v -10.456916 31.244139 -24.527580
v -15.529616 32.226174 -22.687457
v -14.480364 32.411078 -28.067756
v -5.908900 51.754196 -22.935775
v -6.239005 51.849938 -23.226230
v -6.325092 51.834767 -22.784801
v -15.529616 32.226174 -22.687457
v -11.506167 31.059236 -19.147282
v -5.994986 51.739025 -22.494346
v -6.325092 51.834767 -22.784801
v -10.456916 31.244139 -24.527580
v -11.506167 31.059236 -19.147282
v -15.529616 32.226174 -22.687457
v -5.908900 51.754196 -22.935775
v -6.325092 51.834767 -22.784801
v -5.994986 51.739025 -22.494346
v -11.506167 31.059236 -19.147282
v -6.433467 30.077200 -20.987404
v -5.578795 51.658454 -22.645320
v -5.994986 51.739025 -22.494346
v -10.456916 31.244139 -24.527580
v -6.433467 30.077200 -20.987404
v -11.506167 31.059236 -19.147282
v -5.908900 51.754196 -22.935775
v -5.994986 51.739025 -22.494346
v -5.578795 51.658454 -22.645320
v -6.433467 30.077200 -20.987404
v -5.384216 30.262104 -26.367703
v -5.492709 51.673624 -23.086748
v -5.578795 51.658454 -22.645320
v -10.456916 31.244139 -24.527580
v -5.384216 30.262104 -26.367703
v -6.433467 30.077200 -20.987404
v -5.908900 51.754196 -22.935775
v -5.578795 51.658454 -22.645320
v -5.492709 51.673624 -23.086748
v -5.384216 30.262104 -26.367703
v -9.407664 31.429042 -29.907879
v -5.822814 51.769366 -23.377203
v -5.492709 51.673624 -23.086748
v -10.456916 31.244139 -24.527580
v -9.407664 31.429042 -29.907879
v -5.384216 30.262104 -26.367703
v -5.908900 51.754196 -22.935775
v -5.492709 51.673624 -23.086748
v -5.822814 51.769366 -23.377203
v -9.407664 31.429042 -29.907879
v -14.480364 32.411078 -28.067756
v -6.239005 51.849938 -23.226230
v -5.822814 51.769366 -23.377203
v -10.456916 31.244139 -24.527580
v -14.480364 32.411078 -28.067756
v -9.407664 31.429042 -29.907879
v -5.908900 51.754196 -22.935775
v -5.822814 51.769366 -23.377203
v -6.239005 51.849938 -23.226230
v 2.453604 27.395729 -17.022721
v 2.281164 27.207363 -10.660226
v 9.937823 53.816952 -12.626107
v 9.950010 53.830264 -13.075745
v 7.856861 26.793937 -13.707723
v 2.281164 27.207363 -10.660226
v 2.453604 27.395729 -17.022721
v 10.331858 53.787735 -12.841474
v 9.950010 53.830264 -13.075745
v 9.937823 53.816952 -12.626107
v 2.281164 27.207363 -10.660226
v 7.684421 26.605571 -7.345229
v 10.319672 53.774423 -12.391836
v 9.937823 53.816952 -12.626107
v 7.856861 26.793937 -13.707723
v 7.684421 26.605571 -7.345229
v 2.281164 27.207363 -10.660226
v 10.331858 53.787735 -12.841474
v 9.937823 53.816952 -12.626107
v 10.319672 53.774423 -12.391836
v 7.684421 26.605571 -7.345229
v 13.260118 26.192145 -10.392725
v 10.713707 53.745207 -12.607203
v 10.319672 53.774423 -12.391836
v 7.856861 26.793937 -13.707723
v 13.260118 26.192145 -10.392725
v 7.684421 26.605571 -7.345229
v 10.331858 53.787735 -12.841474
v 10.319672 53.774423 -12.391836
v 10.713707 53.745207 -12.607203
v 13.260118 26.192145 -10.392725
v 13.432557 26.380511 -16.755219
v 10.725893 53.758518 -13.056841
v 10.713707 53.745207 -12.607203
v 7.856861 26.793937 -13.707723
v 13.432557 26.380511 -16.755219
v 13.260118 26.192145 -10.392725
v 10.331858 53.787735 -12.841474
v 10.713707 53.745207 -12.607203
v 10.725893 53.758518 -13.056841
v 13.432557 26.380511 -16.755219
v 8.029301 26.982303 -20.070217
v 10.344045 53.801047 -13.291112
v 10.725893 53.758518 -13.056841
v 7.856861 26.793937 -13.707723
v 8.029301 26.982303 -20.070217
v 13.432557 26.380511 -16.755219
v 10.331858 53.787735 -12.841474
v 10.725893 53.758518 -13.056841
v 10.344045 53.801047 -13.291112
v 8.029301 26.982303 -20.070217
v 2.453604 27.395729 -17.022721
v 9.950010 53.830264 -13.075745
v 10.344045 53.801047 -13.291112
v 7.856861 26.793937 -13.707723
v 2.453604 27.395729 -17.022721
v 8.029301 26.982303 -20.070217
v 10.331858 53.787735 -12.841474
v 10.344045 53.801047 -13.291112
v 9.950010 53.830264 -13.075745
vt 0.500000 1.000000
vt 0.000000 0.000000
vt 1.000000 0.000000
vt 0.000000 0.000000
vt 1.000000 0.000000
vt 1.000000 1.000000
vt 0.000000 1.000000
vt 0.000000 0.000000
vt 1.000000 0.000000
vt 1.000000 1.000000
vt 0.000000 1.000000
vt 0.500000 1.000000
vt 0.000000 0.000000
vt 1.000000 0.000000
vt 0.500000 1.000000
vt 0.000000 0.000000
vt 1.000000 0.000000
vt 0.000000 0.000000
vt 1.000000 0.000000
vt 1.000000 1.000000
vt 0.000000 1.000000
vt 0.000000 0.000000
vt 1.000000 0.000000
vt 1.000000 1.000000
vt 0.000000 1.000000
vt 0.500000 1.000000
vt 0.000000 0.000000
vt 1.000000 0.000000
vt 0.500000 1.000000
vt 0.000000 0.000000
vt 1.000000 0.000000
vt 0.000000 0.000000
vt 1.000000 0.000000
vt 1.000000 1.000000
vt 0.000000 1.000000
vt 0.000000 0.000000
vt 1.000000 0.000000
vt 1.000000 1.000000
vt 0.000000 1.000000
vt 0.500000 1.000000
vt 0.000000 0.000000
vt 1.000000 0.000000
vt 0.500000 1.000000
vt 0.000000 0.000000
vt 1.000000 0.000000
vt 0.000000 0.000000
vt 1.000000 0.000000
vt 1.000000 1.000000
vt 0.000000 1.000000
vt 0.000000 0.000000
vt 1.000000 0.000000
vt 1.000000 1.000000
vt 0.000000 1.000000
vt 0.500000 1.000000
vt 0.000000 0.000000
vt 1.000000 0.000000
vt 0.500000 1.000000
vt 0.000000 0.000000
vt 1.000000 0.000000
vt 0.000000 0.000000
vt 1.000000 0.000000
vt 1.000000 1.000000
vt 0.000000 1.000000
vt 0.000000 0.000000
vt 1.000000 0.000000
vt 1.000000 1.000000
vt 0.000000 1.000000
vt 0.500000 1.000000
vt 0.000000 0.000000
vt 1.000000 0.000000
vt 0.500000 1.000000
vt 0.000000 0.000000
vt 1.000000 0.000000
vt 0.000000 0.000000
vt 1.000000 0.000000
vt 1.000000 1.000000
vt 0.000000 1.000000
vt 0.000000 0.000000
vt 1.000000 0.000000
vt 1.000000 1.000000
vt 0.000000 1.000000
vt 0.500000 1.000000
vt 0.000000 0.000000
vt 1.000000 0.000000
vt 0.500000 1.000000
vt 0.000000 0.000000
vt 1.000000 0.000000
vt 0.000000 0.000000
vt 1.000000 0.000000
vt 1.000000 1.000000
vt 0.000000 1.000000
vt 0.000000 0.000000
vt 1.000000 0.000000
vt 1.000000 1.000000
vt 0.000000 1.000000
vt 0.500000 1.000000
vt 0.000000 0.000000
vt 1.000000 0.000000
vt 0.500000 1.000000
vt 0.000000 0.000000
vt 1.000000 0.000000
vt 0.000000 0.000000
vt 1.000000 0.000000
vt 1.000000 1.000000
vt 0.000000 1.000000
vt 0.000000 0.000000
vt 1.000000 0.000000
vt 1.000000 1.000000
vt 0.000000 1.000000
vt 0.500000 1.000000
vt 0.000000 0.000000
vt 1.000000 0.000000
vt 0.500000 1.000000
vt 0.000000 0.000000
vt 1.000000 0.000000
vt 0.000000 0.000000
vt 1.000000 0.000000
vt 1.000000 1.000000
vt 0.000000 1.000000
vt 0.000000 0.000000
vt 1.000000 0.000000
vt 1.000000 1.000000
vt 0.000000 1.000000
vt 0.500000 1.000000
vt 0.000000 0.000000
vt 1.000000 0.000000
vt 0.500000 1.000000
vt 0.000000 0.000000
vt 1.000000 0.000000
vt 0.000000 0.000000
vt 1.000000 0.000000
vt 1.000000 1.000000
vt 0.000000 1.000000
vt 0.000000 0.000000
vt 1.000000 0.000000
vt 1.000000 1.000000
vt 0.000000 1.000000
vt 0.500000 1.000000
vt 0.000000 0.000000
vt 1.000000 0.000000
vt 0.000000 0.000000
vt 1.000000 0.000000
vt 1.000000 1.000000
vt 0.000000 1.000000
vt 0.500000 1.000000
vt 0.000000 0.000000
vt 1.000000 0.000000
vt 0.500000 1.000000
vt 0.000000 0.000000
vt 1.000000 0.000000
vt 0.000000 0.000000
vt 1.000000 0.000000
vt 1.000000 1.000000
vt 0.000000 1.000000
vt 0.500000 1.000000
vt 0.000000 0.000000
vt 1.000000 0.000000
vt 0.500000 1.000000
vt 0.000000 0.000000
vt 1.000000 0.000000
vt 0.000000 0.000000
vt 1.000000 0.000000
vt 1.000000 1.000000
vt 0.000000 1.000000
vt 0.500000 1.000000
vt 0.000000 0.000000
vt 1.000000 0.000000
vt 0.500000 1.000000
vt 0.000000 0.000000
vt 1.000000 0.000000
vt 0.000000 0.000000
vt 1.000000 0.000000
vt 1.000000 1.000000
vt 0.000000 1.000000
vt 0.500000 1.000000
vt 0.000000 0.000000
vt 1.000000 0.000000
vt 0.500000 1.000000
vt 0.000000 0.000000
vt 1.000000 0.000000
vt 0.000000 0.000000
vt 1.000000 0.000000
vt 1.000000 1.000000
vt 0.000000 1.000000
vt 0.500000 1.000000
vt 0.000000 0.000000
vt 1.000000 0.000000
vt 0.500000 1.000000
vt 0.000000 0.000000
vt 1.000000 0.000000
vt 0.000000 0.000000
vt 1.000000 0.000000
vt 1.000000 1.000000
vt 0.000000 1.000000
vt 0.500000 1.000000
vt 0.000000 0.000000
vt 1.000000 0.000000
vt 0.500000 1.000000
vt 0.000000 0.000000
vt 1.000000 0.000000
vt 0.000000 0.000000
vt 1.000000 0.000000
vt 1.000000 1.000000
vt 0.000000 1.000000
vt 0.500000 1.000000
vt 0.000000 0.000000
vt 1.000000 0.000000
vt 0.500000 1.000000
vt 0.000000 0.000000
vt 1.000000 0.000000
vt 0.000000 0.000000
vt 1.000000 0.000000
vt 1.000000 1.000000
vt 0.000000 1.000000
vt 0.500000 1.000000
vt 0.000000 0.000000
vt 1.000000 0.000000
vt 0.500000 1.000000
vt 0.000000 0.000000
vt 1.000000 0.000000
vt 0.000000 0.000000
vt 1.000000 0.000000
vt 1.000000 1.000000
vt 0.000000 1.000000
vt 0.500000 1.000000
vt 0.000000 0.000000
vt 1.000000 0.000000
vt 0.500000 1.000000
vt 0.000000 0.000000
vt 1.000000 0.000000
vt 0.000000 0.000000
vt 1.000000 0.000000
vt 1.000000 1.000000
vt 0.000000 1.000000
vt 0.500000 1.000000
vt 0.000000 0.000000
vt 1.000000 0.000000
vt 0.500000 1.000000
vt 0.000000 0.000000
vt 1.000000 0.000000
vt 0.000000 0.000000
vt 1.000000 0.000000
vt 1.000000 1.000000
vt 0.000000 1.000000
vt 0.500000 1.000000
vt 0.000000 0.000000
vt 1.000000 0.000000
vt 0.500000 1.000000
vt 0.000000 0.000000
vt 1.000000 0.000000
vt 0.000000 0.000000
vt 1.000000 0.000000
vt 1.000000 1.000000
vt 0.000000 1.000000
vt 0.500000 1.000000
vt 0.000000 0.000000
vt 1.000000 0.000000
vt 0.500000 1.000000
vt 0.000000 0.000000
vt 1.000000 0.000000
vt 0.000000 0.000000
vt 1.000000 0.000000
vt 1.000000 1.000000
vt 0.000000 1.000000
vt 0.500000 1.000000
vt 0.000000 0.000000
vt 1.000000 0.000000
vt 0.500000 1.000000
vt 0.000000 0.000000
vt 1.000000 0.000000
vt 0.000000 0.000000
vt 1.000000 0.000000
vt 1.000000 1.000000
vt 0.000000 1.000000
vt 0.500000 1.000000
vt 0.000000 0.000000
vt 1.000000 0.000000
vt 0.500000 1.000000
vt 0.000000 0.000000
vt 1.000000 0.000000
vt 0.000000 0.000000
vt 1.000000 0.000000
vt 1.000000 1.000000
vt 0.000000 1.000000
vt 0.500000 1.000000
vt 0.000000 0.000000
vt 1.000000 0.000000
vt 0.500000 1.000000
vt 0.000000 0.000000
vt 1.000000 0.000000
vt 0.000000 0.000000
vt 1.000000 0.000000
vt 1.000000 1.000000
vt 0.000000 1.000000
vt 0.500000 1.000000
vt 0.000000 0.000000
vt 1.000000 0.000000
vt 0.500000 1.000000
vt 0.000000 0.000000
vt 1.000000 0.000000
vt 0.000000 0.000000
vt 1.000000 0.000000
vt 1.000000 1.000000
vt 0.000000 1.000000
vt 0.500000 1.000000
vt 0.000000 0.000000
vt 1.000000 0.000000
vt 0.500000 1.000000
vt 0.000000 0.000000
vt 1.000000 0.000000
vt 0.000000 0.000000
vt 1.000000 0.000000
vt 1.000000 1.000000
vt 0.000000 1.000000
vt 0.500000 1.000000
vt 0.000000 0.000000
vt 1.000000 0.000000
vt 0.500000 1.000000
vt 0.000000 0.000000
vt 1.000000 0.000000
vt 0.000000 0.000000
vt 1.000000 0.000000
vt 1.000000 1.000000
vt 0.000000 1.000000
vt 0.500000 1.000000
vt 0.000000 0.000000
vt 1.000000 0.000000
vt 0.500000 1.000000
vt 0.000000 0.000000
vt 1.000000 0.000000
vt 0.000000 0.000000
vt 1.000000 0.000000
vt 1.000000 1.000000
vt 0.000000 1.000000
vt 0.500000 1.000000
vt 0.000000 0.000000
vt 1.000000 0.000000
vt 0.500000 1.000000
vt 0.000000 0.000000
vt 1.000000 0.000000
vt 0.000000 0.000000
vt 1.000000 0.000000
vt 1.000000 1.000000
vt 0.000000 1.000000
vt 0.500000 1.000000
vt 0.000000 0.000000
vt 1.000000 0.000000
vt 0.500000 1.000000
vt 0.000000 0.000000
vt 1.000000 0.000000
vt 0.000000 0.000000
vt 1.000000 0.000000
vt 1.000000 1.000000
vt 0.000000 1.000000
vt 0.500000 1.000000
vt 0.000000 0.000000
vt 1.000000 0.000000
vt 0.500000 1.000000
vt 0.000000 0.000000
vt 1.000000 0.000000
vt 0.000000 0.000000
vt 1.000000 0.000000
vt 1.000000 1.000000
vt 0.000000 1.000000
vt 0.500000 1.000000
vt 0.000000 0.000000
vt 1.000000 0.000000
vt 0.500000 1.000000
vt 0.000000 0.000000
vt 1.000000 0.000000
vt 0.000000 0.000000
vt 1.000000 0.000000
vt 1.000000 1.000000
vt 0.000000 1.000000
vt 0.500000 1.000000
vt 0.000000 0.000000
vt 1.000000 0.000000
vt 0.500000 1.000000
vt 0.000000 0.000000
vt 1.000000 0.000000
vt 0.000000 0.000000
vt 1.000000 0.000000
vt 1.000000 1.000000
vt 0.000000 1.000000
vt 0.500000 1.000000
vt 0.000000 0.000000
vt 1.000000 0.000000
vt 0.500000 1.000000
vt 0.000000 0.000000
vt 1.000000 0.000000
vt 0.000000 0.000000
vt 1.000000 0.000000
vt 1.000000 1.000000
vt 0.000000 1.000000
vt 0.500000 1.000000
vt 0.000000 0.000000
vt 1.000000 0.000000
vt 0.500000 1.000000
vt 0.000000 0.000000
vt 1.000000 0.000000
vt 0.000000 0.000000
vt 1.000000 0.000000
vt 1.000000 1.000000
vt 0.000000 1.000000
vt 0.500000 1.000000
vt 0.000000 0.000000
vt 1.000000 0.000000
vt 0.500000 1.000000
vt 0.000000 0.000000
vt 1.000000 0.000000
vt 0.000000 0.000000
vt 1.000000 0.000000
vt 1.000000 1.000000
vt 0.000000 1.000000
vt 0.500000 1.000000
vt 0.000000 0.000000
vt 1.000000 0.000000
vt 0.500000 1.000000
vt 0.000000 0.000000
vt 1.000000 0.000000
vt 0.000000 0.000000
vt 1.000000 0.000000
vt 1.000000 1.000000
vt 0.000000 1.000000
vt 0.500000 1.000000
vt 0.000000 0.000000
vt 1.000000 0.000000
vt 0.500000 1.000000
vt 0.000000 0.000000
vt 1.000000 0.000000
vt 0.000000 0.000000
vt 1.000000 0.000000
vt 1.000000 1.000000
vt 0.000000 1.000000
vt 0.500000 1.000000
vt 0.000000 0.000000
vt 1.000000 0.000000
vt 0.500000 1.000000
vt 0.000000 0.000000
vt 1.000000 0.000000
vt 0.000000 0.000000
vt 1.000000 0.000000
vt 1.000000 1.000000
vt 0.000000 1.000000
vt 0.500000 1.000000
vt 0.000000 0.000000
vt 1.000000 0.000000
vt 0.500000 1.000000
vt 0.000000 0.000000
vt 1.000000 0.000000
vt 0.000000 0.000000
vt 1.000000 0.000000
vt 1.000000 1.000000
vt 0.000000 1.000000
vt 0.500000 1.000000
vt 0.000000 0.000000
vt 1.000000 0.000000
vt 0.500000 1.000000
vt 0.000000 0.000000
vt 1.000000 0.000000
vt 0.000000 0.000000
vt 1.000000 0.000000
vt 1.000000 1.000000
vt 0.000000 1.000000
vt 0.500000 1.000000
vt 0.000000 0.000000
vt 1.000000 0.000000
vt 0.500000 1.000000
vt 0.000000 0.000000
vt 1.000000 0.000000
vt 0.000000 0.000000
vt 1.000000 0.000000
vt 1.000000 1.000000
vt 0.000000 1.000000
vt 0.500000 1.000000
vt 0.000000 0.000000
vt 1.000000 0.000000
vt 0.500000 1.000000
vt 0.000000 0.000000
vt 1.000000 0.000000
vt 0.000000 0.000000
vt 1.000000 0.000000
vt 1.000000 1.000000
vt 0.000000 1.000000
vt 0.500000 1.000000
vt 0.000000 0.000000
vt 1.000000 0.000000
vt 0.500000 1.000000
vt 0.000000 0.000000
vt 1.000000 0.000000
vt 0.000000 0.000000
vt 1.000000 0.000000
vt 1.000000 1.000000
vt 0.000000 1.000000
vt 0.500000 1.000000
vt 0.000000 0.000000
vt 1.000000 0.000000
vt 0.500000 1.000000
vt 0.000000 0.000000
vt 1.000000 0.000000
vt 0.000000 0.000000
vt 1.000000 0.000000
vt 1.000000 1.000000
vt 0.000000 1.000000
vt 0.500000 1.000000
vt 0.000000 0.000000
vt 1.000000 0.000000
vt 0.500000 1.000000
vt 0.000000 0.000000
vt 1.000000 0.000000
vt 0.000000 0.000000
vt 1.000000 0.000000
vt 1.000000 1.000000
vt 0.000000 1.000000
vt 0.500000 1.000000
vt 0.000000 0.000000
vt 1.000000 0.000000
vt 0.500000 1.000000
vt 0.000000 0.000000
vt 1.000000 0.000000
vt 0.000000 0.000000
vt 1.000000 0.000000
vt 1.000000 1.000000
vt 0.000000 1.000000
vt 0.500000 1.000000
vt 0.000000 0.000000
vt 1.000000 0.000000
vt 0.500000 1.000000
vt 0.000000 0.000000
vt 1.000000 0.000000
vt 0.000000 0.000000
vt 1.000000 0.000000
vt 1.000000 1.000000
vt 0.000000 1.000000
vt 0.500000 1.000000
vt 0.000000 0.000000
vt 1.000000 0.000000
vt 0.500000 1.000000
vt 0.000000 0.000000
vt 1.000000 0.000000
vt 0.000000 0.000000
vt 1.000000 0.000000
vt 1.000000 1.000000
vt 0.000000 1.000000
vt 0.500000 1.000000
vt 0.000000 0.000000
vt 1.000000 0.000000
vt 0.500000 1.000000
vt 0.000000 0.000000
vt 1.000000 0.000000
vt 0.000000 0.000000
vt 1.000000 0.000000
vt 1.000000 1.000000
vt 0.000000 1.000000
vt 0.500000 1.000000
vt 0.000000 0.000000
vt 1.000000 0.000000
vt 0.500000 1.000000
vt 0.000000 0.000000
vt 1.000000 0.000000
s 1
usemtl models/caelum/world/environment/rock_granite.png
f 1/1 2/2 3/3
f 4/4 5/5 6/6 7/7
f 8/8 9/9 10/10 11/11
f 12/12 13/13 14/14
f 15/15 16/16 17/17
f 18/18 19/19 20/20 21/21
f 22/22 23/23 24/24 25/25
f 26/26 27/27 28/28
f 29/29 30/30 31/31
f 32/32 33/33 34/34 35/35
f 36/36 37/37 38/38 39/39
f 40/40 41/41 42/42
f 43/43 44/44 45/45
f 46/46 47/47 48/48 49/49
f 50/50 51/51 52/52 53/53
f 54/54 55/55 56/56
f 57/57 58/58 59/59
f 60/60 61/61 62/62 63/63
f 64/64 65/65 66/66 67/67
f 68/68 69/69 70/70
f 71/71 72/72 73/73
f 74/74 75/75 76/76 77/77
f 78/78 79/79 80/80 81/81
f 82/82 83/83 84/84
f 85/85 86/86 87/87
f 88/88 89/89 90/90 91/91
f 92/92 93/93 94/94 95/95
f 96/96 97/97 98/98
f 99/99 100/100 101/101
f 102/102 103/103 104/104 105/105
f 106/106 107/107 108/108 109/109
f 110/110 111/111 112/112
f 113/113 114/114 115/115
f 116/116 117/117 118/118 119/119
f 120/120 121/121 122/122 123/123
f 124/124 125/125 126/126
f 127/127 128/128 129/129
f 130/130 131/131 132/132 133/133
f 134/134 135/135 136/136 137/137
f 138/138 139/139 140/140
usemtl models/caelum/world/resources/ca_vein_emerald.png
f 141/141 142/142 143/143 144/144
f 145/145 146/146 147/147
f 148/148 149/149 150/150
f 151/151 152/152 153/153 154/154
f 155/155 156/156 157/157
f 158/158 159/159 160/160
f 161/161 162/162 163/163 164/164
f 165/165 166/166 167/167
f 168/168 169/169 170/170
f 171/171 172/172 173/173 174/174
f 175/175 176/176 177/177
f 178/178 179/179 180/180
f 181/181 182/182 183/183 184/184
f 185/185 186/186 187/187
f 188/188 189/189 190/190
f 191/191 192/192 193/193 194/194
f 195/195 196/196 197/197
f 198/198 199/199 200/200
f 201/201 202/202 203/203 204/204
f 205/205 206/206 207/207
f 208/208 209/209 210/210
f 211/211 212/212 213/213 214/214
f 215/215 216/216 217/217
f 218/218 219/219 220/220
f 221/221 222/222 223/223 224/224
f 225/225 226/226 227/227
f 228/228 229/229 230/230
f 231/231 232/232 233/233 234/234
f 235/235 236/236 237/237
f 238/238 239/239 240/240
f 241/241 242/242 243/243 244/244
f 245/245 246/246 247/247
f 248/248 249/249 250/250
f 251/251 252/252 253/253 254/254
f 255/255 256/256 257/257
f 258/258 259/259 260/260
f 261/261 262/262 263/263 264/264
f 265/265 266/266 267/267
f 268/268 269/269 270/270
f 271/271 272/272 273/273 274/274
f 275/275 276/276 277/277
f 278/278 279/279 280/280
f 281/281 282/282 283/283 284/284
f 285/285 286/286 287/287
f 288/288 289/289 290/290
f 291/291 292/292 293/293 294/294
f 295/295 296/296 297/297
f 298/298 299/299 300/300
f 301/301 302/302 303/303 304/304
f 305/305 306/306 307/307
f 308/308 309/309 310/310
f 311/311 312/312 313/313 314/314
f 315/315 316/316 317/317
f 318/318 319/319 320/320
f 321/321 322/322 323/323 324/324
f 325/325 326/326 327/327
f 328/328 329/329 330/330
f 331/331 332/332 333/333 334/334
f 335/335 336/336 337/337
f 338/338 339/339 340/340
f 341/341 342/342 343/343 344/344
f 345/345 346/346 347/347
f 348/348 349/349 350/350
f 351/351 352/352 353/353 354/354
f 355/355 356/356 357/357
f 358/358 359/359 360/360
f 361/361 362/362 363/363 364/364
f 365/365 366/366 367/367
f 368/368 369/369 370/370
f 371/371 372/372 373/373 374/374
f 375/375 376/376 377/377
f 378/378 379/379 380/380
f 381/381 382/382 383/383 384/384
f 385/385 386/386 387/387
f 388/388 389/389 390/390
f 391/391 392/392 393/393 394/394
f 395/395 396/396 397/397
f 398/398 399/399 400/400
f 401/401 402/402 403/403 404/404
f 405/405 406/406 407/407
f 408/408 409/409 410/410
f 411/411 412/412 413/413 414/414
f 415/415 416/416 417/417
f 418/418 419/419 420/420
f 421/421 422/422 423/423 424/424
f 425/425 426/426 427/427
f 428/428 429/429 430/430
f 431/431 432/432 433/433 434/434
f 435/435 436/436 437/437
f 438/438 439/439 440/440
f 441/441 442/442 443/443 444/444
f 445/445 446/446 447/447
f 448/448 449/449 450/450
f 451/451 452/452 453/453 454/454
f 455/455 456/456 457/457
f 458/458 459/459 460/460
f 461/461 462/462 463/463 464/464
f 465/465 466/466 467/467
f 468/468 469/469 470/470
f 471/471 472/472 473/473 474/474
f 475/475 476/476 477/477
f 478/478 479/479 480/480
f 481/481 482/482 483/483 484/484
f 485/485 486/486 487/487
f 488/488 489/489 490/490
f 491/491 492/492 493/493 494/494
f 495/495 496/496 497/497
f 498/498 499/499 500/500
f 501/501 502/502 503/503 504/504
f 505/505 506/506 507/507
f 508/508 509/509 510/510
f 511/511 512/512 513/513 514/514
f 515/515 516/516 517/517
f 518/518 519/519 520/520
f 521/521 522/522 523/523 524/524
f 525/525 526/526 527/527
f 528/528 529/529 530/530
f 531/531 532/532 533/533 534/534
f 535/535 536/536 537/537
f 538/538 539/539 540/540
f 541/541 542/542 543/543 544/544
f 545/545 546/546 547/547
f 548/548 549/549 550/550
f 551/551 552/552 553/553 554/554
f 555/555 556/556 557/557
f 558/558 559/559 560/560
