# Modelo original generado para Caelum Argenteum.
# Ejes OBJ: X ancho, Y altura, Z profundidad.
o ca_vein_tin2
v 0.000000 0.000000 0.000000
v 43.594668 -0.133310 0.000000
v 26.929950 -0.534238 16.897696
v 43.594668 -0.133310 0.000000
v 43.721093 17.605453 0.000000
v 39.017398 17.095316 24.482190
v 26.929950 -0.534238 16.897696
v 43.721093 17.605453 0.000000
v 32.078281 35.751236 0.000000
v 29.049030 34.562623 18.227353
v 39.017398 17.095316 24.482190
v -0.871543 52.000000 0.400096
v 29.049030 34.562623 18.227353
v 32.078281 35.751236 0.000000
v 0.000000 0.000000 0.000000
v 26.929950 -0.534238 16.897696
v 11.860607 -0.137084 31.525485
v 26.929950 -0.534238 16.897696
v 39.017398 17.095316 24.482190
v 14.340970 17.242584 38.118289
v 11.860607 -0.137084 31.525485
v 39.017398 17.095316 24.482190
v 29.049030 34.562623 18.227353
v 9.989201 34.692611 26.551290
v 14.340970 17.242584 38.118289
v -0.871543 52.000000 0.400096
v 9.989201 34.692611 26.551290
v 29.049030 34.562623 18.227353
v 0.000000 0.000000 0.000000
v 11.860607 -0.137084 31.525485
v -12.415034 -1.458349 32.999154
v 11.860607 -0.137084 31.525485
v 14.340970 17.242584 38.118289
v -13.724588 14.876212 36.479946
v -12.415034 -1.458349 32.999154
v 14.340970 17.242584 38.118289
v 9.989201 34.692611 26.551290
v -10.199425 37.123356 27.110065
v -13.724588 14.876212 36.479946
v -0.871543 52.000000 0.400096
v -10.199425 37.123356 27.110065
v 9.989201 34.692611 26.551290
v 0.000000 0.000000 0.000000
v -12.415034 -1.458349 32.999154
v -26.141510 1.162074 16.402976
v -12.415034 -1.458349 32.999154
v -13.724588 14.876212 36.479946
v -34.024650 17.327164 21.349398
v -26.141510 1.162074 16.402976
v -13.724588 14.876212 36.479946
v -10.199425 37.123356 27.110065
v -30.887170 34.101517 19.380728
v -34.024650 17.327164 21.349398
v -0.871543 52.000000 0.400096
v -30.887170 34.101517 19.380728
v -10.199425 37.123356 27.110065
v 0.000000 0.000000 0.000000
v -26.141510 1.162074 16.402976
v -35.014864 -0.644241 0.000000
v -26.141510 1.162074 16.402976
v -34.024650 17.327164 21.349398
v -48.946155 16.878266 0.000000
v -35.014864 -0.644241 0.000000
v -34.024650 17.327164 21.349398
v -30.887170 34.101517 19.380728
v -29.241435 33.834336 0.000000
v -48.946155 16.878266 0.000000
v -0.871543 52.000000 0.400096
v -29.241435 33.834336 0.000000
v -30.887170 34.101517 19.380728
v 0.000000 0.000000 0.000000
v -35.014864 -0.644241 0.000000
v -25.341216 1.696275 -15.900816
v -35.014864 -0.644241 0.000000
v -48.946155 16.878266 0.000000
v -40.244492 17.848244 -25.252153
v -25.341216 1.696275 -15.900816
v -48.946155 16.878266 0.000000
v -29.241435 33.834336 0.000000
v -30.705159 35.475325 -19.266521
v -40.244492 17.848244 -25.252153
v -0.871543 52.000000 0.400096
v -30.705159 35.475325 -19.266521
v -29.241435 33.834336 0.000000
v 0.000000 0.000000 0.000000
v -25.341216 1.696275 -15.900816
v -12.083031 0.236544 -32.116690
v -25.341216 1.696275 -15.900816
v -40.244492 17.848244 -25.252153
v -11.302194 17.231282 -30.041225
v -12.083031 0.236544 -32.116690
v -40.244492 17.848244 -25.252153
v -30.705159 35.475325 -19.266521
v -9.215485 36.872820 -24.494755
v -11.302194 17.231282 -30.041225
v -0.871543 52.000000 0.400096
v -9.215485 36.872820 -24.494755
v -30.705159 35.475325 -19.266521
v 0.000000 0.000000 0.000000
v -12.083031 0.236544 -32.116690
v 11.225281 -1.693534 -29.836791
v -12.083031 0.236544 -32.116690
v -11.302194 17.231282 -30.041225
v 12.166277 16.321090 -32.337958
v 11.225281 -1.693534 -29.836791
v -11.302194 17.231282 -30.041225
v -9.215485 36.872820 -24.494755
v 11.007750 36.225109 -29.258593
v 12.166277 16.321090 -32.337958
v -0.871543 52.000000 0.400096
v 11.007750 36.225109 -29.258593
v -9.215485 36.872820 -24.494755
v 0.000000 0.000000 0.000000
v 11.225281 -1.693534 -29.836791
v 26.613271 -1.669143 -16.698991
v 11.225281 -1.693534 -29.836791
v 12.166277 16.321090 -32.337958
v 37.277382 16.427490 -23.390384
v 26.613271 -1.669143 -16.698991
v 12.166277 16.321090 -32.337958
v 11.007750 36.225109 -29.258593
v 26.131873 35.994327 -16.396928
v 37.277382 16.427490 -23.390384
v -0.871543 52.000000 0.400096
v 26.131873 35.994327 -16.396928
v 11.007750 36.225109 -29.258593
v 0.000000 0.000000 0.000000
v 26.613271 -1.669143 -16.698991
v 43.594668 -0.133310 0.000000
v 26.613271 -1.669143 -16.698991
v 37.277382 16.427490 -23.390384
v 43.721093 17.605453 0.000000
v 43.594668 -0.133310 0.000000
v 37.277382 16.427490 -23.390384
v 26.131873 35.994327 -16.396928
v 32.078281 35.751236 0.000000
v 43.721093 17.605453 0.000000
v -0.871543 52.000000 0.400096
v 32.078281 35.751236 0.000000
v 26.131873 35.994327 -16.396928
v 33.405107 12.619768 4.849426
v 37.592091 15.038044 10.523059
v 38.252449 15.164935 4.849426
v 38.252449 15.164935 4.849426
v 37.592091 15.038044 10.523059
v 36.689336 20.646203 9.299767
v 39.419031 20.277488 4.849426
v 33.405107 23.474584 4.849426
v 39.419031 20.277488 4.849426
v 36.689336 20.646203 9.299767
v 33.405107 12.619768 4.849426
v 31.933266 15.750225 11.817918
v 37.592091 15.038044 10.523059
v 37.592091 15.038044 10.523059
v 31.933266 15.750225 11.817918
v 32.242340 20.420823 10.354595
v 36.689336 20.646203 9.299767
v 33.405107 23.474584 4.849426
v 36.689336 20.646203 9.299767
v 32.242340 20.420823 10.354595
v 33.405107 12.619768 4.849426
v 28.618645 15.395299 7.340315
v 31.933266 15.750225 11.817918
v 31.933266 15.750225 11.817918
v 28.618645 15.395299 7.340315
v 28.758286 20.699451 7.267645
v 32.242340 20.420823 10.354595
v 33.405107 23.474584 4.849426
v 32.242340 20.420823 10.354595
v 28.758286 20.699451 7.267645
v 33.405107 12.619768 4.849426
v 28.657534 15.558638 2.378775
v 28.618645 15.395299 7.340315
v 28.618645 15.395299 7.340315
v 28.657534 15.558638 2.378775
v 27.359214 21.214791 1.703125
v 28.758286 20.699451 7.267645
v 33.405107 23.474584 4.849426
v 28.758286 20.699451 7.267645
v 27.359214 21.214791 1.703125
v 33.405107 12.619768 4.849426
v 32.084364 15.299410 -1.403685
v 28.657534 15.558638 2.378775
v 28.657534 15.558638 2.378775
v 32.084364 15.299410 -1.403685
v 32.306816 20.948573 -0.350479
v 27.359214 21.214791 1.703125
v 33.405107 23.474584 4.849426
v 27.359214 21.214791 1.703125
v 32.306816 20.948573 -0.350479
v 33.405107 12.619768 4.849426
v 37.490368 15.395989 -0.686366
v 32.084364 15.299410 -1.403685
v 32.084364 15.299410 -1.403685
v 37.490368 15.395989 -0.686366
v 37.022409 20.550370 -0.052251
v 32.306816 20.948573 -0.350479
v 33.405107 23.474584 4.849426
v 32.306816 20.948573 -0.350479
v 37.022409 20.550370 -0.052251
v 33.405107 12.619768 4.849426
v 38.252449 15.164935 4.849426
v 37.490368 15.395989 -0.686366
v 37.490368 15.395989 -0.686366
v 38.252449 15.164935 4.849426
v 39.419031 20.277488 4.849426
v 37.022409 20.550370 -0.052251
v 33.405107 23.474584 4.849426
v 37.022409 20.550370 -0.052251
v 39.419031 20.277488 4.849426
v 20.150861 11.654327 16.112427
v 25.180174 13.486871 20.698735
v 27.584814 13.786979 16.112427
v 27.584814 13.786979 16.112427
v 25.180174 13.486871 20.698735
v 24.755148 17.933915 20.311147
v 28.747124 17.989412 16.112427
v 20.150861 20.484813 16.112427
v 28.747124 17.989412 16.112427
v 24.755148 17.933915 20.311147
v 20.150861 11.654327 16.112427
v 18.507178 13.705169 21.349523
v 25.180174 13.486871 20.698735
v 25.180174 13.486871 20.698735
v 18.507178 13.705169 21.349523
v 18.291435 18.246416 22.036922
v 24.755148 17.933915 20.311147
v 20.150861 20.484813 16.112427
v 24.755148 17.933915 20.311147
v 18.291435 18.246416 22.036922
v 20.150861 11.654327 16.112427
v 13.411704 14.115030 18.472579
v 18.507178 13.705169 21.349523
v 18.507178 13.705169 21.349523
v 13.411704 14.115030 18.472579
v 12.050512 18.594521 18.949288
v 18.291435 18.246416 22.036922
v 20.150861 20.484813 16.112427
v 18.291435 18.246416 22.036922
v 12.050512 18.594521 18.949288
v 20.150861 11.654327 16.112427
v 14.037933 13.683245 13.971590
v 13.411704 14.115030 18.472579
v 13.411704 14.115030 18.472579
v 14.037933 13.683245 13.971590
v 13.526897 18.432836 13.792618
v 12.050512 18.594521 18.949288
v 20.150861 20.484813 16.112427
v 12.050512 18.594521 18.949288
v 13.526897 18.432836 13.792618
v 20.150861 11.654327 16.112427
v 18.092584 13.988490 9.554353
v 14.037933 13.683245 13.971590
v 14.037933 13.683245 13.971590
v 18.092584 13.988490 9.554353
v 18.706401 18.427410 11.510096
v 13.526897 18.432836 13.792618
v 20.150861 20.484813 16.112427
v 13.526897 18.432836 13.792618
v 18.706401 18.427410 11.510096
v 20.150861 11.654327 16.112427
v 24.647542 13.621353 12.011835
v 18.092584 13.988490 9.554353
v 18.092584 13.988490 9.554353
v 24.647542 13.621353 12.011835
v 25.404555 18.429154 11.321504
v 18.706401 18.427410 11.510096
v 20.150861 20.484813 16.112427
v 18.706401 18.427410 11.510096
v 25.404555 18.429154 11.321504
v 20.150861 11.654327 16.112427
v 27.584814 13.786979 16.112427
v 24.647542 13.621353 12.011835
v 24.647542 13.621353 12.011835
v 27.584814 13.786979 16.112427
v 28.747124 17.989412 16.112427
v 25.404555 18.429154 11.321504
v 20.150861 20.484813 16.112427
v 25.404555 18.429154 11.321504
v 28.747124 17.989412 16.112427
v 13.328213 25.036262 31.432882
v 17.218691 27.044713 34.658473
v 21.089185 27.348236 31.432882
v 21.089185 27.348236 31.432882
v 17.218691 27.044713 34.658473
v 17.193377 32.308990 34.637485
v 20.560892 32.510338 31.432882
v 13.328213 34.654933 31.432882
v 20.560892 32.510338 31.432882
v 17.193377 32.308990 34.637485
v 13.328213 25.036262 31.432882
v 11.986214 27.452807 35.320436
v 17.218691 27.044713 34.658473
v 17.218691 27.044713 34.658473
v 11.986214 27.452807 35.320436
v 12.006489 31.987557 35.261702
v 17.193377 32.308990 34.637485
v 13.328213 34.654933 31.432882
v 17.193377 32.308990 34.637485
v 12.006489 31.987557 35.261702
v 13.328213 25.036262 31.432882
v 7.713599 27.342160 33.220629
v 11.986214 27.452807 35.320436
v 11.986214 27.452807 35.320436
v 7.713599 27.342160 33.220629
v 7.417676 32.183922 33.314853
v 12.006489 31.987557 35.261702
v 13.328213 34.654933 31.432882
v 12.006489 31.987557 35.261702
v 7.417676 32.183922 33.314853
v 13.328213 25.036262 31.432882
v 7.860552 27.183047 29.691926
v 7.713599 27.342160 33.220629
v 7.713599 27.342160 33.220629
v 7.860552 27.183047 29.691926
v 6.989439 32.416872 29.414555
v 7.417676 32.183922 33.314853
v 13.328213 34.654933 31.432882
v 7.417676 32.183922 33.314853
v 6.989439 32.416872 29.414555
v 13.328213 25.036262 31.432882
v 11.661625 27.159782 26.605046
v 7.860552 27.183047 29.691926
v 7.860552 27.183047 29.691926
v 11.661625 27.159782 26.605046
v 11.658861 32.563142 26.597041
v 6.989439 32.416872 29.414555
v 13.328213 34.654933 31.432882
v 6.989439 32.416872 29.414555
v 11.658861 32.563142 26.597041
v 13.328213 25.036262 31.432882
v 17.002421 27.464025 28.386600
v 11.661625 27.159782 26.605046
v 11.661625 27.159782 26.605046
v 17.002421 27.464025 28.386600
v 17.004075 31.945294 28.385229
v 11.658861 32.563142 26.597041
v 13.328213 34.654933 31.432882
v 11.658861 32.563142 26.597041
v 17.004075 31.945294 28.385229
v 13.328213 25.036262 31.432882
v 21.089185 27.348236 31.432882
v 17.002421 27.464025 28.386600
v 17.002421 27.464025 28.386600
v 21.089185 27.348236 31.432882
v 20.560892 32.510338 31.432882
v 17.004075 31.945294 28.385229
v 13.328213 34.654933 31.432882
v 17.004075 31.945294 28.385229
v 20.560892 32.510338 31.432882
v -11.102313 18.956874 20.233752
v -5.596578 21.710196 26.589597
v -4.133492 22.039291 20.233752
v -4.133492 22.039291 20.233752
v -5.596578 21.710196 26.589597
v -6.670031 27.854121 25.350398
v -4.035253 27.788511 20.233752
v -11.102313 31.092306 20.233752
v -4.035253 27.788511 20.233752
v -6.670031 27.854121 25.350398
v -11.102313 18.956874 20.233752
v -12.860759 21.907836 27.326345
v -5.596578 21.710196 26.589597
v -5.596578 21.710196 26.589597
v -12.860759 21.907836 27.326345
v -12.880826 27.840248 27.407284
v -6.670031 27.854121 25.350398
v -11.102313 31.092306 20.233752
v -6.670031 27.854121 25.350398
v -12.880826 27.840248 27.407284
v -11.102313 18.956874 20.233752
v -16.756101 22.332719 22.740307
v -12.860759 21.907836 27.326345
v -12.860759 21.907836 27.326345
v -16.756101 22.332719 22.740307
v -18.253710 28.538554 23.404259
v -12.880826 27.840248 27.407284
v -11.102313 31.092306 20.233752
v -12.880826 27.840248 27.407284
v -18.253710 28.538554 23.404259
v -11.102313 18.956874 20.233752
v -18.197624 22.159430 17.088110
v -16.756101 22.332719 22.740307
v -16.756101 22.332719 22.740307
v -18.197624 22.159430 17.088110
v -17.499313 27.968190 17.397700
v -18.253710 28.538554 23.404259
v -11.102313 31.092306 20.233752
v -18.253710 28.538554 23.404259
v -17.499313 27.968190 17.397700
v -11.102313 18.956874 20.233752
v -12.704914 21.968479 13.769752
v -18.197624 22.159430 17.088110
v -18.197624 22.159430 17.088110
v -12.704914 21.968479 13.769752
v -12.869830 27.974544 13.104573
v -17.499313 27.968190 17.397700
v -11.102313 31.092306 20.233752
v -17.499313 27.968190 17.397700
v -12.869830 27.974544 13.104573
v -11.102313 18.956874 20.233752
v -6.143318 21.865803 14.509066
v -12.704914 21.968479 13.769752
v -12.704914 21.968479 13.769752
v -6.143318 21.865803 14.509066
v -5.742570 28.103868 14.046441
v -12.869830 27.974544 13.104573
v -11.102313 31.092306 20.233752
v -12.869830 27.974544 13.104573
v -5.742570 28.103868 14.046441
v -11.102313 18.956874 20.233752
v -4.133492 22.039291 20.233752
v -6.143318 21.865803 14.509066
v -6.143318 21.865803 14.509066
v -4.133492 22.039291 20.233752
v -4.035253 27.788511 20.233752
v -5.742570 28.103868 14.046441
v -11.102313 31.092306 20.233752
v -5.742570 28.103868 14.046441
v -4.035253 27.788511 20.233752
v -35.392774 21.695880 8.583034
v -32.736124 24.074093 14.123369
v -31.086857 23.644251 8.583034
v -31.086857 23.644251 8.583034
v -32.736124 24.074093 14.123369
v -33.005320 28.825922 13.561972
v -31.186831 28.525751 8.583034
v -35.392774 30.714456 8.583034
v -31.186831 28.525751 8.583034
v -33.005320 28.825922 13.561972
v -35.392774 21.695880 8.583034
v -36.428095 23.580872 16.126910
v -32.736124 24.074093 14.123369
v -32.736124 24.074093 14.123369
v -36.428095 23.580872 16.126910
v -36.469517 28.816530 16.428735
v -33.005320 28.825922 13.561972
v -35.392774 30.714456 8.583034
v -33.005320 28.825922 13.561972
v -36.469517 28.816530 16.428735
v -35.392774 21.695880 8.583034
v -40.025851 24.105482 12.293693
v -36.428095 23.580872 16.126910
v -36.428095 23.580872 16.126910
v -40.025851 24.105482 12.293693
v -39.467486 28.235124 11.846495
v -36.469517 28.816530 16.428735
v -35.392774 30.714456 8.583034
v -36.469517 28.816530 16.428735
v -39.467486 28.235124 11.846495
v -35.392774 21.695880 8.583034
v -39.563879 24.235211 5.242371
v -40.025851 24.105482 12.293693
v -40.025851 24.105482 12.293693
v -39.563879 24.235211 5.242371
v -39.192503 28.170069 5.539809
v -39.467486 28.235124 11.846495
v -35.392774 30.714456 8.583034
v -39.467486 28.235124 11.846495
v -39.192503 28.170069 5.539809
v -35.392774 21.695880 8.583034
v -36.223638 23.574517 2.528934
v -39.563879 24.235211 5.242371
v -39.563879 24.235211 5.242371
v -36.223638 23.574517 2.528934
v -36.307847 28.070239 1.915346
v -39.192503 28.170069 5.539809
v -35.392774 30.714456 8.583034
v -39.192503 28.170069 5.539809
v -36.307847 28.070239 1.915346
v -35.392774 21.695880 8.583034
v -32.593680 24.122037 2.745639
v -36.223638 23.574517 2.528934
v -36.223638 23.574517 2.528934
v -32.593680 24.122037 2.745639
v -32.249885 28.475477 2.028668
v -36.307847 28.070239 1.915346
v -35.392774 30.714456 8.583034
v -36.307847 28.070239 1.915346
v -32.249885 28.475477 2.028668
v -35.392774 21.695880 8.583034
v -31.086857 23.644251 8.583034
v -32.593680 24.122037 2.745639
v -32.593680 24.122037 2.745639
v -31.086857 23.644251 8.583034
v -31.186831 28.525751 8.583034
v -32.249885 28.475477 2.028668
v -35.392774 30.714456 8.583034
v -32.249885 28.475477 2.028668
v -31.186831 28.525751 8.583034
v -31.770289 32.167575 -12.639276
v -26.634626 33.919975 -6.795195
v -23.753211 33.479704 -12.639276
v -23.753211 33.479704 -12.639276
v -26.634626 33.919975 -6.795195
v -26.959762 36.931682 -7.165180
v -24.277313 37.110047 -12.639276
v -31.770289 38.417407 -12.639276
v -24.277313 37.110047 -12.639276
v -26.959762 36.931682 -7.165180
v -31.770289 32.167575 -12.639276
v -33.610860 33.877597 -5.321314
v -26.634626 33.919975 -6.795195
v -26.634626 33.919975 -6.795195
v -33.610860 33.877597 -5.321314
v -33.482324 36.641324 -5.832361
v -26.959762 36.931682 -7.165180
v -31.770289 38.417407 -12.639276
v -26.959762 36.931682 -7.165180
v -33.482324 36.641324 -5.832361
v -31.770289 32.167575 -12.639276
v -39.227509 33.856114 -9.380335
v -33.610860 33.877597 -5.321314
v -33.610860 33.877597 -5.321314
v -39.227509 33.856114 -9.380335
v -40.188189 36.977004 -8.960500
v -33.482324 36.641324 -5.832361
v -31.770289 38.417407 -12.639276
v -33.482324 36.641324 -5.832361
v -40.188189 36.977004 -8.960500
v -31.770289 32.167575 -12.639276
v -38.876487 33.614101 -15.744814
v -39.227509 33.856114 -9.380335
v -39.227509 33.856114 -9.380335
v -38.876487 33.614101 -15.744814
v -39.725919 36.624697 -16.116031
v -40.188189 36.977004 -8.960500
v -31.770289 38.417407 -12.639276
v -40.188189 36.977004 -8.960500
v -39.725919 36.624697 -16.116031
v -31.770289 32.167575 -12.639276
v -33.619355 33.562813 -19.991013
v -38.876487 33.614101 -15.744814
v -38.876487 33.614101 -15.744814
v -33.619355 33.562813 -19.991013
v -33.420250 36.978417 -19.199388
v -39.725919 36.624697 -16.116031
v -31.770289 38.417407 -12.639276
v -39.725919 36.624697 -16.116031
v -33.420250 36.978417 -19.199388
v -31.770289 32.167575 -12.639276
v -27.180586 33.596838 -17.862087
v -33.619355 33.562813 -19.991013
v -33.619355 33.562813 -19.991013
v -27.180586 33.596838 -17.862087
v -27.293506 36.764690 -17.733591
v -33.420250 36.978417 -19.199388
v -31.770289 38.417407 -12.639276
v -33.420250 36.978417 -19.199388
v -27.293506 36.764690 -17.733591
v -31.770289 32.167575 -12.639276
v -23.753211 33.479704 -12.639276
v -27.180586 33.596838 -17.862087
v -27.180586 33.596838 -17.862087
v -23.753211 33.479704 -12.639276
v -24.277313 37.110047 -12.639276
v -27.293506 36.764690 -17.733591
v -31.770289 38.417407 -12.639276
v -27.293506 36.764690 -17.733591
v -24.277313 37.110047 -12.639276
v -19.519206 24.205371 -21.470706
v -15.535218 26.188729 -15.900159
v -12.942771 26.266319 -21.470706
v -12.942771 26.266319 -21.470706
v -15.535218 26.188729 -15.900159
v -15.870693 31.752871 -16.369232
v -13.286144 31.097466 -21.470706
v -19.519206 33.876598 -21.470706
v -13.286144 31.097466 -21.470706
v -15.870693 31.752871 -16.369232
v -19.519206 24.205371 -21.470706
v -20.892366 26.764307 -14.762308
v -15.535218 26.188729 -15.900159
v -15.535218 26.188729 -15.900159
v -20.892366 26.764307 -14.762308
v -20.889319 31.719462 -14.777190
v -15.870693 31.752871 -16.369232
v -19.519206 33.876598 -21.470706
v -15.870693 31.752871 -16.369232
v -20.889319 31.719462 -14.777190
v -19.519206 24.205371 -21.470706
v -25.395123 26.829068 -18.315445
v -20.892366 26.764307 -14.762308
v -20.892366 26.764307 -14.762308
v -25.395123 26.829068 -18.315445
v -26.026090 31.481304 -17.976627
v -20.889319 31.719462 -14.777190
v -19.519206 33.876598 -21.470706
v -20.889319 31.719462 -14.777190
v -26.026090 31.481304 -17.976627
v -19.519206 24.205371 -21.470706
v -25.756260 26.233149 -24.819891
v -25.395123 26.829068 -18.315445
v -25.395123 26.829068 -18.315445
v -25.756260 26.233149 -24.819891
v -24.371385 31.432030 -24.076238
v -26.026090 31.481304 -17.976627
v -19.519206 33.876598 -21.470706
v -26.026090 31.481304 -17.976627
v -24.371385 31.432030 -24.076238
v -19.519206 24.205371 -21.470706
v -21.021660 26.532348 -28.810753
v -25.756260 26.233149 -24.819891
v -25.756260 26.233149 -24.819891
v -21.021660 26.532348 -28.810753
v -20.889401 31.540061 -28.164619
v -24.371385 31.432030 -24.076238
v -19.519206 33.876598 -21.470706
v -24.371385 31.432030 -24.076238
v -20.889401 31.540061 -28.164619
v -19.519206 24.205371 -21.470706
v -15.091417 26.759046 -27.661789
v -21.021660 26.532348 -28.810753
v -21.021660 26.532348 -28.810753
v -15.091417 26.759046 -27.661789
v -15.885359 31.893640 -26.551673
v -20.889401 31.540061 -28.164619
v -19.519206 33.876598 -21.470706
v -20.889401 31.540061 -28.164619
v -15.885359 31.893640 -26.551673
v -19.519206 24.205371 -21.470706
v -12.942771 26.266319 -21.470706
v -15.091417 26.759046 -27.661789
v -15.091417 26.759046 -27.661789
v -12.942771 26.266319 -21.470706
v -13.286144 31.097466 -21.470706
v -15.885359 31.893640 -26.551673
v -19.519206 33.876598 -21.470706
v -15.885359 31.893640 -26.551673
v -13.286144 31.097466 -21.470706
v 8.545609 19.808171 -24.017232
v 12.606159 21.964325 -16.342991
v 14.419101 22.166346 -24.017232
v 14.419101 22.166346 -24.017232
v 12.606159 21.964325 -16.342991
v 12.077238 27.140113 -17.342624
v 14.677205 27.456158 -24.017232
v 8.545609 30.112588 -24.017232
v 14.677205 27.456158 -24.017232
v 12.077238 27.140113 -17.342624
v 8.545609 19.808171 -24.017232
v 7.433958 22.737473 -16.676541
v 12.606159 21.964325 -16.342991
v 12.606159 21.964325 -16.342991
v 7.433958 22.737473 -16.676541
v 7.180858 27.319726 -15.005217
v 12.077238 27.140113 -17.342624
v 8.545609 30.112588 -24.017232
v 12.077238 27.140113 -17.342624
v 7.180858 27.319726 -15.005217
v 8.545609 19.808171 -24.017232
v 2.734842 22.687671 -19.799646
v 7.433958 22.737473 -16.676541
v 7.433958 22.737473 -16.676541
v 2.734842 22.687671 -19.799646
v 3.035425 27.828632 -20.017816
v 7.180858 27.319726 -15.005217
v 8.545609 30.112588 -24.017232
v 7.180858 27.319726 -15.005217
v 3.035425 27.828632 -20.017816
v 8.545609 19.808171 -24.017232
v 3.502899 22.418988 -27.677345
v 2.734842 22.687671 -19.799646
v 2.734842 22.687671 -19.799646
v 3.502899 22.418988 -27.677345
v 3.744299 27.917982 -27.502131
v 3.035425 27.828632 -20.017816
v 8.545609 30.112588 -24.017232
v 3.035425 27.828632 -20.017816
v 3.744299 27.917982 -27.502131
v 8.545609 19.808171 -24.017232
v 7.392284 22.500458 -31.633118
v 3.502899 22.418988 -27.677345
v 3.502899 22.418988 -27.677345
v 7.392284 22.500458 -31.633118
v 7.357553 27.944212 -31.862462
v 3.744299 27.917982 -27.502131
v 8.545609 30.112588 -24.017232
v 3.744299 27.917982 -27.502131
v 7.357553 27.944212 -31.862462
v 8.545609 19.808171 -24.017232
v 12.717426 22.577000 -31.901763
v 7.392284 22.500458 -31.633118
v 7.392284 22.500458 -31.633118
v 12.717426 22.577000 -31.901763
v 12.012788 27.736168 -30.570031
v 7.357553 27.944212 -31.862462
v 8.545609 30.112588 -24.017232
v 7.357553 27.944212 -31.862462
v 12.012788 27.736168 -30.570031
v 8.545609 19.808171 -24.017232
v 14.419101 22.166346 -24.017232
v 12.717426 22.577000 -31.901763
v 12.717426 22.577000 -31.901763
v 14.419101 22.166346 -24.017232
v 14.677205 27.456158 -24.017232
v 12.012788 27.736168 -30.570031
v 8.545609 30.112588 -24.017232
v 12.012788 27.736168 -30.570031
v 14.677205 27.456158 -24.017232
v 25.357692 11.015297 -11.765568
v 28.593188 14.033141 -6.016156
v 29.725384 13.986502 -11.765568
v 29.725384 13.986502 -11.765568
v 28.593188 14.033141 -6.016156
v 28.531735 21.111876 -6.125357
v 29.868256 21.091462 -11.765568
v 25.357692 24.696476 -11.765568
v 29.868256 21.091462 -11.765568
v 28.531735 21.111876 -6.125357
v 25.357692 11.015297 -11.765568
v 24.416049 13.845198 -5.919192
v 28.593188 14.033141 -6.016156
v 28.593188 14.033141 -6.016156
v 24.416049 13.845198 -5.919192
v 24.212852 21.012759 -4.657606
v 28.531735 21.111876 -6.125357
v 25.357692 24.696476 -11.765568
v 28.531735 21.111876 -6.125357
v 24.212852 21.012759 -4.657606
v 25.357692 11.015297 -11.765568
v 20.854647 14.674785 -8.692525
v 24.416049 13.845198 -5.919192
v 24.416049 13.845198 -5.919192
v 20.854647 14.674785 -8.692525
v 20.933154 21.509437 -8.746101
v 24.212852 21.012759 -4.657606
v 25.357692 24.696476 -11.765568
v 24.212852 21.012759 -4.657606
v 20.933154 21.509437 -8.746101
v 25.357692 11.015297 -11.765568
v 21.072769 14.250743 -14.689756
v 20.854647 14.674785 -8.692525
v 20.854647 14.674785 -8.692525
v 21.072769 14.250743 -14.689756
v 21.266056 21.117894 -14.557850
v 20.933154 21.509437 -8.746101
v 25.357692 24.696476 -11.765568
v 20.933154 21.509437 -8.746101
v 21.266056 21.117894 -14.557850
v 25.357692 11.015297 -11.765568
v 24.491056 14.632363 -17.146250
v 21.072769 14.250743 -14.689756
v 21.072769 14.250743 -14.689756
v 24.491056 14.632363 -17.146250
v 24.442098 20.733615 -17.450213
v 21.266056 21.117894 -14.557850
v 25.357692 24.696476 -11.765568
v 21.266056 21.117894 -14.557850
v 24.442098 20.733615 -17.450213
v 25.357692 11.015297 -11.765568
v 28.790197 14.208897 -17.865060
v 24.491056 14.632363 -17.146250
v 24.491056 14.632363 -17.146250
v 28.790197 14.208897 -17.865060
v 28.740631 21.736322 -17.776981
v 24.442098 20.733615 -17.450213
v 25.357692 24.696476 -11.765568
v 24.442098 20.733615 -17.450213
v 28.740631 21.736322 -17.776981
v 25.357692 11.015297 -11.765568
v 29.725384 13.986502 -11.765568
v 28.790197 14.208897 -17.865060
v 28.790197 14.208897 -17.865060
v 29.725384 13.986502 -11.765568
v 29.868256 21.091462 -11.765568
v 28.740631 21.736322 -17.776981
v 25.357692 24.696476 -11.765568
v 28.740631 21.736322 -17.776981
v 29.868256 21.091462 -11.765568
v -28.328134 38.734147 14.286952
v -28.226398 36.309286 12.890635
v 28.447321 37.689985 16.025836
v 28.396453 38.902415 16.723995
v -28.139007 38.734147 11.493347
v -28.226398 36.309286 12.890635
v -28.328134 38.734147 14.286952
v 28.491016 38.902415 15.327192
v 28.396453 38.902415 16.723995
v 28.447321 37.689985 16.025836
v -28.226398 36.309286 12.890635
v -28.037272 36.309286 10.097029
v 28.541884 37.689985 14.629033
v 28.447321 37.689985 16.025836
v -28.139007 38.734147 11.493347
v -28.037272 36.309286 10.097029
v -28.226398 36.309286 12.890635
v 28.491016 38.902415 15.327192
v 28.447321 37.689985 16.025836
v 28.541884 37.689985 14.629033
v -28.037272 36.309286 10.097029
v -27.949881 38.734147 8.699741
v 28.585580 38.902415 13.930389
v 28.541884 37.689985 14.629033
v -28.139007 38.734147 11.493347
v -27.949881 38.734147 8.699741
v -28.037272 36.309286 10.097029
v 28.491016 38.902415 15.327192
v 28.541884 37.689985 14.629033
v 28.585580 38.902415 13.930389
v -27.949881 38.734147 8.699741
v -28.051616 41.159007 10.096058
v 28.534712 40.114845 14.628548
v 28.585580 38.902415 13.930389
v -28.139007 38.734147 11.493347
v -28.051616 41.159007 10.096058
v -27.949881 38.734147 8.699741
v 28.491016 38.902415 15.327192
v 28.585580 38.902415 13.930389
v 28.534712 40.114845 14.628548
v -28.051616 41.159007 10.096058
v -28.240743 41.159007 12.889664
v 28.440148 40.114845 16.025350
v 28.534712 40.114845 14.628548
v -28.139007 38.734147 11.493347
v -28.240743 41.159007 12.889664
v -28.051616 41.159007 10.096058
v 28.491016 38.902415 15.327192
v 28.534712 40.114845 14.628548
v 28.440148 40.114845 16.025350
v -28.240743 41.159007 12.889664
v -28.328134 38.734147 14.286952
v 28.396453 38.902415 16.723995
v 28.440148 40.114845 16.025350
v -28.139007 38.734147 11.493347
v -28.328134 38.734147 14.286952
v -28.240743 41.159007 12.889664
v 28.491016 38.902415 15.327192
v 28.440148 40.114845 16.025350
v 28.396453 38.902415 16.723995
v -23.288636 32.803716 12.277483
v -23.394433 30.384970 10.870901
v 28.162389 35.354716 -0.159431
v 28.215287 36.564089 0.543861
v -23.838022 32.803716 9.531910
v -23.394433 30.384970 10.870901
v -23.288636 32.803716 12.277483
v 27.940594 36.564089 -0.828926
v 28.215287 36.564089 0.543861
v 28.162389 35.354716 -0.159431
v -23.394433 30.384970 10.870901
v -23.943819 30.384970 8.125327
v 27.887696 35.354716 -1.532218
v 28.162389 35.354716 -0.159431
v -23.838022 32.803716 9.531910
v -23.943819 30.384970 8.125327
v -23.394433 30.384970 10.870901
v 27.940594 36.564089 -0.828926
v 28.162389 35.354716 -0.159431
v 27.887696 35.354716 -1.532218
v -23.943819 30.384970 8.125327
v -24.387408 32.803716 6.786336
v 27.665901 36.564089 -2.201713
v 27.887696 35.354716 -1.532218
v -23.838022 32.803716 9.531910
v -24.387408 32.803716 6.786336
v -23.943819 30.384970 8.125327
v 27.940594 36.564089 -0.828926
v 27.887696 35.354716 -1.532218
v 27.665901 36.564089 -2.201713
v -24.387408 32.803716 6.786336
v -24.281612 35.222462 8.192919
v 27.718799 37.773462 -1.498422
v 27.665901 36.564089 -2.201713
v -23.838022 32.803716 9.531910
v -24.281612 35.222462 8.192919
v -24.387408 32.803716 6.786336
v 27.940594 36.564089 -0.828926
v 27.665901 36.564089 -2.201713
v 27.718799 37.773462 -1.498422
v -24.281612 35.222462 8.192919
v -23.732226 35.222462 10.938493
v 27.993492 37.773462 -0.125635
v 27.718799 37.773462 -1.498422
v -23.838022 32.803716 9.531910
v -23.732226 35.222462 10.938493
v -24.281612 35.222462 8.192919
v 27.940594 36.564089 -0.828926
v 27.718799 37.773462 -1.498422
v 27.993492 37.773462 -0.125635
v -23.732226 35.222462 10.938493
v -23.288636 32.803716 12.277483
v 28.215287 36.564089 0.543861
v 27.993492 37.773462 -0.125635
v -23.838022 32.803716 9.531910
v -23.288636 32.803716 12.277483
v -23.732226 35.222462 10.938493
v 27.940594 36.564089 -0.828926
v 27.993492 37.773462 -0.125635
v 28.215287 36.564089 0.543861
v -14.076673 25.343222 -10.676224
v -13.999246 22.932707 -12.098695
v 28.282285 19.412782 -2.454539
v 28.243571 20.618039 -1.743303
v -13.410020 25.343222 -13.395704
v -13.999246 22.932707 -12.098695
v -14.076673 25.343222 -10.676224
v 28.576898 20.618039 -3.103043
v 28.243571 20.618039 -1.743303
v 28.282285 19.412782 -2.454539
v -13.999246 22.932707 -12.098695
v -13.332594 22.932707 -14.818176
v 28.615611 19.412782 -3.814279
v 28.282285 19.412782 -2.454539
v -13.410020 25.343222 -13.395704
v -13.332594 22.932707 -14.818176
v -13.999246 22.932707 -12.098695
v 28.576898 20.618039 -3.103043
v 28.282285 19.412782 -2.454539
v 28.615611 19.412782 -3.814279
v -13.332594 22.932707 -14.818176
v -12.743368 25.343222 -16.115185
v 28.910224 20.618039 -4.462783
v 28.615611 19.412782 -3.814279
v -13.410020 25.343222 -13.395704
v -12.743368 25.343222 -16.115185
v -13.332594 22.932707 -14.818176
v 28.576898 20.618039 -3.103043
v 28.615611 19.412782 -3.814279
v 28.910224 20.618039 -4.462783
v -12.743368 25.343222 -16.115185
v -12.820794 27.753736 -14.692713
v 28.871511 21.823296 -3.751548
v 28.910224 20.618039 -4.462783
v -13.410020 25.343222 -13.395704
v -12.820794 27.753736 -14.692713
v -12.743368 25.343222 -16.115185
v 28.576898 20.618039 -3.103043
v 28.910224 20.618039 -4.462783
v 28.871511 21.823296 -3.751548
v -12.820794 27.753736 -14.692713
v -13.487447 27.753736 -11.973233
v 28.538184 21.823296 -2.391807
v 28.871511 21.823296 -3.751548
v -13.410020 25.343222 -13.395704
v -13.487447 27.753736 -11.973233
v -12.820794 27.753736 -14.692713
v 28.576898 20.618039 -3.103043
v 28.871511 21.823296 -3.751548
v 28.538184 21.823296 -2.391807
v -13.487447 27.753736 -11.973233
v -14.076673 25.343222 -10.676224
v 28.243571 20.618039 -1.743303
v 28.538184 21.823296 -2.391807
v -13.410020 25.343222 -13.395704
v -14.076673 25.343222 -10.676224
v -13.487447 27.753736 -11.973233
v 28.576898 20.618039 -3.103043
v 28.538184 21.823296 -2.391807
v 28.243571 20.618039 -1.743303
vt 0.500000 1.000000
vt 0.000000 0.000000
vt 1.000000 0.000000
vt 0.000000 0.000000
vt 1.000000 0.000000
vt 1.000000 1.000000
vt 0.000000 1.000000
vt 0.000000 0.000000
vt 1.000000 0.000000
vt 1.000000 1.000000
vt 0.000000 1.000000
vt 0.500000 1.000000
vt 0.000000 0.000000
vt 1.000000 0.000000
vt 0.500000 1.000000
vt 0.000000 0.000000
vt 1.000000 0.000000
vt 0.000000 0.000000
vt 1.000000 0.000000
vt 1.000000 1.000000
vt 0.000000 1.000000
vt 0.000000 0.000000
vt 1.000000 0.000000
vt 1.000000 1.000000
vt 0.000000 1.000000
vt 0.500000 1.000000
vt 0.000000 0.000000
vt 1.000000 0.000000
vt 0.500000 1.000000
vt 0.000000 0.000000
vt 1.000000 0.000000
vt 0.000000 0.000000
vt 1.000000 0.000000
vt 1.000000 1.000000
vt 0.000000 1.000000
vt 0.000000 0.000000
vt 1.000000 0.000000
vt 1.000000 1.000000
vt 0.000000 1.000000
vt 0.500000 1.000000
vt 0.000000 0.000000
vt 1.000000 0.000000
vt 0.500000 1.000000
vt 0.000000 0.000000
vt 1.000000 0.000000
vt 0.000000 0.000000
vt 1.000000 0.000000
vt 1.000000 1.000000
vt 0.000000 1.000000
vt 0.000000 0.000000
vt 1.000000 0.000000
vt 1.000000 1.000000
vt 0.000000 1.000000
vt 0.500000 1.000000
vt 0.000000 0.000000
vt 1.000000 0.000000
vt 0.500000 1.000000
vt 0.000000 0.000000
vt 1.000000 0.000000
vt 0.000000 0.000000
vt 1.000000 0.000000
vt 1.000000 1.000000
vt 0.000000 1.000000
vt 0.000000 0.000000
vt 1.000000 0.000000
vt 1.000000 1.000000
vt 0.000000 1.000000
vt 0.500000 1.000000
vt 0.000000 0.000000
vt 1.000000 0.000000
vt 0.500000 1.000000
vt 0.000000 0.000000
vt 1.000000 0.000000
vt 0.000000 0.000000
vt 1.000000 0.000000
vt 1.000000 1.000000
vt 0.000000 1.000000
vt 0.000000 0.000000
vt 1.000000 0.000000
vt 1.000000 1.000000
vt 0.000000 1.000000
vt 0.500000 1.000000
vt 0.000000 0.000000
vt 1.000000 0.000000
vt 0.500000 1.000000
vt 0.000000 0.000000
vt 1.000000 0.000000
vt 0.000000 0.000000
vt 1.000000 0.000000
vt 1.000000 1.000000
vt 0.000000 1.000000
vt 0.000000 0.000000
vt 1.000000 0.000000
vt 1.000000 1.000000
vt 0.000000 1.000000
vt 0.500000 1.000000
vt 0.000000 0.000000
vt 1.000000 0.000000
vt 0.500000 1.000000
vt 0.000000 0.000000
vt 1.000000 0.000000
vt 0.000000 0.000000
vt 1.000000 0.000000
vt 1.000000 1.000000
vt 0.000000 1.000000
vt 0.000000 0.000000
vt 1.000000 0.000000
vt 1.000000 1.000000
vt 0.000000 1.000000
vt 0.500000 1.000000
vt 0.000000 0.000000
vt 1.000000 0.000000
vt 0.500000 1.000000
vt 0.000000 0.000000
vt 1.000000 0.000000
vt 0.000000 0.000000
vt 1.000000 0.000000
vt 1.000000 1.000000
vt 0.000000 1.000000
vt 0.000000 0.000000
vt 1.000000 0.000000
vt 1.000000 1.000000
vt 0.000000 1.000000
vt 0.500000 1.000000
vt 0.000000 0.000000
vt 1.000000 0.000000
vt 0.500000 1.000000
vt 0.000000 0.000000
vt 1.000000 0.000000
vt 0.000000 0.000000
vt 1.000000 0.000000
vt 1.000000 1.000000
vt 0.000000 1.000000
vt 0.000000 0.000000
vt 1.000000 0.000000
vt 1.000000 1.000000
vt 0.000000 1.000000
vt 0.500000 1.000000
vt 0.000000 0.000000
vt 1.000000 0.000000
vt 0.500000 1.000000
vt 0.000000 0.000000
vt 1.000000 0.000000
vt 0.000000 0.000000
vt 1.000000 0.000000
vt 1.000000 1.000000
vt 0.000000 1.000000
vt 0.500000 1.000000
vt 0.000000 0.000000
vt 1.000000 0.000000
vt 0.500000 1.000000
vt 0.000000 0.000000
vt 1.000000 0.000000
vt 0.000000 0.000000
vt 1.000000 0.000000
vt 1.000000 1.000000
vt 0.000000 1.000000
vt 0.500000 1.000000
vt 0.000000 0.000000
vt 1.000000 0.000000
vt 0.500000 1.000000
vt 0.000000 0.000000
vt 1.000000 0.000000
vt 0.000000 0.000000
vt 1.000000 0.000000
vt 1.000000 1.000000
vt 0.000000 1.000000
vt 0.500000 1.000000
vt 0.000000 0.000000
vt 1.000000 0.000000
vt 0.500000 1.000000
vt 0.000000 0.000000
vt 1.000000 0.000000
vt 0.000000 0.000000
vt 1.000000 0.000000
vt 1.000000 1.000000
vt 0.000000 1.000000
vt 0.500000 1.000000
vt 0.000000 0.000000
vt 1.000000 0.000000
vt 0.500000 1.000000
vt 0.000000 0.000000
vt 1.000000 0.000000
vt 0.000000 0.000000
vt 1.000000 0.000000
vt 1.000000 1.000000
vt 0.000000 1.000000
vt 0.500000 1.000000
vt 0.000000 0.000000
vt 1.000000 0.000000
vt 0.500000 1.000000
vt 0.000000 0.000000
vt 1.000000 0.000000
vt 0.000000 0.000000
vt 1.000000 0.000000
vt 1.000000 1.000000
vt 0.000000 1.000000
vt 0.500000 1.000000
vt 0.000000 0.000000
vt 1.000000 0.000000
vt 0.500000 1.000000
vt 0.000000 0.000000
vt 1.000000 0.000000
vt 0.000000 0.000000
vt 1.000000 0.000000
vt 1.000000 1.000000
vt 0.000000 1.000000
vt 0.500000 1.000000
vt 0.000000 0.000000
vt 1.000000 0.000000
vt 0.500000 1.000000
vt 0.000000 0.000000
vt 1.000000 0.000000
vt 0.000000 0.000000
vt 1.000000 0.000000
vt 1.000000 1.000000
vt 0.000000 1.000000
vt 0.500000 1.000000
vt 0.000000 0.000000
vt 1.000000 0.000000
vt 0.500000 1.000000
vt 0.000000 0.000000
vt 1.000000 0.000000
vt 0.000000 0.000000
vt 1.000000 0.000000
vt 1.000000 1.000000
vt 0.000000 1.000000
vt 0.500000 1.000000
vt 0.000000 0.000000
vt 1.000000 0.000000
vt 0.500000 1.000000
vt 0.000000 0.000000
vt 1.000000 0.000000
vt 0.000000 0.000000
vt 1.000000 0.000000
vt 1.000000 1.000000
vt 0.000000 1.000000
vt 0.500000 1.000000
vt 0.000000 0.000000
vt 1.000000 0.000000
vt 0.500000 1.000000
vt 0.000000 0.000000
vt 1.000000 0.000000
vt 0.000000 0.000000
vt 1.000000 0.000000
vt 1.000000 1.000000
vt 0.000000 1.000000
vt 0.500000 1.000000
vt 0.000000 0.000000
vt 1.000000 0.000000
vt 0.500000 1.000000
vt 0.000000 0.000000
vt 1.000000 0.000000
vt 0.000000 0.000000
vt 1.000000 0.000000
vt 1.000000 1.000000
vt 0.000000 1.000000
vt 0.500000 1.000000
vt 0.000000 0.000000
vt 1.000000 0.000000
vt 0.500000 1.000000
vt 0.000000 0.000000
vt 1.000000 0.000000
vt 0.000000 0.000000
vt 1.000000 0.000000
vt 1.000000 1.000000
vt 0.000000 1.000000
vt 0.500000 1.000000
vt 0.000000 0.000000
vt 1.000000 0.000000
vt 0.500000 1.000000
vt 0.000000 0.000000
vt 1.000000 0.000000
vt 0.000000 0.000000
vt 1.000000 0.000000
vt 1.000000 1.000000
vt 0.000000 1.000000
vt 0.500000 1.000000
vt 0.000000 0.000000
vt 1.000000 0.000000
vt 0.500000 1.000000
vt 0.000000 0.000000
vt 1.000000 0.000000
vt 0.000000 0.000000
vt 1.000000 0.000000
vt 1.000000 1.000000
vt 0.000000 1.000000
vt 0.500000 1.000000
vt 0.000000 0.000000
vt 1.000000 0.000000
vt 0.500000 1.000000
vt 0.000000 0.000000
vt 1.000000 0.000000
vt 0.000000 0.000000
vt 1.000000 0.000000
vt 1.000000 1.000000
vt 0.000000 1.000000
vt 0.500000 1.000000
vt 0.000000 0.000000
vt 1.000000 0.000000
vt 0.500000 1.000000
vt 0.000000 0.000000
vt 1.000000 0.000000
vt 0.000000 0.000000
vt 1.000000 0.000000
vt 1.000000 1.000000
vt 0.000000 1.000000
vt 0.500000 1.000000
vt 0.000000 0.000000
vt 1.000000 0.000000
vt 0.500000 1.000000
vt 0.000000 0.000000
vt 1.000000 0.000000
vt 0.000000 0.000000
vt 1.000000 0.000000
vt 1.000000 1.000000
vt 0.000000 1.000000
vt 0.500000 1.000000
vt 0.000000 0.000000
vt 1.000000 0.000000
vt 0.500000 1.000000
vt 0.000000 0.000000
vt 1.000000 0.000000
vt 0.000000 0.000000
vt 1.000000 0.000000
vt 1.000000 1.000000
vt 0.000000 1.000000
vt 0.500000 1.000000
vt 0.000000 0.000000
vt 1.000000 0.000000
vt 0.500000 1.000000
vt 0.000000 0.000000
vt 1.000000 0.000000
vt 0.000000 0.000000
vt 1.000000 0.000000
vt 1.000000 1.000000
vt 0.000000 1.000000
vt 0.500000 1.000000
vt 0.000000 0.000000
vt 1.000000 0.000000
vt 0.500000 1.000000
vt 0.000000 0.000000
vt 1.000000 0.000000
vt 0.000000 0.000000
vt 1.000000 0.000000
vt 1.000000 1.000000
vt 0.000000 1.000000
vt 0.500000 1.000000
vt 0.000000 0.000000
vt 1.000000 0.000000
vt 0.500000 1.000000
vt 0.000000 0.000000
vt 1.000000 0.000000
vt 0.000000 0.000000
vt 1.000000 0.000000
vt 1.000000 1.000000
vt 0.000000 1.000000
vt 0.500000 1.000000
vt 0.000000 0.000000
vt 1.000000 0.000000
vt 0.500000 1.000000
vt 0.000000 0.000000
vt 1.000000 0.000000
vt 0.000000 0.000000
vt 1.000000 0.000000
vt 1.000000 1.000000
vt 0.000000 1.000000
vt 0.500000 1.000000
vt 0.000000 0.000000
vt 1.000000 0.000000
vt 0.500000 1.000000
vt 0.000000 0.000000
vt 1.000000 0.000000
vt 0.000000 0.000000
vt 1.000000 0.000000
vt 1.000000 1.000000
vt 0.000000 1.000000
vt 0.500000 1.000000
vt 0.000000 0.000000
vt 1.000000 0.000000
vt 0.500000 1.000000
vt 0.000000 0.000000
vt 1.000000 0.000000
vt 0.000000 0.000000
vt 1.000000 0.000000
vt 1.000000 1.000000
vt 0.000000 1.000000
vt 0.500000 1.000000
vt 0.000000 0.000000
vt 1.000000 0.000000
vt 0.500000 1.000000
vt 0.000000 0.000000
vt 1.000000 0.000000
vt 0.000000 0.000000
vt 1.000000 0.000000
vt 1.000000 1.000000
vt 0.000000 1.000000
vt 0.500000 1.000000
vt 0.000000 0.000000
vt 1.000000 0.000000
vt 0.500000 1.000000
vt 0.000000 0.000000
vt 1.000000 0.000000
vt 0.000000 0.000000
vt 1.000000 0.000000
vt 1.000000 1.000000
vt 0.000000 1.000000
vt 0.500000 1.000000
vt 0.000000 0.000000
vt 1.000000 0.000000
vt 0.500000 1.000000
vt 0.000000 0.000000
vt 1.000000 0.000000
vt 0.000000 0.000000
vt 1.000000 0.000000
vt 1.000000 1.000000
vt 0.000000 1.000000
vt 0.500000 1.000000
vt 0.000000 0.000000
vt 1.000000 0.000000
vt 0.500000 1.000000
vt 0.000000 0.000000
vt 1.000000 0.000000
vt 0.000000 0.000000
vt 1.000000 0.000000
vt 1.000000 1.000000
vt 0.000000 1.000000
vt 0.500000 1.000000
vt 0.000000 0.000000
vt 1.000000 0.000000
vt 0.500000 1.000000
vt 0.000000 0.000000
vt 1.000000 0.000000
vt 0.000000 0.000000
vt 1.000000 0.000000
vt 1.000000 1.000000
vt 0.000000 1.000000
vt 0.500000 1.000000
vt 0.000000 0.000000
vt 1.000000 0.000000
vt 0.500000 1.000000
vt 0.000000 0.000000
vt 1.000000 0.000000
vt 0.000000 0.000000
vt 1.000000 0.000000
vt 1.000000 1.000000
vt 0.000000 1.000000
vt 0.500000 1.000000
vt 0.000000 0.000000
vt 1.000000 0.000000
vt 0.500000 1.000000
vt 0.000000 0.000000
vt 1.000000 0.000000
vt 0.000000 0.000000
vt 1.000000 0.000000
vt 1.000000 1.000000
vt 0.000000 1.000000
vt 0.500000 1.000000
vt 0.000000 0.000000
vt 1.000000 0.000000
vt 0.500000 1.000000
vt 0.000000 0.000000
vt 1.000000 0.000000
vt 0.000000 0.000000
vt 1.000000 0.000000
vt 1.000000 1.000000
vt 0.000000 1.000000
vt 0.500000 1.000000
vt 0.000000 0.000000
vt 1.000000 0.000000
vt 0.500000 1.000000
vt 0.000000 0.000000
vt 1.000000 0.000000
vt 0.000000 0.000000
vt 1.000000 0.000000
vt 1.000000 1.000000
vt 0.000000 1.000000
vt 0.500000 1.000000
vt 0.000000 0.000000
vt 1.000000 0.000000
vt 0.500000 1.000000
vt 0.000000 0.000000
vt 1.000000 0.000000
vt 0.000000 0.000000
vt 1.000000 0.000000
vt 1.000000 1.000000
vt 0.000000 1.000000
vt 0.500000 1.000000
vt 0.000000 0.000000
vt 1.000000 0.000000
vt 0.500000 1.000000
vt 0.000000 0.000000
vt 1.000000 0.000000
vt 0.000000 0.000000
vt 1.000000 0.000000
vt 1.000000 1.000000
vt 0.000000 1.000000
vt 0.500000 1.000000
vt 0.000000 0.000000
vt 1.000000 0.000000
vt 0.500000 1.000000
vt 0.000000 0.000000
vt 1.000000 0.000000
vt 0.000000 0.000000
vt 1.000000 0.000000
vt 1.000000 1.000000
vt 0.000000 1.000000
vt 0.500000 1.000000
vt 0.000000 0.000000
vt 1.000000 0.000000
vt 0.500000 1.000000
vt 0.000000 0.000000
vt 1.000000 0.000000
vt 0.000000 0.000000
vt 1.000000 0.000000
vt 1.000000 1.000000
vt 0.000000 1.000000
vt 0.500000 1.000000
vt 0.000000 0.000000
vt 1.000000 0.000000
vt 0.500000 1.000000
vt 0.000000 0.000000
vt 1.000000 0.000000
vt 0.000000 0.000000
vt 1.000000 0.000000
vt 1.000000 1.000000
vt 0.000000 1.000000
vt 0.500000 1.000000
vt 0.000000 0.000000
vt 1.000000 0.000000
vt 0.500000 1.000000
vt 0.000000 0.000000
vt 1.000000 0.000000
vt 0.000000 0.000000
vt 1.000000 0.000000
vt 1.000000 1.000000
vt 0.000000 1.000000
vt 0.500000 1.000000
vt 0.000000 0.000000
vt 1.000000 0.000000
vt 0.500000 1.000000
vt 0.000000 0.000000
vt 1.000000 0.000000
vt 0.000000 0.000000
vt 1.000000 0.000000
vt 1.000000 1.000000
vt 0.000000 1.000000
vt 0.500000 1.000000
vt 0.000000 0.000000
vt 1.000000 0.000000
vt 0.500000 1.000000
vt 0.000000 0.000000
vt 1.000000 0.000000
vt 0.000000 0.000000
vt 1.000000 0.000000
vt 1.000000 1.000000
vt 0.000000 1.000000
vt 0.500000 1.000000
vt 0.000000 0.000000
vt 1.000000 0.000000
vt 0.500000 1.000000
vt 0.000000 0.000000
vt 1.000000 0.000000
vt 0.000000 0.000000
vt 1.000000 0.000000
vt 1.000000 1.000000
vt 0.000000 1.000000
vt 0.500000 1.000000
vt 0.000000 0.000000
vt 1.000000 0.000000
vt 0.500000 1.000000
vt 0.000000 0.000000
vt 1.000000 0.000000
vt 0.000000 0.000000
vt 1.000000 0.000000
vt 1.000000 1.000000
vt 0.000000 1.000000
vt 0.500000 1.000000
vt 0.000000 0.000000
vt 1.000000 0.000000
vt 0.500000 1.000000
vt 0.000000 0.000000
vt 1.000000 0.000000
vt 0.000000 0.000000
vt 1.000000 0.000000
vt 1.000000 1.000000
vt 0.000000 1.000000
vt 0.500000 1.000000
vt 0.000000 0.000000
vt 1.000000 0.000000
vt 0.500000 1.000000
vt 0.000000 0.000000
vt 1.000000 0.000000
vt 0.000000 0.000000
vt 1.000000 0.000000
vt 1.000000 1.000000
vt 0.000000 1.000000
vt 0.500000 1.000000
vt 0.000000 0.000000
vt 1.000000 0.000000
vt 0.500000 1.000000
vt 0.000000 0.000000
vt 1.000000 0.000000
vt 0.000000 0.000000
vt 1.000000 0.000000
vt 1.000000 1.000000
vt 0.000000 1.000000
vt 0.500000 1.000000
vt 0.000000 0.000000
vt 1.000000 0.000000
vt 0.500000 1.000000
vt 0.000000 0.000000
vt 1.000000 0.000000
vt 0.000000 0.000000
vt 1.000000 0.000000
vt 1.000000 1.000000
vt 0.000000 1.000000
vt 0.500000 1.000000
vt 0.000000 0.000000
vt 1.000000 0.000000
vt 0.500000 1.000000
vt 0.000000 0.000000
vt 1.000000 0.000000
vt 0.000000 0.000000
vt 1.000000 0.000000
vt 1.000000 1.000000
vt 0.000000 1.000000
vt 0.500000 1.000000
vt 0.000000 0.000000
vt 1.000000 0.000000
vt 0.500000 1.000000
vt 0.000000 0.000000
vt 1.000000 0.000000
vt 0.000000 0.000000
vt 1.000000 0.000000
vt 1.000000 1.000000
vt 0.000000 1.000000
vt 0.500000 1.000000
vt 0.000000 0.000000
vt 1.000000 0.000000
vt 0.500000 1.000000
vt 0.000000 0.000000
vt 1.000000 0.000000
vt 0.000000 0.000000
vt 1.000000 0.000000
vt 1.000000 1.000000
vt 0.000000 1.000000
vt 0.500000 1.000000
vt 0.000000 0.000000
vt 1.000000 0.000000
vt 0.500000 1.000000
vt 0.000000 0.000000
vt 1.000000 0.000000
vt 0.000000 0.000000
vt 1.000000 0.000000
vt 1.000000 1.000000
vt 0.000000 1.000000
vt 0.500000 1.000000
vt 0.000000 0.000000
vt 1.000000 0.000000
vt 0.500000 1.000000
vt 0.000000 0.000000
vt 1.000000 0.000000
vt 0.000000 0.000000
vt 1.000000 0.000000
vt 1.000000 1.000000
vt 0.000000 1.000000
vt 0.500000 1.000000
vt 0.000000 0.000000
vt 1.000000 0.000000
vt 0.500000 1.000000
vt 0.000000 0.000000
vt 1.000000 0.000000
vt 0.000000 0.000000
vt 1.000000 0.000000
vt 1.000000 1.000000
vt 0.000000 1.000000
vt 0.500000 1.000000
vt 0.000000 0.000000
vt 1.000000 0.000000
vt 0.500000 1.000000
vt 0.000000 0.000000
vt 1.000000 0.000000
vt 0.000000 0.000000
vt 1.000000 0.000000
vt 1.000000 1.000000
vt 0.000000 1.000000
vt 0.500000 1.000000
vt 0.000000 0.000000
vt 1.000000 0.000000
vt 0.500000 1.000000
vt 0.000000 0.000000
vt 1.000000 0.000000
vt 0.000000 0.000000
vt 1.000000 0.000000
vt 1.000000 1.000000
vt 0.000000 1.000000
vt 0.500000 1.000000
vt 0.000000 0.000000
vt 1.000000 0.000000
vt 0.500000 1.000000
vt 0.000000 0.000000
vt 1.000000 0.000000
vt 0.000000 0.000000
vt 1.000000 0.000000
vt 1.000000 1.000000
vt 0.000000 1.000000
vt 0.500000 1.000000
vt 0.000000 0.000000
vt 1.000000 0.000000
vt 0.500000 1.000000
vt 0.000000 0.000000
vt 1.000000 0.000000
vt 0.000000 0.000000
vt 1.000000 0.000000
vt 1.000000 1.000000
vt 0.000000 1.000000
vt 0.500000 1.000000
vt 0.000000 0.000000
vt 1.000000 0.000000
vt 0.500000 1.000000
vt 0.000000 0.000000
vt 1.000000 0.000000
vt 0.000000 0.000000
vt 1.000000 0.000000
vt 1.000000 1.000000
vt 0.000000 1.000000
vt 0.500000 1.000000
vt 0.000000 0.000000
vt 1.000000 0.000000
vt 0.500000 1.000000
vt 0.000000 0.000000
vt 1.000000 0.000000
vt 0.000000 0.000000
vt 1.000000 0.000000
vt 1.000000 1.000000
vt 0.000000 1.000000
vt 0.500000 1.000000
vt 0.000000 0.000000
vt 1.000000 0.000000
vt 0.500000 1.000000
vt 0.000000 0.000000
vt 1.000000 0.000000
vt 0.000000 0.000000
vt 1.000000 0.000000
vt 1.000000 1.000000
vt 0.000000 1.000000
vt 0.500000 1.000000
vt 0.000000 0.000000
vt 1.000000 0.000000
vt 0.500000 1.000000
vt 0.000000 0.000000
vt 1.000000 0.000000
vt 0.000000 0.000000
vt 1.000000 0.000000
vt 1.000000 1.000000
vt 0.000000 1.000000
vt 0.500000 1.000000
vt 0.000000 0.000000
vt 1.000000 0.000000
vt 0.500000 1.000000
vt 0.000000 0.000000
vt 1.000000 0.000000
vt 0.000000 0.000000
vt 1.000000 0.000000
vt 1.000000 1.000000
vt 0.000000 1.000000
vt 0.500000 1.000000
vt 0.000000 0.000000
vt 1.000000 0.000000
vt 0.000000 0.000000
vt 1.000000 0.000000
vt 1.000000 1.000000
vt 0.000000 1.000000
vt 0.500000 1.000000
vt 0.000000 0.000000
vt 1.000000 0.000000
vt 0.500000 1.000000
vt 0.000000 0.000000
vt 1.000000 0.000000
vt 0.000000 0.000000
vt 1.000000 0.000000
vt 1.000000 1.000000
vt 0.000000 1.000000
vt 0.500000 1.000000
vt 0.000000 0.000000
vt 1.000000 0.000000
vt 0.500000 1.000000
vt 0.000000 0.000000
vt 1.000000 0.000000
vt 0.000000 0.000000
vt 1.000000 0.000000
vt 1.000000 1.000000
vt 0.000000 1.000000
vt 0.500000 1.000000
vt 0.000000 0.000000
vt 1.000000 0.000000
vt 0.500000 1.000000
vt 0.000000 0.000000
vt 1.000000 0.000000
vt 0.000000 0.000000
vt 1.000000 0.000000
vt 1.000000 1.000000
vt 0.000000 1.000000
vt 0.500000 1.000000
vt 0.000000 0.000000
vt 1.000000 0.000000
vt 0.500000 1.000000
vt 0.000000 0.000000
vt 1.000000 0.000000
vt 0.000000 0.000000
vt 1.000000 0.000000
vt 1.000000 1.000000
vt 0.000000 1.000000
vt 0.500000 1.000000
vt 0.000000 0.000000
vt 1.000000 0.000000
vt 0.500000 1.000000
vt 0.000000 0.000000
vt 1.000000 0.000000
vt 0.000000 0.000000
vt 1.000000 0.000000
vt 1.000000 1.000000
vt 0.000000 1.000000
vt 0.500000 1.000000
vt 0.000000 0.000000
vt 1.000000 0.000000
vt 0.500000 1.000000
vt 0.000000 0.000000
vt 1.000000 0.000000
vt 0.000000 0.000000
vt 1.000000 0.000000
vt 1.000000 1.000000
vt 0.000000 1.000000
vt 0.500000 1.000000
vt 0.000000 0.000000
vt 1.000000 0.000000
vt 0.500000 1.000000
vt 0.000000 0.000000
vt 1.000000 0.000000
vt 0.000000 0.000000
vt 1.000000 0.000000
vt 1.000000 1.000000
vt 0.000000 1.000000
vt 0.500000 1.000000
vt 0.000000 0.000000
vt 1.000000 0.000000
vt 0.500000 1.000000
vt 0.000000 0.000000
vt 1.000000 0.000000
vt 0.000000 0.000000
vt 1.000000 0.000000
vt 1.000000 1.000000
vt 0.000000 1.000000
vt 0.500000 1.000000
vt 0.000000 0.000000
vt 1.000000 0.000000
vt 0.500000 1.000000
vt 0.000000 0.000000
vt 1.000000 0.000000
vt 0.000000 0.000000
vt 1.000000 0.000000
vt 1.000000 1.000000
vt 0.000000 1.000000
vt 0.500000 1.000000
vt 0.000000 0.000000
vt 1.000000 0.000000
vt 0.500000 1.000000
vt 0.000000 0.000000
vt 1.000000 0.000000
vt 0.000000 0.000000
vt 1.000000 0.000000
vt 1.000000 1.000000
vt 0.000000 1.000000
vt 0.500000 1.000000
vt 0.000000 0.000000
vt 1.000000 0.000000
vt 0.500000 1.000000
vt 0.000000 0.000000
vt 1.000000 0.000000
vt 0.000000 0.000000
vt 1.000000 0.000000
vt 1.000000 1.000000
vt 0.000000 1.000000
vt 0.500000 1.000000
vt 0.000000 0.000000
vt 1.000000 0.000000
vt 0.500000 1.000000
vt 0.000000 0.000000
vt 1.000000 0.000000
vt 0.000000 0.000000
vt 1.000000 0.000000
vt 1.000000 1.000000
vt 0.000000 1.000000
vt 0.500000 1.000000
vt 0.000000 0.000000
vt 1.000000 0.000000
vt 0.500000 1.000000
vt 0.000000 0.000000
vt 1.000000 0.000000
vt 0.000000 0.000000
vt 1.000000 0.000000
vt 1.000000 1.000000
vt 0.000000 1.000000
vt 0.500000 1.000000
vt 0.000000 0.000000
vt 1.000000 0.000000
vt 0.500000 1.000000
vt 0.000000 0.000000
vt 1.000000 0.000000
vt 0.000000 0.000000
vt 1.000000 0.000000
vt 1.000000 1.000000
vt 0.000000 1.000000
vt 0.500000 1.000000
vt 0.000000 0.000000
vt 1.000000 0.000000
vt 0.500000 1.000000
vt 0.000000 0.000000
vt 1.000000 0.000000
vt 0.000000 0.000000
vt 1.000000 0.000000
vt 1.000000 1.000000
vt 0.000000 1.000000
vt 0.500000 1.000000
vt 0.000000 0.000000
vt 1.000000 0.000000
vt 0.500000 1.000000
vt 0.000000 0.000000
vt 1.000000 0.000000
vt 0.000000 0.000000
vt 1.000000 0.000000
vt 1.000000 1.000000
vt 0.000000 1.000000
vt 0.500000 1.000000
vt 0.000000 0.000000
vt 1.000000 0.000000
vt 0.500000 1.000000
vt 0.000000 0.000000
vt 1.000000 0.000000
vt 0.000000 0.000000
vt 1.000000 0.000000
vt 1.000000 1.000000
vt 0.000000 1.000000
vt 0.500000 1.000000
vt 0.000000 0.000000
vt 1.000000 0.000000
vt 0.500000 1.000000
vt 0.000000 0.000000
vt 1.000000 0.000000
s 1
usemtl models/caelum/world/environment/rock_granite.png
f 1/1 2/2 3/3
f 4/4 5/5 6/6 7/7
f 8/8 9/9 10/10 11/11
f 12/12 13/13 14/14
f 15/15 16/16 17/17
f 18/18 19/19 20/20 21/21
f 22/22 23/23 24/24 25/25
f 26/26 27/27 28/28
f 29/29 30/30 31/31
f 32/32 33/33 34/34 35/35
f 36/36 37/37 38/38 39/39
f 40/40 41/41 42/42
f 43/43 44/44 45/45
f 46/46 47/47 48/48 49/49
f 50/50 51/51 52/52 53/53
f 54/54 55/55 56/56
f 57/57 58/58 59/59
f 60/60 61/61 62/62 63/63
f 64/64 65/65 66/66 67/67
f 68/68 69/69 70/70
f 71/71 72/72 73/73
f 74/74 75/75 76/76 77/77
f 78/78 79/79 80/80 81/81
f 82/82 83/83 84/84
f 85/85 86/86 87/87
f 88/88 89/89 90/90 91/91
f 92/92 93/93 94/94 95/95
f 96/96 97/97 98/98
f 99/99 100/100 101/101
f 102/102 103/103 104/104 105/105
f 106/106 107/107 108/108 109/109
f 110/110 111/111 112/112
f 113/113 114/114 115/115
f 116/116 117/117 118/118 119/119
f 120/120 121/121 122/122 123/123
f 124/124 125/125 126/126
f 127/127 128/128 129/129
f 130/130 131/131 132/132 133/133
f 134/134 135/135 136/136 137/137
f 138/138 139/139 140/140
usemtl models/caelum/world/resources/ca_vein_tin.png
f 141/141 142/142 143/143
f 144/144 145/145 146/146 147/147
f 148/148 149/149 150/150
f 151/151 152/152 153/153
f 154/154 155/155 156/156 157/157
f 158/158 159/159 160/160
f 161/161 162/162 163/163
f 164/164 165/165 166/166 167/167
f 168/168 169/169 170/170
f 171/171 172/172 173/173
f 174/174 175/175 176/176 177/177
f 178/178 179/179 180/180
f 181/181 182/182 183/183
f 184/184 185/185 186/186 187/187
f 188/188 189/189 190/190
f 191/191 192/192 193/193
f 194/194 195/195 196/196 197/197
f 198/198 199/199 200/200
f 201/201 202/202 203/203
f 204/204 205/205 206/206 207/207
f 208/208 209/209 210/210
f 211/211 212/212 213/213
f 214/214 215/215 216/216 217/217
f 218/218 219/219 220/220
f 221/221 222/222 223/223
f 224/224 225/225 226/226 227/227
f 228/228 229/229 230/230
f 231/231 232/232 233/233
f 234/234 235/235 236/236 237/237
f 238/238 239/239 240/240
f 241/241 242/242 243/243
f 244/244 245/245 246/246 247/247
f 248/248 249/249 250/250
f 251/251 252/252 253/253
f 254/254 255/255 256/256 257/257
f 258/258 259/259 260/260
f 261/261 262/262 263/263
f 264/264 265/265 266/266 267/267
f 268/268 269/269 270/270
f 271/271 272/272 273/273
f 274/274 275/275 276/276 277/277
f 278/278 279/279 280/280
f 281/281 282/282 283/283
f 284/284 285/285 286/286 287/287
f 288/288 289/289 290/290
f 291/291 292/292 293/293
f 294/294 295/295 296/296 297/297
f 298/298 299/299 300/300
f 301/301 302/302 303/303
f 304/304 305/305 306/306 307/307
f 308/308 309/309 310/310
f 311/311 312/312 313/313
f 314/314 315/315 316/316 317/317
f 318/318 319/319 320/320
f 321/321 322/322 323/323
f 324/324 325/325 326/326 327/327
f 328/328 329/329 330/330
f 331/331 332/332 333/333
f 334/334 335/335 336/336 337/337
f 338/338 339/339 340/340
f 341/341 342/342 343/343
f 344/344 345/345 346/346 347/347
f 348/348 349/349 350/350
f 351/351 352/352 353/353
f 354/354 355/355 356/356 357/357
f 358/358 359/359 360/360
f 361/361 362/362 363/363
f 364/364 365/365 366/366 367/367
f 368/368 369/369 370/370
f 371/371 372/372 373/373
f 374/374 375/375 376/376 377/377
f 378/378 379/379 380/380
f 381/381 382/382 383/383
f 384/384 385/385 386/386 387/387
f 388/388 389/389 390/390
f 391/391 392/392 393/393
f 394/394 395/395 396/396 397/397
f 398/398 399/399 400/400
f 401/401 402/402 403/403
f 404/404 405/405 406/406 407/407
f 408/408 409/409 410/410
f 411/411 412/412 413/413
f 414/414 415/415 416/416 417/417
f 418/418 419/419 420/420
f 421/421 422/422 423/423
f 424/424 425/425 426/426 427/427
f 428/428 429/429 430/430
f 431/431 432/432 433/433
f 434/434 435/435 436/436 437/437
f 438/438 439/439 440/440
f 441/441 442/442 443/443
f 444/444 445/445 446/446 447/447
f 448/448 449/449 450/450
f 451/451 452/452 453/453
f 454/454 455/455 456/456 457/457
f 458/458 459/459 460/460
f 461/461 462/462 463/463
f 464/464 465/465 466/466 467/467
f 468/468 469/469 470/470
f 471/471 472/472 473/473
f 474/474 475/475 476/476 477/477
f 478/478 479/479 480/480
f 481/481 482/482 483/483
f 484/484 485/485 486/486 487/487
f 488/488 489/489 490/490
f 491/491 492/492 493/493
f 494/494 495/495 496/496 497/497
f 498/498 499/499 500/500
f 501/501 502/502 503/503
f 504/504 505/505 506/506 507/507
f 508/508 509/509 510/510
f 511/511 512/512 513/513
f 514/514 515/515 516/516 517/517
f 518/518 519/519 520/520
f 521/521 522/522 523/523
f 524/524 525/525 526/526 527/527
f 528/528 529/529 530/530
f 531/531 532/532 533/533
f 534/534 535/535 536/536 537/537
f 538/538 539/539 540/540
f 541/541 542/542 543/543
f 544/544 545/545 546/546 547/547
f 548/548 549/549 550/550
f 551/551 552/552 553/553
f 554/554 555/555 556/556 557/557
f 558/558 559/559 560/560
f 561/561 562/562 563/563
f 564/564 565/565 566/566 567/567
f 568/568 569/569 570/570
f 571/571 572/572 573/573
f 574/574 575/575 576/576 577/577
f 578/578 579/579 580/580
f 581/581 582/582 583/583
f 584/584 585/585 586/586 587/587
f 588/588 589/589 590/590
f 591/591 592/592 593/593
f 594/594 595/595 596/596 597/597
f 598/598 599/599 600/600
f 601/601 602/602 603/603
f 604/604 605/605 606/606 607/607
f 608/608 609/609 610/610
f 611/611 612/612 613/613
f 614/614 615/615 616/616 617/617
f 618/618 619/619 620/620
f 621/621 622/622 623/623
f 624/624 625/625 626/626 627/627
f 628/628 629/629 630/630
f 631/631 632/632 633/633
f 634/634 635/635 636/636 637/637
f 638/638 639/639 640/640
f 641/641 642/642 643/643
f 644/644 645/645 646/646 647/647
f 648/648 649/649 650/650
f 651/651 652/652 653/653
f 654/654 655/655 656/656 657/657
f 658/658 659/659 660/660
f 661/661 662/662 663/663
f 664/664 665/665 666/666 667/667
f 668/668 669/669 670/670
f 671/671 672/672 673/673
f 674/674 675/675 676/676 677/677
f 678/678 679/679 680/680
f 681/681 682/682 683/683
f 684/684 685/685 686/686 687/687
f 688/688 689/689 690/690
f 691/691 692/692 693/693
f 694/694 695/695 696/696 697/697
f 698/698 699/699 700/700
f 701/701 702/702 703/703
f 704/704 705/705 706/706 707/707
f 708/708 709/709 710/710
f 711/711 712/712 713/713
f 714/714 715/715 716/716 717/717
f 718/718 719/719 720/720
f 721/721 722/722 723/723
f 724/724 725/725 726/726 727/727
f 728/728 729/729 730/730
f 731/731 732/732 733/733
f 734/734 735/735 736/736 737/737
f 738/738 739/739 740/740
f 741/741 742/742 743/743
f 744/744 745/745 746/746 747/747
f 748/748 749/749 750/750
f 751/751 752/752 753/753
f 754/754 755/755 756/756 757/757
f 758/758 759/759 760/760
f 761/761 762/762 763/763
f 764/764 765/765 766/766 767/767
f 768/768 769/769 770/770
f 771/771 772/772 773/773 774/774
f 775/775 776/776 777/777
f 778/778 779/779 780/780
f 781/781 782/782 783/783 784/784
f 785/785 786/786 787/787
f 788/788 789/789 790/790
f 791/791 792/792 793/793 794/794
f 795/795 796/796 797/797
f 798/798 799/799 800/800
f 801/801 802/802 803/803 804/804
f 805/805 806/806 807/807
f 808/808 809/809 810/810
f 811/811 812/812 813/813 814/814
f 815/815 816/816 817/817
f 818/818 819/819 820/820
f 821/821 822/822 823/823 824/824
f 825/825 826/826 827/827
f 828/828 829/829 830/830
f 831/831 832/832 833/833 834/834
f 835/835 836/836 837/837
f 838/838 839/839 840/840
f 841/841 842/842 843/843 844/844
f 845/845 846/846 847/847
f 848/848 849/849 850/850
f 851/851 852/852 853/853 854/854
f 855/855 856/856 857/857
f 858/858 859/859 860/860
f 861/861 862/862 863/863 864/864
f 865/865 866/866 867/867
f 868/868 869/869 870/870
f 871/871 872/872 873/873 874/874
f 875/875 876/876 877/877
f 878/878 879/879 880/880
f 881/881 882/882 883/883 884/884
f 885/885 886/886 887/887
f 888/888 889/889 890/890
f 891/891 892/892 893/893 894/894
f 895/895 896/896 897/897
f 898/898 899/899 900/900
f 901/901 902/902 903/903 904/904
f 905/905 906/906 907/907
f 908/908 909/909 910/910
f 911/911 912/912 913/913 914/914
f 915/915 916/916 917/917
f 918/918 919/919 920/920
f 921/921 922/922 923/923 924/924
f 925/925 926/926 927/927
f 928/928 929/929 930/930
f 931/931 932/932 933/933 934/934
f 935/935 936/936 937/937
f 938/938 939/939 940/940
f 941/941 942/942 943/943 944/944
f 945/945 946/946 947/947
f 948/948 949/949 950/950
