# Modelo original generado para Caelum Argenteum.
# Ejes OBJ: X ancho, Y altura, Z profundidad.
o ca_vein_iron2
v 0.000000 0.000000 0.000000
v 40.112299 1.509172 0.000000
v 25.505575 -1.616829 16.003946
v 40.112299 1.509172 0.000000
v 49.140410 17.847371 0.000000
v 39.114458 15.805749 24.543092
v 25.505575 -1.616829 16.003946
v 49.140410 17.847371 0.000000
v 36.239048 36.899300 0.000000
v 29.673509 36.897259 18.619194
v 39.114458 15.805749 24.543092
v 5.207405 52.000000 7.668395
v 29.673509 36.897259 18.619194
v 36.239048 36.899300 0.000000
v 0.000000 0.000000 0.000000
v 25.505575 -1.616829 16.003946
v 12.397668 -1.175742 32.952996
v 25.505575 -1.616829 16.003946
v 39.114458 15.805749 24.543092
v 15.225390 16.688018 40.469077
v 12.397668 -1.175742 32.952996
v 39.114458 15.805749 24.543092
v 29.673509 36.897259 18.619194
v 11.231458 34.673033 29.853208
v 15.225390 16.688018 40.469077
v 5.207405 52.000000 7.668395
v 11.231458 34.673033 29.853208
v 29.673509 36.897259 18.619194
v 0.000000 0.000000 0.000000
v 12.397668 -1.175742 32.952996
v -12.856734 -0.897793 34.173191
v 12.397668 -1.175742 32.952996
v 15.225390 16.688018 40.469077
v -13.001051 17.472609 34.556785
v -12.856734 -0.897793 34.173191
v 15.225390 16.688018 40.469077
v 11.231458 34.673033 29.853208
v -8.554000 34.566585 22.736527
v -13.001051 17.472609 34.556785
v 5.207405 52.000000 7.668395
v -8.554000 34.566585 22.736527
v 11.231458 34.673033 29.853208
v 0.000000 0.000000 0.000000
v -12.856734 -0.897793 34.173191
v -27.045671 -1.674725 16.970308
v -12.856734 -0.897793 34.173191
v -13.001051 17.472609 34.556785
v -32.627273 17.990406 20.472588
v -27.045671 -1.674725 16.970308
v -13.001051 17.472609 34.556785
v -8.554000 34.566585 22.736527
v -28.048653 34.510314 17.599647
v -32.627273 17.990406 20.472588
v 5.207405 52.000000 7.668395
v -28.048653 34.510314 17.599647
v -8.554000 34.566585 22.736527
v 0.000000 0.000000 0.000000
v -27.045671 -1.674725 16.970308
v -36.862772 -0.292465 0.000000
v -27.045671 -1.674725 16.970308
v -32.627273 17.990406 20.472588
v -39.461383 17.335512 0.000000
v -36.862772 -0.292465 0.000000
v -32.627273 17.990406 20.472588
v -28.048653 34.510314 17.599647
v -29.563131 34.993180 0.000000
v -39.461383 17.335512 0.000000
v 5.207405 52.000000 7.668395
v -29.563131 34.993180 0.000000
v -28.048653 34.510314 17.599647
v 0.000000 0.000000 0.000000
v -36.862772 -0.292465 0.000000
v -29.136504 -1.078635 -18.282240
v -36.862772 -0.292465 0.000000
v -39.461383 17.335512 0.000000
v -39.909521 17.717732 -25.041969
v -29.136504 -1.078635 -18.282240
v -39.461383 17.335512 0.000000
v -29.563131 34.993180 0.000000
v -28.472125 37.130586 -17.865363
v -39.909521 17.717732 -25.041969
v 5.207405 52.000000 7.668395
v -28.472125 37.130586 -17.865363
v -29.563131 34.993180 0.000000
v 0.000000 0.000000 0.000000
v -29.136504 -1.078635 -18.282240
v -13.095230 1.692565 -34.807114
v -29.136504 -1.078635 -18.282240
v -39.909521 17.717732 -25.041969
v -11.268891 18.323521 -29.952706
v -13.095230 1.692565 -34.807114
v -39.909521 17.717732 -25.041969
v -28.472125 37.130586 -17.865363
v -10.337342 36.341323 -27.476648
v -11.268891 18.323521 -29.952706
v 5.207405 52.000000 7.668395
v -10.337342 36.341323 -27.476648
v -28.472125 37.130586 -17.865363
v 0.000000 0.000000 0.000000
v -13.095230 1.692565 -34.807114
v 11.659244 -0.174306 -30.990264
v -13.095230 1.692565 -34.807114
v -11.268891 18.323521 -29.952706
v 14.169311 17.000596 -37.662021
v 11.659244 -0.174306 -30.990264
v -11.268891 18.323521 -29.952706
v -10.337342 36.341323 -27.476648
v 9.139621 35.004264 -24.293107
v 14.169311 17.000596 -37.662021
v 5.207405 52.000000 7.668395
v 9.139621 35.004264 -24.293107
v -10.337342 36.341323 -27.476648
v 0.000000 0.000000 0.000000
v 11.659244 -0.174306 -30.990264
v 24.608543 0.908800 -15.441086
v 11.659244 -0.174306 -30.990264
v 14.169311 17.000596 -37.662021
v 41.758616 15.007681 -26.202218
v 24.608543 0.908800 -15.441086
v 14.169311 17.000596 -37.662021
v 9.139621 35.004264 -24.293107
v 27.177923 34.146811 -17.053292
v 41.758616 15.007681 -26.202218
v 5.207405 52.000000 7.668395
v 27.177923 34.146811 -17.053292
v 9.139621 35.004264 -24.293107
v 0.000000 0.000000 0.000000
v 24.608543 0.908800 -15.441086
v 40.112299 1.509172 0.000000
v 24.608543 0.908800 -15.441086
v 41.758616 15.007681 -26.202218
v 49.140410 17.847371 0.000000
v 40.112299 1.509172 0.000000
v 41.758616 15.007681 -26.202218
v 27.177923 34.146811 -17.053292
v 36.239048 36.899300 0.000000
v 49.140410 17.847371 0.000000
v 5.207405 52.000000 7.668395
v 36.239048 36.899300 0.000000
v 27.177923 34.146811 -17.053292
v 40.571105 8.524597 2.774962
v 43.894108 11.782836 7.420121
v 45.381094 11.749207 2.774962
v 45.381094 11.749207 2.774962
v 43.894108 11.782836 7.420121
v 43.106619 17.383622 6.319306
v 45.106830 17.600827 2.774962
v 40.571105 20.424367 2.774962
v 45.106830 17.600827 2.774962
v 43.106619 17.383622 6.319306
v 40.571105 8.524597 2.774962
v 39.673389 11.746769 7.159528
v 43.894108 11.782836 7.420121
v 43.894108 11.782836 7.420121
v 39.673389 11.746769 7.159528
v 39.494991 17.342638 8.030845
v 43.106619 17.383622 6.319306
v 40.571105 20.424367 2.774962
v 43.106619 17.383622 6.319306
v 39.494991 17.342638 8.030845
v 40.571105 8.524597 2.774962
v 36.125093 11.112267 5.161785
v 39.673389 11.746769 7.159528
v 39.673389 11.746769 7.159528
v 36.125093 11.112267 5.161785
v 36.137967 17.424670 5.154873
v 39.494991 17.342638 8.030845
v 40.571105 20.424367 2.774962
v 39.494991 17.342638 8.030845
v 36.137967 17.424670 5.154873
v 40.571105 8.524597 2.774962
v 36.561441 11.756151 0.622391
v 36.125093 11.112267 5.161785
v 36.125093 11.112267 5.161785
v 36.561441 11.756151 0.622391
v 36.226579 17.329706 0.442622
v 36.137967 17.424670 5.154873
v 40.571105 20.424367 2.774962
v 36.137967 17.424670 5.154873
v 36.226579 17.329706 0.442622
v 40.571105 8.524597 2.774962
v 39.385986 11.162570 -3.013319
v 36.561441 11.756151 0.622391
v 36.561441 11.756151 0.622391
v 39.385986 11.162570 -3.013319
v 39.661457 17.124065 -1.667877
v 36.226579 17.329706 0.442622
v 40.571105 20.424367 2.774962
v 36.226579 17.329706 0.442622
v 39.661457 17.124065 -1.667877
v 40.571105 8.524597 2.774962
v 43.808280 11.495086 -1.750218
v 39.385986 11.162570 -3.013319
v 39.385986 11.162570 -3.013319
v 43.808280 11.495086 -1.750218
v 43.518574 17.295296 -1.345245
v 39.661457 17.124065 -1.667877
v 40.571105 20.424367 2.774962
v 39.661457 17.124065 -1.667877
v 43.518574 17.295296 -1.345245
v 40.571105 8.524597 2.774962
v 45.381094 11.749207 2.774962
v 43.808280 11.495086 -1.750218
v 43.808280 11.495086 -1.750218
v 45.381094 11.749207 2.774962
v 45.106830 17.600827 2.774962
v 43.518574 17.295296 -1.345245
v 40.571105 20.424367 2.774962
v 43.518574 17.295296 -1.345245
v 45.106830 17.600827 2.774962
v 20.926550 13.366664 18.079615
v 23.491593 15.658032 22.470625
v 24.859860 15.879106 18.079615
v 24.859860 15.879106 18.079615
v 23.491593 15.658032 22.470625
v 23.815485 20.715038 23.025085
v 26.136568 20.736888 18.079615
v 20.926550 23.308206 18.079615
v 26.136568 20.736888 18.079615
v 23.815485 20.715038 23.025085
v 20.926550 13.366664 18.079615
v 19.974138 15.794099 23.776173
v 23.491593 15.658032 22.470625
v 23.491593 15.658032 22.470625
v 19.974138 15.794099 23.776173
v 19.887914 21.062624 24.291897
v 23.815485 20.715038 23.025085
v 20.926550 23.308206 18.079615
v 23.815485 20.715038 23.025085
v 19.887914 21.062624 24.291897
v 20.926550 13.366664 18.079615
v 16.158917 16.207538 21.214001
v 19.974138 15.794099 23.776173
v 19.974138 15.794099 23.776173
v 16.158917 16.207538 21.214001
v 17.082383 20.992236 20.606886
v 19.887914 21.062624 24.291897
v 20.926550 23.308206 18.079615
v 19.887914 21.062624 24.291897
v 17.082383 20.992236 20.606886
v 20.926550 13.366664 18.079615
v 16.155553 15.519574 14.943017
v 16.158917 16.207538 21.214001
v 16.158917 16.207538 21.214001
v 16.155553 15.519574 14.943017
v 17.554733 20.404680 15.862880
v 17.082383 20.992236 20.606886
v 20.926550 23.308206 18.079615
v 17.082383 20.992236 20.606886
v 17.554733 20.404680 15.862880
v 20.926550 13.366664 18.079615
v 19.903430 16.162716 11.960137
v 16.155553 15.519574 14.943017
v 16.155553 15.519574 14.943017
v 19.903430 16.162716 11.960137
v 19.862952 21.194458 11.718031
v 17.554733 20.404680 15.862880
v 20.926550 23.308206 18.079615
v 17.554733 20.404680 15.862880
v 19.862952 21.194458 11.718031
v 20.926550 13.366664 18.079615
v 24.067396 16.212957 12.702907
v 19.903430 16.162716 11.960137
v 19.903430 16.162716 11.960137
v 24.067396 16.212957 12.702907
v 23.821643 20.892944 13.123604
v 19.862952 21.194458 11.718031
v 20.926550 23.308206 18.079615
v 19.862952 21.194458 11.718031
v 23.821643 20.892944 13.123604
v 20.926550 13.366664 18.079615
v 24.859860 15.879106 18.079615
v 24.067396 16.212957 12.702907
v 24.067396 16.212957 12.702907
v 24.859860 15.879106 18.079615
v 26.136568 20.736888 18.079615
v 23.821643 20.892944 13.123604
v 20.926550 23.308206 18.079615
v 23.821643 20.892944 13.123604
v 26.136568 20.736888 18.079615
v 5.974240 31.260888 23.564259
v 11.059401 33.504086 28.276513
v 14.613134 34.265928 23.564259
v 14.613134 34.265928 23.564259
v 11.059401 33.504086 28.276513
v 10.425136 39.179137 27.688761
v 15.849168 38.987140 23.564259
v 5.974240 41.723914 23.564259
v 15.849168 38.987140 23.564259
v 10.425136 39.179137 27.688761
v 5.974240 31.260888 23.564259
v 4.006999 33.793382 29.933671
v 11.059401 33.504086 28.276513
v 11.059401 33.504086 28.276513
v 4.006999 33.793382 29.933671
v 4.106010 39.576348 29.613099
v 10.425136 39.179137 27.688761
v 5.974240 41.723914 23.564259
v 10.425136 39.179137 27.688761
v 4.106010 39.576348 29.613099
v 5.974240 31.260888 23.564259
v -2.424645 33.682986 26.553255
v 4.006999 33.793382 29.933671
v 4.006999 33.793382 29.933671
v -2.424645 33.682986 26.553255
v -1.755069 39.577360 26.314966
v 4.106010 39.576348 29.613099
v 5.974240 41.723914 23.564259
v 4.106010 39.576348 29.613099
v -1.755069 39.577360 26.314966
v 5.974240 31.260888 23.564259
v -0.771521 33.506080 21.163576
v -2.424645 33.682986 26.553255
v -2.424645 33.682986 26.553255
v -0.771521 33.506080 21.163576
v -1.328073 39.556381 20.965510
v -1.755069 39.577360 26.314966
v 5.974240 41.723914 23.564259
v -1.755069 39.577360 26.314966
v -1.328073 39.556381 20.965510
v 5.974240 31.260888 23.564259
v 4.114702 34.288123 17.543562
v -0.771521 33.506080 21.163576
v -0.771521 33.506080 21.163576
v 4.114702 34.288123 17.543562
v 4.148087 38.887261 17.651655
v -1.328073 39.556381 20.965510
v 5.974240 41.723914 23.564259
v -1.328073 39.556381 20.965510
v 4.148087 38.887261 17.651655
v 5.974240 31.260888 23.564259
v 10.960283 34.303688 18.943854
v 4.114702 34.288123 17.543562
v 4.114702 34.288123 17.543562
v 10.960283 34.303688 18.943854
v 11.134438 39.254171 18.782470
v 4.148087 38.887261 17.651655
v 5.974240 41.723914 23.564259
v 4.148087 38.887261 17.651655
v 11.134438 39.254171 18.782470
v 5.974240 31.260888 23.564259
v 14.613134 34.265928 23.564259
v 10.960283 34.303688 18.943854
v 10.960283 34.303688 18.943854
v 14.613134 34.265928 23.564259
v 15.849168 38.987140 23.564259
v 11.134438 39.254171 18.782470
v 5.974240 41.723914 23.564259
v 11.134438 39.254171 18.782470
v 15.849168 38.987140 23.564259
v -12.991635 28.164050 28.776676
v -7.536816 30.956601 33.522280
v -6.426323 30.722336 28.776676
v -6.426323 30.722336 28.776676
v -7.536816 30.956601 33.522280
v -8.107013 37.113236 33.026219
v -4.339705 36.846085 28.776676
v -12.991635 40.360075 28.776676
v -4.339705 36.846085 28.776676
v -8.107013 37.113236 33.026219
v -12.991635 28.164050 28.776676
v -14.711833 31.624254 34.005542
v -7.536816 30.956601 33.522280
v -7.536816 30.956601 33.522280
v -14.711833 31.624254 34.005542
v -14.646974 37.291884 33.808391
v -8.107013 37.113236 33.026219
v -12.991635 40.360075 28.776676
v -8.107013 37.113236 33.026219
v -14.646974 37.291884 33.808391
v -12.991635 28.164050 28.776676
v -19.851713 30.981247 31.068705
v -14.711833 31.624254 34.005542
v -14.711833 31.624254 34.005542
v -19.851713 30.981247 31.068705
v -20.801726 37.265321 31.386115
v -14.646974 37.291884 33.808391
v -12.991635 40.360075 28.776676
v -14.646974 37.291884 33.808391
v -20.801726 37.265321 31.386115
v -12.991635 28.164050 28.776676
v -18.966462 30.926657 26.780420
v -19.851713 30.981247 31.068705
v -19.851713 30.981247 31.068705
v -18.966462 30.926657 26.780420
v -21.237792 37.320282 26.021543
v -20.801726 37.265321 31.386115
v -12.991635 40.360075 28.776676
v -20.801726 37.265321 31.386115
v -21.237792 37.320282 26.021543
v -12.991635 28.164050 28.776676
v -14.953313 31.007865 22.813785
v -18.966462 30.926657 26.780420
v -18.966462 30.926657 26.780420
v -14.953313 31.007865 22.813785
v -15.013337 37.678960 22.631331
v -21.237792 37.320282 26.021543
v -12.991635 40.360075 28.776676
v -21.237792 37.320282 26.021543
v -15.013337 37.678960 22.631331
v -12.991635 28.164050 28.776676
v -7.334219 31.027108 23.854816
v -14.953313 31.007865 22.813785
v -14.953313 31.007865 22.813785
v -7.334219 31.027108 23.854816
v -8.467296 36.852178 24.840575
v -15.013337 37.678960 22.631331
v -12.991635 40.360075 28.776676
v -15.013337 37.678960 22.631331
v -8.467296 36.852178 24.840575
v -12.991635 28.164050 28.776676
v -6.426323 30.722336 28.776676
v -7.334219 31.027108 23.854816
v -7.334219 31.027108 23.854816
v -6.426323 30.722336 28.776676
v -4.339705 36.846085 28.776676
v -8.467296 36.852178 24.840575
v -12.991635 40.360075 28.776676
v -8.467296 36.852178 24.840575
v -4.339705 36.846085 28.776676
v -33.789809 18.141007 6.308919
v -29.236355 20.050319 12.488612
v -26.376433 19.968110 6.308919
v -26.376433 19.968110 6.308919
v -29.236355 20.050319 12.488612
v -28.918158 24.068881 12.920452
v -26.394666 24.217518 6.308919
v -33.789809 26.287233 6.308919
v -26.394666 24.217518 6.308919
v -28.918158 24.068881 12.920452
v -33.789809 18.141007 6.308919
v -35.383335 19.833805 13.865108
v -29.236355 20.050319 12.488612
v -29.236355 20.050319 12.488612
v -35.383335 19.833805 13.865108
v -35.590151 24.293127 14.845793
v -28.918158 24.068881 12.920452
v -33.789809 26.287233 6.308919
v -28.918158 24.068881 12.920452
v -35.590151 24.293127 14.845793
v -33.789809 18.141007 6.308919
v -39.431189 20.439027 9.249215
v -35.383335 19.833805 13.865108
v -35.383335 19.833805 13.865108
v -39.431189 20.439027 9.249215
v -40.026953 24.273905 9.559728
v -35.590151 24.293127 14.845793
v -33.789809 26.287233 6.308919
v -35.590151 24.293127 14.845793
v -40.026953 24.273905 9.559728
v -33.789809 18.141007 6.308919
v -41.295522 20.255413 2.396929
v -39.431189 20.439027 9.249215
v -39.431189 20.439027 9.249215
v -41.295522 20.255413 2.396929
v -40.598901 24.382884 2.760008
v -40.026953 24.273905 9.559728
v -33.789809 26.287233 6.308919
v -40.026953 24.273905 9.559728
v -40.598901 24.382884 2.760008
v -33.789809 18.141007 6.308919
v -35.490191 20.125362 -1.753962
v -41.295522 20.255413 2.396929
v -41.295522 20.255413 2.396929
v -35.490191 20.125362 -1.753962
v -35.733649 24.005150 -2.908391
v -40.598901 24.382884 2.760008
v -33.789809 26.287233 6.308919
v -40.598901 24.382884 2.760008
v -35.733649 24.005150 -2.908391
v -33.789809 18.141007 6.308919
v -29.948882 20.123504 1.096226
v -35.490191 20.125362 -1.753962
v -35.490191 20.125362 -1.753962
v -29.948882 20.123504 1.096226
v -28.653678 24.483874 -0.661552
v -35.733649 24.005150 -2.908391
v -33.789809 26.287233 6.308919
v -35.733649 24.005150 -2.908391
v -28.653678 24.483874 -0.661552
v -33.789809 18.141007 6.308919
v -26.376433 19.968110 6.308919
v -29.948882 20.123504 1.096226
v -29.948882 20.123504 1.096226
v -26.376433 19.968110 6.308919
v -26.394666 24.217518 6.308919
v -28.653678 24.483874 -0.661552
v -33.789809 26.287233 6.308919
v -28.653678 24.483874 -0.661552
v -26.394666 24.217518 6.308919
v -36.241958 31.489027 -7.277257
v -30.612209 32.775474 0.436359
v -27.148680 33.113663 -7.277257
v -27.148680 33.113663 -7.277257
v -30.612209 32.775474 0.436359
v -31.323786 35.909087 -0.538610
v -29.542655 36.066199 -7.277257
v -36.241958 37.684430 -7.277257
v -29.542655 36.066199 -7.277257
v -31.323786 35.909087 -0.538610
v -36.241958 31.489027 -7.277257
v -38.046382 33.296034 1.360986
v -30.612209 32.775474 0.436359
v -30.612209 32.775474 0.436359
v -38.046382 33.296034 1.360986
v -37.943409 36.187124 0.868029
v -31.323786 35.909087 -0.538610
v -36.241958 37.684430 -7.277257
v -31.323786 35.909087 -0.538610
v -37.943409 36.187124 0.868029
v -36.241958 31.489027 -7.277257
v -43.448797 32.780898 -3.485036
v -38.046382 33.296034 1.360986
v -38.046382 33.296034 1.360986
v -43.448797 32.780898 -3.485036
v -44.428203 36.146826 -2.969675
v -37.943409 36.187124 0.868029
v -36.241958 37.684430 -7.277257
v -37.943409 36.187124 0.868029
v -44.428203 36.146826 -2.969675
v -36.241958 31.489027 -7.277257
v -43.029973 32.971721 -10.849093
v -43.448797 32.780898 -3.485036
v -43.448797 32.780898 -3.485036
v -43.029973 32.971721 -10.849093
v -42.571966 36.083310 -10.608092
v -44.428203 36.146826 -2.969675
v -36.241958 37.684430 -7.277257
v -44.428203 36.146826 -2.969675
v -42.571966 36.083310 -10.608092
v -36.241958 31.489027 -7.277257
v -38.085961 32.909726 -16.104976
v -43.029973 32.971721 -10.849093
v -43.029973 32.971721 -10.849093
v -38.085961 32.909726 -16.104976
v -38.027549 36.220196 -15.825344
v -42.571966 36.083310 -10.608092
v -36.241958 37.684430 -7.277257
v -42.571966 36.083310 -10.608092
v -38.027549 36.220196 -15.825344
v -36.241958 31.489027 -7.277257
v -31.607236 33.219897 -13.627534
v -38.085961 32.909726 -16.104976
v -38.085961 32.909726 -16.104976
v -31.607236 33.219897 -13.627534
v -30.631950 36.325581 -14.963826
v -38.027549 36.220196 -15.825344
v -36.241958 37.684430 -7.277257
v -38.027549 36.220196 -15.825344
v -30.631950 36.325581 -14.963826
v -36.241958 31.489027 -7.277257
v -27.148680 33.113663 -7.277257
v -31.607236 33.219897 -13.627534
v -31.607236 33.219897 -13.627534
v -27.148680 33.113663 -7.277257
v -29.542655 36.066199 -7.277257
v -30.631950 36.325581 -14.963826
v -36.241958 37.684430 -7.277257
v -30.631950 36.325581 -14.963826
v -29.542655 36.066199 -7.277257
v -16.665064 32.227173 -25.515683
v -14.318372 35.141368 -20.134737
v -12.517536 35.182222 -25.515683
v -12.517536 35.182222 -25.515683
v -14.318372 35.141368 -20.134737
v -14.268248 41.330997 -20.019801
v -11.929158 41.260136 -25.515683
v -16.665064 44.738126 -25.515683
v -11.929158 41.260136 -25.515683
v -14.268248 41.330997 -20.019801
v -16.665064 32.227173 -25.515683
v -17.610369 35.040745 -17.942259
v -14.318372 35.141368 -20.134737
v -14.318372 35.141368 -20.134737
v -17.610369 35.040745 -17.942259
v -17.722027 41.882023 -17.047697
v -14.268248 41.330997 -20.019801
v -16.665064 44.738126 -25.515683
v -14.268248 41.330997 -20.019801
v -17.722027 41.882023 -17.047697
v -16.665064 32.227173 -25.515683
v -21.468571 34.912797 -21.285678
v -17.610369 35.040745 -17.942259
v -17.610369 35.040745 -17.942259
v -21.468571 34.912797 -21.285678
v -20.755505 41.401276 -21.913609
v -17.722027 41.882023 -17.047697
v -16.665064 44.738126 -25.515683
v -17.722027 41.882023 -17.047697
v -20.755505 41.401276 -21.913609
v -16.665064 32.227173 -25.515683
v -21.262691 35.039483 -29.564388
v -21.468571 34.912797 -21.285678
v -21.468571 34.912797 -21.285678
v -21.262691 35.039483 -29.564388
v -21.042097 41.533908 -29.370132
v -20.755505 41.401276 -21.913609
v -16.665064 44.738126 -25.515683
v -20.755505 41.401276 -21.913609
v -21.042097 41.533908 -29.370132
v -16.665064 32.227173 -25.515683
v -17.784132 35.150714 -34.481231
v -21.262691 35.039483 -29.564388
v -21.262691 35.039483 -29.564388
v -17.784132 35.150714 -34.481231
v -17.571106 41.861687 -32.774549
v -21.042097 41.533908 -29.370132
v -16.665064 44.738126 -25.515683
v -21.042097 41.533908 -29.370132
v -17.571106 41.861687 -32.774549
v -16.665064 32.227173 -25.515683
v -13.580704 35.837646 -32.588097
v -17.784132 35.150714 -34.481231
v -17.784132 35.150714 -34.481231
v -13.580704 35.837646 -32.588097
v -13.862872 41.502810 -31.941089
v -17.571106 41.861687 -32.774549
v -16.665064 44.738126 -25.515683
v -17.571106 41.861687 -32.774549
v -13.862872 41.502810 -31.941089
v -16.665064 32.227173 -25.515683
v -12.517536 35.182222 -25.515683
v -13.580704 35.837646 -32.588097
v -13.580704 35.837646 -32.588097
v -12.517536 35.182222 -25.515683
v -11.929158 41.260136 -25.515683
v -13.862872 41.502810 -31.941089
v -16.665064 44.738126 -25.515683
v -13.862872 41.502810 -31.941089
v -11.929158 41.260136 -25.515683
v 12.107377 30.885120 -31.198945
v 15.653062 32.776960 -26.851956
v 17.346074 32.340116 -31.198945
v 17.346074 32.340116 -31.198945
v 15.653062 32.776960 -26.851956
v 15.756417 35.940391 -26.725243
v 16.870709 36.000802 -31.198945
v 12.107377 37.555422 -31.198945
v 16.870709 36.000802 -31.198945
v 15.756417 35.940391 -26.725243
v 12.107377 30.885120 -31.198945
v 10.746920 32.671145 -25.371327
v 15.653062 32.776960 -26.851956
v 15.653062 32.776960 -26.851956
v 10.746920 32.671145 -25.371327
v 10.763112 35.655841 -25.440685
v 15.756417 35.940391 -26.725243
v 12.107377 37.555422 -31.198945
v 15.756417 35.940391 -26.725243
v 10.763112 35.655841 -25.440685
v 12.107377 30.885120 -31.198945
v 7.104589 32.823710 -28.843460
v 10.746920 32.671145 -25.371327
v 10.746920 32.671145 -25.371327
v 7.104589 32.823710 -28.843460
v 6.991784 35.825662 -28.790347
v 10.763112 35.655841 -25.440685
v 12.107377 37.555422 -31.198945
v 10.763112 35.655841 -25.440685
v 6.991784 35.825662 -28.790347
v 12.107377 30.885120 -31.198945
v 7.684453 32.271774 -33.281411
v 7.104589 32.823710 -28.843460
v 7.104589 32.823710 -28.843460
v 7.684453 32.271774 -33.281411
v 6.070916 35.973890 -34.041120
v 6.991784 35.825662 -28.790347
v 12.107377 37.555422 -31.198945
v 6.991784 35.825662 -28.790347
v 6.070916 35.973890 -34.041120
v 12.107377 30.885120 -31.198945
v 10.623011 32.334512 -37.557337
v 7.684453 32.271774 -33.281411
v 7.684453 32.271774 -33.281411
v 10.623011 32.334512 -37.557337
v 10.739158 36.012001 -37.059813
v 6.070916 35.973890 -34.041120
v 12.107377 37.555422 -31.198945
v 6.070916 35.973890 -34.041120
v 10.739158 36.012001 -37.059813
v 12.107377 30.885120 -31.198945
v 15.266603 32.373842 -35.072138
v 10.623011 32.334512 -37.557337
v 10.623011 32.334512 -37.557337
v 15.266603 32.373842 -35.072138
v 15.310892 35.733942 -35.126437
v 10.739158 36.012001 -37.059813
v 12.107377 37.555422 -31.198945
v 10.739158 36.012001 -37.059813
v 15.310892 35.733942 -35.126437
v 12.107377 30.885120 -31.198945
v 17.346074 32.340116 -31.198945
v 15.266603 32.373842 -35.072138
v 15.266603 32.373842 -35.072138
v 17.346074 32.340116 -31.198945
v 16.870709 36.000802 -31.198945
v 15.310892 35.733942 -35.126437
v 12.107377 37.555422 -31.198945
v 15.310892 35.733942 -35.126437
v 16.870709 36.000802 -31.198945
v 24.986780 12.698217 -14.676691
v 29.113739 15.639883 -7.329889
v 31.824813 15.354464 -14.676691
v 31.824813 15.354464 -14.676691
v 29.113739 15.639883 -7.329889
v 28.248322 21.071148 -8.870502
v 31.681203 21.196434 -14.676691
v 24.986780 24.495570 -14.676691
v 31.681203 21.196434 -14.676691
v 28.248322 21.071148 -8.870502
v 24.986780 12.698217 -14.676691
v 23.669230 16.054548 -6.481608
v 29.113739 15.639883 -7.329889
v 29.113739 15.639883 -7.329889
v 23.669230 16.054548 -6.481608
v 23.458801 21.491988 -5.172756
v 28.248322 21.071148 -8.870502
v 24.986780 24.495570 -14.676691
v 28.248322 21.071148 -8.870502
v 23.458801 21.491988 -5.172756
v 24.986780 12.698217 -14.676691
v 20.011417 15.705678 -11.275172
v 23.669230 16.054548 -6.481608
v 23.669230 16.054548 -6.481608
v 20.011417 15.705678 -11.275172
v 19.809894 21.072627 -11.137397
v 23.458801 21.491988 -5.172756
v 24.986780 24.495570 -14.676691
v 23.458801 21.491988 -5.172756
v 19.809894 21.072627 -11.137397
v 24.986780 12.698217 -14.676691
v 18.776708 16.090193 -18.922346
v 20.011417 15.705678 -11.275172
v 20.011417 15.705678 -11.275172
v 18.776708 16.090193 -18.922346
v 19.787353 21.407168 -18.231396
v 19.809894 21.072627 -11.137397
v 24.986780 24.495570 -14.676691
v 19.809894 21.072627 -11.137397
v 19.787353 21.407168 -18.231396
v 24.986780 12.698217 -14.676691
v 23.783784 16.145182 -22.159256
v 18.776708 16.090193 -18.922346
v 18.776708 16.090193 -18.922346
v 23.783784 16.145182 -22.159256
v 23.748464 21.674161 -22.378942
v 19.787353 21.407168 -18.231396
v 24.986780 24.495570 -14.676691
v 19.787353 21.407168 -18.231396
v 23.748464 21.674161 -22.378942
v 24.986780 12.698217 -14.676691
v 29.055065 15.805635 -21.919042
v 23.783784 16.145182 -22.159256
v 23.783784 16.145182 -22.159256
v 29.055065 15.805635 -21.919042
v 28.931267 21.859649 -21.698657
v 23.748464 21.674161 -22.378942
v 24.986780 24.495570 -14.676691
v 23.748464 21.674161 -22.378942
v 28.931267 21.859649 -21.698657
v 24.986780 12.698217 -14.676691
v 31.824813 15.354464 -14.676691
v 29.055065 15.805635 -21.919042
v 29.055065 15.805635 -21.919042
v 31.824813 15.354464 -14.676691
v 31.681203 21.196434 -14.676691
v 28.931267 21.859649 -21.698657
v 24.986780 24.495570 -14.676691
v 28.931267 21.859649 -21.698657
v 31.681203 21.196434 -14.676691
v -20.852091 36.543913 -8.439827
v -20.988335 34.121178 -9.836893
v 21.616105 37.155438 -17.850693
v 21.684227 38.366805 -17.152160
v -21.325188 36.543913 -11.199570
v -20.988335 34.121178 -9.836893
v -20.852091 36.543913 -8.439827
v 21.447678 38.366805 -18.532031
v 21.684227 38.366805 -17.152160
v 21.616105 37.155438 -17.850693
v -20.988335 34.121178 -9.836893
v -21.461432 34.121178 -12.596636
v 21.379556 37.155438 -19.230564
v 21.616105 37.155438 -17.850693
v -21.325188 36.543913 -11.199570
v -21.461432 34.121178 -12.596636
v -20.988335 34.121178 -9.836893
v 21.447678 38.366805 -18.532031
v 21.616105 37.155438 -17.850693
v 21.379556 37.155438 -19.230564
v -21.461432 34.121178 -12.596636
v -21.798285 36.543913 -13.959312
v 21.211130 38.366805 -19.911902
v 21.379556 37.155438 -19.230564
v -21.325188 36.543913 -11.199570
v -21.798285 36.543913 -13.959312
v -21.461432 34.121178 -12.596636
v 21.447678 38.366805 -18.532031
v 21.379556 37.155438 -19.230564
v 21.211130 38.366805 -19.911902
v -21.798285 36.543913 -13.959312
v -21.662041 38.966648 -12.562246
v 21.279252 39.578172 -19.213369
v 21.211130 38.366805 -19.911902
v -21.325188 36.543913 -11.199570
v -21.662041 38.966648 -12.562246
v -21.798285 36.543913 -13.959312
v 21.447678 38.366805 -18.532031
v 21.211130 38.366805 -19.911902
v 21.279252 39.578172 -19.213369
v -21.662041 38.966648 -12.562246
v -21.188944 38.966648 -9.802503
v 21.515800 39.578172 -17.833498
v 21.279252 39.578172 -19.213369
v -21.325188 36.543913 -11.199570
v -21.188944 38.966648 -9.802503
v -21.662041 38.966648 -12.562246
v 21.447678 38.366805 -18.532031
v 21.279252 39.578172 -19.213369
v 21.515800 39.578172 -17.833498
v -21.188944 38.966648 -9.802503
v -20.852091 36.543913 -8.439827
v 21.684227 38.366805 -17.152160
v 21.515800 39.578172 -17.833498
v -21.325188 36.543913 -11.199570
v -20.852091 36.543913 -8.439827
v -21.188944 38.966648 -9.802503
v 21.447678 38.366805 -18.532031
v 21.515800 39.578172 -17.833498
v 21.684227 38.366805 -17.152160
v -17.591053 38.321150 4.407620
v -18.063611 35.911865 3.061503
v 29.648752 31.627928 -4.564625
v 29.885032 32.832571 -3.891566
v -17.992880 38.321150 1.636603
v -18.063611 35.911865 3.061503
v -17.591053 38.321150 4.407620
v 29.684118 32.832571 -5.277075
v 29.885032 32.832571 -3.891566
v 29.648752 31.627928 -4.564625
v -18.063611 35.911865 3.061503
v -18.465439 35.911865 0.290486
v 29.447839 31.627928 -5.950133
v 29.648752 31.627928 -4.564625
v -17.992880 38.321150 1.636603
v -18.465439 35.911865 0.290486
v -18.063611 35.911865 3.061503
v 29.684118 32.832571 -5.277075
v 29.648752 31.627928 -4.564625
v 29.447839 31.627928 -5.950133
v -18.465439 35.911865 0.290486
v -18.394707 38.321150 -1.134414
v 29.483204 32.832571 -6.662583
v 29.447839 31.627928 -5.950133
v -17.992880 38.321150 1.636603
v -18.394707 38.321150 -1.134414
v -18.465439 35.911865 0.290486
v 29.684118 32.832571 -5.277075
v 29.447839 31.627928 -5.950133
v 29.483204 32.832571 -6.662583
v -18.394707 38.321150 -1.134414
v -17.922149 40.730436 0.211703
v 29.719484 34.037214 -5.989525
v 29.483204 32.832571 -6.662583
v -17.992880 38.321150 1.636603
v -17.922149 40.730436 0.211703
v -18.394707 38.321150 -1.134414
v 29.684118 32.832571 -5.277075
v 29.483204 32.832571 -6.662583
v 29.719484 34.037214 -5.989525
v -17.922149 40.730436 0.211703
v -17.520321 40.730436 2.982720
v 29.920397 34.037214 -4.604016
v 29.719484 34.037214 -5.989525
v -17.992880 38.321150 1.636603
v -17.520321 40.730436 2.982720
v -17.922149 40.730436 0.211703
v 29.684118 32.832571 -5.277075
v 29.719484 34.037214 -5.989525
v 29.920397 34.037214 -4.604016
v -17.520321 40.730436 2.982720
v -17.591053 38.321150 4.407620
v 29.885032 32.832571 -3.891566
v 29.920397 34.037214 -4.604016
v -17.992880 38.321150 1.636603
v -17.591053 38.321150 4.407620
v -17.520321 40.730436 2.982720
v 29.684118 32.832571 -5.277075
v 29.920397 34.037214 -4.604016
v 29.885032 32.832571 -3.891566
v -31.697922 30.832675 1.580468
v -31.781405 28.409807 0.179489
v 26.191207 27.265551 0.102873
v 26.232948 28.476985 0.803362
v -31.667813 30.832675 -1.219371
v -31.781405 28.409807 0.179489
v -31.697922 30.832675 1.580468
v 26.248003 28.476985 -0.596557
v 26.232948 28.476985 0.803362
v 26.191207 27.265551 0.102873
v -31.781405 28.409807 0.179489
v -31.751296 28.409807 -2.620349
v 26.206261 27.265551 -1.297046
v 26.191207 27.265551 0.102873
v -31.667813 30.832675 -1.219371
v -31.751296 28.409807 -2.620349
v -31.781405 28.409807 0.179489
v 26.248003 28.476985 -0.596557
v 26.191207 27.265551 0.102873
v 26.206261 27.265551 -1.297046
v -31.751296 28.409807 -2.620349
v -31.637704 30.832675 -4.019209
v 26.263057 28.476985 -1.996476
v 26.206261 27.265551 -1.297046
v -31.667813 30.832675 -1.219371
v -31.637704 30.832675 -4.019209
v -31.751296 28.409807 -2.620349
v 26.248003 28.476985 -0.596557
v 26.206261 27.265551 -1.297046
v 26.263057 28.476985 -1.996476
v -31.637704 30.832675 -4.019209
v -31.554222 33.255543 -2.618230
v 26.304799 29.688419 -1.295987
v 26.263057 28.476985 -1.996476
v -31.667813 30.832675 -1.219371
v -31.554222 33.255543 -2.618230
v -31.637704 30.832675 -4.019209
v 26.248003 28.476985 -0.596557
v 26.263057 28.476985 -1.996476
v 26.304799 29.688419 -1.295987
v -31.554222 33.255543 -2.618230
v -31.584330 33.255543 0.181608
v 26.289744 29.688419 0.103933
v 26.304799 29.688419 -1.295987
v -31.667813 30.832675 -1.219371
v -31.584330 33.255543 0.181608
v -31.554222 33.255543 -2.618230
v 26.248003 28.476985 -0.596557
v 26.304799 29.688419 -1.295987
v 26.289744 29.688419 0.103933
v -31.584330 33.255543 0.181608
v -31.697922 30.832675 1.580468
v 26.232948 28.476985 0.803362
v 26.289744 29.688419 0.103933
v -31.667813 30.832675 -1.219371
v -31.697922 30.832675 1.580468
v -31.584330 33.255543 0.181608
v 26.248003 28.476985 -0.596557
v 26.289744 29.688419 0.103933
v 26.232948 28.476985 0.803362
vt 0.500000 1.000000
vt 0.000000 0.000000
vt 1.000000 0.000000
vt 0.000000 0.000000
vt 1.000000 0.000000
vt 1.000000 1.000000
vt 0.000000 1.000000
vt 0.000000 0.000000
vt 1.000000 0.000000
vt 1.000000 1.000000
vt 0.000000 1.000000
vt 0.500000 1.000000
vt 0.000000 0.000000
vt 1.000000 0.000000
vt 0.500000 1.000000
vt 0.000000 0.000000
vt 1.000000 0.000000
vt 0.000000 0.000000
vt 1.000000 0.000000
vt 1.000000 1.000000
vt 0.000000 1.000000
vt 0.000000 0.000000
vt 1.000000 0.000000
vt 1.000000 1.000000
vt 0.000000 1.000000
vt 0.500000 1.000000
vt 0.000000 0.000000
vt 1.000000 0.000000
vt 0.500000 1.000000
vt 0.000000 0.000000
vt 1.000000 0.000000
vt 0.000000 0.000000
vt 1.000000 0.000000
vt 1.000000 1.000000
vt 0.000000 1.000000
vt 0.000000 0.000000
vt 1.000000 0.000000
vt 1.000000 1.000000
vt 0.000000 1.000000
vt 0.500000 1.000000
vt 0.000000 0.000000
vt 1.000000 0.000000
vt 0.500000 1.000000
vt 0.000000 0.000000
vt 1.000000 0.000000
vt 0.000000 0.000000
vt 1.000000 0.000000
vt 1.000000 1.000000
vt 0.000000 1.000000
vt 0.000000 0.000000
vt 1.000000 0.000000
vt 1.000000 1.000000
vt 0.000000 1.000000
vt 0.500000 1.000000
vt 0.000000 0.000000
vt 1.000000 0.000000
vt 0.500000 1.000000
vt 0.000000 0.000000
vt 1.000000 0.000000
vt 0.000000 0.000000
vt 1.000000 0.000000
vt 1.000000 1.000000
vt 0.000000 1.000000
vt 0.000000 0.000000
vt 1.000000 0.000000
vt 1.000000 1.000000
vt 0.000000 1.000000
vt 0.500000 1.000000
vt 0.000000 0.000000
vt 1.000000 0.000000
vt 0.500000 1.000000
vt 0.000000 0.000000
vt 1.000000 0.000000
vt 0.000000 0.000000
vt 1.000000 0.000000
vt 1.000000 1.000000
vt 0.000000 1.000000
vt 0.000000 0.000000
vt 1.000000 0.000000
vt 1.000000 1.000000
vt 0.000000 1.000000
vt 0.500000 1.000000
vt 0.000000 0.000000
vt 1.000000 0.000000
vt 0.500000 1.000000
vt 0.000000 0.000000
vt 1.000000 0.000000
vt 0.000000 0.000000
vt 1.000000 0.000000
vt 1.000000 1.000000
vt 0.000000 1.000000
vt 0.000000 0.000000
vt 1.000000 0.000000
vt 1.000000 1.000000
vt 0.000000 1.000000
vt 0.500000 1.000000
vt 0.000000 0.000000
vt 1.000000 0.000000
vt 0.500000 1.000000
vt 0.000000 0.000000
vt 1.000000 0.000000
vt 0.000000 0.000000
vt 1.000000 0.000000
vt 1.000000 1.000000
vt 0.000000 1.000000
vt 0.000000 0.000000
vt 1.000000 0.000000
vt 1.000000 1.000000
vt 0.000000 1.000000
vt 0.500000 1.000000
vt 0.000000 0.000000
vt 1.000000 0.000000
vt 0.500000 1.000000
vt 0.000000 0.000000
vt 1.000000 0.000000
vt 0.000000 0.000000
vt 1.000000 0.000000
vt 1.000000 1.000000
vt 0.000000 1.000000
vt 0.000000 0.000000
vt 1.000000 0.000000
vt 1.000000 1.000000
vt 0.000000 1.000000
vt 0.500000 1.000000
vt 0.000000 0.000000
vt 1.000000 0.000000
vt 0.500000 1.000000
vt 0.000000 0.000000
vt 1.000000 0.000000
vt 0.000000 0.000000
vt 1.000000 0.000000
vt 1.000000 1.000000
vt 0.000000 1.000000
vt 0.000000 0.000000
vt 1.000000 0.000000
vt 1.000000 1.000000
vt 0.000000 1.000000
vt 0.500000 1.000000
vt 0.000000 0.000000
vt 1.000000 0.000000
vt 0.500000 1.000000
vt 0.000000 0.000000
vt 1.000000 0.000000
vt 0.000000 0.000000
vt 1.000000 0.000000
vt 1.000000 1.000000
vt 0.000000 1.000000
vt 0.500000 1.000000
vt 0.000000 0.000000
vt 1.000000 0.000000
vt 0.500000 1.000000
vt 0.000000 0.000000
vt 1.000000 0.000000
vt 0.000000 0.000000
vt 1.000000 0.000000
vt 1.000000 1.000000
vt 0.000000 1.000000
vt 0.500000 1.000000
vt 0.000000 0.000000
vt 1.000000 0.000000
vt 0.500000 1.000000
vt 0.000000 0.000000
vt 1.000000 0.000000
vt 0.000000 0.000000
vt 1.000000 0.000000
vt 1.000000 1.000000
vt 0.000000 1.000000
vt 0.500000 1.000000
vt 0.000000 0.000000
vt 1.000000 0.000000
vt 0.500000 1.000000
vt 0.000000 0.000000
vt 1.000000 0.000000
vt 0.000000 0.000000
vt 1.000000 0.000000
vt 1.000000 1.000000
vt 0.000000 1.000000
vt 0.500000 1.000000
vt 0.000000 0.000000
vt 1.000000 0.000000
vt 0.500000 1.000000
vt 0.000000 0.000000
vt 1.000000 0.000000
vt 0.000000 0.000000
vt 1.000000 0.000000
vt 1.000000 1.000000
vt 0.000000 1.000000
vt 0.500000 1.000000
vt 0.000000 0.000000
vt 1.000000 0.000000
vt 0.500000 1.000000
vt 0.000000 0.000000
vt 1.000000 0.000000
vt 0.000000 0.000000
vt 1.000000 0.000000
vt 1.000000 1.000000
vt 0.000000 1.000000
vt 0.500000 1.000000
vt 0.000000 0.000000
vt 1.000000 0.000000
vt 0.500000 1.000000
vt 0.000000 0.000000
vt 1.000000 0.000000
vt 0.000000 0.000000
vt 1.000000 0.000000
vt 1.000000 1.000000
vt 0.000000 1.000000
vt 0.500000 1.000000
vt 0.000000 0.000000
vt 1.000000 0.000000
vt 0.500000 1.000000
vt 0.000000 0.000000
vt 1.000000 0.000000
vt 0.000000 0.000000
vt 1.000000 0.000000
vt 1.000000 1.000000
vt 0.000000 1.000000
vt 0.500000 1.000000
vt 0.000000 0.000000
vt 1.000000 0.000000
vt 0.500000 1.000000
vt 0.000000 0.000000
vt 1.000000 0.000000
vt 0.000000 0.000000
vt 1.000000 0.000000
vt 1.000000 1.000000
vt 0.000000 1.000000
vt 0.500000 1.000000
vt 0.000000 0.000000
vt 1.000000 0.000000
vt 0.500000 1.000000
vt 0.000000 0.000000
vt 1.000000 0.000000
vt 0.000000 0.000000
vt 1.000000 0.000000
vt 1.000000 1.000000
vt 0.000000 1.000000
vt 0.500000 1.000000
vt 0.000000 0.000000
vt 1.000000 0.000000
vt 0.500000 1.000000
vt 0.000000 0.000000
vt 1.000000 0.000000
vt 0.000000 0.000000
vt 1.000000 0.000000
vt 1.000000 1.000000
vt 0.000000 1.000000
vt 0.500000 1.000000
vt 0.000000 0.000000
vt 1.000000 0.000000
vt 0.500000 1.000000
vt 0.000000 0.000000
vt 1.000000 0.000000
vt 0.000000 0.000000
vt 1.000000 0.000000
vt 1.000000 1.000000
vt 0.000000 1.000000
vt 0.500000 1.000000
vt 0.000000 0.000000
vt 1.000000 0.000000
vt 0.500000 1.000000
vt 0.000000 0.000000
vt 1.000000 0.000000
vt 0.000000 0.000000
vt 1.000000 0.000000
vt 1.000000 1.000000
vt 0.000000 1.000000
vt 0.500000 1.000000
vt 0.000000 0.000000
vt 1.000000 0.000000
vt 0.500000 1.000000
vt 0.000000 0.000000
vt 1.000000 0.000000
vt 0.000000 0.000000
vt 1.000000 0.000000
vt 1.000000 1.000000
vt 0.000000 1.000000
vt 0.500000 1.000000
vt 0.000000 0.000000
vt 1.000000 0.000000
vt 0.500000 1.000000
vt 0.000000 0.000000
vt 1.000000 0.000000
vt 0.000000 0.000000
vt 1.000000 0.000000
vt 1.000000 1.000000
vt 0.000000 1.000000
vt 0.500000 1.000000
vt 0.000000 0.000000
vt 1.000000 0.000000
vt 0.500000 1.000000
vt 0.000000 0.000000
vt 1.000000 0.000000
vt 0.000000 0.000000
vt 1.000000 0.000000
vt 1.000000 1.000000
vt 0.000000 1.000000
vt 0.500000 1.000000
vt 0.000000 0.000000
vt 1.000000 0.000000
vt 0.500000 1.000000
vt 0.000000 0.000000
vt 1.000000 0.000000
vt 0.000000 0.000000
vt 1.000000 0.000000
vt 1.000000 1.000000
vt 0.000000 1.000000
vt 0.500000 1.000000
vt 0.000000 0.000000
vt 1.000000 0.000000
vt 0.500000 1.000000
vt 0.000000 0.000000
vt 1.000000 0.000000
vt 0.000000 0.000000
vt 1.000000 0.000000
vt 1.000000 1.000000
vt 0.000000 1.000000
vt 0.500000 1.000000
vt 0.000000 0.000000
vt 1.000000 0.000000
vt 0.500000 1.000000
vt 0.000000 0.000000
vt 1.000000 0.000000
vt 0.000000 0.000000
vt 1.000000 0.000000
vt 1.000000 1.000000
vt 0.000000 1.000000
vt 0.500000 1.000000
vt 0.000000 0.000000
vt 1.000000 0.000000
vt 0.500000 1.000000
vt 0.000000 0.000000
vt 1.000000 0.000000
vt 0.000000 0.000000
vt 1.000000 0.000000
vt 1.000000 1.000000
vt 0.000000 1.000000
vt 0.500000 1.000000
vt 0.000000 0.000000
vt 1.000000 0.000000
vt 0.500000 1.000000
vt 0.000000 0.000000
vt 1.000000 0.000000
vt 0.000000 0.000000
vt 1.000000 0.000000
vt 1.000000 1.000000
vt 0.000000 1.000000
vt 0.500000 1.000000
vt 0.000000 0.000000
vt 1.000000 0.000000
vt 0.500000 1.000000
vt 0.000000 0.000000
vt 1.000000 0.000000
vt 0.000000 0.000000
vt 1.000000 0.000000
vt 1.000000 1.000000
vt 0.000000 1.000000
vt 0.500000 1.000000
vt 0.000000 0.000000
vt 1.000000 0.000000
vt 0.500000 1.000000
vt 0.000000 0.000000
vt 1.000000 0.000000
vt 0.000000 0.000000
vt 1.000000 0.000000
vt 1.000000 1.000000
vt 0.000000 1.000000
vt 0.500000 1.000000
vt 0.000000 0.000000
vt 1.000000 0.000000
vt 0.500000 1.000000
vt 0.000000 0.000000
vt 1.000000 0.000000
vt 0.000000 0.000000
vt 1.000000 0.000000
vt 1.000000 1.000000
vt 0.000000 1.000000
vt 0.500000 1.000000
vt 0.000000 0.000000
vt 1.000000 0.000000
vt 0.500000 1.000000
vt 0.000000 0.000000
vt 1.000000 0.000000
vt 0.000000 0.000000
vt 1.000000 0.000000
vt 1.000000 1.000000
vt 0.000000 1.000000
vt 0.500000 1.000000
vt 0.000000 0.000000
vt 1.000000 0.000000
vt 0.500000 1.000000
vt 0.000000 0.000000
vt 1.000000 0.000000
vt 0.000000 0.000000
vt 1.000000 0.000000
vt 1.000000 1.000000
vt 0.000000 1.000000
vt 0.500000 1.000000
vt 0.000000 0.000000
vt 1.000000 0.000000
vt 0.500000 1.000000
vt 0.000000 0.000000
vt 1.000000 0.000000
vt 0.000000 0.000000
vt 1.000000 0.000000
vt 1.000000 1.000000
vt 0.000000 1.000000
vt 0.500000 1.000000
vt 0.000000 0.000000
vt 1.000000 0.000000
vt 0.500000 1.000000
vt 0.000000 0.000000
vt 1.000000 0.000000
vt 0.000000 0.000000
vt 1.000000 0.000000
vt 1.000000 1.000000
vt 0.000000 1.000000
vt 0.500000 1.000000
vt 0.000000 0.000000
vt 1.000000 0.000000
vt 0.500000 1.000000
vt 0.000000 0.000000
vt 1.000000 0.000000
vt 0.000000 0.000000
vt 1.000000 0.000000
vt 1.000000 1.000000
vt 0.000000 1.000000
vt 0.500000 1.000000
vt 0.000000 0.000000
vt 1.000000 0.000000
vt 0.500000 1.000000
vt 0.000000 0.000000
vt 1.000000 0.000000
vt 0.000000 0.000000
vt 1.000000 0.000000
vt 1.000000 1.000000
vt 0.000000 1.000000
vt 0.500000 1.000000
vt 0.000000 0.000000
vt 1.000000 0.000000
vt 0.500000 1.000000
vt 0.000000 0.000000
vt 1.000000 0.000000
vt 0.000000 0.000000
vt 1.000000 0.000000
vt 1.000000 1.000000
vt 0.000000 1.000000
vt 0.500000 1.000000
vt 0.000000 0.000000
vt 1.000000 0.000000
vt 0.500000 1.000000
vt 0.000000 0.000000
vt 1.000000 0.000000
vt 0.000000 0.000000
vt 1.000000 0.000000
vt 1.000000 1.000000
vt 0.000000 1.000000
vt 0.500000 1.000000
vt 0.000000 0.000000
vt 1.000000 0.000000
vt 0.500000 1.000000
vt 0.000000 0.000000
vt 1.000000 0.000000
vt 0.000000 0.000000
vt 1.000000 0.000000
vt 1.000000 1.000000
vt 0.000000 1.000000
vt 0.500000 1.000000
vt 0.000000 0.000000
vt 1.000000 0.000000
vt 0.500000 1.000000
vt 0.000000 0.000000
vt 1.000000 0.000000
vt 0.000000 0.000000
vt 1.000000 0.000000
vt 1.000000 1.000000
vt 0.000000 1.000000
vt 0.500000 1.000000
vt 0.000000 0.000000
vt 1.000000 0.000000
vt 0.500000 1.000000
vt 0.000000 0.000000
vt 1.000000 0.000000
vt 0.000000 0.000000
vt 1.000000 0.000000
vt 1.000000 1.000000
vt 0.000000 1.000000
vt 0.500000 1.000000
vt 0.000000 0.000000
vt 1.000000 0.000000
vt 0.500000 1.000000
vt 0.000000 0.000000
vt 1.000000 0.000000
vt 0.000000 0.000000
vt 1.000000 0.000000
vt 1.000000 1.000000
vt 0.000000 1.000000
vt 0.500000 1.000000
vt 0.000000 0.000000
vt 1.000000 0.000000
vt 0.500000 1.000000
vt 0.000000 0.000000
vt 1.000000 0.000000
vt 0.000000 0.000000
vt 1.000000 0.000000
vt 1.000000 1.000000
vt 0.000000 1.000000
vt 0.500000 1.000000
vt 0.000000 0.000000
vt 1.000000 0.000000
vt 0.500000 1.000000
vt 0.000000 0.000000
vt 1.000000 0.000000
vt 0.000000 0.000000
vt 1.000000 0.000000
vt 1.000000 1.000000
vt 0.000000 1.000000
vt 0.500000 1.000000
vt 0.000000 0.000000
vt 1.000000 0.000000
vt 0.500000 1.000000
vt 0.000000 0.000000
vt 1.000000 0.000000
vt 0.000000 0.000000
vt 1.000000 0.000000
vt 1.000000 1.000000
vt 0.000000 1.000000
vt 0.500000 1.000000
vt 0.000000 0.000000
vt 1.000000 0.000000
vt 0.500000 1.000000
vt 0.000000 0.000000
vt 1.000000 0.000000
vt 0.000000 0.000000
vt 1.000000 0.000000
vt 1.000000 1.000000
vt 0.000000 1.000000
vt 0.500000 1.000000
vt 0.000000 0.000000
vt 1.000000 0.000000
vt 0.500000 1.000000
vt 0.000000 0.000000
vt 1.000000 0.000000
vt 0.000000 0.000000
vt 1.000000 0.000000
vt 1.000000 1.000000
vt 0.000000 1.000000
vt 0.500000 1.000000
vt 0.000000 0.000000
vt 1.000000 0.000000
vt 0.500000 1.000000
vt 0.000000 0.000000
vt 1.000000 0.000000
vt 0.000000 0.000000
vt 1.000000 0.000000
vt 1.000000 1.000000
vt 0.000000 1.000000
vt 0.500000 1.000000
vt 0.000000 0.000000
vt 1.000000 0.000000
vt 0.500000 1.000000
vt 0.000000 0.000000
vt 1.000000 0.000000
vt 0.000000 0.000000
vt 1.000000 0.000000
vt 1.000000 1.000000
vt 0.000000 1.000000
vt 0.500000 1.000000
vt 0.000000 0.000000
vt 1.000000 0.000000
vt 0.500000 1.000000
vt 0.000000 0.000000
vt 1.000000 0.000000
vt 0.000000 0.000000
vt 1.000000 0.000000
vt 1.000000 1.000000
vt 0.000000 1.000000
vt 0.500000 1.000000
vt 0.000000 0.000000
vt 1.000000 0.000000
vt 0.500000 1.000000
vt 0.000000 0.000000
vt 1.000000 0.000000
vt 0.000000 0.000000
vt 1.000000 0.000000
vt 1.000000 1.000000
vt 0.000000 1.000000
vt 0.500000 1.000000
vt 0.000000 0.000000
vt 1.000000 0.000000
vt 0.500000 1.000000
vt 0.000000 0.000000
vt 1.000000 0.000000
vt 0.000000 0.000000
vt 1.000000 0.000000
vt 1.000000 1.000000
vt 0.000000 1.000000
vt 0.500000 1.000000
vt 0.000000 0.000000
vt 1.000000 0.000000
vt 0.500000 1.000000
vt 0.000000 0.000000
vt 1.000000 0.000000
vt 0.000000 0.000000
vt 1.000000 0.000000
vt 1.000000 1.000000
vt 0.000000 1.000000
vt 0.500000 1.000000
vt 0.000000 0.000000
vt 1.000000 0.000000
vt 0.500000 1.000000
vt 0.000000 0.000000
vt 1.000000 0.000000
vt 0.000000 0.000000
vt 1.000000 0.000000
vt 1.000000 1.000000
vt 0.000000 1.000000
vt 0.500000 1.000000
vt 0.000000 0.000000
vt 1.000000 0.000000
vt 0.500000 1.000000
vt 0.000000 0.000000
vt 1.000000 0.000000
vt 0.000000 0.000000
vt 1.000000 0.000000
vt 1.000000 1.000000
vt 0.000000 1.000000
vt 0.500000 1.000000
vt 0.000000 0.000000
vt 1.000000 0.000000
vt 0.500000 1.000000
vt 0.000000 0.000000
vt 1.000000 0.000000
vt 0.000000 0.000000
vt 1.000000 0.000000
vt 1.000000 1.000000
vt 0.000000 1.000000
vt 0.500000 1.000000
vt 0.000000 0.000000
vt 1.000000 0.000000
vt 0.500000 1.000000
vt 0.000000 0.000000
vt 1.000000 0.000000
vt 0.000000 0.000000
vt 1.000000 0.000000
vt 1.000000 1.000000
vt 0.000000 1.000000
vt 0.500000 1.000000
vt 0.000000 0.000000
vt 1.000000 0.000000
vt 0.500000 1.000000
vt 0.000000 0.000000
vt 1.000000 0.000000
vt 0.000000 0.000000
vt 1.000000 0.000000
vt 1.000000 1.000000
vt 0.000000 1.000000
vt 0.500000 1.000000
vt 0.000000 0.000000
vt 1.000000 0.000000
vt 0.500000 1.000000
vt 0.000000 0.000000
vt 1.000000 0.000000
vt 0.000000 0.000000
vt 1.000000 0.000000
vt 1.000000 1.000000
vt 0.000000 1.000000
vt 0.500000 1.000000
vt 0.000000 0.000000
vt 1.000000 0.000000
vt 0.500000 1.000000
vt 0.000000 0.000000
vt 1.000000 0.000000
vt 0.000000 0.000000
vt 1.000000 0.000000
vt 1.000000 1.000000
vt 0.000000 1.000000
vt 0.500000 1.000000
vt 0.000000 0.000000
vt 1.000000 0.000000
vt 0.500000 1.000000
vt 0.000000 0.000000
vt 1.000000 0.000000
vt 0.000000 0.000000
vt 1.000000 0.000000
vt 1.000000 1.000000
vt 0.000000 1.000000
vt 0.500000 1.000000
vt 0.000000 0.000000
vt 1.000000 0.000000
vt 0.500000 1.000000
vt 0.000000 0.000000
vt 1.000000 0.000000
vt 0.000000 0.000000
vt 1.000000 0.000000
vt 1.000000 1.000000
vt 0.000000 1.000000
vt 0.500000 1.000000
vt 0.000000 0.000000
vt 1.000000 0.000000
vt 0.500000 1.000000
vt 0.000000 0.000000
vt 1.000000 0.000000
vt 0.000000 0.000000
vt 1.000000 0.000000
vt 1.000000 1.000000
vt 0.000000 1.000000
vt 0.500000 1.000000
vt 0.000000 0.000000
vt 1.000000 0.000000
vt 0.500000 1.000000
vt 0.000000 0.000000
vt 1.000000 0.000000
vt 0.000000 0.000000
vt 1.000000 0.000000
vt 1.000000 1.000000
vt 0.000000 1.000000
vt 0.500000 1.000000
vt 0.000000 0.000000
vt 1.000000 0.000000
vt 0.500000 1.000000
vt 0.000000 0.000000
vt 1.000000 0.000000
vt 0.000000 0.000000
vt 1.000000 0.000000
vt 1.000000 1.000000
vt 0.000000 1.000000
vt 0.500000 1.000000
vt 0.000000 0.000000
vt 1.000000 0.000000
vt 0.500000 1.000000
vt 0.000000 0.000000
vt 1.000000 0.000000
vt 0.000000 0.000000
vt 1.000000 0.000000
vt 1.000000 1.000000
vt 0.000000 1.000000
vt 0.500000 1.000000
vt 0.000000 0.000000
vt 1.000000 0.000000
vt 0.500000 1.000000
vt 0.000000 0.000000
vt 1.000000 0.000000
vt 0.000000 0.000000
vt 1.000000 0.000000
vt 1.000000 1.000000
vt 0.000000 1.000000
vt 0.500000 1.000000
vt 0.000000 0.000000
vt 1.000000 0.000000
vt 0.500000 1.000000
vt 0.000000 0.000000
vt 1.000000 0.000000
vt 0.000000 0.000000
vt 1.000000 0.000000
vt 1.000000 1.000000
vt 0.000000 1.000000
vt 0.500000 1.000000
vt 0.000000 0.000000
vt 1.000000 0.000000
vt 0.500000 1.000000
vt 0.000000 0.000000
vt 1.000000 0.000000
vt 0.000000 0.000000
vt 1.000000 0.000000
vt 1.000000 1.000000
vt 0.000000 1.000000
vt 0.500000 1.000000
vt 0.000000 0.000000
vt 1.000000 0.000000
vt 0.000000 0.000000
vt 1.000000 0.000000
vt 1.000000 1.000000
vt 0.000000 1.000000
vt 0.500000 1.000000
vt 0.000000 0.000000
vt 1.000000 0.000000
vt 0.500000 1.000000
vt 0.000000 0.000000
vt 1.000000 0.000000
vt 0.000000 0.000000
vt 1.000000 0.000000
vt 1.000000 1.000000
vt 0.000000 1.000000
vt 0.500000 1.000000
vt 0.000000 0.000000
vt 1.000000 0.000000
vt 0.500000 1.000000
vt 0.000000 0.000000
vt 1.000000 0.000000
vt 0.000000 0.000000
vt 1.000000 0.000000
vt 1.000000 1.000000
vt 0.000000 1.000000
vt 0.500000 1.000000
vt 0.000000 0.000000
vt 1.000000 0.000000
vt 0.500000 1.000000
vt 0.000000 0.000000
vt 1.000000 0.000000
vt 0.000000 0.000000
vt 1.000000 0.000000
vt 1.000000 1.000000
vt 0.000000 1.000000
vt 0.500000 1.000000
vt 0.000000 0.000000
vt 1.000000 0.000000
vt 0.500000 1.000000
vt 0.000000 0.000000
vt 1.000000 0.000000
vt 0.000000 0.000000
vt 1.000000 0.000000
vt 1.000000 1.000000
vt 0.000000 1.000000
vt 0.500000 1.000000
vt 0.000000 0.000000
vt 1.000000 0.000000
vt 0.500000 1.000000
vt 0.000000 0.000000
vt 1.000000 0.000000
vt 0.000000 0.000000
vt 1.000000 0.000000
vt 1.000000 1.000000
vt 0.000000 1.000000
vt 0.500000 1.000000
vt 0.000000 0.000000
vt 1.000000 0.000000
vt 0.500000 1.000000
vt 0.000000 0.000000
vt 1.000000 0.000000
vt 0.000000 0.000000
vt 1.000000 0.000000
vt 1.000000 1.000000
vt 0.000000 1.000000
vt 0.500000 1.000000
vt 0.000000 0.000000
vt 1.000000 0.000000
vt 0.500000 1.000000
vt 0.000000 0.000000
vt 1.000000 0.000000
vt 0.000000 0.000000
vt 1.000000 0.000000
vt 1.000000 1.000000
vt 0.000000 1.000000
vt 0.500000 1.000000
vt 0.000000 0.000000
vt 1.000000 0.000000
vt 0.500000 1.000000
vt 0.000000 0.000000
vt 1.000000 0.000000
vt 0.000000 0.000000
vt 1.000000 0.000000
vt 1.000000 1.000000
vt 0.000000 1.000000
vt 0.500000 1.000000
vt 0.000000 0.000000
vt 1.000000 0.000000
vt 0.500000 1.000000
vt 0.000000 0.000000
vt 1.000000 0.000000
vt 0.000000 0.000000
vt 1.000000 0.000000
vt 1.000000 1.000000
vt 0.000000 1.000000
vt 0.500000 1.000000
vt 0.000000 0.000000
vt 1.000000 0.000000
vt 0.500000 1.000000
vt 0.000000 0.000000
vt 1.000000 0.000000
vt 0.000000 0.000000
vt 1.000000 0.000000
vt 1.000000 1.000000
vt 0.000000 1.000000
vt 0.500000 1.000000
vt 0.000000 0.000000
vt 1.000000 0.000000
vt 0.500000 1.000000
vt 0.000000 0.000000
vt 1.000000 0.000000
vt 0.000000 0.000000
vt 1.000000 0.000000
vt 1.000000 1.000000
vt 0.000000 1.000000
vt 0.500000 1.000000
vt 0.000000 0.000000
vt 1.000000 0.000000
vt 0.500000 1.000000
vt 0.000000 0.000000
vt 1.000000 0.000000
vt 0.000000 0.000000
vt 1.000000 0.000000
vt 1.000000 1.000000
vt 0.000000 1.000000
vt 0.500000 1.000000
vt 0.000000 0.000000
vt 1.000000 0.000000
vt 0.500000 1.000000
vt 0.000000 0.000000
vt 1.000000 0.000000
vt 0.000000 0.000000
vt 1.000000 0.000000
vt 1.000000 1.000000
vt 0.000000 1.000000
vt 0.500000 1.000000
vt 0.000000 0.000000
vt 1.000000 0.000000
vt 0.500000 1.000000
vt 0.000000 0.000000
vt 1.000000 0.000000
vt 0.000000 0.000000
vt 1.000000 0.000000
vt 1.000000 1.000000
vt 0.000000 1.000000
vt 0.500000 1.000000
vt 0.000000 0.000000
vt 1.000000 0.000000
vt 0.500000 1.000000
vt 0.000000 0.000000
vt 1.000000 0.000000
vt 0.000000 0.000000
vt 1.000000 0.000000
vt 1.000000 1.000000
vt 0.000000 1.000000
vt 0.500000 1.000000
vt 0.000000 0.000000
vt 1.000000 0.000000
vt 0.500000 1.000000
vt 0.000000 0.000000
vt 1.000000 0.000000
vt 0.000000 0.000000
vt 1.000000 0.000000
vt 1.000000 1.000000
vt 0.000000 1.000000
vt 0.500000 1.000000
vt 0.000000 0.000000
vt 1.000000 0.000000
vt 0.500000 1.000000
vt 0.000000 0.000000
vt 1.000000 0.000000
vt 0.000000 0.000000
vt 1.000000 0.000000
vt 1.000000 1.000000
vt 0.000000 1.000000
vt 0.500000 1.000000
vt 0.000000 0.000000
vt 1.000000 0.000000
vt 0.500000 1.000000
vt 0.000000 0.000000
vt 1.000000 0.000000
s 1
usemtl models/caelum/world/environment/rock_granite.png
f 1/1 2/2 3/3
f 4/4 5/5 6/6 7/7
f 8/8 9/9 10/10 11/11
f 12/12 13/13 14/14
f 15/15 16/16 17/17
f 18/18 19/19 20/20 21/21
f 22/22 23/23 24/24 25/25
f 26/26 27/27 28/28
f 29/29 30/30 31/31
f 32/32 33/33 34/34 35/35
f 36/36 37/37 38/38 39/39
f 40/40 41/41 42/42
f 43/43 44/44 45/45
f 46/46 47/47 48/48 49/49
f 50/50 51/51 52/52 53/53
f 54/54 55/55 56/56
f 57/57 58/58 59/59
f 60/60 61/61 62/62 63/63
f 64/64 65/65 66/66 67/67
f 68/68 69/69 70/70
f 71/71 72/72 73/73
f 74/74 75/75 76/76 77/77
f 78/78 79/79 80/80 81/81
f 82/82 83/83 84/84
f 85/85 86/86 87/87
f 88/88 89/89 90/90 91/91
f 92/92 93/93 94/94 95/95
f 96/96 97/97 98/98
f 99/99 100/100 101/101
f 102/102 103/103 104/104 105/105
f 106/106 107/107 108/108 109/109
f 110/110 111/111 112/112
f 113/113 114/114 115/115
f 116/116 117/117 118/118 119/119
f 120/120 121/121 122/122 123/123
f 124/124 125/125 126/126
f 127/127 128/128 129/129
f 130/130 131/131 132/132 133/133
f 134/134 135/135 136/136 137/137
f 138/138 139/139 140/140
usemtl models/caelum/world/resources/ca_vein_iron.png
f 141/141 142/142 143/143
f 144/144 145/145 146/146 147/147
f 148/148 149/149 150/150
f 151/151 152/152 153/153
f 154/154 155/155 156/156 157/157
f 158/158 159/159 160/160
f 161/161 162/162 163/163
f 164/164 165/165 166/166 167/167
f 168/168 169/169 170/170
f 171/171 172/172 173/173
f 174/174 175/175 176/176 177/177
f 178/178 179/179 180/180
f 181/181 182/182 183/183
f 184/184 185/185 186/186 187/187
f 188/188 189/189 190/190
f 191/191 192/192 193/193
f 194/194 195/195 196/196 197/197
f 198/198 199/199 200/200
f 201/201 202/202 203/203
f 204/204 205/205 206/206 207/207
f 208/208 209/209 210/210
f 211/211 212/212 213/213
f 214/214 215/215 216/216 217/217
f 218/218 219/219 220/220
f 221/221 222/222 223/223
f 224/224 225/225 226/226 227/227
f 228/228 229/229 230/230
f 231/231 232/232 233/233
f 234/234 235/235 236/236 237/237
f 238/238 239/239 240/240
f 241/241 242/242 243/243
f 244/244 245/245 246/246 247/247
f 248/248 249/249 250/250
f 251/251 252/252 253/253
f 254/254 255/255 256/256 257/257
f 258/258 259/259 260/260
f 261/261 262/262 263/263
f 264/264 265/265 266/266 267/267
f 268/268 269/269 270/270
f 271/271 272/272 273/273
f 274/274 275/275 276/276 277/277
f 278/278 279/279 280/280
f 281/281 282/282 283/283
f 284/284 285/285 286/286 287/287
f 288/288 289/289 290/290
f 291/291 292/292 293/293
f 294/294 295/295 296/296 297/297
f 298/298 299/299 300/300
f 301/301 302/302 303/303
f 304/304 305/305 306/306 307/307
f 308/308 309/309 310/310
f 311/311 312/312 313/313
f 314/314 315/315 316/316 317/317
f 318/318 319/319 320/320
f 321/321 322/322 323/323
f 324/324 325/325 326/326 327/327
f 328/328 329/329 330/330
f 331/331 332/332 333/333
f 334/334 335/335 336/336 337/337
f 338/338 339/339 340/340
f 341/341 342/342 343/343
f 344/344 345/345 346/346 347/347
f 348/348 349/349 350/350
f 351/351 352/352 353/353
f 354/354 355/355 356/356 357/357
f 358/358 359/359 360/360
f 361/361 362/362 363/363
f 364/364 365/365 366/366 367/367
f 368/368 369/369 370/370
f 371/371 372/372 373/373
f 374/374 375/375 376/376 377/377
f 378/378 379/379 380/380
f 381/381 382/382 383/383
f 384/384 385/385 386/386 387/387
f 388/388 389/389 390/390
f 391/391 392/392 393/393
f 394/394 395/395 396/396 397/397
f 398/398 399/399 400/400
f 401/401 402/402 403/403
f 404/404 405/405 406/406 407/407
f 408/408 409/409 410/410
f 411/411 412/412 413/413
f 414/414 415/415 416/416 417/417
f 418/418 419/419 420/420
f 421/421 422/422 423/423
f 424/424 425/425 426/426 427/427
f 428/428 429/429 430/430
f 431/431 432/432 433/433
f 434/434 435/435 436/436 437/437
f 438/438 439/439 440/440
f 441/441 442/442 443/443
f 444/444 445/445 446/446 447/447
f 448/448 449/449 450/450
f 451/451 452/452 453/453
f 454/454 455/455 456/456 457/457
f 458/458 459/459 460/460
f 461/461 462/462 463/463
f 464/464 465/465 466/466 467/467
f 468/468 469/469 470/470
f 471/471 472/472 473/473
f 474/474 475/475 476/476 477/477
f 478/478 479/479 480/480
f 481/481 482/482 483/483
f 484/484 485/485 486/486 487/487
f 488/488 489/489 490/490
f 491/491 492/492 493/493
f 494/494 495/495 496/496 497/497
f 498/498 499/499 500/500
f 501/501 502/502 503/503
f 504/504 505/505 506/506 507/507
f 508/508 509/509 510/510
f 511/511 512/512 513/513
f 514/514 515/515 516/516 517/517
f 518/518 519/519 520/520
f 521/521 522/522 523/523
f 524/524 525/525 526/526 527/527
f 528/528 529/529 530/530
f 531/531 532/532 533/533
f 534/534 535/535 536/536 537/537
f 538/538 539/539 540/540
f 541/541 542/542 543/543
f 544/544 545/545 546/546 547/547
f 548/548 549/549 550/550
f 551/551 552/552 553/553
f 554/554 555/555 556/556 557/557
f 558/558 559/559 560/560
f 561/561 562/562 563/563
f 564/564 565/565 566/566 567/567
f 568/568 569/569 570/570
f 571/571 572/572 573/573
f 574/574 575/575 576/576 577/577
f 578/578 579/579 580/580
f 581/581 582/582 583/583
f 584/584 585/585 586/586 587/587
f 588/588 589/589 590/590
f 591/591 592/592 593/593
f 594/594 595/595 596/596 597/597
f 598/598 599/599 600/600
f 601/601 602/602 603/603
f 604/604 605/605 606/606 607/607
f 608/608 609/609 610/610
f 611/611 612/612 613/613
f 614/614 615/615 616/616 617/617
f 618/618 619/619 620/620
f 621/621 622/622 623/623
f 624/624 625/625 626/626 627/627
f 628/628 629/629 630/630
f 631/631 632/632 633/633
f 634/634 635/635 636/636 637/637
f 638/638 639/639 640/640
f 641/641 642/642 643/643
f 644/644 645/645 646/646 647/647
f 648/648 649/649 650/650
f 651/651 652/652 653/653
f 654/654 655/655 656/656 657/657
f 658/658 659/659 660/660
f 661/661 662/662 663/663
f 664/664 665/665 666/666 667/667
f 668/668 669/669 670/670
f 671/671 672/672 673/673
f 674/674 675/675 676/676 677/677
f 678/678 679/679 680/680
f 681/681 682/682 683/683
f 684/684 685/685 686/686 687/687
f 688/688 689/689 690/690
f 691/691 692/692 693/693
f 694/694 695/695 696/696 697/697
f 698/698 699/699 700/700
f 701/701 702/702 703/703
f 704/704 705/705 706/706 707/707
f 708/708 709/709 710/710
f 711/711 712/712 713/713
f 714/714 715/715 716/716 717/717
f 718/718 719/719 720/720
f 721/721 722/722 723/723
f 724/724 725/725 726/726 727/727
f 728/728 729/729 730/730
f 731/731 732/732 733/733
f 734/734 735/735 736/736 737/737
f 738/738 739/739 740/740
f 741/741 742/742 743/743
f 744/744 745/745 746/746 747/747
f 748/748 749/749 750/750
f 751/751 752/752 753/753
f 754/754 755/755 756/756 757/757
f 758/758 759/759 760/760
f 761/761 762/762 763/763
f 764/764 765/765 766/766 767/767
f 768/768 769/769 770/770
f 771/771 772/772 773/773 774/774
f 775/775 776/776 777/777
f 778/778 779/779 780/780
f 781/781 782/782 783/783 784/784
f 785/785 786/786 787/787
f 788/788 789/789 790/790
f 791/791 792/792 793/793 794/794
f 795/795 796/796 797/797
f 798/798 799/799 800/800
f 801/801 802/802 803/803 804/804
f 805/805 806/806 807/807
f 808/808 809/809 810/810
f 811/811 812/812 813/813 814/814
f 815/815 816/816 817/817
f 818/818 819/819 820/820
f 821/821 822/822 823/823 824/824
f 825/825 826/826 827/827
f 828/828 829/829 830/830
f 831/831 832/832 833/833 834/834
f 835/835 836/836 837/837
f 838/838 839/839 840/840
f 841/841 842/842 843/843 844/844
f 845/845 846/846 847/847
f 848/848 849/849 850/850
f 851/851 852/852 853/853 854/854
f 855/855 856/856 857/857
f 858/858 859/859 860/860
f 861/861 862/862 863/863 864/864
f 865/865 866/866 867/867
f 868/868 869/869 870/870
f 871/871 872/872 873/873 874/874
f 875/875 876/876 877/877
f 878/878 879/879 880/880
f 881/881 882/882 883/883 884/884
f 885/885 886/886 887/887
f 888/888 889/889 890/890
f 891/891 892/892 893/893 894/894
f 895/895 896/896 897/897
f 898/898 899/899 900/900
f 901/901 902/902 903/903 904/904
f 905/905 906/906 907/907
f 908/908 909/909 910/910
f 911/911 912/912 913/913 914/914
f 915/915 916/916 917/917
f 918/918 919/919 920/920
f 921/921 922/922 923/923 924/924
f 925/925 926/926 927/927
f 928/928 929/929 930/930
f 931/931 932/932 933/933 934/934
f 935/935 936/936 937/937
f 938/938 939/939 940/940
f 941/941 942/942 943/943 944/944
f 945/945 946/946 947/947
f 948/948 949/949 950/950
