# Modelo original generado para Caelum Argenteum.
# Ejes OBJ: X ancho, Y altura, Z profundidad.
o ca_vein_ruby3
v 0.000000 0.000000 0.000000
v 38.824237 0.440912 0.000000
v 26.879125 1.079709 16.865806
v 38.824237 0.440912 0.000000
v 42.550652 15.778646 0.000000
v 39.012509 16.655083 24.479122
v 26.879125 1.079709 16.865806
v 42.550652 15.778646 0.000000
v 31.517837 33.256366 0.000000
v 23.996190 32.158690 15.056854
v 39.012509 16.655083 24.479122
v -4.417925 47.000000 2.184889
v 23.996190 32.158690 15.056854
v 31.517837 33.256366 0.000000
v 0.000000 0.000000 0.000000
v 26.879125 1.079709 16.865806
v 10.048546 -0.132109 26.709030
v 26.879125 1.079709 16.865806
v 39.012509 16.655083 24.479122
v 12.597704 15.076149 33.484690
v 10.048546 -0.132109 26.709030
v 39.012509 16.655083 24.479122
v 23.996190 32.158690 15.056854
v 9.449419 30.486512 25.116551
v 12.597704 15.076149 33.484690
v -4.417925 47.000000 2.184889
v 9.449419 30.486512 25.116551
v 23.996190 32.158690 15.056854
v 0.000000 0.000000 0.000000
v 10.048546 -0.132109 26.709030
v -12.334636 -1.555405 32.785455
v 10.048546 -0.132109 26.709030
v 12.597704 15.076149 33.484690
v -11.654548 15.551808 30.977781
v -12.334636 -1.555405 32.785455
v 12.597704 15.076149 33.484690
v 9.449419 30.486512 25.116551
v -10.051096 30.837299 26.715807
v -11.654548 15.551808 30.977781
v -4.417925 47.000000 2.184889
v -10.051096 30.837299 26.715807
v 9.449419 30.486512 25.116551
v 0.000000 0.000000 0.000000
v -12.334636 -1.555405 32.785455
v -24.614560 1.406135 15.444862
v -12.334636 -1.555405 32.785455
v -11.654548 15.551808 30.977781
v -34.060629 15.227725 21.371974
v -24.614560 1.406135 15.444862
v -11.654548 15.551808 30.977781
v -10.051096 30.837299 26.715807
v -23.642037 30.769635 14.834635
v -34.060629 15.227725 21.371974
v -4.417925 47.000000 2.184889
v -23.642037 30.769635 14.834635
v -10.051096 30.837299 26.715807
v 0.000000 0.000000 0.000000
v -24.614560 1.406135 15.444862
v -40.283522 -0.153356 0.000000
v -24.614560 1.406135 15.444862
v -34.060629 15.227725 21.371974
v -47.677484 15.464088 0.000000
v -40.283522 -0.153356 0.000000
v -34.060629 15.227725 21.371974
v -23.642037 30.769635 14.834635
v -31.498156 30.663927 0.000000
v -47.677484 15.464088 0.000000
v -4.417925 47.000000 2.184889
v -31.498156 30.663927 0.000000
v -23.642037 30.769635 14.834635
v 0.000000 0.000000 0.000000
v -40.283522 -0.153356 0.000000
v -33.764055 -0.112900 -21.185883
v -40.283522 -0.153356 0.000000
v -47.677484 15.464088 0.000000
v -40.180720 15.622739 -25.212138
v -33.764055 -0.112900 -21.185883
v -47.677484 15.464088 0.000000
v -31.498156 30.663927 0.000000
v -26.229775 31.423846 -16.458359
v -40.180720 15.622739 -25.212138
v -4.417925 47.000000 2.184889
v -26.229775 31.423846 -16.458359
v -31.498156 30.663927 0.000000
v 0.000000 0.000000 0.000000
v -33.764055 -0.112900 -21.185883
v -10.443264 -1.299371 -27.758190
v -33.764055 -0.112900 -21.185883
v -40.180720 15.622739 -25.212138
v -12.597147 16.647705 -33.483209
v -10.443264 -1.299371 -27.758190
v -40.180720 15.622739 -25.212138
v -26.229775 31.423846 -16.458359
v -11.692674 32.176326 -31.079120
v -12.597147 16.647705 -33.483209
v -4.417925 47.000000 2.184889
v -11.692674 32.176326 -31.079120
v -26.229775 31.423846 -16.458359
v 0.000000 0.000000 0.000000
v -10.443264 -1.299371 -27.758190
v 11.543977 1.132894 -30.683885
v -10.443264 -1.299371 -27.758190
v -12.597147 16.647705 -33.483209
v 12.741856 16.430297 -33.867847
v 11.543977 1.132894 -30.683885
v -12.597147 16.647705 -33.483209
v -11.692674 32.176326 -31.079120
v 10.819580 31.251836 -28.758437
v 12.741856 16.430297 -33.867847
v -4.417925 47.000000 2.184889
v 10.819580 31.251836 -28.758437
v -11.692674 32.176326 -31.079120
v 0.000000 0.000000 0.000000
v 11.543977 1.132894 -30.683885
v 34.818937 -0.944899 -21.847788
v 11.543977 1.132894 -30.683885
v 12.741856 16.430297 -33.867847
v 35.121742 14.814656 -22.037789
v 34.818937 -0.944899 -21.847788
v 12.741856 16.430297 -33.867847
v 10.819580 31.251836 -28.758437
v 22.303235 30.383730 -13.994578
v 35.121742 14.814656 -22.037789
v -4.417925 47.000000 2.184889
v 22.303235 30.383730 -13.994578
v 10.819580 31.251836 -28.758437
v 0.000000 0.000000 0.000000
v 34.818937 -0.944899 -21.847788
v 38.824237 0.440912 0.000000
v 34.818937 -0.944899 -21.847788
v 35.121742 14.814656 -22.037789
v 42.550652 15.778646 0.000000
v 38.824237 0.440912 0.000000
v 35.121742 14.814656 -22.037789
v 22.303235 30.383730 -13.994578
v 31.517837 33.256366 0.000000
v 42.550652 15.778646 0.000000
v -4.417925 47.000000 2.184889
v 31.517837 33.256366 0.000000
v 22.303235 30.383730 -13.994578
v 21.273841 25.236636 -3.793303
v 16.869978 24.893257 -1.225299
v 17.547373 59.445109 -0.078926
v 17.935230 59.475351 -0.305095
v 21.273841 25.411728 1.313154
v 16.869978 24.893257 -1.225299
v 21.273841 25.236636 -3.793303
v 17.935230 59.490772 0.144641
v 17.935230 59.475351 -0.305095
v 17.547373 59.445109 -0.078926
v 16.869978 24.893257 -1.225299
v 16.869978 25.068349 3.881159
v 17.547373 59.460530 0.370810
v 17.547373 59.445109 -0.078926
v 21.273841 25.411728 1.313154
v 16.869978 25.068349 3.881159
v 16.869978 24.893257 -1.225299
v 17.935230 59.490772 0.144641
v 17.547373 59.445109 -0.078926
v 17.547373 59.460530 0.370810
v 16.869978 25.068349 3.881159
v 21.273841 25.586820 6.419612
v 17.935230 59.506193 0.594376
v 17.547373 59.460530 0.370810
v 21.273841 25.411728 1.313154
v 21.273841 25.586820 6.419612
v 16.869978 25.068349 3.881159
v 17.935230 59.490772 0.144641
v 17.547373 59.460530 0.370810
v 17.935230 59.506193 0.594376
v 21.273841 25.586820 6.419612
v 25.677704 25.930199 3.851607
v 18.323087 59.536435 0.368207
v 17.935230 59.506193 0.594376
v 21.273841 25.411728 1.313154
v 25.677704 25.930199 3.851607
v 21.273841 25.586820 6.419612
v 17.935230 59.490772 0.144641
v 17.935230 59.506193 0.594376
v 18.323087 59.536435 0.368207
v 25.677704 25.930199 3.851607
v 25.677704 25.755107 -1.254850
v 18.323087 59.521014 -0.081529
v 18.323087 59.536435 0.368207
v 21.273841 25.411728 1.313154
v 25.677704 25.755107 -1.254850
v 25.677704 25.930199 3.851607
v 17.935230 59.490772 0.144641
v 18.323087 59.536435 0.368207
v 18.323087 59.521014 -0.081529
v 25.677704 25.755107 -1.254850
v 21.273841 25.236636 -3.793303
v 17.935230 59.475351 -0.305095
v 18.323087 59.521014 -0.081529
v 21.273841 25.411728 1.313154
v 21.273841 25.236636 -3.793303
v 25.677704 25.755107 -1.254850
v 17.935230 59.490772 0.144641
v 18.323087 59.521014 -0.081529
v 17.935230 59.475351 -0.305095
v 3.806454 23.280044 2.180765
v -0.095586 23.472926 5.438521
v 6.741673 58.896557 7.910514
v 7.086861 58.879494 7.622322
v 4.664971 23.097610 7.191331
v -0.095586 23.472926 5.438521
v 3.806454 23.280044 2.180765
v 7.162808 58.863355 8.065573
v 7.086861 58.879494 7.622322
v 6.741673 58.896557 7.910514
v -0.095586 23.472926 5.438521
v 0.762930 23.290492 10.449087
v 6.817620 58.880418 8.353765
v 6.741673 58.896557 7.910514
v 4.664971 23.097610 7.191331
v 0.762930 23.290492 10.449087
v -0.095586 23.472926 5.438521
v 7.162808 58.863355 8.065573
v 6.741673 58.896557 7.910514
v 6.817620 58.880418 8.353765
v 0.762930 23.290492 10.449087
v 5.523487 22.915176 12.201896
v 7.238755 58.847216 8.508825
v 6.817620 58.880418 8.353765
v 4.664971 23.097610 7.191331
v 5.523487 22.915176 12.201896
v 0.762930 23.290492 10.449087
v 7.162808 58.863355 8.065573
v 6.817620 58.880418 8.353765
v 7.238755 58.847216 8.508825
v 5.523487 22.915176 12.201896
v 9.425528 22.722293 8.944140
v 7.583942 58.830153 8.220633
v 7.238755 58.847216 8.508825
v 4.664971 23.097610 7.191331
v 9.425528 22.722293 8.944140
v 5.523487 22.915176 12.201896
v 7.162808 58.863355 8.065573
v 7.238755 58.847216 8.508825
v 7.583942 58.830153 8.220633
v 9.425528 22.722293 8.944140
v 8.567011 22.904727 3.933574
v 7.507995 58.846292 7.777382
v 7.583942 58.830153 8.220633
v 4.664971 23.097610 7.191331
v 8.567011 22.904727 3.933574
v 9.425528 22.722293 8.944140
v 7.162808 58.863355 8.065573
v 7.583942 58.830153 8.220633
v 7.507995 58.846292 7.777382
v 8.567011 22.904727 3.933574
v 3.806454 23.280044 2.180765
v 7.086861 58.879494 7.622322
v 7.507995 58.846292 7.777382
v 4.664971 23.097610 7.191331
v 3.806454 23.280044 2.180765
v 8.567011 22.904727 3.933574
v 7.162808 58.863355 8.065573
v 7.507995 58.846292 7.777382
v 7.086861 58.879494 7.622322
v -8.785080 25.942191 10.410442
v -12.978673 25.976109 15.317816
v -6.776507 47.675906 16.518236
v -6.484167 47.673541 16.176137
v -6.632554 25.883526 16.495907
v -12.978673 25.976109 15.317816
v -8.785080 25.942191 10.410442
v -6.334112 47.669452 16.600362
v -6.484167 47.673541 16.176137
v -6.776507 47.675906 16.518236
v -12.978673 25.976109 15.317816
v -10.826147 25.917445 21.403281
v -6.626452 47.671816 16.942460
v -6.776507 47.675906 16.518236
v -6.632554 25.883526 16.495907
v -10.826147 25.917445 21.403281
v -12.978673 25.976109 15.317816
v -6.334112 47.669452 16.600362
v -6.776507 47.675906 16.518236
v -6.626452 47.671816 16.942460
v -10.826147 25.917445 21.403281
v -4.480028 25.824862 22.581372
v -6.184057 47.665362 17.024586
v -6.626452 47.671816 16.942460
v -6.632554 25.883526 16.495907
v -4.480028 25.824862 22.581372
v -10.826147 25.917445 21.403281
v -6.334112 47.669452 16.600362
v -6.626452 47.671816 16.942460
v -6.184057 47.665362 17.024586
v -4.480028 25.824862 22.581372
v -0.286435 25.790943 17.673997
v -5.891717 47.662998 16.682488
v -6.184057 47.665362 17.024586
v -6.632554 25.883526 16.495907
v -0.286435 25.790943 17.673997
v -4.480028 25.824862 22.581372
v -6.334112 47.669452 16.600362
v -6.184057 47.665362 17.024586
v -5.891717 47.662998 16.682488
v -0.286435 25.790943 17.673997
v -2.438961 25.849608 11.588532
v -6.041772 47.667087 16.258263
v -5.891717 47.662998 16.682488
v -6.632554 25.883526 16.495907
v -2.438961 25.849608 11.588532
v -0.286435 25.790943 17.673997
v -6.334112 47.669452 16.600362
v -5.891717 47.662998 16.682488
v -6.041772 47.667087 16.258263
v -2.438961 25.849608 11.588532
v -8.785080 25.942191 10.410442
v -6.484167 47.673541 16.176137
v -6.041772 47.667087 16.258263
v -6.632554 25.883526 16.495907
v -8.785080 25.942191 10.410442
v -2.438961 25.849608 11.588532
v -6.334112 47.669452 16.600362
v -6.041772 47.667087 16.258263
v -6.484167 47.673541 16.176137
v -15.478100 27.948384 -3.012756
v -19.031868 28.068503 2.979884
v -9.870860 59.847355 3.985947
v -9.641360 59.839598 3.598946
v -12.087899 27.493508 3.058081
v -19.031868 28.068503 2.979884
v -15.478100 27.948384 -3.012756
v -9.422424 59.810223 3.990997
v -9.641360 59.839598 3.598946
v -9.870860 59.847355 3.985947
v -19.031868 28.068503 2.979884
v -15.641667 27.613627 9.050722
v -9.651923 59.817980 4.377998
v -9.870860 59.847355 3.985947
v -12.087899 27.493508 3.058081
v -15.641667 27.613627 9.050722
v -19.031868 28.068503 2.979884
v -9.422424 59.810223 3.990997
v -9.870860 59.847355 3.985947
v -9.651923 59.817980 4.377998
v -15.641667 27.613627 9.050722
v -8.697698 27.038633 9.128918
v -9.203487 59.780847 4.383048
v -9.651923 59.817980 4.377998
v -12.087899 27.493508 3.058081
v -8.697698 27.038633 9.128918
v -15.641667 27.613627 9.050722
v -9.422424 59.810223 3.990997
v -9.651923 59.817980 4.377998
v -9.203487 59.780847 4.383048
v -8.697698 27.038633 9.128918
v -5.143930 26.918514 3.136277
v -8.973987 59.773090 3.996047
v -9.203487 59.780847 4.383048
v -12.087899 27.493508 3.058081
v -5.143930 26.918514 3.136277
v -8.697698 27.038633 9.128918
v -9.422424 59.810223 3.990997
v -9.203487 59.780847 4.383048
v -8.973987 59.773090 3.996047
v -5.143930 26.918514 3.136277
v -8.534131 27.373389 -2.934560
v -9.192924 59.802465 3.603996
v -8.973987 59.773090 3.996047
v -12.087899 27.493508 3.058081
v -8.534131 27.373389 -2.934560
v -5.143930 26.918514 3.136277
v -9.422424 59.810223 3.990997
v -8.973987 59.773090 3.996047
v -9.192924 59.802465 3.603996
v -8.534131 27.373389 -2.934560
v -15.478100 27.948384 -3.012756
v -9.641360 59.839598 3.598946
v -9.192924 59.802465 3.603996
v -12.087899 27.493508 3.058081
v -15.478100 27.948384 -3.012756
v -8.534131 27.373389 -2.934560
v -9.422424 59.810223 3.990997
v -9.192924 59.802465 3.603996
v -9.641360 59.839598 3.598946
v -20.960873 23.946507 -10.816106
v -22.915877 23.939788 -5.729140
v -19.179552 55.263804 -6.929950
v -19.018121 55.264358 -7.349997
v -17.536669 24.135353 -6.580722
v -22.915877 23.939788 -5.729140
v -20.960873 23.946507 -10.816106
v -18.735373 55.279952 -7.000268
v -19.018121 55.264358 -7.349997
v -19.179552 55.263804 -6.929950
v -22.915877 23.939788 -5.729140
v -19.491674 24.128634 -1.493755
v -18.896804 55.279397 -6.580221
v -19.179552 55.263804 -6.929950
v -17.536669 24.135353 -6.580722
v -19.491674 24.128634 -1.493755
v -22.915877 23.939788 -5.729140
v -18.735373 55.279952 -7.000268
v -19.179552 55.263804 -6.929950
v -18.896804 55.279397 -6.580221
v -19.491674 24.128634 -1.493755
v -14.112466 24.324200 -2.345337
v -18.452626 55.295546 -6.650539
v -18.896804 55.279397 -6.580221
v -17.536669 24.135353 -6.580722
v -14.112466 24.324200 -2.345337
v -19.491674 24.128634 -1.493755
v -18.735373 55.279952 -7.000268
v -18.896804 55.279397 -6.580221
v -18.452626 55.295546 -6.650539
v -14.112466 24.324200 -2.345337
v -12.157461 24.330918 -7.432303
v -18.291195 55.296101 -7.070586
v -18.452626 55.295546 -6.650539
v -17.536669 24.135353 -6.580722
v -12.157461 24.330918 -7.432303
v -14.112466 24.324200 -2.345337
v -18.735373 55.279952 -7.000268
v -18.452626 55.295546 -6.650539
v -18.291195 55.296101 -7.070586
v -12.157461 24.330918 -7.432303
v -15.581665 24.142072 -11.667688
v -18.573942 55.280507 -7.420315
v -18.291195 55.296101 -7.070586
v -17.536669 24.135353 -6.580722
v -15.581665 24.142072 -11.667688
v -12.157461 24.330918 -7.432303
v -18.735373 55.279952 -7.000268
v -18.291195 55.296101 -7.070586
v -18.573942 55.280507 -7.420315
v -15.581665 24.142072 -11.667688
v -20.960873 23.946507 -10.816106
v -19.018121 55.264358 -7.349997
v -18.573942 55.280507 -7.420315
v -17.536669 24.135353 -6.580722
v -20.960873 23.946507 -10.816106
v -15.581665 24.142072 -11.667688
v -18.735373 55.279952 -7.000268
v -18.573942 55.280507 -7.420315
v -19.018121 55.264358 -7.349997
v -7.804250 31.992617 -25.633528
v -9.165077 32.059249 -18.807854
v -5.053542 63.921626 -21.618560
v -4.965562 63.917318 -22.059855
v -2.586036 32.434793 -21.048680
v -9.165077 32.059249 -18.807854
v -7.804250 31.992617 -25.633528
v -4.628193 63.945906 -21.763435
v -4.965562 63.917318 -22.059855
v -5.053542 63.921626 -21.618560
v -9.165077 32.059249 -18.807854
v -3.946863 32.501425 -14.223006
v -4.716173 63.950214 -21.322140
v -5.053542 63.921626 -21.618560
v -2.586036 32.434793 -21.048680
v -3.946863 32.501425 -14.223006
v -9.165077 32.059249 -18.807854
v -4.628193 63.945906 -21.763435
v -5.053542 63.921626 -21.618560
v -4.716173 63.950214 -21.322140
v -3.946863 32.501425 -14.223006
v 2.632178 32.876968 -16.463831
v -4.290824 63.974494 -21.467014
v -4.716173 63.950214 -21.322140
v -2.586036 32.434793 -21.048680
v 2.632178 32.876968 -16.463831
v -3.946863 32.501425 -14.223006
v -4.628193 63.945906 -21.763435
v -4.716173 63.950214 -21.322140
v -4.290824 63.974494 -21.467014
v 2.632178 32.876968 -16.463831
v 3.993005 32.810336 -23.289505
v -4.202844 63.970186 -21.908309
v -4.290824 63.974494 -21.467014
v -2.586036 32.434793 -21.048680
v 3.993005 32.810336 -23.289505
v 2.632178 32.876968 -16.463831
v -4.628193 63.945906 -21.763435
v -4.290824 63.974494 -21.467014
v -4.202844 63.970186 -21.908309
v 3.993005 32.810336 -23.289505
v -1.225209 32.368160 -27.874354
v -4.540213 63.941598 -22.204729
v -4.202844 63.970186 -21.908309
v -2.586036 32.434793 -21.048680
v -1.225209 32.368160 -27.874354
v 3.993005 32.810336 -23.289505
v -4.628193 63.945906 -21.763435
v -4.202844 63.970186 -21.908309
v -4.540213 63.941598 -22.204729
v -1.225209 32.368160 -27.874354
v -7.804250 31.992617 -25.633528
v -4.965562 63.917318 -22.059855
v -4.540213 63.941598 -22.204729
v -2.586036 32.434793 -21.048680
v -7.804250 31.992617 -25.633528
v -1.225209 32.368160 -27.874354
v -4.628193 63.945906 -21.763435
v -4.540213 63.941598 -22.204729
v -4.965562 63.917318 -22.059855
v 9.728389 27.869167 -26.116309
v 9.548211 27.938739 -19.490011
v 14.089551 55.417449 -22.745904
v 14.101782 55.412726 -23.195713
v 15.374124 28.092264 -22.649172
v 9.548211 27.938739 -19.490011
v 9.728389 27.869167 -26.116309
v 14.485028 55.427871 -22.960355
v 14.101782 55.412726 -23.195713
v 14.089551 55.417449 -22.745904
v 9.548211 27.938739 -19.490011
v 15.193946 28.161837 -16.022874
v 14.472797 55.432593 -22.510547
v 14.089551 55.417449 -22.745904
v 15.374124 28.092264 -22.649172
v 15.193946 28.161837 -16.022874
v 9.548211 27.938739 -19.490011
v 14.485028 55.427871 -22.960355
v 14.089551 55.417449 -22.745904
v 14.472797 55.432593 -22.510547
v 15.193946 28.161837 -16.022874
v 21.019859 28.315362 -19.182035
v 14.868274 55.443015 -22.724998
v 14.472797 55.432593 -22.510547
v 15.374124 28.092264 -22.649172
v 21.019859 28.315362 -19.182035
v 15.193946 28.161837 -16.022874
v 14.485028 55.427871 -22.960355
v 14.472797 55.432593 -22.510547
v 14.868274 55.443015 -22.724998
v 21.019859 28.315362 -19.182035
v 21.200037 28.245790 -25.808333
v 14.880505 55.438292 -23.174807
v 14.868274 55.443015 -22.724998
v 15.374124 28.092264 -22.649172
v 21.200037 28.245790 -25.808333
v 21.019859 28.315362 -19.182035
v 14.485028 55.427871 -22.960355
v 14.868274 55.443015 -22.724998
v 14.880505 55.438292 -23.174807
v 21.200037 28.245790 -25.808333
v 15.554302 28.022692 -29.275470
v 14.497259 55.423148 -23.410164
v 14.880505 55.438292 -23.174807
v 15.374124 28.092264 -22.649172
v 15.554302 28.022692 -29.275470
v 21.200037 28.245790 -25.808333
v 14.485028 55.427871 -22.960355
v 14.880505 55.438292 -23.174807
v 14.497259 55.423148 -23.410164
v 15.554302 28.022692 -29.275470
v 9.728389 27.869167 -26.116309
v 14.101782 55.412726 -23.195713
v 14.497259 55.423148 -23.410164
v 15.374124 28.092264 -22.649172
v 9.728389 27.869167 -26.116309
v 15.554302 28.022692 -29.275470
v 14.485028 55.427871 -22.960355
v 14.497259 55.423148 -23.410164
v 14.101782 55.412726 -23.195713
vt 0.500000 1.000000
vt 0.000000 0.000000
vt 1.000000 0.000000
vt 0.000000 0.000000
vt 1.000000 0.000000
vt 1.000000 1.000000
vt 0.000000 1.000000
vt 0.000000 0.000000
vt 1.000000 0.000000
vt 1.000000 1.000000
vt 0.000000 1.000000
vt 0.500000 1.000000
vt 0.000000 0.000000
vt 1.000000 0.000000
vt 0.500000 1.000000
vt 0.000000 0.000000
vt 1.000000 0.000000
vt 0.000000 0.000000
vt 1.000000 0.000000
vt 1.000000 1.000000
vt 0.000000 1.000000
vt 0.000000 0.000000
vt 1.000000 0.000000
vt 1.000000 1.000000
vt 0.000000 1.000000
vt 0.500000 1.000000
vt 0.000000 0.000000
vt 1.000000 0.000000
vt 0.500000 1.000000
vt 0.000000 0.000000
vt 1.000000 0.000000
vt 0.000000 0.000000
vt 1.000000 0.000000
vt 1.000000 1.000000
vt 0.000000 1.000000
vt 0.000000 0.000000
vt 1.000000 0.000000
vt 1.000000 1.000000
vt 0.000000 1.000000
vt 0.500000 1.000000
vt 0.000000 0.000000
vt 1.000000 0.000000
vt 0.500000 1.000000
vt 0.000000 0.000000
vt 1.000000 0.000000
vt 0.000000 0.000000
vt 1.000000 0.000000
vt 1.000000 1.000000
vt 0.000000 1.000000
vt 0.000000 0.000000
vt 1.000000 0.000000
vt 1.000000 1.000000
vt 0.000000 1.000000
vt 0.500000 1.000000
vt 0.000000 0.000000
vt 1.000000 0.000000
vt 0.500000 1.000000
vt 0.000000 0.000000
vt 1.000000 0.000000
vt 0.000000 0.000000
vt 1.000000 0.000000
vt 1.000000 1.000000
vt 0.000000 1.000000
vt 0.000000 0.000000
vt 1.000000 0.000000
vt 1.000000 1.000000
vt 0.000000 1.000000
vt 0.500000 1.000000
vt 0.000000 0.000000
vt 1.000000 0.000000
vt 0.500000 1.000000
vt 0.000000 0.000000
vt 1.000000 0.000000
vt 0.000000 0.000000
vt 1.000000 0.000000
vt 1.000000 1.000000
vt 0.000000 1.000000
vt 0.000000 0.000000
vt 1.000000 0.000000
vt 1.000000 1.000000
vt 0.000000 1.000000
vt 0.500000 1.000000
vt 0.000000 0.000000
vt 1.000000 0.000000
vt 0.500000 1.000000
vt 0.000000 0.000000
vt 1.000000 0.000000
vt 0.000000 0.000000
vt 1.000000 0.000000
vt 1.000000 1.000000
vt 0.000000 1.000000
vt 0.000000 0.000000
vt 1.000000 0.000000
vt 1.000000 1.000000
vt 0.000000 1.000000
vt 0.500000 1.000000
vt 0.000000 0.000000
vt 1.000000 0.000000
vt 0.500000 1.000000
vt 0.000000 0.000000
vt 1.000000 0.000000
vt 0.000000 0.000000
vt 1.000000 0.000000
vt 1.000000 1.000000
vt 0.000000 1.000000
vt 0.000000 0.000000
vt 1.000000 0.000000
vt 1.000000 1.000000
vt 0.000000 1.000000
vt 0.500000 1.000000
vt 0.000000 0.000000
vt 1.000000 0.000000
vt 0.500000 1.000000
vt 0.000000 0.000000
vt 1.000000 0.000000
vt 0.000000 0.000000
vt 1.000000 0.000000
vt 1.000000 1.000000
vt 0.000000 1.000000
vt 0.000000 0.000000
vt 1.000000 0.000000
vt 1.000000 1.000000
vt 0.000000 1.000000
vt 0.500000 1.000000
vt 0.000000 0.000000
vt 1.000000 0.000000
vt 0.500000 1.000000
vt 0.000000 0.000000
vt 1.000000 0.000000
vt 0.000000 0.000000
vt 1.000000 0.000000
vt 1.000000 1.000000
vt 0.000000 1.000000
vt 0.000000 0.000000
vt 1.000000 0.000000
vt 1.000000 1.000000
vt 0.000000 1.000000
vt 0.500000 1.000000
vt 0.000000 0.000000
vt 1.000000 0.000000
vt 0.000000 0.000000
vt 1.000000 0.000000
vt 1.000000 1.000000
vt 0.000000 1.000000
vt 0.500000 1.000000
vt 0.000000 0.000000
vt 1.000000 0.000000
vt 0.500000 1.000000
vt 0.000000 0.000000
vt 1.000000 0.000000
vt 0.000000 0.000000
vt 1.000000 0.000000
vt 1.000000 1.000000
vt 0.000000 1.000000
vt 0.500000 1.000000
vt 0.000000 0.000000
vt 1.000000 0.000000
vt 0.500000 1.000000
vt 0.000000 0.000000
vt 1.000000 0.000000
vt 0.000000 0.000000
vt 1.000000 0.000000
vt 1.000000 1.000000
vt 0.000000 1.000000
vt 0.500000 1.000000
vt 0.000000 0.000000
vt 1.000000 0.000000
vt 0.500000 1.000000
vt 0.000000 0.000000
vt 1.000000 0.000000
vt 0.000000 0.000000
vt 1.000000 0.000000
vt 1.000000 1.000000
vt 0.000000 1.000000
vt 0.500000 1.000000
vt 0.000000 0.000000
vt 1.000000 0.000000
vt 0.500000 1.000000
vt 0.000000 0.000000
vt 1.000000 0.000000
vt 0.000000 0.000000
vt 1.000000 0.000000
vt 1.000000 1.000000
vt 0.000000 1.000000
vt 0.500000 1.000000
vt 0.000000 0.000000
vt 1.000000 0.000000
vt 0.500000 1.000000
vt 0.000000 0.000000
vt 1.000000 0.000000
vt 0.000000 0.000000
vt 1.000000 0.000000
vt 1.000000 1.000000
vt 0.000000 1.000000
vt 0.500000 1.000000
vt 0.000000 0.000000
vt 1.000000 0.000000
vt 0.500000 1.000000
vt 0.000000 0.000000
vt 1.000000 0.000000
vt 0.000000 0.000000
vt 1.000000 0.000000
vt 1.000000 1.000000
vt 0.000000 1.000000
vt 0.500000 1.000000
vt 0.000000 0.000000
vt 1.000000 0.000000
vt 0.500000 1.000000
vt 0.000000 0.000000
vt 1.000000 0.000000
vt 0.000000 0.000000
vt 1.000000 0.000000
vt 1.000000 1.000000
vt 0.000000 1.000000
vt 0.500000 1.000000
vt 0.000000 0.000000
vt 1.000000 0.000000
vt 0.500000 1.000000
vt 0.000000 0.000000
vt 1.000000 0.000000
vt 0.000000 0.000000
vt 1.000000 0.000000
vt 1.000000 1.000000
vt 0.000000 1.000000
vt 0.500000 1.000000
vt 0.000000 0.000000
vt 1.000000 0.000000
vt 0.500000 1.000000
vt 0.000000 0.000000
vt 1.000000 0.000000
vt 0.000000 0.000000
vt 1.000000 0.000000
vt 1.000000 1.000000
vt 0.000000 1.000000
vt 0.500000 1.000000
vt 0.000000 0.000000
vt 1.000000 0.000000
vt 0.500000 1.000000
vt 0.000000 0.000000
vt 1.000000 0.000000
vt 0.000000 0.000000
vt 1.000000 0.000000
vt 1.000000 1.000000
vt 0.000000 1.000000
vt 0.500000 1.000000
vt 0.000000 0.000000
vt 1.000000 0.000000
vt 0.500000 1.000000
vt 0.000000 0.000000
vt 1.000000 0.000000
vt 0.000000 0.000000
vt 1.000000 0.000000
vt 1.000000 1.000000
vt 0.000000 1.000000
vt 0.500000 1.000000
vt 0.000000 0.000000
vt 1.000000 0.000000
vt 0.500000 1.000000
vt 0.000000 0.000000
vt 1.000000 0.000000
vt 0.000000 0.000000
vt 1.000000 0.000000
vt 1.000000 1.000000
vt 0.000000 1.000000
vt 0.500000 1.000000
vt 0.000000 0.000000
vt 1.000000 0.000000
vt 0.500000 1.000000
vt 0.000000 0.000000
vt 1.000000 0.000000
vt 0.000000 0.000000
vt 1.000000 0.000000
vt 1.000000 1.000000
vt 0.000000 1.000000
vt 0.500000 1.000000
vt 0.000000 0.000000
vt 1.000000 0.000000
vt 0.500000 1.000000
vt 0.000000 0.000000
vt 1.000000 0.000000
vt 0.000000 0.000000
vt 1.000000 0.000000
vt 1.000000 1.000000
vt 0.000000 1.000000
vt 0.500000 1.000000
vt 0.000000 0.000000
vt 1.000000 0.000000
vt 0.500000 1.000000
vt 0.000000 0.000000
vt 1.000000 0.000000
vt 0.000000 0.000000
vt 1.000000 0.000000
vt 1.000000 1.000000
vt 0.000000 1.000000
vt 0.500000 1.000000
vt 0.000000 0.000000
vt 1.000000 0.000000
vt 0.500000 1.000000
vt 0.000000 0.000000
vt 1.000000 0.000000
vt 0.000000 0.000000
vt 1.000000 0.000000
vt 1.000000 1.000000
vt 0.000000 1.000000
vt 0.500000 1.000000
vt 0.000000 0.000000
vt 1.000000 0.000000
vt 0.500000 1.000000
vt 0.000000 0.000000
vt 1.000000 0.000000
vt 0.000000 0.000000
vt 1.000000 0.000000
vt 1.000000 1.000000
vt 0.000000 1.000000
vt 0.500000 1.000000
vt 0.000000 0.000000
vt 1.000000 0.000000
vt 0.500000 1.000000
vt 0.000000 0.000000
vt 1.000000 0.000000
vt 0.000000 0.000000
vt 1.000000 0.000000
vt 1.000000 1.000000
vt 0.000000 1.000000
vt 0.500000 1.000000
vt 0.000000 0.000000
vt 1.000000 0.000000
vt 0.500000 1.000000
vt 0.000000 0.000000
vt 1.000000 0.000000
vt 0.000000 0.000000
vt 1.000000 0.000000
vt 1.000000 1.000000
vt 0.000000 1.000000
vt 0.500000 1.000000
vt 0.000000 0.000000
vt 1.000000 0.000000
vt 0.500000 1.000000
vt 0.000000 0.000000
vt 1.000000 0.000000
vt 0.000000 0.000000
vt 1.000000 0.000000
vt 1.000000 1.000000
vt 0.000000 1.000000
vt 0.500000 1.000000
vt 0.000000 0.000000
vt 1.000000 0.000000
vt 0.500000 1.000000
vt 0.000000 0.000000
vt 1.000000 0.000000
vt 0.000000 0.000000
vt 1.000000 0.000000
vt 1.000000 1.000000
vt 0.000000 1.000000
vt 0.500000 1.000000
vt 0.000000 0.000000
vt 1.000000 0.000000
vt 0.500000 1.000000
vt 0.000000 0.000000
vt 1.000000 0.000000
vt 0.000000 0.000000
vt 1.000000 0.000000
vt 1.000000 1.000000
vt 0.000000 1.000000
vt 0.500000 1.000000
vt 0.000000 0.000000
vt 1.000000 0.000000
vt 0.500000 1.000000
vt 0.000000 0.000000
vt 1.000000 0.000000
vt 0.000000 0.000000
vt 1.000000 0.000000
vt 1.000000 1.000000
vt 0.000000 1.000000
vt 0.500000 1.000000
vt 0.000000 0.000000
vt 1.000000 0.000000
vt 0.500000 1.000000
vt 0.000000 0.000000
vt 1.000000 0.000000
vt 0.000000 0.000000
vt 1.000000 0.000000
vt 1.000000 1.000000
vt 0.000000 1.000000
vt 0.500000 1.000000
vt 0.000000 0.000000
vt 1.000000 0.000000
vt 0.500000 1.000000
vt 0.000000 0.000000
vt 1.000000 0.000000
vt 0.000000 0.000000
vt 1.000000 0.000000
vt 1.000000 1.000000
vt 0.000000 1.000000
vt 0.500000 1.000000
vt 0.000000 0.000000
vt 1.000000 0.000000
vt 0.500000 1.000000
vt 0.000000 0.000000
vt 1.000000 0.000000
vt 0.000000 0.000000
vt 1.000000 0.000000
vt 1.000000 1.000000
vt 0.000000 1.000000
vt 0.500000 1.000000
vt 0.000000 0.000000
vt 1.000000 0.000000
vt 0.500000 1.000000
vt 0.000000 0.000000
vt 1.000000 0.000000
vt 0.000000 0.000000
vt 1.000000 0.000000
vt 1.000000 1.000000
vt 0.000000 1.000000
vt 0.500000 1.000000
vt 0.000000 0.000000
vt 1.000000 0.000000
vt 0.500000 1.000000
vt 0.000000 0.000000
vt 1.000000 0.000000
vt 0.000000 0.000000
vt 1.000000 0.000000
vt 1.000000 1.000000
vt 0.000000 1.000000
vt 0.500000 1.000000
vt 0.000000 0.000000
vt 1.000000 0.000000
vt 0.500000 1.000000
vt 0.000000 0.000000
vt 1.000000 0.000000
vt 0.000000 0.000000
vt 1.000000 0.000000
vt 1.000000 1.000000
vt 0.000000 1.000000
vt 0.500000 1.000000
vt 0.000000 0.000000
vt 1.000000 0.000000
vt 0.500000 1.000000
vt 0.000000 0.000000
vt 1.000000 0.000000
vt 0.000000 0.000000
vt 1.000000 0.000000
vt 1.000000 1.000000
vt 0.000000 1.000000
vt 0.500000 1.000000
vt 0.000000 0.000000
vt 1.000000 0.000000
vt 0.500000 1.000000
vt 0.000000 0.000000
vt 1.000000 0.000000
vt 0.000000 0.000000
vt 1.000000 0.000000
vt 1.000000 1.000000
vt 0.000000 1.000000
vt 0.500000 1.000000
vt 0.000000 0.000000
vt 1.000000 0.000000
vt 0.500000 1.000000
vt 0.000000 0.000000
vt 1.000000 0.000000
vt 0.000000 0.000000
vt 1.000000 0.000000
vt 1.000000 1.000000
vt 0.000000 1.000000
vt 0.500000 1.000000
vt 0.000000 0.000000
vt 1.000000 0.000000
vt 0.500000 1.000000
vt 0.000000 0.000000
vt 1.000000 0.000000
vt 0.000000 0.000000
vt 1.000000 0.000000
vt 1.000000 1.000000
vt 0.000000 1.000000
vt 0.500000 1.000000
vt 0.000000 0.000000
vt 1.000000 0.000000
vt 0.500000 1.000000
vt 0.000000 0.000000
vt 1.000000 0.000000
vt 0.000000 0.000000
vt 1.000000 0.000000
vt 1.000000 1.000000
vt 0.000000 1.000000
vt 0.500000 1.000000
vt 0.000000 0.000000
vt 1.000000 0.000000
vt 0.500000 1.000000
vt 0.000000 0.000000
vt 1.000000 0.000000
vt 0.000000 0.000000
vt 1.000000 0.000000
vt 1.000000 1.000000
vt 0.000000 1.000000
vt 0.500000 1.000000
vt 0.000000 0.000000
vt 1.000000 0.000000
vt 0.500000 1.000000
vt 0.000000 0.000000
vt 1.000000 0.000000
vt 0.000000 0.000000
vt 1.000000 0.000000
vt 1.000000 1.000000
vt 0.000000 1.000000
vt 0.500000 1.000000
vt 0.000000 0.000000
vt 1.000000 0.000000
vt 0.500000 1.000000
vt 0.000000 0.000000
vt 1.000000 0.000000
vt 0.000000 0.000000
vt 1.000000 0.000000
vt 1.000000 1.000000
vt 0.000000 1.000000
vt 0.500000 1.000000
vt 0.000000 0.000000
vt 1.000000 0.000000
vt 0.500000 1.000000
vt 0.000000 0.000000
vt 1.000000 0.000000
vt 0.000000 0.000000
vt 1.000000 0.000000
vt 1.000000 1.000000
vt 0.000000 1.000000
vt 0.500000 1.000000
vt 0.000000 0.000000
vt 1.000000 0.000000
vt 0.500000 1.000000
vt 0.000000 0.000000
vt 1.000000 0.000000
vt 0.000000 0.000000
vt 1.000000 0.000000
vt 1.000000 1.000000
vt 0.000000 1.000000
vt 0.500000 1.000000
vt 0.000000 0.000000
vt 1.000000 0.000000
vt 0.500000 1.000000
vt 0.000000 0.000000
vt 1.000000 0.000000
vt 0.000000 0.000000
vt 1.000000 0.000000
vt 1.000000 1.000000
vt 0.000000 1.000000
vt 0.500000 1.000000
vt 0.000000 0.000000
vt 1.000000 0.000000
vt 0.500000 1.000000
vt 0.000000 0.000000
vt 1.000000 0.000000
vt 0.000000 0.000000
vt 1.000000 0.000000
vt 1.000000 1.000000
vt 0.000000 1.000000
vt 0.500000 1.000000
vt 0.000000 0.000000
vt 1.000000 0.000000
vt 0.500000 1.000000
vt 0.000000 0.000000
vt 1.000000 0.000000
s 1
usemtl models/caelum/world/environment/rock_granite.png
f 1/1 2/2 3/3
f 4/4 5/5 6/6 7/7
f 8/8 9/9 10/10 11/11
f 12/12 13/13 14/14
f 15/15 16/16 17/17
f 18/18 19/19 20/20 21/21
f 22/22 23/23 24/24 25/25
f 26/26 27/27 28/28
f 29/29 30/30 31/31
f 32/32 33/33 34/34 35/35
f 36/36 37/37 38/38 39/39
f 40/40 41/41 42/42
f 43/43 44/44 45/45
f 46/46 47/47 48/48 49/49
f 50/50 51/51 52/52 53/53
f 54/54 55/55 56/56
f 57/57 58/58 59/59
f 60/60 61/61 62/62 63/63
f 64/64 65/65 66/66 67/67
f 68/68 69/69 70/70
f 71/71 72/72 73/73
f 74/74 75/75 76/76 77/77
f 78/78 79/79 80/80 81/81
f 82/82 83/83 84/84
f 85/85 86/86 87/87
f 88/88 89/89 90/90 91/91
f 92/92 93/93 94/94 95/95
f 96/96 97/97 98/98
f 99/99 100/100 101/101
f 102/102 103/103 104/104 105/105
f 106/106 107/107 108/108 109/109
f 110/110 111/111 112/112
f 113/113 114/114 115/115
f 116/116 117/117 118/118 119/119
f 120/120 121/121 122/122 123/123
f 124/124 125/125 126/126
f 127/127 128/128 129/129
f 130/130 131/131 132/132 133/133
f 134/134 135/135 136/136 137/137
f 138/138 139/139 140/140
usemtl models/caelum/world/resources/ca_vein_ruby.png
f 141/141 142/142 143/143 144/144
f 145/145 146/146 147/147
f 148/148 149/149 150/150
f 151/151 152/152 153/153 154/154
f 155/155 156/156 157/157
f 158/158 159/159 160/160
f 161/161 162/162 163/163 164/164
f 165/165 166/166 167/167
f 168/168 169/169 170/170
f 171/171 172/172 173/173 174/174
f 175/175 176/176 177/177
f 178/178 179/179 180/180
f 181/181 182/182 183/183 184/184
f 185/185 186/186 187/187
f 188/188 189/189 190/190
f 191/191 192/192 193/193 194/194
f 195/195 196/196 197/197
f 198/198 199/199 200/200
f 201/201 202/202 203/203 204/204
f 205/205 206/206 207/207
f 208/208 209/209 210/210
f 211/211 212/212 213/213 214/214
f 215/215 216/216 217/217
f 218/218 219/219 220/220
f 221/221 222/222 223/223 224/224
f 225/225 226/226 227/227
f 228/228 229/229 230/230
f 231/231 232/232 233/233 234/234
f 235/235 236/236 237/237
f 238/238 239/239 240/240
f 241/241 242/242 243/243 244/244
f 245/245 246/246 247/247
f 248/248 249/249 250/250
f 251/251 252/252 253/253 254/254
f 255/255 256/256 257/257
f 258/258 259/259 260/260
f 261/261 262/262 263/263 264/264
f 265/265 266/266 267/267
f 268/268 269/269 270/270
f 271/271 272/272 273/273 274/274
f 275/275 276/276 277/277
f 278/278 279/279 280/280
f 281/281 282/282 283/283 284/284
f 285/285 286/286 287/287
f 288/288 289/289 290/290
f 291/291 292/292 293/293 294/294
f 295/295 296/296 297/297
f 298/298 299/299 300/300
f 301/301 302/302 303/303 304/304
f 305/305 306/306 307/307
f 308/308 309/309 310/310
f 311/311 312/312 313/313 314/314
f 315/315 316/316 317/317
f 318/318 319/319 320/320
f 321/321 322/322 323/323 324/324
f 325/325 326/326 327/327
f 328/328 329/329 330/330
f 331/331 332/332 333/333 334/334
f 335/335 336/336 337/337
f 338/338 339/339 340/340
f 341/341 342/342 343/343 344/344
f 345/345 346/346 347/347
f 348/348 349/349 350/350
f 351/351 352/352 353/353 354/354
f 355/355 356/356 357/357
f 358/358 359/359 360/360
f 361/361 362/362 363/363 364/364
f 365/365 366/366 367/367
f 368/368 369/369 370/370
f 371/371 372/372 373/373 374/374
f 375/375 376/376 377/377
f 378/378 379/379 380/380
f 381/381 382/382 383/383 384/384
f 385/385 386/386 387/387
f 388/388 389/389 390/390
f 391/391 392/392 393/393 394/394
f 395/395 396/396 397/397
f 398/398 399/399 400/400
f 401/401 402/402 403/403 404/404
f 405/405 406/406 407/407
f 408/408 409/409 410/410
f 411/411 412/412 413/413 414/414
f 415/415 416/416 417/417
f 418/418 419/419 420/420
f 421/421 422/422 423/423 424/424
f 425/425 426/426 427/427
f 428/428 429/429 430/430
f 431/431 432/432 433/433 434/434
f 435/435 436/436 437/437
f 438/438 439/439 440/440
f 441/441 442/442 443/443 444/444
f 445/445 446/446 447/447
f 448/448 449/449 450/450
f 451/451 452/452 453/453 454/454
f 455/455 456/456 457/457
f 458/458 459/459 460/460
f 461/461 462/462 463/463 464/464
f 465/465 466/466 467/467
f 468/468 469/469 470/470
f 471/471 472/472 473/473 474/474
f 475/475 476/476 477/477
f 478/478 479/479 480/480
f 481/481 482/482 483/483 484/484
f 485/485 486/486 487/487
f 488/488 489/489 490/490
f 491/491 492/492 493/493 494/494
f 495/495 496/496 497/497
f 498/498 499/499 500/500
f 501/501 502/502 503/503 504/504
f 505/505 506/506 507/507
f 508/508 509/509 510/510
f 511/511 512/512 513/513 514/514
f 515/515 516/516 517/517
f 518/518 519/519 520/520
f 521/521 522/522 523/523 524/524
f 525/525 526/526 527/527
f 528/528 529/529 530/530
f 531/531 532/532 533/533 534/534
f 535/535 536/536 537/537
f 538/538 539/539 540/540
f 541/541 542/542 543/543 544/544
f 545/545 546/546 547/547
f 548/548 549/549 550/550
f 551/551 552/552 553/553 554/554
f 555/555 556/556 557/557
f 558/558 559/559 560/560
