# Modelo original generado para Caelum Argenteum.
# Ejes OBJ: X ancho, Y altura, Z profundidad.
o ca_vein_copper2
v 0.000000 0.000000 0.000000
v 43.375941 0.312652 0.000000
v 30.474050 0.831127 19.121508
v 43.375941 0.312652 0.000000
v 37.234532 17.426415 0.000000
v 30.869218 17.198169 19.369463
v 30.474050 0.831127 19.121508
v 37.234532 17.426415 0.000000
v 36.001327 35.590352 0.000000
v 29.007175 34.678778 18.201090
v 30.869218 17.198169 19.369463
v -6.308968 52.000000 8.751380
v 29.007175 34.678778 18.201090
v 36.001327 35.590352 0.000000
v 0.000000 0.000000 0.000000
v 30.474050 0.831127 19.121508
v 9.607885 -1.218137 25.537753
v 30.474050 0.831127 19.121508
v 30.869218 17.198169 19.369463
v 15.069530 16.649405 40.054802
v 9.607885 -1.218137 25.537753
v 30.869218 17.198169 19.369463
v 29.007175 34.678778 18.201090
v 9.945103 33.672922 26.434079
v 15.069530 16.649405 40.054802
v -6.308968 52.000000 8.751380
v 9.945103 33.672922 26.434079
v 29.007175 34.678778 18.201090
v 0.000000 0.000000 0.000000
v 9.607885 -1.218137 25.537753
v -11.220405 -0.033733 29.823830
v 9.607885 -1.218137 25.537753
v 15.069530 16.649405 40.054802
v -15.620260 16.303583 41.518641
v -11.220405 -0.033733 29.823830
v 15.069530 16.649405 40.054802
v 9.945103 33.672922 26.434079
v -8.907893 34.797553 23.677174
v -15.620260 16.303583 41.518641
v -6.308968 52.000000 8.751380
v -8.907893 34.797553 23.677174
v 9.945103 33.672922 26.434079
v 0.000000 0.000000 0.000000
v -11.220405 -0.033733 29.823830
v -32.638325 -0.191672 20.479522
v -11.220405 -0.033733 29.823830
v -15.620260 16.303583 41.518641
v -35.317144 18.408976 22.160397
v -32.638325 -0.191672 20.479522
v -15.620260 16.303583 41.518641
v -8.907893 34.797553 23.677174
v -28.701455 35.008045 18.009260
v -35.317144 18.408976 22.160397
v -6.308968 52.000000 8.751380
v -28.701455 35.008045 18.009260
v -8.907893 34.797553 23.677174
v 0.000000 0.000000 0.000000
v -32.638325 -0.191672 20.479522
v -34.500649 1.004027 0.000000
v -32.638325 -0.191672 20.479522
v -35.317144 18.408976 22.160397
v -51.867024 17.914236 0.000000
v -34.500649 1.004027 0.000000
v -35.317144 18.408976 22.160397
v -28.701455 35.008045 18.009260
v -28.080261 36.212785 0.000000
v -51.867024 17.914236 0.000000
v -6.308968 52.000000 8.751380
v -28.080261 36.212785 0.000000
v -28.701455 35.008045 18.009260
v 0.000000 0.000000 0.000000
v -34.500649 1.004027 0.000000
v -30.799601 -1.733154 -19.325781
v -34.500649 1.004027 0.000000
v -51.867024 17.914236 0.000000
v -30.476064 16.329025 -19.122772
v -30.799601 -1.733154 -19.325781
v -51.867024 17.914236 0.000000
v -28.080261 36.212785 0.000000
v -27.940011 34.252647 -17.531478
v -30.476064 16.329025 -19.122772
v -6.308968 52.000000 8.751380
v -27.940011 34.252647 -17.531478
v -28.080261 36.212785 0.000000
v 0.000000 0.000000 0.000000
v -30.799601 -1.733154 -19.325781
v -13.374945 1.376053 -35.550597
v -30.799601 -1.733154 -19.325781
v -30.476064 16.329025 -19.122772
v -13.041139 15.982613 -34.663340
v -13.374945 1.376053 -35.550597
v -30.476064 16.329025 -19.122772
v -27.940011 34.252647 -17.531478
v -9.564378 33.583152 -25.422110
v -13.041139 15.982613 -34.663340
v -6.308968 52.000000 8.751380
v -9.564378 33.583152 -25.422110
v -27.940011 34.252647 -17.531478
v 0.000000 0.000000 0.000000
v -13.374945 1.376053 -35.550597
v 11.820291 -1.616764 -31.418327
v -13.374945 1.376053 -35.550597
v -13.041139 15.982613 -34.663340
v 11.305116 15.637542 -30.048991
v 11.820291 -1.616764 -31.418327
v -13.041139 15.982613 -34.663340
v -9.564378 33.583152 -25.422110
v 10.635127 36.556849 -28.268161
v 11.305116 15.637542 -30.048991
v -6.308968 52.000000 8.751380
v 10.635127 36.556849 -28.268161
v -9.564378 33.583152 -25.422110
v 0.000000 0.000000 0.000000
v 11.820291 -1.616764 -31.418327
v 32.868538 -1.621705 -20.623974
v 11.820291 -1.616764 -31.418327
v 11.305116 15.637542 -30.048991
v 40.837623 16.050238 -25.624324
v 32.868538 -1.621705 -20.623974
v 11.305116 15.637542 -30.048991
v 10.635127 36.556849 -28.268161
v 24.478368 34.655414 -15.359406
v 40.837623 16.050238 -25.624324
v -6.308968 52.000000 8.751380
v 24.478368 34.655414 -15.359406
v 10.635127 36.556849 -28.268161
v 0.000000 0.000000 0.000000
v 32.868538 -1.621705 -20.623974
v 43.375941 0.312652 0.000000
v 32.868538 -1.621705 -20.623974
v 40.837623 16.050238 -25.624324
v 37.234532 17.426415 0.000000
v 43.375941 0.312652 0.000000
v 40.837623 16.050238 -25.624324
v 24.478368 34.655414 -15.359406
v 36.001327 35.590352 0.000000
v 37.234532 17.426415 0.000000
v -6.308968 52.000000 8.751380
v 36.001327 35.590352 0.000000
v 24.478368 34.655414 -15.359406
v 35.250530 23.700821 4.945126
v 39.689811 25.298394 8.698524
v 42.893280 25.395416 4.945126
v 42.893280 25.395416 4.945126
v 39.689811 25.298394 8.698524
v 39.779541 28.638583 8.774391
v 43.080888 28.666128 4.945126
v 35.250530 30.172544 4.945126
v 43.080888 28.666128 4.945126
v 39.779541 28.638583 8.774391
v 35.250530 23.700821 4.945126
v 33.287092 25.054167 10.745379
v 39.689811 25.298394 8.698524
v 39.689811 25.298394 8.698524
v 33.287092 25.054167 10.745379
v 33.642264 28.328215 9.696155
v 39.779541 28.638583 8.774391
v 35.250530 30.172544 4.945126
v 39.779541 28.638583 8.774391
v 33.642264 28.328215 9.696155
v 35.250530 23.700821 4.945126
v 29.688732 25.434113 6.751081
v 33.287092 25.054167 10.745379
v 33.287092 25.054167 10.745379
v 29.688732 25.434113 6.751081
v 29.014236 28.268611 6.970095
v 33.642264 28.328215 9.696155
v 35.250530 30.172544 4.945126
v 33.642264 28.328215 9.696155
v 29.014236 28.268611 6.970095
v 35.250530 23.700821 4.945126
v 28.144239 25.134107 2.637662
v 29.688732 25.434113 6.751081
v 29.688732 25.434113 6.751081
v 28.144239 25.134107 2.637662
v 29.409655 28.579304 3.048552
v 29.014236 28.268611 6.970095
v 35.250530 30.172544 4.945126
v 29.014236 28.268611 6.970095
v 29.409655 28.579304 3.048552
v 35.250530 23.700821 4.945126
v 33.305326 25.197008 -0.801263
v 28.144239 25.134107 2.637662
v 28.144239 25.134107 2.637662
v 33.305326 25.197008 -0.801263
v 33.801610 28.626242 0.664825
v 29.409655 28.579304 3.048552
v 35.250530 30.172544 4.945126
v 29.409655 28.579304 3.048552
v 33.801610 28.626242 0.664825
v 35.250530 23.700821 4.945126
v 39.306610 25.497847 1.515722
v 33.305326 25.197008 -0.801263
v 33.305326 25.197008 -0.801263
v 39.306610 25.497847 1.515722
v 39.544473 28.839742 1.314610
v 33.801610 28.626242 0.664825
v 35.250530 30.172544 4.945126
v 33.801610 28.626242 0.664825
v 39.544473 28.839742 1.314610
v 35.250530 23.700821 4.945126
v 42.893280 25.395416 4.945126
v 39.306610 25.497847 1.515722
v 39.306610 25.497847 1.515722
v 42.893280 25.395416 4.945126
v 43.080888 28.666128 4.945126
v 39.544473 28.839742 1.314610
v 35.250530 30.172544 4.945126
v 39.544473 28.839742 1.314610
v 43.080888 28.666128 4.945126
v 26.706390 28.104579 17.296406
v 30.599009 29.923673 23.285431
v 32.430022 29.861286 17.296406
v 32.430022 29.861286 17.296406
v 30.599009 29.923673 23.285431
v 30.201348 34.385353 22.673606
v 32.014912 34.784872 17.296406
v 26.706390 36.625892 17.296406
v 32.014912 34.784872 17.296406
v 30.201348 34.385353 22.673606
v 26.706390 28.104579 17.296406
v 25.134247 30.317322 25.747716
v 30.599009 29.923673 23.285431
v 30.599009 29.923673 23.285431
v 25.134247 30.317322 25.747716
v 25.191261 34.666533 25.441230
v 30.201348 34.385353 22.673606
v 26.706390 36.625892 17.296406
v 30.201348 34.385353 22.673606
v 25.191261 34.666533 25.441230
v 26.706390 28.104579 17.296406
v 20.265396 29.929696 21.102214
v 25.134247 30.317322 25.747716
v 25.134247 30.317322 25.747716
v 20.265396 29.929696 21.102214
v 20.480511 34.195343 20.975109
v 25.191261 34.666533 25.441230
v 26.706390 36.625892 17.296406
v 25.191261 34.666533 25.441230
v 20.480511 34.195343 20.975109
v 26.706390 28.104579 17.296406
v 20.512381 30.126892 13.636535
v 20.265396 29.929696 21.102214
v 20.265396 29.929696 21.102214
v 20.512381 30.126892 13.636535
v 20.072080 34.275701 13.376373
v 20.480511 34.195343 20.975109
v 26.706390 36.625892 17.296406
v 20.480511 34.195343 20.975109
v 20.072080 34.275701 13.376373
v 26.706390 28.104579 17.296406
v 25.123207 30.398195 8.785747
v 20.512381 30.126892 13.636535
v 20.512381 30.126892 13.636535
v 25.123207 30.398195 8.785747
v 25.524894 34.352740 10.945083
v 20.072080 34.275701 13.376373
v 26.706390 36.625892 17.296406
v 20.072080 34.275701 13.376373
v 25.524894 34.352740 10.945083
v 26.706390 28.104579 17.296406
v 30.656190 30.099030 11.219406
v 25.123207 30.398195 8.785747
v 25.123207 30.398195 8.785747
v 30.656190 30.099030 11.219406
v 30.174195 34.151288 11.960983
v 25.524894 34.352740 10.945083
v 26.706390 36.625892 17.296406
v 25.524894 34.352740 10.945083
v 30.174195 34.151288 11.960983
v 26.706390 28.104579 17.296406
v 32.430022 29.861286 17.296406
v 30.656190 30.099030 11.219406
v 30.656190 30.099030 11.219406
v 32.430022 29.861286 17.296406
v 32.014912 34.784872 17.296406
v 30.174195 34.151288 11.960983
v 26.706390 36.625892 17.296406
v 30.174195 34.151288 11.960983
v 32.014912 34.784872 17.296406
v 3.939190 32.941019 21.658239
v 8.274339 35.680052 24.714422
v 10.701641 35.160032 21.658239
v 10.701641 35.160032 21.658239
v 8.274339 35.680052 24.714422
v 9.231917 40.740316 25.389493
v 12.592405 40.658927 21.658239
v 3.939190 43.717393 21.658239
v 12.592405 40.658927 21.658239
v 9.231917 40.740316 25.389493
v 3.939190 32.941019 21.658239
v 2.100176 35.156536 26.188032
v 8.274339 35.680052 24.714422
v 8.274339 35.680052 24.714422
v 2.100176 35.156536 26.188032
v 2.019509 40.886903 26.386726
v 9.231917 40.740316 25.389493
v 3.939190 43.717393 21.658239
v 9.231917 40.740316 25.389493
v 2.019509 40.886903 26.386726
v 3.939190 32.941019 21.658239
v -4.323512 35.631643 23.895297
v 2.100176 35.156536 26.188032
v 2.100176 35.156536 26.188032
v -4.323512 35.631643 23.895297
v -2.572903 40.767738 23.421334
v 2.019509 40.886903 26.386726
v 3.939190 43.717393 21.658239
v 2.019509 40.886903 26.386726
v -2.572903 40.767738 23.421334
v 3.939190 32.941019 21.658239
v -3.914448 36.058995 19.531931
v -4.323512 35.631643 23.895297
v -4.323512 35.631643 23.895297
v -3.914448 36.058995 19.531931
v -4.657287 41.057183 19.330813
v -2.572903 40.767738 23.421334
v 3.939190 43.717393 21.658239
v -2.572903 40.767738 23.421334
v -4.657287 41.057183 19.330813
v 3.939190 32.941019 21.658239
v 1.821817 35.226481 16.442803
v -3.914448 36.058995 19.531931
v -3.914448 36.058995 19.531931
v 1.821817 35.226481 16.442803
v 1.995370 41.332204 16.870291
v -4.657287 41.057183 19.330813
v 3.939190 43.717393 21.658239
v -4.657287 41.057183 19.330813
v 1.995370 41.332204 16.870291
v 3.939190 32.941019 21.658239
v 8.964117 35.476877 18.115777
v 1.821817 35.226481 16.442803
v 1.821817 35.226481 16.442803
v 8.964117 35.476877 18.115777
v 8.448702 40.638607 18.479133
v 1.995370 41.332204 16.870291
v 3.939190 43.717393 21.658239
v 1.995370 41.332204 16.870291
v 8.448702 40.638607 18.479133
v 3.939190 32.941019 21.658239
v 10.701641 35.160032 21.658239
v 8.964117 35.476877 18.115777
v 8.964117 35.476877 18.115777
v 10.701641 35.160032 21.658239
v 12.592405 40.658927 21.658239
v 8.448702 40.638607 18.479133
v 3.939190 43.717393 21.658239
v 8.448702 40.638607 18.479133
v 12.592405 40.658927 21.658239
v -16.226847 10.443597 18.075102
v -11.520974 12.369706 23.760457
v -7.895780 12.253317 18.075102
v -7.895780 12.253317 18.075102
v -11.520974 12.369706 23.760457
v -11.592967 15.926188 23.673480
v -8.946243 15.800349 18.075102
v -16.226847 17.492309 18.075102
v -8.946243 15.800349 18.075102
v -11.592967 15.926188 23.673480
v -16.226847 10.443597 18.075102
v -17.929152 12.289306 25.260858
v -11.520974 12.369706 23.760457
v -11.520974 12.369706 23.760457
v -17.929152 12.289306 25.260858
v -17.776593 15.604816 24.616876
v -11.592967 15.926188 23.673480
v -16.226847 17.492309 18.075102
v -11.592967 15.926188 23.673480
v -17.776593 15.604816 24.616876
v -16.226847 10.443597 18.075102
v -23.047417 12.391297 21.239695
v -17.929152 12.289306 25.260858
v -17.929152 12.289306 25.260858
v -23.047417 12.391297 21.239695
v -23.530635 16.043205 21.463897
v -17.776593 15.604816 24.616876
v -16.226847 17.492309 18.075102
v -17.776593 15.604816 24.616876
v -23.530635 16.043205 21.463897
v -16.226847 10.443597 18.075102
v -23.305198 12.276972 14.790905
v -23.047417 12.391297 21.239695
v -23.047417 12.391297 21.239695
v -23.305198 12.276972 14.790905
v -22.708908 15.504007 15.067571
v -23.530635 16.043205 21.463897
v -16.226847 17.492309 18.075102
v -23.530635 16.043205 21.463897
v -22.708908 15.504007 15.067571
v -16.226847 10.443597 18.075102
v -18.009017 12.000433 10.552221
v -23.305198 12.276972 14.790905
v -23.305198 12.276972 14.790905
v -18.009017 12.000433 10.552221
v -17.888779 15.952864 11.059770
v -22.708908 15.504007 15.067571
v -16.226847 17.492309 18.075102
v -22.708908 15.504007 15.067571
v -17.888779 15.952864 11.059770
v -16.226847 10.443597 18.075102
v -10.995400 12.217440 11.754780
v -18.009017 12.000433 10.552221
v -18.009017 12.000433 10.552221
v -10.995400 12.217440 11.754780
v -11.041047 15.819355 11.809928
v -17.888779 15.952864 11.059770
v -16.226847 17.492309 18.075102
v -17.888779 15.952864 11.059770
v -11.041047 15.819355 11.809928
v -16.226847 10.443597 18.075102
v -7.895780 12.253317 18.075102
v -10.995400 12.217440 11.754780
v -10.995400 12.217440 11.754780
v -7.895780 12.253317 18.075102
v -8.946243 15.800349 18.075102
v -11.041047 15.819355 11.809928
v -16.226847 17.492309 18.075102
v -11.041047 15.819355 11.809928
v -8.946243 15.800349 18.075102
v -33.542663 31.749018 6.588013
v -29.566259 34.508273 13.623226
v -26.745243 34.101173 6.588013
v -26.745243 34.101173 6.588013
v -29.566259 34.508273 13.623226
v -30.389223 39.058040 12.167206
v -27.058345 39.513827 6.588013
v -33.542663 41.574468 6.588013
v -27.058345 39.513827 6.588013
v -30.389223 39.058040 12.167206
v -33.542663 31.749018 6.588013
v -34.737358 33.877881 13.973201
v -29.566259 34.508273 13.623226
v -29.566259 34.508273 13.623226
v -34.737358 33.877881 13.973201
v -34.895211 38.796501 14.948993
v -30.389223 39.058040 12.167206
v -33.542663 41.574468 6.588013
v -30.389223 39.058040 12.167206
v -34.895211 38.796501 14.948993
v -33.542663 31.749018 6.588013
v -38.599615 33.917849 10.024031
v -34.737358 33.877881 13.973201
v -34.737358 33.877881 13.973201
v -38.599615 33.917849 10.024031
v -38.121606 39.425862 9.699241
v -34.895211 38.796501 14.948993
v -33.542663 41.574468 6.588013
v -34.895211 38.796501 14.948993
v -38.121606 39.425862 9.699241
v -33.542663 31.749018 6.588013
v -39.190207 34.609157 2.750709
v -38.599615 33.917849 10.024031
v -38.599615 33.917849 10.024031
v -39.190207 34.609157 2.750709
v -38.869007 38.712876 2.968953
v -38.121606 39.425862 9.699241
v -33.542663 41.574468 6.588013
v -38.121606 39.425862 9.699241
v -38.869007 38.712876 2.968953
v -33.542663 31.749018 6.588013
v -34.734331 34.365561 -0.778462
v -39.190207 34.609157 2.750709
v -39.190207 34.609157 2.750709
v -34.734331 34.365561 -0.778462
v -34.690236 38.812570 -0.505885
v -38.869007 38.712876 2.968953
v -33.542663 41.574468 6.588013
v -38.869007 38.712876 2.968953
v -34.690236 38.812570 -0.505885
v -33.542663 31.749018 6.588013
v -29.990718 33.903886 0.303769
v -34.734331 34.365561 -0.778462
v -34.734331 34.365561 -0.778462
v -29.990718 33.903886 0.303769
v -29.794320 39.127110 -0.043705
v -34.690236 38.812570 -0.505885
v -33.542663 41.574468 6.588013
v -34.690236 38.812570 -0.505885
v -29.794320 39.127110 -0.043705
v -33.542663 31.749018 6.588013
v -26.745243 34.101173 6.588013
v -29.990718 33.903886 0.303769
v -29.990718 33.903886 0.303769
v -26.745243 34.101173 6.588013
v -27.058345 39.513827 6.588013
v -29.794320 39.127110 -0.043705
v -33.542663 41.574468 6.588013
v -29.794320 39.127110 -0.043705
v -27.058345 39.513827 6.588013
v -34.340309 10.165095 -16.017651
v -29.915391 12.382501 -10.842279
v -29.167327 12.108812 -16.017651
v -29.167327 12.108812 -16.017651
v -29.915391 12.382501 -10.842279
v -30.434640 16.960823 -11.449591
v -27.175456 17.185454 -16.017651
v -34.340309 19.257020 -16.017651
v -27.175456 17.185454 -16.017651
v -30.434640 16.960823 -11.449591
v -34.340309 10.165095 -16.017651
v -35.474650 12.624506 -11.382135
v -29.915391 12.382501 -10.842279
v -29.915391 12.382501 -10.842279
v -35.474650 12.624506 -11.382135
v -35.906357 17.062171 -9.617955
v -30.434640 16.960823 -11.449591
v -34.340309 19.257020 -16.017651
v -30.434640 16.960823 -11.449591
v -35.906357 17.062171 -9.617955
v -34.340309 10.165095 -16.017651
v -39.073582 12.046321 -13.891580
v -35.474650 12.624506 -11.382135
v -35.474650 12.624506 -11.382135
v -39.073582 12.046321 -13.891580
v -40.553704 16.584612 -13.226745
v -35.906357 17.062171 -9.617955
v -34.340309 19.257020 -16.017651
v -35.906357 17.062171 -9.617955
v -40.553704 16.584612 -13.226745
v -34.340309 10.165095 -16.017651
v -40.086441 12.724331 -18.598673
v -39.073582 12.046321 -13.891580
v -39.073582 12.046321 -13.891580
v -40.086441 12.724331 -18.598673
v -40.514173 17.183934 -18.790800
v -40.553704 16.584612 -13.226745
v -34.340309 19.257020 -16.017651
v -40.553704 16.584612 -13.226745
v -40.514173 17.183934 -18.790800
v -34.340309 10.165095 -16.017651
v -35.804229 12.793468 -22.000000
v -40.086441 12.724331 -18.598673
v -40.086441 12.724331 -18.598673
v -35.804229 12.793468 -22.000000
v -35.877897 16.696402 -22.301044
v -40.514173 17.183934 -18.790800
v -34.340309 19.257020 -16.017651
v -40.514173 17.183934 -18.790800
v -35.877897 16.696402 -22.301044
v -34.340309 10.165095 -16.017651
v -30.001617 12.140290 -21.092173
v -35.804229 12.793468 -22.000000
v -35.804229 12.793468 -22.000000
v -30.001617 12.140290 -21.092173
v -29.930289 16.615363 -21.175597
v -35.877897 16.696402 -22.301044
v -34.340309 19.257020 -16.017651
v -35.877897 16.696402 -22.301044
v -29.930289 16.615363 -21.175597
v -34.340309 10.165095 -16.017651
v -29.167327 12.108812 -16.017651
v -30.001617 12.140290 -21.092173
v -30.001617 12.140290 -21.092173
v -29.167327 12.108812 -16.017651
v -27.175456 17.185454 -16.017651
v -29.930289 16.615363 -21.175597
v -34.340309 19.257020 -16.017651
v -29.930289 16.615363 -21.175597
v -27.175456 17.185454 -16.017651
v -19.381104 30.367825 -18.704411
v -15.896480 33.930292 -13.599023
v -13.943898 33.950866 -18.704411
v -13.943898 33.950866 -18.704411
v -15.896480 33.930292 -13.599023
v -16.128225 39.602068 -13.938557
v -12.578465 39.482911 -18.704411
v -19.381104 42.716533 -18.704411
v -12.578465 39.482911 -18.704411
v -16.128225 39.602068 -13.938557
v -19.381104 30.367825 -18.704411
v -20.895368 32.980899 -10.952796
v -15.896480 33.930292 -13.599023
v -15.896480 33.930292 -13.599023
v -20.895368 32.980899 -10.952796
v -20.797442 40.156143 -11.454082
v -16.128225 39.602068 -13.938557
v -19.381104 42.716533 -18.704411
v -16.128225 39.602068 -13.938557
v -20.797442 40.156143 -11.454082
v -19.381104 30.367825 -18.704411
v -24.448505 33.595995 -15.853144
v -20.895368 32.980899 -10.952796
v -20.895368 32.980899 -10.952796
v -24.448505 33.595995 -15.853144
v -24.127051 40.037736 -16.034016
v -20.797442 40.156143 -11.454082
v -19.381104 42.716533 -18.704411
v -20.797442 40.156143 -11.454082
v -24.127051 40.037736 -16.034016
v -19.381104 30.367825 -18.704411
v -24.269581 33.937554 -21.455003
v -24.448505 33.595995 -15.853144
v -24.448505 33.595995 -15.853144
v -24.269581 33.937554 -21.455003
v -24.271460 39.602452 -21.456060
v -24.127051 40.037736 -16.034016
v -19.381104 42.716533 -18.704411
v -24.127051 40.037736 -16.034016
v -24.271460 39.602452 -21.456060
v -19.381104 30.367825 -18.704411
v -20.648750 33.962433 -25.193575
v -24.269581 33.937554 -21.455003
v -24.269581 33.937554 -21.455003
v -20.648750 33.962433 -25.193575
v -20.480137 39.685715 -24.330432
v -24.271460 39.602452 -21.456060
v -19.381104 42.716533 -18.704411
v -24.271460 39.602452 -21.456060
v -20.480137 39.685715 -24.330432
v -19.381104 30.367825 -18.704411
v -16.069860 33.440085 -23.555776
v -20.648750 33.962433 -25.193575
v -20.648750 33.962433 -25.193575
v -16.069860 33.440085 -23.555776
v -16.275146 39.419484 -23.255007
v -20.480137 39.685715 -24.330432
v -19.381104 42.716533 -18.704411
v -20.480137 39.685715 -24.330432
v -16.275146 39.419484 -23.255007
v -19.381104 30.367825 -18.704411
v -13.943898 33.950866 -18.704411
v -16.069860 33.440085 -23.555776
v -16.069860 33.440085 -23.555776
v -13.943898 33.950866 -18.704411
v -12.578465 39.482911 -18.704411
v -16.275146 39.419484 -23.255007
v -19.381104 42.716533 -18.704411
v -16.275146 39.419484 -23.255007
v -12.578465 39.482911 -18.704411
v 8.628210 20.905715 -24.396529
v 11.771577 23.047256 -19.279943
v 13.039229 23.090973 -24.396529
v 13.039229 23.090973 -24.396529
v 11.771577 23.047256 -19.279943
v 11.437645 26.626546 -19.823498
v 13.909147 26.367478 -24.396529
v 8.628210 28.357631 -24.396529
v 13.909147 26.367478 -24.396529
v 11.437645 26.626546 -19.823498
v 8.628210 20.905715 -24.396529
v 7.756079 22.455185 -19.436501
v 11.771577 23.047256 -19.279943
v 11.771577 23.047256 -19.279943
v 7.756079 22.455185 -19.436501
v 7.649810 26.576887 -18.832119
v 11.437645 26.626546 -19.823498
v 8.628210 28.357631 -24.396529
v 11.437645 26.626546 -19.823498
v 7.649810 26.576887 -18.832119
v 8.628210 20.905715 -24.396529
v 3.944437 22.671251 -21.468599
v 7.756079 22.455185 -19.436501
v 7.756079 22.455185 -19.436501
v 3.944437 22.671251 -21.468599
v 5.148887 26.498267 -22.221528
v 7.649810 26.576887 -18.832119
v 8.628210 28.357631 -24.396529
v 7.649810 26.576887 -18.832119
v 5.148887 26.498267 -22.221528
v 8.628210 20.905715 -24.396529
v 4.285650 22.976269 -27.111160
v 3.944437 22.671251 -21.468599
v 3.944437 22.671251 -21.468599
v 4.285650 22.976269 -27.111160
v 4.407431 26.395353 -27.035032
v 5.148887 26.498267 -22.221528
v 8.628210 28.357631 -24.396529
v 5.148887 26.498267 -22.221528
v 4.407431 26.395353 -27.035032
v 8.628210 20.905715 -24.396529
v 7.591286 22.661661 -30.293784
v 4.285650 22.976269 -27.111160
v 4.285650 22.976269 -27.111160
v 7.591286 22.661661 -30.293784
v 7.682785 26.669638 -29.773401
v 4.407431 26.395353 -27.035032
v 8.628210 28.357631 -24.396529
v 4.407431 26.395353 -27.035032
v 7.682785 26.669638 -29.773401
v 8.628210 20.905715 -24.396529
v 11.042646 23.064092 -28.326605
v 7.591286 22.661661 -30.293784
v 7.591286 22.661661 -30.293784
v 11.042646 23.064092 -28.326605
v 11.400288 26.623843 -28.908753
v 7.682785 26.669638 -29.773401
v 8.628210 28.357631 -24.396529
v 7.682785 26.669638 -29.773401
v 11.400288 26.623843 -28.908753
v 8.628210 20.905715 -24.396529
v 13.039229 23.090973 -24.396529
v 11.042646 23.064092 -28.326605
v 11.042646 23.064092 -28.326605
v 13.039229 23.090973 -24.396529
v 13.909147 26.367478 -24.396529
v 11.400288 26.623843 -28.908753
v 8.628210 28.357631 -24.396529
v 11.400288 26.623843 -28.908753
v 13.909147 26.367478 -24.396529
v 27.116592 9.506965 -15.114898
v 31.441376 11.874327 -11.375680
v 33.713627 12.439196 -15.114898
v 33.713627 12.439196 -15.114898
v 31.441376 11.874327 -11.375680
v 32.290752 17.634585 -10.641308
v 33.875380 18.405516 -15.114898
v 27.116592 20.855418 -15.114898
v 33.875380 18.405516 -15.114898
v 32.290752 17.634585 -10.641308
v 27.116592 9.506965 -15.114898
v 25.319750 12.188967 -9.686848
v 31.441376 11.874327 -11.375680
v 31.441376 11.874327 -11.375680
v 25.319750 12.188967 -9.686848
v 25.646676 17.541177 -10.674455
v 32.290752 17.634585 -10.641308
v 27.116592 20.855418 -15.114898
v 32.290752 17.634585 -10.641308
v 25.646676 17.541177 -10.674455
v 27.116592 9.506965 -15.114898
v 20.421756 12.501769 -12.891916
v 25.319750 12.188967 -9.686848
v 25.319750 12.188967 -9.686848
v 20.421756 12.501769 -12.891916
v 19.615423 18.257559 -12.624177
v 25.646676 17.541177 -10.674455
v 27.116592 20.855418 -15.114898
v 25.646676 17.541177 -10.674455
v 19.615423 18.257559 -12.624177
v 27.116592 9.506965 -15.114898
v 20.607947 12.103426 -17.276056
v 20.421756 12.501769 -12.891916
v 20.421756 12.501769 -12.891916
v 20.607947 12.103426 -17.276056
v 20.204558 18.372022 -17.409999
v 19.615423 18.257559 -12.624177
v 27.116592 20.855418 -15.114898
v 19.615423 18.257559 -12.624177
v 20.204558 18.372022 -17.409999
v 27.116592 9.506965 -15.114898
v 25.619866 12.369173 -19.636332
v 20.607947 12.103426 -17.276056
v 20.607947 12.103426 -17.276056
v 25.619866 12.369173 -19.636332
v 25.432696 17.523479 -20.201749
v 20.204558 18.372022 -17.409999
v 27.116592 20.855418 -15.114898
v 20.204558 18.372022 -17.409999
v 25.432696 17.523479 -20.201749
v 27.116592 9.506965 -15.114898
v 31.514042 12.842726 -18.916942
v 25.619866 12.369173 -19.636332
v 25.619866 12.369173 -19.636332
v 31.514042 12.842726 -18.916942
v 31.097510 18.200641 -18.556808
v 25.432696 17.523479 -20.201749
v 27.116592 20.855418 -15.114898
v 25.432696 17.523479 -20.201749
v 31.097510 18.200641 -18.556808
v 27.116592 9.506965 -15.114898
v 33.713627 12.439196 -15.114898
v 31.514042 12.842726 -18.916942
v 31.514042 12.842726 -18.916942
v 33.713627 12.439196 -15.114898
v 33.875380 18.405516 -15.114898
v 31.097510 18.200641 -18.556808
v 27.116592 20.855418 -15.114898
v 31.097510 18.200641 -18.556808
v 33.875380 18.405516 -15.114898
v -25.809217 25.177823 9.759001
v -26.019054 22.755217 8.370856
v 30.405339 21.519304 3.410411
v 30.510258 22.730607 4.104483
v -26.019939 25.177823 6.966941
v -26.019054 22.755217 8.370856
v -25.809217 25.177823 9.759001
v 30.404897 22.730607 2.708454
v 30.510258 22.730607 4.104483
v 30.405339 21.519304 3.410411
v -26.019054 22.755217 8.370856
v -26.229776 22.755217 5.578796
v 30.299978 21.519304 2.014381
v 30.405339 21.519304 3.410411
v -26.019939 25.177823 6.966941
v -26.229776 22.755217 5.578796
v -26.019054 22.755217 8.370856
v 30.404897 22.730607 2.708454
v 30.405339 21.519304 3.410411
v 30.299978 21.519304 2.014381
v -26.229776 22.755217 5.578796
v -26.230661 25.177823 4.174882
v 30.299536 22.730607 1.312424
v 30.299978 21.519304 2.014381
v -26.019939 25.177823 6.966941
v -26.230661 25.177823 4.174882
v -26.229776 22.755217 5.578796
v 30.404897 22.730607 2.708454
v 30.299978 21.519304 2.014381
v 30.299536 22.730607 1.312424
v -26.230661 25.177823 4.174882
v -26.020824 27.600430 5.563026
v 30.404455 23.941910 2.006496
v 30.299536 22.730607 1.312424
v -26.019939 25.177823 6.966941
v -26.020824 27.600430 5.563026
v -26.230661 25.177823 4.174882
v 30.404897 22.730607 2.708454
v 30.299536 22.730607 1.312424
v 30.404455 23.941910 2.006496
v -26.020824 27.600430 5.563026
v -25.810102 27.600430 8.355086
v 30.509816 23.941910 3.402526
v 30.404455 23.941910 2.006496
v -26.019939 25.177823 6.966941
v -25.810102 27.600430 8.355086
v -26.020824 27.600430 5.563026
v 30.404897 22.730607 2.708454
v 30.404455 23.941910 2.006496
v 30.509816 23.941910 3.402526
v -25.810102 27.600430 8.355086
v -25.809217 25.177823 9.759001
v 30.510258 22.730607 4.104483
v 30.509816 23.941910 3.402526
v -26.019939 25.177823 6.966941
v -25.809217 25.177823 9.759001
v -25.810102 27.600430 8.355086
v 30.404897 22.730607 2.708454
v 30.509816 23.941910 3.402526
v 30.510258 22.730607 4.104483
v -28.893592 39.143254 6.565495
v -28.626498 36.744381 5.146316
v 13.670788 44.232333 1.830823
v 13.537241 45.431770 2.540412
v -29.066315 39.143254 3.770827
v -28.626498 36.744381 5.146316
v -28.893592 39.143254 6.565495
v 13.450879 45.431770 1.143079
v 13.537241 45.431770 2.540412
v 13.670788 44.232333 1.830823
v -28.626498 36.744381 5.146316
v -28.799221 36.744381 2.351648
v 13.584427 44.232333 0.433489
v 13.670788 44.232333 1.830823
v -29.066315 39.143254 3.770827
v -28.799221 36.744381 2.351648
v -28.626498 36.744381 5.146316
v 13.450879 45.431770 1.143079
v 13.670788 44.232333 1.830823
v 13.584427 44.232333 0.433489
v -28.799221 36.744381 2.351648
v -29.239038 39.143254 0.976159
v 13.364518 45.431770 -0.254255
v 13.584427 44.232333 0.433489
v -29.066315 39.143254 3.770827
v -29.239038 39.143254 0.976159
v -28.799221 36.744381 2.351648
v 13.450879 45.431770 1.143079
v 13.584427 44.232333 0.433489
v 13.364518 45.431770 -0.254255
v -29.239038 39.143254 0.976159
v -29.506132 41.542127 2.395338
v 13.230971 46.631206 0.455334
v 13.364518 45.431770 -0.254255
v -29.066315 39.143254 3.770827
v -29.506132 41.542127 2.395338
v -29.239038 39.143254 0.976159
v 13.450879 45.431770 1.143079
v 13.364518 45.431770 -0.254255
v 13.230971 46.631206 0.455334
v -29.506132 41.542127 2.395338
v -29.333409 41.542127 5.190006
v 13.317332 46.631206 1.852668
v 13.230971 46.631206 0.455334
v -29.066315 39.143254 3.770827
v -29.333409 41.542127 5.190006
v -29.506132 41.542127 2.395338
v 13.450879 45.431770 1.143079
v 13.230971 46.631206 0.455334
v 13.317332 46.631206 1.852668
v -29.333409 41.542127 5.190006
v -28.893592 39.143254 6.565495
v 13.537241 45.431770 2.540412
v 13.317332 46.631206 1.852668
v -29.066315 39.143254 3.770827
v -28.893592 39.143254 6.565495
v -29.333409 41.542127 5.190006
v 13.450879 45.431770 1.143079
v 13.317332 46.631206 1.852668
v 13.537241 45.431770 2.540412
v -22.136815 35.173524 -0.733049
v -21.931654 32.749162 -2.118825
v 16.375013 33.166237 4.237079
v 16.272433 34.378419 4.929968
v -21.628779 35.173524 -3.486574
v -21.931654 32.749162 -2.118825
v -22.136815 35.173524 -0.733049
v 16.526450 34.378419 3.553205
v 16.272433 34.378419 4.929968
v 16.375013 33.166237 4.237079
v -21.931654 32.749162 -2.118825
v -21.423619 32.749162 -4.872350
v 16.629031 33.166237 2.860317
v 16.375013 33.166237 4.237079
v -21.628779 35.173524 -3.486574
v -21.423619 32.749162 -4.872350
v -21.931654 32.749162 -2.118825
v 16.526450 34.378419 3.553205
v 16.375013 33.166237 4.237079
v 16.629031 33.166237 2.860317
v -21.423619 32.749162 -4.872350
v -21.120744 35.173524 -6.240099
v 16.780468 34.378419 2.176443
v 16.629031 33.166237 2.860317
v -21.628779 35.173524 -3.486574
v -21.120744 35.173524 -6.240099
v -21.423619 32.749162 -4.872350
v 16.526450 34.378419 3.553205
v 16.629031 33.166237 2.860317
v 16.780468 34.378419 2.176443
v -21.120744 35.173524 -6.240099
v -21.325904 37.597886 -4.854322
v 16.677888 35.590600 2.869331
v 16.780468 34.378419 2.176443
v -21.628779 35.173524 -3.486574
v -21.325904 37.597886 -4.854322
v -21.120744 35.173524 -6.240099
v 16.526450 34.378419 3.553205
v 16.780468 34.378419 2.176443
v 16.677888 35.590600 2.869331
v -21.325904 37.597886 -4.854322
v -21.833940 37.597886 -2.100797
v 16.423870 35.590600 4.246094
v 16.677888 35.590600 2.869331
v -21.628779 35.173524 -3.486574
v -21.833940 37.597886 -2.100797
v -21.325904 37.597886 -4.854322
v 16.526450 34.378419 3.553205
v 16.677888 35.590600 2.869331
v 16.423870 35.590600 4.246094
v -21.833940 37.597886 -2.100797
v -22.136815 35.173524 -0.733049
v 16.272433 34.378419 4.929968
v 16.423870 35.590600 4.246094
v -21.628779 35.173524 -3.486574
v -22.136815 35.173524 -0.733049
v -21.833940 37.597886 -2.100797
v 16.526450 34.378419 3.553205
v 16.423870 35.590600 4.246094
v 16.272433 34.378419 4.929968
vt 0.500000 1.000000
vt 0.000000 0.000000
vt 1.000000 0.000000
vt 0.000000 0.000000
vt 1.000000 0.000000
vt 1.000000 1.000000
vt 0.000000 1.000000
vt 0.000000 0.000000
vt 1.000000 0.000000
vt 1.000000 1.000000
vt 0.000000 1.000000
vt 0.500000 1.000000
vt 0.000000 0.000000
vt 1.000000 0.000000
vt 0.500000 1.000000
vt 0.000000 0.000000
vt 1.000000 0.000000
vt 0.000000 0.000000
vt 1.000000 0.000000
vt 1.000000 1.000000
vt 0.000000 1.000000
vt 0.000000 0.000000
vt 1.000000 0.000000
vt 1.000000 1.000000
vt 0.000000 1.000000
vt 0.500000 1.000000
vt 0.000000 0.000000
vt 1.000000 0.000000
vt 0.500000 1.000000
vt 0.000000 0.000000
vt 1.000000 0.000000
vt 0.000000 0.000000
vt 1.000000 0.000000
vt 1.000000 1.000000
vt 0.000000 1.000000
vt 0.000000 0.000000
vt 1.000000 0.000000
vt 1.000000 1.000000
vt 0.000000 1.000000
vt 0.500000 1.000000
vt 0.000000 0.000000
vt 1.000000 0.000000
vt 0.500000 1.000000
vt 0.000000 0.000000
vt 1.000000 0.000000
vt 0.000000 0.000000
vt 1.000000 0.000000
vt 1.000000 1.000000
vt 0.000000 1.000000
vt 0.000000 0.000000
vt 1.000000 0.000000
vt 1.000000 1.000000
vt 0.000000 1.000000
vt 0.500000 1.000000
vt 0.000000 0.000000
vt 1.000000 0.000000
vt 0.500000 1.000000
vt 0.000000 0.000000
vt 1.000000 0.000000
vt 0.000000 0.000000
vt 1.000000 0.000000
vt 1.000000 1.000000
vt 0.000000 1.000000
vt 0.000000 0.000000
vt 1.000000 0.000000
vt 1.000000 1.000000
vt 0.000000 1.000000
vt 0.500000 1.000000
vt 0.000000 0.000000
vt 1.000000 0.000000
vt 0.500000 1.000000
vt 0.000000 0.000000
vt 1.000000 0.000000
vt 0.000000 0.000000
vt 1.000000 0.000000
vt 1.000000 1.000000
vt 0.000000 1.000000
vt 0.000000 0.000000
vt 1.000000 0.000000
vt 1.000000 1.000000
vt 0.000000 1.000000
vt 0.500000 1.000000
vt 0.000000 0.000000
vt 1.000000 0.000000
vt 0.500000 1.000000
vt 0.000000 0.000000
vt 1.000000 0.000000
vt 0.000000 0.000000
vt 1.000000 0.000000
vt 1.000000 1.000000
vt 0.000000 1.000000
vt 0.000000 0.000000
vt 1.000000 0.000000
vt 1.000000 1.000000
vt 0.000000 1.000000
vt 0.500000 1.000000
vt 0.000000 0.000000
vt 1.000000 0.000000
vt 0.500000 1.000000
vt 0.000000 0.000000
vt 1.000000 0.000000
vt 0.000000 0.000000
vt 1.000000 0.000000
vt 1.000000 1.000000
vt 0.000000 1.000000
vt 0.000000 0.000000
vt 1.000000 0.000000
vt 1.000000 1.000000
vt 0.000000 1.000000
vt 0.500000 1.000000
vt 0.000000 0.000000
vt 1.000000 0.000000
vt 0.500000 1.000000
vt 0.000000 0.000000
vt 1.000000 0.000000
vt 0.000000 0.000000
vt 1.000000 0.000000
vt 1.000000 1.000000
vt 0.000000 1.000000
vt 0.000000 0.000000
vt 1.000000 0.000000
vt 1.000000 1.000000
vt 0.000000 1.000000
vt 0.500000 1.000000
vt 0.000000 0.000000
vt 1.000000 0.000000
vt 0.500000 1.000000
vt 0.000000 0.000000
vt 1.000000 0.000000
vt 0.000000 0.000000
vt 1.000000 0.000000
vt 1.000000 1.000000
vt 0.000000 1.000000
vt 0.000000 0.000000
vt 1.000000 0.000000
vt 1.000000 1.000000
vt 0.000000 1.000000
vt 0.500000 1.000000
vt 0.000000 0.000000
vt 1.000000 0.000000
vt 0.500000 1.000000
vt 0.000000 0.000000
vt 1.000000 0.000000
vt 0.000000 0.000000
vt 1.000000 0.000000
vt 1.000000 1.000000
vt 0.000000 1.000000
vt 0.500000 1.000000
vt 0.000000 0.000000
vt 1.000000 0.000000
vt 0.500000 1.000000
vt 0.000000 0.000000
vt 1.000000 0.000000
vt 0.000000 0.000000
vt 1.000000 0.000000
vt 1.000000 1.000000
vt 0.000000 1.000000
vt 0.500000 1.000000
vt 0.000000 0.000000
vt 1.000000 0.000000
vt 0.500000 1.000000
vt 0.000000 0.000000
vt 1.000000 0.000000
vt 0.000000 0.000000
vt 1.000000 0.000000
vt 1.000000 1.000000
vt 0.000000 1.000000
vt 0.500000 1.000000
vt 0.000000 0.000000
vt 1.000000 0.000000
vt 0.500000 1.000000
vt 0.000000 0.000000
vt 1.000000 0.000000
vt 0.000000 0.000000
vt 1.000000 0.000000
vt 1.000000 1.000000
vt 0.000000 1.000000
vt 0.500000 1.000000
vt 0.000000 0.000000
vt 1.000000 0.000000
vt 0.500000 1.000000
vt 0.000000 0.000000
vt 1.000000 0.000000
vt 0.000000 0.000000
vt 1.000000 0.000000
vt 1.000000 1.000000
vt 0.000000 1.000000
vt 0.500000 1.000000
vt 0.000000 0.000000
vt 1.000000 0.000000
vt 0.500000 1.000000
vt 0.000000 0.000000
vt 1.000000 0.000000
vt 0.000000 0.000000
vt 1.000000 0.000000
vt 1.000000 1.000000
vt 0.000000 1.000000
vt 0.500000 1.000000
vt 0.000000 0.000000
vt 1.000000 0.000000
vt 0.500000 1.000000
vt 0.000000 0.000000
vt 1.000000 0.000000
vt 0.000000 0.000000
vt 1.000000 0.000000
vt 1.000000 1.000000
vt 0.000000 1.000000
vt 0.500000 1.000000
vt 0.000000 0.000000
vt 1.000000 0.000000
vt 0.500000 1.000000
vt 0.000000 0.000000
vt 1.000000 0.000000
vt 0.000000 0.000000
vt 1.000000 0.000000
vt 1.000000 1.000000
vt 0.000000 1.000000
vt 0.500000 1.000000
vt 0.000000 0.000000
vt 1.000000 0.000000
vt 0.500000 1.000000
vt 0.000000 0.000000
vt 1.000000 0.000000
vt 0.000000 0.000000
vt 1.000000 0.000000
vt 1.000000 1.000000
vt 0.000000 1.000000
vt 0.500000 1.000000
vt 0.000000 0.000000
vt 1.000000 0.000000
vt 0.500000 1.000000
vt 0.000000 0.000000
vt 1.000000 0.000000
vt 0.000000 0.000000
vt 1.000000 0.000000
vt 1.000000 1.000000
vt 0.000000 1.000000
vt 0.500000 1.000000
vt 0.000000 0.000000
vt 1.000000 0.000000
vt 0.500000 1.000000
vt 0.000000 0.000000
vt 1.000000 0.000000
vt 0.000000 0.000000
vt 1.000000 0.000000
vt 1.000000 1.000000
vt 0.000000 1.000000
vt 0.500000 1.000000
vt 0.000000 0.000000
vt 1.000000 0.000000
vt 0.500000 1.000000
vt 0.000000 0.000000
vt 1.000000 0.000000
vt 0.000000 0.000000
vt 1.000000 0.000000
vt 1.000000 1.000000
vt 0.000000 1.000000
vt 0.500000 1.000000
vt 0.000000 0.000000
vt 1.000000 0.000000
vt 0.500000 1.000000
vt 0.000000 0.000000
vt 1.000000 0.000000
vt 0.000000 0.000000
vt 1.000000 0.000000
vt 1.000000 1.000000
vt 0.000000 1.000000
vt 0.500000 1.000000
vt 0.000000 0.000000
vt 1.000000 0.000000
vt 0.500000 1.000000
vt 0.000000 0.000000
vt 1.000000 0.000000
vt 0.000000 0.000000
vt 1.000000 0.000000
vt 1.000000 1.000000
vt 0.000000 1.000000
vt 0.500000 1.000000
vt 0.000000 0.000000
vt 1.000000 0.000000
vt 0.500000 1.000000
vt 0.000000 0.000000
vt 1.000000 0.000000
vt 0.000000 0.000000
vt 1.000000 0.000000
vt 1.000000 1.000000
vt 0.000000 1.000000
vt 0.500000 1.000000
vt 0.000000 0.000000
vt 1.000000 0.000000
vt 0.500000 1.000000
vt 0.000000 0.000000
vt 1.000000 0.000000
vt 0.000000 0.000000
vt 1.000000 0.000000
vt 1.000000 1.000000
vt 0.000000 1.000000
vt 0.500000 1.000000
vt 0.000000 0.000000
vt 1.000000 0.000000
vt 0.500000 1.000000
vt 0.000000 0.000000
vt 1.000000 0.000000
vt 0.000000 0.000000
vt 1.000000 0.000000
vt 1.000000 1.000000
vt 0.000000 1.000000
vt 0.500000 1.000000
vt 0.000000 0.000000
vt 1.000000 0.000000
vt 0.500000 1.000000
vt 0.000000 0.000000
vt 1.000000 0.000000
vt 0.000000 0.000000
vt 1.000000 0.000000
vt 1.000000 1.000000
vt 0.000000 1.000000
vt 0.500000 1.000000
vt 0.000000 0.000000
vt 1.000000 0.000000
vt 0.500000 1.000000
vt 0.000000 0.000000
vt 1.000000 0.000000
vt 0.000000 0.000000
vt 1.000000 0.000000
vt 1.000000 1.000000
vt 0.000000 1.000000
vt 0.500000 1.000000
vt 0.000000 0.000000
vt 1.000000 0.000000
vt 0.500000 1.000000
vt 0.000000 0.000000
vt 1.000000 0.000000
vt 0.000000 0.000000
vt 1.000000 0.000000
vt 1.000000 1.000000
vt 0.000000 1.000000
vt 0.500000 1.000000
vt 0.000000 0.000000
vt 1.000000 0.000000
vt 0.500000 1.000000
vt 0.000000 0.000000
vt 1.000000 0.000000
vt 0.000000 0.000000
vt 1.000000 0.000000
vt 1.000000 1.000000
vt 0.000000 1.000000
vt 0.500000 1.000000
vt 0.000000 0.000000
vt 1.000000 0.000000
vt 0.500000 1.000000
vt 0.000000 0.000000
vt 1.000000 0.000000
vt 0.000000 0.000000
vt 1.000000 0.000000
vt 1.000000 1.000000
vt 0.000000 1.000000
vt 0.500000 1.000000
vt 0.000000 0.000000
vt 1.000000 0.000000
vt 0.500000 1.000000
vt 0.000000 0.000000
vt 1.000000 0.000000
vt 0.000000 0.000000
vt 1.000000 0.000000
vt 1.000000 1.000000
vt 0.000000 1.000000
vt 0.500000 1.000000
vt 0.000000 0.000000
vt 1.000000 0.000000
vt 0.500000 1.000000
vt 0.000000 0.000000
vt 1.000000 0.000000
vt 0.000000 0.000000
vt 1.000000 0.000000
vt 1.000000 1.000000
vt 0.000000 1.000000
vt 0.500000 1.000000
vt 0.000000 0.000000
vt 1.000000 0.000000
vt 0.500000 1.000000
vt 0.000000 0.000000
vt 1.000000 0.000000
vt 0.000000 0.000000
vt 1.000000 0.000000
vt 1.000000 1.000000
vt 0.000000 1.000000
vt 0.500000 1.000000
vt 0.000000 0.000000
vt 1.000000 0.000000
vt 0.500000 1.000000
vt 0.000000 0.000000
vt 1.000000 0.000000
vt 0.000000 0.000000
vt 1.000000 0.000000
vt 1.000000 1.000000
vt 0.000000 1.000000
vt 0.500000 1.000000
vt 0.000000 0.000000
vt 1.000000 0.000000
vt 0.500000 1.000000
vt 0.000000 0.000000
vt 1.000000 0.000000
vt 0.000000 0.000000
vt 1.000000 0.000000
vt 1.000000 1.000000
vt 0.000000 1.000000
vt 0.500000 1.000000
vt 0.000000 0.000000
vt 1.000000 0.000000
vt 0.500000 1.000000
vt 0.000000 0.000000
vt 1.000000 0.000000
vt 0.000000 0.000000
vt 1.000000 0.000000
vt 1.000000 1.000000
vt 0.000000 1.000000
vt 0.500000 1.000000
vt 0.000000 0.000000
vt 1.000000 0.000000
vt 0.500000 1.000000
vt 0.000000 0.000000
vt 1.000000 0.000000
vt 0.000000 0.000000
vt 1.000000 0.000000
vt 1.000000 1.000000
vt 0.000000 1.000000
vt 0.500000 1.000000
vt 0.000000 0.000000
vt 1.000000 0.000000
vt 0.500000 1.000000
vt 0.000000 0.000000
vt 1.000000 0.000000
vt 0.000000 0.000000
vt 1.000000 0.000000
vt 1.000000 1.000000
vt 0.000000 1.000000
vt 0.500000 1.000000
vt 0.000000 0.000000
vt 1.000000 0.000000
vt 0.500000 1.000000
vt 0.000000 0.000000
vt 1.000000 0.000000
vt 0.000000 0.000000
vt 1.000000 0.000000
vt 1.000000 1.000000
vt 0.000000 1.000000
vt 0.500000 1.000000
vt 0.000000 0.000000
vt 1.000000 0.000000
vt 0.500000 1.000000
vt 0.000000 0.000000
vt 1.000000 0.000000
vt 0.000000 0.000000
vt 1.000000 0.000000
vt 1.000000 1.000000
vt 0.000000 1.000000
vt 0.500000 1.000000
vt 0.000000 0.000000
vt 1.000000 0.000000
vt 0.500000 1.000000
vt 0.000000 0.000000
vt 1.000000 0.000000
vt 0.000000 0.000000
vt 1.000000 0.000000
vt 1.000000 1.000000
vt 0.000000 1.000000
vt 0.500000 1.000000
vt 0.000000 0.000000
vt 1.000000 0.000000
vt 0.500000 1.000000
vt 0.000000 0.000000
vt 1.000000 0.000000
vt 0.000000 0.000000
vt 1.000000 0.000000
vt 1.000000 1.000000
vt 0.000000 1.000000
vt 0.500000 1.000000
vt 0.000000 0.000000
vt 1.000000 0.000000
vt 0.500000 1.000000
vt 0.000000 0.000000
vt 1.000000 0.000000
vt 0.000000 0.000000
vt 1.000000 0.000000
vt 1.000000 1.000000
vt 0.000000 1.000000
vt 0.500000 1.000000
vt 0.000000 0.000000
vt 1.000000 0.000000
vt 0.500000 1.000000
vt 0.000000 0.000000
vt 1.000000 0.000000
vt 0.000000 0.000000
vt 1.000000 0.000000
vt 1.000000 1.000000
vt 0.000000 1.000000
vt 0.500000 1.000000
vt 0.000000 0.000000
vt 1.000000 0.000000
vt 0.500000 1.000000
vt 0.000000 0.000000
vt 1.000000 0.000000
vt 0.000000 0.000000
vt 1.000000 0.000000
vt 1.000000 1.000000
vt 0.000000 1.000000
vt 0.500000 1.000000
vt 0.000000 0.000000
vt 1.000000 0.000000
vt 0.500000 1.000000
vt 0.000000 0.000000
vt 1.000000 0.000000
vt 0.000000 0.000000
vt 1.000000 0.000000
vt 1.000000 1.000000
vt 0.000000 1.000000
vt 0.500000 1.000000
vt 0.000000 0.000000
vt 1.000000 0.000000
vt 0.500000 1.000000
vt 0.000000 0.000000
vt 1.000000 0.000000
vt 0.000000 0.000000
vt 1.000000 0.000000
vt 1.000000 1.000000
vt 0.000000 1.000000
vt 0.500000 1.000000
vt 0.000000 0.000000
vt 1.000000 0.000000
vt 0.500000 1.000000
vt 0.000000 0.000000
vt 1.000000 0.000000
vt 0.000000 0.000000
vt 1.000000 0.000000
vt 1.000000 1.000000
vt 0.000000 1.000000
vt 0.500000 1.000000
vt 0.000000 0.000000
vt 1.000000 0.000000
vt 0.500000 1.000000
vt 0.000000 0.000000
vt 1.000000 0.000000
vt 0.000000 0.000000
vt 1.000000 0.000000
vt 1.000000 1.000000
vt 0.000000 1.000000
vt 0.500000 1.000000
vt 0.000000 0.000000
vt 1.000000 0.000000
vt 0.500000 1.000000
vt 0.000000 0.000000
vt 1.000000 0.000000
vt 0.000000 0.000000
vt 1.000000 0.000000
vt 1.000000 1.000000
vt 0.000000 1.000000
vt 0.500000 1.000000
vt 0.000000 0.000000
vt 1.000000 0.000000
vt 0.500000 1.000000
vt 0.000000 0.000000
vt 1.000000 0.000000
vt 0.000000 0.000000
vt 1.000000 0.000000
vt 1.000000 1.000000
vt 0.000000 1.000000
vt 0.500000 1.000000
vt 0.000000 0.000000
vt 1.000000 0.000000
vt 0.500000 1.000000
vt 0.000000 0.000000
vt 1.000000 0.000000
vt 0.000000 0.000000
vt 1.000000 0.000000
vt 1.000000 1.000000
vt 0.000000 1.000000
vt 0.500000 1.000000
vt 0.000000 0.000000
vt 1.000000 0.000000
vt 0.500000 1.000000
vt 0.000000 0.000000
vt 1.000000 0.000000
vt 0.000000 0.000000
vt 1.000000 0.000000
vt 1.000000 1.000000
vt 0.000000 1.000000
vt 0.500000 1.000000
vt 0.000000 0.000000
vt 1.000000 0.000000
vt 0.500000 1.000000
vt 0.000000 0.000000
vt 1.000000 0.000000
vt 0.000000 0.000000
vt 1.000000 0.000000
vt 1.000000 1.000000
vt 0.000000 1.000000
vt 0.500000 1.000000
vt 0.000000 0.000000
vt 1.000000 0.000000
vt 0.500000 1.000000
vt 0.000000 0.000000
vt 1.000000 0.000000
vt 0.000000 0.000000
vt 1.000000 0.000000
vt 1.000000 1.000000
vt 0.000000 1.000000
vt 0.500000 1.000000
vt 0.000000 0.000000
vt 1.000000 0.000000
vt 0.500000 1.000000
vt 0.000000 0.000000
vt 1.000000 0.000000
vt 0.000000 0.000000
vt 1.000000 0.000000
vt 1.000000 1.000000
vt 0.000000 1.000000
vt 0.500000 1.000000
vt 0.000000 0.000000
vt 1.000000 0.000000
vt 0.500000 1.000000
vt 0.000000 0.000000
vt 1.000000 0.000000
vt 0.000000 0.000000
vt 1.000000 0.000000
vt 1.000000 1.000000
vt 0.000000 1.000000
vt 0.500000 1.000000
vt 0.000000 0.000000
vt 1.000000 0.000000
vt 0.500000 1.000000
vt 0.000000 0.000000
vt 1.000000 0.000000
vt 0.000000 0.000000
vt 1.000000 0.000000
vt 1.000000 1.000000
vt 0.000000 1.000000
vt 0.500000 1.000000
vt 0.000000 0.000000
vt 1.000000 0.000000
vt 0.500000 1.000000
vt 0.000000 0.000000
vt 1.000000 0.000000
vt 0.000000 0.000000
vt 1.000000 0.000000
vt 1.000000 1.000000
vt 0.000000 1.000000
vt 0.500000 1.000000
vt 0.000000 0.000000
vt 1.000000 0.000000
vt 0.500000 1.000000
vt 0.000000 0.000000
vt 1.000000 0.000000
vt 0.000000 0.000000
vt 1.000000 0.000000
vt 1.000000 1.000000
vt 0.000000 1.000000
vt 0.500000 1.000000
vt 0.000000 0.000000
vt 1.000000 0.000000
vt 0.500000 1.000000
vt 0.000000 0.000000
vt 1.000000 0.000000
vt 0.000000 0.000000
vt 1.000000 0.000000
vt 1.000000 1.000000
vt 0.000000 1.000000
vt 0.500000 1.000000
vt 0.000000 0.000000
vt 1.000000 0.000000
vt 0.500000 1.000000
vt 0.000000 0.000000
vt 1.000000 0.000000
vt 0.000000 0.000000
vt 1.000000 0.000000
vt 1.000000 1.000000
vt 0.000000 1.000000
vt 0.500000 1.000000
vt 0.000000 0.000000
vt 1.000000 0.000000
vt 0.500000 1.000000
vt 0.000000 0.000000
vt 1.000000 0.000000
vt 0.000000 0.000000
vt 1.000000 0.000000
vt 1.000000 1.000000
vt 0.000000 1.000000
vt 0.500000 1.000000
vt 0.000000 0.000000
vt 1.000000 0.000000
vt 0.500000 1.000000
vt 0.000000 0.000000
vt 1.000000 0.000000
vt 0.000000 0.000000
vt 1.000000 0.000000
vt 1.000000 1.000000
vt 0.000000 1.000000
vt 0.500000 1.000000
vt 0.000000 0.000000
vt 1.000000 0.000000
vt 0.500000 1.000000
vt 0.000000 0.000000
vt 1.000000 0.000000
vt 0.000000 0.000000
vt 1.000000 0.000000
vt 1.000000 1.000000
vt 0.000000 1.000000
vt 0.500000 1.000000
vt 0.000000 0.000000
vt 1.000000 0.000000
vt 0.500000 1.000000
vt 0.000000 0.000000
vt 1.000000 0.000000
vt 0.000000 0.000000
vt 1.000000 0.000000
vt 1.000000 1.000000
vt 0.000000 1.000000
vt 0.500000 1.000000
vt 0.000000 0.000000
vt 1.000000 0.000000
vt 0.500000 1.000000
vt 0.000000 0.000000
vt 1.000000 0.000000
vt 0.000000 0.000000
vt 1.000000 0.000000
vt 1.000000 1.000000
vt 0.000000 1.000000
vt 0.500000 1.000000
vt 0.000000 0.000000
vt 1.000000 0.000000
vt 0.500000 1.000000
vt 0.000000 0.000000
vt 1.000000 0.000000
vt 0.000000 0.000000
vt 1.000000 0.000000
vt 1.000000 1.000000
vt 0.000000 1.000000
vt 0.500000 1.000000
vt 0.000000 0.000000
vt 1.000000 0.000000
vt 0.500000 1.000000
vt 0.000000 0.000000
vt 1.000000 0.000000
vt 0.000000 0.000000
vt 1.000000 0.000000
vt 1.000000 1.000000
vt 0.000000 1.000000
vt 0.500000 1.000000
vt 0.000000 0.000000
vt 1.000000 0.000000
vt 0.500000 1.000000
vt 0.000000 0.000000
vt 1.000000 0.000000
vt 0.000000 0.000000
vt 1.000000 0.000000
vt 1.000000 1.000000
vt 0.000000 1.000000
vt 0.500000 1.000000
vt 0.000000 0.000000
vt 1.000000 0.000000
vt 0.500000 1.000000
vt 0.000000 0.000000
vt 1.000000 0.000000
vt 0.000000 0.000000
vt 1.000000 0.000000
vt 1.000000 1.000000
vt 0.000000 1.000000
vt 0.500000 1.000000
vt 0.000000 0.000000
vt 1.000000 0.000000
vt 0.000000 0.000000
vt 1.000000 0.000000
vt 1.000000 1.000000
vt 0.000000 1.000000
vt 0.500000 1.000000
vt 0.000000 0.000000
vt 1.000000 0.000000
vt 0.500000 1.000000
vt 0.000000 0.000000
vt 1.000000 0.000000
vt 0.000000 0.000000
vt 1.000000 0.000000
vt 1.000000 1.000000
vt 0.000000 1.000000
vt 0.500000 1.000000
vt 0.000000 0.000000
vt 1.000000 0.000000
vt 0.500000 1.000000
vt 0.000000 0.000000
vt 1.000000 0.000000
vt 0.000000 0.000000
vt 1.000000 0.000000
vt 1.000000 1.000000
vt 0.000000 1.000000
vt 0.500000 1.000000
vt 0.000000 0.000000
vt 1.000000 0.000000
vt 0.500000 1.000000
vt 0.000000 0.000000
vt 1.000000 0.000000
vt 0.000000 0.000000
vt 1.000000 0.000000
vt 1.000000 1.000000
vt 0.000000 1.000000
vt 0.500000 1.000000
vt 0.000000 0.000000
vt 1.000000 0.000000
vt 0.500000 1.000000
vt 0.000000 0.000000
vt 1.000000 0.000000
vt 0.000000 0.000000
vt 1.000000 0.000000
vt 1.000000 1.000000
vt 0.000000 1.000000
vt 0.500000 1.000000
vt 0.000000 0.000000
vt 1.000000 0.000000
vt 0.500000 1.000000
vt 0.000000 0.000000
vt 1.000000 0.000000
vt 0.000000 0.000000
vt 1.000000 0.000000
vt 1.000000 1.000000
vt 0.000000 1.000000
vt 0.500000 1.000000
vt 0.000000 0.000000
vt 1.000000 0.000000
vt 0.500000 1.000000
vt 0.000000 0.000000
vt 1.000000 0.000000
vt 0.000000 0.000000
vt 1.000000 0.000000
vt 1.000000 1.000000
vt 0.000000 1.000000
vt 0.500000 1.000000
vt 0.000000 0.000000
vt 1.000000 0.000000
vt 0.500000 1.000000
vt 0.000000 0.000000
vt 1.000000 0.000000
vt 0.000000 0.000000
vt 1.000000 0.000000
vt 1.000000 1.000000
vt 0.000000 1.000000
vt 0.500000 1.000000
vt 0.000000 0.000000
vt 1.000000 0.000000
vt 0.500000 1.000000
vt 0.000000 0.000000
vt 1.000000 0.000000
vt 0.000000 0.000000
vt 1.000000 0.000000
vt 1.000000 1.000000
vt 0.000000 1.000000
vt 0.500000 1.000000
vt 0.000000 0.000000
vt 1.000000 0.000000
vt 0.500000 1.000000
vt 0.000000 0.000000
vt 1.000000 0.000000
vt 0.000000 0.000000
vt 1.000000 0.000000
vt 1.000000 1.000000
vt 0.000000 1.000000
vt 0.500000 1.000000
vt 0.000000 0.000000
vt 1.000000 0.000000
vt 0.500000 1.000000
vt 0.000000 0.000000
vt 1.000000 0.000000
vt 0.000000 0.000000
vt 1.000000 0.000000
vt 1.000000 1.000000
vt 0.000000 1.000000
vt 0.500000 1.000000
vt 0.000000 0.000000
vt 1.000000 0.000000
vt 0.500000 1.000000
vt 0.000000 0.000000
vt 1.000000 0.000000
vt 0.000000 0.000000
vt 1.000000 0.000000
vt 1.000000 1.000000
vt 0.000000 1.000000
vt 0.500000 1.000000
vt 0.000000 0.000000
vt 1.000000 0.000000
vt 0.500000 1.000000
vt 0.000000 0.000000
vt 1.000000 0.000000
vt 0.000000 0.000000
vt 1.000000 0.000000
vt 1.000000 1.000000
vt 0.000000 1.000000
vt 0.500000 1.000000
vt 0.000000 0.000000
vt 1.000000 0.000000
vt 0.500000 1.000000
vt 0.000000 0.000000
vt 1.000000 0.000000
vt 0.000000 0.000000
vt 1.000000 0.000000
vt 1.000000 1.000000
vt 0.000000 1.000000
vt 0.500000 1.000000
vt 0.000000 0.000000
vt 1.000000 0.000000
vt 0.500000 1.000000
vt 0.000000 0.000000
vt 1.000000 0.000000
vt 0.000000 0.000000
vt 1.000000 0.000000
vt 1.000000 1.000000
vt 0.000000 1.000000
vt 0.500000 1.000000
vt 0.000000 0.000000
vt 1.000000 0.000000
vt 0.500000 1.000000
vt 0.000000 0.000000
vt 1.000000 0.000000
vt 0.000000 0.000000
vt 1.000000 0.000000
vt 1.000000 1.000000
vt 0.000000 1.000000
vt 0.500000 1.000000
vt 0.000000 0.000000
vt 1.000000 0.000000
vt 0.500000 1.000000
vt 0.000000 0.000000
vt 1.000000 0.000000
vt 0.000000 0.000000
vt 1.000000 0.000000
vt 1.000000 1.000000
vt 0.000000 1.000000
vt 0.500000 1.000000
vt 0.000000 0.000000
vt 1.000000 0.000000
vt 0.500000 1.000000
vt 0.000000 0.000000
vt 1.000000 0.000000
vt 0.000000 0.000000
vt 1.000000 0.000000
vt 1.000000 1.000000
vt 0.000000 1.000000
vt 0.500000 1.000000
vt 0.000000 0.000000
vt 1.000000 0.000000
vt 0.500000 1.000000
vt 0.000000 0.000000
vt 1.000000 0.000000
s 1
usemtl models/caelum/world/environment/rock_granite.png
f 1/1 2/2 3/3
f 4/4 5/5 6/6 7/7
f 8/8 9/9 10/10 11/11
f 12/12 13/13 14/14
f 15/15 16/16 17/17
f 18/18 19/19 20/20 21/21
f 22/22 23/23 24/24 25/25
f 26/26 27/27 28/28
f 29/29 30/30 31/31
f 32/32 33/33 34/34 35/35
f 36/36 37/37 38/38 39/39
f 40/40 41/41 42/42
f 43/43 44/44 45/45
f 46/46 47/47 48/48 49/49
f 50/50 51/51 52/52 53/53
f 54/54 55/55 56/56
f 57/57 58/58 59/59
f 60/60 61/61 62/62 63/63
f 64/64 65/65 66/66 67/67
f 68/68 69/69 70/70
f 71/71 72/72 73/73
f 74/74 75/75 76/76 77/77
f 78/78 79/79 80/80 81/81
f 82/82 83/83 84/84
f 85/85 86/86 87/87
f 88/88 89/89 90/90 91/91
f 92/92 93/93 94/94 95/95
f 96/96 97/97 98/98
f 99/99 100/100 101/101
f 102/102 103/103 104/104 105/105
f 106/106 107/107 108/108 109/109
f 110/110 111/111 112/112
f 113/113 114/114 115/115
f 116/116 117/117 118/118 119/119
f 120/120 121/121 122/122 123/123
f 124/124 125/125 126/126
f 127/127 128/128 129/129
f 130/130 131/131 132/132 133/133
f 134/134 135/135 136/136 137/137
f 138/138 139/139 140/140
usemtl models/caelum/world/resources/ca_vein_copper.png
f 141/141 142/142 143/143
f 144/144 145/145 146/146 147/147
f 148/148 149/149 150/150
f 151/151 152/152 153/153
f 154/154 155/155 156/156 157/157
f 158/158 159/159 160/160
f 161/161 162/162 163/163
f 164/164 165/165 166/166 167/167
f 168/168 169/169 170/170
f 171/171 172/172 173/173
f 174/174 175/175 176/176 177/177
f 178/178 179/179 180/180
f 181/181 182/182 183/183
f 184/184 185/185 186/186 187/187
f 188/188 189/189 190/190
f 191/191 192/192 193/193
f 194/194 195/195 196/196 197/197
f 198/198 199/199 200/200
f 201/201 202/202 203/203
f 204/204 205/205 206/206 207/207
f 208/208 209/209 210/210
f 211/211 212/212 213/213
f 214/214 215/215 216/216 217/217
f 218/218 219/219 220/220
f 221/221 222/222 223/223
f 224/224 225/225 226/226 227/227
f 228/228 229/229 230/230
f 231/231 232/232 233/233
f 234/234 235/235 236/236 237/237
f 238/238 239/239 240/240
f 241/241 242/242 243/243
f 244/244 245/245 246/246 247/247
f 248/248 249/249 250/250
f 251/251 252/252 253/253
f 254/254 255/255 256/256 257/257
f 258/258 259/259 260/260
f 261/261 262/262 263/263
f 264/264 265/265 266/266 267/267
f 268/268 269/269 270/270
f 271/271 272/272 273/273
f 274/274 275/275 276/276 277/277
f 278/278 279/279 280/280
f 281/281 282/282 283/283
f 284/284 285/285 286/286 287/287
f 288/288 289/289 290/290
f 291/291 292/292 293/293
f 294/294 295/295 296/296 297/297
f 298/298 299/299 300/300
f 301/301 302/302 303/303
f 304/304 305/305 306/306 307/307
f 308/308 309/309 310/310
f 311/311 312/312 313/313
f 314/314 315/315 316/316 317/317
f 318/318 319/319 320/320
f 321/321 322/322 323/323
f 324/324 325/325 326/326 327/327
f 328/328 329/329 330/330
f 331/331 332/332 333/333
f 334/334 335/335 336/336 337/337
f 338/338 339/339 340/340
f 341/341 342/342 343/343
f 344/344 345/345 346/346 347/347
f 348/348 349/349 350/350
f 351/351 352/352 353/353
f 354/354 355/355 356/356 357/357
f 358/358 359/359 360/360
f 361/361 362/362 363/363
f 364/364 365/365 366/366 367/367
f 368/368 369/369 370/370
f 371/371 372/372 373/373
f 374/374 375/375 376/376 377/377
f 378/378 379/379 380/380
f 381/381 382/382 383/383
f 384/384 385/385 386/386 387/387
f 388/388 389/389 390/390
f 391/391 392/392 393/393
f 394/394 395/395 396/396 397/397
f 398/398 399/399 400/400
f 401/401 402/402 403/403
f 404/404 405/405 406/406 407/407
f 408/408 409/409 410/410
f 411/411 412/412 413/413
f 414/414 415/415 416/416 417/417
f 418/418 419/419 420/420
f 421/421 422/422 423/423
f 424/424 425/425 426/426 427/427
f 428/428 429/429 430/430
f 431/431 432/432 433/433
f 434/434 435/435 436/436 437/437
f 438/438 439/439 440/440
f 441/441 442/442 443/443
f 444/444 445/445 446/446 447/447
f 448/448 449/449 450/450
f 451/451 452/452 453/453
f 454/454 455/455 456/456 457/457
f 458/458 459/459 460/460
f 461/461 462/462 463/463
f 464/464 465/465 466/466 467/467
f 468/468 469/469 470/470
f 471/471 472/472 473/473
f 474/474 475/475 476/476 477/477
f 478/478 479/479 480/480
f 481/481 482/482 483/483
f 484/484 485/485 486/486 487/487
f 488/488 489/489 490/490
f 491/491 492/492 493/493
f 494/494 495/495 496/496 497/497
f 498/498 499/499 500/500
f 501/501 502/502 503/503
f 504/504 505/505 506/506 507/507
f 508/508 509/509 510/510
f 511/511 512/512 513/513
f 514/514 515/515 516/516 517/517
f 518/518 519/519 520/520
f 521/521 522/522 523/523
f 524/524 525/525 526/526 527/527
f 528/528 529/529 530/530
f 531/531 532/532 533/533
f 534/534 535/535 536/536 537/537
f 538/538 539/539 540/540
f 541/541 542/542 543/543
f 544/544 545/545 546/546 547/547
f 548/548 549/549 550/550
f 551/551 552/552 553/553
f 554/554 555/555 556/556 557/557
f 558/558 559/559 560/560
f 561/561 562/562 563/563
f 564/564 565/565 566/566 567/567
f 568/568 569/569 570/570
f 571/571 572/572 573/573
f 574/574 575/575 576/576 577/577
f 578/578 579/579 580/580
f 581/581 582/582 583/583
f 584/584 585/585 586/586 587/587
f 588/588 589/589 590/590
f 591/591 592/592 593/593
f 594/594 595/595 596/596 597/597
f 598/598 599/599 600/600
f 601/601 602/602 603/603
f 604/604 605/605 606/606 607/607
f 608/608 609/609 610/610
f 611/611 612/612 613/613
f 614/614 615/615 616/616 617/617
f 618/618 619/619 620/620
f 621/621 622/622 623/623
f 624/624 625/625 626/626 627/627
f 628/628 629/629 630/630
f 631/631 632/632 633/633
f 634/634 635/635 636/636 637/637
f 638/638 639/639 640/640
f 641/641 642/642 643/643
f 644/644 645/645 646/646 647/647
f 648/648 649/649 650/650
f 651/651 652/652 653/653
f 654/654 655/655 656/656 657/657
f 658/658 659/659 660/660
f 661/661 662/662 663/663
f 664/664 665/665 666/666 667/667
f 668/668 669/669 670/670
f 671/671 672/672 673/673
f 674/674 675/675 676/676 677/677
f 678/678 679/679 680/680
f 681/681 682/682 683/683
f 684/684 685/685 686/686 687/687
f 688/688 689/689 690/690
f 691/691 692/692 693/693
f 694/694 695/695 696/696 697/697
f 698/698 699/699 700/700
f 701/701 702/702 703/703
f 704/704 705/705 706/706 707/707
f 708/708 709/709 710/710
f 711/711 712/712 713/713
f 714/714 715/715 716/716 717/717
f 718/718 719/719 720/720
f 721/721 722/722 723/723
f 724/724 725/725 726/726 727/727
f 728/728 729/729 730/730
f 731/731 732/732 733/733
f 734/734 735/735 736/736 737/737
f 738/738 739/739 740/740
f 741/741 742/742 743/743
f 744/744 745/745 746/746 747/747
f 748/748 749/749 750/750
f 751/751 752/752 753/753
f 754/754 755/755 756/756 757/757
f 758/758 759/759 760/760
f 761/761 762/762 763/763
f 764/764 765/765 766/766 767/767
f 768/768 769/769 770/770
f 771/771 772/772 773/773 774/774
f 775/775 776/776 777/777
f 778/778 779/779 780/780
f 781/781 782/782 783/783 784/784
f 785/785 786/786 787/787
f 788/788 789/789 790/790
f 791/791 792/792 793/793 794/794
f 795/795 796/796 797/797
f 798/798 799/799 800/800
f 801/801 802/802 803/803 804/804
f 805/805 806/806 807/807
f 808/808 809/809 810/810
f 811/811 812/812 813/813 814/814
f 815/815 816/816 817/817
f 818/818 819/819 820/820
f 821/821 822/822 823/823 824/824
f 825/825 826/826 827/827
f 828/828 829/829 830/830
f 831/831 832/832 833/833 834/834
f 835/835 836/836 837/837
f 838/838 839/839 840/840
f 841/841 842/842 843/843 844/844
f 845/845 846/846 847/847
f 848/848 849/849 850/850
f 851/851 852/852 853/853 854/854
f 855/855 856/856 857/857
f 858/858 859/859 860/860
f 861/861 862/862 863/863 864/864
f 865/865 866/866 867/867
f 868/868 869/869 870/870
f 871/871 872/872 873/873 874/874
f 875/875 876/876 877/877
f 878/878 879/879 880/880
f 881/881 882/882 883/883 884/884
f 885/885 886/886 887/887
f 888/888 889/889 890/890
f 891/891 892/892 893/893 894/894
f 895/895 896/896 897/897
f 898/898 899/899 900/900
f 901/901 902/902 903/903 904/904
f 905/905 906/906 907/907
f 908/908 909/909 910/910
f 911/911 912/912 913/913 914/914
f 915/915 916/916 917/917
f 918/918 919/919 920/920
f 921/921 922/922 923/923 924/924
f 925/925 926/926 927/927
f 928/928 929/929 930/930
f 931/931 932/932 933/933 934/934
f 935/935 936/936 937/937
f 938/938 939/939 940/940
f 941/941 942/942 943/943 944/944
f 945/945 946/946 947/947
f 948/948 949/949 950/950
