# Modelo original generado para Caelum Argenteum.
# Ejes OBJ: X ancho, Y altura, Z profundidad.
o ca_vein_silver2
v 0.000000 0.000000 0.000000
v 30.622588 -1.543378 0.000000
v 33.097120 -1.397227 20.767402
v 30.622588 -1.543378 0.000000
v 45.273237 18.247079 0.000000
v 33.117888 16.960697 20.780433
v 33.097120 -1.397227 20.767402
v 45.273237 18.247079 0.000000
v 29.996729 36.265079 0.000000
v 27.470842 36.701476 17.237089
v 33.117888 16.960697 20.780433
v 4.763945 52.000000 -9.014157
v 27.470842 36.701476 17.237089
v 29.996729 36.265079 0.000000
v 0.000000 0.000000 0.000000
v 33.097120 -1.397227 20.767402
v 10.810263 -1.709206 28.733673
v 33.097120 -1.397227 20.767402
v 33.117888 16.960697 20.780433
v 12.469819 16.236639 33.144771
v 10.810263 -1.709206 28.733673
v 33.117888 16.960697 20.780433
v 27.470842 36.701476 17.237089
v 8.401715 35.332851 22.331753
v 12.469819 16.236639 33.144771
v 4.763945 52.000000 -9.014157
v 8.401715 35.332851 22.331753
v 27.470842 36.701476 17.237089
v 0.000000 0.000000 0.000000
v 10.810263 -1.709206 28.733673
v -13.118157 -1.401689 34.868053
v 10.810263 -1.709206 28.733673
v 12.469819 16.236639 33.144771
v -13.079549 17.756864 34.765433
v -13.118157 -1.401689 34.868053
v 12.469819 16.236639 33.144771
v 8.401715 35.332851 22.331753
v -8.490791 34.511994 22.568517
v -13.079549 17.756864 34.765433
v 4.763945 52.000000 -9.014157
v -8.490791 34.511994 22.568517
v 8.401715 35.332851 22.331753
v 0.000000 0.000000 0.000000
v -13.118157 -1.401689 34.868053
v -32.429860 -0.252420 20.348717
v -13.118157 -1.401689 34.868053
v -13.079549 17.756864 34.765433
v -30.173036 15.876595 18.932631
v -32.429860 -0.252420 20.348717
v -13.079549 17.756864 34.765433
v -8.490791 34.511994 22.568517
v -30.652078 34.550749 19.233215
v -30.173036 15.876595 18.932631
v 4.763945 52.000000 -9.014157
v -30.652078 34.550749 19.233215
v -8.490791 34.511994 22.568517
v 0.000000 0.000000 0.000000
v -32.429860 -0.252420 20.348717
v -42.558286 1.605265 0.000000
v -32.429860 -0.252420 20.348717
v -30.173036 15.876595 18.932631
v -48.660256 18.401595 0.000000
v -42.558286 1.605265 0.000000
v -30.173036 15.876595 18.932631
v -30.652078 34.550749 19.233215
v -29.539214 35.256880 0.000000
v -48.660256 18.401595 0.000000
v 4.763945 52.000000 -9.014157
v -29.539214 35.256880 0.000000
v -30.652078 34.550749 19.233215
v 0.000000 0.000000 0.000000
v -42.558286 1.605265 0.000000
v -33.464413 1.352964 -20.997866
v -42.558286 1.605265 0.000000
v -48.660256 18.401595 0.000000
v -34.732703 16.479411 -21.793679
v -33.464413 1.352964 -20.997866
v -48.660256 18.401595 0.000000
v -29.539214 35.256880 0.000000
v -23.249170 34.455540 -14.588123
v -34.732703 16.479411 -21.793679
v 4.763945 52.000000 -9.014157
v -23.249170 34.455540 -14.588123
v -29.539214 35.256880 0.000000
v 0.000000 0.000000 0.000000
v -33.464413 1.352964 -20.997866
v -10.013238 -0.794435 -26.615180
v -33.464413 1.352964 -20.997866
v -34.732703 16.479411 -21.793679
v -13.217498 17.824471 -35.132103
v -10.013238 -0.794435 -26.615180
v -34.732703 16.479411 -21.793679
v -23.249170 34.455540 -14.588123
v -8.582438 34.367901 -22.812115
v -13.217498 17.824471 -35.132103
v 4.763945 52.000000 -9.014157
v -8.582438 34.367901 -22.812115
v -23.249170 34.455540 -14.588123
v 0.000000 0.000000 0.000000
v -10.013238 -0.794435 -26.615180
v 9.887223 -1.184494 -26.280232
v -10.013238 -0.794435 -26.615180
v -13.217498 17.824471 -35.132103
v 14.882493 17.862070 -39.557657
v 9.887223 -1.184494 -26.280232
v -13.217498 17.824471 -35.132103
v -8.582438 34.367901 -22.812115
v 11.865686 37.055459 -31.538986
v 14.882493 17.862070 -39.557657
v 4.763945 52.000000 -9.014157
v 11.865686 37.055459 -31.538986
v -8.582438 34.367901 -22.812115
v 0.000000 0.000000 0.000000
v 9.887223 -1.184494 -26.280232
v 29.536552 0.223941 -18.533257
v 9.887223 -1.184494 -26.280232
v 14.882493 17.862070 -39.557657
v 41.927611 16.663411 -26.308257
v 29.536552 0.223941 -18.533257
v 14.882493 17.862070 -39.557657
v 11.865686 37.055459 -31.538986
v 25.658172 33.811895 -16.099696
v 41.927611 16.663411 -26.308257
v 4.763945 52.000000 -9.014157
v 25.658172 33.811895 -16.099696
v 11.865686 37.055459 -31.538986
v 0.000000 0.000000 0.000000
v 29.536552 0.223941 -18.533257
v 30.622588 -1.543378 0.000000
v 29.536552 0.223941 -18.533257
v 41.927611 16.663411 -26.308257
v 45.273237 18.247079 0.000000
v 30.622588 -1.543378 0.000000
v 41.927611 16.663411 -26.308257
v 25.658172 33.811895 -16.099696
v 29.996729 36.265079 0.000000
v 45.273237 18.247079 0.000000
v 4.763945 52.000000 -9.014157
v 29.996729 36.265079 0.000000
v 25.658172 33.811895 -16.099696
v 27.727268 29.110424 -3.841162
v 30.384838 31.135735 -0.764577
v 32.019300 31.418770 -3.841162
v 32.019300 31.418770 -3.841162
v 30.384838 31.135735 -0.764577
v 30.270216 35.700731 -0.897270
v 32.328987 36.108977 -3.841162
v 27.727268 37.921599 -3.841162
v 32.328987 36.108977 -3.841162
v 30.270216 35.700731 -0.897270
v 27.727268 29.110424 -3.841162
v 26.672329 30.917507 0.425907
v 30.384838 31.135735 -0.764577
v 30.384838 31.135735 -0.764577
v 26.672329 30.917507 0.425907
v 26.694504 35.961340 0.336213
v 30.270216 35.700731 -0.897270
v 27.727268 37.921599 -3.841162
v 30.270216 35.700731 -0.897270
v 26.694504 35.961340 0.336213
v 27.727268 29.110424 -3.841162
v 22.894490 31.464836 -1.692535
v 26.672329 30.917507 0.425907
v 26.672329 30.917507 0.425907
v 22.894490 31.464836 -1.692535
v 23.772886 35.482145 -2.083065
v 26.694504 35.961340 0.336213
v 27.727268 37.921599 -3.841162
v 26.694504 35.961340 0.336213
v 23.772886 35.482145 -2.083065
v 27.727268 29.110424 -3.841162
v 22.874258 31.396000 -5.998784
v 22.894490 31.464836 -1.692535
v 22.894490 31.464836 -1.692535
v 22.874258 31.396000 -5.998784
v 22.791236 35.963960 -6.035696
v 23.772886 35.482145 -2.083065
v 27.727268 37.921599 -3.841162
v 23.772886 35.482145 -2.083065
v 22.791236 35.963960 -6.035696
v 27.727268 29.110424 -3.841162
v 26.814268 31.624838 -7.534112
v 22.874258 31.396000 -5.998784
v 22.874258 31.396000 -5.998784
v 26.814268 31.624838 -7.534112
v 26.705656 35.829733 -7.973428
v 22.791236 35.963960 -6.035696
v 27.727268 37.921599 -3.841162
v 22.791236 35.963960 -6.035696
v 26.705656 35.829733 -7.973428
v 27.727268 29.110424 -3.841162
v 30.364371 31.341248 -6.894055
v 26.814268 31.624838 -7.534112
v 26.814268 31.624838 -7.534112
v 30.364371 31.341248 -6.894055
v 31.182985 35.367881 -7.841739
v 26.705656 35.829733 -7.973428
v 27.727268 37.921599 -3.841162
v 26.705656 35.829733 -7.973428
v 31.182985 35.367881 -7.841739
v 27.727268 29.110424 -3.841162
v 32.019300 31.418770 -3.841162
v 30.364371 31.341248 -6.894055
v 30.364371 31.341248 -6.894055
v 32.019300 31.418770 -3.841162
v 32.328987 36.108977 -3.841162
v 31.182985 35.367881 -7.841739
v 27.727268 37.921599 -3.841162
v 31.182985 35.367881 -7.841739
v 32.328987 36.108977 -3.841162
v 19.028244 25.159366 17.213633
v 23.435485 29.087060 24.711592
v 25.120907 28.765634 17.213633
v 25.120907 28.765634 17.213633
v 23.435485 29.087060 24.711592
v 22.664365 35.204634 23.399700
v 25.431266 35.683790 17.213633
v 19.028244 38.525339 17.213633
v 25.431266 35.683790 17.213633
v 22.664365 35.204634 23.399700
v 19.028244 25.159366 17.213633
v 17.426935 28.915887 26.732148
v 23.435485 29.087060 24.711592
v 23.435485 29.087060 24.711592
v 17.426935 28.915887 26.732148
v 17.563985 35.408946 25.917497
v 22.664365 35.204634 23.399700
v 19.028244 38.525339 17.213633
v 22.664365 35.204634 23.399700
v 17.563985 35.408946 25.917497
v 19.028244 25.159366 17.213633
v 13.201312 28.043362 21.020748
v 17.426935 28.915887 26.732148
v 17.426935 28.915887 26.732148
v 13.201312 28.043362 21.020748
v 12.625143 35.734366 21.397197
v 17.563985 35.408946 25.917497
v 19.028244 38.525339 17.213633
v 17.563985 35.408946 25.917497
v 12.625143 35.734366 21.397197
v 19.028244 25.159366 17.213633
v 14.322076 27.951723 14.138786
v 13.201312 28.043362 21.020748
v 13.201312 28.043362 21.020748
v 14.322076 27.951723 14.138786
v 13.170945 35.394595 13.386677
v 12.625143 35.734366 21.397197
v 19.028244 38.525339 17.213633
v 12.625143 35.734366 21.397197
v 13.170945 35.394595 13.386677
v 19.028244 25.159366 17.213633
v 17.402056 29.047586 7.547229
v 14.322076 27.951723 14.138786
v 14.322076 27.951723 14.138786
v 17.402056 29.047586 7.547229
v 17.429249 35.571169 7.708870
v 13.170945 35.394595 13.386677
v 19.028244 38.525339 17.213633
v 13.170945 35.394595 13.386677
v 17.429249 35.571169 7.708870
v 19.028244 25.159366 17.213633
v 22.401614 28.886265 11.474580
v 17.402056 29.047586 7.547229
v 17.402056 29.047586 7.547229
v 22.401614 28.886265 11.474580
v 22.310715 35.479402 11.629224
v 17.429249 35.571169 7.708870
v 19.028244 38.525339 17.213633
v 17.429249 35.571169 7.708870
v 22.310715 35.479402 11.629224
v 19.028244 25.159366 17.213633
v 25.120907 28.765634 17.213633
v 22.401614 28.886265 11.474580
v 22.401614 28.886265 11.474580
v 25.120907 28.765634 17.213633
v 25.431266 35.683790 17.213633
v 22.310715 35.479402 11.629224
v 19.028244 38.525339 17.213633
v 22.310715 35.479402 11.629224
v 25.431266 35.683790 17.213633
v 2.217812 12.746279 32.011188
v 5.696800 14.303713 36.008979
v 6.975257 14.594050 32.011188
v 6.975257 14.594050 32.011188
v 5.696800 14.303713 36.008979
v 6.298748 18.164838 36.700693
v 7.625220 18.228323 32.011188
v 2.217812 19.761506 32.011188
v 7.625220 18.228323 32.011188
v 6.298748 18.164838 36.700693
v 2.217812 12.746279 32.011188
v 0.852982 14.802922 37.490972
v 5.696800 14.303713 36.008979
v 5.696800 14.303713 36.008979
v 0.852982 14.802922 37.490972
v 1.119031 17.962314 36.422787
v 6.298748 18.164838 36.700693
v 2.217812 19.761506 32.011188
v 6.298748 18.164838 36.700693
v 1.119031 17.962314 36.422787
v 2.217812 12.746279 32.011188
v -3.139501 14.792533 34.375441
v 0.852982 14.802922 37.490972
v 0.852982 14.802922 37.490972
v -3.139501 14.792533 34.375441
v -2.938571 17.725944 34.286768
v 1.119031 17.962314 36.422787
v 2.217812 19.761506 32.011188
v 1.119031 17.962314 36.422787
v -2.938571 17.725944 34.286768
v 2.217812 12.746279 32.011188
v -3.161882 14.353240 29.637058
v -3.139501 14.792533 34.375441
v -3.139501 14.792533 34.375441
v -3.161882 14.353240 29.637058
v -3.372793 18.290554 29.543980
v -2.938571 17.725944 34.286768
v 2.217812 19.761506 32.011188
v -2.938571 17.725944 34.286768
v -3.372793 18.290554 29.543980
v 2.217812 12.746279 32.011188
v 0.928129 14.505654 26.833117
v -3.161882 14.353240 29.637058
v -3.161882 14.353240 29.637058
v 0.928129 14.505654 26.833117
v 0.859588 18.309651 26.557928
v -3.372793 18.290554 29.543980
v 2.217812 19.761506 32.011188
v -3.372793 18.290554 29.543980
v 0.859588 18.309651 26.557928
v 2.217812 12.746279 32.011188
v 5.670070 14.261388 28.044113
v 0.928129 14.505654 26.833117
v 0.928129 14.505654 26.833117
v 5.670070 14.261388 28.044113
v 6.103086 18.259875 27.546524
v 0.859588 18.309651 26.557928
v 2.217812 19.761506 32.011188
v 0.859588 18.309651 26.557928
v 6.103086 18.259875 27.546524
v 2.217812 12.746279 32.011188
v 6.975257 14.594050 32.011188
v 5.670070 14.261388 28.044113
v 5.670070 14.261388 28.044113
v 6.975257 14.594050 32.011188
v 7.625220 18.228323 32.011188
v 6.103086 18.259875 27.546524
v 2.217812 19.761506 32.011188
v 6.103086 18.259875 27.546524
v 7.625220 18.228323 32.011188
v -17.335929 23.444039 24.712655
v -12.469331 25.537928 29.704366
v -9.402712 25.775860 24.712655
v -9.402712 25.775860 24.712655
v -12.469331 25.537928 29.704366
v -12.497226 29.634849 29.675754
v -7.965596 29.632803 24.712655
v -17.335929 31.896544 24.712655
v -7.965596 29.632803 24.712655
v -12.497226 29.634849 29.675754
v -17.335929 23.444039 24.712655
v -19.064855 25.805741 30.908754
v -12.469331 25.537928 29.704366
v -12.469331 25.537928 29.704366
v -19.064855 25.805741 30.908754
v -18.980997 29.588271 30.608226
v -12.497226 29.634849 29.675754
v -17.335929 31.896544 24.712655
v -12.497226 29.634849 29.675754
v -18.980997 29.588271 30.608226
v -17.335929 23.444039 24.712655
v -23.631262 25.472137 27.192488
v -19.064855 25.805741 30.908754
v -19.064855 25.805741 30.908754
v -23.631262 25.472137 27.192488
v -25.439998 29.848201 27.904979
v -18.980997 29.588271 30.608226
v -17.335929 31.896544 24.712655
v -18.980997 29.588271 30.608226
v -25.439998 29.848201 27.904979
v -17.335929 23.444039 24.712655
v -25.495930 25.177690 21.498298
v -23.631262 25.472137 27.192488
v -23.631262 25.472137 27.192488
v -25.495930 25.177690 21.498298
v -26.121314 30.139346 21.251949
v -25.439998 29.848201 27.904979
v -17.335929 31.896544 24.712655
v -25.439998 29.848201 27.904979
v -26.121314 30.139346 21.251949
v -17.335929 23.444039 24.712655
v -19.336878 25.378890 17.541685
v -25.495930 25.177690 21.498298
v -25.495930 25.177690 21.498298
v -19.336878 25.378890 17.541685
v -18.901634 29.907255 19.101506
v -26.121314 30.139346 21.251949
v -17.335929 31.896544 24.712655
v -26.121314 30.139346 21.251949
v -18.901634 29.907255 19.101506
v -17.335929 23.444039 24.712655
v -11.890811 25.583586 19.127550
v -19.336878 25.378890 17.541685
v -19.336878 25.378890 17.541685
v -11.890811 25.583586 19.127550
v -11.229553 29.913911 18.449291
v -18.901634 29.907255 19.101506
v -17.335929 31.896544 24.712655
v -18.901634 29.907255 19.101506
v -11.229553 29.913911 18.449291
v -17.335929 23.444039 24.712655
v -9.402712 25.775860 24.712655
v -11.890811 25.583586 19.127550
v -11.890811 25.583586 19.127550
v -9.402712 25.775860 24.712655
v -7.965596 29.632803 24.712655
v -11.229553 29.913911 18.449291
v -17.335929 31.896544 24.712655
v -11.229553 29.913911 18.449291
v -7.965596 29.632803 24.712655
v -29.821709 19.340066 10.997792
v -24.792996 21.243764 15.500822
v -20.761808 21.185617 10.997792
v -20.761808 21.185617 10.997792
v -24.792996 21.243764 15.500822
v -25.431588 24.258524 14.928987
v -20.849733 24.306717 10.997792
v -29.821709 25.954169 10.997792
v -20.849733 24.306717 10.997792
v -25.431588 24.258524 14.928987
v -29.821709 19.340066 10.997792
v -31.664269 21.232957 16.762637
v -24.792996 21.243764 15.500822
v -24.792996 21.243764 15.500822
v -31.664269 21.232957 16.762637
v -31.681642 24.342175 16.816992
v -25.431588 24.258524 14.928987
v -29.821709 25.954169 10.997792
v -25.431588 24.258524 14.928987
v -31.681642 24.342175 16.816992
v -29.821709 19.340066 10.997792
v -36.500620 21.223823 13.294647
v -31.664269 21.232957 16.762637
v -31.664269 21.232957 16.762637
v -36.500620 21.223823 13.294647
v -36.428631 24.309676 13.269890
v -31.681642 24.342175 16.816992
v -29.821709 25.954169 10.997792
v -31.681642 24.342175 16.816992
v -36.428631 24.309676 13.269890
v -29.821709 19.340066 10.997792
v -37.445892 20.828856 8.375862
v -36.500620 21.223823 13.294647
v -36.500620 21.223823 13.294647
v -37.445892 20.828856 8.375862
v -36.140012 24.586102 8.824949
v -36.428631 24.309676 13.269890
v -29.821709 25.954169 10.997792
v -36.428631 24.309676 13.269890
v -36.140012 24.586102 8.824949
v -29.821709 19.340066 10.997792
v -31.650949 21.151662 5.274623
v -37.445892 20.828856 8.375862
v -37.445892 20.828856 8.375862
v -31.650949 21.151662 5.274623
v -31.736296 24.449609 5.007595
v -36.140012 24.586102 8.824949
v -29.821709 25.954169 10.997792
v -36.140012 24.586102 8.824949
v -31.736296 24.449609 5.007595
v -29.821709 19.340066 10.997792
v -25.023452 21.238593 6.701126
v -31.650949 21.151662 5.274623
v -31.650949 21.151662 5.274623
v -25.023452 21.238593 6.701126
v -25.753025 24.288608 7.354433
v -31.736296 24.449609 5.007595
v -29.821709 25.954169 10.997792
v -31.736296 24.449609 5.007595
v -25.753025 24.288608 7.354433
v -29.821709 19.340066 10.997792
v -20.761808 21.185617 10.997792
v -25.023452 21.238593 6.701126
v -25.023452 21.238593 6.701126
v -20.761808 21.185617 10.997792
v -20.849733 24.306717 10.997792
v -25.753025 24.288608 7.354433
v -29.821709 25.954169 10.997792
v -25.753025 24.288608 7.354433
v -20.849733 24.306717 10.997792
v -37.511124 18.989434 -14.680741
v -34.256185 21.385782 -9.563221
v -31.290390 21.401281 -14.680741
v -31.290390 21.401281 -14.680741
v -34.256185 21.385782 -9.563221
v -33.817631 25.923657 -8.873714
v -31.051404 25.989204 -14.680741
v -37.511124 28.369597 -14.680741
v -31.051404 25.989204 -14.680741
v -33.817631 25.923657 -8.873714
v -37.511124 18.989434 -14.680741
v -38.872068 21.160992 -7.204649
v -34.256185 21.385782 -9.563221
v -34.256185 21.385782 -9.563221
v -38.872068 21.160992 -7.204649
v -39.080324 26.296631 -6.060632
v -33.817631 25.923657 -8.873714
v -37.511124 28.369597 -14.680741
v -33.817631 25.923657 -8.873714
v -39.080324 26.296631 -6.060632
v -37.511124 18.989434 -14.680741
v -42.831533 21.543915 -11.468253
v -38.872068 21.160992 -7.204649
v -38.872068 21.160992 -7.204649
v -42.831533 21.543915 -11.468253
v -42.780037 26.357471 -11.499346
v -39.080324 26.296631 -6.060632
v -37.511124 28.369597 -14.680741
v -39.080324 26.296631 -6.060632
v -42.780037 26.357471 -11.499346
v -37.511124 18.989434 -14.680741
v -43.190029 21.515314 -18.109690
v -42.831533 21.543915 -11.468253
v -42.831533 21.543915 -11.468253
v -43.190029 21.515314 -18.109690
v -43.451660 25.728749 -18.267663
v -42.780037 26.357471 -11.499346
v -37.511124 28.369597 -14.680741
v -42.780037 26.357471 -11.499346
v -43.451660 25.728749 -18.267663
v -37.511124 18.989434 -14.680741
v -38.944508 21.182450 -22.554772
v -43.190029 21.515314 -18.109690
v -43.190029 21.515314 -18.109690
v -38.944508 21.182450 -22.554772
v -39.037680 25.619851 -23.066594
v -43.451660 25.728749 -18.267663
v -37.511124 28.369597 -14.680741
v -43.451660 25.728749 -18.267663
v -39.037680 25.619851 -23.066594
v -37.511124 18.989434 -14.680741
v -34.222527 21.549127 -19.851177
v -38.944508 21.182450 -22.554772
v -38.944508 21.182450 -22.554772
v -34.222527 21.549127 -19.851177
v -32.921463 26.420920 -21.896751
v -39.037680 25.619851 -23.066594
v -37.511124 28.369597 -14.680741
v -39.037680 25.619851 -23.066594
v -32.921463 26.420920 -21.896751
v -37.511124 18.989434 -14.680741
v -31.290390 21.401281 -14.680741
v -34.222527 21.549127 -19.851177
v -34.222527 21.549127 -19.851177
v -31.290390 21.401281 -14.680741
v -31.051404 25.989204 -14.680741
v -32.921463 26.420920 -21.896751
v -37.511124 28.369597 -14.680741
v -32.921463 26.420920 -21.896751
v -31.051404 25.989204 -14.680741
v -16.446757 34.713429 -28.762193
v -12.304030 36.814336 -22.732111
v -8.807326 36.781270 -28.762193
v -8.807326 36.781270 -28.762193
v -12.304030 36.814336 -22.732111
v -12.381995 40.549830 -22.845596
v -10.986950 41.101175 -28.762193
v -16.446757 42.963994 -28.762193
v -10.986950 41.101175 -28.762193
v -12.381995 40.549830 -22.845596
v -16.446757 34.713429 -28.762193
v -17.925879 36.432018 -21.239755
v -12.304030 36.814336 -22.732111
v -12.304030 36.814336 -22.732111
v -17.925879 36.432018 -21.239755
v -17.841361 41.067213 -21.669593
v -12.381995 40.549830 -22.845596
v -16.446757 42.963994 -28.762193
v -12.381995 40.549830 -22.845596
v -17.841361 41.067213 -21.669593
v -16.446757 34.713429 -28.762193
v -21.855255 36.832078 -25.738809
v -17.925879 36.432018 -21.239755
v -17.925879 36.432018 -21.239755
v -21.855255 36.832078 -25.738809
v -21.945731 41.193293 -25.688232
v -17.841361 41.067213 -21.669593
v -16.446757 42.963994 -28.762193
v -17.841361 41.067213 -21.669593
v -21.945731 41.193293 -25.688232
v -16.446757 34.713429 -28.762193
v -23.221268 37.028905 -32.549187
v -21.855255 36.832078 -25.738809
v -21.855255 36.832078 -25.738809
v -23.221268 37.028905 -32.549187
v -21.690679 40.711969 -31.693578
v -21.945731 41.193293 -25.688232
v -16.446757 42.963994 -28.762193
v -21.945731 41.193293 -25.688232
v -21.690679 40.711969 -31.693578
v -16.446757 34.713429 -28.762193
v -17.727838 36.434376 -35.277447
v -23.221268 37.028905 -32.549187
v -23.221268 37.028905 -32.549187
v -17.727838 36.434376 -35.277447
v -17.897874 40.662189 -36.142204
v -21.690679 40.711969 -31.693578
v -16.446757 42.963994 -28.762193
v -21.690679 40.711969 -31.693578
v -17.897874 40.662189 -36.142204
v -16.446757 34.713429 -28.762193
v -11.811096 37.011671 -35.509780
v -17.727838 36.434376 -35.277447
v -17.727838 36.434376 -35.277447
v -11.811096 37.011671 -35.509780
v -12.422291 41.080443 -34.620136
v -17.897874 40.662189 -36.142204
v -16.446757 42.963994 -28.762193
v -17.897874 40.662189 -36.142204
v -12.422291 41.080443 -34.620136
v -16.446757 34.713429 -28.762193
v -8.807326 36.781270 -28.762193
v -11.811096 37.011671 -35.509780
v -11.811096 37.011671 -35.509780
v -8.807326 36.781270 -28.762193
v -10.986950 41.101175 -28.762193
v -12.422291 41.080443 -34.620136
v -16.446757 42.963994 -28.762193
v -12.422291 41.080443 -34.620136
v -10.986950 41.101175 -28.762193
v 8.633806 9.861770 -31.268673
v 12.621774 11.595325 -27.023489
v 15.608368 11.511851 -31.268673
v 15.608368 11.511851 -31.268673
v 12.621774 11.595325 -27.023489
v 12.344515 14.924145 -27.318631
v 16.084986 14.665984 -31.268673
v 8.633806 16.392467 -31.268673
v 16.084986 14.665984 -31.268673
v 12.344515 14.924145 -27.318631
v 8.633806 9.861770 -31.268673
v 7.317384 11.306648 -26.372492
v 12.621774 11.595325 -27.023489
v 12.621774 11.595325 -27.023489
v 7.317384 11.306648 -26.372492
v 7.395318 14.801935 -26.662353
v 12.344515 14.924145 -27.318631
v 8.633806 16.392467 -31.268673
v 12.344515 14.924145 -27.318631
v 7.395318 14.801935 -26.662353
v 8.633806 9.861770 -31.268673
v 1.846648 11.211517 -28.493995
v 7.317384 11.306648 -26.372492
v 7.317384 11.306648 -26.372492
v 1.846648 11.211517 -28.493995
v 3.531599 14.824964 -29.182825
v 7.395318 14.801935 -26.662353
v 8.633806 16.392467 -31.268673
v 7.395318 14.801935 -26.662353
v 3.531599 14.824964 -29.182825
v 8.633806 9.861770 -31.268673
v 3.140506 11.474634 -33.514404
v 1.846648 11.211517 -28.493995
v 1.846648 11.211517 -28.493995
v 3.140506 11.474634 -33.514404
v 2.892701 14.745532 -33.615710
v 3.531599 14.824964 -29.182825
v 8.633806 16.392467 -31.268673
v 3.531599 14.824964 -29.182825
v 2.892701 14.745532 -33.615710
v 8.633806 9.861770 -31.268673
v 7.262833 11.729889 -36.367747
v 3.140506 11.474634 -33.514404
v 3.140506 11.474634 -33.514404
v 7.262833 11.729889 -36.367747
v 6.980632 14.940669 -37.417341
v 2.892701 14.745532 -33.615710
v 8.633806 16.392467 -31.268673
v 2.892701 14.745532 -33.615710
v 6.980632 14.940669 -37.417341
v 8.633806 9.861770 -31.268673
v 12.469579 11.362608 -35.351845
v 7.262833 11.729889 -36.367747
v 7.262833 11.729889 -36.367747
v 12.469579 11.362608 -35.351845
v 12.747852 14.862370 -35.648065
v 6.980632 14.940669 -37.417341
v 8.633806 16.392467 -31.268673
v 6.980632 14.940669 -37.417341
v 12.747852 14.862370 -35.648065
v 8.633806 9.861770 -31.268673
v 15.608368 11.511851 -31.268673
v 12.469579 11.362608 -35.351845
v 12.469579 11.362608 -35.351845
v 15.608368 11.511851 -31.268673
v 16.084986 14.665984 -31.268673
v 12.747852 14.862370 -35.648065
v 8.633806 16.392467 -31.268673
v 12.747852 14.862370 -35.648065
v 16.084986 14.665984 -31.268673
v 26.818461 14.846212 -12.700567
v 30.359081 16.680057 -8.924923
v 33.407922 16.846041 -12.700567
v 33.407922 16.846041 -12.700567
v 30.359081 16.680057 -8.924923
v 30.909064 20.484919 -8.338433
v 32.811036 20.473974 -12.700567
v 26.818461 22.237390 -12.700567
v 32.811036 20.473974 -12.700567
v 30.909064 20.484919 -8.338433
v 26.818461 14.846212 -12.700567
v 25.199088 17.016954 -6.666968
v 30.359081 16.680057 -8.924923
v 30.359081 16.680057 -8.924923
v 25.199088 17.016954 -6.666968
v 25.174243 20.618307 -6.574400
v 30.909064 20.484919 -8.338433
v 26.818461 22.237390 -12.700567
v 30.909064 20.484919 -8.338433
v 25.174243 20.618307 -6.574400
v 26.818461 14.846212 -12.700567
v 21.919542 16.477743 -10.694286
v 25.199088 17.016954 -6.666968
v 25.199088 17.016954 -6.666968
v 21.919542 16.477743 -10.694286
v 21.401108 20.534772 -10.481969
v 25.174243 20.618307 -6.574400
v 26.818461 22.237390 -12.700567
v 25.174243 20.618307 -6.574400
v 21.401108 20.534772 -10.481969
v 26.818461 14.846212 -12.700567
v 20.601645 16.854210 -15.246574
v 21.919542 16.477743 -10.694286
v 21.919542 16.477743 -10.694286
v 20.601645 16.854210 -15.246574
v 20.717974 20.306693 -15.198933
v 21.401108 20.534772 -10.481969
v 26.818461 22.237390 -12.700567
v 21.401108 20.534772 -10.481969
v 20.717974 20.306693 -15.198933
v 26.818461 14.846212 -12.700567
v 25.192142 16.534529 -18.760044
v 20.601645 16.854210 -15.246574
v 20.601645 16.854210 -15.246574
v 25.192142 16.534529 -18.760044
v 25.494183 20.305403 -17.634676
v 20.717974 20.306693 -15.198933
v 26.818461 22.237390 -12.700567
v 20.717974 20.306693 -15.198933
v 25.494183 20.305403 -17.634676
v 26.818461 14.846212 -12.700567
v 31.049124 16.962077 -17.212059
v 25.192142 16.534529 -18.760044
v 25.192142 16.534529 -18.760044
v 31.049124 16.962077 -17.212059
v 31.073259 20.259376 -17.237796
v 25.494183 20.305403 -17.634676
v 26.818461 22.237390 -12.700567
v 25.494183 20.305403 -17.634676
v 31.073259 20.259376 -17.237796
v 26.818461 14.846212 -12.700567
v 33.407922 16.846041 -12.700567
v 31.049124 16.962077 -17.212059
v 31.049124 16.962077 -17.212059
v 33.407922 16.846041 -12.700567
v 32.811036 20.473974 -12.700567
v 31.073259 20.259376 -17.237796
v 26.818461 22.237390 -12.700567
v 31.073259 20.259376 -17.237796
v 32.811036 20.473974 -12.700567
v -31.586592 28.411678 24.686701
v -31.806421 25.986901 23.303902
v 33.370256 26.618265 13.252792
v 33.480171 27.830654 13.944191
v -31.983947 28.411678 21.915039
v -31.806421 25.986901 23.303902
v -31.586592 28.411678 24.686701
v 33.281493 27.830654 12.558360
v 33.480171 27.830654 13.944191
v 33.370256 26.618265 13.252792
v -31.806421 25.986901 23.303902
v -32.203776 25.986901 20.532241
v 33.171579 26.618265 11.866961
v 33.370256 26.618265 13.252792
v -31.983947 28.411678 21.915039
v -32.203776 25.986901 20.532241
v -31.806421 25.986901 23.303902
v 33.281493 27.830654 12.558360
v 33.370256 26.618265 13.252792
v 33.171579 26.618265 11.866961
v -32.203776 25.986901 20.532241
v -32.381302 28.411678 19.143377
v 33.082816 27.830654 11.172529
v 33.171579 26.618265 11.866961
v -31.983947 28.411678 21.915039
v -32.381302 28.411678 19.143377
v -32.203776 25.986901 20.532241
v 33.281493 27.830654 12.558360
v 33.171579 26.618265 11.866961
v 33.082816 27.830654 11.172529
v -32.381302 28.411678 19.143377
v -32.161473 30.836455 20.526176
v 33.192731 29.043042 11.863928
v 33.082816 27.830654 11.172529
v -31.983947 28.411678 21.915039
v -32.161473 30.836455 20.526176
v -32.381302 28.411678 19.143377
v 33.281493 27.830654 12.558360
v 33.082816 27.830654 11.172529
v 33.192731 29.043042 11.863928
v -32.161473 30.836455 20.526176
v -31.764118 30.836455 23.297838
v 33.391408 29.043042 13.249759
v 33.192731 29.043042 11.863928
v -31.983947 28.411678 21.915039
v -31.764118 30.836455 23.297838
v -32.161473 30.836455 20.526176
v 33.281493 27.830654 12.558360
v 33.192731 29.043042 11.863928
v 33.391408 29.043042 13.249759
v -31.764118 30.836455 23.297838
v -31.586592 28.411678 24.686701
v 33.480171 27.830654 13.944191
v 33.391408 29.043042 13.249759
v -31.983947 28.411678 21.915039
v -31.586592 28.411678 24.686701
v -31.764118 30.836455 23.297838
v 33.281493 27.830654 12.558360
v 33.391408 29.043042 13.249759
v 33.480171 27.830654 13.944191
v -18.943224 25.657269 19.882276
v -18.930854 23.245747 18.459459
v 19.410672 20.366471 25.050403
v 19.404487 21.572232 25.761811
v -18.419284 25.657269 17.131733
v -18.930854 23.245747 18.459459
v -18.943224 25.657269 19.882276
v 19.666457 21.572232 24.386540
v 19.404487 21.572232 25.761811
v 19.410672 20.366471 25.050403
v -18.930854 23.245747 18.459459
v -18.406914 23.245747 15.708916
v 19.672642 20.366471 23.675131
v 19.410672 20.366471 25.050403
v -18.419284 25.657269 17.131733
v -18.406914 23.245747 15.708916
v -18.930854 23.245747 18.459459
v 19.666457 21.572232 24.386540
v 19.410672 20.366471 25.050403
v 19.672642 20.366471 23.675131
v -18.406914 23.245747 15.708916
v -17.895343 25.657269 14.381190
v 19.928427 21.572232 23.011268
v 19.672642 20.366471 23.675131
v -18.419284 25.657269 17.131733
v -17.895343 25.657269 14.381190
v -18.406914 23.245747 15.708916
v 19.666457 21.572232 24.386540
v 19.672642 20.366471 23.675131
v 19.928427 21.572232 23.011268
v -17.895343 25.657269 14.381190
v -17.907713 28.068792 15.804007
v 19.922242 22.777993 23.722677
v 19.928427 21.572232 23.011268
v -18.419284 25.657269 17.131733
v -17.907713 28.068792 15.804007
v -17.895343 25.657269 14.381190
v 19.666457 21.572232 24.386540
v 19.928427 21.572232 23.011268
v 19.922242 22.777993 23.722677
v -17.907713 28.068792 15.804007
v -18.431653 28.068792 18.554550
v 19.660272 22.777993 25.097948
v 19.922242 22.777993 23.722677
v -18.419284 25.657269 17.131733
v -18.431653 28.068792 18.554550
v -17.907713 28.068792 15.804007
v 19.666457 21.572232 24.386540
v 19.922242 22.777993 23.722677
v 19.660272 22.777993 25.097948
v -18.431653 28.068792 18.554550
v -18.943224 25.657269 19.882276
v 19.404487 21.572232 25.761811
v 19.660272 22.777993 25.097948
v -18.419284 25.657269 17.131733
v -18.943224 25.657269 19.882276
v -18.431653 28.068792 18.554550
v 19.666457 21.572232 24.386540
v 19.660272 22.777993 25.097948
v 19.404487 21.572232 25.761811
v -22.102165 35.252738 2.471827
v -21.924170 32.827905 1.083124
v 20.924648 34.279151 5.452559
v 20.835650 35.491568 6.146911
v -21.772879 35.252738 -0.308743
v -21.924170 32.827905 1.083124
v -22.102165 35.252738 2.471827
v 21.000293 35.491568 4.756626
v 20.835650 35.491568 6.146911
v 20.924648 34.279151 5.452559
v -21.924170 32.827905 1.083124
v -21.594883 32.827905 -1.697447
v 21.089291 34.279151 4.062274
v 20.924648 34.279151 5.452559
v -21.772879 35.252738 -0.308743
v -21.594883 32.827905 -1.697447
v -21.924170 32.827905 1.083124
v 21.000293 35.491568 4.756626
v 20.924648 34.279151 5.452559
v 21.089291 34.279151 4.062274
v -21.594883 32.827905 -1.697447
v -21.443593 35.252738 -3.089313
v 21.164936 35.491568 3.366341
v 21.089291 34.279151 4.062274
v -21.772879 35.252738 -0.308743
v -21.443593 35.252738 -3.089313
v -21.594883 32.827905 -1.697447
v 21.000293 35.491568 4.756626
v 21.089291 34.279151 4.062274
v 21.164936 35.491568 3.366341
v -21.443593 35.252738 -3.089313
v -21.621588 37.677572 -1.700609
v 21.075939 36.703985 4.060693
v 21.164936 35.491568 3.366341
v -21.772879 35.252738 -0.308743
v -21.621588 37.677572 -1.700609
v -21.443593 35.252738 -3.089313
v 21.000293 35.491568 4.756626
v 21.164936 35.491568 3.366341
v 21.075939 36.703985 4.060693
v -21.621588 37.677572 -1.700609
v -21.950874 37.677572 1.079961
v 20.911296 36.703985 5.450978
v 21.075939 36.703985 4.060693
v -21.772879 35.252738 -0.308743
v -21.950874 37.677572 1.079961
v -21.621588 37.677572 -1.700609
v 21.000293 35.491568 4.756626
v 21.075939 36.703985 4.060693
v 20.911296 36.703985 5.450978
v -21.950874 37.677572 1.079961
v -22.102165 35.252738 2.471827
v 20.835650 35.491568 6.146911
v 20.911296 36.703985 5.450978
v -21.772879 35.252738 -0.308743
v -22.102165 35.252738 2.471827
v -21.950874 37.677572 1.079961
v 21.000293 35.491568 4.756626
v 20.911296 36.703985 5.450978
v 20.835650 35.491568 6.146911
vt 0.500000 1.000000
vt 0.000000 0.000000
vt 1.000000 0.000000
vt 0.000000 0.000000
vt 1.000000 0.000000
vt 1.000000 1.000000
vt 0.000000 1.000000
vt 0.000000 0.000000
vt 1.000000 0.000000
vt 1.000000 1.000000
vt 0.000000 1.000000
vt 0.500000 1.000000
vt 0.000000 0.000000
vt 1.000000 0.000000
vt 0.500000 1.000000
vt 0.000000 0.000000
vt 1.000000 0.000000
vt 0.000000 0.000000
vt 1.000000 0.000000
vt 1.000000 1.000000
vt 0.000000 1.000000
vt 0.000000 0.000000
vt 1.000000 0.000000
vt 1.000000 1.000000
vt 0.000000 1.000000
vt 0.500000 1.000000
vt 0.000000 0.000000
vt 1.000000 0.000000
vt 0.500000 1.000000
vt 0.000000 0.000000
vt 1.000000 0.000000
vt 0.000000 0.000000
vt 1.000000 0.000000
vt 1.000000 1.000000
vt 0.000000 1.000000
vt 0.000000 0.000000
vt 1.000000 0.000000
vt 1.000000 1.000000
vt 0.000000 1.000000
vt 0.500000 1.000000
vt 0.000000 0.000000
vt 1.000000 0.000000
vt 0.500000 1.000000
vt 0.000000 0.000000
vt 1.000000 0.000000
vt 0.000000 0.000000
vt 1.000000 0.000000
vt 1.000000 1.000000
vt 0.000000 1.000000
vt 0.000000 0.000000
vt 1.000000 0.000000
vt 1.000000 1.000000
vt 0.000000 1.000000
vt 0.500000 1.000000
vt 0.000000 0.000000
vt 1.000000 0.000000
vt 0.500000 1.000000
vt 0.000000 0.000000
vt 1.000000 0.000000
vt 0.000000 0.000000
vt 1.000000 0.000000
vt 1.000000 1.000000
vt 0.000000 1.000000
vt 0.000000 0.000000
vt 1.000000 0.000000
vt 1.000000 1.000000
vt 0.000000 1.000000
vt 0.500000 1.000000
vt 0.000000 0.000000
vt 1.000000 0.000000
vt 0.500000 1.000000
vt 0.000000 0.000000
vt 1.000000 0.000000
vt 0.000000 0.000000
vt 1.000000 0.000000
vt 1.000000 1.000000
vt 0.000000 1.000000
vt 0.000000 0.000000
vt 1.000000 0.000000
vt 1.000000 1.000000
vt 0.000000 1.000000
vt 0.500000 1.000000
vt 0.000000 0.000000
vt 1.000000 0.000000
vt 0.500000 1.000000
vt 0.000000 0.000000
vt 1.000000 0.000000
vt 0.000000 0.000000
vt 1.000000 0.000000
vt 1.000000 1.000000
vt 0.000000 1.000000
vt 0.000000 0.000000
vt 1.000000 0.000000
vt 1.000000 1.000000
vt 0.000000 1.000000
vt 0.500000 1.000000
vt 0.000000 0.000000
vt 1.000000 0.000000
vt 0.500000 1.000000
vt 0.000000 0.000000
vt 1.000000 0.000000
vt 0.000000 0.000000
vt 1.000000 0.000000
vt 1.000000 1.000000
vt 0.000000 1.000000
vt 0.000000 0.000000
vt 1.000000 0.000000
vt 1.000000 1.000000
vt 0.000000 1.000000
vt 0.500000 1.000000
vt 0.000000 0.000000
vt 1.000000 0.000000
vt 0.500000 1.000000
vt 0.000000 0.000000
vt 1.000000 0.000000
vt 0.000000 0.000000
vt 1.000000 0.000000
vt 1.000000 1.000000
vt 0.000000 1.000000
vt 0.000000 0.000000
vt 1.000000 0.000000
vt 1.000000 1.000000
vt 0.000000 1.000000
vt 0.500000 1.000000
vt 0.000000 0.000000
vt 1.000000 0.000000
vt 0.500000 1.000000
vt 0.000000 0.000000
vt 1.000000 0.000000
vt 0.000000 0.000000
vt 1.000000 0.000000
vt 1.000000 1.000000
vt 0.000000 1.000000
vt 0.000000 0.000000
vt 1.000000 0.000000
vt 1.000000 1.000000
vt 0.000000 1.000000
vt 0.500000 1.000000
vt 0.000000 0.000000
vt 1.000000 0.000000
vt 0.500000 1.000000
vt 0.000000 0.000000
vt 1.000000 0.000000
vt 0.000000 0.000000
vt 1.000000 0.000000
vt 1.000000 1.000000
vt 0.000000 1.000000
vt 0.500000 1.000000
vt 0.000000 0.000000
vt 1.000000 0.000000
vt 0.500000 1.000000
vt 0.000000 0.000000
vt 1.000000 0.000000
vt 0.000000 0.000000
vt 1.000000 0.000000
vt 1.000000 1.000000
vt 0.000000 1.000000
vt 0.500000 1.000000
vt 0.000000 0.000000
vt 1.000000 0.000000
vt 0.500000 1.000000
vt 0.000000 0.000000
vt 1.000000 0.000000
vt 0.000000 0.000000
vt 1.000000 0.000000
vt 1.000000 1.000000
vt 0.000000 1.000000
vt 0.500000 1.000000
vt 0.000000 0.000000
vt 1.000000 0.000000
vt 0.500000 1.000000
vt 0.000000 0.000000
vt 1.000000 0.000000
vt 0.000000 0.000000
vt 1.000000 0.000000
vt 1.000000 1.000000
vt 0.000000 1.000000
vt 0.500000 1.000000
vt 0.000000 0.000000
vt 1.000000 0.000000
vt 0.500000 1.000000
vt 0.000000 0.000000
vt 1.000000 0.000000
vt 0.000000 0.000000
vt 1.000000 0.000000
vt 1.000000 1.000000
vt 0.000000 1.000000
vt 0.500000 1.000000
vt 0.000000 0.000000
vt 1.000000 0.000000
vt 0.500000 1.000000
vt 0.000000 0.000000
vt 1.000000 0.000000
vt 0.000000 0.000000
vt 1.000000 0.000000
vt 1.000000 1.000000
vt 0.000000 1.000000
vt 0.500000 1.000000
vt 0.000000 0.000000
vt 1.000000 0.000000
vt 0.500000 1.000000
vt 0.000000 0.000000
vt 1.000000 0.000000
vt 0.000000 0.000000
vt 1.000000 0.000000
vt 1.000000 1.000000
vt 0.000000 1.000000
vt 0.500000 1.000000
vt 0.000000 0.000000
vt 1.000000 0.000000
vt 0.500000 1.000000
vt 0.000000 0.000000
vt 1.000000 0.000000
vt 0.000000 0.000000
vt 1.000000 0.000000
vt 1.000000 1.000000
vt 0.000000 1.000000
vt 0.500000 1.000000
vt 0.000000 0.000000
vt 1.000000 0.000000
vt 0.500000 1.000000
vt 0.000000 0.000000
vt 1.000000 0.000000
vt 0.000000 0.000000
vt 1.000000 0.000000
vt 1.000000 1.000000
vt 0.000000 1.000000
vt 0.500000 1.000000
vt 0.000000 0.000000
vt 1.000000 0.000000
vt 0.500000 1.000000
vt 0.000000 0.000000
vt 1.000000 0.000000
vt 0.000000 0.000000
vt 1.000000 0.000000
vt 1.000000 1.000000
vt 0.000000 1.000000
vt 0.500000 1.000000
vt 0.000000 0.000000
vt 1.000000 0.000000
vt 0.500000 1.000000
vt 0.000000 0.000000
vt 1.000000 0.000000
vt 0.000000 0.000000
vt 1.000000 0.000000
vt 1.000000 1.000000
vt 0.000000 1.000000
vt 0.500000 1.000000
vt 0.000000 0.000000
vt 1.000000 0.000000
vt 0.500000 1.000000
vt 0.000000 0.000000
vt 1.000000 0.000000
vt 0.000000 0.000000
vt 1.000000 0.000000
vt 1.000000 1.000000
vt 0.000000 1.000000
vt 0.500000 1.000000
vt 0.000000 0.000000
vt 1.000000 0.000000
vt 0.500000 1.000000
vt 0.000000 0.000000
vt 1.000000 0.000000
vt 0.000000 0.000000
vt 1.000000 0.000000
vt 1.000000 1.000000
vt 0.000000 1.000000
vt 0.500000 1.000000
vt 0.000000 0.000000
vt 1.000000 0.000000
vt 0.500000 1.000000
vt 0.000000 0.000000
vt 1.000000 0.000000
vt 0.000000 0.000000
vt 1.000000 0.000000
vt 1.000000 1.000000
vt 0.000000 1.000000
vt 0.500000 1.000000
vt 0.000000 0.000000
vt 1.000000 0.000000
vt 0.500000 1.000000
vt 0.000000 0.000000
vt 1.000000 0.000000
vt 0.000000 0.000000
vt 1.000000 0.000000
vt 1.000000 1.000000
vt 0.000000 1.000000
vt 0.500000 1.000000
vt 0.000000 0.000000
vt 1.000000 0.000000
vt 0.500000 1.000000
vt 0.000000 0.000000
vt 1.000000 0.000000
vt 0.000000 0.000000
vt 1.000000 0.000000
vt 1.000000 1.000000
vt 0.000000 1.000000
vt 0.500000 1.000000
vt 0.000000 0.000000
vt 1.000000 0.000000
vt 0.500000 1.000000
vt 0.000000 0.000000
vt 1.000000 0.000000
vt 0.000000 0.000000
vt 1.000000 0.000000
vt 1.000000 1.000000
vt 0.000000 1.000000
vt 0.500000 1.000000
vt 0.000000 0.000000
vt 1.000000 0.000000
vt 0.500000 1.000000
vt 0.000000 0.000000
vt 1.000000 0.000000
vt 0.000000 0.000000
vt 1.000000 0.000000
vt 1.000000 1.000000
vt 0.000000 1.000000
vt 0.500000 1.000000
vt 0.000000 0.000000
vt 1.000000 0.000000
vt 0.500000 1.000000
vt 0.000000 0.000000
vt 1.000000 0.000000
vt 0.000000 0.000000
vt 1.000000 0.000000
vt 1.000000 1.000000
vt 0.000000 1.000000
vt 0.500000 1.000000
vt 0.000000 0.000000
vt 1.000000 0.000000
vt 0.500000 1.000000
vt 0.000000 0.000000
vt 1.000000 0.000000
vt 0.000000 0.000000
vt 1.000000 0.000000
vt 1.000000 1.000000
vt 0.000000 1.000000
vt 0.500000 1.000000
vt 0.000000 0.000000
vt 1.000000 0.000000
vt 0.500000 1.000000
vt 0.000000 0.000000
vt 1.000000 0.000000
vt 0.000000 0.000000
vt 1.000000 0.000000
vt 1.000000 1.000000
vt 0.000000 1.000000
vt 0.500000 1.000000
vt 0.000000 0.000000
vt 1.000000 0.000000
vt 0.500000 1.000000
vt 0.000000 0.000000
vt 1.000000 0.000000
vt 0.000000 0.000000
vt 1.000000 0.000000
vt 1.000000 1.000000
vt 0.000000 1.000000
vt 0.500000 1.000000
vt 0.000000 0.000000
vt 1.000000 0.000000
vt 0.500000 1.000000
vt 0.000000 0.000000
vt 1.000000 0.000000
vt 0.000000 0.000000
vt 1.000000 0.000000
vt 1.000000 1.000000
vt 0.000000 1.000000
vt 0.500000 1.000000
vt 0.000000 0.000000
vt 1.000000 0.000000
vt 0.500000 1.000000
vt 0.000000 0.000000
vt 1.000000 0.000000
vt 0.000000 0.000000
vt 1.000000 0.000000
vt 1.000000 1.000000
vt 0.000000 1.000000
vt 0.500000 1.000000
vt 0.000000 0.000000
vt 1.000000 0.000000
vt 0.500000 1.000000
vt 0.000000 0.000000
vt 1.000000 0.000000
vt 0.000000 0.000000
vt 1.000000 0.000000
vt 1.000000 1.000000
vt 0.000000 1.000000
vt 0.500000 1.000000
vt 0.000000 0.000000
vt 1.000000 0.000000
vt 0.500000 1.000000
vt 0.000000 0.000000
vt 1.000000 0.000000
vt 0.000000 0.000000
vt 1.000000 0.000000
vt 1.000000 1.000000
vt 0.000000 1.000000
vt 0.500000 1.000000
vt 0.000000 0.000000
vt 1.000000 0.000000
vt 0.500000 1.000000
vt 0.000000 0.000000
vt 1.000000 0.000000
vt 0.000000 0.000000
vt 1.000000 0.000000
vt 1.000000 1.000000
vt 0.000000 1.000000
vt 0.500000 1.000000
vt 0.000000 0.000000
vt 1.000000 0.000000
vt 0.500000 1.000000
vt 0.000000 0.000000
vt 1.000000 0.000000
vt 0.000000 0.000000
vt 1.000000 0.000000
vt 1.000000 1.000000
vt 0.000000 1.000000
vt 0.500000 1.000000
vt 0.000000 0.000000
vt 1.000000 0.000000
vt 0.500000 1.000000
vt 0.000000 0.000000
vt 1.000000 0.000000
vt 0.000000 0.000000
vt 1.000000 0.000000
vt 1.000000 1.000000
vt 0.000000 1.000000
vt 0.500000 1.000000
vt 0.000000 0.000000
vt 1.000000 0.000000
vt 0.500000 1.000000
vt 0.000000 0.000000
vt 1.000000 0.000000
vt 0.000000 0.000000
vt 1.000000 0.000000
vt 1.000000 1.000000
vt 0.000000 1.000000
vt 0.500000 1.000000
vt 0.000000 0.000000
vt 1.000000 0.000000
vt 0.500000 1.000000
vt 0.000000 0.000000
vt 1.000000 0.000000
vt 0.000000 0.000000
vt 1.000000 0.000000
vt 1.000000 1.000000
vt 0.000000 1.000000
vt 0.500000 1.000000
vt 0.000000 0.000000
vt 1.000000 0.000000
vt 0.500000 1.000000
vt 0.000000 0.000000
vt 1.000000 0.000000
vt 0.000000 0.000000
vt 1.000000 0.000000
vt 1.000000 1.000000
vt 0.000000 1.000000
vt 0.500000 1.000000
vt 0.000000 0.000000
vt 1.000000 0.000000
vt 0.500000 1.000000
vt 0.000000 0.000000
vt 1.000000 0.000000
vt 0.000000 0.000000
vt 1.000000 0.000000
vt 1.000000 1.000000
vt 0.000000 1.000000
vt 0.500000 1.000000
vt 0.000000 0.000000
vt 1.000000 0.000000
vt 0.500000 1.000000
vt 0.000000 0.000000
vt 1.000000 0.000000
vt 0.000000 0.000000
vt 1.000000 0.000000
vt 1.000000 1.000000
vt 0.000000 1.000000
vt 0.500000 1.000000
vt 0.000000 0.000000
vt 1.000000 0.000000
vt 0.500000 1.000000
vt 0.000000 0.000000
vt 1.000000 0.000000
vt 0.000000 0.000000
vt 1.000000 0.000000
vt 1.000000 1.000000
vt 0.000000 1.000000
vt 0.500000 1.000000
vt 0.000000 0.000000
vt 1.000000 0.000000
vt 0.500000 1.000000
vt 0.000000 0.000000
vt 1.000000 0.000000
vt 0.000000 0.000000
vt 1.000000 0.000000
vt 1.000000 1.000000
vt 0.000000 1.000000
vt 0.500000 1.000000
vt 0.000000 0.000000
vt 1.000000 0.000000
vt 0.500000 1.000000
vt 0.000000 0.000000
vt 1.000000 0.000000
vt 0.000000 0.000000
vt 1.000000 0.000000
vt 1.000000 1.000000
vt 0.000000 1.000000
vt 0.500000 1.000000
vt 0.000000 0.000000
vt 1.000000 0.000000
vt 0.500000 1.000000
vt 0.000000 0.000000
vt 1.000000 0.000000
vt 0.000000 0.000000
vt 1.000000 0.000000
vt 1.000000 1.000000
vt 0.000000 1.000000
vt 0.500000 1.000000
vt 0.000000 0.000000
vt 1.000000 0.000000
vt 0.500000 1.000000
vt 0.000000 0.000000
vt 1.000000 0.000000
vt 0.000000 0.000000
vt 1.000000 0.000000
vt 1.000000 1.000000
vt 0.000000 1.000000
vt 0.500000 1.000000
vt 0.000000 0.000000
vt 1.000000 0.000000
vt 0.500000 1.000000
vt 0.000000 0.000000
vt 1.000000 0.000000
vt 0.000000 0.000000
vt 1.000000 0.000000
vt 1.000000 1.000000
vt 0.000000 1.000000
vt 0.500000 1.000000
vt 0.000000 0.000000
vt 1.000000 0.000000
vt 0.500000 1.000000
vt 0.000000 0.000000
vt 1.000000 0.000000
vt 0.000000 0.000000
vt 1.000000 0.000000
vt 1.000000 1.000000
vt 0.000000 1.000000
vt 0.500000 1.000000
vt 0.000000 0.000000
vt 1.000000 0.000000
vt 0.500000 1.000000
vt 0.000000 0.000000
vt 1.000000 0.000000
vt 0.000000 0.000000
vt 1.000000 0.000000
vt 1.000000 1.000000
vt 0.000000 1.000000
vt 0.500000 1.000000
vt 0.000000 0.000000
vt 1.000000 0.000000
vt 0.500000 1.000000
vt 0.000000 0.000000
vt 1.000000 0.000000
vt 0.000000 0.000000
vt 1.000000 0.000000
vt 1.000000 1.000000
vt 0.000000 1.000000
vt 0.500000 1.000000
vt 0.000000 0.000000
vt 1.000000 0.000000
vt 0.500000 1.000000
vt 0.000000 0.000000
vt 1.000000 0.000000
vt 0.000000 0.000000
vt 1.000000 0.000000
vt 1.000000 1.000000
vt 0.000000 1.000000
vt 0.500000 1.000000
vt 0.000000 0.000000
vt 1.000000 0.000000
vt 0.500000 1.000000
vt 0.000000 0.000000
vt 1.000000 0.000000
vt 0.000000 0.000000
vt 1.000000 0.000000
vt 1.000000 1.000000
vt 0.000000 1.000000
vt 0.500000 1.000000
vt 0.000000 0.000000
vt 1.000000 0.000000
vt 0.500000 1.000000
vt 0.000000 0.000000
vt 1.000000 0.000000
vt 0.000000 0.000000
vt 1.000000 0.000000
vt 1.000000 1.000000
vt 0.000000 1.000000
vt 0.500000 1.000000
vt 0.000000 0.000000
vt 1.000000 0.000000
vt 0.500000 1.000000
vt 0.000000 0.000000
vt 1.000000 0.000000
vt 0.000000 0.000000
vt 1.000000 0.000000
vt 1.000000 1.000000
vt 0.000000 1.000000
vt 0.500000 1.000000
vt 0.000000 0.000000
vt 1.000000 0.000000
vt 0.500000 1.000000
vt 0.000000 0.000000
vt 1.000000 0.000000
vt 0.000000 0.000000
vt 1.000000 0.000000
vt 1.000000 1.000000
vt 0.000000 1.000000
vt 0.500000 1.000000
vt 0.000000 0.000000
vt 1.000000 0.000000
vt 0.500000 1.000000
vt 0.000000 0.000000
vt 1.000000 0.000000
vt 0.000000 0.000000
vt 1.000000 0.000000
vt 1.000000 1.000000
vt 0.000000 1.000000
vt 0.500000 1.000000
vt 0.000000 0.000000
vt 1.000000 0.000000
vt 0.500000 1.000000
vt 0.000000 0.000000
vt 1.000000 0.000000
vt 0.000000 0.000000
vt 1.000000 0.000000
vt 1.000000 1.000000
vt 0.000000 1.000000
vt 0.500000 1.000000
vt 0.000000 0.000000
vt 1.000000 0.000000
vt 0.500000 1.000000
vt 0.000000 0.000000
vt 1.000000 0.000000
vt 0.000000 0.000000
vt 1.000000 0.000000
vt 1.000000 1.000000
vt 0.000000 1.000000
vt 0.500000 1.000000
vt 0.000000 0.000000
vt 1.000000 0.000000
vt 0.500000 1.000000
vt 0.000000 0.000000
vt 1.000000 0.000000
vt 0.000000 0.000000
vt 1.000000 0.000000
vt 1.000000 1.000000
vt 0.000000 1.000000
vt 0.500000 1.000000
vt 0.000000 0.000000
vt 1.000000 0.000000
vt 0.500000 1.000000
vt 0.000000 0.000000
vt 1.000000 0.000000
vt 0.000000 0.000000
vt 1.000000 0.000000
vt 1.000000 1.000000
vt 0.000000 1.000000
vt 0.500000 1.000000
vt 0.000000 0.000000
vt 1.000000 0.000000
vt 0.500000 1.000000
vt 0.000000 0.000000
vt 1.000000 0.000000
vt 0.000000 0.000000
vt 1.000000 0.000000
vt 1.000000 1.000000
vt 0.000000 1.000000
vt 0.500000 1.000000
vt 0.000000 0.000000
vt 1.000000 0.000000
vt 0.500000 1.000000
vt 0.000000 0.000000
vt 1.000000 0.000000
vt 0.000000 0.000000
vt 1.000000 0.000000
vt 1.000000 1.000000
vt 0.000000 1.000000
vt 0.500000 1.000000
vt 0.000000 0.000000
vt 1.000000 0.000000
vt 0.500000 1.000000
vt 0.000000 0.000000
vt 1.000000 0.000000
vt 0.000000 0.000000
vt 1.000000 0.000000
vt 1.000000 1.000000
vt 0.000000 1.000000
vt 0.500000 1.000000
vt 0.000000 0.000000
vt 1.000000 0.000000
vt 0.500000 1.000000
vt 0.000000 0.000000
vt 1.000000 0.000000
vt 0.000000 0.000000
vt 1.000000 0.000000
vt 1.000000 1.000000
vt 0.000000 1.000000
vt 0.500000 1.000000
vt 0.000000 0.000000
vt 1.000000 0.000000
vt 0.500000 1.000000
vt 0.000000 0.000000
vt 1.000000 0.000000
vt 0.000000 0.000000
vt 1.000000 0.000000
vt 1.000000 1.000000
vt 0.000000 1.000000
vt 0.500000 1.000000
vt 0.000000 0.000000
vt 1.000000 0.000000
vt 0.500000 1.000000
vt 0.000000 0.000000
vt 1.000000 0.000000
vt 0.000000 0.000000
vt 1.000000 0.000000
vt 1.000000 1.000000
vt 0.000000 1.000000
vt 0.500000 1.000000
vt 0.000000 0.000000
vt 1.000000 0.000000
vt 0.500000 1.000000
vt 0.000000 0.000000
vt 1.000000 0.000000
vt 0.000000 0.000000
vt 1.000000 0.000000
vt 1.000000 1.000000
vt 0.000000 1.000000
vt 0.500000 1.000000
vt 0.000000 0.000000
vt 1.000000 0.000000
vt 0.500000 1.000000
vt 0.000000 0.000000
vt 1.000000 0.000000
vt 0.000000 0.000000
vt 1.000000 0.000000
vt 1.000000 1.000000
vt 0.000000 1.000000
vt 0.500000 1.000000
vt 0.000000 0.000000
vt 1.000000 0.000000
vt 0.500000 1.000000
vt 0.000000 0.000000
vt 1.000000 0.000000
vt 0.000000 0.000000
vt 1.000000 0.000000
vt 1.000000 1.000000
vt 0.000000 1.000000
vt 0.500000 1.000000
vt 0.000000 0.000000
vt 1.000000 0.000000
vt 0.500000 1.000000
vt 0.000000 0.000000
vt 1.000000 0.000000
vt 0.000000 0.000000
vt 1.000000 0.000000
vt 1.000000 1.000000
vt 0.000000 1.000000
vt 0.500000 1.000000
vt 0.000000 0.000000
vt 1.000000 0.000000
vt 0.000000 0.000000
vt 1.000000 0.000000
vt 1.000000 1.000000
vt 0.000000 1.000000
vt 0.500000 1.000000
vt 0.000000 0.000000
vt 1.000000 0.000000
vt 0.500000 1.000000
vt 0.000000 0.000000
vt 1.000000 0.000000
vt 0.000000 0.000000
vt 1.000000 0.000000
vt 1.000000 1.000000
vt 0.000000 1.000000
vt 0.500000 1.000000
vt 0.000000 0.000000
vt 1.000000 0.000000
vt 0.500000 1.000000
vt 0.000000 0.000000
vt 1.000000 0.000000
vt 0.000000 0.000000
vt 1.000000 0.000000
vt 1.000000 1.000000
vt 0.000000 1.000000
vt 0.500000 1.000000
vt 0.000000 0.000000
vt 1.000000 0.000000
vt 0.500000 1.000000
vt 0.000000 0.000000
vt 1.000000 0.000000
vt 0.000000 0.000000
vt 1.000000 0.000000
vt 1.000000 1.000000
vt 0.000000 1.000000
vt 0.500000 1.000000
vt 0.000000 0.000000
vt 1.000000 0.000000
vt 0.500000 1.000000
vt 0.000000 0.000000
vt 1.000000 0.000000
vt 0.000000 0.000000
vt 1.000000 0.000000
vt 1.000000 1.000000
vt 0.000000 1.000000
vt 0.500000 1.000000
vt 0.000000 0.000000
vt 1.000000 0.000000
vt 0.500000 1.000000
vt 0.000000 0.000000
vt 1.000000 0.000000
vt 0.000000 0.000000
vt 1.000000 0.000000
vt 1.000000 1.000000
vt 0.000000 1.000000
vt 0.500000 1.000000
vt 0.000000 0.000000
vt 1.000000 0.000000
vt 0.500000 1.000000
vt 0.000000 0.000000
vt 1.000000 0.000000
vt 0.000000 0.000000
vt 1.000000 0.000000
vt 1.000000 1.000000
vt 0.000000 1.000000
vt 0.500000 1.000000
vt 0.000000 0.000000
vt 1.000000 0.000000
vt 0.500000 1.000000
vt 0.000000 0.000000
vt 1.000000 0.000000
vt 0.000000 0.000000
vt 1.000000 0.000000
vt 1.000000 1.000000
vt 0.000000 1.000000
vt 0.500000 1.000000
vt 0.000000 0.000000
vt 1.000000 0.000000
vt 0.500000 1.000000
vt 0.000000 0.000000
vt 1.000000 0.000000
vt 0.000000 0.000000
vt 1.000000 0.000000
vt 1.000000 1.000000
vt 0.000000 1.000000
vt 0.500000 1.000000
vt 0.000000 0.000000
vt 1.000000 0.000000
vt 0.500000 1.000000
vt 0.000000 0.000000
vt 1.000000 0.000000
vt 0.000000 0.000000
vt 1.000000 0.000000
vt 1.000000 1.000000
vt 0.000000 1.000000
vt 0.500000 1.000000
vt 0.000000 0.000000
vt 1.000000 0.000000
vt 0.500000 1.000000
vt 0.000000 0.000000
vt 1.000000 0.000000
vt 0.000000 0.000000
vt 1.000000 0.000000
vt 1.000000 1.000000
vt 0.000000 1.000000
vt 0.500000 1.000000
vt 0.000000 0.000000
vt 1.000000 0.000000
vt 0.500000 1.000000
vt 0.000000 0.000000
vt 1.000000 0.000000
vt 0.000000 0.000000
vt 1.000000 0.000000
vt 1.000000 1.000000
vt 0.000000 1.000000
vt 0.500000 1.000000
vt 0.000000 0.000000
vt 1.000000 0.000000
vt 0.500000 1.000000
vt 0.000000 0.000000
vt 1.000000 0.000000
vt 0.000000 0.000000
vt 1.000000 0.000000
vt 1.000000 1.000000
vt 0.000000 1.000000
vt 0.500000 1.000000
vt 0.000000 0.000000
vt 1.000000 0.000000
vt 0.500000 1.000000
vt 0.000000 0.000000
vt 1.000000 0.000000
vt 0.000000 0.000000
vt 1.000000 0.000000
vt 1.000000 1.000000
vt 0.000000 1.000000
vt 0.500000 1.000000
vt 0.000000 0.000000
vt 1.000000 0.000000
vt 0.500000 1.000000
vt 0.000000 0.000000
vt 1.000000 0.000000
vt 0.000000 0.000000
vt 1.000000 0.000000
vt 1.000000 1.000000
vt 0.000000 1.000000
vt 0.500000 1.000000
vt 0.000000 0.000000
vt 1.000000 0.000000
vt 0.500000 1.000000
vt 0.000000 0.000000
vt 1.000000 0.000000
vt 0.000000 0.000000
vt 1.000000 0.000000
vt 1.000000 1.000000
vt 0.000000 1.000000
vt 0.500000 1.000000
vt 0.000000 0.000000
vt 1.000000 0.000000
vt 0.500000 1.000000
vt 0.000000 0.000000
vt 1.000000 0.000000
vt 0.000000 0.000000
vt 1.000000 0.000000
vt 1.000000 1.000000
vt 0.000000 1.000000
vt 0.500000 1.000000
vt 0.000000 0.000000
vt 1.000000 0.000000
vt 0.500000 1.000000
vt 0.000000 0.000000
vt 1.000000 0.000000
vt 0.000000 0.000000
vt 1.000000 0.000000
vt 1.000000 1.000000
vt 0.000000 1.000000
vt 0.500000 1.000000
vt 0.000000 0.000000
vt 1.000000 0.000000
vt 0.500000 1.000000
vt 0.000000 0.000000
vt 1.000000 0.000000
s 1
usemtl models/caelum/world/environment/rock_granite.png
f 1/1 2/2 3/3
f 4/4 5/5 6/6 7/7
f 8/8 9/9 10/10 11/11
f 12/12 13/13 14/14
f 15/15 16/16 17/17
f 18/18 19/19 20/20 21/21
f 22/22 23/23 24/24 25/25
f 26/26 27/27 28/28
f 29/29 30/30 31/31
f 32/32 33/33 34/34 35/35
f 36/36 37/37 38/38 39/39
f 40/40 41/41 42/42
f 43/43 44/44 45/45
f 46/46 47/47 48/48 49/49
f 50/50 51/51 52/52 53/53
f 54/54 55/55 56/56
f 57/57 58/58 59/59
f 60/60 61/61 62/62 63/63
f 64/64 65/65 66/66 67/67
f 68/68 69/69 70/70
f 71/71 72/72 73/73
f 74/74 75/75 76/76 77/77
f 78/78 79/79 80/80 81/81
f 82/82 83/83 84/84
f 85/85 86/86 87/87
f 88/88 89/89 90/90 91/91
f 92/92 93/93 94/94 95/95
f 96/96 97/97 98/98
f 99/99 100/100 101/101
f 102/102 103/103 104/104 105/105
f 106/106 107/107 108/108 109/109
f 110/110 111/111 112/112
f 113/113 114/114 115/115
f 116/116 117/117 118/118 119/119
f 120/120 121/121 122/122 123/123
f 124/124 125/125 126/126
f 127/127 128/128 129/129
f 130/130 131/131 132/132 133/133
f 134/134 135/135 136/136 137/137
f 138/138 139/139 140/140
usemtl models/caelum/world/resources/ca_vein_silver.png
f 141/141 142/142 143/143
f 144/144 145/145 146/146 147/147
f 148/148 149/149 150/150
f 151/151 152/152 153/153
f 154/154 155/155 156/156 157/157
f 158/158 159/159 160/160
f 161/161 162/162 163/163
f 164/164 165/165 166/166 167/167
f 168/168 169/169 170/170
f 171/171 172/172 173/173
f 174/174 175/175 176/176 177/177
f 178/178 179/179 180/180
f 181/181 182/182 183/183
f 184/184 185/185 186/186 187/187
f 188/188 189/189 190/190
f 191/191 192/192 193/193
f 194/194 195/195 196/196 197/197
f 198/198 199/199 200/200
f 201/201 202/202 203/203
f 204/204 205/205 206/206 207/207
f 208/208 209/209 210/210
f 211/211 212/212 213/213
f 214/214 215/215 216/216 217/217
f 218/218 219/219 220/220
f 221/221 222/222 223/223
f 224/224 225/225 226/226 227/227
f 228/228 229/229 230/230
f 231/231 232/232 233/233
f 234/234 235/235 236/236 237/237
f 238/238 239/239 240/240
f 241/241 242/242 243/243
f 244/244 245/245 246/246 247/247
f 248/248 249/249 250/250
f 251/251 252/252 253/253
f 254/254 255/255 256/256 257/257
f 258/258 259/259 260/260
f 261/261 262/262 263/263
f 264/264 265/265 266/266 267/267
f 268/268 269/269 270/270
f 271/271 272/272 273/273
f 274/274 275/275 276/276 277/277
f 278/278 279/279 280/280
f 281/281 282/282 283/283
f 284/284 285/285 286/286 287/287
f 288/288 289/289 290/290
f 291/291 292/292 293/293
f 294/294 295/295 296/296 297/297
f 298/298 299/299 300/300
f 301/301 302/302 303/303
f 304/304 305/305 306/306 307/307
f 308/308 309/309 310/310
f 311/311 312/312 313/313
f 314/314 315/315 316/316 317/317
f 318/318 319/319 320/320
f 321/321 322/322 323/323
f 324/324 325/325 326/326 327/327
f 328/328 329/329 330/330
f 331/331 332/332 333/333
f 334/334 335/335 336/336 337/337
f 338/338 339/339 340/340
f 341/341 342/342 343/343
f 344/344 345/345 346/346 347/347
f 348/348 349/349 350/350
f 351/351 352/352 353/353
f 354/354 355/355 356/356 357/357
f 358/358 359/359 360/360
f 361/361 362/362 363/363
f 364/364 365/365 366/366 367/367
f 368/368 369/369 370/370
f 371/371 372/372 373/373
f 374/374 375/375 376/376 377/377
f 378/378 379/379 380/380
f 381/381 382/382 383/383
f 384/384 385/385 386/386 387/387
f 388/388 389/389 390/390
f 391/391 392/392 393/393
f 394/394 395/395 396/396 397/397
f 398/398 399/399 400/400
f 401/401 402/402 403/403
f 404/404 405/405 406/406 407/407
f 408/408 409/409 410/410
f 411/411 412/412 413/413
f 414/414 415/415 416/416 417/417
f 418/418 419/419 420/420
f 421/421 422/422 423/423
f 424/424 425/425 426/426 427/427
f 428/428 429/429 430/430
f 431/431 432/432 433/433
f 434/434 435/435 436/436 437/437
f 438/438 439/439 440/440
f 441/441 442/442 443/443
f 444/444 445/445 446/446 447/447
f 448/448 449/449 450/450
f 451/451 452/452 453/453
f 454/454 455/455 456/456 457/457
f 458/458 459/459 460/460
f 461/461 462/462 463/463
f 464/464 465/465 466/466 467/467
f 468/468 469/469 470/470
f 471/471 472/472 473/473
f 474/474 475/475 476/476 477/477
f 478/478 479/479 480/480
f 481/481 482/482 483/483
f 484/484 485/485 486/486 487/487
f 488/488 489/489 490/490
f 491/491 492/492 493/493
f 494/494 495/495 496/496 497/497
f 498/498 499/499 500/500
f 501/501 502/502 503/503
f 504/504 505/505 506/506 507/507
f 508/508 509/509 510/510
f 511/511 512/512 513/513
f 514/514 515/515 516/516 517/517
f 518/518 519/519 520/520
f 521/521 522/522 523/523
f 524/524 525/525 526/526 527/527
f 528/528 529/529 530/530
f 531/531 532/532 533/533
f 534/534 535/535 536/536 537/537
f 538/538 539/539 540/540
f 541/541 542/542 543/543
f 544/544 545/545 546/546 547/547
f 548/548 549/549 550/550
f 551/551 552/552 553/553
f 554/554 555/555 556/556 557/557
f 558/558 559/559 560/560
f 561/561 562/562 563/563
f 564/564 565/565 566/566 567/567
f 568/568 569/569 570/570
f 571/571 572/572 573/573
f 574/574 575/575 576/576 577/577
f 578/578 579/579 580/580
f 581/581 582/582 583/583
f 584/584 585/585 586/586 587/587
f 588/588 589/589 590/590
f 591/591 592/592 593/593
f 594/594 595/595 596/596 597/597
f 598/598 599/599 600/600
f 601/601 602/602 603/603
f 604/604 605/605 606/606 607/607
f 608/608 609/609 610/610
f 611/611 612/612 613/613
f 614/614 615/615 616/616 617/617
f 618/618 619/619 620/620
f 621/621 622/622 623/623
f 624/624 625/625 626/626 627/627
f 628/628 629/629 630/630
f 631/631 632/632 633/633
f 634/634 635/635 636/636 637/637
f 638/638 639/639 640/640
f 641/641 642/642 643/643
f 644/644 645/645 646/646 647/647
f 648/648 649/649 650/650
f 651/651 652/652 653/653
f 654/654 655/655 656/656 657/657
f 658/658 659/659 660/660
f 661/661 662/662 663/663
f 664/664 665/665 666/666 667/667
f 668/668 669/669 670/670
f 671/671 672/672 673/673
f 674/674 675/675 676/676 677/677
f 678/678 679/679 680/680
f 681/681 682/682 683/683
f 684/684 685/685 686/686 687/687
f 688/688 689/689 690/690
f 691/691 692/692 693/693
f 694/694 695/695 696/696 697/697
f 698/698 699/699 700/700
f 701/701 702/702 703/703
f 704/704 705/705 706/706 707/707
f 708/708 709/709 710/710
f 711/711 712/712 713/713
f 714/714 715/715 716/716 717/717
f 718/718 719/719 720/720
f 721/721 722/722 723/723
f 724/724 725/725 726/726 727/727
f 728/728 729/729 730/730
f 731/731 732/732 733/733
f 734/734 735/735 736/736 737/737
f 738/738 739/739 740/740
f 741/741 742/742 743/743
f 744/744 745/745 746/746 747/747
f 748/748 749/749 750/750
f 751/751 752/752 753/753
f 754/754 755/755 756/756 757/757
f 758/758 759/759 760/760
f 761/761 762/762 763/763
f 764/764 765/765 766/766 767/767
f 768/768 769/769 770/770
f 771/771 772/772 773/773 774/774
f 775/775 776/776 777/777
f 778/778 779/779 780/780
f 781/781 782/782 783/783 784/784
f 785/785 786/786 787/787
f 788/788 789/789 790/790
f 791/791 792/792 793/793 794/794
f 795/795 796/796 797/797
f 798/798 799/799 800/800
f 801/801 802/802 803/803 804/804
f 805/805 806/806 807/807
f 808/808 809/809 810/810
f 811/811 812/812 813/813 814/814
f 815/815 816/816 817/817
f 818/818 819/819 820/820
f 821/821 822/822 823/823 824/824
f 825/825 826/826 827/827
f 828/828 829/829 830/830
f 831/831 832/832 833/833 834/834
f 835/835 836/836 837/837
f 838/838 839/839 840/840
f 841/841 842/842 843/843 844/844
f 845/845 846/846 847/847
f 848/848 849/849 850/850
f 851/851 852/852 853/853 854/854
f 855/855 856/856 857/857
f 858/858 859/859 860/860
f 861/861 862/862 863/863 864/864
f 865/865 866/866 867/867
f 868/868 869/869 870/870
f 871/871 872/872 873/873 874/874
f 875/875 876/876 877/877
f 878/878 879/879 880/880
f 881/881 882/882 883/883 884/884
f 885/885 886/886 887/887
f 888/888 889/889 890/890
f 891/891 892/892 893/893 894/894
f 895/895 896/896 897/897
f 898/898 899/899 900/900
f 901/901 902/902 903/903 904/904
f 905/905 906/906 907/907
f 908/908 909/909 910/910
f 911/911 912/912 913/913 914/914
f 915/915 916/916 917/917
f 918/918 919/919 920/920
f 921/921 922/922 923/923 924/924
f 925/925 926/926 927/927
f 928/928 929/929 930/930
f 931/931 932/932 933/933 934/934
f 935/935 936/936 937/937
f 938/938 939/939 940/940
f 941/941 942/942 943/943 944/944
f 945/945 946/946 947/947
f 948/948 949/949 950/950
