# Modelo original generado para Caelum Argenteum.
# Ejes OBJ: X ancho, Y altura, Z profundidad.
o ca_vein_iron
v 0.000000 0.000000 0.000000
v 30.456490 1.620984 0.000000
v 30.810224 0.688393 19.332446
v 30.456490 1.620984 0.000000
v 36.515862 15.244138 0.000000
v 34.991014 17.138515 21.955761
v 30.810224 0.688393 19.332446
v 36.515862 15.244138 0.000000
v 32.962809 36.723989 0.000000
v 30.744956 35.270703 19.291493
v 34.991014 17.138515 21.955761
v 8.920165 52.000000 -0.817737
v 30.744956 35.270703 19.291493
v 32.962809 36.723989 0.000000
v 0.000000 0.000000 0.000000
v 30.810224 0.688393 19.332446
v 9.836427 1.072641 26.145217
v 30.810224 0.688393 19.332446
v 34.991014 17.138515 21.955761
v 12.885578 18.240677 34.249858
v 9.836427 1.072641 26.145217
v 34.991014 17.138515 21.955761
v 30.744956 35.270703 19.291493
v 9.115986 34.847642 24.230286
v 12.885578 18.240677 34.249858
v 8.920165 52.000000 -0.817737
v 9.115986 34.847642 24.230286
v 30.744956 35.270703 19.291493
v 0.000000 0.000000 0.000000
v 9.836427 1.072641 26.145217
v -11.332375 1.319519 30.121446
v 9.836427 1.072641 26.145217
v 12.885578 18.240677 34.249858
v -12.478280 16.969407 33.167261
v -11.332375 1.319519 30.121446
v 12.885578 18.240677 34.249858
v 9.115986 34.847642 24.230286
v -11.336479 33.672485 30.132356
v -12.478280 16.969407 33.167261
v 8.920165 52.000000 -0.817737
v -11.336479 33.672485 30.132356
v 9.115986 34.847642 24.230286
v 0.000000 0.000000 0.000000
v -11.332375 1.319519 30.121446
v -33.227991 -0.581800 20.849520
v -11.332375 1.319519 30.121446
v -12.478280 16.969407 33.167261
v -34.097128 15.134109 21.394876
v -33.227991 -0.581800 20.849520
v -12.478280 16.969407 33.167261
v -11.336479 33.672485 30.132356
v -22.548242 34.280715 14.148312
v -34.097128 15.134109 21.394876
v 8.920165 52.000000 -0.817737
v -22.548242 34.280715 14.148312
v -11.336479 33.672485 30.132356
v 0.000000 0.000000 0.000000
v -33.227991 -0.581800 20.849520
v -35.274310 0.741574 0.000000
v -33.227991 -0.581800 20.849520
v -34.097128 15.134109 21.394876
v -36.130957 16.824702 0.000000
v -35.274310 0.741574 0.000000
v -34.097128 15.134109 21.394876
v -22.548242 34.280715 14.148312
v -36.976754 34.126058 0.000000
v -36.130957 16.824702 0.000000
v 8.920165 52.000000 -0.817737
v -36.976754 34.126058 0.000000
v -22.548242 34.280715 14.148312
v 0.000000 0.000000 0.000000
v -35.274310 0.741574 0.000000
v -32.515866 -0.403219 -20.402683
v -35.274310 0.741574 0.000000
v -36.130957 16.824702 0.000000
v -38.622821 16.310904 -24.234606
v -32.515866 -0.403219 -20.402683
v -36.130957 16.824702 0.000000
v -36.976754 34.126058 0.000000
v -24.867276 34.502715 -15.603434
v -38.622821 16.310904 -24.234606
v 8.920165 52.000000 -0.817737
v -24.867276 34.502715 -15.603434
v -36.976754 34.126058 0.000000
v 0.000000 0.000000 0.000000
v -32.515866 -0.403219 -20.402683
v -11.290004 -0.430824 -30.008824
v -32.515866 -0.403219 -20.402683
v -38.622821 16.310904 -24.234606
v -14.530267 16.526110 -38.621441
v -11.290004 -0.430824 -30.008824
v -38.622821 16.310904 -24.234606
v -24.867276 34.502715 -15.603434
v -11.865829 34.746277 -31.539368
v -14.530267 16.526110 -38.621441
v 8.920165 52.000000 -0.817737
v -11.865829 34.746277 -31.539368
v -24.867276 34.502715 -15.603434
v 0.000000 0.000000 0.000000
v -11.290004 -0.430824 -30.008824
v 10.110710 -0.546323 -26.874261
v -11.290004 -0.430824 -30.008824
v -14.530267 16.526110 -38.621441
v 12.914566 16.637408 -34.326909
v 10.110710 -0.546323 -26.874261
v -14.530267 16.526110 -38.621441
v -11.865829 34.746277 -31.539368
v 9.969909 33.811288 -26.500012
v 12.914566 16.637408 -34.326909
v 8.920165 52.000000 -0.817737
v 9.969909 33.811288 -26.500012
v -11.865829 34.746277 -31.539368
v 0.000000 0.000000 0.000000
v 10.110710 -0.546323 -26.874261
v 28.314641 -1.278052 -17.766547
v 10.110710 -0.546323 -26.874261
v 12.914566 16.637408 -34.326909
v 31.688537 16.841420 -19.883560
v 28.314641 -1.278052 -17.766547
v 12.914566 16.637408 -34.326909
v 9.969909 33.811288 -26.500012
v 30.323691 35.909804 -19.027162
v 31.688537 16.841420 -19.883560
v 8.920165 52.000000 -0.817737
v 30.323691 35.909804 -19.027162
v 9.969909 33.811288 -26.500012
v 0.000000 0.000000 0.000000
v 28.314641 -1.278052 -17.766547
v 30.456490 1.620984 0.000000
v 28.314641 -1.278052 -17.766547
v 31.688537 16.841420 -19.883560
v 36.515862 15.244138 0.000000
v 30.456490 1.620984 0.000000
v 31.688537 16.841420 -19.883560
v 30.323691 35.909804 -19.027162
v 32.962809 36.723989 0.000000
v 36.515862 15.244138 0.000000
v 8.920165 52.000000 -0.817737
v 32.962809 36.723989 0.000000
v 30.323691 35.909804 -19.027162
v 40.544013 24.321696 -5.766967
v 45.601619 26.284168 0.971420
v 47.531424 26.232919 -5.766967
v 47.531424 26.232919 -5.766967
v 45.601619 26.284168 0.971420
v 45.577914 29.484578 0.939838
v 48.462267 29.757871 -5.766967
v 40.544013 31.238090 -5.766967
v 48.462267 29.757871 -5.766967
v 45.577914 29.484578 0.939838
v 40.544013 24.321696 -5.766967
v 38.780172 25.742413 2.443885
v 45.601619 26.284168 0.971420
v 45.601619 26.284168 0.971420
v 38.780172 25.742413 2.443885
v 39.137612 29.267785 0.779964
v 45.577914 29.484578 0.939838
v 40.544013 31.238090 -5.766967
v 45.577914 29.484578 0.939838
v 39.137612 29.267785 0.779964
v 40.544013 24.321696 -5.766967
v 32.795095 25.804004 -1.802071
v 38.780172 25.742413 2.443885
v 38.780172 25.742413 2.443885
v 32.795095 25.804004 -1.802071
v 33.823527 29.513337 -2.328290
v 39.137612 29.267785 0.779964
v 40.544013 31.238090 -5.766967
v 39.137612 29.267785 0.779964
v 33.823527 29.513337 -2.328290
v 40.544013 24.321696 -5.766967
v 35.095083 26.292759 -8.555026
v 32.795095 25.804004 -1.802071
v 32.795095 25.804004 -1.802071
v 35.095083 26.292759 -8.555026
v 34.059925 29.751576 -9.084686
v 33.823527 29.513337 -2.328290
v 40.544013 31.238090 -5.766967
v 33.823527 29.513337 -2.328290
v 34.059925 29.751576 -9.084686
v 40.544013 24.321696 -5.766967
v 38.631624 25.875745 -14.669325
v 35.095083 26.292759 -8.555026
v 35.095083 26.292759 -8.555026
v 38.631624 25.875745 -14.669325
v 39.097441 29.296811 -12.500901
v 34.059925 29.751576 -9.084686
v 40.544013 31.238090 -5.766967
v 34.059925 29.751576 -9.084686
v 39.097441 29.296811 -12.500901
v 40.544013 24.321696 -5.766967
v 44.622446 25.746227 -11.200775
v 38.631624 25.875745 -14.669325
v 38.631624 25.875745 -14.669325
v 44.622446 25.746227 -11.200775
v 44.739740 29.222417 -11.357049
v 39.097441 29.296811 -12.500901
v 40.544013 31.238090 -5.766967
v 39.097441 29.296811 -12.500901
v 44.739740 29.222417 -11.357049
v 40.544013 24.321696 -5.766967
v 47.531424 26.232919 -5.766967
v 44.622446 25.746227 -11.200775
v 44.622446 25.746227 -11.200775
v 47.531424 26.232919 -5.766967
v 48.462267 29.757871 -5.766967
v 44.739740 29.222417 -11.357049
v 40.544013 31.238090 -5.766967
v 44.739740 29.222417 -11.357049
v 48.462267 29.757871 -5.766967
v 30.792835 29.351031 20.345991
v 34.506219 31.423135 26.265641
v 37.563521 31.686963 20.345991
v 37.563521 31.686963 20.345991
v 34.506219 31.423135 26.265641
v 34.870292 35.754610 26.846024
v 36.986608 35.716217 20.345991
v 30.792835 38.337509 20.345991
v 36.986608 35.716217 20.345991
v 34.870292 35.754610 26.846024
v 30.792835 29.351031 20.345991
v 29.403419 31.607577 28.084835
v 34.506219 31.423135 26.265641
v 34.506219 31.423135 26.265641
v 29.403419 31.607577 28.084835
v 29.525936 36.304399 27.402435
v 34.870292 35.754610 26.846024
v 30.792835 38.337509 20.345991
v 34.870292 35.754610 26.846024
v 29.525936 36.304399 27.402435
v 30.792835 29.351031 20.345991
v 25.108317 31.766753 23.826154
v 29.403419 31.607577 28.084835
v 29.403419 31.607577 28.084835
v 25.108317 31.766753 23.826154
v 25.978980 36.019802 23.293118
v 29.525936 36.304399 27.402435
v 30.792835 38.337509 20.345991
v 29.525936 36.304399 27.402435
v 25.978980 36.019802 23.293118
v 30.792835 29.351031 20.345991
v 25.642554 31.285361 17.192897
v 25.108317 31.766753 23.826154
v 25.108317 31.766753 23.826154
v 25.642554 31.285361 17.192897
v 25.747990 35.992379 17.257447
v 25.978980 36.019802 23.293118
v 30.792835 38.337509 20.345991
v 25.978980 36.019802 23.293118
v 25.747990 35.992379 17.257447
v 30.792835 29.351031 20.345991
v 29.387197 31.344730 12.516791
v 25.642554 31.285361 17.192897
v 25.642554 31.285361 17.192897
v 29.387197 31.344730 12.516791
v 29.638730 36.285258 13.917790
v 25.747990 35.992379 17.257447
v 30.792835 38.337509 20.345991
v 25.747990 35.992379 17.257447
v 29.638730 36.285258 13.917790
v 30.792835 29.351031 20.345991
v 34.613829 31.792012 14.254796
v 29.387197 31.344730 12.516791
v 29.387197 31.344730 12.516791
v 34.613829 31.792012 14.254796
v 34.676777 36.268474 14.154447
v 29.638730 36.285258 13.917790
v 30.792835 38.337509 20.345991
v 29.638730 36.285258 13.917790
v 34.676777 36.268474 14.154447
v 30.792835 29.351031 20.345991
v 37.563521 31.686963 20.345991
v 34.613829 31.792012 14.254796
v 34.613829 31.792012 14.254796
v 37.563521 31.686963 20.345991
v 36.986608 35.716217 20.345991
v 34.676777 36.268474 14.154447
v 30.792835 38.337509 20.345991
v 34.676777 36.268474 14.154447
v 36.986608 35.716217 20.345991
v 2.856343 20.912996 26.171136
v 6.137797 22.977229 30.191450
v 8.602014 23.074770 26.171136
v 8.602014 23.074770 26.171136
v 6.137797 22.977229 30.191450
v 6.978135 26.219622 31.221001
v 8.251392 26.454007 26.171136
v 2.856343 28.363059 26.171136
v 8.251392 26.454007 26.171136
v 6.978135 26.219622 31.221001
v 2.856343 20.912996 26.171136
v 1.579511 23.031506 31.636826
v 6.137797 22.977229 30.191450
v 6.137797 22.977229 30.191450
v 1.579511 23.031506 31.636826
v 1.551821 26.388308 31.755361
v 6.978135 26.219622 31.221001
v 2.856343 28.363059 26.171136
v 6.978135 26.219622 31.221001
v 1.551821 26.388308 31.755361
v 2.856343 20.912996 26.171136
v -2.013393 22.837608 28.462420
v 1.579511 23.031506 31.636826
v 1.579511 23.031506 31.636826
v -2.013393 22.837608 28.462420
v -3.129861 26.416261 28.987735
v 1.551821 26.388308 31.755361
v 2.856343 28.363059 26.171136
v 1.551821 26.388308 31.755361
v -3.129861 26.416261 28.987735
v 2.856343 20.912996 26.171136
v -3.278385 22.790469 23.284656
v -2.013393 22.837608 28.462420
v -2.013393 22.837608 28.462420
v -3.278385 22.790469 23.284656
v -2.975179 26.313247 23.427319
v -3.129861 26.416261 28.987735
v 2.856343 28.363059 26.171136
v -3.129861 26.416261 28.987735
v -2.975179 26.313247 23.427319
v 2.856343 20.912996 26.171136
v 1.745563 22.949086 21.416256
v -3.278385 22.790469 23.284656
v -3.278385 22.790469 23.284656
v 1.745563 22.949086 21.416256
v 1.361411 26.349681 19.771833
v -2.975179 26.313247 23.427319
v 2.856343 28.363059 26.171136
v -2.975179 26.313247 23.427319
v 1.361411 26.349681 19.771833
v 2.856343 20.912996 26.171136
v 6.994632 22.976012 21.101061
v 1.745563 22.949086 21.416256
v 1.745563 22.949086 21.416256
v 6.994632 22.976012 21.101061
v 6.021535 26.483730 22.293263
v 1.361411 26.349681 19.771833
v 2.856343 28.363059 26.171136
v 1.361411 26.349681 19.771833
v 6.021535 26.483730 22.293263
v 2.856343 20.912996 26.171136
v 8.602014 23.074770 26.171136
v 6.994632 22.976012 21.101061
v 6.994632 22.976012 21.101061
v 8.602014 23.074770 26.171136
v 8.251392 26.454007 26.171136
v 6.021535 26.483730 22.293263
v 2.856343 28.363059 26.171136
v 6.021535 26.483730 22.293263
v 8.251392 26.454007 26.171136
v -13.253344 7.932019 20.845101
v -10.259354 10.139139 26.349424
v -7.656064 10.130534 20.845101
v -7.656064 10.130534 20.845101
v -10.259354 10.139139 26.349424
v -10.036404 15.248645 26.759307
v -7.839488 15.475423 20.845101
v -13.253344 17.553873 20.845101
v -7.839488 15.475423 20.845101
v -10.036404 15.248645 26.759307
v -13.253344 7.932019 20.845101
v -14.193015 10.141931 26.881071
v -10.259354 10.139139 26.349424
v -10.259354 10.139139 26.349424
v -14.193015 10.141931 26.881071
v -14.355692 15.168365 27.926022
v -10.036404 15.248645 26.759307
v -13.253344 17.553873 20.845101
v -10.036404 15.248645 26.759307
v -14.355692 15.168365 27.926022
v -13.253344 7.932019 20.845101
v -17.969078 10.476540 24.174627
v -14.193015 10.141931 26.881071
v -14.193015 10.141931 26.881071
v -17.969078 10.476540 24.174627
v -18.141665 15.392037 24.296482
v -14.355692 15.168365 27.926022
v -13.253344 17.553873 20.845101
v -14.355692 15.168365 27.926022
v -18.141665 15.392037 24.296482
v -13.253344 7.932019 20.845101
v -16.876128 10.208290 18.287248
v -17.969078 10.476540 24.174627
v -17.969078 10.476540 24.174627
v -16.876128 10.208290 18.287248
v -17.689665 14.802599 17.712854
v -18.141665 15.392037 24.296482
v -13.253344 17.553873 20.845101
v -18.141665 15.392037 24.296482
v -17.689665 14.802599 17.712854
v -13.253344 7.932019 20.845101
v -14.226094 10.508802 14.596653
v -16.876128 10.208290 18.287248
v -16.876128 10.208290 18.287248
v -14.226094 10.508802 14.596653
v -14.163347 15.162491 14.999704
v -17.689665 14.802599 17.712854
v -13.253344 17.553873 20.845101
v -17.689665 14.802599 17.712854
v -14.163347 15.162491 14.999704
v -13.253344 7.932019 20.845101
v -10.569024 9.939112 15.910095
v -14.226094 10.508802 14.596653
v -14.226094 10.508802 14.596653
v -10.569024 9.939112 15.910095
v -10.181454 15.532124 15.197563
v -14.163347 15.162491 14.999704
v -13.253344 17.553873 20.845101
v -14.163347 15.162491 14.999704
v -10.181454 15.532124 15.197563
v -13.253344 7.932019 20.845101
v -7.656064 10.130534 20.845101
v -10.569024 9.939112 15.910095
v -10.569024 9.939112 15.910095
v -7.656064 10.130534 20.845101
v -7.839488 15.475423 20.845101
v -10.181454 15.532124 15.197563
v -13.253344 17.553873 20.845101
v -10.181454 15.532124 15.197563
v -7.839488 15.475423 20.845101
v -37.830137 14.798593 12.844372
v -33.214893 16.818517 16.797064
v -31.145474 17.208128 12.844372
v -31.145474 17.208128 12.844372
v -33.214893 16.818517 16.797064
v -33.073007 21.373363 16.918582
v -31.362687 21.809802 12.844372
v -37.830137 23.862415 12.844372
v -31.362687 21.809802 12.844372
v -33.073007 21.373363 16.918582
v -37.830137 14.798593 12.844372
v -39.168757 17.200621 16.850026
v -33.214893 16.818517 16.797064
v -33.214893 16.818517 16.797064
v -39.168757 17.200621 16.850026
v -39.439847 21.663418 17.661229
v -33.073007 21.373363 16.918582
v -37.830137 23.862415 12.844372
v -33.073007 21.373363 16.918582
v -39.439847 21.663418 17.661229
v -37.830137 14.798593 12.844372
v -42.953646 16.811176 14.529549
v -39.168757 17.200621 16.850026
v -39.168757 17.200621 16.850026
v -42.953646 16.811176 14.529549
v -44.348658 21.461091 14.988384
v -39.439847 21.663418 17.661229
v -37.830137 23.862415 12.844372
v -39.439847 21.663418 17.661229
v -44.348658 21.461091 14.988384
v -37.830137 14.798593 12.844372
v -44.182621 17.282826 10.754971
v -42.953646 16.811176 14.529549
v -42.953646 16.811176 14.529549
v -44.182621 17.282826 10.754971
v -45.089706 21.348419 10.456621
v -44.348658 21.461091 14.988384
v -37.830137 23.862415 12.844372
v -44.348658 21.461091 14.988384
v -45.089706 21.348419 10.456621
v -37.830137 14.798593 12.844372
v -39.492086 17.252203 7.871197
v -44.182621 17.282826 10.754971
v -44.182621 17.282826 10.754971
v -39.492086 17.252203 7.871197
v -39.178525 21.635536 8.809489
v -45.089706 21.348419 10.456621
v -37.830137 23.862415 12.844372
v -45.089706 21.348419 10.456621
v -39.178525 21.635536 8.809489
v -37.830137 14.798593 12.844372
v -32.802910 16.931138 8.538839
v -39.492086 17.252203 7.871197
v -39.492086 17.252203 7.871197
v -32.802910 16.931138 8.538839
v -33.427468 21.889242 9.073737
v -39.178525 21.635536 8.809489
v -37.830137 23.862415 12.844372
v -39.178525 21.635536 8.809489
v -33.427468 21.889242 9.073737
v -37.830137 14.798593 12.844372
v -31.145474 17.208128 12.844372
v -32.802910 16.931138 8.538839
v -32.802910 16.931138 8.538839
v -31.145474 17.208128 12.844372
v -31.362687 21.809802 12.844372
v -33.427468 21.889242 9.073737
v -37.830137 23.862415 12.844372
v -33.427468 21.889242 9.073737
v -31.362687 21.809802 12.844372
v -34.751500 26.112876 -4.778676
v -30.537476 28.580443 0.727180
v -29.299761 28.578845 -4.778676
v -29.299761 28.578845 -4.778676
v -30.537476 28.580443 0.727180
v -30.699570 34.371503 0.515395
v -28.912014 35.119251 -4.778676
v -34.751500 37.638599 -4.778676
v -28.912014 35.119251 -4.778676
v -30.699570 34.371503 0.515395
v -34.751500 26.112876 -4.778676
v -35.983024 29.311357 0.843295
v -30.537476 28.580443 0.727180
v -30.537476 28.580443 0.727180
v -35.983024 29.311357 0.843295
v -36.170635 34.615572 1.699749
v -30.699570 34.371503 0.515395
v -34.751500 37.638599 -4.778676
v -30.699570 34.371503 0.515395
v -36.170635 34.615572 1.699749
v -34.751500 26.112876 -4.778676
v -40.988989 28.740624 -1.648871
v -35.983024 29.311357 0.843295
v -35.983024 29.311357 0.843295
v -40.988989 28.740624 -1.648871
v -39.898348 34.481225 -2.196125
v -36.170635 34.615572 1.699749
v -34.751500 37.638599 -4.778676
v -36.170635 34.615572 1.699749
v -39.898348 34.481225 -2.196125
v -34.751500 26.112876 -4.778676
v -41.132986 29.321247 -7.980736
v -40.988989 28.740624 -1.648871
v -40.988989 28.740624 -1.648871
v -41.132986 29.321247 -7.980736
v -39.730664 34.687579 -7.277088
v -39.898348 34.481225 -2.196125
v -34.751500 37.638599 -4.778676
v -39.898348 34.481225 -2.196125
v -39.730664 34.687579 -7.277088
v -34.751500 26.112876 -4.778676
v -36.049814 29.014581 -10.705545
v -41.132986 29.321247 -7.980736
v -41.132986 29.321247 -7.980736
v -36.049814 29.014581 -10.705545
v -35.895535 35.022504 -10.001252
v -39.730664 34.687579 -7.277088
v -34.751500 37.638599 -4.778676
v -39.730664 34.687579 -7.277088
v -35.895535 35.022504 -10.001252
v -34.751500 26.112876 -4.778676
v -31.462077 28.524504 -9.076489
v -36.049814 29.014581 -10.705545
v -36.049814 29.014581 -10.705545
v -31.462077 28.524504 -9.076489
v -30.273431 34.362897 -10.629521
v -35.895535 35.022504 -10.001252
v -34.751500 37.638599 -4.778676
v -35.895535 35.022504 -10.001252
v -30.273431 34.362897 -10.629521
v -34.751500 26.112876 -4.778676
v -29.299761 28.578845 -4.778676
v -31.462077 28.524504 -9.076489
v -31.462077 28.524504 -9.076489
v -29.299761 28.578845 -4.778676
v -28.912014 35.119251 -4.778676
v -30.273431 34.362897 -10.629521
v -34.751500 37.638599 -4.778676
v -30.273431 34.362897 -10.629521
v -28.912014 35.119251 -4.778676
v -18.720912 12.128198 -23.172958
v -14.461371 14.773209 -16.734831
v -11.939239 14.892410 -23.172958
v -11.939239 14.892410 -23.172958
v -14.461371 14.773209 -16.734831
v -13.907277 20.220298 -15.897339
v -11.132737 19.601352 -23.172958
v -18.720912 22.403115 -23.172958
v -11.132737 19.601352 -23.172958
v -13.907277 20.220298 -15.897339
v -18.720912 12.128198 -23.172958
v -19.963315 15.110610 -16.611853
v -14.461371 14.773209 -16.734831
v -14.461371 14.773209 -16.734831
v -19.963315 15.110610 -16.611853
v -20.331204 19.996650 -14.669036
v -13.907277 20.220298 -15.897339
v -18.720912 22.403115 -23.172958
v -13.907277 20.220298 -15.897339
v -20.331204 19.996650 -14.669036
v -18.720912 12.128198 -23.172958
v -24.023932 14.747625 -20.094737
v -19.963315 15.110610 -16.611853
v -19.963315 15.110610 -16.611853
v -24.023932 14.747625 -20.094737
v -23.727448 20.011523 -20.266836
v -20.331204 19.996650 -14.669036
v -18.720912 22.403115 -23.172958
v -20.331204 19.996650 -14.669036
v -23.727448 20.011523 -20.266836
v -18.720912 12.128198 -23.172958
v -24.594736 15.035002 -26.582512
v -24.023932 14.747625 -20.094737
v -24.023932 14.747625 -20.094737
v -24.594736 15.035002 -26.582512
v -25.285244 20.059838 -26.983328
v -23.727448 20.011523 -20.266836
v -18.720912 22.403115 -23.172958
v -23.727448 20.011523 -20.266836
v -25.285244 20.059838 -26.983328
v -18.720912 12.128198 -23.172958
v -20.157569 15.093291 -30.759916
v -24.594736 15.035002 -26.582512
v -24.594736 15.035002 -26.582512
v -20.157569 15.093291 -30.759916
v -19.972653 19.656572 -29.783377
v -25.285244 20.059838 -26.983328
v -18.720912 22.403115 -23.172958
v -25.285244 20.059838 -26.983328
v -19.972653 19.656572 -29.783377
v -18.720912 12.128198 -23.172958
v -13.796609 14.884966 -30.615848
v -20.157569 15.093291 -30.759916
v -20.157569 15.093291 -30.759916
v -13.796609 14.884966 -30.615848
v -14.560833 19.800505 -29.460754
v -19.972653 19.656572 -29.783377
v -18.720912 22.403115 -23.172958
v -19.972653 19.656572 -29.783377
v -14.560833 19.800505 -29.460754
v -18.720912 12.128198 -23.172958
v -11.939239 14.892410 -23.172958
v -13.796609 14.884966 -30.615848
v -13.796609 14.884966 -30.615848
v -11.939239 14.892410 -23.172958
v -11.132737 19.601352 -23.172958
v -14.560833 19.800505 -29.460754
v -18.720912 22.403115 -23.172958
v -14.560833 19.800505 -29.460754
v -11.132737 19.601352 -23.172958
v 11.437171 12.043492 -25.727008
v 14.740884 15.402601 -22.568258
v 16.624710 15.109239 -25.727008
v 16.624710 15.109239 -25.727008
v 14.740884 15.402601 -22.568258
v 15.237829 21.157735 -22.093118
v 17.610639 21.726034 -25.727008
v 11.437171 24.859229 -25.727008
v 17.610639 21.726034 -25.727008
v 15.237829 21.157735 -22.093118
v 11.437171 12.043492 -25.727008
v 9.910186 14.873472 -20.625886
v 14.740884 15.402601 -22.568258
v 14.740884 15.402601 -22.568258
v 9.910186 14.873472 -20.625886
v 10.346196 21.574613 -22.082442
v 15.237829 21.157735 -22.093118
v 11.437171 24.859229 -25.727008
v 15.237829 21.157735 -22.093118
v 10.346196 21.574613 -22.082442
v 11.437171 12.043492 -25.727008
v 6.955271 15.705069 -24.081292
v 9.910186 14.873472 -20.625886
v 9.910186 14.873472 -20.625886
v 6.955271 15.705069 -24.081292
v 5.189643 21.427058 -23.432968
v 10.346196 21.574613 -22.082442
v 11.437171 24.859229 -25.727008
v 10.346196 21.574613 -22.082442
v 5.189643 21.427058 -23.432968
v 11.437171 12.043492 -25.727008
v 5.878358 15.439101 -27.768158
v 6.955271 15.705069 -24.081292
v 6.955271 15.705069 -24.081292
v 5.878358 15.439101 -27.768158
v 5.568450 21.350127 -27.881954
v 5.189643 21.427058 -23.432968
v 11.437171 24.859229 -25.727008
v 5.189643 21.427058 -23.432968
v 5.568450 21.350127 -27.881954
v 11.437171 12.043492 -25.727008
v 9.930444 15.252331 -30.760455
v 5.878358 15.439101 -27.768158
v 5.878358 15.439101 -27.768158
v 9.930444 15.252331 -30.760455
v 10.329911 21.553189 -29.425977
v 5.568450 21.350127 -27.881954
v 11.437171 24.859229 -25.727008
v 5.568450 21.350127 -27.881954
v 10.329911 21.553189 -29.425977
v 11.437171 12.043492 -25.727008
v 15.188086 15.318447 -29.313338
v 9.930444 15.252331 -30.760455
v 9.930444 15.252331 -30.760455
v 15.188086 15.318447 -29.313338
v 14.517698 21.533335 -28.672365
v 10.329911 21.553189 -29.425977
v 11.437171 24.859229 -25.727008
v 10.329911 21.553189 -29.425977
v 14.517698 21.533335 -28.672365
v 11.437171 12.043492 -25.727008
v 16.624710 15.109239 -25.727008
v 15.188086 15.318447 -29.313338
v 15.188086 15.318447 -29.313338
v 16.624710 15.109239 -25.727008
v 17.610639 21.726034 -25.727008
v 14.517698 21.533335 -28.672365
v 11.437171 24.859229 -25.727008
v 14.517698 21.533335 -28.672365
v 17.610639 21.726034 -25.727008
v 20.010970 31.295607 -17.936913
v 23.035202 33.325412 -13.806652
v 25.848405 33.099821 -17.936913
v 25.848405 33.099821 -17.936913
v 23.035202 33.325412 -13.806652
v 23.171726 37.607201 -13.620197
v 25.585291 38.069952 -17.936913
v 20.010970 40.051847 -17.936913
v 25.585291 38.069952 -17.936913
v 23.171726 37.607201 -13.620197
v 20.010970 31.295607 -17.936913
v 18.752426 33.726886 -11.931422
v 23.035202 33.325412 -13.806652
v 23.035202 33.325412 -13.806652
v 18.752426 33.726886 -11.931422
v 18.938288 37.712521 -12.818313
v 23.171726 37.607201 -13.620197
v 20.010970 40.051847 -17.936913
v 23.171726 37.607201 -13.620197
v 18.938288 37.712521 -12.818313
v 20.010970 31.295607 -17.936913
v 16.017045 33.358555 -15.842115
v 18.752426 33.726886 -11.931422
v 18.752426 33.726886 -11.931422
v 16.017045 33.358555 -15.842115
v 15.378549 37.786586 -15.507227
v 18.938288 37.712521 -12.818313
v 20.010970 40.051847 -17.936913
v 18.938288 37.712521 -12.818313
v 15.378549 37.786586 -15.507227
v 20.010970 31.295607 -17.936913
v 16.160530 33.569029 -19.956454
v 16.017045 33.358555 -15.842115
v 16.017045 33.358555 -15.842115
v 16.160530 33.569029 -19.956454
v 16.193556 38.016071 -19.939132
v 15.378549 37.786586 -15.507227
v 20.010970 40.051847 -17.936913
v 15.378549 37.786586 -15.507227
v 16.193556 38.016071 -19.939132
v 20.010970 31.295607 -17.936913
v 18.949108 33.125369 -23.003884
v 16.160530 33.569029 -19.956454
v 16.160530 33.569029 -19.956454
v 18.949108 33.125369 -23.003884
v 18.906885 37.749903 -23.205359
v 16.193556 38.016071 -19.939132
v 20.010970 40.051847 -17.936913
v 16.193556 38.016071 -19.939132
v 18.906885 37.749903 -23.205359
v 20.010970 31.295607 -17.936913
v 22.617121 33.300851 -21.496193
v 18.949108 33.125369 -23.003884
v 18.949108 33.125369 -23.003884
v 22.617121 33.300851 -21.496193
v 22.717905 38.070522 -21.633836
v 18.906885 37.749903 -23.205359
v 20.010970 40.051847 -17.936913
v 18.906885 37.749903 -23.205359
v 22.717905 38.070522 -21.633836
v 20.010970 31.295607 -17.936913
v 25.848405 33.099821 -17.936913
v 22.617121 33.300851 -21.496193
v 22.617121 33.300851 -21.496193
v 25.848405 33.099821 -17.936913
v 25.585291 38.069952 -17.936913
v 22.717905 38.070522 -21.633836
v 20.010970 40.051847 -17.936913
v 22.717905 38.070522 -21.633836
v 25.585291 38.069952 -17.936913
v -12.388614 29.970923 1.664687
v -11.623717 27.620434 0.349341
v 14.774070 35.594490 2.940795
v 14.391621 36.769735 3.598468
v -12.041610 29.970923 -1.113728
v -11.623717 27.620434 0.349341
v -12.388614 29.970923 1.664687
v 14.565123 36.769735 2.209261
v 14.391621 36.769735 3.598468
v 14.774070 35.594490 2.940795
v -11.623717 27.620434 0.349341
v -11.276713 27.620434 -2.429074
v 14.947572 35.594490 1.551588
v 14.774070 35.594490 2.940795
v -12.041610 29.970923 -1.113728
v -11.276713 27.620434 -2.429074
v -11.623717 27.620434 0.349341
v 14.565123 36.769735 2.209261
v 14.774070 35.594490 2.940795
v 14.947572 35.594490 1.551588
v -11.276713 27.620434 -2.429074
v -11.694606 29.970923 -3.892142
v 14.738625 36.769735 0.820054
v 14.947572 35.594490 1.551588
v -12.041610 29.970923 -1.113728
v -11.694606 29.970923 -3.892142
v -11.276713 27.620434 -2.429074
v 14.565123 36.769735 2.209261
v 14.947572 35.594490 1.551588
v 14.738625 36.769735 0.820054
v -11.694606 29.970923 -3.892142
v -12.459503 32.321412 -2.576796
v 14.356177 37.944979 1.477727
v 14.738625 36.769735 0.820054
v -12.041610 29.970923 -1.113728
v -12.459503 32.321412 -2.576796
v -11.694606 29.970923 -3.892142
v 14.565123 36.769735 2.209261
v 14.738625 36.769735 0.820054
v 14.356177 37.944979 1.477727
v -12.459503 32.321412 -2.576796
v -12.806507 32.321412 0.201619
v 14.182675 37.944979 2.866934
v 14.356177 37.944979 1.477727
v -12.041610 29.970923 -1.113728
v -12.806507 32.321412 0.201619
v -12.459503 32.321412 -2.576796
v 14.565123 36.769735 2.209261
v 14.356177 37.944979 1.477727
v 14.182675 37.944979 2.866934
v -12.806507 32.321412 0.201619
v -12.388614 29.970923 1.664687
v 14.391621 36.769735 3.598468
v 14.182675 37.944979 2.866934
v -12.041610 29.970923 -1.113728
v -12.388614 29.970923 1.664687
v -12.806507 32.321412 0.201619
v 14.565123 36.769735 2.209261
v 14.182675 37.944979 2.866934
v 14.391621 36.769735 3.598468
v -14.737893 31.879248 1.518271
v -14.832874 29.467726 0.098575
v 20.889464 26.907429 3.438212
v 20.936955 28.113190 4.148060
v -14.422918 31.879248 -1.263957
v -14.832874 29.467726 0.098575
v -14.737893 31.879248 1.518271
v 21.094442 28.113190 2.756946
v 20.936955 28.113190 4.148060
v 20.889464 26.907429 3.438212
v -14.832874 29.467726 0.098575
v -14.517899 29.467726 -2.683652
v 21.046952 26.907429 2.047098
v 20.889464 26.907429 3.438212
v -14.422918 31.879248 -1.263957
v -14.517899 29.467726 -2.683652
v -14.832874 29.467726 0.098575
v 21.094442 28.113190 2.756946
v 20.889464 26.907429 3.438212
v 21.046952 26.907429 2.047098
v -14.517899 29.467726 -2.683652
v -14.107943 31.879248 -4.046184
v 21.251929 28.113190 1.365832
v 21.046952 26.907429 2.047098
v -14.422918 31.879248 -1.263957
v -14.107943 31.879248 -4.046184
v -14.517899 29.467726 -2.683652
v 21.094442 28.113190 2.756946
v 21.046952 26.907429 2.047098
v 21.251929 28.113190 1.365832
v -14.107943 31.879248 -4.046184
v -14.012962 34.290771 -2.626489
v 21.299420 29.318952 2.075680
v 21.251929 28.113190 1.365832
v -14.422918 31.879248 -1.263957
v -14.012962 34.290771 -2.626489
v -14.107943 31.879248 -4.046184
v 21.094442 28.113190 2.756946
v 21.251929 28.113190 1.365832
v 21.299420 29.318952 2.075680
v -14.012962 34.290771 -2.626489
v -14.327937 34.290771 0.155739
v 21.141933 29.318952 3.466794
v 21.299420 29.318952 2.075680
v -14.422918 31.879248 -1.263957
v -14.327937 34.290771 0.155739
v -14.012962 34.290771 -2.626489
v 21.094442 28.113190 2.756946
v 21.299420 29.318952 2.075680
v 21.141933 29.318952 3.466794
v -14.327937 34.290771 0.155739
v -14.737893 31.879248 1.518271
v 20.936955 28.113190 4.148060
v 21.141933 29.318952 3.466794
v -14.422918 31.879248 -1.263957
v -14.737893 31.879248 1.518271
v -14.327937 34.290771 0.155739
v 21.094442 28.113190 2.756946
v 21.141933 29.318952 3.466794
v 20.936955 28.113190 4.148060
v -33.278695 28.335925 -7.869379
v -32.999195 25.912334 -9.243457
v 31.445210 29.239434 -0.576799
v 31.305460 30.451229 0.110240
v -32.875651 28.335925 -10.640219
v -32.999195 25.912334 -9.243457
v -33.278695 28.335925 -7.869379
v 31.506982 30.451229 -1.275180
v 31.305460 30.451229 0.110240
v 31.445210 29.239434 -0.576799
v -32.999195 25.912334 -9.243457
v -32.596151 25.912334 -12.014297
v 31.646732 29.239434 -1.962219
v 31.445210 29.239434 -0.576799
v -32.875651 28.335925 -10.640219
v -32.596151 25.912334 -12.014297
v -32.999195 25.912334 -9.243457
v 31.506982 30.451229 -1.275180
v 31.445210 29.239434 -0.576799
v 31.646732 29.239434 -1.962219
v -32.596151 25.912334 -12.014297
v -32.472607 28.335925 -13.411059
v 31.708504 30.451229 -2.660600
v 31.646732 29.239434 -1.962219
v -32.875651 28.335925 -10.640219
v -32.472607 28.335925 -13.411059
v -32.596151 25.912334 -12.014297
v 31.506982 30.451229 -1.275180
v 31.646732 29.239434 -1.962219
v 31.708504 30.451229 -2.660600
v -32.472607 28.335925 -13.411059
v -32.752106 30.759515 -12.036982
v 31.568754 31.663024 -1.973561
v 31.708504 30.451229 -2.660600
v -32.875651 28.335925 -10.640219
v -32.752106 30.759515 -12.036982
v -32.472607 28.335925 -13.411059
v 31.506982 30.451229 -1.275180
v 31.708504 30.451229 -2.660600
v 31.568754 31.663024 -1.973561
v -32.752106 30.759515 -12.036982
v -33.155150 30.759515 -9.266142
v 31.367232 31.663024 -0.588141
v 31.568754 31.663024 -1.973561
v -32.875651 28.335925 -10.640219
v -33.155150 30.759515 -9.266142
v -32.752106 30.759515 -12.036982
v 31.506982 30.451229 -1.275180
v 31.568754 31.663024 -1.973561
v 31.367232 31.663024 -0.588141
v -33.155150 30.759515 -9.266142
v -33.278695 28.335925 -7.869379
v 31.305460 30.451229 0.110240
v 31.367232 31.663024 -0.588141
v -32.875651 28.335925 -10.640219
v -33.278695 28.335925 -7.869379
v -33.155150 30.759515 -9.266142
v 31.506982 30.451229 -1.275180
v 31.367232 31.663024 -0.588141
v 31.305460 30.451229 0.110240
vt 0.500000 1.000000
vt 0.000000 0.000000
vt 1.000000 0.000000
vt 0.000000 0.000000
vt 1.000000 0.000000
vt 1.000000 1.000000
vt 0.000000 1.000000
vt 0.000000 0.000000
vt 1.000000 0.000000
vt 1.000000 1.000000
vt 0.000000 1.000000
vt 0.500000 1.000000
vt 0.000000 0.000000
vt 1.000000 0.000000
vt 0.500000 1.000000
vt 0.000000 0.000000
vt 1.000000 0.000000
vt 0.000000 0.000000
vt 1.000000 0.000000
vt 1.000000 1.000000
vt 0.000000 1.000000
vt 0.000000 0.000000
vt 1.000000 0.000000
vt 1.000000 1.000000
vt 0.000000 1.000000
vt 0.500000 1.000000
vt 0.000000 0.000000
vt 1.000000 0.000000
vt 0.500000 1.000000
vt 0.000000 0.000000
vt 1.000000 0.000000
vt 0.000000 0.000000
vt 1.000000 0.000000
vt 1.000000 1.000000
vt 0.000000 1.000000
vt 0.000000 0.000000
vt 1.000000 0.000000
vt 1.000000 1.000000
vt 0.000000 1.000000
vt 0.500000 1.000000
vt 0.000000 0.000000
vt 1.000000 0.000000
vt 0.500000 1.000000
vt 0.000000 0.000000
vt 1.000000 0.000000
vt 0.000000 0.000000
vt 1.000000 0.000000
vt 1.000000 1.000000
vt 0.000000 1.000000
vt 0.000000 0.000000
vt 1.000000 0.000000
vt 1.000000 1.000000
vt 0.000000 1.000000
vt 0.500000 1.000000
vt 0.000000 0.000000
vt 1.000000 0.000000
vt 0.500000 1.000000
vt 0.000000 0.000000
vt 1.000000 0.000000
vt 0.000000 0.000000
vt 1.000000 0.000000
vt 1.000000 1.000000
vt 0.000000 1.000000
vt 0.000000 0.000000
vt 1.000000 0.000000
vt 1.000000 1.000000
vt 0.000000 1.000000
vt 0.500000 1.000000
vt 0.000000 0.000000
vt 1.000000 0.000000
vt 0.500000 1.000000
vt 0.000000 0.000000
vt 1.000000 0.000000
vt 0.000000 0.000000
vt 1.000000 0.000000
vt 1.000000 1.000000
vt 0.000000 1.000000
vt 0.000000 0.000000
vt 1.000000 0.000000
vt 1.000000 1.000000
vt 0.000000 1.000000
vt 0.500000 1.000000
vt 0.000000 0.000000
vt 1.000000 0.000000
vt 0.500000 1.000000
vt 0.000000 0.000000
vt 1.000000 0.000000
vt 0.000000 0.000000
vt 1.000000 0.000000
vt 1.000000 1.000000
vt 0.000000 1.000000
vt 0.000000 0.000000
vt 1.000000 0.000000
vt 1.000000 1.000000
vt 0.000000 1.000000
vt 0.500000 1.000000
vt 0.000000 0.000000
vt 1.000000 0.000000
vt 0.500000 1.000000
vt 0.000000 0.000000
vt 1.000000 0.000000
vt 0.000000 0.000000
vt 1.000000 0.000000
vt 1.000000 1.000000
vt 0.000000 1.000000
vt 0.000000 0.000000
vt 1.000000 0.000000
vt 1.000000 1.000000
vt 0.000000 1.000000
vt 0.500000 1.000000
vt 0.000000 0.000000
vt 1.000000 0.000000
vt 0.500000 1.000000
vt 0.000000 0.000000
vt 1.000000 0.000000
vt 0.000000 0.000000
vt 1.000000 0.000000
vt 1.000000 1.000000
vt 0.000000 1.000000
vt 0.000000 0.000000
vt 1.000000 0.000000
vt 1.000000 1.000000
vt 0.000000 1.000000
vt 0.500000 1.000000
vt 0.000000 0.000000
vt 1.000000 0.000000
vt 0.500000 1.000000
vt 0.000000 0.000000
vt 1.000000 0.000000
vt 0.000000 0.000000
vt 1.000000 0.000000
vt 1.000000 1.000000
vt 0.000000 1.000000
vt 0.000000 0.000000
vt 1.000000 0.000000
vt 1.000000 1.000000
vt 0.000000 1.000000
vt 0.500000 1.000000
vt 0.000000 0.000000
vt 1.000000 0.000000
vt 0.500000 1.000000
vt 0.000000 0.000000
vt 1.000000 0.000000
vt 0.000000 0.000000
vt 1.000000 0.000000
vt 1.000000 1.000000
vt 0.000000 1.000000
vt 0.500000 1.000000
vt 0.000000 0.000000
vt 1.000000 0.000000
vt 0.500000 1.000000
vt 0.000000 0.000000
vt 1.000000 0.000000
vt 0.000000 0.000000
vt 1.000000 0.000000
vt 1.000000 1.000000
vt 0.000000 1.000000
vt 0.500000 1.000000
vt 0.000000 0.000000
vt 1.000000 0.000000
vt 0.500000 1.000000
vt 0.000000 0.000000
vt 1.000000 0.000000
vt 0.000000 0.000000
vt 1.000000 0.000000
vt 1.000000 1.000000
vt 0.000000 1.000000
vt 0.500000 1.000000
vt 0.000000 0.000000
vt 1.000000 0.000000
vt 0.500000 1.000000
vt 0.000000 0.000000
vt 1.000000 0.000000
vt 0.000000 0.000000
vt 1.000000 0.000000
vt 1.000000 1.000000
vt 0.000000 1.000000
vt 0.500000 1.000000
vt 0.000000 0.000000
vt 1.000000 0.000000
vt 0.500000 1.000000
vt 0.000000 0.000000
vt 1.000000 0.000000
vt 0.000000 0.000000
vt 1.000000 0.000000
vt 1.000000 1.000000
vt 0.000000 1.000000
vt 0.500000 1.000000
vt 0.000000 0.000000
vt 1.000000 0.000000
vt 0.500000 1.000000
vt 0.000000 0.000000
vt 1.000000 0.000000
vt 0.000000 0.000000
vt 1.000000 0.000000
vt 1.000000 1.000000
vt 0.000000 1.000000
vt 0.500000 1.000000
vt 0.000000 0.000000
vt 1.000000 0.000000
vt 0.500000 1.000000
vt 0.000000 0.000000
vt 1.000000 0.000000
vt 0.000000 0.000000
vt 1.000000 0.000000
vt 1.000000 1.000000
vt 0.000000 1.000000
vt 0.500000 1.000000
vt 0.000000 0.000000
vt 1.000000 0.000000
vt 0.500000 1.000000
vt 0.000000 0.000000
vt 1.000000 0.000000
vt 0.000000 0.000000
vt 1.000000 0.000000
vt 1.000000 1.000000
vt 0.000000 1.000000
vt 0.500000 1.000000
vt 0.000000 0.000000
vt 1.000000 0.000000
vt 0.500000 1.000000
vt 0.000000 0.000000
vt 1.000000 0.000000
vt 0.000000 0.000000
vt 1.000000 0.000000
vt 1.000000 1.000000
vt 0.000000 1.000000
vt 0.500000 1.000000
vt 0.000000 0.000000
vt 1.000000 0.000000
vt 0.500000 1.000000
vt 0.000000 0.000000
vt 1.000000 0.000000
vt 0.000000 0.000000
vt 1.000000 0.000000
vt 1.000000 1.000000
vt 0.000000 1.000000
vt 0.500000 1.000000
vt 0.000000 0.000000
vt 1.000000 0.000000
vt 0.500000 1.000000
vt 0.000000 0.000000
vt 1.000000 0.000000
vt 0.000000 0.000000
vt 1.000000 0.000000
vt 1.000000 1.000000
vt 0.000000 1.000000
vt 0.500000 1.000000
vt 0.000000 0.000000
vt 1.000000 0.000000
vt 0.500000 1.000000
vt 0.000000 0.000000
vt 1.000000 0.000000
vt 0.000000 0.000000
vt 1.000000 0.000000
vt 1.000000 1.000000
vt 0.000000 1.000000
vt 0.500000 1.000000
vt 0.000000 0.000000
vt 1.000000 0.000000
vt 0.500000 1.000000
vt 0.000000 0.000000
vt 1.000000 0.000000
vt 0.000000 0.000000
vt 1.000000 0.000000
vt 1.000000 1.000000
vt 0.000000 1.000000
vt 0.500000 1.000000
vt 0.000000 0.000000
vt 1.000000 0.000000
vt 0.500000 1.000000
vt 0.000000 0.000000
vt 1.000000 0.000000
vt 0.000000 0.000000
vt 1.000000 0.000000
vt 1.000000 1.000000
vt 0.000000 1.000000
vt 0.500000 1.000000
vt 0.000000 0.000000
vt 1.000000 0.000000
vt 0.500000 1.000000
vt 0.000000 0.000000
vt 1.000000 0.000000
vt 0.000000 0.000000
vt 1.000000 0.000000
vt 1.000000 1.000000
vt 0.000000 1.000000
vt 0.500000 1.000000
vt 0.000000 0.000000
vt 1.000000 0.000000
vt 0.500000 1.000000
vt 0.000000 0.000000
vt 1.000000 0.000000
vt 0.000000 0.000000
vt 1.000000 0.000000
vt 1.000000 1.000000
vt 0.000000 1.000000
vt 0.500000 1.000000
vt 0.000000 0.000000
vt 1.000000 0.000000
vt 0.500000 1.000000
vt 0.000000 0.000000
vt 1.000000 0.000000
vt 0.000000 0.000000
vt 1.000000 0.000000
vt 1.000000 1.000000
vt 0.000000 1.000000
vt 0.500000 1.000000
vt 0.000000 0.000000
vt 1.000000 0.000000
vt 0.500000 1.000000
vt 0.000000 0.000000
vt 1.000000 0.000000
vt 0.000000 0.000000
vt 1.000000 0.000000
vt 1.000000 1.000000
vt 0.000000 1.000000
vt 0.500000 1.000000
vt 0.000000 0.000000
vt 1.000000 0.000000
vt 0.500000 1.000000
vt 0.000000 0.000000
vt 1.000000 0.000000
vt 0.000000 0.000000
vt 1.000000 0.000000
vt 1.000000 1.000000
vt 0.000000 1.000000
vt 0.500000 1.000000
vt 0.000000 0.000000
vt 1.000000 0.000000
vt 0.500000 1.000000
vt 0.000000 0.000000
vt 1.000000 0.000000
vt 0.000000 0.000000
vt 1.000000 0.000000
vt 1.000000 1.000000
vt 0.000000 1.000000
vt 0.500000 1.000000
vt 0.000000 0.000000
vt 1.000000 0.000000
vt 0.500000 1.000000
vt 0.000000 0.000000
vt 1.000000 0.000000
vt 0.000000 0.000000
vt 1.000000 0.000000
vt 1.000000 1.000000
vt 0.000000 1.000000
vt 0.500000 1.000000
vt 0.000000 0.000000
vt 1.000000 0.000000
vt 0.500000 1.000000
vt 0.000000 0.000000
vt 1.000000 0.000000
vt 0.000000 0.000000
vt 1.000000 0.000000
vt 1.000000 1.000000
vt 0.000000 1.000000
vt 0.500000 1.000000
vt 0.000000 0.000000
vt 1.000000 0.000000
vt 0.500000 1.000000
vt 0.000000 0.000000
vt 1.000000 0.000000
vt 0.000000 0.000000
vt 1.000000 0.000000
vt 1.000000 1.000000
vt 0.000000 1.000000
vt 0.500000 1.000000
vt 0.000000 0.000000
vt 1.000000 0.000000
vt 0.500000 1.000000
vt 0.000000 0.000000
vt 1.000000 0.000000
vt 0.000000 0.000000
vt 1.000000 0.000000
vt 1.000000 1.000000
vt 0.000000 1.000000
vt 0.500000 1.000000
vt 0.000000 0.000000
vt 1.000000 0.000000
vt 0.500000 1.000000
vt 0.000000 0.000000
vt 1.000000 0.000000
vt 0.000000 0.000000
vt 1.000000 0.000000
vt 1.000000 1.000000
vt 0.000000 1.000000
vt 0.500000 1.000000
vt 0.000000 0.000000
vt 1.000000 0.000000
vt 0.500000 1.000000
vt 0.000000 0.000000
vt 1.000000 0.000000
vt 0.000000 0.000000
vt 1.000000 0.000000
vt 1.000000 1.000000
vt 0.000000 1.000000
vt 0.500000 1.000000
vt 0.000000 0.000000
vt 1.000000 0.000000
vt 0.500000 1.000000
vt 0.000000 0.000000
vt 1.000000 0.000000
vt 0.000000 0.000000
vt 1.000000 0.000000
vt 1.000000 1.000000
vt 0.000000 1.000000
vt 0.500000 1.000000
vt 0.000000 0.000000
vt 1.000000 0.000000
vt 0.500000 1.000000
vt 0.000000 0.000000
vt 1.000000 0.000000
vt 0.000000 0.000000
vt 1.000000 0.000000
vt 1.000000 1.000000
vt 0.000000 1.000000
vt 0.500000 1.000000
vt 0.000000 0.000000
vt 1.000000 0.000000
vt 0.500000 1.000000
vt 0.000000 0.000000
vt 1.000000 0.000000
vt 0.000000 0.000000
vt 1.000000 0.000000
vt 1.000000 1.000000
vt 0.000000 1.000000
vt 0.500000 1.000000
vt 0.000000 0.000000
vt 1.000000 0.000000
vt 0.500000 1.000000
vt 0.000000 0.000000
vt 1.000000 0.000000
vt 0.000000 0.000000
vt 1.000000 0.000000
vt 1.000000 1.000000
vt 0.000000 1.000000
vt 0.500000 1.000000
vt 0.000000 0.000000
vt 1.000000 0.000000
vt 0.500000 1.000000
vt 0.000000 0.000000
vt 1.000000 0.000000
vt 0.000000 0.000000
vt 1.000000 0.000000
vt 1.000000 1.000000
vt 0.000000 1.000000
vt 0.500000 1.000000
vt 0.000000 0.000000
vt 1.000000 0.000000
vt 0.500000 1.000000
vt 0.000000 0.000000
vt 1.000000 0.000000
vt 0.000000 0.000000
vt 1.000000 0.000000
vt 1.000000 1.000000
vt 0.000000 1.000000
vt 0.500000 1.000000
vt 0.000000 0.000000
vt 1.000000 0.000000
vt 0.500000 1.000000
vt 0.000000 0.000000
vt 1.000000 0.000000
vt 0.000000 0.000000
vt 1.000000 0.000000
vt 1.000000 1.000000
vt 0.000000 1.000000
vt 0.500000 1.000000
vt 0.000000 0.000000
vt 1.000000 0.000000
vt 0.500000 1.000000
vt 0.000000 0.000000
vt 1.000000 0.000000
vt 0.000000 0.000000
vt 1.000000 0.000000
vt 1.000000 1.000000
vt 0.000000 1.000000
vt 0.500000 1.000000
vt 0.000000 0.000000
vt 1.000000 0.000000
vt 0.500000 1.000000
vt 0.000000 0.000000
vt 1.000000 0.000000
vt 0.000000 0.000000
vt 1.000000 0.000000
vt 1.000000 1.000000
vt 0.000000 1.000000
vt 0.500000 1.000000
vt 0.000000 0.000000
vt 1.000000 0.000000
vt 0.500000 1.000000
vt 0.000000 0.000000
vt 1.000000 0.000000
vt 0.000000 0.000000
vt 1.000000 0.000000
vt 1.000000 1.000000
vt 0.000000 1.000000
vt 0.500000 1.000000
vt 0.000000 0.000000
vt 1.000000 0.000000
vt 0.500000 1.000000
vt 0.000000 0.000000
vt 1.000000 0.000000
vt 0.000000 0.000000
vt 1.000000 0.000000
vt 1.000000 1.000000
vt 0.000000 1.000000
vt 0.500000 1.000000
vt 0.000000 0.000000
vt 1.000000 0.000000
vt 0.500000 1.000000
vt 0.000000 0.000000
vt 1.000000 0.000000
vt 0.000000 0.000000
vt 1.000000 0.000000
vt 1.000000 1.000000
vt 0.000000 1.000000
vt 0.500000 1.000000
vt 0.000000 0.000000
vt 1.000000 0.000000
vt 0.500000 1.000000
vt 0.000000 0.000000
vt 1.000000 0.000000
vt 0.000000 0.000000
vt 1.000000 0.000000
vt 1.000000 1.000000
vt 0.000000 1.000000
vt 0.500000 1.000000
vt 0.000000 0.000000
vt 1.000000 0.000000
vt 0.500000 1.000000
vt 0.000000 0.000000
vt 1.000000 0.000000
vt 0.000000 0.000000
vt 1.000000 0.000000
vt 1.000000 1.000000
vt 0.000000 1.000000
vt 0.500000 1.000000
vt 0.000000 0.000000
vt 1.000000 0.000000
vt 0.500000 1.000000
vt 0.000000 0.000000
vt 1.000000 0.000000
vt 0.000000 0.000000
vt 1.000000 0.000000
vt 1.000000 1.000000
vt 0.000000 1.000000
vt 0.500000 1.000000
vt 0.000000 0.000000
vt 1.000000 0.000000
vt 0.500000 1.000000
vt 0.000000 0.000000
vt 1.000000 0.000000
vt 0.000000 0.000000
vt 1.000000 0.000000
vt 1.000000 1.000000
vt 0.000000 1.000000
vt 0.500000 1.000000
vt 0.000000 0.000000
vt 1.000000 0.000000
vt 0.500000 1.000000
vt 0.000000 0.000000
vt 1.000000 0.000000
vt 0.000000 0.000000
vt 1.000000 0.000000
vt 1.000000 1.000000
vt 0.000000 1.000000
vt 0.500000 1.000000
vt 0.000000 0.000000
vt 1.000000 0.000000
vt 0.500000 1.000000
vt 0.000000 0.000000
vt 1.000000 0.000000
vt 0.000000 0.000000
vt 1.000000 0.000000
vt 1.000000 1.000000
vt 0.000000 1.000000
vt 0.500000 1.000000
vt 0.000000 0.000000
vt 1.000000 0.000000
vt 0.500000 1.000000
vt 0.000000 0.000000
vt 1.000000 0.000000
vt 0.000000 0.000000
vt 1.000000 0.000000
vt 1.000000 1.000000
vt 0.000000 1.000000
vt 0.500000 1.000000
vt 0.000000 0.000000
vt 1.000000 0.000000
vt 0.500000 1.000000
vt 0.000000 0.000000
vt 1.000000 0.000000
vt 0.000000 0.000000
vt 1.000000 0.000000
vt 1.000000 1.000000
vt 0.000000 1.000000
vt 0.500000 1.000000
vt 0.000000 0.000000
vt 1.000000 0.000000
vt 0.500000 1.000000
vt 0.000000 0.000000
vt 1.000000 0.000000
vt 0.000000 0.000000
vt 1.000000 0.000000
vt 1.000000 1.000000
vt 0.000000 1.000000
vt 0.500000 1.000000
vt 0.000000 0.000000
vt 1.000000 0.000000
vt 0.500000 1.000000
vt 0.000000 0.000000
vt 1.000000 0.000000
vt 0.000000 0.000000
vt 1.000000 0.000000
vt 1.000000 1.000000
vt 0.000000 1.000000
vt 0.500000 1.000000
vt 0.000000 0.000000
vt 1.000000 0.000000
vt 0.500000 1.000000
vt 0.000000 0.000000
vt 1.000000 0.000000
vt 0.000000 0.000000
vt 1.000000 0.000000
vt 1.000000 1.000000
vt 0.000000 1.000000
vt 0.500000 1.000000
vt 0.000000 0.000000
vt 1.000000 0.000000
vt 0.500000 1.000000
vt 0.000000 0.000000
vt 1.000000 0.000000
vt 0.000000 0.000000
vt 1.000000 0.000000
vt 1.000000 1.000000
vt 0.000000 1.000000
vt 0.500000 1.000000
vt 0.000000 0.000000
vt 1.000000 0.000000
vt 0.500000 1.000000
vt 0.000000 0.000000
vt 1.000000 0.000000
vt 0.000000 0.000000
vt 1.000000 0.000000
vt 1.000000 1.000000
vt 0.000000 1.000000
vt 0.500000 1.000000
vt 0.000000 0.000000
vt 1.000000 0.000000
vt 0.500000 1.000000
vt 0.000000 0.000000
vt 1.000000 0.000000
vt 0.000000 0.000000
vt 1.000000 0.000000
vt 1.000000 1.000000
vt 0.000000 1.000000
vt 0.500000 1.000000
vt 0.000000 0.000000
vt 1.000000 0.000000
vt 0.500000 1.000000
vt 0.000000 0.000000
vt 1.000000 0.000000
vt 0.000000 0.000000
vt 1.000000 0.000000
vt 1.000000 1.000000
vt 0.000000 1.000000
vt 0.500000 1.000000
vt 0.000000 0.000000
vt 1.000000 0.000000
vt 0.500000 1.000000
vt 0.000000 0.000000
vt 1.000000 0.000000
vt 0.000000 0.000000
vt 1.000000 0.000000
vt 1.000000 1.000000
vt 0.000000 1.000000
vt 0.500000 1.000000
vt 0.000000 0.000000
vt 1.000000 0.000000
vt 0.500000 1.000000
vt 0.000000 0.000000
vt 1.000000 0.000000
vt 0.000000 0.000000
vt 1.000000 0.000000
vt 1.000000 1.000000
vt 0.000000 1.000000
vt 0.500000 1.000000
vt 0.000000 0.000000
vt 1.000000 0.000000
vt 0.500000 1.000000
vt 0.000000 0.000000
vt 1.000000 0.000000
vt 0.000000 0.000000
vt 1.000000 0.000000
vt 1.000000 1.000000
vt 0.000000 1.000000
vt 0.500000 1.000000
vt 0.000000 0.000000
vt 1.000000 0.000000
vt 0.500000 1.000000
vt 0.000000 0.000000
vt 1.000000 0.000000
vt 0.000000 0.000000
vt 1.000000 0.000000
vt 1.000000 1.000000
vt 0.000000 1.000000
vt 0.500000 1.000000
vt 0.000000 0.000000
vt 1.000000 0.000000
vt 0.500000 1.000000
vt 0.000000 0.000000
vt 1.000000 0.000000
vt 0.000000 0.000000
vt 1.000000 0.000000
vt 1.000000 1.000000
vt 0.000000 1.000000
vt 0.500000 1.000000
vt 0.000000 0.000000
vt 1.000000 0.000000
vt 0.500000 1.000000
vt 0.000000 0.000000
vt 1.000000 0.000000
vt 0.000000 0.000000
vt 1.000000 0.000000
vt 1.000000 1.000000
vt 0.000000 1.000000
vt 0.500000 1.000000
vt 0.000000 0.000000
vt 1.000000 0.000000
vt 0.500000 1.000000
vt 0.000000 0.000000
vt 1.000000 0.000000
vt 0.000000 0.000000
vt 1.000000 0.000000
vt 1.000000 1.000000
vt 0.000000 1.000000
vt 0.500000 1.000000
vt 0.000000 0.000000
vt 1.000000 0.000000
vt 0.500000 1.000000
vt 0.000000 0.000000
vt 1.000000 0.000000
vt 0.000000 0.000000
vt 1.000000 0.000000
vt 1.000000 1.000000
vt 0.000000 1.000000
vt 0.500000 1.000000
vt 0.000000 0.000000
vt 1.000000 0.000000
vt 0.500000 1.000000
vt 0.000000 0.000000
vt 1.000000 0.000000
vt 0.000000 0.000000
vt 1.000000 0.000000
vt 1.000000 1.000000
vt 0.000000 1.000000
vt 0.500000 1.000000
vt 0.000000 0.000000
vt 1.000000 0.000000
vt 0.500000 1.000000
vt 0.000000 0.000000
vt 1.000000 0.000000
vt 0.000000 0.000000
vt 1.000000 0.000000
vt 1.000000 1.000000
vt 0.000000 1.000000
vt 0.500000 1.000000
vt 0.000000 0.000000
vt 1.000000 0.000000
vt 0.000000 0.000000
vt 1.000000 0.000000
vt 1.000000 1.000000
vt 0.000000 1.000000
vt 0.500000 1.000000
vt 0.000000 0.000000
vt 1.000000 0.000000
vt 0.500000 1.000000
vt 0.000000 0.000000
vt 1.000000 0.000000
vt 0.000000 0.000000
vt 1.000000 0.000000
vt 1.000000 1.000000
vt 0.000000 1.000000
vt 0.500000 1.000000
vt 0.000000 0.000000
vt 1.000000 0.000000
vt 0.500000 1.000000
vt 0.000000 0.000000
vt 1.000000 0.000000
vt 0.000000 0.000000
vt 1.000000 0.000000
vt 1.000000 1.000000
vt 0.000000 1.000000
vt 0.500000 1.000000
vt 0.000000 0.000000
vt 1.000000 0.000000
vt 0.500000 1.000000
vt 0.000000 0.000000
vt 1.000000 0.000000
vt 0.000000 0.000000
vt 1.000000 0.000000
vt 1.000000 1.000000
vt 0.000000 1.000000
vt 0.500000 1.000000
vt 0.000000 0.000000
vt 1.000000 0.000000
vt 0.500000 1.000000
vt 0.000000 0.000000
vt 1.000000 0.000000
vt 0.000000 0.000000
vt 1.000000 0.000000
vt 1.000000 1.000000
vt 0.000000 1.000000
vt 0.500000 1.000000
vt 0.000000 0.000000
vt 1.000000 0.000000
vt 0.500000 1.000000
vt 0.000000 0.000000
vt 1.000000 0.000000
vt 0.000000 0.000000
vt 1.000000 0.000000
vt 1.000000 1.000000
vt 0.000000 1.000000
vt 0.500000 1.000000
vt 0.000000 0.000000
vt 1.000000 0.000000
vt 0.500000 1.000000
vt 0.000000 0.000000
vt 1.000000 0.000000
vt 0.000000 0.000000
vt 1.000000 0.000000
vt 1.000000 1.000000
vt 0.000000 1.000000
vt 0.500000 1.000000
vt 0.000000 0.000000
vt 1.000000 0.000000
vt 0.500000 1.000000
vt 0.000000 0.000000
vt 1.000000 0.000000
vt 0.000000 0.000000
vt 1.000000 0.000000
vt 1.000000 1.000000
vt 0.000000 1.000000
vt 0.500000 1.000000
vt 0.000000 0.000000
vt 1.000000 0.000000
vt 0.500000 1.000000
vt 0.000000 0.000000
vt 1.000000 0.000000
vt 0.000000 0.000000
vt 1.000000 0.000000
vt 1.000000 1.000000
vt 0.000000 1.000000
vt 0.500000 1.000000
vt 0.000000 0.000000
vt 1.000000 0.000000
vt 0.500000 1.000000
vt 0.000000 0.000000
vt 1.000000 0.000000
vt 0.000000 0.000000
vt 1.000000 0.000000
vt 1.000000 1.000000
vt 0.000000 1.000000
vt 0.500000 1.000000
vt 0.000000 0.000000
vt 1.000000 0.000000
vt 0.500000 1.000000
vt 0.000000 0.000000
vt 1.000000 0.000000
vt 0.000000 0.000000
vt 1.000000 0.000000
vt 1.000000 1.000000
vt 0.000000 1.000000
vt 0.500000 1.000000
vt 0.000000 0.000000
vt 1.000000 0.000000
vt 0.500000 1.000000
vt 0.000000 0.000000
vt 1.000000 0.000000
vt 0.000000 0.000000
vt 1.000000 0.000000
vt 1.000000 1.000000
vt 0.000000 1.000000
vt 0.500000 1.000000
vt 0.000000 0.000000
vt 1.000000 0.000000
vt 0.500000 1.000000
vt 0.000000 0.000000
vt 1.000000 0.000000
vt 0.000000 0.000000
vt 1.000000 0.000000
vt 1.000000 1.000000
vt 0.000000 1.000000
vt 0.500000 1.000000
vt 0.000000 0.000000
vt 1.000000 0.000000
vt 0.500000 1.000000
vt 0.000000 0.000000
vt 1.000000 0.000000
vt 0.000000 0.000000
vt 1.000000 0.000000
vt 1.000000 1.000000
vt 0.000000 1.000000
vt 0.500000 1.000000
vt 0.000000 0.000000
vt 1.000000 0.000000
vt 0.500000 1.000000
vt 0.000000 0.000000
vt 1.000000 0.000000
vt 0.000000 0.000000
vt 1.000000 0.000000
vt 1.000000 1.000000
vt 0.000000 1.000000
vt 0.500000 1.000000
vt 0.000000 0.000000
vt 1.000000 0.000000
vt 0.500000 1.000000
vt 0.000000 0.000000
vt 1.000000 0.000000
vt 0.000000 0.000000
vt 1.000000 0.000000
vt 1.000000 1.000000
vt 0.000000 1.000000
vt 0.500000 1.000000
vt 0.000000 0.000000
vt 1.000000 0.000000
vt 0.500000 1.000000
vt 0.000000 0.000000
vt 1.000000 0.000000
vt 0.000000 0.000000
vt 1.000000 0.000000
vt 1.000000 1.000000
vt 0.000000 1.000000
vt 0.500000 1.000000
vt 0.000000 0.000000
vt 1.000000 0.000000
vt 0.500000 1.000000
vt 0.000000 0.000000
vt 1.000000 0.000000
vt 0.000000 0.000000
vt 1.000000 0.000000
vt 1.000000 1.000000
vt 0.000000 1.000000
vt 0.500000 1.000000
vt 0.000000 0.000000
vt 1.000000 0.000000
vt 0.500000 1.000000
vt 0.000000 0.000000
vt 1.000000 0.000000
s 1
usemtl models/caelum/world/environment/rock_granite.png
f 1/1 2/2 3/3
f 4/4 5/5 6/6 7/7
f 8/8 9/9 10/10 11/11
f 12/12 13/13 14/14
f 15/15 16/16 17/17
f 18/18 19/19 20/20 21/21
f 22/22 23/23 24/24 25/25
f 26/26 27/27 28/28
f 29/29 30/30 31/31
f 32/32 33/33 34/34 35/35
f 36/36 37/37 38/38 39/39
f 40/40 41/41 42/42
f 43/43 44/44 45/45
f 46/46 47/47 48/48 49/49
f 50/50 51/51 52/52 53/53
f 54/54 55/55 56/56
f 57/57 58/58 59/59
f 60/60 61/61 62/62 63/63
f 64/64 65/65 66/66 67/67
f 68/68 69/69 70/70
f 71/71 72/72 73/73
f 74/74 75/75 76/76 77/77
f 78/78 79/79 80/80 81/81
f 82/82 83/83 84/84
f 85/85 86/86 87/87
f 88/88 89/89 90/90 91/91
f 92/92 93/93 94/94 95/95
f 96/96 97/97 98/98
f 99/99 100/100 101/101
f 102/102 103/103 104/104 105/105
f 106/106 107/107 108/108 109/109
f 110/110 111/111 112/112
f 113/113 114/114 115/115
f 116/116 117/117 118/118 119/119
f 120/120 121/121 122/122 123/123
f 124/124 125/125 126/126
f 127/127 128/128 129/129
f 130/130 131/131 132/132 133/133
f 134/134 135/135 136/136 137/137
f 138/138 139/139 140/140
usemtl models/caelum/world/resources/ca_vein_iron.png
f 141/141 142/142 143/143
f 144/144 145/145 146/146 147/147
f 148/148 149/149 150/150
f 151/151 152/152 153/153
f 154/154 155/155 156/156 157/157
f 158/158 159/159 160/160
f 161/161 162/162 163/163
f 164/164 165/165 166/166 167/167
f 168/168 169/169 170/170
f 171/171 172/172 173/173
f 174/174 175/175 176/176 177/177
f 178/178 179/179 180/180
f 181/181 182/182 183/183
f 184/184 185/185 186/186 187/187
f 188/188 189/189 190/190
f 191/191 192/192 193/193
f 194/194 195/195 196/196 197/197
f 198/198 199/199 200/200
f 201/201 202/202 203/203
f 204/204 205/205 206/206 207/207
f 208/208 209/209 210/210
f 211/211 212/212 213/213
f 214/214 215/215 216/216 217/217
f 218/218 219/219 220/220
f 221/221 222/222 223/223
f 224/224 225/225 226/226 227/227
f 228/228 229/229 230/230
f 231/231 232/232 233/233
f 234/234 235/235 236/236 237/237
f 238/238 239/239 240/240
f 241/241 242/242 243/243
f 244/244 245/245 246/246 247/247
f 248/248 249/249 250/250
f 251/251 252/252 253/253
f 254/254 255/255 256/256 257/257
f 258/258 259/259 260/260
f 261/261 262/262 263/263
f 264/264 265/265 266/266 267/267
f 268/268 269/269 270/270
f 271/271 272/272 273/273
f 274/274 275/275 276/276 277/277
f 278/278 279/279 280/280
f 281/281 282/282 283/283
f 284/284 285/285 286/286 287/287
f 288/288 289/289 290/290
f 291/291 292/292 293/293
f 294/294 295/295 296/296 297/297
f 298/298 299/299 300/300
f 301/301 302/302 303/303
f 304/304 305/305 306/306 307/307
f 308/308 309/309 310/310
f 311/311 312/312 313/313
f 314/314 315/315 316/316 317/317
f 318/318 319/319 320/320
f 321/321 322/322 323/323
f 324/324 325/325 326/326 327/327
f 328/328 329/329 330/330
f 331/331 332/332 333/333
f 334/334 335/335 336/336 337/337
f 338/338 339/339 340/340
f 341/341 342/342 343/343
f 344/344 345/345 346/346 347/347
f 348/348 349/349 350/350
f 351/351 352/352 353/353
f 354/354 355/355 356/356 357/357
f 358/358 359/359 360/360
f 361/361 362/362 363/363
f 364/364 365/365 366/366 367/367
f 368/368 369/369 370/370
f 371/371 372/372 373/373
f 374/374 375/375 376/376 377/377
f 378/378 379/379 380/380
f 381/381 382/382 383/383
f 384/384 385/385 386/386 387/387
f 388/388 389/389 390/390
f 391/391 392/392 393/393
f 394/394 395/395 396/396 397/397
f 398/398 399/399 400/400
f 401/401 402/402 403/403
f 404/404 405/405 406/406 407/407
f 408/408 409/409 410/410
f 411/411 412/412 413/413
f 414/414 415/415 416/416 417/417
f 418/418 419/419 420/420
f 421/421 422/422 423/423
f 424/424 425/425 426/426 427/427
f 428/428 429/429 430/430
f 431/431 432/432 433/433
f 434/434 435/435 436/436 437/437
f 438/438 439/439 440/440
f 441/441 442/442 443/443
f 444/444 445/445 446/446 447/447
f 448/448 449/449 450/450
f 451/451 452/452 453/453
f 454/454 455/455 456/456 457/457
f 458/458 459/459 460/460
f 461/461 462/462 463/463
f 464/464 465/465 466/466 467/467
f 468/468 469/469 470/470
f 471/471 472/472 473/473
f 474/474 475/475 476/476 477/477
f 478/478 479/479 480/480
f 481/481 482/482 483/483
f 484/484 485/485 486/486 487/487
f 488/488 489/489 490/490
f 491/491 492/492 493/493
f 494/494 495/495 496/496 497/497
f 498/498 499/499 500/500
f 501/501 502/502 503/503
f 504/504 505/505 506/506 507/507
f 508/508 509/509 510/510
f 511/511 512/512 513/513
f 514/514 515/515 516/516 517/517
f 518/518 519/519 520/520
f 521/521 522/522 523/523
f 524/524 525/525 526/526 527/527
f 528/528 529/529 530/530
f 531/531 532/532 533/533
f 534/534 535/535 536/536 537/537
f 538/538 539/539 540/540
f 541/541 542/542 543/543
f 544/544 545/545 546/546 547/547
f 548/548 549/549 550/550
f 551/551 552/552 553/553
f 554/554 555/555 556/556 557/557
f 558/558 559/559 560/560
f 561/561 562/562 563/563
f 564/564 565/565 566/566 567/567
f 568/568 569/569 570/570
f 571/571 572/572 573/573
f 574/574 575/575 576/576 577/577
f 578/578 579/579 580/580
f 581/581 582/582 583/583
f 584/584 585/585 586/586 587/587
f 588/588 589/589 590/590
f 591/591 592/592 593/593
f 594/594 595/595 596/596 597/597
f 598/598 599/599 600/600
f 601/601 602/602 603/603
f 604/604 605/605 606/606 607/607
f 608/608 609/609 610/610
f 611/611 612/612 613/613
f 614/614 615/615 616/616 617/617
f 618/618 619/619 620/620
f 621/621 622/622 623/623
f 624/624 625/625 626/626 627/627
f 628/628 629/629 630/630
f 631/631 632/632 633/633
f 634/634 635/635 636/636 637/637
f 638/638 639/639 640/640
f 641/641 642/642 643/643
f 644/644 645/645 646/646 647/647
f 648/648 649/649 650/650
f 651/651 652/652 653/653
f 654/654 655/655 656/656 657/657
f 658/658 659/659 660/660
f 661/661 662/662 663/663
f 664/664 665/665 666/666 667/667
f 668/668 669/669 670/670
f 671/671 672/672 673/673
f 674/674 675/675 676/676 677/677
f 678/678 679/679 680/680
f 681/681 682/682 683/683
f 684/684 685/685 686/686 687/687
f 688/688 689/689 690/690
f 691/691 692/692 693/693
f 694/694 695/695 696/696 697/697
f 698/698 699/699 700/700
f 701/701 702/702 703/703
f 704/704 705/705 706/706 707/707
f 708/708 709/709 710/710
f 711/711 712/712 713/713
f 714/714 715/715 716/716 717/717
f 718/718 719/719 720/720
f 721/721 722/722 723/723
f 724/724 725/725 726/726 727/727
f 728/728 729/729 730/730
f 731/731 732/732 733/733
f 734/734 735/735 736/736 737/737
f 738/738 739/739 740/740
f 741/741 742/742 743/743
f 744/744 745/745 746/746 747/747
f 748/748 749/749 750/750
f 751/751 752/752 753/753
f 754/754 755/755 756/756 757/757
f 758/758 759/759 760/760
f 761/761 762/762 763/763
f 764/764 765/765 766/766 767/767
f 768/768 769/769 770/770
f 771/771 772/772 773/773 774/774
f 775/775 776/776 777/777
f 778/778 779/779 780/780
f 781/781 782/782 783/783 784/784
f 785/785 786/786 787/787
f 788/788 789/789 790/790
f 791/791 792/792 793/793 794/794
f 795/795 796/796 797/797
f 798/798 799/799 800/800
f 801/801 802/802 803/803 804/804
f 805/805 806/806 807/807
f 808/808 809/809 810/810
f 811/811 812/812 813/813 814/814
f 815/815 816/816 817/817
f 818/818 819/819 820/820
f 821/821 822/822 823/823 824/824
f 825/825 826/826 827/827
f 828/828 829/829 830/830
f 831/831 832/832 833/833 834/834
f 835/835 836/836 837/837
f 838/838 839/839 840/840
f 841/841 842/842 843/843 844/844
f 845/845 846/846 847/847
f 848/848 849/849 850/850
f 851/851 852/852 853/853 854/854
f 855/855 856/856 857/857
f 858/858 859/859 860/860
f 861/861 862/862 863/863 864/864
f 865/865 866/866 867/867
f 868/868 869/869 870/870
f 871/871 872/872 873/873 874/874
f 875/875 876/876 877/877
f 878/878 879/879 880/880
f 881/881 882/882 883/883 884/884
f 885/885 886/886 887/887
f 888/888 889/889 890/890
f 891/891 892/892 893/893 894/894
f 895/895 896/896 897/897
f 898/898 899/899 900/900
f 901/901 902/902 903/903 904/904
f 905/905 906/906 907/907
f 908/908 909/909 910/910
f 911/911 912/912 913/913 914/914
f 915/915 916/916 917/917
f 918/918 919/919 920/920
f 921/921 922/922 923/923 924/924
f 925/925 926/926 927/927
f 928/928 929/929 930/930
f 931/931 932/932 933/933 934/934
f 935/935 936/936 937/937
f 938/938 939/939 940/940
f 941/941 942/942 943/943 944/944
f 945/945 946/946 947/947
f 948/948 949/949 950/950
