# Modelo original generado para Caelum Argenteum.
# Ejes OBJ: X ancho, Y altura, Z profundidad.
o ca_vein_coal2
v 0.000000 0.000000 0.000000
v 40.013424 -0.750141 0.000000
v 33.253099 -1.259458 20.865274
v 40.013424 -0.750141 0.000000
v 45.865513 15.740233 0.000000
v 40.486605 18.090128 25.404071
v 33.253099 -1.259458 20.865274
v 45.865513 15.740233 0.000000
v 29.829667 34.401596 0.000000
v 25.712316 35.870674 16.133670
v 40.486605 18.090128 25.404071
v 7.283342 52.000000 7.186517
v 25.712316 35.870674 16.133670
v 29.829667 34.401596 0.000000
v 0.000000 0.000000 0.000000
v 33.253099 -1.259458 20.865274
v 13.063398 -0.696952 34.722505
v 33.253099 -1.259458 20.865274
v 40.486605 18.090128 25.404071
v 15.631129 16.358166 41.547532
v 13.063398 -0.696952 34.722505
v 40.486605 18.090128 25.404071
v 25.712316 35.870674 16.133670
v 10.830717 35.218312 28.788039
v 15.631129 16.358166 41.547532
v 7.283342 52.000000 7.186517
v 10.830717 35.218312 28.788039
v 25.712316 35.870674 16.133670
v 0.000000 0.000000 0.000000
v 13.063398 -0.696952 34.722505
v -10.397426 1.548292 27.636352
v 13.063398 -0.696952 34.722505
v 15.631129 16.358166 41.547532
v -13.841825 15.856909 36.791562
v -10.397426 1.548292 27.636352
v 15.631129 16.358166 41.547532
v 10.830717 35.218312 28.788039
v -10.696327 36.868460 28.430830
v -13.841825 15.856909 36.791562
v 7.283342 52.000000 7.186517
v -10.696327 36.868460 28.430830
v 10.830717 35.218312 28.788039
v 0.000000 0.000000 0.000000
v -10.397426 1.548292 27.636352
v -31.577537 0.152428 19.813911
v -10.397426 1.548292 27.636352
v -13.841825 15.856909 36.791562
v -31.387751 17.831152 19.694827
v -31.577537 0.152428 19.813911
v -13.841825 15.856909 36.791562
v -10.696327 36.868460 28.430830
v -22.568633 36.276787 14.161107
v -31.387751 17.831152 19.694827
v 7.283342 52.000000 7.186517
v -22.568633 36.276787 14.161107
v -10.696327 36.868460 28.430830
v 0.000000 0.000000 0.000000
v -31.577537 0.152428 19.813911
v -40.806487 -1.543876 0.000000
v -31.577537 0.152428 19.813911
v -31.387751 17.831152 19.694827
v -40.186518 15.862886 0.000000
v -40.806487 -1.543876 0.000000
v -31.387751 17.831152 19.694827
v -22.568633 36.276787 14.161107
v -33.079545 36.813985 0.000000
v -40.186518 15.862886 0.000000
v 7.283342 52.000000 7.186517
v -33.079545 36.813985 0.000000
v -22.568633 36.276787 14.161107
v 0.000000 0.000000 0.000000
v -40.806487 -1.543876 0.000000
v -32.808300 1.295196 -20.586176
v -40.806487 -1.543876 0.000000
v -40.186518 15.862886 0.000000
v -30.753636 17.113858 -19.296940
v -32.808300 1.295196 -20.586176
v -40.186518 15.862886 0.000000
v -33.079545 36.813985 0.000000
v -28.903251 34.633046 -18.135881
v -30.753636 17.113858 -19.296940
v 7.283342 52.000000 7.186517
v -28.903251 34.633046 -18.135881
v -33.079545 36.813985 0.000000
v 0.000000 0.000000 0.000000
v -32.808300 1.295196 -20.586176
v -11.720479 -0.536384 -31.153027
v -32.808300 1.295196 -20.586176
v -30.753636 17.113858 -19.296940
v -13.089783 15.956419 -34.792636
v -11.720479 -0.536384 -31.153027
v -30.753636 17.113858 -19.296940
v -28.903251 34.633046 -18.135881
v -9.137336 35.632499 -24.287035
v -13.089783 15.956419 -34.792636
v 7.283342 52.000000 7.186517
v -9.137336 35.632499 -24.287035
v -28.903251 34.633046 -18.135881
v 0.000000 0.000000 0.000000
v -11.720479 -0.536384 -31.153027
v 11.321383 1.368763 -30.092228
v -11.720479 -0.536384 -31.153027
v -13.089783 15.956419 -34.792636
v 15.758823 15.856057 -41.886943
v 11.321383 1.368763 -30.092228
v -13.089783 15.956419 -34.792636
v -9.137336 35.632499 -24.287035
v 9.020922 34.723496 -23.977605
v 15.758823 15.856057 -41.886943
v 7.283342 52.000000 7.186517
v 9.020922 34.723496 -23.977605
v -9.137336 35.632499 -24.287035
v 0.000000 0.000000 0.000000
v 11.321383 1.368763 -30.092228
v 26.928377 0.011510 -16.896710
v 11.321383 1.368763 -30.092228
v 15.758823 15.856057 -41.886943
v 33.644591 15.673708 -21.110923
v 26.928377 0.011510 -16.896710
v 15.758823 15.856057 -41.886943
v 9.020922 34.723496 -23.977605
v 28.566427 37.042729 -17.924534
v 33.644591 15.673708 -21.110923
v 7.283342 52.000000 7.186517
v 28.566427 37.042729 -17.924534
v 9.020922 34.723496 -23.977605
v 0.000000 0.000000 0.000000
v 26.928377 0.011510 -16.896710
v 40.013424 -0.750141 0.000000
v 26.928377 0.011510 -16.896710
v 33.644591 15.673708 -21.110923
v 45.865513 15.740233 0.000000
v 40.013424 -0.750141 0.000000
v 33.644591 15.673708 -21.110923
v 28.566427 37.042729 -17.924534
v 29.829667 34.401596 0.000000
v 45.865513 15.740233 0.000000
v 7.283342 52.000000 7.186517
v 29.829667 34.401596 0.000000
v 28.566427 37.042729 -17.924534
v 31.301636 27.309709 2.073489
v 34.663576 30.202028 6.853770
v 36.624984 31.010205 2.073489
v 36.624984 31.010205 2.073489
v 34.663576 30.202028 6.853770
v 34.383483 37.258923 6.455511
v 36.038916 37.303129 2.073489
v 31.301636 40.504782 2.073489
v 36.038916 37.303129 2.073489
v 34.383483 37.258923 6.455511
v 31.301636 27.309709 2.073489
v 30.132106 30.766126 7.883709
v 34.663576 30.202028 6.853770
v 34.663576 30.202028 6.853770
v 30.132106 30.766126 7.883709
v 30.189490 37.533632 7.598628
v 34.383483 37.258923 6.455511
v 31.301636 40.504782 2.073489
v 34.383483 37.258923 6.455511
v 30.189490 37.533632 7.598628
v 31.301636 27.309709 2.073489
v 27.353397 30.178550 4.229479
v 30.132106 30.766126 7.883709
v 30.132106 30.766126 7.883709
v 27.353397 30.178550 4.229479
v 27.489943 37.502975 4.154916
v 30.189490 37.533632 7.598628
v 31.301636 40.504782 2.073489
v 30.189490 37.533632 7.598628
v 27.489943 37.502975 4.154916
v 31.301636 27.309709 2.073489
v 27.317008 30.849029 -0.102372
v 27.353397 30.178550 4.229479
v 27.353397 30.178550 4.229479
v 27.317008 30.849029 -0.102372
v 26.301380 37.648512 -0.656969
v 27.489943 37.502975 4.154916
v 31.301636 40.504782 2.073489
v 27.489943 37.502975 4.154916
v 26.301380 37.648512 -0.656969
v 31.301636 27.309709 2.073489
v 30.119192 30.828056 -3.800891
v 27.317008 30.849029 -0.102372
v 27.317008 30.849029 -0.102372
v 30.119192 30.828056 -3.800891
v 30.049820 36.780178 -4.145530
v 26.301380 37.648512 -0.656969
v 31.301636 40.504782 2.073489
v 26.301380 37.648512 -0.656969
v 30.049820 36.780178 -4.145530
v 31.301636 27.309709 2.073489
v 34.022774 30.552022 -1.795647
v 30.119192 30.828056 -3.800891
v 30.119192 30.828056 -3.800891
v 34.022774 30.552022 -1.795647
v 34.904399 37.510947 -3.049214
v 30.049820 36.780178 -4.145530
v 31.301636 40.504782 2.073489
v 30.049820 36.780178 -4.145530
v 34.904399 37.510947 -3.049214
v 31.301636 27.309709 2.073489
v 36.624984 31.010205 2.073489
v 34.022774 30.552022 -1.795647
v 34.022774 30.552022 -1.795647
v 36.624984 31.010205 2.073489
v 36.038916 37.303129 2.073489
v 34.904399 37.510947 -3.049214
v 31.301636 40.504782 2.073489
v 34.904399 37.510947 -3.049214
v 36.038916 37.303129 2.073489
v 33.542843 23.548159 18.694661
v 37.643427 26.936839 22.282518
v 40.372716 26.167309 18.694661
v 40.372716 26.167309 18.694661
v 37.643427 26.936839 22.282518
v 38.318751 32.965989 22.873401
v 39.393946 33.300407 18.694661
v 33.542843 35.860862 18.694661
v 39.393946 33.300407 18.694661
v 38.318751 32.965989 22.873401
v 33.542843 23.548159 18.694661
v 31.992415 26.272364 23.434450
v 37.643427 26.936839 22.282518
v 37.643427 26.936839 22.282518
v 31.992415 26.272364 23.434450
v 32.001863 32.351742 23.405568
v 38.318751 32.965989 22.873401
v 33.542843 35.860862 18.694661
v 38.318751 32.965989 22.873401
v 32.001863 32.351742 23.405568
v 33.542843 23.548159 18.694661
v 28.018741 26.721623 20.550887
v 31.992415 26.272364 23.434450
v 31.992415 26.272364 23.434450
v 28.018741 26.721623 20.550887
v 26.583265 32.974231 21.033241
v 32.001863 32.351742 23.405568
v 33.542843 35.860862 18.694661
v 32.001863 32.351742 23.405568
v 26.583265 32.974231 21.033241
v 33.542843 23.548159 18.694661
v 26.849511 26.349568 16.445545
v 28.018741 26.721623 20.550887
v 28.018741 26.721623 20.550887
v 26.849511 26.349568 16.445545
v 26.532870 32.785671 16.339147
v 26.583265 32.974231 21.033241
v 33.542843 35.860862 18.694661
v 26.583265 32.974231 21.033241
v 26.532870 32.785671 16.339147
v 33.542843 23.548159 18.694661
v 32.126063 26.782025 14.363445
v 26.849511 26.349568 16.445545
v 26.849511 26.349568 16.445545
v 32.126063 26.782025 14.363445
v 32.074620 32.744701 14.206180
v 26.532870 32.785671 16.339147
v 33.542843 35.860862 18.694661
v 26.532870 32.785671 16.339147
v 32.074620 32.744701 14.206180
v 33.542843 23.548159 18.694661
v 37.764054 26.789886 15.001260
v 32.126063 26.782025 14.363445
v 32.126063 26.782025 14.363445
v 37.764054 26.789886 15.001260
v 37.799938 32.595465 14.969862
v 32.074620 32.744701 14.206180
v 33.542843 35.860862 18.694661
v 32.074620 32.744701 14.206180
v 37.799938 32.595465 14.969862
v 33.542843 23.548159 18.694661
v 40.372716 26.167309 18.694661
v 37.764054 26.789886 15.001260
v 37.764054 26.789886 15.001260
v 40.372716 26.167309 18.694661
v 39.393946 33.300407 18.694661
v 37.799938 32.595465 14.969862
v 33.542843 35.860862 18.694661
v 37.799938 32.595465 14.969862
v 39.393946 33.300407 18.694661
v 3.076834 22.562002 31.774680
v 6.715261 24.783160 38.102518
v 7.997094 25.161848 31.774680
v 7.997094 25.161848 31.774680
v 6.715261 24.783160 38.102518
v 7.238489 29.754080 39.012498
v 8.488405 29.820048 31.774680
v 3.076834 32.367656 31.774680
v 8.488405 29.820048 31.774680
v 7.238489 29.754080 39.012498
v 3.076834 22.562002 31.774680
v 1.646657 25.217256 40.465272
v 6.715261 24.783160 38.102518
v 6.715261 24.783160 38.102518
v 1.646657 25.217256 40.465272
v 1.776995 29.852061 39.673257
v 7.238489 29.754080 39.012498
v 3.076834 32.367656 31.774680
v 7.238489 29.754080 39.012498
v 1.776995 29.852061 39.673257
v 3.076834 22.562002 31.774680
v -1.732150 25.073599 34.986674
v 1.646657 25.217256 40.465272
v 1.646657 25.217256 40.465272
v -1.732150 25.073599 34.986674
v -2.063711 29.867908 35.208128
v 1.776995 29.852061 39.673257
v 3.076834 32.367656 31.774680
v 1.776995 29.852061 39.673257
v -2.063711 29.867908 35.208128
v 3.076834 22.562002 31.774680
v -2.588003 25.027411 27.991048
v -1.732150 25.073599 34.986674
v -1.732150 25.073599 34.986674
v -2.588003 25.027411 27.991048
v -2.802261 29.967268 27.847942
v -2.063711 29.867908 35.208128
v 3.076834 32.367656 31.774680
v -2.063711 29.867908 35.208128
v -2.802261 29.967268 27.847942
v 3.076834 22.562002 31.774680
v 1.557399 24.913541 22.541704
v -2.588003 25.027411 27.991048
v -2.588003 25.027411 27.991048
v 1.557399 24.913541 22.541704
v 1.943750 29.884344 24.889403
v -2.802261 29.967268 27.847942
v 3.076834 32.367656 31.774680
v -2.802261 29.967268 27.847942
v 1.943750 29.884344 24.889403
v 3.076834 22.562002 31.774680
v 6.453470 24.958309 25.902141
v 1.557399 24.913541 22.541704
v 1.557399 24.913541 22.541704
v 6.453470 24.958309 25.902141
v 6.741726 30.020380 25.400815
v 1.943750 29.884344 24.889403
v 3.076834 32.367656 31.774680
v 1.943750 29.884344 24.889403
v 6.741726 30.020380 25.400815
v 3.076834 22.562002 31.774680
v 7.997094 25.161848 31.774680
v 6.453470 24.958309 25.902141
v 6.453470 24.958309 25.902141
v 7.997094 25.161848 31.774680
v 8.488405 29.820048 31.774680
v 6.741726 30.020380 25.400815
v 3.076834 32.367656 31.774680
v 6.741726 30.020380 25.400815
v 8.488405 29.820048 31.774680
v -14.218660 22.153539 25.188629
v -11.347577 25.755488 30.644052
v -8.531536 25.926159 25.188629
v -8.531536 25.926159 25.188629
v -11.347577 25.755488 30.644052
v -11.408064 31.454682 30.529119
v -9.295583 32.464638 25.188629
v -14.218660 35.206163 25.188629
v -9.295583 32.464638 25.188629
v -11.408064 31.454682 30.529119
v -14.218660 22.153539 25.188629
v -15.362218 25.059734 32.780681
v -11.347577 25.755488 30.644052
v -11.347577 25.755488 30.644052
v -15.362218 25.059734 32.780681
v -15.434093 31.493525 33.257854
v -11.408064 31.454682 30.529119
v -14.218660 35.206163 25.188629
v -11.408064 31.454682 30.529119
v -15.434093 31.493525 33.257854
v -14.218660 22.153539 25.188629
v -18.957072 25.791630 28.646393
v -15.362218 25.059734 32.780681
v -15.362218 25.059734 32.780681
v -18.957072 25.791630 28.646393
v -19.671471 31.897336 29.167712
v -15.434093 31.493525 33.257854
v -14.218660 35.206163 25.188629
v -15.434093 31.493525 33.257854
v -19.671471 31.897336 29.167712
v -14.218660 22.153539 25.188629
v -19.207779 24.938788 21.547915
v -18.957072 25.791630 28.646393
v -18.957072 25.791630 28.646393
v -19.207779 24.938788 21.547915
v -19.850396 32.294438 21.078978
v -19.671471 31.897336 29.167712
v -14.218660 35.206163 25.188629
v -19.671471 31.897336 29.167712
v -19.850396 32.294438 21.078978
v -14.218660 22.153539 25.188629
v -15.394114 25.780209 17.384823
v -19.207779 24.938788 21.547915
v -19.207779 24.938788 21.547915
v -15.394114 25.780209 17.384823
v -15.393798 31.402207 17.386920
v -19.850396 32.294438 21.078978
v -14.218660 35.206163 25.188629
v -19.850396 32.294438 21.078978
v -15.393798 31.402207 17.386920
v -14.218660 22.153539 25.188629
v -11.417998 24.874631 19.867015
v -15.394114 25.780209 17.384823
v -15.394114 25.780209 17.384823
v -11.417998 24.874631 19.867015
v -10.953609 32.223090 18.984616
v -15.393798 31.402207 17.386920
v -14.218660 35.206163 25.188629
v -15.393798 31.402207 17.386920
v -10.953609 32.223090 18.984616
v -14.218660 22.153539 25.188629
v -8.531536 25.926159 25.188629
v -11.417998 24.874631 19.867015
v -11.417998 24.874631 19.867015
v -8.531536 25.926159 25.188629
v -9.295583 32.464638 25.188629
v -10.953609 32.223090 18.984616
v -14.218660 35.206163 25.188629
v -10.953609 32.223090 18.984616
v -9.295583 32.464638 25.188629
v -32.677727 23.165640 5.284130
v -29.647460 24.713227 10.687973
v -26.577546 25.009472 5.284130
v -26.577546 25.009472 5.284130
v -29.647460 24.713227 10.687973
v -29.069136 28.589398 11.719292
v -26.336726 28.442827 5.284130
v -32.677727 30.538061 5.284130
v -26.336726 28.442827 5.284130
v -29.069136 28.589398 11.719292
v -32.677727 23.165640 5.284130
v -34.094157 24.955382 14.109537
v -29.647460 24.713227 10.687973
v -29.647460 24.713227 10.687973
v -34.094157 24.955382 14.109537
v -33.910848 28.803107 12.967388
v -29.069136 28.589398 11.719292
v -32.677727 30.538061 5.284130
v -29.069136 28.589398 11.719292
v -33.910848 28.803107 12.967388
v -32.677727 23.165640 5.284130
v -38.172729 25.210544 9.047435
v -34.094157 24.955382 14.109537
v -34.094157 24.955382 14.109537
v -38.172729 25.210544 9.047435
v -37.013340 28.746279 8.253416
v -33.910848 28.803107 12.967388
v -32.677727 30.538061 5.284130
v -33.910848 28.803107 12.967388
v -37.013340 28.746279 8.253416
v -32.677727 23.165640 5.284130
v -38.543296 24.703382 1.267039
v -38.172729 25.210544 9.047435
v -38.172729 25.210544 9.047435
v -38.543296 24.703382 1.267039
v -38.162329 28.815824 1.527948
v -37.013340 28.746279 8.253416
v -32.677727 30.538061 5.284130
v -37.013340 28.746279 8.253416
v -38.162329 28.815824 1.527948
v -32.677727 23.165640 5.284130
v -33.948415 25.133988 -2.633199
v -38.543296 24.703382 1.267039
v -38.543296 24.703382 1.267039
v -33.948415 25.133988 -2.633199
v -34.055809 28.551105 -3.302340
v -38.162329 28.815824 1.527948
v -32.677727 30.538061 5.284130
v -38.162329 28.815824 1.527948
v -34.055809 28.551105 -3.302340
v -32.677727 23.165640 5.284130
v -29.122959 25.003411 -1.055048
v -33.948415 25.133988 -2.633199
v -33.948415 25.133988 -2.633199
v -29.122959 25.003411 -1.055048
v -28.730158 28.427434 -1.755526
v -34.055809 28.551105 -3.302340
v -32.677727 30.538061 5.284130
v -34.055809 28.551105 -3.302340
v -28.730158 28.427434 -1.755526
v -32.677727 23.165640 5.284130
v -26.577546 25.009472 5.284130
v -29.122959 25.003411 -1.055048
v -29.122959 25.003411 -1.055048
v -26.577546 25.009472 5.284130
v -26.336726 28.442827 5.284130
v -28.730158 28.427434 -1.755526
v -32.677727 30.538061 5.284130
v -28.730158 28.427434 -1.755526
v -26.336726 28.442827 5.284130
v -30.226331 10.710169 -6.494757
v -25.103215 12.837053 -1.323652
v -23.785927 12.949508 -6.494757
v -23.785927 12.949508 -6.494757
v -25.103215 12.837053 -1.323652
v -26.547203 17.367935 -2.781166
v -23.171250 17.623348 -6.494757
v -30.226331 19.881598 -6.494757
v -23.171250 17.623348 -6.494757
v -26.547203 17.367935 -2.781166
v -30.226331 10.710169 -6.494757
v -31.691747 13.327838 -1.326696
v -25.103215 12.837053 -1.323652
v -25.103215 12.837053 -1.323652
v -31.691747 13.327838 -1.326696
v -31.577195 17.897753 -1.730683
v -26.547203 17.367935 -2.781166
v -30.226331 19.881598 -6.494757
v -26.547203 17.367935 -2.781166
v -31.577195 17.897753 -1.730683
v -30.226331 10.710169 -6.494757
v -36.689114 13.042575 -3.989522
v -31.691747 13.327838 -1.326696
v -31.691747 13.327838 -1.326696
v -36.689114 13.042575 -3.989522
v -35.900378 17.332558 -4.295268
v -31.577195 17.897753 -1.730683
v -30.226331 19.881598 -6.494757
v -31.577195 17.897753 -1.730683
v -35.900378 17.332558 -4.295268
v -30.226331 10.710169 -6.494757
v -35.776108 12.849148 -8.646074
v -36.689114 13.042575 -3.989522
v -36.689114 13.042575 -3.989522
v -35.776108 12.849148 -8.646074
v -36.126262 17.473054 -8.781807
v -35.900378 17.332558 -4.295268
v -30.226331 19.881598 -6.494757
v -35.900378 17.332558 -4.295268
v -36.126262 17.473054 -8.781807
v -30.226331 10.710169 -6.494757
v -31.718646 13.233900 -11.757683
v -35.776108 12.849148 -8.646074
v -35.776108 12.849148 -8.646074
v -31.718646 13.233900 -11.757683
v -31.875033 17.621203 -12.309211
v -36.126262 17.473054 -8.781807
v -30.226331 19.881598 -6.494757
v -36.126262 17.473054 -8.781807
v -31.875033 17.621203 -12.309211
v -30.226331 10.710169 -6.494757
v -26.132109 13.268682 -10.627330
v -31.718646 13.233900 -11.757683
v -31.718646 13.233900 -11.757683
v -26.132109 13.268682 -10.627330
v -25.353340 17.279416 -11.413394
v -31.875033 17.621203 -12.309211
v -30.226331 19.881598 -6.494757
v -31.875033 17.621203 -12.309211
v -25.353340 17.279416 -11.413394
v -30.226331 10.710169 -6.494757
v -23.785927 12.949508 -6.494757
v -26.132109 13.268682 -10.627330
v -26.132109 13.268682 -10.627330
v -23.785927 12.949508 -6.494757
v -23.171250 17.623348 -6.494757
v -25.353340 17.279416 -11.413394
v -30.226331 19.881598 -6.494757
v -25.353340 17.279416 -11.413394
v -23.171250 17.623348 -6.494757
v -11.149480 17.318662 -23.371349
v -7.370063 19.658885 -18.623791
v -5.594980 19.200879 -23.371349
v -5.594980 19.200879 -23.371349
v -7.370063 19.658885 -18.623791
v -8.235593 23.233829 -19.711036
v -6.130726 23.728615 -23.371349
v -11.149480 25.455207 -23.371349
v -6.130726 23.728615 -23.371349
v -8.235593 23.233829 -19.711036
v -11.149480 17.318662 -23.371349
v -12.373964 19.027129 -17.997115
v -7.370063 19.658885 -18.623791
v -7.370063 19.658885 -18.623791
v -12.373964 19.027129 -17.997115
v -12.178368 23.500060 -18.855582
v -8.235593 23.233829 -19.711036
v -11.149480 25.455207 -23.371349
v -8.235593 23.233829 -19.711036
v -12.178368 23.500060 -18.855582
v -11.149480 17.318662 -23.371349
v -16.574881 19.083077 -20.754027
v -12.373964 19.027129 -17.997115
v -12.373964 19.027129 -17.997115
v -16.574881 19.083077 -20.754027
v -15.879671 23.689415 -21.089410
v -12.178368 23.500060 -18.855582
v -11.149480 25.455207 -23.371349
v -12.178368 23.500060 -18.855582
v -15.879671 23.689415 -21.089410
v -11.149480 17.318662 -23.371349
v -15.508395 19.425084 -25.474177
v -16.574881 19.083077 -20.754027
v -16.574881 19.083077 -20.754027
v -15.508395 19.425084 -25.474177
v -16.476637 23.765421 -25.941276
v -15.879671 23.689415 -21.089410
v -11.149480 25.455207 -23.371349
v -15.879671 23.689415 -21.089410
v -16.476637 23.765421 -25.941276
v -11.149480 17.318662 -23.371349
v -12.354430 19.530302 -28.659846
v -15.508395 19.425084 -25.474177
v -15.508395 19.425084 -25.474177
v -12.354430 19.530302 -28.659846
v -12.194778 23.706667 -27.959140
v -16.476637 23.765421 -25.941276
v -11.149480 25.455207 -23.371349
v -16.476637 23.765421 -25.941276
v -12.194778 23.706667 -27.959140
v -11.149480 17.318662 -23.371349
v -7.280722 19.357247 -28.231133
v -12.354430 19.530302 -28.659846
v -12.354430 19.530302 -28.659846
v -7.280722 19.357247 -28.231133
v -7.815594 23.571090 -27.559248
v -12.194778 23.706667 -27.959140
v -11.149480 25.455207 -23.371349
v -12.194778 23.706667 -27.959140
v -7.815594 23.571090 -27.559248
v -11.149480 17.318662 -23.371349
v -5.594980 19.200879 -23.371349
v -7.280722 19.357247 -28.231133
v -7.280722 19.357247 -28.231133
v -5.594980 19.200879 -23.371349
v -6.130726 23.728615 -23.371349
v -7.815594 23.571090 -27.559248
v -11.149480 25.455207 -23.371349
v -7.815594 23.571090 -27.559248
v -6.130726 23.728615 -23.371349
v 5.493398 25.532172 -28.951894
v 9.253318 28.714040 -22.774214
v 11.932502 28.720820 -28.951894
v 11.932502 28.720820 -28.951894
v 9.253318 28.714040 -22.774214
v 9.930697 34.405967 -21.661256
v 10.883111 34.362200 -28.951894
v 5.493398 36.934056 -28.951894
v 10.883111 34.362200 -28.951894
v 9.930697 34.405967 -21.661256
v 5.493398 25.532172 -28.951894
v 4.167419 27.943937 -21.339852
v 9.253318 28.714040 -22.774214
v 9.253318 28.714040 -22.774214
v 4.167419 27.943937 -21.339852
v 4.331756 34.105327 -22.283263
v 9.930697 34.405967 -21.661256
v 5.493398 36.934056 -28.951894
v 9.930697 34.405967 -21.661256
v 4.331756 34.105327 -22.283263
v 5.493398 25.532172 -28.951894
v -1.084743 28.735174 -24.801114
v 4.167419 27.943937 -21.339852
v 4.167419 27.943937 -21.339852
v -1.084743 28.735174 -24.801114
v 0.721377 34.377581 -25.940768
v 4.331756 34.105327 -22.283263
v 5.493398 36.934056 -28.951894
v 4.331756 34.105327 -22.283263
v 0.721377 34.377581 -25.940768
v 5.493398 25.532172 -28.951894
v 0.654846 28.057080 -32.005000
v -1.084743 28.735174 -24.801114
v -1.084743 28.735174 -24.801114
v 0.654846 28.057080 -32.005000
v -1.172192 33.733871 -33.157854
v 0.721377 34.377581 -25.940768
v 5.493398 36.934056 -28.951894
v 0.721377 34.377581 -25.940768
v -1.172192 33.733871 -33.157854
v 5.493398 25.532172 -28.951894
v 3.869265 28.738105 -38.275543
v 0.654846 28.057080 -32.005000
v 0.654846 28.057080 -32.005000
v 3.869265 28.738105 -38.275543
v 3.997678 34.362943 -37.538366
v -1.172192 33.733871 -33.157854
v 5.493398 36.934056 -28.951894
v -1.172192 33.733871 -33.157854
v 3.997678 34.362943 -37.538366
v 5.493398 25.532172 -28.951894
v 9.548846 27.997626 -35.615137
v 3.869265 28.738105 -38.275543
v 3.869265 28.738105 -38.275543
v 9.548846 27.997626 -35.615137
v 9.419222 34.446690 -35.402161
v 3.997678 34.362943 -37.538366
v 5.493398 36.934056 -28.951894
v 3.997678 34.362943 -37.538366
v 9.419222 34.446690 -35.402161
v 5.493398 25.532172 -28.951894
v 11.932502 28.720820 -28.951894
v 9.548846 27.997626 -35.615137
v 9.548846 27.997626 -35.615137
v 11.932502 28.720820 -28.951894
v 10.883111 34.362200 -28.951894
v 9.419222 34.446690 -35.402161
v 5.493398 36.934056 -28.951894
v 9.419222 34.446690 -35.402161
v 10.883111 34.362200 -28.951894
v 25.510224 20.616212 -22.830593
v 30.460548 23.545443 -18.581172
v 33.766922 23.226866 -22.830593
v 33.766922 23.226866 -22.830593
v 30.460548 23.545443 -18.581172
v 30.122838 29.546793 -18.871067
v 32.732099 30.027662 -22.830593
v 25.510224 32.777271 -22.830593
v 32.732099 30.027662 -22.830593
v 30.122838 29.546793 -18.871067
v 25.510224 20.616212 -22.830593
v 23.721649 23.885124 -17.466192
v 30.460548 23.545443 -18.581172
v 30.460548 23.545443 -18.581172
v 23.721649 23.885124 -17.466192
v 23.648283 29.724944 -17.246150
v 30.122838 29.546793 -18.871067
v 25.510224 32.777271 -22.830593
v 30.122838 29.546793 -18.871067
v 23.648283 29.724944 -17.246150
v 25.510224 20.616212 -22.830593
v 17.321828 24.159613 -20.131146
v 23.721649 23.885124 -17.466192
v 23.721649 23.885124 -17.466192
v 17.321828 24.159613 -20.131146
v 17.954520 29.871760 -20.339724
v 23.648283 29.724944 -17.246150
v 25.510224 32.777271 -22.830593
v 23.648283 29.724944 -17.246150
v 17.954520 29.871760 -20.339724
v 25.510224 20.616212 -22.830593
v 17.772237 24.107305 -25.381554
v 17.321828 24.159613 -20.131146
v 17.321828 24.159613 -20.131146
v 17.772237 24.107305 -25.381554
v 18.735427 29.514147 -25.064022
v 17.954520 29.871760 -20.339724
v 25.510224 32.777271 -22.830593
v 17.954520 29.871760 -20.339724
v 18.735427 29.514147 -25.064022
v 25.510224 20.616212 -22.830593
v 23.871826 23.126409 -27.744573
v 17.772237 24.107305 -25.381554
v 17.772237 24.107305 -25.381554
v 23.871826 23.126409 -27.744573
v 23.490574 29.539352 -28.888046
v 18.735427 29.514147 -25.064022
v 25.510224 32.777271 -22.830593
v 18.735427 29.514147 -25.064022
v 23.490574 29.539352 -28.888046
v 25.510224 20.616212 -22.830593
v 29.986102 23.743276 -26.672743
v 23.871826 23.126409 -27.744573
v 23.871826 23.126409 -27.744573
v 29.986102 23.743276 -26.672743
v 31.275332 30.208128 -27.779435
v 23.490574 29.539352 -28.888046
v 25.510224 32.777271 -22.830593
v 23.490574 29.539352 -28.888046
v 31.275332 30.208128 -27.779435
v 25.510224 20.616212 -22.830593
v 33.766922 23.226866 -22.830593
v 29.986102 23.743276 -26.672743
v 29.986102 23.743276 -26.672743
v 33.766922 23.226866 -22.830593
v 32.732099 30.027662 -22.830593
v 31.275332 30.208128 -27.779435
v 25.510224 32.777271 -22.830593
v 31.275332 30.208128 -27.779435
v 32.732099 30.027662 -22.830593
v -29.188980 33.622937 -9.901200
v -28.709255 31.206020 -11.231005
v 19.780063 36.433681 -1.765891
v 19.540201 37.642139 -1.100989
v -28.613661 33.622937 -12.641457
v -28.709255 31.206020 -11.231005
v -29.188980 33.622937 -9.901200
v 19.827860 37.642139 -2.471118
v 19.540201 37.642139 -1.100989
v 19.780063 36.433681 -1.765891
v -28.709255 31.206020 -11.231005
v -28.133936 31.206020 -13.971261
v 20.067723 36.433681 -3.136020
v 19.780063 36.433681 -1.765891
v -28.613661 33.622937 -12.641457
v -28.133936 31.206020 -13.971261
v -28.709255 31.206020 -11.231005
v 19.827860 37.642139 -2.471118
v 19.780063 36.433681 -1.765891
v 20.067723 36.433681 -3.136020
v -28.133936 31.206020 -13.971261
v -28.038342 33.622937 -15.381714
v 20.115520 37.642139 -3.841246
v 20.067723 36.433681 -3.136020
v -28.613661 33.622937 -12.641457
v -28.038342 33.622937 -15.381714
v -28.133936 31.206020 -13.971261
v 19.827860 37.642139 -2.471118
v 20.067723 36.433681 -3.136020
v 20.115520 37.642139 -3.841246
v -28.038342 33.622937 -15.381714
v -28.518067 36.039853 -14.051910
v 19.875657 38.850597 -3.176344
v 20.115520 37.642139 -3.841246
v -28.613661 33.622937 -12.641457
v -28.518067 36.039853 -14.051910
v -28.038342 33.622937 -15.381714
v 19.827860 37.642139 -2.471118
v 20.115520 37.642139 -3.841246
v 19.875657 38.850597 -3.176344
v -28.518067 36.039853 -14.051910
v -29.093387 36.039853 -11.311653
v 19.587997 38.850597 -1.806216
v 19.875657 38.850597 -3.176344
v -28.613661 33.622937 -12.641457
v -29.093387 36.039853 -11.311653
v -28.518067 36.039853 -14.051910
v 19.827860 37.642139 -2.471118
v 19.875657 38.850597 -3.176344
v 19.587997 38.850597 -1.806216
v -29.093387 36.039853 -11.311653
v -29.188980 33.622937 -9.901200
v 19.540201 37.642139 -1.100989
v 19.587997 38.850597 -1.806216
v -28.613661 33.622937 -12.641457
v -29.188980 33.622937 -9.901200
v -29.093387 36.039853 -11.311653
v 19.827860 37.642139 -2.471118
v 19.587997 38.850597 -1.806216
v 19.540201 37.642139 -1.100989
v -16.368274 37.955352 -4.150981
v -16.470034 35.547892 -5.577089
v 33.199812 30.742424 0.365339
v 33.250693 31.946153 1.078393
v -15.996786 37.955352 -6.926228
v -16.470034 35.547892 -5.577089
v -16.368274 37.955352 -4.150981
v 33.436436 31.946153 -0.309230
v 33.250693 31.946153 1.078393
v 33.199812 30.742424 0.365339
v -16.470034 35.547892 -5.577089
v -16.098547 35.547892 -8.352336
v 33.385556 30.742424 -1.022284
v 33.199812 30.742424 0.365339
v -15.996786 37.955352 -6.926228
v -16.098547 35.547892 -8.352336
v -16.470034 35.547892 -5.577089
v 33.436436 31.946153 -0.309230
v 33.199812 30.742424 0.365339
v 33.385556 30.742424 -1.022284
v -16.098547 35.547892 -8.352336
v -15.625299 37.955352 -9.701475
v 33.622180 31.946153 -1.696854
v 33.385556 30.742424 -1.022284
v -15.996786 37.955352 -6.926228
v -15.625299 37.955352 -9.701475
v -16.098547 35.547892 -8.352336
v 33.436436 31.946153 -0.309230
v 33.385556 30.742424 -1.022284
v 33.622180 31.946153 -1.696854
v -15.625299 37.955352 -9.701475
v -15.523539 40.362811 -8.275367
v 33.673060 33.149883 -0.983800
v 33.622180 31.946153 -1.696854
v -15.996786 37.955352 -6.926228
v -15.523539 40.362811 -8.275367
v -15.625299 37.955352 -9.701475
v 33.436436 31.946153 -0.309230
v 33.622180 31.946153 -1.696854
v 33.673060 33.149883 -0.983800
v -15.523539 40.362811 -8.275367
v -15.895026 40.362811 -5.500120
v 33.487316 33.149883 0.403824
v 33.673060 33.149883 -0.983800
v -15.996786 37.955352 -6.926228
v -15.895026 40.362811 -5.500120
v -15.523539 40.362811 -8.275367
v 33.436436 31.946153 -0.309230
v 33.673060 33.149883 -0.983800
v 33.487316 33.149883 0.403824
v -15.895026 40.362811 -5.500120
v -16.368274 37.955352 -4.150981
v 33.250693 31.946153 1.078393
v 33.487316 33.149883 0.403824
v -15.996786 37.955352 -6.926228
v -16.368274 37.955352 -4.150981
v -15.895026 40.362811 -5.500120
v 33.436436 31.946153 -0.309230
v 33.487316 33.149883 0.403824
v 33.250693 31.946153 1.078393
v -13.898675 31.544294 0.541437
v -14.359206 29.121131 -0.783778
v 13.980663 29.222869 -9.339317
v 14.210929 30.434450 -8.676710
v -14.644287 31.544294 -2.157464
v -14.359206 29.121131 -0.783778
v -13.898675 31.544294 0.541437
v 13.838123 30.434450 -10.026160
v 14.210929 30.434450 -8.676710
v 13.980663 29.222869 -9.339317
v -14.359206 29.121131 -0.783778
v -15.104818 29.121131 -3.482678
v 13.607857 29.222869 -10.688768
v 13.980663 29.222869 -9.339317
v -14.644287 31.544294 -2.157464
v -15.104818 29.121131 -3.482678
v -14.359206 29.121131 -0.783778
v 13.838123 30.434450 -10.026160
v 13.980663 29.222869 -9.339317
v 13.607857 29.222869 -10.688768
v -15.104818 29.121131 -3.482678
v -15.389899 31.544294 -4.856364
v 13.465317 30.434450 -11.375610
v 13.607857 29.222869 -10.688768
v -14.644287 31.544294 -2.157464
v -15.389899 31.544294 -4.856364
v -15.104818 29.121131 -3.482678
v 13.838123 30.434450 -10.026160
v 13.607857 29.222869 -10.688768
v 13.465317 30.434450 -11.375610
v -15.389899 31.544294 -4.856364
v -14.929368 33.967456 -3.531149
v 13.695583 31.646032 -10.713003
v 13.465317 30.434450 -11.375610
v -14.644287 31.544294 -2.157464
v -14.929368 33.967456 -3.531149
v -15.389899 31.544294 -4.856364
v 13.838123 30.434450 -10.026160
v 13.465317 30.434450 -11.375610
v 13.695583 31.646032 -10.713003
v -14.929368 33.967456 -3.531149
v -14.183756 33.967456 -0.832249
v 14.068389 31.646032 -9.363553
v 13.695583 31.646032 -10.713003
v -14.644287 31.544294 -2.157464
v -14.183756 33.967456 -0.832249
v -14.929368 33.967456 -3.531149
v 13.838123 30.434450 -10.026160
v 13.695583 31.646032 -10.713003
v 14.068389 31.646032 -9.363553
v -14.183756 33.967456 -0.832249
v -13.898675 31.544294 0.541437
v 14.210929 30.434450 -8.676710
v 14.068389 31.646032 -9.363553
v -14.644287 31.544294 -2.157464
v -13.898675 31.544294 0.541437
v -14.183756 33.967456 -0.832249
v 13.838123 30.434450 -10.026160
v 14.068389 31.646032 -9.363553
v 14.210929 30.434450 -8.676710
vt 0.500000 1.000000
vt 0.000000 0.000000
vt 1.000000 0.000000
vt 0.000000 0.000000
vt 1.000000 0.000000
vt 1.000000 1.000000
vt 0.000000 1.000000
vt 0.000000 0.000000
vt 1.000000 0.000000
vt 1.000000 1.000000
vt 0.000000 1.000000
vt 0.500000 1.000000
vt 0.000000 0.000000
vt 1.000000 0.000000
vt 0.500000 1.000000
vt 0.000000 0.000000
vt 1.000000 0.000000
vt 0.000000 0.000000
vt 1.000000 0.000000
vt 1.000000 1.000000
vt 0.000000 1.000000
vt 0.000000 0.000000
vt 1.000000 0.000000
vt 1.000000 1.000000
vt 0.000000 1.000000
vt 0.500000 1.000000
vt 0.000000 0.000000
vt 1.000000 0.000000
vt 0.500000 1.000000
vt 0.000000 0.000000
vt 1.000000 0.000000
vt 0.000000 0.000000
vt 1.000000 0.000000
vt 1.000000 1.000000
vt 0.000000 1.000000
vt 0.000000 0.000000
vt 1.000000 0.000000
vt 1.000000 1.000000
vt 0.000000 1.000000
vt 0.500000 1.000000
vt 0.000000 0.000000
vt 1.000000 0.000000
vt 0.500000 1.000000
vt 0.000000 0.000000
vt 1.000000 0.000000
vt 0.000000 0.000000
vt 1.000000 0.000000
vt 1.000000 1.000000
vt 0.000000 1.000000
vt 0.000000 0.000000
vt 1.000000 0.000000
vt 1.000000 1.000000
vt 0.000000 1.000000
vt 0.500000 1.000000
vt 0.000000 0.000000
vt 1.000000 0.000000
vt 0.500000 1.000000
vt 0.000000 0.000000
vt 1.000000 0.000000
vt 0.000000 0.000000
vt 1.000000 0.000000
vt 1.000000 1.000000
vt 0.000000 1.000000
vt 0.000000 0.000000
vt 1.000000 0.000000
vt 1.000000 1.000000
vt 0.000000 1.000000
vt 0.500000 1.000000
vt 0.000000 0.000000
vt 1.000000 0.000000
vt 0.500000 1.000000
vt 0.000000 0.000000
vt 1.000000 0.000000
vt 0.000000 0.000000
vt 1.000000 0.000000
vt 1.000000 1.000000
vt 0.000000 1.000000
vt 0.000000 0.000000
vt 1.000000 0.000000
vt 1.000000 1.000000
vt 0.000000 1.000000
vt 0.500000 1.000000
vt 0.000000 0.000000
vt 1.000000 0.000000
vt 0.500000 1.000000
vt 0.000000 0.000000
vt 1.000000 0.000000
vt 0.000000 0.000000
vt 1.000000 0.000000
vt 1.000000 1.000000
vt 0.000000 1.000000
vt 0.000000 0.000000
vt 1.000000 0.000000
vt 1.000000 1.000000
vt 0.000000 1.000000
vt 0.500000 1.000000
vt 0.000000 0.000000
vt 1.000000 0.000000
vt 0.500000 1.000000
vt 0.000000 0.000000
vt 1.000000 0.000000
vt 0.000000 0.000000
vt 1.000000 0.000000
vt 1.000000 1.000000
vt 0.000000 1.000000
vt 0.000000 0.000000
vt 1.000000 0.000000
vt 1.000000 1.000000
vt 0.000000 1.000000
vt 0.500000 1.000000
vt 0.000000 0.000000
vt 1.000000 0.000000
vt 0.500000 1.000000
vt 0.000000 0.000000
vt 1.000000 0.000000
vt 0.000000 0.000000
vt 1.000000 0.000000
vt 1.000000 1.000000
vt 0.000000 1.000000
vt 0.000000 0.000000
vt 1.000000 0.000000
vt 1.000000 1.000000
vt 0.000000 1.000000
vt 0.500000 1.000000
vt 0.000000 0.000000
vt 1.000000 0.000000
vt 0.500000 1.000000
vt 0.000000 0.000000
vt 1.000000 0.000000
vt 0.000000 0.000000
vt 1.000000 0.000000
vt 1.000000 1.000000
vt 0.000000 1.000000
vt 0.000000 0.000000
vt 1.000000 0.000000
vt 1.000000 1.000000
vt 0.000000 1.000000
vt 0.500000 1.000000
vt 0.000000 0.000000
vt 1.000000 0.000000
vt 0.500000 1.000000
vt 0.000000 0.000000
vt 1.000000 0.000000
vt 0.000000 0.000000
vt 1.000000 0.000000
vt 1.000000 1.000000
vt 0.000000 1.000000
vt 0.500000 1.000000
vt 0.000000 0.000000
vt 1.000000 0.000000
vt 0.500000 1.000000
vt 0.000000 0.000000
vt 1.000000 0.000000
vt 0.000000 0.000000
vt 1.000000 0.000000
vt 1.000000 1.000000
vt 0.000000 1.000000
vt 0.500000 1.000000
vt 0.000000 0.000000
vt 1.000000 0.000000
vt 0.500000 1.000000
vt 0.000000 0.000000
vt 1.000000 0.000000
vt 0.000000 0.000000
vt 1.000000 0.000000
vt 1.000000 1.000000
vt 0.000000 1.000000
vt 0.500000 1.000000
vt 0.000000 0.000000
vt 1.000000 0.000000
vt 0.500000 1.000000
vt 0.000000 0.000000
vt 1.000000 0.000000
vt 0.000000 0.000000
vt 1.000000 0.000000
vt 1.000000 1.000000
vt 0.000000 1.000000
vt 0.500000 1.000000
vt 0.000000 0.000000
vt 1.000000 0.000000
vt 0.500000 1.000000
vt 0.000000 0.000000
vt 1.000000 0.000000
vt 0.000000 0.000000
vt 1.000000 0.000000
vt 1.000000 1.000000
vt 0.000000 1.000000
vt 0.500000 1.000000
vt 0.000000 0.000000
vt 1.000000 0.000000
vt 0.500000 1.000000
vt 0.000000 0.000000
vt 1.000000 0.000000
vt 0.000000 0.000000
vt 1.000000 0.000000
vt 1.000000 1.000000
vt 0.000000 1.000000
vt 0.500000 1.000000
vt 0.000000 0.000000
vt 1.000000 0.000000
vt 0.500000 1.000000
vt 0.000000 0.000000
vt 1.000000 0.000000
vt 0.000000 0.000000
vt 1.000000 0.000000
vt 1.000000 1.000000
vt 0.000000 1.000000
vt 0.500000 1.000000
vt 0.000000 0.000000
vt 1.000000 0.000000
vt 0.500000 1.000000
vt 0.000000 0.000000
vt 1.000000 0.000000
vt 0.000000 0.000000
vt 1.000000 0.000000
vt 1.000000 1.000000
vt 0.000000 1.000000
vt 0.500000 1.000000
vt 0.000000 0.000000
vt 1.000000 0.000000
vt 0.500000 1.000000
vt 0.000000 0.000000
vt 1.000000 0.000000
vt 0.000000 0.000000
vt 1.000000 0.000000
vt 1.000000 1.000000
vt 0.000000 1.000000
vt 0.500000 1.000000
vt 0.000000 0.000000
vt 1.000000 0.000000
vt 0.500000 1.000000
vt 0.000000 0.000000
vt 1.000000 0.000000
vt 0.000000 0.000000
vt 1.000000 0.000000
vt 1.000000 1.000000
vt 0.000000 1.000000
vt 0.500000 1.000000
vt 0.000000 0.000000
vt 1.000000 0.000000
vt 0.500000 1.000000
vt 0.000000 0.000000
vt 1.000000 0.000000
vt 0.000000 0.000000
vt 1.000000 0.000000
vt 1.000000 1.000000
vt 0.000000 1.000000
vt 0.500000 1.000000
vt 0.000000 0.000000
vt 1.000000 0.000000
vt 0.500000 1.000000
vt 0.000000 0.000000
vt 1.000000 0.000000
vt 0.000000 0.000000
vt 1.000000 0.000000
vt 1.000000 1.000000
vt 0.000000 1.000000
vt 0.500000 1.000000
vt 0.000000 0.000000
vt 1.000000 0.000000
vt 0.500000 1.000000
vt 0.000000 0.000000
vt 1.000000 0.000000
vt 0.000000 0.000000
vt 1.000000 0.000000
vt 1.000000 1.000000
vt 0.000000 1.000000
vt 0.500000 1.000000
vt 0.000000 0.000000
vt 1.000000 0.000000
vt 0.500000 1.000000
vt 0.000000 0.000000
vt 1.000000 0.000000
vt 0.000000 0.000000
vt 1.000000 0.000000
vt 1.000000 1.000000
vt 0.000000 1.000000
vt 0.500000 1.000000
vt 0.000000 0.000000
vt 1.000000 0.000000
vt 0.500000 1.000000
vt 0.000000 0.000000
vt 1.000000 0.000000
vt 0.000000 0.000000
vt 1.000000 0.000000
vt 1.000000 1.000000
vt 0.000000 1.000000
vt 0.500000 1.000000
vt 0.000000 0.000000
vt 1.000000 0.000000
vt 0.500000 1.000000
vt 0.000000 0.000000
vt 1.000000 0.000000
vt 0.000000 0.000000
vt 1.000000 0.000000
vt 1.000000 1.000000
vt 0.000000 1.000000
vt 0.500000 1.000000
vt 0.000000 0.000000
vt 1.000000 0.000000
vt 0.500000 1.000000
vt 0.000000 0.000000
vt 1.000000 0.000000
vt 0.000000 0.000000
vt 1.000000 0.000000
vt 1.000000 1.000000
vt 0.000000 1.000000
vt 0.500000 1.000000
vt 0.000000 0.000000
vt 1.000000 0.000000
vt 0.500000 1.000000
vt 0.000000 0.000000
vt 1.000000 0.000000
vt 0.000000 0.000000
vt 1.000000 0.000000
vt 1.000000 1.000000
vt 0.000000 1.000000
vt 0.500000 1.000000
vt 0.000000 0.000000
vt 1.000000 0.000000
vt 0.500000 1.000000
vt 0.000000 0.000000
vt 1.000000 0.000000
vt 0.000000 0.000000
vt 1.000000 0.000000
vt 1.000000 1.000000
vt 0.000000 1.000000
vt 0.500000 1.000000
vt 0.000000 0.000000
vt 1.000000 0.000000
vt 0.500000 1.000000
vt 0.000000 0.000000
vt 1.000000 0.000000
vt 0.000000 0.000000
vt 1.000000 0.000000
vt 1.000000 1.000000
vt 0.000000 1.000000
vt 0.500000 1.000000
vt 0.000000 0.000000
vt 1.000000 0.000000
vt 0.500000 1.000000
vt 0.000000 0.000000
vt 1.000000 0.000000
vt 0.000000 0.000000
vt 1.000000 0.000000
vt 1.000000 1.000000
vt 0.000000 1.000000
vt 0.500000 1.000000
vt 0.000000 0.000000
vt 1.000000 0.000000
vt 0.500000 1.000000
vt 0.000000 0.000000
vt 1.000000 0.000000
vt 0.000000 0.000000
vt 1.000000 0.000000
vt 1.000000 1.000000
vt 0.000000 1.000000
vt 0.500000 1.000000
vt 0.000000 0.000000
vt 1.000000 0.000000
vt 0.500000 1.000000
vt 0.000000 0.000000
vt 1.000000 0.000000
vt 0.000000 0.000000
vt 1.000000 0.000000
vt 1.000000 1.000000
vt 0.000000 1.000000
vt 0.500000 1.000000
vt 0.000000 0.000000
vt 1.000000 0.000000
vt 0.500000 1.000000
vt 0.000000 0.000000
vt 1.000000 0.000000
vt 0.000000 0.000000
vt 1.000000 0.000000
vt 1.000000 1.000000
vt 0.000000 1.000000
vt 0.500000 1.000000
vt 0.000000 0.000000
vt 1.000000 0.000000
vt 0.500000 1.000000
vt 0.000000 0.000000
vt 1.000000 0.000000
vt 0.000000 0.000000
vt 1.000000 0.000000
vt 1.000000 1.000000
vt 0.000000 1.000000
vt 0.500000 1.000000
vt 0.000000 0.000000
vt 1.000000 0.000000
vt 0.500000 1.000000
vt 0.000000 0.000000
vt 1.000000 0.000000
vt 0.000000 0.000000
vt 1.000000 0.000000
vt 1.000000 1.000000
vt 0.000000 1.000000
vt 0.500000 1.000000
vt 0.000000 0.000000
vt 1.000000 0.000000
vt 0.500000 1.000000
vt 0.000000 0.000000
vt 1.000000 0.000000
vt 0.000000 0.000000
vt 1.000000 0.000000
vt 1.000000 1.000000
vt 0.000000 1.000000
vt 0.500000 1.000000
vt 0.000000 0.000000
vt 1.000000 0.000000
vt 0.500000 1.000000
vt 0.000000 0.000000
vt 1.000000 0.000000
vt 0.000000 0.000000
vt 1.000000 0.000000
vt 1.000000 1.000000
vt 0.000000 1.000000
vt 0.500000 1.000000
vt 0.000000 0.000000
vt 1.000000 0.000000
vt 0.500000 1.000000
vt 0.000000 0.000000
vt 1.000000 0.000000
vt 0.000000 0.000000
vt 1.000000 0.000000
vt 1.000000 1.000000
vt 0.000000 1.000000
vt 0.500000 1.000000
vt 0.000000 0.000000
vt 1.000000 0.000000
vt 0.500000 1.000000
vt 0.000000 0.000000
vt 1.000000 0.000000
vt 0.000000 0.000000
vt 1.000000 0.000000
vt 1.000000 1.000000
vt 0.000000 1.000000
vt 0.500000 1.000000
vt 0.000000 0.000000
vt 1.000000 0.000000
vt 0.500000 1.000000
vt 0.000000 0.000000
vt 1.000000 0.000000
vt 0.000000 0.000000
vt 1.000000 0.000000
vt 1.000000 1.000000
vt 0.000000 1.000000
vt 0.500000 1.000000
vt 0.000000 0.000000
vt 1.000000 0.000000
vt 0.500000 1.000000
vt 0.000000 0.000000
vt 1.000000 0.000000
vt 0.000000 0.000000
vt 1.000000 0.000000
vt 1.000000 1.000000
vt 0.000000 1.000000
vt 0.500000 1.000000
vt 0.000000 0.000000
vt 1.000000 0.000000
vt 0.500000 1.000000
vt 0.000000 0.000000
vt 1.000000 0.000000
vt 0.000000 0.000000
vt 1.000000 0.000000
vt 1.000000 1.000000
vt 0.000000 1.000000
vt 0.500000 1.000000
vt 0.000000 0.000000
vt 1.000000 0.000000
vt 0.500000 1.000000
vt 0.000000 0.000000
vt 1.000000 0.000000
vt 0.000000 0.000000
vt 1.000000 0.000000
vt 1.000000 1.000000
vt 0.000000 1.000000
vt 0.500000 1.000000
vt 0.000000 0.000000
vt 1.000000 0.000000
vt 0.500000 1.000000
vt 0.000000 0.000000
vt 1.000000 0.000000
vt 0.000000 0.000000
vt 1.000000 0.000000
vt 1.000000 1.000000
vt 0.000000 1.000000
vt 0.500000 1.000000
vt 0.000000 0.000000
vt 1.000000 0.000000
vt 0.500000 1.000000
vt 0.000000 0.000000
vt 1.000000 0.000000
vt 0.000000 0.000000
vt 1.000000 0.000000
vt 1.000000 1.000000
vt 0.000000 1.000000
vt 0.500000 1.000000
vt 0.000000 0.000000
vt 1.000000 0.000000
vt 0.500000 1.000000
vt 0.000000 0.000000
vt 1.000000 0.000000
vt 0.000000 0.000000
vt 1.000000 0.000000
vt 1.000000 1.000000
vt 0.000000 1.000000
vt 0.500000 1.000000
vt 0.000000 0.000000
vt 1.000000 0.000000
vt 0.500000 1.000000
vt 0.000000 0.000000
vt 1.000000 0.000000
vt 0.000000 0.000000
vt 1.000000 0.000000
vt 1.000000 1.000000
vt 0.000000 1.000000
vt 0.500000 1.000000
vt 0.000000 0.000000
vt 1.000000 0.000000
vt 0.500000 1.000000
vt 0.000000 0.000000
vt 1.000000 0.000000
vt 0.000000 0.000000
vt 1.000000 0.000000
vt 1.000000 1.000000
vt 0.000000 1.000000
vt 0.500000 1.000000
vt 0.000000 0.000000
vt 1.000000 0.000000
vt 0.500000 1.000000
vt 0.000000 0.000000
vt 1.000000 0.000000
vt 0.000000 0.000000
vt 1.000000 0.000000
vt 1.000000 1.000000
vt 0.000000 1.000000
vt 0.500000 1.000000
vt 0.000000 0.000000
vt 1.000000 0.000000
vt 0.500000 1.000000
vt 0.000000 0.000000
vt 1.000000 0.000000
vt 0.000000 0.000000
vt 1.000000 0.000000
vt 1.000000 1.000000
vt 0.000000 1.000000
vt 0.500000 1.000000
vt 0.000000 0.000000
vt 1.000000 0.000000
vt 0.500000 1.000000
vt 0.000000 0.000000
vt 1.000000 0.000000
vt 0.000000 0.000000
vt 1.000000 0.000000
vt 1.000000 1.000000
vt 0.000000 1.000000
vt 0.500000 1.000000
vt 0.000000 0.000000
vt 1.000000 0.000000
vt 0.500000 1.000000
vt 0.000000 0.000000
vt 1.000000 0.000000
vt 0.000000 0.000000
vt 1.000000 0.000000
vt 1.000000 1.000000
vt 0.000000 1.000000
vt 0.500000 1.000000
vt 0.000000 0.000000
vt 1.000000 0.000000
vt 0.500000 1.000000
vt 0.000000 0.000000
vt 1.000000 0.000000
vt 0.000000 0.000000
vt 1.000000 0.000000
vt 1.000000 1.000000
vt 0.000000 1.000000
vt 0.500000 1.000000
vt 0.000000 0.000000
vt 1.000000 0.000000
vt 0.500000 1.000000
vt 0.000000 0.000000
vt 1.000000 0.000000
vt 0.000000 0.000000
vt 1.000000 0.000000
vt 1.000000 1.000000
vt 0.000000 1.000000
vt 0.500000 1.000000
vt 0.000000 0.000000
vt 1.000000 0.000000
vt 0.500000 1.000000
vt 0.000000 0.000000
vt 1.000000 0.000000
vt 0.000000 0.000000
vt 1.000000 0.000000
vt 1.000000 1.000000
vt 0.000000 1.000000
vt 0.500000 1.000000
vt 0.000000 0.000000
vt 1.000000 0.000000
vt 0.500000 1.000000
vt 0.000000 0.000000
vt 1.000000 0.000000
vt 0.000000 0.000000
vt 1.000000 0.000000
vt 1.000000 1.000000
vt 0.000000 1.000000
vt 0.500000 1.000000
vt 0.000000 0.000000
vt 1.000000 0.000000
vt 0.500000 1.000000
vt 0.000000 0.000000
vt 1.000000 0.000000
vt 0.000000 0.000000
vt 1.000000 0.000000
vt 1.000000 1.000000
vt 0.000000 1.000000
vt 0.500000 1.000000
vt 0.000000 0.000000
vt 1.000000 0.000000
vt 0.500000 1.000000
vt 0.000000 0.000000
vt 1.000000 0.000000
vt 0.000000 0.000000
vt 1.000000 0.000000
vt 1.000000 1.000000
vt 0.000000 1.000000
vt 0.500000 1.000000
vt 0.000000 0.000000
vt 1.000000 0.000000
vt 0.500000 1.000000
vt 0.000000 0.000000
vt 1.000000 0.000000
vt 0.000000 0.000000
vt 1.000000 0.000000
vt 1.000000 1.000000
vt 0.000000 1.000000
vt 0.500000 1.000000
vt 0.000000 0.000000
vt 1.000000 0.000000
vt 0.500000 1.000000
vt 0.000000 0.000000
vt 1.000000 0.000000
vt 0.000000 0.000000
vt 1.000000 0.000000
vt 1.000000 1.000000
vt 0.000000 1.000000
vt 0.500000 1.000000
vt 0.000000 0.000000
vt 1.000000 0.000000
vt 0.500000 1.000000
vt 0.000000 0.000000
vt 1.000000 0.000000
vt 0.000000 0.000000
vt 1.000000 0.000000
vt 1.000000 1.000000
vt 0.000000 1.000000
vt 0.500000 1.000000
vt 0.000000 0.000000
vt 1.000000 0.000000
vt 0.500000 1.000000
vt 0.000000 0.000000
vt 1.000000 0.000000
vt 0.000000 0.000000
vt 1.000000 0.000000
vt 1.000000 1.000000
vt 0.000000 1.000000
vt 0.500000 1.000000
vt 0.000000 0.000000
vt 1.000000 0.000000
vt 0.500000 1.000000
vt 0.000000 0.000000
vt 1.000000 0.000000
vt 0.000000 0.000000
vt 1.000000 0.000000
vt 1.000000 1.000000
vt 0.000000 1.000000
vt 0.500000 1.000000
vt 0.000000 0.000000
vt 1.000000 0.000000
vt 0.500000 1.000000
vt 0.000000 0.000000
vt 1.000000 0.000000
vt 0.000000 0.000000
vt 1.000000 0.000000
vt 1.000000 1.000000
vt 0.000000 1.000000
vt 0.500000 1.000000
vt 0.000000 0.000000
vt 1.000000 0.000000
vt 0.500000 1.000000
vt 0.000000 0.000000
vt 1.000000 0.000000
vt 0.000000 0.000000
vt 1.000000 0.000000
vt 1.000000 1.000000
vt 0.000000 1.000000
vt 0.500000 1.000000
vt 0.000000 0.000000
vt 1.000000 0.000000
vt 0.500000 1.000000
vt 0.000000 0.000000
vt 1.000000 0.000000
vt 0.000000 0.000000
vt 1.000000 0.000000
vt 1.000000 1.000000
vt 0.000000 1.000000
vt 0.500000 1.000000
vt 0.000000 0.000000
vt 1.000000 0.000000
vt 0.500000 1.000000
vt 0.000000 0.000000
vt 1.000000 0.000000
vt 0.000000 0.000000
vt 1.000000 0.000000
vt 1.000000 1.000000
vt 0.000000 1.000000
vt 0.500000 1.000000
vt 0.000000 0.000000
vt 1.000000 0.000000
vt 0.500000 1.000000
vt 0.000000 0.000000
vt 1.000000 0.000000
vt 0.000000 0.000000
vt 1.000000 0.000000
vt 1.000000 1.000000
vt 0.000000 1.000000
vt 0.500000 1.000000
vt 0.000000 0.000000
vt 1.000000 0.000000
vt 0.500000 1.000000
vt 0.000000 0.000000
vt 1.000000 0.000000
vt 0.000000 0.000000
vt 1.000000 0.000000
vt 1.000000 1.000000
vt 0.000000 1.000000
vt 0.500000 1.000000
vt 0.000000 0.000000
vt 1.000000 0.000000
vt 0.500000 1.000000
vt 0.000000 0.000000
vt 1.000000 0.000000
vt 0.000000 0.000000
vt 1.000000 0.000000
vt 1.000000 1.000000
vt 0.000000 1.000000
vt 0.500000 1.000000
vt 0.000000 0.000000
vt 1.000000 0.000000
vt 0.500000 1.000000
vt 0.000000 0.000000
vt 1.000000 0.000000
vt 0.000000 0.000000
vt 1.000000 0.000000
vt 1.000000 1.000000
vt 0.000000 1.000000
vt 0.500000 1.000000
vt 0.000000 0.000000
vt 1.000000 0.000000
vt 0.500000 1.000000
vt 0.000000 0.000000
vt 1.000000 0.000000
vt 0.000000 0.000000
vt 1.000000 0.000000
vt 1.000000 1.000000
vt 0.000000 1.000000
vt 0.500000 1.000000
vt 0.000000 0.000000
vt 1.000000 0.000000
vt 0.000000 0.000000
vt 1.000000 0.000000
vt 1.000000 1.000000
vt 0.000000 1.000000
vt 0.500000 1.000000
vt 0.000000 0.000000
vt 1.000000 0.000000
vt 0.500000 1.000000
vt 0.000000 0.000000
vt 1.000000 0.000000
vt 0.000000 0.000000
vt 1.000000 0.000000
vt 1.000000 1.000000
vt 0.000000 1.000000
vt 0.500000 1.000000
vt 0.000000 0.000000
vt 1.000000 0.000000
vt 0.500000 1.000000
vt 0.000000 0.000000
vt 1.000000 0.000000
vt 0.000000 0.000000
vt 1.000000 0.000000
vt 1.000000 1.000000
vt 0.000000 1.000000
vt 0.500000 1.000000
vt 0.000000 0.000000
vt 1.000000 0.000000
vt 0.500000 1.000000
vt 0.000000 0.000000
vt 1.000000 0.000000
vt 0.000000 0.000000
vt 1.000000 0.000000
vt 1.000000 1.000000
vt 0.000000 1.000000
vt 0.500000 1.000000
vt 0.000000 0.000000
vt 1.000000 0.000000
vt 0.500000 1.000000
vt 0.000000 0.000000
vt 1.000000 0.000000
vt 0.000000 0.000000
vt 1.000000 0.000000
vt 1.000000 1.000000
vt 0.000000 1.000000
vt 0.500000 1.000000
vt 0.000000 0.000000
vt 1.000000 0.000000
vt 0.500000 1.000000
vt 0.000000 0.000000
vt 1.000000 0.000000
vt 0.000000 0.000000
vt 1.000000 0.000000
vt 1.000000 1.000000
vt 0.000000 1.000000
vt 0.500000 1.000000
vt 0.000000 0.000000
vt 1.000000 0.000000
vt 0.500000 1.000000
vt 0.000000 0.000000
vt 1.000000 0.000000
vt 0.000000 0.000000
vt 1.000000 0.000000
vt 1.000000 1.000000
vt 0.000000 1.000000
vt 0.500000 1.000000
vt 0.000000 0.000000
vt 1.000000 0.000000
vt 0.500000 1.000000
vt 0.000000 0.000000
vt 1.000000 0.000000
vt 0.000000 0.000000
vt 1.000000 0.000000
vt 1.000000 1.000000
vt 0.000000 1.000000
vt 0.500000 1.000000
vt 0.000000 0.000000
vt 1.000000 0.000000
vt 0.500000 1.000000
vt 0.000000 0.000000
vt 1.000000 0.000000
vt 0.000000 0.000000
vt 1.000000 0.000000
vt 1.000000 1.000000
vt 0.000000 1.000000
vt 0.500000 1.000000
vt 0.000000 0.000000
vt 1.000000 0.000000
vt 0.500000 1.000000
vt 0.000000 0.000000
vt 1.000000 0.000000
vt 0.000000 0.000000
vt 1.000000 0.000000
vt 1.000000 1.000000
vt 0.000000 1.000000
vt 0.500000 1.000000
vt 0.000000 0.000000
vt 1.000000 0.000000
vt 0.500000 1.000000
vt 0.000000 0.000000
vt 1.000000 0.000000
vt 0.000000 0.000000
vt 1.000000 0.000000
vt 1.000000 1.000000
vt 0.000000 1.000000
vt 0.500000 1.000000
vt 0.000000 0.000000
vt 1.000000 0.000000
vt 0.500000 1.000000
vt 0.000000 0.000000
vt 1.000000 0.000000
vt 0.000000 0.000000
vt 1.000000 0.000000
vt 1.000000 1.000000
vt 0.000000 1.000000
vt 0.500000 1.000000
vt 0.000000 0.000000
vt 1.000000 0.000000
vt 0.500000 1.000000
vt 0.000000 0.000000
vt 1.000000 0.000000
vt 0.000000 0.000000
vt 1.000000 0.000000
vt 1.000000 1.000000
vt 0.000000 1.000000
vt 0.500000 1.000000
vt 0.000000 0.000000
vt 1.000000 0.000000
vt 0.500000 1.000000
vt 0.000000 0.000000
vt 1.000000 0.000000
vt 0.000000 0.000000
vt 1.000000 0.000000
vt 1.000000 1.000000
vt 0.000000 1.000000
vt 0.500000 1.000000
vt 0.000000 0.000000
vt 1.000000 0.000000
vt 0.500000 1.000000
vt 0.000000 0.000000
vt 1.000000 0.000000
vt 0.000000 0.000000
vt 1.000000 0.000000
vt 1.000000 1.000000
vt 0.000000 1.000000
vt 0.500000 1.000000
vt 0.000000 0.000000
vt 1.000000 0.000000
vt 0.500000 1.000000
vt 0.000000 0.000000
vt 1.000000 0.000000
vt 0.000000 0.000000
vt 1.000000 0.000000
vt 1.000000 1.000000
vt 0.000000 1.000000
vt 0.500000 1.000000
vt 0.000000 0.000000
vt 1.000000 0.000000
vt 0.500000 1.000000
vt 0.000000 0.000000
vt 1.000000 0.000000
vt 0.000000 0.000000
vt 1.000000 0.000000
vt 1.000000 1.000000
vt 0.000000 1.000000
vt 0.500000 1.000000
vt 0.000000 0.000000
vt 1.000000 0.000000
vt 0.500000 1.000000
vt 0.000000 0.000000
vt 1.000000 0.000000
vt 0.000000 0.000000
vt 1.000000 0.000000
vt 1.000000 1.000000
vt 0.000000 1.000000
vt 0.500000 1.000000
vt 0.000000 0.000000
vt 1.000000 0.000000
vt 0.500000 1.000000
vt 0.000000 0.000000
vt 1.000000 0.000000
s 1
usemtl models/caelum/world/environment/rock_granite.png
f 1/1 2/2 3/3
f 4/4 5/5 6/6 7/7
f 8/8 9/9 10/10 11/11
f 12/12 13/13 14/14
f 15/15 16/16 17/17
f 18/18 19/19 20/20 21/21
f 22/22 23/23 24/24 25/25
f 26/26 27/27 28/28
f 29/29 30/30 31/31
f 32/32 33/33 34/34 35/35
f 36/36 37/37 38/38 39/39
f 40/40 41/41 42/42
f 43/43 44/44 45/45
f 46/46 47/47 48/48 49/49
f 50/50 51/51 52/52 53/53
f 54/54 55/55 56/56
f 57/57 58/58 59/59
f 60/60 61/61 62/62 63/63
f 64/64 65/65 66/66 67/67
f 68/68 69/69 70/70
f 71/71 72/72 73/73
f 74/74 75/75 76/76 77/77
f 78/78 79/79 80/80 81/81
f 82/82 83/83 84/84
f 85/85 86/86 87/87
f 88/88 89/89 90/90 91/91
f 92/92 93/93 94/94 95/95
f 96/96 97/97 98/98
f 99/99 100/100 101/101
f 102/102 103/103 104/104 105/105
f 106/106 107/107 108/108 109/109
f 110/110 111/111 112/112
f 113/113 114/114 115/115
f 116/116 117/117 118/118 119/119
f 120/120 121/121 122/122 123/123
f 124/124 125/125 126/126
f 127/127 128/128 129/129
f 130/130 131/131 132/132 133/133
f 134/134 135/135 136/136 137/137
f 138/138 139/139 140/140
usemtl models/caelum/world/resources/ca_vein_coal.png
f 141/141 142/142 143/143
f 144/144 145/145 146/146 147/147
f 148/148 149/149 150/150
f 151/151 152/152 153/153
f 154/154 155/155 156/156 157/157
f 158/158 159/159 160/160
f 161/161 162/162 163/163
f 164/164 165/165 166/166 167/167
f 168/168 169/169 170/170
f 171/171 172/172 173/173
f 174/174 175/175 176/176 177/177
f 178/178 179/179 180/180
f 181/181 182/182 183/183
f 184/184 185/185 186/186 187/187
f 188/188 189/189 190/190
f 191/191 192/192 193/193
f 194/194 195/195 196/196 197/197
f 198/198 199/199 200/200
f 201/201 202/202 203/203
f 204/204 205/205 206/206 207/207
f 208/208 209/209 210/210
f 211/211 212/212 213/213
f 214/214 215/215 216/216 217/217
f 218/218 219/219 220/220
f 221/221 222/222 223/223
f 224/224 225/225 226/226 227/227
f 228/228 229/229 230/230
f 231/231 232/232 233/233
f 234/234 235/235 236/236 237/237
f 238/238 239/239 240/240
f 241/241 242/242 243/243
f 244/244 245/245 246/246 247/247
f 248/248 249/249 250/250
f 251/251 252/252 253/253
f 254/254 255/255 256/256 257/257
f 258/258 259/259 260/260
f 261/261 262/262 263/263
f 264/264 265/265 266/266 267/267
f 268/268 269/269 270/270
f 271/271 272/272 273/273
f 274/274 275/275 276/276 277/277
f 278/278 279/279 280/280
f 281/281 282/282 283/283
f 284/284 285/285 286/286 287/287
f 288/288 289/289 290/290
f 291/291 292/292 293/293
f 294/294 295/295 296/296 297/297
f 298/298 299/299 300/300
f 301/301 302/302 303/303
f 304/304 305/305 306/306 307/307
f 308/308 309/309 310/310
f 311/311 312/312 313/313
f 314/314 315/315 316/316 317/317
f 318/318 319/319 320/320
f 321/321 322/322 323/323
f 324/324 325/325 326/326 327/327
f 328/328 329/329 330/330
f 331/331 332/332 333/333
f 334/334 335/335 336/336 337/337
f 338/338 339/339 340/340
f 341/341 342/342 343/343
f 344/344 345/345 346/346 347/347
f 348/348 349/349 350/350
f 351/351 352/352 353/353
f 354/354 355/355 356/356 357/357
f 358/358 359/359 360/360
f 361/361 362/362 363/363
f 364/364 365/365 366/366 367/367
f 368/368 369/369 370/370
f 371/371 372/372 373/373
f 374/374 375/375 376/376 377/377
f 378/378 379/379 380/380
f 381/381 382/382 383/383
f 384/384 385/385 386/386 387/387
f 388/388 389/389 390/390
f 391/391 392/392 393/393
f 394/394 395/395 396/396 397/397
f 398/398 399/399 400/400
f 401/401 402/402 403/403
f 404/404 405/405 406/406 407/407
f 408/408 409/409 410/410
f 411/411 412/412 413/413
f 414/414 415/415 416/416 417/417
f 418/418 419/419 420/420
f 421/421 422/422 423/423
f 424/424 425/425 426/426 427/427
f 428/428 429/429 430/430
f 431/431 432/432 433/433
f 434/434 435/435 436/436 437/437
f 438/438 439/439 440/440
f 441/441 442/442 443/443
f 444/444 445/445 446/446 447/447
f 448/448 449/449 450/450
f 451/451 452/452 453/453
f 454/454 455/455 456/456 457/457
f 458/458 459/459 460/460
f 461/461 462/462 463/463
f 464/464 465/465 466/466 467/467
f 468/468 469/469 470/470
f 471/471 472/472 473/473
f 474/474 475/475 476/476 477/477
f 478/478 479/479 480/480
f 481/481 482/482 483/483
f 484/484 485/485 486/486 487/487
f 488/488 489/489 490/490
f 491/491 492/492 493/493
f 494/494 495/495 496/496 497/497
f 498/498 499/499 500/500
f 501/501 502/502 503/503
f 504/504 505/505 506/506 507/507
f 508/508 509/509 510/510
f 511/511 512/512 513/513
f 514/514 515/515 516/516 517/517
f 518/518 519/519 520/520
f 521/521 522/522 523/523
f 524/524 525/525 526/526 527/527
f 528/528 529/529 530/530
f 531/531 532/532 533/533
f 534/534 535/535 536/536 537/537
f 538/538 539/539 540/540
f 541/541 542/542 543/543
f 544/544 545/545 546/546 547/547
f 548/548 549/549 550/550
f 551/551 552/552 553/553
f 554/554 555/555 556/556 557/557
f 558/558 559/559 560/560
f 561/561 562/562 563/563
f 564/564 565/565 566/566 567/567
f 568/568 569/569 570/570
f 571/571 572/572 573/573
f 574/574 575/575 576/576 577/577
f 578/578 579/579 580/580
f 581/581 582/582 583/583
f 584/584 585/585 586/586 587/587
f 588/588 589/589 590/590
f 591/591 592/592 593/593
f 594/594 595/595 596/596 597/597
f 598/598 599/599 600/600
f 601/601 602/602 603/603
f 604/604 605/605 606/606 607/607
f 608/608 609/609 610/610
f 611/611 612/612 613/613
f 614/614 615/615 616/616 617/617
f 618/618 619/619 620/620
f 621/621 622/622 623/623
f 624/624 625/625 626/626 627/627
f 628/628 629/629 630/630
f 631/631 632/632 633/633
f 634/634 635/635 636/636 637/637
f 638/638 639/639 640/640
f 641/641 642/642 643/643
f 644/644 645/645 646/646 647/647
f 648/648 649/649 650/650
f 651/651 652/652 653/653
f 654/654 655/655 656/656 657/657
f 658/658 659/659 660/660
f 661/661 662/662 663/663
f 664/664 665/665 666/666 667/667
f 668/668 669/669 670/670
f 671/671 672/672 673/673
f 674/674 675/675 676/676 677/677
f 678/678 679/679 680/680
f 681/681 682/682 683/683
f 684/684 685/685 686/686 687/687
f 688/688 689/689 690/690
f 691/691 692/692 693/693
f 694/694 695/695 696/696 697/697
f 698/698 699/699 700/700
f 701/701 702/702 703/703
f 704/704 705/705 706/706 707/707
f 708/708 709/709 710/710
f 711/711 712/712 713/713
f 714/714 715/715 716/716 717/717
f 718/718 719/719 720/720
f 721/721 722/722 723/723
f 724/724 725/725 726/726 727/727
f 728/728 729/729 730/730
f 731/731 732/732 733/733
f 734/734 735/735 736/736 737/737
f 738/738 739/739 740/740
f 741/741 742/742 743/743
f 744/744 745/745 746/746 747/747
f 748/748 749/749 750/750
f 751/751 752/752 753/753
f 754/754 755/755 756/756 757/757
f 758/758 759/759 760/760
f 761/761 762/762 763/763
f 764/764 765/765 766/766 767/767
f 768/768 769/769 770/770
f 771/771 772/772 773/773 774/774
f 775/775 776/776 777/777
f 778/778 779/779 780/780
f 781/781 782/782 783/783 784/784
f 785/785 786/786 787/787
f 788/788 789/789 790/790
f 791/791 792/792 793/793 794/794
f 795/795 796/796 797/797
f 798/798 799/799 800/800
f 801/801 802/802 803/803 804/804
f 805/805 806/806 807/807
f 808/808 809/809 810/810
f 811/811 812/812 813/813 814/814
f 815/815 816/816 817/817
f 818/818 819/819 820/820
f 821/821 822/822 823/823 824/824
f 825/825 826/826 827/827
f 828/828 829/829 830/830
f 831/831 832/832 833/833 834/834
f 835/835 836/836 837/837
f 838/838 839/839 840/840
f 841/841 842/842 843/843 844/844
f 845/845 846/846 847/847
f 848/848 849/849 850/850
f 851/851 852/852 853/853 854/854
f 855/855 856/856 857/857
f 858/858 859/859 860/860
f 861/861 862/862 863/863 864/864
f 865/865 866/866 867/867
f 868/868 869/869 870/870
f 871/871 872/872 873/873 874/874
f 875/875 876/876 877/877
f 878/878 879/879 880/880
f 881/881 882/882 883/883 884/884
f 885/885 886/886 887/887
f 888/888 889/889 890/890
f 891/891 892/892 893/893 894/894
f 895/895 896/896 897/897
f 898/898 899/899 900/900
f 901/901 902/902 903/903 904/904
f 905/905 906/906 907/907
f 908/908 909/909 910/910
f 911/911 912/912 913/913 914/914
f 915/915 916/916 917/917
f 918/918 919/919 920/920
f 921/921 922/922 923/923 924/924
f 925/925 926/926 927/927
f 928/928 929/929 930/930
f 931/931 932/932 933/933 934/934
f 935/935 936/936 937/937
f 938/938 939/939 940/940
f 941/941 942/942 943/943 944/944
f 945/945 946/946 947/947
f 948/948 949/949 950/950
