# Modelo original generado para Caelum Argenteum.
# Ejes OBJ: X ancho, Y altura, Z profundidad.
o ca_vein_emerald2
v 0.000000 0.000000 0.000000
v 39.725644 -1.532655 0.000000
v 34.636270 -0.692767 21.733170
v 39.725644 -1.532655 0.000000
v 46.550908 16.423940 0.000000
v 33.103260 13.515348 20.771255
v 34.636270 -0.692767 21.733170
v 46.550908 16.423940 0.000000
v 28.268207 30.352571 0.000000
v 29.757766 31.648485 18.672062
v 33.103260 13.515348 20.771255
v 9.111833 47.000000 6.457214
v 29.757766 31.648485 18.672062
v 28.268207 30.352571 0.000000
v 0.000000 0.000000 0.000000
v 34.636270 -0.692767 21.733170
v 11.787719 -0.769630 31.331750
v 34.636270 -0.692767 21.733170
v 33.103260 13.515348 20.771255
v 12.920034 16.470640 34.341443
v 11.787719 -0.769630 31.331750
v 33.103260 13.515348 20.771255
v 29.757766 31.648485 18.672062
v 8.453828 31.300932 22.470271
v 12.920034 16.470640 34.341443
v 9.111833 47.000000 6.457214
v 8.453828 31.300932 22.470271
v 29.757766 31.648485 18.672062
v 0.000000 0.000000 0.000000
v 11.787719 -0.769630 31.331750
v -12.581705 0.560953 33.442165
v 11.787719 -0.769630 31.331750
v 12.920034 16.470640 34.341443
v -15.484846 16.613550 41.158712
v -12.581705 0.560953 33.442165
v 12.920034 16.470640 34.341443
v 8.453828 31.300932 22.470271
v -11.756472 32.494989 31.248696
v -15.484846 16.613550 41.158712
v 9.111833 47.000000 6.457214
v -11.756472 32.494989 31.248696
v 8.453828 31.300932 22.470271
v 0.000000 0.000000 0.000000
v -12.581705 0.560953 33.442165
v -33.423980 0.280485 20.972496
v -12.581705 0.560953 33.442165
v -15.484846 16.613550 41.158712
v -32.226003 15.436833 20.220803
v -33.423980 0.280485 20.972496
v -15.484846 16.613550 41.158712
v -11.756472 32.494989 31.248696
v -23.706445 31.041659 14.875049
v -32.226003 15.436833 20.220803
v 9.111833 47.000000 6.457214
v -23.706445 31.041659 14.875049
v -11.756472 32.494989 31.248696
v 0.000000 0.000000 0.000000
v -33.423980 0.280485 20.972496
v -39.202447 -1.558216 0.000000
v -33.423980 0.280485 20.972496
v -32.226003 15.436833 20.220803
v -41.124067 15.714146 0.000000
v -39.202447 -1.558216 0.000000
v -32.226003 15.436833 20.220803
v -23.706445 31.041659 14.875049
v -29.566678 30.823727 0.000000
v -41.124067 15.714146 0.000000
v 9.111833 47.000000 6.457214
v -29.566678 30.823727 0.000000
v -23.706445 31.041659 14.875049
v 0.000000 0.000000 0.000000
v -39.202447 -1.558216 0.000000
v -32.813931 -0.128356 -20.589709
v -39.202447 -1.558216 0.000000
v -41.124067 15.714146 0.000000
v -33.231549 15.413960 -20.851751
v -32.813931 -0.128356 -20.589709
v -41.124067 15.714146 0.000000
v -29.566678 30.823727 0.000000
v -26.999953 32.472079 -16.941621
v -33.231549 15.413960 -20.851751
v 9.111833 47.000000 6.457214
v -26.999953 32.472079 -16.941621
v -29.566678 30.823727 0.000000
v 0.000000 0.000000 0.000000
v -32.813931 -0.128356 -20.589709
v -11.101758 1.328423 -29.508466
v -32.813931 -0.128356 -20.589709
v -33.231549 15.413960 -20.851751
v -12.576463 15.007765 -33.428232
v -11.101758 1.328423 -29.508466
v -33.231549 15.413960 -20.851751
v -26.999953 32.472079 -16.941621
v -10.161292 32.516419 -27.008707
v -12.576463 15.007765 -33.428232
v 9.111833 47.000000 6.457214
v -10.161292 32.516419 -27.008707
v -26.999953 32.472079 -16.941621
v 0.000000 0.000000 0.000000
v -11.101758 1.328423 -29.508466
v 11.846990 -1.179538 -31.489292
v -11.101758 1.328423 -29.508466
v -12.576463 15.007765 -33.428232
v 12.601956 16.367600 -33.495993
v 11.846990 -1.179538 -31.489292
v -12.576463 15.007765 -33.428232
v -10.161292 32.516419 -27.008707
v 9.315008 32.558911 -24.759285
v 12.601956 16.367600 -33.495993
v 9.111833 47.000000 6.457214
v 9.315008 32.558911 -24.759285
v -10.161292 32.516419 -27.008707
v 0.000000 0.000000 0.000000
v 11.846990 -1.179538 -31.489292
v 32.992704 1.022581 -20.701884
v 11.846990 -1.179538 -31.489292
v 12.601956 16.367600 -33.495993
v 29.850871 16.481759 -18.730483
v 32.992704 1.022581 -20.701884
v 12.601956 16.367600 -33.495993
v 9.315008 32.558911 -24.759285
v 25.353712 33.372751 -15.908657
v 29.850871 16.481759 -18.730483
v 9.111833 47.000000 6.457214
v 25.353712 33.372751 -15.908657
v 9.315008 32.558911 -24.759285
v 0.000000 0.000000 0.000000
v 32.992704 1.022581 -20.701884
v 39.725644 -1.532655 0.000000
v 32.992704 1.022581 -20.701884
v 29.850871 16.481759 -18.730483
v 46.550908 16.423940 0.000000
v 39.725644 -1.532655 0.000000
v 29.850871 16.481759 -18.730483
v 25.353712 33.372751 -15.908657
v 28.268207 30.352571 0.000000
v 46.550908 16.423940 0.000000
v 9.111833 47.000000 6.457214
v 28.268207 30.352571 0.000000
v 25.353712 33.372751 -15.908657
v 8.680662 33.394075 -3.634774
v 4.845543 33.503480 -1.417609
v 9.182448 58.275707 0.883253
v 9.571911 58.264596 0.658096
v 8.680662 33.338612 0.796124
v 4.845543 33.503480 -1.417609
v 8.680662 33.394075 -3.634774
v 9.571911 58.258964 1.108061
v 9.571911 58.264596 0.658096
v 9.182448 58.275707 0.883253
v 4.845543 33.503480 -1.417609
v 4.845543 33.448017 3.013289
v 9.182448 58.270074 1.333217
v 9.182448 58.275707 0.883253
v 8.680662 33.338612 0.796124
v 4.845543 33.448017 3.013289
v 4.845543 33.503480 -1.417609
v 9.571911 58.258964 1.108061
v 9.182448 58.275707 0.883253
v 9.182448 58.270074 1.333217
v 4.845543 33.448017 3.013289
v 8.680662 33.283148 5.227021
v 9.571911 58.253331 1.558025
v 9.182448 58.270074 1.333217
v 8.680662 33.338612 0.796124
v 8.680662 33.283148 5.227021
v 4.845543 33.448017 3.013289
v 9.571911 58.258964 1.108061
v 9.182448 58.270074 1.333217
v 9.571911 58.253331 1.558025
v 8.680662 33.283148 5.227021
v 12.515781 33.173743 3.009856
v 9.961373 58.242221 1.332869
v 9.571911 58.253331 1.558025
v 8.680662 33.338612 0.796124
v 12.515781 33.173743 3.009856
v 8.680662 33.283148 5.227021
v 9.571911 58.258964 1.108061
v 9.571911 58.253331 1.558025
v 9.961373 58.242221 1.332869
v 12.515781 33.173743 3.009856
v 12.515781 33.229206 -1.421042
v 9.961373 58.247854 0.882904
v 9.961373 58.242221 1.332869
v 8.680662 33.338612 0.796124
v 12.515781 33.229206 -1.421042
v 12.515781 33.173743 3.009856
v 9.571911 58.258964 1.108061
v 9.961373 58.242221 1.332869
v 9.961373 58.247854 0.882904
v 12.515781 33.229206 -1.421042
v 8.680662 33.394075 -3.634774
v 9.571911 58.264596 0.658096
v 9.961373 58.247854 0.882904
v 8.680662 33.338612 0.796124
v 8.680662 33.394075 -3.634774
v 12.515781 33.229206 -1.421042
v 9.571911 58.258964 1.108061
v 9.961373 58.247854 0.882904
v 9.571911 58.264596 0.658096
v 10.915910 32.203647 15.296370
v 8.157954 32.313561 17.595583
v 12.786556 62.075886 19.270092
v 13.132037 62.062118 18.982076
v 11.522708 32.099794 18.835550
v 8.157954 32.313561 17.595583
v 10.915910 32.203647 15.296370
v 13.208049 62.049108 19.425419
v 13.132037 62.062118 18.982076
v 12.786556 62.075886 19.270092
v 8.157954 32.313561 17.595583
v 8.764752 32.209709 21.134763
v 12.862568 62.062877 19.713435
v 12.786556 62.075886 19.270092
v 11.522708 32.099794 18.835550
v 8.764752 32.209709 21.134763
v 8.157954 32.313561 17.595583
v 13.208049 62.049108 19.425419
v 12.786556 62.075886 19.270092
v 12.862568 62.062877 19.713435
v 8.764752 32.209709 21.134763
v 12.129506 31.995942 22.374730
v 13.284061 62.036099 19.868762
v 12.862568 62.062877 19.713435
v 11.522708 32.099794 18.835550
v 12.129506 31.995942 22.374730
v 8.764752 32.209709 21.134763
v 13.208049 62.049108 19.425419
v 12.862568 62.062877 19.713435
v 13.284061 62.036099 19.868762
v 12.129506 31.995942 22.374730
v 14.887462 31.886027 20.075517
v 13.629542 62.022330 19.580746
v 13.284061 62.036099 19.868762
v 11.522708 32.099794 18.835550
v 14.887462 31.886027 20.075517
v 12.129506 31.995942 22.374730
v 13.208049 62.049108 19.425419
v 13.284061 62.036099 19.868762
v 13.629542 62.022330 19.580746
v 14.887462 31.886027 20.075517
v 14.280664 31.989880 16.536337
v 13.553531 62.035340 19.137403
v 13.629542 62.022330 19.580746
v 11.522708 32.099794 18.835550
v 14.280664 31.989880 16.536337
v 14.887462 31.886027 20.075517
v 13.208049 62.049108 19.425419
v 13.629542 62.022330 19.580746
v 13.553531 62.035340 19.137403
v 14.280664 31.989880 16.536337
v 10.915910 32.203647 15.296370
v 13.132037 62.062118 18.982076
v 13.553531 62.035340 19.137403
v 11.522708 32.099794 18.835550
v 10.915910 32.203647 15.296370
v 14.280664 31.989880 16.536337
v 13.208049 62.049108 19.425419
v 13.553531 62.035340 19.137403
v 13.132037 62.062118 18.982076
v -7.285616 27.722789 12.882227
v -9.880191 27.767626 15.919918
v -5.360693 63.023189 16.928469
v -5.068451 63.018139 16.586315
v -5.953848 27.645207 16.648097
v -9.880191 27.767626 15.919918
v -7.285616 27.722789 12.882227
v -4.918446 63.009400 17.010488
v -5.068451 63.018139 16.586315
v -5.360693 63.023189 16.928469
v -9.880191 27.767626 15.919918
v -8.548423 27.690044 19.685788
v -5.210688 63.014451 17.352641
v -5.360693 63.023189 16.928469
v -5.953848 27.645207 16.648097
v -8.548423 27.690044 19.685788
v -9.880191 27.767626 15.919918
v -4.918446 63.009400 17.010488
v -5.360693 63.023189 16.928469
v -5.210688 63.014451 17.352641
v -8.548423 27.690044 19.685788
v -4.622080 27.567625 20.413967
v -4.768441 63.000662 17.434660
v -5.210688 63.014451 17.352641
v -5.953848 27.645207 16.648097
v -4.622080 27.567625 20.413967
v -8.548423 27.690044 19.685788
v -4.918446 63.009400 17.010488
v -5.210688 63.014451 17.352641
v -4.768441 63.000662 17.434660
v -4.622080 27.567625 20.413967
v -2.027505 27.522789 17.376276
v -4.476198 62.995612 17.092507
v -4.768441 63.000662 17.434660
v -5.953848 27.645207 16.648097
v -2.027505 27.522789 17.376276
v -4.622080 27.567625 20.413967
v -4.918446 63.009400 17.010488
v -4.768441 63.000662 17.434660
v -4.476198 62.995612 17.092507
v -2.027505 27.522789 17.376276
v -3.359273 27.600371 13.610406
v -4.626203 63.004350 16.668335
v -4.476198 62.995612 17.092507
v -5.953848 27.645207 16.648097
v -3.359273 27.600371 13.610406
v -2.027505 27.522789 17.376276
v -4.918446 63.009400 17.010488
v -4.476198 62.995612 17.092507
v -4.626203 63.004350 16.668335
v -3.359273 27.600371 13.610406
v -7.285616 27.722789 12.882227
v -5.068451 63.018139 16.586315
v -4.626203 63.004350 16.668335
v -5.953848 27.645207 16.648097
v -7.285616 27.722789 12.882227
v -3.359273 27.600371 13.610406
v -4.918446 63.009400 17.010488
v -4.626203 63.004350 16.668335
v -5.068451 63.018139 16.586315
v -25.505864 30.114503 4.766610
v -27.359679 30.072893 7.884981
v -26.132446 65.897893 7.243858
v -25.902510 65.903054 6.857074
v -23.737374 30.271464 7.930532
v -27.359679 30.072893 7.884981
v -25.505864 30.114503 4.766610
v -25.683156 65.922523 7.249508
v -25.902510 65.903054 6.857074
v -26.132446 65.897893 7.243858
v -27.359679 30.072893 7.884981
v -25.591188 30.229854 11.048904
v -25.913093 65.917362 7.636293
v -26.132446 65.897893 7.243858
v -23.737374 30.271464 7.930532
v -25.591188 30.229854 11.048904
v -27.359679 30.072893 7.884981
v -25.683156 65.922523 7.249508
v -26.132446 65.897893 7.243858
v -25.913093 65.917362 7.636293
v -25.591188 30.229854 11.048904
v -21.968883 30.428424 11.094455
v -25.463803 65.941991 7.641943
v -25.913093 65.917362 7.636293
v -23.737374 30.271464 7.930532
v -21.968883 30.428424 11.094455
v -25.591188 30.229854 11.048904
v -25.683156 65.922523 7.249508
v -25.913093 65.917362 7.636293
v -25.463803 65.941991 7.641943
v -21.968883 30.428424 11.094455
v -20.115068 30.470034 7.976083
v -25.233867 65.947152 7.255158
v -25.463803 65.941991 7.641943
v -23.737374 30.271464 7.930532
v -20.115068 30.470034 7.976083
v -21.968883 30.428424 11.094455
v -25.683156 65.922523 7.249508
v -25.463803 65.941991 7.641943
v -25.233867 65.947152 7.255158
v -20.115068 30.470034 7.976083
v -21.883559 30.313073 4.812161
v -25.453220 65.927684 6.862724
v -25.233867 65.947152 7.255158
v -23.737374 30.271464 7.930532
v -21.883559 30.313073 4.812161
v -20.115068 30.470034 7.976083
v -25.683156 65.922523 7.249508
v -25.233867 65.947152 7.255158
v -25.453220 65.927684 6.862724
v -21.883559 30.313073 4.812161
v -25.505864 30.114503 4.766610
v -25.902510 65.903054 6.857074
v -25.453220 65.927684 6.862724
v -23.737374 30.271464 7.930532
v -25.505864 30.114503 4.766610
v -21.883559 30.313073 4.812161
v -25.683156 65.922523 7.249508
v -25.453220 65.927684 6.862724
v -25.902510 65.903054 6.857074
v -29.135600 32.376964 -14.856042
v -31.166687 32.364220 -9.560010
v -28.651851 69.343817 -11.303081
v -28.490715 69.344828 -11.723241
v -25.578138 32.743066 -10.453332
v -31.166687 32.364220 -9.560010
v -29.135600 32.376964 -14.856042
v -28.208485 69.373873 -11.373953
v -28.490715 69.344828 -11.723241
v -28.651851 69.343817 -11.303081
v -31.166687 32.364220 -9.560010
v -27.609225 32.730322 -5.157299
v -28.369621 69.372862 -10.953793
v -28.651851 69.343817 -11.303081
v -25.578138 32.743066 -10.453332
v -27.609225 32.730322 -5.157299
v -31.166687 32.364220 -9.560010
v -28.208485 69.373873 -11.373953
v -28.651851 69.343817 -11.303081
v -28.369621 69.372862 -10.953793
v -27.609225 32.730322 -5.157299
v -22.020675 33.109167 -6.050621
v -27.926254 69.402917 -11.024665
v -28.369621 69.372862 -10.953793
v -25.578138 32.743066 -10.453332
v -22.020675 33.109167 -6.050621
v -27.609225 32.730322 -5.157299
v -28.208485 69.373873 -11.373953
v -28.369621 69.372862 -10.953793
v -27.926254 69.402917 -11.024665
v -22.020675 33.109167 -6.050621
v -19.989588 33.121911 -11.346653
v -27.765118 69.403928 -11.444824
v -27.926254 69.402917 -11.024665
v -25.578138 32.743066 -10.453332
v -19.989588 33.121911 -11.346653
v -22.020675 33.109167 -6.050621
v -28.208485 69.373873 -11.373953
v -27.926254 69.402917 -11.024665
v -27.765118 69.403928 -11.444824
v -19.989588 33.121911 -11.346653
v -23.547051 32.755810 -15.749364
v -28.047349 69.374884 -11.794113
v -27.765118 69.403928 -11.444824
v -25.578138 32.743066 -10.453332
v -23.547051 32.755810 -15.749364
v -19.989588 33.121911 -11.346653
v -28.208485 69.373873 -11.373953
v -27.765118 69.403928 -11.444824
v -28.047349 69.374884 -11.794113
v -23.547051 32.755810 -15.749364
v -29.135600 32.376964 -14.856042
v -28.490715 69.344828 -11.723241
v -28.047349 69.374884 -11.794113
v -25.578138 32.743066 -10.453332
v -29.135600 32.376964 -14.856042
v -23.547051 32.755810 -15.749364
v -28.208485 69.373873 -11.373953
v -28.047349 69.374884 -11.794113
v -28.490715 69.344828 -11.723241
v -10.741387 26.119654 -25.190383
v -11.760872 26.172442 -20.075555
v -9.341740 56.876424 -22.340110
v -9.253781 56.871869 -22.781406
v -6.832082 26.469759 -21.755508
v -11.760872 26.172442 -20.075555
v -10.741387 26.119654 -25.190383
v -8.916495 56.902075 -22.485052
v -9.253781 56.871869 -22.781406
v -9.341740 56.876424 -22.340110
v -11.760872 26.172442 -20.075555
v -7.851567 26.522547 -16.640679
v -9.004454 56.906630 -22.043756
v -9.341740 56.876424 -22.340110
v -6.832082 26.469759 -21.755508
v -7.851567 26.522547 -16.640679
v -11.760872 26.172442 -20.075555
v -8.916495 56.902075 -22.485052
v -9.341740 56.876424 -22.340110
v -9.004454 56.906630 -22.043756
v -7.851567 26.522547 -16.640679
v -2.922777 26.819864 -18.320633
v -8.579208 56.932282 -22.188699
v -9.004454 56.906630 -22.043756
v -6.832082 26.469759 -21.755508
v -2.922777 26.819864 -18.320633
v -7.851567 26.522547 -16.640679
v -8.916495 56.902075 -22.485052
v -9.004454 56.906630 -22.043756
v -8.579208 56.932282 -22.188699
v -2.922777 26.819864 -18.320633
v -1.903293 26.767076 -23.435461
v -8.491249 56.927727 -22.629995
v -8.579208 56.932282 -22.188699
v -6.832082 26.469759 -21.755508
v -1.903293 26.767076 -23.435461
v -2.922777 26.819864 -18.320633
v -8.916495 56.902075 -22.485052
v -8.579208 56.932282 -22.188699
v -8.491249 56.927727 -22.629995
v -1.903293 26.767076 -23.435461
v -5.812598 26.416971 -26.870337
v -8.828536 56.897521 -22.926349
v -8.491249 56.927727 -22.629995
v -6.832082 26.469759 -21.755508
v -5.812598 26.416971 -26.870337
v -1.903293 26.767076 -23.435461
v -8.916495 56.902075 -22.485052
v -8.491249 56.927727 -22.629995
v -8.828536 56.897521 -22.926349
v -5.812598 26.416971 -26.870337
v -10.741387 26.119654 -25.190383
v -9.253781 56.871869 -22.781406
v -8.828536 56.897521 -22.926349
v -6.832082 26.469759 -21.755508
v -10.741387 26.119654 -25.190383
v -5.812598 26.416971 -26.870337
v -8.916495 56.902075 -22.485052
v -8.828536 56.897521 -22.926349
v -9.253781 56.871869 -22.781406
v 11.866577 23.196597 -24.347444
v 11.770806 23.312918 -20.810683
v 10.812418 59.485262 -23.572695
v 10.824592 59.470476 -24.022287
v 14.867509 23.567851 -22.506802
v 11.770806 23.312918 -20.810683
v 11.866577 23.196597 -24.347444
v 11.206070 59.517669 -23.788306
v 10.824592 59.470476 -24.022287
v 10.812418 59.485262 -23.572695
v 11.770806 23.312918 -20.810683
v 14.771737 23.684172 -18.970041
v 11.193895 59.532456 -23.338713
v 10.812418 59.485262 -23.572695
v 14.867509 23.567851 -22.506802
v 14.771737 23.684172 -18.970041
v 11.770806 23.312918 -20.810683
v 11.206070 59.517669 -23.788306
v 10.812418 59.485262 -23.572695
v 11.193895 59.532456 -23.338713
v 14.771737 23.684172 -18.970041
v 17.868441 23.939105 -20.666160
v 11.587547 59.564863 -23.554324
v 11.193895 59.532456 -23.338713
v 14.867509 23.567851 -22.506802
v 17.868441 23.939105 -20.666160
v 14.771737 23.684172 -18.970041
v 11.206070 59.517669 -23.788306
v 11.193895 59.532456 -23.338713
v 11.587547 59.564863 -23.554324
v 17.868441 23.939105 -20.666160
v 17.964212 23.822784 -24.202921
v 11.599722 59.550076 -24.003916
v 11.587547 59.564863 -23.554324
v 14.867509 23.567851 -22.506802
v 17.964212 23.822784 -24.202921
v 17.868441 23.939105 -20.666160
v 11.206070 59.517669 -23.788306
v 11.587547 59.564863 -23.554324
v 11.599722 59.550076 -24.003916
v 17.964212 23.822784 -24.202921
v 14.963281 23.451530 -26.043563
v 11.218244 59.502883 -24.237898
v 11.599722 59.550076 -24.003916
v 14.867509 23.567851 -22.506802
v 14.963281 23.451530 -26.043563
v 17.964212 23.822784 -24.202921
v 11.206070 59.517669 -23.788306
v 11.599722 59.550076 -24.003916
v 11.218244 59.502883 -24.237898
v 14.963281 23.451530 -26.043563
v 11.866577 23.196597 -24.347444
v 10.824592 59.470476 -24.022287
v 11.218244 59.502883 -24.237898
v 14.867509 23.567851 -22.506802
v 11.866577 23.196597 -24.347444
v 14.963281 23.451530 -26.043563
v 11.206070 59.517669 -23.788306
v 11.218244 59.502883 -24.237898
v 10.824592 59.470476 -24.022287
vt 0.500000 1.000000
vt 0.000000 0.000000
vt 1.000000 0.000000
vt 0.000000 0.000000
vt 1.000000 0.000000
vt 1.000000 1.000000
vt 0.000000 1.000000
vt 0.000000 0.000000
vt 1.000000 0.000000
vt 1.000000 1.000000
vt 0.000000 1.000000
vt 0.500000 1.000000
vt 0.000000 0.000000
vt 1.000000 0.000000
vt 0.500000 1.000000
vt 0.000000 0.000000
vt 1.000000 0.000000
vt 0.000000 0.000000
vt 1.000000 0.000000
vt 1.000000 1.000000
vt 0.000000 1.000000
vt 0.000000 0.000000
vt 1.000000 0.000000
vt 1.000000 1.000000
vt 0.000000 1.000000
vt 0.500000 1.000000
vt 0.000000 0.000000
vt 1.000000 0.000000
vt 0.500000 1.000000
vt 0.000000 0.000000
vt 1.000000 0.000000
vt 0.000000 0.000000
vt 1.000000 0.000000
vt 1.000000 1.000000
vt 0.000000 1.000000
vt 0.000000 0.000000
vt 1.000000 0.000000
vt 1.000000 1.000000
vt 0.000000 1.000000
vt 0.500000 1.000000
vt 0.000000 0.000000
vt 1.000000 0.000000
vt 0.500000 1.000000
vt 0.000000 0.000000
vt 1.000000 0.000000
vt 0.000000 0.000000
vt 1.000000 0.000000
vt 1.000000 1.000000
vt 0.000000 1.000000
vt 0.000000 0.000000
vt 1.000000 0.000000
vt 1.000000 1.000000
vt 0.000000 1.000000
vt 0.500000 1.000000
vt 0.000000 0.000000
vt 1.000000 0.000000
vt 0.500000 1.000000
vt 0.000000 0.000000
vt 1.000000 0.000000
vt 0.000000 0.000000
vt 1.000000 0.000000
vt 1.000000 1.000000
vt 0.000000 1.000000
vt 0.000000 0.000000
vt 1.000000 0.000000
vt 1.000000 1.000000
vt 0.000000 1.000000
vt 0.500000 1.000000
vt 0.000000 0.000000
vt 1.000000 0.000000
vt 0.500000 1.000000
vt 0.000000 0.000000
vt 1.000000 0.000000
vt 0.000000 0.000000
vt 1.000000 0.000000
vt 1.000000 1.000000
vt 0.000000 1.000000
vt 0.000000 0.000000
vt 1.000000 0.000000
vt 1.000000 1.000000
vt 0.000000 1.000000
vt 0.500000 1.000000
vt 0.000000 0.000000
vt 1.000000 0.000000
vt 0.500000 1.000000
vt 0.000000 0.000000
vt 1.000000 0.000000
vt 0.000000 0.000000
vt 1.000000 0.000000
vt 1.000000 1.000000
vt 0.000000 1.000000
vt 0.000000 0.000000
vt 1.000000 0.000000
vt 1.000000 1.000000
vt 0.000000 1.000000
vt 0.500000 1.000000
vt 0.000000 0.000000
vt 1.000000 0.000000
vt 0.500000 1.000000
vt 0.000000 0.000000
vt 1.000000 0.000000
vt 0.000000 0.000000
vt 1.000000 0.000000
vt 1.000000 1.000000
vt 0.000000 1.000000
vt 0.000000 0.000000
vt 1.000000 0.000000
vt 1.000000 1.000000
vt 0.000000 1.000000
vt 0.500000 1.000000
vt 0.000000 0.000000
vt 1.000000 0.000000
vt 0.500000 1.000000
vt 0.000000 0.000000
vt 1.000000 0.000000
vt 0.000000 0.000000
vt 1.000000 0.000000
vt 1.000000 1.000000
vt 0.000000 1.000000
vt 0.000000 0.000000
vt 1.000000 0.000000
vt 1.000000 1.000000
vt 0.000000 1.000000
vt 0.500000 1.000000
vt 0.000000 0.000000
vt 1.000000 0.000000
vt 0.500000 1.000000
vt 0.000000 0.000000
vt 1.000000 0.000000
vt 0.000000 0.000000
vt 1.000000 0.000000
vt 1.000000 1.000000
vt 0.000000 1.000000
vt 0.000000 0.000000
vt 1.000000 0.000000
vt 1.000000 1.000000
vt 0.000000 1.000000
vt 0.500000 1.000000
vt 0.000000 0.000000
vt 1.000000 0.000000
vt 0.000000 0.000000
vt 1.000000 0.000000
vt 1.000000 1.000000
vt 0.000000 1.000000
vt 0.500000 1.000000
vt 0.000000 0.000000
vt 1.000000 0.000000
vt 0.500000 1.000000
vt 0.000000 0.000000
vt 1.000000 0.000000
vt 0.000000 0.000000
vt 1.000000 0.000000
vt 1.000000 1.000000
vt 0.000000 1.000000
vt 0.500000 1.000000
vt 0.000000 0.000000
vt 1.000000 0.000000
vt 0.500000 1.000000
vt 0.000000 0.000000
vt 1.000000 0.000000
vt 0.000000 0.000000
vt 1.000000 0.000000
vt 1.000000 1.000000
vt 0.000000 1.000000
vt 0.500000 1.000000
vt 0.000000 0.000000
vt 1.000000 0.000000
vt 0.500000 1.000000
vt 0.000000 0.000000
vt 1.000000 0.000000
vt 0.000000 0.000000
vt 1.000000 0.000000
vt 1.000000 1.000000
vt 0.000000 1.000000
vt 0.500000 1.000000
vt 0.000000 0.000000
vt 1.000000 0.000000
vt 0.500000 1.000000
vt 0.000000 0.000000
vt 1.000000 0.000000
vt 0.000000 0.000000
vt 1.000000 0.000000
vt 1.000000 1.000000
vt 0.000000 1.000000
vt 0.500000 1.000000
vt 0.000000 0.000000
vt 1.000000 0.000000
vt 0.500000 1.000000
vt 0.000000 0.000000
vt 1.000000 0.000000
vt 0.000000 0.000000
vt 1.000000 0.000000
vt 1.000000 1.000000
vt 0.000000 1.000000
vt 0.500000 1.000000
vt 0.000000 0.000000
vt 1.000000 0.000000
vt 0.500000 1.000000
vt 0.000000 0.000000
vt 1.000000 0.000000
vt 0.000000 0.000000
vt 1.000000 0.000000
vt 1.000000 1.000000
vt 0.000000 1.000000
vt 0.500000 1.000000
vt 0.000000 0.000000
vt 1.000000 0.000000
vt 0.500000 1.000000
vt 0.000000 0.000000
vt 1.000000 0.000000
vt 0.000000 0.000000
vt 1.000000 0.000000
vt 1.000000 1.000000
vt 0.000000 1.000000
vt 0.500000 1.000000
vt 0.000000 0.000000
vt 1.000000 0.000000
vt 0.500000 1.000000
vt 0.000000 0.000000
vt 1.000000 0.000000
vt 0.000000 0.000000
vt 1.000000 0.000000
vt 1.000000 1.000000
vt 0.000000 1.000000
vt 0.500000 1.000000
vt 0.000000 0.000000
vt 1.000000 0.000000
vt 0.500000 1.000000
vt 0.000000 0.000000
vt 1.000000 0.000000
vt 0.000000 0.000000
vt 1.000000 0.000000
vt 1.000000 1.000000
vt 0.000000 1.000000
vt 0.500000 1.000000
vt 0.000000 0.000000
vt 1.000000 0.000000
vt 0.500000 1.000000
vt 0.000000 0.000000
vt 1.000000 0.000000
vt 0.000000 0.000000
vt 1.000000 0.000000
vt 1.000000 1.000000
vt 0.000000 1.000000
vt 0.500000 1.000000
vt 0.000000 0.000000
vt 1.000000 0.000000
vt 0.500000 1.000000
vt 0.000000 0.000000
vt 1.000000 0.000000
vt 0.000000 0.000000
vt 1.000000 0.000000
vt 1.000000 1.000000
vt 0.000000 1.000000
vt 0.500000 1.000000
vt 0.000000 0.000000
vt 1.000000 0.000000
vt 0.500000 1.000000
vt 0.000000 0.000000
vt 1.000000 0.000000
vt 0.000000 0.000000
vt 1.000000 0.000000
vt 1.000000 1.000000
vt 0.000000 1.000000
vt 0.500000 1.000000
vt 0.000000 0.000000
vt 1.000000 0.000000
vt 0.500000 1.000000
vt 0.000000 0.000000
vt 1.000000 0.000000
vt 0.000000 0.000000
vt 1.000000 0.000000
vt 1.000000 1.000000
vt 0.000000 1.000000
vt 0.500000 1.000000
vt 0.000000 0.000000
vt 1.000000 0.000000
vt 0.500000 1.000000
vt 0.000000 0.000000
vt 1.000000 0.000000
vt 0.000000 0.000000
vt 1.000000 0.000000
vt 1.000000 1.000000
vt 0.000000 1.000000
vt 0.500000 1.000000
vt 0.000000 0.000000
vt 1.000000 0.000000
vt 0.500000 1.000000
vt 0.000000 0.000000
vt 1.000000 0.000000
vt 0.000000 0.000000
vt 1.000000 0.000000
vt 1.000000 1.000000
vt 0.000000 1.000000
vt 0.500000 1.000000
vt 0.000000 0.000000
vt 1.000000 0.000000
vt 0.500000 1.000000
vt 0.000000 0.000000
vt 1.000000 0.000000
vt 0.000000 0.000000
vt 1.000000 0.000000
vt 1.000000 1.000000
vt 0.000000 1.000000
vt 0.500000 1.000000
vt 0.000000 0.000000
vt 1.000000 0.000000
vt 0.500000 1.000000
vt 0.000000 0.000000
vt 1.000000 0.000000
vt 0.000000 0.000000
vt 1.000000 0.000000
vt 1.000000 1.000000
vt 0.000000 1.000000
vt 0.500000 1.000000
vt 0.000000 0.000000
vt 1.000000 0.000000
vt 0.500000 1.000000
vt 0.000000 0.000000
vt 1.000000 0.000000
vt 0.000000 0.000000
vt 1.000000 0.000000
vt 1.000000 1.000000
vt 0.000000 1.000000
vt 0.500000 1.000000
vt 0.000000 0.000000
vt 1.000000 0.000000
vt 0.500000 1.000000
vt 0.000000 0.000000
vt 1.000000 0.000000
vt 0.000000 0.000000
vt 1.000000 0.000000
vt 1.000000 1.000000
vt 0.000000 1.000000
vt 0.500000 1.000000
vt 0.000000 0.000000
vt 1.000000 0.000000
vt 0.500000 1.000000
vt 0.000000 0.000000
vt 1.000000 0.000000
vt 0.000000 0.000000
vt 1.000000 0.000000
vt 1.000000 1.000000
vt 0.000000 1.000000
vt 0.500000 1.000000
vt 0.000000 0.000000
vt 1.000000 0.000000
vt 0.500000 1.000000
vt 0.000000 0.000000
vt 1.000000 0.000000
vt 0.000000 0.000000
vt 1.000000 0.000000
vt 1.000000 1.000000
vt 0.000000 1.000000
vt 0.500000 1.000000
vt 0.000000 0.000000
vt 1.000000 0.000000
vt 0.500000 1.000000
vt 0.000000 0.000000
vt 1.000000 0.000000
vt 0.000000 0.000000
vt 1.000000 0.000000
vt 1.000000 1.000000
vt 0.000000 1.000000
vt 0.500000 1.000000
vt 0.000000 0.000000
vt 1.000000 0.000000
vt 0.500000 1.000000
vt 0.000000 0.000000
vt 1.000000 0.000000
vt 0.000000 0.000000
vt 1.000000 0.000000
vt 1.000000 1.000000
vt 0.000000 1.000000
vt 0.500000 1.000000
vt 0.000000 0.000000
vt 1.000000 0.000000
vt 0.500000 1.000000
vt 0.000000 0.000000
vt 1.000000 0.000000
vt 0.000000 0.000000
vt 1.000000 0.000000
vt 1.000000 1.000000
vt 0.000000 1.000000
vt 0.500000 1.000000
vt 0.000000 0.000000
vt 1.000000 0.000000
vt 0.500000 1.000000
vt 0.000000 0.000000
vt 1.000000 0.000000
vt 0.000000 0.000000
vt 1.000000 0.000000
vt 1.000000 1.000000
vt 0.000000 1.000000
vt 0.500000 1.000000
vt 0.000000 0.000000
vt 1.000000 0.000000
vt 0.500000 1.000000
vt 0.000000 0.000000
vt 1.000000 0.000000
vt 0.000000 0.000000
vt 1.000000 0.000000
vt 1.000000 1.000000
vt 0.000000 1.000000
vt 0.500000 1.000000
vt 0.000000 0.000000
vt 1.000000 0.000000
vt 0.500000 1.000000
vt 0.000000 0.000000
vt 1.000000 0.000000
vt 0.000000 0.000000
vt 1.000000 0.000000
vt 1.000000 1.000000
vt 0.000000 1.000000
vt 0.500000 1.000000
vt 0.000000 0.000000
vt 1.000000 0.000000
vt 0.500000 1.000000
vt 0.000000 0.000000
vt 1.000000 0.000000
vt 0.000000 0.000000
vt 1.000000 0.000000
vt 1.000000 1.000000
vt 0.000000 1.000000
vt 0.500000 1.000000
vt 0.000000 0.000000
vt 1.000000 0.000000
vt 0.500000 1.000000
vt 0.000000 0.000000
vt 1.000000 0.000000
vt 0.000000 0.000000
vt 1.000000 0.000000
vt 1.000000 1.000000
vt 0.000000 1.000000
vt 0.500000 1.000000
vt 0.000000 0.000000
vt 1.000000 0.000000
vt 0.500000 1.000000
vt 0.000000 0.000000
vt 1.000000 0.000000
vt 0.000000 0.000000
vt 1.000000 0.000000
vt 1.000000 1.000000
vt 0.000000 1.000000
vt 0.500000 1.000000
vt 0.000000 0.000000
vt 1.000000 0.000000
vt 0.500000 1.000000
vt 0.000000 0.000000
vt 1.000000 0.000000
vt 0.000000 0.000000
vt 1.000000 0.000000
vt 1.000000 1.000000
vt 0.000000 1.000000
vt 0.500000 1.000000
vt 0.000000 0.000000
vt 1.000000 0.000000
vt 0.500000 1.000000
vt 0.000000 0.000000
vt 1.000000 0.000000
vt 0.000000 0.000000
vt 1.000000 0.000000
vt 1.000000 1.000000
vt 0.000000 1.000000
vt 0.500000 1.000000
vt 0.000000 0.000000
vt 1.000000 0.000000
vt 0.500000 1.000000
vt 0.000000 0.000000
vt 1.000000 0.000000
vt 0.000000 0.000000
vt 1.000000 0.000000
vt 1.000000 1.000000
vt 0.000000 1.000000
vt 0.500000 1.000000
vt 0.000000 0.000000
vt 1.000000 0.000000
vt 0.500000 1.000000
vt 0.000000 0.000000
vt 1.000000 0.000000
vt 0.000000 0.000000
vt 1.000000 0.000000
vt 1.000000 1.000000
vt 0.000000 1.000000
vt 0.500000 1.000000
vt 0.000000 0.000000
vt 1.000000 0.000000
vt 0.500000 1.000000
vt 0.000000 0.000000
vt 1.000000 0.000000
vt 0.000000 0.000000
vt 1.000000 0.000000
vt 1.000000 1.000000
vt 0.000000 1.000000
vt 0.500000 1.000000
vt 0.000000 0.000000
vt 1.000000 0.000000
vt 0.500000 1.000000
vt 0.000000 0.000000
vt 1.000000 0.000000
vt 0.000000 0.000000
vt 1.000000 0.000000
vt 1.000000 1.000000
vt 0.000000 1.000000
vt 0.500000 1.000000
vt 0.000000 0.000000
vt 1.000000 0.000000
vt 0.500000 1.000000
vt 0.000000 0.000000
vt 1.000000 0.000000
vt 0.000000 0.000000
vt 1.000000 0.000000
vt 1.000000 1.000000
vt 0.000000 1.000000
vt 0.500000 1.000000
vt 0.000000 0.000000
vt 1.000000 0.000000
vt 0.500000 1.000000
vt 0.000000 0.000000
vt 1.000000 0.000000
vt 0.000000 0.000000
vt 1.000000 0.000000
vt 1.000000 1.000000
vt 0.000000 1.000000
vt 0.500000 1.000000
vt 0.000000 0.000000
vt 1.000000 0.000000
vt 0.500000 1.000000
vt 0.000000 0.000000
vt 1.000000 0.000000
vt 0.000000 0.000000
vt 1.000000 0.000000
vt 1.000000 1.000000
vt 0.000000 1.000000
vt 0.500000 1.000000
vt 0.000000 0.000000
vt 1.000000 0.000000
vt 0.500000 1.000000
vt 0.000000 0.000000
vt 1.000000 0.000000
vt 0.000000 0.000000
vt 1.000000 0.000000
vt 1.000000 1.000000
vt 0.000000 1.000000
vt 0.500000 1.000000
vt 0.000000 0.000000
vt 1.000000 0.000000
vt 0.500000 1.000000
vt 0.000000 0.000000
vt 1.000000 0.000000
vt 0.000000 0.000000
vt 1.000000 0.000000
vt 1.000000 1.000000
vt 0.000000 1.000000
vt 0.500000 1.000000
vt 0.000000 0.000000
vt 1.000000 0.000000
vt 0.500000 1.000000
vt 0.000000 0.000000
vt 1.000000 0.000000
s 1
usemtl models/caelum/world/environment/rock_granite.png
f 1/1 2/2 3/3
f 4/4 5/5 6/6 7/7
f 8/8 9/9 10/10 11/11
f 12/12 13/13 14/14
f 15/15 16/16 17/17
f 18/18 19/19 20/20 21/21
f 22/22 23/23 24/24 25/25
f 26/26 27/27 28/28
f 29/29 30/30 31/31
f 32/32 33/33 34/34 35/35
f 36/36 37/37 38/38 39/39
f 40/40 41/41 42/42
f 43/43 44/44 45/45
f 46/46 47/47 48/48 49/49
f 50/50 51/51 52/52 53/53
f 54/54 55/55 56/56
f 57/57 58/58 59/59
f 60/60 61/61 62/62 63/63
f 64/64 65/65 66/66 67/67
f 68/68 69/69 70/70
f 71/71 72/72 73/73
f 74/74 75/75 76/76 77/77
f 78/78 79/79 80/80 81/81
f 82/82 83/83 84/84
f 85/85 86/86 87/87
f 88/88 89/89 90/90 91/91
f 92/92 93/93 94/94 95/95
f 96/96 97/97 98/98
f 99/99 100/100 101/101
f 102/102 103/103 104/104 105/105
f 106/106 107/107 108/108 109/109
f 110/110 111/111 112/112
f 113/113 114/114 115/115
f 116/116 117/117 118/118 119/119
f 120/120 121/121 122/122 123/123
f 124/124 125/125 126/126
f 127/127 128/128 129/129
f 130/130 131/131 132/132 133/133
f 134/134 135/135 136/136 137/137
f 138/138 139/139 140/140
usemtl models/caelum/world/resources/ca_vein_emerald.png
f 141/141 142/142 143/143 144/144
f 145/145 146/146 147/147
f 148/148 149/149 150/150
f 151/151 152/152 153/153 154/154
f 155/155 156/156 157/157
f 158/158 159/159 160/160
f 161/161 162/162 163/163 164/164
f 165/165 166/166 167/167
f 168/168 169/169 170/170
f 171/171 172/172 173/173 174/174
f 175/175 176/176 177/177
f 178/178 179/179 180/180
f 181/181 182/182 183/183 184/184
f 185/185 186/186 187/187
f 188/188 189/189 190/190
f 191/191 192/192 193/193 194/194
f 195/195 196/196 197/197
f 198/198 199/199 200/200
f 201/201 202/202 203/203 204/204
f 205/205 206/206 207/207
f 208/208 209/209 210/210
f 211/211 212/212 213/213 214/214
f 215/215 216/216 217/217
f 218/218 219/219 220/220
f 221/221 222/222 223/223 224/224
f 225/225 226/226 227/227
f 228/228 229/229 230/230
f 231/231 232/232 233/233 234/234
f 235/235 236/236 237/237
f 238/238 239/239 240/240
f 241/241 242/242 243/243 244/244
f 245/245 246/246 247/247
f 248/248 249/249 250/250
f 251/251 252/252 253/253 254/254
f 255/255 256/256 257/257
f 258/258 259/259 260/260
f 261/261 262/262 263/263 264/264
f 265/265 266/266 267/267
f 268/268 269/269 270/270
f 271/271 272/272 273/273 274/274
f 275/275 276/276 277/277
f 278/278 279/279 280/280
f 281/281 282/282 283/283 284/284
f 285/285 286/286 287/287
f 288/288 289/289 290/290
f 291/291 292/292 293/293 294/294
f 295/295 296/296 297/297
f 298/298 299/299 300/300
f 301/301 302/302 303/303 304/304
f 305/305 306/306 307/307
f 308/308 309/309 310/310
f 311/311 312/312 313/313 314/314
f 315/315 316/316 317/317
f 318/318 319/319 320/320
f 321/321 322/322 323/323 324/324
f 325/325 326/326 327/327
f 328/328 329/329 330/330
f 331/331 332/332 333/333 334/334
f 335/335 336/336 337/337
f 338/338 339/339 340/340
f 341/341 342/342 343/343 344/344
f 345/345 346/346 347/347
f 348/348 349/349 350/350
f 351/351 352/352 353/353 354/354
f 355/355 356/356 357/357
f 358/358 359/359 360/360
f 361/361 362/362 363/363 364/364
f 365/365 366/366 367/367
f 368/368 369/369 370/370
f 371/371 372/372 373/373 374/374
f 375/375 376/376 377/377
f 378/378 379/379 380/380
f 381/381 382/382 383/383 384/384
f 385/385 386/386 387/387
f 388/388 389/389 390/390
f 391/391 392/392 393/393 394/394
f 395/395 396/396 397/397
f 398/398 399/399 400/400
f 401/401 402/402 403/403 404/404
f 405/405 406/406 407/407
f 408/408 409/409 410/410
f 411/411 412/412 413/413 414/414
f 415/415 416/416 417/417
f 418/418 419/419 420/420
f 421/421 422/422 423/423 424/424
f 425/425 426/426 427/427
f 428/428 429/429 430/430
f 431/431 432/432 433/433 434/434
f 435/435 436/436 437/437
f 438/438 439/439 440/440
f 441/441 442/442 443/443 444/444
f 445/445 446/446 447/447
f 448/448 449/449 450/450
f 451/451 452/452 453/453 454/454
f 455/455 456/456 457/457
f 458/458 459/459 460/460
f 461/461 462/462 463/463 464/464
f 465/465 466/466 467/467
f 468/468 469/469 470/470
f 471/471 472/472 473/473 474/474
f 475/475 476/476 477/477
f 478/478 479/479 480/480
f 481/481 482/482 483/483 484/484
f 485/485 486/486 487/487
f 488/488 489/489 490/490
f 491/491 492/492 493/493 494/494
f 495/495 496/496 497/497
f 498/498 499/499 500/500
f 501/501 502/502 503/503 504/504
f 505/505 506/506 507/507
f 508/508 509/509 510/510
f 511/511 512/512 513/513 514/514
f 515/515 516/516 517/517
f 518/518 519/519 520/520
f 521/521 522/522 523/523 524/524
f 525/525 526/526 527/527
f 528/528 529/529 530/530
f 531/531 532/532 533/533 534/534
f 535/535 536/536 537/537
f 538/538 539/539 540/540
f 541/541 542/542 543/543 544/544
f 545/545 546/546 547/547
f 548/548 549/549 550/550
f 551/551 552/552 553/553 554/554
f 555/555 556/556 557/557
f 558/558 559/559 560/560
