# Modelo original generado para Caelum Argenteum.
# Ejes OBJ: X ancho, Y altura, Z profundidad.
o ca_vein_gold
v 0.000000 0.000000 0.000000
v 40.014549 -0.581047 0.000000
v 33.760340 1.445222 21.183551
v 40.014549 -0.581047 0.000000
v 41.998391 16.230297 0.000000
v 38.299838 17.182389 24.031944
v 33.760340 1.445222 21.183551
v 41.998391 16.230297 0.000000
v 35.211984 36.201905 0.000000
v 26.045720 34.895826 16.342870
v 38.299838 17.182389 24.031944
v 6.802833 52.000000 -3.991548
v 26.045720 34.895826 16.342870
v 35.211984 36.201905 0.000000
v 0.000000 0.000000 0.000000
v 33.760340 1.445222 21.183551
v 12.760732 0.862103 33.918018
v 33.760340 1.445222 21.183551
v 38.299838 17.182389 24.031944
v 13.766794 16.072609 36.592131
v 12.760732 0.862103 33.918018
v 38.299838 17.182389 24.031944
v 26.045720 34.895826 16.342870
v 11.601248 34.520518 30.836111
v 13.766794 16.072609 36.592131
v 6.802833 52.000000 -3.991548
v 11.601248 34.520518 30.836111
v 26.045720 34.895826 16.342870
v 0.000000 0.000000 0.000000
v 12.760732 0.862103 33.918018
v -10.435490 -1.674195 27.737527
v 12.760732 0.862103 33.918018
v 13.766794 16.072609 36.592131
v -12.476690 17.086756 33.163034
v -10.435490 -1.674195 27.737527
v 13.766794 16.072609 36.592131
v 11.601248 34.520518 30.836111
v -8.613676 34.178013 22.895145
v -12.476690 17.086756 33.163034
v 6.802833 52.000000 -3.991548
v -8.613676 34.178013 22.895145
v 11.601248 34.520518 30.836111
v 0.000000 0.000000 0.000000
v -10.435490 -1.674195 27.737527
v -25.219286 0.325000 15.824309
v -10.435490 -1.674195 27.737527
v -12.476690 17.086756 33.163034
v -37.568265 16.369863 23.572905
v -25.219286 0.325000 15.824309
v -12.476690 17.086756 33.163034
v -8.613676 34.178013 22.895145
v -29.343718 36.495752 18.412260
v -37.568265 16.369863 23.572905
v 6.802833 52.000000 -3.991548
v -29.343718 36.495752 18.412260
v -8.613676 34.178013 22.895145
v 0.000000 0.000000 0.000000
v -25.219286 0.325000 15.824309
v -34.248804 -0.954751 0.000000
v -25.219286 0.325000 15.824309
v -37.568265 16.369863 23.572905
v -42.232529 17.106991 0.000000
v -34.248804 -0.954751 0.000000
v -37.568265 16.369863 23.572905
v -29.343718 36.495752 18.412260
v -32.903628 36.970461 0.000000
v -42.232529 17.106991 0.000000
v 6.802833 52.000000 -3.991548
v -32.903628 36.970461 0.000000
v -29.343718 36.495752 18.412260
v 0.000000 0.000000 0.000000
v -34.248804 -0.954751 0.000000
v -33.630788 1.339129 -21.102261
v -34.248804 -0.954751 0.000000
v -42.232529 17.106991 0.000000
v -30.336329 17.231564 -19.035092
v -33.630788 1.339129 -21.102261
v -42.232529 17.106991 0.000000
v -32.903628 36.970461 0.000000
v -27.670061 33.750503 -17.362093
v -30.336329 17.231564 -19.035092
v 6.802833 52.000000 -3.991548
v -27.670061 33.750503 -17.362093
v -32.903628 36.970461 0.000000
v 0.000000 0.000000 0.000000
v -33.630788 1.339129 -21.102261
v -12.691444 -0.989340 -33.733850
v -33.630788 1.339129 -21.102261
v -30.336329 17.231564 -19.035092
v -13.957708 15.712556 -37.099580
v -12.691444 -0.989340 -33.733850
v -30.336329 17.231564 -19.035092
v -27.670061 33.750503 -17.362093
v -9.411036 36.491107 -25.014527
v -13.957708 15.712556 -37.099580
v 6.802833 52.000000 -3.991548
v -9.411036 36.491107 -25.014527
v -27.670061 33.750503 -17.362093
v 0.000000 0.000000 0.000000
v -12.691444 -0.989340 -33.733850
v 10.829961 -0.604176 -28.786029
v -12.691444 -0.989340 -33.733850
v -13.957708 15.712556 -37.099580
v 12.565811 17.103124 -33.399917
v 10.829961 -0.604176 -28.786029
v -13.957708 15.712556 -37.099580
v -9.411036 36.491107 -25.014527
v 9.428225 35.981535 -25.060217
v 12.565811 17.103124 -33.399917
v 6.802833 52.000000 -3.991548
v 9.428225 35.981535 -25.060217
v -9.411036 36.491107 -25.014527
v 0.000000 0.000000 0.000000
v 10.829961 -0.604176 -28.786029
v 34.952043 0.745576 -21.931308
v 10.829961 -0.604176 -28.786029
v 12.565811 17.103124 -33.399917
v 41.799850 18.283348 -26.228091
v 34.952043 0.745576 -21.931308
v 12.565811 17.103124 -33.399917
v 9.428225 35.981535 -25.060217
v 30.037251 34.206478 -18.847430
v 41.799850 18.283348 -26.228091
v 6.802833 52.000000 -3.991548
v 30.037251 34.206478 -18.847430
v 9.428225 35.981535 -25.060217
v 0.000000 0.000000 0.000000
v 34.952043 0.745576 -21.931308
v 40.014549 -0.581047 0.000000
v 34.952043 0.745576 -21.931308
v 41.799850 18.283348 -26.228091
v 41.998391 16.230297 0.000000
v 40.014549 -0.581047 0.000000
v 41.799850 18.283348 -26.228091
v 30.037251 34.206478 -18.847430
v 35.211984 36.201905 0.000000
v 41.998391 16.230297 0.000000
v 6.802833 52.000000 -3.991548
v 35.211984 36.201905 0.000000
v 30.037251 34.206478 -18.847430
v 31.995993 28.876445 2.120269
v 36.888862 32.405481 7.737617
v 40.789872 32.455887 2.120269
v 40.789872 32.455887 2.120269
v 36.888862 32.405481 7.737617
v 36.906620 38.043795 7.758005
v 39.598526 37.823947 2.120269
v 31.995993 41.482624 2.120269
v 39.598526 37.823947 2.120269
v 36.906620 38.043795 7.758005
v 31.995993 28.876445 2.120269
v 30.070446 32.212647 9.844223
v 36.888862 32.405481 7.737617
v 36.888862 32.405481 7.737617
v 30.070446 32.212647 9.844223
v 30.063992 38.675536 9.870113
v 36.906620 38.043795 7.758005
v 31.995993 41.482624 2.120269
v 36.906620 38.043795 7.758005
v 30.063992 38.675536 9.870113
v 31.995993 28.876445 2.120269
v 25.912115 31.913788 4.802697
v 30.070446 32.212647 9.844223
v 30.070446 32.212647 9.844223
v 25.912115 31.913788 4.802697
v 24.572396 38.784872 5.393389
v 30.063992 38.675536 9.870113
v 31.995993 41.482624 2.120269
v 30.063992 38.675536 9.870113
v 24.572396 38.784872 5.393389
v 31.995993 28.876445 2.120269
v 23.978223 31.988559 -1.414826
v 25.912115 31.913788 4.802697
v 25.912115 31.913788 4.802697
v 23.978223 31.988559 -1.414826
v 24.276926 38.630522 -1.283126
v 24.572396 38.784872 5.393389
v 31.995993 41.482624 2.120269
v 24.572396 38.784872 5.393389
v 24.276926 38.630522 -1.283126
v 31.995993 28.876445 2.120269
v 30.302004 31.843523 -4.674836
v 23.978223 31.988559 -1.414826
v 23.978223 31.988559 -1.414826
v 30.302004 31.843523 -4.674836
v 29.946791 38.169958 -6.099701
v 24.276926 38.630522 -1.283126
v 31.995993 41.482624 2.120269
v 24.276926 38.630522 -1.283126
v 29.946791 38.169958 -6.099701
v 31.995993 28.876445 2.120269
v 37.762964 31.689419 -4.500608
v 30.302004 31.843523 -4.674836
v 30.302004 31.843523 -4.674836
v 37.762964 31.689419 -4.500608
v 37.296807 38.890816 -3.965427
v 29.946791 38.169958 -6.099701
v 31.995993 41.482624 2.120269
v 29.946791 38.169958 -6.099701
v 37.296807 38.890816 -3.965427
v 31.995993 28.876445 2.120269
v 40.789872 32.455887 2.120269
v 37.762964 31.689419 -4.500608
v 37.762964 31.689419 -4.500608
v 40.789872 32.455887 2.120269
v 39.598526 37.823947 2.120269
v 37.296807 38.890816 -3.965427
v 31.995993 41.482624 2.120269
v 37.296807 38.890816 -3.965427
v 39.598526 37.823947 2.120269
v 22.594149 9.571451 12.682237
v 27.331688 11.608987 17.308731
v 30.399131 11.916932 12.682237
v 30.399131 11.916932 12.682237
v 27.331688 11.608987 17.308731
v 26.404636 15.669738 16.403409
v 30.549329 15.860337 12.682237
v 22.594149 17.941343 12.682237
v 30.549329 15.860337 12.682237
v 26.404636 15.669738 16.403409
v 22.594149 9.571451 12.682237
v 20.947829 11.347212 18.299585
v 27.331688 11.608987 17.308731
v 27.331688 11.608987 17.308731
v 20.947829 11.347212 18.299585
v 21.312500 15.936105 17.055305
v 26.404636 15.669738 16.403409
v 22.594149 17.941343 12.682237
v 26.404636 15.669738 16.403409
v 21.312500 15.936105 17.055305
v 22.594149 9.571451 12.682237
v 17.074322 11.974578 14.752400
v 20.947829 11.347212 18.299585
v 20.947829 11.347212 18.299585
v 17.074322 11.974578 14.752400
v 15.551415 15.709143 15.323552
v 21.312500 15.936105 17.055305
v 22.594149 17.941343 12.682237
v 21.312500 15.936105 17.055305
v 15.551415 15.709143 15.323552
v 22.594149 9.571451 12.682237
v 15.700925 11.635157 10.096994
v 17.074322 11.974578 14.752400
v 17.074322 11.974578 14.752400
v 15.700925 11.635157 10.096994
v 17.459332 16.158912 10.756469
v 15.551415 15.709143 15.323552
v 22.594149 17.941343 12.682237
v 15.551415 15.709143 15.323552
v 17.459332 16.158912 10.756469
v 22.594149 9.571451 12.682237
v 21.285204 11.401429 8.216034
v 15.700925 11.635157 10.096994
v 15.700925 11.635157 10.096994
v 21.285204 11.401429 8.216034
v 21.268766 15.798006 8.159945
v 17.459332 16.158912 10.756469
v 22.594149 17.941343 12.682237
v 17.459332 16.158912 10.756469
v 21.268766 15.798006 8.159945
v 22.594149 9.571451 12.682237
v 26.168619 11.777847 9.191550
v 21.285204 11.401429 8.216034
v 21.285204 11.401429 8.216034
v 26.168619 11.777847 9.191550
v 26.540073 16.220808 8.828803
v 21.268766 15.798006 8.159945
v 22.594149 17.941343 12.682237
v 21.268766 15.798006 8.159945
v 26.540073 16.220808 8.828803
v 22.594149 9.571451 12.682237
v 30.399131 11.916932 12.682237
v 26.168619 11.777847 9.191550
v 26.168619 11.777847 9.191550
v 30.399131 11.916932 12.682237
v 30.549329 15.860337 12.682237
v 26.540073 16.220808 8.828803
v 22.594149 17.941343 12.682237
v 26.540073 16.220808 8.828803
v 30.549329 15.860337 12.682237
v 1.992297 29.416107 31.975013
v 5.810332 31.447126 37.175153
v 8.219642 31.558827 31.975013
v 8.219642 31.558827 31.975013
v 5.810332 31.447126 37.175153
v 5.398699 36.149665 36.614511
v 7.917412 36.091044 31.975013
v 1.992297 38.265607 31.975013
v 7.917412 36.091044 31.975013
v 5.398699 36.149665 36.614511
v 1.992297 29.416107 31.975013
v 0.885300 31.303819 37.242936
v 5.810332 31.447126 37.175153
v 5.810332 31.447126 37.175153
v 0.885300 31.303819 37.242936
v 0.848645 36.334497 37.417368
v 5.398699 36.149665 36.614511
v 1.992297 38.265607 31.975013
v 5.398699 36.149665 36.614511
v 0.848645 36.334497 37.417368
v 1.992297 29.416107 31.975013
v -2.204460 31.889493 34.170186
v 0.885300 31.303819 37.242936
v 0.885300 31.303819 37.242936
v -2.204460 31.889493 34.170186
v -1.991709 36.309777 34.058903
v 0.848645 36.334497 37.417368
v 1.992297 38.265607 31.975013
v 0.848645 36.334497 37.417368
v -1.991709 36.309777 34.058903
v 1.992297 29.416107 31.975013
v -2.297455 31.896950 29.731197
v -2.204460 31.889493 34.170186
v -2.204460 31.889493 34.170186
v -2.297455 31.896950 29.731197
v -2.131482 35.872302 29.818012
v -1.991709 36.309777 34.058903
v 1.992297 38.265607 31.975013
v -1.991709 36.309777 34.058903
v -2.131482 35.872302 29.818012
v 1.992297 29.416107 31.975013
v 0.802736 31.533948 26.314190
v -2.297455 31.896950 29.731197
v -2.297455 31.896950 29.731197
v 0.802736 31.533948 26.314190
v 0.864064 35.752654 26.606032
v -2.131482 35.872302 29.818012
v 1.992297 38.265607 31.975013
v -2.131482 35.872302 29.818012
v 0.864064 35.752654 26.606032
v 1.992297 29.416107 31.975013
v 4.780094 31.236290 28.178051
v 0.802736 31.533948 26.314190
v 0.802736 31.533948 26.314190
v 4.780094 31.236290 28.178051
v 5.101197 36.196844 27.740710
v 0.864064 35.752654 26.606032
v 1.992297 38.265607 31.975013
v 0.864064 35.752654 26.606032
v 5.101197 36.196844 27.740710
v 1.992297 29.416107 31.975013
v 8.219642 31.558827 31.975013
v 4.780094 31.236290 28.178051
v 4.780094 31.236290 28.178051
v 8.219642 31.558827 31.975013
v 7.917412 36.091044 31.975013
v 5.101197 36.196844 27.740710
v 1.992297 38.265607 31.975013
v 5.101197 36.196844 27.740710
v 7.917412 36.091044 31.975013
v -23.989017 16.244428 23.133897
v -19.948517 19.492241 29.155694
v -18.720568 19.349500 23.133897
v -18.720568 19.349500 23.133897
v -19.948517 19.492241 29.155694
v -19.705719 24.705697 29.517551
v -18.045235 25.333719 23.133897
v -23.989017 27.931905 23.133897
v -18.045235 25.333719 23.133897
v -19.705719 24.705697 29.517551
v -23.989017 16.244428 23.133897
v -25.196053 19.387459 29.419244
v -19.948517 19.492241 29.155694
v -19.948517 19.492241 29.155694
v -25.196053 19.387459 29.419244
v -25.240937 25.508196 29.652965
v -19.705719 24.705697 29.517551
v -23.989017 27.931905 23.133897
v -19.705719 24.705697 29.517551
v -25.240937 25.508196 29.652965
v -23.989017 16.244428 23.133897
v -29.046896 19.107961 26.028835
v -25.196053 19.387459 29.419244
v -25.196053 19.387459 29.419244
v -29.046896 19.107961 26.028835
v -28.815427 24.537414 25.896351
v -25.240937 25.508196 29.652965
v -23.989017 27.931905 23.133897
v -25.240937 25.508196 29.652965
v -28.815427 24.537414 25.896351
v -23.989017 16.244428 23.133897
v -29.853737 19.369149 19.777154
v -29.046896 19.107961 26.028835
v -29.046896 19.107961 26.028835
v -29.853737 19.369149 19.777154
v -28.621489 24.925790 20.482446
v -28.815427 24.537414 25.896351
v -23.989017 27.931905 23.133897
v -28.815427 24.537414 25.896351
v -28.621489 24.925790 20.482446
v -23.989017 16.244428 23.133897
v -25.109871 19.568158 17.297323
v -29.853737 19.369149 19.777154
v -29.853737 19.369149 19.777154
v -25.109871 19.568158 17.297323
v -25.385051 24.900153 15.864390
v -28.621489 24.925790 20.482446
v -23.989017 27.931905 23.133897
v -28.621489 24.925790 20.482446
v -25.385051 24.900153 15.864390
v -23.989017 16.244428 23.133897
v -20.897830 19.074279 18.526918
v -25.109871 19.568158 17.297323
v -25.109871 19.568158 17.297323
v -20.897830 19.074279 18.526918
v -19.766614 24.591881 16.840999
v -25.385051 24.900153 15.864390
v -23.989017 27.931905 23.133897
v -25.385051 24.900153 15.864390
v -19.766614 24.591881 16.840999
v -23.989017 16.244428 23.133897
v -18.720568 19.349500 23.133897
v -20.897830 19.074279 18.526918
v -20.897830 19.074279 18.526918
v -18.720568 19.349500 23.133897
v -18.045235 25.333719 23.133897
v -19.766614 24.591881 16.840999
v -23.989017 27.931905 23.133897
v -19.766614 24.591881 16.840999
v -18.045235 25.333719 23.133897
v -30.357455 13.706345 8.496942
v -26.398521 16.716871 12.858775
v -23.098961 16.835267 8.496942
v -23.098961 16.835267 8.496942
v -26.398521 16.716871 12.858775
v -25.959916 21.717836 13.342015
v -22.492607 21.701055 8.496942
v -30.357455 24.937118 8.496942
v -22.492607 21.701055 8.496942
v -25.959916 21.717836 13.342015
v -30.357455 13.706345 8.496942
v -32.101228 16.677325 15.209659
v -26.398521 16.716871 12.858775
v -26.398521 16.716871 12.858775
v -32.101228 16.677325 15.209659
v -32.115478 21.670991 15.264518
v -25.959916 21.717836 13.342015
v -30.357455 24.937118 8.496942
v -25.959916 21.717836 13.342015
v -32.115478 21.670991 15.264518
v -30.357455 13.706345 8.496942
v -37.147201 16.339774 11.369865
v -32.101228 16.677325 15.209659
v -32.101228 16.677325 15.209659
v -37.147201 16.339774 11.369865
v -37.178046 21.939439 11.382917
v -32.115478 21.670991 15.264518
v -30.357455 24.937118 8.496942
v -32.115478 21.670991 15.264518
v -37.178046 21.939439 11.382917
v -30.357455 13.706345 8.496942
v -36.496023 16.275204 5.899550
v -37.147201 16.339774 11.369865
v -37.147201 16.339774 11.369865
v -36.496023 16.275204 5.899550
v -37.300862 22.448236 5.559001
v -37.178046 21.939439 11.382917
v -30.357455 24.937118 8.496942
v -37.178046 21.939439 11.382917
v -37.300862 22.448236 5.559001
v -30.357455 13.706345 8.496942
v -31.912162 16.437307 2.512038
v -36.496023 16.275204 5.899550
v -36.496023 16.275204 5.899550
v -31.912162 16.437307 2.512038
v -32.091293 22.444130 1.822468
v -37.300862 22.448236 5.559001
v -30.357455 24.937118 8.496942
v -37.300862 22.448236 5.559001
v -32.091293 22.444130 1.822468
v -30.357455 13.706345 8.496942
v -25.431266 16.829947 3.069418
v -31.912162 16.437307 2.512038
v -31.912162 16.437307 2.512038
v -25.431266 16.829947 3.069418
v -25.938279 21.913755 3.628029
v -32.091293 22.444130 1.822468
v -30.357455 24.937118 8.496942
v -32.091293 22.444130 1.822468
v -25.938279 21.913755 3.628029
v -30.357455 13.706345 8.496942
v -23.098961 16.835267 8.496942
v -25.431266 16.829947 3.069418
v -25.431266 16.829947 3.069418
v -23.098961 16.835267 8.496942
v -22.492607 21.701055 8.496942
v -25.938279 21.913755 3.628029
v -30.357455 24.937118 8.496942
v -25.938279 21.913755 3.628029
v -22.492607 21.701055 8.496942
v -34.700439 9.121673 -8.858626
v -29.667411 11.469297 -4.131592
v -26.691674 11.952854 -8.858626
v -26.691674 11.952854 -8.858626
v -29.667411 11.469297 -4.131592
v -30.981617 17.412269 -5.365897
v -27.357361 16.681466 -8.858626
v -34.700439 19.711618 -8.858626
v -27.357361 16.681466 -8.858626
v -30.981617 17.412269 -5.365897
v -34.700439 9.121673 -8.858626
v -36.569275 11.726623 -2.725972
v -29.667411 11.469297 -4.131592
v -29.667411 11.469297 -4.131592
v -36.569275 11.726623 -2.725972
v -36.369690 16.928830 -3.380918
v -30.981617 17.412269 -5.365897
v -34.700439 19.711618 -8.858626
v -30.981617 17.412269 -5.365897
v -36.369690 16.928830 -3.380918
v -34.700439 9.121673 -8.858626
v -40.152103 11.683604 -6.892242
v -36.569275 11.726623 -2.725972
v -36.569275 11.726623 -2.725972
v -40.152103 11.683604 -6.892242
v -41.448542 16.628155 -6.424624
v -36.369690 16.928830 -3.380918
v -34.700439 19.711618 -8.858626
v -36.369690 16.928830 -3.380918
v -41.448542 16.628155 -6.424624
v -34.700439 9.121673 -8.858626
v -40.261021 11.959224 -10.864296
v -40.152103 11.683604 -6.892242
v -40.152103 11.683604 -6.892242
v -40.261021 11.959224 -10.864296
v -41.668705 16.764925 -11.372039
v -41.448542 16.628155 -6.424624
v -34.700439 19.711618 -8.858626
v -41.448542 16.628155 -6.424624
v -41.668705 16.764925 -11.372039
v -34.700439 9.121673 -8.858626
v -36.439170 12.166487 -14.564336
v -40.261021 11.959224 -10.864296
v -40.261021 11.959224 -10.864296
v -36.439170 12.166487 -14.564336
v -36.505942 17.540403 -14.783451
v -41.668705 16.764925 -11.372039
v -34.700439 19.711618 -8.858626
v -41.668705 16.764925 -11.372039
v -36.505942 17.540403 -14.783451
v -34.700439 9.121673 -8.858626
v -29.701985 12.089876 -13.553188
v -36.439170 12.166487 -14.564336
v -36.439170 12.166487 -14.564336
v -29.701985 12.089876 -13.553188
v -30.232938 17.372700 -13.054516
v -36.505942 17.540403 -14.783451
v -34.700439 19.711618 -8.858626
v -36.505942 17.540403 -14.783451
v -30.232938 17.372700 -13.054516
v -34.700439 9.121673 -8.858626
v -26.691674 11.952854 -8.858626
v -29.701985 12.089876 -13.553188
v -29.701985 12.089876 -13.553188
v -26.691674 11.952854 -8.858626
v -27.357361 16.681466 -8.858626
v -30.232938 17.372700 -13.054516
v -34.700439 19.711618 -8.858626
v -30.232938 17.372700 -13.054516
v -27.357361 16.681466 -8.858626
v -20.540375 32.664538 -24.048888
v -15.237850 35.932650 -18.149931
v -12.511484 35.604552 -24.048888
v -12.511484 35.604552 -24.048888
v -15.237850 35.932650 -18.149931
v -15.168030 41.224181 -18.072257
v -12.129566 41.572119 -24.048888
v -20.540375 44.474519 -24.048888
v -12.129566 41.572119 -24.048888
v -15.168030 41.224181 -18.072257
v -20.540375 32.664538 -24.048888
v -22.194579 35.296059 -17.619061
v -15.237850 35.932650 -18.149931
v -15.237850 35.932650 -18.149931
v -22.194579 35.296059 -17.619061
v -22.754638 41.177526 -15.442131
v -15.168030 41.224181 -18.072257
v -20.540375 44.474519 -24.048888
v -15.168030 41.224181 -18.072257
v -22.754638 41.177526 -15.442131
v -20.540375 32.664538 -24.048888
v -27.317183 36.119536 -21.153562
v -22.194579 35.296059 -17.619061
v -22.194579 35.296059 -17.619061
v -27.317183 36.119536 -21.153562
v -27.885229 41.095859 -20.910870
v -22.754638 41.177526 -15.442131
v -20.540375 44.474519 -24.048888
v -22.754638 41.177526 -15.442131
v -27.885229 41.095859 -20.910870
v -20.540375 32.664538 -24.048888
v -28.223128 35.705844 -27.331271
v -27.317183 36.119536 -21.153562
v -27.317183 36.119536 -21.153562
v -28.223128 35.705844 -27.331271
v -29.430372 41.137092 -27.847054
v -27.885229 41.095859 -20.910870
v -20.540375 44.474519 -24.048888
v -27.885229 41.095859 -20.910870
v -29.430372 41.137092 -27.847054
v -20.540375 32.664538 -24.048888
v -22.099989 36.107131 -30.111047
v -28.223128 35.705844 -27.331271
v -28.223128 35.705844 -27.331271
v -22.099989 36.107131 -30.111047
v -22.402855 41.709909 -31.288277
v -29.430372 41.137092 -27.847054
v -20.540375 44.474519 -24.048888
v -29.430372 41.137092 -27.847054
v -22.402855 41.709909 -31.288277
v -20.540375 32.664538 -24.048888
v -16.136552 35.734929 -28.948057
v -22.099989 36.107131 -30.111047
v -22.099989 36.107131 -30.111047
v -16.136552 35.734929 -28.948057
v -16.214403 41.016481 -28.861449
v -22.402855 41.709909 -31.288277
v -20.540375 44.474519 -24.048888
v -22.402855 41.709909 -31.288277
v -16.214403 41.016481 -28.861449
v -20.540375 32.664538 -24.048888
v -12.511484 35.604552 -24.048888
v -16.136552 35.734929 -28.948057
v -16.136552 35.734929 -28.948057
v -12.511484 35.604552 -24.048888
v -12.129566 41.572119 -24.048888
v -16.214403 41.016481 -28.861449
v -20.540375 44.474519 -24.048888
v -16.214403 41.016481 -28.861449
v -12.129566 41.572119 -24.048888
v 5.297893 33.575670 -25.722924
v 8.753442 35.113101 -21.711003
v 11.394320 35.120878 -25.722924
v 11.394320 35.120878 -25.722924
v 8.753442 35.113101 -21.711003
v 8.773722 38.372053 -21.687458
v 11.626167 38.962154 -25.722924
v 5.297893 40.377772 -25.722924
v 11.626167 38.962154 -25.722924
v 8.773722 38.372053 -21.687458
v 5.297893 33.575670 -25.722924
v 3.972369 35.224230 -20.345918
v 8.753442 35.113101 -21.711003
v 8.753442 35.113101 -21.711003
v 3.972369 35.224230 -20.345918
v 4.186011 38.926693 -21.212559
v 8.773722 38.372053 -21.687458
v 5.297893 40.377772 -25.722924
v 8.773722 38.372053 -21.687458
v 4.186011 38.926693 -21.212559
v 5.297893 33.575670 -25.722924
v 0.957906 34.980776 -23.787824
v 3.972369 35.224230 -20.345918
v 3.972369 35.224230 -20.345918
v 0.957906 34.980776 -23.787824
v 1.028301 38.620506 -23.819211
v 4.186011 38.926693 -21.212559
v 5.297893 40.377772 -25.722924
v 4.186011 38.926693 -21.212559
v 1.028301 38.620506 -23.819211
v 5.297893 33.575670 -25.722924
v 0.030314 35.194474 -28.071616
v 0.957906 34.980776 -23.787824
v 0.957906 34.980776 -23.787824
v 0.030314 35.194474 -28.071616
v 1.217275 38.446503 -27.542377
v 1.028301 38.620506 -23.819211
v 5.297893 40.377772 -25.722924
v 1.028301 38.620506 -23.819211
v 1.217275 38.446503 -27.542377
v 5.297893 33.575670 -25.722924
v 4.021658 34.975454 -30.899988
v 0.030314 35.194474 -28.071616
v 0.030314 35.194474 -28.071616
v 4.021658 34.975454 -30.899988
v 3.885423 38.669543 -31.452629
v 1.217275 38.446503 -27.542377
v 5.297893 40.377772 -25.722924
v 1.217275 38.446503 -27.542377
v 3.885423 38.669543 -31.452629
v 5.297893 33.575670 -25.722924
v 9.267228 35.273609 -30.331355
v 4.021658 34.975454 -30.899988
v 4.021658 34.975454 -30.899988
v 9.267228 35.273609 -30.331355
v 8.839084 38.865125 -29.834275
v 3.885423 38.669543 -31.452629
v 5.297893 40.377772 -25.722924
v 3.885423 38.669543 -31.452629
v 8.839084 38.865125 -29.834275
v 5.297893 33.575670 -25.722924
v 11.394320 35.120878 -25.722924
v 9.267228 35.273609 -30.331355
v 9.267228 35.273609 -30.331355
v 11.394320 35.120878 -25.722924
v 11.626167 38.962154 -25.722924
v 8.839084 38.865125 -29.834275
v 5.297893 40.377772 -25.722924
v 8.839084 38.865125 -29.834275
v 11.626167 38.962154 -25.722924
v 32.683190 20.731167 -17.286382
v 38.150321 23.888358 -13.552908
v 40.445622 23.789616 -17.286382
v 40.445622 23.789616 -17.286382
v 38.150321 23.888358 -13.552908
v 38.291982 29.560714 -13.456169
v 42.356264 28.901224 -17.286382
v 32.683190 31.851886 -17.286382
v 42.356264 28.901224 -17.286382
v 38.291982 29.560714 -13.456169
v 32.683190 20.731167 -17.286382
v 30.980062 23.383903 -13.222711
v 38.150321 23.888358 -13.552908
v 38.150321 23.888358 -13.552908
v 30.980062 23.383903 -13.222711
v 30.582385 28.907009 -12.273851
v 38.291982 29.560714 -13.456169
v 32.683190 31.851886 -17.286382
v 38.291982 29.560714 -13.456169
v 30.582385 28.907009 -12.273851
v 32.683190 20.731167 -17.286382
v 26.376739 23.379377 -15.632447
v 30.980062 23.383903 -13.222711
v 30.980062 23.383903 -13.222711
v 26.376739 23.379377 -15.632447
v 26.020043 28.994539 -15.538900
v 30.582385 28.907009 -12.273851
v 32.683190 31.851886 -17.286382
v 30.582385 28.907009 -12.273851
v 26.020043 28.994539 -15.538900
v 32.683190 20.731167 -17.286382
v 23.946585 23.952501 -19.577651
v 26.376739 23.379377 -15.632447
v 26.376739 23.379377 -15.632447
v 23.946585 23.952501 -19.577651
v 24.217450 29.436927 -19.506613
v 26.020043 28.994539 -15.538900
v 32.683190 31.851886 -17.286382
v 26.020043 28.994539 -15.538900
v 24.217450 29.436927 -19.506613
v 32.683190 20.731167 -17.286382
v 30.983050 23.468017 -21.342923
v 23.946585 23.952501 -19.577651
v 23.946585 23.952501 -19.577651
v 30.983050 23.468017 -21.342923
v 30.492389 28.680006 -22.513645
v 24.217450 29.436927 -19.506613
v 32.683190 31.851886 -17.286382
v 24.217450 29.436927 -19.506613
v 30.492389 28.680006 -22.513645
v 32.683190 20.731167 -17.286382
v 38.158500 23.885678 -21.025440
v 30.983050 23.468017 -21.342923
v 30.983050 23.468017 -21.342923
v 38.158500 23.885678 -21.025440
v 37.357249 29.315917 -20.478271
v 30.492389 28.680006 -22.513645
v 32.683190 31.851886 -17.286382
v 30.492389 28.680006 -22.513645
v 37.357249 29.315917 -20.478271
v 32.683190 20.731167 -17.286382
v 40.445622 23.789616 -17.286382
v 38.158500 23.885678 -21.025440
v 38.158500 23.885678 -21.025440
v 40.445622 23.789616 -17.286382
v 42.356264 28.901224 -17.286382
v 37.357249 29.315917 -20.478271
v 32.683190 31.851886 -17.286382
v 37.357249 29.315917 -20.478271
v 42.356264 28.901224 -17.286382
v -26.593008 37.161156 -4.916795
v -26.493934 34.752565 -6.341181
v 27.314459 42.302586 -13.989317
v 27.264922 43.506881 -13.277124
v -26.951293 37.161156 -7.693777
v -26.493934 34.752565 -6.341181
v -26.593008 37.161156 -4.916795
v 27.085779 43.506881 -14.665615
v 27.264922 43.506881 -13.277124
v 27.314459 42.302586 -13.989317
v -26.493934 34.752565 -6.341181
v -26.852219 34.752565 -9.118164
v 27.135316 42.302586 -15.377808
v 27.314459 42.302586 -13.989317
v -26.951293 37.161156 -7.693777
v -26.852219 34.752565 -9.118164
v -26.493934 34.752565 -6.341181
v 27.085779 43.506881 -14.665615
v 27.314459 42.302586 -13.989317
v 27.135316 42.302586 -15.377808
v -26.852219 34.752565 -9.118164
v -27.309578 37.161156 -10.470760
v 26.906637 43.506881 -16.054106
v 27.135316 42.302586 -15.377808
v -26.951293 37.161156 -7.693777
v -27.309578 37.161156 -10.470760
v -26.852219 34.752565 -9.118164
v 27.085779 43.506881 -14.665615
v 27.135316 42.302586 -15.377808
v 26.906637 43.506881 -16.054106
v -27.309578 37.161156 -10.470760
v -27.408652 39.569746 -9.046373
v 26.857100 44.711176 -15.341913
v 26.906637 43.506881 -16.054106
v -26.951293 37.161156 -7.693777
v -27.408652 39.569746 -9.046373
v -27.309578 37.161156 -10.470760
v 27.085779 43.506881 -14.665615
v 26.906637 43.506881 -16.054106
v 26.857100 44.711176 -15.341913
v -27.408652 39.569746 -9.046373
v -27.050367 39.569746 -6.269390
v 27.036243 44.711176 -13.953422
v 26.857100 44.711176 -15.341913
v -26.951293 37.161156 -7.693777
v -27.050367 39.569746 -6.269390
v -27.408652 39.569746 -9.046373
v 27.085779 43.506881 -14.665615
v 26.857100 44.711176 -15.341913
v 27.036243 44.711176 -13.953422
v -27.050367 39.569746 -6.269390
v -26.593008 37.161156 -4.916795
v 27.264922 43.506881 -13.277124
v 27.036243 44.711176 -13.953422
v -26.951293 37.161156 -7.693777
v -26.593008 37.161156 -4.916795
v -27.050367 39.569746 -6.269390
v 27.085779 43.506881 -14.665615
v 27.036243 44.711176 -13.953422
v 27.264922 43.506881 -13.277124
v -16.993840 29.469979 5.666371
v -16.980519 27.058975 4.242684
v 19.873867 24.260224 10.703890
v 19.867207 25.465726 11.415733
v -16.458814 29.469979 2.917963
v -16.980519 27.058975 4.242684
v -16.993840 29.469979 5.666371
v 20.134720 25.465726 10.041529
v 19.867207 25.465726 11.415733
v 19.873867 24.260224 10.703890
v -16.980519 27.058975 4.242684
v -16.445493 27.058975 1.494276
v 20.141380 24.260224 9.329686
v 19.873867 24.260224 10.703890
v -16.458814 29.469979 2.917963
v -16.445493 27.058975 1.494276
v -16.980519 27.058975 4.242684
v 20.134720 25.465726 10.041529
v 19.873867 24.260224 10.703890
v 20.141380 24.260224 9.329686
v -16.445493 27.058975 1.494276
v -15.923789 29.469979 0.169555
v 20.402232 25.465726 8.667325
v 20.141380 24.260224 9.329686
v -16.458814 29.469979 2.917963
v -15.923789 29.469979 0.169555
v -16.445493 27.058975 1.494276
v 20.134720 25.465726 10.041529
v 20.141380 24.260224 9.329686
v 20.402232 25.465726 8.667325
v -15.923789 29.469979 0.169555
v -15.937110 31.880982 1.593242
v 20.395572 26.671228 9.379168
v 20.402232 25.465726 8.667325
v -16.458814 29.469979 2.917963
v -15.937110 31.880982 1.593242
v -15.923789 29.469979 0.169555
v 20.134720 25.465726 10.041529
v 20.402232 25.465726 8.667325
v 20.395572 26.671228 9.379168
v -15.937110 31.880982 1.593242
v -16.472135 31.880982 4.341650
v 20.128059 26.671228 10.753373
v 20.395572 26.671228 9.379168
v -16.458814 29.469979 2.917963
v -16.472135 31.880982 4.341650
v -15.937110 31.880982 1.593242
v 20.134720 25.465726 10.041529
v 20.395572 26.671228 9.379168
v 20.128059 26.671228 10.753373
v -16.472135 31.880982 4.341650
v -16.993840 29.469979 5.666371
v 19.867207 25.465726 11.415733
v 20.128059 26.671228 10.753373
v -16.458814 29.469979 2.917963
v -16.993840 29.469979 5.666371
v -16.472135 31.880982 4.341650
v 20.134720 25.465726 10.041529
v 20.128059 26.671228 10.753373
v 19.867207 25.465726 11.415733
v -23.287737 34.182697 1.057383
v -23.411117 31.777262 -0.370433
v 16.402860 27.896941 4.099054
v 16.464550 29.099659 4.812963
v -22.926805 34.182697 -1.719257
v -23.411117 31.777262 -0.370433
v -23.287737 34.182697 1.057383
v 16.645016 29.099659 3.424643
v 16.464550 29.099659 4.812963
v 16.402860 27.896941 4.099054
v -23.411117 31.777262 -0.370433
v -23.050185 31.777262 -3.147073
v 16.583326 27.896941 2.710735
v 16.402860 27.896941 4.099054
v -22.926805 34.182697 -1.719257
v -23.050185 31.777262 -3.147073
v -23.411117 31.777262 -0.370433
v 16.645016 29.099659 3.424643
v 16.402860 27.896941 4.099054
v 16.583326 27.896941 2.710735
v -23.050185 31.777262 -3.147073
v -22.565872 34.182697 -4.495896
v 16.825482 29.099659 2.036323
v 16.583326 27.896941 2.710735
v -22.926805 34.182697 -1.719257
v -22.565872 34.182697 -4.495896
v -23.050185 31.777262 -3.147073
v 16.645016 29.099659 3.424643
v 16.583326 27.896941 2.710735
v 16.825482 29.099659 2.036323
v -22.565872 34.182697 -4.495896
v -22.442492 36.588132 -3.068080
v 16.887172 30.302376 2.750231
v 16.825482 29.099659 2.036323
v -22.926805 34.182697 -1.719257
v -22.442492 36.588132 -3.068080
v -22.565872 34.182697 -4.495896
v 16.645016 29.099659 3.424643
v 16.825482 29.099659 2.036323
v 16.887172 30.302376 2.750231
v -22.442492 36.588132 -3.068080
v -22.803425 36.588132 -0.291440
v 16.706706 30.302376 4.138551
v 16.887172 30.302376 2.750231
v -22.926805 34.182697 -1.719257
v -22.803425 36.588132 -0.291440
v -22.442492 36.588132 -3.068080
v 16.645016 29.099659 3.424643
v 16.887172 30.302376 2.750231
v 16.706706 30.302376 4.138551
v -22.803425 36.588132 -0.291440
v -23.287737 34.182697 1.057383
v 16.464550 29.099659 4.812963
v 16.706706 30.302376 4.138551
v -22.926805 34.182697 -1.719257
v -23.287737 34.182697 1.057383
v -22.803425 36.588132 -0.291440
v 16.645016 29.099659 3.424643
v 16.706706 30.302376 4.138551
v 16.464550 29.099659 4.812963
vt 0.500000 1.000000
vt 0.000000 0.000000
vt 1.000000 0.000000
vt 0.000000 0.000000
vt 1.000000 0.000000
vt 1.000000 1.000000
vt 0.000000 1.000000
vt 0.000000 0.000000
vt 1.000000 0.000000
vt 1.000000 1.000000
vt 0.000000 1.000000
vt 0.500000 1.000000
vt 0.000000 0.000000
vt 1.000000 0.000000
vt 0.500000 1.000000
vt 0.000000 0.000000
vt 1.000000 0.000000
vt 0.000000 0.000000
vt 1.000000 0.000000
vt 1.000000 1.000000
vt 0.000000 1.000000
vt 0.000000 0.000000
vt 1.000000 0.000000
vt 1.000000 1.000000
vt 0.000000 1.000000
vt 0.500000 1.000000
vt 0.000000 0.000000
vt 1.000000 0.000000
vt 0.500000 1.000000
vt 0.000000 0.000000
vt 1.000000 0.000000
vt 0.000000 0.000000
vt 1.000000 0.000000
vt 1.000000 1.000000
vt 0.000000 1.000000
vt 0.000000 0.000000
vt 1.000000 0.000000
vt 1.000000 1.000000
vt 0.000000 1.000000
vt 0.500000 1.000000
vt 0.000000 0.000000
vt 1.000000 0.000000
vt 0.500000 1.000000
vt 0.000000 0.000000
vt 1.000000 0.000000
vt 0.000000 0.000000
vt 1.000000 0.000000
vt 1.000000 1.000000
vt 0.000000 1.000000
vt 0.000000 0.000000
vt 1.000000 0.000000
vt 1.000000 1.000000
vt 0.000000 1.000000
vt 0.500000 1.000000
vt 0.000000 0.000000
vt 1.000000 0.000000
vt 0.500000 1.000000
vt 0.000000 0.000000
vt 1.000000 0.000000
vt 0.000000 0.000000
vt 1.000000 0.000000
vt 1.000000 1.000000
vt 0.000000 1.000000
vt 0.000000 0.000000
vt 1.000000 0.000000
vt 1.000000 1.000000
vt 0.000000 1.000000
vt 0.500000 1.000000
vt 0.000000 0.000000
vt 1.000000 0.000000
vt 0.500000 1.000000
vt 0.000000 0.000000
vt 1.000000 0.000000
vt 0.000000 0.000000
vt 1.000000 0.000000
vt 1.000000 1.000000
vt 0.000000 1.000000
vt 0.000000 0.000000
vt 1.000000 0.000000
vt 1.000000 1.000000
vt 0.000000 1.000000
vt 0.500000 1.000000
vt 0.000000 0.000000
vt 1.000000 0.000000
vt 0.500000 1.000000
vt 0.000000 0.000000
vt 1.000000 0.000000
vt 0.000000 0.000000
vt 1.000000 0.000000
vt 1.000000 1.000000
vt 0.000000 1.000000
vt 0.000000 0.000000
vt 1.000000 0.000000
vt 1.000000 1.000000
vt 0.000000 1.000000
vt 0.500000 1.000000
vt 0.000000 0.000000
vt 1.000000 0.000000
vt 0.500000 1.000000
vt 0.000000 0.000000
vt 1.000000 0.000000
vt 0.000000 0.000000
vt 1.000000 0.000000
vt 1.000000 1.000000
vt 0.000000 1.000000
vt 0.000000 0.000000
vt 1.000000 0.000000
vt 1.000000 1.000000
vt 0.000000 1.000000
vt 0.500000 1.000000
vt 0.000000 0.000000
vt 1.000000 0.000000
vt 0.500000 1.000000
vt 0.000000 0.000000
vt 1.000000 0.000000
vt 0.000000 0.000000
vt 1.000000 0.000000
vt 1.000000 1.000000
vt 0.000000 1.000000
vt 0.000000 0.000000
vt 1.000000 0.000000
vt 1.000000 1.000000
vt 0.000000 1.000000
vt 0.500000 1.000000
vt 0.000000 0.000000
vt 1.000000 0.000000
vt 0.500000 1.000000
vt 0.000000 0.000000
vt 1.000000 0.000000
vt 0.000000 0.000000
vt 1.000000 0.000000
vt 1.000000 1.000000
vt 0.000000 1.000000
vt 0.000000 0.000000
vt 1.000000 0.000000
vt 1.000000 1.000000
vt 0.000000 1.000000
vt 0.500000 1.000000
vt 0.000000 0.000000
vt 1.000000 0.000000
vt 0.500000 1.000000
vt 0.000000 0.000000
vt 1.000000 0.000000
vt 0.000000 0.000000
vt 1.000000 0.000000
vt 1.000000 1.000000
vt 0.000000 1.000000
vt 0.500000 1.000000
vt 0.000000 0.000000
vt 1.000000 0.000000
vt 0.500000 1.000000
vt 0.000000 0.000000
vt 1.000000 0.000000
vt 0.000000 0.000000
vt 1.000000 0.000000
vt 1.000000 1.000000
vt 0.000000 1.000000
vt 0.500000 1.000000
vt 0.000000 0.000000
vt 1.000000 0.000000
vt 0.500000 1.000000
vt 0.000000 0.000000
vt 1.000000 0.000000
vt 0.000000 0.000000
vt 1.000000 0.000000
vt 1.000000 1.000000
vt 0.000000 1.000000
vt 0.500000 1.000000
vt 0.000000 0.000000
vt 1.000000 0.000000
vt 0.500000 1.000000
vt 0.000000 0.000000
vt 1.000000 0.000000
vt 0.000000 0.000000
vt 1.000000 0.000000
vt 1.000000 1.000000
vt 0.000000 1.000000
vt 0.500000 1.000000
vt 0.000000 0.000000
vt 1.000000 0.000000
vt 0.500000 1.000000
vt 0.000000 0.000000
vt 1.000000 0.000000
vt 0.000000 0.000000
vt 1.000000 0.000000
vt 1.000000 1.000000
vt 0.000000 1.000000
vt 0.500000 1.000000
vt 0.000000 0.000000
vt 1.000000 0.000000
vt 0.500000 1.000000
vt 0.000000 0.000000
vt 1.000000 0.000000
vt 0.000000 0.000000
vt 1.000000 0.000000
vt 1.000000 1.000000
vt 0.000000 1.000000
vt 0.500000 1.000000
vt 0.000000 0.000000
vt 1.000000 0.000000
vt 0.500000 1.000000
vt 0.000000 0.000000
vt 1.000000 0.000000
vt 0.000000 0.000000
vt 1.000000 0.000000
vt 1.000000 1.000000
vt 0.000000 1.000000
vt 0.500000 1.000000
vt 0.000000 0.000000
vt 1.000000 0.000000
vt 0.500000 1.000000
vt 0.000000 0.000000
vt 1.000000 0.000000
vt 0.000000 0.000000
vt 1.000000 0.000000
vt 1.000000 1.000000
vt 0.000000 1.000000
vt 0.500000 1.000000
vt 0.000000 0.000000
vt 1.000000 0.000000
vt 0.500000 1.000000
vt 0.000000 0.000000
vt 1.000000 0.000000
vt 0.000000 0.000000
vt 1.000000 0.000000
vt 1.000000 1.000000
vt 0.000000 1.000000
vt 0.500000 1.000000
vt 0.000000 0.000000
vt 1.000000 0.000000
vt 0.500000 1.000000
vt 0.000000 0.000000
vt 1.000000 0.000000
vt 0.000000 0.000000
vt 1.000000 0.000000
vt 1.000000 1.000000
vt 0.000000 1.000000
vt 0.500000 1.000000
vt 0.000000 0.000000
vt 1.000000 0.000000
vt 0.500000 1.000000
vt 0.000000 0.000000
vt 1.000000 0.000000
vt 0.000000 0.000000
vt 1.000000 0.000000
vt 1.000000 1.000000
vt 0.000000 1.000000
vt 0.500000 1.000000
vt 0.000000 0.000000
vt 1.000000 0.000000
vt 0.500000 1.000000
vt 0.000000 0.000000
vt 1.000000 0.000000
vt 0.000000 0.000000
vt 1.000000 0.000000
vt 1.000000 1.000000
vt 0.000000 1.000000
vt 0.500000 1.000000
vt 0.000000 0.000000
vt 1.000000 0.000000
vt 0.500000 1.000000
vt 0.000000 0.000000
vt 1.000000 0.000000
vt 0.000000 0.000000
vt 1.000000 0.000000
vt 1.000000 1.000000
vt 0.000000 1.000000
vt 0.500000 1.000000
vt 0.000000 0.000000
vt 1.000000 0.000000
vt 0.500000 1.000000
vt 0.000000 0.000000
vt 1.000000 0.000000
vt 0.000000 0.000000
vt 1.000000 0.000000
vt 1.000000 1.000000
vt 0.000000 1.000000
vt 0.500000 1.000000
vt 0.000000 0.000000
vt 1.000000 0.000000
vt 0.500000 1.000000
vt 0.000000 0.000000
vt 1.000000 0.000000
vt 0.000000 0.000000
vt 1.000000 0.000000
vt 1.000000 1.000000
vt 0.000000 1.000000
vt 0.500000 1.000000
vt 0.000000 0.000000
vt 1.000000 0.000000
vt 0.500000 1.000000
vt 0.000000 0.000000
vt 1.000000 0.000000
vt 0.000000 0.000000
vt 1.000000 0.000000
vt 1.000000 1.000000
vt 0.000000 1.000000
vt 0.500000 1.000000
vt 0.000000 0.000000
vt 1.000000 0.000000
vt 0.500000 1.000000
vt 0.000000 0.000000
vt 1.000000 0.000000
vt 0.000000 0.000000
vt 1.000000 0.000000
vt 1.000000 1.000000
vt 0.000000 1.000000
vt 0.500000 1.000000
vt 0.000000 0.000000
vt 1.000000 0.000000
vt 0.500000 1.000000
vt 0.000000 0.000000
vt 1.000000 0.000000
vt 0.000000 0.000000
vt 1.000000 0.000000
vt 1.000000 1.000000
vt 0.000000 1.000000
vt 0.500000 1.000000
vt 0.000000 0.000000
vt 1.000000 0.000000
vt 0.500000 1.000000
vt 0.000000 0.000000
vt 1.000000 0.000000
vt 0.000000 0.000000
vt 1.000000 0.000000
vt 1.000000 1.000000
vt 0.000000 1.000000
vt 0.500000 1.000000
vt 0.000000 0.000000
vt 1.000000 0.000000
vt 0.500000 1.000000
vt 0.000000 0.000000
vt 1.000000 0.000000
vt 0.000000 0.000000
vt 1.000000 0.000000
vt 1.000000 1.000000
vt 0.000000 1.000000
vt 0.500000 1.000000
vt 0.000000 0.000000
vt 1.000000 0.000000
vt 0.500000 1.000000
vt 0.000000 0.000000
vt 1.000000 0.000000
vt 0.000000 0.000000
vt 1.000000 0.000000
vt 1.000000 1.000000
vt 0.000000 1.000000
vt 0.500000 1.000000
vt 0.000000 0.000000
vt 1.000000 0.000000
vt 0.500000 1.000000
vt 0.000000 0.000000
vt 1.000000 0.000000
vt 0.000000 0.000000
vt 1.000000 0.000000
vt 1.000000 1.000000
vt 0.000000 1.000000
vt 0.500000 1.000000
vt 0.000000 0.000000
vt 1.000000 0.000000
vt 0.500000 1.000000
vt 0.000000 0.000000
vt 1.000000 0.000000
vt 0.000000 0.000000
vt 1.000000 0.000000
vt 1.000000 1.000000
vt 0.000000 1.000000
vt 0.500000 1.000000
vt 0.000000 0.000000
vt 1.000000 0.000000
vt 0.500000 1.000000
vt 0.000000 0.000000
vt 1.000000 0.000000
vt 0.000000 0.000000
vt 1.000000 0.000000
vt 1.000000 1.000000
vt 0.000000 1.000000
vt 0.500000 1.000000
vt 0.000000 0.000000
vt 1.000000 0.000000
vt 0.500000 1.000000
vt 0.000000 0.000000
vt 1.000000 0.000000
vt 0.000000 0.000000
vt 1.000000 0.000000
vt 1.000000 1.000000
vt 0.000000 1.000000
vt 0.500000 1.000000
vt 0.000000 0.000000
vt 1.000000 0.000000
vt 0.500000 1.000000
vt 0.000000 0.000000
vt 1.000000 0.000000
vt 0.000000 0.000000
vt 1.000000 0.000000
vt 1.000000 1.000000
vt 0.000000 1.000000
vt 0.500000 1.000000
vt 0.000000 0.000000
vt 1.000000 0.000000
vt 0.500000 1.000000
vt 0.000000 0.000000
vt 1.000000 0.000000
vt 0.000000 0.000000
vt 1.000000 0.000000
vt 1.000000 1.000000
vt 0.000000 1.000000
vt 0.500000 1.000000
vt 0.000000 0.000000
vt 1.000000 0.000000
vt 0.500000 1.000000
vt 0.000000 0.000000
vt 1.000000 0.000000
vt 0.000000 0.000000
vt 1.000000 0.000000
vt 1.000000 1.000000
vt 0.000000 1.000000
vt 0.500000 1.000000
vt 0.000000 0.000000
vt 1.000000 0.000000
vt 0.500000 1.000000
vt 0.000000 0.000000
vt 1.000000 0.000000
vt 0.000000 0.000000
vt 1.000000 0.000000
vt 1.000000 1.000000
vt 0.000000 1.000000
vt 0.500000 1.000000
vt 0.000000 0.000000
vt 1.000000 0.000000
vt 0.500000 1.000000
vt 0.000000 0.000000
vt 1.000000 0.000000
vt 0.000000 0.000000
vt 1.000000 0.000000
vt 1.000000 1.000000
vt 0.000000 1.000000
vt 0.500000 1.000000
vt 0.000000 0.000000
vt 1.000000 0.000000
vt 0.500000 1.000000
vt 0.000000 0.000000
vt 1.000000 0.000000
vt 0.000000 0.000000
vt 1.000000 0.000000
vt 1.000000 1.000000
vt 0.000000 1.000000
vt 0.500000 1.000000
vt 0.000000 0.000000
vt 1.000000 0.000000
vt 0.500000 1.000000
vt 0.000000 0.000000
vt 1.000000 0.000000
vt 0.000000 0.000000
vt 1.000000 0.000000
vt 1.000000 1.000000
vt 0.000000 1.000000
vt 0.500000 1.000000
vt 0.000000 0.000000
vt 1.000000 0.000000
vt 0.500000 1.000000
vt 0.000000 0.000000
vt 1.000000 0.000000
vt 0.000000 0.000000
vt 1.000000 0.000000
vt 1.000000 1.000000
vt 0.000000 1.000000
vt 0.500000 1.000000
vt 0.000000 0.000000
vt 1.000000 0.000000
vt 0.500000 1.000000
vt 0.000000 0.000000
vt 1.000000 0.000000
vt 0.000000 0.000000
vt 1.000000 0.000000
vt 1.000000 1.000000
vt 0.000000 1.000000
vt 0.500000 1.000000
vt 0.000000 0.000000
vt 1.000000 0.000000
vt 0.500000 1.000000
vt 0.000000 0.000000
vt 1.000000 0.000000
vt 0.000000 0.000000
vt 1.000000 0.000000
vt 1.000000 1.000000
vt 0.000000 1.000000
vt 0.500000 1.000000
vt 0.000000 0.000000
vt 1.000000 0.000000
vt 0.500000 1.000000
vt 0.000000 0.000000
vt 1.000000 0.000000
vt 0.000000 0.000000
vt 1.000000 0.000000
vt 1.000000 1.000000
vt 0.000000 1.000000
vt 0.500000 1.000000
vt 0.000000 0.000000
vt 1.000000 0.000000
vt 0.500000 1.000000
vt 0.000000 0.000000
vt 1.000000 0.000000
vt 0.000000 0.000000
vt 1.000000 0.000000
vt 1.000000 1.000000
vt 0.000000 1.000000
vt 0.500000 1.000000
vt 0.000000 0.000000
vt 1.000000 0.000000
vt 0.500000 1.000000
vt 0.000000 0.000000
vt 1.000000 0.000000
vt 0.000000 0.000000
vt 1.000000 0.000000
vt 1.000000 1.000000
vt 0.000000 1.000000
vt 0.500000 1.000000
vt 0.000000 0.000000
vt 1.000000 0.000000
vt 0.500000 1.000000
vt 0.000000 0.000000
vt 1.000000 0.000000
vt 0.000000 0.000000
vt 1.000000 0.000000
vt 1.000000 1.000000
vt 0.000000 1.000000
vt 0.500000 1.000000
vt 0.000000 0.000000
vt 1.000000 0.000000
vt 0.500000 1.000000
vt 0.000000 0.000000
vt 1.000000 0.000000
vt 0.000000 0.000000
vt 1.000000 0.000000
vt 1.000000 1.000000
vt 0.000000 1.000000
vt 0.500000 1.000000
vt 0.000000 0.000000
vt 1.000000 0.000000
vt 0.500000 1.000000
vt 0.000000 0.000000
vt 1.000000 0.000000
vt 0.000000 0.000000
vt 1.000000 0.000000
vt 1.000000 1.000000
vt 0.000000 1.000000
vt 0.500000 1.000000
vt 0.000000 0.000000
vt 1.000000 0.000000
vt 0.500000 1.000000
vt 0.000000 0.000000
vt 1.000000 0.000000
vt 0.000000 0.000000
vt 1.000000 0.000000
vt 1.000000 1.000000
vt 0.000000 1.000000
vt 0.500000 1.000000
vt 0.000000 0.000000
vt 1.000000 0.000000
vt 0.500000 1.000000
vt 0.000000 0.000000
vt 1.000000 0.000000
vt 0.000000 0.000000
vt 1.000000 0.000000
vt 1.000000 1.000000
vt 0.000000 1.000000
vt 0.500000 1.000000
vt 0.000000 0.000000
vt 1.000000 0.000000
vt 0.500000 1.000000
vt 0.000000 0.000000
vt 1.000000 0.000000
vt 0.000000 0.000000
vt 1.000000 0.000000
vt 1.000000 1.000000
vt 0.000000 1.000000
vt 0.500000 1.000000
vt 0.000000 0.000000
vt 1.000000 0.000000
vt 0.500000 1.000000
vt 0.000000 0.000000
vt 1.000000 0.000000
vt 0.000000 0.000000
vt 1.000000 0.000000
vt 1.000000 1.000000
vt 0.000000 1.000000
vt 0.500000 1.000000
vt 0.000000 0.000000
vt 1.000000 0.000000
vt 0.500000 1.000000
vt 0.000000 0.000000
vt 1.000000 0.000000
vt 0.000000 0.000000
vt 1.000000 0.000000
vt 1.000000 1.000000
vt 0.000000 1.000000
vt 0.500000 1.000000
vt 0.000000 0.000000
vt 1.000000 0.000000
vt 0.500000 1.000000
vt 0.000000 0.000000
vt 1.000000 0.000000
vt 0.000000 0.000000
vt 1.000000 0.000000
vt 1.000000 1.000000
vt 0.000000 1.000000
vt 0.500000 1.000000
vt 0.000000 0.000000
vt 1.000000 0.000000
vt 0.500000 1.000000
vt 0.000000 0.000000
vt 1.000000 0.000000
vt 0.000000 0.000000
vt 1.000000 0.000000
vt 1.000000 1.000000
vt 0.000000 1.000000
vt 0.500000 1.000000
vt 0.000000 0.000000
vt 1.000000 0.000000
vt 0.500000 1.000000
vt 0.000000 0.000000
vt 1.000000 0.000000
vt 0.000000 0.000000
vt 1.000000 0.000000
vt 1.000000 1.000000
vt 0.000000 1.000000
vt 0.500000 1.000000
vt 0.000000 0.000000
vt 1.000000 0.000000
vt 0.500000 1.000000
vt 0.000000 0.000000
vt 1.000000 0.000000
vt 0.000000 0.000000
vt 1.000000 0.000000
vt 1.000000 1.000000
vt 0.000000 1.000000
vt 0.500000 1.000000
vt 0.000000 0.000000
vt 1.000000 0.000000
vt 0.500000 1.000000
vt 0.000000 0.000000
vt 1.000000 0.000000
vt 0.000000 0.000000
vt 1.000000 0.000000
vt 1.000000 1.000000
vt 0.000000 1.000000
vt 0.500000 1.000000
vt 0.000000 0.000000
vt 1.000000 0.000000
vt 0.500000 1.000000
vt 0.000000 0.000000
vt 1.000000 0.000000
vt 0.000000 0.000000
vt 1.000000 0.000000
vt 1.000000 1.000000
vt 0.000000 1.000000
vt 0.500000 1.000000
vt 0.000000 0.000000
vt 1.000000 0.000000
vt 0.500000 1.000000
vt 0.000000 0.000000
vt 1.000000 0.000000
vt 0.000000 0.000000
vt 1.000000 0.000000
vt 1.000000 1.000000
vt 0.000000 1.000000
vt 0.500000 1.000000
vt 0.000000 0.000000
vt 1.000000 0.000000
vt 0.500000 1.000000
vt 0.000000 0.000000
vt 1.000000 0.000000
vt 0.000000 0.000000
vt 1.000000 0.000000
vt 1.000000 1.000000
vt 0.000000 1.000000
vt 0.500000 1.000000
vt 0.000000 0.000000
vt 1.000000 0.000000
vt 0.500000 1.000000
vt 0.000000 0.000000
vt 1.000000 0.000000
vt 0.000000 0.000000
vt 1.000000 0.000000
vt 1.000000 1.000000
vt 0.000000 1.000000
vt 0.500000 1.000000
vt 0.000000 0.000000
vt 1.000000 0.000000
vt 0.500000 1.000000
vt 0.000000 0.000000
vt 1.000000 0.000000
vt 0.000000 0.000000
vt 1.000000 0.000000
vt 1.000000 1.000000
vt 0.000000 1.000000
vt 0.500000 1.000000
vt 0.000000 0.000000
vt 1.000000 0.000000
vt 0.500000 1.000000
vt 0.000000 0.000000
vt 1.000000 0.000000
vt 0.000000 0.000000
vt 1.000000 0.000000
vt 1.000000 1.000000
vt 0.000000 1.000000
vt 0.500000 1.000000
vt 0.000000 0.000000
vt 1.000000 0.000000
vt 0.500000 1.000000
vt 0.000000 0.000000
vt 1.000000 0.000000
vt 0.000000 0.000000
vt 1.000000 0.000000
vt 1.000000 1.000000
vt 0.000000 1.000000
vt 0.500000 1.000000
vt 0.000000 0.000000
vt 1.000000 0.000000
vt 0.500000 1.000000
vt 0.000000 0.000000
vt 1.000000 0.000000
vt 0.000000 0.000000
vt 1.000000 0.000000
vt 1.000000 1.000000
vt 0.000000 1.000000
vt 0.500000 1.000000
vt 0.000000 0.000000
vt 1.000000 0.000000
vt 0.500000 1.000000
vt 0.000000 0.000000
vt 1.000000 0.000000
vt 0.000000 0.000000
vt 1.000000 0.000000
vt 1.000000 1.000000
vt 0.000000 1.000000
vt 0.500000 1.000000
vt 0.000000 0.000000
vt 1.000000 0.000000
vt 0.500000 1.000000
vt 0.000000 0.000000
vt 1.000000 0.000000
vt 0.000000 0.000000
vt 1.000000 0.000000
vt 1.000000 1.000000
vt 0.000000 1.000000
vt 0.500000 1.000000
vt 0.000000 0.000000
vt 1.000000 0.000000
vt 0.500000 1.000000
vt 0.000000 0.000000
vt 1.000000 0.000000
vt 0.000000 0.000000
vt 1.000000 0.000000
vt 1.000000 1.000000
vt 0.000000 1.000000
vt 0.500000 1.000000
vt 0.000000 0.000000
vt 1.000000 0.000000
vt 0.500000 1.000000
vt 0.000000 0.000000
vt 1.000000 0.000000
vt 0.000000 0.000000
vt 1.000000 0.000000
vt 1.000000 1.000000
vt 0.000000 1.000000
vt 0.500000 1.000000
vt 0.000000 0.000000
vt 1.000000 0.000000
vt 0.000000 0.000000
vt 1.000000 0.000000
vt 1.000000 1.000000
vt 0.000000 1.000000
vt 0.500000 1.000000
vt 0.000000 0.000000
vt 1.000000 0.000000
vt 0.500000 1.000000
vt 0.000000 0.000000
vt 1.000000 0.000000
vt 0.000000 0.000000
vt 1.000000 0.000000
vt 1.000000 1.000000
vt 0.000000 1.000000
vt 0.500000 1.000000
vt 0.000000 0.000000
vt 1.000000 0.000000
vt 0.500000 1.000000
vt 0.000000 0.000000
vt 1.000000 0.000000
vt 0.000000 0.000000
vt 1.000000 0.000000
vt 1.000000 1.000000
vt 0.000000 1.000000
vt 0.500000 1.000000
vt 0.000000 0.000000
vt 1.000000 0.000000
vt 0.500000 1.000000
vt 0.000000 0.000000
vt 1.000000 0.000000
vt 0.000000 0.000000
vt 1.000000 0.000000
vt 1.000000 1.000000
vt 0.000000 1.000000
vt 0.500000 1.000000
vt 0.000000 0.000000
vt 1.000000 0.000000
vt 0.500000 1.000000
vt 0.000000 0.000000
vt 1.000000 0.000000
vt 0.000000 0.000000
vt 1.000000 0.000000
vt 1.000000 1.000000
vt 0.000000 1.000000
vt 0.500000 1.000000
vt 0.000000 0.000000
vt 1.000000 0.000000
vt 0.500000 1.000000
vt 0.000000 0.000000
vt 1.000000 0.000000
vt 0.000000 0.000000
vt 1.000000 0.000000
vt 1.000000 1.000000
vt 0.000000 1.000000
vt 0.500000 1.000000
vt 0.000000 0.000000
vt 1.000000 0.000000
vt 0.500000 1.000000
vt 0.000000 0.000000
vt 1.000000 0.000000
vt 0.000000 0.000000
vt 1.000000 0.000000
vt 1.000000 1.000000
vt 0.000000 1.000000
vt 0.500000 1.000000
vt 0.000000 0.000000
vt 1.000000 0.000000
vt 0.500000 1.000000
vt 0.000000 0.000000
vt 1.000000 0.000000
vt 0.000000 0.000000
vt 1.000000 0.000000
vt 1.000000 1.000000
vt 0.000000 1.000000
vt 0.500000 1.000000
vt 0.000000 0.000000
vt 1.000000 0.000000
vt 0.500000 1.000000
vt 0.000000 0.000000
vt 1.000000 0.000000
vt 0.000000 0.000000
vt 1.000000 0.000000
vt 1.000000 1.000000
vt 0.000000 1.000000
vt 0.500000 1.000000
vt 0.000000 0.000000
vt 1.000000 0.000000
vt 0.500000 1.000000
vt 0.000000 0.000000
vt 1.000000 0.000000
vt 0.000000 0.000000
vt 1.000000 0.000000
vt 1.000000 1.000000
vt 0.000000 1.000000
vt 0.500000 1.000000
vt 0.000000 0.000000
vt 1.000000 0.000000
vt 0.500000 1.000000
vt 0.000000 0.000000
vt 1.000000 0.000000
vt 0.000000 0.000000
vt 1.000000 0.000000
vt 1.000000 1.000000
vt 0.000000 1.000000
vt 0.500000 1.000000
vt 0.000000 0.000000
vt 1.000000 0.000000
vt 0.500000 1.000000
vt 0.000000 0.000000
vt 1.000000 0.000000
vt 0.000000 0.000000
vt 1.000000 0.000000
vt 1.000000 1.000000
vt 0.000000 1.000000
vt 0.500000 1.000000
vt 0.000000 0.000000
vt 1.000000 0.000000
vt 0.500000 1.000000
vt 0.000000 0.000000
vt 1.000000 0.000000
vt 0.000000 0.000000
vt 1.000000 0.000000
vt 1.000000 1.000000
vt 0.000000 1.000000
vt 0.500000 1.000000
vt 0.000000 0.000000
vt 1.000000 0.000000
vt 0.500000 1.000000
vt 0.000000 0.000000
vt 1.000000 0.000000
vt 0.000000 0.000000
vt 1.000000 0.000000
vt 1.000000 1.000000
vt 0.000000 1.000000
vt 0.500000 1.000000
vt 0.000000 0.000000
vt 1.000000 0.000000
vt 0.500000 1.000000
vt 0.000000 0.000000
vt 1.000000 0.000000
vt 0.000000 0.000000
vt 1.000000 0.000000
vt 1.000000 1.000000
vt 0.000000 1.000000
vt 0.500000 1.000000
vt 0.000000 0.000000
vt 1.000000 0.000000
vt 0.500000 1.000000
vt 0.000000 0.000000
vt 1.000000 0.000000
vt 0.000000 0.000000
vt 1.000000 0.000000
vt 1.000000 1.000000
vt 0.000000 1.000000
vt 0.500000 1.000000
vt 0.000000 0.000000
vt 1.000000 0.000000
vt 0.500000 1.000000
vt 0.000000 0.000000
vt 1.000000 0.000000
vt 0.000000 0.000000
vt 1.000000 0.000000
vt 1.000000 1.000000
vt 0.000000 1.000000
vt 0.500000 1.000000
vt 0.000000 0.000000
vt 1.000000 0.000000
vt 0.500000 1.000000
vt 0.000000 0.000000
vt 1.000000 0.000000
vt 0.000000 0.000000
vt 1.000000 0.000000
vt 1.000000 1.000000
vt 0.000000 1.000000
vt 0.500000 1.000000
vt 0.000000 0.000000
vt 1.000000 0.000000
vt 0.500000 1.000000
vt 0.000000 0.000000
vt 1.000000 0.000000
s 1
usemtl models/caelum/world/environment/rock_granite.png
f 1/1 2/2 3/3
f 4/4 5/5 6/6 7/7
f 8/8 9/9 10/10 11/11
f 12/12 13/13 14/14
f 15/15 16/16 17/17
f 18/18 19/19 20/20 21/21
f 22/22 23/23 24/24 25/25
f 26/26 27/27 28/28
f 29/29 30/30 31/31
f 32/32 33/33 34/34 35/35
f 36/36 37/37 38/38 39/39
f 40/40 41/41 42/42
f 43/43 44/44 45/45
f 46/46 47/47 48/48 49/49
f 50/50 51/51 52/52 53/53
f 54/54 55/55 56/56
f 57/57 58/58 59/59
f 60/60 61/61 62/62 63/63
f 64/64 65/65 66/66 67/67
f 68/68 69/69 70/70
f 71/71 72/72 73/73
f 74/74 75/75 76/76 77/77
f 78/78 79/79 80/80 81/81
f 82/82 83/83 84/84
f 85/85 86/86 87/87
f 88/88 89/89 90/90 91/91
f 92/92 93/93 94/94 95/95
f 96/96 97/97 98/98
f 99/99 100/100 101/101
f 102/102 103/103 104/104 105/105
f 106/106 107/107 108/108 109/109
f 110/110 111/111 112/112
f 113/113 114/114 115/115
f 116/116 117/117 118/118 119/119
f 120/120 121/121 122/122 123/123
f 124/124 125/125 126/126
f 127/127 128/128 129/129
f 130/130 131/131 132/132 133/133
f 134/134 135/135 136/136 137/137
f 138/138 139/139 140/140
usemtl models/caelum/world/resources/ca_vein_gold.png
f 141/141 142/142 143/143
f 144/144 145/145 146/146 147/147
f 148/148 149/149 150/150
f 151/151 152/152 153/153
f 154/154 155/155 156/156 157/157
f 158/158 159/159 160/160
f 161/161 162/162 163/163
f 164/164 165/165 166/166 167/167
f 168/168 169/169 170/170
f 171/171 172/172 173/173
f 174/174 175/175 176/176 177/177
f 178/178 179/179 180/180
f 181/181 182/182 183/183
f 184/184 185/185 186/186 187/187
f 188/188 189/189 190/190
f 191/191 192/192 193/193
f 194/194 195/195 196/196 197/197
f 198/198 199/199 200/200
f 201/201 202/202 203/203
f 204/204 205/205 206/206 207/207
f 208/208 209/209 210/210
f 211/211 212/212 213/213
f 214/214 215/215 216/216 217/217
f 218/218 219/219 220/220
f 221/221 222/222 223/223
f 224/224 225/225 226/226 227/227
f 228/228 229/229 230/230
f 231/231 232/232 233/233
f 234/234 235/235 236/236 237/237
f 238/238 239/239 240/240
f 241/241 242/242 243/243
f 244/244 245/245 246/246 247/247
f 248/248 249/249 250/250
f 251/251 252/252 253/253
f 254/254 255/255 256/256 257/257
f 258/258 259/259 260/260
f 261/261 262/262 263/263
f 264/264 265/265 266/266 267/267
f 268/268 269/269 270/270
f 271/271 272/272 273/273
f 274/274 275/275 276/276 277/277
f 278/278 279/279 280/280
f 281/281 282/282 283/283
f 284/284 285/285 286/286 287/287
f 288/288 289/289 290/290
f 291/291 292/292 293/293
f 294/294 295/295 296/296 297/297
f 298/298 299/299 300/300
f 301/301 302/302 303/303
f 304/304 305/305 306/306 307/307
f 308/308 309/309 310/310
f 311/311 312/312 313/313
f 314/314 315/315 316/316 317/317
f 318/318 319/319 320/320
f 321/321 322/322 323/323
f 324/324 325/325 326/326 327/327
f 328/328 329/329 330/330
f 331/331 332/332 333/333
f 334/334 335/335 336/336 337/337
f 338/338 339/339 340/340
f 341/341 342/342 343/343
f 344/344 345/345 346/346 347/347
f 348/348 349/349 350/350
f 351/351 352/352 353/353
f 354/354 355/355 356/356 357/357
f 358/358 359/359 360/360
f 361/361 362/362 363/363
f 364/364 365/365 366/366 367/367
f 368/368 369/369 370/370
f 371/371 372/372 373/373
f 374/374 375/375 376/376 377/377
f 378/378 379/379 380/380
f 381/381 382/382 383/383
f 384/384 385/385 386/386 387/387
f 388/388 389/389 390/390
f 391/391 392/392 393/393
f 394/394 395/395 396/396 397/397
f 398/398 399/399 400/400
f 401/401 402/402 403/403
f 404/404 405/405 406/406 407/407
f 408/408 409/409 410/410
f 411/411 412/412 413/413
f 414/414 415/415 416/416 417/417
f 418/418 419/419 420/420
f 421/421 422/422 423/423
f 424/424 425/425 426/426 427/427
f 428/428 429/429 430/430
f 431/431 432/432 433/433
f 434/434 435/435 436/436 437/437
f 438/438 439/439 440/440
f 441/441 442/442 443/443
f 444/444 445/445 446/446 447/447
f 448/448 449/449 450/450
f 451/451 452/452 453/453
f 454/454 455/455 456/456 457/457
f 458/458 459/459 460/460
f 461/461 462/462 463/463
f 464/464 465/465 466/466 467/467
f 468/468 469/469 470/470
f 471/471 472/472 473/473
f 474/474 475/475 476/476 477/477
f 478/478 479/479 480/480
f 481/481 482/482 483/483
f 484/484 485/485 486/486 487/487
f 488/488 489/489 490/490
f 491/491 492/492 493/493
f 494/494 495/495 496/496 497/497
f 498/498 499/499 500/500
f 501/501 502/502 503/503
f 504/504 505/505 506/506 507/507
f 508/508 509/509 510/510
f 511/511 512/512 513/513
f 514/514 515/515 516/516 517/517
f 518/518 519/519 520/520
f 521/521 522/522 523/523
f 524/524 525/525 526/526 527/527
f 528/528 529/529 530/530
f 531/531 532/532 533/533
f 534/534 535/535 536/536 537/537
f 538/538 539/539 540/540
f 541/541 542/542 543/543
f 544/544 545/545 546/546 547/547
f 548/548 549/549 550/550
f 551/551 552/552 553/553
f 554/554 555/555 556/556 557/557
f 558/558 559/559 560/560
f 561/561 562/562 563/563
f 564/564 565/565 566/566 567/567
f 568/568 569/569 570/570
f 571/571 572/572 573/573
f 574/574 575/575 576/576 577/577
f 578/578 579/579 580/580
f 581/581 582/582 583/583
f 584/584 585/585 586/586 587/587
f 588/588 589/589 590/590
f 591/591 592/592 593/593
f 594/594 595/595 596/596 597/597
f 598/598 599/599 600/600
f 601/601 602/602 603/603
f 604/604 605/605 606/606 607/607
f 608/608 609/609 610/610
f 611/611 612/612 613/613
f 614/614 615/615 616/616 617/617
f 618/618 619/619 620/620
f 621/621 622/622 623/623
f 624/624 625/625 626/626 627/627
f 628/628 629/629 630/630
f 631/631 632/632 633/633
f 634/634 635/635 636/636 637/637
f 638/638 639/639 640/640
f 641/641 642/642 643/643
f 644/644 645/645 646/646 647/647
f 648/648 649/649 650/650
f 651/651 652/652 653/653
f 654/654 655/655 656/656 657/657
f 658/658 659/659 660/660
f 661/661 662/662 663/663
f 664/664 665/665 666/666 667/667
f 668/668 669/669 670/670
f 671/671 672/672 673/673
f 674/674 675/675 676/676 677/677
f 678/678 679/679 680/680
f 681/681 682/682 683/683
f 684/684 685/685 686/686 687/687
f 688/688 689/689 690/690
f 691/691 692/692 693/693
f 694/694 695/695 696/696 697/697
f 698/698 699/699 700/700
f 701/701 702/702 703/703
f 704/704 705/705 706/706 707/707
f 708/708 709/709 710/710
f 711/711 712/712 713/713
f 714/714 715/715 716/716 717/717
f 718/718 719/719 720/720
f 721/721 722/722 723/723
f 724/724 725/725 726/726 727/727
f 728/728 729/729 730/730
f 731/731 732/732 733/733
f 734/734 735/735 736/736 737/737
f 738/738 739/739 740/740
f 741/741 742/742 743/743
f 744/744 745/745 746/746 747/747
f 748/748 749/749 750/750
f 751/751 752/752 753/753
f 754/754 755/755 756/756 757/757
f 758/758 759/759 760/760
f 761/761 762/762 763/763
f 764/764 765/765 766/766 767/767
f 768/768 769/769 770/770
f 771/771 772/772 773/773 774/774
f 775/775 776/776 777/777
f 778/778 779/779 780/780
f 781/781 782/782 783/783 784/784
f 785/785 786/786 787/787
f 788/788 789/789 790/790
f 791/791 792/792 793/793 794/794
f 795/795 796/796 797/797
f 798/798 799/799 800/800
f 801/801 802/802 803/803 804/804
f 805/805 806/806 807/807
f 808/808 809/809 810/810
f 811/811 812/812 813/813 814/814
f 815/815 816/816 817/817
f 818/818 819/819 820/820
f 821/821 822/822 823/823 824/824
f 825/825 826/826 827/827
f 828/828 829/829 830/830
f 831/831 832/832 833/833 834/834
f 835/835 836/836 837/837
f 838/838 839/839 840/840
f 841/841 842/842 843/843 844/844
f 845/845 846/846 847/847
f 848/848 849/849 850/850
f 851/851 852/852 853/853 854/854
f 855/855 856/856 857/857
f 858/858 859/859 860/860
f 861/861 862/862 863/863 864/864
f 865/865 866/866 867/867
f 868/868 869/869 870/870
f 871/871 872/872 873/873 874/874
f 875/875 876/876 877/877
f 878/878 879/879 880/880
f 881/881 882/882 883/883 884/884
f 885/885 886/886 887/887
f 888/888 889/889 890/890
f 891/891 892/892 893/893 894/894
f 895/895 896/896 897/897
f 898/898 899/899 900/900
f 901/901 902/902 903/903 904/904
f 905/905 906/906 907/907
f 908/908 909/909 910/910
f 911/911 912/912 913/913 914/914
f 915/915 916/916 917/917
f 918/918 919/919 920/920
f 921/921 922/922 923/923 924/924
f 925/925 926/926 927/927
f 928/928 929/929 930/930
f 931/931 932/932 933/933 934/934
f 935/935 936/936 937/937
f 938/938 939/939 940/940
f 941/941 942/942 943/943 944/944
f 945/945 946/946 947/947
f 948/948 949/949 950/950
