# Modelo original generado para Caelum Argenteum.
# Ejes OBJ: X ancho, Y altura, Z profundidad.
o ca_vein_topaz2
v 0.000000 0.000000 0.000000
v 30.533955 1.372914 0.000000
v 28.707855 0.504823 18.013276
v 30.533955 1.372914 0.000000
v 44.179997 16.169053 0.000000
v 30.973184 14.607854 19.434699
v 28.707855 0.504823 18.013276
v 44.179997 16.169053 0.000000
v 37.643420 30.632826 0.000000
v 22.121544 32.513965 13.880573
v 30.973184 14.607854 19.434699
v -4.406734 47.000000 6.783121
v 22.121544 32.513965 13.880573
v 37.643420 30.632826 0.000000
v 0.000000 0.000000 0.000000
v 28.707855 0.504823 18.013276
v 11.500092 -0.016495 30.567239
v 28.707855 0.504823 18.013276
v 30.973184 14.607854 19.434699
v 13.633428 15.407617 36.237643
v 11.500092 -0.016495 30.567239
v 30.973184 14.607854 19.434699
v 22.121544 32.513965 13.880573
v 11.867102 30.691417 31.542750
v 13.633428 15.407617 36.237643
v -4.406734 47.000000 6.783121
v 11.867102 30.691417 31.542750
v 22.121544 32.513965 13.880573
v 0.000000 0.000000 0.000000
v 11.500092 -0.016495 30.567239
v -10.892043 -1.372451 28.951044
v 11.500092 -0.016495 30.567239
v 13.633428 15.407617 36.237643
v -14.503099 14.494121 38.549229
v -10.892043 -1.372451 28.951044
v 13.633428 15.407617 36.237643
v 11.867102 30.691417 31.542750
v -9.321010 31.375184 24.775240
v -14.503099 14.494121 38.549229
v -4.406734 47.000000 6.783121
v -9.321010 31.375184 24.775240
v 11.867102 30.691417 31.542750
v 0.000000 0.000000 0.000000
v -10.892043 -1.372451 28.951044
v -31.443503 0.515880 19.729809
v -10.892043 -1.372451 28.951044
v -14.503099 14.494121 38.549229
v -38.366155 14.798414 24.073555
v -31.443503 0.515880 19.729809
v -14.503099 14.494121 38.549229
v -9.321010 31.375184 24.775240
v -27.348085 30.791231 17.160063
v -38.366155 14.798414 24.073555
v -4.406734 47.000000 6.783121
v -27.348085 30.791231 17.160063
v -9.321010 31.375184 24.775240
v 0.000000 0.000000 0.000000
v -31.443503 0.515880 19.729809
v -38.109188 -0.585094 0.000000
v -31.443503 0.515880 19.729809
v -38.366155 14.798414 24.073555
v -43.146300 13.458980 0.000000
v -38.109188 -0.585094 0.000000
v -38.366155 14.798414 24.073555
v -27.348085 30.791231 17.160063
v -32.858745 32.819085 0.000000
v -43.146300 13.458980 0.000000
v -4.406734 47.000000 6.783121
v -32.858745 32.819085 0.000000
v -27.348085 30.791231 17.160063
v 0.000000 0.000000 0.000000
v -38.109188 -0.585094 0.000000
v -32.880759 -0.607903 -20.631642
v -38.109188 -0.585094 0.000000
v -43.146300 13.458980 0.000000
v -36.311819 14.587466 -22.784524
v -32.880759 -0.607903 -20.631642
v -43.146300 13.458980 0.000000
v -32.858745 32.819085 0.000000
v -28.229108 31.328905 -17.712877
v -36.311819 14.587466 -22.784524
v -4.406734 47.000000 6.783121
v -28.229108 31.328905 -17.712877
v -32.858745 32.819085 0.000000
v 0.000000 0.000000 0.000000
v -32.880759 -0.607903 -20.631642
v -11.308058 0.552121 -30.056811
v -32.880759 -0.607903 -20.631642
v -36.311819 14.587466 -22.784524
v -12.269474 14.420481 -32.612256
v -11.308058 0.552121 -30.056811
v -36.311819 14.587466 -22.784524
v -28.229108 31.328905 -17.712877
v -11.552474 31.177856 -30.706468
v -12.269474 14.420481 -32.612256
v -4.406734 47.000000 6.783121
v -11.552474 31.177856 -30.706468
v -28.229108 31.328905 -17.712877
v 0.000000 0.000000 0.000000
v -11.308058 0.552121 -30.056811
v 11.440624 1.366679 -30.409173
v -11.308058 0.552121 -30.056811
v -12.269474 14.420481 -32.612256
v 12.391556 16.657458 -32.936749
v 11.440624 1.366679 -30.409173
v -12.269474 14.420481 -32.612256
v -11.552474 31.177856 -30.706468
v 8.610338 32.953322 -22.886273
v 12.391556 16.657458 -32.936749
v -4.406734 47.000000 6.783121
v 8.610338 32.953322 -22.886273
v -11.552474 31.177856 -30.706468
v 0.000000 0.000000 0.000000
v 11.440624 1.366679 -30.409173
v 32.156028 1.543334 -20.176896
v 11.440624 1.366679 -30.409173
v 12.391556 16.657458 -32.936749
v 37.532056 13.966633 -23.550185
v 32.156028 1.543334 -20.176896
v 12.391556 16.657458 -32.936749
v 8.610338 32.953322 -22.886273
v 28.077421 31.327947 -17.617699
v 37.532056 13.966633 -23.550185
v -4.406734 47.000000 6.783121
v 28.077421 31.327947 -17.617699
v 8.610338 32.953322 -22.886273
v 0.000000 0.000000 0.000000
v 32.156028 1.543334 -20.176896
v 30.533955 1.372914 0.000000
v 32.156028 1.543334 -20.176896
v 37.532056 13.966633 -23.550185
v 44.179997 16.169053 0.000000
v 30.533955 1.372914 0.000000
v 37.532056 13.966633 -23.550185
v 28.077421 31.327947 -17.617699
v 37.643420 30.632826 0.000000
v 44.179997 16.169053 0.000000
v -4.406734 47.000000 6.783121
v 37.643420 30.632826 0.000000
v 28.077421 31.327947 -17.617699
v 26.650030 27.291759 -10.982423
v 22.118679 27.314041 -8.366143
v 26.452035 58.391867 -5.907879
v 26.841739 58.389950 -6.132884
v 26.650030 27.280473 -5.749983
v 22.118679 27.314041 -8.366143
v 26.650030 27.291759 -10.982423
v 26.841739 58.388980 -5.682885
v 26.841739 58.389950 -6.132884
v 26.452035 58.391867 -5.907879
v 22.118679 27.314041 -8.366143
v 22.118679 27.302755 -3.133703
v 26.452035 58.390896 -5.457880
v 26.452035 58.391867 -5.907879
v 26.650030 27.280473 -5.749983
v 22.118679 27.302755 -3.133703
v 22.118679 27.314041 -8.366143
v 26.841739 58.388980 -5.682885
v 26.452035 58.391867 -5.907879
v 26.452035 58.390896 -5.457880
v 22.118679 27.302755 -3.133703
v 26.650030 27.269187 -0.517543
v 26.841739 58.388009 -5.232886
v 26.452035 58.390896 -5.457880
v 26.650030 27.280473 -5.749983
v 26.650030 27.269187 -0.517543
v 22.118679 27.302755 -3.133703
v 26.841739 58.388980 -5.682885
v 26.452035 58.390896 -5.457880
v 26.841739 58.388009 -5.232886
v 26.650030 27.269187 -0.517543
v 31.181380 27.246905 -3.133823
v 27.231443 58.386093 -5.457890
v 26.841739 58.388009 -5.232886
v 26.650030 27.280473 -5.749983
v 31.181380 27.246905 -3.133823
v 26.650030 27.269187 -0.517543
v 26.841739 58.388980 -5.682885
v 26.841739 58.388009 -5.232886
v 27.231443 58.386093 -5.457890
v 31.181380 27.246905 -3.133823
v 31.181380 27.258191 -8.366263
v 27.231443 58.387063 -5.907889
v 27.231443 58.386093 -5.457890
v 26.650030 27.280473 -5.749983
v 31.181380 27.258191 -8.366263
v 31.181380 27.246905 -3.133823
v 26.841739 58.388980 -5.682885
v 27.231443 58.386093 -5.457890
v 27.231443 58.387063 -5.907889
v 31.181380 27.258191 -8.366263
v 26.650030 27.291759 -10.982423
v 26.841739 58.389950 -6.132884
v 27.231443 58.387063 -5.907889
v 26.650030 27.280473 -5.749983
v 26.650030 27.291759 -10.982423
v 31.181380 27.258191 -8.366263
v 26.841739 58.388980 -5.682885
v 27.231443 58.387063 -5.907889
v 26.841739 58.389950 -6.132884
v 5.711277 30.141903 2.698420
v 2.154279 30.211774 5.657675
v 6.935567 61.254826 7.405434
v 7.281462 61.248031 7.117666
v 6.493878 30.075981 7.258847
v 2.154279 30.211774 5.657675
v 5.711277 30.141903 2.698420
v 7.357565 61.241621 7.561138
v 7.281462 61.248031 7.117666
v 6.935567 61.254826 7.405434
v 2.154279 30.211774 5.657675
v 2.936880 30.145852 10.218103
v 7.011670 61.248415 7.848906
v 6.935567 61.254826 7.405434
v 6.493878 30.075981 7.258847
v 2.936880 30.145852 10.218103
v 2.154279 30.211774 5.657675
v 7.357565 61.241621 7.561138
v 6.935567 61.254826 7.405434
v 7.011670 61.248415 7.848906
v 2.936880 30.145852 10.218103
v 7.276479 30.010059 11.819275
v 7.433668 61.235210 8.004609
v 7.011670 61.248415 7.848906
v 6.493878 30.075981 7.258847
v 7.276479 30.010059 11.819275
v 2.936880 30.145852 10.218103
v 7.357565 61.241621 7.561138
v 7.011670 61.248415 7.848906
v 7.433668 61.235210 8.004609
v 7.276479 30.010059 11.819275
v 10.833477 29.940188 8.860019
v 7.779563 61.228416 7.716841
v 7.433668 61.235210 8.004609
v 6.493878 30.075981 7.258847
v 10.833477 29.940188 8.860019
v 7.276479 30.010059 11.819275
v 7.357565 61.241621 7.561138
v 7.433668 61.235210 8.004609
v 7.779563 61.228416 7.716841
v 10.833477 29.940188 8.860019
v 10.050876 30.006110 4.299592
v 7.703460 61.234826 7.273369
v 7.779563 61.228416 7.716841
v 6.493878 30.075981 7.258847
v 10.050876 30.006110 4.299592
v 10.833477 29.940188 8.860019
v 7.357565 61.241621 7.561138
v 7.779563 61.228416 7.716841
v 7.703460 61.234826 7.273369
v 10.050876 30.006110 4.299592
v 5.711277 30.141903 2.698420
v 7.281462 61.248031 7.117666
v 7.703460 61.234826 7.273369
v 6.493878 30.075981 7.258847
v 5.711277 30.141903 2.698420
v 10.050876 30.006110 4.299592
v 7.357565 61.241621 7.561138
v 7.703460 61.234826 7.273369
v 7.281462 61.248031 7.117666
v -7.196349 28.203805 7.432281
v -11.551917 28.207667 12.528503
v -5.356043 59.550737 13.686746
v -5.063675 59.550478 13.344662
v -4.960683 28.197127 13.752424
v -11.551917 28.207667 12.528503
v -7.196349 28.203805 7.432281
v -4.913606 59.550030 13.768901
v -5.063675 59.550478 13.344662
v -5.356043 59.550737 13.686746
v -11.551917 28.207667 12.528503
v -9.316251 28.200988 18.848646
v -5.205974 59.550289 14.110985
v -5.356043 59.550737 13.686746
v -4.960683 28.197127 13.752424
v -9.316251 28.200988 18.848646
v -11.551917 28.207667 12.528503
v -4.913606 59.550030 13.768901
v -5.356043 59.550737 13.686746
v -5.205974 59.550289 14.110985
v -9.316251 28.200988 18.848646
v -2.725017 28.190448 20.072568
v -4.763537 59.549582 14.193141
v -5.205974 59.550289 14.110985
v -4.960683 28.197127 13.752424
v -2.725017 28.190448 20.072568
v -9.316251 28.200988 18.848646
v -4.913606 59.550030 13.768901
v -5.205974 59.550289 14.110985
v -4.763537 59.549582 14.193141
v -2.725017 28.190448 20.072568
v 1.630551 28.186587 14.976346
v -4.471170 59.549322 13.851057
v -4.763537 59.549582 14.193141
v -4.960683 28.197127 13.752424
v 1.630551 28.186587 14.976346
v -2.725017 28.190448 20.072568
v -4.913606 59.550030 13.768901
v -4.763537 59.549582 14.193141
v -4.471170 59.549322 13.851057
v 1.630551 28.186587 14.976346
v -0.605115 28.193265 8.656203
v -4.621239 59.549771 13.426818
v -4.471170 59.549322 13.851057
v -4.960683 28.197127 13.752424
v -0.605115 28.193265 8.656203
v 1.630551 28.186587 14.976346
v -4.913606 59.550030 13.768901
v -4.471170 59.549322 13.851057
v -4.621239 59.549771 13.426818
v -0.605115 28.193265 8.656203
v -7.196349 28.203805 7.432281
v -5.063675 59.550478 13.344662
v -4.621239 59.549771 13.426818
v -4.960683 28.197127 13.752424
v -7.196349 28.203805 7.432281
v -0.605115 28.193265 8.656203
v -4.913606 59.550030 13.768901
v -4.621239 59.549771 13.426818
v -5.063675 59.550478 13.344662
v -28.892842 28.227271 5.729129
v -31.330763 28.122695 9.851300
v -30.622606 62.911822 8.630829
v -30.393587 62.921646 8.243590
v -26.567130 28.624998 9.898009
v -31.330763 28.122695 9.851300
v -28.892842 28.227271 5.729129
v -30.175109 62.959008 8.635217
v -30.393587 62.921646 8.243590
v -30.622606 62.911822 8.630829
v -31.330763 28.122695 9.851300
v -29.005051 28.520422 14.020181
v -30.404128 62.949184 9.022455
v -30.622606 62.911822 8.630829
v -26.567130 28.624998 9.898009
v -29.005051 28.520422 14.020181
v -31.330763 28.122695 9.851300
v -30.175109 62.959008 8.635217
v -30.622606 62.911822 8.630829
v -30.404128 62.949184 9.022455
v -29.005051 28.520422 14.020181
v -24.241417 29.022725 14.066890
v -29.956630 62.996371 9.026843
v -30.404128 62.949184 9.022455
v -26.567130 28.624998 9.898009
v -24.241417 29.022725 14.066890
v -29.005051 28.520422 14.020181
v -30.175109 62.959008 8.635217
v -30.404128 62.949184 9.022455
v -29.956630 62.996371 9.026843
v -24.241417 29.022725 14.066890
v -21.803497 29.127301 9.944719
v -29.727611 63.006195 8.639605
v -29.956630 62.996371 9.026843
v -26.567130 28.624998 9.898009
v -21.803497 29.127301 9.944719
v -24.241417 29.022725 14.066890
v -30.175109 62.959008 8.635217
v -29.956630 62.996371 9.026843
v -29.727611 63.006195 8.639605
v -21.803497 29.127301 9.944719
v -24.129209 28.729574 5.775838
v -29.946090 62.968832 8.247978
v -29.727611 63.006195 8.639605
v -26.567130 28.624998 9.898009
v -24.129209 28.729574 5.775838
v -21.803497 29.127301 9.944719
v -30.175109 62.959008 8.635217
v -29.727611 63.006195 8.639605
v -29.946090 62.968832 8.247978
v -24.129209 28.729574 5.775838
v -28.892842 28.227271 5.729129
v -30.393587 62.921646 8.243590
v -29.946090 62.968832 8.247978
v -26.567130 28.624998 9.898009
v -28.892842 28.227271 5.729129
v -24.129209 28.729574 5.775838
v -30.175109 62.959008 8.635217
v -29.946090 62.968832 8.247978
v -30.393587 62.921646 8.243590
v -21.880628 30.914180 -12.979818
v -23.666810 30.927164 -8.317268
v -17.033965 56.251344 -8.279289
v -16.872983 56.250173 -8.699508
v -18.752117 30.536815 -9.106833
v -23.666810 30.927164 -8.317268
v -21.880628 30.914180 -12.979818
v -16.591022 56.216163 -8.350450
v -16.872983 56.250173 -8.699508
v -17.033965 56.251344 -8.279289
v -23.666810 30.927164 -8.317268
v -20.538300 30.549800 -4.444284
v -16.752004 56.217333 -7.930232
v -17.033965 56.251344 -8.279289
v -18.752117 30.536815 -9.106833
v -20.538300 30.549800 -4.444284
v -23.666810 30.927164 -8.317268
v -16.591022 56.216163 -8.350450
v -17.033965 56.251344 -8.279289
v -16.752004 56.217333 -7.930232
v -20.538300 30.549800 -4.444284
v -15.623607 30.159451 -5.233849
v -16.309061 56.182153 -8.001392
v -16.752004 56.217333 -7.930232
v -18.752117 30.536815 -9.106833
v -15.623607 30.159451 -5.233849
v -20.538300 30.549800 -4.444284
v -16.591022 56.216163 -8.350450
v -16.752004 56.217333 -7.930232
v -16.309061 56.182153 -8.001392
v -15.623607 30.159451 -5.233849
v -13.837425 30.146466 -9.896399
v -16.148079 56.180982 -8.421611
v -16.309061 56.182153 -8.001392
v -18.752117 30.536815 -9.106833
v -13.837425 30.146466 -9.896399
v -15.623607 30.159451 -5.233849
v -16.591022 56.216163 -8.350450
v -16.309061 56.182153 -8.001392
v -16.148079 56.180982 -8.421611
v -13.837425 30.146466 -9.896399
v -16.965935 30.523831 -13.769383
v -16.430040 56.214993 -8.770668
v -16.148079 56.180982 -8.421611
v -18.752117 30.536815 -9.106833
v -16.965935 30.523831 -13.769383
v -13.837425 30.146466 -9.896399
v -16.591022 56.216163 -8.350450
v -16.148079 56.180982 -8.421611
v -16.430040 56.214993 -8.770668
v -16.965935 30.523831 -13.769383
v -21.880628 30.914180 -12.979818
v -16.872983 56.250173 -8.699508
v -16.430040 56.214993 -8.770668
v -18.752117 30.536815 -9.106833
v -21.880628 30.914180 -12.979818
v -16.965935 30.523831 -13.769383
v -16.591022 56.216163 -8.350450
v -16.430040 56.214993 -8.770668
v -16.872983 56.250173 -8.699508
v -5.495620 28.648842 -11.165967
v -6.390299 28.719441 -6.663604
v -5.200449 55.236824 -8.954170
v -5.112753 55.229904 -9.395488
v -2.064894 29.113803 -8.150900
v -6.390299 28.719441 -6.663604
v -5.495620 28.648842 -11.165967
v -4.776476 55.275480 -9.099954
v -5.112753 55.229904 -9.395488
v -5.200449 55.236824 -8.954170
v -6.390299 28.719441 -6.663604
v -2.959573 29.184402 -3.648537
v -4.864172 55.282400 -8.658636
v -5.200449 55.236824 -8.954170
v -2.064894 29.113803 -8.150900
v -2.959573 29.184402 -3.648537
v -6.390299 28.719441 -6.663604
v -4.776476 55.275480 -9.099954
v -5.200449 55.236824 -8.954170
v -4.864172 55.282400 -8.658636
v -2.959573 29.184402 -3.648537
v 1.365833 29.578764 -5.135833
v -4.440199 55.321055 -8.804419
v -4.864172 55.282400 -8.658636
v -2.064894 29.113803 -8.150900
v 1.365833 29.578764 -5.135833
v -2.959573 29.184402 -3.648537
v -4.776476 55.275480 -9.099954
v -4.864172 55.282400 -8.658636
v -4.440199 55.321055 -8.804419
v 1.365833 29.578764 -5.135833
v 2.260512 29.508165 -9.638195
v -4.352504 55.314135 -9.245737
v -4.440199 55.321055 -8.804419
v -2.064894 29.113803 -8.150900
v 2.260512 29.508165 -9.638195
v 1.365833 29.578764 -5.135833
v -4.776476 55.275480 -9.099954
v -4.440199 55.321055 -8.804419
v -4.352504 55.314135 -9.245737
v 2.260512 29.508165 -9.638195
v -1.170215 29.043204 -12.653262
v -4.688781 55.268559 -9.541272
v -4.352504 55.314135 -9.245737
v -2.064894 29.113803 -8.150900
v -1.170215 29.043204 -12.653262
v 2.260512 29.508165 -9.638195
v -4.776476 55.275480 -9.099954
v -4.352504 55.314135 -9.245737
v -4.688781 55.268559 -9.541272
v -1.170215 29.043204 -12.653262
v -5.495620 28.648842 -11.165967
v -5.112753 55.229904 -9.395488
v -4.688781 55.268559 -9.541272
v -2.064894 29.113803 -8.150900
v -5.495620 28.648842 -11.165967
v -1.170215 29.043204 -12.653262
v -4.776476 55.275480 -9.099954
v -4.688781 55.268559 -9.541272
v -5.112753 55.229904 -9.395488
v 12.215720 30.898349 -26.311087
v 12.113152 30.664484 -22.481479
v 19.377553 53.173962 -22.610139
v 19.389579 53.201382 -23.059141
v 15.429592 30.161231 -24.346706
v 12.113152 30.664484 -22.481479
v 12.215720 30.898349 -26.311087
v 19.766389 53.114958 -22.828827
v 19.389579 53.201382 -23.059141
v 19.377553 53.173962 -22.610139
v 12.113152 30.664484 -22.481479
v 15.327025 29.927366 -20.517098
v 19.754364 53.087539 -22.379824
v 19.377553 53.173962 -22.610139
v 15.429592 30.161231 -24.346706
v 15.327025 29.927366 -20.517098
v 12.113152 30.664484 -22.481479
v 19.766389 53.114958 -22.828827
v 19.377553 53.173962 -22.610139
v 19.754364 53.087539 -22.379824
v 15.327025 29.927366 -20.517098
v 18.643464 29.424113 -22.382326
v 20.143200 53.028535 -22.598513
v 19.754364 53.087539 -22.379824
v 15.429592 30.161231 -24.346706
v 18.643464 29.424113 -22.382326
v 15.327025 29.927366 -20.517098
v 19.766389 53.114958 -22.828827
v 19.754364 53.087539 -22.379824
v 20.143200 53.028535 -22.598513
v 18.643464 29.424113 -22.382326
v 18.746032 29.657978 -26.211934
v 20.155226 53.055954 -23.047516
v 20.143200 53.028535 -22.598513
v 15.429592 30.161231 -24.346706
v 18.746032 29.657978 -26.211934
v 18.643464 29.424113 -22.382326
v 19.766389 53.114958 -22.828827
v 20.143200 53.028535 -22.598513
v 20.155226 53.055954 -23.047516
v 18.746032 29.657978 -26.211934
v 15.532160 30.395095 -28.176314
v 19.778415 53.142378 -23.277830
v 20.155226 53.055954 -23.047516
v 15.429592 30.161231 -24.346706
v 15.532160 30.395095 -28.176314
v 18.746032 29.657978 -26.211934
v 19.766389 53.114958 -22.828827
v 20.155226 53.055954 -23.047516
v 19.778415 53.142378 -23.277830
v 15.532160 30.395095 -28.176314
v 12.215720 30.898349 -26.311087
v 19.389579 53.201382 -23.059141
v 19.778415 53.142378 -23.277830
v 15.429592 30.161231 -24.346706
v 12.215720 30.898349 -26.311087
v 15.532160 30.395095 -28.176314
v 19.766389 53.114958 -22.828827
v 19.778415 53.142378 -23.277830
v 19.389579 53.201382 -23.059141
vt 0.500000 1.000000
vt 0.000000 0.000000
vt 1.000000 0.000000
vt 0.000000 0.000000
vt 1.000000 0.000000
vt 1.000000 1.000000
vt 0.000000 1.000000
vt 0.000000 0.000000
vt 1.000000 0.000000
vt 1.000000 1.000000
vt 0.000000 1.000000
vt 0.500000 1.000000
vt 0.000000 0.000000
vt 1.000000 0.000000
vt 0.500000 1.000000
vt 0.000000 0.000000
vt 1.000000 0.000000
vt 0.000000 0.000000
vt 1.000000 0.000000
vt 1.000000 1.000000
vt 0.000000 1.000000
vt 0.000000 0.000000
vt 1.000000 0.000000
vt 1.000000 1.000000
vt 0.000000 1.000000
vt 0.500000 1.000000
vt 0.000000 0.000000
vt 1.000000 0.000000
vt 0.500000 1.000000
vt 0.000000 0.000000
vt 1.000000 0.000000
vt 0.000000 0.000000
vt 1.000000 0.000000
vt 1.000000 1.000000
vt 0.000000 1.000000
vt 0.000000 0.000000
vt 1.000000 0.000000
vt 1.000000 1.000000
vt 0.000000 1.000000
vt 0.500000 1.000000
vt 0.000000 0.000000
vt 1.000000 0.000000
vt 0.500000 1.000000
vt 0.000000 0.000000
vt 1.000000 0.000000
vt 0.000000 0.000000
vt 1.000000 0.000000
vt 1.000000 1.000000
vt 0.000000 1.000000
vt 0.000000 0.000000
vt 1.000000 0.000000
vt 1.000000 1.000000
vt 0.000000 1.000000
vt 0.500000 1.000000
vt 0.000000 0.000000
vt 1.000000 0.000000
vt 0.500000 1.000000
vt 0.000000 0.000000
vt 1.000000 0.000000
vt 0.000000 0.000000
vt 1.000000 0.000000
vt 1.000000 1.000000
vt 0.000000 1.000000
vt 0.000000 0.000000
vt 1.000000 0.000000
vt 1.000000 1.000000
vt 0.000000 1.000000
vt 0.500000 1.000000
vt 0.000000 0.000000
vt 1.000000 0.000000
vt 0.500000 1.000000
vt 0.000000 0.000000
vt 1.000000 0.000000
vt 0.000000 0.000000
vt 1.000000 0.000000
vt 1.000000 1.000000
vt 0.000000 1.000000
vt 0.000000 0.000000
vt 1.000000 0.000000
vt 1.000000 1.000000
vt 0.000000 1.000000
vt 0.500000 1.000000
vt 0.000000 0.000000
vt 1.000000 0.000000
vt 0.500000 1.000000
vt 0.000000 0.000000
vt 1.000000 0.000000
vt 0.000000 0.000000
vt 1.000000 0.000000
vt 1.000000 1.000000
vt 0.000000 1.000000
vt 0.000000 0.000000
vt 1.000000 0.000000
vt 1.000000 1.000000
vt 0.000000 1.000000
vt 0.500000 1.000000
vt 0.000000 0.000000
vt 1.000000 0.000000
vt 0.500000 1.000000
vt 0.000000 0.000000
vt 1.000000 0.000000
vt 0.000000 0.000000
vt 1.000000 0.000000
vt 1.000000 1.000000
vt 0.000000 1.000000
vt 0.000000 0.000000
vt 1.000000 0.000000
vt 1.000000 1.000000
vt 0.000000 1.000000
vt 0.500000 1.000000
vt 0.000000 0.000000
vt 1.000000 0.000000
vt 0.500000 1.000000
vt 0.000000 0.000000
vt 1.000000 0.000000
vt 0.000000 0.000000
vt 1.000000 0.000000
vt 1.000000 1.000000
vt 0.000000 1.000000
vt 0.000000 0.000000
vt 1.000000 0.000000
vt 1.000000 1.000000
vt 0.000000 1.000000
vt 0.500000 1.000000
vt 0.000000 0.000000
vt 1.000000 0.000000
vt 0.500000 1.000000
vt 0.000000 0.000000
vt 1.000000 0.000000
vt 0.000000 0.000000
vt 1.000000 0.000000
vt 1.000000 1.000000
vt 0.000000 1.000000
vt 0.000000 0.000000
vt 1.000000 0.000000
vt 1.000000 1.000000
vt 0.000000 1.000000
vt 0.500000 1.000000
vt 0.000000 0.000000
vt 1.000000 0.000000
vt 0.000000 0.000000
vt 1.000000 0.000000
vt 1.000000 1.000000
vt 0.000000 1.000000
vt 0.500000 1.000000
vt 0.000000 0.000000
vt 1.000000 0.000000
vt 0.500000 1.000000
vt 0.000000 0.000000
vt 1.000000 0.000000
vt 0.000000 0.000000
vt 1.000000 0.000000
vt 1.000000 1.000000
vt 0.000000 1.000000
vt 0.500000 1.000000
vt 0.000000 0.000000
vt 1.000000 0.000000
vt 0.500000 1.000000
vt 0.000000 0.000000
vt 1.000000 0.000000
vt 0.000000 0.000000
vt 1.000000 0.000000
vt 1.000000 1.000000
vt 0.000000 1.000000
vt 0.500000 1.000000
vt 0.000000 0.000000
vt 1.000000 0.000000
vt 0.500000 1.000000
vt 0.000000 0.000000
vt 1.000000 0.000000
vt 0.000000 0.000000
vt 1.000000 0.000000
vt 1.000000 1.000000
vt 0.000000 1.000000
vt 0.500000 1.000000
vt 0.000000 0.000000
vt 1.000000 0.000000
vt 0.500000 1.000000
vt 0.000000 0.000000
vt 1.000000 0.000000
vt 0.000000 0.000000
vt 1.000000 0.000000
vt 1.000000 1.000000
vt 0.000000 1.000000
vt 0.500000 1.000000
vt 0.000000 0.000000
vt 1.000000 0.000000
vt 0.500000 1.000000
vt 0.000000 0.000000
vt 1.000000 0.000000
vt 0.000000 0.000000
vt 1.000000 0.000000
vt 1.000000 1.000000
vt 0.000000 1.000000
vt 0.500000 1.000000
vt 0.000000 0.000000
vt 1.000000 0.000000
vt 0.500000 1.000000
vt 0.000000 0.000000
vt 1.000000 0.000000
vt 0.000000 0.000000
vt 1.000000 0.000000
vt 1.000000 1.000000
vt 0.000000 1.000000
vt 0.500000 1.000000
vt 0.000000 0.000000
vt 1.000000 0.000000
vt 0.500000 1.000000
vt 0.000000 0.000000
vt 1.000000 0.000000
vt 0.000000 0.000000
vt 1.000000 0.000000
vt 1.000000 1.000000
vt 0.000000 1.000000
vt 0.500000 1.000000
vt 0.000000 0.000000
vt 1.000000 0.000000
vt 0.500000 1.000000
vt 0.000000 0.000000
vt 1.000000 0.000000
vt 0.000000 0.000000
vt 1.000000 0.000000
vt 1.000000 1.000000
vt 0.000000 1.000000
vt 0.500000 1.000000
vt 0.000000 0.000000
vt 1.000000 0.000000
vt 0.500000 1.000000
vt 0.000000 0.000000
vt 1.000000 0.000000
vt 0.000000 0.000000
vt 1.000000 0.000000
vt 1.000000 1.000000
vt 0.000000 1.000000
vt 0.500000 1.000000
vt 0.000000 0.000000
vt 1.000000 0.000000
vt 0.500000 1.000000
vt 0.000000 0.000000
vt 1.000000 0.000000
vt 0.000000 0.000000
vt 1.000000 0.000000
vt 1.000000 1.000000
vt 0.000000 1.000000
vt 0.500000 1.000000
vt 0.000000 0.000000
vt 1.000000 0.000000
vt 0.500000 1.000000
vt 0.000000 0.000000
vt 1.000000 0.000000
vt 0.000000 0.000000
vt 1.000000 0.000000
vt 1.000000 1.000000
vt 0.000000 1.000000
vt 0.500000 1.000000
vt 0.000000 0.000000
vt 1.000000 0.000000
vt 0.500000 1.000000
vt 0.000000 0.000000
vt 1.000000 0.000000
vt 0.000000 0.000000
vt 1.000000 0.000000
vt 1.000000 1.000000
vt 0.000000 1.000000
vt 0.500000 1.000000
vt 0.000000 0.000000
vt 1.000000 0.000000
vt 0.500000 1.000000
vt 0.000000 0.000000
vt 1.000000 0.000000
vt 0.000000 0.000000
vt 1.000000 0.000000
vt 1.000000 1.000000
vt 0.000000 1.000000
vt 0.500000 1.000000
vt 0.000000 0.000000
vt 1.000000 0.000000
vt 0.500000 1.000000
vt 0.000000 0.000000
vt 1.000000 0.000000
vt 0.000000 0.000000
vt 1.000000 0.000000
vt 1.000000 1.000000
vt 0.000000 1.000000
vt 0.500000 1.000000
vt 0.000000 0.000000
vt 1.000000 0.000000
vt 0.500000 1.000000
vt 0.000000 0.000000
vt 1.000000 0.000000
vt 0.000000 0.000000
vt 1.000000 0.000000
vt 1.000000 1.000000
vt 0.000000 1.000000
vt 0.500000 1.000000
vt 0.000000 0.000000
vt 1.000000 0.000000
vt 0.500000 1.000000
vt 0.000000 0.000000
vt 1.000000 0.000000
vt 0.000000 0.000000
vt 1.000000 0.000000
vt 1.000000 1.000000
vt 0.000000 1.000000
vt 0.500000 1.000000
vt 0.000000 0.000000
vt 1.000000 0.000000
vt 0.500000 1.000000
vt 0.000000 0.000000
vt 1.000000 0.000000
vt 0.000000 0.000000
vt 1.000000 0.000000
vt 1.000000 1.000000
vt 0.000000 1.000000
vt 0.500000 1.000000
vt 0.000000 0.000000
vt 1.000000 0.000000
vt 0.500000 1.000000
vt 0.000000 0.000000
vt 1.000000 0.000000
vt 0.000000 0.000000
vt 1.000000 0.000000
vt 1.000000 1.000000
vt 0.000000 1.000000
vt 0.500000 1.000000
vt 0.000000 0.000000
vt 1.000000 0.000000
vt 0.500000 1.000000
vt 0.000000 0.000000
vt 1.000000 0.000000
vt 0.000000 0.000000
vt 1.000000 0.000000
vt 1.000000 1.000000
vt 0.000000 1.000000
vt 0.500000 1.000000
vt 0.000000 0.000000
vt 1.000000 0.000000
vt 0.500000 1.000000
vt 0.000000 0.000000
vt 1.000000 0.000000
vt 0.000000 0.000000
vt 1.000000 0.000000
vt 1.000000 1.000000
vt 0.000000 1.000000
vt 0.500000 1.000000
vt 0.000000 0.000000
vt 1.000000 0.000000
vt 0.500000 1.000000
vt 0.000000 0.000000
vt 1.000000 0.000000
vt 0.000000 0.000000
vt 1.000000 0.000000
vt 1.000000 1.000000
vt 0.000000 1.000000
vt 0.500000 1.000000
vt 0.000000 0.000000
vt 1.000000 0.000000
vt 0.500000 1.000000
vt 0.000000 0.000000
vt 1.000000 0.000000
vt 0.000000 0.000000
vt 1.000000 0.000000
vt 1.000000 1.000000
vt 0.000000 1.000000
vt 0.500000 1.000000
vt 0.000000 0.000000
vt 1.000000 0.000000
vt 0.500000 1.000000
vt 0.000000 0.000000
vt 1.000000 0.000000
vt 0.000000 0.000000
vt 1.000000 0.000000
vt 1.000000 1.000000
vt 0.000000 1.000000
vt 0.500000 1.000000
vt 0.000000 0.000000
vt 1.000000 0.000000
vt 0.500000 1.000000
vt 0.000000 0.000000
vt 1.000000 0.000000
vt 0.000000 0.000000
vt 1.000000 0.000000
vt 1.000000 1.000000
vt 0.000000 1.000000
vt 0.500000 1.000000
vt 0.000000 0.000000
vt 1.000000 0.000000
vt 0.500000 1.000000
vt 0.000000 0.000000
vt 1.000000 0.000000
vt 0.000000 0.000000
vt 1.000000 0.000000
vt 1.000000 1.000000
vt 0.000000 1.000000
vt 0.500000 1.000000
vt 0.000000 0.000000
vt 1.000000 0.000000
vt 0.500000 1.000000
vt 0.000000 0.000000
vt 1.000000 0.000000
vt 0.000000 0.000000
vt 1.000000 0.000000
vt 1.000000 1.000000
vt 0.000000 1.000000
vt 0.500000 1.000000
vt 0.000000 0.000000
vt 1.000000 0.000000
vt 0.500000 1.000000
vt 0.000000 0.000000
vt 1.000000 0.000000
vt 0.000000 0.000000
vt 1.000000 0.000000
vt 1.000000 1.000000
vt 0.000000 1.000000
vt 0.500000 1.000000
vt 0.000000 0.000000
vt 1.000000 0.000000
vt 0.500000 1.000000
vt 0.000000 0.000000
vt 1.000000 0.000000
vt 0.000000 0.000000
vt 1.000000 0.000000
vt 1.000000 1.000000
vt 0.000000 1.000000
vt 0.500000 1.000000
vt 0.000000 0.000000
vt 1.000000 0.000000
vt 0.500000 1.000000
vt 0.000000 0.000000
vt 1.000000 0.000000
vt 0.000000 0.000000
vt 1.000000 0.000000
vt 1.000000 1.000000
vt 0.000000 1.000000
vt 0.500000 1.000000
vt 0.000000 0.000000
vt 1.000000 0.000000
vt 0.500000 1.000000
vt 0.000000 0.000000
vt 1.000000 0.000000
vt 0.000000 0.000000
vt 1.000000 0.000000
vt 1.000000 1.000000
vt 0.000000 1.000000
vt 0.500000 1.000000
vt 0.000000 0.000000
vt 1.000000 0.000000
vt 0.500000 1.000000
vt 0.000000 0.000000
vt 1.000000 0.000000
vt 0.000000 0.000000
vt 1.000000 0.000000
vt 1.000000 1.000000
vt 0.000000 1.000000
vt 0.500000 1.000000
vt 0.000000 0.000000
vt 1.000000 0.000000
vt 0.500000 1.000000
vt 0.000000 0.000000
vt 1.000000 0.000000
vt 0.000000 0.000000
vt 1.000000 0.000000
vt 1.000000 1.000000
vt 0.000000 1.000000
vt 0.500000 1.000000
vt 0.000000 0.000000
vt 1.000000 0.000000
vt 0.500000 1.000000
vt 0.000000 0.000000
vt 1.000000 0.000000
vt 0.000000 0.000000
vt 1.000000 0.000000
vt 1.000000 1.000000
vt 0.000000 1.000000
vt 0.500000 1.000000
vt 0.000000 0.000000
vt 1.000000 0.000000
vt 0.500000 1.000000
vt 0.000000 0.000000
vt 1.000000 0.000000
vt 0.000000 0.000000
vt 1.000000 0.000000
vt 1.000000 1.000000
vt 0.000000 1.000000
vt 0.500000 1.000000
vt 0.000000 0.000000
vt 1.000000 0.000000
vt 0.500000 1.000000
vt 0.000000 0.000000
vt 1.000000 0.000000
vt 0.000000 0.000000
vt 1.000000 0.000000
vt 1.000000 1.000000
vt 0.000000 1.000000
vt 0.500000 1.000000
vt 0.000000 0.000000
vt 1.000000 0.000000
vt 0.500000 1.000000
vt 0.000000 0.000000
vt 1.000000 0.000000
vt 0.000000 0.000000
vt 1.000000 0.000000
vt 1.000000 1.000000
vt 0.000000 1.000000
vt 0.500000 1.000000
vt 0.000000 0.000000
vt 1.000000 0.000000
vt 0.500000 1.000000
vt 0.000000 0.000000
vt 1.000000 0.000000
vt 0.000000 0.000000
vt 1.000000 0.000000
vt 1.000000 1.000000
vt 0.000000 1.000000
vt 0.500000 1.000000
vt 0.000000 0.000000
vt 1.000000 0.000000
vt 0.500000 1.000000
vt 0.000000 0.000000
vt 1.000000 0.000000
vt 0.000000 0.000000
vt 1.000000 0.000000
vt 1.000000 1.000000
vt 0.000000 1.000000
vt 0.500000 1.000000
vt 0.000000 0.000000
vt 1.000000 0.000000
vt 0.500000 1.000000
vt 0.000000 0.000000
vt 1.000000 0.000000
vt 0.000000 0.000000
vt 1.000000 0.000000
vt 1.000000 1.000000
vt 0.000000 1.000000
vt 0.500000 1.000000
vt 0.000000 0.000000
vt 1.000000 0.000000
vt 0.500000 1.000000
vt 0.000000 0.000000
vt 1.000000 0.000000
vt 0.000000 0.000000
vt 1.000000 0.000000
vt 1.000000 1.000000
vt 0.000000 1.000000
vt 0.500000 1.000000
vt 0.000000 0.000000
vt 1.000000 0.000000
vt 0.500000 1.000000
vt 0.000000 0.000000
vt 1.000000 0.000000
vt 0.000000 0.000000
vt 1.000000 0.000000
vt 1.000000 1.000000
vt 0.000000 1.000000
vt 0.500000 1.000000
vt 0.000000 0.000000
vt 1.000000 0.000000
vt 0.500000 1.000000
vt 0.000000 0.000000
vt 1.000000 0.000000
s 1
usemtl models/caelum/world/environment/rock_granite.png
f 1/1 2/2 3/3
f 4/4 5/5 6/6 7/7
f 8/8 9/9 10/10 11/11
f 12/12 13/13 14/14
f 15/15 16/16 17/17
f 18/18 19/19 20/20 21/21
f 22/22 23/23 24/24 25/25
f 26/26 27/27 28/28
f 29/29 30/30 31/31
f 32/32 33/33 34/34 35/35
f 36/36 37/37 38/38 39/39
f 40/40 41/41 42/42
f 43/43 44/44 45/45
f 46/46 47/47 48/48 49/49
f 50/50 51/51 52/52 53/53
f 54/54 55/55 56/56
f 57/57 58/58 59/59
f 60/60 61/61 62/62 63/63
f 64/64 65/65 66/66 67/67
f 68/68 69/69 70/70
f 71/71 72/72 73/73
f 74/74 75/75 76/76 77/77
f 78/78 79/79 80/80 81/81
f 82/82 83/83 84/84
f 85/85 86/86 87/87
f 88/88 89/89 90/90 91/91
f 92/92 93/93 94/94 95/95
f 96/96 97/97 98/98
f 99/99 100/100 101/101
f 102/102 103/103 104/104 105/105
f 106/106 107/107 108/108 109/109
f 110/110 111/111 112/112
f 113/113 114/114 115/115
f 116/116 117/117 118/118 119/119
f 120/120 121/121 122/122 123/123
f 124/124 125/125 126/126
f 127/127 128/128 129/129
f 130/130 131/131 132/132 133/133
f 134/134 135/135 136/136 137/137
f 138/138 139/139 140/140
usemtl models/caelum/world/resources/ca_vein_topaz.png
f 141/141 142/142 143/143 144/144
f 145/145 146/146 147/147
f 148/148 149/149 150/150
f 151/151 152/152 153/153 154/154
f 155/155 156/156 157/157
f 158/158 159/159 160/160
f 161/161 162/162 163/163 164/164
f 165/165 166/166 167/167
f 168/168 169/169 170/170
f 171/171 172/172 173/173 174/174
f 175/175 176/176 177/177
f 178/178 179/179 180/180
f 181/181 182/182 183/183 184/184
f 185/185 186/186 187/187
f 188/188 189/189 190/190
f 191/191 192/192 193/193 194/194
f 195/195 196/196 197/197
f 198/198 199/199 200/200
f 201/201 202/202 203/203 204/204
f 205/205 206/206 207/207
f 208/208 209/209 210/210
f 211/211 212/212 213/213 214/214
f 215/215 216/216 217/217
f 218/218 219/219 220/220
f 221/221 222/222 223/223 224/224
f 225/225 226/226 227/227
f 228/228 229/229 230/230
f 231/231 232/232 233/233 234/234
f 235/235 236/236 237/237
f 238/238 239/239 240/240
f 241/241 242/242 243/243 244/244
f 245/245 246/246 247/247
f 248/248 249/249 250/250
f 251/251 252/252 253/253 254/254
f 255/255 256/256 257/257
f 258/258 259/259 260/260
f 261/261 262/262 263/263 264/264
f 265/265 266/266 267/267
f 268/268 269/269 270/270
f 271/271 272/272 273/273 274/274
f 275/275 276/276 277/277
f 278/278 279/279 280/280
f 281/281 282/282 283/283 284/284
f 285/285 286/286 287/287
f 288/288 289/289 290/290
f 291/291 292/292 293/293 294/294
f 295/295 296/296 297/297
f 298/298 299/299 300/300
f 301/301 302/302 303/303 304/304
f 305/305 306/306 307/307
f 308/308 309/309 310/310
f 311/311 312/312 313/313 314/314
f 315/315 316/316 317/317
f 318/318 319/319 320/320
f 321/321 322/322 323/323 324/324
f 325/325 326/326 327/327
f 328/328 329/329 330/330
f 331/331 332/332 333/333 334/334
f 335/335 336/336 337/337
f 338/338 339/339 340/340
f 341/341 342/342 343/343 344/344
f 345/345 346/346 347/347
f 348/348 349/349 350/350
f 351/351 352/352 353/353 354/354
f 355/355 356/356 357/357
f 358/358 359/359 360/360
f 361/361 362/362 363/363 364/364
f 365/365 366/366 367/367
f 368/368 369/369 370/370
f 371/371 372/372 373/373 374/374
f 375/375 376/376 377/377
f 378/378 379/379 380/380
f 381/381 382/382 383/383 384/384
f 385/385 386/386 387/387
f 388/388 389/389 390/390
f 391/391 392/392 393/393 394/394
f 395/395 396/396 397/397
f 398/398 399/399 400/400
f 401/401 402/402 403/403 404/404
f 405/405 406/406 407/407
f 408/408 409/409 410/410
f 411/411 412/412 413/413 414/414
f 415/415 416/416 417/417
f 418/418 419/419 420/420
f 421/421 422/422 423/423 424/424
f 425/425 426/426 427/427
f 428/428 429/429 430/430
f 431/431 432/432 433/433 434/434
f 435/435 436/436 437/437
f 438/438 439/439 440/440
f 441/441 442/442 443/443 444/444
f 445/445 446/446 447/447
f 448/448 449/449 450/450
f 451/451 452/452 453/453 454/454
f 455/455 456/456 457/457
f 458/458 459/459 460/460
f 461/461 462/462 463/463 464/464
f 465/465 466/466 467/467
f 468/468 469/469 470/470
f 471/471 472/472 473/473 474/474
f 475/475 476/476 477/477
f 478/478 479/479 480/480
f 481/481 482/482 483/483 484/484
f 485/485 486/486 487/487
f 488/488 489/489 490/490
f 491/491 492/492 493/493 494/494
f 495/495 496/496 497/497
f 498/498 499/499 500/500
f 501/501 502/502 503/503 504/504
f 505/505 506/506 507/507
f 508/508 509/509 510/510
f 511/511 512/512 513/513 514/514
f 515/515 516/516 517/517
f 518/518 519/519 520/520
f 521/521 522/522 523/523 524/524
f 525/525 526/526 527/527
f 528/528 529/529 530/530
f 531/531 532/532 533/533 534/534
f 535/535 536/536 537/537
f 538/538 539/539 540/540
f 541/541 542/542 543/543 544/544
f 545/545 546/546 547/547
f 548/548 549/549 550/550
f 551/551 552/552 553/553 554/554
f 555/555 556/556 557/557
f 558/558 559/559 560/560
