# Modelo original generado para Caelum Argenteum.
# Ejes OBJ: X ancho, Y altura, Z profundidad.
o CaelumStashChest
v -32.000000 0.000000 18.000000
v 32.000000 0.000000 18.000000
v 32.000000 24.000000 18.000000
v -32.000000 24.000000 18.000000
v 32.000000 0.000000 -18.000000
v -32.000000 0.000000 -18.000000
v -32.000000 24.000000 -18.000000
v 32.000000 24.000000 -18.000000
v 32.000000 0.000000 18.000000
v 32.000000 0.000000 -18.000000
v 32.000000 24.000000 -18.000000
v 32.000000 24.000000 18.000000
v -32.000000 0.000000 -18.000000
v -32.000000 0.000000 18.000000
v -32.000000 24.000000 18.000000
v -32.000000 24.000000 -18.000000
v -32.000000 24.000000 18.000000
v 32.000000 24.000000 18.000000
v 32.000000 24.000000 -18.000000
v -32.000000 24.000000 -18.000000
v -32.000000 0.000000 -18.000000
v 32.000000 0.000000 -18.000000
v 32.000000 0.000000 18.000000
v -32.000000 0.000000 18.000000
v -32.000000 0.000000 19.400000
v 32.000000 0.000000 19.400000
v 32.000000 4.000000 19.400000
v -32.000000 4.000000 19.400000
v 32.000000 0.000000 18.000000
v -32.000000 0.000000 18.000000
v -32.000000 4.000000 18.000000
v 32.000000 4.000000 18.000000
v 32.000000 0.000000 19.400000
v 32.000000 0.000000 18.000000
v 32.000000 4.000000 18.000000
v 32.000000 4.000000 19.400000
v -32.000000 0.000000 18.000000
v -32.000000 0.000000 19.400000
v -32.000000 4.000000 19.400000
v -32.000000 4.000000 18.000000
v -32.000000 4.000000 19.400000
v 32.000000 4.000000 19.400000
v 32.000000 4.000000 18.000000
v -32.000000 4.000000 18.000000
v -32.000000 0.000000 18.000000
v 32.000000 0.000000 18.000000
v 32.000000 0.000000 19.400000
v -32.000000 0.000000 19.400000
v -32.000000 20.000000 19.400000
v 32.000000 20.000000 19.400000
v 32.000000 24.000000 19.400000
v -32.000000 24.000000 19.400000
v 32.000000 20.000000 18.000000
v -32.000000 20.000000 18.000000
v -32.000000 24.000000 18.000000
v 32.000000 24.000000 18.000000
v 32.000000 20.000000 19.400000
v 32.000000 20.000000 18.000000
v 32.000000 24.000000 18.000000
v 32.000000 24.000000 19.400000
v -32.000000 20.000000 18.000000
v -32.000000 20.000000 19.400000
v -32.000000 24.000000 19.400000
v -32.000000 24.000000 18.000000
v -32.000000 24.000000 19.400000
v 32.000000 24.000000 19.400000
v 32.000000 24.000000 18.000000
v -32.000000 24.000000 18.000000
v -32.000000 20.000000 18.000000
v 32.000000 20.000000 18.000000
v 32.000000 20.000000 19.400000
v -32.000000 20.000000 19.400000
v -31.000000 0.000000 19.600000
v -28.000000 0.000000 19.600000
v -28.000000 24.000000 19.600000
v -31.000000 24.000000 19.600000
v -28.000000 0.000000 18.000000
v -31.000000 0.000000 18.000000
v -31.000000 24.000000 18.000000
v -28.000000 24.000000 18.000000
v -28.000000 0.000000 19.600000
v -28.000000 0.000000 18.000000
v -28.000000 24.000000 18.000000
v -28.000000 24.000000 19.600000
v -31.000000 0.000000 18.000000
v -31.000000 0.000000 19.600000
v -31.000000 24.000000 19.600000
v -31.000000 24.000000 18.000000
v -31.000000 24.000000 19.600000
v -28.000000 24.000000 19.600000
v -28.000000 24.000000 18.000000
v -31.000000 24.000000 18.000000
v -31.000000 0.000000 18.000000
v -28.000000 0.000000 18.000000
v -28.000000 0.000000 19.600000
v -31.000000 0.000000 19.600000
v 28.000000 0.000000 19.600000
v 31.000000 0.000000 19.600000
v 31.000000 24.000000 19.600000
v 28.000000 24.000000 19.600000
v 31.000000 0.000000 18.000000
v 28.000000 0.000000 18.000000
v 28.000000 24.000000 18.000000
v 31.000000 24.000000 18.000000
v 31.000000 0.000000 19.600000
v 31.000000 0.000000 18.000000
v 31.000000 24.000000 18.000000
v 31.000000 24.000000 19.600000
v 28.000000 0.000000 18.000000
v 28.000000 0.000000 19.600000
v 28.000000 24.000000 19.600000
v 28.000000 24.000000 18.000000
v 28.000000 24.000000 19.600000
v 31.000000 24.000000 19.600000
v 31.000000 24.000000 18.000000
v 28.000000 24.000000 18.000000
v 28.000000 0.000000 18.000000
v 31.000000 0.000000 18.000000
v 31.000000 0.000000 19.600000
v 28.000000 0.000000 19.600000
v -32.000000 20.000000 -18.000000
v 32.000000 20.000000 -18.000000
v 32.000000 24.000000 -18.000000
v -32.000000 24.000000 -18.000000
v 32.000000 20.000000 -19.400000
v -32.000000 20.000000 -19.400000
v -32.000000 24.000000 -19.400000
v 32.000000 24.000000 -19.400000
v 32.000000 20.000000 -18.000000
v 32.000000 20.000000 -19.400000
v 32.000000 24.000000 -19.400000
v 32.000000 24.000000 -18.000000
v -32.000000 20.000000 -19.400000
v -32.000000 20.000000 -18.000000
v -32.000000 24.000000 -18.000000
v -32.000000 24.000000 -19.400000
v -32.000000 24.000000 -18.000000
v 32.000000 24.000000 -18.000000
v 32.000000 24.000000 -19.400000
v -32.000000 24.000000 -19.400000
v -32.000000 20.000000 -19.400000
v 32.000000 20.000000 -19.400000
v 32.000000 20.000000 -18.000000
v -32.000000 20.000000 -18.000000
v -21.500000 5.000000 19.250000
v 21.500000 5.000000 19.250000
v 21.500000 19.000000 19.250000
v -21.500000 19.000000 19.250000
v 21.500000 5.000000 18.050000
v -21.500000 5.000000 18.050000
v -21.500000 19.000000 18.050000
v 21.500000 19.000000 18.050000
v 21.500000 5.000000 19.250000
v 21.500000 5.000000 18.050000
v 21.500000 19.000000 18.050000
v 21.500000 19.000000 19.250000
v -21.500000 5.000000 18.050000
v -21.500000 5.000000 19.250000
v -21.500000 19.000000 19.250000
v -21.500000 19.000000 18.050000
v -21.500000 19.000000 19.250000
v 21.500000 19.000000 19.250000
v 21.500000 19.000000 18.050000
v -21.500000 19.000000 18.050000
v -21.500000 5.000000 18.050000
v 21.500000 5.000000 18.050000
v 21.500000 5.000000 19.250000
v -21.500000 5.000000 19.250000
v -27.000000 23.800000 13.500000
v 27.000000 23.800000 13.500000
v 27.000000 24.500000 13.500000
v -27.000000 24.500000 13.500000
v 27.000000 23.800000 -13.500000
v -27.000000 23.800000 -13.500000
v -27.000000 24.500000 -13.500000
v 27.000000 24.500000 -13.500000
v 27.000000 23.800000 13.500000
v 27.000000 23.800000 -13.500000
v 27.000000 24.500000 -13.500000
v 27.000000 24.500000 13.500000
v -27.000000 23.800000 -13.500000
v -27.000000 23.800000 13.500000
v -27.000000 24.500000 13.500000
v -27.000000 24.500000 -13.500000
v -27.000000 24.500000 13.500000
v 27.000000 24.500000 13.500000
v 27.000000 24.500000 -13.500000
v -27.000000 24.500000 -13.500000
v -27.000000 23.800000 -13.500000
v 27.000000 23.800000 -13.500000
v 27.000000 23.800000 13.500000
v -27.000000 23.800000 13.500000
v -22.000000 0.000000 19.950000
v -18.000000 0.000000 19.950000
v -18.000000 24.000000 19.950000
v -22.000000 24.000000 19.950000
v -18.000000 0.000000 17.950000
v -22.000000 0.000000 17.950000
v -22.000000 24.000000 17.950000
v -18.000000 24.000000 17.950000
v -18.000000 0.000000 19.950000
v -18.000000 0.000000 17.950000
v -18.000000 24.000000 17.950000
v -18.000000 24.000000 19.950000
v -22.000000 0.000000 17.950000
v -22.000000 0.000000 19.950000
v -22.000000 24.000000 19.950000
v -22.000000 24.000000 17.950000
v -22.000000 24.000000 19.950000
v -18.000000 24.000000 19.950000
v -18.000000 24.000000 17.950000
v -22.000000 24.000000 17.950000
v -22.000000 0.000000 17.950000
v -18.000000 0.000000 17.950000
v -18.000000 0.000000 19.950000
v -22.000000 0.000000 19.950000
v -25.000000 22.000000 -17.700000
v -15.000000 22.000000 -17.700000
v -15.000000 26.000000 -17.700000
v -25.000000 26.000000 -17.700000
v -15.000000 22.000000 -19.700000
v -25.000000 22.000000 -19.700000
v -25.000000 26.000000 -19.700000
v -15.000000 26.000000 -19.700000
v -15.000000 22.000000 -17.700000
v -15.000000 22.000000 -19.700000
v -15.000000 26.000000 -19.700000
v -15.000000 26.000000 -17.700000
v -25.000000 22.000000 -19.700000
v -25.000000 22.000000 -17.700000
v -25.000000 26.000000 -17.700000
v -25.000000 26.000000 -19.700000
v -25.000000 26.000000 -17.700000
v -15.000000 26.000000 -17.700000
v -15.000000 26.000000 -19.700000
v -25.000000 26.000000 -19.700000
v -25.000000 22.000000 -19.700000
v -15.000000 22.000000 -19.700000
v -15.000000 22.000000 -17.700000
v -25.000000 22.000000 -17.700000
v 18.000000 0.000000 19.950000
v 22.000000 0.000000 19.950000
v 22.000000 24.000000 19.950000
v 18.000000 24.000000 19.950000
v 22.000000 0.000000 17.950000
v 18.000000 0.000000 17.950000
v 18.000000 24.000000 17.950000
v 22.000000 24.000000 17.950000
v 22.000000 0.000000 19.950000
v 22.000000 0.000000 17.950000
v 22.000000 24.000000 17.950000
v 22.000000 24.000000 19.950000
v 18.000000 0.000000 17.950000
v 18.000000 0.000000 19.950000
v 18.000000 24.000000 19.950000
v 18.000000 24.000000 17.950000
v 18.000000 24.000000 19.950000
v 22.000000 24.000000 19.950000
v 22.000000 24.000000 17.950000
v 18.000000 24.000000 17.950000
v 18.000000 0.000000 17.950000
v 22.000000 0.000000 17.950000
v 22.000000 0.000000 19.950000
v 18.000000 0.000000 19.950000
v 15.000000 22.000000 -17.700000
v 25.000000 22.000000 -17.700000
v 25.000000 26.000000 -17.700000
v 15.000000 26.000000 -17.700000
v 25.000000 22.000000 -19.700000
v 15.000000 22.000000 -19.700000
v 15.000000 26.000000 -19.700000
v 25.000000 26.000000 -19.700000
v 25.000000 22.000000 -17.700000
v 25.000000 22.000000 -19.700000
v 25.000000 26.000000 -19.700000
v 25.000000 26.000000 -17.700000
v 15.000000 22.000000 -19.700000
v 15.000000 22.000000 -17.700000
v 15.000000 26.000000 -17.700000
v 15.000000 26.000000 -19.700000
v 15.000000 26.000000 -17.700000
v 25.000000 26.000000 -17.700000
v 25.000000 26.000000 -19.700000
v 15.000000 26.000000 -19.700000
v 15.000000 22.000000 -19.700000
v 25.000000 22.000000 -19.700000
v 25.000000 22.000000 -17.700000
v 15.000000 22.000000 -17.700000
v -27.000000 3.500000 20.900000
v -27.292893 4.207107 20.900000
v -27.292893 4.207107 19.100000
v -27.000000 3.500000 19.100000
v -28.000000 3.500000 20.900000
v -27.292893 4.207107 20.900000
v -27.000000 3.500000 20.900000
v -28.000000 3.500000 19.100000
v -27.000000 3.500000 19.100000
v -27.292893 4.207107 19.100000
v -27.292893 4.207107 20.900000
v -28.000000 4.500000 20.900000
v -28.000000 4.500000 19.100000
v -27.292893 4.207107 19.100000
v -28.000000 3.500000 20.900000
v -28.000000 4.500000 20.900000
v -27.292893 4.207107 20.900000
v -28.000000 3.500000 19.100000
v -27.292893 4.207107 19.100000
v -28.000000 4.500000 19.100000
v -28.000000 4.500000 20.900000
v -28.707107 4.207107 20.900000
v -28.707107 4.207107 19.100000
v -28.000000 4.500000 19.100000
v -28.000000 3.500000 20.900000
v -28.707107 4.207107 20.900000
v -28.000000 4.500000 20.900000
v -28.000000 3.500000 19.100000
v -28.000000 4.500000 19.100000
v -28.707107 4.207107 19.100000
v -28.707107 4.207107 20.900000
v -29.000000 3.500000 20.900000
v -29.000000 3.500000 19.100000
v -28.707107 4.207107 19.100000
v -28.000000 3.500000 20.900000
v -29.000000 3.500000 20.900000
v -28.707107 4.207107 20.900000
v -28.000000 3.500000 19.100000
v -28.707107 4.207107 19.100000
v -29.000000 3.500000 19.100000
v -29.000000 3.500000 20.900000
v -28.707107 2.792893 20.900000
v -28.707107 2.792893 19.100000
v -29.000000 3.500000 19.100000
v -28.000000 3.500000 20.900000
v -28.707107 2.792893 20.900000
v -29.000000 3.500000 20.900000
v -28.000000 3.500000 19.100000
v -29.000000 3.500000 19.100000
v -28.707107 2.792893 19.100000
v -28.707107 2.792893 20.900000
v -28.000000 2.500000 20.900000
v -28.000000 2.500000 19.100000
v -28.707107 2.792893 19.100000
v -28.000000 3.500000 20.900000
v -28.000000 2.500000 20.900000
v -28.707107 2.792893 20.900000
v -28.000000 3.500000 19.100000
v -28.707107 2.792893 19.100000
v -28.000000 2.500000 19.100000
v -28.000000 2.500000 20.900000
v -27.292893 2.792893 20.900000
v -27.292893 2.792893 19.100000
v -28.000000 2.500000 19.100000
v -28.000000 3.500000 20.900000
v -27.292893 2.792893 20.900000
v -28.000000 2.500000 20.900000
v -28.000000 3.500000 19.100000
v -28.000000 2.500000 19.100000
v -27.292893 2.792893 19.100000
v -27.292893 2.792893 20.900000
v -27.000000 3.500000 20.900000
v -27.000000 3.500000 19.100000
v -27.292893 2.792893 19.100000
v -28.000000 3.500000 20.900000
v -27.000000 3.500000 20.900000
v -27.292893 2.792893 20.900000
v -28.000000 3.500000 19.100000
v -27.292893 2.792893 19.100000
v -27.000000 3.500000 19.100000
v -27.000000 20.500000 20.900000
v -27.292893 21.207107 20.900000
v -27.292893 21.207107 19.100000
v -27.000000 20.500000 19.100000
v -28.000000 20.500000 20.900000
v -27.292893 21.207107 20.900000
v -27.000000 20.500000 20.900000
v -28.000000 20.500000 19.100000
v -27.000000 20.500000 19.100000
v -27.292893 21.207107 19.100000
v -27.292893 21.207107 20.900000
v -28.000000 21.500000 20.900000
v -28.000000 21.500000 19.100000
v -27.292893 21.207107 19.100000
v -28.000000 20.500000 20.900000
v -28.000000 21.500000 20.900000
v -27.292893 21.207107 20.900000
v -28.000000 20.500000 19.100000
v -27.292893 21.207107 19.100000
v -28.000000 21.500000 19.100000
v -28.000000 21.500000 20.900000
v -28.707107 21.207107 20.900000
v -28.707107 21.207107 19.100000
v -28.000000 21.500000 19.100000
v -28.000000 20.500000 20.900000
v -28.707107 21.207107 20.900000
v -28.000000 21.500000 20.900000
v -28.000000 20.500000 19.100000
v -28.000000 21.500000 19.100000
v -28.707107 21.207107 19.100000
v -28.707107 21.207107 20.900000
v -29.000000 20.500000 20.900000
v -29.000000 20.500000 19.100000
v -28.707107 21.207107 19.100000
v -28.000000 20.500000 20.900000
v -29.000000 20.500000 20.900000
v -28.707107 21.207107 20.900000
v -28.000000 20.500000 19.100000
v -28.707107 21.207107 19.100000
v -29.000000 20.500000 19.100000
v -29.000000 20.500000 20.900000
v -28.707107 19.792893 20.900000
v -28.707107 19.792893 19.100000
v -29.000000 20.500000 19.100000
v -28.000000 20.500000 20.900000
v -28.707107 19.792893 20.900000
v -29.000000 20.500000 20.900000
v -28.000000 20.500000 19.100000
v -29.000000 20.500000 19.100000
v -28.707107 19.792893 19.100000
v -28.707107 19.792893 20.900000
v -28.000000 19.500000 20.900000
v -28.000000 19.500000 19.100000
v -28.707107 19.792893 19.100000
v -28.000000 20.500000 20.900000
v -28.000000 19.500000 20.900000
v -28.707107 19.792893 20.900000
v -28.000000 20.500000 19.100000
v -28.707107 19.792893 19.100000
v -28.000000 19.500000 19.100000
v -28.000000 19.500000 20.900000
v -27.292893 19.792893 20.900000
v -27.292893 19.792893 19.100000
v -28.000000 19.500000 19.100000
v -28.000000 20.500000 20.900000
v -27.292893 19.792893 20.900000
v -28.000000 19.500000 20.900000
v -28.000000 20.500000 19.100000
v -28.000000 19.500000 19.100000
v -27.292893 19.792893 19.100000
v -27.292893 19.792893 20.900000
v -27.000000 20.500000 20.900000
v -27.000000 20.500000 19.100000
v -27.292893 19.792893 19.100000
v -28.000000 20.500000 20.900000
v -27.000000 20.500000 20.900000
v -27.292893 19.792893 20.900000
v -28.000000 20.500000 19.100000
v -27.292893 19.792893 19.100000
v -27.000000 20.500000 19.100000
v 29.000000 3.500000 20.900000
v 28.707107 4.207107 20.900000
v 28.707107 4.207107 19.100000
v 29.000000 3.500000 19.100000
v 28.000000 3.500000 20.900000
v 28.707107 4.207107 20.900000
v 29.000000 3.500000 20.900000
v 28.000000 3.500000 19.100000
v 29.000000 3.500000 19.100000
v 28.707107 4.207107 19.100000
v 28.707107 4.207107 20.900000
v 28.000000 4.500000 20.900000
v 28.000000 4.500000 19.100000
v 28.707107 4.207107 19.100000
v 28.000000 3.500000 20.900000
v 28.000000 4.500000 20.900000
v 28.707107 4.207107 20.900000
v 28.000000 3.500000 19.100000
v 28.707107 4.207107 19.100000
v 28.000000 4.500000 19.100000
v 28.000000 4.500000 20.900000
v 27.292893 4.207107 20.900000
v 27.292893 4.207107 19.100000
v 28.000000 4.500000 19.100000
v 28.000000 3.500000 20.900000
v 27.292893 4.207107 20.900000
v 28.000000 4.500000 20.900000
v 28.000000 3.500000 19.100000
v 28.000000 4.500000 19.100000
v 27.292893 4.207107 19.100000
v 27.292893 4.207107 20.900000
v 27.000000 3.500000 20.900000
v 27.000000 3.500000 19.100000
v 27.292893 4.207107 19.100000
v 28.000000 3.500000 20.900000
v 27.000000 3.500000 20.900000
v 27.292893 4.207107 20.900000
v 28.000000 3.500000 19.100000
v 27.292893 4.207107 19.100000
v 27.000000 3.500000 19.100000
v 27.000000 3.500000 20.900000
v 27.292893 2.792893 20.900000
v 27.292893 2.792893 19.100000
v 27.000000 3.500000 19.100000
v 28.000000 3.500000 20.900000
v 27.292893 2.792893 20.900000
v 27.000000 3.500000 20.900000
v 28.000000 3.500000 19.100000
v 27.000000 3.500000 19.100000
v 27.292893 2.792893 19.100000
v 27.292893 2.792893 20.900000
v 28.000000 2.500000 20.900000
v 28.000000 2.500000 19.100000
v 27.292893 2.792893 19.100000
v 28.000000 3.500000 20.900000
v 28.000000 2.500000 20.900000
v 27.292893 2.792893 20.900000
v 28.000000 3.500000 19.100000
v 27.292893 2.792893 19.100000
v 28.000000 2.500000 19.100000
v 28.000000 2.500000 20.900000
v 28.707107 2.792893 20.900000
v 28.707107 2.792893 19.100000
v 28.000000 2.500000 19.100000
v 28.000000 3.500000 20.900000
v 28.707107 2.792893 20.900000
v 28.000000 2.500000 20.900000
v 28.000000 3.500000 19.100000
v 28.000000 2.500000 19.100000
v 28.707107 2.792893 19.100000
v 28.707107 2.792893 20.900000
v 29.000000 3.500000 20.900000
v 29.000000 3.500000 19.100000
v 28.707107 2.792893 19.100000
v 28.000000 3.500000 20.900000
v 29.000000 3.500000 20.900000
v 28.707107 2.792893 20.900000
v 28.000000 3.500000 19.100000
v 28.707107 2.792893 19.100000
v 29.000000 3.500000 19.100000
v 29.000000 20.500000 20.900000
v 28.707107 21.207107 20.900000
v 28.707107 21.207107 19.100000
v 29.000000 20.500000 19.100000
v 28.000000 20.500000 20.900000
v 28.707107 21.207107 20.900000
v 29.000000 20.500000 20.900000
v 28.000000 20.500000 19.100000
v 29.000000 20.500000 19.100000
v 28.707107 21.207107 19.100000
v 28.707107 21.207107 20.900000
v 28.000000 21.500000 20.900000
v 28.000000 21.500000 19.100000
v 28.707107 21.207107 19.100000
v 28.000000 20.500000 20.900000
v 28.000000 21.500000 20.900000
v 28.707107 21.207107 20.900000
v 28.000000 20.500000 19.100000
v 28.707107 21.207107 19.100000
v 28.000000 21.500000 19.100000
v 28.000000 21.500000 20.900000
v 27.292893 21.207107 20.900000
v 27.292893 21.207107 19.100000
v 28.000000 21.500000 19.100000
v 28.000000 20.500000 20.900000
v 27.292893 21.207107 20.900000
v 28.000000 21.500000 20.900000
v 28.000000 20.500000 19.100000
v 28.000000 21.500000 19.100000
v 27.292893 21.207107 19.100000
v 27.292893 21.207107 20.900000
v 27.000000 20.500000 20.900000
v 27.000000 20.500000 19.100000
v 27.292893 21.207107 19.100000
v 28.000000 20.500000 20.900000
v 27.000000 20.500000 20.900000
v 27.292893 21.207107 20.900000
v 28.000000 20.500000 19.100000
v 27.292893 21.207107 19.100000
v 27.000000 20.500000 19.100000
v 27.000000 20.500000 20.900000
v 27.292893 19.792893 20.900000
v 27.292893 19.792893 19.100000
v 27.000000 20.500000 19.100000
v 28.000000 20.500000 20.900000
v 27.292893 19.792893 20.900000
v 27.000000 20.500000 20.900000
v 28.000000 20.500000 19.100000
v 27.000000 20.500000 19.100000
v 27.292893 19.792893 19.100000
v 27.292893 19.792893 20.900000
v 28.000000 19.500000 20.900000
v 28.000000 19.500000 19.100000
v 27.292893 19.792893 19.100000
v 28.000000 20.500000 20.900000
v 28.000000 19.500000 20.900000
v 27.292893 19.792893 20.900000
v 28.000000 20.500000 19.100000
v 27.292893 19.792893 19.100000
v 28.000000 19.500000 19.100000
v 28.000000 19.500000 20.900000
v 28.707107 19.792893 20.900000
v 28.707107 19.792893 19.100000
v 28.000000 19.500000 19.100000
v 28.000000 20.500000 20.900000
v 28.707107 19.792893 20.900000
v 28.000000 19.500000 20.900000
v 28.000000 20.500000 19.100000
v 28.000000 19.500000 19.100000
v 28.707107 19.792893 19.100000
v 28.707107 19.792893 20.900000
v 29.000000 20.500000 20.900000
v 29.000000 20.500000 19.100000
v 28.707107 19.792893 19.100000
v 28.000000 20.500000 20.900000
v 29.000000 20.500000 20.900000
v 28.707107 19.792893 20.900000
v 28.000000 20.500000 19.100000
v 28.707107 19.792893 19.100000
v 29.000000 20.500000 19.100000
v -32.000000 58.773330 -27.317486
v 32.000000 58.773330 -27.317486
v 32.000000 56.482735 -32.462245
v -32.000000 56.482735 -32.462245
v -32.000000 41.386665 -22.658743
v -32.000000 58.773330 -27.317486
v -32.000000 56.482735 -32.462245
v 32.000000 41.386665 -22.658743
v 32.000000 56.482735 -32.462245
v 32.000000 58.773330 -27.317486
v -32.000000 56.482735 -32.462245
v 32.000000 56.482735 -32.462245
v 32.000000 52.714432 -36.647370
v -32.000000 52.714432 -36.647370
v -32.000000 41.386665 -22.658743
v -32.000000 56.482735 -32.462245
v -32.000000 52.714432 -36.647370
v 32.000000 41.386665 -22.658743
v 32.000000 52.714432 -36.647370
v 32.000000 56.482735 -32.462245
v -32.000000 52.714432 -36.647370
v 32.000000 52.714432 -36.647370
v 32.000000 47.837288 -39.463190
v -32.000000 47.837288 -39.463190
v -32.000000 41.386665 -22.658743
v -32.000000 52.714432 -36.647370
v -32.000000 47.837288 -39.463190
v 32.000000 41.386665 -22.658743
v 32.000000 47.837288 -39.463190
v 32.000000 52.714432 -36.647370
v -32.000000 47.837288 -39.463190
v 32.000000 47.837288 -39.463190
v 32.000000 42.328712 -40.634074
v -32.000000 42.328712 -40.634074
v -32.000000 41.386665 -22.658743
v -32.000000 47.837288 -39.463190
v -32.000000 42.328712 -40.634074
v 32.000000 41.386665 -22.658743
v 32.000000 42.328712 -40.634074
v 32.000000 47.837288 -39.463190
v -32.000000 42.328712 -40.634074
v 32.000000 42.328712 -40.634074
v 32.000000 36.727922 -40.045408
v -32.000000 36.727922 -40.045408
v -32.000000 41.386665 -22.658743
v -32.000000 42.328712 -40.634074
v -32.000000 36.727922 -40.045408
v 32.000000 41.386665 -22.658743
v 32.000000 36.727922 -40.045408
v 32.000000 42.328712 -40.634074
v -32.000000 36.727922 -40.045408
v 32.000000 36.727922 -40.045408
v 32.000000 31.583162 -37.754813
v -32.000000 31.583162 -37.754813
v -32.000000 41.386665 -22.658743
v -32.000000 36.727922 -40.045408
v -32.000000 31.583162 -37.754813
v 32.000000 41.386665 -22.658743
v 32.000000 31.583162 -37.754813
v 32.000000 36.727922 -40.045408
v -32.000000 31.583162 -37.754813
v 32.000000 31.583162 -37.754813
v 32.000000 27.398038 -33.986510
v -32.000000 27.398038 -33.986510
v -32.000000 41.386665 -22.658743
v -32.000000 31.583162 -37.754813
v -32.000000 27.398038 -33.986510
v 32.000000 41.386665 -22.658743
v 32.000000 27.398038 -33.986510
v 32.000000 31.583162 -37.754813
v -32.000000 27.398038 -33.986510
v 32.000000 27.398038 -33.986510
v 32.000000 24.582217 -29.109366
v -32.000000 24.582217 -29.109366
v -32.000000 41.386665 -22.658743
v -32.000000 27.398038 -33.986510
v -32.000000 24.582217 -29.109366
v 32.000000 41.386665 -22.658743
v 32.000000 24.582217 -29.109366
v 32.000000 27.398038 -33.986510
v -32.000000 24.582217 -29.109366
v 32.000000 24.582217 -29.109366
v 32.000000 23.411333 -23.600790
v -32.000000 23.411333 -23.600790
v -32.000000 41.386665 -22.658743
v -32.000000 24.582217 -29.109366
v -32.000000 23.411333 -23.600790
v 32.000000 41.386665 -22.658743
v 32.000000 23.411333 -23.600790
v 32.000000 24.582217 -29.109366
v -32.000000 23.411333 -23.600790
v 32.000000 23.411333 -23.600790
v 32.000000 24.000000 -18.000000
v -32.000000 24.000000 -18.000000
v -32.000000 41.386665 -22.658743
v -32.000000 23.411333 -23.600790
v -32.000000 24.000000 -18.000000
v 32.000000 41.386665 -22.658743
v 32.000000 24.000000 -18.000000
v 32.000000 23.411333 -23.600790
v -22.000000 59.304589 -27.459836
v -18.000000 59.304589 -27.459836
v -18.000000 56.944004 -32.761797
v -22.000000 56.944004 -32.761797
v -22.000000 56.944004 -32.761797
v -18.000000 56.944004 -32.761797
v -18.000000 53.060558 -37.074800
v -22.000000 53.060558 -37.074800
v -22.000000 53.060558 -37.074800
v -18.000000 53.060558 -37.074800
v -18.000000 48.034390 -39.976660
v -22.000000 48.034390 -39.976660
v -22.000000 48.034390 -39.976660
v -18.000000 48.034390 -39.976660
v -18.000000 42.357497 -41.183321
v -22.000000 42.357497 -41.183321
v -22.000000 42.357497 -41.183321
v -18.000000 42.357497 -41.183321
v -18.000000 36.585572 -40.576667
v -22.000000 36.585572 -40.576667
v -22.000000 36.585572 -40.576667
v -18.000000 36.585572 -40.576667
v -18.000000 31.283611 -38.216082
v -22.000000 31.283611 -38.216082
v -22.000000 31.283611 -38.216082
v -18.000000 31.283611 -38.216082
v -18.000000 26.970607 -34.332636
v -22.000000 26.970607 -34.332636
v -22.000000 26.970607 -34.332636
v -18.000000 26.970607 -34.332636
v -18.000000 24.068748 -29.306468
v -22.000000 24.068748 -29.306468
v -22.000000 24.068748 -29.306468
v -18.000000 24.068748 -29.306468
v -18.000000 22.862087 -23.629575
v -22.000000 22.862087 -23.629575
v -22.000000 22.862087 -23.629575
v -18.000000 22.862087 -23.629575
v -18.000000 23.468741 -17.857650
v -22.000000 23.468741 -17.857650
v 18.000000 59.304589 -27.459836
v 22.000000 59.304589 -27.459836
v 22.000000 56.944004 -32.761797
v 18.000000 56.944004 -32.761797
v 18.000000 56.944004 -32.761797
v 22.000000 56.944004 -32.761797
v 22.000000 53.060558 -37.074800
v 18.000000 53.060558 -37.074800
v 18.000000 53.060558 -37.074800
v 22.000000 53.060558 -37.074800
v 22.000000 48.034390 -39.976660
v 18.000000 48.034390 -39.976660
v 18.000000 48.034390 -39.976660
v 22.000000 48.034390 -39.976660
v 22.000000 42.357497 -41.183321
v 18.000000 42.357497 -41.183321
v 18.000000 42.357497 -41.183321
v 22.000000 42.357497 -41.183321
v 22.000000 36.585572 -40.576667
v 18.000000 36.585572 -40.576667
v 18.000000 36.585572 -40.576667
v 22.000000 36.585572 -40.576667
v 22.000000 31.283611 -38.216082
v 18.000000 31.283611 -38.216082
v 18.000000 31.283611 -38.216082
v 22.000000 31.283611 -38.216082
v 22.000000 26.970607 -34.332636
v 18.000000 26.970607 -34.332636
v 18.000000 26.970607 -34.332636
v 22.000000 26.970607 -34.332636
v 22.000000 24.068748 -29.306468
v 18.000000 24.068748 -29.306468
v 18.000000 24.068748 -29.306468
v 22.000000 24.068748 -29.306468
v 22.000000 22.862087 -23.629575
v 18.000000 22.862087 -23.629575
v 18.000000 22.862087 -23.629575
v 22.000000 22.862087 -23.629575
v 22.000000 23.468741 -17.857650
v 18.000000 23.468741 -17.857650
v -28.000000 55.875552 -26.541028
v 28.000000 55.875552 -26.541028
v 28.000000 55.668497 -27.313769
v -28.000000 55.668497 -27.313769
v 28.000000 26.897777 -18.776457
v -28.000000 26.897777 -18.776457
v -28.000000 26.690722 -19.549198
v 28.000000 26.690722 -19.549198
v 28.000000 55.875552 -26.541028
v 28.000000 26.897777 -18.776457
v 28.000000 26.690722 -19.549198
v 28.000000 55.668497 -27.313769
v -28.000000 26.897777 -18.776457
v -28.000000 55.875552 -26.541028
v -28.000000 55.668497 -27.313769
v -28.000000 26.690722 -19.549198
v -28.000000 55.668497 -27.313769
v 28.000000 55.668497 -27.313769
v 28.000000 26.690722 -19.549198
v -28.000000 26.690722 -19.549198
v -28.000000 26.897777 -18.776457
v 28.000000 26.897777 -18.776457
v 28.000000 55.875552 -26.541028
v -28.000000 55.875552 -26.541028
v -5.000000 9.000000 20.800000
v 5.000000 9.000000 20.800000
v 5.000000 21.000000 20.800000
v -5.000000 21.000000 20.800000
v 5.000000 9.000000 18.000000
v -5.000000 9.000000 18.000000
v -5.000000 21.000000 18.000000
v 5.000000 21.000000 18.000000
v 5.000000 9.000000 20.800000
v 5.000000 9.000000 18.000000
v 5.000000 21.000000 18.000000
v 5.000000 21.000000 20.800000
v -5.000000 9.000000 18.000000
v -5.000000 9.000000 20.800000
v -5.000000 21.000000 20.800000
v -5.000000 21.000000 18.000000
v -5.000000 21.000000 20.800000
v 5.000000 21.000000 20.800000
v 5.000000 21.000000 18.000000
v -5.000000 21.000000 18.000000
v -5.000000 9.000000 18.000000
v 5.000000 9.000000 18.000000
v 5.000000 9.000000 20.800000
v -5.000000 9.000000 20.800000
v 1.100000 15.000000 21.700000
v 0.777817 15.777817 21.700000
v 0.777817 15.777817 20.300000
v 1.100000 15.000000 20.300000
v 0.000000 15.000000 21.700000
v 0.777817 15.777817 21.700000
v 1.100000 15.000000 21.700000
v 0.000000 15.000000 20.300000
v 1.100000 15.000000 20.300000
v 0.777817 15.777817 20.300000
v 0.777817 15.777817 21.700000
v 0.000000 16.100000 21.700000
v 0.000000 16.100000 20.300000
v 0.777817 15.777817 20.300000
v 0.000000 15.000000 21.700000
v 0.000000 16.100000 21.700000
v 0.777817 15.777817 21.700000
v 0.000000 15.000000 20.300000
v 0.777817 15.777817 20.300000
v 0.000000 16.100000 20.300000
v 0.000000 16.100000 21.700000
v -0.777817 15.777817 21.700000
v -0.777817 15.777817 20.300000
v 0.000000 16.100000 20.300000
v 0.000000 15.000000 21.700000
v -0.777817 15.777817 21.700000
v 0.000000 16.100000 21.700000
v 0.000000 15.000000 20.300000
v 0.000000 16.100000 20.300000
v -0.777817 15.777817 20.300000
v -0.777817 15.777817 21.700000
v -1.100000 15.000000 21.700000
v -1.100000 15.000000 20.300000
v -0.777817 15.777817 20.300000
v 0.000000 15.000000 21.700000
v -1.100000 15.000000 21.700000
v -0.777817 15.777817 21.700000
v 0.000000 15.000000 20.300000
v -0.777817 15.777817 20.300000
v -1.100000 15.000000 20.300000
v -1.100000 15.000000 21.700000
v -0.777817 14.222183 21.700000
v -0.777817 14.222183 20.300000
v -1.100000 15.000000 20.300000
v 0.000000 15.000000 21.700000
v -0.777817 14.222183 21.700000
v -1.100000 15.000000 21.700000
v 0.000000 15.000000 20.300000
v -1.100000 15.000000 20.300000
v -0.777817 14.222183 20.300000
v -0.777817 14.222183 21.700000
v -0.000000 13.900000 21.700000
v -0.000000 13.900000 20.300000
v -0.777817 14.222183 20.300000
v 0.000000 15.000000 21.700000
v -0.000000 13.900000 21.700000
v -0.777817 14.222183 21.700000
v 0.000000 15.000000 20.300000
v -0.777817 14.222183 20.300000
v -0.000000 13.900000 20.300000
v -0.000000 13.900000 21.700000
v 0.777817 14.222183 21.700000
v 0.777817 14.222183 20.300000
v -0.000000 13.900000 20.300000
v 0.000000 15.000000 21.700000
v 0.777817 14.222183 21.700000
v -0.000000 13.900000 21.700000
v 0.000000 15.000000 20.300000
v -0.000000 13.900000 20.300000
v 0.777817 14.222183 20.300000
v 0.777817 14.222183 21.700000
v 1.100000 15.000000 21.700000
v 1.100000 15.000000 20.300000
v 0.777817 14.222183 20.300000
v 0.000000 15.000000 21.700000
v 1.100000 15.000000 21.700000
v 0.777817 14.222183 21.700000
v 0.000000 15.000000 20.300000
v 0.777817 14.222183 20.300000
v 1.100000 15.000000 20.300000
vt 0.000000 0.000000
vt 1.000000 0.000000
vt 1.000000 1.000000
vt 0.000000 1.000000
vt 0.000000 0.000000
vt 1.000000 0.000000
vt 1.000000 1.000000
vt 0.000000 1.000000
vt 0.000000 0.000000
vt 1.000000 0.000000
vt 1.000000 1.000000
vt 0.000000 1.000000
vt 0.000000 0.000000
vt 1.000000 0.000000
vt 1.000000 1.000000
vt 0.000000 1.000000
vt 0.000000 0.000000
vt 1.000000 0.000000
vt 1.000000 1.000000
vt 0.000000 1.000000
vt 0.000000 0.000000
vt 1.000000 0.000000
vt 1.000000 1.000000
vt 0.000000 1.000000
vt 0.000000 0.000000
vt 1.000000 0.000000
vt 1.000000 1.000000
vt 0.000000 1.000000
vt 0.000000 0.000000
vt 1.000000 0.000000
vt 1.000000 1.000000
vt 0.000000 1.000000
vt 0.000000 0.000000
vt 1.000000 0.000000
vt 1.000000 1.000000
vt 0.000000 1.000000
vt 0.000000 0.000000
vt 1.000000 0.000000
vt 1.000000 1.000000
vt 0.000000 1.000000
vt 0.000000 0.000000
vt 1.000000 0.000000
vt 1.000000 1.000000
vt 0.000000 1.000000
vt 0.000000 0.000000
vt 1.000000 0.000000
vt 1.000000 1.000000
vt 0.000000 1.000000
vt 0.000000 0.000000
vt 1.000000 0.000000
vt 1.000000 1.000000
vt 0.000000 1.000000
vt 0.000000 0.000000
vt 1.000000 0.000000
vt 1.000000 1.000000
vt 0.000000 1.000000
vt 0.000000 0.000000
vt 1.000000 0.000000
vt 1.000000 1.000000
vt 0.000000 1.000000
vt 0.000000 0.000000
vt 1.000000 0.000000
vt 1.000000 1.000000
vt 0.000000 1.000000
vt 0.000000 0.000000
vt 1.000000 0.000000
vt 1.000000 1.000000
vt 0.000000 1.000000
vt 0.000000 0.000000
vt 1.000000 0.000000
vt 1.000000 1.000000
vt 0.000000 1.000000
vt 0.000000 0.000000
vt 1.000000 0.000000
vt 1.000000 1.000000
vt 0.000000 1.000000
vt 0.000000 0.000000
vt 1.000000 0.000000
vt 1.000000 1.000000
vt 0.000000 1.000000
vt 0.000000 0.000000
vt 1.000000 0.000000
vt 1.000000 1.000000
vt 0.000000 1.000000
vt 0.000000 0.000000
vt 1.000000 0.000000
vt 1.000000 1.000000
vt 0.000000 1.000000
vt 0.000000 0.000000
vt 1.000000 0.000000
vt 1.000000 1.000000
vt 0.000000 1.000000
vt 0.000000 0.000000
vt 1.000000 0.000000
vt 1.000000 1.000000
vt 0.000000 1.000000
vt 0.000000 0.000000
vt 1.000000 0.000000
vt 1.000000 1.000000
vt 0.000000 1.000000
vt 0.000000 0.000000
vt 1.000000 0.000000
vt 1.000000 1.000000
vt 0.000000 1.000000
vt 0.000000 0.000000
vt 1.000000 0.000000
vt 1.000000 1.000000
vt 0.000000 1.000000
vt 0.000000 0.000000
vt 1.000000 0.000000
vt 1.000000 1.000000
vt 0.000000 1.000000
vt 0.000000 0.000000
vt 1.000000 0.000000
vt 1.000000 1.000000
vt 0.000000 1.000000
vt 0.000000 0.000000
vt 1.000000 0.000000
vt 1.000000 1.000000
vt 0.000000 1.000000
vt 0.000000 0.000000
vt 1.000000 0.000000
vt 1.000000 1.000000
vt 0.000000 1.000000
vt 0.000000 0.000000
vt 1.000000 0.000000
vt 1.000000 1.000000
vt 0.000000 1.000000
vt 0.000000 0.000000
vt 1.000000 0.000000
vt 1.000000 1.000000
vt 0.000000 1.000000
vt 0.000000 0.000000
vt 1.000000 0.000000
vt 1.000000 1.000000
vt 0.000000 1.000000
vt 0.000000 0.000000
vt 1.000000 0.000000
vt 1.000000 1.000000
vt 0.000000 1.000000
vt 0.000000 0.000000
vt 1.000000 0.000000
vt 1.000000 1.000000
vt 0.000000 1.000000
vt 0.000000 0.000000
vt 1.000000 0.000000
vt 1.000000 1.000000
vt 0.000000 1.000000
vt 0.000000 0.000000
vt 1.000000 0.000000
vt 1.000000 1.000000
vt 0.000000 1.000000
vt 0.000000 0.000000
vt 1.000000 0.000000
vt 1.000000 1.000000
vt 0.000000 1.000000
vt 0.000000 0.000000
vt 1.000000 0.000000
vt 1.000000 1.000000
vt 0.000000 1.000000
vt 0.000000 0.000000
vt 1.000000 0.000000
vt 1.000000 1.000000
vt 0.000000 1.000000
vt 0.000000 0.000000
vt 1.000000 0.000000
vt 1.000000 1.000000
vt 0.000000 1.000000
vt 0.000000 0.000000
vt 1.000000 0.000000
vt 1.000000 1.000000
vt 0.000000 1.000000
vt 0.000000 0.000000
vt 1.000000 0.000000
vt 1.000000 1.000000
vt 0.000000 1.000000
vt 0.000000 0.000000
vt 1.000000 0.000000
vt 1.000000 1.000000
vt 0.000000 1.000000
vt 0.000000 0.000000
vt 1.000000 0.000000
vt 1.000000 1.000000
vt 0.000000 1.000000
vt 0.000000 0.000000
vt 1.000000 0.000000
vt 1.000000 1.000000
vt 0.000000 1.000000
vt 0.000000 0.000000
vt 1.000000 0.000000
vt 1.000000 1.000000
vt 0.000000 1.000000
vt 0.000000 0.000000
vt 1.000000 0.000000
vt 1.000000 1.000000
vt 0.000000 1.000000
vt 0.000000 0.000000
vt 1.000000 0.000000
vt 1.000000 1.000000
vt 0.000000 1.000000
vt 0.000000 0.000000
vt 1.000000 0.000000
vt 1.000000 1.000000
vt 0.000000 1.000000
vt 0.000000 0.000000
vt 1.000000 0.000000
vt 1.000000 1.000000
vt 0.000000 1.000000
vt 0.000000 0.000000
vt 1.000000 0.000000
vt 1.000000 1.000000
vt 0.000000 1.000000
vt 0.000000 0.000000
vt 1.000000 0.000000
vt 1.000000 1.000000
vt 0.000000 1.000000
vt 0.000000 0.000000
vt 1.000000 0.000000
vt 1.000000 1.000000
vt 0.000000 1.000000
vt 0.000000 0.000000
vt 1.000000 0.000000
vt 1.000000 1.000000
vt 0.000000 1.000000
vt 0.000000 0.000000
vt 1.000000 0.000000
vt 1.000000 1.000000
vt 0.000000 1.000000
vt 0.000000 0.000000
vt 1.000000 0.000000
vt 1.000000 1.000000
vt 0.000000 1.000000
vt 0.000000 0.000000
vt 1.000000 0.000000
vt 1.000000 1.000000
vt 0.000000 1.000000
vt 0.000000 0.000000
vt 1.000000 0.000000
vt 1.000000 1.000000
vt 0.000000 1.000000
vt 0.000000 0.000000
vt 1.000000 0.000000
vt 1.000000 1.000000
vt 0.000000 1.000000
vt 0.000000 0.000000
vt 1.000000 0.000000
vt 1.000000 1.000000
vt 0.000000 1.000000
vt 0.000000 0.000000
vt 1.000000 0.000000
vt 1.000000 1.000000
vt 0.000000 1.000000
vt 0.000000 0.000000
vt 1.000000 0.000000
vt 1.000000 1.000000
vt 0.000000 1.000000
vt 0.000000 0.000000
vt 1.000000 0.000000
vt 1.000000 1.000000
vt 0.000000 1.000000
vt 0.000000 0.000000
vt 1.000000 0.000000
vt 1.000000 1.000000
vt 0.000000 1.000000
vt 0.000000 0.000000
vt 1.000000 0.000000
vt 1.000000 1.000000
vt 0.000000 1.000000
vt 0.000000 0.000000
vt 1.000000 0.000000
vt 1.000000 1.000000
vt 0.000000 1.000000
vt 0.000000 0.000000
vt 1.000000 0.000000
vt 1.000000 1.000000
vt 0.000000 1.000000
vt 0.000000 0.000000
vt 1.000000 0.000000
vt 1.000000 1.000000
vt 0.000000 1.000000
vt 0.000000 0.000000
vt 1.000000 0.000000
vt 1.000000 1.000000
vt 0.000000 1.000000
vt 0.000000 0.000000
vt 1.000000 0.000000
vt 1.000000 1.000000
vt 0.000000 1.000000
vt 0.000000 0.000000
vt 1.000000 0.000000
vt 1.000000 1.000000
vt 0.000000 1.000000
vt 0.500000 0.500000
vt 0.000000 0.000000
vt 1.000000 0.000000
vt 0.500000 0.500000
vt 0.000000 0.000000
vt 1.000000 0.000000
vt 0.000000 0.000000
vt 1.000000 0.000000
vt 1.000000 1.000000
vt 0.000000 1.000000
vt 0.500000 0.500000
vt 0.000000 0.000000
vt 1.000000 0.000000
vt 0.500000 0.500000
vt 0.000000 0.000000
vt 1.000000 0.000000
vt 0.000000 0.000000
vt 1.000000 0.000000
vt 1.000000 1.000000
vt 0.000000 1.000000
vt 0.500000 0.500000
vt 0.000000 0.000000
vt 1.000000 0.000000
vt 0.500000 0.500000
vt 0.000000 0.000000
vt 1.000000 0.000000
vt 0.000000 0.000000
vt 1.000000 0.000000
vt 1.000000 1.000000
vt 0.000000 1.000000
vt 0.500000 0.500000
vt 0.000000 0.000000
vt 1.000000 0.000000
vt 0.500000 0.500000
vt 0.000000 0.000000
vt 1.000000 0.000000
vt 0.000000 0.000000
vt 1.000000 0.000000
vt 1.000000 1.000000
vt 0.000000 1.000000
vt 0.500000 0.500000
vt 0.000000 0.000000
vt 1.000000 0.000000
vt 0.500000 0.500000
vt 0.000000 0.000000
vt 1.000000 0.000000
vt 0.000000 0.000000
vt 1.000000 0.000000
vt 1.000000 1.000000
vt 0.000000 1.000000
vt 0.500000 0.500000
vt 0.000000 0.000000
vt 1.000000 0.000000
vt 0.500000 0.500000
vt 0.000000 0.000000
vt 1.000000 0.000000
vt 0.000000 0.000000
vt 1.000000 0.000000
vt 1.000000 1.000000
vt 0.000000 1.000000
vt 0.500000 0.500000
vt 0.000000 0.000000
vt 1.000000 0.000000
vt 0.500000 0.500000
vt 0.000000 0.000000
vt 1.000000 0.000000
vt 0.000000 0.000000
vt 1.000000 0.000000
vt 1.000000 1.000000
vt 0.000000 1.000000
vt 0.500000 0.500000
vt 0.000000 0.000000
vt 1.000000 0.000000
vt 0.500000 0.500000
vt 0.000000 0.000000
vt 1.000000 0.000000
vt 0.000000 0.000000
vt 1.000000 0.000000
vt 1.000000 1.000000
vt 0.000000 1.000000
vt 0.500000 0.500000
vt 0.000000 0.000000
vt 1.000000 0.000000
vt 0.500000 0.500000
vt 0.000000 0.000000
vt 1.000000 0.000000
vt 0.000000 0.000000
vt 1.000000 0.000000
vt 1.000000 1.000000
vt 0.000000 1.000000
vt 0.500000 0.500000
vt 0.000000 0.000000
vt 1.000000 0.000000
vt 0.500000 0.500000
vt 0.000000 0.000000
vt 1.000000 0.000000
vt 0.000000 0.000000
vt 1.000000 0.000000
vt 1.000000 1.000000
vt 0.000000 1.000000
vt 0.500000 0.500000
vt 0.000000 0.000000
vt 1.000000 0.000000
vt 0.500000 0.500000
vt 0.000000 0.000000
vt 1.000000 0.000000
vt 0.000000 0.000000
vt 1.000000 0.000000
vt 1.000000 1.000000
vt 0.000000 1.000000
vt 0.500000 0.500000
vt 0.000000 0.000000
vt 1.000000 0.000000
vt 0.500000 0.500000
vt 0.000000 0.000000
vt 1.000000 0.000000
vt 0.000000 0.000000
vt 1.000000 0.000000
vt 1.000000 1.000000
vt 0.000000 1.000000
vt 0.500000 0.500000
vt 0.000000 0.000000
vt 1.000000 0.000000
vt 0.500000 0.500000
vt 0.000000 0.000000
vt 1.000000 0.000000
vt 0.000000 0.000000
vt 1.000000 0.000000
vt 1.000000 1.000000
vt 0.000000 1.000000
vt 0.500000 0.500000
vt 0.000000 0.000000
vt 1.000000 0.000000
vt 0.500000 0.500000
vt 0.000000 0.000000
vt 1.000000 0.000000
vt 0.000000 0.000000
vt 1.000000 0.000000
vt 1.000000 1.000000
vt 0.000000 1.000000
vt 0.500000 0.500000
vt 0.000000 0.000000
vt 1.000000 0.000000
vt 0.500000 0.500000
vt 0.000000 0.000000
vt 1.000000 0.000000
vt 0.000000 0.000000
vt 1.000000 0.000000
vt 1.000000 1.000000
vt 0.000000 1.000000
vt 0.500000 0.500000
vt 0.000000 0.000000
vt 1.000000 0.000000
vt 0.500000 0.500000
vt 0.000000 0.000000
vt 1.000000 0.000000
vt 0.000000 0.000000
vt 1.000000 0.000000
vt 1.000000 1.000000
vt 0.000000 1.000000
vt 0.500000 0.500000
vt 0.000000 0.000000
vt 1.000000 0.000000
vt 0.500000 0.500000
vt 0.000000 0.000000
vt 1.000000 0.000000
vt 0.000000 0.000000
vt 1.000000 0.000000
vt 1.000000 1.000000
vt 0.000000 1.000000
vt 0.500000 0.500000
vt 0.000000 0.000000
vt 1.000000 0.000000
vt 0.500000 0.500000
vt 0.000000 0.000000
vt 1.000000 0.000000
vt 0.000000 0.000000
vt 1.000000 0.000000
vt 1.000000 1.000000
vt 0.000000 1.000000
vt 0.500000 0.500000
vt 0.000000 0.000000
vt 1.000000 0.000000
vt 0.500000 0.500000
vt 0.000000 0.000000
vt 1.000000 0.000000
vt 0.000000 0.000000
vt 1.000000 0.000000
vt 1.000000 1.000000
vt 0.000000 1.000000
vt 0.500000 0.500000
vt 0.000000 0.000000
vt 1.000000 0.000000
vt 0.500000 0.500000
vt 0.000000 0.000000
vt 1.000000 0.000000
vt 0.000000 0.000000
vt 1.000000 0.000000
vt 1.000000 1.000000
vt 0.000000 1.000000
vt 0.500000 0.500000
vt 0.000000 0.000000
vt 1.000000 0.000000
vt 0.500000 0.500000
vt 0.000000 0.000000
vt 1.000000 0.000000
vt 0.000000 0.000000
vt 1.000000 0.000000
vt 1.000000 1.000000
vt 0.000000 1.000000
vt 0.500000 0.500000
vt 0.000000 0.000000
vt 1.000000 0.000000
vt 0.500000 0.500000
vt 0.000000 0.000000
vt 1.000000 0.000000
vt 0.000000 0.000000
vt 1.000000 0.000000
vt 1.000000 1.000000
vt 0.000000 1.000000
vt 0.500000 0.500000
vt 0.000000 0.000000
vt 1.000000 0.000000
vt 0.500000 0.500000
vt 0.000000 0.000000
vt 1.000000 0.000000
vt 0.000000 0.000000
vt 1.000000 0.000000
vt 1.000000 1.000000
vt 0.000000 1.000000
vt 0.500000 0.500000
vt 0.000000 0.000000
vt 1.000000 0.000000
vt 0.500000 0.500000
vt 0.000000 0.000000
vt 1.000000 0.000000
vt 0.000000 0.000000
vt 1.000000 0.000000
vt 1.000000 1.000000
vt 0.000000 1.000000
vt 0.500000 0.500000
vt 0.000000 0.000000
vt 1.000000 0.000000
vt 0.500000 0.500000
vt 0.000000 0.000000
vt 1.000000 0.000000
vt 0.000000 0.000000
vt 1.000000 0.000000
vt 1.000000 1.000000
vt 0.000000 1.000000
vt 0.500000 0.500000
vt 0.000000 0.000000
vt 1.000000 0.000000
vt 0.500000 0.500000
vt 0.000000 0.000000
vt 1.000000 0.000000
vt 0.000000 0.000000
vt 1.000000 0.000000
vt 1.000000 1.000000
vt 0.000000 1.000000
vt 0.500000 0.500000
vt 0.000000 0.000000
vt 1.000000 0.000000
vt 0.500000 0.500000
vt 0.000000 0.000000
vt 1.000000 0.000000
vt 0.000000 0.000000
vt 1.000000 0.000000
vt 1.000000 1.000000
vt 0.000000 1.000000
vt 0.500000 0.500000
vt 0.000000 0.000000
vt 1.000000 0.000000
vt 0.500000 0.500000
vt 0.000000 0.000000
vt 1.000000 0.000000
vt 0.000000 0.000000
vt 1.000000 0.000000
vt 1.000000 1.000000
vt 0.000000 1.000000
vt 0.500000 0.500000
vt 0.000000 0.000000
vt 1.000000 0.000000
vt 0.500000 0.500000
vt 0.000000 0.000000
vt 1.000000 0.000000
vt 0.000000 0.000000
vt 1.000000 0.000000
vt 1.000000 1.000000
vt 0.000000 1.000000
vt 0.500000 0.500000
vt 0.000000 0.000000
vt 1.000000 0.000000
vt 0.500000 0.500000
vt 0.000000 0.000000
vt 1.000000 0.000000
vt 0.000000 0.000000
vt 1.000000 0.000000
vt 1.000000 1.000000
vt 0.000000 1.000000
vt 0.500000 0.500000
vt 0.000000 0.000000
vt 1.000000 0.000000
vt 0.500000 0.500000
vt 0.000000 0.000000
vt 1.000000 0.000000
vt 0.000000 0.000000
vt 1.000000 0.000000
vt 1.000000 1.000000
vt 0.000000 1.000000
vt 0.500000 0.500000
vt 0.000000 0.000000
vt 1.000000 0.000000
vt 0.500000 0.500000
vt 0.000000 0.000000
vt 1.000000 0.000000
vt 0.000000 0.000000
vt 1.000000 0.000000
vt 1.000000 1.000000
vt 0.000000 1.000000
vt 0.500000 0.500000
vt 0.000000 0.000000
vt 1.000000 0.000000
vt 0.500000 0.500000
vt 0.000000 0.000000
vt 1.000000 0.000000
vt 0.000000 0.000000
vt 1.000000 0.000000
vt 1.000000 1.000000
vt 0.000000 1.000000
vt 0.500000 0.500000
vt 0.000000 0.000000
vt 1.000000 0.000000
vt 0.500000 0.500000
vt 0.000000 0.000000
vt 1.000000 0.000000
vt 0.000000 0.000000
vt 1.000000 0.000000
vt 1.000000 1.000000
vt 0.000000 1.000000
vt 0.500000 0.500000
vt 0.000000 0.000000
vt 1.000000 0.000000
vt 0.500000 0.500000
vt 0.000000 0.000000
vt 1.000000 0.000000
vt 0.000000 0.000000
vt 1.000000 0.000000
vt 1.000000 1.000000
vt 0.000000 1.000000
vt 0.500000 0.500000
vt 0.000000 0.000000
vt 1.000000 0.000000
vt 0.500000 0.500000
vt 0.000000 0.000000
vt 1.000000 0.000000
vt 0.000000 0.000000
vt 1.000000 0.000000
vt 1.000000 1.000000
vt 0.000000 1.000000
vt 0.500000 0.500000
vt 0.000000 0.000000
vt 1.000000 0.000000
vt 0.500000 0.500000
vt 0.000000 0.000000
vt 1.000000 0.000000
vt 0.000000 0.000000
vt 1.000000 0.000000
vt 1.000000 1.000000
vt 0.000000 1.000000
vt 0.500000 0.500000
vt 0.000000 0.000000
vt 1.000000 0.000000
vt 0.500000 0.500000
vt 0.000000 0.000000
vt 1.000000 0.000000
vt 0.000000 0.000000
vt 1.000000 0.000000
vt 1.000000 1.000000
vt 0.000000 1.000000
vt 0.500000 0.500000
vt 0.000000 0.000000
vt 1.000000 0.000000
vt 0.500000 0.500000
vt 0.000000 0.000000
vt 1.000000 0.000000
vt 0.000000 0.000000
vt 1.000000 0.000000
vt 1.000000 1.000000
vt 0.000000 1.000000
vt 0.500000 0.500000
vt 0.000000 0.000000
vt 1.000000 0.000000
vt 0.500000 0.500000
vt 0.000000 0.000000
vt 1.000000 0.000000
vt 0.000000 0.000000
vt 1.000000 0.000000
vt 1.000000 1.000000
vt 0.000000 1.000000
vt 0.500000 0.500000
vt 0.000000 0.000000
vt 1.000000 0.000000
vt 0.500000 0.500000
vt 0.000000 0.000000
vt 1.000000 0.000000
vt 0.000000 0.000000
vt 1.000000 0.000000
vt 1.000000 1.000000
vt 0.000000 1.000000
vt 0.500000 0.500000
vt 0.000000 0.000000
vt 1.000000 0.000000
vt 0.500000 0.500000
vt 0.000000 0.000000
vt 1.000000 0.000000
vt 0.000000 0.000000
vt 1.000000 0.000000
vt 1.000000 1.000000
vt 0.000000 1.000000
vt 0.000000 0.000000
vt 1.000000 0.000000
vt 1.000000 1.000000
vt 0.000000 1.000000
vt 0.000000 0.000000
vt 1.000000 0.000000
vt 1.000000 1.000000
vt 0.000000 1.000000
vt 0.000000 0.000000
vt 1.000000 0.000000
vt 1.000000 1.000000
vt 0.000000 1.000000
vt 0.000000 0.000000
vt 1.000000 0.000000
vt 1.000000 1.000000
vt 0.000000 1.000000
vt 0.000000 0.000000
vt 1.000000 0.000000
vt 1.000000 1.000000
vt 0.000000 1.000000
vt 0.000000 0.000000
vt 1.000000 0.000000
vt 1.000000 1.000000
vt 0.000000 1.000000
vt 0.000000 0.000000
vt 1.000000 0.000000
vt 1.000000 1.000000
vt 0.000000 1.000000
vt 0.000000 0.000000
vt 1.000000 0.000000
vt 1.000000 1.000000
vt 0.000000 1.000000
vt 0.000000 0.000000
vt 1.000000 0.000000
vt 1.000000 1.000000
vt 0.000000 1.000000
vt 0.000000 0.000000
vt 1.000000 0.000000
vt 1.000000 1.000000
vt 0.000000 1.000000
vt 0.000000 0.000000
vt 1.000000 0.000000
vt 1.000000 1.000000
vt 0.000000 1.000000
vt 0.000000 0.000000
vt 1.000000 0.000000
vt 1.000000 1.000000
vt 0.000000 1.000000
vt 0.000000 0.000000
vt 1.000000 0.000000
vt 1.000000 1.000000
vt 0.000000 1.000000
vt 0.000000 0.000000
vt 1.000000 0.000000
vt 1.000000 1.000000
vt 0.000000 1.000000
vt 0.000000 0.000000
vt 1.000000 0.000000
vt 1.000000 1.000000
vt 0.000000 1.000000
vt 0.000000 0.000000
vt 1.000000 0.000000
vt 1.000000 1.000000
vt 0.000000 1.000000
vt 0.000000 0.000000
vt 1.000000 0.000000
vt 1.000000 1.000000
vt 0.000000 1.000000
vt 0.000000 0.000000
vt 1.000000 0.000000
vt 1.000000 1.000000
vt 0.000000 1.000000
vt 0.000000 0.000000
vt 1.000000 0.000000
vt 1.000000 1.000000
vt 0.000000 1.000000
vt 0.000000 0.000000
vt 1.000000 0.000000
vt 1.000000 1.000000
vt 0.000000 1.000000
vt 0.000000 0.000000
vt 1.000000 0.000000
vt 1.000000 1.000000
vt 0.000000 1.000000
vt 0.000000 0.000000
vt 1.000000 0.000000
vt 1.000000 1.000000
vt 0.000000 1.000000
vt 0.000000 0.000000
vt 1.000000 0.000000
vt 1.000000 1.000000
vt 0.000000 1.000000
vt 0.000000 0.000000
vt 1.000000 0.000000
vt 1.000000 1.000000
vt 0.000000 1.000000
vt 0.000000 0.000000
vt 1.000000 0.000000
vt 1.000000 1.000000
vt 0.000000 1.000000
vt 0.000000 0.000000
vt 1.000000 0.000000
vt 1.000000 1.000000
vt 0.000000 1.000000
vt 0.000000 0.000000
vt 1.000000 0.000000
vt 1.000000 1.000000
vt 0.000000 1.000000
vt 0.000000 0.000000
vt 1.000000 0.000000
vt 1.000000 1.000000
vt 0.000000 1.000000
vt 0.000000 0.000000
vt 1.000000 0.000000
vt 1.000000 1.000000
vt 0.000000 1.000000
vt 0.000000 0.000000
vt 1.000000 0.000000
vt 1.000000 1.000000
vt 0.000000 1.000000
vt 0.000000 0.000000
vt 1.000000 0.000000
vt 1.000000 1.000000
vt 0.000000 1.000000
vt 0.000000 0.000000
vt 1.000000 0.000000
vt 1.000000 1.000000
vt 0.000000 1.000000
vt 0.500000 0.500000
vt 0.000000 0.000000
vt 1.000000 0.000000
vt 0.500000 0.500000
vt 0.000000 0.000000
vt 1.000000 0.000000
vt 0.000000 0.000000
vt 1.000000 0.000000
vt 1.000000 1.000000
vt 0.000000 1.000000
vt 0.500000 0.500000
vt 0.000000 0.000000
vt 1.000000 0.000000
vt 0.500000 0.500000
vt 0.000000 0.000000
vt 1.000000 0.000000
vt 0.000000 0.000000
vt 1.000000 0.000000
vt 1.000000 1.000000
vt 0.000000 1.000000
vt 0.500000 0.500000
vt 0.000000 0.000000
vt 1.000000 0.000000
vt 0.500000 0.500000
vt 0.000000 0.000000
vt 1.000000 0.000000
vt 0.000000 0.000000
vt 1.000000 0.000000
vt 1.000000 1.000000
vt 0.000000 1.000000
vt 0.500000 0.500000
vt 0.000000 0.000000
vt 1.000000 0.000000
vt 0.500000 0.500000
vt 0.000000 0.000000
vt 1.000000 0.000000
vt 0.000000 0.000000
vt 1.000000 0.000000
vt 1.000000 1.000000
vt 0.000000 1.000000
vt 0.500000 0.500000
vt 0.000000 0.000000
vt 1.000000 0.000000
vt 0.500000 0.500000
vt 0.000000 0.000000
vt 1.000000 0.000000
vt 0.000000 0.000000
vt 1.000000 0.000000
vt 1.000000 1.000000
vt 0.000000 1.000000
vt 0.500000 0.500000
vt 0.000000 0.000000
vt 1.000000 0.000000
vt 0.500000 0.500000
vt 0.000000 0.000000
vt 1.000000 0.000000
vt 0.000000 0.000000
vt 1.000000 0.000000
vt 1.000000 1.000000
vt 0.000000 1.000000
vt 0.500000 0.500000
vt 0.000000 0.000000
vt 1.000000 0.000000
vt 0.500000 0.500000
vt 0.000000 0.000000
vt 1.000000 0.000000
vt 0.000000 0.000000
vt 1.000000 0.000000
vt 1.000000 1.000000
vt 0.000000 1.000000
vt 0.500000 0.500000
vt 0.000000 0.000000
vt 1.000000 0.000000
vt 0.500000 0.500000
vt 0.000000 0.000000
vt 1.000000 0.000000
s off
usemtl models/caelum/props/stash/ca_stash_wood.png
f 1/1 2/2 3/3 4/4
f 5/5 6/6 7/7 8/8
f 9/9 10/10 11/11 12/12
f 13/13 14/14 15/15 16/16
f 17/17 18/18 19/19 20/20
f 21/21 22/22 23/23 24/24
f 145/145 146/146 147/147 148/148
f 149/149 150/150 151/151 152/152
f 153/153 154/154 155/155 156/156
f 157/157 158/158 159/159 160/160
f 161/161 162/162 163/163 164/164
f 165/165 166/166 167/167 168/168
f 609/609 610/610 611/611 612/612
f 613/613 614/614 615/615
f 616/616 617/617 618/618
f 619/619 620/620 621/621 622/622
f 623/623 624/624 625/625
f 626/626 627/627 628/628
f 629/629 630/630 631/631 632/632
f 633/633 634/634 635/635
f 636/636 637/637 638/638
f 639/639 640/640 641/641 642/642
f 643/643 644/644 645/645
f 646/646 647/647 648/648
f 649/649 650/650 651/651 652/652
f 653/653 654/654 655/655
f 656/656 657/657 658/658
f 659/659 660/660 661/661 662/662
f 663/663 664/664 665/665
f 666/666 667/667 668/668
f 669/669 670/670 671/671 672/672
f 673/673 674/674 675/675
f 676/676 677/677 678/678
f 679/679 680/680 681/681 682/682
f 683/683 684/684 685/685
f 686/686 687/687 688/688
f 689/689 690/690 691/691 692/692
f 693/693 694/694 695/695
f 696/696 697/697 698/698
f 699/699 700/700 701/701 702/702
f 703/703 704/704 705/705
f 706/706 707/707 708/708
usemtl models/caelum/props/stash/ca_stash_metal.png
f 25/25 26/26 27/27 28/28
f 29/29 30/30 31/31 32/32
f 33/33 34/34 35/35 36/36
f 37/37 38/38 39/39 40/40
f 41/41 42/42 43/43 44/44
f 45/45 46/46 47/47 48/48
f 49/49 50/50 51/51 52/52
f 53/53 54/54 55/55 56/56
f 57/57 58/58 59/59 60/60
f 61/61 62/62 63/63 64/64
f 65/65 66/66 67/67 68/68
f 69/69 70/70 71/71 72/72
f 73/73 74/74 75/75 76/76
f 77/77 78/78 79/79 80/80
f 81/81 82/82 83/83 84/84
f 85/85 86/86 87/87 88/88
f 89/89 90/90 91/91 92/92
f 93/93 94/94 95/95 96/96
f 97/97 98/98 99/99 100/100
f 101/101 102/102 103/103 104/104
f 105/105 106/106 107/107 108/108
f 109/109 110/110 111/111 112/112
f 113/113 114/114 115/115 116/116
f 117/117 118/118 119/119 120/120
f 121/121 122/122 123/123 124/124
f 125/125 126/126 127/127 128/128
f 129/129 130/130 131/131 132/132
f 133/133 134/134 135/135 136/136
f 137/137 138/138 139/139 140/140
f 141/141 142/142 143/143 144/144
f 193/193 194/194 195/195 196/196
f 197/197 198/198 199/199 200/200
f 201/201 202/202 203/203 204/204
f 205/205 206/206 207/207 208/208
f 209/209 210/210 211/211 212/212
f 213/213 214/214 215/215 216/216
f 217/217 218/218 219/219 220/220
f 221/221 222/222 223/223 224/224
f 225/225 226/226 227/227 228/228
f 229/229 230/230 231/231 232/232
f 233/233 234/234 235/235 236/236
f 237/237 238/238 239/239 240/240
f 241/241 242/242 243/243 244/244
f 245/245 246/246 247/247 248/248
f 249/249 250/250 251/251 252/252
f 253/253 254/254 255/255 256/256
f 257/257 258/258 259/259 260/260
f 261/261 262/262 263/263 264/264
f 265/265 266/266 267/267 268/268
f 269/269 270/270 271/271 272/272
f 273/273 274/274 275/275 276/276
f 277/277 278/278 279/279 280/280
f 281/281 282/282 283/283 284/284
f 285/285 286/286 287/287 288/288
f 289/289 290/290 291/291 292/292
f 293/293 294/294 295/295
f 296/296 297/297 298/298
f 299/299 300/300 301/301 302/302
f 303/303 304/304 305/305
f 306/306 307/307 308/308
f 309/309 310/310 311/311 312/312
f 313/313 314/314 315/315
f 316/316 317/317 318/318
f 319/319 320/320 321/321 322/322
f 323/323 324/324 325/325
f 326/326 327/327 328/328
f 329/329 330/330 331/331 332/332
f 333/333 334/334 335/335
f 336/336 337/337 338/338
f 339/339 340/340 341/341 342/342
f 343/343 344/344 345/345
f 346/346 347/347 348/348
f 349/349 350/350 351/351 352/352
f 353/353 354/354 355/355
f 356/356 357/357 358/358
f 359/359 360/360 361/361 362/362
f 363/363 364/364 365/365
f 366/366 367/367 368/368
f 369/369 370/370 371/371 372/372
f 373/373 374/374 375/375
f 376/376 377/377 378/378
f 379/379 380/380 381/381 382/382
f 383/383 384/384 385/385
f 386/386 387/387 388/388
f 389/389 390/390 391/391 392/392
f 393/393 394/394 395/395
f 396/396 397/397 398/398
f 399/399 400/400 401/401 402/402
f 403/403 404/404 405/405
f 406/406 407/407 408/408
f 409/409 410/410 411/411 412/412
f 413/413 414/414 415/415
f 416/416 417/417 418/418
f 419/419 420/420 421/421 422/422
f 423/423 424/424 425/425
f 426/426 427/427 428/428
f 429/429 430/430 431/431 432/432
f 433/433 434/434 435/435
f 436/436 437/437 438/438
f 439/439 440/440 441/441 442/442
f 443/443 444/444 445/445
f 446/446 447/447 448/448
f 449/449 450/450 451/451 452/452
f 453/453 454/454 455/455
f 456/456 457/457 458/458
f 459/459 460/460 461/461 462/462
f 463/463 464/464 465/465
f 466/466 467/467 468/468
f 469/469 470/470 471/471 472/472
f 473/473 474/474 475/475
f 476/476 477/477 478/478
f 479/479 480/480 481/481 482/482
f 483/483 484/484 485/485
f 486/486 487/487 488/488
f 489/489 490/490 491/491 492/492
f 493/493 494/494 495/495
f 496/496 497/497 498/498
f 499/499 500/500 501/501 502/502
f 503/503 504/504 505/505
f 506/506 507/507 508/508
f 509/509 510/510 511/511 512/512
f 513/513 514/514 515/515
f 516/516 517/517 518/518
f 519/519 520/520 521/521 522/522
f 523/523 524/524 525/525
f 526/526 527/527 528/528
f 529/529 530/530 531/531 532/532
f 533/533 534/534 535/535
f 536/536 537/537 538/538
f 539/539 540/540 541/541 542/542
f 543/543 544/544 545/545
f 546/546 547/547 548/548
f 549/549 550/550 551/551 552/552
f 553/553 554/554 555/555
f 556/556 557/557 558/558
f 559/559 560/560 561/561 562/562
f 563/563 564/564 565/565
f 566/566 567/567 568/568
f 569/569 570/570 571/571 572/572
f 573/573 574/574 575/575
f 576/576 577/577 578/578
f 579/579 580/580 581/581 582/582
f 583/583 584/584 585/585
f 586/586 587/587 588/588
f 589/589 590/590 591/591 592/592
f 593/593 594/594 595/595
f 596/596 597/597 598/598
f 599/599 600/600 601/601 602/602
f 603/603 604/604 605/605
f 606/606 607/607 608/608
f 709/709 710/710 711/711 712/712
f 713/713 714/714 715/715 716/716
f 717/717 718/718 719/719 720/720
f 721/721 722/722 723/723 724/724
f 725/725 726/726 727/727 728/728
f 729/729 730/730 731/731 732/732
f 733/733 734/734 735/735 736/736
f 737/737 738/738 739/739 740/740
f 741/741 742/742 743/743 744/744
f 745/745 746/746 747/747 748/748
f 749/749 750/750 751/751 752/752
f 753/753 754/754 755/755 756/756
f 757/757 758/758 759/759 760/760
f 761/761 762/762 763/763 764/764
f 765/765 766/766 767/767 768/768
f 769/769 770/770 771/771 772/772
f 773/773 774/774 775/775 776/776
f 777/777 778/778 779/779 780/780
f 781/781 782/782 783/783 784/784
f 785/785 786/786 787/787 788/788
f 813/813 814/814 815/815 816/816
f 817/817 818/818 819/819 820/820
f 821/821 822/822 823/823 824/824
f 825/825 826/826 827/827 828/828
f 829/829 830/830 831/831 832/832
f 833/833 834/834 835/835 836/836
f 837/837 838/838 839/839 840/840
f 841/841 842/842 843/843
f 844/844 845/845 846/846
f 847/847 848/848 849/849 850/850
f 851/851 852/852 853/853
f 854/854 855/855 856/856
f 857/857 858/858 859/859 860/860
f 861/861 862/862 863/863
f 864/864 865/865 866/866
f 867/867 868/868 869/869 870/870
f 871/871 872/872 873/873
f 874/874 875/875 876/876
f 877/877 878/878 879/879 880/880
f 881/881 882/882 883/883
f 884/884 885/885 886/886
f 887/887 888/888 889/889 890/890
f 891/891 892/892 893/893
f 894/894 895/895 896/896
f 897/897 898/898 899/899 900/900
f 901/901 902/902 903/903
f 904/904 905/905 906/906
f 907/907 908/908 909/909 910/910
f 911/911 912/912 913/913
f 914/914 915/915 916/916
usemtl models/caelum/props/stash/ca_stash_inside.png
f 169/169 170/170 171/171 172/172
f 173/173 174/174 175/175 176/176
f 177/177 178/178 179/179 180/180
f 181/181 182/182 183/183 184/184
f 185/185 186/186 187/187 188/188
f 189/189 190/190 191/191 192/192
f 789/789 790/790 791/791 792/792
f 793/793 794/794 795/795 796/796
f 797/797 798/798 799/799 800/800
f 801/801 802/802 803/803 804/804
f 805/805 806/806 807/807 808/808
f 809/809 810/810 811/811 812/812
